<?xml version="1.0" encoding="utf-8"?>
<svg xmlns="http://www.w3.org/2000/svg" xmlns:xlink="http://www.w3.org/1999/xlink" width="600" height="400" viewBox="0 0 2400 1600">
<defs>
  <clipPath id="clip000">
    <rect x="0" y="0" width="2400" height="1600"/>
  </clipPath>
</defs>
<path clip-path="url(#clip000)" d="M0 1600 L2400 1600 L2400 0 L0 0  Z" fill="#ffffff" fill-rule="evenodd" fill-opacity="1"/>
<defs>
  <clipPath id="clip001">
    <rect x="480" y="0" width="1681" height="1600"/>
  </clipPath>
</defs>
<path clip-path="url(#clip000)" d="M86.9921 1521.01 L2352.76 1521.01 L2352.76 47.2441 L86.9921 47.2441  Z" fill="#ffffff" fill-rule="evenodd" fill-opacity="1"/>
<defs>
  <clipPath id="clip002">
    <rect x="86" y="47" width="2267" height="1475"/>
  </clipPath>
</defs>
<polyline clip-path="url(#clip002)" style="stroke:#000000; stroke-linecap:round; stroke-linejoin:round; stroke-width:2; stroke-opacity:0.1; fill:none" points="313.569,1521.01 313.569,47.2441 "/>
<polyline clip-path="url(#clip002)" style="stroke:#000000; stroke-linecap:round; stroke-linejoin:round; stroke-width:2; stroke-opacity:0.1; fill:none" points="766.721,1521.01 766.721,47.2441 "/>
<polyline clip-path="url(#clip002)" style="stroke:#000000; stroke-linecap:round; stroke-linejoin:round; stroke-width:2; stroke-opacity:0.1; fill:none" points="1219.87,1521.01 1219.87,47.2441 "/>
<polyline clip-path="url(#clip002)" style="stroke:#000000; stroke-linecap:round; stroke-linejoin:round; stroke-width:2; stroke-opacity:0.1; fill:none" points="1673.03,1521.01 1673.03,47.2441 "/>
<polyline clip-path="url(#clip002)" style="stroke:#000000; stroke-linecap:round; stroke-linejoin:round; stroke-width:2; stroke-opacity:0.1; fill:none" points="2126.18,1521.01 2126.18,47.2441 "/>
<polyline clip-path="url(#clip000)" style="stroke:#000000; stroke-linecap:round; stroke-linejoin:round; stroke-width:4; stroke-opacity:1; fill:none" points="86.9921,1521.01 2352.76,1521.01 "/>
<polyline clip-path="url(#clip000)" style="stroke:#000000; stroke-linecap:round; stroke-linejoin:round; stroke-width:4; stroke-opacity:1; fill:none" points="313.569,1521.01 313.569,1502.11 "/>
<polyline clip-path="url(#clip000)" style="stroke:#000000; stroke-linecap:round; stroke-linejoin:round; stroke-width:4; stroke-opacity:1; fill:none" points="766.721,1521.01 766.721,1502.11 "/>
<polyline clip-path="url(#clip000)" style="stroke:#000000; stroke-linecap:round; stroke-linejoin:round; stroke-width:4; stroke-opacity:1; fill:none" points="1219.87,1521.01 1219.87,1502.11 "/>
<polyline clip-path="url(#clip000)" style="stroke:#000000; stroke-linecap:round; stroke-linejoin:round; stroke-width:4; stroke-opacity:1; fill:none" points="1673.03,1521.01 1673.03,1502.11 "/>
<polyline clip-path="url(#clip000)" style="stroke:#000000; stroke-linecap:round; stroke-linejoin:round; stroke-width:4; stroke-opacity:1; fill:none" points="2126.18,1521.01 2126.18,1502.11 "/>
<path clip-path="url(#clip000)" d="M267.631 1566.58 L297.307 1566.58 L297.307 1570.51 L267.631 1570.51 L267.631 1566.58 Z" fill="#000000" fill-rule="nonzero" fill-opacity="1" /><path clip-path="url(#clip000)" d="M311.427 1579.47 L327.747 1579.47 L327.747 1583.41 L305.802 1583.41 L305.802 1579.47 Q308.464 1576.72 313.048 1572.09 Q317.654 1567.44 318.835 1566.09 Q321.08 1563.57 321.96 1561.83 Q322.862 1560.07 322.862 1558.38 Q322.862 1555.63 320.918 1553.89 Q318.997 1552.16 315.895 1552.16 Q313.696 1552.16 311.242 1552.92 Q308.812 1553.69 306.034 1555.24 L306.034 1550.51 Q308.858 1549.38 311.312 1548.8 Q313.765 1548.22 315.802 1548.22 Q321.173 1548.22 324.367 1550.91 Q327.561 1553.59 327.561 1558.08 Q327.561 1560.21 326.751 1562.13 Q325.964 1564.03 323.858 1566.63 Q323.279 1567.3 320.177 1570.51 Q317.075 1573.71 311.427 1579.47 Z" fill="#000000" fill-rule="nonzero" fill-opacity="1" /><path clip-path="url(#clip000)" d="M347.561 1551.93 Q343.95 1551.93 342.122 1555.49 Q340.316 1559.03 340.316 1566.16 Q340.316 1573.27 342.122 1576.83 Q343.95 1580.38 347.561 1580.38 Q351.196 1580.38 353.001 1576.83 Q354.83 1573.27 354.83 1566.16 Q354.83 1559.03 353.001 1555.49 Q351.196 1551.93 347.561 1551.93 M347.561 1548.22 Q353.372 1548.22 356.427 1552.83 Q359.506 1557.41 359.506 1566.16 Q359.506 1574.89 356.427 1579.5 Q353.372 1584.08 347.561 1584.08 Q341.751 1584.08 338.673 1579.5 Q335.617 1574.89 335.617 1566.16 Q335.617 1557.41 338.673 1552.83 Q341.751 1548.22 347.561 1548.22 Z" fill="#000000" fill-rule="nonzero" fill-opacity="1" /><path clip-path="url(#clip000)" d="M720.784 1566.58 L750.46 1566.58 L750.46 1570.51 L720.784 1570.51 L720.784 1566.58 Z" fill="#000000" fill-rule="nonzero" fill-opacity="1" /><path clip-path="url(#clip000)" d="M761.362 1579.47 L769.001 1579.47 L769.001 1553.11 L760.691 1554.77 L760.691 1550.51 L768.955 1548.85 L773.631 1548.85 L773.631 1579.47 L781.27 1579.47 L781.27 1583.41 L761.362 1583.41 L761.362 1579.47 Z" fill="#000000" fill-rule="nonzero" fill-opacity="1" /><path clip-path="url(#clip000)" d="M800.714 1551.93 Q797.103 1551.93 795.274 1555.49 Q793.469 1559.03 793.469 1566.16 Q793.469 1573.27 795.274 1576.83 Q797.103 1580.38 800.714 1580.38 Q804.348 1580.38 806.154 1576.83 Q807.983 1573.27 807.983 1566.16 Q807.983 1559.03 806.154 1555.49 Q804.348 1551.93 800.714 1551.93 M800.714 1548.22 Q806.524 1548.22 809.58 1552.83 Q812.659 1557.41 812.659 1566.16 Q812.659 1574.89 809.58 1579.5 Q806.524 1584.08 800.714 1584.08 Q794.904 1584.08 791.825 1579.5 Q788.77 1574.89 788.77 1566.16 Q788.77 1557.41 791.825 1552.83 Q794.904 1548.22 800.714 1548.22 Z" fill="#000000" fill-rule="nonzero" fill-opacity="1" /><path clip-path="url(#clip000)" d="M1219.87 1551.93 Q1216.26 1551.93 1214.43 1555.49 Q1212.63 1559.03 1212.63 1566.16 Q1212.63 1573.27 1214.43 1576.83 Q1216.26 1580.38 1219.87 1580.38 Q1223.51 1580.38 1225.31 1576.83 Q1227.14 1573.27 1227.14 1566.16 Q1227.14 1559.03 1225.31 1555.49 Q1223.51 1551.93 1219.87 1551.93 M1219.87 1548.22 Q1225.68 1548.22 1228.74 1552.83 Q1231.82 1557.41 1231.82 1566.16 Q1231.82 1574.89 1228.74 1579.5 Q1225.68 1584.08 1219.87 1584.08 Q1214.06 1584.08 1210.99 1579.5 Q1207.93 1574.89 1207.93 1566.16 Q1207.93 1557.41 1210.99 1552.83 Q1214.06 1548.22 1219.87 1548.22 Z" fill="#000000" fill-rule="nonzero" fill-opacity="1" /><path clip-path="url(#clip000)" d="M1647.71 1579.47 L1655.35 1579.47 L1655.35 1553.11 L1647.04 1554.77 L1647.04 1550.51 L1655.31 1548.85 L1659.98 1548.85 L1659.98 1579.47 L1667.62 1579.47 L1667.62 1583.41 L1647.71 1583.41 L1647.71 1579.47 Z" fill="#000000" fill-rule="nonzero" fill-opacity="1" /><path clip-path="url(#clip000)" d="M1687.07 1551.93 Q1683.45 1551.93 1681.63 1555.49 Q1679.82 1559.03 1679.82 1566.16 Q1679.82 1573.27 1681.63 1576.83 Q1683.45 1580.38 1687.07 1580.38 Q1690.7 1580.38 1692.51 1576.83 Q1694.33 1573.27 1694.33 1566.16 Q1694.33 1559.03 1692.51 1555.49 Q1690.7 1551.93 1687.07 1551.93 M1687.07 1548.22 Q1692.88 1548.22 1695.93 1552.83 Q1699.01 1557.41 1699.01 1566.16 Q1699.01 1574.89 1695.93 1579.5 Q1692.88 1584.08 1687.07 1584.08 Q1681.26 1584.08 1678.18 1579.5 Q1675.12 1574.89 1675.12 1566.16 Q1675.12 1557.41 1678.18 1552.83 Q1681.26 1548.22 1687.07 1548.22 Z" fill="#000000" fill-rule="nonzero" fill-opacity="1" /><path clip-path="url(#clip000)" d="M2104.95 1579.47 L2121.27 1579.47 L2121.27 1583.41 L2099.33 1583.41 L2099.33 1579.47 Q2101.99 1576.72 2106.57 1572.09 Q2111.18 1567.44 2112.36 1566.09 Q2114.61 1563.57 2115.49 1561.83 Q2116.39 1560.07 2116.39 1558.38 Q2116.39 1555.63 2114.44 1553.89 Q2112.52 1552.16 2109.42 1552.16 Q2107.22 1552.16 2104.77 1552.92 Q2102.34 1553.69 2099.56 1555.24 L2099.56 1550.51 Q2102.38 1549.38 2104.84 1548.8 Q2107.29 1548.22 2109.33 1548.22 Q2114.7 1548.22 2117.89 1550.91 Q2121.09 1553.59 2121.09 1558.08 Q2121.09 1560.21 2120.28 1562.13 Q2119.49 1564.03 2117.38 1566.63 Q2116.8 1567.3 2113.7 1570.51 Q2110.6 1573.71 2104.95 1579.47 Z" fill="#000000" fill-rule="nonzero" fill-opacity="1" /><path clip-path="url(#clip000)" d="M2141.09 1551.93 Q2137.48 1551.93 2135.65 1555.49 Q2133.84 1559.03 2133.84 1566.16 Q2133.84 1573.27 2135.65 1576.83 Q2137.48 1580.38 2141.09 1580.38 Q2144.72 1580.38 2146.53 1576.83 Q2148.36 1573.27 2148.36 1566.16 Q2148.36 1559.03 2146.53 1555.49 Q2144.72 1551.93 2141.09 1551.93 M2141.09 1548.22 Q2146.9 1548.22 2149.95 1552.83 Q2153.03 1557.41 2153.03 1566.16 Q2153.03 1574.89 2149.95 1579.5 Q2146.9 1584.08 2141.09 1584.08 Q2135.28 1584.08 2132.2 1579.5 Q2129.14 1574.89 2129.14 1566.16 Q2129.14 1557.41 2132.2 1552.83 Q2135.28 1548.22 2141.09 1548.22 Z" fill="#000000" fill-rule="nonzero" fill-opacity="1" /><polyline clip-path="url(#clip002)" style="stroke:#000000; stroke-linecap:round; stroke-linejoin:round; stroke-width:2; stroke-opacity:0.1; fill:none" points="86.9921,1479.3 2352.76,1479.3 "/>
<polyline clip-path="url(#clip002)" style="stroke:#000000; stroke-linecap:round; stroke-linejoin:round; stroke-width:2; stroke-opacity:0.1; fill:none" points="86.9921,1131.71 2352.76,1131.71 "/>
<polyline clip-path="url(#clip002)" style="stroke:#000000; stroke-linecap:round; stroke-linejoin:round; stroke-width:2; stroke-opacity:0.1; fill:none" points="86.9921,784.126 2352.76,784.126 "/>
<polyline clip-path="url(#clip002)" style="stroke:#000000; stroke-linecap:round; stroke-linejoin:round; stroke-width:2; stroke-opacity:0.1; fill:none" points="86.9921,436.54 2352.76,436.54 "/>
<polyline clip-path="url(#clip002)" style="stroke:#000000; stroke-linecap:round; stroke-linejoin:round; stroke-width:2; stroke-opacity:0.1; fill:none" points="86.9921,88.9544 2352.76,88.9544 "/>
<polyline clip-path="url(#clip000)" style="stroke:#000000; stroke-linecap:round; stroke-linejoin:round; stroke-width:4; stroke-opacity:1; fill:none" points="86.9921,1521.01 86.9921,47.2441 "/>
<polyline clip-path="url(#clip000)" style="stroke:#000000; stroke-linecap:round; stroke-linejoin:round; stroke-width:4; stroke-opacity:1; fill:none" points="86.9921,1479.3 105.89,1479.3 "/>
<polyline clip-path="url(#clip000)" style="stroke:#000000; stroke-linecap:round; stroke-linejoin:round; stroke-width:4; stroke-opacity:1; fill:none" points="86.9921,1131.71 105.89,1131.71 "/>
<polyline clip-path="url(#clip000)" style="stroke:#000000; stroke-linecap:round; stroke-linejoin:round; stroke-width:4; stroke-opacity:1; fill:none" points="86.9921,784.126 105.89,784.126 "/>
<polyline clip-path="url(#clip000)" style="stroke:#000000; stroke-linecap:round; stroke-linejoin:round; stroke-width:4; stroke-opacity:1; fill:none" points="86.9921,436.54 105.89,436.54 "/>
<polyline clip-path="url(#clip000)" style="stroke:#000000; stroke-linecap:round; stroke-linejoin:round; stroke-width:4; stroke-opacity:1; fill:none" points="86.9921,88.9544 105.89,88.9544 "/>
<path clip-path="url(#clip000)" d="M10.8708 1516.99 Q10.8708 1520.61 14.4356 1522.43 Q17.9773 1524.24 25.1068 1524.24 Q32.2133 1524.24 35.7781 1522.43 Q39.3197 1520.61 39.3197 1516.99 Q39.3197 1513.36 35.7781 1511.55 Q32.2133 1509.73 25.1068 1509.73 Q17.9773 1509.73 14.4356 1511.55 Q10.8708 1513.36 10.8708 1516.99 M7.16713 1516.99 Q7.16713 1511.18 11.7736 1508.13 Q16.3569 1505.05 25.1068 1505.05 Q33.8337 1505.05 38.4401 1508.13 Q43.0234 1511.18 43.0234 1516.99 Q43.0234 1522.8 38.4401 1525.88 Q33.8337 1528.94 25.1068 1528.94 Q16.3569 1528.94 11.7736 1525.88 Q7.16713 1522.8 7.16713 1516.99 Z" fill="#000000" fill-rule="nonzero" fill-opacity="1" /><path clip-path="url(#clip000)" d="M36.4725 1496.83 L36.4725 1491.95 L42.3521 1491.95 L42.3521 1496.83 L36.4725 1496.83 Z" fill="#000000" fill-rule="nonzero" fill-opacity="1" /><path clip-path="url(#clip000)" d="M10.8708 1471.76 Q10.8708 1475.37 14.4356 1477.2 Q17.9773 1479.01 25.1068 1479.01 Q32.2133 1479.01 35.7781 1477.2 Q39.3197 1475.37 39.3197 1471.76 Q39.3197 1468.13 35.7781 1466.32 Q32.2133 1464.49 25.1068 1464.49 Q17.9773 1464.49 14.4356 1466.32 Q10.8708 1468.13 10.8708 1471.76 M7.16713 1471.76 Q7.16713 1465.95 11.7736 1462.9 Q16.3569 1459.82 25.1068 1459.82 Q33.8337 1459.82 38.4401 1462.9 Q43.0234 1465.95 43.0234 1471.76 Q43.0234 1477.57 38.4401 1480.65 Q33.8337 1483.71 25.1068 1483.71 Q16.3569 1483.71 11.7736 1480.65 Q7.16713 1477.57 7.16713 1471.76 Z" fill="#000000" fill-rule="nonzero" fill-opacity="1" /><path clip-path="url(#clip000)" d="M10.8708 1441.6 Q10.8708 1445.21 14.4356 1447.04 Q17.9773 1448.85 25.1068 1448.85 Q32.2133 1448.85 35.7781 1447.04 Q39.3197 1445.21 39.3197 1441.6 Q39.3197 1437.97 35.7781 1436.16 Q32.2133 1434.33 25.1068 1434.33 Q17.9773 1434.33 14.4356 1436.16 Q10.8708 1437.97 10.8708 1441.6 M7.16713 1441.6 Q7.16713 1435.79 11.7736 1432.74 Q16.3569 1429.66 25.1068 1429.66 Q33.8337 1429.66 38.4401 1432.74 Q43.0234 1435.79 43.0234 1441.6 Q43.0234 1447.41 38.4401 1450.49 Q33.8337 1453.55 25.1068 1453.55 Q16.3569 1453.55 11.7736 1450.49 Q7.16713 1447.41 7.16713 1441.6 Z" fill="#000000" fill-rule="nonzero" fill-opacity="1" /><path clip-path="url(#clip000)" d="M10.8708 1168.91 Q10.8708 1172.52 14.4356 1174.35 Q17.9773 1176.16 25.1068 1176.16 Q32.2133 1176.16 35.7781 1174.35 Q39.3197 1172.52 39.3197 1168.91 Q39.3197 1165.28 35.7781 1163.47 Q32.2133 1161.64 25.1068 1161.64 Q17.9773 1161.64 14.4356 1163.47 Q10.8708 1165.28 10.8708 1168.91 M7.16713 1168.91 Q7.16713 1163.1 11.7736 1160.04 Q16.3569 1156.97 25.1068 1156.97 Q33.8337 1156.97 38.4401 1160.04 Q43.0234 1163.1 43.0234 1168.91 Q43.0234 1174.72 38.4401 1177.8 Q33.8337 1180.86 25.1068 1180.86 Q16.3569 1180.86 11.7736 1177.8 Q7.16713 1174.72 7.16713 1168.91 Z" fill="#000000" fill-rule="nonzero" fill-opacity="1" /><path clip-path="url(#clip000)" d="M36.4725 1148.75 L36.4725 1143.86 L42.3521 1143.86 L42.3521 1148.75 L36.4725 1148.75 Z" fill="#000000" fill-rule="nonzero" fill-opacity="1" /><path clip-path="url(#clip000)" d="M38.417 1129.65 L38.417 1113.33 L42.3521 1113.33 L42.3521 1135.28 L38.417 1135.28 Q35.6623 1132.61 31.0327 1128.03 Q26.38 1123.42 25.0374 1122.24 Q22.5143 1120 20.7782 1119.12 Q19.0189 1118.22 17.3291 1118.22 Q14.5745 1118.22 12.8384 1120.16 Q11.1023 1122.08 11.1023 1125.18 Q11.1023 1127.38 11.8662 1129.84 Q12.6301 1132.27 14.181 1135.05 L9.45878 1135.05 Q8.32453 1132.22 7.74583 1129.77 Q7.16713 1127.31 7.16713 1125.28 Q7.16713 1119.91 9.8523 1116.71 Q12.5375 1113.52 17.0282 1113.52 Q19.1578 1113.52 21.0791 1114.33 Q22.9772 1115.11 25.5698 1117.22 Q26.2411 1117.8 29.4587 1120.9 Q32.6531 1124 38.417 1129.65 Z" fill="#000000" fill-rule="nonzero" fill-opacity="1" /><path clip-path="url(#clip000)" d="M7.79213 1103.47 L7.79213 1085.11 L11.7273 1085.11 L11.7273 1099.19 L20.1995 1099.19 Q19.8522 1098.17 19.6902 1097.15 Q19.505 1096.13 19.505 1095.11 Q19.505 1089.33 22.6763 1085.95 Q25.8476 1082.57 31.2642 1082.57 Q36.8429 1082.57 39.9447 1086.04 Q43.0234 1089.51 43.0234 1095.83 Q43.0234 1098.01 42.6531 1100.28 Q42.2827 1102.52 41.5419 1104.93 L36.8429 1104.93 Q37.9771 1102.85 38.5327 1100.62 Q39.0883 1098.4 39.0883 1095.92 Q39.0883 1091.92 36.9818 1089.58 Q34.8753 1087.24 31.2642 1087.24 Q27.6531 1087.24 25.5467 1089.58 Q23.4402 1091.92 23.4402 1095.92 Q23.4402 1097.8 23.8569 1099.67 Q24.2735 1101.53 25.1531 1103.47 L7.79213 1103.47 Z" fill="#000000" fill-rule="nonzero" fill-opacity="1" /><path clip-path="url(#clip000)" d="M10.8708 821.823 Q10.8708 825.434 14.4356 827.262 Q17.9773 829.068 25.1068 829.068 Q32.2133 829.068 35.7781 827.262 Q39.3197 825.434 39.3197 821.823 Q39.3197 818.188 35.7781 816.383 Q32.2133 814.554 25.1068 814.554 Q17.9773 814.554 14.4356 816.383 Q10.8708 818.188 10.8708 821.823 M7.16713 821.823 Q7.16713 816.012 11.7736 812.957 Q16.3569 809.878 25.1068 809.878 Q33.8337 809.878 38.4401 812.957 Q43.0234 816.012 43.0234 821.823 Q43.0234 827.633 38.4401 830.711 Q33.8337 833.767 25.1068 833.767 Q16.3569 833.767 11.7736 830.711 Q7.16713 827.633 7.16713 821.823 Z" fill="#000000" fill-rule="nonzero" fill-opacity="1" /><path clip-path="url(#clip000)" d="M36.4725 801.661 L36.4725 796.776 L42.3521 796.776 L42.3521 801.661 L36.4725 801.661 Z" fill="#000000" fill-rule="nonzero" fill-opacity="1" /><path clip-path="url(#clip000)" d="M7.79213 786.545 L7.79213 768.189 L11.7273 768.189 L11.7273 782.263 L20.1995 782.263 Q19.8522 781.244 19.6902 780.226 Q19.505 779.207 19.505 778.189 Q19.505 772.402 22.6763 769.022 Q25.8476 765.642 31.2642 765.642 Q36.8429 765.642 39.9447 769.114 Q43.0234 772.587 43.0234 778.906 Q43.0234 781.082 42.6531 783.351 Q42.2827 785.596 41.5419 788.003 L36.8429 788.003 Q37.9771 785.92 38.5327 783.698 Q39.0883 781.476 39.0883 778.999 Q39.0883 774.994 36.9818 772.656 Q34.8753 770.318 31.2642 770.318 Q27.6531 770.318 25.5467 772.656 Q23.4402 774.994 23.4402 778.999 Q23.4402 780.874 23.8569 782.749 Q24.2735 784.601 25.1531 786.545 L7.79213 786.545 Z" fill="#000000" fill-rule="nonzero" fill-opacity="1" /><path clip-path="url(#clip000)" d="M10.8708 746.429 Q10.8708 750.041 14.4356 751.869 Q17.9773 753.675 25.1068 753.675 Q32.2133 753.675 35.7781 751.869 Q39.3197 750.041 39.3197 746.429 Q39.3197 742.795 35.7781 740.99 Q32.2133 739.161 25.1068 739.161 Q17.9773 739.161 14.4356 740.99 Q10.8708 742.795 10.8708 746.429 M7.16713 746.429 Q7.16713 740.619 11.7736 737.564 Q16.3569 734.485 25.1068 734.485 Q33.8337 734.485 38.4401 737.564 Q43.0234 740.619 43.0234 746.429 Q43.0234 752.24 38.4401 755.318 Q33.8337 758.374 25.1068 758.374 Q16.3569 758.374 11.7736 755.318 Q7.16713 752.24 7.16713 746.429 Z" fill="#000000" fill-rule="nonzero" fill-opacity="1" /><path clip-path="url(#clip000)" d="M10.8708 473.739 Q10.8708 477.35 14.4356 479.179 Q17.9773 480.984 25.1068 480.984 Q32.2133 480.984 35.7781 479.179 Q39.3197 477.35 39.3197 473.739 Q39.3197 470.105 35.7781 468.299 Q32.2133 466.471 25.1068 466.471 Q17.9773 466.471 14.4356 468.299 Q10.8708 470.105 10.8708 473.739 M7.16713 473.739 Q7.16713 467.929 11.7736 464.873 Q16.3569 461.795 25.1068 461.795 Q33.8337 461.795 38.4401 464.873 Q43.0234 467.929 43.0234 473.739 Q43.0234 479.549 38.4401 482.628 Q33.8337 485.683 25.1068 485.683 Q16.3569 485.683 11.7736 482.628 Q7.16713 479.549 7.16713 473.739 Z" fill="#000000" fill-rule="nonzero" fill-opacity="1" /><path clip-path="url(#clip000)" d="M36.4725 453.577 L36.4725 448.693 L42.3521 448.693 L42.3521 453.577 L36.4725 453.577 Z" fill="#000000" fill-rule="nonzero" fill-opacity="1" /><path clip-path="url(#clip000)" d="M7.79213 439.688 L7.79213 417.466 L9.78286 417.466 L42.3521 430.012 L42.3521 434.897 L11.7273 423.091 L11.7273 439.688 L7.79213 439.688 Z" fill="#000000" fill-rule="nonzero" fill-opacity="1" /><path clip-path="url(#clip000)" d="M7.79213 408.3 L7.79213 389.943 L11.7273 389.943 L11.7273 404.017 L20.1995 404.017 Q19.8522 402.999 19.6902 401.98 Q19.505 400.962 19.505 399.943 Q19.505 394.156 22.6763 390.777 Q25.8476 387.397 31.2642 387.397 Q36.8429 387.397 39.9447 390.869 Q43.0234 394.341 43.0234 400.661 Q43.0234 402.837 42.6531 405.105 Q42.2827 407.351 41.5419 409.758 L36.8429 409.758 Q37.9771 407.675 38.5327 405.452 Q39.0883 403.23 39.0883 400.753 Q39.0883 396.749 36.9818 394.411 Q34.8753 392.073 31.2642 392.073 Q27.6531 392.073 25.5467 394.411 Q23.4402 396.749 23.4402 400.753 Q23.4402 402.628 23.8569 404.503 Q24.2735 406.355 25.1531 408.3 L7.79213 408.3 Z" fill="#000000" fill-rule="nonzero" fill-opacity="1" /><path clip-path="url(#clip000)" d="M38.417 136.882 L38.417 129.244 L12.0514 129.244 L13.718 137.554 L9.45878 137.554 L7.79213 129.29 L7.79213 124.614 L38.417 124.614 L38.417 116.975 L42.3521 116.975 L42.3521 136.882 L38.417 136.882 Z" fill="#000000" fill-rule="nonzero" fill-opacity="1" /><path clip-path="url(#clip000)" d="M36.4725 107.531 L36.4725 102.646 L42.3521 102.646 L42.3521 107.531 L36.4725 107.531 Z" fill="#000000" fill-rule="nonzero" fill-opacity="1" /><path clip-path="url(#clip000)" d="M10.8708 82.4614 Q10.8708 86.0725 14.4356 87.9012 Q17.9773 89.7067 25.1068 89.7067 Q32.2133 89.7067 35.7781 87.9012 Q39.3197 86.0725 39.3197 82.4614 Q39.3197 78.8271 35.7781 77.0216 Q32.2133 75.1929 25.1068 75.1929 Q17.9773 75.1929 14.4356 77.0216 Q10.8708 78.8271 10.8708 82.4614 M7.16713 82.4614 Q7.16713 76.6512 11.7736 73.5957 Q16.3569 70.517 25.1068 70.517 Q33.8337 70.517 38.4401 73.5957 Q43.0234 76.6512 43.0234 82.4614 Q43.0234 88.2715 38.4401 91.3502 Q33.8337 94.4057 25.1068 94.4057 Q16.3569 94.4057 11.7736 91.3502 Q7.16713 88.2715 7.16713 82.4614 Z" fill="#000000" fill-rule="nonzero" fill-opacity="1" /><path clip-path="url(#clip000)" d="M10.8708 52.2995 Q10.8708 55.9106 14.4356 57.7393 Q17.9773 59.5448 25.1068 59.5448 Q32.2133 59.5448 35.7781 57.7393 Q39.3197 55.9106 39.3197 52.2995 Q39.3197 48.6653 35.7781 46.8597 Q32.2133 45.031 25.1068 45.031 Q17.9773 45.031 14.4356 46.8597 Q10.8708 48.6653 10.8708 52.2995 M7.16713 52.2995 Q7.16713 46.4893 11.7736 43.4338 Q16.3569 40.3551 25.1068 40.3551 Q33.8337 40.3551 38.4401 43.4338 Q43.0234 46.4893 43.0234 52.2995 Q43.0234 58.1096 38.4401 61.1883 Q33.8337 64.2439 25.1068 64.2439 Q16.3569 64.2439 11.7736 61.1883 Q7.16713 58.1096 7.16713 52.2995 Z" fill="#000000" fill-rule="nonzero" fill-opacity="1" /><polyline clip-path="url(#clip002)" style="stroke:#009af9; stroke-linecap:round; stroke-linejoin:round; stroke-width:4; stroke-opacity:1; fill:none" points="391.179,88.9544 391.767,88.9544 392.943,88.9544 394.12,88.9544 396.472,88.9544 398.825,88.9544 403.53,88.9544 408.235,88.9544 417.646,88.9544 427.056,88.9544 445.877,88.9544 464.698,88.9544 499.4,88.9544 534.103,88.9544 608.512,88.9544 694.722,88.9544 771.336,88.9544 838.519,88.9544 911.767,88.9544 985.45,88.9544 1066.92,88.9544 1144.43,88.9588 1164.58,88.9805 1184.73,89.1092 1194.8,89.3312 1204.88,89.8708 1214.95,91.1823 1225.02,94.3634 1229.27,96.805 1233.51,100.34 1237.75,105.447 1241.99,112.805 1244.11,117.613 1246.23,123.365 1248.35,130.236 1250.47,138.43 1252.59,148.178 1254.71,159.746 1256.83,173.43 1258.95,189.557 1261.07,208.481 1263.19,230.574 1264.25,242.927 1265.31,256.214 1266.37,270.478 1267.43,285.763 1268.49,302.109 1269.55,319.549 1270.61,338.115 1271.67,357.829 1272.73,378.706 1273.79,400.754 1274.85,423.969 1275.91,448.337 1276.97,473.83 1278.03,500.41 1279.09,528.024 1280.15,556.607 1282.27,616.343 1284.39,678.832 1286.51,743.112 1288.63,808.104 1290.75,872.678 1292.87,935.736 1294.16,973.051 1295.46,1009.23 1296.75,1044.09 1298.05,1077.49 1299.34,1109.33 1300.63,1139.51 1301.93,1167.98 1303.22,1194.71 1304.52,1219.69 1305.81,1242.96 1307.11,1264.53 1308.4,1284.47 1309.69,1302.83 1310.99,1319.69 1312.28,1335.14 1313.58,1349.25 1314.87,1362.1 1316.16,1373.79 1317.46,1384.41 1318.75,1394.02 1321.34,1410.58 1323.93,1424.06 1326.52,1434.98 1329.11,1443.8 1331.7,1450.9 1334.28,1456.61 1339.46,1464.85 1344.64,1470.11 1349.81,1473.47 1354.99,1475.6 1365.35,1477.81 1375.7,1478.7 1394.67,1479.19 1413.64,1479.28 1432.61,1479.29 1451.58,1479.3 1521.66,1479.3 1592.64,1479.3 1672.2,1479.3 1744.29,1479.3 1826.83,1479.3 1903.26,1479.3 1978.6,1479.3 2051.76,1479.3 2089.25,1479.3 2126.75,1479.3 2147.29,1479.3 2167.83,1479.3 2172.97,1479.3 2178.1,1479.3 2180.67,1479.3 2183.24,1479.3 2183.88,1479.3 2184.52,1479.3 "/>
<polyline clip-path="url(#clip002)" style="stroke:#e26f46; stroke-linecap:round; stroke-linejoin:round; stroke-width:4; stroke-opacity:1; fill:none" points="86.9921,88.9544 101.743,88.9544 238.141,88.9544 320.11,88.9544 389.414,88.9544 464.698,88.9544 534.103,88.9545 608.512,88.9548 694.722,88.9573 771.336,88.97 838.519,89.0231 911.767,89.3001 985.45,90.7101 1005.82,91.7044 1026.18,93.26 1046.55,95.6913 1066.92,99.4851 1086.29,105.039 1105.67,113.471 1115.36,119.189 1125.05,126.204 1134.74,134.791 1144.43,145.275 1154.5,158.595 1164.58,174.862 1169.62,184.27 1174.65,194.625 1179.69,206.003 1184.73,218.483 1189.76,232.144 1194.8,247.065 1199.84,263.323 1204.88,280.992 1209.91,300.141 1214.95,320.83 1219.99,343.108 1225.02,367.014 1229.27,388.414 1233.51,410.985 1237.75,434.717 1241.99,459.592 1246.23,485.576 1250.47,512.626 1254.71,540.682 1258.95,569.671 1267.43,630.098 1275.91,693.075 1284.39,757.611 1292.87,822.608 1303.22,900.946 1313.58,976.345 1318.75,1012.41 1323.93,1047.15 1329.11,1080.42 1334.28,1112.11 1339.46,1142.13 1344.64,1170.45 1349.81,1197.02 1354.99,1221.85 1360.17,1244.96 1365.35,1266.38 1370.52,1286.18 1375.7,1304.4 1380.44,1319.79 1385.18,1333.98 1389.93,1347.05 1394.67,1359.05 1404.15,1380.14 1413.64,1397.77 1423.12,1412.42 1432.61,1424.56 1442.09,1434.56 1451.58,1442.79 1460.34,1449.07 1469.1,1454.28 1477.86,1458.62 1486.62,1462.21 1504.14,1467.64 1521.66,1471.36 1557.15,1475.66 1592.64,1477.63 1672.2,1479.01 1744.29,1479.24 1826.83,1479.29 1903.26,1479.3 1978.6,1479.3 2051.76,1479.3 2126.75,1479.3 2208.91,1479.3 2328.27,1479.3 2352.76,1479.3 "/>
<polyline clip-path="url(#clip002)" style="stroke:#3da44d; stroke-linecap:round; stroke-linejoin:round; stroke-width:4; stroke-opacity:1; fill:none" points="86.9921,90.7966 101.743,90.9526 238.141,93.1883 320.11,95.5977 389.414,98.6699 464.698,103.619 534.103,110.356 571.307,115.14 608.512,120.969 651.617,129.314 694.722,139.753 733.029,151.173 771.336,165.013 804.928,179.491 838.519,196.499 856.831,206.961 875.143,218.338 893.455,230.69 911.767,244.076 930.188,258.644 948.609,274.375 967.029,291.322 985.45,309.535 1005.82,331.195 1026.18,354.5 1046.55,379.479 1066.92,406.145 1086.29,433.076 1105.67,461.5 1125.05,491.369 1144.43,522.611 1164.58,556.454 1184.73,591.55 1204.88,627.742 1225.02,664.85 1258.95,728.824 1292.87,793.756 1334.28,872.69 1375.7,949.369 1394.67,983.237 1413.64,1016.11 1432.61,1047.85 1451.58,1078.36 1469.1,1105.36 1486.62,1131.18 1504.14,1155.79 1521.66,1179.16 1539.4,1201.57 1557.15,1222.69 1574.9,1242.55 1592.64,1261.16 1612.53,1280.59 1632.42,1298.56 1652.31,1315.12 1672.2,1330.36 1708.25,1354.81 1744.29,1375.59 1785.56,1395.43 1826.83,1411.68 1865.04,1424.02 1903.26,1434.18 1940.93,1442.43 1978.6,1449.2 2015.18,1454.6 2051.76,1459.05 2126.75,1465.84 2208.91,1470.72 2328.27,1474.84 2352.76,1475.4 "/>
<polyline clip-path="url(#clip002)" style="stroke:#c271d2; stroke-linecap:round; stroke-linejoin:round; stroke-width:4; stroke-opacity:1; fill:none" points="86.9921,158.471 94.3678,159.675 101.743,160.899 169.942,173.201 238.141,187.448 279.126,197.051 320.11,207.504 354.762,217.049 389.414,227.278 464.698,252.031 534.103,278.167 571.307,293.579 608.512,310.017 651.617,330.381 694.722,352.2 733.029,372.831 771.336,394.64 804.928,414.734 838.519,435.728 875.143,459.623 911.767,484.54 948.609,510.597 985.45,537.596 1026.18,568.467 1066.92,600.308 1105.67,631.396 1144.43,663.14 1225.02,730.69 1292.87,788.406 1375.7,858.711 1451.58,921.823 1521.66,978.109 1592.64,1032.44 1632.42,1061.49 1672.2,1089.43 1708.25,1113.74 1744.29,1137.05 1785.56,1162.48 1826.83,1186.55 1865.04,1207.62 1903.26,1227.52 1940.93,1246 1978.6,1263.39 2015.18,1279.25 2051.76,1294.12 2089.25,1308.39 2126.75,1321.7 2167.83,1335.24 2208.91,1347.74 2268.59,1364.16 2328.27,1378.7 2340.51,1381.47 2352.76,1384.16 "/>
<path clip-path="url(#clip000)" d="M1725.98 355.57 L2277.23 355.57 L2277.23 96.3696 L1725.98 96.3696  Z" fill="#ffffff" fill-rule="evenodd" fill-opacity="1"/>
<polyline clip-path="url(#clip000)" style="stroke:#000000; stroke-linecap:round; stroke-linejoin:round; stroke-width:4; stroke-opacity:1; fill:none" points="1725.98,355.57 2277.23,355.57 2277.23,96.3696 1725.98,96.3696 1725.98,355.57 "/>
<polyline clip-path="url(#clip000)" style="stroke:#009af9; stroke-linecap:round; stroke-linejoin:round; stroke-width:4; stroke-opacity:1; fill:none" points="1751.16,148.21 1902.21,148.21 "/>
<path clip-path="url(#clip000)" d="M1932.06 134.772 L1932.06 147.758 L1937.94 147.758 Q1941.2 147.758 1942.98 146.068 Q1944.77 144.379 1944.77 141.254 Q1944.77 138.152 1942.98 136.462 Q1941.2 134.772 1937.94 134.772 L1932.06 134.772 M1927.38 130.93 L1937.94 130.93 Q1943.75 130.93 1946.71 133.568 Q1949.7 136.184 1949.7 141.254 Q1949.7 146.369 1946.71 148.985 Q1943.75 151.601 1937.94 151.601 L1932.06 151.601 L1932.06 165.49 L1927.38 165.49 L1927.38 130.93 Z" fill="#000000" fill-rule="nonzero" fill-opacity="1" /><path clip-path="url(#clip000)" d="M1969.97 143.545 Q1969.26 143.129 1968.4 142.943 Q1967.57 142.735 1966.55 142.735 Q1962.94 142.735 1960.99 145.096 Q1959.07 147.434 1959.07 151.832 L1959.07 165.49 L1954.79 165.49 L1954.79 139.564 L1959.07 139.564 L1959.07 143.592 Q1960.41 141.23 1962.57 140.096 Q1964.72 138.939 1967.8 138.939 Q1968.24 138.939 1968.77 139.008 Q1969.3 139.055 1969.95 139.17 L1969.97 143.545 Z" fill="#000000" fill-rule="nonzero" fill-opacity="1" /><path clip-path="url(#clip000)" d="M1984.67 129.518 Q1981.57 134.842 1980.07 140.05 Q1978.56 145.258 1978.56 150.605 Q1978.56 155.953 1980.07 161.207 Q1981.59 166.439 1984.67 171.74 L1980.97 171.74 Q1977.5 166.3 1975.76 161.045 Q1974.05 155.791 1974.05 150.605 Q1974.05 145.443 1975.76 140.212 Q1977.47 134.98 1980.97 129.518 L1984.67 129.518 Z" fill="#000000" fill-rule="nonzero" fill-opacity="1" /><path clip-path="url(#clip000)" d="M2010.34 149.054 L1995.6 149.054 Q1995.95 155.976 1997.54 158.916 Q1999.53 162.527 2002.98 162.527 Q2006.45 162.527 2008.38 158.892 Q2010.07 155.698 2010.34 149.054 M2010.27 145.119 Q2009.63 138.545 2008.38 136.23 Q2006.39 132.573 2002.98 132.573 Q1999.44 132.573 1997.57 136.184 Q1996.08 139.101 1995.64 145.119 L2010.27 145.119 M2002.98 129.101 Q2008.54 129.101 2011.71 134.008 Q2014.88 138.892 2014.88 147.55 Q2014.88 156.184 2011.71 161.091 Q2008.54 166.022 2002.98 166.022 Q1997.4 166.022 1994.26 161.091 Q1991.08 156.184 1991.08 147.55 Q1991.08 138.892 1994.26 134.008 Q1997.4 129.101 2002.98 129.101 Z" fill="#000000" fill-rule="nonzero" fill-opacity="1" /><path clip-path="url(#clip000)" d="M2027.43 129.263 L2027.43 176.67 L2023.49 176.67 L2023.49 129.263 L2027.43 129.263 Z" fill="#000000" fill-rule="nonzero" fill-opacity="1" /><path clip-path="url(#clip000)" d="M2048.7 167.897 Q2046.89 172.527 2045.18 173.939 Q2043.47 175.351 2040.6 175.351 L2037.2 175.351 L2037.2 171.786 L2039.7 171.786 Q2041.45 171.786 2042.43 170.952 Q2043.4 170.119 2044.58 167.017 L2045.34 165.073 L2034.86 139.564 L2039.37 139.564 L2047.47 159.841 L2055.57 139.564 L2060.09 139.564 L2048.7 167.897 Z" fill="#000000" fill-rule="nonzero" fill-opacity="1" /><path clip-path="url(#clip000)" d="M2065.3 129.518 L2069 129.518 Q2072.47 134.98 2074.19 140.212 Q2075.92 145.443 2075.92 150.605 Q2075.92 155.791 2074.19 161.045 Q2072.47 166.3 2069 171.74 L2065.3 171.74 Q2068.38 166.439 2069.88 161.207 Q2071.41 155.953 2071.41 150.605 Q2071.41 145.258 2069.88 140.05 Q2068.38 134.842 2065.3 129.518 Z" fill="#000000" fill-rule="nonzero" fill-opacity="1" /><path clip-path="url(#clip000)" d="M2085.55 159.61 L2090.44 159.61 L2090.44 165.49 L2085.55 165.49 L2085.55 159.61 M2085.55 140.976 L2090.44 140.976 L2090.44 146.855 L2085.55 146.855 L2085.55 140.976 Z" fill="#000000" fill-rule="nonzero" fill-opacity="1" /><path clip-path="url(#clip000)" d="M2125.55 142.943 Q2122.03 142.943 2120.13 145.49 Q2118.14 148.152 2118.14 152.55 Q2118.14 157.203 2120.11 159.888 Q2122.1 162.55 2125.55 162.55 Q2128.95 162.55 2130.94 159.865 Q2132.94 157.179 2132.94 152.55 Q2132.94 148.314 2130.94 145.49 Q2129.12 142.943 2125.55 142.943 M2125.55 139.564 L2139.69 139.564 L2139.69 143.823 L2134.93 143.823 Q2137.45 147.434 2137.45 152.55 Q2137.45 158.916 2134.28 162.527 Q2131.11 166.161 2125.55 166.161 Q2119.97 166.161 2116.82 162.527 Q2113.65 158.916 2113.65 152.55 Q2113.65 146.138 2116.82 142.55 Q2119.44 139.564 2125.55 139.564 Z" fill="#000000" fill-rule="nonzero" fill-opacity="1" /><path clip-path="url(#clip000)" d="M2146.11 143.962 L2175.78 143.962 L2175.78 147.851 L2146.11 147.851 L2146.11 143.962 M2146.11 153.406 L2175.78 153.406 L2175.78 157.341 L2146.11 157.341 L2146.11 153.406 Z" fill="#000000" fill-rule="nonzero" fill-opacity="1" /><path clip-path="url(#clip000)" d="M2195.88 134.008 Q2192.26 134.008 2190.44 137.573 Q2188.63 141.115 2188.63 148.244 Q2188.63 155.351 2190.44 158.916 Q2192.26 162.457 2195.88 162.457 Q2199.51 162.457 2201.31 158.916 Q2203.14 155.351 2203.14 148.244 Q2203.14 141.115 2201.31 137.573 Q2199.51 134.008 2195.88 134.008 M2195.88 130.305 Q2201.69 130.305 2204.74 134.911 Q2207.82 139.494 2207.82 148.244 Q2207.82 156.971 2204.74 161.578 Q2201.69 166.161 2195.88 166.161 Q2190.06 166.161 2186.99 161.578 Q2183.93 156.971 2183.93 148.244 Q2183.93 139.494 2186.99 134.911 Q2190.06 130.305 2195.88 130.305 Z" fill="#000000" fill-rule="nonzero" fill-opacity="1" /><path clip-path="url(#clip000)" d="M2216.04 159.61 L2220.92 159.61 L2220.92 165.49 L2216.04 165.49 L2216.04 159.61 Z" fill="#000000" fill-rule="nonzero" fill-opacity="1" /><path clip-path="url(#clip000)" d="M2231.15 130.93 L2249.51 130.93 L2249.51 134.865 L2235.44 134.865 L2235.44 143.337 Q2236.45 142.99 2237.47 142.828 Q2238.49 142.642 2239.51 142.642 Q2245.3 142.642 2248.68 145.814 Q2252.06 148.985 2252.06 154.402 Q2252.06 159.98 2248.58 163.082 Q2245.11 166.161 2238.79 166.161 Q2236.62 166.161 2234.35 165.79 Q2232.1 165.42 2229.69 164.679 L2229.69 159.98 Q2231.78 161.115 2234 161.67 Q2236.22 162.226 2238.7 162.226 Q2242.7 162.226 2245.04 160.119 Q2247.38 158.013 2247.38 154.402 Q2247.38 150.791 2245.04 148.684 Q2242.7 146.578 2238.7 146.578 Q2236.82 146.578 2234.95 146.994 Q2233.1 147.411 2231.15 148.291 L2231.15 130.93 Z" fill="#000000" fill-rule="nonzero" fill-opacity="1" /><polyline clip-path="url(#clip000)" style="stroke:#e26f46; stroke-linecap:round; stroke-linejoin:round; stroke-width:4; stroke-opacity:1; fill:none" points="1751.16,200.05 1902.21,200.05 "/>
<path clip-path="url(#clip000)" d="M1932.06 186.612 L1932.06 199.598 L1937.94 199.598 Q1941.2 199.598 1942.98 197.908 Q1944.77 196.219 1944.77 193.094 Q1944.77 189.992 1942.98 188.302 Q1941.2 186.612 1937.94 186.612 L1932.06 186.612 M1927.38 182.77 L1937.94 182.77 Q1943.75 182.77 1946.71 185.408 Q1949.7 188.024 1949.7 193.094 Q1949.7 198.209 1946.71 200.825 Q1943.75 203.441 1937.94 203.441 L1932.06 203.441 L1932.06 217.33 L1927.38 217.33 L1927.38 182.77 Z" fill="#000000" fill-rule="nonzero" fill-opacity="1" /><path clip-path="url(#clip000)" d="M1969.97 195.385 Q1969.26 194.969 1968.4 194.783 Q1967.57 194.575 1966.55 194.575 Q1962.94 194.575 1960.99 196.936 Q1959.07 199.274 1959.07 203.672 L1959.07 217.33 L1954.79 217.33 L1954.79 191.404 L1959.07 191.404 L1959.07 195.432 Q1960.41 193.07 1962.57 191.936 Q1964.72 190.779 1967.8 190.779 Q1968.24 190.779 1968.77 190.848 Q1969.3 190.895 1969.95 191.01 L1969.97 195.385 Z" fill="#000000" fill-rule="nonzero" fill-opacity="1" /><path clip-path="url(#clip000)" d="M1984.67 181.358 Q1981.57 186.682 1980.07 191.89 Q1978.56 197.098 1978.56 202.445 Q1978.56 207.793 1980.07 213.047 Q1981.59 218.279 1984.67 223.58 L1980.97 223.58 Q1977.5 218.14 1975.76 212.885 Q1974.05 207.631 1974.05 202.445 Q1974.05 197.283 1975.76 192.052 Q1977.47 186.82 1980.97 181.358 L1984.67 181.358 Z" fill="#000000" fill-rule="nonzero" fill-opacity="1" /><path clip-path="url(#clip000)" d="M2010.34 200.894 L1995.6 200.894 Q1995.95 207.816 1997.54 210.756 Q1999.53 214.367 2002.98 214.367 Q2006.45 214.367 2008.38 210.732 Q2010.07 207.538 2010.34 200.894 M2010.27 196.959 Q2009.63 190.385 2008.38 188.07 Q2006.39 184.413 2002.98 184.413 Q1999.44 184.413 1997.57 188.024 Q1996.08 190.941 1995.64 196.959 L2010.27 196.959 M2002.98 180.941 Q2008.54 180.941 2011.71 185.848 Q2014.88 190.732 2014.88 199.39 Q2014.88 208.024 2011.71 212.931 Q2008.54 217.862 2002.98 217.862 Q1997.4 217.862 1994.26 212.931 Q1991.08 208.024 1991.08 199.39 Q1991.08 190.732 1994.26 185.848 Q1997.4 180.941 2002.98 180.941 Z" fill="#000000" fill-rule="nonzero" fill-opacity="1" /><path clip-path="url(#clip000)" d="M2027.43 181.103 L2027.43 228.51 L2023.49 228.51 L2023.49 181.103 L2027.43 181.103 Z" fill="#000000" fill-rule="nonzero" fill-opacity="1" /><path clip-path="url(#clip000)" d="M2048.7 219.737 Q2046.89 224.367 2045.18 225.779 Q2043.47 227.191 2040.6 227.191 L2037.2 227.191 L2037.2 223.626 L2039.7 223.626 Q2041.45 223.626 2042.43 222.792 Q2043.4 221.959 2044.58 218.857 L2045.34 216.913 L2034.86 191.404 L2039.37 191.404 L2047.47 211.681 L2055.57 191.404 L2060.09 191.404 L2048.7 219.737 Z" fill="#000000" fill-rule="nonzero" fill-opacity="1" /><path clip-path="url(#clip000)" d="M2065.3 181.358 L2069 181.358 Q2072.47 186.82 2074.19 192.052 Q2075.92 197.283 2075.92 202.445 Q2075.92 207.631 2074.19 212.885 Q2072.47 218.14 2069 223.58 L2065.3 223.58 Q2068.38 218.279 2069.88 213.047 Q2071.41 207.793 2071.41 202.445 Q2071.41 197.098 2069.88 191.89 Q2068.38 186.682 2065.3 181.358 Z" fill="#000000" fill-rule="nonzero" fill-opacity="1" /><path clip-path="url(#clip000)" d="M2085.55 211.45 L2090.44 211.45 L2090.44 217.33 L2085.55 217.33 L2085.55 211.45 M2085.55 192.816 L2090.44 192.816 L2090.44 198.695 L2085.55 198.695 L2085.55 192.816 Z" fill="#000000" fill-rule="nonzero" fill-opacity="1" /><path clip-path="url(#clip000)" d="M2125.55 194.783 Q2122.03 194.783 2120.13 197.33 Q2118.14 199.992 2118.14 204.39 Q2118.14 209.043 2120.11 211.728 Q2122.1 214.39 2125.55 214.39 Q2128.95 214.39 2130.94 211.705 Q2132.94 209.019 2132.94 204.39 Q2132.94 200.154 2130.94 197.33 Q2129.12 194.783 2125.55 194.783 M2125.55 191.404 L2139.69 191.404 L2139.69 195.663 L2134.93 195.663 Q2137.45 199.274 2137.45 204.39 Q2137.45 210.756 2134.28 214.367 Q2131.11 218.001 2125.55 218.001 Q2119.97 218.001 2116.82 214.367 Q2113.65 210.756 2113.65 204.39 Q2113.65 197.978 2116.82 194.39 Q2119.44 191.404 2125.55 191.404 Z" fill="#000000" fill-rule="nonzero" fill-opacity="1" /><path clip-path="url(#clip000)" d="M2146.11 195.802 L2175.78 195.802 L2175.78 199.691 L2146.11 199.691 L2146.11 195.802 M2146.11 205.246 L2175.78 205.246 L2175.78 209.181 L2146.11 209.181 L2146.11 205.246 Z" fill="#000000" fill-rule="nonzero" fill-opacity="1" /><path clip-path="url(#clip000)" d="M2186.69 213.394 L2194.32 213.394 L2194.32 187.029 L2186.01 188.695 L2186.01 184.436 L2194.28 182.77 L2198.95 182.77 L2198.95 213.394 L2206.59 213.394 L2206.59 217.33 L2186.69 217.33 L2186.69 213.394 Z" fill="#000000" fill-rule="nonzero" fill-opacity="1" /><polyline clip-path="url(#clip000)" style="stroke:#3da44d; stroke-linecap:round; stroke-linejoin:round; stroke-width:4; stroke-opacity:1; fill:none" points="1751.16,251.89 1902.21,251.89 "/>
<path clip-path="url(#clip000)" d="M1932.06 238.452 L1932.06 251.438 L1937.94 251.438 Q1941.2 251.438 1942.98 249.748 Q1944.77 248.059 1944.77 244.934 Q1944.77 241.832 1942.98 240.142 Q1941.2 238.452 1937.94 238.452 L1932.06 238.452 M1927.38 234.61 L1937.94 234.61 Q1943.75 234.61 1946.71 237.248 Q1949.7 239.864 1949.7 244.934 Q1949.7 250.049 1946.71 252.665 Q1943.75 255.281 1937.94 255.281 L1932.06 255.281 L1932.06 269.17 L1927.38 269.17 L1927.38 234.61 Z" fill="#000000" fill-rule="nonzero" fill-opacity="1" /><path clip-path="url(#clip000)" d="M1969.97 247.225 Q1969.26 246.809 1968.4 246.623 Q1967.57 246.415 1966.55 246.415 Q1962.94 246.415 1960.99 248.776 Q1959.07 251.114 1959.07 255.512 L1959.07 269.17 L1954.79 269.17 L1954.79 243.244 L1959.07 243.244 L1959.07 247.272 Q1960.41 244.91 1962.57 243.776 Q1964.72 242.619 1967.8 242.619 Q1968.24 242.619 1968.77 242.688 Q1969.3 242.735 1969.95 242.85 L1969.97 247.225 Z" fill="#000000" fill-rule="nonzero" fill-opacity="1" /><path clip-path="url(#clip000)" d="M1984.67 233.198 Q1981.57 238.522 1980.07 243.73 Q1978.56 248.938 1978.56 254.285 Q1978.56 259.633 1980.07 264.887 Q1981.59 270.119 1984.67 275.42 L1980.97 275.42 Q1977.5 269.98 1975.76 264.725 Q1974.05 259.471 1974.05 254.285 Q1974.05 249.123 1975.76 243.892 Q1977.47 238.66 1980.97 233.198 L1984.67 233.198 Z" fill="#000000" fill-rule="nonzero" fill-opacity="1" /><path clip-path="url(#clip000)" d="M2010.34 252.734 L1995.6 252.734 Q1995.95 259.656 1997.54 262.596 Q1999.53 266.207 2002.98 266.207 Q2006.45 266.207 2008.38 262.572 Q2010.07 259.378 2010.34 252.734 M2010.27 248.799 Q2009.63 242.225 2008.38 239.91 Q2006.39 236.253 2002.98 236.253 Q1999.44 236.253 1997.57 239.864 Q1996.08 242.781 1995.64 248.799 L2010.27 248.799 M2002.98 232.781 Q2008.54 232.781 2011.71 237.688 Q2014.88 242.572 2014.88 251.23 Q2014.88 259.864 2011.71 264.771 Q2008.54 269.702 2002.98 269.702 Q1997.4 269.702 1994.26 264.771 Q1991.08 259.864 1991.08 251.23 Q1991.08 242.572 1994.26 237.688 Q1997.4 232.781 2002.98 232.781 Z" fill="#000000" fill-rule="nonzero" fill-opacity="1" /><path clip-path="url(#clip000)" d="M2027.43 232.943 L2027.43 280.35 L2023.49 280.35 L2023.49 232.943 L2027.43 232.943 Z" fill="#000000" fill-rule="nonzero" fill-opacity="1" /><path clip-path="url(#clip000)" d="M2048.7 271.577 Q2046.89 276.207 2045.18 277.619 Q2043.47 279.031 2040.6 279.031 L2037.2 279.031 L2037.2 275.466 L2039.7 275.466 Q2041.45 275.466 2042.43 274.632 Q2043.4 273.799 2044.58 270.697 L2045.34 268.753 L2034.86 243.244 L2039.37 243.244 L2047.47 263.521 L2055.57 243.244 L2060.09 243.244 L2048.7 271.577 Z" fill="#000000" fill-rule="nonzero" fill-opacity="1" /><path clip-path="url(#clip000)" d="M2065.3 233.198 L2069 233.198 Q2072.47 238.66 2074.19 243.892 Q2075.92 249.123 2075.92 254.285 Q2075.92 259.471 2074.19 264.725 Q2072.47 269.98 2069 275.42 L2065.3 275.42 Q2068.38 270.119 2069.88 264.887 Q2071.41 259.633 2071.41 254.285 Q2071.41 248.938 2069.88 243.73 Q2068.38 238.522 2065.3 233.198 Z" fill="#000000" fill-rule="nonzero" fill-opacity="1" /><path clip-path="url(#clip000)" d="M2085.55 263.29 L2090.44 263.29 L2090.44 269.17 L2085.55 269.17 L2085.55 263.29 M2085.55 244.656 L2090.44 244.656 L2090.44 250.535 L2085.55 250.535 L2085.55 244.656 Z" fill="#000000" fill-rule="nonzero" fill-opacity="1" /><path clip-path="url(#clip000)" d="M2125.55 246.623 Q2122.03 246.623 2120.13 249.17 Q2118.14 251.832 2118.14 256.23 Q2118.14 260.883 2120.11 263.568 Q2122.1 266.23 2125.55 266.23 Q2128.95 266.23 2130.94 263.545 Q2132.94 260.859 2132.94 256.23 Q2132.94 251.994 2130.94 249.17 Q2129.12 246.623 2125.55 246.623 M2125.55 243.244 L2139.69 243.244 L2139.69 247.503 L2134.93 247.503 Q2137.45 251.114 2137.45 256.23 Q2137.45 262.596 2134.28 266.207 Q2131.11 269.841 2125.55 269.841 Q2119.97 269.841 2116.82 266.207 Q2113.65 262.596 2113.65 256.23 Q2113.65 249.818 2116.82 246.23 Q2119.44 243.244 2125.55 243.244 Z" fill="#000000" fill-rule="nonzero" fill-opacity="1" /><path clip-path="url(#clip000)" d="M2146.11 247.642 L2175.78 247.642 L2175.78 251.531 L2146.11 251.531 L2146.11 247.642 M2146.11 257.086 L2175.78 257.086 L2175.78 261.021 L2146.11 261.021 L2146.11 257.086 Z" fill="#000000" fill-rule="nonzero" fill-opacity="1" /><path clip-path="url(#clip000)" d="M2189.9 265.234 L2206.22 265.234 L2206.22 269.17 L2184.28 269.17 L2184.28 265.234 Q2186.94 262.48 2191.52 257.85 Q2196.13 253.197 2197.31 251.855 Q2199.56 249.332 2200.44 247.596 Q2201.34 245.836 2201.34 244.147 Q2201.34 241.392 2199.39 239.656 Q2197.47 237.92 2194.37 237.92 Q2192.17 237.92 2189.72 238.684 Q2187.29 239.447 2184.51 240.998 L2184.51 236.276 Q2187.33 235.142 2189.79 234.563 Q2192.24 233.985 2194.28 233.985 Q2199.65 233.985 2202.84 236.67 Q2206.04 239.355 2206.04 243.846 Q2206.04 245.975 2205.23 247.897 Q2204.44 249.795 2202.33 252.387 Q2201.75 253.059 2198.65 256.276 Q2195.55 259.471 2189.9 265.234 Z" fill="#000000" fill-rule="nonzero" fill-opacity="1" /><polyline clip-path="url(#clip000)" style="stroke:#c271d2; stroke-linecap:round; stroke-linejoin:round; stroke-width:4; stroke-opacity:1; fill:none" points="1751.16,303.73 1902.21,303.73 "/>
<path clip-path="url(#clip000)" d="M1932.06 290.292 L1932.06 303.278 L1937.94 303.278 Q1941.2 303.278 1942.98 301.588 Q1944.77 299.899 1944.77 296.774 Q1944.77 293.672 1942.98 291.982 Q1941.2 290.292 1937.94 290.292 L1932.06 290.292 M1927.38 286.45 L1937.94 286.45 Q1943.75 286.45 1946.71 289.088 Q1949.7 291.704 1949.7 296.774 Q1949.7 301.889 1946.71 304.505 Q1943.75 307.121 1937.94 307.121 L1932.06 307.121 L1932.06 321.01 L1927.38 321.01 L1927.38 286.45 Z" fill="#000000" fill-rule="nonzero" fill-opacity="1" /><path clip-path="url(#clip000)" d="M1969.97 299.065 Q1969.26 298.649 1968.4 298.463 Q1967.57 298.255 1966.55 298.255 Q1962.94 298.255 1960.99 300.616 Q1959.07 302.954 1959.07 307.352 L1959.07 321.01 L1954.79 321.01 L1954.79 295.084 L1959.07 295.084 L1959.07 299.112 Q1960.41 296.75 1962.57 295.616 Q1964.72 294.459 1967.8 294.459 Q1968.24 294.459 1968.77 294.528 Q1969.3 294.575 1969.95 294.69 L1969.97 299.065 Z" fill="#000000" fill-rule="nonzero" fill-opacity="1" /><path clip-path="url(#clip000)" d="M1984.67 285.038 Q1981.57 290.362 1980.07 295.57 Q1978.56 300.778 1978.56 306.125 Q1978.56 311.473 1980.07 316.727 Q1981.59 321.959 1984.67 327.26 L1980.97 327.26 Q1977.5 321.82 1975.76 316.565 Q1974.05 311.311 1974.05 306.125 Q1974.05 300.963 1975.76 295.732 Q1977.47 290.5 1980.97 285.038 L1984.67 285.038 Z" fill="#000000" fill-rule="nonzero" fill-opacity="1" /><path clip-path="url(#clip000)" d="M2010.34 304.574 L1995.6 304.574 Q1995.95 311.496 1997.54 314.436 Q1999.53 318.047 2002.98 318.047 Q2006.45 318.047 2008.38 314.412 Q2010.07 311.218 2010.34 304.574 M2010.27 300.639 Q2009.63 294.065 2008.38 291.75 Q2006.39 288.093 2002.98 288.093 Q1999.44 288.093 1997.57 291.704 Q1996.08 294.621 1995.64 300.639 L2010.27 300.639 M2002.98 284.621 Q2008.54 284.621 2011.71 289.528 Q2014.88 294.412 2014.88 303.07 Q2014.88 311.704 2011.71 316.611 Q2008.54 321.542 2002.98 321.542 Q1997.4 321.542 1994.26 316.611 Q1991.08 311.704 1991.08 303.07 Q1991.08 294.412 1994.26 289.528 Q1997.4 284.621 2002.98 284.621 Z" fill="#000000" fill-rule="nonzero" fill-opacity="1" /><path clip-path="url(#clip000)" d="M2027.43 284.783 L2027.43 332.19 L2023.49 332.19 L2023.49 284.783 L2027.43 284.783 Z" fill="#000000" fill-rule="nonzero" fill-opacity="1" /><path clip-path="url(#clip000)" d="M2048.7 323.417 Q2046.89 328.047 2045.18 329.459 Q2043.47 330.871 2040.6 330.871 L2037.2 330.871 L2037.2 327.306 L2039.7 327.306 Q2041.45 327.306 2042.43 326.472 Q2043.4 325.639 2044.58 322.537 L2045.34 320.593 L2034.86 295.084 L2039.37 295.084 L2047.47 315.361 L2055.57 295.084 L2060.09 295.084 L2048.7 323.417 Z" fill="#000000" fill-rule="nonzero" fill-opacity="1" /><path clip-path="url(#clip000)" d="M2065.3 285.038 L2069 285.038 Q2072.47 290.5 2074.19 295.732 Q2075.92 300.963 2075.92 306.125 Q2075.92 311.311 2074.19 316.565 Q2072.47 321.82 2069 327.26 L2065.3 327.26 Q2068.38 321.959 2069.88 316.727 Q2071.41 311.473 2071.41 306.125 Q2071.41 300.778 2069.88 295.57 Q2068.38 290.362 2065.3 285.038 Z" fill="#000000" fill-rule="nonzero" fill-opacity="1" /><path clip-path="url(#clip000)" d="M2085.55 315.13 L2090.44 315.13 L2090.44 321.01 L2085.55 321.01 L2085.55 315.13 M2085.55 296.496 L2090.44 296.496 L2090.44 302.375 L2085.55 302.375 L2085.55 296.496 Z" fill="#000000" fill-rule="nonzero" fill-opacity="1" /><path clip-path="url(#clip000)" d="M2125.55 298.463 Q2122.03 298.463 2120.13 301.01 Q2118.14 303.672 2118.14 308.07 Q2118.14 312.723 2120.11 315.408 Q2122.1 318.07 2125.55 318.07 Q2128.95 318.07 2130.94 315.385 Q2132.94 312.699 2132.94 308.07 Q2132.94 303.834 2130.94 301.01 Q2129.12 298.463 2125.55 298.463 M2125.55 295.084 L2139.69 295.084 L2139.69 299.343 L2134.93 299.343 Q2137.45 302.954 2137.45 308.07 Q2137.45 314.436 2134.28 318.047 Q2131.11 321.681 2125.55 321.681 Q2119.97 321.681 2116.82 318.047 Q2113.65 314.436 2113.65 308.07 Q2113.65 301.658 2116.82 298.07 Q2119.44 295.084 2125.55 295.084 Z" fill="#000000" fill-rule="nonzero" fill-opacity="1" /><path clip-path="url(#clip000)" d="M2146.11 299.482 L2175.78 299.482 L2175.78 303.371 L2146.11 303.371 L2146.11 299.482 M2146.11 308.926 L2175.78 308.926 L2175.78 312.861 L2146.11 312.861 L2146.11 308.926 Z" fill="#000000" fill-rule="nonzero" fill-opacity="1" /><path clip-path="url(#clip000)" d="M2200.04 302.375 Q2203.4 303.093 2205.27 305.361 Q2207.17 307.63 2207.17 310.963 Q2207.17 316.079 2203.65 318.88 Q2200.13 321.681 2193.65 321.681 Q2191.48 321.681 2189.16 321.241 Q2186.87 320.824 2184.42 319.968 L2184.42 315.454 Q2186.36 316.588 2188.68 317.167 Q2190.99 317.746 2193.51 317.746 Q2197.91 317.746 2200.2 316.01 Q2202.52 314.273 2202.52 310.963 Q2202.52 307.908 2200.37 306.195 Q2198.24 304.459 2194.42 304.459 L2190.39 304.459 L2190.39 300.616 L2194.6 300.616 Q2198.05 300.616 2199.88 299.25 Q2201.71 297.862 2201.71 295.269 Q2201.71 292.607 2199.81 291.195 Q2197.94 289.76 2194.42 289.76 Q2192.5 289.76 2190.3 290.176 Q2188.1 290.593 2185.46 291.473 L2185.46 287.306 Q2188.12 286.565 2190.44 286.195 Q2192.77 285.825 2194.83 285.825 Q2200.16 285.825 2203.26 288.255 Q2206.36 290.662 2206.36 294.783 Q2206.36 297.653 2204.72 299.644 Q2203.07 301.612 2200.04 302.375 Z" fill="#000000" fill-rule="nonzero" fill-opacity="1" /></svg>
