<?xml version="1.0" encoding="utf-8"?>
<svg xmlns="http://www.w3.org/2000/svg" xmlns:xlink="http://www.w3.org/1999/xlink" width="600" height="400" viewBox="0 0 2400 1600">
<defs>
  <clipPath id="clip140">
    <rect x="0" y="0" width="2400" height="1600"/>
  </clipPath>
</defs>
<path clip-path="url(#clip140)" d="M0 1600 L2400 1600 L2400 0 L0 0  Z" fill="#ffffff" fill-rule="evenodd" fill-opacity="1"/>
<defs>
  <clipPath id="clip141">
    <rect x="480" y="0" width="1681" height="1600"/>
  </clipPath>
</defs>
<path clip-path="url(#clip140)" d="M86.9921 1521.01 L2352.76 1521.01 L2352.76 47.2441 L86.9921 47.2441  Z" fill="#ffffff" fill-rule="evenodd" fill-opacity="1"/>
<defs>
  <clipPath id="clip142">
    <rect x="86" y="47" width="2267" height="1475"/>
  </clipPath>
</defs>
<polyline clip-path="url(#clip142)" style="stroke:#000000; stroke-linecap:round; stroke-linejoin:round; stroke-width:2; stroke-opacity:0.1; fill:none" points="313.569,1521.01 313.569,47.2441 "/>
<polyline clip-path="url(#clip142)" style="stroke:#000000; stroke-linecap:round; stroke-linejoin:round; stroke-width:2; stroke-opacity:0.1; fill:none" points="766.721,1521.01 766.721,47.2441 "/>
<polyline clip-path="url(#clip142)" style="stroke:#000000; stroke-linecap:round; stroke-linejoin:round; stroke-width:2; stroke-opacity:0.1; fill:none" points="1219.87,1521.01 1219.87,47.2441 "/>
<polyline clip-path="url(#clip142)" style="stroke:#000000; stroke-linecap:round; stroke-linejoin:round; stroke-width:2; stroke-opacity:0.1; fill:none" points="1673.03,1521.01 1673.03,47.2441 "/>
<polyline clip-path="url(#clip142)" style="stroke:#000000; stroke-linecap:round; stroke-linejoin:round; stroke-width:2; stroke-opacity:0.1; fill:none" points="2126.18,1521.01 2126.18,47.2441 "/>
<polyline clip-path="url(#clip140)" style="stroke:#000000; stroke-linecap:round; stroke-linejoin:round; stroke-width:4; stroke-opacity:1; fill:none" points="86.9921,1521.01 2352.76,1521.01 "/>
<polyline clip-path="url(#clip140)" style="stroke:#000000; stroke-linecap:round; stroke-linejoin:round; stroke-width:4; stroke-opacity:1; fill:none" points="313.569,1521.01 313.569,1502.11 "/>
<polyline clip-path="url(#clip140)" style="stroke:#000000; stroke-linecap:round; stroke-linejoin:round; stroke-width:4; stroke-opacity:1; fill:none" points="766.721,1521.01 766.721,1502.11 "/>
<polyline clip-path="url(#clip140)" style="stroke:#000000; stroke-linecap:round; stroke-linejoin:round; stroke-width:4; stroke-opacity:1; fill:none" points="1219.87,1521.01 1219.87,1502.11 "/>
<polyline clip-path="url(#clip140)" style="stroke:#000000; stroke-linecap:round; stroke-linejoin:round; stroke-width:4; stroke-opacity:1; fill:none" points="1673.03,1521.01 1673.03,1502.11 "/>
<polyline clip-path="url(#clip140)" style="stroke:#000000; stroke-linecap:round; stroke-linejoin:round; stroke-width:4; stroke-opacity:1; fill:none" points="2126.18,1521.01 2126.18,1502.11 "/>
<path clip-path="url(#clip140)" d="M267.631 1566.58 L297.307 1566.58 L297.307 1570.51 L267.631 1570.51 L267.631 1566.58 Z" fill="#000000" fill-rule="nonzero" fill-opacity="1" /><path clip-path="url(#clip140)" d="M311.427 1579.47 L327.747 1579.47 L327.747 1583.41 L305.802 1583.41 L305.802 1579.47 Q308.464 1576.72 313.048 1572.09 Q317.654 1567.44 318.835 1566.09 Q321.08 1563.57 321.96 1561.83 Q322.862 1560.07 322.862 1558.38 Q322.862 1555.63 320.918 1553.89 Q318.997 1552.16 315.895 1552.16 Q313.696 1552.16 311.242 1552.92 Q308.812 1553.69 306.034 1555.24 L306.034 1550.51 Q308.858 1549.38 311.312 1548.8 Q313.765 1548.22 315.802 1548.22 Q321.173 1548.22 324.367 1550.91 Q327.561 1553.59 327.561 1558.08 Q327.561 1560.21 326.751 1562.13 Q325.964 1564.03 323.858 1566.63 Q323.279 1567.3 320.177 1570.51 Q317.075 1573.71 311.427 1579.47 Z" fill="#000000" fill-rule="nonzero" fill-opacity="1" /><path clip-path="url(#clip140)" d="M347.561 1551.93 Q343.95 1551.93 342.122 1555.49 Q340.316 1559.03 340.316 1566.16 Q340.316 1573.27 342.122 1576.83 Q343.95 1580.38 347.561 1580.38 Q351.196 1580.38 353.001 1576.83 Q354.83 1573.27 354.83 1566.16 Q354.83 1559.03 353.001 1555.49 Q351.196 1551.93 347.561 1551.93 M347.561 1548.22 Q353.372 1548.22 356.427 1552.83 Q359.506 1557.41 359.506 1566.16 Q359.506 1574.89 356.427 1579.5 Q353.372 1584.08 347.561 1584.08 Q341.751 1584.08 338.673 1579.5 Q335.617 1574.89 335.617 1566.16 Q335.617 1557.41 338.673 1552.83 Q341.751 1548.22 347.561 1548.22 Z" fill="#000000" fill-rule="nonzero" fill-opacity="1" /><path clip-path="url(#clip140)" d="M720.784 1566.58 L750.46 1566.58 L750.46 1570.51 L720.784 1570.51 L720.784 1566.58 Z" fill="#000000" fill-rule="nonzero" fill-opacity="1" /><path clip-path="url(#clip140)" d="M761.362 1579.47 L769.001 1579.47 L769.001 1553.11 L760.691 1554.77 L760.691 1550.51 L768.955 1548.85 L773.631 1548.85 L773.631 1579.47 L781.27 1579.47 L781.27 1583.41 L761.362 1583.41 L761.362 1579.47 Z" fill="#000000" fill-rule="nonzero" fill-opacity="1" /><path clip-path="url(#clip140)" d="M800.714 1551.93 Q797.103 1551.93 795.274 1555.49 Q793.469 1559.03 793.469 1566.16 Q793.469 1573.27 795.274 1576.83 Q797.103 1580.38 800.714 1580.38 Q804.348 1580.38 806.154 1576.83 Q807.983 1573.27 807.983 1566.16 Q807.983 1559.03 806.154 1555.49 Q804.348 1551.93 800.714 1551.93 M800.714 1548.22 Q806.524 1548.22 809.58 1552.83 Q812.659 1557.41 812.659 1566.16 Q812.659 1574.89 809.58 1579.5 Q806.524 1584.08 800.714 1584.08 Q794.904 1584.08 791.825 1579.5 Q788.77 1574.89 788.77 1566.16 Q788.77 1557.41 791.825 1552.83 Q794.904 1548.22 800.714 1548.22 Z" fill="#000000" fill-rule="nonzero" fill-opacity="1" /><path clip-path="url(#clip140)" d="M1219.87 1551.93 Q1216.26 1551.93 1214.43 1555.49 Q1212.63 1559.03 1212.63 1566.16 Q1212.63 1573.27 1214.43 1576.83 Q1216.26 1580.38 1219.87 1580.38 Q1223.51 1580.38 1225.31 1576.83 Q1227.14 1573.27 1227.14 1566.16 Q1227.14 1559.03 1225.31 1555.49 Q1223.51 1551.93 1219.87 1551.93 M1219.87 1548.22 Q1225.68 1548.22 1228.74 1552.83 Q1231.82 1557.41 1231.82 1566.16 Q1231.82 1574.89 1228.74 1579.5 Q1225.68 1584.08 1219.87 1584.08 Q1214.06 1584.08 1210.99 1579.5 Q1207.93 1574.89 1207.93 1566.16 Q1207.93 1557.41 1210.99 1552.83 Q1214.06 1548.22 1219.87 1548.22 Z" fill="#000000" fill-rule="nonzero" fill-opacity="1" /><path clip-path="url(#clip140)" d="M1647.71 1579.47 L1655.35 1579.47 L1655.35 1553.11 L1647.04 1554.77 L1647.04 1550.51 L1655.31 1548.85 L1659.98 1548.85 L1659.98 1579.47 L1667.62 1579.47 L1667.62 1583.41 L1647.71 1583.41 L1647.71 1579.47 Z" fill="#000000" fill-rule="nonzero" fill-opacity="1" /><path clip-path="url(#clip140)" d="M1687.07 1551.93 Q1683.45 1551.93 1681.63 1555.49 Q1679.82 1559.03 1679.82 1566.16 Q1679.82 1573.27 1681.63 1576.83 Q1683.45 1580.38 1687.07 1580.38 Q1690.7 1580.38 1692.51 1576.83 Q1694.33 1573.27 1694.33 1566.16 Q1694.33 1559.03 1692.51 1555.49 Q1690.7 1551.93 1687.07 1551.93 M1687.07 1548.22 Q1692.88 1548.22 1695.93 1552.83 Q1699.01 1557.41 1699.01 1566.16 Q1699.01 1574.89 1695.93 1579.5 Q1692.88 1584.08 1687.07 1584.08 Q1681.26 1584.08 1678.18 1579.5 Q1675.12 1574.89 1675.12 1566.16 Q1675.12 1557.41 1678.18 1552.83 Q1681.26 1548.22 1687.07 1548.22 Z" fill="#000000" fill-rule="nonzero" fill-opacity="1" /><path clip-path="url(#clip140)" d="M2104.95 1579.47 L2121.27 1579.47 L2121.27 1583.41 L2099.33 1583.41 L2099.33 1579.47 Q2101.99 1576.72 2106.57 1572.09 Q2111.18 1567.44 2112.36 1566.09 Q2114.61 1563.57 2115.49 1561.83 Q2116.39 1560.07 2116.39 1558.38 Q2116.39 1555.63 2114.44 1553.89 Q2112.52 1552.16 2109.42 1552.16 Q2107.22 1552.16 2104.77 1552.92 Q2102.34 1553.69 2099.56 1555.24 L2099.56 1550.51 Q2102.38 1549.38 2104.84 1548.8 Q2107.29 1548.22 2109.33 1548.22 Q2114.7 1548.22 2117.89 1550.91 Q2121.09 1553.59 2121.09 1558.08 Q2121.09 1560.21 2120.28 1562.13 Q2119.49 1564.03 2117.38 1566.63 Q2116.8 1567.3 2113.7 1570.51 Q2110.6 1573.71 2104.95 1579.47 Z" fill="#000000" fill-rule="nonzero" fill-opacity="1" /><path clip-path="url(#clip140)" d="M2141.09 1551.93 Q2137.48 1551.93 2135.65 1555.49 Q2133.84 1559.03 2133.84 1566.16 Q2133.84 1573.27 2135.65 1576.83 Q2137.48 1580.38 2141.09 1580.38 Q2144.72 1580.38 2146.53 1576.83 Q2148.36 1573.27 2148.36 1566.16 Q2148.36 1559.03 2146.53 1555.49 Q2144.72 1551.93 2141.09 1551.93 M2141.09 1548.22 Q2146.9 1548.22 2149.95 1552.83 Q2153.03 1557.41 2153.03 1566.16 Q2153.03 1574.89 2149.95 1579.5 Q2146.9 1584.08 2141.09 1584.08 Q2135.28 1584.08 2132.2 1579.5 Q2129.14 1574.89 2129.14 1566.16 Q2129.14 1557.41 2132.2 1552.83 Q2135.28 1548.22 2141.09 1548.22 Z" fill="#000000" fill-rule="nonzero" fill-opacity="1" /><polyline clip-path="url(#clip142)" style="stroke:#000000; stroke-linecap:round; stroke-linejoin:round; stroke-width:2; stroke-opacity:0.1; fill:none" points="86.9921,1483.21 2352.76,1483.21 "/>
<polyline clip-path="url(#clip142)" style="stroke:#000000; stroke-linecap:round; stroke-linejoin:round; stroke-width:2; stroke-opacity:0.1; fill:none" points="86.9921,1134.18 2352.76,1134.18 "/>
<polyline clip-path="url(#clip142)" style="stroke:#000000; stroke-linecap:round; stroke-linejoin:round; stroke-width:2; stroke-opacity:0.1; fill:none" points="86.9921,785.156 2352.76,785.156 "/>
<polyline clip-path="url(#clip142)" style="stroke:#000000; stroke-linecap:round; stroke-linejoin:round; stroke-width:2; stroke-opacity:0.1; fill:none" points="86.9921,436.13 2352.76,436.13 "/>
<polyline clip-path="url(#clip142)" style="stroke:#000000; stroke-linecap:round; stroke-linejoin:round; stroke-width:2; stroke-opacity:0.1; fill:none" points="86.9921,87.1045 2352.76,87.1045 "/>
<polyline clip-path="url(#clip140)" style="stroke:#000000; stroke-linecap:round; stroke-linejoin:round; stroke-width:4; stroke-opacity:1; fill:none" points="86.9921,1521.01 86.9921,47.2441 "/>
<polyline clip-path="url(#clip140)" style="stroke:#000000; stroke-linecap:round; stroke-linejoin:round; stroke-width:4; stroke-opacity:1; fill:none" points="86.9921,1483.21 105.89,1483.21 "/>
<polyline clip-path="url(#clip140)" style="stroke:#000000; stroke-linecap:round; stroke-linejoin:round; stroke-width:4; stroke-opacity:1; fill:none" points="86.9921,1134.18 105.89,1134.18 "/>
<polyline clip-path="url(#clip140)" style="stroke:#000000; stroke-linecap:round; stroke-linejoin:round; stroke-width:4; stroke-opacity:1; fill:none" points="86.9921,785.156 105.89,785.156 "/>
<polyline clip-path="url(#clip140)" style="stroke:#000000; stroke-linecap:round; stroke-linejoin:round; stroke-width:4; stroke-opacity:1; fill:none" points="86.9921,436.13 105.89,436.13 "/>
<polyline clip-path="url(#clip140)" style="stroke:#000000; stroke-linecap:round; stroke-linejoin:round; stroke-width:4; stroke-opacity:1; fill:none" points="86.9921,87.1045 105.89,87.1045 "/>
<path clip-path="url(#clip140)" d="M10.8708 1520.9 Q10.8708 1524.52 14.4356 1526.34 Q17.9773 1528.15 25.1068 1528.15 Q32.2133 1528.15 35.7781 1526.34 Q39.3197 1524.52 39.3197 1520.9 Q39.3197 1517.27 35.7781 1515.46 Q32.2133 1513.64 25.1068 1513.64 Q17.9773 1513.64 14.4356 1515.46 Q10.8708 1517.27 10.8708 1520.9 M7.16713 1520.9 Q7.16713 1515.09 11.7736 1512.04 Q16.3569 1508.96 25.1068 1508.96 Q33.8337 1508.96 38.4401 1512.04 Q43.0234 1515.09 43.0234 1520.9 Q43.0234 1526.71 38.4401 1529.79 Q33.8337 1532.85 25.1068 1532.85 Q16.3569 1532.85 11.7736 1529.79 Q7.16713 1526.71 7.16713 1520.9 Z" fill="#000000" fill-rule="nonzero" fill-opacity="1" /><path clip-path="url(#clip140)" d="M36.4725 1500.74 L36.4725 1495.86 L42.3521 1495.86 L42.3521 1500.74 L36.4725 1500.74 Z" fill="#000000" fill-rule="nonzero" fill-opacity="1" /><path clip-path="url(#clip140)" d="M10.8708 1475.67 Q10.8708 1479.28 14.4356 1481.11 Q17.9773 1482.92 25.1068 1482.92 Q32.2133 1482.92 35.7781 1481.11 Q39.3197 1479.28 39.3197 1475.67 Q39.3197 1472.04 35.7781 1470.23 Q32.2133 1468.4 25.1068 1468.4 Q17.9773 1468.4 14.4356 1470.23 Q10.8708 1472.04 10.8708 1475.67 M7.16713 1475.67 Q7.16713 1469.86 11.7736 1466.81 Q16.3569 1463.73 25.1068 1463.73 Q33.8337 1463.73 38.4401 1466.81 Q43.0234 1469.86 43.0234 1475.67 Q43.0234 1481.48 38.4401 1484.56 Q33.8337 1487.62 25.1068 1487.62 Q16.3569 1487.62 11.7736 1484.56 Q7.16713 1481.48 7.16713 1475.67 Z" fill="#000000" fill-rule="nonzero" fill-opacity="1" /><path clip-path="url(#clip140)" d="M10.8708 1445.51 Q10.8708 1449.12 14.4356 1450.95 Q17.9773 1452.76 25.1068 1452.76 Q32.2133 1452.76 35.7781 1450.95 Q39.3197 1449.12 39.3197 1445.51 Q39.3197 1441.88 35.7781 1440.07 Q32.2133 1438.24 25.1068 1438.24 Q17.9773 1438.24 14.4356 1440.07 Q10.8708 1441.88 10.8708 1445.51 M7.16713 1445.51 Q7.16713 1439.7 11.7736 1436.65 Q16.3569 1433.57 25.1068 1433.57 Q33.8337 1433.57 38.4401 1436.65 Q43.0234 1439.7 43.0234 1445.51 Q43.0234 1451.32 38.4401 1454.4 Q33.8337 1457.46 25.1068 1457.46 Q16.3569 1457.46 11.7736 1454.4 Q7.16713 1451.32 7.16713 1445.51 Z" fill="#000000" fill-rule="nonzero" fill-opacity="1" /><path clip-path="url(#clip140)" d="M10.8708 1171.38 Q10.8708 1174.99 14.4356 1176.82 Q17.9773 1178.63 25.1068 1178.63 Q32.2133 1178.63 35.7781 1176.82 Q39.3197 1174.99 39.3197 1171.38 Q39.3197 1167.75 35.7781 1165.94 Q32.2133 1164.11 25.1068 1164.11 Q17.9773 1164.11 14.4356 1165.94 Q10.8708 1167.75 10.8708 1171.38 M7.16713 1171.38 Q7.16713 1165.57 11.7736 1162.52 Q16.3569 1159.44 25.1068 1159.44 Q33.8337 1159.44 38.4401 1162.52 Q43.0234 1165.57 43.0234 1171.38 Q43.0234 1177.19 38.4401 1180.27 Q33.8337 1183.33 25.1068 1183.33 Q16.3569 1183.33 11.7736 1180.27 Q7.16713 1177.19 7.16713 1171.38 Z" fill="#000000" fill-rule="nonzero" fill-opacity="1" /><path clip-path="url(#clip140)" d="M36.4725 1151.22 L36.4725 1146.33 L42.3521 1146.33 L42.3521 1151.22 L36.4725 1151.22 Z" fill="#000000" fill-rule="nonzero" fill-opacity="1" /><path clip-path="url(#clip140)" d="M38.417 1132.12 L38.417 1115.8 L42.3521 1115.8 L42.3521 1137.75 L38.417 1137.75 Q35.6623 1135.08 31.0327 1130.5 Q26.38 1125.9 25.0374 1124.71 Q22.5143 1122.47 20.7782 1121.59 Q19.0189 1120.69 17.3291 1120.69 Q14.5745 1120.69 12.8384 1122.63 Q11.1023 1124.55 11.1023 1127.65 Q11.1023 1129.85 11.8662 1132.31 Q12.6301 1134.74 14.181 1137.52 L9.45878 1137.52 Q8.32453 1134.69 7.74583 1132.24 Q7.16713 1129.78 7.16713 1127.75 Q7.16713 1122.38 9.8523 1119.18 Q12.5375 1115.99 17.0282 1115.99 Q19.1578 1115.99 21.0791 1116.8 Q22.9772 1117.58 25.5698 1119.69 Q26.2411 1120.27 29.4587 1123.37 Q32.6531 1126.47 38.417 1132.12 Z" fill="#000000" fill-rule="nonzero" fill-opacity="1" /><path clip-path="url(#clip140)" d="M7.79213 1105.94 L7.79213 1087.59 L11.7273 1087.59 L11.7273 1101.66 L20.1995 1101.66 Q19.8522 1100.64 19.6902 1099.62 Q19.505 1098.6 19.505 1097.59 Q19.505 1091.8 22.6763 1088.42 Q25.8476 1085.04 31.2642 1085.04 Q36.8429 1085.04 39.9447 1088.51 Q43.0234 1091.98 43.0234 1098.3 Q43.0234 1100.48 42.6531 1102.75 Q42.2827 1104.99 41.5419 1107.4 L36.8429 1107.4 Q37.9771 1105.32 38.5327 1103.09 Q39.0883 1100.87 39.0883 1098.4 Q39.0883 1094.39 36.9818 1092.05 Q34.8753 1089.71 31.2642 1089.71 Q27.6531 1089.71 25.5467 1092.05 Q23.4402 1094.39 23.4402 1098.4 Q23.4402 1100.27 23.8569 1102.15 Q24.2735 1104 25.1531 1105.94 L7.79213 1105.94 Z" fill="#000000" fill-rule="nonzero" fill-opacity="1" /><path clip-path="url(#clip140)" d="M10.8708 822.853 Q10.8708 826.464 14.4356 828.293 Q17.9773 830.098 25.1068 830.098 Q32.2133 830.098 35.7781 828.293 Q39.3197 826.464 39.3197 822.853 Q39.3197 819.219 35.7781 817.413 Q32.2133 815.584 25.1068 815.584 Q17.9773 815.584 14.4356 817.413 Q10.8708 819.219 10.8708 822.853 M7.16713 822.853 Q7.16713 817.043 11.7736 813.987 Q16.3569 810.908 25.1068 810.908 Q33.8337 810.908 38.4401 813.987 Q43.0234 817.043 43.0234 822.853 Q43.0234 828.663 38.4401 831.742 Q33.8337 834.797 25.1068 834.797 Q16.3569 834.797 11.7736 831.742 Q7.16713 828.663 7.16713 822.853 Z" fill="#000000" fill-rule="nonzero" fill-opacity="1" /><path clip-path="url(#clip140)" d="M36.4725 802.691 L36.4725 797.807 L42.3521 797.807 L42.3521 802.691 L36.4725 802.691 Z" fill="#000000" fill-rule="nonzero" fill-opacity="1" /><path clip-path="url(#clip140)" d="M7.79213 787.575 L7.79213 769.219 L11.7273 769.219 L11.7273 783.293 L20.1995 783.293 Q19.8522 782.274 19.6902 781.256 Q19.505 780.237 19.505 779.219 Q19.505 773.432 22.6763 770.052 Q25.8476 766.673 31.2642 766.673 Q36.8429 766.673 39.9447 770.145 Q43.0234 773.617 43.0234 779.936 Q43.0234 782.112 42.6531 784.381 Q42.2827 786.626 41.5419 789.034 L36.8429 789.034 Q37.9771 786.95 38.5327 784.728 Q39.0883 782.506 39.0883 780.029 Q39.0883 776.024 36.9818 773.686 Q34.8753 771.348 31.2642 771.348 Q27.6531 771.348 25.5467 773.686 Q23.4402 776.024 23.4402 780.029 Q23.4402 781.904 23.8569 783.779 Q24.2735 785.631 25.1531 787.575 L7.79213 787.575 Z" fill="#000000" fill-rule="nonzero" fill-opacity="1" /><path clip-path="url(#clip140)" d="M10.8708 747.46 Q10.8708 751.071 14.4356 752.899 Q17.9773 754.705 25.1068 754.705 Q32.2133 754.705 35.7781 752.899 Q39.3197 751.071 39.3197 747.46 Q39.3197 743.825 35.7781 742.02 Q32.2133 740.191 25.1068 740.191 Q17.9773 740.191 14.4356 742.02 Q10.8708 743.825 10.8708 747.46 M7.16713 747.46 Q7.16713 741.65 11.7736 738.594 Q16.3569 735.515 25.1068 735.515 Q33.8337 735.515 38.4401 738.594 Q43.0234 741.65 43.0234 747.46 Q43.0234 753.27 38.4401 756.349 Q33.8337 759.404 25.1068 759.404 Q16.3569 759.404 11.7736 756.349 Q7.16713 753.27 7.16713 747.46 Z" fill="#000000" fill-rule="nonzero" fill-opacity="1" /><path clip-path="url(#clip140)" d="M10.8708 473.329 Q10.8708 476.94 14.4356 478.769 Q17.9773 480.575 25.1068 480.575 Q32.2133 480.575 35.7781 478.769 Q39.3197 476.94 39.3197 473.329 Q39.3197 469.695 35.7781 467.889 Q32.2133 466.061 25.1068 466.061 Q17.9773 466.061 14.4356 467.889 Q10.8708 469.695 10.8708 473.329 M7.16713 473.329 Q7.16713 467.519 11.7736 464.464 Q16.3569 461.385 25.1068 461.385 Q33.8337 461.385 38.4401 464.464 Q43.0234 467.519 43.0234 473.329 Q43.0234 479.139 38.4401 482.218 Q33.8337 485.274 25.1068 485.274 Q16.3569 485.274 11.7736 482.218 Q7.16713 479.139 7.16713 473.329 Z" fill="#000000" fill-rule="nonzero" fill-opacity="1" /><path clip-path="url(#clip140)" d="M36.4725 453.167 L36.4725 448.283 L42.3521 448.283 L42.3521 453.167 L36.4725 453.167 Z" fill="#000000" fill-rule="nonzero" fill-opacity="1" /><path clip-path="url(#clip140)" d="M7.79213 439.279 L7.79213 417.056 L9.78286 417.056 L42.3521 429.603 L42.3521 434.487 L11.7273 422.681 L11.7273 439.279 L7.79213 439.279 Z" fill="#000000" fill-rule="nonzero" fill-opacity="1" /><path clip-path="url(#clip140)" d="M7.79213 407.89 L7.79213 389.533 L11.7273 389.533 L11.7273 403.607 L20.1995 403.607 Q19.8522 402.589 19.6902 401.57 Q19.505 400.552 19.505 399.533 Q19.505 393.746 22.6763 390.367 Q25.8476 386.987 31.2642 386.987 Q36.8429 386.987 39.9447 390.459 Q43.0234 393.932 43.0234 400.251 Q43.0234 402.427 42.6531 404.695 Q42.2827 406.941 41.5419 409.348 L36.8429 409.348 Q37.9771 407.265 38.5327 405.043 Q39.0883 402.82 39.0883 400.344 Q39.0883 396.339 36.9818 394.001 Q34.8753 391.663 31.2642 391.663 Q27.6531 391.663 25.5467 394.001 Q23.4402 396.339 23.4402 400.344 Q23.4402 402.219 23.8569 404.094 Q24.2735 405.945 25.1531 407.89 L7.79213 407.89 Z" fill="#000000" fill-rule="nonzero" fill-opacity="1" /><path clip-path="url(#clip140)" d="M38.417 135.033 L38.417 127.394 L12.0514 127.394 L13.718 135.704 L9.45878 135.704 L7.79213 127.44 L7.79213 122.764 L38.417 122.764 L38.417 115.125 L42.3521 115.125 L42.3521 135.033 L38.417 135.033 Z" fill="#000000" fill-rule="nonzero" fill-opacity="1" /><path clip-path="url(#clip140)" d="M36.4725 105.681 L36.4725 100.797 L42.3521 100.797 L42.3521 105.681 L36.4725 105.681 Z" fill="#000000" fill-rule="nonzero" fill-opacity="1" /><path clip-path="url(#clip140)" d="M10.8708 80.6115 Q10.8708 84.2226 14.4356 86.0513 Q17.9773 87.8568 25.1068 87.8568 Q32.2133 87.8568 35.7781 86.0513 Q39.3197 84.2226 39.3197 80.6115 Q39.3197 76.9773 35.7781 75.1717 Q32.2133 73.343 25.1068 73.343 Q17.9773 73.343 14.4356 75.1717 Q10.8708 76.9773 10.8708 80.6115 M7.16713 80.6115 Q7.16713 74.8013 11.7736 71.7458 Q16.3569 68.6671 25.1068 68.6671 Q33.8337 68.6671 38.4401 71.7458 Q43.0234 74.8013 43.0234 80.6115 Q43.0234 86.4217 38.4401 89.5003 Q33.8337 92.5559 25.1068 92.5559 Q16.3569 92.5559 11.7736 89.5003 Q7.16713 86.4217 7.16713 80.6115 Z" fill="#000000" fill-rule="nonzero" fill-opacity="1" /><path clip-path="url(#clip140)" d="M10.8708 50.4496 Q10.8708 54.0607 14.4356 55.8894 Q17.9773 57.695 25.1068 57.695 Q32.2133 57.695 35.7781 55.8894 Q39.3197 54.0607 39.3197 50.4496 Q39.3197 46.8154 35.7781 45.0098 Q32.2133 43.1811 25.1068 43.1811 Q17.9773 43.1811 14.4356 45.0098 Q10.8708 46.8154 10.8708 50.4496 M7.16713 50.4496 Q7.16713 44.6395 11.7736 41.5839 Q16.3569 38.5052 25.1068 38.5052 Q33.8337 38.5052 38.4401 41.5839 Q43.0234 44.6395 43.0234 50.4496 Q43.0234 56.2598 38.4401 59.3385 Q33.8337 62.394 25.1068 62.394 Q16.3569 62.394 11.7736 59.3385 Q7.16713 56.2598 7.16713 50.4496 Z" fill="#000000" fill-rule="nonzero" fill-opacity="1" /><polyline clip-path="url(#clip142)" style="stroke:#009af9; stroke-linecap:round; stroke-linejoin:round; stroke-width:4; stroke-opacity:1; fill:none" points="86.9921,88.9544 101.743,89.111 238.141,91.356 320.11,93.7753 389.414,96.8603 464.698,101.83 534.103,108.595 571.307,113.399 608.512,119.252 651.617,127.631 694.722,138.114 733.029,149.58 771.336,163.478 804.928,178.016 838.519,195.094 856.831,205.6 875.143,217.024 893.455,229.427 911.767,242.869 930.188,257.497 948.609,273.293 967.029,290.311 985.45,308.599 1005.82,330.349 1026.18,353.75 1046.55,378.833 1066.92,405.609 1086.29,432.652 1105.67,461.194 1125.05,491.186 1144.43,522.558 1164.58,556.541 1184.73,591.782 1204.88,628.124 1225.02,665.386 1258.95,729.626 1292.87,794.826 1334.28,874.087 1375.7,951.084 1394.67,985.092 1413.64,1018.1 1432.61,1049.97 1451.58,1080.6 1469.1,1107.72 1486.62,1133.65 1504.14,1158.36 1521.66,1181.83 1539.4,1204.33 1557.15,1225.54 1574.9,1245.48 1592.64,1264.17 1612.53,1283.68 1632.42,1301.72 1652.31,1318.35 1672.2,1333.65 1708.25,1358.21 1744.29,1379.07 1785.56,1398.99 1826.83,1415.31 1865.04,1427.7 1903.26,1437.91 1940.93,1446.18 1978.6,1452.98 2015.18,1458.41 2051.76,1462.87 2126.75,1469.7 2208.91,1474.59 2328.27,1478.73 2352.76,1479.3 "/>
<path clip-path="url(#clip140)" d="M1762.35 200.05 L2277.23 200.05 L2277.23 96.3696 L1762.35 96.3696  Z" fill="#ffffff" fill-rule="evenodd" fill-opacity="1"/>
<polyline clip-path="url(#clip140)" style="stroke:#000000; stroke-linecap:round; stroke-linejoin:round; stroke-width:4; stroke-opacity:1; fill:none" points="1762.35,200.05 2277.23,200.05 2277.23,96.3696 1762.35,96.3696 1762.35,200.05 "/>
<polyline clip-path="url(#clip140)" style="stroke:#009af9; stroke-linecap:round; stroke-linejoin:round; stroke-width:4; stroke-opacity:1; fill:none" points="1787.52,148.21 1938.57,148.21 "/>
<path clip-path="url(#clip140)" d="M1968.42 134.772 L1968.42 147.758 L1974.3 147.758 Q1977.57 147.758 1979.35 146.068 Q1981.13 144.379 1981.13 141.254 Q1981.13 138.152 1979.35 136.462 Q1977.57 134.772 1974.3 134.772 L1968.42 134.772 M1963.75 130.93 L1974.3 130.93 Q1980.11 130.93 1983.08 133.568 Q1986.06 136.184 1986.06 141.254 Q1986.06 146.369 1983.08 148.985 Q1980.11 151.601 1974.3 151.601 L1968.42 151.601 L1968.42 165.49 L1963.75 165.49 L1963.75 130.93 Z" fill="#000000" fill-rule="nonzero" fill-opacity="1" /><path clip-path="url(#clip140)" d="M2006.34 143.545 Q2005.62 143.129 2004.76 142.943 Q2003.93 142.735 2002.91 142.735 Q1999.3 142.735 1997.36 145.096 Q1995.44 147.434 1995.44 151.832 L1995.44 165.49 L1991.15 165.49 L1991.15 139.564 L1995.44 139.564 L1995.44 143.592 Q1996.78 141.23 1998.93 140.096 Q2001.08 138.939 2004.16 138.939 Q2004.6 138.939 2005.14 139.008 Q2005.67 139.055 2006.32 139.17 L2006.34 143.545 Z" fill="#000000" fill-rule="nonzero" fill-opacity="1" /><path clip-path="url(#clip140)" d="M2021.04 129.518 Q2017.94 134.842 2016.43 140.05 Q2014.93 145.258 2014.93 150.605 Q2014.93 155.953 2016.43 161.207 Q2017.96 166.439 2021.04 171.74 L2017.33 171.74 Q2013.86 166.3 2012.13 161.045 Q2010.41 155.791 2010.41 150.605 Q2010.41 145.443 2012.13 140.212 Q2013.84 134.98 2017.33 129.518 L2021.04 129.518 Z" fill="#000000" fill-rule="nonzero" fill-opacity="1" /><path clip-path="url(#clip140)" d="M2046.71 149.054 L2031.96 149.054 Q2032.31 155.976 2033.91 158.916 Q2035.9 162.527 2039.35 162.527 Q2042.82 162.527 2044.74 158.892 Q2046.43 155.698 2046.71 149.054 M2046.64 145.119 Q2045.99 138.545 2044.74 136.23 Q2042.75 132.573 2039.35 132.573 Q2035.81 132.573 2033.93 136.184 Q2032.45 139.101 2032.01 145.119 L2046.64 145.119 M2039.35 129.101 Q2044.9 129.101 2048.07 134.008 Q2051.25 138.892 2051.25 147.55 Q2051.25 156.184 2048.07 161.091 Q2044.9 166.022 2039.35 166.022 Q2033.77 166.022 2030.62 161.091 Q2027.45 156.184 2027.45 147.55 Q2027.45 138.892 2030.62 134.008 Q2033.77 129.101 2039.35 129.101 Z" fill="#000000" fill-rule="nonzero" fill-opacity="1" /><path clip-path="url(#clip140)" d="M2058.86 143.962 L2088.54 143.962 L2088.54 147.851 L2058.86 147.851 L2058.86 143.962 M2058.86 153.406 L2088.54 153.406 L2088.54 157.341 L2058.86 157.341 L2058.86 153.406 Z" fill="#000000" fill-rule="nonzero" fill-opacity="1" /><path clip-path="url(#clip140)" d="M2099.44 161.554 L2107.08 161.554 L2107.08 135.189 L2098.77 136.855 L2098.77 132.596 L2107.03 130.93 L2111.71 130.93 L2111.71 161.554 L2119.35 161.554 L2119.35 165.49 L2099.44 165.49 L2099.44 161.554 Z" fill="#000000" fill-rule="nonzero" fill-opacity="1" /><path clip-path="url(#clip140)" d="M2133.68 129.263 L2133.68 176.67 L2129.74 176.67 L2129.74 129.263 L2133.68 129.263 Z" fill="#000000" fill-rule="nonzero" fill-opacity="1" /><path clip-path="url(#clip140)" d="M2154.95 167.897 Q2153.14 172.527 2151.43 173.939 Q2149.72 175.351 2146.85 175.351 L2143.44 175.351 L2143.44 171.786 L2145.94 171.786 Q2147.7 171.786 2148.68 170.952 Q2149.65 170.119 2150.83 167.017 L2151.59 165.073 L2141.11 139.564 L2145.62 139.564 L2153.72 159.841 L2161.82 139.564 L2166.34 139.564 L2154.95 167.897 Z" fill="#000000" fill-rule="nonzero" fill-opacity="1" /><path clip-path="url(#clip140)" d="M2172.77 143.962 L2202.45 143.962 L2202.45 147.851 L2172.77 147.851 L2172.77 143.962 M2172.77 153.406 L2202.45 153.406 L2202.45 157.341 L2172.77 157.341 L2172.77 153.406 Z" fill="#000000" fill-rule="nonzero" fill-opacity="1" /><path clip-path="url(#clip140)" d="M2213.35 161.554 L2220.99 161.554 L2220.99 135.189 L2212.68 136.855 L2212.68 132.596 L2220.94 130.93 L2225.62 130.93 L2225.62 161.554 L2233.26 161.554 L2233.26 165.49 L2213.35 165.49 L2213.35 161.554 Z" fill="#000000" fill-rule="nonzero" fill-opacity="1" /><path clip-path="url(#clip140)" d="M2241.43 129.518 L2245.13 129.518 Q2248.61 134.98 2250.32 140.212 Q2252.06 145.443 2252.06 150.605 Q2252.06 155.791 2250.32 161.045 Q2248.61 166.3 2245.13 171.74 L2241.43 171.74 Q2244.51 166.439 2246.01 161.207 Q2247.54 155.953 2247.54 150.605 Q2247.54 145.258 2246.01 140.05 Q2244.51 134.842 2241.43 129.518 Z" fill="#000000" fill-rule="nonzero" fill-opacity="1" /></svg>
