<?xml version="1.0" encoding="utf-8"?>
<svg xmlns="http://www.w3.org/2000/svg" xmlns:xlink="http://www.w3.org/1999/xlink" width="600" height="400" viewBox="0 0 2400 1600">
<defs>
  <clipPath id="clip120">
    <rect x="0" y="0" width="2400" height="1600"/>
  </clipPath>
</defs>
<path clip-path="url(#clip120)" d="M0 1600 L2400 1600 L2400 0 L0 0  Z" fill="#ffffff" fill-rule="evenodd" fill-opacity="1"/>
<defs>
  <clipPath id="clip121">
    <rect x="480" y="0" width="1681" height="1600"/>
  </clipPath>
</defs>
<path clip-path="url(#clip120)" d="M86.9921 1521.01 L2352.76 1521.01 L2352.76 47.2441 L86.9921 47.2441  Z" fill="#ffffff" fill-rule="evenodd" fill-opacity="1"/>
<defs>
  <clipPath id="clip122">
    <rect x="86" y="47" width="2267" height="1475"/>
  </clipPath>
</defs>
<polyline clip-path="url(#clip122)" style="stroke:#000000; stroke-linecap:round; stroke-linejoin:round; stroke-width:2; stroke-opacity:0.1; fill:none" points="344.731,1521.01 344.731,47.2441 "/>
<polyline clip-path="url(#clip122)" style="stroke:#000000; stroke-linecap:round; stroke-linejoin:round; stroke-width:2; stroke-opacity:0.1; fill:none" points="681.324,1521.01 681.324,47.2441 "/>
<polyline clip-path="url(#clip122)" style="stroke:#000000; stroke-linecap:round; stroke-linejoin:round; stroke-width:2; stroke-opacity:0.1; fill:none" points="1017.92,1521.01 1017.92,47.2441 "/>
<polyline clip-path="url(#clip122)" style="stroke:#000000; stroke-linecap:round; stroke-linejoin:round; stroke-width:2; stroke-opacity:0.1; fill:none" points="1354.51,1521.01 1354.51,47.2441 "/>
<polyline clip-path="url(#clip122)" style="stroke:#000000; stroke-linecap:round; stroke-linejoin:round; stroke-width:2; stroke-opacity:0.1; fill:none" points="1691.11,1521.01 1691.11,47.2441 "/>
<polyline clip-path="url(#clip122)" style="stroke:#000000; stroke-linecap:round; stroke-linejoin:round; stroke-width:2; stroke-opacity:0.1; fill:none" points="2027.7,1521.01 2027.7,47.2441 "/>
<polyline clip-path="url(#clip120)" style="stroke:#000000; stroke-linecap:round; stroke-linejoin:round; stroke-width:4; stroke-opacity:1; fill:none" points="86.9921,1521.01 2352.76,1521.01 "/>
<polyline clip-path="url(#clip120)" style="stroke:#000000; stroke-linecap:round; stroke-linejoin:round; stroke-width:4; stroke-opacity:1; fill:none" points="344.731,1521.01 344.731,1502.11 "/>
<polyline clip-path="url(#clip120)" style="stroke:#000000; stroke-linecap:round; stroke-linejoin:round; stroke-width:4; stroke-opacity:1; fill:none" points="681.324,1521.01 681.324,1502.11 "/>
<polyline clip-path="url(#clip120)" style="stroke:#000000; stroke-linecap:round; stroke-linejoin:round; stroke-width:4; stroke-opacity:1; fill:none" points="1017.92,1521.01 1017.92,1502.11 "/>
<polyline clip-path="url(#clip120)" style="stroke:#000000; stroke-linecap:round; stroke-linejoin:round; stroke-width:4; stroke-opacity:1; fill:none" points="1354.51,1521.01 1354.51,1502.11 "/>
<polyline clip-path="url(#clip120)" style="stroke:#000000; stroke-linecap:round; stroke-linejoin:round; stroke-width:4; stroke-opacity:1; fill:none" points="1691.11,1521.01 1691.11,1502.11 "/>
<polyline clip-path="url(#clip120)" style="stroke:#000000; stroke-linecap:round; stroke-linejoin:round; stroke-width:4; stroke-opacity:1; fill:none" points="2027.7,1521.01 2027.7,1502.11 "/>
<path clip-path="url(#clip120)" d="M291.259 1566.58 L320.934 1566.58 L320.934 1570.51 L291.259 1570.51 L291.259 1566.58 Z" fill="#000000" fill-rule="nonzero" fill-opacity="1" /><path clip-path="url(#clip120)" d="M331.073 1548.85 L349.43 1548.85 L349.43 1552.78 L335.356 1552.78 L335.356 1561.26 Q336.374 1560.91 337.393 1560.75 Q338.411 1560.56 339.43 1560.56 Q345.217 1560.56 348.596 1563.73 Q351.976 1566.9 351.976 1572.32 Q351.976 1577.9 348.504 1581 Q345.032 1584.08 338.712 1584.08 Q336.536 1584.08 334.268 1583.71 Q332.022 1583.34 329.615 1582.6 L329.615 1577.9 Q331.698 1579.03 333.92 1579.59 Q336.143 1580.14 338.62 1580.14 Q342.624 1580.14 344.962 1578.04 Q347.3 1575.93 347.3 1572.32 Q347.3 1568.71 344.962 1566.6 Q342.624 1564.5 338.62 1564.5 Q336.745 1564.5 334.87 1564.91 Q333.018 1565.33 331.073 1566.21 L331.073 1548.85 Z" fill="#000000" fill-rule="nonzero" fill-opacity="1" /><path clip-path="url(#clip120)" d="M361.189 1577.53 L366.073 1577.53 L366.073 1583.41 L361.189 1583.41 L361.189 1577.53 Z" fill="#000000" fill-rule="nonzero" fill-opacity="1" /><path clip-path="url(#clip120)" d="M386.258 1551.93 Q382.647 1551.93 380.818 1555.49 Q379.013 1559.03 379.013 1566.16 Q379.013 1573.27 380.818 1576.83 Q382.647 1580.38 386.258 1580.38 Q389.892 1580.38 391.698 1576.83 Q393.527 1573.27 393.527 1566.16 Q393.527 1559.03 391.698 1555.49 Q389.892 1551.93 386.258 1551.93 M386.258 1548.22 Q392.068 1548.22 395.124 1552.83 Q398.203 1557.41 398.203 1566.16 Q398.203 1574.89 395.124 1579.5 Q392.068 1584.08 386.258 1584.08 Q380.448 1584.08 377.369 1579.5 Q374.314 1574.89 374.314 1566.16 Q374.314 1557.41 377.369 1552.83 Q380.448 1548.22 386.258 1548.22 Z" fill="#000000" fill-rule="nonzero" fill-opacity="1" /><path clip-path="url(#clip120)" d="M628.35 1566.58 L658.026 1566.58 L658.026 1570.51 L628.35 1570.51 L628.35 1566.58 Z" fill="#000000" fill-rule="nonzero" fill-opacity="1" /><path clip-path="url(#clip120)" d="M672.146 1579.47 L688.465 1579.47 L688.465 1583.41 L666.521 1583.41 L666.521 1579.47 Q669.183 1576.72 673.766 1572.09 Q678.373 1567.44 679.553 1566.09 Q681.799 1563.57 682.678 1561.83 Q683.581 1560.07 683.581 1558.38 Q683.581 1555.63 681.637 1553.89 Q679.715 1552.16 676.614 1552.16 Q674.415 1552.16 671.961 1552.92 Q669.53 1553.69 666.753 1555.24 L666.753 1550.51 Q669.577 1549.38 672.03 1548.8 Q674.484 1548.22 676.521 1548.22 Q681.891 1548.22 685.086 1550.91 Q688.28 1553.59 688.28 1558.08 Q688.28 1560.21 687.47 1562.13 Q686.683 1564.03 684.577 1566.63 Q683.998 1567.3 680.896 1570.51 Q677.794 1573.71 672.146 1579.47 Z" fill="#000000" fill-rule="nonzero" fill-opacity="1" /><path clip-path="url(#clip120)" d="M698.28 1577.53 L703.164 1577.53 L703.164 1583.41 L698.28 1583.41 L698.28 1577.53 Z" fill="#000000" fill-rule="nonzero" fill-opacity="1" /><path clip-path="url(#clip120)" d="M713.396 1548.85 L731.752 1548.85 L731.752 1552.78 L717.678 1552.78 L717.678 1561.26 Q718.697 1560.91 719.715 1560.75 Q720.734 1560.56 721.752 1560.56 Q727.539 1560.56 730.919 1563.73 Q734.298 1566.9 734.298 1572.32 Q734.298 1577.9 730.826 1581 Q727.354 1584.08 721.035 1584.08 Q718.859 1584.08 716.59 1583.71 Q714.345 1583.34 711.937 1582.6 L711.937 1577.9 Q714.021 1579.03 716.243 1579.59 Q718.465 1580.14 720.942 1580.14 Q724.947 1580.14 727.285 1578.04 Q729.623 1575.93 729.623 1572.32 Q729.623 1568.71 727.285 1566.6 Q724.947 1564.5 720.942 1564.5 Q719.067 1564.5 717.192 1564.91 Q715.34 1565.33 713.396 1566.21 L713.396 1548.85 Z" fill="#000000" fill-rule="nonzero" fill-opacity="1" /><path clip-path="url(#clip120)" d="M995.302 1551.93 Q991.691 1551.93 989.862 1555.49 Q988.057 1559.03 988.057 1566.16 Q988.057 1573.27 989.862 1576.83 Q991.691 1580.38 995.302 1580.38 Q998.936 1580.38 1000.74 1576.83 Q1002.57 1573.27 1002.57 1566.16 Q1002.57 1559.03 1000.74 1555.49 Q998.936 1551.93 995.302 1551.93 M995.302 1548.22 Q1001.11 1548.22 1004.17 1552.83 Q1007.25 1557.41 1007.25 1566.16 Q1007.25 1574.89 1004.17 1579.5 Q1001.11 1584.08 995.302 1584.08 Q989.492 1584.08 986.413 1579.5 Q983.358 1574.89 983.358 1566.16 Q983.358 1557.41 986.413 1552.83 Q989.492 1548.22 995.302 1548.22 Z" fill="#000000" fill-rule="nonzero" fill-opacity="1" /><path clip-path="url(#clip120)" d="M1015.46 1577.53 L1020.35 1577.53 L1020.35 1583.41 L1015.46 1583.41 L1015.46 1577.53 Z" fill="#000000" fill-rule="nonzero" fill-opacity="1" /><path clip-path="url(#clip120)" d="M1040.53 1551.93 Q1036.92 1551.93 1035.09 1555.49 Q1033.29 1559.03 1033.29 1566.16 Q1033.29 1573.27 1035.09 1576.83 Q1036.92 1580.38 1040.53 1580.38 Q1044.17 1580.38 1045.97 1576.83 Q1047.8 1573.27 1047.8 1566.16 Q1047.8 1559.03 1045.97 1555.49 Q1044.17 1551.93 1040.53 1551.93 M1040.53 1548.22 Q1046.34 1548.22 1049.4 1552.83 Q1052.48 1557.41 1052.48 1566.16 Q1052.48 1574.89 1049.4 1579.5 Q1046.34 1584.08 1040.53 1584.08 Q1034.72 1584.08 1031.64 1579.5 Q1028.59 1574.89 1028.59 1566.16 Q1028.59 1557.41 1031.64 1552.83 Q1034.72 1548.22 1040.53 1548.22 Z" fill="#000000" fill-rule="nonzero" fill-opacity="1" /><path clip-path="url(#clip120)" d="M1326.25 1579.47 L1342.57 1579.47 L1342.57 1583.41 L1320.62 1583.41 L1320.62 1579.47 Q1323.28 1576.72 1327.87 1572.09 Q1332.47 1567.44 1333.66 1566.09 Q1335.9 1563.57 1336.78 1561.83 Q1337.68 1560.07 1337.68 1558.38 Q1337.68 1555.63 1335.74 1553.89 Q1333.82 1552.16 1330.72 1552.16 Q1328.52 1552.16 1326.06 1552.92 Q1323.63 1553.69 1320.85 1555.24 L1320.85 1550.51 Q1323.68 1549.38 1326.13 1548.8 Q1328.59 1548.22 1330.62 1548.22 Q1335.99 1548.22 1339.19 1550.91 Q1342.38 1553.59 1342.38 1558.08 Q1342.38 1560.21 1341.57 1562.13 Q1340.78 1564.03 1338.68 1566.63 Q1338.1 1567.3 1335 1570.51 Q1331.9 1573.71 1326.25 1579.47 Z" fill="#000000" fill-rule="nonzero" fill-opacity="1" /><path clip-path="url(#clip120)" d="M1352.38 1577.53 L1357.27 1577.53 L1357.27 1583.41 L1352.38 1583.41 L1352.38 1577.53 Z" fill="#000000" fill-rule="nonzero" fill-opacity="1" /><path clip-path="url(#clip120)" d="M1367.5 1548.85 L1385.85 1548.85 L1385.85 1552.78 L1371.78 1552.78 L1371.78 1561.26 Q1372.8 1560.91 1373.82 1560.75 Q1374.84 1560.56 1375.85 1560.56 Q1381.64 1560.56 1385.02 1563.73 Q1388.4 1566.9 1388.4 1572.32 Q1388.4 1577.9 1384.93 1581 Q1381.46 1584.08 1375.14 1584.08 Q1372.96 1584.08 1370.69 1583.71 Q1368.45 1583.34 1366.04 1582.6 L1366.04 1577.9 Q1368.12 1579.03 1370.34 1579.59 Q1372.57 1580.14 1375.04 1580.14 Q1379.05 1580.14 1381.39 1578.04 Q1383.72 1575.93 1383.72 1572.32 Q1383.72 1568.71 1381.39 1566.6 Q1379.05 1564.5 1375.04 1564.5 Q1373.17 1564.5 1371.29 1564.91 Q1369.44 1565.33 1367.5 1566.21 L1367.5 1548.85 Z" fill="#000000" fill-rule="nonzero" fill-opacity="1" /><path clip-path="url(#clip120)" d="M1658.27 1548.85 L1676.63 1548.85 L1676.63 1552.78 L1662.55 1552.78 L1662.55 1561.26 Q1663.57 1560.91 1664.59 1560.75 Q1665.61 1560.56 1666.63 1560.56 Q1672.41 1560.56 1675.79 1563.73 Q1679.17 1566.9 1679.17 1572.32 Q1679.17 1577.9 1675.7 1581 Q1672.23 1584.08 1665.91 1584.08 Q1663.73 1584.08 1661.46 1583.71 Q1659.22 1583.34 1656.81 1582.6 L1656.81 1577.9 Q1658.89 1579.03 1661.12 1579.59 Q1663.34 1580.14 1665.82 1580.14 Q1669.82 1580.14 1672.16 1578.04 Q1674.5 1575.93 1674.5 1572.32 Q1674.5 1568.71 1672.16 1566.6 Q1669.82 1564.5 1665.82 1564.5 Q1663.94 1564.5 1662.07 1564.91 Q1660.21 1565.33 1658.27 1566.21 L1658.27 1548.85 Z" fill="#000000" fill-rule="nonzero" fill-opacity="1" /><path clip-path="url(#clip120)" d="M1688.39 1577.53 L1693.27 1577.53 L1693.27 1583.41 L1688.39 1583.41 L1688.39 1577.53 Z" fill="#000000" fill-rule="nonzero" fill-opacity="1" /><path clip-path="url(#clip120)" d="M1713.45 1551.93 Q1709.84 1551.93 1708.01 1555.49 Q1706.21 1559.03 1706.21 1566.16 Q1706.21 1573.27 1708.01 1576.83 Q1709.84 1580.38 1713.45 1580.38 Q1717.09 1580.38 1718.89 1576.83 Q1720.72 1573.27 1720.72 1566.16 Q1720.72 1559.03 1718.89 1555.49 Q1717.09 1551.93 1713.45 1551.93 M1713.45 1548.22 Q1719.26 1548.22 1722.32 1552.83 Q1725.4 1557.41 1725.4 1566.16 Q1725.4 1574.89 1722.32 1579.5 Q1719.26 1584.08 1713.45 1584.08 Q1707.64 1584.08 1704.57 1579.5 Q1701.51 1574.89 1701.51 1566.16 Q1701.51 1557.41 1704.57 1552.83 Q1707.64 1548.22 1713.45 1548.22 Z" fill="#000000" fill-rule="nonzero" fill-opacity="1" /><path clip-path="url(#clip120)" d="M1994.02 1548.85 L2016.24 1548.85 L2016.24 1550.84 L2003.69 1583.41 L1998.81 1583.41 L2010.62 1552.78 L1994.02 1552.78 L1994.02 1548.85 Z" fill="#000000" fill-rule="nonzero" fill-opacity="1" /><path clip-path="url(#clip120)" d="M2025.36 1577.53 L2030.24 1577.53 L2030.24 1583.41 L2025.36 1583.41 L2025.36 1577.53 Z" fill="#000000" fill-rule="nonzero" fill-opacity="1" /><path clip-path="url(#clip120)" d="M2040.48 1548.85 L2058.83 1548.85 L2058.83 1552.78 L2044.76 1552.78 L2044.76 1561.26 Q2045.78 1560.91 2046.8 1560.75 Q2047.81 1560.56 2048.83 1560.56 Q2054.62 1560.56 2058 1563.73 Q2061.38 1566.9 2061.38 1572.32 Q2061.38 1577.9 2057.91 1581 Q2054.43 1584.08 2048.12 1584.08 Q2045.94 1584.08 2043.67 1583.71 Q2041.43 1583.34 2039.02 1582.6 L2039.02 1577.9 Q2041.1 1579.03 2043.32 1579.59 Q2045.55 1580.14 2048.02 1580.14 Q2052.03 1580.14 2054.37 1578.04 Q2056.7 1575.93 2056.7 1572.32 Q2056.7 1568.71 2054.37 1566.6 Q2052.03 1564.5 2048.02 1564.5 Q2046.15 1564.5 2044.27 1564.91 Q2042.42 1565.33 2040.48 1566.21 L2040.48 1548.85 Z" fill="#000000" fill-rule="nonzero" fill-opacity="1" /><polyline clip-path="url(#clip122)" style="stroke:#000000; stroke-linecap:round; stroke-linejoin:round; stroke-width:2; stroke-opacity:0.1; fill:none" points="86.9921,1480.08 2352.76,1480.08 "/>
<polyline clip-path="url(#clip122)" style="stroke:#000000; stroke-linecap:round; stroke-linejoin:round; stroke-width:2; stroke-opacity:0.1; fill:none" points="86.9921,1131.33 2352.76,1131.33 "/>
<polyline clip-path="url(#clip122)" style="stroke:#000000; stroke-linecap:round; stroke-linejoin:round; stroke-width:2; stroke-opacity:0.1; fill:none" points="86.9921,782.583 2352.76,782.583 "/>
<polyline clip-path="url(#clip122)" style="stroke:#000000; stroke-linecap:round; stroke-linejoin:round; stroke-width:2; stroke-opacity:0.1; fill:none" points="86.9921,433.834 2352.76,433.834 "/>
<polyline clip-path="url(#clip122)" style="stroke:#000000; stroke-linecap:round; stroke-linejoin:round; stroke-width:2; stroke-opacity:0.1; fill:none" points="86.9921,85.0839 2352.76,85.0839 "/>
<polyline clip-path="url(#clip120)" style="stroke:#000000; stroke-linecap:round; stroke-linejoin:round; stroke-width:4; stroke-opacity:1; fill:none" points="86.9921,1521.01 86.9921,47.2441 "/>
<polyline clip-path="url(#clip120)" style="stroke:#000000; stroke-linecap:round; stroke-linejoin:round; stroke-width:4; stroke-opacity:1; fill:none" points="86.9921,1480.08 105.89,1480.08 "/>
<polyline clip-path="url(#clip120)" style="stroke:#000000; stroke-linecap:round; stroke-linejoin:round; stroke-width:4; stroke-opacity:1; fill:none" points="86.9921,1131.33 105.89,1131.33 "/>
<polyline clip-path="url(#clip120)" style="stroke:#000000; stroke-linecap:round; stroke-linejoin:round; stroke-width:4; stroke-opacity:1; fill:none" points="86.9921,782.583 105.89,782.583 "/>
<polyline clip-path="url(#clip120)" style="stroke:#000000; stroke-linecap:round; stroke-linejoin:round; stroke-width:4; stroke-opacity:1; fill:none" points="86.9921,433.834 105.89,433.834 "/>
<polyline clip-path="url(#clip120)" style="stroke:#000000; stroke-linecap:round; stroke-linejoin:round; stroke-width:4; stroke-opacity:1; fill:none" points="86.9921,85.0839 105.89,85.0839 "/>
<path clip-path="url(#clip120)" d="M10.8708 1517.78 Q10.8708 1521.39 14.4356 1523.22 Q17.9773 1525.02 25.1068 1525.02 Q32.2133 1525.02 35.7781 1523.22 Q39.3197 1521.39 39.3197 1517.78 Q39.3197 1514.15 35.7781 1512.34 Q32.2133 1510.51 25.1068 1510.51 Q17.9773 1510.51 14.4356 1512.34 Q10.8708 1514.15 10.8708 1517.78 M7.16713 1517.78 Q7.16713 1511.97 11.7736 1508.91 Q16.3569 1505.83 25.1068 1505.83 Q33.8337 1505.83 38.4401 1508.91 Q43.0234 1511.97 43.0234 1517.78 Q43.0234 1523.59 38.4401 1526.67 Q33.8337 1529.72 25.1068 1529.72 Q16.3569 1529.72 11.7736 1526.67 Q7.16713 1523.59 7.16713 1517.78 Z" fill="#000000" fill-rule="nonzero" fill-opacity="1" /><path clip-path="url(#clip120)" d="M36.4725 1497.62 L36.4725 1492.73 L42.3521 1492.73 L42.3521 1497.62 L36.4725 1497.62 Z" fill="#000000" fill-rule="nonzero" fill-opacity="1" /><path clip-path="url(#clip120)" d="M10.8708 1472.55 Q10.8708 1476.16 14.4356 1477.99 Q17.9773 1479.79 25.1068 1479.79 Q32.2133 1479.79 35.7781 1477.99 Q39.3197 1476.16 39.3197 1472.55 Q39.3197 1468.91 35.7781 1467.11 Q32.2133 1465.28 25.1068 1465.28 Q17.9773 1465.28 14.4356 1467.11 Q10.8708 1468.91 10.8708 1472.55 M7.16713 1472.55 Q7.16713 1466.74 11.7736 1463.68 Q16.3569 1460.6 25.1068 1460.6 Q33.8337 1460.6 38.4401 1463.68 Q43.0234 1466.74 43.0234 1472.55 Q43.0234 1478.36 38.4401 1481.44 Q33.8337 1484.49 25.1068 1484.49 Q16.3569 1484.49 11.7736 1481.44 Q7.16713 1478.36 7.16713 1472.55 Z" fill="#000000" fill-rule="nonzero" fill-opacity="1" /><path clip-path="url(#clip120)" d="M10.8708 1442.39 Q10.8708 1446 14.4356 1447.83 Q17.9773 1449.63 25.1068 1449.63 Q32.2133 1449.63 35.7781 1447.83 Q39.3197 1446 39.3197 1442.39 Q39.3197 1438.75 35.7781 1436.95 Q32.2133 1435.12 25.1068 1435.12 Q17.9773 1435.12 14.4356 1436.95 Q10.8708 1438.75 10.8708 1442.39 M7.16713 1442.39 Q7.16713 1436.58 11.7736 1433.52 Q16.3569 1430.44 25.1068 1430.44 Q33.8337 1430.44 38.4401 1433.52 Q43.0234 1436.58 43.0234 1442.39 Q43.0234 1448.2 38.4401 1451.27 Q33.8337 1454.33 25.1068 1454.33 Q16.3569 1454.33 11.7736 1451.27 Q7.16713 1448.2 7.16713 1442.39 Z" fill="#000000" fill-rule="nonzero" fill-opacity="1" /><path clip-path="url(#clip120)" d="M10.8708 1168.53 Q10.8708 1172.14 14.4356 1173.97 Q17.9773 1175.78 25.1068 1175.78 Q32.2133 1175.78 35.7781 1173.97 Q39.3197 1172.14 39.3197 1168.53 Q39.3197 1164.9 35.7781 1163.09 Q32.2133 1161.26 25.1068 1161.26 Q17.9773 1161.26 14.4356 1163.09 Q10.8708 1164.9 10.8708 1168.53 M7.16713 1168.53 Q7.16713 1162.72 11.7736 1159.67 Q16.3569 1156.59 25.1068 1156.59 Q33.8337 1156.59 38.4401 1159.67 Q43.0234 1162.72 43.0234 1168.53 Q43.0234 1174.34 38.4401 1177.42 Q33.8337 1180.48 25.1068 1180.48 Q16.3569 1180.48 11.7736 1177.42 Q7.16713 1174.34 7.16713 1168.53 Z" fill="#000000" fill-rule="nonzero" fill-opacity="1" /><path clip-path="url(#clip120)" d="M36.4725 1148.37 L36.4725 1143.49 L42.3521 1143.49 L42.3521 1148.37 L36.4725 1148.37 Z" fill="#000000" fill-rule="nonzero" fill-opacity="1" /><path clip-path="url(#clip120)" d="M10.8708 1123.3 Q10.8708 1126.91 14.4356 1128.74 Q17.9773 1130.55 25.1068 1130.55 Q32.2133 1130.55 35.7781 1128.74 Q39.3197 1126.91 39.3197 1123.3 Q39.3197 1119.67 35.7781 1117.86 Q32.2133 1116.03 25.1068 1116.03 Q17.9773 1116.03 14.4356 1117.86 Q10.8708 1119.67 10.8708 1123.3 M7.16713 1123.3 Q7.16713 1117.49 11.7736 1114.43 Q16.3569 1111.36 25.1068 1111.36 Q33.8337 1111.36 38.4401 1114.43 Q43.0234 1117.49 43.0234 1123.3 Q43.0234 1129.11 38.4401 1132.19 Q33.8337 1135.25 25.1068 1135.25 Q16.3569 1135.25 11.7736 1132.19 Q7.16713 1129.11 7.16713 1123.3 Z" fill="#000000" fill-rule="nonzero" fill-opacity="1" /><path clip-path="url(#clip120)" d="M7.79213 1103.09 L7.79213 1084.74 L11.7273 1084.74 L11.7273 1098.81 L20.1995 1098.81 Q19.8522 1097.79 19.6902 1096.77 Q19.505 1095.75 19.505 1094.74 Q19.505 1088.95 22.6763 1085.57 Q25.8476 1082.19 31.2642 1082.19 Q36.8429 1082.19 39.9447 1085.66 Q43.0234 1089.13 43.0234 1095.45 Q43.0234 1097.63 42.6531 1099.9 Q42.2827 1102.14 41.5419 1104.55 L36.8429 1104.55 Q37.9771 1102.47 38.5327 1100.25 Q39.0883 1098.02 39.0883 1095.55 Q39.0883 1091.54 36.9818 1089.2 Q34.8753 1086.87 31.2642 1086.87 Q27.6531 1086.87 25.5467 1089.2 Q23.4402 1091.54 23.4402 1095.55 Q23.4402 1097.42 23.8569 1099.3 Q24.2735 1101.15 25.1531 1103.09 L7.79213 1103.09 Z" fill="#000000" fill-rule="nonzero" fill-opacity="1" /><path clip-path="url(#clip120)" d="M10.8708 820.28 Q10.8708 823.891 14.4356 825.72 Q17.9773 827.525 25.1068 827.525 Q32.2133 827.525 35.7781 825.72 Q39.3197 823.891 39.3197 820.28 Q39.3197 816.646 35.7781 814.84 Q32.2133 813.011 25.1068 813.011 Q17.9773 813.011 14.4356 814.84 Q10.8708 816.646 10.8708 820.28 M7.16713 820.28 Q7.16713 814.47 11.7736 811.414 Q16.3569 808.335 25.1068 808.335 Q33.8337 808.335 38.4401 811.414 Q43.0234 814.47 43.0234 820.28 Q43.0234 826.09 38.4401 829.169 Q33.8337 832.224 25.1068 832.224 Q16.3569 832.224 11.7736 829.169 Q7.16713 826.09 7.16713 820.28 Z" fill="#000000" fill-rule="nonzero" fill-opacity="1" /><path clip-path="url(#clip120)" d="M36.4725 800.118 L36.4725 795.234 L42.3521 795.234 L42.3521 800.118 L36.4725 800.118 Z" fill="#000000" fill-rule="nonzero" fill-opacity="1" /><path clip-path="url(#clip120)" d="M38.417 784.238 L38.417 776.6 L12.0514 776.6 L13.718 784.91 L9.45878 784.91 L7.79213 776.646 L7.79213 771.97 L38.417 771.97 L38.417 764.331 L42.3521 764.331 L42.3521 784.238 L38.417 784.238 Z" fill="#000000" fill-rule="nonzero" fill-opacity="1" /><path clip-path="url(#clip120)" d="M10.8708 744.887 Q10.8708 748.498 14.4356 750.327 Q17.9773 752.132 25.1068 752.132 Q32.2133 752.132 35.7781 750.327 Q39.3197 748.498 39.3197 744.887 Q39.3197 741.252 35.7781 739.447 Q32.2133 737.618 25.1068 737.618 Q17.9773 737.618 14.4356 739.447 Q10.8708 741.252 10.8708 744.887 M7.16713 744.887 Q7.16713 739.077 11.7736 736.021 Q16.3569 732.942 25.1068 732.942 Q33.8337 732.942 38.4401 736.021 Q43.0234 739.077 43.0234 744.887 Q43.0234 750.697 38.4401 753.776 Q33.8337 756.831 25.1068 756.831 Q16.3569 756.831 11.7736 753.776 Q7.16713 750.697 7.16713 744.887 Z" fill="#000000" fill-rule="nonzero" fill-opacity="1" /><path clip-path="url(#clip120)" d="M10.8708 471.032 Q10.8708 474.644 14.4356 476.472 Q17.9773 478.278 25.1068 478.278 Q32.2133 478.278 35.7781 476.472 Q39.3197 474.644 39.3197 471.032 Q39.3197 467.398 35.7781 465.593 Q32.2133 463.764 25.1068 463.764 Q17.9773 463.764 14.4356 465.593 Q10.8708 467.398 10.8708 471.032 M7.16713 471.032 Q7.16713 465.222 11.7736 462.167 Q16.3569 459.088 25.1068 459.088 Q33.8337 459.088 38.4401 462.167 Q43.0234 465.222 43.0234 471.032 Q43.0234 476.843 38.4401 479.921 Q33.8337 482.977 25.1068 482.977 Q16.3569 482.977 11.7736 479.921 Q7.16713 476.843 7.16713 471.032 Z" fill="#000000" fill-rule="nonzero" fill-opacity="1" /><path clip-path="url(#clip120)" d="M36.4725 450.871 L36.4725 445.986 L42.3521 445.986 L42.3521 450.871 L36.4725 450.871 Z" fill="#000000" fill-rule="nonzero" fill-opacity="1" /><path clip-path="url(#clip120)" d="M38.417 434.991 L38.417 427.352 L12.0514 427.352 L13.718 435.662 L9.45878 435.662 L7.79213 427.398 L7.79213 422.723 L38.417 422.723 L38.417 415.084 L42.3521 415.084 L42.3521 434.991 L38.417 434.991 Z" fill="#000000" fill-rule="nonzero" fill-opacity="1" /><path clip-path="url(#clip120)" d="M7.79213 405.593 L7.79213 387.237 L11.7273 387.237 L11.7273 401.311 L20.1995 401.311 Q19.8522 400.292 19.6902 399.274 Q19.505 398.255 19.505 397.237 Q19.505 391.45 22.6763 388.07 Q25.8476 384.69 31.2642 384.69 Q36.8429 384.69 39.9447 388.163 Q43.0234 391.635 43.0234 397.954 Q43.0234 400.13 42.6531 402.399 Q42.2827 404.644 41.5419 407.051 L36.8429 407.051 Q37.9771 404.968 38.5327 402.746 Q39.0883 400.524 39.0883 398.047 Q39.0883 394.042 36.9818 391.704 Q34.8753 389.366 31.2642 389.366 Q27.6531 389.366 25.5467 391.704 Q23.4402 394.042 23.4402 398.047 Q23.4402 399.922 23.8569 401.797 Q24.2735 403.649 25.1531 405.593 L7.79213 405.593 Z" fill="#000000" fill-rule="nonzero" fill-opacity="1" /><path clip-path="url(#clip120)" d="M10.8708 122.78 Q10.8708 126.392 14.4356 128.22 Q17.9773 130.026 25.1068 130.026 Q32.2133 130.026 35.7781 128.22 Q39.3197 126.392 39.3197 122.78 Q39.3197 119.146 35.7781 117.341 Q32.2133 115.512 25.1068 115.512 Q17.9773 115.512 14.4356 117.341 Q10.8708 119.146 10.8708 122.78 M7.16713 122.78 Q7.16713 116.97 11.7736 113.915 Q16.3569 110.836 25.1068 110.836 Q33.8337 110.836 38.4401 113.915 Q43.0234 116.97 43.0234 122.78 Q43.0234 128.591 38.4401 131.669 Q33.8337 134.725 25.1068 134.725 Q16.3569 134.725 11.7736 131.669 Q7.16713 128.591 7.16713 122.78 Z" fill="#000000" fill-rule="nonzero" fill-opacity="1" /><path clip-path="url(#clip120)" d="M36.4725 102.618 L36.4725 97.7343 L42.3521 97.7343 L42.3521 102.618 L36.4725 102.618 Z" fill="#000000" fill-rule="nonzero" fill-opacity="1" /><path clip-path="url(#clip120)" d="M38.417 83.5214 L38.417 67.202 L42.3521 67.202 L42.3521 89.1463 L38.417 89.1463 Q35.6623 86.4843 31.0327 81.901 Q26.38 77.2946 25.0374 76.114 Q22.5143 73.8686 20.7782 72.989 Q19.0189 72.0862 17.3291 72.0862 Q14.5745 72.0862 12.8384 74.0307 Q11.1023 75.952 11.1023 79.0538 Q11.1023 81.2529 11.8662 83.7066 Q12.6301 86.1371 14.181 88.9149 L9.45878 88.9149 Q8.32453 86.0908 7.74583 83.6371 Q7.16713 81.1834 7.16713 79.1464 Q7.16713 73.7761 9.8523 70.5816 Q12.5375 67.3872 17.0282 67.3872 Q19.1578 67.3872 21.0791 68.1974 Q22.9772 68.9844 25.5698 71.0909 Q26.2411 71.6696 29.4587 74.7714 Q32.6531 77.8733 38.417 83.5214 Z" fill="#000000" fill-rule="nonzero" fill-opacity="1" /><path clip-path="url(#clip120)" d="M10.8708 47.3873 Q10.8708 50.9984 14.4356 52.8271 Q17.9773 54.6326 25.1068 54.6326 Q32.2133 54.6326 35.7781 52.8271 Q39.3197 50.9984 39.3197 47.3873 Q39.3197 43.7531 35.7781 41.9475 Q32.2133 40.1188 25.1068 40.1188 Q17.9773 40.1188 14.4356 41.9475 Q10.8708 43.7531 10.8708 47.3873 M7.16713 47.3873 Q7.16713 41.5772 11.7736 38.5216 Q16.3569 35.4429 25.1068 35.4429 Q33.8337 35.4429 38.4401 38.5216 Q43.0234 41.5772 43.0234 47.3873 Q43.0234 53.1975 38.4401 56.2761 Q33.8337 59.3317 25.1068 59.3317 Q16.3569 59.3317 11.7736 56.2761 Q7.16713 53.1975 7.16713 47.3873 Z" fill="#000000" fill-rule="nonzero" fill-opacity="1" /><polyline clip-path="url(#clip122)" style="stroke:#009af9; stroke-linecap:round; stroke-linejoin:round; stroke-width:4; stroke-opacity:1; fill:none" points="151.118,1478.7 157.637,1478.57 164.157,1478.43 224.443,1476.42 284.729,1472.36 320.959,1468.27 357.188,1462.34 387.819,1455.42 418.451,1446.24 435.088,1440.1 451.725,1433.04 468.362,1424.94 485,1415.69 500.338,1406.04 515.675,1395.22 531.013,1383.14 546.351,1369.7 562.795,1353.67 579.239,1335.85 595.683,1316.13 612.127,1294.4 631.179,1266.61 650.231,1235.88 669.283,1202.12 688.335,1165.27 705.266,1129.92 722.197,1092.14 739.128,1051.97 756.06,1009.52 770.907,970.495 785.754,929.911 800.601,887.899 815.448,844.614 847.822,746.712 880.197,645.873 912.764,544.192 945.331,445.363 954.333,418.991 963.334,393.163 972.336,367.949 981.338,343.421 990.34,319.65 999.341,296.705 1008.34,274.655 1017.34,253.565 1025.91,234.448 1034.47,216.314 1043.04,199.211 1051.6,183.19 1060.17,168.296 1068.73,154.573 1077.3,142.061 1085.86,130.797 1094.77,120.443 1103.68,111.508 1112.58,104.019 1121.49,98.0029 1130.39,93.4775 1139.3,90.458 1148.2,88.9544 1157.11,88.9715 1164.6,90.165 1172.1,92.4333 1179.6,95.7713 1187.09,100.171 1194.59,105.623 1202.09,112.113 1209.58,119.628 1217.08,128.15 1226.23,139.891 1235.39,153.064 1244.54,167.624 1253.69,183.524 1262.84,200.709 1272,219.125 1281.15,238.71 1290.3,259.402 1307.07,299.965 1323.84,343.595 1332.22,366.422 1340.61,389.848 1348.99,413.816 1357.37,438.267 1388.35,531.839 1419.32,628.351 1450.7,726.341 1482.07,822.053 1499.66,873.877 1517.24,923.996 1534.82,972.141 1552.4,1018.09 1568.33,1057.69 1584.26,1095.24 1600.2,1130.68 1616.13,1163.96 1634.37,1199.4 1652.61,1232.01 1670.85,1261.84 1689.09,1288.96 1705.98,1311.74 1722.87,1332.39 1739.76,1351.02 1756.65,1367.74 1773.3,1382.48 1789.95,1395.61 1806.6,1407.25 1823.25,1417.53 1839.42,1426.31 1855.59,1434.03 1871.75,1440.78 1887.92,1446.66 1921.06,1456.39 1954.21,1463.53 1990.53,1469.1 2026.84,1472.93 2079.59,1476.37 2132.35,1478.23 2143.17,1478.48 2153.99,1478.7 "/>
<polyline clip-path="url(#clip122)" style="stroke:#e26f46; stroke-linecap:round; stroke-linejoin:round; stroke-width:4; stroke-opacity:1; fill:none" points="285.755,1478.7 292.275,1478.57 298.795,1478.43 359.081,1476.42 419.367,1472.36 455.596,1468.27 491.825,1462.34 522.457,1455.42 553.088,1446.24 569.725,1440.1 586.363,1433.04 603,1424.94 619.637,1415.69 634.975,1406.04 650.313,1395.22 665.651,1383.14 680.989,1369.7 697.433,1353.67 713.877,1335.85 730.321,1316.13 746.765,1294.4 765.817,1266.61 784.869,1235.88 803.921,1202.12 822.973,1165.27 839.904,1129.92 856.835,1092.14 873.766,1051.97 890.697,1009.52 905.544,970.495 920.391,929.911 935.238,887.899 950.085,844.614 982.46,746.712 1014.83,645.873 1047.4,544.192 1079.97,445.363 1088.97,418.991 1097.97,393.163 1106.97,367.949 1115.98,343.421 1124.98,319.65 1133.98,296.705 1142.98,274.655 1151.98,253.565 1160.55,234.448 1169.11,216.314 1177.68,199.211 1186.24,183.19 1194.81,168.296 1203.37,154.573 1211.94,142.061 1220.5,130.797 1229.41,120.443 1238.31,111.508 1247.22,104.019 1256.12,98.0029 1265.03,93.4775 1273.93,90.458 1282.84,88.9544 1291.75,88.9715 1299.24,90.165 1306.74,92.4333 1314.24,95.7713 1321.73,100.171 1329.23,105.623 1336.73,112.113 1344.22,119.628 1351.72,128.15 1360.87,139.891 1370.02,153.064 1379.18,167.624 1388.33,183.524 1397.48,200.709 1406.63,219.125 1415.79,238.71 1424.94,259.402 1441.71,299.965 1458.47,343.595 1466.86,366.422 1475.24,389.848 1483.63,413.816 1492.01,438.267 1522.99,531.839 1553.96,628.351 1585.34,726.341 1616.71,822.053 1634.29,873.877 1651.87,923.996 1669.46,972.141 1687.04,1018.09 1702.97,1057.69 1718.9,1095.24 1734.83,1130.68 1750.76,1163.96 1769.01,1199.4 1787.25,1232.01 1805.49,1261.84 1823.73,1288.96 1840.62,1311.74 1857.51,1332.39 1874.4,1351.02 1891.29,1367.74 1907.94,1382.48 1924.59,1395.61 1941.24,1407.25 1957.89,1417.53 1974.06,1426.31 1990.22,1434.03 2006.39,1440.78 2022.56,1446.66 2055.7,1456.39 2088.85,1463.53 2125.16,1469.1 2161.48,1472.93 2214.23,1476.37 2266.99,1478.23 2277.81,1478.48 2288.63,1478.7 "/>
<polyline clip-path="url(#clip122)" style="stroke:#3da44d; stroke-linecap:round; stroke-linejoin:round; stroke-width:4; stroke-opacity:1; fill:none" points="151.118,1479.3 158.076,1479.22 165.034,1479.13 229.372,1477.82 293.711,1475.01 332.376,1472.06 371.04,1467.64 403.731,1462.33 436.422,1455.1 454.177,1450.19 471.933,1444.46 489.688,1437.81 507.444,1430.12 523.813,1422.02 540.182,1412.85 556.551,1402.5 572.92,1390.87 590.469,1376.87 608.019,1361.15 625.568,1343.59 643.117,1324.08 663.45,1298.87 683.783,1270.73 704.115,1239.52 724.448,1205.16 742.517,1171.93 760.586,1136.16 778.656,1097.86 796.725,1057.11 812.57,1019.43 828.415,980.04 844.26,939.051 860.105,896.613 894.656,799.926 929.207,699.429 963.963,597.27 998.719,497.269 1017.93,444.192 1037.15,393.459 1046.75,369.162 1056.36,345.679 1065.97,323.083 1075.57,301.446 1084.71,281.814 1093.86,263.171 1103,245.573 1112.14,229.074 1121.28,213.725 1130.42,199.572 1139.56,186.659 1148.7,175.027 1158.2,164.331 1167.71,155.095 1177.21,147.352 1186.72,141.129 1196.22,136.447 1205.72,133.323 1215.23,131.767 1224.73,131.785 1232.73,133.02 1240.73,135.367 1248.73,138.821 1256.74,143.372 1264.74,149.01 1272.74,155.722 1280.74,163.489 1288.74,172.294 1298.5,184.419 1308.27,198.014 1318.04,213.032 1327.81,229.418 1337.58,247.115 1347.34,266.062 1357.11,286.192 1366.88,307.438 1384.77,349.017 1402.67,393.636 1420.57,440.816 1438.46,490.064 1471.52,584.807 1504.57,681.881 1538.06,779.695 1571.54,874.415 1590.31,925.326 1609.07,974.282 1627.83,1021.03 1646.6,1065.36 1663.6,1103.33 1680.6,1139.1 1697.61,1172.65 1714.61,1203.94 1734.08,1237.01 1753.54,1267.17 1773.01,1294.52 1792.48,1319.16 1810.5,1339.67 1828.53,1358.08 1846.55,1374.54 1864.58,1389.16 1882.35,1401.92 1900.12,1413.17 1917.89,1423.04 1935.66,1431.66 1970.16,1445.26 2004.67,1455.44 2040.04,1463.07 2075.42,1468.54 2114.17,1472.67 2152.93,1475.42 2209.23,1477.79 2265.53,1479 2277.08,1479.16 2288.63,1479.3 "/>
<path clip-path="url(#clip120)" d="M1832.23 303.73 L2277.23 303.73 L2277.23 96.3696 L1832.23 96.3696  Z" fill="#ffffff" fill-rule="evenodd" fill-opacity="1"/>
<polyline clip-path="url(#clip120)" style="stroke:#000000; stroke-linecap:round; stroke-linejoin:round; stroke-width:4; stroke-opacity:1; fill:none" points="1832.23,303.73 2277.23,303.73 2277.23,96.3696 1832.23,96.3696 1832.23,303.73 "/>
<polyline clip-path="url(#clip120)" style="stroke:#009af9; stroke-linecap:round; stroke-linejoin:round; stroke-width:4; stroke-opacity:1; fill:none" points="1857.4,148.21 2008.46,148.21 "/>
<path clip-path="url(#clip120)" d="M2038.31 134.772 L2038.31 147.758 L2044.19 147.758 Q2047.45 147.758 2049.23 146.068 Q2051.01 144.379 2051.01 141.254 Q2051.01 138.152 2049.23 136.462 Q2047.45 134.772 2044.19 134.772 L2038.31 134.772 M2033.63 130.93 L2044.19 130.93 Q2050 130.93 2052.96 133.568 Q2055.95 136.184 2055.95 141.254 Q2055.95 146.369 2052.96 148.985 Q2050 151.601 2044.19 151.601 L2038.31 151.601 L2038.31 165.49 L2033.63 165.49 L2033.63 130.93 Z" fill="#000000" fill-rule="nonzero" fill-opacity="1" /><path clip-path="url(#clip120)" d="M2076.22 143.545 Q2075.51 143.129 2074.65 142.943 Q2073.82 142.735 2072.8 142.735 Q2069.19 142.735 2067.24 145.096 Q2065.32 147.434 2065.32 151.832 L2065.32 165.49 L2061.04 165.49 L2061.04 139.564 L2065.32 139.564 L2065.32 143.592 Q2066.66 141.23 2068.82 140.096 Q2070.97 138.939 2074.05 138.939 Q2074.49 138.939 2075.02 139.008 Q2075.55 139.055 2076.2 139.17 L2076.22 143.545 Z" fill="#000000" fill-rule="nonzero" fill-opacity="1" /><path clip-path="url(#clip120)" d="M2090.92 129.518 Q2087.82 134.842 2086.32 140.05 Q2084.81 145.258 2084.81 150.605 Q2084.81 155.953 2086.32 161.207 Q2087.84 166.439 2090.92 171.74 L2087.22 171.74 Q2083.75 166.3 2082.01 161.045 Q2080.3 155.791 2080.3 150.605 Q2080.3 145.443 2082.01 140.212 Q2083.72 134.98 2087.22 129.518 L2090.92 129.518 Z" fill="#000000" fill-rule="nonzero" fill-opacity="1" /><path clip-path="url(#clip120)" d="M2109.97 167.897 Q2108.17 172.527 2106.45 173.939 Q2104.74 175.351 2101.87 175.351 L2098.47 175.351 L2098.47 171.786 L2100.97 171.786 Q2102.73 171.786 2103.7 170.952 Q2104.67 170.119 2105.85 167.017 L2106.62 165.073 L2096.13 139.564 L2100.64 139.564 L2108.75 159.841 L2116.85 139.564 L2121.36 139.564 L2109.97 167.897 Z" fill="#000000" fill-rule="nonzero" fill-opacity="1" /><path clip-path="url(#clip120)" d="M2132.73 129.263 L2132.73 176.67 L2128.79 176.67 L2128.79 129.263 L2132.73 129.263 Z" fill="#000000" fill-rule="nonzero" fill-opacity="1" /><path clip-path="url(#clip120)" d="M2160.62 149.054 L2145.88 149.054 Q2146.22 155.976 2147.82 158.916 Q2149.81 162.527 2153.26 162.527 Q2156.73 162.527 2158.65 158.892 Q2160.34 155.698 2160.62 149.054 M2160.55 145.119 Q2159.9 138.545 2158.65 136.23 Q2156.66 132.573 2153.26 132.573 Q2149.72 132.573 2147.84 136.184 Q2146.36 139.101 2145.92 145.119 L2160.55 145.119 M2153.26 129.101 Q2158.82 129.101 2161.99 134.008 Q2165.16 138.892 2165.16 147.55 Q2165.16 156.184 2161.99 161.091 Q2158.82 166.022 2153.26 166.022 Q2147.68 166.022 2144.53 161.091 Q2141.36 156.184 2141.36 147.55 Q2141.36 138.892 2144.53 134.008 Q2147.68 129.101 2153.26 129.101 Z" fill="#000000" fill-rule="nonzero" fill-opacity="1" /><path clip-path="url(#clip120)" d="M2172.77 143.962 L2202.45 143.962 L2202.45 147.851 L2172.77 147.851 L2172.77 143.962 M2172.77 153.406 L2202.45 153.406 L2202.45 157.341 L2172.77 157.341 L2172.77 153.406 Z" fill="#000000" fill-rule="nonzero" fill-opacity="1" /><path clip-path="url(#clip120)" d="M2213.35 161.554 L2220.99 161.554 L2220.99 135.189 L2212.68 136.855 L2212.68 132.596 L2220.94 130.93 L2225.62 130.93 L2225.62 161.554 L2233.26 161.554 L2233.26 165.49 L2213.35 165.49 L2213.35 161.554 Z" fill="#000000" fill-rule="nonzero" fill-opacity="1" /><path clip-path="url(#clip120)" d="M2241.43 129.518 L2245.13 129.518 Q2248.61 134.98 2250.32 140.212 Q2252.06 145.443 2252.06 150.605 Q2252.06 155.791 2250.32 161.045 Q2248.61 166.3 2245.13 171.74 L2241.43 171.74 Q2244.51 166.439 2246.01 161.207 Q2247.54 155.953 2247.54 150.605 Q2247.54 145.258 2246.01 140.05 Q2244.51 134.842 2241.43 129.518 Z" fill="#000000" fill-rule="nonzero" fill-opacity="1" /><polyline clip-path="url(#clip120)" style="stroke:#e26f46; stroke-linecap:round; stroke-linejoin:round; stroke-width:4; stroke-opacity:1; fill:none" points="1857.4,200.05 2008.46,200.05 "/>
<path clip-path="url(#clip120)" d="M2038.31 186.612 L2038.31 199.598 L2044.19 199.598 Q2047.45 199.598 2049.23 197.908 Q2051.01 196.219 2051.01 193.094 Q2051.01 189.992 2049.23 188.302 Q2047.45 186.612 2044.19 186.612 L2038.31 186.612 M2033.63 182.77 L2044.19 182.77 Q2050 182.77 2052.96 185.408 Q2055.95 188.024 2055.95 193.094 Q2055.95 198.209 2052.96 200.825 Q2050 203.441 2044.19 203.441 L2038.31 203.441 L2038.31 217.33 L2033.63 217.33 L2033.63 182.77 Z" fill="#000000" fill-rule="nonzero" fill-opacity="1" /><path clip-path="url(#clip120)" d="M2076.22 195.385 Q2075.51 194.969 2074.65 194.783 Q2073.82 194.575 2072.8 194.575 Q2069.19 194.575 2067.24 196.936 Q2065.32 199.274 2065.32 203.672 L2065.32 217.33 L2061.04 217.33 L2061.04 191.404 L2065.32 191.404 L2065.32 195.432 Q2066.66 193.07 2068.82 191.936 Q2070.97 190.779 2074.05 190.779 Q2074.49 190.779 2075.02 190.848 Q2075.55 190.895 2076.2 191.01 L2076.22 195.385 Z" fill="#000000" fill-rule="nonzero" fill-opacity="1" /><path clip-path="url(#clip120)" d="M2090.92 181.358 Q2087.82 186.682 2086.32 191.89 Q2084.81 197.098 2084.81 202.445 Q2084.81 207.793 2086.32 213.047 Q2087.84 218.279 2090.92 223.58 L2087.22 223.58 Q2083.75 218.14 2082.01 212.885 Q2080.3 207.631 2080.3 202.445 Q2080.3 197.283 2082.01 192.052 Q2083.72 186.82 2087.22 181.358 L2090.92 181.358 Z" fill="#000000" fill-rule="nonzero" fill-opacity="1" /><path clip-path="url(#clip120)" d="M2109.97 219.737 Q2108.17 224.367 2106.45 225.779 Q2104.74 227.191 2101.87 227.191 L2098.47 227.191 L2098.47 223.626 L2100.97 223.626 Q2102.73 223.626 2103.7 222.792 Q2104.67 221.959 2105.85 218.857 L2106.62 216.913 L2096.13 191.404 L2100.64 191.404 L2108.75 211.681 L2116.85 191.404 L2121.36 191.404 L2109.97 219.737 Z" fill="#000000" fill-rule="nonzero" fill-opacity="1" /><path clip-path="url(#clip120)" d="M2132.73 181.103 L2132.73 228.51 L2128.79 228.51 L2128.79 181.103 L2132.73 181.103 Z" fill="#000000" fill-rule="nonzero" fill-opacity="1" /><path clip-path="url(#clip120)" d="M2160.62 200.894 L2145.88 200.894 Q2146.22 207.816 2147.82 210.756 Q2149.81 214.367 2153.26 214.367 Q2156.73 214.367 2158.65 210.732 Q2160.34 207.538 2160.62 200.894 M2160.55 196.959 Q2159.9 190.385 2158.65 188.07 Q2156.66 184.413 2153.26 184.413 Q2149.72 184.413 2147.84 188.024 Q2146.36 190.941 2145.92 196.959 L2160.55 196.959 M2153.26 180.941 Q2158.82 180.941 2161.99 185.848 Q2165.16 190.732 2165.16 199.39 Q2165.16 208.024 2161.99 212.931 Q2158.82 217.862 2153.26 217.862 Q2147.68 217.862 2144.53 212.931 Q2141.36 208.024 2141.36 199.39 Q2141.36 190.732 2144.53 185.848 Q2147.68 180.941 2153.26 180.941 Z" fill="#000000" fill-rule="nonzero" fill-opacity="1" /><path clip-path="url(#clip120)" d="M2172.77 195.802 L2202.45 195.802 L2202.45 199.691 L2172.77 199.691 L2172.77 195.802 M2172.77 205.246 L2202.45 205.246 L2202.45 209.181 L2172.77 209.181 L2172.77 205.246 Z" fill="#000000" fill-rule="nonzero" fill-opacity="1" /><path clip-path="url(#clip120)" d="M2216.57 213.394 L2232.89 213.394 L2232.89 217.33 L2210.94 217.33 L2210.94 213.394 Q2213.61 210.64 2218.19 206.01 Q2222.8 201.357 2223.98 200.015 Q2226.22 197.492 2227.1 195.756 Q2228 193.996 2228 192.307 Q2228 189.552 2226.06 187.816 Q2224.14 186.08 2221.04 186.08 Q2218.84 186.08 2216.38 186.844 Q2213.95 187.607 2211.18 189.158 L2211.18 184.436 Q2214 183.302 2216.45 182.723 Q2218.91 182.145 2220.94 182.145 Q2226.31 182.145 2229.51 184.83 Q2232.7 187.515 2232.7 192.006 Q2232.7 194.135 2231.89 196.057 Q2231.11 197.955 2229 200.547 Q2228.42 201.219 2225.32 204.436 Q2222.22 207.631 2216.57 213.394 Z" fill="#000000" fill-rule="nonzero" fill-opacity="1" /><path clip-path="url(#clip120)" d="M2241.43 181.358 L2245.13 181.358 Q2248.61 186.82 2250.32 192.052 Q2252.06 197.283 2252.06 202.445 Q2252.06 207.631 2250.32 212.885 Q2248.61 218.14 2245.13 223.58 L2241.43 223.58 Q2244.51 218.279 2246.01 213.047 Q2247.54 207.793 2247.54 202.445 Q2247.54 197.098 2246.01 191.89 Q2244.51 186.682 2241.43 181.358 Z" fill="#000000" fill-rule="nonzero" fill-opacity="1" /><polyline clip-path="url(#clip120)" style="stroke:#3da44d; stroke-linecap:round; stroke-linejoin:round; stroke-width:4; stroke-opacity:1; fill:none" points="1857.4,251.89 2008.46,251.89 "/>
<path clip-path="url(#clip120)" d="M2038.31 238.452 L2038.31 251.438 L2044.19 251.438 Q2047.45 251.438 2049.23 249.748 Q2051.01 248.059 2051.01 244.934 Q2051.01 241.832 2049.23 240.142 Q2047.45 238.452 2044.19 238.452 L2038.31 238.452 M2033.63 234.61 L2044.19 234.61 Q2050 234.61 2052.96 237.248 Q2055.95 239.864 2055.95 244.934 Q2055.95 250.049 2052.96 252.665 Q2050 255.281 2044.19 255.281 L2038.31 255.281 L2038.31 269.17 L2033.63 269.17 L2033.63 234.61 Z" fill="#000000" fill-rule="nonzero" fill-opacity="1" /><path clip-path="url(#clip120)" d="M2076.22 247.225 Q2075.51 246.809 2074.65 246.623 Q2073.82 246.415 2072.8 246.415 Q2069.19 246.415 2067.24 248.776 Q2065.32 251.114 2065.32 255.512 L2065.32 269.17 L2061.04 269.17 L2061.04 243.244 L2065.32 243.244 L2065.32 247.272 Q2066.66 244.91 2068.82 243.776 Q2070.97 242.619 2074.05 242.619 Q2074.49 242.619 2075.02 242.688 Q2075.55 242.735 2076.2 242.85 L2076.22 247.225 Z" fill="#000000" fill-rule="nonzero" fill-opacity="1" /><path clip-path="url(#clip120)" d="M2090.92 233.198 Q2087.82 238.522 2086.32 243.73 Q2084.81 248.938 2084.81 254.285 Q2084.81 259.633 2086.32 264.887 Q2087.84 270.119 2090.92 275.42 L2087.22 275.42 Q2083.75 269.98 2082.01 264.725 Q2080.3 259.471 2080.3 254.285 Q2080.3 249.123 2082.01 243.892 Q2083.72 238.66 2087.22 233.198 L2090.92 233.198 Z" fill="#000000" fill-rule="nonzero" fill-opacity="1" /><path clip-path="url(#clip120)" d="M2109.97 271.577 Q2108.17 276.207 2106.45 277.619 Q2104.74 279.031 2101.87 279.031 L2098.47 279.031 L2098.47 275.466 L2100.97 275.466 Q2102.73 275.466 2103.7 274.632 Q2104.67 273.799 2105.85 270.697 L2106.62 268.753 L2096.13 243.244 L2100.64 243.244 L2108.75 263.521 L2116.85 243.244 L2121.36 243.244 L2109.97 271.577 Z" fill="#000000" fill-rule="nonzero" fill-opacity="1" /><path clip-path="url(#clip120)" d="M2126.57 233.198 L2130.27 233.198 Q2133.75 238.66 2135.46 243.892 Q2137.19 249.123 2137.19 254.285 Q2137.19 259.471 2135.46 264.725 Q2133.75 269.98 2130.27 275.42 L2126.57 275.42 Q2129.65 270.119 2131.15 264.887 Q2132.68 259.633 2132.68 254.285 Q2132.68 248.938 2131.15 243.73 Q2129.65 238.522 2126.57 233.198 Z" fill="#000000" fill-rule="nonzero" fill-opacity="1" /></svg>
