<?xml version="1.0" encoding="utf-8"?>
<svg xmlns="http://www.w3.org/2000/svg" xmlns:xlink="http://www.w3.org/1999/xlink" width="600" height="400" viewBox="0 0 2400 1600">
<defs>
  <clipPath id="clip030">
    <rect x="0" y="0" width="2400" height="1600"/>
  </clipPath>
</defs>
<path clip-path="url(#clip030)" d="M0 1600 L2400 1600 L2400 0 L0 0  Z" fill="#ffffff" fill-rule="evenodd" fill-opacity="1"/>
<defs>
  <clipPath id="clip031">
    <rect x="480" y="0" width="1681" height="1600"/>
  </clipPath>
</defs>
<path clip-path="url(#clip030)" d="M86.9921 1521.01 L2352.76 1521.01 L2352.76 47.2441 L86.9921 47.2441  Z" fill="#ffffff" fill-rule="evenodd" fill-opacity="1"/>
<defs>
  <clipPath id="clip032">
    <rect x="86" y="47" width="2267" height="1475"/>
  </clipPath>
</defs>
<polyline clip-path="url(#clip032)" style="stroke:#000000; stroke-linecap:round; stroke-linejoin:round; stroke-width:2; stroke-opacity:0.1; fill:none" points="346.048,1521.01 346.048,47.2441 "/>
<polyline clip-path="url(#clip032)" style="stroke:#000000; stroke-linecap:round; stroke-linejoin:round; stroke-width:2; stroke-opacity:0.1; fill:none" points="614.918,1521.01 614.918,47.2441 "/>
<polyline clip-path="url(#clip032)" style="stroke:#000000; stroke-linecap:round; stroke-linejoin:round; stroke-width:2; stroke-opacity:0.1; fill:none" points="883.787,1521.01 883.787,47.2441 "/>
<polyline clip-path="url(#clip032)" style="stroke:#000000; stroke-linecap:round; stroke-linejoin:round; stroke-width:2; stroke-opacity:0.1; fill:none" points="1152.66,1521.01 1152.66,47.2441 "/>
<polyline clip-path="url(#clip032)" style="stroke:#000000; stroke-linecap:round; stroke-linejoin:round; stroke-width:2; stroke-opacity:0.1; fill:none" points="1421.53,1521.01 1421.53,47.2441 "/>
<polyline clip-path="url(#clip032)" style="stroke:#000000; stroke-linecap:round; stroke-linejoin:round; stroke-width:2; stroke-opacity:0.1; fill:none" points="1690.4,1521.01 1690.4,47.2441 "/>
<polyline clip-path="url(#clip032)" style="stroke:#000000; stroke-linecap:round; stroke-linejoin:round; stroke-width:2; stroke-opacity:0.1; fill:none" points="1959.27,1521.01 1959.27,47.2441 "/>
<polyline clip-path="url(#clip032)" style="stroke:#000000; stroke-linecap:round; stroke-linejoin:round; stroke-width:2; stroke-opacity:0.1; fill:none" points="2228.13,1521.01 2228.13,47.2441 "/>
<polyline clip-path="url(#clip030)" style="stroke:#000000; stroke-linecap:round; stroke-linejoin:round; stroke-width:4; stroke-opacity:1; fill:none" points="86.9921,1521.01 2352.76,1521.01 "/>
<polyline clip-path="url(#clip030)" style="stroke:#000000; stroke-linecap:round; stroke-linejoin:round; stroke-width:4; stroke-opacity:1; fill:none" points="346.048,1521.01 346.048,1502.11 "/>
<polyline clip-path="url(#clip030)" style="stroke:#000000; stroke-linecap:round; stroke-linejoin:round; stroke-width:4; stroke-opacity:1; fill:none" points="614.918,1521.01 614.918,1502.11 "/>
<polyline clip-path="url(#clip030)" style="stroke:#000000; stroke-linecap:round; stroke-linejoin:round; stroke-width:4; stroke-opacity:1; fill:none" points="883.787,1521.01 883.787,1502.11 "/>
<polyline clip-path="url(#clip030)" style="stroke:#000000; stroke-linecap:round; stroke-linejoin:round; stroke-width:4; stroke-opacity:1; fill:none" points="1152.66,1521.01 1152.66,1502.11 "/>
<polyline clip-path="url(#clip030)" style="stroke:#000000; stroke-linecap:round; stroke-linejoin:round; stroke-width:4; stroke-opacity:1; fill:none" points="1421.53,1521.01 1421.53,1502.11 "/>
<polyline clip-path="url(#clip030)" style="stroke:#000000; stroke-linecap:round; stroke-linejoin:round; stroke-width:4; stroke-opacity:1; fill:none" points="1690.4,1521.01 1690.4,1502.11 "/>
<polyline clip-path="url(#clip030)" style="stroke:#000000; stroke-linecap:round; stroke-linejoin:round; stroke-width:4; stroke-opacity:1; fill:none" points="1959.27,1521.01 1959.27,1502.11 "/>
<polyline clip-path="url(#clip030)" style="stroke:#000000; stroke-linecap:round; stroke-linejoin:round; stroke-width:4; stroke-opacity:1; fill:none" points="2228.13,1521.01 2228.13,1502.11 "/>
<path clip-path="url(#clip030)" d="M317.333 1579.47 L333.652 1579.47 L333.652 1583.41 L311.708 1583.41 L311.708 1579.47 Q314.37 1576.72 318.953 1572.09 Q323.56 1567.44 324.74 1566.09 Q326.986 1563.57 327.865 1561.83 Q328.768 1560.07 328.768 1558.38 Q328.768 1555.63 326.824 1553.89 Q324.902 1552.16 321.8 1552.16 Q319.601 1552.16 317.148 1552.92 Q314.717 1553.69 311.939 1555.24 L311.939 1550.51 Q314.763 1549.38 317.217 1548.8 Q319.671 1548.22 321.708 1548.22 Q327.078 1548.22 330.273 1550.91 Q333.467 1553.59 333.467 1558.08 Q333.467 1560.21 332.657 1562.13 Q331.87 1564.03 329.763 1566.63 Q329.185 1567.3 326.083 1570.51 Q322.981 1573.71 317.333 1579.47 Z" fill="#000000" fill-rule="nonzero" fill-opacity="1" /><path clip-path="url(#clip030)" d="M343.467 1577.53 L348.351 1577.53 L348.351 1583.41 L343.467 1583.41 L343.467 1577.53 Z" fill="#000000" fill-rule="nonzero" fill-opacity="1" /><path clip-path="url(#clip030)" d="M368.536 1567 Q365.203 1567 363.282 1568.78 Q361.384 1570.56 361.384 1573.69 Q361.384 1576.81 363.282 1578.59 Q365.203 1580.38 368.536 1580.38 Q371.87 1580.38 373.791 1578.59 Q375.712 1576.79 375.712 1573.69 Q375.712 1570.56 373.791 1568.78 Q371.893 1567 368.536 1567 M363.86 1565.01 Q360.851 1564.26 359.161 1562.2 Q357.495 1560.14 357.495 1557.18 Q357.495 1553.04 360.434 1550.63 Q363.397 1548.22 368.536 1548.22 Q373.698 1548.22 376.638 1550.63 Q379.578 1553.04 379.578 1557.18 Q379.578 1560.14 377.888 1562.2 Q376.221 1564.26 373.235 1565.01 Q376.615 1565.79 378.49 1568.08 Q380.388 1570.38 380.388 1573.69 Q380.388 1578.71 377.309 1581.39 Q374.254 1584.08 368.536 1584.08 Q362.819 1584.08 359.74 1581.39 Q356.684 1578.71 356.684 1573.69 Q356.684 1570.38 358.583 1568.08 Q360.481 1565.79 363.86 1565.01 M362.147 1557.62 Q362.147 1560.31 363.814 1561.81 Q365.504 1563.32 368.536 1563.32 Q371.545 1563.32 373.235 1561.81 Q374.948 1560.31 374.948 1557.62 Q374.948 1554.94 373.235 1553.43 Q371.545 1551.93 368.536 1551.93 Q365.504 1551.93 363.814 1553.43 Q362.147 1554.94 362.147 1557.62 Z" fill="#000000" fill-rule="nonzero" fill-opacity="1" /><path clip-path="url(#clip030)" d="M596.225 1564.77 Q599.582 1565.49 601.457 1567.76 Q603.355 1570.03 603.355 1573.36 Q603.355 1578.48 599.837 1581.28 Q596.318 1584.08 589.837 1584.08 Q587.661 1584.08 585.346 1583.64 Q583.054 1583.22 580.601 1582.37 L580.601 1577.85 Q582.545 1578.99 584.86 1579.57 Q587.175 1580.14 589.698 1580.14 Q594.096 1580.14 596.388 1578.41 Q598.702 1576.67 598.702 1573.36 Q598.702 1570.31 596.55 1568.59 Q594.42 1566.86 590.601 1566.86 L586.573 1566.86 L586.573 1563.01 L590.786 1563.01 Q594.235 1563.01 596.063 1561.65 Q597.892 1560.26 597.892 1557.67 Q597.892 1555.01 595.994 1553.59 Q594.119 1552.16 590.601 1552.16 Q588.679 1552.16 586.48 1552.57 Q584.281 1552.99 581.642 1553.87 L581.642 1549.7 Q584.304 1548.96 586.619 1548.59 Q588.957 1548.22 591.017 1548.22 Q596.341 1548.22 599.443 1550.65 Q602.545 1553.06 602.545 1557.18 Q602.545 1560.05 600.901 1562.04 Q599.258 1564.01 596.225 1564.77 Z" fill="#000000" fill-rule="nonzero" fill-opacity="1" /><path clip-path="url(#clip030)" d="M612.221 1577.53 L617.105 1577.53 L617.105 1583.41 L612.221 1583.41 L612.221 1577.53 Z" fill="#000000" fill-rule="nonzero" fill-opacity="1" /><path clip-path="url(#clip030)" d="M637.29 1551.93 Q633.679 1551.93 631.85 1555.49 Q630.045 1559.03 630.045 1566.16 Q630.045 1573.27 631.85 1576.83 Q633.679 1580.38 637.29 1580.38 Q640.924 1580.38 642.73 1576.83 Q644.559 1573.27 644.559 1566.16 Q644.559 1559.03 642.73 1555.49 Q640.924 1551.93 637.29 1551.93 M637.29 1548.22 Q643.1 1548.22 646.156 1552.83 Q649.234 1557.41 649.234 1566.16 Q649.234 1574.89 646.156 1579.5 Q643.1 1584.08 637.29 1584.08 Q631.48 1584.08 628.401 1579.5 Q625.346 1574.89 625.346 1566.16 Q625.346 1557.41 628.401 1552.83 Q631.48 1548.22 637.29 1548.22 Z" fill="#000000" fill-rule="nonzero" fill-opacity="1" /><path clip-path="url(#clip030)" d="M865.894 1564.77 Q869.25 1565.49 871.125 1567.76 Q873.023 1570.03 873.023 1573.36 Q873.023 1578.48 869.505 1581.28 Q865.986 1584.08 859.505 1584.08 Q857.329 1584.08 855.014 1583.64 Q852.722 1583.22 850.269 1582.37 L850.269 1577.85 Q852.213 1578.99 854.528 1579.57 Q856.843 1580.14 859.366 1580.14 Q863.764 1580.14 866.056 1578.41 Q868.37 1576.67 868.37 1573.36 Q868.37 1570.31 866.218 1568.59 Q864.088 1566.86 860.269 1566.86 L856.241 1566.86 L856.241 1563.01 L860.454 1563.01 Q863.903 1563.01 865.732 1561.65 Q867.56 1560.26 867.56 1557.67 Q867.56 1555.01 865.662 1553.59 Q863.787 1552.16 860.269 1552.16 Q858.347 1552.16 856.148 1552.57 Q853.949 1552.99 851.31 1553.87 L851.31 1549.7 Q853.972 1548.96 856.287 1548.59 Q858.625 1548.22 860.685 1548.22 Q866.009 1548.22 869.111 1550.65 Q872.213 1553.06 872.213 1557.18 Q872.213 1560.05 870.57 1562.04 Q868.926 1564.01 865.894 1564.77 Z" fill="#000000" fill-rule="nonzero" fill-opacity="1" /><path clip-path="url(#clip030)" d="M881.889 1577.53 L886.773 1577.53 L886.773 1583.41 L881.889 1583.41 L881.889 1577.53 Z" fill="#000000" fill-rule="nonzero" fill-opacity="1" /><path clip-path="url(#clip030)" d="M900.986 1579.47 L917.305 1579.47 L917.305 1583.41 L895.361 1583.41 L895.361 1579.47 Q898.023 1576.72 902.606 1572.09 Q907.213 1567.44 908.393 1566.09 Q910.639 1563.57 911.518 1561.83 Q912.421 1560.07 912.421 1558.38 Q912.421 1555.63 910.477 1553.89 Q908.555 1552.16 905.454 1552.16 Q903.255 1552.16 900.801 1552.92 Q898.37 1553.69 895.593 1555.24 L895.593 1550.51 Q898.417 1549.38 900.87 1548.8 Q903.324 1548.22 905.361 1548.22 Q910.731 1548.22 913.926 1550.91 Q917.12 1553.59 917.12 1558.08 Q917.12 1560.21 916.31 1562.13 Q915.523 1564.03 913.417 1566.63 Q912.838 1567.3 909.736 1570.51 Q906.634 1573.71 900.986 1579.47 Z" fill="#000000" fill-rule="nonzero" fill-opacity="1" /><path clip-path="url(#clip030)" d="M1133.72 1564.77 Q1137.08 1565.49 1138.95 1567.76 Q1140.85 1570.03 1140.85 1573.36 Q1140.85 1578.48 1137.33 1581.28 Q1133.81 1584.08 1127.33 1584.08 Q1125.16 1584.08 1122.84 1583.64 Q1120.55 1583.22 1118.1 1582.37 L1118.1 1577.85 Q1120.04 1578.99 1122.36 1579.57 Q1124.67 1580.14 1127.19 1580.14 Q1131.59 1580.14 1133.88 1578.41 Q1136.2 1576.67 1136.2 1573.36 Q1136.2 1570.31 1134.05 1568.59 Q1131.92 1566.86 1128.1 1566.86 L1124.07 1566.86 L1124.07 1563.01 L1128.28 1563.01 Q1131.73 1563.01 1133.56 1561.65 Q1135.39 1560.26 1135.39 1557.67 Q1135.39 1555.01 1133.49 1553.59 Q1131.62 1552.16 1128.1 1552.16 Q1126.18 1552.16 1123.98 1552.57 Q1121.78 1552.99 1119.14 1553.87 L1119.14 1549.7 Q1121.8 1548.96 1124.12 1548.59 Q1126.45 1548.22 1128.51 1548.22 Q1133.84 1548.22 1136.94 1550.65 Q1140.04 1553.06 1140.04 1557.18 Q1140.04 1560.05 1138.4 1562.04 Q1136.75 1564.01 1133.72 1564.77 Z" fill="#000000" fill-rule="nonzero" fill-opacity="1" /><path clip-path="url(#clip030)" d="M1149.72 1577.53 L1154.6 1577.53 L1154.6 1583.41 L1149.72 1583.41 L1149.72 1577.53 Z" fill="#000000" fill-rule="nonzero" fill-opacity="1" /><path clip-path="url(#clip030)" d="M1177.63 1552.92 L1165.83 1571.37 L1177.63 1571.37 L1177.63 1552.92 M1176.41 1548.85 L1182.29 1548.85 L1182.29 1571.37 L1187.22 1571.37 L1187.22 1575.26 L1182.29 1575.26 L1182.29 1583.41 L1177.63 1583.41 L1177.63 1575.26 L1162.03 1575.26 L1162.03 1570.75 L1176.41 1548.85 Z" fill="#000000" fill-rule="nonzero" fill-opacity="1" /><path clip-path="url(#clip030)" d="M1402.75 1564.77 Q1406.11 1565.49 1407.98 1567.76 Q1409.88 1570.03 1409.88 1573.36 Q1409.88 1578.48 1406.36 1581.28 Q1402.85 1584.08 1396.36 1584.08 Q1394.19 1584.08 1391.87 1583.64 Q1389.58 1583.22 1387.13 1582.37 L1387.13 1577.85 Q1389.07 1578.99 1391.39 1579.57 Q1393.7 1580.14 1396.23 1580.14 Q1400.62 1580.14 1402.92 1578.41 Q1405.23 1576.67 1405.23 1573.36 Q1405.23 1570.31 1403.08 1568.59 Q1400.95 1566.86 1397.13 1566.86 L1393.1 1566.86 L1393.1 1563.01 L1397.31 1563.01 Q1400.76 1563.01 1402.59 1561.65 Q1404.42 1560.26 1404.42 1557.67 Q1404.42 1555.01 1402.52 1553.59 Q1400.65 1552.16 1397.13 1552.16 Q1395.21 1552.16 1393.01 1552.57 Q1390.81 1552.99 1388.17 1553.87 L1388.17 1549.7 Q1390.83 1548.96 1393.15 1548.59 Q1395.48 1548.22 1397.54 1548.22 Q1402.87 1548.22 1405.97 1550.65 Q1409.07 1553.06 1409.07 1557.18 Q1409.07 1560.05 1407.43 1562.04 Q1405.79 1564.01 1402.75 1564.77 Z" fill="#000000" fill-rule="nonzero" fill-opacity="1" /><path clip-path="url(#clip030)" d="M1418.75 1577.53 L1423.63 1577.53 L1423.63 1583.41 L1418.75 1583.41 L1418.75 1577.53 Z" fill="#000000" fill-rule="nonzero" fill-opacity="1" /><path clip-path="url(#clip030)" d="M1444.4 1564.26 Q1441.25 1564.26 1439.4 1566.42 Q1437.57 1568.57 1437.57 1572.32 Q1437.57 1576.05 1439.4 1578.22 Q1441.25 1580.38 1444.4 1580.38 Q1447.54 1580.38 1449.37 1578.22 Q1451.23 1576.05 1451.23 1572.32 Q1451.23 1568.57 1449.37 1566.42 Q1447.54 1564.26 1444.4 1564.26 M1453.68 1549.61 L1453.68 1553.87 Q1451.92 1553.04 1450.11 1552.6 Q1448.33 1552.16 1446.57 1552.16 Q1441.94 1552.16 1439.49 1555.28 Q1437.06 1558.41 1436.71 1564.73 Q1438.08 1562.71 1440.14 1561.65 Q1442.2 1560.56 1444.67 1560.56 Q1449.88 1560.56 1452.89 1563.73 Q1455.92 1566.88 1455.92 1572.32 Q1455.92 1577.64 1452.78 1580.86 Q1449.63 1584.08 1444.4 1584.08 Q1438.4 1584.08 1435.23 1579.5 Q1432.06 1574.89 1432.06 1566.16 Q1432.06 1557.97 1435.95 1553.11 Q1439.84 1548.22 1446.39 1548.22 Q1448.15 1548.22 1449.93 1548.57 Q1451.73 1548.92 1453.68 1549.61 Z" fill="#000000" fill-rule="nonzero" fill-opacity="1" /><path clip-path="url(#clip030)" d="M1671.75 1564.77 Q1675.11 1565.49 1676.98 1567.76 Q1678.88 1570.03 1678.88 1573.36 Q1678.88 1578.48 1675.36 1581.28 Q1671.84 1584.08 1665.36 1584.08 Q1663.19 1584.08 1660.87 1583.64 Q1658.58 1583.22 1656.13 1582.37 L1656.13 1577.85 Q1658.07 1578.99 1660.38 1579.57 Q1662.7 1580.14 1665.22 1580.14 Q1669.62 1580.14 1671.91 1578.41 Q1674.23 1576.67 1674.23 1573.36 Q1674.23 1570.31 1672.07 1568.59 Q1669.94 1566.86 1666.13 1566.86 L1662.1 1566.86 L1662.1 1563.01 L1666.31 1563.01 Q1669.76 1563.01 1671.59 1561.65 Q1673.42 1560.26 1673.42 1557.67 Q1673.42 1555.01 1671.52 1553.59 Q1669.64 1552.16 1666.13 1552.16 Q1664.2 1552.16 1662 1552.57 Q1659.81 1552.99 1657.17 1553.87 L1657.17 1549.7 Q1659.83 1548.96 1662.14 1548.59 Q1664.48 1548.22 1666.54 1548.22 Q1671.87 1548.22 1674.97 1550.65 Q1678.07 1553.06 1678.07 1557.18 Q1678.07 1560.05 1676.43 1562.04 Q1674.78 1564.01 1671.75 1564.77 Z" fill="#000000" fill-rule="nonzero" fill-opacity="1" /><path clip-path="url(#clip030)" d="M1687.75 1577.53 L1692.63 1577.53 L1692.63 1583.41 L1687.75 1583.41 L1687.75 1577.53 Z" fill="#000000" fill-rule="nonzero" fill-opacity="1" /><path clip-path="url(#clip030)" d="M1712.81 1567 Q1709.48 1567 1707.56 1568.78 Q1705.66 1570.56 1705.66 1573.69 Q1705.66 1576.81 1707.56 1578.59 Q1709.48 1580.38 1712.81 1580.38 Q1716.15 1580.38 1718.07 1578.59 Q1719.99 1576.79 1719.99 1573.69 Q1719.99 1570.56 1718.07 1568.78 Q1716.17 1567 1712.81 1567 M1708.14 1565.01 Q1705.13 1564.26 1703.44 1562.2 Q1701.77 1560.14 1701.77 1557.18 Q1701.77 1553.04 1704.71 1550.63 Q1707.68 1548.22 1712.81 1548.22 Q1717.98 1548.22 1720.92 1550.63 Q1723.86 1553.04 1723.86 1557.18 Q1723.86 1560.14 1722.17 1562.2 Q1720.5 1564.26 1717.51 1565.01 Q1720.89 1565.79 1722.77 1568.08 Q1724.67 1570.38 1724.67 1573.69 Q1724.67 1578.71 1721.59 1581.39 Q1718.53 1584.08 1712.81 1584.08 Q1707.1 1584.08 1704.02 1581.39 Q1700.96 1578.71 1700.96 1573.69 Q1700.96 1570.38 1702.86 1568.08 Q1704.76 1565.79 1708.14 1565.01 M1706.43 1557.62 Q1706.43 1560.31 1708.09 1561.81 Q1709.78 1563.32 1712.81 1563.32 Q1715.82 1563.32 1717.51 1561.81 Q1719.23 1560.31 1719.23 1557.62 Q1719.23 1554.94 1717.51 1553.43 Q1715.82 1551.93 1712.81 1551.93 Q1709.78 1551.93 1708.09 1553.43 Q1706.43 1554.94 1706.43 1557.62 Z" fill="#000000" fill-rule="nonzero" fill-opacity="1" /><path clip-path="url(#clip030)" d="M1939.9 1552.92 L1928.1 1571.37 L1939.9 1571.37 L1939.9 1552.92 M1938.68 1548.85 L1944.55 1548.85 L1944.55 1571.37 L1949.49 1571.37 L1949.49 1575.26 L1944.55 1575.26 L1944.55 1583.41 L1939.9 1583.41 L1939.9 1575.26 L1924.3 1575.26 L1924.3 1570.75 L1938.68 1548.85 Z" fill="#000000" fill-rule="nonzero" fill-opacity="1" /><path clip-path="url(#clip030)" d="M1957.22 1577.53 L1962.1 1577.53 L1962.1 1583.41 L1957.22 1583.41 L1957.22 1577.53 Z" fill="#000000" fill-rule="nonzero" fill-opacity="1" /><path clip-path="url(#clip030)" d="M1982.29 1551.93 Q1978.67 1551.93 1976.85 1555.49 Q1975.04 1559.03 1975.04 1566.16 Q1975.04 1573.27 1976.85 1576.83 Q1978.67 1580.38 1982.29 1580.38 Q1985.92 1580.38 1987.73 1576.83 Q1989.55 1573.27 1989.55 1566.16 Q1989.55 1559.03 1987.73 1555.49 Q1985.92 1551.93 1982.29 1551.93 M1982.29 1548.22 Q1988.1 1548.22 1991.15 1552.83 Q1994.23 1557.41 1994.23 1566.16 Q1994.23 1574.89 1991.15 1579.5 Q1988.1 1584.08 1982.29 1584.08 Q1976.48 1584.08 1973.4 1579.5 Q1970.34 1574.89 1970.34 1566.16 Q1970.34 1557.41 1973.4 1552.83 Q1976.48 1548.22 1982.29 1548.22 Z" fill="#000000" fill-rule="nonzero" fill-opacity="1" /><path clip-path="url(#clip030)" d="M2209.57 1552.92 L2197.76 1571.37 L2209.57 1571.37 L2209.57 1552.92 M2208.34 1548.85 L2214.22 1548.85 L2214.22 1571.37 L2219.15 1571.37 L2219.15 1575.26 L2214.22 1575.26 L2214.22 1583.41 L2209.57 1583.41 L2209.57 1575.26 L2193.97 1575.26 L2193.97 1570.75 L2208.34 1548.85 Z" fill="#000000" fill-rule="nonzero" fill-opacity="1" /><path clip-path="url(#clip030)" d="M2226.88 1577.53 L2231.77 1577.53 L2231.77 1583.41 L2226.88 1583.41 L2226.88 1577.53 Z" fill="#000000" fill-rule="nonzero" fill-opacity="1" /><path clip-path="url(#clip030)" d="M2245.98 1579.47 L2262.3 1579.47 L2262.3 1583.41 L2240.36 1583.41 L2240.36 1579.47 Q2243.02 1576.72 2247.6 1572.09 Q2252.21 1567.44 2253.39 1566.09 Q2255.63 1563.57 2256.51 1561.83 Q2257.42 1560.07 2257.42 1558.38 Q2257.42 1555.63 2255.47 1553.89 Q2253.55 1552.16 2250.45 1552.16 Q2248.25 1552.16 2245.8 1552.92 Q2243.37 1553.69 2240.59 1555.24 L2240.59 1550.51 Q2243.41 1549.38 2245.87 1548.8 Q2248.32 1548.22 2250.36 1548.22 Q2255.73 1548.22 2258.92 1550.91 Q2262.12 1553.59 2262.12 1558.08 Q2262.12 1560.21 2261.31 1562.13 Q2260.52 1564.03 2258.41 1566.63 Q2257.83 1567.3 2254.73 1570.51 Q2251.63 1573.71 2245.98 1579.47 Z" fill="#000000" fill-rule="nonzero" fill-opacity="1" /><polyline clip-path="url(#clip032)" style="stroke:#000000; stroke-linecap:round; stroke-linejoin:round; stroke-width:2; stroke-opacity:0.1; fill:none" points="86.9921,1521.01 2352.76,1521.01 "/>
<polyline clip-path="url(#clip032)" style="stroke:#000000; stroke-linecap:round; stroke-linejoin:round; stroke-width:2; stroke-opacity:0.1; fill:none" points="86.9921,1152.57 2352.76,1152.57 "/>
<polyline clip-path="url(#clip032)" style="stroke:#000000; stroke-linecap:round; stroke-linejoin:round; stroke-width:2; stroke-opacity:0.1; fill:none" points="86.9921,784.126 2352.76,784.126 "/>
<polyline clip-path="url(#clip032)" style="stroke:#000000; stroke-linecap:round; stroke-linejoin:round; stroke-width:2; stroke-opacity:0.1; fill:none" points="86.9921,415.685 2352.76,415.685 "/>
<polyline clip-path="url(#clip032)" style="stroke:#000000; stroke-linecap:round; stroke-linejoin:round; stroke-width:2; stroke-opacity:0.1; fill:none" points="86.9921,47.2441 2352.76,47.2441 "/>
<polyline clip-path="url(#clip030)" style="stroke:#000000; stroke-linecap:round; stroke-linejoin:round; stroke-width:4; stroke-opacity:1; fill:none" points="86.9921,1521.01 86.9921,47.2441 "/>
<polyline clip-path="url(#clip030)" style="stroke:#000000; stroke-linecap:round; stroke-linejoin:round; stroke-width:4; stroke-opacity:1; fill:none" points="86.9921,1521.01 105.89,1521.01 "/>
<polyline clip-path="url(#clip030)" style="stroke:#000000; stroke-linecap:round; stroke-linejoin:round; stroke-width:4; stroke-opacity:1; fill:none" points="86.9921,1152.57 105.89,1152.57 "/>
<polyline clip-path="url(#clip030)" style="stroke:#000000; stroke-linecap:round; stroke-linejoin:round; stroke-width:4; stroke-opacity:1; fill:none" points="86.9921,784.126 105.89,784.126 "/>
<polyline clip-path="url(#clip030)" style="stroke:#000000; stroke-linecap:round; stroke-linejoin:round; stroke-width:4; stroke-opacity:1; fill:none" points="86.9921,415.685 105.89,415.685 "/>
<polyline clip-path="url(#clip030)" style="stroke:#000000; stroke-linecap:round; stroke-linejoin:round; stroke-width:4; stroke-opacity:1; fill:none" points="86.9921,47.2441 105.89,47.2441 "/>
<path clip-path="url(#clip030)" d="M10.8708 1521.01 Q10.8708 1524.62 14.4356 1526.45 Q17.9773 1528.25 25.1068 1528.25 Q32.2133 1528.25 35.7781 1526.45 Q39.3197 1524.62 39.3197 1521.01 Q39.3197 1517.37 35.7781 1515.57 Q32.2133 1513.74 25.1068 1513.74 Q17.9773 1513.74 14.4356 1515.57 Q10.8708 1517.37 10.8708 1521.01 M7.16713 1521.01 Q7.16713 1515.2 11.7736 1512.14 Q16.3569 1509.06 25.1068 1509.06 Q33.8337 1509.06 38.4401 1512.14 Q43.0234 1515.2 43.0234 1521.01 Q43.0234 1526.82 38.4401 1529.9 Q33.8337 1532.95 25.1068 1532.95 Q16.3569 1532.95 11.7736 1529.9 Q7.16713 1526.82 7.16713 1521.01 Z" fill="#000000" fill-rule="nonzero" fill-opacity="1" /><path clip-path="url(#clip030)" d="M7.79213 1162.29 L7.79213 1143.93 L11.7273 1143.93 L11.7273 1158.01 L20.1995 1158.01 Q19.8522 1156.99 19.6902 1155.97 Q19.505 1154.95 19.505 1153.93 Q19.505 1148.15 22.6763 1144.77 Q25.8476 1141.39 31.2642 1141.39 Q36.8429 1141.39 39.9447 1144.86 Q43.0234 1148.33 43.0234 1154.65 Q43.0234 1156.83 42.6531 1159.09 Q42.2827 1161.34 41.5419 1163.75 L36.8429 1163.75 Q37.9771 1161.66 38.5327 1159.44 Q39.0883 1157.22 39.0883 1154.74 Q39.0883 1150.74 36.9818 1148.4 Q34.8753 1146.06 31.2642 1146.06 Q27.6531 1146.06 25.5467 1148.4 Q23.4402 1150.74 23.4402 1154.74 Q23.4402 1156.62 23.8569 1158.49 Q24.2735 1160.34 25.1531 1162.29 L7.79213 1162.29 Z" fill="#000000" fill-rule="nonzero" fill-opacity="1" /><path clip-path="url(#clip030)" d="M38.417 809.438 L38.417 801.8 L12.0514 801.8 L13.718 810.11 L9.45878 810.11 L7.79213 801.846 L7.79213 797.17 L38.417 797.17 L38.417 789.531 L42.3521 789.531 L42.3521 809.438 L38.417 809.438 Z" fill="#000000" fill-rule="nonzero" fill-opacity="1" /><path clip-path="url(#clip030)" d="M10.8708 770.087 Q10.8708 773.698 14.4356 775.526 Q17.9773 777.332 25.1068 777.332 Q32.2133 777.332 35.7781 775.526 Q39.3197 773.698 39.3197 770.087 Q39.3197 766.452 35.7781 764.647 Q32.2133 762.818 25.1068 762.818 Q17.9773 762.818 14.4356 764.647 Q10.8708 766.452 10.8708 770.087 M7.16713 770.087 Q7.16713 764.277 11.7736 761.221 Q16.3569 758.142 25.1068 758.142 Q33.8337 758.142 38.4401 761.221 Q43.0234 764.277 43.0234 770.087 Q43.0234 775.897 38.4401 778.976 Q33.8337 782.031 25.1068 782.031 Q16.3569 782.031 11.7736 778.976 Q7.16713 775.897 7.16713 770.087 Z" fill="#000000" fill-rule="nonzero" fill-opacity="1" /><path clip-path="url(#clip030)" d="M38.417 440.5 L38.417 432.861 L12.0514 432.861 L13.718 441.171 L9.45878 441.171 L7.79213 432.907 L7.79213 428.231 L38.417 428.231 L38.417 420.592 L42.3521 420.592 L42.3521 440.5 L38.417 440.5 Z" fill="#000000" fill-rule="nonzero" fill-opacity="1" /><path clip-path="url(#clip030)" d="M7.79213 411.102 L7.79213 392.745 L11.7273 392.745 L11.7273 406.819 L20.1995 406.819 Q19.8522 405.801 19.6902 404.782 Q19.505 403.764 19.505 402.745 Q19.505 396.958 22.6763 393.579 Q25.8476 390.199 31.2642 390.199 Q36.8429 390.199 39.9447 393.671 Q43.0234 397.143 43.0234 403.463 Q43.0234 405.639 42.6531 407.907 Q42.2827 410.153 41.5419 412.56 L36.8429 412.56 Q37.9771 410.477 38.5327 408.255 Q39.0883 406.032 39.0883 403.555 Q39.0883 399.551 36.9818 397.213 Q34.8753 394.875 31.2642 394.875 Q27.6531 394.875 25.5467 397.213 Q23.4402 399.551 23.4402 403.555 Q23.4402 405.43 23.8569 407.305 Q24.2735 409.157 25.1531 411.102 L7.79213 411.102 Z" fill="#000000" fill-rule="nonzero" fill-opacity="1" /><path clip-path="url(#clip030)" d="M38.417 68.4708 L38.417 52.1515 L42.3521 52.1515 L42.3521 74.0958 L38.417 74.0958 Q35.6623 71.4338 31.0327 66.8505 Q26.38 62.244 25.0374 61.0635 Q22.5143 58.8181 20.7782 57.9385 Q19.0189 57.0357 17.3291 57.0357 Q14.5745 57.0357 12.8384 58.9801 Q11.1023 60.9014 11.1023 64.0033 Q11.1023 66.2023 11.8662 68.656 Q12.6301 71.0866 14.181 73.8643 L9.45878 73.8643 Q8.32453 71.0403 7.74583 68.5866 Q7.16713 66.1329 7.16713 64.0959 Q7.16713 58.7255 9.8523 55.5311 Q12.5375 52.3367 17.0282 52.3367 Q19.1578 52.3367 21.0791 53.1468 Q22.9772 53.9339 25.5698 56.0403 Q26.2411 56.619 29.4587 59.7209 Q32.6531 62.8227 38.417 68.4708 Z" fill="#000000" fill-rule="nonzero" fill-opacity="1" /><path clip-path="url(#clip030)" d="M10.8708 32.3368 Q10.8708 35.9479 14.4356 37.7766 Q17.9773 39.5821 25.1068 39.5821 Q32.2133 39.5821 35.7781 37.7766 Q39.3197 35.9479 39.3197 32.3368 Q39.3197 28.7025 35.7781 26.897 Q32.2133 25.0683 25.1068 25.0683 Q17.9773 25.0683 14.4356 26.897 Q10.8708 28.7025 10.8708 32.3368 M7.16713 32.3368 Q7.16713 26.5266 11.7736 23.4711 Q16.3569 20.3924 25.1068 20.3924 Q33.8337 20.3924 38.4401 23.4711 Q43.0234 26.5266 43.0234 32.3368 Q43.0234 38.1469 38.4401 41.2256 Q33.8337 44.2811 25.1068 44.2811 Q16.3569 44.2811 11.7736 41.2256 Q7.16713 38.1469 7.16713 32.3368 Z" fill="#000000" fill-rule="nonzero" fill-opacity="1" /><path clip-path="url(#clip032)" d="M211.613 1447.32 L211.613 1521.01 L346.048 1521.01 L346.048 1447.32 L211.613 1447.32 L211.613 1447.32  Z" fill="#009af9" fill-rule="evenodd" fill-opacity="1"/>
<polyline clip-path="url(#clip032)" style="stroke:#000000; stroke-linecap:round; stroke-linejoin:round; stroke-width:4; stroke-opacity:1; fill:none" points="211.613,1447.32 211.613,1521.01 346.048,1521.01 346.048,1447.32 211.613,1447.32 "/>
<path clip-path="url(#clip032)" d="M346.048 1447.32 L346.048 1521.01 L480.483 1521.01 L480.483 1447.32 L346.048 1447.32 L346.048 1447.32  Z" fill="#009af9" fill-rule="evenodd" fill-opacity="1"/>
<polyline clip-path="url(#clip032)" style="stroke:#000000; stroke-linecap:round; stroke-linejoin:round; stroke-width:4; stroke-opacity:1; fill:none" points="346.048,1447.32 346.048,1521.01 480.483,1521.01 480.483,1447.32 346.048,1447.32 "/>
<path clip-path="url(#clip032)" d="M480.483 1373.63 L480.483 1521.01 L614.918 1521.01 L614.918 1373.63 L480.483 1373.63 L480.483 1373.63  Z" fill="#009af9" fill-rule="evenodd" fill-opacity="1"/>
<polyline clip-path="url(#clip032)" style="stroke:#000000; stroke-linecap:round; stroke-linejoin:round; stroke-width:4; stroke-opacity:1; fill:none" points="480.483,1373.63 480.483,1521.01 614.918,1521.01 614.918,1373.63 480.483,1373.63 "/>
<path clip-path="url(#clip032)" d="M614.918 1373.63 L614.918 1521.01 L749.352 1521.01 L749.352 1373.63 L614.918 1373.63 L614.918 1373.63  Z" fill="#009af9" fill-rule="evenodd" fill-opacity="1"/>
<polyline clip-path="url(#clip032)" style="stroke:#000000; stroke-linecap:round; stroke-linejoin:round; stroke-width:4; stroke-opacity:1; fill:none" points="614.918,1373.63 614.918,1521.01 749.352,1521.01 749.352,1373.63 614.918,1373.63 "/>
<path clip-path="url(#clip032)" d="M749.352 1152.57 L749.352 1521.01 L883.787 1521.01 L883.787 1152.57 L749.352 1152.57 L749.352 1152.57  Z" fill="#009af9" fill-rule="evenodd" fill-opacity="1"/>
<polyline clip-path="url(#clip032)" style="stroke:#000000; stroke-linecap:round; stroke-linejoin:round; stroke-width:4; stroke-opacity:1; fill:none" points="749.352,1152.57 749.352,1521.01 883.787,1521.01 883.787,1152.57 749.352,1152.57 "/>
<path clip-path="url(#clip032)" d="M883.787 563.061 L883.787 1521.01 L1018.22 1521.01 L1018.22 563.061 L883.787 563.061 L883.787 563.061  Z" fill="#009af9" fill-rule="evenodd" fill-opacity="1"/>
<polyline clip-path="url(#clip032)" style="stroke:#000000; stroke-linecap:round; stroke-linejoin:round; stroke-width:4; stroke-opacity:1; fill:none" points="883.787,563.061 883.787,1521.01 1018.22,1521.01 1018.22,563.061 883.787,563.061 "/>
<path clip-path="url(#clip032)" d="M1018.22 636.75 L1018.22 1521.01 L1152.66 1521.01 L1152.66 636.75 L1018.22 636.75 L1018.22 636.75  Z" fill="#009af9" fill-rule="evenodd" fill-opacity="1"/>
<polyline clip-path="url(#clip032)" style="stroke:#000000; stroke-linecap:round; stroke-linejoin:round; stroke-width:4; stroke-opacity:1; fill:none" points="1018.22,636.75 1018.22,1521.01 1152.66,1521.01 1152.66,636.75 1018.22,636.75 "/>
<path clip-path="url(#clip032)" d="M1152.66 1078.88 L1152.66 1521.01 L1287.09 1521.01 L1287.09 1078.88 L1152.66 1078.88 L1152.66 1078.88  Z" fill="#009af9" fill-rule="evenodd" fill-opacity="1"/>
<polyline clip-path="url(#clip032)" style="stroke:#000000; stroke-linecap:round; stroke-linejoin:round; stroke-width:4; stroke-opacity:1; fill:none" points="1152.66,1078.88 1152.66,1521.01 1287.09,1521.01 1287.09,1078.88 1152.66,1078.88 "/>
<path clip-path="url(#clip032)" d="M1287.09 47.2441 L1287.09 1521.01 L1421.53 1521.01 L1421.53 47.2441 L1287.09 47.2441 L1287.09 47.2441  Z" fill="#009af9" fill-rule="evenodd" fill-opacity="1"/>
<polyline clip-path="url(#clip032)" style="stroke:#000000; stroke-linecap:round; stroke-linejoin:round; stroke-width:4; stroke-opacity:1; fill:none" points="1287.09,47.2441 1287.09,1521.01 1421.53,1521.01 1421.53,47.2441 1287.09,47.2441 "/>
<path clip-path="url(#clip032)" d="M1421.53 857.814 L1421.53 1521.01 L1555.96 1521.01 L1555.96 857.814 L1421.53 857.814 L1421.53 857.814  Z" fill="#009af9" fill-rule="evenodd" fill-opacity="1"/>
<polyline clip-path="url(#clip032)" style="stroke:#000000; stroke-linecap:round; stroke-linejoin:round; stroke-width:4; stroke-opacity:1; fill:none" points="1421.53,857.814 1421.53,1521.01 1555.96,1521.01 1555.96,857.814 1421.53,857.814 "/>
<path clip-path="url(#clip032)" d="M1555.96 784.126 L1555.96 1521.01 L1690.4 1521.01 L1690.4 784.126 L1555.96 784.126 L1555.96 784.126  Z" fill="#009af9" fill-rule="evenodd" fill-opacity="1"/>
<polyline clip-path="url(#clip032)" style="stroke:#000000; stroke-linecap:round; stroke-linejoin:round; stroke-width:4; stroke-opacity:1; fill:none" points="1555.96,784.126 1555.96,1521.01 1690.4,1521.01 1690.4,784.126 1555.96,784.126 "/>
<path clip-path="url(#clip032)" d="M1690.4 857.814 L1690.4 1521.01 L1824.83 1521.01 L1824.83 857.814 L1690.4 857.814 L1690.4 857.814  Z" fill="#009af9" fill-rule="evenodd" fill-opacity="1"/>
<polyline clip-path="url(#clip032)" style="stroke:#000000; stroke-linecap:round; stroke-linejoin:round; stroke-width:4; stroke-opacity:1; fill:none" points="1690.4,857.814 1690.4,1521.01 1824.83,1521.01 1824.83,857.814 1690.4,857.814 "/>
<path clip-path="url(#clip032)" d="M1824.83 1152.57 L1824.83 1521.01 L1959.27 1521.01 L1959.27 1152.57 L1824.83 1152.57 L1824.83 1152.57  Z" fill="#009af9" fill-rule="evenodd" fill-opacity="1"/>
<polyline clip-path="url(#clip032)" style="stroke:#000000; stroke-linecap:round; stroke-linejoin:round; stroke-width:4; stroke-opacity:1; fill:none" points="1824.83,1152.57 1824.83,1521.01 1959.27,1521.01 1959.27,1152.57 1824.83,1152.57 "/>
<path clip-path="url(#clip032)" d="M1959.27 1299.94 L1959.27 1521.01 L2093.7 1521.01 L2093.7 1299.94 L1959.27 1299.94 L1959.27 1299.94  Z" fill="#009af9" fill-rule="evenodd" fill-opacity="1"/>
<polyline clip-path="url(#clip032)" style="stroke:#000000; stroke-linecap:round; stroke-linejoin:round; stroke-width:4; stroke-opacity:1; fill:none" points="1959.27,1299.94 1959.27,1521.01 2093.7,1521.01 2093.7,1299.94 1959.27,1299.94 "/>
<path clip-path="url(#clip032)" d="M2093.7 1373.63 L2093.7 1521.01 L2228.13 1521.01 L2228.13 1373.63 L2093.7 1373.63 L2093.7 1373.63  Z" fill="#009af9" fill-rule="evenodd" fill-opacity="1"/>
<polyline clip-path="url(#clip032)" style="stroke:#000000; stroke-linecap:round; stroke-linejoin:round; stroke-width:4; stroke-opacity:1; fill:none" points="2093.7,1373.63 2093.7,1521.01 2228.13,1521.01 2228.13,1373.63 2093.7,1373.63 "/>
<circle clip-path="url(#clip032)" style="fill:#009af9; stroke:none; fill-opacity:0" cx="278.831" cy="1447.32" r="2"/>
<circle clip-path="url(#clip032)" style="fill:#009af9; stroke:none; fill-opacity:0" cx="413.265" cy="1447.32" r="2"/>
<circle clip-path="url(#clip032)" style="fill:#009af9; stroke:none; fill-opacity:0" cx="547.7" cy="1373.63" r="2"/>
<circle clip-path="url(#clip032)" style="fill:#009af9; stroke:none; fill-opacity:0" cx="682.135" cy="1373.63" r="2"/>
<circle clip-path="url(#clip032)" style="fill:#009af9; stroke:none; fill-opacity:0" cx="816.57" cy="1152.57" r="2"/>
<circle clip-path="url(#clip032)" style="fill:#009af9; stroke:none; fill-opacity:0" cx="951.004" cy="563.061" r="2"/>
<circle clip-path="url(#clip032)" style="fill:#009af9; stroke:none; fill-opacity:0" cx="1085.44" cy="636.75" r="2"/>
<circle clip-path="url(#clip032)" style="fill:#009af9; stroke:none; fill-opacity:0" cx="1219.87" cy="1078.88" r="2"/>
<circle clip-path="url(#clip032)" style="fill:#009af9; stroke:none; fill-opacity:0" cx="1354.31" cy="47.2441" r="2"/>
<circle clip-path="url(#clip032)" style="fill:#009af9; stroke:none; fill-opacity:0" cx="1488.74" cy="857.814" r="2"/>
<circle clip-path="url(#clip032)" style="fill:#009af9; stroke:none; fill-opacity:0" cx="1623.18" cy="784.126" r="2"/>
<circle clip-path="url(#clip032)" style="fill:#009af9; stroke:none; fill-opacity:0" cx="1757.61" cy="857.814" r="2"/>
<circle clip-path="url(#clip032)" style="fill:#009af9; stroke:none; fill-opacity:0" cx="1892.05" cy="1152.57" r="2"/>
<circle clip-path="url(#clip032)" style="fill:#009af9; stroke:none; fill-opacity:0" cx="2026.48" cy="1299.94" r="2"/>
<circle clip-path="url(#clip032)" style="fill:#009af9; stroke:none; fill-opacity:0" cx="2160.92" cy="1373.63" r="2"/>
<path clip-path="url(#clip030)" d="M1700.33 200.05 L2277.23 200.05 L2277.23 96.3696 L1700.33 96.3696  Z" fill="#ffffff" fill-rule="evenodd" fill-opacity="1"/>
<polyline clip-path="url(#clip030)" style="stroke:#000000; stroke-linecap:round; stroke-linejoin:round; stroke-width:4; stroke-opacity:1; fill:none" points="1700.33,200.05 2277.23,200.05 2277.23,96.3696 1700.33,96.3696 1700.33,200.05 "/>
<path clip-path="url(#clip030)" d="M1725.51 168.946 L1876.56 168.946 L1876.56 127.474 L1725.51 127.474 L1725.51 168.946  Z" fill="#009af9" fill-rule="evenodd" fill-opacity="1"/>
<polyline clip-path="url(#clip030)" style="stroke:#000000; stroke-linecap:round; stroke-linejoin:round; stroke-width:4; stroke-opacity:1; fill:none" points="1725.51,168.946 1876.56,168.946 1876.56,127.474 1725.51,127.474 1725.51,168.946 "/>
<path clip-path="url(#clip030)" d="M1920.16 140.328 L1920.16 144.355 Q1918.35 143.429 1916.41 142.967 Q1914.46 142.504 1912.38 142.504 Q1909.21 142.504 1907.61 143.476 Q1906.04 144.448 1906.04 146.392 Q1906.04 147.874 1907.17 148.73 Q1908.31 149.564 1911.73 150.328 L1913.19 150.652 Q1917.73 151.624 1919.63 153.406 Q1921.55 155.166 1921.55 158.337 Q1921.55 161.948 1918.68 164.054 Q1915.83 166.161 1910.83 166.161 Q1908.75 166.161 1906.48 165.744 Q1904.23 165.351 1901.73 164.54 L1901.73 160.142 Q1904.09 161.369 1906.39 161.994 Q1908.68 162.596 1910.92 162.596 Q1913.93 162.596 1915.55 161.578 Q1917.17 160.536 1917.17 158.661 Q1917.17 156.925 1915.99 155.999 Q1914.83 155.073 1910.88 154.216 L1909.4 153.869 Q1905.44 153.036 1903.68 151.323 Q1901.92 149.587 1901.92 146.578 Q1901.92 142.92 1904.51 140.93 Q1907.1 138.939 1911.87 138.939 Q1914.23 138.939 1916.32 139.286 Q1918.4 139.633 1920.16 140.328 Z" fill="#000000" fill-rule="nonzero" fill-opacity="1" /><path clip-path="url(#clip030)" d="M1940.11 152.457 Q1934.95 152.457 1932.96 153.638 Q1930.97 154.818 1930.97 157.666 Q1930.97 159.934 1932.45 161.277 Q1933.96 162.596 1936.52 162.596 Q1940.07 162.596 1942.2 160.096 Q1944.35 157.573 1944.35 153.406 L1944.35 152.457 L1940.11 152.457 M1948.61 150.698 L1948.61 165.49 L1944.35 165.49 L1944.35 161.554 Q1942.89 163.915 1940.71 165.05 Q1938.54 166.161 1935.39 166.161 Q1931.41 166.161 1929.05 163.939 Q1926.71 161.693 1926.71 157.943 Q1926.71 153.568 1929.63 151.346 Q1932.57 149.124 1938.38 149.124 L1944.35 149.124 L1944.35 148.707 Q1944.35 145.767 1942.4 144.17 Q1940.48 142.55 1936.99 142.55 Q1934.77 142.55 1932.66 143.082 Q1930.55 143.615 1928.61 144.679 L1928.61 140.744 Q1930.95 139.842 1933.14 139.402 Q1935.34 138.939 1937.43 138.939 Q1943.05 138.939 1945.83 141.855 Q1948.61 144.772 1948.61 150.698 Z" fill="#000000" fill-rule="nonzero" fill-opacity="1" /><path clip-path="url(#clip030)" d="M1977.57 144.541 Q1979.16 141.67 1981.39 140.305 Q1983.61 138.939 1986.62 138.939 Q1990.67 138.939 1992.87 141.786 Q1995.07 144.61 1995.07 149.841 L1995.07 165.49 L1990.78 165.49 L1990.78 149.98 Q1990.78 146.254 1989.46 144.448 Q1988.14 142.642 1985.44 142.642 Q1982.13 142.642 1980.2 144.842 Q1978.28 147.041 1978.28 150.837 L1978.28 165.49 L1974 165.49 L1974 149.98 Q1974 146.23 1972.68 144.448 Q1971.36 142.642 1968.61 142.642 Q1965.34 142.642 1963.42 144.865 Q1961.5 147.064 1961.5 150.837 L1961.5 165.49 L1957.22 165.49 L1957.22 139.564 L1961.5 139.564 L1961.5 143.592 Q1962.96 141.207 1965 140.073 Q1967.03 138.939 1969.83 138.939 Q1972.66 138.939 1974.63 140.374 Q1976.62 141.809 1977.57 144.541 Z" fill="#000000" fill-rule="nonzero" fill-opacity="1" /><path clip-path="url(#clip030)" d="M2007.68 161.601 L2007.68 175.351 L2003.4 175.351 L2003.4 139.564 L2007.68 139.564 L2007.68 143.499 Q2009.02 141.184 2011.06 140.073 Q2013.12 138.939 2015.97 138.939 Q2020.69 138.939 2023.63 142.689 Q2026.59 146.439 2026.59 152.55 Q2026.59 158.661 2023.63 162.411 Q2020.69 166.161 2015.97 166.161 Q2013.12 166.161 2011.06 165.05 Q2009.02 163.915 2007.68 161.601 M2022.17 152.55 Q2022.17 147.851 2020.23 145.189 Q2018.31 142.504 2014.93 142.504 Q2011.55 142.504 2009.6 145.189 Q2007.68 147.851 2007.68 152.55 Q2007.68 157.249 2009.6 159.934 Q2011.55 162.596 2014.93 162.596 Q2018.31 162.596 2020.23 159.934 Q2022.17 157.249 2022.17 152.55 Z" fill="#000000" fill-rule="nonzero" fill-opacity="1" /><path clip-path="url(#clip030)" d="M2033.65 129.471 L2037.91 129.471 L2037.91 165.49 L2033.65 165.49 L2033.65 129.471 Z" fill="#000000" fill-rule="nonzero" fill-opacity="1" /><path clip-path="url(#clip030)" d="M2069 151.462 L2069 153.545 L2049.42 153.545 Q2049.7 157.943 2052.06 160.258 Q2054.44 162.55 2058.68 162.55 Q2061.13 162.55 2063.42 161.948 Q2065.74 161.346 2068.01 160.142 L2068.01 164.17 Q2065.71 165.142 2063.31 165.652 Q2060.9 166.161 2058.42 166.161 Q2052.22 166.161 2048.58 162.55 Q2044.97 158.939 2044.97 152.781 Q2044.97 146.416 2048.4 142.689 Q2051.85 138.939 2057.68 138.939 Q2062.91 138.939 2065.95 142.318 Q2069 145.675 2069 151.462 M2064.74 150.212 Q2064.7 146.717 2062.77 144.633 Q2060.88 142.55 2057.73 142.55 Q2054.16 142.55 2052.01 144.564 Q2049.88 146.578 2049.56 150.235 L2064.74 150.212 Z" fill="#000000" fill-rule="nonzero" fill-opacity="1" /><path clip-path="url(#clip030)" d="M2095.69 173.36 L2095.69 176.67 L2071.06 176.67 L2071.06 173.36 L2095.69 173.36 Z" fill="#000000" fill-rule="nonzero" fill-opacity="1" /><path clip-path="url(#clip030)" d="M2119.88 144.541 Q2121.48 141.67 2123.7 140.305 Q2125.92 138.939 2128.93 138.939 Q2132.98 138.939 2135.18 141.786 Q2137.38 144.61 2137.38 149.841 L2137.38 165.49 L2133.1 165.49 L2133.1 149.98 Q2133.1 146.254 2131.78 144.448 Q2130.46 142.642 2127.75 142.642 Q2124.44 142.642 2122.52 144.842 Q2120.6 147.041 2120.6 150.837 L2120.6 165.49 L2116.32 165.49 L2116.32 149.98 Q2116.32 146.23 2115 144.448 Q2113.68 142.642 2110.92 142.642 Q2107.66 142.642 2105.74 144.865 Q2103.82 147.064 2103.82 150.837 L2103.82 165.49 L2099.53 165.49 L2099.53 139.564 L2103.82 139.564 L2103.82 143.592 Q2105.27 141.207 2107.31 140.073 Q2109.35 138.939 2112.15 138.939 Q2114.97 138.939 2116.94 140.374 Q2118.93 141.809 2119.88 144.541 Z" fill="#000000" fill-rule="nonzero" fill-opacity="1" /><path clip-path="url(#clip030)" d="M2168.05 151.462 L2168.05 153.545 L2148.47 153.545 Q2148.75 157.943 2151.11 160.258 Q2153.49 162.55 2157.73 162.55 Q2160.18 162.55 2162.47 161.948 Q2164.79 161.346 2167.06 160.142 L2167.06 164.17 Q2164.76 165.142 2162.36 165.652 Q2159.95 166.161 2157.47 166.161 Q2151.27 166.161 2147.63 162.55 Q2144.02 158.939 2144.02 152.781 Q2144.02 146.416 2147.45 142.689 Q2150.9 138.939 2156.73 138.939 Q2161.96 138.939 2165 142.318 Q2168.05 145.675 2168.05 151.462 M2163.79 150.212 Q2163.75 146.717 2161.82 144.633 Q2159.93 142.55 2156.78 142.55 Q2153.21 142.55 2151.06 144.564 Q2148.93 146.578 2148.61 150.235 L2163.79 150.212 Z" fill="#000000" fill-rule="nonzero" fill-opacity="1" /><path clip-path="url(#clip030)" d="M2186.82 152.457 Q2181.66 152.457 2179.67 153.638 Q2177.68 154.818 2177.68 157.666 Q2177.68 159.934 2179.16 161.277 Q2180.67 162.596 2183.24 162.596 Q2186.78 162.596 2188.91 160.096 Q2191.06 157.573 2191.06 153.406 L2191.06 152.457 L2186.82 152.457 M2195.32 150.698 L2195.32 165.49 L2191.06 165.49 L2191.06 161.554 Q2189.6 163.915 2187.43 165.05 Q2185.25 166.161 2182.1 166.161 Q2178.12 166.161 2175.76 163.939 Q2173.42 161.693 2173.42 157.943 Q2173.42 153.568 2176.34 151.346 Q2179.28 149.124 2185.09 149.124 L2191.06 149.124 L2191.06 148.707 Q2191.06 145.767 2189.12 144.17 Q2187.19 142.55 2183.7 142.55 Q2181.48 142.55 2179.37 143.082 Q2177.26 143.615 2175.32 144.679 L2175.32 140.744 Q2177.66 139.842 2179.86 139.402 Q2182.06 138.939 2184.14 138.939 Q2189.76 138.939 2192.54 141.855 Q2195.32 144.772 2195.32 150.698 Z" fill="#000000" fill-rule="nonzero" fill-opacity="1" /><path clip-path="url(#clip030)" d="M2225.64 149.841 L2225.64 165.49 L2221.38 165.49 L2221.38 149.98 Q2221.38 146.3 2219.95 144.471 Q2218.51 142.642 2215.64 142.642 Q2212.19 142.642 2210.2 144.842 Q2208.21 147.041 2208.21 150.837 L2208.21 165.49 L2203.93 165.49 L2203.93 139.564 L2208.21 139.564 L2208.21 143.592 Q2209.74 141.254 2211.8 140.096 Q2213.88 138.939 2216.59 138.939 Q2221.06 138.939 2223.35 141.717 Q2225.64 144.471 2225.64 149.841 Z" fill="#000000" fill-rule="nonzero" fill-opacity="1" /><path clip-path="url(#clip030)" d="M2250.67 140.328 L2250.67 144.355 Q2248.86 143.429 2246.92 142.967 Q2244.97 142.504 2242.89 142.504 Q2239.72 142.504 2238.12 143.476 Q2236.55 144.448 2236.55 146.392 Q2236.55 147.874 2237.68 148.73 Q2238.81 149.564 2242.24 150.328 L2243.7 150.652 Q2248.24 151.624 2250.13 153.406 Q2252.06 155.166 2252.06 158.337 Q2252.06 161.948 2249.18 164.054 Q2246.34 166.161 2241.34 166.161 Q2239.25 166.161 2236.99 165.744 Q2234.74 165.351 2232.24 164.54 L2232.24 160.142 Q2234.6 161.369 2236.89 161.994 Q2239.18 162.596 2241.43 162.596 Q2244.44 162.596 2246.06 161.578 Q2247.68 160.536 2247.68 158.661 Q2247.68 156.925 2246.5 155.999 Q2245.34 155.073 2241.38 154.216 L2239.9 153.869 Q2235.94 153.036 2234.19 151.323 Q2232.43 149.587 2232.43 146.578 Q2232.43 142.92 2235.02 140.93 Q2237.61 138.939 2242.38 138.939 Q2244.74 138.939 2246.82 139.286 Q2248.91 139.633 2250.67 140.328 Z" fill="#000000" fill-rule="nonzero" fill-opacity="1" /></svg>
