<?xml version="1.0" encoding="utf-8"?>
<svg xmlns="http://www.w3.org/2000/svg" xmlns:xlink="http://www.w3.org/1999/xlink" width="600" height="400" viewBox="0 0 2400 1600">
<defs>
  <clipPath id="clip060">
    <rect x="0" y="0" width="2400" height="1600"/>
  </clipPath>
</defs>
<path clip-path="url(#clip060)" d="M0 1600 L2400 1600 L2400 0 L0 0  Z" fill="#ffffff" fill-rule="evenodd" fill-opacity="1"/>
<defs>
  <clipPath id="clip061">
    <rect x="480" y="0" width="1681" height="1600"/>
  </clipPath>
</defs>
<path clip-path="url(#clip060)" d="M86.9921 1521.01 L2352.76 1521.01 L2352.76 47.2441 L86.9921 47.2441  Z" fill="#ffffff" fill-rule="evenodd" fill-opacity="1"/>
<defs>
  <clipPath id="clip062">
    <rect x="86" y="47" width="2267" height="1475"/>
  </clipPath>
</defs>
<polyline clip-path="url(#clip062)" style="stroke:#000000; stroke-linecap:round; stroke-linejoin:round; stroke-width:2; stroke-opacity:0.1; fill:none" points="211.613,1521.01 211.613,47.2441 "/>
<polyline clip-path="url(#clip062)" style="stroke:#000000; stroke-linecap:round; stroke-linejoin:round; stroke-width:2; stroke-opacity:0.1; fill:none" points="715.744,1521.01 715.744,47.2441 "/>
<polyline clip-path="url(#clip062)" style="stroke:#000000; stroke-linecap:round; stroke-linejoin:round; stroke-width:2; stroke-opacity:0.1; fill:none" points="1219.87,1521.01 1219.87,47.2441 "/>
<polyline clip-path="url(#clip062)" style="stroke:#000000; stroke-linecap:round; stroke-linejoin:round; stroke-width:2; stroke-opacity:0.1; fill:none" points="1724,1521.01 1724,47.2441 "/>
<polyline clip-path="url(#clip062)" style="stroke:#000000; stroke-linecap:round; stroke-linejoin:round; stroke-width:2; stroke-opacity:0.1; fill:none" points="2228.13,1521.01 2228.13,47.2441 "/>
<polyline clip-path="url(#clip060)" style="stroke:#000000; stroke-linecap:round; stroke-linejoin:round; stroke-width:4; stroke-opacity:1; fill:none" points="86.9921,1521.01 2352.76,1521.01 "/>
<polyline clip-path="url(#clip060)" style="stroke:#000000; stroke-linecap:round; stroke-linejoin:round; stroke-width:4; stroke-opacity:1; fill:none" points="211.613,1521.01 211.613,1502.11 "/>
<polyline clip-path="url(#clip060)" style="stroke:#000000; stroke-linecap:round; stroke-linejoin:round; stroke-width:4; stroke-opacity:1; fill:none" points="715.744,1521.01 715.744,1502.11 "/>
<polyline clip-path="url(#clip060)" style="stroke:#000000; stroke-linecap:round; stroke-linejoin:round; stroke-width:4; stroke-opacity:1; fill:none" points="1219.87,1521.01 1219.87,1502.11 "/>
<polyline clip-path="url(#clip060)" style="stroke:#000000; stroke-linecap:round; stroke-linejoin:round; stroke-width:4; stroke-opacity:1; fill:none" points="1724,1521.01 1724,1502.11 "/>
<polyline clip-path="url(#clip060)" style="stroke:#000000; stroke-linecap:round; stroke-linejoin:round; stroke-width:4; stroke-opacity:1; fill:none" points="2228.13,1521.01 2228.13,1502.11 "/>
<path clip-path="url(#clip060)" d="M183.349 1579.47 L199.669 1579.47 L199.669 1583.41 L177.724 1583.41 L177.724 1579.47 Q180.386 1576.72 184.97 1572.09 Q189.576 1567.44 190.757 1566.09 Q193.002 1563.57 193.882 1561.83 Q194.785 1560.07 194.785 1558.38 Q194.785 1555.63 192.84 1553.89 Q190.919 1552.16 187.817 1552.16 Q185.618 1552.16 183.164 1552.92 Q180.734 1553.69 177.956 1555.24 L177.956 1550.51 Q180.78 1549.38 183.234 1548.8 Q185.687 1548.22 187.724 1548.22 Q193.095 1548.22 196.289 1550.91 Q199.484 1553.59 199.484 1558.08 Q199.484 1560.21 198.673 1562.13 Q197.886 1564.03 195.78 1566.63 Q195.201 1567.3 192.099 1570.51 Q188.998 1573.71 183.349 1579.47 Z" fill="#000000" fill-rule="nonzero" fill-opacity="1" /><path clip-path="url(#clip060)" d="M209.484 1577.53 L214.368 1577.53 L214.368 1583.41 L209.484 1583.41 L209.484 1577.53 Z" fill="#000000" fill-rule="nonzero" fill-opacity="1" /><path clip-path="url(#clip060)" d="M224.599 1548.85 L242.956 1548.85 L242.956 1552.78 L228.882 1552.78 L228.882 1561.26 Q229.9 1560.91 230.919 1560.75 Q231.937 1560.56 232.956 1560.56 Q238.743 1560.56 242.122 1563.73 Q245.502 1566.9 245.502 1572.32 Q245.502 1577.9 242.03 1581 Q238.557 1584.08 232.238 1584.08 Q230.062 1584.08 227.794 1583.71 Q225.548 1583.34 223.141 1582.6 L223.141 1577.9 Q225.224 1579.03 227.446 1579.59 Q229.669 1580.14 232.145 1580.14 Q236.15 1580.14 238.488 1578.04 Q240.826 1575.93 240.826 1572.32 Q240.826 1568.71 238.488 1566.6 Q236.15 1564.5 232.145 1564.5 Q230.27 1564.5 228.395 1564.91 Q226.544 1565.33 224.599 1566.21 L224.599 1548.85 Z" fill="#000000" fill-rule="nonzero" fill-opacity="1" /><path clip-path="url(#clip060)" d="M697.052 1564.77 Q700.408 1565.49 702.283 1567.76 Q704.181 1570.03 704.181 1573.36 Q704.181 1578.48 700.663 1581.28 Q697.144 1584.08 690.663 1584.08 Q688.487 1584.08 686.172 1583.64 Q683.88 1583.22 681.427 1582.37 L681.427 1577.85 Q683.371 1578.99 685.686 1579.57 Q688.001 1580.14 690.524 1580.14 Q694.922 1580.14 697.214 1578.41 Q699.528 1576.67 699.528 1573.36 Q699.528 1570.31 697.376 1568.59 Q695.246 1566.86 691.427 1566.86 L687.399 1566.86 L687.399 1563.01 L691.612 1563.01 Q695.061 1563.01 696.89 1561.65 Q698.718 1560.26 698.718 1557.67 Q698.718 1555.01 696.82 1553.59 Q694.945 1552.16 691.427 1552.16 Q689.505 1552.16 687.306 1552.57 Q685.107 1552.99 682.468 1553.87 L682.468 1549.7 Q685.13 1548.96 687.445 1548.59 Q689.783 1548.22 691.843 1548.22 Q697.167 1548.22 700.269 1550.65 Q703.371 1553.06 703.371 1557.18 Q703.371 1560.05 701.727 1562.04 Q700.084 1564.01 697.052 1564.77 Z" fill="#000000" fill-rule="nonzero" fill-opacity="1" /><path clip-path="url(#clip060)" d="M713.047 1577.53 L717.931 1577.53 L717.931 1583.41 L713.047 1583.41 L713.047 1577.53 Z" fill="#000000" fill-rule="nonzero" fill-opacity="1" /><path clip-path="url(#clip060)" d="M738.116 1551.93 Q734.505 1551.93 732.676 1555.49 Q730.871 1559.03 730.871 1566.16 Q730.871 1573.27 732.676 1576.83 Q734.505 1580.38 738.116 1580.38 Q741.75 1580.38 743.556 1576.83 Q745.385 1573.27 745.385 1566.16 Q745.385 1559.03 743.556 1555.49 Q741.75 1551.93 738.116 1551.93 M738.116 1548.22 Q743.926 1548.22 746.982 1552.83 Q750.061 1557.41 750.061 1566.16 Q750.061 1574.89 746.982 1579.5 Q743.926 1584.08 738.116 1584.08 Q732.306 1584.08 729.227 1579.5 Q726.172 1574.89 726.172 1566.16 Q726.172 1557.41 729.227 1552.83 Q732.306 1548.22 738.116 1548.22 Z" fill="#000000" fill-rule="nonzero" fill-opacity="1" /><path clip-path="url(#clip060)" d="M1201.68 1564.77 Q1205.04 1565.49 1206.91 1567.76 Q1208.81 1570.03 1208.81 1573.36 Q1208.81 1578.48 1205.29 1581.28 Q1201.77 1584.08 1195.29 1584.08 Q1193.11 1584.08 1190.8 1583.64 Q1188.51 1583.22 1186.05 1582.37 L1186.05 1577.85 Q1188 1578.99 1190.31 1579.57 Q1192.63 1580.14 1195.15 1580.14 Q1199.55 1580.14 1201.84 1578.41 Q1204.16 1576.67 1204.16 1573.36 Q1204.16 1570.31 1202 1568.59 Q1199.87 1566.86 1196.05 1566.86 L1192.03 1566.86 L1192.03 1563.01 L1196.24 1563.01 Q1199.69 1563.01 1201.52 1561.65 Q1203.35 1560.26 1203.35 1557.67 Q1203.35 1555.01 1201.45 1553.59 Q1199.57 1552.16 1196.05 1552.16 Q1194.13 1552.16 1191.93 1552.57 Q1189.74 1552.99 1187.1 1553.87 L1187.1 1549.7 Q1189.76 1548.96 1192.07 1548.59 Q1194.41 1548.22 1196.47 1548.22 Q1201.8 1548.22 1204.9 1550.65 Q1208 1553.06 1208 1557.18 Q1208 1560.05 1206.36 1562.04 Q1204.71 1564.01 1201.68 1564.77 Z" fill="#000000" fill-rule="nonzero" fill-opacity="1" /><path clip-path="url(#clip060)" d="M1217.67 1577.53 L1222.56 1577.53 L1222.56 1583.41 L1217.67 1583.41 L1217.67 1577.53 Z" fill="#000000" fill-rule="nonzero" fill-opacity="1" /><path clip-path="url(#clip060)" d="M1232.79 1548.85 L1251.15 1548.85 L1251.15 1552.78 L1237.07 1552.78 L1237.07 1561.26 Q1238.09 1560.91 1239.11 1560.75 Q1240.13 1560.56 1241.15 1560.56 Q1246.93 1560.56 1250.31 1563.73 Q1253.69 1566.9 1253.69 1572.32 Q1253.69 1577.9 1250.22 1581 Q1246.75 1584.08 1240.43 1584.08 Q1238.25 1584.08 1235.99 1583.71 Q1233.74 1583.34 1231.33 1582.6 L1231.33 1577.9 Q1233.42 1579.03 1235.64 1579.59 Q1237.86 1580.14 1240.34 1580.14 Q1244.34 1580.14 1246.68 1578.04 Q1249.02 1575.93 1249.02 1572.32 Q1249.02 1568.71 1246.68 1566.6 Q1244.34 1564.5 1240.34 1564.5 Q1238.46 1564.5 1236.59 1564.91 Q1234.74 1565.33 1232.79 1566.21 L1232.79 1548.85 Z" fill="#000000" fill-rule="nonzero" fill-opacity="1" /><path clip-path="url(#clip060)" d="M1704.64 1552.92 L1692.84 1571.37 L1704.64 1571.37 L1704.64 1552.92 M1703.41 1548.85 L1709.29 1548.85 L1709.29 1571.37 L1714.22 1571.37 L1714.22 1575.26 L1709.29 1575.26 L1709.29 1583.41 L1704.64 1583.41 L1704.64 1575.26 L1689.04 1575.26 L1689.04 1570.75 L1703.41 1548.85 Z" fill="#000000" fill-rule="nonzero" fill-opacity="1" /><path clip-path="url(#clip060)" d="M1721.96 1577.53 L1726.84 1577.53 L1726.84 1583.41 L1721.96 1583.41 L1721.96 1577.53 Z" fill="#000000" fill-rule="nonzero" fill-opacity="1" /><path clip-path="url(#clip060)" d="M1747.03 1551.93 Q1743.41 1551.93 1741.59 1555.49 Q1739.78 1559.03 1739.78 1566.16 Q1739.78 1573.27 1741.59 1576.83 Q1743.41 1580.38 1747.03 1580.38 Q1750.66 1580.38 1752.46 1576.83 Q1754.29 1573.27 1754.29 1566.16 Q1754.29 1559.03 1752.46 1555.49 Q1750.66 1551.93 1747.03 1551.93 M1747.03 1548.22 Q1752.84 1548.22 1755.89 1552.83 Q1758.97 1557.41 1758.97 1566.16 Q1758.97 1574.89 1755.89 1579.5 Q1752.84 1584.08 1747.03 1584.08 Q1741.21 1584.08 1738.14 1579.5 Q1735.08 1574.89 1735.08 1566.16 Q1735.08 1557.41 1738.14 1552.83 Q1741.21 1548.22 1747.03 1548.22 Z" fill="#000000" fill-rule="nonzero" fill-opacity="1" /><path clip-path="url(#clip060)" d="M2209.27 1552.92 L2197.46 1571.37 L2209.27 1571.37 L2209.27 1552.92 M2208.04 1548.85 L2213.92 1548.85 L2213.92 1571.37 L2218.85 1571.37 L2218.85 1575.26 L2213.92 1575.26 L2213.92 1583.41 L2209.27 1583.41 L2209.27 1575.26 L2193.67 1575.26 L2193.67 1570.75 L2208.04 1548.85 Z" fill="#000000" fill-rule="nonzero" fill-opacity="1" /><path clip-path="url(#clip060)" d="M2226.58 1577.53 L2231.47 1577.53 L2231.47 1583.41 L2226.58 1583.41 L2226.58 1577.53 Z" fill="#000000" fill-rule="nonzero" fill-opacity="1" /><path clip-path="url(#clip060)" d="M2241.7 1548.85 L2260.06 1548.85 L2260.06 1552.78 L2245.98 1552.78 L2245.98 1561.26 Q2247 1560.91 2248.02 1560.75 Q2249.04 1560.56 2250.06 1560.56 Q2255.84 1560.56 2259.22 1563.73 Q2262.6 1566.9 2262.6 1572.32 Q2262.6 1577.9 2259.13 1581 Q2255.66 1584.08 2249.34 1584.08 Q2247.16 1584.08 2244.89 1583.71 Q2242.65 1583.34 2240.24 1582.6 L2240.24 1577.9 Q2242.32 1579.03 2244.55 1579.59 Q2246.77 1580.14 2249.25 1580.14 Q2253.25 1580.14 2255.59 1578.04 Q2257.93 1575.93 2257.93 1572.32 Q2257.93 1568.71 2255.59 1566.6 Q2253.25 1564.5 2249.25 1564.5 Q2247.37 1564.5 2245.5 1564.91 Q2243.64 1565.33 2241.7 1566.21 L2241.7 1548.85 Z" fill="#000000" fill-rule="nonzero" fill-opacity="1" /><polyline clip-path="url(#clip062)" style="stroke:#000000; stroke-linecap:round; stroke-linejoin:round; stroke-width:2; stroke-opacity:0.1; fill:none" points="86.9921,1521.01 2352.76,1521.01 "/>
<polyline clip-path="url(#clip062)" style="stroke:#000000; stroke-linecap:round; stroke-linejoin:round; stroke-width:2; stroke-opacity:0.1; fill:none" points="86.9921,1112.76 2352.76,1112.76 "/>
<polyline clip-path="url(#clip062)" style="stroke:#000000; stroke-linecap:round; stroke-linejoin:round; stroke-width:2; stroke-opacity:0.1; fill:none" points="86.9921,704.518 2352.76,704.518 "/>
<polyline clip-path="url(#clip062)" style="stroke:#000000; stroke-linecap:round; stroke-linejoin:round; stroke-width:2; stroke-opacity:0.1; fill:none" points="86.9921,296.273 2352.76,296.273 "/>
<polyline clip-path="url(#clip060)" style="stroke:#000000; stroke-linecap:round; stroke-linejoin:round; stroke-width:4; stroke-opacity:1; fill:none" points="86.9921,1521.01 86.9921,47.2441 "/>
<polyline clip-path="url(#clip060)" style="stroke:#000000; stroke-linecap:round; stroke-linejoin:round; stroke-width:4; stroke-opacity:1; fill:none" points="86.9921,1521.01 105.89,1521.01 "/>
<polyline clip-path="url(#clip060)" style="stroke:#000000; stroke-linecap:round; stroke-linejoin:round; stroke-width:4; stroke-opacity:1; fill:none" points="86.9921,1112.76 105.89,1112.76 "/>
<polyline clip-path="url(#clip060)" style="stroke:#000000; stroke-linecap:round; stroke-linejoin:round; stroke-width:4; stroke-opacity:1; fill:none" points="86.9921,704.518 105.89,704.518 "/>
<polyline clip-path="url(#clip060)" style="stroke:#000000; stroke-linecap:round; stroke-linejoin:round; stroke-width:4; stroke-opacity:1; fill:none" points="86.9921,296.273 105.89,296.273 "/>
<path clip-path="url(#clip060)" d="M10.8708 1521.01 Q10.8708 1524.62 14.4356 1526.45 Q17.9773 1528.25 25.1068 1528.25 Q32.2133 1528.25 35.7781 1526.45 Q39.3197 1524.62 39.3197 1521.01 Q39.3197 1517.37 35.7781 1515.57 Q32.2133 1513.74 25.1068 1513.74 Q17.9773 1513.74 14.4356 1515.57 Q10.8708 1517.37 10.8708 1521.01 M7.16713 1521.01 Q7.16713 1515.2 11.7736 1512.14 Q16.3569 1509.06 25.1068 1509.06 Q33.8337 1509.06 38.4401 1512.14 Q43.0234 1515.2 43.0234 1521.01 Q43.0234 1526.82 38.4401 1529.9 Q33.8337 1532.95 25.1068 1532.95 Q16.3569 1532.95 11.7736 1529.9 Q7.16713 1526.82 7.16713 1521.01 Z" fill="#000000" fill-rule="nonzero" fill-opacity="1" /><path clip-path="url(#clip060)" d="M38.417 1149.07 L38.417 1132.75 L42.3521 1132.75 L42.3521 1154.7 L38.417 1154.7 Q35.6623 1152.03 31.0327 1147.45 Q26.38 1142.84 25.0374 1141.66 Q22.5143 1139.42 20.7782 1138.54 Q19.0189 1137.64 17.3291 1137.64 Q14.5745 1137.64 12.8384 1139.58 Q11.1023 1141.5 11.1023 1144.6 Q11.1023 1146.8 11.8662 1149.26 Q12.6301 1151.69 14.181 1154.46 L9.45878 1154.46 Q8.32453 1151.64 7.74583 1149.19 Q7.16713 1146.73 7.16713 1144.7 Q7.16713 1139.33 9.8523 1136.13 Q12.5375 1132.94 17.0282 1132.94 Q19.1578 1132.94 21.0791 1133.75 Q22.9772 1134.53 25.5698 1136.64 Q26.2411 1137.22 29.4587 1140.32 Q32.6531 1143.42 38.417 1149.07 Z" fill="#000000" fill-rule="nonzero" fill-opacity="1" /><path clip-path="url(#clip060)" d="M10.8708 1112.94 Q10.8708 1116.55 14.4356 1118.38 Q17.9773 1120.18 25.1068 1120.18 Q32.2133 1120.18 35.7781 1118.38 Q39.3197 1116.55 39.3197 1112.94 Q39.3197 1109.3 35.7781 1107.5 Q32.2133 1105.67 25.1068 1105.67 Q17.9773 1105.67 14.4356 1107.5 Q10.8708 1109.3 10.8708 1112.94 M7.16713 1112.94 Q7.16713 1107.13 11.7736 1104.07 Q16.3569 1100.99 25.1068 1100.99 Q33.8337 1100.99 38.4401 1104.07 Q43.0234 1107.13 43.0234 1112.94 Q43.0234 1118.75 38.4401 1121.83 Q33.8337 1124.88 25.1068 1124.88 Q16.3569 1124.88 11.7736 1121.83 Q7.16713 1118.75 7.16713 1112.94 Z" fill="#000000" fill-rule="nonzero" fill-opacity="1" /><path clip-path="url(#clip060)" d="M10.8708 1082.77 Q10.8708 1086.39 14.4356 1088.21 Q17.9773 1090.02 25.1068 1090.02 Q32.2133 1090.02 35.7781 1088.21 Q39.3197 1086.39 39.3197 1082.77 Q39.3197 1079.14 35.7781 1077.34 Q32.2133 1075.51 25.1068 1075.51 Q17.9773 1075.51 14.4356 1077.34 Q10.8708 1079.14 10.8708 1082.77 M7.16713 1082.77 Q7.16713 1076.96 11.7736 1073.91 Q16.3569 1070.83 25.1068 1070.83 Q33.8337 1070.83 38.4401 1073.91 Q43.0234 1076.96 43.0234 1082.77 Q43.0234 1088.58 38.4401 1091.66 Q33.8337 1094.72 25.1068 1094.72 Q16.3569 1094.72 11.7736 1091.66 Q7.16713 1088.58 7.16713 1082.77 Z" fill="#000000" fill-rule="nonzero" fill-opacity="1" /><path clip-path="url(#clip060)" d="M11.8662 731.428 L30.3152 743.233 L30.3152 731.428 L11.8662 731.428 M7.79213 732.655 L7.79213 726.775 L30.3152 726.775 L30.3152 721.845 L34.204 721.845 L34.204 726.775 L42.3521 726.775 L42.3521 731.428 L34.204 731.428 L34.204 747.03 L29.6902 747.03 L7.79213 732.655 Z" fill="#000000" fill-rule="nonzero" fill-opacity="1" /><path clip-path="url(#clip060)" d="M10.8708 704.113 Q10.8708 707.724 14.4356 709.553 Q17.9773 711.358 25.1068 711.358 Q32.2133 711.358 35.7781 709.553 Q39.3197 707.724 39.3197 704.113 Q39.3197 700.479 35.7781 698.673 Q32.2133 696.845 25.1068 696.845 Q17.9773 696.845 14.4356 698.673 Q10.8708 700.479 10.8708 704.113 M7.16713 704.113 Q7.16713 698.303 11.7736 695.247 Q16.3569 692.169 25.1068 692.169 Q33.8337 692.169 38.4401 695.247 Q43.0234 698.303 43.0234 704.113 Q43.0234 709.923 38.4401 713.002 Q33.8337 716.058 25.1068 716.058 Q16.3569 716.058 11.7736 713.002 Q7.16713 709.923 7.16713 704.113 Z" fill="#000000" fill-rule="nonzero" fill-opacity="1" /><path clip-path="url(#clip060)" d="M10.8708 673.951 Q10.8708 677.562 14.4356 679.391 Q17.9773 681.197 25.1068 681.197 Q32.2133 681.197 35.7781 679.391 Q39.3197 677.562 39.3197 673.951 Q39.3197 670.317 35.7781 668.511 Q32.2133 666.683 25.1068 666.683 Q17.9773 666.683 14.4356 668.511 Q10.8708 670.317 10.8708 673.951 M7.16713 673.951 Q7.16713 668.141 11.7736 665.086 Q16.3569 662.007 25.1068 662.007 Q33.8337 662.007 38.4401 665.086 Q43.0234 668.141 43.0234 673.951 Q43.0234 679.761 38.4401 682.84 Q33.8337 685.896 25.1068 685.896 Q16.3569 685.896 11.7736 682.84 Q7.16713 679.761 7.16713 673.951 Z" fill="#000000" fill-rule="nonzero" fill-opacity="1" /><path clip-path="url(#clip060)" d="M23.2087 325.949 Q23.2087 329.097 25.3615 330.949 Q27.5142 332.778 31.2642 332.778 Q34.9911 332.778 37.167 330.949 Q39.3197 329.097 39.3197 325.949 Q39.3197 322.801 37.167 320.972 Q34.9911 319.121 31.2642 319.121 Q27.5142 319.121 25.3615 320.972 Q23.2087 322.801 23.2087 325.949 M8.55601 316.667 L12.8152 316.667 Q11.9819 318.426 11.5421 320.232 Q11.1023 322.014 11.1023 323.773 Q11.1023 328.403 14.2273 330.857 Q17.3523 333.287 23.6717 333.634 Q21.6578 332.269 20.593 330.208 Q19.505 328.148 19.505 325.671 Q19.505 320.463 22.6763 317.454 Q25.8244 314.421 31.2642 314.421 Q36.5883 314.421 39.8058 317.57 Q43.0234 320.718 43.0234 325.949 Q43.0234 331.945 38.4401 335.116 Q33.8337 338.287 25.1068 338.287 Q16.9124 338.287 12.0514 334.398 Q7.16713 330.509 7.16713 323.958 Q7.16713 322.199 7.51435 320.417 Q7.86157 318.611 8.55601 316.667 Z" fill="#000000" fill-rule="nonzero" fill-opacity="1" /><path clip-path="url(#clip060)" d="M10.8708 296.366 Q10.8708 299.977 14.4356 301.806 Q17.9773 303.611 25.1068 303.611 Q32.2133 303.611 35.7781 301.806 Q39.3197 299.977 39.3197 296.366 Q39.3197 292.732 35.7781 290.926 Q32.2133 289.098 25.1068 289.098 Q17.9773 289.098 14.4356 290.926 Q10.8708 292.732 10.8708 296.366 M7.16713 296.366 Q7.16713 290.556 11.7736 287.5 Q16.3569 284.422 25.1068 284.422 Q33.8337 284.422 38.4401 287.5 Q43.0234 290.556 43.0234 296.366 Q43.0234 302.176 38.4401 305.255 Q33.8337 308.31 25.1068 308.31 Q16.3569 308.31 11.7736 305.255 Q7.16713 302.176 7.16713 296.366 Z" fill="#000000" fill-rule="nonzero" fill-opacity="1" /><path clip-path="url(#clip060)" d="M10.8708 266.204 Q10.8708 269.815 14.4356 271.644 Q17.9773 273.449 25.1068 273.449 Q32.2133 273.449 35.7781 271.644 Q39.3197 269.815 39.3197 266.204 Q39.3197 262.57 35.7781 260.764 Q32.2133 258.936 25.1068 258.936 Q17.9773 258.936 14.4356 260.764 Q10.8708 262.57 10.8708 266.204 M7.16713 266.204 Q7.16713 260.394 11.7736 257.338 Q16.3569 254.26 25.1068 254.26 Q33.8337 254.26 38.4401 257.338 Q43.0234 260.394 43.0234 266.204 Q43.0234 272.014 38.4401 275.093 Q33.8337 278.149 25.1068 278.149 Q16.3569 278.149 11.7736 275.093 Q7.16713 272.014 7.16713 266.204 Z" fill="#000000" fill-rule="nonzero" fill-opacity="1" /><path clip-path="url(#clip062)" d="M211.613 1516.93 L211.613 1521.01 L312.439 1521.01 L312.439 1516.93 L211.613 1516.93 L211.613 1516.93  Z" fill="#009af9" fill-rule="evenodd" fill-opacity="1"/>
<polyline clip-path="url(#clip062)" style="stroke:#000000; stroke-linecap:round; stroke-linejoin:round; stroke-width:4; stroke-opacity:1; fill:none" points="211.613,1516.93 211.613,1521.01 312.439,1521.01 312.439,1516.93 211.613,1516.93 "/>
<path clip-path="url(#clip062)" d="M312.439 1514.88 L312.439 1521.01 L413.265 1521.01 L413.265 1514.88 L312.439 1514.88 L312.439 1514.88  Z" fill="#009af9" fill-rule="evenodd" fill-opacity="1"/>
<polyline clip-path="url(#clip062)" style="stroke:#000000; stroke-linecap:round; stroke-linejoin:round; stroke-width:4; stroke-opacity:1; fill:none" points="312.439,1514.88 312.439,1521.01 413.265,1521.01 413.265,1514.88 312.439,1514.88 "/>
<path clip-path="url(#clip062)" d="M413.265 1482.22 L413.265 1521.01 L514.091 1521.01 L514.091 1482.22 L413.265 1482.22 L413.265 1482.22  Z" fill="#009af9" fill-rule="evenodd" fill-opacity="1"/>
<polyline clip-path="url(#clip062)" style="stroke:#000000; stroke-linecap:round; stroke-linejoin:round; stroke-width:4; stroke-opacity:1; fill:none" points="413.265,1482.22 413.265,1521.01 514.091,1521.01 514.091,1482.22 413.265,1482.22 "/>
<path clip-path="url(#clip062)" d="M514.091 1429.15 L514.091 1521.01 L614.918 1521.01 L614.918 1429.15 L514.091 1429.15 L514.091 1429.15  Z" fill="#009af9" fill-rule="evenodd" fill-opacity="1"/>
<polyline clip-path="url(#clip062)" style="stroke:#000000; stroke-linecap:round; stroke-linejoin:round; stroke-width:4; stroke-opacity:1; fill:none" points="514.091,1429.15 514.091,1521.01 614.918,1521.01 614.918,1429.15 514.091,1429.15 "/>
<path clip-path="url(#clip062)" d="M614.918 1294.43 L614.918 1521.01 L715.744 1521.01 L715.744 1294.43 L614.918 1294.43 L614.918 1294.43  Z" fill="#009af9" fill-rule="evenodd" fill-opacity="1"/>
<polyline clip-path="url(#clip062)" style="stroke:#000000; stroke-linecap:round; stroke-linejoin:round; stroke-width:4; stroke-opacity:1; fill:none" points="614.918,1294.43 614.918,1521.01 715.744,1521.01 715.744,1294.43 614.918,1294.43 "/>
<path clip-path="url(#clip062)" d="M715.744 1141.34 L715.744 1521.01 L816.57 1521.01 L816.57 1141.34 L715.744 1141.34 L715.744 1141.34  Z" fill="#009af9" fill-rule="evenodd" fill-opacity="1"/>
<polyline clip-path="url(#clip062)" style="stroke:#000000; stroke-linecap:round; stroke-linejoin:round; stroke-width:4; stroke-opacity:1; fill:none" points="715.744,1141.34 715.744,1521.01 816.57,1521.01 816.57,1141.34 715.744,1141.34 "/>
<path clip-path="url(#clip062)" d="M816.57 833.115 L816.57 1521.01 L917.396 1521.01 L917.396 833.115 L816.57 833.115 L816.57 833.115  Z" fill="#009af9" fill-rule="evenodd" fill-opacity="1"/>
<polyline clip-path="url(#clip062)" style="stroke:#000000; stroke-linecap:round; stroke-linejoin:round; stroke-width:4; stroke-opacity:1; fill:none" points="816.57,833.115 816.57,1521.01 917.396,1521.01 917.396,833.115 816.57,833.115 "/>
<path clip-path="url(#clip062)" d="M917.396 518.767 L917.396 1521.01 L1018.22 1521.01 L1018.22 518.767 L917.396 518.767 L917.396 518.767  Z" fill="#009af9" fill-rule="evenodd" fill-opacity="1"/>
<polyline clip-path="url(#clip062)" style="stroke:#000000; stroke-linecap:round; stroke-linejoin:round; stroke-width:4; stroke-opacity:1; fill:none" points="917.396,518.767 917.396,1521.01 1018.22,1521.01 1018.22,518.767 917.396,518.767 "/>
<path clip-path="url(#clip062)" d="M1018.22 218.707 L1018.22 1521.01 L1119.05 1521.01 L1119.05 218.707 L1018.22 218.707 L1018.22 218.707  Z" fill="#009af9" fill-rule="evenodd" fill-opacity="1"/>
<polyline clip-path="url(#clip062)" style="stroke:#000000; stroke-linecap:round; stroke-linejoin:round; stroke-width:4; stroke-opacity:1; fill:none" points="1018.22,218.707 1018.22,1521.01 1119.05,1521.01 1119.05,218.707 1018.22,218.707 "/>
<path clip-path="url(#clip062)" d="M1119.05 122.769 L1119.05 1521.01 L1219.87 1521.01 L1219.87 122.769 L1119.05 122.769 L1119.05 122.769  Z" fill="#009af9" fill-rule="evenodd" fill-opacity="1"/>
<polyline clip-path="url(#clip062)" style="stroke:#000000; stroke-linecap:round; stroke-linejoin:round; stroke-width:4; stroke-opacity:1; fill:none" points="1119.05,122.769 1119.05,1521.01 1219.87,1521.01 1219.87,122.769 1119.05,122.769 "/>
<path clip-path="url(#clip062)" d="M1219.87 47.2441 L1219.87 1521.01 L1320.7 1521.01 L1320.7 47.2441 L1219.87 47.2441 L1219.87 47.2441  Z" fill="#009af9" fill-rule="evenodd" fill-opacity="1"/>
<polyline clip-path="url(#clip062)" style="stroke:#000000; stroke-linecap:round; stroke-linejoin:round; stroke-width:4; stroke-opacity:1; fill:none" points="1219.87,47.2441 1219.87,1521.01 1320.7,1521.01 1320.7,47.2441 1219.87,47.2441 "/>
<path clip-path="url(#clip062)" d="M1320.7 294.232 L1320.7 1521.01 L1421.53 1521.01 L1421.53 294.232 L1320.7 294.232 L1320.7 294.232  Z" fill="#009af9" fill-rule="evenodd" fill-opacity="1"/>
<polyline clip-path="url(#clip062)" style="stroke:#000000; stroke-linecap:round; stroke-linejoin:round; stroke-width:4; stroke-opacity:1; fill:none" points="1320.7,294.232 1320.7,1521.01 1421.53,1521.01 1421.53,294.232 1320.7,294.232 "/>
<path clip-path="url(#clip062)" d="M1421.53 518.767 L1421.53 1521.01 L1522.35 1521.01 L1522.35 518.767 L1421.53 518.767 L1421.53 518.767  Z" fill="#009af9" fill-rule="evenodd" fill-opacity="1"/>
<polyline clip-path="url(#clip062)" style="stroke:#000000; stroke-linecap:round; stroke-linejoin:round; stroke-width:4; stroke-opacity:1; fill:none" points="1421.53,518.767 1421.53,1521.01 1522.35,1521.01 1522.35,518.767 1421.53,518.767 "/>
<path clip-path="url(#clip062)" d="M1522.35 833.115 L1522.35 1521.01 L1623.18 1521.01 L1623.18 833.115 L1522.35 833.115 L1522.35 833.115  Z" fill="#009af9" fill-rule="evenodd" fill-opacity="1"/>
<polyline clip-path="url(#clip062)" style="stroke:#000000; stroke-linecap:round; stroke-linejoin:round; stroke-width:4; stroke-opacity:1; fill:none" points="1522.35,833.115 1522.35,1521.01 1623.18,1521.01 1623.18,833.115 1522.35,833.115 "/>
<path clip-path="url(#clip062)" d="M1623.18 1165.83 L1623.18 1521.01 L1724 1521.01 L1724 1165.83 L1623.18 1165.83 L1623.18 1165.83  Z" fill="#009af9" fill-rule="evenodd" fill-opacity="1"/>
<polyline clip-path="url(#clip062)" style="stroke:#000000; stroke-linecap:round; stroke-linejoin:round; stroke-width:4; stroke-opacity:1; fill:none" points="1623.18,1165.83 1623.18,1521.01 1724,1521.01 1724,1165.83 1623.18,1165.83 "/>
<path clip-path="url(#clip062)" d="M1724 1329.13 L1724 1521.01 L1824.83 1521.01 L1824.83 1329.13 L1724 1329.13 L1724 1329.13  Z" fill="#009af9" fill-rule="evenodd" fill-opacity="1"/>
<polyline clip-path="url(#clip062)" style="stroke:#000000; stroke-linecap:round; stroke-linejoin:round; stroke-width:4; stroke-opacity:1; fill:none" points="1724,1329.13 1724,1521.01 1824.83,1521.01 1824.83,1329.13 1724,1329.13 "/>
<path clip-path="url(#clip062)" d="M1824.83 1425.07 L1824.83 1521.01 L1925.66 1521.01 L1925.66 1425.07 L1824.83 1425.07 L1824.83 1425.07  Z" fill="#009af9" fill-rule="evenodd" fill-opacity="1"/>
<polyline clip-path="url(#clip062)" style="stroke:#000000; stroke-linecap:round; stroke-linejoin:round; stroke-width:4; stroke-opacity:1; fill:none" points="1824.83,1425.07 1824.83,1521.01 1925.66,1521.01 1925.66,1425.07 1824.83,1425.07 "/>
<path clip-path="url(#clip062)" d="M1925.66 1494.47 L1925.66 1521.01 L2026.48 1521.01 L2026.48 1494.47 L1925.66 1494.47 L1925.66 1494.47  Z" fill="#009af9" fill-rule="evenodd" fill-opacity="1"/>
<polyline clip-path="url(#clip062)" style="stroke:#000000; stroke-linecap:round; stroke-linejoin:round; stroke-width:4; stroke-opacity:1; fill:none" points="1925.66,1494.47 1925.66,1521.01 2026.48,1521.01 2026.48,1494.47 1925.66,1494.47 "/>
<path clip-path="url(#clip062)" d="M2026.48 1514.88 L2026.48 1521.01 L2127.31 1521.01 L2127.31 1514.88 L2026.48 1514.88 L2026.48 1514.88  Z" fill="#009af9" fill-rule="evenodd" fill-opacity="1"/>
<polyline clip-path="url(#clip062)" style="stroke:#000000; stroke-linecap:round; stroke-linejoin:round; stroke-width:4; stroke-opacity:1; fill:none" points="2026.48,1514.88 2026.48,1521.01 2127.31,1521.01 2127.31,1514.88 2026.48,1514.88 "/>
<path clip-path="url(#clip062)" d="M2127.31 1518.97 L2127.31 1521.01 L2228.13 1521.01 L2228.13 1518.97 L2127.31 1518.97 L2127.31 1518.97  Z" fill="#009af9" fill-rule="evenodd" fill-opacity="1"/>
<polyline clip-path="url(#clip062)" style="stroke:#000000; stroke-linecap:round; stroke-linejoin:round; stroke-width:4; stroke-opacity:1; fill:none" points="2127.31,1518.97 2127.31,1521.01 2228.13,1521.01 2228.13,1518.97 2127.31,1518.97 "/>
<circle clip-path="url(#clip062)" style="fill:#009af9; stroke:none; fill-opacity:0" cx="262.026" cy="1516.93" r="2"/>
<circle clip-path="url(#clip062)" style="fill:#009af9; stroke:none; fill-opacity:0" cx="362.852" cy="1514.88" r="2"/>
<circle clip-path="url(#clip062)" style="fill:#009af9; stroke:none; fill-opacity:0" cx="463.678" cy="1482.22" r="2"/>
<circle clip-path="url(#clip062)" style="fill:#009af9; stroke:none; fill-opacity:0" cx="564.504" cy="1429.15" r="2"/>
<circle clip-path="url(#clip062)" style="fill:#009af9; stroke:none; fill-opacity:0" cx="665.331" cy="1294.43" r="2"/>
<circle clip-path="url(#clip062)" style="fill:#009af9; stroke:none; fill-opacity:0" cx="766.157" cy="1141.34" r="2"/>
<circle clip-path="url(#clip062)" style="fill:#009af9; stroke:none; fill-opacity:0" cx="866.983" cy="833.115" r="2"/>
<circle clip-path="url(#clip062)" style="fill:#009af9; stroke:none; fill-opacity:0" cx="967.809" cy="518.767" r="2"/>
<circle clip-path="url(#clip062)" style="fill:#009af9; stroke:none; fill-opacity:0" cx="1068.63" cy="218.707" r="2"/>
<circle clip-path="url(#clip062)" style="fill:#009af9; stroke:none; fill-opacity:0" cx="1169.46" cy="122.769" r="2"/>
<circle clip-path="url(#clip062)" style="fill:#009af9; stroke:none; fill-opacity:0" cx="1270.29" cy="47.2441" r="2"/>
<circle clip-path="url(#clip062)" style="fill:#009af9; stroke:none; fill-opacity:0" cx="1371.11" cy="294.232" r="2"/>
<circle clip-path="url(#clip062)" style="fill:#009af9; stroke:none; fill-opacity:0" cx="1471.94" cy="518.767" r="2"/>
<circle clip-path="url(#clip062)" style="fill:#009af9; stroke:none; fill-opacity:0" cx="1572.77" cy="833.115" r="2"/>
<circle clip-path="url(#clip062)" style="fill:#009af9; stroke:none; fill-opacity:0" cx="1673.59" cy="1165.83" r="2"/>
<circle clip-path="url(#clip062)" style="fill:#009af9; stroke:none; fill-opacity:0" cx="1774.42" cy="1329.13" r="2"/>
<circle clip-path="url(#clip062)" style="fill:#009af9; stroke:none; fill-opacity:0" cx="1875.24" cy="1425.07" r="2"/>
<circle clip-path="url(#clip062)" style="fill:#009af9; stroke:none; fill-opacity:0" cx="1976.07" cy="1494.47" r="2"/>
<circle clip-path="url(#clip062)" style="fill:#009af9; stroke:none; fill-opacity:0" cx="2076.9" cy="1514.88" r="2"/>
<circle clip-path="url(#clip062)" style="fill:#009af9; stroke:none; fill-opacity:0" cx="2177.72" cy="1518.97" r="2"/>
<path clip-path="url(#clip060)" d="M1700.33 200.05 L2277.23 200.05 L2277.23 96.3696 L1700.33 96.3696  Z" fill="#ffffff" fill-rule="evenodd" fill-opacity="1"/>
<polyline clip-path="url(#clip060)" style="stroke:#000000; stroke-linecap:round; stroke-linejoin:round; stroke-width:4; stroke-opacity:1; fill:none" points="1700.33,200.05 2277.23,200.05 2277.23,96.3696 1700.33,96.3696 1700.33,200.05 "/>
<path clip-path="url(#clip060)" d="M1725.51 168.946 L1876.56 168.946 L1876.56 127.474 L1725.51 127.474 L1725.51 168.946  Z" fill="#009af9" fill-rule="evenodd" fill-opacity="1"/>
<polyline clip-path="url(#clip060)" style="stroke:#000000; stroke-linecap:round; stroke-linejoin:round; stroke-width:4; stroke-opacity:1; fill:none" points="1725.51,168.946 1876.56,168.946 1876.56,127.474 1725.51,127.474 1725.51,168.946 "/>
<path clip-path="url(#clip060)" d="M1920.16 140.328 L1920.16 144.355 Q1918.35 143.429 1916.41 142.967 Q1914.46 142.504 1912.38 142.504 Q1909.21 142.504 1907.61 143.476 Q1906.04 144.448 1906.04 146.392 Q1906.04 147.874 1907.17 148.73 Q1908.31 149.564 1911.73 150.328 L1913.19 150.652 Q1917.73 151.624 1919.63 153.406 Q1921.55 155.166 1921.55 158.337 Q1921.55 161.948 1918.68 164.054 Q1915.83 166.161 1910.83 166.161 Q1908.75 166.161 1906.48 165.744 Q1904.23 165.351 1901.73 164.54 L1901.73 160.142 Q1904.09 161.369 1906.39 161.994 Q1908.68 162.596 1910.92 162.596 Q1913.93 162.596 1915.55 161.578 Q1917.17 160.536 1917.17 158.661 Q1917.17 156.925 1915.99 155.999 Q1914.83 155.073 1910.88 154.216 L1909.4 153.869 Q1905.44 153.036 1903.68 151.323 Q1901.92 149.587 1901.92 146.578 Q1901.92 142.92 1904.51 140.93 Q1907.1 138.939 1911.87 138.939 Q1914.23 138.939 1916.32 139.286 Q1918.4 139.633 1920.16 140.328 Z" fill="#000000" fill-rule="nonzero" fill-opacity="1" /><path clip-path="url(#clip060)" d="M1940.11 152.457 Q1934.95 152.457 1932.96 153.638 Q1930.97 154.818 1930.97 157.666 Q1930.97 159.934 1932.45 161.277 Q1933.96 162.596 1936.52 162.596 Q1940.07 162.596 1942.2 160.096 Q1944.35 157.573 1944.35 153.406 L1944.35 152.457 L1940.11 152.457 M1948.61 150.698 L1948.61 165.49 L1944.35 165.49 L1944.35 161.554 Q1942.89 163.915 1940.71 165.05 Q1938.54 166.161 1935.39 166.161 Q1931.41 166.161 1929.05 163.939 Q1926.71 161.693 1926.71 157.943 Q1926.71 153.568 1929.63 151.346 Q1932.57 149.124 1938.38 149.124 L1944.35 149.124 L1944.35 148.707 Q1944.35 145.767 1942.4 144.17 Q1940.48 142.55 1936.99 142.55 Q1934.77 142.55 1932.66 143.082 Q1930.55 143.615 1928.61 144.679 L1928.61 140.744 Q1930.95 139.842 1933.14 139.402 Q1935.34 138.939 1937.43 138.939 Q1943.05 138.939 1945.83 141.855 Q1948.61 144.772 1948.61 150.698 Z" fill="#000000" fill-rule="nonzero" fill-opacity="1" /><path clip-path="url(#clip060)" d="M1977.57 144.541 Q1979.16 141.67 1981.39 140.305 Q1983.61 138.939 1986.62 138.939 Q1990.67 138.939 1992.87 141.786 Q1995.07 144.61 1995.07 149.841 L1995.07 165.49 L1990.78 165.49 L1990.78 149.98 Q1990.78 146.254 1989.46 144.448 Q1988.14 142.642 1985.44 142.642 Q1982.13 142.642 1980.2 144.842 Q1978.28 147.041 1978.28 150.837 L1978.28 165.49 L1974 165.49 L1974 149.98 Q1974 146.23 1972.68 144.448 Q1971.36 142.642 1968.61 142.642 Q1965.34 142.642 1963.42 144.865 Q1961.5 147.064 1961.5 150.837 L1961.5 165.49 L1957.22 165.49 L1957.22 139.564 L1961.5 139.564 L1961.5 143.592 Q1962.96 141.207 1965 140.073 Q1967.03 138.939 1969.83 138.939 Q1972.66 138.939 1974.63 140.374 Q1976.62 141.809 1977.57 144.541 Z" fill="#000000" fill-rule="nonzero" fill-opacity="1" /><path clip-path="url(#clip060)" d="M2007.68 161.601 L2007.68 175.351 L2003.4 175.351 L2003.4 139.564 L2007.68 139.564 L2007.68 143.499 Q2009.02 141.184 2011.06 140.073 Q2013.12 138.939 2015.97 138.939 Q2020.69 138.939 2023.63 142.689 Q2026.59 146.439 2026.59 152.55 Q2026.59 158.661 2023.63 162.411 Q2020.69 166.161 2015.97 166.161 Q2013.12 166.161 2011.06 165.05 Q2009.02 163.915 2007.68 161.601 M2022.17 152.55 Q2022.17 147.851 2020.23 145.189 Q2018.31 142.504 2014.93 142.504 Q2011.55 142.504 2009.6 145.189 Q2007.68 147.851 2007.68 152.55 Q2007.68 157.249 2009.6 159.934 Q2011.55 162.596 2014.93 162.596 Q2018.31 162.596 2020.23 159.934 Q2022.17 157.249 2022.17 152.55 Z" fill="#000000" fill-rule="nonzero" fill-opacity="1" /><path clip-path="url(#clip060)" d="M2033.65 129.471 L2037.91 129.471 L2037.91 165.49 L2033.65 165.49 L2033.65 129.471 Z" fill="#000000" fill-rule="nonzero" fill-opacity="1" /><path clip-path="url(#clip060)" d="M2069 151.462 L2069 153.545 L2049.42 153.545 Q2049.7 157.943 2052.06 160.258 Q2054.44 162.55 2058.68 162.55 Q2061.13 162.55 2063.42 161.948 Q2065.74 161.346 2068.01 160.142 L2068.01 164.17 Q2065.71 165.142 2063.31 165.652 Q2060.9 166.161 2058.42 166.161 Q2052.22 166.161 2048.58 162.55 Q2044.97 158.939 2044.97 152.781 Q2044.97 146.416 2048.4 142.689 Q2051.85 138.939 2057.68 138.939 Q2062.91 138.939 2065.95 142.318 Q2069 145.675 2069 151.462 M2064.74 150.212 Q2064.7 146.717 2062.77 144.633 Q2060.88 142.55 2057.73 142.55 Q2054.16 142.55 2052.01 144.564 Q2049.88 146.578 2049.56 150.235 L2064.74 150.212 Z" fill="#000000" fill-rule="nonzero" fill-opacity="1" /><path clip-path="url(#clip060)" d="M2095.69 173.36 L2095.69 176.67 L2071.06 176.67 L2071.06 173.36 L2095.69 173.36 Z" fill="#000000" fill-rule="nonzero" fill-opacity="1" /><path clip-path="url(#clip060)" d="M2119.88 144.541 Q2121.48 141.67 2123.7 140.305 Q2125.92 138.939 2128.93 138.939 Q2132.98 138.939 2135.18 141.786 Q2137.38 144.61 2137.38 149.841 L2137.38 165.49 L2133.1 165.49 L2133.1 149.98 Q2133.1 146.254 2131.78 144.448 Q2130.46 142.642 2127.75 142.642 Q2124.44 142.642 2122.52 144.842 Q2120.6 147.041 2120.6 150.837 L2120.6 165.49 L2116.32 165.49 L2116.32 149.98 Q2116.32 146.23 2115 144.448 Q2113.68 142.642 2110.92 142.642 Q2107.66 142.642 2105.74 144.865 Q2103.82 147.064 2103.82 150.837 L2103.82 165.49 L2099.53 165.49 L2099.53 139.564 L2103.82 139.564 L2103.82 143.592 Q2105.27 141.207 2107.31 140.073 Q2109.35 138.939 2112.15 138.939 Q2114.97 138.939 2116.94 140.374 Q2118.93 141.809 2119.88 144.541 Z" fill="#000000" fill-rule="nonzero" fill-opacity="1" /><path clip-path="url(#clip060)" d="M2168.05 151.462 L2168.05 153.545 L2148.47 153.545 Q2148.75 157.943 2151.11 160.258 Q2153.49 162.55 2157.73 162.55 Q2160.18 162.55 2162.47 161.948 Q2164.79 161.346 2167.06 160.142 L2167.06 164.17 Q2164.76 165.142 2162.36 165.652 Q2159.95 166.161 2157.47 166.161 Q2151.27 166.161 2147.63 162.55 Q2144.02 158.939 2144.02 152.781 Q2144.02 146.416 2147.45 142.689 Q2150.9 138.939 2156.73 138.939 Q2161.96 138.939 2165 142.318 Q2168.05 145.675 2168.05 151.462 M2163.79 150.212 Q2163.75 146.717 2161.82 144.633 Q2159.93 142.55 2156.78 142.55 Q2153.21 142.55 2151.06 144.564 Q2148.93 146.578 2148.61 150.235 L2163.79 150.212 Z" fill="#000000" fill-rule="nonzero" fill-opacity="1" /><path clip-path="url(#clip060)" d="M2186.82 152.457 Q2181.66 152.457 2179.67 153.638 Q2177.68 154.818 2177.68 157.666 Q2177.68 159.934 2179.16 161.277 Q2180.67 162.596 2183.24 162.596 Q2186.78 162.596 2188.91 160.096 Q2191.06 157.573 2191.06 153.406 L2191.06 152.457 L2186.82 152.457 M2195.32 150.698 L2195.32 165.49 L2191.06 165.49 L2191.06 161.554 Q2189.6 163.915 2187.43 165.05 Q2185.25 166.161 2182.1 166.161 Q2178.12 166.161 2175.76 163.939 Q2173.42 161.693 2173.42 157.943 Q2173.42 153.568 2176.34 151.346 Q2179.28 149.124 2185.09 149.124 L2191.06 149.124 L2191.06 148.707 Q2191.06 145.767 2189.12 144.17 Q2187.19 142.55 2183.7 142.55 Q2181.48 142.55 2179.37 143.082 Q2177.26 143.615 2175.32 144.679 L2175.32 140.744 Q2177.66 139.842 2179.86 139.402 Q2182.06 138.939 2184.14 138.939 Q2189.76 138.939 2192.54 141.855 Q2195.32 144.772 2195.32 150.698 Z" fill="#000000" fill-rule="nonzero" fill-opacity="1" /><path clip-path="url(#clip060)" d="M2225.64 149.841 L2225.64 165.49 L2221.38 165.49 L2221.38 149.98 Q2221.38 146.3 2219.95 144.471 Q2218.51 142.642 2215.64 142.642 Q2212.19 142.642 2210.2 144.842 Q2208.21 147.041 2208.21 150.837 L2208.21 165.49 L2203.93 165.49 L2203.93 139.564 L2208.21 139.564 L2208.21 143.592 Q2209.74 141.254 2211.8 140.096 Q2213.88 138.939 2216.59 138.939 Q2221.06 138.939 2223.35 141.717 Q2225.64 144.471 2225.64 149.841 Z" fill="#000000" fill-rule="nonzero" fill-opacity="1" /><path clip-path="url(#clip060)" d="M2250.67 140.328 L2250.67 144.355 Q2248.86 143.429 2246.92 142.967 Q2244.97 142.504 2242.89 142.504 Q2239.72 142.504 2238.12 143.476 Q2236.55 144.448 2236.55 146.392 Q2236.55 147.874 2237.68 148.73 Q2238.81 149.564 2242.24 150.328 L2243.7 150.652 Q2248.24 151.624 2250.13 153.406 Q2252.06 155.166 2252.06 158.337 Q2252.06 161.948 2249.18 164.054 Q2246.34 166.161 2241.34 166.161 Q2239.25 166.161 2236.99 165.744 Q2234.74 165.351 2232.24 164.54 L2232.24 160.142 Q2234.6 161.369 2236.89 161.994 Q2239.18 162.596 2241.43 162.596 Q2244.44 162.596 2246.06 161.578 Q2247.68 160.536 2247.68 158.661 Q2247.68 156.925 2246.5 155.999 Q2245.34 155.073 2241.38 154.216 L2239.9 153.869 Q2235.94 153.036 2234.19 151.323 Q2232.43 149.587 2232.43 146.578 Q2232.43 142.92 2235.02 140.93 Q2237.61 138.939 2242.38 138.939 Q2244.74 138.939 2246.82 139.286 Q2248.91 139.633 2250.67 140.328 Z" fill="#000000" fill-rule="nonzero" fill-opacity="1" /></svg>
