<?xml version="1.0" encoding="utf-8"?>
<svg xmlns="http://www.w3.org/2000/svg" xmlns:xlink="http://www.w3.org/1999/xlink" width="600" height="400" viewBox="0 0 2400 1600">
<defs>
  <clipPath id="clip540">
    <rect x="0" y="0" width="2400" height="1600"/>
  </clipPath>
</defs>
<path clip-path="url(#clip540)" d="M0 1600 L2400 1600 L2400 0 L0 0  Z" fill="#ffffff" fill-rule="evenodd" fill-opacity="1"/>
<defs>
  <clipPath id="clip541">
    <rect x="480" y="0" width="1681" height="1600"/>
  </clipPath>
</defs>
<path clip-path="url(#clip540)" d="M86.9921 1521.01 L2352.76 1521.01 L2352.76 47.2441 L86.9921 47.2441  Z" fill="#ffffff" fill-rule="evenodd" fill-opacity="1"/>
<defs>
  <clipPath id="clip542">
    <rect x="86" y="47" width="2267" height="1475"/>
  </clipPath>
</defs>
<polyline clip-path="url(#clip542)" style="stroke:#000000; stroke-linecap:round; stroke-linejoin:round; stroke-width:2; stroke-opacity:0.1; fill:none" points="357.746,1521.01 357.746,47.2441 "/>
<polyline clip-path="url(#clip542)" style="stroke:#000000; stroke-linecap:round; stroke-linejoin:round; stroke-width:2; stroke-opacity:0.1; fill:none" points="645.122,1521.01 645.122,47.2441 "/>
<polyline clip-path="url(#clip542)" style="stroke:#000000; stroke-linecap:round; stroke-linejoin:round; stroke-width:2; stroke-opacity:0.1; fill:none" points="932.498,1521.01 932.498,47.2441 "/>
<polyline clip-path="url(#clip542)" style="stroke:#000000; stroke-linecap:round; stroke-linejoin:round; stroke-width:2; stroke-opacity:0.1; fill:none" points="1219.87,1521.01 1219.87,47.2441 "/>
<polyline clip-path="url(#clip542)" style="stroke:#000000; stroke-linecap:round; stroke-linejoin:round; stroke-width:2; stroke-opacity:0.1; fill:none" points="1507.25,1521.01 1507.25,47.2441 "/>
<polyline clip-path="url(#clip542)" style="stroke:#000000; stroke-linecap:round; stroke-linejoin:round; stroke-width:2; stroke-opacity:0.1; fill:none" points="1794.63,1521.01 1794.63,47.2441 "/>
<polyline clip-path="url(#clip542)" style="stroke:#000000; stroke-linecap:round; stroke-linejoin:round; stroke-width:2; stroke-opacity:0.1; fill:none" points="2082,1521.01 2082,47.2441 "/>
<polyline clip-path="url(#clip540)" style="stroke:#000000; stroke-linecap:round; stroke-linejoin:round; stroke-width:4; stroke-opacity:1; fill:none" points="86.9921,1521.01 2352.76,1521.01 "/>
<polyline clip-path="url(#clip540)" style="stroke:#000000; stroke-linecap:round; stroke-linejoin:round; stroke-width:4; stroke-opacity:1; fill:none" points="357.746,1521.01 357.746,1502.11 "/>
<polyline clip-path="url(#clip540)" style="stroke:#000000; stroke-linecap:round; stroke-linejoin:round; stroke-width:4; stroke-opacity:1; fill:none" points="645.122,1521.01 645.122,1502.11 "/>
<polyline clip-path="url(#clip540)" style="stroke:#000000; stroke-linecap:round; stroke-linejoin:round; stroke-width:4; stroke-opacity:1; fill:none" points="932.498,1521.01 932.498,1502.11 "/>
<polyline clip-path="url(#clip540)" style="stroke:#000000; stroke-linecap:round; stroke-linejoin:round; stroke-width:4; stroke-opacity:1; fill:none" points="1219.87,1521.01 1219.87,1502.11 "/>
<polyline clip-path="url(#clip540)" style="stroke:#000000; stroke-linecap:round; stroke-linejoin:round; stroke-width:4; stroke-opacity:1; fill:none" points="1507.25,1521.01 1507.25,1502.11 "/>
<polyline clip-path="url(#clip540)" style="stroke:#000000; stroke-linecap:round; stroke-linejoin:round; stroke-width:4; stroke-opacity:1; fill:none" points="1794.63,1521.01 1794.63,1502.11 "/>
<polyline clip-path="url(#clip540)" style="stroke:#000000; stroke-linecap:round; stroke-linejoin:round; stroke-width:4; stroke-opacity:1; fill:none" points="2082,1521.01 2082,1502.11 "/>
<path clip-path="url(#clip540)" d="M327.213 1566.58 L356.889 1566.58 L356.889 1570.51 L327.213 1570.51 L327.213 1566.58 Z" fill="#000000" fill-rule="nonzero" fill-opacity="1" /><path clip-path="url(#clip540)" d="M381.148 1564.77 Q384.505 1565.49 386.38 1567.76 Q388.278 1570.03 388.278 1573.36 Q388.278 1578.48 384.759 1581.28 Q381.241 1584.08 374.759 1584.08 Q372.584 1584.08 370.269 1583.64 Q367.977 1583.22 365.523 1582.37 L365.523 1577.85 Q367.468 1578.99 369.783 1579.57 Q372.097 1580.14 374.621 1580.14 Q379.019 1580.14 381.31 1578.41 Q383.625 1576.67 383.625 1573.36 Q383.625 1570.31 381.472 1568.59 Q379.343 1566.86 375.523 1566.86 L371.496 1566.86 L371.496 1563.01 L375.709 1563.01 Q379.158 1563.01 380.986 1561.65 Q382.815 1560.26 382.815 1557.67 Q382.815 1555.01 380.917 1553.59 Q379.042 1552.16 375.523 1552.16 Q373.602 1552.16 371.403 1552.57 Q369.204 1552.99 366.565 1553.87 L366.565 1549.7 Q369.227 1548.96 371.542 1548.59 Q373.88 1548.22 375.94 1548.22 Q381.264 1548.22 384.366 1550.65 Q387.468 1553.06 387.468 1557.18 Q387.468 1560.05 385.824 1562.04 Q384.181 1564.01 381.148 1564.77 Z" fill="#000000" fill-rule="nonzero" fill-opacity="1" /><path clip-path="url(#clip540)" d="M615.064 1566.58 L644.74 1566.58 L644.74 1570.51 L615.064 1570.51 L615.064 1566.58 Z" fill="#000000" fill-rule="nonzero" fill-opacity="1" /><path clip-path="url(#clip540)" d="M658.86 1579.47 L675.18 1579.47 L675.18 1583.41 L653.235 1583.41 L653.235 1579.47 Q655.897 1576.72 660.481 1572.09 Q665.087 1567.44 666.268 1566.09 Q668.513 1563.57 669.392 1561.83 Q670.295 1560.07 670.295 1558.38 Q670.295 1555.63 668.351 1553.89 Q666.43 1552.16 663.328 1552.16 Q661.129 1552.16 658.675 1552.92 Q656.244 1553.69 653.467 1555.24 L653.467 1550.51 Q656.291 1549.38 658.744 1548.8 Q661.198 1548.22 663.235 1548.22 Q668.605 1548.22 671.8 1550.91 Q674.994 1553.59 674.994 1558.08 Q674.994 1560.21 674.184 1562.13 Q673.397 1564.03 671.291 1566.63 Q670.712 1567.3 667.61 1570.51 Q664.508 1573.71 658.86 1579.47 Z" fill="#000000" fill-rule="nonzero" fill-opacity="1" /><path clip-path="url(#clip540)" d="M902.255 1566.58 L931.931 1566.58 L931.931 1570.51 L902.255 1570.51 L902.255 1566.58 Z" fill="#000000" fill-rule="nonzero" fill-opacity="1" /><path clip-path="url(#clip540)" d="M942.833 1579.47 L950.472 1579.47 L950.472 1553.11 L942.162 1554.77 L942.162 1550.51 L950.426 1548.85 L955.102 1548.85 L955.102 1579.47 L962.741 1579.47 L962.741 1583.41 L942.833 1583.41 L942.833 1579.47 Z" fill="#000000" fill-rule="nonzero" fill-opacity="1" /><path clip-path="url(#clip540)" d="M1219.87 1551.93 Q1216.26 1551.93 1214.43 1555.49 Q1212.63 1559.03 1212.63 1566.16 Q1212.63 1573.27 1214.43 1576.83 Q1216.26 1580.38 1219.87 1580.38 Q1223.51 1580.38 1225.31 1576.83 Q1227.14 1573.27 1227.14 1566.16 Q1227.14 1559.03 1225.31 1555.49 Q1223.51 1551.93 1219.87 1551.93 M1219.87 1548.22 Q1225.68 1548.22 1228.74 1552.83 Q1231.82 1557.41 1231.82 1566.16 Q1231.82 1574.89 1228.74 1579.5 Q1225.68 1584.08 1219.87 1584.08 Q1214.06 1584.08 1210.99 1579.5 Q1207.93 1574.89 1207.93 1566.16 Q1207.93 1557.41 1210.99 1552.83 Q1214.06 1548.22 1219.87 1548.22 Z" fill="#000000" fill-rule="nonzero" fill-opacity="1" /><path clip-path="url(#clip540)" d="M1497.63 1579.47 L1505.27 1579.47 L1505.27 1553.11 L1496.96 1554.77 L1496.96 1550.51 L1505.22 1548.85 L1509.9 1548.85 L1509.9 1579.47 L1517.54 1579.47 L1517.54 1583.41 L1497.63 1583.41 L1497.63 1579.47 Z" fill="#000000" fill-rule="nonzero" fill-opacity="1" /><path clip-path="url(#clip540)" d="M1789.28 1579.47 L1805.6 1579.47 L1805.6 1583.41 L1783.65 1583.41 L1783.65 1579.47 Q1786.32 1576.72 1790.9 1572.09 Q1795.51 1567.44 1796.69 1566.09 Q1798.93 1563.57 1799.81 1561.83 Q1800.71 1560.07 1800.71 1558.38 Q1800.71 1555.63 1798.77 1553.89 Q1796.85 1552.16 1793.75 1552.16 Q1791.55 1552.16 1789.09 1552.92 Q1786.66 1553.69 1783.89 1555.24 L1783.89 1550.51 Q1786.71 1549.38 1789.16 1548.8 Q1791.62 1548.22 1793.65 1548.22 Q1799.02 1548.22 1802.22 1550.91 Q1805.41 1553.59 1805.41 1558.08 Q1805.41 1560.21 1804.6 1562.13 Q1803.82 1564.03 1801.71 1566.63 Q1801.13 1567.3 1798.03 1570.51 Q1794.93 1573.71 1789.28 1579.47 Z" fill="#000000" fill-rule="nonzero" fill-opacity="1" /><path clip-path="url(#clip540)" d="M2086.25 1564.77 Q2089.61 1565.49 2091.48 1567.76 Q2093.38 1570.03 2093.38 1573.36 Q2093.38 1578.48 2089.86 1581.28 Q2086.34 1584.08 2079.86 1584.08 Q2077.69 1584.08 2075.37 1583.64 Q2073.08 1583.22 2070.63 1582.37 L2070.63 1577.85 Q2072.57 1578.99 2074.88 1579.57 Q2077.2 1580.14 2079.72 1580.14 Q2084.12 1580.14 2086.41 1578.41 Q2088.73 1576.67 2088.73 1573.36 Q2088.73 1570.31 2086.57 1568.59 Q2084.44 1566.86 2080.63 1566.86 L2076.6 1566.86 L2076.6 1563.01 L2080.81 1563.01 Q2084.26 1563.01 2086.09 1561.65 Q2087.92 1560.26 2087.92 1557.67 Q2087.92 1555.01 2086.02 1553.59 Q2084.14 1552.16 2080.63 1552.16 Q2078.7 1552.16 2076.5 1552.57 Q2074.31 1552.99 2071.67 1553.87 L2071.67 1549.7 Q2074.33 1548.96 2076.64 1548.59 Q2078.98 1548.22 2081.04 1548.22 Q2086.37 1548.22 2089.47 1550.65 Q2092.57 1553.06 2092.57 1557.18 Q2092.57 1560.05 2090.93 1562.04 Q2089.28 1564.01 2086.25 1564.77 Z" fill="#000000" fill-rule="nonzero" fill-opacity="1" /><polyline clip-path="url(#clip542)" style="stroke:#000000; stroke-linecap:round; stroke-linejoin:round; stroke-width:2; stroke-opacity:0.1; fill:none" points="86.9921,1480.68 2352.76,1480.68 "/>
<polyline clip-path="url(#clip542)" style="stroke:#000000; stroke-linecap:round; stroke-linejoin:round; stroke-width:2; stroke-opacity:0.1; fill:none" points="86.9921,1131.78 2352.76,1131.78 "/>
<polyline clip-path="url(#clip542)" style="stroke:#000000; stroke-linecap:round; stroke-linejoin:round; stroke-width:2; stroke-opacity:0.1; fill:none" points="86.9921,782.88 2352.76,782.88 "/>
<polyline clip-path="url(#clip542)" style="stroke:#000000; stroke-linecap:round; stroke-linejoin:round; stroke-width:2; stroke-opacity:0.1; fill:none" points="86.9921,433.981 2352.76,433.981 "/>
<polyline clip-path="url(#clip542)" style="stroke:#000000; stroke-linecap:round; stroke-linejoin:round; stroke-width:2; stroke-opacity:0.1; fill:none" points="86.9921,85.0822 2352.76,85.0822 "/>
<polyline clip-path="url(#clip540)" style="stroke:#000000; stroke-linecap:round; stroke-linejoin:round; stroke-width:4; stroke-opacity:1; fill:none" points="86.9921,1521.01 86.9921,47.2441 "/>
<polyline clip-path="url(#clip540)" style="stroke:#000000; stroke-linecap:round; stroke-linejoin:round; stroke-width:4; stroke-opacity:1; fill:none" points="86.9921,1480.68 105.89,1480.68 "/>
<polyline clip-path="url(#clip540)" style="stroke:#000000; stroke-linecap:round; stroke-linejoin:round; stroke-width:4; stroke-opacity:1; fill:none" points="86.9921,1131.78 105.89,1131.78 "/>
<polyline clip-path="url(#clip540)" style="stroke:#000000; stroke-linecap:round; stroke-linejoin:round; stroke-width:4; stroke-opacity:1; fill:none" points="86.9921,782.88 105.89,782.88 "/>
<polyline clip-path="url(#clip540)" style="stroke:#000000; stroke-linecap:round; stroke-linejoin:round; stroke-width:4; stroke-opacity:1; fill:none" points="86.9921,433.981 105.89,433.981 "/>
<polyline clip-path="url(#clip540)" style="stroke:#000000; stroke-linecap:round; stroke-linejoin:round; stroke-width:4; stroke-opacity:1; fill:none" points="86.9921,85.0822 105.89,85.0822 "/>
<path clip-path="url(#clip540)" d="M10.8708 1503.29 Q10.8708 1506.91 14.4356 1508.73 Q17.9773 1510.54 25.1068 1510.54 Q32.2133 1510.54 35.7781 1508.73 Q39.3197 1506.91 39.3197 1503.29 Q39.3197 1499.66 35.7781 1497.85 Q32.2133 1496.03 25.1068 1496.03 Q17.9773 1496.03 14.4356 1497.85 Q10.8708 1499.66 10.8708 1503.29 M7.16713 1503.29 Q7.16713 1497.48 11.7736 1494.43 Q16.3569 1491.35 25.1068 1491.35 Q33.8337 1491.35 38.4401 1494.43 Q43.0234 1497.48 43.0234 1503.29 Q43.0234 1509.1 38.4401 1512.18 Q33.8337 1515.24 25.1068 1515.24 Q16.3569 1515.24 11.7736 1512.18 Q7.16713 1509.1 7.16713 1503.29 Z" fill="#000000" fill-rule="nonzero" fill-opacity="1" /><path clip-path="url(#clip540)" d="M36.4725 1483.13 L36.4725 1478.25 L42.3521 1478.25 L42.3521 1483.13 L36.4725 1483.13 Z" fill="#000000" fill-rule="nonzero" fill-opacity="1" /><path clip-path="url(#clip540)" d="M10.8708 1458.06 Q10.8708 1461.67 14.4356 1463.5 Q17.9773 1465.31 25.1068 1465.31 Q32.2133 1465.31 35.7781 1463.5 Q39.3197 1461.67 39.3197 1458.06 Q39.3197 1454.43 35.7781 1452.62 Q32.2133 1450.79 25.1068 1450.79 Q17.9773 1450.79 14.4356 1452.62 Q10.8708 1454.43 10.8708 1458.06 M7.16713 1458.06 Q7.16713 1452.25 11.7736 1449.2 Q16.3569 1446.12 25.1068 1446.12 Q33.8337 1446.12 38.4401 1449.2 Q43.0234 1452.25 43.0234 1458.06 Q43.0234 1463.87 38.4401 1466.95 Q33.8337 1470.01 25.1068 1470.01 Q16.3569 1470.01 11.7736 1466.95 Q7.16713 1463.87 7.16713 1458.06 Z" fill="#000000" fill-rule="nonzero" fill-opacity="1" /><path clip-path="url(#clip540)" d="M10.8708 1153.78 Q10.8708 1157.39 14.4356 1159.22 Q17.9773 1161.03 25.1068 1161.03 Q32.2133 1161.03 35.7781 1159.22 Q39.3197 1157.39 39.3197 1153.78 Q39.3197 1150.15 35.7781 1148.34 Q32.2133 1146.51 25.1068 1146.51 Q17.9773 1146.51 14.4356 1148.34 Q10.8708 1150.15 10.8708 1153.78 M7.16713 1153.78 Q7.16713 1147.97 11.7736 1144.92 Q16.3569 1141.84 25.1068 1141.84 Q33.8337 1141.84 38.4401 1144.92 Q43.0234 1147.97 43.0234 1153.78 Q43.0234 1159.59 38.4401 1162.67 Q33.8337 1165.73 25.1068 1165.73 Q16.3569 1165.73 11.7736 1162.67 Q7.16713 1159.59 7.16713 1153.78 Z" fill="#000000" fill-rule="nonzero" fill-opacity="1" /><path clip-path="url(#clip540)" d="M36.4725 1133.62 L36.4725 1128.74 L42.3521 1128.74 L42.3521 1133.62 L36.4725 1133.62 Z" fill="#000000" fill-rule="nonzero" fill-opacity="1" /><path clip-path="url(#clip540)" d="M38.417 1117.74 L38.417 1110.1 L12.0514 1110.1 L13.718 1118.41 L9.45878 1118.41 L7.79213 1110.15 L7.79213 1105.47 L38.417 1105.47 L38.417 1097.83 L42.3521 1097.83 L42.3521 1117.74 L38.417 1117.74 Z" fill="#000000" fill-rule="nonzero" fill-opacity="1" /><path clip-path="url(#clip540)" d="M10.8708 804.697 Q10.8708 808.309 14.4356 810.137 Q17.9773 811.943 25.1068 811.943 Q32.2133 811.943 35.7781 810.137 Q39.3197 808.309 39.3197 804.697 Q39.3197 801.063 35.7781 799.258 Q32.2133 797.429 25.1068 797.429 Q17.9773 797.429 14.4356 799.258 Q10.8708 801.063 10.8708 804.697 M7.16713 804.697 Q7.16713 798.887 11.7736 795.832 Q16.3569 792.753 25.1068 792.753 Q33.8337 792.753 38.4401 795.832 Q43.0234 798.887 43.0234 804.697 Q43.0234 810.508 38.4401 813.586 Q33.8337 816.642 25.1068 816.642 Q16.3569 816.642 11.7736 813.586 Q7.16713 810.508 7.16713 804.697 Z" fill="#000000" fill-rule="nonzero" fill-opacity="1" /><path clip-path="url(#clip540)" d="M36.4725 784.536 L36.4725 779.651 L42.3521 779.651 L42.3521 784.536 L36.4725 784.536 Z" fill="#000000" fill-rule="nonzero" fill-opacity="1" /><path clip-path="url(#clip540)" d="M38.417 765.438 L38.417 749.119 L42.3521 749.119 L42.3521 771.063 L38.417 771.063 Q35.6623 768.401 31.0327 763.818 Q26.38 759.212 25.0374 758.031 Q22.5143 755.786 20.7782 754.906 Q19.0189 754.003 17.3291 754.003 Q14.5745 754.003 12.8384 755.948 Q11.1023 757.869 11.1023 760.971 Q11.1023 763.17 11.8662 765.624 Q12.6301 768.054 14.181 770.832 L9.45878 770.832 Q8.32453 768.008 7.74583 765.554 Q7.16713 763.1 7.16713 761.063 Q7.16713 755.693 9.8523 752.499 Q12.5375 749.304 17.0282 749.304 Q19.1578 749.304 21.0791 750.114 Q22.9772 750.901 25.5698 753.008 Q26.2411 753.587 29.4587 756.688 Q32.6531 759.79 38.417 765.438 Z" fill="#000000" fill-rule="nonzero" fill-opacity="1" /><path clip-path="url(#clip540)" d="M10.8708 456.273 Q10.8708 459.884 14.4356 461.713 Q17.9773 463.518 25.1068 463.518 Q32.2133 463.518 35.7781 461.713 Q39.3197 459.884 39.3197 456.273 Q39.3197 452.639 35.7781 450.833 Q32.2133 449.004 25.1068 449.004 Q17.9773 449.004 14.4356 450.833 Q10.8708 452.639 10.8708 456.273 M7.16713 456.273 Q7.16713 450.463 11.7736 447.407 Q16.3569 444.328 25.1068 444.328 Q33.8337 444.328 38.4401 447.407 Q43.0234 450.463 43.0234 456.273 Q43.0234 462.083 38.4401 465.162 Q33.8337 468.217 25.1068 468.217 Q16.3569 468.217 11.7736 465.162 Q7.16713 462.083 7.16713 456.273 Z" fill="#000000" fill-rule="nonzero" fill-opacity="1" /><path clip-path="url(#clip540)" d="M36.4725 436.111 L36.4725 431.227 L42.3521 431.227 L42.3521 436.111 L36.4725 436.111 Z" fill="#000000" fill-rule="nonzero" fill-opacity="1" /><path clip-path="url(#clip540)" d="M23.718 406.875 Q24.4356 403.519 26.7041 401.644 Q28.9726 399.745 32.3059 399.745 Q37.4216 399.745 40.2225 403.264 Q43.0234 406.782 43.0234 413.264 Q43.0234 415.44 42.5836 417.755 Q42.1669 420.046 41.3105 422.5 L36.7966 422.5 Q37.9309 420.555 38.5096 418.241 Q39.0883 415.926 39.0883 413.403 Q39.0883 409.005 37.3522 406.713 Q35.6161 404.398 32.3059 404.398 Q29.2503 404.398 27.5374 406.551 Q25.8013 408.681 25.8013 412.5 L25.8013 416.528 L21.9587 416.528 L21.9587 412.315 Q21.9587 408.866 20.593 407.037 Q19.2041 405.208 16.6115 405.208 Q13.9495 405.208 12.5375 407.106 Q11.1023 408.981 11.1023 412.5 Q11.1023 414.421 11.519 416.62 Q11.9356 418.819 12.8152 421.458 L8.6486 421.458 Q7.90787 418.796 7.5375 416.481 Q7.16713 414.143 7.16713 412.083 Q7.16713 406.759 9.59767 403.657 Q12.0051 400.556 16.1254 400.556 Q18.9958 400.556 20.9865 402.199 Q22.9541 403.843 23.718 406.875 Z" fill="#000000" fill-rule="nonzero" fill-opacity="1" /><path clip-path="url(#clip540)" d="M10.8708 107.941 Q10.8708 111.552 14.4356 113.381 Q17.9773 115.186 25.1068 115.186 Q32.2133 115.186 35.7781 113.381 Q39.3197 111.552 39.3197 107.941 Q39.3197 104.307 35.7781 102.501 Q32.2133 100.672 25.1068 100.672 Q17.9773 100.672 14.4356 102.501 Q10.8708 104.307 10.8708 107.941 M7.16713 107.941 Q7.16713 102.131 11.7736 99.0752 Q16.3569 95.9965 25.1068 95.9965 Q33.8337 95.9965 38.4401 99.0752 Q43.0234 102.131 43.0234 107.941 Q43.0234 113.751 38.4401 116.83 Q33.8337 119.885 25.1068 119.885 Q16.3569 119.885 11.7736 116.83 Q7.16713 113.751 7.16713 107.941 Z" fill="#000000" fill-rule="nonzero" fill-opacity="1" /><path clip-path="url(#clip540)" d="M36.4725 87.779 L36.4725 82.8947 L42.3521 82.8947 L42.3521 87.779 L36.4725 87.779 Z" fill="#000000" fill-rule="nonzero" fill-opacity="1" /><path clip-path="url(#clip540)" d="M11.8662 59.8624 L30.3152 71.6679 L30.3152 59.8624 L11.8662 59.8624 M7.79213 61.0893 L7.79213 55.2097 L30.3152 55.2097 L30.3152 50.2792 L34.204 50.2792 L34.204 55.2097 L42.3521 55.2097 L42.3521 59.8624 L34.204 59.8624 L34.204 75.4642 L29.6902 75.4642 L7.79213 61.0893 Z" fill="#000000" fill-rule="nonzero" fill-opacity="1" /><polyline clip-path="url(#clip542)" style="stroke:#009af9; stroke-linecap:round; stroke-linejoin:round; stroke-width:4; stroke-opacity:1; fill:none" points="151.118,1479.3 158.076,1479.17 165.034,1479.03 229.372,1477.01 293.711,1472.95 332.376,1468.86 371.04,1462.93 403.731,1456.01 436.422,1446.82 454.177,1440.68 471.933,1433.61 489.688,1425.51 507.444,1416.25 523.813,1406.6 540.182,1395.78 556.551,1383.7 572.92,1370.25 590.469,1354.21 608.019,1336.38 625.568,1316.65 643.117,1294.92 663.45,1267.11 683.783,1236.37 704.115,1202.59 724.448,1165.73 742.517,1130.37 760.586,1092.57 778.656,1052.39 796.725,1009.91 812.57,970.872 828.415,930.272 844.26,888.241 860.105,844.937 894.656,746.994 929.207,646.112 963.963,544.387 998.719,445.515 1008.33,419.132 1017.93,393.293 1027.54,368.068 1037.15,343.53 1046.75,319.749 1056.36,296.794 1065.97,274.734 1075.57,253.635 1084.71,234.511 1093.86,216.368 1103,199.258 1112.14,183.23 1121.28,168.33 1130.42,154.601 1139.56,142.084 1148.7,130.814 1158.2,120.456 1167.71,111.517 1177.21,104.026 1186.72,98.0068 1196.22,93.4794 1205.72,90.4587 1215.23,88.9544 1224.73,88.9715 1232.73,90.1655 1240.73,92.4348 1248.73,95.7742 1256.74,100.176 1264.74,105.63 1272.74,112.123 1280.74,119.641 1288.74,128.167 1298.5,139.913 1308.27,153.091 1318.04,167.658 1327.81,183.564 1337.58,200.757 1347.34,219.181 1357.11,238.774 1366.88,259.475 1384.77,300.055 1402.67,343.704 1411.62,366.541 1420.57,389.977 1429.51,413.955 1438.46,438.416 1471.52,532.029 1504.57,628.582 1538.06,726.614 1571.54,822.367 1590.31,874.214 1609.07,924.354 1627.83,972.52 1646.6,1018.49 1663.6,1058.1 1680.6,1095.67 1697.61,1131.13 1714.61,1164.42 1734.08,1199.88 1753.54,1232.5 1773.01,1262.34 1792.48,1289.47 1810.5,1312.27 1828.53,1332.92 1846.55,1351.56 1864.58,1368.29 1882.35,1383.03 1900.12,1396.17 1917.89,1407.81 1935.66,1418.09 1952.91,1426.88 1970.16,1434.61 1987.42,1441.36 2004.67,1447.25 2040.04,1456.97 2075.42,1464.12 2114.17,1469.7 2152.93,1473.53 2209.23,1476.96 2265.53,1478.82 2277.08,1479.08 2288.63,1479.3 "/>
<path clip-path="url(#clip540)" d="M1888.22 200.05 L2277.23 200.05 L2277.23 96.3696 L1888.22 96.3696  Z" fill="#ffffff" fill-rule="evenodd" fill-opacity="1"/>
<polyline clip-path="url(#clip540)" style="stroke:#000000; stroke-linecap:round; stroke-linejoin:round; stroke-width:4; stroke-opacity:1; fill:none" points="1888.22,200.05 2277.23,200.05 2277.23,96.3696 1888.22,96.3696 1888.22,200.05 "/>
<polyline clip-path="url(#clip540)" style="stroke:#009af9; stroke-linecap:round; stroke-linejoin:round; stroke-width:4; stroke-opacity:1; fill:none" points="1913.4,148.21 2064.45,148.21 "/>
<path clip-path="url(#clip540)" d="M2089.63 130.93 L2095.92 130.93 L2111.25 159.841 L2111.25 130.93 L2115.78 130.93 L2115.78 165.49 L2109.49 165.49 L2094.16 136.578 L2094.16 165.49 L2089.63 165.49 L2089.63 130.93 Z" fill="#000000" fill-rule="nonzero" fill-opacity="1" /><path clip-path="url(#clip540)" d="M2134.95 142.55 Q2131.52 142.55 2129.53 145.235 Q2127.54 147.897 2127.54 152.55 Q2127.54 157.203 2129.51 159.888 Q2131.5 162.55 2134.95 162.55 Q2138.35 162.55 2140.34 159.865 Q2142.33 157.179 2142.33 152.55 Q2142.33 147.943 2140.34 145.258 Q2138.35 142.55 2134.95 142.55 M2134.95 138.939 Q2140.5 138.939 2143.68 142.55 Q2146.85 146.161 2146.85 152.55 Q2146.85 158.916 2143.68 162.55 Q2140.5 166.161 2134.95 166.161 Q2129.37 166.161 2126.2 162.55 Q2123.05 158.916 2123.05 152.55 Q2123.05 146.161 2126.2 142.55 Q2129.37 138.939 2134.95 138.939 Z" fill="#000000" fill-rule="nonzero" fill-opacity="1" /><path clip-path="url(#clip540)" d="M2168.93 143.545 Q2168.21 143.129 2167.36 142.943 Q2166.52 142.735 2165.5 142.735 Q2161.89 142.735 2159.95 145.096 Q2158.03 147.434 2158.03 151.832 L2158.03 165.49 L2153.75 165.49 L2153.75 139.564 L2158.03 139.564 L2158.03 143.592 Q2159.37 141.23 2161.52 140.096 Q2163.68 138.939 2166.75 138.939 Q2167.19 138.939 2167.73 139.008 Q2168.26 139.055 2168.91 139.17 L2168.93 143.545 Z" fill="#000000" fill-rule="nonzero" fill-opacity="1" /><path clip-path="url(#clip540)" d="M2192.75 144.541 Q2194.35 141.67 2196.57 140.305 Q2198.79 138.939 2201.8 138.939 Q2205.85 138.939 2208.05 141.786 Q2210.25 144.61 2210.25 149.841 L2210.25 165.49 L2205.97 165.49 L2205.97 149.98 Q2205.97 146.254 2204.65 144.448 Q2203.33 142.642 2200.62 142.642 Q2197.31 142.642 2195.39 144.842 Q2193.47 147.041 2193.47 150.837 L2193.47 165.49 L2189.19 165.49 L2189.19 149.98 Q2189.19 146.23 2187.87 144.448 Q2186.55 142.642 2183.79 142.642 Q2180.53 142.642 2178.61 144.865 Q2176.69 147.064 2176.69 150.837 L2176.69 165.49 L2172.4 165.49 L2172.4 139.564 L2176.69 139.564 L2176.69 143.592 Q2178.14 141.207 2180.18 140.073 Q2182.22 138.939 2185.02 138.939 Q2187.84 138.939 2189.81 140.374 Q2191.8 141.809 2192.75 144.541 Z" fill="#000000" fill-rule="nonzero" fill-opacity="1" /><path clip-path="url(#clip540)" d="M2230.53 152.457 Q2225.37 152.457 2223.37 153.638 Q2221.38 154.818 2221.38 157.666 Q2221.38 159.934 2222.87 161.277 Q2224.37 162.596 2226.94 162.596 Q2230.48 162.596 2232.61 160.096 Q2234.76 157.573 2234.76 153.406 L2234.76 152.457 L2230.53 152.457 M2239.02 150.698 L2239.02 165.49 L2234.76 165.49 L2234.76 161.554 Q2233.31 163.915 2231.13 165.05 Q2228.95 166.161 2225.81 166.161 Q2221.82 166.161 2219.46 163.939 Q2217.12 161.693 2217.12 157.943 Q2217.12 153.568 2220.04 151.346 Q2222.98 149.124 2228.79 149.124 L2234.76 149.124 L2234.76 148.707 Q2234.76 145.767 2232.82 144.17 Q2230.9 142.55 2227.4 142.55 Q2225.18 142.55 2223.07 143.082 Q2220.97 143.615 2219.02 144.679 L2219.02 140.744 Q2221.36 139.842 2223.56 139.402 Q2225.76 138.939 2227.84 138.939 Q2233.47 138.939 2236.25 141.855 Q2239.02 144.772 2239.02 150.698 Z" fill="#000000" fill-rule="nonzero" fill-opacity="1" /><path clip-path="url(#clip540)" d="M2247.8 129.471 L2252.06 129.471 L2252.06 165.49 L2247.8 165.49 L2247.8 129.471 Z" fill="#000000" fill-rule="nonzero" fill-opacity="1" /></svg>
