<?xml version="1.0" encoding="utf-8"?>
<svg xmlns="http://www.w3.org/2000/svg" xmlns:xlink="http://www.w3.org/1999/xlink" width="600" height="400" viewBox="0 0 2400 1600">
<defs>
  <clipPath id="clip570">
    <rect x="0" y="0" width="2400" height="1600"/>
  </clipPath>
</defs>
<path clip-path="url(#clip570)" d="M0 1600 L2400 1600 L2400 0 L0 0  Z" fill="#ffffff" fill-rule="evenodd" fill-opacity="1"/>
<defs>
  <clipPath id="clip571">
    <rect x="480" y="0" width="1681" height="1600"/>
  </clipPath>
</defs>
<path clip-path="url(#clip570)" d="M86.9921 1521.01 L2352.76 1521.01 L2352.76 47.2441 L86.9921 47.2441  Z" fill="#ffffff" fill-rule="evenodd" fill-opacity="1"/>
<defs>
  <clipPath id="clip572">
    <rect x="86" y="47" width="2267" height="1475"/>
  </clipPath>
</defs>
<polyline clip-path="url(#clip572)" style="stroke:#000000; stroke-linecap:round; stroke-linejoin:round; stroke-width:2; stroke-opacity:0.1; fill:none" points="151.118,1521.01 151.118,47.2441 "/>
<polyline clip-path="url(#clip572)" style="stroke:#000000; stroke-linecap:round; stroke-linejoin:round; stroke-width:2; stroke-opacity:0.1; fill:none" points="863.622,1521.01 863.622,47.2441 "/>
<polyline clip-path="url(#clip572)" style="stroke:#000000; stroke-linecap:round; stroke-linejoin:round; stroke-width:2; stroke-opacity:0.1; fill:none" points="1576.13,1521.01 1576.13,47.2441 "/>
<polyline clip-path="url(#clip572)" style="stroke:#000000; stroke-linecap:round; stroke-linejoin:round; stroke-width:2; stroke-opacity:0.1; fill:none" points="2288.63,1521.01 2288.63,47.2441 "/>
<polyline clip-path="url(#clip570)" style="stroke:#000000; stroke-linecap:round; stroke-linejoin:round; stroke-width:4; stroke-opacity:1; fill:none" points="86.9921,1521.01 2352.76,1521.01 "/>
<polyline clip-path="url(#clip570)" style="stroke:#000000; stroke-linecap:round; stroke-linejoin:round; stroke-width:4; stroke-opacity:1; fill:none" points="151.118,1521.01 151.118,1502.11 "/>
<polyline clip-path="url(#clip570)" style="stroke:#000000; stroke-linecap:round; stroke-linejoin:round; stroke-width:4; stroke-opacity:1; fill:none" points="863.622,1521.01 863.622,1502.11 "/>
<polyline clip-path="url(#clip570)" style="stroke:#000000; stroke-linecap:round; stroke-linejoin:round; stroke-width:4; stroke-opacity:1; fill:none" points="1576.13,1521.01 1576.13,1502.11 "/>
<polyline clip-path="url(#clip570)" style="stroke:#000000; stroke-linecap:round; stroke-linejoin:round; stroke-width:4; stroke-opacity:1; fill:none" points="2288.63,1521.01 2288.63,1502.11 "/>
<path clip-path="url(#clip570)" d="M145.77 1579.47 L162.09 1579.47 L162.09 1583.41 L140.145 1583.41 L140.145 1579.47 Q142.807 1576.72 147.391 1572.09 Q151.997 1567.44 153.178 1566.09 Q155.423 1563.57 156.303 1561.83 Q157.205 1560.07 157.205 1558.38 Q157.205 1555.63 155.261 1553.89 Q153.34 1552.16 150.238 1552.16 Q148.039 1552.16 145.585 1552.92 Q143.155 1553.69 140.377 1555.24 L140.377 1550.51 Q143.201 1549.38 145.655 1548.8 Q148.108 1548.22 150.145 1548.22 Q155.516 1548.22 158.71 1550.91 Q161.904 1553.59 161.904 1558.08 Q161.904 1560.21 161.094 1562.13 Q160.307 1564.03 158.201 1566.63 Q157.622 1567.3 154.52 1570.51 Q151.418 1573.71 145.77 1579.47 Z" fill="#000000" fill-rule="nonzero" fill-opacity="1" /><path clip-path="url(#clip570)" d="M867.87 1564.77 Q871.226 1565.49 873.101 1567.76 Q874.999 1570.03 874.999 1573.36 Q874.999 1578.48 871.481 1581.28 Q867.962 1584.08 861.481 1584.08 Q859.305 1584.08 856.99 1583.64 Q854.698 1583.22 852.245 1582.37 L852.245 1577.85 Q854.189 1578.99 856.504 1579.57 Q858.819 1580.14 861.342 1580.14 Q865.74 1580.14 868.032 1578.41 Q870.346 1576.67 870.346 1573.36 Q870.346 1570.31 868.194 1568.59 Q866.064 1566.86 862.245 1566.86 L858.217 1566.86 L858.217 1563.01 L862.43 1563.01 Q865.879 1563.01 867.707 1561.65 Q869.536 1560.26 869.536 1557.67 Q869.536 1555.01 867.638 1553.59 Q865.763 1552.16 862.245 1552.16 Q860.323 1552.16 858.124 1552.57 Q855.925 1552.99 853.286 1553.87 L853.286 1549.7 Q855.948 1548.96 858.263 1548.59 Q860.601 1548.22 862.661 1548.22 Q867.985 1548.22 871.087 1550.65 Q874.189 1553.06 874.189 1557.18 Q874.189 1560.05 872.545 1562.04 Q870.902 1564.01 867.87 1564.77 Z" fill="#000000" fill-rule="nonzero" fill-opacity="1" /><path clip-path="url(#clip570)" d="M1579.14 1552.92 L1567.33 1571.37 L1579.14 1571.37 L1579.14 1552.92 M1577.91 1548.85 L1583.79 1548.85 L1583.79 1571.37 L1588.72 1571.37 L1588.72 1575.26 L1583.79 1575.26 L1583.79 1583.41 L1579.14 1583.41 L1579.14 1575.26 L1563.53 1575.26 L1563.53 1570.75 L1577.91 1548.85 Z" fill="#000000" fill-rule="nonzero" fill-opacity="1" /><path clip-path="url(#clip570)" d="M2278.91 1548.85 L2297.26 1548.85 L2297.26 1552.78 L2283.19 1552.78 L2283.19 1561.26 Q2284.21 1560.91 2285.23 1560.75 Q2286.25 1560.56 2287.26 1560.56 Q2293.05 1560.56 2296.43 1563.73 Q2299.81 1566.9 2299.81 1572.32 Q2299.81 1577.9 2296.34 1581 Q2292.87 1584.08 2286.55 1584.08 Q2284.37 1584.08 2282.1 1583.71 Q2279.86 1583.34 2277.45 1582.6 L2277.45 1577.9 Q2279.53 1579.03 2281.76 1579.59 Q2283.98 1580.14 2286.45 1580.14 Q2290.46 1580.14 2292.8 1578.04 Q2295.14 1575.93 2295.14 1572.32 Q2295.14 1568.71 2292.8 1566.6 Q2290.46 1564.5 2286.45 1564.5 Q2284.58 1564.5 2282.7 1564.91 Q2280.85 1565.33 2278.91 1566.21 L2278.91 1548.85 Z" fill="#000000" fill-rule="nonzero" fill-opacity="1" /><polyline clip-path="url(#clip572)" style="stroke:#000000; stroke-linecap:round; stroke-linejoin:round; stroke-width:2; stroke-opacity:0.1; fill:none" points="86.9921,1521.01 2352.76,1521.01 "/>
<polyline clip-path="url(#clip572)" style="stroke:#000000; stroke-linecap:round; stroke-linejoin:round; stroke-width:2; stroke-opacity:0.1; fill:none" points="86.9921,1226.26 2352.76,1226.26 "/>
<polyline clip-path="url(#clip572)" style="stroke:#000000; stroke-linecap:round; stroke-linejoin:round; stroke-width:2; stroke-opacity:0.1; fill:none" points="86.9921,931.502 2352.76,931.502 "/>
<polyline clip-path="url(#clip572)" style="stroke:#000000; stroke-linecap:round; stroke-linejoin:round; stroke-width:2; stroke-opacity:0.1; fill:none" points="86.9921,636.75 2352.76,636.75 "/>
<polyline clip-path="url(#clip572)" style="stroke:#000000; stroke-linecap:round; stroke-linejoin:round; stroke-width:2; stroke-opacity:0.1; fill:none" points="86.9921,341.997 2352.76,341.997 "/>
<polyline clip-path="url(#clip572)" style="stroke:#000000; stroke-linecap:round; stroke-linejoin:round; stroke-width:2; stroke-opacity:0.1; fill:none" points="86.9921,47.2441 2352.76,47.2441 "/>
<polyline clip-path="url(#clip570)" style="stroke:#000000; stroke-linecap:round; stroke-linejoin:round; stroke-width:4; stroke-opacity:1; fill:none" points="86.9921,1521.01 86.9921,47.2441 "/>
<polyline clip-path="url(#clip570)" style="stroke:#000000; stroke-linecap:round; stroke-linejoin:round; stroke-width:4; stroke-opacity:1; fill:none" points="86.9921,1521.01 105.89,1521.01 "/>
<polyline clip-path="url(#clip570)" style="stroke:#000000; stroke-linecap:round; stroke-linejoin:round; stroke-width:4; stroke-opacity:1; fill:none" points="86.9921,1226.26 105.89,1226.26 "/>
<polyline clip-path="url(#clip570)" style="stroke:#000000; stroke-linecap:round; stroke-linejoin:round; stroke-width:4; stroke-opacity:1; fill:none" points="86.9921,931.502 105.89,931.502 "/>
<polyline clip-path="url(#clip570)" style="stroke:#000000; stroke-linecap:round; stroke-linejoin:round; stroke-width:4; stroke-opacity:1; fill:none" points="86.9921,636.75 105.89,636.75 "/>
<polyline clip-path="url(#clip570)" style="stroke:#000000; stroke-linecap:round; stroke-linejoin:round; stroke-width:4; stroke-opacity:1; fill:none" points="86.9921,341.997 105.89,341.997 "/>
<polyline clip-path="url(#clip570)" style="stroke:#000000; stroke-linecap:round; stroke-linejoin:round; stroke-width:4; stroke-opacity:1; fill:none" points="86.9921,47.2441 105.89,47.2441 "/>
<path clip-path="url(#clip570)" d="M10.8708 1543.62 Q10.8708 1547.23 14.4356 1549.06 Q17.9773 1550.87 25.1068 1550.87 Q32.2133 1550.87 35.7781 1549.06 Q39.3197 1547.23 39.3197 1543.62 Q39.3197 1539.99 35.7781 1538.18 Q32.2133 1536.36 25.1068 1536.36 Q17.9773 1536.36 14.4356 1538.18 Q10.8708 1539.99 10.8708 1543.62 M7.16713 1543.62 Q7.16713 1537.81 11.7736 1534.76 Q16.3569 1531.68 25.1068 1531.68 Q33.8337 1531.68 38.4401 1534.76 Q43.0234 1537.81 43.0234 1543.62 Q43.0234 1549.43 38.4401 1552.51 Q33.8337 1555.57 25.1068 1555.57 Q16.3569 1555.57 11.7736 1552.51 Q7.16713 1549.43 7.16713 1543.62 Z" fill="#000000" fill-rule="nonzero" fill-opacity="1" /><path clip-path="url(#clip570)" d="M36.4725 1523.46 L36.4725 1518.58 L42.3521 1518.58 L42.3521 1523.46 L36.4725 1523.46 Z" fill="#000000" fill-rule="nonzero" fill-opacity="1" /><path clip-path="url(#clip570)" d="M10.8708 1498.39 Q10.8708 1502 14.4356 1503.83 Q17.9773 1505.64 25.1068 1505.64 Q32.2133 1505.64 35.7781 1503.83 Q39.3197 1502 39.3197 1498.39 Q39.3197 1494.76 35.7781 1492.95 Q32.2133 1491.12 25.1068 1491.12 Q17.9773 1491.12 14.4356 1492.95 Q10.8708 1494.76 10.8708 1498.39 M7.16713 1498.39 Q7.16713 1492.58 11.7736 1489.53 Q16.3569 1486.45 25.1068 1486.45 Q33.8337 1486.45 38.4401 1489.53 Q43.0234 1492.58 43.0234 1498.39 Q43.0234 1504.2 38.4401 1507.28 Q33.8337 1510.34 25.1068 1510.34 Q16.3569 1510.34 11.7736 1507.28 Q7.16713 1504.2 7.16713 1498.39 Z" fill="#000000" fill-rule="nonzero" fill-opacity="1" /><path clip-path="url(#clip570)" d="M10.8708 1248.26 Q10.8708 1251.87 14.4356 1253.7 Q17.9773 1255.5 25.1068 1255.5 Q32.2133 1255.5 35.7781 1253.7 Q39.3197 1251.87 39.3197 1248.26 Q39.3197 1244.62 35.7781 1242.82 Q32.2133 1240.99 25.1068 1240.99 Q17.9773 1240.99 14.4356 1242.82 Q10.8708 1244.62 10.8708 1248.26 M7.16713 1248.26 Q7.16713 1242.45 11.7736 1239.39 Q16.3569 1236.31 25.1068 1236.31 Q33.8337 1236.31 38.4401 1239.39 Q43.0234 1242.45 43.0234 1248.26 Q43.0234 1254.07 38.4401 1257.15 Q33.8337 1260.2 25.1068 1260.2 Q16.3569 1260.2 11.7736 1257.15 Q7.16713 1254.07 7.16713 1248.26 Z" fill="#000000" fill-rule="nonzero" fill-opacity="1" /><path clip-path="url(#clip570)" d="M36.4725 1228.1 L36.4725 1223.21 L42.3521 1223.21 L42.3521 1228.1 L36.4725 1228.1 Z" fill="#000000" fill-rule="nonzero" fill-opacity="1" /><path clip-path="url(#clip570)" d="M38.417 1212.22 L38.417 1204.58 L12.0514 1204.58 L13.718 1212.89 L9.45878 1212.89 L7.79213 1204.62 L7.79213 1199.95 L38.417 1199.95 L38.417 1192.31 L42.3521 1192.31 L42.3521 1212.22 L38.417 1212.22 Z" fill="#000000" fill-rule="nonzero" fill-opacity="1" /><path clip-path="url(#clip570)" d="M10.8708 953.319 Q10.8708 956.93 14.4356 958.759 Q17.9773 960.565 25.1068 960.565 Q32.2133 960.565 35.7781 958.759 Q39.3197 956.93 39.3197 953.319 Q39.3197 949.685 35.7781 947.88 Q32.2133 946.051 25.1068 946.051 Q17.9773 946.051 14.4356 947.88 Q10.8708 949.685 10.8708 953.319 M7.16713 953.319 Q7.16713 947.509 11.7736 944.454 Q16.3569 941.375 25.1068 941.375 Q33.8337 941.375 38.4401 944.454 Q43.0234 947.509 43.0234 953.319 Q43.0234 959.13 38.4401 962.208 Q33.8337 965.264 25.1068 965.264 Q16.3569 965.264 11.7736 962.208 Q7.16713 959.13 7.16713 953.319 Z" fill="#000000" fill-rule="nonzero" fill-opacity="1" /><path clip-path="url(#clip570)" d="M36.4725 933.157 L36.4725 928.273 L42.3521 928.273 L42.3521 933.157 L36.4725 933.157 Z" fill="#000000" fill-rule="nonzero" fill-opacity="1" /><path clip-path="url(#clip570)" d="M38.417 914.06 L38.417 897.741 L42.3521 897.741 L42.3521 919.685 L38.417 919.685 Q35.6623 917.023 31.0327 912.44 Q26.38 907.834 25.0374 906.653 Q22.5143 904.408 20.7782 903.528 Q19.0189 902.625 17.3291 902.625 Q14.5745 902.625 12.8384 904.57 Q11.1023 906.491 11.1023 909.593 Q11.1023 911.792 11.8662 914.246 Q12.6301 916.676 14.181 919.454 L9.45878 919.454 Q8.32453 916.63 7.74583 914.176 Q7.16713 911.722 7.16713 909.685 Q7.16713 904.315 9.8523 901.121 Q12.5375 897.926 17.0282 897.926 Q19.1578 897.926 21.0791 898.736 Q22.9772 899.523 25.5698 901.63 Q26.2411 902.209 29.4587 905.31 Q32.6531 908.412 38.417 914.06 Z" fill="#000000" fill-rule="nonzero" fill-opacity="1" /><path clip-path="url(#clip570)" d="M10.8708 659.041 Q10.8708 662.652 14.4356 664.481 Q17.9773 666.286 25.1068 666.286 Q32.2133 666.286 35.7781 664.481 Q39.3197 662.652 39.3197 659.041 Q39.3197 655.407 35.7781 653.601 Q32.2133 651.773 25.1068 651.773 Q17.9773 651.773 14.4356 653.601 Q10.8708 655.407 10.8708 659.041 M7.16713 659.041 Q7.16713 653.231 11.7736 650.175 Q16.3569 647.097 25.1068 647.097 Q33.8337 647.097 38.4401 650.175 Q43.0234 653.231 43.0234 659.041 Q43.0234 664.851 38.4401 667.93 Q33.8337 670.986 25.1068 670.986 Q16.3569 670.986 11.7736 667.93 Q7.16713 664.851 7.16713 659.041 Z" fill="#000000" fill-rule="nonzero" fill-opacity="1" /><path clip-path="url(#clip570)" d="M36.4725 638.879 L36.4725 633.995 L42.3521 633.995 L42.3521 638.879 L36.4725 638.879 Z" fill="#000000" fill-rule="nonzero" fill-opacity="1" /><path clip-path="url(#clip570)" d="M23.718 609.643 Q24.4356 606.287 26.7041 604.412 Q28.9726 602.514 32.3059 602.514 Q37.4216 602.514 40.2225 606.032 Q43.0234 609.551 43.0234 616.032 Q43.0234 618.208 42.5836 620.523 Q42.1669 622.814 41.3105 625.268 L36.7966 625.268 Q37.9309 623.324 38.5096 621.009 Q39.0883 618.694 39.0883 616.171 Q39.0883 611.773 37.3522 609.481 Q35.6161 607.166 32.3059 607.166 Q29.2503 607.166 27.5374 609.319 Q25.8013 611.449 25.8013 615.268 L25.8013 619.296 L21.9587 619.296 L21.9587 615.083 Q21.9587 611.634 20.593 609.805 Q19.2041 607.977 16.6115 607.977 Q13.9495 607.977 12.5375 609.875 Q11.1023 611.75 11.1023 615.268 Q11.1023 617.19 11.519 619.389 Q11.9356 621.588 12.8152 624.227 L8.6486 624.227 Q7.90787 621.565 7.5375 619.25 Q7.16713 616.912 7.16713 614.852 Q7.16713 609.528 9.59767 606.426 Q12.0051 603.324 16.1254 603.324 Q18.9958 603.324 20.9865 604.967 Q22.9541 606.611 23.718 609.643 Z" fill="#000000" fill-rule="nonzero" fill-opacity="1" /><path clip-path="url(#clip570)" d="M10.8708 364.856 Q10.8708 368.467 14.4356 370.295 Q17.9773 372.101 25.1068 372.101 Q32.2133 372.101 35.7781 370.295 Q39.3197 368.467 39.3197 364.856 Q39.3197 361.221 35.7781 359.416 Q32.2133 357.587 25.1068 357.587 Q17.9773 357.587 14.4356 359.416 Q10.8708 361.221 10.8708 364.856 M7.16713 364.856 Q7.16713 359.045 11.7736 355.99 Q16.3569 352.911 25.1068 352.911 Q33.8337 352.911 38.4401 355.99 Q43.0234 359.045 43.0234 364.856 Q43.0234 370.666 38.4401 373.744 Q33.8337 376.8 25.1068 376.8 Q16.3569 376.8 11.7736 373.744 Q7.16713 370.666 7.16713 364.856 Z" fill="#000000" fill-rule="nonzero" fill-opacity="1" /><path clip-path="url(#clip570)" d="M36.4725 344.694 L36.4725 339.809 L42.3521 339.809 L42.3521 344.694 L36.4725 344.694 Z" fill="#000000" fill-rule="nonzero" fill-opacity="1" /><path clip-path="url(#clip570)" d="M11.8662 316.777 L30.3152 328.583 L30.3152 316.777 L11.8662 316.777 M7.79213 318.004 L7.79213 312.124 L30.3152 312.124 L30.3152 307.194 L34.204 307.194 L34.204 312.124 L42.3521 312.124 L42.3521 316.777 L34.204 316.777 L34.204 332.379 L29.6902 332.379 L7.79213 318.004 Z" fill="#000000" fill-rule="nonzero" fill-opacity="1" /><path clip-path="url(#clip570)" d="M10.8708 69.362 Q10.8708 72.9731 14.4356 74.8018 Q17.9773 76.6074 25.1068 76.6074 Q32.2133 76.6074 35.7781 74.8018 Q39.3197 72.9731 39.3197 69.362 Q39.3197 65.7278 35.7781 63.9222 Q32.2133 62.0936 25.1068 62.0936 Q17.9773 62.0936 14.4356 63.9222 Q10.8708 65.7278 10.8708 69.362 M7.16713 69.362 Q7.16713 63.5519 11.7736 60.4963 Q16.3569 57.4177 25.1068 57.4177 Q33.8337 57.4177 38.4401 60.4963 Q43.0234 63.5519 43.0234 69.362 Q43.0234 75.1722 38.4401 78.2509 Q33.8337 81.3064 25.1068 81.3064 Q16.3569 81.3064 11.7736 78.2509 Q7.16713 75.1722 7.16713 69.362 Z" fill="#000000" fill-rule="nonzero" fill-opacity="1" /><path clip-path="url(#clip570)" d="M36.4725 49.2001 L36.4725 44.3159 L42.3521 44.3159 L42.3521 49.2001 L36.4725 49.2001 Z" fill="#000000" fill-rule="nonzero" fill-opacity="1" /><path clip-path="url(#clip570)" d="M7.79213 34.0844 L7.79213 15.7281 L11.7273 15.7281 L11.7273 29.8021 L20.1995 29.8021 Q19.8522 28.7835 19.6902 27.765 Q19.505 26.7465 19.505 25.728 Q19.505 19.941 22.6763 16.5614 Q25.8476 13.1818 31.2642 13.1818 Q36.8429 13.1818 39.9447 16.654 Q43.0234 20.1262 43.0234 26.4456 Q43.0234 28.6215 42.6531 30.89 Q42.2827 33.1354 41.5419 35.5428 L36.8429 35.5428 Q37.9771 33.4594 38.5327 31.2372 Q39.0883 29.015 39.0883 26.5382 Q39.0883 22.5336 36.9818 20.1956 Q34.8753 17.8577 31.2642 17.8577 Q27.6531 17.8577 25.5467 20.1956 Q23.4402 22.5336 23.4402 26.5382 Q23.4402 28.4132 23.8569 30.2882 Q24.2735 32.14 25.1531 34.0844 L7.79213 34.0844 Z" fill="#000000" fill-rule="nonzero" fill-opacity="1" /><polyline clip-path="url(#clip572)" style="stroke:#009af9; stroke-linecap:round; stroke-linejoin:round; stroke-width:4; stroke-opacity:1; fill:none" points="151.118,538.499 165.034,538.499 293.711,538.499 371.04,538.499 436.422,538.499 507.444,538.499 572.92,538.499 643.117,538.499 724.448,538.499 796.725,538.499 860.105,538.499 929.207,538.499 998.719,538.499 1075.57,538.499 1148.7,538.499 1224.73,538.499 1288.74,538.499 1366.88,538.499 1438.46,538.499 1504.57,538.499 1571.54,538.499 1646.6,538.499 1714.61,538.499 1792.48,538.499 1864.58,538.499 1935.66,538.499 2004.67,538.499 2075.42,538.499 2152.93,538.499 2265.53,538.499 2288.63,538.499 "/>
<path clip-path="url(#clip570)" d="M1874.91 200.05 L2277.23 200.05 L2277.23 96.3696 L1874.91 96.3696  Z" fill="#ffffff" fill-rule="evenodd" fill-opacity="1"/>
<polyline clip-path="url(#clip570)" style="stroke:#000000; stroke-linecap:round; stroke-linejoin:round; stroke-width:4; stroke-opacity:1; fill:none" points="1874.91,200.05 2277.23,200.05 2277.23,96.3696 1874.91,96.3696 1874.91,200.05 "/>
<polyline clip-path="url(#clip570)" style="stroke:#009af9; stroke-linecap:round; stroke-linejoin:round; stroke-width:4; stroke-opacity:1; fill:none" points="1900.09,148.21 2051.14,148.21 "/>
<path clip-path="url(#clip570)" d="M2076.32 155.258 L2076.32 139.564 L2080.57 139.564 L2080.57 155.096 Q2080.57 158.777 2082.01 160.628 Q2083.45 162.457 2086.32 162.457 Q2089.76 162.457 2091.76 160.258 Q2093.77 158.059 2093.77 154.263 L2093.77 139.564 L2098.03 139.564 L2098.03 165.49 L2093.77 165.49 L2093.77 161.508 Q2092.22 163.869 2090.16 165.027 Q2088.12 166.161 2085.41 166.161 Q2080.95 166.161 2078.63 163.383 Q2076.32 160.605 2076.32 155.258 M2087.03 138.939 L2087.03 138.939 Z" fill="#000000" fill-rule="nonzero" fill-opacity="1" /><path clip-path="url(#clip570)" d="M2128.35 149.841 L2128.35 165.49 L2124.09 165.49 L2124.09 149.98 Q2124.09 146.3 2122.66 144.471 Q2121.22 142.642 2118.35 142.642 Q2114.9 142.642 2112.91 144.842 Q2110.92 147.041 2110.92 150.837 L2110.92 165.49 L2106.64 165.49 L2106.64 139.564 L2110.92 139.564 L2110.92 143.592 Q2112.45 141.254 2114.51 140.096 Q2116.59 138.939 2119.3 138.939 Q2123.77 138.939 2126.06 141.717 Q2128.35 144.471 2128.35 149.841 Z" fill="#000000" fill-rule="nonzero" fill-opacity="1" /><path clip-path="url(#clip570)" d="M2136.85 139.564 L2141.11 139.564 L2141.11 165.49 L2136.85 165.49 L2136.85 139.564 M2136.85 129.471 L2141.11 129.471 L2141.11 134.865 L2136.85 134.865 L2136.85 129.471 Z" fill="#000000" fill-rule="nonzero" fill-opacity="1" /><path clip-path="url(#clip570)" d="M2163.14 129.471 L2163.14 133.013 L2159.07 133.013 Q2156.78 133.013 2155.88 133.939 Q2155 134.865 2155 137.272 L2155 139.564 L2162.01 139.564 L2162.01 142.874 L2155 142.874 L2155 165.49 L2150.71 165.49 L2150.71 142.874 L2146.64 142.874 L2146.64 139.564 L2150.71 139.564 L2150.71 137.758 Q2150.71 133.43 2152.73 131.462 Q2154.74 129.471 2159.12 129.471 L2163.14 129.471 Z" fill="#000000" fill-rule="nonzero" fill-opacity="1" /><path clip-path="url(#clip570)" d="M2176.75 142.55 Q2173.33 142.55 2171.34 145.235 Q2169.35 147.897 2169.35 152.55 Q2169.35 157.203 2171.31 159.888 Q2173.31 162.55 2176.75 162.55 Q2180.16 162.55 2182.15 159.865 Q2184.14 157.179 2184.14 152.55 Q2184.14 147.943 2182.15 145.258 Q2180.16 142.55 2176.75 142.55 M2176.75 138.939 Q2182.31 138.939 2185.48 142.55 Q2188.65 146.161 2188.65 152.55 Q2188.65 158.916 2185.48 162.55 Q2182.31 166.161 2176.75 166.161 Q2171.18 166.161 2168 162.55 Q2164.86 158.916 2164.86 152.55 Q2164.86 146.161 2168 142.55 Q2171.18 138.939 2176.75 138.939 Z" fill="#000000" fill-rule="nonzero" fill-opacity="1" /><path clip-path="url(#clip570)" d="M2210.74 143.545 Q2210.02 143.129 2209.16 142.943 Q2208.33 142.735 2207.31 142.735 Q2203.7 142.735 2201.75 145.096 Q2199.83 147.434 2199.83 151.832 L2199.83 165.49 L2195.55 165.49 L2195.55 139.564 L2199.83 139.564 L2199.83 143.592 Q2201.18 141.23 2203.33 140.096 Q2205.48 138.939 2208.56 138.939 Q2209 138.939 2209.53 139.008 Q2210.06 139.055 2210.71 139.17 L2210.74 143.545 Z" fill="#000000" fill-rule="nonzero" fill-opacity="1" /><path clip-path="url(#clip570)" d="M2234.56 144.541 Q2236.15 141.67 2238.37 140.305 Q2240.6 138.939 2243.61 138.939 Q2247.66 138.939 2249.86 141.786 Q2252.06 144.61 2252.06 149.841 L2252.06 165.49 L2247.77 165.49 L2247.77 149.98 Q2247.77 146.254 2246.45 144.448 Q2245.13 142.642 2242.43 142.642 Q2239.12 142.642 2237.19 144.842 Q2235.27 147.041 2235.27 150.837 L2235.27 165.49 L2230.99 165.49 L2230.99 149.98 Q2230.99 146.23 2229.67 144.448 Q2228.35 142.642 2225.6 142.642 Q2222.33 142.642 2220.41 144.865 Q2218.49 147.064 2218.49 150.837 L2218.49 165.49 L2214.21 165.49 L2214.21 139.564 L2218.49 139.564 L2218.49 143.592 Q2219.95 141.207 2221.99 140.073 Q2224.02 138.939 2226.82 138.939 Q2229.65 138.939 2231.62 140.374 Q2233.61 141.809 2234.56 144.541 Z" fill="#000000" fill-rule="nonzero" fill-opacity="1" /></svg>
