<?xml version="1.0" encoding="utf-8"?>
<svg xmlns="http://www.w3.org/2000/svg" xmlns:xlink="http://www.w3.org/1999/xlink" width="600" height="400" viewBox="0 0 2400 1600">
<defs>
  <clipPath id="clip210">
    <rect x="0" y="0" width="2400" height="1600"/>
  </clipPath>
</defs>
<path clip-path="url(#clip210)" d="M0 1600 L2400 1600 L2400 0 L0 0  Z" fill="#ffffff" fill-rule="evenodd" fill-opacity="1"/>
<defs>
  <clipPath id="clip211">
    <rect x="480" y="0" width="1681" height="1600"/>
  </clipPath>
</defs>
<path clip-path="url(#clip210)" d="M86.9921 1521.01 L2352.76 1521.01 L2352.76 47.2441 L86.9921 47.2441  Z" fill="#ffffff" fill-rule="evenodd" fill-opacity="1"/>
<defs>
  <clipPath id="clip212">
    <rect x="86" y="47" width="2267" height="1475"/>
  </clipPath>
</defs>
<polyline clip-path="url(#clip212)" style="stroke:#000000; stroke-linecap:round; stroke-linejoin:round; stroke-width:2; stroke-opacity:0.1; fill:none" points="151.118,1521.01 151.118,47.2441 "/>
<polyline clip-path="url(#clip212)" style="stroke:#000000; stroke-linecap:round; stroke-linejoin:round; stroke-width:2; stroke-opacity:0.1; fill:none" points="685.496,1521.01 685.496,47.2441 "/>
<polyline clip-path="url(#clip212)" style="stroke:#000000; stroke-linecap:round; stroke-linejoin:round; stroke-width:2; stroke-opacity:0.1; fill:none" points="1219.87,1521.01 1219.87,47.2441 "/>
<polyline clip-path="url(#clip212)" style="stroke:#000000; stroke-linecap:round; stroke-linejoin:round; stroke-width:2; stroke-opacity:0.1; fill:none" points="1754.25,1521.01 1754.25,47.2441 "/>
<polyline clip-path="url(#clip212)" style="stroke:#000000; stroke-linecap:round; stroke-linejoin:round; stroke-width:2; stroke-opacity:0.1; fill:none" points="2288.63,1521.01 2288.63,47.2441 "/>
<polyline clip-path="url(#clip210)" style="stroke:#000000; stroke-linecap:round; stroke-linejoin:round; stroke-width:4; stroke-opacity:1; fill:none" points="86.9921,1521.01 2352.76,1521.01 "/>
<polyline clip-path="url(#clip210)" style="stroke:#000000; stroke-linecap:round; stroke-linejoin:round; stroke-width:4; stroke-opacity:1; fill:none" points="151.118,1521.01 151.118,1502.11 "/>
<polyline clip-path="url(#clip210)" style="stroke:#000000; stroke-linecap:round; stroke-linejoin:round; stroke-width:4; stroke-opacity:1; fill:none" points="685.496,1521.01 685.496,1502.11 "/>
<polyline clip-path="url(#clip210)" style="stroke:#000000; stroke-linecap:round; stroke-linejoin:round; stroke-width:4; stroke-opacity:1; fill:none" points="1219.87,1521.01 1219.87,1502.11 "/>
<polyline clip-path="url(#clip210)" style="stroke:#000000; stroke-linecap:round; stroke-linejoin:round; stroke-width:4; stroke-opacity:1; fill:none" points="1754.25,1521.01 1754.25,1502.11 "/>
<polyline clip-path="url(#clip210)" style="stroke:#000000; stroke-linecap:round; stroke-linejoin:round; stroke-width:4; stroke-opacity:1; fill:none" points="2288.63,1521.01 2288.63,1502.11 "/>
<path clip-path="url(#clip210)" d="M113.421 1551.93 Q109.81 1551.93 107.981 1555.49 Q106.176 1559.03 106.176 1566.16 Q106.176 1573.27 107.981 1576.83 Q109.81 1580.38 113.421 1580.38 Q117.055 1580.38 118.861 1576.83 Q120.689 1573.27 120.689 1566.16 Q120.689 1559.03 118.861 1555.49 Q117.055 1551.93 113.421 1551.93 M113.421 1548.22 Q119.231 1548.22 122.287 1552.83 Q125.365 1557.41 125.365 1566.16 Q125.365 1574.89 122.287 1579.5 Q119.231 1584.08 113.421 1584.08 Q107.611 1584.08 104.532 1579.5 Q101.477 1574.89 101.477 1566.16 Q101.477 1557.41 104.532 1552.83 Q107.611 1548.22 113.421 1548.22 Z" fill="#000000" fill-rule="nonzero" fill-opacity="1" /><path clip-path="url(#clip210)" d="M133.583 1577.53 L138.467 1577.53 L138.467 1583.41 L133.583 1583.41 L133.583 1577.53 Z" fill="#000000" fill-rule="nonzero" fill-opacity="1" /><path clip-path="url(#clip210)" d="M158.652 1551.93 Q155.041 1551.93 153.212 1555.49 Q151.407 1559.03 151.407 1566.16 Q151.407 1573.27 153.212 1576.83 Q155.041 1580.38 158.652 1580.38 Q162.286 1580.38 164.092 1576.83 Q165.921 1573.27 165.921 1566.16 Q165.921 1559.03 164.092 1555.49 Q162.286 1551.93 158.652 1551.93 M158.652 1548.22 Q164.462 1548.22 167.518 1552.83 Q170.597 1557.41 170.597 1566.16 Q170.597 1574.89 167.518 1579.5 Q164.462 1584.08 158.652 1584.08 Q152.842 1584.08 149.763 1579.5 Q146.708 1574.89 146.708 1566.16 Q146.708 1557.41 149.763 1552.83 Q152.842 1548.22 158.652 1548.22 Z" fill="#000000" fill-rule="nonzero" fill-opacity="1" /><path clip-path="url(#clip210)" d="M188.814 1551.93 Q185.203 1551.93 183.374 1555.49 Q181.569 1559.03 181.569 1566.16 Q181.569 1573.27 183.374 1576.83 Q185.203 1580.38 188.814 1580.38 Q192.448 1580.38 194.254 1576.83 Q196.083 1573.27 196.083 1566.16 Q196.083 1559.03 194.254 1555.49 Q192.448 1551.93 188.814 1551.93 M188.814 1548.22 Q194.624 1548.22 197.68 1552.83 Q200.758 1557.41 200.758 1566.16 Q200.758 1574.89 197.68 1579.5 Q194.624 1584.08 188.814 1584.08 Q183.004 1584.08 179.925 1579.5 Q176.87 1574.89 176.87 1566.16 Q176.87 1557.41 179.925 1552.83 Q183.004 1548.22 188.814 1548.22 Z" fill="#000000" fill-rule="nonzero" fill-opacity="1" /><path clip-path="url(#clip210)" d="M648.297 1551.93 Q644.686 1551.93 642.857 1555.49 Q641.052 1559.03 641.052 1566.16 Q641.052 1573.27 642.857 1576.83 Q644.686 1580.38 648.297 1580.38 Q651.931 1580.38 653.737 1576.83 Q655.565 1573.27 655.565 1566.16 Q655.565 1559.03 653.737 1555.49 Q651.931 1551.93 648.297 1551.93 M648.297 1548.22 Q654.107 1548.22 657.163 1552.83 Q660.241 1557.41 660.241 1566.16 Q660.241 1574.89 657.163 1579.5 Q654.107 1584.08 648.297 1584.08 Q642.487 1584.08 639.408 1579.5 Q636.353 1574.89 636.353 1566.16 Q636.353 1557.41 639.408 1552.83 Q642.487 1548.22 648.297 1548.22 Z" fill="#000000" fill-rule="nonzero" fill-opacity="1" /><path clip-path="url(#clip210)" d="M668.459 1577.53 L673.343 1577.53 L673.343 1583.41 L668.459 1583.41 L668.459 1577.53 Z" fill="#000000" fill-rule="nonzero" fill-opacity="1" /><path clip-path="url(#clip210)" d="M687.556 1579.47 L703.875 1579.47 L703.875 1583.41 L681.931 1583.41 L681.931 1579.47 Q684.593 1576.72 689.176 1572.09 Q693.783 1567.44 694.963 1566.09 Q697.209 1563.57 698.088 1561.83 Q698.991 1560.07 698.991 1558.38 Q698.991 1555.63 697.047 1553.89 Q695.125 1552.16 692.024 1552.16 Q689.824 1552.16 687.371 1552.92 Q684.94 1553.69 682.162 1555.24 L682.162 1550.51 Q684.987 1549.38 687.44 1548.8 Q689.894 1548.22 691.931 1548.22 Q697.301 1548.22 700.496 1550.91 Q703.69 1553.59 703.69 1558.08 Q703.69 1560.21 702.88 1562.13 Q702.093 1564.03 699.986 1566.63 Q699.408 1567.3 696.306 1570.51 Q693.204 1573.71 687.556 1579.47 Z" fill="#000000" fill-rule="nonzero" fill-opacity="1" /><path clip-path="url(#clip210)" d="M713.736 1548.85 L732.093 1548.85 L732.093 1552.78 L718.019 1552.78 L718.019 1561.26 Q719.037 1560.91 720.056 1560.75 Q721.074 1560.56 722.093 1560.56 Q727.88 1560.56 731.259 1563.73 Q734.639 1566.9 734.639 1572.32 Q734.639 1577.9 731.167 1581 Q727.695 1584.08 721.375 1584.08 Q719.199 1584.08 716.931 1583.71 Q714.685 1583.34 712.278 1582.6 L712.278 1577.9 Q714.361 1579.03 716.584 1579.59 Q718.806 1580.14 721.283 1580.14 Q725.287 1580.14 727.625 1578.04 Q729.963 1575.93 729.963 1572.32 Q729.963 1568.71 727.625 1566.6 Q725.287 1564.5 721.283 1564.5 Q719.408 1564.5 717.533 1564.91 Q715.681 1565.33 713.736 1566.21 L713.736 1548.85 Z" fill="#000000" fill-rule="nonzero" fill-opacity="1" /><path clip-path="url(#clip210)" d="M1182.18 1551.93 Q1178.57 1551.93 1176.74 1555.49 Q1174.93 1559.03 1174.93 1566.16 Q1174.93 1573.27 1176.74 1576.83 Q1178.57 1580.38 1182.18 1580.38 Q1185.81 1580.38 1187.62 1576.83 Q1189.45 1573.27 1189.45 1566.16 Q1189.45 1559.03 1187.62 1555.49 Q1185.81 1551.93 1182.18 1551.93 M1182.18 1548.22 Q1187.99 1548.22 1191.04 1552.83 Q1194.12 1557.41 1194.12 1566.16 Q1194.12 1574.89 1191.04 1579.5 Q1187.99 1584.08 1182.18 1584.08 Q1176.37 1584.08 1173.29 1579.5 Q1170.23 1574.89 1170.23 1566.16 Q1170.23 1557.41 1173.29 1552.83 Q1176.37 1548.22 1182.18 1548.22 Z" fill="#000000" fill-rule="nonzero" fill-opacity="1" /><path clip-path="url(#clip210)" d="M1202.34 1577.53 L1207.22 1577.53 L1207.22 1583.41 L1202.34 1583.41 L1202.34 1577.53 Z" fill="#000000" fill-rule="nonzero" fill-opacity="1" /><path clip-path="url(#clip210)" d="M1217.46 1548.85 L1235.81 1548.85 L1235.81 1552.78 L1221.74 1552.78 L1221.74 1561.26 Q1222.76 1560.91 1223.77 1560.75 Q1224.79 1560.56 1225.81 1560.56 Q1231.6 1560.56 1234.98 1563.73 Q1238.36 1566.9 1238.36 1572.32 Q1238.36 1577.9 1234.89 1581 Q1231.41 1584.08 1225.09 1584.08 Q1222.92 1584.08 1220.65 1583.71 Q1218.4 1583.34 1216 1582.6 L1216 1577.9 Q1218.08 1579.03 1220.3 1579.59 Q1222.52 1580.14 1225 1580.14 Q1229.01 1580.14 1231.34 1578.04 Q1233.68 1575.93 1233.68 1572.32 Q1233.68 1568.71 1231.34 1566.6 Q1229.01 1564.5 1225 1564.5 Q1223.13 1564.5 1221.25 1564.91 Q1219.4 1565.33 1217.46 1566.21 L1217.46 1548.85 Z" fill="#000000" fill-rule="nonzero" fill-opacity="1" /><path clip-path="url(#clip210)" d="M1257.57 1551.93 Q1253.96 1551.93 1252.13 1555.49 Q1250.33 1559.03 1250.33 1566.16 Q1250.33 1573.27 1252.13 1576.83 Q1253.96 1580.38 1257.57 1580.38 Q1261.2 1580.38 1263.01 1576.83 Q1264.84 1573.27 1264.84 1566.16 Q1264.84 1559.03 1263.01 1555.49 Q1261.2 1551.93 1257.57 1551.93 M1257.57 1548.22 Q1263.38 1548.22 1266.44 1552.83 Q1269.51 1557.41 1269.51 1566.16 Q1269.51 1574.89 1266.44 1579.5 Q1263.38 1584.08 1257.57 1584.08 Q1251.76 1584.08 1248.68 1579.5 Q1245.63 1574.89 1245.63 1566.16 Q1245.63 1557.41 1248.68 1552.83 Q1251.76 1548.22 1257.57 1548.22 Z" fill="#000000" fill-rule="nonzero" fill-opacity="1" /><path clip-path="url(#clip210)" d="M1717.05 1551.93 Q1713.44 1551.93 1711.61 1555.49 Q1709.81 1559.03 1709.81 1566.16 Q1709.81 1573.27 1711.61 1576.83 Q1713.44 1580.38 1717.05 1580.38 Q1720.69 1580.38 1722.49 1576.83 Q1724.32 1573.27 1724.32 1566.16 Q1724.32 1559.03 1722.49 1555.49 Q1720.69 1551.93 1717.05 1551.93 M1717.05 1548.22 Q1722.86 1548.22 1725.92 1552.83 Q1729 1557.41 1729 1566.16 Q1729 1574.89 1725.92 1579.5 Q1722.86 1584.08 1717.05 1584.08 Q1711.24 1584.08 1708.16 1579.5 Q1705.11 1574.89 1705.11 1566.16 Q1705.11 1557.41 1708.16 1552.83 Q1711.24 1548.22 1717.05 1548.22 Z" fill="#000000" fill-rule="nonzero" fill-opacity="1" /><path clip-path="url(#clip210)" d="M1737.22 1577.53 L1742.1 1577.53 L1742.1 1583.41 L1737.22 1583.41 L1737.22 1577.53 Z" fill="#000000" fill-rule="nonzero" fill-opacity="1" /><path clip-path="url(#clip210)" d="M1751.1 1548.85 L1773.33 1548.85 L1773.33 1550.84 L1760.78 1583.41 L1755.9 1583.41 L1767.7 1552.78 L1751.1 1552.78 L1751.1 1548.85 Z" fill="#000000" fill-rule="nonzero" fill-opacity="1" /><path clip-path="url(#clip210)" d="M1782.49 1548.85 L1800.85 1548.85 L1800.85 1552.78 L1786.78 1552.78 L1786.78 1561.26 Q1787.79 1560.91 1788.81 1560.75 Q1789.83 1560.56 1790.85 1560.56 Q1796.64 1560.56 1800.02 1563.73 Q1803.4 1566.9 1803.4 1572.32 Q1803.4 1577.9 1799.92 1581 Q1796.45 1584.08 1790.13 1584.08 Q1787.96 1584.08 1785.69 1583.71 Q1783.44 1583.34 1781.03 1582.6 L1781.03 1577.9 Q1783.12 1579.03 1785.34 1579.59 Q1787.56 1580.14 1790.04 1580.14 Q1794.04 1580.14 1796.38 1578.04 Q1798.72 1575.93 1798.72 1572.32 Q1798.72 1568.71 1796.38 1566.6 Q1794.04 1564.5 1790.04 1564.5 Q1788.16 1564.5 1786.29 1564.91 Q1784.44 1565.33 1782.49 1566.21 L1782.49 1548.85 Z" fill="#000000" fill-rule="nonzero" fill-opacity="1" /><path clip-path="url(#clip210)" d="M2240.7 1579.47 L2248.34 1579.47 L2248.34 1553.11 L2240.03 1554.77 L2240.03 1550.51 L2248.3 1548.85 L2252.97 1548.85 L2252.97 1579.47 L2260.61 1579.47 L2260.61 1583.41 L2240.7 1583.41 L2240.7 1579.47 Z" fill="#000000" fill-rule="nonzero" fill-opacity="1" /><path clip-path="url(#clip210)" d="M2270.05 1577.53 L2274.94 1577.53 L2274.94 1583.41 L2270.05 1583.41 L2270.05 1577.53 Z" fill="#000000" fill-rule="nonzero" fill-opacity="1" /><path clip-path="url(#clip210)" d="M2295.12 1551.93 Q2291.51 1551.93 2289.68 1555.49 Q2287.88 1559.03 2287.88 1566.16 Q2287.88 1573.27 2289.68 1576.83 Q2291.51 1580.38 2295.12 1580.38 Q2298.76 1580.38 2300.56 1576.83 Q2302.39 1573.27 2302.39 1566.16 Q2302.39 1559.03 2300.56 1555.49 Q2298.76 1551.93 2295.12 1551.93 M2295.12 1548.22 Q2300.93 1548.22 2303.99 1552.83 Q2307.07 1557.41 2307.07 1566.16 Q2307.07 1574.89 2303.99 1579.5 Q2300.93 1584.08 2295.12 1584.08 Q2289.31 1584.08 2286.23 1579.5 Q2283.18 1574.89 2283.18 1566.16 Q2283.18 1557.41 2286.23 1552.83 Q2289.31 1548.22 2295.12 1548.22 Z" fill="#000000" fill-rule="nonzero" fill-opacity="1" /><path clip-path="url(#clip210)" d="M2325.29 1551.93 Q2321.67 1551.93 2319.85 1555.49 Q2318.04 1559.03 2318.04 1566.16 Q2318.04 1573.27 2319.85 1576.83 Q2321.67 1580.38 2325.29 1580.38 Q2328.92 1580.38 2330.73 1576.83 Q2332.55 1573.27 2332.55 1566.16 Q2332.55 1559.03 2330.73 1555.49 Q2328.92 1551.93 2325.29 1551.93 M2325.29 1548.22 Q2331.1 1548.22 2334.15 1552.83 Q2337.23 1557.41 2337.23 1566.16 Q2337.23 1574.89 2334.15 1579.5 Q2331.1 1584.08 2325.29 1584.08 Q2319.48 1584.08 2316.4 1579.5 Q2313.34 1574.89 2313.34 1566.16 Q2313.34 1557.41 2316.4 1552.83 Q2319.48 1548.22 2325.29 1548.22 Z" fill="#000000" fill-rule="nonzero" fill-opacity="1" /><polyline clip-path="url(#clip212)" style="stroke:#000000; stroke-linecap:round; stroke-linejoin:round; stroke-width:2; stroke-opacity:0.1; fill:none" points="86.9921,1479.3 2352.76,1479.3 "/>
<polyline clip-path="url(#clip212)" style="stroke:#000000; stroke-linecap:round; stroke-linejoin:round; stroke-width:2; stroke-opacity:0.1; fill:none" points="86.9921,1216.64 2352.76,1216.64 "/>
<polyline clip-path="url(#clip212)" style="stroke:#000000; stroke-linecap:round; stroke-linejoin:round; stroke-width:2; stroke-opacity:0.1; fill:none" points="86.9921,953.991 2352.76,953.991 "/>
<polyline clip-path="url(#clip212)" style="stroke:#000000; stroke-linecap:round; stroke-linejoin:round; stroke-width:2; stroke-opacity:0.1; fill:none" points="86.9921,691.337 2352.76,691.337 "/>
<polyline clip-path="url(#clip212)" style="stroke:#000000; stroke-linecap:round; stroke-linejoin:round; stroke-width:2; stroke-opacity:0.1; fill:none" points="86.9921,428.684 2352.76,428.684 "/>
<polyline clip-path="url(#clip212)" style="stroke:#000000; stroke-linecap:round; stroke-linejoin:round; stroke-width:2; stroke-opacity:0.1; fill:none" points="86.9921,166.03 2352.76,166.03 "/>
<polyline clip-path="url(#clip210)" style="stroke:#000000; stroke-linecap:round; stroke-linejoin:round; stroke-width:4; stroke-opacity:1; fill:none" points="86.9921,1521.01 86.9921,47.2441 "/>
<polyline clip-path="url(#clip210)" style="stroke:#000000; stroke-linecap:round; stroke-linejoin:round; stroke-width:4; stroke-opacity:1; fill:none" points="86.9921,1479.3 105.89,1479.3 "/>
<polyline clip-path="url(#clip210)" style="stroke:#000000; stroke-linecap:round; stroke-linejoin:round; stroke-width:4; stroke-opacity:1; fill:none" points="86.9921,1216.64 105.89,1216.64 "/>
<polyline clip-path="url(#clip210)" style="stroke:#000000; stroke-linecap:round; stroke-linejoin:round; stroke-width:4; stroke-opacity:1; fill:none" points="86.9921,953.991 105.89,953.991 "/>
<polyline clip-path="url(#clip210)" style="stroke:#000000; stroke-linecap:round; stroke-linejoin:round; stroke-width:4; stroke-opacity:1; fill:none" points="86.9921,691.337 105.89,691.337 "/>
<polyline clip-path="url(#clip210)" style="stroke:#000000; stroke-linecap:round; stroke-linejoin:round; stroke-width:4; stroke-opacity:1; fill:none" points="86.9921,428.684 105.89,428.684 "/>
<polyline clip-path="url(#clip210)" style="stroke:#000000; stroke-linecap:round; stroke-linejoin:round; stroke-width:4; stroke-opacity:1; fill:none" points="86.9921,166.03 105.89,166.03 "/>
<path clip-path="url(#clip210)" d="M10.8708 1479.3 Q10.8708 1482.91 14.4356 1484.74 Q17.9773 1486.54 25.1068 1486.54 Q32.2133 1486.54 35.7781 1484.74 Q39.3197 1482.91 39.3197 1479.3 Q39.3197 1475.66 35.7781 1473.86 Q32.2133 1472.03 25.1068 1472.03 Q17.9773 1472.03 14.4356 1473.86 Q10.8708 1475.66 10.8708 1479.3 M7.16713 1479.3 Q7.16713 1473.49 11.7736 1470.43 Q16.3569 1467.35 25.1068 1467.35 Q33.8337 1467.35 38.4401 1470.43 Q43.0234 1473.49 43.0234 1479.3 Q43.0234 1485.11 38.4401 1488.19 Q33.8337 1491.24 25.1068 1491.24 Q16.3569 1491.24 11.7736 1488.19 Q7.16713 1485.11 7.16713 1479.3 Z" fill="#000000" fill-rule="nonzero" fill-opacity="1" /><path clip-path="url(#clip210)" d="M7.79213 1226.37 L7.79213 1208.01 L11.7273 1208.01 L11.7273 1222.08 L20.1995 1222.08 Q19.8522 1221.07 19.6902 1220.05 Q19.505 1219.03 19.505 1218.01 Q19.505 1212.22 22.6763 1208.84 Q25.8476 1205.46 31.2642 1205.46 Q36.8429 1205.46 39.9447 1208.94 Q43.0234 1212.41 43.0234 1218.73 Q43.0234 1220.9 42.6531 1223.17 Q42.2827 1225.42 41.5419 1227.82 L36.8429 1227.82 Q37.9771 1225.74 38.5327 1223.52 Q39.0883 1221.3 39.0883 1218.82 Q39.0883 1214.82 36.9818 1212.48 Q34.8753 1210.14 31.2642 1210.14 Q27.6531 1210.14 25.5467 1212.48 Q23.4402 1214.82 23.4402 1218.82 Q23.4402 1220.7 23.8569 1222.57 Q24.2735 1224.42 25.1531 1226.37 L7.79213 1226.37 Z" fill="#000000" fill-rule="nonzero" fill-opacity="1" /><path clip-path="url(#clip210)" d="M38.417 979.303 L38.417 971.664 L12.0514 971.664 L13.718 979.974 L9.45878 979.974 L7.79213 971.711 L7.79213 967.035 L38.417 967.035 L38.417 959.396 L42.3521 959.396 L42.3521 979.303 L38.417 979.303 Z" fill="#000000" fill-rule="nonzero" fill-opacity="1" /><path clip-path="url(#clip210)" d="M10.8708 939.951 Q10.8708 943.563 14.4356 945.391 Q17.9773 947.197 25.1068 947.197 Q32.2133 947.197 35.7781 945.391 Q39.3197 943.563 39.3197 939.951 Q39.3197 936.317 35.7781 934.512 Q32.2133 932.683 25.1068 932.683 Q17.9773 932.683 14.4356 934.512 Q10.8708 936.317 10.8708 939.951 M7.16713 939.951 Q7.16713 934.141 11.7736 931.086 Q16.3569 928.007 25.1068 928.007 Q33.8337 928.007 38.4401 931.086 Q43.0234 934.141 43.0234 939.951 Q43.0234 945.762 38.4401 948.84 Q33.8337 951.896 25.1068 951.896 Q16.3569 951.896 11.7736 948.84 Q7.16713 945.762 7.16713 939.951 Z" fill="#000000" fill-rule="nonzero" fill-opacity="1" /><path clip-path="url(#clip210)" d="M38.417 716.152 L38.417 708.513 L12.0514 708.513 L13.718 716.823 L9.45878 716.823 L7.79213 708.559 L7.79213 703.884 L38.417 703.884 L38.417 696.245 L42.3521 696.245 L42.3521 716.152 L38.417 716.152 Z" fill="#000000" fill-rule="nonzero" fill-opacity="1" /><path clip-path="url(#clip210)" d="M7.79213 686.754 L7.79213 668.398 L11.7273 668.398 L11.7273 682.472 L20.1995 682.472 Q19.8522 681.453 19.6902 680.435 Q19.505 679.416 19.505 678.398 Q19.505 672.611 22.6763 669.231 Q25.8476 665.851 31.2642 665.851 Q36.8429 665.851 39.9447 669.324 Q43.0234 672.796 43.0234 679.115 Q43.0234 681.291 42.6531 683.56 Q42.2827 685.805 41.5419 688.212 L36.8429 688.212 Q37.9771 686.129 38.5327 683.907 Q39.0883 681.685 39.0883 679.208 Q39.0883 675.203 36.9818 672.865 Q34.8753 670.527 31.2642 670.527 Q27.6531 670.527 25.5467 672.865 Q23.4402 675.203 23.4402 679.208 Q23.4402 681.083 23.8569 682.958 Q24.2735 684.81 25.1531 686.754 L7.79213 686.754 Z" fill="#000000" fill-rule="nonzero" fill-opacity="1" /><path clip-path="url(#clip210)" d="M38.417 449.911 L38.417 433.591 L42.3521 433.591 L42.3521 455.536 L38.417 455.536 Q35.6623 452.874 31.0327 448.29 Q26.38 443.684 25.0374 442.503 Q22.5143 440.258 20.7782 439.378 Q19.0189 438.476 17.3291 438.476 Q14.5745 438.476 12.8384 440.42 Q11.1023 442.341 11.1023 445.443 Q11.1023 447.642 11.8662 450.096 Q12.6301 452.526 14.181 455.304 L9.45878 455.304 Q8.32453 452.48 7.74583 450.026 Q7.16713 447.573 7.16713 445.536 Q7.16713 440.165 9.8523 436.971 Q12.5375 433.776 17.0282 433.776 Q19.1578 433.776 21.0791 434.587 Q22.9772 435.374 25.5698 437.48 Q26.2411 438.059 29.4587 441.161 Q32.6531 444.263 38.417 449.911 Z" fill="#000000" fill-rule="nonzero" fill-opacity="1" /><path clip-path="url(#clip210)" d="M10.8708 413.777 Q10.8708 417.388 14.4356 419.216 Q17.9773 421.022 25.1068 421.022 Q32.2133 421.022 35.7781 419.216 Q39.3197 417.388 39.3197 413.777 Q39.3197 410.142 35.7781 408.337 Q32.2133 406.508 25.1068 406.508 Q17.9773 406.508 14.4356 408.337 Q10.8708 410.142 10.8708 413.777 M7.16713 413.777 Q7.16713 407.966 11.7736 404.911 Q16.3569 401.832 25.1068 401.832 Q33.8337 401.832 38.4401 404.911 Q43.0234 407.966 43.0234 413.777 Q43.0234 419.587 38.4401 422.665 Q33.8337 425.721 25.1068 425.721 Q16.3569 425.721 11.7736 422.665 Q7.16713 419.587 7.16713 413.777 Z" fill="#000000" fill-rule="nonzero" fill-opacity="1" /><path clip-path="url(#clip210)" d="M38.417 186.76 L38.417 170.44 L42.3521 170.44 L42.3521 192.385 L38.417 192.385 Q35.6623 189.722 31.0327 185.139 Q26.38 180.533 25.0374 179.352 Q22.5143 177.107 20.7782 176.227 Q19.0189 175.324 17.3291 175.324 Q14.5745 175.324 12.8384 177.269 Q11.1023 179.19 11.1023 182.292 Q11.1023 184.491 11.8662 186.945 Q12.6301 189.375 14.181 192.153 L9.45878 192.153 Q8.32453 189.329 7.74583 186.875 Q7.16713 184.422 7.16713 182.385 Q7.16713 177.014 9.8523 173.82 Q12.5375 170.625 17.0282 170.625 Q19.1578 170.625 21.0791 171.436 Q22.9772 172.223 25.5698 174.329 Q26.2411 174.908 29.4587 178.01 Q32.6531 181.111 38.417 186.76 Z" fill="#000000" fill-rule="nonzero" fill-opacity="1" /><path clip-path="url(#clip210)" d="M7.79213 160.579 L7.79213 142.223 L11.7273 142.223 L11.7273 156.297 L20.1995 156.297 Q19.8522 155.278 19.6902 154.26 Q19.505 153.241 19.505 152.223 Q19.505 146.436 22.6763 143.056 Q25.8476 139.676 31.2642 139.676 Q36.8429 139.676 39.9447 143.149 Q43.0234 146.621 43.0234 152.94 Q43.0234 155.116 42.6531 157.385 Q42.2827 159.63 41.5419 162.037 L36.8429 162.037 Q37.9771 159.954 38.5327 157.732 Q39.0883 155.51 39.0883 153.033 Q39.0883 149.028 36.9818 146.69 Q34.8753 144.352 31.2642 144.352 Q27.6531 144.352 25.5467 146.69 Q23.4402 149.028 23.4402 153.033 Q23.4402 154.908 23.8569 156.783 Q24.2735 158.635 25.1531 160.579 L7.79213 160.579 Z" fill="#000000" fill-rule="nonzero" fill-opacity="1" /><polyline clip-path="url(#clip212)" style="stroke:#009af9; stroke-linecap:round; stroke-linejoin:round; stroke-width:4; stroke-opacity:1; fill:none" points="151.118,1444.28 165.034,1444.2 293.711,1443.46 371.04,1442.99 436.422,1442.56 507.444,1442.08 572.92,1441.61 643.117,1441.09 724.448,1440.44 796.725,1439.82 860.105,1439.24 929.207,1438.57 998.719,1437.86 1075.57,1437 1148.7,1436.11 1224.73,1435.11 1288.74,1434.18 1366.88,1432.94 1438.46,1431.68 1504.57,1430.38 1571.54,1428.9 1646.6,1427.01 1714.61,1425.02 1753.54,1423.73 1792.48,1422.31 1828.53,1420.86 1864.58,1419.25 1900.12,1417.47 1935.66,1415.46 1970.16,1413.24 2004.67,1410.66 2022.36,1409.18 2040.04,1407.55 2057.73,1405.76 2075.42,1403.78 2094.8,1401.35 2114.17,1398.56 2123.86,1397.01 2133.55,1395.33 2143.24,1393.51 2152.93,1391.51 2167.01,1388.25 2181.08,1384.44 2188.12,1382.27 2195.16,1379.9 2202.19,1377.27 2209.23,1374.34 2216.27,1371.04 2223.31,1367.29 2230.34,1362.95 2237.38,1357.85 2240.9,1354.93 2244.42,1351.72 2247.94,1348.14 2251.46,1344.13 2254.97,1339.57 2258.49,1334.34 2262.01,1328.21 2265.53,1320.9 2266.97,1317.45 2268.42,1313.69 2269.86,1309.55 2271.31,1304.96 2272.75,1299.83 2274.19,1294.03 2274.91,1290.84 2275.64,1287.41 2276.36,1283.72 2277.08,1279.73 2277.8,1275.39 2278.52,1270.64 2279.25,1265.42 2279.97,1259.64 2280.69,1253.18 2281.41,1245.88 2281.77,1241.85 2282.13,1237.54 2282.49,1232.88 2282.86,1227.85 2283.22,1222.39 2283.58,1216.41 2283.94,1209.83 2284.3,1202.55 2284.66,1194.4 2285.02,1185.21 2285.2,1180.14 2285.38,1174.7 2285.56,1168.84 2285.74,1162.5 2285.92,1155.61 2286.1,1148.08 2286.28,1139.8 2286.46,1130.62 2286.65,1120.35 2286.83,1108.77 2287.01,1095.52 2287.19,1080.16 2287.37,1061.99 2287.55,1039.99 2287.73,1012.46 2287.91,976.411 2288.09,925.8 2288.27,845.701 2288.45,681.015 "/>
<polyline clip-path="url(#clip212)" style="stroke:#e26f46; stroke-linecap:round; stroke-linejoin:round; stroke-width:4; stroke-opacity:1; fill:none" points="151.118,1479.3 165.034,1479.3 293.711,1479.3 371.04,1479.3 436.422,1479.3 507.444,1479.3 572.92,1479.3 643.117,1479.3 724.448,1479.3 796.725,1479.3 860.105,1479.3 929.207,1479.3 998.719,1479.3 1075.57,1479.3 1148.7,1479.3 1224.73,1479.3 1288.74,1479.3 1327.81,1479.3 1366.88,1479.3 1384.77,1479.28 1402.67,1479.08 1411.62,1478.67 1420.57,1477.57 1425.04,1476.5 1429.51,1474.86 1433.99,1472.36 1438.46,1468.66 1442.59,1463.76 1446.73,1456.93 1450.86,1447.57 1454.99,1434.98 1457.06,1427.22 1459.12,1418.32 1461.19,1408.18 1463.25,1396.66 1465.32,1383.64 1467.39,1368.99 1469.45,1352.58 1471.52,1334.29 1473.58,1313.99 1475.65,1291.57 1477.72,1266.93 1479.78,1239.97 1481.85,1210.62 1483.91,1178.84 1485.98,1144.6 1488.05,1107.9 1490.11,1068.77 1492.18,1027.28 1494.24,983.528 1496.31,937.661 1498.38,889.86 1500.44,840.35 1502.51,789.394 1504.57,737.3 1508.76,629.727 1512.94,522.239 1515.04,469.692 1517.13,418.606 1519.22,369.493 1521.32,322.867 1522.36,300.644 1523.41,279.233 1524.46,258.692 1525.5,239.081 1526.55,220.458 1527.59,202.878 1528.64,186.393 1529.69,171.054 1530.73,156.908 1531.78,143.999 1532.83,132.368 1533.87,122.052 1534.92,113.084 1535.97,105.495 1537.01,99.3087 1538.06,94.547 1539.1,91.2267 1540.15,89.3599 1541.2,88.9544 1542.24,90.0134 1543.29,92.5354 1544.34,96.5145 1545.38,101.94 1546.43,108.796 1547.48,117.064 1548.52,126.719 1549.57,137.734 1550.62,150.074 1551.66,163.705 1552.71,178.586 1553.75,194.672 1554.8,211.918 1555.85,230.272 1556.89,249.681 1557.94,270.089 1558.99,291.438 1561.08,336.716 1563.17,385.011 1565.26,435.801 1567.36,488.554 1569.45,542.734 1571.54,597.818 1573.89,659.996 1576.23,721.989 1578.58,783.166 1580.92,842.956 1583.27,900.852 1585.62,956.422 1587.96,1009.31 1590.31,1059.22 1592.65,1105.96 1595,1149.38 1597.34,1189.41 1599.69,1226.05 1602.03,1259.32 1604.38,1289.32 1606.72,1316.18 1609.07,1340.05 1611.42,1361.13 1613.76,1379.6 1616.11,1395.68 1618.45,1409.58 1620.8,1421.51 1623.14,1431.69 1625.49,1440.3 1627.83,1447.55 1630.18,1453.61 1632.52,1458.64 1634.87,1462.78 1637.22,1466.18 1641.91,1471.17 1646.6,1474.38 1655.1,1477.45 1663.6,1478.66 1672.1,1479.09 1680.6,1479.24 1697.61,1479.29 1714.61,1479.3 1792.48,1479.3 1864.58,1479.3 1935.66,1479.3 2004.67,1479.3 2075.42,1479.3 2152.93,1479.3 2265.53,1479.3 2288.63,1479.3 "/>
<path clip-path="url(#clip210)" d="M162.518 251.89 L597.496 251.89 L597.496 96.3696 L162.518 96.3696  Z" fill="#ffffff" fill-rule="evenodd" fill-opacity="1"/>
<polyline clip-path="url(#clip210)" style="stroke:#000000; stroke-linecap:round; stroke-linejoin:round; stroke-width:4; stroke-opacity:1; fill:none" points="162.518,251.89 597.496,251.89 597.496,96.3696 162.518,96.3696 162.518,251.89 "/>
<polyline clip-path="url(#clip210)" style="stroke:#009af9; stroke-linecap:round; stroke-linejoin:round; stroke-width:4; stroke-opacity:1; fill:none" points="187.693,148.21 338.744,148.21 "/>
<path clip-path="url(#clip210)" d="M368.201 161.601 L368.201 175.351 L363.919 175.351 L363.919 139.564 L368.201 139.564 L368.201 143.499 Q369.544 141.184 371.581 140.073 Q373.641 138.939 376.488 138.939 Q381.21 138.939 384.15 142.689 Q387.113 146.439 387.113 152.55 Q387.113 158.661 384.15 162.411 Q381.21 166.161 376.488 166.161 Q373.641 166.161 371.581 165.05 Q369.544 163.915 368.201 161.601 M382.692 152.55 Q382.692 147.851 380.747 145.189 Q378.826 142.504 375.447 142.504 Q372.067 142.504 370.122 145.189 Q368.201 147.851 368.201 152.55 Q368.201 157.249 370.122 159.934 Q372.067 162.596 375.447 162.596 Q378.826 162.596 380.747 159.934 Q382.692 157.249 382.692 152.55 Z" fill="#000000" fill-rule="nonzero" fill-opacity="1" /><path clip-path="url(#clip210)" d="M409.196 143.545 Q408.479 143.129 407.622 142.943 Q406.789 142.735 405.77 142.735 Q402.159 142.735 400.215 145.096 Q398.294 147.434 398.294 151.832 L398.294 165.49 L394.011 165.49 L394.011 139.564 L398.294 139.564 L398.294 143.592 Q399.636 141.23 401.789 140.096 Q403.942 138.939 407.02 138.939 Q407.46 138.939 407.993 139.008 Q408.525 139.055 409.173 139.17 L409.196 143.545 Z" fill="#000000" fill-rule="nonzero" fill-opacity="1" /><path clip-path="url(#clip210)" d="M413.664 139.564 L417.923 139.564 L417.923 165.49 L413.664 165.49 L413.664 139.564 M413.664 129.471 L417.923 129.471 L417.923 134.865 L413.664 134.865 L413.664 129.471 Z" fill="#000000" fill-rule="nonzero" fill-opacity="1" /><path clip-path="url(#clip210)" d="M436.881 142.55 Q433.455 142.55 431.465 145.235 Q429.474 147.897 429.474 152.55 Q429.474 157.203 431.442 159.888 Q433.432 162.55 436.881 162.55 Q440.284 162.55 442.275 159.865 Q444.266 157.179 444.266 152.55 Q444.266 147.943 442.275 145.258 Q440.284 142.55 436.881 142.55 M436.881 138.939 Q442.437 138.939 445.608 142.55 Q448.779 146.161 448.779 152.55 Q448.779 158.916 445.608 162.55 Q442.437 166.161 436.881 166.161 Q431.303 166.161 428.131 162.55 Q424.983 158.916 424.983 152.55 Q424.983 146.161 428.131 142.55 Q431.303 138.939 436.881 138.939 Z" fill="#000000" fill-rule="nonzero" fill-opacity="1" /><path clip-path="url(#clip210)" d="M470.863 143.545 Q470.145 143.129 469.289 142.943 Q468.455 142.735 467.437 142.735 Q463.826 142.735 461.881 145.096 Q459.96 147.434 459.96 151.832 L459.96 165.49 L455.678 165.49 L455.678 139.564 L459.96 139.564 L459.96 143.592 Q461.303 141.23 463.455 140.096 Q465.608 138.939 468.687 138.939 Q469.127 138.939 469.659 139.008 Q470.191 139.055 470.84 139.17 L470.863 143.545 Z" fill="#000000" fill-rule="nonzero" fill-opacity="1" /><polyline clip-path="url(#clip210)" style="stroke:#e26f46; stroke-linecap:round; stroke-linejoin:round; stroke-width:4; stroke-opacity:1; fill:none" points="187.693,200.05 338.744,200.05 "/>
<path clip-path="url(#clip210)" d="M368.201 213.441 L368.201 227.191 L363.919 227.191 L363.919 191.404 L368.201 191.404 L368.201 195.339 Q369.544 193.024 371.581 191.913 Q373.641 190.779 376.488 190.779 Q381.21 190.779 384.15 194.529 Q387.113 198.279 387.113 204.39 Q387.113 210.501 384.15 214.251 Q381.21 218.001 376.488 218.001 Q373.641 218.001 371.581 216.89 Q369.544 215.755 368.201 213.441 M382.692 204.39 Q382.692 199.691 380.747 197.029 Q378.826 194.344 375.447 194.344 Q372.067 194.344 370.122 197.029 Q368.201 199.691 368.201 204.39 Q368.201 209.089 370.122 211.774 Q372.067 214.436 375.447 214.436 Q378.826 214.436 380.747 211.774 Q382.692 209.089 382.692 204.39 Z" fill="#000000" fill-rule="nonzero" fill-opacity="1" /><path clip-path="url(#clip210)" d="M404.22 194.39 Q400.794 194.39 398.803 197.075 Q396.812 199.737 396.812 204.39 Q396.812 209.043 398.78 211.728 Q400.77 214.39 404.22 214.39 Q407.622 214.39 409.613 211.705 Q411.604 209.019 411.604 204.39 Q411.604 199.783 409.613 197.098 Q407.622 194.39 404.22 194.39 M404.22 190.779 Q409.775 190.779 412.946 194.39 Q416.118 198.001 416.118 204.39 Q416.118 210.756 412.946 214.39 Q409.775 218.001 404.22 218.001 Q398.641 218.001 395.47 214.39 Q392.321 210.756 392.321 204.39 Q392.321 198.001 395.47 194.39 Q398.641 190.779 404.22 190.779 Z" fill="#000000" fill-rule="nonzero" fill-opacity="1" /><path clip-path="url(#clip210)" d="M439.705 192.168 L439.705 196.195 Q437.9 195.269 435.955 194.807 Q434.011 194.344 431.928 194.344 Q428.756 194.344 427.159 195.316 Q425.585 196.288 425.585 198.232 Q425.585 199.714 426.719 200.57 Q427.854 201.404 431.28 202.168 L432.738 202.492 Q437.275 203.464 439.173 205.246 Q441.094 207.006 441.094 210.177 Q441.094 213.788 438.224 215.894 Q435.377 218.001 430.377 218.001 Q428.293 218.001 426.025 217.584 Q423.78 217.191 421.28 216.38 L421.28 211.982 Q423.641 213.209 425.932 213.834 Q428.224 214.436 430.469 214.436 Q433.479 214.436 435.099 213.418 Q436.719 212.376 436.719 210.501 Q436.719 208.765 435.539 207.839 Q434.381 206.913 430.423 206.056 L428.942 205.709 Q424.983 204.876 423.224 203.163 Q421.465 201.427 421.465 198.418 Q421.465 194.76 424.057 192.77 Q426.65 190.779 431.418 190.779 Q433.78 190.779 435.863 191.126 Q437.946 191.473 439.705 192.168 Z" fill="#000000" fill-rule="nonzero" fill-opacity="1" /><path clip-path="url(#clip210)" d="M452.09 184.043 L452.09 191.404 L460.863 191.404 L460.863 194.714 L452.09 194.714 L452.09 208.788 Q452.09 211.959 452.946 212.862 Q453.826 213.765 456.488 213.765 L460.863 213.765 L460.863 217.33 L456.488 217.33 Q451.557 217.33 449.682 215.501 Q447.807 213.649 447.807 208.788 L447.807 194.714 L444.682 194.714 L444.682 191.404 L447.807 191.404 L447.807 184.043 L452.09 184.043 Z" fill="#000000" fill-rule="nonzero" fill-opacity="1" /><path clip-path="url(#clip210)" d="M488.64 203.302 L488.64 205.385 L469.057 205.385 Q469.335 209.783 471.696 212.098 Q474.08 214.39 478.316 214.39 Q480.77 214.39 483.062 213.788 Q485.376 213.186 487.645 211.982 L487.645 216.01 Q485.353 216.982 482.946 217.492 Q480.539 218.001 478.062 218.001 Q471.858 218.001 468.224 214.39 Q464.613 210.779 464.613 204.621 Q464.613 198.256 468.039 194.529 Q471.488 190.779 477.321 190.779 Q482.552 190.779 485.585 194.158 Q488.64 197.515 488.64 203.302 M484.381 202.052 Q484.335 198.557 482.414 196.473 Q480.515 194.39 477.367 194.39 Q473.802 194.39 471.65 196.404 Q469.52 198.418 469.196 202.075 L484.381 202.052 Z" fill="#000000" fill-rule="nonzero" fill-opacity="1" /><path clip-path="url(#clip210)" d="M510.654 195.385 Q509.937 194.969 509.08 194.783 Q508.247 194.575 507.228 194.575 Q503.617 194.575 501.673 196.936 Q499.751 199.274 499.751 203.672 L499.751 217.33 L495.469 217.33 L495.469 191.404 L499.751 191.404 L499.751 195.432 Q501.094 193.07 503.247 191.936 Q505.4 190.779 508.478 190.779 Q508.918 190.779 509.45 190.848 Q509.983 190.895 510.631 191.01 L510.654 195.385 Z" fill="#000000" fill-rule="nonzero" fill-opacity="1" /><path clip-path="url(#clip210)" d="M515.122 191.404 L519.381 191.404 L519.381 217.33 L515.122 217.33 L515.122 191.404 M515.122 181.311 L519.381 181.311 L519.381 186.705 L515.122 186.705 L515.122 181.311 Z" fill="#000000" fill-rule="nonzero" fill-opacity="1" /><path clip-path="url(#clip210)" d="M538.339 194.39 Q534.913 194.39 532.923 197.075 Q530.932 199.737 530.932 204.39 Q530.932 209.043 532.899 211.728 Q534.89 214.39 538.339 214.39 Q541.742 214.39 543.733 211.705 Q545.723 209.019 545.723 204.39 Q545.723 199.783 543.733 197.098 Q541.742 194.39 538.339 194.39 M538.339 190.779 Q543.895 190.779 547.066 194.39 Q550.237 198.001 550.237 204.39 Q550.237 210.756 547.066 214.39 Q543.895 218.001 538.339 218.001 Q532.76 218.001 529.589 214.39 Q526.441 210.756 526.441 204.39 Q526.441 198.001 529.589 194.39 Q532.76 190.779 538.339 190.779 Z" fill="#000000" fill-rule="nonzero" fill-opacity="1" /><path clip-path="url(#clip210)" d="M572.32 195.385 Q571.603 194.969 570.746 194.783 Q569.913 194.575 568.895 194.575 Q565.283 194.575 563.339 196.936 Q561.418 199.274 561.418 203.672 L561.418 217.33 L557.135 217.33 L557.135 191.404 L561.418 191.404 L561.418 195.432 Q562.76 193.07 564.913 191.936 Q567.066 190.779 570.145 190.779 Q570.584 190.779 571.117 190.848 Q571.649 190.895 572.297 191.01 L572.32 195.385 Z" fill="#000000" fill-rule="nonzero" fill-opacity="1" /></svg>
