<?xml version="1.0" encoding="utf-8"?>
<svg xmlns="http://www.w3.org/2000/svg" xmlns:xlink="http://www.w3.org/1999/xlink" width="600" height="400" viewBox="0 0 2400 1600">
<defs>
  <clipPath id="clip840">
    <rect x="0" y="0" width="2400" height="1600"/>
  </clipPath>
</defs>
<path clip-path="url(#clip840)" d="M0 1600 L2400 1600 L2400 0 L0 0  Z" fill="#ffffff" fill-rule="evenodd" fill-opacity="1"/>
<defs>
  <clipPath id="clip841">
    <rect x="480" y="0" width="1681" height="1600"/>
  </clipPath>
</defs>
<path clip-path="url(#clip840)" d="M86.9921 1521.01 L2352.76 1521.01 L2352.76 47.2441 L86.9921 47.2441  Z" fill="#ffffff" fill-rule="evenodd" fill-opacity="1"/>
<defs>
  <clipPath id="clip842">
    <rect x="86" y="47" width="2267" height="1475"/>
  </clipPath>
</defs>
<polyline clip-path="url(#clip842)" style="stroke:#000000; stroke-linecap:round; stroke-linejoin:round; stroke-width:2; stroke-opacity:0.1; fill:none" points="151.118,1521.01 151.118,47.2441 "/>
<polyline clip-path="url(#clip842)" style="stroke:#000000; stroke-linecap:round; stroke-linejoin:round; stroke-width:2; stroke-opacity:0.1; fill:none" points="685.496,1521.01 685.496,47.2441 "/>
<polyline clip-path="url(#clip842)" style="stroke:#000000; stroke-linecap:round; stroke-linejoin:round; stroke-width:2; stroke-opacity:0.1; fill:none" points="1219.87,1521.01 1219.87,47.2441 "/>
<polyline clip-path="url(#clip842)" style="stroke:#000000; stroke-linecap:round; stroke-linejoin:round; stroke-width:2; stroke-opacity:0.1; fill:none" points="1754.25,1521.01 1754.25,47.2441 "/>
<polyline clip-path="url(#clip842)" style="stroke:#000000; stroke-linecap:round; stroke-linejoin:round; stroke-width:2; stroke-opacity:0.1; fill:none" points="2288.63,1521.01 2288.63,47.2441 "/>
<polyline clip-path="url(#clip840)" style="stroke:#000000; stroke-linecap:round; stroke-linejoin:round; stroke-width:4; stroke-opacity:1; fill:none" points="86.9921,1521.01 2352.76,1521.01 "/>
<polyline clip-path="url(#clip840)" style="stroke:#000000; stroke-linecap:round; stroke-linejoin:round; stroke-width:4; stroke-opacity:1; fill:none" points="151.118,1521.01 151.118,1502.11 "/>
<polyline clip-path="url(#clip840)" style="stroke:#000000; stroke-linecap:round; stroke-linejoin:round; stroke-width:4; stroke-opacity:1; fill:none" points="685.496,1521.01 685.496,1502.11 "/>
<polyline clip-path="url(#clip840)" style="stroke:#000000; stroke-linecap:round; stroke-linejoin:round; stroke-width:4; stroke-opacity:1; fill:none" points="1219.87,1521.01 1219.87,1502.11 "/>
<polyline clip-path="url(#clip840)" style="stroke:#000000; stroke-linecap:round; stroke-linejoin:round; stroke-width:4; stroke-opacity:1; fill:none" points="1754.25,1521.01 1754.25,1502.11 "/>
<polyline clip-path="url(#clip840)" style="stroke:#000000; stroke-linecap:round; stroke-linejoin:round; stroke-width:4; stroke-opacity:1; fill:none" points="2288.63,1521.01 2288.63,1502.11 "/>
<path clip-path="url(#clip840)" d="M113.421 1551.93 Q109.81 1551.93 107.981 1555.49 Q106.176 1559.03 106.176 1566.16 Q106.176 1573.27 107.981 1576.83 Q109.81 1580.38 113.421 1580.38 Q117.055 1580.38 118.861 1576.83 Q120.689 1573.27 120.689 1566.16 Q120.689 1559.03 118.861 1555.49 Q117.055 1551.93 113.421 1551.93 M113.421 1548.22 Q119.231 1548.22 122.287 1552.83 Q125.365 1557.41 125.365 1566.16 Q125.365 1574.89 122.287 1579.5 Q119.231 1584.08 113.421 1584.08 Q107.611 1584.08 104.532 1579.5 Q101.477 1574.89 101.477 1566.16 Q101.477 1557.41 104.532 1552.83 Q107.611 1548.22 113.421 1548.22 Z" fill="#000000" fill-rule="nonzero" fill-opacity="1" /><path clip-path="url(#clip840)" d="M133.583 1577.53 L138.467 1577.53 L138.467 1583.41 L133.583 1583.41 L133.583 1577.53 Z" fill="#000000" fill-rule="nonzero" fill-opacity="1" /><path clip-path="url(#clip840)" d="M158.652 1551.93 Q155.041 1551.93 153.212 1555.49 Q151.407 1559.03 151.407 1566.16 Q151.407 1573.27 153.212 1576.83 Q155.041 1580.38 158.652 1580.38 Q162.286 1580.38 164.092 1576.83 Q165.921 1573.27 165.921 1566.16 Q165.921 1559.03 164.092 1555.49 Q162.286 1551.93 158.652 1551.93 M158.652 1548.22 Q164.462 1548.22 167.518 1552.83 Q170.597 1557.41 170.597 1566.16 Q170.597 1574.89 167.518 1579.5 Q164.462 1584.08 158.652 1584.08 Q152.842 1584.08 149.763 1579.5 Q146.708 1574.89 146.708 1566.16 Q146.708 1557.41 149.763 1552.83 Q152.842 1548.22 158.652 1548.22 Z" fill="#000000" fill-rule="nonzero" fill-opacity="1" /><path clip-path="url(#clip840)" d="M188.814 1551.93 Q185.203 1551.93 183.374 1555.49 Q181.569 1559.03 181.569 1566.16 Q181.569 1573.27 183.374 1576.83 Q185.203 1580.38 188.814 1580.38 Q192.448 1580.38 194.254 1576.83 Q196.083 1573.27 196.083 1566.16 Q196.083 1559.03 194.254 1555.49 Q192.448 1551.93 188.814 1551.93 M188.814 1548.22 Q194.624 1548.22 197.68 1552.83 Q200.758 1557.41 200.758 1566.16 Q200.758 1574.89 197.68 1579.5 Q194.624 1584.08 188.814 1584.08 Q183.004 1584.08 179.925 1579.5 Q176.87 1574.89 176.87 1566.16 Q176.87 1557.41 179.925 1552.83 Q183.004 1548.22 188.814 1548.22 Z" fill="#000000" fill-rule="nonzero" fill-opacity="1" /><path clip-path="url(#clip840)" d="M648.297 1551.93 Q644.686 1551.93 642.857 1555.49 Q641.052 1559.03 641.052 1566.16 Q641.052 1573.27 642.857 1576.83 Q644.686 1580.38 648.297 1580.38 Q651.931 1580.38 653.737 1576.83 Q655.565 1573.27 655.565 1566.16 Q655.565 1559.03 653.737 1555.49 Q651.931 1551.93 648.297 1551.93 M648.297 1548.22 Q654.107 1548.22 657.163 1552.83 Q660.241 1557.41 660.241 1566.16 Q660.241 1574.89 657.163 1579.5 Q654.107 1584.08 648.297 1584.08 Q642.487 1584.08 639.408 1579.5 Q636.353 1574.89 636.353 1566.16 Q636.353 1557.41 639.408 1552.83 Q642.487 1548.22 648.297 1548.22 Z" fill="#000000" fill-rule="nonzero" fill-opacity="1" /><path clip-path="url(#clip840)" d="M668.459 1577.53 L673.343 1577.53 L673.343 1583.41 L668.459 1583.41 L668.459 1577.53 Z" fill="#000000" fill-rule="nonzero" fill-opacity="1" /><path clip-path="url(#clip840)" d="M687.556 1579.47 L703.875 1579.47 L703.875 1583.41 L681.931 1583.41 L681.931 1579.47 Q684.593 1576.72 689.176 1572.09 Q693.783 1567.44 694.963 1566.09 Q697.209 1563.57 698.088 1561.83 Q698.991 1560.07 698.991 1558.38 Q698.991 1555.63 697.047 1553.89 Q695.125 1552.16 692.024 1552.16 Q689.824 1552.16 687.371 1552.92 Q684.94 1553.69 682.162 1555.24 L682.162 1550.51 Q684.987 1549.38 687.44 1548.8 Q689.894 1548.22 691.931 1548.22 Q697.301 1548.22 700.496 1550.91 Q703.69 1553.59 703.69 1558.08 Q703.69 1560.21 702.88 1562.13 Q702.093 1564.03 699.986 1566.63 Q699.408 1567.3 696.306 1570.51 Q693.204 1573.71 687.556 1579.47 Z" fill="#000000" fill-rule="nonzero" fill-opacity="1" /><path clip-path="url(#clip840)" d="M713.736 1548.85 L732.093 1548.85 L732.093 1552.78 L718.019 1552.78 L718.019 1561.26 Q719.037 1560.91 720.056 1560.75 Q721.074 1560.56 722.093 1560.56 Q727.88 1560.56 731.259 1563.73 Q734.639 1566.9 734.639 1572.32 Q734.639 1577.9 731.167 1581 Q727.695 1584.08 721.375 1584.08 Q719.199 1584.08 716.931 1583.71 Q714.685 1583.34 712.278 1582.6 L712.278 1577.9 Q714.361 1579.03 716.584 1579.59 Q718.806 1580.14 721.283 1580.14 Q725.287 1580.14 727.625 1578.04 Q729.963 1575.93 729.963 1572.32 Q729.963 1568.71 727.625 1566.6 Q725.287 1564.5 721.283 1564.5 Q719.408 1564.5 717.533 1564.91 Q715.681 1565.33 713.736 1566.21 L713.736 1548.85 Z" fill="#000000" fill-rule="nonzero" fill-opacity="1" /><path clip-path="url(#clip840)" d="M1182.18 1551.93 Q1178.57 1551.93 1176.74 1555.49 Q1174.93 1559.03 1174.93 1566.16 Q1174.93 1573.27 1176.74 1576.83 Q1178.57 1580.38 1182.18 1580.38 Q1185.81 1580.38 1187.62 1576.83 Q1189.45 1573.27 1189.45 1566.16 Q1189.45 1559.03 1187.62 1555.49 Q1185.81 1551.93 1182.18 1551.93 M1182.18 1548.22 Q1187.99 1548.22 1191.04 1552.83 Q1194.12 1557.41 1194.12 1566.16 Q1194.12 1574.89 1191.04 1579.5 Q1187.99 1584.08 1182.18 1584.08 Q1176.37 1584.08 1173.29 1579.5 Q1170.23 1574.89 1170.23 1566.16 Q1170.23 1557.41 1173.29 1552.83 Q1176.37 1548.22 1182.18 1548.22 Z" fill="#000000" fill-rule="nonzero" fill-opacity="1" /><path clip-path="url(#clip840)" d="M1202.34 1577.53 L1207.22 1577.53 L1207.22 1583.41 L1202.34 1583.41 L1202.34 1577.53 Z" fill="#000000" fill-rule="nonzero" fill-opacity="1" /><path clip-path="url(#clip840)" d="M1217.46 1548.85 L1235.81 1548.85 L1235.81 1552.78 L1221.74 1552.78 L1221.74 1561.26 Q1222.76 1560.91 1223.77 1560.75 Q1224.79 1560.56 1225.81 1560.56 Q1231.6 1560.56 1234.98 1563.73 Q1238.36 1566.9 1238.36 1572.32 Q1238.36 1577.9 1234.89 1581 Q1231.41 1584.08 1225.09 1584.08 Q1222.92 1584.08 1220.65 1583.71 Q1218.4 1583.34 1216 1582.6 L1216 1577.9 Q1218.08 1579.03 1220.3 1579.59 Q1222.52 1580.14 1225 1580.14 Q1229.01 1580.14 1231.34 1578.04 Q1233.68 1575.93 1233.68 1572.32 Q1233.68 1568.71 1231.34 1566.6 Q1229.01 1564.5 1225 1564.5 Q1223.13 1564.5 1221.25 1564.91 Q1219.4 1565.33 1217.46 1566.21 L1217.46 1548.85 Z" fill="#000000" fill-rule="nonzero" fill-opacity="1" /><path clip-path="url(#clip840)" d="M1257.57 1551.93 Q1253.96 1551.93 1252.13 1555.49 Q1250.33 1559.03 1250.33 1566.16 Q1250.33 1573.27 1252.13 1576.83 Q1253.96 1580.38 1257.57 1580.38 Q1261.2 1580.38 1263.01 1576.83 Q1264.84 1573.27 1264.84 1566.16 Q1264.84 1559.03 1263.01 1555.49 Q1261.2 1551.93 1257.57 1551.93 M1257.57 1548.22 Q1263.38 1548.22 1266.44 1552.83 Q1269.51 1557.41 1269.51 1566.16 Q1269.51 1574.89 1266.44 1579.5 Q1263.38 1584.08 1257.57 1584.08 Q1251.76 1584.08 1248.68 1579.5 Q1245.63 1574.89 1245.63 1566.16 Q1245.63 1557.41 1248.68 1552.83 Q1251.76 1548.22 1257.57 1548.22 Z" fill="#000000" fill-rule="nonzero" fill-opacity="1" /><path clip-path="url(#clip840)" d="M1717.05 1551.93 Q1713.44 1551.93 1711.61 1555.49 Q1709.81 1559.03 1709.81 1566.16 Q1709.81 1573.27 1711.61 1576.83 Q1713.44 1580.38 1717.05 1580.38 Q1720.69 1580.38 1722.49 1576.83 Q1724.32 1573.27 1724.32 1566.16 Q1724.32 1559.03 1722.49 1555.49 Q1720.69 1551.93 1717.05 1551.93 M1717.05 1548.22 Q1722.86 1548.22 1725.92 1552.83 Q1729 1557.41 1729 1566.16 Q1729 1574.89 1725.92 1579.5 Q1722.86 1584.08 1717.05 1584.08 Q1711.24 1584.08 1708.16 1579.5 Q1705.11 1574.89 1705.11 1566.16 Q1705.11 1557.41 1708.16 1552.83 Q1711.24 1548.22 1717.05 1548.22 Z" fill="#000000" fill-rule="nonzero" fill-opacity="1" /><path clip-path="url(#clip840)" d="M1737.22 1577.53 L1742.1 1577.53 L1742.1 1583.41 L1737.22 1583.41 L1737.22 1577.53 Z" fill="#000000" fill-rule="nonzero" fill-opacity="1" /><path clip-path="url(#clip840)" d="M1751.1 1548.85 L1773.33 1548.85 L1773.33 1550.84 L1760.78 1583.41 L1755.9 1583.41 L1767.7 1552.78 L1751.1 1552.78 L1751.1 1548.85 Z" fill="#000000" fill-rule="nonzero" fill-opacity="1" /><path clip-path="url(#clip840)" d="M1782.49 1548.85 L1800.85 1548.85 L1800.85 1552.78 L1786.78 1552.78 L1786.78 1561.26 Q1787.79 1560.91 1788.81 1560.75 Q1789.83 1560.56 1790.85 1560.56 Q1796.64 1560.56 1800.02 1563.73 Q1803.4 1566.9 1803.4 1572.32 Q1803.4 1577.9 1799.92 1581 Q1796.45 1584.08 1790.13 1584.08 Q1787.96 1584.08 1785.69 1583.71 Q1783.44 1583.34 1781.03 1582.6 L1781.03 1577.9 Q1783.12 1579.03 1785.34 1579.59 Q1787.56 1580.14 1790.04 1580.14 Q1794.04 1580.14 1796.38 1578.04 Q1798.72 1575.93 1798.72 1572.32 Q1798.72 1568.71 1796.38 1566.6 Q1794.04 1564.5 1790.04 1564.5 Q1788.16 1564.5 1786.29 1564.91 Q1784.44 1565.33 1782.49 1566.21 L1782.49 1548.85 Z" fill="#000000" fill-rule="nonzero" fill-opacity="1" /><path clip-path="url(#clip840)" d="M2240.7 1579.47 L2248.34 1579.47 L2248.34 1553.11 L2240.03 1554.77 L2240.03 1550.51 L2248.3 1548.85 L2252.97 1548.85 L2252.97 1579.47 L2260.61 1579.47 L2260.61 1583.41 L2240.7 1583.41 L2240.7 1579.47 Z" fill="#000000" fill-rule="nonzero" fill-opacity="1" /><path clip-path="url(#clip840)" d="M2270.05 1577.53 L2274.94 1577.53 L2274.94 1583.41 L2270.05 1583.41 L2270.05 1577.53 Z" fill="#000000" fill-rule="nonzero" fill-opacity="1" /><path clip-path="url(#clip840)" d="M2295.12 1551.93 Q2291.51 1551.93 2289.68 1555.49 Q2287.88 1559.03 2287.88 1566.16 Q2287.88 1573.27 2289.68 1576.83 Q2291.51 1580.38 2295.12 1580.38 Q2298.76 1580.38 2300.56 1576.83 Q2302.39 1573.27 2302.39 1566.16 Q2302.39 1559.03 2300.56 1555.49 Q2298.76 1551.93 2295.12 1551.93 M2295.12 1548.22 Q2300.93 1548.22 2303.99 1552.83 Q2307.07 1557.41 2307.07 1566.16 Q2307.07 1574.89 2303.99 1579.5 Q2300.93 1584.08 2295.12 1584.08 Q2289.31 1584.08 2286.23 1579.5 Q2283.18 1574.89 2283.18 1566.16 Q2283.18 1557.41 2286.23 1552.83 Q2289.31 1548.22 2295.12 1548.22 Z" fill="#000000" fill-rule="nonzero" fill-opacity="1" /><path clip-path="url(#clip840)" d="M2325.29 1551.93 Q2321.67 1551.93 2319.85 1555.49 Q2318.04 1559.03 2318.04 1566.16 Q2318.04 1573.27 2319.85 1576.83 Q2321.67 1580.38 2325.29 1580.38 Q2328.92 1580.38 2330.73 1576.83 Q2332.55 1573.27 2332.55 1566.16 Q2332.55 1559.03 2330.73 1555.49 Q2328.92 1551.93 2325.29 1551.93 M2325.29 1548.22 Q2331.1 1548.22 2334.15 1552.83 Q2337.23 1557.41 2337.23 1566.16 Q2337.23 1574.89 2334.15 1579.5 Q2331.1 1584.08 2325.29 1584.08 Q2319.48 1584.08 2316.4 1579.5 Q2313.34 1574.89 2313.34 1566.16 Q2313.34 1557.41 2316.4 1552.83 Q2319.48 1548.22 2325.29 1548.22 Z" fill="#000000" fill-rule="nonzero" fill-opacity="1" /><polyline clip-path="url(#clip842)" style="stroke:#000000; stroke-linecap:round; stroke-linejoin:round; stroke-width:2; stroke-opacity:0.1; fill:none" points="86.9921,1351.71 2352.76,1351.71 "/>
<polyline clip-path="url(#clip842)" style="stroke:#000000; stroke-linecap:round; stroke-linejoin:round; stroke-width:2; stroke-opacity:0.1; fill:none" points="86.9921,1160.33 2352.76,1160.33 "/>
<polyline clip-path="url(#clip842)" style="stroke:#000000; stroke-linecap:round; stroke-linejoin:round; stroke-width:2; stroke-opacity:0.1; fill:none" points="86.9921,968.957 2352.76,968.957 "/>
<polyline clip-path="url(#clip842)" style="stroke:#000000; stroke-linecap:round; stroke-linejoin:round; stroke-width:2; stroke-opacity:0.1; fill:none" points="86.9921,777.579 2352.76,777.579 "/>
<polyline clip-path="url(#clip842)" style="stroke:#000000; stroke-linecap:round; stroke-linejoin:round; stroke-width:2; stroke-opacity:0.1; fill:none" points="86.9921,586.201 2352.76,586.201 "/>
<polyline clip-path="url(#clip842)" style="stroke:#000000; stroke-linecap:round; stroke-linejoin:round; stroke-width:2; stroke-opacity:0.1; fill:none" points="86.9921,394.823 2352.76,394.823 "/>
<polyline clip-path="url(#clip842)" style="stroke:#000000; stroke-linecap:round; stroke-linejoin:round; stroke-width:2; stroke-opacity:0.1; fill:none" points="86.9921,203.446 2352.76,203.446 "/>
<polyline clip-path="url(#clip840)" style="stroke:#000000; stroke-linecap:round; stroke-linejoin:round; stroke-width:4; stroke-opacity:1; fill:none" points="86.9921,1521.01 86.9921,47.2441 "/>
<polyline clip-path="url(#clip840)" style="stroke:#000000; stroke-linecap:round; stroke-linejoin:round; stroke-width:4; stroke-opacity:1; fill:none" points="86.9921,1351.71 105.89,1351.71 "/>
<polyline clip-path="url(#clip840)" style="stroke:#000000; stroke-linecap:round; stroke-linejoin:round; stroke-width:4; stroke-opacity:1; fill:none" points="86.9921,1160.33 105.89,1160.33 "/>
<polyline clip-path="url(#clip840)" style="stroke:#000000; stroke-linecap:round; stroke-linejoin:round; stroke-width:4; stroke-opacity:1; fill:none" points="86.9921,968.957 105.89,968.957 "/>
<polyline clip-path="url(#clip840)" style="stroke:#000000; stroke-linecap:round; stroke-linejoin:round; stroke-width:4; stroke-opacity:1; fill:none" points="86.9921,777.579 105.89,777.579 "/>
<polyline clip-path="url(#clip840)" style="stroke:#000000; stroke-linecap:round; stroke-linejoin:round; stroke-width:4; stroke-opacity:1; fill:none" points="86.9921,586.201 105.89,586.201 "/>
<polyline clip-path="url(#clip840)" style="stroke:#000000; stroke-linecap:round; stroke-linejoin:round; stroke-width:4; stroke-opacity:1; fill:none" points="86.9921,394.823 105.89,394.823 "/>
<polyline clip-path="url(#clip840)" style="stroke:#000000; stroke-linecap:round; stroke-linejoin:round; stroke-width:4; stroke-opacity:1; fill:none" points="86.9921,203.446 105.89,203.446 "/>
<path clip-path="url(#clip840)" d="M38.417 1357.06 L38.417 1340.74 L42.3521 1340.74 L42.3521 1362.68 L38.417 1362.68 Q35.6623 1360.02 31.0327 1355.44 Q26.38 1350.83 25.0374 1349.65 Q22.5143 1347.41 20.7782 1346.53 Q19.0189 1345.62 17.3291 1345.62 Q14.5745 1345.62 12.8384 1347.57 Q11.1023 1349.49 11.1023 1352.59 Q11.1023 1354.79 11.8662 1357.24 Q12.6301 1359.68 14.181 1362.45 L9.45878 1362.45 Q8.32453 1359.63 7.74583 1357.18 Q7.16713 1354.72 7.16713 1352.68 Q7.16713 1347.31 9.8523 1344.12 Q12.5375 1340.93 17.0282 1340.93 Q19.1578 1340.93 21.0791 1341.74 Q22.9772 1342.52 25.5698 1344.63 Q26.2411 1345.21 29.4587 1348.31 Q32.6531 1351.41 38.417 1357.06 Z" fill="#000000" fill-rule="nonzero" fill-opacity="1" /><path clip-path="url(#clip840)" d="M11.8662 1157.33 L30.3152 1169.13 L30.3152 1157.33 L11.8662 1157.33 M7.79213 1158.55 L7.79213 1152.67 L30.3152 1152.67 L30.3152 1147.74 L34.204 1147.74 L34.204 1152.67 L42.3521 1152.67 L42.3521 1157.33 L34.204 1157.33 L34.204 1172.93 L29.6902 1172.93 L7.79213 1158.55 Z" fill="#000000" fill-rule="nonzero" fill-opacity="1" /><path clip-path="url(#clip840)" d="M23.2087 968.552 Q23.2087 971.7 25.3615 973.552 Q27.5142 975.38 31.2642 975.38 Q34.9911 975.38 37.167 973.552 Q39.3197 971.7 39.3197 968.552 Q39.3197 965.404 37.167 963.575 Q34.9911 961.723 31.2642 961.723 Q27.5142 961.723 25.3615 963.575 Q23.2087 965.404 23.2087 968.552 M8.55601 959.269 L12.8152 959.269 Q11.9819 961.029 11.5421 962.834 Q11.1023 964.617 11.1023 966.376 Q11.1023 971.005 14.2273 973.459 Q17.3523 975.89 23.6717 976.237 Q21.6578 974.871 20.593 972.811 Q19.505 970.751 19.505 968.274 Q19.505 963.066 22.6763 960.056 Q25.8244 957.024 31.2642 957.024 Q36.5883 957.024 39.8058 960.172 Q43.0234 963.32 43.0234 968.552 Q43.0234 974.547 38.4401 977.718 Q33.8337 980.89 25.1068 980.89 Q16.9124 980.89 12.0514 977.001 Q7.16713 973.112 7.16713 966.561 Q7.16713 964.802 7.51435 963.019 Q7.86157 961.214 8.55601 959.269 Z" fill="#000000" fill-rule="nonzero" fill-opacity="1" /><path clip-path="url(#clip840)" d="M25.9402 777.579 Q25.9402 780.912 27.7226 782.834 Q29.505 784.732 32.63 784.732 Q35.7549 784.732 37.5373 782.834 Q39.3197 780.912 39.3197 777.579 Q39.3197 774.246 37.5373 772.324 Q35.7318 770.403 32.63 770.403 Q29.505 770.403 27.7226 772.324 Q25.9402 774.223 25.9402 777.579 M23.9494 782.255 Q23.2087 785.264 21.1485 786.954 Q19.0884 788.621 16.1254 788.621 Q11.9819 788.621 9.57452 785.681 Q7.16713 782.718 7.16713 777.579 Q7.16713 772.417 9.57452 769.477 Q11.9819 766.537 16.1254 766.537 Q19.0884 766.537 21.1485 768.227 Q23.2087 769.894 23.9494 772.88 Q24.7365 769.5 27.0281 767.625 Q29.3198 765.727 32.63 765.727 Q37.6531 765.727 40.3382 768.806 Q43.0234 771.861 43.0234 777.579 Q43.0234 783.297 40.3382 786.375 Q37.6531 789.431 32.63 789.431 Q29.3198 789.431 27.0281 787.533 Q24.7365 785.635 23.9494 782.255 M16.5652 783.968 Q19.2504 783.968 20.755 782.301 Q22.2596 780.611 22.2596 777.579 Q22.2596 774.57 20.755 772.88 Q19.2504 771.167 16.5652 771.167 Q13.8801 771.167 12.3754 772.88 Q10.8708 774.57 10.8708 777.579 Q10.8708 780.611 12.3754 782.301 Q13.8801 783.968 16.5652 783.968 Z" fill="#000000" fill-rule="nonzero" fill-opacity="1" /><path clip-path="url(#clip840)" d="M38.417 611.514 L38.417 603.875 L12.0514 603.875 L13.718 612.185 L9.45878 612.185 L7.79213 603.921 L7.79213 599.245 L38.417 599.245 L38.417 591.606 L42.3521 591.606 L42.3521 611.514 L38.417 611.514 Z" fill="#000000" fill-rule="nonzero" fill-opacity="1" /><path clip-path="url(#clip840)" d="M10.8708 572.162 Q10.8708 575.773 14.4356 577.602 Q17.9773 579.407 25.1068 579.407 Q32.2133 579.407 35.7781 577.602 Q39.3197 575.773 39.3197 572.162 Q39.3197 568.528 35.7781 566.722 Q32.2133 564.894 25.1068 564.894 Q17.9773 564.894 14.4356 566.722 Q10.8708 568.528 10.8708 572.162 M7.16713 572.162 Q7.16713 566.352 11.7736 563.296 Q16.3569 560.218 25.1068 560.218 Q33.8337 560.218 38.4401 563.296 Q43.0234 566.352 43.0234 572.162 Q43.0234 577.972 38.4401 581.051 Q33.8337 584.106 25.1068 584.106 Q16.3569 584.106 11.7736 581.051 Q7.16713 577.972 7.16713 572.162 Z" fill="#000000" fill-rule="nonzero" fill-opacity="1" /><path clip-path="url(#clip840)" d="M38.417 419.337 L38.417 411.698 L12.0514 411.698 L13.718 420.009 L9.45878 420.009 L7.79213 411.745 L7.79213 407.069 L38.417 407.069 L38.417 399.43 L42.3521 399.43 L42.3521 419.337 L38.417 419.337 Z" fill="#000000" fill-rule="nonzero" fill-opacity="1" /><path clip-path="url(#clip840)" d="M38.417 385.958 L38.417 369.638 L42.3521 369.638 L42.3521 391.583 L38.417 391.583 Q35.6623 388.921 31.0327 384.337 Q26.38 379.731 25.0374 378.55 Q22.5143 376.305 20.7782 375.425 Q19.0189 374.523 17.3291 374.523 Q14.5745 374.523 12.8384 376.467 Q11.1023 378.388 11.1023 381.49 Q11.1023 383.689 11.8662 386.143 Q12.6301 388.574 14.181 391.351 L9.45878 391.351 Q8.32453 388.527 7.74583 386.074 Q7.16713 383.62 7.16713 381.583 Q7.16713 376.212 9.8523 373.018 Q12.5375 369.824 17.0282 369.824 Q19.1578 369.824 21.0791 370.634 Q22.9772 371.421 25.5698 373.527 Q26.2411 374.106 29.4587 377.208 Q32.6531 380.31 38.417 385.958 Z" fill="#000000" fill-rule="nonzero" fill-opacity="1" /><path clip-path="url(#clip840)" d="M38.417 229.001 L38.417 221.362 L12.0514 221.362 L13.718 229.672 L9.45878 229.672 L7.79213 221.409 L7.79213 216.733 L38.417 216.733 L38.417 209.094 L42.3521 209.094 L42.3521 229.001 L38.417 229.001 Z" fill="#000000" fill-rule="nonzero" fill-opacity="1" /><path clip-path="url(#clip840)" d="M11.8662 186.802 L30.3152 198.608 L30.3152 186.802 L11.8662 186.802 M7.79213 188.029 L7.79213 182.15 L30.3152 182.15 L30.3152 177.219 L34.204 177.219 L34.204 182.15 L42.3521 182.15 L42.3521 186.802 L34.204 186.802 L34.204 202.404 L29.6902 202.404 L7.79213 188.029 Z" fill="#000000" fill-rule="nonzero" fill-opacity="1" /><polyline clip-path="url(#clip842)" style="stroke:#009af9; stroke-linecap:round; stroke-linejoin:round; stroke-width:4; stroke-opacity:1; fill:none" points="151.118,1479.3 165.034,1479.16 293.711,1477.81 371.04,1476.95 436.422,1476.18 507.444,1475.3 572.92,1474.45 643.117,1473.49 724.448,1472.3 796.725,1471.17 860.105,1470.13 929.207,1468.91 998.719,1467.6 1075.57,1466.04 1148.7,1464.43 1224.73,1462.59 1288.74,1460.91 1366.88,1458.65 1438.46,1456.35 1504.57,1453.97 1571.54,1451.28 1646.6,1447.84 1714.61,1444.21 1753.54,1441.87 1792.48,1439.29 1828.53,1436.65 1864.58,1433.71 1900.12,1430.47 1935.66,1426.81 1970.16,1422.76 2004.67,1418.07 2022.36,1415.36 2040.04,1412.4 2057.73,1409.14 2075.42,1405.54 2094.8,1401.1 2114.17,1396.02 2123.86,1393.2 2133.55,1390.14 2143.24,1386.81 2152.93,1383.18 2167.01,1377.23 2181.08,1370.29 2188.12,1366.35 2195.16,1362.02 2202.19,1357.24 2209.23,1351.9 2216.27,1345.89 2223.31,1339.05 2230.34,1331.15 2237.38,1321.86 2240.9,1316.55 2244.42,1310.7 2247.94,1304.18 2251.46,1296.87 2254.97,1288.57 2258.49,1279.03 2262.01,1267.87 2265.53,1254.55 2266.97,1248.28 2268.42,1241.42 2269.86,1233.88 2271.31,1225.51 2272.75,1216.17 2274.19,1205.62 2274.91,1199.8 2275.64,1193.55 2276.36,1186.83 2277.08,1179.56 2277.8,1171.65 2278.52,1163.01 2279.25,1153.5 2279.97,1142.97 2280.69,1131.19 2281.41,1117.9 2281.77,1110.57 2282.13,1102.7 2282.49,1094.23 2282.86,1085.07 2283.22,1075.11 2283.58,1064.22 2283.94,1052.24 2284.3,1038.97 2284.66,1024.13 2285.02,1007.38 2285.2,998.144 2285.38,988.234 2285.56,977.561 2285.74,966.016 2285.92,953.467 2286.1,939.75 2286.28,924.66 2286.46,907.938 2286.65,889.246 2286.83,868.14 2287.01,844.015 2287.19,816.022 2287.37,782.929 2287.55,742.848 2287.73,692.706 2287.91,627.042 2288.09,534.849 2288.27,388.942 2288.45,88.9544 "/>
<path clip-path="url(#clip840)" d="M162.518 200.05 L789.161 200.05 L789.161 96.3696 L162.518 96.3696  Z" fill="#ffffff" fill-rule="evenodd" fill-opacity="1"/>
<polyline clip-path="url(#clip840)" style="stroke:#000000; stroke-linecap:round; stroke-linejoin:round; stroke-width:4; stroke-opacity:1; fill:none" points="162.518,200.05 789.161,200.05 789.161,96.3696 162.518,96.3696 162.518,200.05 "/>
<polyline clip-path="url(#clip840)" style="stroke:#009af9; stroke-linecap:round; stroke-linejoin:round; stroke-width:4; stroke-opacity:1; fill:none" points="187.693,148.21 338.744,148.21 "/>
<path clip-path="url(#clip840)" d="M368.595 148.985 L368.595 161.647 L376.095 161.647 Q379.868 161.647 381.673 160.096 Q383.502 158.522 383.502 155.304 Q383.502 152.064 381.673 150.536 Q379.868 148.985 376.095 148.985 L368.595 148.985 M368.595 134.772 L368.595 145.189 L375.516 145.189 Q378.942 145.189 380.609 143.916 Q382.298 142.619 382.298 139.98 Q382.298 137.365 380.609 136.068 Q378.942 134.772 375.516 134.772 L368.595 134.772 M363.919 130.93 L375.863 130.93 Q381.21 130.93 384.104 133.152 Q386.997 135.374 386.997 139.471 Q386.997 142.642 385.516 144.517 Q384.034 146.392 381.164 146.855 Q384.613 147.596 386.511 149.957 Q388.433 152.295 388.433 155.814 Q388.433 160.443 385.284 162.966 Q382.136 165.49 376.326 165.49 L363.919 165.49 L363.919 130.93 Z" fill="#000000" fill-rule="nonzero" fill-opacity="1" /><path clip-path="url(#clip840)" d="M418.432 151.462 L418.432 153.545 L398.849 153.545 Q399.127 157.943 401.488 160.258 Q403.872 162.55 408.108 162.55 Q410.562 162.55 412.854 161.948 Q415.169 161.346 417.437 160.142 L417.437 164.17 Q415.145 165.142 412.738 165.652 Q410.331 166.161 407.854 166.161 Q401.65 166.161 398.016 162.55 Q394.405 158.939 394.405 152.781 Q394.405 146.416 397.831 142.689 Q401.28 138.939 407.113 138.939 Q412.344 138.939 415.377 142.318 Q418.432 145.675 418.432 151.462 M414.173 150.212 Q414.127 146.717 412.206 144.633 Q410.307 142.55 407.159 142.55 Q403.595 142.55 401.442 144.564 Q399.312 146.578 398.988 150.235 L414.173 150.212 Z" fill="#000000" fill-rule="nonzero" fill-opacity="1" /><path clip-path="url(#clip840)" d="M429.636 132.203 L429.636 139.564 L438.409 139.564 L438.409 142.874 L429.636 142.874 L429.636 156.948 Q429.636 160.119 430.493 161.022 Q431.372 161.925 434.034 161.925 L438.409 161.925 L438.409 165.49 L434.034 165.49 Q429.104 165.49 427.229 163.661 Q425.354 161.809 425.354 156.948 L425.354 142.874 L422.229 142.874 L422.229 139.564 L425.354 139.564 L425.354 132.203 L429.636 132.203 Z" fill="#000000" fill-rule="nonzero" fill-opacity="1" /><path clip-path="url(#clip840)" d="M455.793 152.457 Q450.631 152.457 448.641 153.638 Q446.65 154.818 446.65 157.666 Q446.65 159.934 448.131 161.277 Q449.636 162.596 452.205 162.596 Q455.747 162.596 457.877 160.096 Q460.029 157.573 460.029 153.406 L460.029 152.457 L455.793 152.457 M464.289 150.698 L464.289 165.49 L460.029 165.49 L460.029 161.554 Q458.571 163.915 456.395 165.05 Q454.219 166.161 451.071 166.161 Q447.09 166.161 444.729 163.939 Q442.391 161.693 442.391 157.943 Q442.391 153.568 445.307 151.346 Q448.247 149.124 454.057 149.124 L460.029 149.124 L460.029 148.707 Q460.029 145.767 458.085 144.17 Q456.164 142.55 452.668 142.55 Q450.446 142.55 448.34 143.082 Q446.233 143.615 444.289 144.679 L444.289 140.744 Q446.627 139.842 448.826 139.402 Q451.025 138.939 453.108 138.939 Q458.733 138.939 461.511 141.855 Q464.289 144.772 464.289 150.698 Z" fill="#000000" fill-rule="nonzero" fill-opacity="1" /><path clip-path="url(#clip840)" d="M483.293 129.518 Q480.191 134.842 478.687 140.05 Q477.182 145.258 477.182 150.605 Q477.182 155.953 478.687 161.207 Q480.214 166.439 483.293 171.74 L479.589 171.74 Q476.117 166.3 474.381 161.045 Q472.668 155.791 472.668 150.605 Q472.668 145.443 474.381 140.212 Q476.094 134.98 479.589 129.518 L483.293 129.518 Z" fill="#000000" fill-rule="nonzero" fill-opacity="1" /><path clip-path="url(#clip840)" d="M506.673 153.429 L505.654 148.082 Q504.613 142.596 500.492 142.596 Q497.39 142.596 495.978 145.142 Q494.196 148.337 494.196 152.55 Q494.196 157.642 495.932 160.073 Q497.691 162.55 500.492 162.55 Q503.594 162.55 505.261 157.619 L506.673 153.429 M509.057 146.346 L511.349 139.564 L515.145 139.564 L510.4 153.615 L511.325 158.684 Q511.534 159.818 512.344 160.767 Q513.293 161.878 514.034 161.878 L516.071 161.878 L516.071 165.49 L513.524 165.49 Q511.349 165.49 509.404 163.545 Q508.455 162.573 508.062 160.536 Q506.997 163.105 504.821 165.119 Q503.802 166.068 500.492 166.068 Q495.052 166.068 492.413 162.55 Q489.705 158.916 489.705 152.55 Q489.705 145.744 492.645 142.55 Q495.909 138.985 500.492 138.985 Q507.691 138.985 509.057 146.346 Z" fill="#000000" fill-rule="nonzero" fill-opacity="1" /><path clip-path="url(#clip840)" d="M523.362 143.962 L553.038 143.962 L553.038 147.851 L523.362 147.851 L523.362 143.962 M523.362 153.406 L553.038 153.406 L553.038 157.341 L523.362 157.341 L523.362 153.406 Z" fill="#000000" fill-rule="nonzero" fill-opacity="1" /><path clip-path="url(#clip840)" d="M563.941 161.554 L571.58 161.554 L571.58 135.189 L563.27 136.855 L563.27 132.596 L571.533 130.93 L576.209 130.93 L576.209 161.554 L583.848 161.554 L583.848 165.49 L563.941 165.49 L563.941 161.554 Z" fill="#000000" fill-rule="nonzero" fill-opacity="1" /><path clip-path="url(#clip840)" d="M593.779 159.61 L598.663 159.61 L598.663 163.591 L594.867 170.999 L591.881 170.999 L593.779 163.591 L593.779 159.61 Z" fill="#000000" fill-rule="nonzero" fill-opacity="1" /><path clip-path="url(#clip840)" d="M612.019 163.892 L612.019 175.351 L607.737 175.351 L607.737 139.726 Q607.737 129.17 617.598 129.17 Q627.644 129.17 627.644 138.082 Q627.644 144.425 623.663 146.74 Q630.144 148.823 630.144 155.003 Q630.144 165.976 618.987 165.976 Q614.08 165.976 612.019 163.892 M612.019 158.337 Q614.589 162.341 619.149 162.341 Q625.816 162.341 625.816 155.073 Q625.816 148.545 615.075 149.054 L615.075 145.119 Q623.478 145.119 623.478 137.712 Q623.478 132.643 618.061 132.643 Q612.019 132.643 612.019 139.865 L612.019 158.337 Z" fill="#000000" fill-rule="nonzero" fill-opacity="1" /><path clip-path="url(#clip840)" d="M638.57 143.962 L668.246 143.962 L668.246 147.851 L638.57 147.851 L638.57 143.962 M638.57 153.406 L668.246 153.406 L668.246 157.341 L638.57 157.341 L638.57 153.406 Z" fill="#000000" fill-rule="nonzero" fill-opacity="1" /><path clip-path="url(#clip840)" d="M682.366 161.554 L698.686 161.554 L698.686 165.49 L676.741 165.49 L676.741 161.554 Q679.403 158.8 683.987 154.17 Q688.593 149.517 689.774 148.175 Q692.019 145.652 692.899 143.916 Q693.801 142.156 693.801 140.467 Q693.801 137.712 691.857 135.976 Q689.936 134.24 686.834 134.24 Q684.635 134.24 682.181 135.004 Q679.75 135.767 676.973 137.318 L676.973 132.596 Q679.797 131.462 682.25 130.883 Q684.704 130.305 686.741 130.305 Q692.111 130.305 695.306 132.99 Q698.5 135.675 698.5 140.166 Q698.5 142.295 697.69 144.217 Q696.903 146.115 694.797 148.707 Q694.218 149.379 691.116 152.596 Q688.014 155.791 682.366 161.554 Z" fill="#000000" fill-rule="nonzero" fill-opacity="1" /><path clip-path="url(#clip840)" d="M715.468 130.93 L719.403 130.93 L707.366 169.888 L703.431 169.888 L715.468 130.93 Z" fill="#000000" fill-rule="nonzero" fill-opacity="1" /><path clip-path="url(#clip840)" d="M738.639 146.855 Q741.995 147.573 743.87 149.841 Q745.769 152.11 745.769 155.443 Q745.769 160.559 742.25 163.36 Q738.732 166.161 732.25 166.161 Q730.074 166.161 727.759 165.721 Q725.468 165.304 723.014 164.448 L723.014 159.934 Q724.959 161.068 727.273 161.647 Q729.588 162.226 732.111 162.226 Q736.509 162.226 738.801 160.49 Q741.116 158.753 741.116 155.443 Q741.116 152.388 738.963 150.675 Q736.833 148.939 733.014 148.939 L728.986 148.939 L728.986 145.096 L733.199 145.096 Q736.648 145.096 738.477 143.73 Q740.306 142.342 740.306 139.749 Q740.306 137.087 738.408 135.675 Q736.533 134.24 733.014 134.24 Q731.093 134.24 728.894 134.656 Q726.695 135.073 724.056 135.953 L724.056 131.786 Q726.718 131.045 729.033 130.675 Q731.371 130.305 733.431 130.305 Q738.755 130.305 741.857 132.735 Q744.958 135.142 744.958 139.263 Q744.958 142.133 743.315 144.124 Q741.671 146.092 738.639 146.855 Z" fill="#000000" fill-rule="nonzero" fill-opacity="1" /><path clip-path="url(#clip840)" d="M753.361 129.518 L757.065 129.518 Q760.537 134.98 762.25 140.212 Q763.986 145.443 763.986 150.605 Q763.986 155.791 762.25 161.045 Q760.537 166.3 757.065 171.74 L753.361 171.74 Q756.44 166.439 757.944 161.207 Q759.472 155.953 759.472 150.605 Q759.472 145.258 757.944 140.05 Q756.44 134.842 753.361 129.518 Z" fill="#000000" fill-rule="nonzero" fill-opacity="1" /></svg>
