<?xml version="1.0" encoding="utf-8"?>
<svg xmlns="http://www.w3.org/2000/svg" xmlns:xlink="http://www.w3.org/1999/xlink" width="600" height="400" viewBox="0 0 2400 1600">
<defs>
  <clipPath id="clip440">
    <rect x="0" y="0" width="2400" height="1600"/>
  </clipPath>
</defs>
<path clip-path="url(#clip440)" d="M0 1600 L2400 1600 L2400 0 L0 0  Z" fill="#ffffff" fill-rule="evenodd" fill-opacity="1"/>
<defs>
  <clipPath id="clip441">
    <rect x="480" y="0" width="1681" height="1600"/>
  </clipPath>
</defs>
<path clip-path="url(#clip440)" d="M86.9921 1521.01 L2352.76 1521.01 L2352.76 47.2441 L86.9921 47.2441  Z" fill="#ffffff" fill-rule="evenodd" fill-opacity="1"/>
<defs>
  <clipPath id="clip442">
    <rect x="86" y="47" width="2267" height="1475"/>
  </clipPath>
</defs>
<polyline clip-path="url(#clip442)" style="stroke:#000000; stroke-linecap:round; stroke-linejoin:round; stroke-width:2; stroke-opacity:0.1; fill:none" points="86.9921,1521.01 86.9921,47.2441 "/>
<polyline clip-path="url(#clip442)" style="stroke:#000000; stroke-linecap:round; stroke-linejoin:round; stroke-width:2; stroke-opacity:0.1; fill:none" points="842.247,1521.01 842.247,47.2441 "/>
<polyline clip-path="url(#clip442)" style="stroke:#000000; stroke-linecap:round; stroke-linejoin:round; stroke-width:2; stroke-opacity:0.1; fill:none" points="1597.5,1521.01 1597.5,47.2441 "/>
<polyline clip-path="url(#clip442)" style="stroke:#000000; stroke-linecap:round; stroke-linejoin:round; stroke-width:2; stroke-opacity:0.1; fill:none" points="2352.76,1521.01 2352.76,47.2441 "/>
<polyline clip-path="url(#clip440)" style="stroke:#000000; stroke-linecap:round; stroke-linejoin:round; stroke-width:4; stroke-opacity:1; fill:none" points="86.9921,1521.01 2352.76,1521.01 "/>
<polyline clip-path="url(#clip440)" style="stroke:#000000; stroke-linecap:round; stroke-linejoin:round; stroke-width:4; stroke-opacity:1; fill:none" points="86.9921,1521.01 86.9921,1502.11 "/>
<polyline clip-path="url(#clip440)" style="stroke:#000000; stroke-linecap:round; stroke-linejoin:round; stroke-width:4; stroke-opacity:1; fill:none" points="842.247,1521.01 842.247,1502.11 "/>
<polyline clip-path="url(#clip440)" style="stroke:#000000; stroke-linecap:round; stroke-linejoin:round; stroke-width:4; stroke-opacity:1; fill:none" points="1597.5,1521.01 1597.5,1502.11 "/>
<polyline clip-path="url(#clip440)" style="stroke:#000000; stroke-linecap:round; stroke-linejoin:round; stroke-width:4; stroke-opacity:1; fill:none" points="2352.76,1521.01 2352.76,1502.11 "/>
<path clip-path="url(#clip440)" d="M64.8742 1551.93 Q61.2631 1551.93 59.4344 1555.49 Q57.6289 1559.03 57.6289 1566.16 Q57.6289 1573.27 59.4344 1576.83 Q61.2631 1580.38 64.8742 1580.38 Q68.5084 1580.38 70.314 1576.83 Q72.1427 1573.27 72.1427 1566.16 Q72.1427 1559.03 70.314 1555.49 Q68.5084 1551.93 64.8742 1551.93 M64.8742 1548.22 Q70.6843 1548.22 73.7399 1552.83 Q76.8186 1557.41 76.8186 1566.16 Q76.8186 1574.89 73.7399 1579.5 Q70.6843 1584.08 64.8742 1584.08 Q59.064 1584.08 55.9853 1579.5 Q52.9298 1574.89 52.9298 1566.16 Q52.9298 1557.41 55.9853 1552.83 Q59.064 1548.22 64.8742 1548.22 Z" fill="#000000" fill-rule="nonzero" fill-opacity="1" /><path clip-path="url(#clip440)" d="M85.0361 1577.53 L89.9204 1577.53 L89.9204 1583.41 L85.0361 1583.41 L85.0361 1577.53 Z" fill="#000000" fill-rule="nonzero" fill-opacity="1" /><path clip-path="url(#clip440)" d="M100.152 1548.85 L118.508 1548.85 L118.508 1552.78 L104.434 1552.78 L104.434 1561.26 Q105.453 1560.91 106.471 1560.75 Q107.49 1560.56 108.508 1560.56 Q114.295 1560.56 117.675 1563.73 Q121.054 1566.9 121.054 1572.32 Q121.054 1577.9 117.582 1581 Q114.11 1584.08 107.791 1584.08 Q105.615 1584.08 103.346 1583.71 Q101.101 1583.34 98.6935 1582.6 L98.6935 1577.9 Q100.777 1579.03 102.999 1579.59 Q105.221 1580.14 107.698 1580.14 Q111.703 1580.14 114.041 1578.04 Q116.379 1575.93 116.379 1572.32 Q116.379 1568.71 114.041 1566.6 Q111.703 1564.5 107.698 1564.5 Q105.823 1564.5 103.948 1564.91 Q102.096 1565.33 100.152 1566.21 L100.152 1548.85 Z" fill="#000000" fill-rule="nonzero" fill-opacity="1" /><path clip-path="url(#clip440)" d="M819.55 1551.93 Q815.939 1551.93 814.11 1555.49 Q812.305 1559.03 812.305 1566.16 Q812.305 1573.27 814.11 1576.83 Q815.939 1580.38 819.55 1580.38 Q823.184 1580.38 824.99 1576.83 Q826.819 1573.27 826.819 1566.16 Q826.819 1559.03 824.99 1555.49 Q823.184 1551.93 819.55 1551.93 M819.55 1548.22 Q825.36 1548.22 828.416 1552.83 Q831.494 1557.41 831.494 1566.16 Q831.494 1574.89 828.416 1579.5 Q825.36 1584.08 819.55 1584.08 Q813.74 1584.08 810.661 1579.5 Q807.606 1574.89 807.606 1566.16 Q807.606 1557.41 810.661 1552.83 Q813.74 1548.22 819.55 1548.22 Z" fill="#000000" fill-rule="nonzero" fill-opacity="1" /><path clip-path="url(#clip440)" d="M839.712 1577.53 L844.596 1577.53 L844.596 1583.41 L839.712 1583.41 L839.712 1577.53 Z" fill="#000000" fill-rule="nonzero" fill-opacity="1" /><path clip-path="url(#clip440)" d="M865.36 1564.26 Q862.212 1564.26 860.36 1566.42 Q858.531 1568.57 858.531 1572.32 Q858.531 1576.05 860.36 1578.22 Q862.212 1580.38 865.36 1580.38 Q868.508 1580.38 870.337 1578.22 Q872.189 1576.05 872.189 1572.32 Q872.189 1568.57 870.337 1566.42 Q868.508 1564.26 865.36 1564.26 M874.642 1549.61 L874.642 1553.87 Q872.883 1553.04 871.078 1552.6 Q869.295 1552.16 867.536 1552.16 Q862.906 1552.16 860.453 1555.28 Q858.022 1558.41 857.675 1564.73 Q859.041 1562.71 861.101 1561.65 Q863.161 1560.56 865.638 1560.56 Q870.846 1560.56 873.855 1563.73 Q876.888 1566.88 876.888 1572.32 Q876.888 1577.64 873.74 1580.86 Q870.591 1584.08 865.36 1584.08 Q859.365 1584.08 856.193 1579.5 Q853.022 1574.89 853.022 1566.16 Q853.022 1557.97 856.911 1553.11 Q860.8 1548.22 867.351 1548.22 Q869.11 1548.22 870.892 1548.57 Q872.698 1548.92 874.642 1549.61 Z" fill="#000000" fill-rule="nonzero" fill-opacity="1" /><path clip-path="url(#clip440)" d="M1575.34 1551.93 Q1571.73 1551.93 1569.9 1555.49 Q1568.09 1559.03 1568.09 1566.16 Q1568.09 1573.27 1569.9 1576.83 Q1571.73 1580.38 1575.34 1580.38 Q1578.97 1580.38 1580.78 1576.83 Q1582.61 1573.27 1582.61 1566.16 Q1582.61 1559.03 1580.78 1555.49 Q1578.97 1551.93 1575.34 1551.93 M1575.34 1548.22 Q1581.15 1548.22 1584.2 1552.83 Q1587.28 1557.41 1587.28 1566.16 Q1587.28 1574.89 1584.2 1579.5 Q1581.15 1584.08 1575.34 1584.08 Q1569.53 1584.08 1566.45 1579.5 Q1563.39 1574.89 1563.39 1566.16 Q1563.39 1557.41 1566.45 1552.83 Q1569.53 1548.22 1575.34 1548.22 Z" fill="#000000" fill-rule="nonzero" fill-opacity="1" /><path clip-path="url(#clip440)" d="M1595.5 1577.53 L1600.38 1577.53 L1600.38 1583.41 L1595.5 1583.41 L1595.5 1577.53 Z" fill="#000000" fill-rule="nonzero" fill-opacity="1" /><path clip-path="url(#clip440)" d="M1609.39 1548.85 L1631.61 1548.85 L1631.61 1550.84 L1619.06 1583.41 L1614.18 1583.41 L1625.98 1552.78 L1609.39 1552.78 L1609.39 1548.85 Z" fill="#000000" fill-rule="nonzero" fill-opacity="1" /><path clip-path="url(#clip440)" d="M2330.19 1551.93 Q2326.58 1551.93 2324.75 1555.49 Q2322.94 1559.03 2322.94 1566.16 Q2322.94 1573.27 2324.75 1576.83 Q2326.58 1580.38 2330.19 1580.38 Q2333.82 1580.38 2335.63 1576.83 Q2337.46 1573.27 2337.46 1566.16 Q2337.46 1559.03 2335.63 1555.49 Q2333.82 1551.93 2330.19 1551.93 M2330.19 1548.22 Q2336 1548.22 2339.05 1552.83 Q2342.13 1557.41 2342.13 1566.16 Q2342.13 1574.89 2339.05 1579.5 Q2336 1584.08 2330.19 1584.08 Q2324.38 1584.08 2321.3 1579.5 Q2318.24 1574.89 2318.24 1566.16 Q2318.24 1557.41 2321.3 1552.83 Q2324.38 1548.22 2330.19 1548.22 Z" fill="#000000" fill-rule="nonzero" fill-opacity="1" /><path clip-path="url(#clip440)" d="M2350.35 1577.53 L2355.23 1577.53 L2355.23 1583.41 L2350.35 1583.41 L2350.35 1577.53 Z" fill="#000000" fill-rule="nonzero" fill-opacity="1" /><path clip-path="url(#clip440)" d="M2375.42 1567 Q2372.08 1567 2370.16 1568.78 Q2368.27 1570.56 2368.27 1573.69 Q2368.27 1576.81 2370.16 1578.59 Q2372.08 1580.38 2375.42 1580.38 Q2378.75 1580.38 2380.67 1578.59 Q2382.59 1576.79 2382.59 1573.69 Q2382.59 1570.56 2380.67 1568.78 Q2378.77 1567 2375.42 1567 M2370.74 1565.01 Q2367.73 1564.26 2366.04 1562.2 Q2364.38 1560.14 2364.38 1557.18 Q2364.38 1553.04 2367.32 1550.63 Q2370.28 1548.22 2375.42 1548.22 Q2380.58 1548.22 2383.52 1550.63 Q2386.46 1553.04 2386.46 1557.18 Q2386.46 1560.14 2384.77 1562.2 Q2383.1 1564.26 2380.12 1565.01 Q2383.5 1565.79 2385.37 1568.08 Q2387.27 1570.38 2387.27 1573.69 Q2387.27 1578.71 2384.19 1581.39 Q2381.14 1584.08 2375.42 1584.08 Q2369.7 1584.08 2366.62 1581.39 Q2363.57 1578.71 2363.57 1573.69 Q2363.57 1570.38 2365.46 1568.08 Q2367.36 1565.79 2370.74 1565.01 M2369.03 1557.62 Q2369.03 1560.31 2370.7 1561.81 Q2372.39 1563.32 2375.42 1563.32 Q2378.43 1563.32 2380.12 1561.81 Q2381.83 1560.31 2381.83 1557.62 Q2381.83 1554.94 2380.12 1553.43 Q2378.43 1551.93 2375.42 1551.93 Q2372.39 1551.93 2370.7 1553.43 Q2369.03 1554.94 2369.03 1557.62 Z" fill="#000000" fill-rule="nonzero" fill-opacity="1" /><polyline clip-path="url(#clip442)" style="stroke:#000000; stroke-linecap:round; stroke-linejoin:round; stroke-width:2; stroke-opacity:0.1; fill:none" points="86.9921,1479.3 2352.76,1479.3 "/>
<polyline clip-path="url(#clip442)" style="stroke:#000000; stroke-linecap:round; stroke-linejoin:round; stroke-width:2; stroke-opacity:0.1; fill:none" points="86.9921,1216.82 2352.76,1216.82 "/>
<polyline clip-path="url(#clip442)" style="stroke:#000000; stroke-linecap:round; stroke-linejoin:round; stroke-width:2; stroke-opacity:0.1; fill:none" points="86.9921,954.339 2352.76,954.339 "/>
<polyline clip-path="url(#clip442)" style="stroke:#000000; stroke-linecap:round; stroke-linejoin:round; stroke-width:2; stroke-opacity:0.1; fill:none" points="86.9921,691.86 2352.76,691.86 "/>
<polyline clip-path="url(#clip442)" style="stroke:#000000; stroke-linecap:round; stroke-linejoin:round; stroke-width:2; stroke-opacity:0.1; fill:none" points="86.9921,429.381 2352.76,429.381 "/>
<polyline clip-path="url(#clip442)" style="stroke:#000000; stroke-linecap:round; stroke-linejoin:round; stroke-width:2; stroke-opacity:0.1; fill:none" points="86.9921,166.902 2352.76,166.902 "/>
<polyline clip-path="url(#clip440)" style="stroke:#000000; stroke-linecap:round; stroke-linejoin:round; stroke-width:4; stroke-opacity:1; fill:none" points="86.9921,1521.01 86.9921,47.2441 "/>
<polyline clip-path="url(#clip440)" style="stroke:#000000; stroke-linecap:round; stroke-linejoin:round; stroke-width:4; stroke-opacity:1; fill:none" points="86.9921,1479.3 105.89,1479.3 "/>
<polyline clip-path="url(#clip440)" style="stroke:#000000; stroke-linecap:round; stroke-linejoin:round; stroke-width:4; stroke-opacity:1; fill:none" points="86.9921,1216.82 105.89,1216.82 "/>
<polyline clip-path="url(#clip440)" style="stroke:#000000; stroke-linecap:round; stroke-linejoin:round; stroke-width:4; stroke-opacity:1; fill:none" points="86.9921,954.339 105.89,954.339 "/>
<polyline clip-path="url(#clip440)" style="stroke:#000000; stroke-linecap:round; stroke-linejoin:round; stroke-width:4; stroke-opacity:1; fill:none" points="86.9921,691.86 105.89,691.86 "/>
<polyline clip-path="url(#clip440)" style="stroke:#000000; stroke-linecap:round; stroke-linejoin:round; stroke-width:4; stroke-opacity:1; fill:none" points="86.9921,429.381 105.89,429.381 "/>
<polyline clip-path="url(#clip440)" style="stroke:#000000; stroke-linecap:round; stroke-linejoin:round; stroke-width:4; stroke-opacity:1; fill:none" points="86.9921,166.902 105.89,166.902 "/>
<path clip-path="url(#clip440)" d="M10.8708 1479.3 Q10.8708 1482.91 14.4356 1484.74 Q17.9773 1486.54 25.1068 1486.54 Q32.2133 1486.54 35.7781 1484.74 Q39.3197 1482.91 39.3197 1479.3 Q39.3197 1475.66 35.7781 1473.86 Q32.2133 1472.03 25.1068 1472.03 Q17.9773 1472.03 14.4356 1473.86 Q10.8708 1475.66 10.8708 1479.3 M7.16713 1479.3 Q7.16713 1473.49 11.7736 1470.43 Q16.3569 1467.35 25.1068 1467.35 Q33.8337 1467.35 38.4401 1470.43 Q43.0234 1473.49 43.0234 1479.3 Q43.0234 1485.11 38.4401 1488.19 Q33.8337 1491.24 25.1068 1491.24 Q16.3569 1491.24 11.7736 1488.19 Q7.16713 1485.11 7.16713 1479.3 Z" fill="#000000" fill-rule="nonzero" fill-opacity="1" /><path clip-path="url(#clip440)" d="M7.79213 1226.54 L7.79213 1208.18 L11.7273 1208.18 L11.7273 1222.26 L20.1995 1222.26 Q19.8522 1221.24 19.6902 1220.22 Q19.505 1219.2 19.505 1218.18 Q19.505 1212.4 22.6763 1209.02 Q25.8476 1205.64 31.2642 1205.64 Q36.8429 1205.64 39.9447 1209.11 Q43.0234 1212.58 43.0234 1218.9 Q43.0234 1221.08 42.6531 1223.35 Q42.2827 1225.59 41.5419 1228 L36.8429 1228 Q37.9771 1225.92 38.5327 1223.69 Q39.0883 1221.47 39.0883 1218.99 Q39.0883 1214.99 36.9818 1212.65 Q34.8753 1210.31 31.2642 1210.31 Q27.6531 1210.31 25.5467 1212.65 Q23.4402 1214.99 23.4402 1218.99 Q23.4402 1220.87 23.8569 1222.74 Q24.2735 1224.6 25.1531 1226.54 L7.79213 1226.54 Z" fill="#000000" fill-rule="nonzero" fill-opacity="1" /><path clip-path="url(#clip440)" d="M38.417 979.652 L38.417 972.013 L12.0514 972.013 L13.718 980.323 L9.45878 980.323 L7.79213 972.059 L7.79213 967.383 L38.417 967.383 L38.417 959.744 L42.3521 959.744 L42.3521 979.652 L38.417 979.652 Z" fill="#000000" fill-rule="nonzero" fill-opacity="1" /><path clip-path="url(#clip440)" d="M10.8708 940.3 Q10.8708 943.911 14.4356 945.74 Q17.9773 947.545 25.1068 947.545 Q32.2133 947.545 35.7781 945.74 Q39.3197 943.911 39.3197 940.3 Q39.3197 936.666 35.7781 934.86 Q32.2133 933.032 25.1068 933.032 Q17.9773 933.032 14.4356 934.86 Q10.8708 936.666 10.8708 940.3 M7.16713 940.3 Q7.16713 934.49 11.7736 931.434 Q16.3569 928.356 25.1068 928.356 Q33.8337 928.356 38.4401 931.434 Q43.0234 934.49 43.0234 940.3 Q43.0234 946.11 38.4401 949.189 Q33.8337 952.245 25.1068 952.245 Q16.3569 952.245 11.7736 949.189 Q7.16713 946.11 7.16713 940.3 Z" fill="#000000" fill-rule="nonzero" fill-opacity="1" /><path clip-path="url(#clip440)" d="M38.417 716.675 L38.417 709.036 L12.0514 709.036 L13.718 717.346 L9.45878 717.346 L7.79213 709.082 L7.79213 704.407 L38.417 704.407 L38.417 696.768 L42.3521 696.768 L42.3521 716.675 L38.417 716.675 Z" fill="#000000" fill-rule="nonzero" fill-opacity="1" /><path clip-path="url(#clip440)" d="M7.79213 687.277 L7.79213 668.921 L11.7273 668.921 L11.7273 682.995 L20.1995 682.995 Q19.8522 681.976 19.6902 680.958 Q19.505 679.939 19.505 678.921 Q19.505 673.134 22.6763 669.754 Q25.8476 666.374 31.2642 666.374 Q36.8429 666.374 39.9447 669.847 Q43.0234 673.319 43.0234 679.638 Q43.0234 681.814 42.6531 684.083 Q42.2827 686.328 41.5419 688.735 L36.8429 688.735 Q37.9771 686.652 38.5327 684.43 Q39.0883 682.208 39.0883 679.731 Q39.0883 675.726 36.9818 673.388 Q34.8753 671.05 31.2642 671.05 Q27.6531 671.05 25.5467 673.388 Q23.4402 675.726 23.4402 679.731 Q23.4402 681.606 23.8569 683.481 Q24.2735 685.333 25.1531 687.277 L7.79213 687.277 Z" fill="#000000" fill-rule="nonzero" fill-opacity="1" /><path clip-path="url(#clip440)" d="M38.417 450.608 L38.417 434.289 L42.3521 434.289 L42.3521 456.233 L38.417 456.233 Q35.6623 453.571 31.0327 448.988 Q26.38 444.381 25.0374 443.201 Q22.5143 440.955 20.7782 440.076 Q19.0189 439.173 17.3291 439.173 Q14.5745 439.173 12.8384 441.117 Q11.1023 443.039 11.1023 446.14 Q11.1023 448.339 11.8662 450.793 Q12.6301 453.224 14.181 456.001 L9.45878 456.001 Q8.32453 453.177 7.74583 450.724 Q7.16713 448.27 7.16713 446.233 Q7.16713 440.863 9.8523 437.668 Q12.5375 434.474 17.0282 434.474 Q19.1578 434.474 21.0791 435.284 Q22.9772 436.071 25.5698 438.177 Q26.2411 438.756 29.4587 441.858 Q32.6531 444.96 38.417 450.608 Z" fill="#000000" fill-rule="nonzero" fill-opacity="1" /><path clip-path="url(#clip440)" d="M10.8708 414.474 Q10.8708 418.085 14.4356 419.914 Q17.9773 421.719 25.1068 421.719 Q32.2133 421.719 35.7781 419.914 Q39.3197 418.085 39.3197 414.474 Q39.3197 410.84 35.7781 409.034 Q32.2133 407.205 25.1068 407.205 Q17.9773 407.205 14.4356 409.034 Q10.8708 410.84 10.8708 414.474 M7.16713 414.474 Q7.16713 408.664 11.7736 405.608 Q16.3569 402.53 25.1068 402.53 Q33.8337 402.53 38.4401 405.608 Q43.0234 408.664 43.0234 414.474 Q43.0234 420.284 38.4401 423.363 Q33.8337 426.418 25.1068 426.418 Q16.3569 426.418 11.7736 423.363 Q7.16713 420.284 7.16713 414.474 Z" fill="#000000" fill-rule="nonzero" fill-opacity="1" /><path clip-path="url(#clip440)" d="M38.417 187.631 L38.417 171.312 L42.3521 171.312 L42.3521 193.256 L38.417 193.256 Q35.6623 190.594 31.0327 186.011 Q26.38 181.404 25.0374 180.224 Q22.5143 177.978 20.7782 177.099 Q19.0189 176.196 17.3291 176.196 Q14.5745 176.196 12.8384 178.141 Q11.1023 180.062 11.1023 183.164 Q11.1023 185.363 11.8662 187.816 Q12.6301 190.247 14.181 193.025 L9.45878 193.025 Q8.32453 190.201 7.74583 187.747 Q7.16713 185.293 7.16713 183.256 Q7.16713 177.886 9.8523 174.691 Q12.5375 171.497 17.0282 171.497 Q19.1578 171.497 21.0791 172.307 Q22.9772 173.094 25.5698 175.201 Q26.2411 175.779 29.4587 178.881 Q32.6531 181.983 38.417 187.631 Z" fill="#000000" fill-rule="nonzero" fill-opacity="1" /><path clip-path="url(#clip440)" d="M7.79213 161.451 L7.79213 143.094 L11.7273 143.094 L11.7273 157.168 L20.1995 157.168 Q19.8522 156.15 19.6902 155.131 Q19.505 154.113 19.505 153.094 Q19.505 147.307 22.6763 143.928 Q25.8476 140.548 31.2642 140.548 Q36.8429 140.548 39.9447 144.02 Q43.0234 147.493 43.0234 153.812 Q43.0234 155.988 42.6531 158.256 Q42.2827 160.502 41.5419 162.909 L36.8429 162.909 Q37.9771 160.826 38.5327 158.604 Q39.0883 156.381 39.0883 153.905 Q39.0883 149.9 36.9818 147.562 Q34.8753 145.224 31.2642 145.224 Q27.6531 145.224 25.5467 147.562 Q23.4402 149.9 23.4402 153.905 Q23.4402 155.78 23.8569 157.654 Q24.2735 159.506 25.1531 161.451 L7.79213 161.451 Z" fill="#000000" fill-rule="nonzero" fill-opacity="1" /><polyline clip-path="url(#clip442)" style="stroke:#009af9; stroke-linecap:round; stroke-linejoin:round; stroke-width:4; stroke-opacity:1; fill:none" points="-3689.28,1479.3 -3640.11,1479.3 -3185.45,1479.3 -2912.22,1479.3 -2681.21,1479.3 -2430.26,1479.3 -2198.91,1479.3 -1950.88,1479.3 -1663.51,1479.3 -1408.13,1479.3 -1184.19,1479.3 -940.031,1479.3 -694.421,1479.3 -422.867,1479.3 -164.49,1479.3 104.161,1479.3 330.309,1479.3 468.359,1479.3 606.409,1479.3 669.64,1479.28 732.872,1479.08 764.488,1478.67 796.103,1477.57 811.911,1476.5 827.719,1474.86 843.527,1472.37 859.335,1468.67 873.934,1463.77 888.534,1456.94 903.134,1447.59 917.734,1435.01 925.033,1427.25 932.333,1418.36 939.633,1408.22 946.933,1396.71 954.233,1383.7 961.533,1369.07 968.833,1352.67 976.133,1334.39 983.433,1314.1 990.732,1291.69 998.032,1267.07 1005.33,1240.13 1012.63,1210.8 1019.93,1179.04 1027.23,1144.83 1034.53,1108.15 1041.83,1069.04 1049.13,1027.58 1056.43,983.858 1063.73,938.021 1071.03,890.252 1078.33,840.774 1085.63,789.852 1092.93,737.792 1107.72,630.291 1122.51,522.875 1129.9,470.362 1137.3,419.31 1144.69,370.23 1152.09,323.634 1155.78,301.427 1159.48,280.029 1163.18,259.502 1166.88,239.905 1170.57,221.294 1174.27,203.725 1177.97,187.251 1181.67,171.922 1185.36,157.786 1189.06,144.885 1192.76,133.262 1196.45,122.953 1200.15,113.991 1203.85,106.407 1207.55,100.225 1211.24,95.4661 1214.94,92.148 1218.64,90.2824 1222.34,89.8772 1226.03,90.9355 1229.73,93.4559 1233.43,97.4322 1237.12,102.854 1240.82,109.706 1244.52,117.968 1248.22,127.617 1251.91,138.624 1255.61,150.956 1259.31,164.578 1263.01,179.449 1266.7,195.525 1270.4,212.759 1274.1,231.101 1277.79,250.497 1281.49,270.891 1285.19,292.226 1292.58,337.474 1299.98,385.737 1307.37,436.494 1314.77,489.211 1322.16,543.356 1329.56,598.403 1337.84,660.54 1346.13,722.492 1354.42,783.628 1362.71,843.378 1370.99,901.236 1379.28,956.769 1387.57,1009.62 1395.85,1059.5 1404.14,1106.21 1412.43,1149.6 1420.72,1189.61 1429,1226.21 1437.29,1259.46 1445.58,1289.45 1453.86,1316.29 1462.15,1340.15 1470.44,1361.21 1478.73,1379.66 1487.01,1395.73 1495.3,1409.62 1503.59,1421.55 1511.88,1431.72 1520.16,1440.33 1528.45,1447.58 1536.74,1453.63 1545.02,1458.65 1553.31,1462.8 1561.6,1466.19 1578.17,1471.17 1594.75,1474.39 1624.79,1477.45 1654.82,1478.66 1684.86,1479.09 1714.9,1479.24 1774.98,1479.29 1835.05,1479.3 2110.19,1479.3 2364.94,1479.3 2616.09,1479.3 2859.94,1479.3 3109.91,1479.3 3383.79,1479.3 3781.64,1479.3 3863.27,1479.3 "/>
<polyline clip-path="url(#clip442)" style="stroke:#e26f46; stroke-linecap:round; stroke-linejoin:round; stroke-width:4; stroke-opacity:1; fill:none" points="-3689.28,1479.3 -3640.11,1479.3 -3185.45,1479.3 -2912.22,1479.3 -2681.21,1479.3 -2430.26,1479.3 -2198.91,1479.3 -1950.88,1479.3 -1663.51,1479.3 -1408.13,1479.3 -1184.19,1479.3 -940.031,1479.3 -694.421,1479.3 -422.867,1479.3 -164.49,1479.3 104.161,1479.3 330.309,1479.3 468.359,1479.3 606.409,1479.29 669.64,1479.19 732.872,1478.34 764.488,1476.72 796.103,1472.86 811.911,1469.38 827.719,1464.3 843.527,1457 859.335,1446.73 866.634,1440.75 873.934,1433.83 881.234,1425.87 888.534,1416.76 895.834,1406.38 903.134,1394.59 910.434,1381.28 917.734,1366.31 925.033,1349.55 932.333,1330.87 939.633,1310.16 946.933,1287.31 954.233,1262.2 961.533,1234.75 968.833,1204.91 976.133,1172.61 983.433,1137.84 990.732,1100.6 998.032,1060.94 1005.33,1018.93 1012.63,974.674 1019.93,928.331 1027.23,880.091 1034.53,830.186 1049.13,726.526 1063.73,620.025 1071.03,566.704 1078.33,513.926 1085.63,462.162 1092.93,411.9 1100.33,363.023 1107.72,316.709 1111.42,294.671 1115.11,273.463 1118.81,253.145 1122.51,233.775 1126.21,215.41 1129.9,198.105 1133.6,181.913 1137.3,166.883 1141,153.061 1144.69,140.49 1148.39,129.211 1152.09,119.26 1155.78,110.668 1159.48,103.465 1163.18,97.6748 1166.88,93.3165 1170.57,90.4061 1174.27,88.9544 1177.97,88.9678 1181.67,90.4482 1185.36,93.3926 1189.06,97.7935 1192.76,103.639 1196.45,110.912 1200.15,119.592 1203.85,129.653 1207.55,141.065 1211.24,153.796 1214.94,167.806 1218.64,183.055 1222.34,199.497 1226.03,217.085 1229.73,235.766 1233.43,255.487 1237.12,276.191 1240.82,297.818 1248.22,343.598 1255.61,392.319 1263.01,443.456 1270.4,496.474 1285.19,606.028 1299.98,716.877 1307.37,771.605 1314.77,825.308 1322.16,877.614 1329.56,928.197 1337.84,982.496 1346.13,1033.96 1354.42,1082.34 1362.71,1127.47 1370.99,1169.24 1379.28,1207.6 1387.57,1242.58 1395.85,1274.24 1404.14,1302.69 1412.43,1328.07 1420.72,1350.56 1429,1370.34 1437.29,1387.62 1445.58,1402.61 1453.86,1415.53 1462.15,1426.58 1470.44,1435.98 1478.73,1443.92 1487.01,1450.57 1495.3,1456.12 1511.88,1464.47 1528.45,1470.04 1545.02,1473.66 1561.6,1475.95 1578.17,1477.36 1594.75,1478.2 1654.82,1479.19 1714.9,1479.29 1774.98,1479.3 1835.05,1479.3 2110.19,1479.3 2364.94,1479.3 2616.09,1479.3 2859.94,1479.3 3109.91,1479.3 3383.79,1479.3 3781.64,1479.3 3863.27,1479.3 "/>
<polyline clip-path="url(#clip442)" style="stroke:#3da44d; stroke-linecap:round; stroke-linejoin:round; stroke-width:4; stroke-opacity:1; fill:none" points="-3689.28,1479.3 -3640.11,1479.3 -3185.45,1479.3 -2912.22,1479.3 -2681.21,1479.3 -2430.26,1479.3 -2198.91,1479.3 -1950.88,1479.3 -1663.51,1479.3 -1408.13,1479.3 -1184.19,1479.3 -940.031,1479.3 -694.421,1479.3 -422.867,1479.3 -164.49,1479.3 104.161,1479.3 330.309,1479.3 468.359,1479.3 606.409,1479.3 669.64,1479.28 732.872,1479.09 764.488,1478.67 796.103,1477.58 811.911,1476.53 827.719,1474.9 843.527,1472.44 859.335,1468.78 873.934,1463.92 888.534,1457.16 903.134,1447.9 917.734,1435.43 925.033,1427.74 932.333,1418.93 939.633,1408.88 946.933,1397.47 954.233,1384.57 961.533,1370.05 968.833,1353.79 976.133,1335.65 983.433,1315.52 990.732,1293.28 998.032,1268.83 1005.33,1242.08 1012.63,1212.96 1019.93,1181.41 1027.23,1147.4 1034.53,1110.95 1041.83,1072.06 1049.13,1030.82 1056.43,987.318 1063.73,941.694 1071.03,894.129 1078.33,844.841 1085.63,794.093 1092.93,742.187 1107.72,634.917 1122.51,527.601 1129.9,475.082 1137.3,423.981 1144.69,374.807 1152.09,328.073 1159.48,284.284 1166.88,243.929 1170.57,225.186 1174.27,207.474 1177.97,190.846 1181.67,175.352 1185.36,161.04 1189.06,147.954 1192.76,136.136 1196.45,125.624 1200.15,116.45 1203.85,108.646 1207.55,102.237 1211.24,97.2449 1214.94,93.6873 1218.64,91.5772 1222.34,90.923 1226.03,91.7287 1229.73,93.9936 1233.43,97.7125 1237.12,102.876 1240.82,109.468 1244.52,117.472 1248.22,126.864 1251.91,137.616 1255.61,149.696 1259.31,163.07 1263.01,177.697 1266.7,193.534 1270.4,210.536 1274.1,228.652 1277.79,247.83 1281.49,268.015 1285.19,289.148 1292.58,334.022 1299.98,381.951 1307.37,432.418 1314.77,484.891 1322.16,538.839 1329.56,593.737 1337.84,655.763 1346.13,717.662 1354.42,778.801 1362.71,838.604 1370.99,896.562 1379.28,952.236 1387.57,1005.26 1395.85,1055.35 1404.14,1102.29 1412.43,1145.93 1420.72,1186.19 1429,1223.07 1437.29,1256.58 1445.58,1286.83 1453.86,1313.93 1462.15,1338.04 1470.44,1359.33 1478.73,1378.01 1487.01,1394.29 1495.3,1408.36 1503.59,1420.46 1511.88,1430.79 1520.16,1439.54 1528.45,1446.91 1536.74,1453.07 1545.02,1458.18 1553.31,1462.41 1561.6,1465.87 1578.17,1470.96 1594.75,1474.25 1624.79,1477.39 1654.82,1478.63 1684.86,1479.09 1714.9,1479.24 1774.98,1479.29 1835.05,1479.3 2110.19,1479.3 2364.94,1479.3 2616.09,1479.3 2859.94,1479.3 3109.91,1479.3 3383.79,1479.3 3781.64,1479.3 3863.27,1479.3 "/>
<path clip-path="url(#clip440)" d="M1609.66 303.73 L2277.23 303.73 L2277.23 96.3696 L1609.66 96.3696  Z" fill="#ffffff" fill-rule="evenodd" fill-opacity="1"/>
<polyline clip-path="url(#clip440)" style="stroke:#000000; stroke-linecap:round; stroke-linejoin:round; stroke-width:4; stroke-opacity:1; fill:none" points="1609.66,303.73 2277.23,303.73 2277.23,96.3696 1609.66,96.3696 1609.66,303.73 "/>
<polyline clip-path="url(#clip440)" style="stroke:#009af9; stroke-linecap:round; stroke-linejoin:round; stroke-width:4; stroke-opacity:1; fill:none" points="1634.84,148.21 1785.89,148.21 "/>
<path clip-path="url(#clip440)" d="M1815.74 148.985 L1815.74 161.647 L1823.24 161.647 Q1827.01 161.647 1828.82 160.096 Q1830.65 158.522 1830.65 155.304 Q1830.65 152.064 1828.82 150.536 Q1827.01 148.985 1823.24 148.985 L1815.74 148.985 M1815.74 134.772 L1815.74 145.189 L1822.66 145.189 Q1826.09 145.189 1827.75 143.916 Q1829.44 142.619 1829.44 139.98 Q1829.44 137.365 1827.75 136.068 Q1826.09 134.772 1822.66 134.772 L1815.74 134.772 M1811.06 130.93 L1823.01 130.93 Q1828.35 130.93 1831.25 133.152 Q1834.14 135.374 1834.14 139.471 Q1834.14 142.642 1832.66 144.517 Q1831.18 146.392 1828.31 146.855 Q1831.76 147.596 1833.65 149.957 Q1835.58 152.295 1835.58 155.814 Q1835.58 160.443 1832.43 162.966 Q1829.28 165.49 1823.47 165.49 L1811.06 165.49 L1811.06 130.93 Z" fill="#000000" fill-rule="nonzero" fill-opacity="1" /><path clip-path="url(#clip440)" d="M1865.58 151.462 L1865.58 153.545 L1845.99 153.545 Q1846.27 157.943 1848.63 160.258 Q1851.02 162.55 1855.25 162.55 Q1857.71 162.55 1860 161.948 Q1862.31 161.346 1864.58 160.142 L1864.58 164.17 Q1862.29 165.142 1859.88 165.652 Q1857.47 166.161 1855 166.161 Q1848.79 166.161 1845.16 162.55 Q1841.55 158.939 1841.55 152.781 Q1841.55 146.416 1844.97 142.689 Q1848.42 138.939 1854.26 138.939 Q1859.49 138.939 1862.52 142.318 Q1865.58 145.675 1865.58 151.462 M1861.32 150.212 Q1861.27 146.717 1859.35 144.633 Q1857.45 142.55 1854.3 142.55 Q1850.74 142.55 1848.59 144.564 Q1846.46 146.578 1846.13 150.235 L1861.32 150.212 Z" fill="#000000" fill-rule="nonzero" fill-opacity="1" /><path clip-path="url(#clip440)" d="M1876.78 132.203 L1876.78 139.564 L1885.55 139.564 L1885.55 142.874 L1876.78 142.874 L1876.78 156.948 Q1876.78 160.119 1877.64 161.022 Q1878.52 161.925 1881.18 161.925 L1885.55 161.925 L1885.55 165.49 L1881.18 165.49 Q1876.25 165.49 1874.37 163.661 Q1872.5 161.809 1872.5 156.948 L1872.5 142.874 L1869.37 142.874 L1869.37 139.564 L1872.5 139.564 L1872.5 132.203 L1876.78 132.203 Z" fill="#000000" fill-rule="nonzero" fill-opacity="1" /><path clip-path="url(#clip440)" d="M1902.94 152.457 Q1897.77 152.457 1895.78 153.638 Q1893.79 154.818 1893.79 157.666 Q1893.79 159.934 1895.27 161.277 Q1896.78 162.596 1899.35 162.596 Q1902.89 162.596 1905.02 160.096 Q1907.17 157.573 1907.17 153.406 L1907.17 152.457 L1902.94 152.457 M1911.43 150.698 L1911.43 165.49 L1907.17 165.49 L1907.17 161.554 Q1905.71 163.915 1903.54 165.05 Q1901.36 166.161 1898.21 166.161 Q1894.23 166.161 1891.87 163.939 Q1889.53 161.693 1889.53 157.943 Q1889.53 153.568 1892.45 151.346 Q1895.39 149.124 1901.2 149.124 L1907.17 149.124 L1907.17 148.707 Q1907.17 145.767 1905.23 144.17 Q1903.31 142.55 1899.81 142.55 Q1897.59 142.55 1895.48 143.082 Q1893.38 143.615 1891.43 144.679 L1891.43 140.744 Q1893.77 139.842 1895.97 139.402 Q1898.17 138.939 1900.25 138.939 Q1905.88 138.939 1908.65 141.855 Q1911.43 144.772 1911.43 150.698 Z" fill="#000000" fill-rule="nonzero" fill-opacity="1" /><path clip-path="url(#clip440)" d="M1930.44 129.518 Q1927.33 134.842 1925.83 140.05 Q1924.33 145.258 1924.33 150.605 Q1924.33 155.953 1925.83 161.207 Q1927.36 166.439 1930.44 171.74 L1926.73 171.74 Q1923.26 166.3 1921.52 161.045 Q1919.81 155.791 1919.81 150.605 Q1919.81 145.443 1921.52 140.212 Q1923.24 134.98 1926.73 129.518 L1930.44 129.518 Z" fill="#000000" fill-rule="nonzero" fill-opacity="1" /><path clip-path="url(#clip440)" d="M1940.11 161.554 L1947.75 161.554 L1947.75 135.189 L1939.44 136.855 L1939.44 132.596 L1947.71 130.93 L1952.38 130.93 L1952.38 161.554 L1960.02 161.554 L1960.02 165.49 L1940.11 165.49 L1940.11 161.554 Z" fill="#000000" fill-rule="nonzero" fill-opacity="1" /><path clip-path="url(#clip440)" d="M1986.2 135.767 L1986.2 148.661 L1999.09 148.661 L1999.09 152.596 L1986.2 152.596 L1986.2 165.49 L1982.31 165.49 L1982.31 152.596 L1969.42 152.596 L1969.42 148.661 L1982.31 148.661 L1982.31 135.767 L1986.2 135.767 Z" fill="#000000" fill-rule="nonzero" fill-opacity="1" /><path clip-path="url(#clip440)" d="M2019.37 167.897 Q2017.57 172.527 2015.85 173.939 Q2014.14 175.351 2011.27 175.351 L2007.87 175.351 L2007.87 171.786 L2010.37 171.786 Q2012.13 171.786 2013.1 170.952 Q2014.07 170.119 2015.25 167.017 L2016.01 165.073 L2005.53 139.564 L2010.04 139.564 L2018.14 159.841 L2026.25 139.564 L2030.76 139.564 L2019.37 167.897 Z" fill="#000000" fill-rule="nonzero" fill-opacity="1" /><path clip-path="url(#clip440)" d="M2037.73 159.61 L2042.61 159.61 L2042.61 163.591 L2038.82 170.999 L2035.83 170.999 L2037.73 163.591 L2037.73 159.61 Z" fill="#000000" fill-rule="nonzero" fill-opacity="1" /><path clip-path="url(#clip440)" d="M2056.34 161.554 L2072.66 161.554 L2072.66 165.49 L2050.71 165.49 L2050.71 161.554 Q2053.38 158.8 2057.96 154.17 Q2062.57 149.517 2063.75 148.175 Q2065.99 145.652 2066.87 143.916 Q2067.77 142.156 2067.77 140.467 Q2067.77 137.712 2065.83 135.976 Q2063.91 134.24 2060.81 134.24 Q2058.61 134.24 2056.15 135.004 Q2053.72 135.767 2050.95 137.318 L2050.95 132.596 Q2053.77 131.462 2056.22 130.883 Q2058.68 130.305 2060.71 130.305 Q2066.08 130.305 2069.28 132.99 Q2072.47 135.675 2072.47 140.166 Q2072.47 142.295 2071.66 144.217 Q2070.88 146.115 2068.77 148.707 Q2068.19 149.379 2065.09 152.596 Q2061.99 155.791 2056.34 161.554 Z" fill="#000000" fill-rule="nonzero" fill-opacity="1" /><path clip-path="url(#clip440)" d="M2089.44 130.93 L2093.38 130.93 L2081.34 169.888 L2077.4 169.888 L2089.44 130.93 Z" fill="#000000" fill-rule="nonzero" fill-opacity="1" /><path clip-path="url(#clip440)" d="M2112.61 146.855 Q2115.97 147.573 2117.84 149.841 Q2119.74 152.11 2119.74 155.443 Q2119.74 160.559 2116.22 163.36 Q2112.7 166.161 2106.22 166.161 Q2104.05 166.161 2101.73 165.721 Q2099.44 165.304 2096.99 164.448 L2096.99 159.934 Q2098.93 161.068 2101.25 161.647 Q2103.56 162.226 2106.08 162.226 Q2110.48 162.226 2112.77 160.49 Q2115.09 158.753 2115.09 155.443 Q2115.09 152.388 2112.94 150.675 Q2110.81 148.939 2106.99 148.939 L2102.96 148.939 L2102.96 145.096 L2107.17 145.096 Q2110.62 145.096 2112.45 143.73 Q2114.28 142.342 2114.28 139.749 Q2114.28 137.087 2112.38 135.675 Q2110.51 134.24 2106.99 134.24 Q2105.07 134.24 2102.87 134.656 Q2100.67 135.073 2098.03 135.953 L2098.03 131.786 Q2100.69 131.045 2103.01 130.675 Q2105.34 130.305 2107.4 130.305 Q2112.73 130.305 2115.83 132.735 Q2118.93 135.142 2118.93 139.263 Q2118.93 142.133 2117.29 144.124 Q2115.64 146.092 2112.61 146.855 Z" fill="#000000" fill-rule="nonzero" fill-opacity="1" /><path clip-path="url(#clip440)" d="M2145.34 135.767 L2145.34 148.661 L2158.24 148.661 L2158.24 152.596 L2145.34 152.596 L2145.34 165.49 L2141.45 165.49 L2141.45 152.596 L2128.56 152.596 L2128.56 148.661 L2141.45 148.661 L2141.45 135.767 L2145.34 135.767 Z" fill="#000000" fill-rule="nonzero" fill-opacity="1" /><path clip-path="url(#clip440)" d="M2189.28 149.841 L2189.28 165.49 L2185.02 165.49 L2185.02 149.98 Q2185.02 146.3 2183.58 144.471 Q2182.15 142.642 2179.28 142.642 Q2175.83 142.642 2173.84 144.842 Q2171.85 147.041 2171.85 150.837 L2171.85 165.49 L2167.57 165.49 L2167.57 139.564 L2171.85 139.564 L2171.85 143.592 Q2173.38 141.254 2175.44 140.096 Q2177.52 138.939 2180.23 138.939 Q2184.69 138.939 2186.99 141.717 Q2189.28 144.471 2189.28 149.841 Z" fill="#000000" fill-rule="nonzero" fill-opacity="1" /><path clip-path="url(#clip440)" d="M2195.62 150.605 L2208.1 150.605 L2208.1 154.402 L2195.62 154.402 L2195.62 150.605 Z" fill="#000000" fill-rule="nonzero" fill-opacity="1" /><path clip-path="url(#clip440)" d="M2224.83 167.897 Q2223.03 172.527 2221.31 173.939 Q2219.6 175.351 2216.73 175.351 L2213.33 175.351 L2213.33 171.786 L2215.83 171.786 Q2217.59 171.786 2218.56 170.952 Q2219.53 170.119 2220.71 167.017 L2221.48 165.073 L2210.99 139.564 L2215.5 139.564 L2223.61 159.841 L2231.71 139.564 L2236.22 139.564 L2224.83 167.897 Z" fill="#000000" fill-rule="nonzero" fill-opacity="1" /><path clip-path="url(#clip440)" d="M2241.43 129.518 L2245.13 129.518 Q2248.61 134.98 2250.32 140.212 Q2252.06 145.443 2252.06 150.605 Q2252.06 155.791 2250.32 161.045 Q2248.61 166.3 2245.13 171.74 L2241.43 171.74 Q2244.51 166.439 2246.01 161.207 Q2247.54 155.953 2247.54 150.605 Q2247.54 145.258 2246.01 140.05 Q2244.51 134.842 2241.43 129.518 Z" fill="#000000" fill-rule="nonzero" fill-opacity="1" /><polyline clip-path="url(#clip440)" style="stroke:#e26f46; stroke-linecap:round; stroke-linejoin:round; stroke-width:4; stroke-opacity:1; fill:none" points="1634.84,200.05 1785.89,200.05 "/>
<path clip-path="url(#clip440)" d="M1815.74 200.825 L1815.74 213.487 L1823.24 213.487 Q1827.01 213.487 1828.82 211.936 Q1830.65 210.362 1830.65 207.144 Q1830.65 203.904 1828.82 202.376 Q1827.01 200.825 1823.24 200.825 L1815.74 200.825 M1815.74 186.612 L1815.74 197.029 L1822.66 197.029 Q1826.09 197.029 1827.75 195.756 Q1829.44 194.459 1829.44 191.82 Q1829.44 189.205 1827.75 187.908 Q1826.09 186.612 1822.66 186.612 L1815.74 186.612 M1811.06 182.77 L1823.01 182.77 Q1828.35 182.77 1831.25 184.992 Q1834.14 187.214 1834.14 191.311 Q1834.14 194.482 1832.66 196.357 Q1831.18 198.232 1828.31 198.695 Q1831.76 199.436 1833.65 201.797 Q1835.58 204.135 1835.58 207.654 Q1835.58 212.283 1832.43 214.806 Q1829.28 217.33 1823.47 217.33 L1811.06 217.33 L1811.06 182.77 Z" fill="#000000" fill-rule="nonzero" fill-opacity="1" /><path clip-path="url(#clip440)" d="M1865.58 203.302 L1865.58 205.385 L1845.99 205.385 Q1846.27 209.783 1848.63 212.098 Q1851.02 214.39 1855.25 214.39 Q1857.71 214.39 1860 213.788 Q1862.31 213.186 1864.58 211.982 L1864.58 216.01 Q1862.29 216.982 1859.88 217.492 Q1857.47 218.001 1855 218.001 Q1848.79 218.001 1845.16 214.39 Q1841.55 210.779 1841.55 204.621 Q1841.55 198.256 1844.97 194.529 Q1848.42 190.779 1854.26 190.779 Q1859.49 190.779 1862.52 194.158 Q1865.58 197.515 1865.58 203.302 M1861.32 202.052 Q1861.27 198.557 1859.35 196.473 Q1857.45 194.39 1854.3 194.39 Q1850.74 194.39 1848.59 196.404 Q1846.46 198.418 1846.13 202.075 L1861.32 202.052 Z" fill="#000000" fill-rule="nonzero" fill-opacity="1" /><path clip-path="url(#clip440)" d="M1876.78 184.043 L1876.78 191.404 L1885.55 191.404 L1885.55 194.714 L1876.78 194.714 L1876.78 208.788 Q1876.78 211.959 1877.64 212.862 Q1878.52 213.765 1881.18 213.765 L1885.55 213.765 L1885.55 217.33 L1881.18 217.33 Q1876.25 217.33 1874.37 215.501 Q1872.5 213.649 1872.5 208.788 L1872.5 194.714 L1869.37 194.714 L1869.37 191.404 L1872.5 191.404 L1872.5 184.043 L1876.78 184.043 Z" fill="#000000" fill-rule="nonzero" fill-opacity="1" /><path clip-path="url(#clip440)" d="M1902.94 204.297 Q1897.77 204.297 1895.78 205.478 Q1893.79 206.658 1893.79 209.506 Q1893.79 211.774 1895.27 213.117 Q1896.78 214.436 1899.35 214.436 Q1902.89 214.436 1905.02 211.936 Q1907.17 209.413 1907.17 205.246 L1907.17 204.297 L1902.94 204.297 M1911.43 202.538 L1911.43 217.33 L1907.17 217.33 L1907.17 213.394 Q1905.71 215.755 1903.54 216.89 Q1901.36 218.001 1898.21 218.001 Q1894.23 218.001 1891.87 215.779 Q1889.53 213.533 1889.53 209.783 Q1889.53 205.408 1892.45 203.186 Q1895.39 200.964 1901.2 200.964 L1907.17 200.964 L1907.17 200.547 Q1907.17 197.607 1905.23 196.01 Q1903.31 194.39 1899.81 194.39 Q1897.59 194.39 1895.48 194.922 Q1893.38 195.455 1891.43 196.519 L1891.43 192.584 Q1893.77 191.682 1895.97 191.242 Q1898.17 190.779 1900.25 190.779 Q1905.88 190.779 1908.65 193.695 Q1911.43 196.612 1911.43 202.538 Z" fill="#000000" fill-rule="nonzero" fill-opacity="1" /><path clip-path="url(#clip440)" d="M1930.44 181.358 Q1927.33 186.682 1925.83 191.89 Q1924.33 197.098 1924.33 202.445 Q1924.33 207.793 1925.83 213.047 Q1927.36 218.279 1930.44 223.58 L1926.73 223.58 Q1923.26 218.14 1921.52 212.885 Q1919.81 207.631 1919.81 202.445 Q1919.81 197.283 1921.52 192.052 Q1923.24 186.82 1926.73 181.358 L1930.44 181.358 Z" fill="#000000" fill-rule="nonzero" fill-opacity="1" /><path clip-path="url(#clip440)" d="M1940.11 213.394 L1947.75 213.394 L1947.75 187.029 L1939.44 188.695 L1939.44 184.436 L1947.71 182.77 L1952.38 182.77 L1952.38 213.394 L1960.02 213.394 L1960.02 217.33 L1940.11 217.33 L1940.11 213.394 Z" fill="#000000" fill-rule="nonzero" fill-opacity="1" /><path clip-path="url(#clip440)" d="M1986.2 187.607 L1986.2 200.501 L1999.09 200.501 L1999.09 204.436 L1986.2 204.436 L1986.2 217.33 L1982.31 217.33 L1982.31 204.436 L1969.42 204.436 L1969.42 200.501 L1982.31 200.501 L1982.31 187.607 L1986.2 187.607 Z" fill="#000000" fill-rule="nonzero" fill-opacity="1" /><path clip-path="url(#clip440)" d="M2019.37 219.737 Q2017.57 224.367 2015.85 225.779 Q2014.14 227.191 2011.27 227.191 L2007.87 227.191 L2007.87 223.626 L2010.37 223.626 Q2012.13 223.626 2013.1 222.792 Q2014.07 221.959 2015.25 218.857 L2016.01 216.913 L2005.53 191.404 L2010.04 191.404 L2018.14 211.681 L2026.25 191.404 L2030.76 191.404 L2019.37 219.737 Z" fill="#000000" fill-rule="nonzero" fill-opacity="1" /><path clip-path="url(#clip440)" d="M2037.73 211.45 L2042.61 211.45 L2042.61 215.431 L2038.82 222.839 L2035.83 222.839 L2037.73 215.431 L2037.73 211.45 Z" fill="#000000" fill-rule="nonzero" fill-opacity="1" /><path clip-path="url(#clip440)" d="M2053.12 213.394 L2060.76 213.394 L2060.76 187.029 L2052.45 188.695 L2052.45 184.436 L2060.71 182.77 L2065.39 182.77 L2065.39 213.394 L2073.03 213.394 L2073.03 217.33 L2053.12 217.33 L2053.12 213.394 Z" fill="#000000" fill-rule="nonzero" fill-opacity="1" /><path clip-path="url(#clip440)" d="M2092.47 185.848 Q2088.86 185.848 2087.03 189.413 Q2085.23 192.955 2085.23 200.084 Q2085.23 207.191 2087.03 210.756 Q2088.86 214.297 2092.47 214.297 Q2096.11 214.297 2097.91 210.756 Q2099.74 207.191 2099.74 200.084 Q2099.74 192.955 2097.91 189.413 Q2096.11 185.848 2092.47 185.848 M2092.47 182.145 Q2098.28 182.145 2101.34 186.751 Q2104.42 191.334 2104.42 200.084 Q2104.42 208.811 2101.34 213.418 Q2098.28 218.001 2092.47 218.001 Q2086.66 218.001 2083.58 213.418 Q2080.53 208.811 2080.53 200.084 Q2080.53 191.334 2083.58 186.751 Q2086.66 182.145 2092.47 182.145 Z" fill="#000000" fill-rule="nonzero" fill-opacity="1" /><path clip-path="url(#clip440)" d="M2129.37 187.607 L2129.37 200.501 L2142.26 200.501 L2142.26 204.436 L2129.37 204.436 L2129.37 217.33 L2125.48 217.33 L2125.48 204.436 L2112.59 204.436 L2112.59 200.501 L2125.48 200.501 L2125.48 187.607 L2129.37 187.607 Z" fill="#000000" fill-rule="nonzero" fill-opacity="1" /><path clip-path="url(#clip440)" d="M2173.31 201.681 L2173.31 217.33 L2169.05 217.33 L2169.05 201.82 Q2169.05 198.14 2167.61 196.311 Q2166.18 194.482 2163.31 194.482 Q2159.86 194.482 2157.87 196.682 Q2155.88 198.881 2155.88 202.677 L2155.88 217.33 L2151.59 217.33 L2151.59 191.404 L2155.88 191.404 L2155.88 195.432 Q2157.4 193.094 2159.46 191.936 Q2161.55 190.779 2164.25 190.779 Q2168.72 190.779 2171.01 193.557 Q2173.31 196.311 2173.31 201.681 Z" fill="#000000" fill-rule="nonzero" fill-opacity="1" /><path clip-path="url(#clip440)" d="M2179.65 202.445 L2192.13 202.445 L2192.13 206.242 L2179.65 206.242 L2179.65 202.445 Z" fill="#000000" fill-rule="nonzero" fill-opacity="1" /><path clip-path="url(#clip440)" d="M2208.86 219.737 Q2207.06 224.367 2205.34 225.779 Q2203.63 227.191 2200.76 227.191 L2197.36 227.191 L2197.36 223.626 L2199.86 223.626 Q2201.62 223.626 2202.59 222.792 Q2203.56 221.959 2204.74 218.857 L2205.5 216.913 L2195.02 191.404 L2199.53 191.404 L2207.63 211.681 L2215.74 191.404 L2220.25 191.404 L2208.86 219.737 Z" fill="#000000" fill-rule="nonzero" fill-opacity="1" /><path clip-path="url(#clip440)" d="M2225.46 181.358 L2229.16 181.358 Q2232.63 186.82 2234.35 192.052 Q2236.08 197.283 2236.08 202.445 Q2236.08 207.631 2234.35 212.885 Q2232.63 218.14 2229.16 223.58 L2225.46 223.58 Q2228.54 218.279 2230.04 213.047 Q2231.57 207.793 2231.57 202.445 Q2231.57 197.098 2230.04 191.89 Q2228.54 186.682 2225.46 181.358 Z" fill="#000000" fill-rule="nonzero" fill-opacity="1" /><polyline clip-path="url(#clip440)" style="stroke:#3da44d; stroke-linecap:round; stroke-linejoin:round; stroke-width:4; stroke-opacity:1; fill:none" points="1634.84,251.89 1785.89,251.89 "/>
<path clip-path="url(#clip440)" d="M1815.74 252.665 L1815.74 265.327 L1823.24 265.327 Q1827.01 265.327 1828.82 263.776 Q1830.65 262.202 1830.65 258.984 Q1830.65 255.744 1828.82 254.216 Q1827.01 252.665 1823.24 252.665 L1815.74 252.665 M1815.74 238.452 L1815.74 248.869 L1822.66 248.869 Q1826.09 248.869 1827.75 247.596 Q1829.44 246.299 1829.44 243.66 Q1829.44 241.045 1827.75 239.748 Q1826.09 238.452 1822.66 238.452 L1815.74 238.452 M1811.06 234.61 L1823.01 234.61 Q1828.35 234.61 1831.25 236.832 Q1834.14 239.054 1834.14 243.151 Q1834.14 246.322 1832.66 248.197 Q1831.18 250.072 1828.31 250.535 Q1831.76 251.276 1833.65 253.637 Q1835.58 255.975 1835.58 259.494 Q1835.58 264.123 1832.43 266.646 Q1829.28 269.17 1823.47 269.17 L1811.06 269.17 L1811.06 234.61 Z" fill="#000000" fill-rule="nonzero" fill-opacity="1" /><path clip-path="url(#clip440)" d="M1865.58 255.142 L1865.58 257.225 L1845.99 257.225 Q1846.27 261.623 1848.63 263.938 Q1851.02 266.23 1855.25 266.23 Q1857.71 266.23 1860 265.628 Q1862.31 265.026 1864.58 263.822 L1864.58 267.85 Q1862.29 268.822 1859.88 269.332 Q1857.47 269.841 1855 269.841 Q1848.79 269.841 1845.16 266.23 Q1841.55 262.619 1841.55 256.461 Q1841.55 250.096 1844.97 246.369 Q1848.42 242.619 1854.26 242.619 Q1859.49 242.619 1862.52 245.998 Q1865.58 249.355 1865.58 255.142 M1861.32 253.892 Q1861.27 250.397 1859.35 248.313 Q1857.45 246.23 1854.3 246.23 Q1850.74 246.23 1848.59 248.244 Q1846.46 250.258 1846.13 253.915 L1861.32 253.892 Z" fill="#000000" fill-rule="nonzero" fill-opacity="1" /><path clip-path="url(#clip440)" d="M1876.78 235.883 L1876.78 243.244 L1885.55 243.244 L1885.55 246.554 L1876.78 246.554 L1876.78 260.628 Q1876.78 263.799 1877.64 264.702 Q1878.52 265.605 1881.18 265.605 L1885.55 265.605 L1885.55 269.17 L1881.18 269.17 Q1876.25 269.17 1874.37 267.341 Q1872.5 265.489 1872.5 260.628 L1872.5 246.554 L1869.37 246.554 L1869.37 243.244 L1872.5 243.244 L1872.5 235.883 L1876.78 235.883 Z" fill="#000000" fill-rule="nonzero" fill-opacity="1" /><path clip-path="url(#clip440)" d="M1902.94 256.137 Q1897.77 256.137 1895.78 257.318 Q1893.79 258.498 1893.79 261.346 Q1893.79 263.614 1895.27 264.957 Q1896.78 266.276 1899.35 266.276 Q1902.89 266.276 1905.02 263.776 Q1907.17 261.253 1907.17 257.086 L1907.17 256.137 L1902.94 256.137 M1911.43 254.378 L1911.43 269.17 L1907.17 269.17 L1907.17 265.234 Q1905.71 267.595 1903.54 268.73 Q1901.36 269.841 1898.21 269.841 Q1894.23 269.841 1891.87 267.619 Q1889.53 265.373 1889.53 261.623 Q1889.53 257.248 1892.45 255.026 Q1895.39 252.804 1901.2 252.804 L1907.17 252.804 L1907.17 252.387 Q1907.17 249.447 1905.23 247.85 Q1903.31 246.23 1899.81 246.23 Q1897.59 246.23 1895.48 246.762 Q1893.38 247.295 1891.43 248.359 L1891.43 244.424 Q1893.77 243.522 1895.97 243.082 Q1898.17 242.619 1900.25 242.619 Q1905.88 242.619 1908.65 245.535 Q1911.43 248.452 1911.43 254.378 Z" fill="#000000" fill-rule="nonzero" fill-opacity="1" /><path clip-path="url(#clip440)" d="M1930.44 233.198 Q1927.33 238.522 1925.83 243.73 Q1924.33 248.938 1924.33 254.285 Q1924.33 259.633 1925.83 264.887 Q1927.36 270.119 1930.44 275.42 L1926.73 275.42 Q1923.26 269.98 1921.52 264.725 Q1919.81 259.471 1919.81 254.285 Q1919.81 249.123 1921.52 243.892 Q1923.24 238.66 1926.73 233.198 L1930.44 233.198 Z" fill="#000000" fill-rule="nonzero" fill-opacity="1" /><path clip-path="url(#clip440)" d="M1949.49 271.577 Q1947.68 276.207 1945.97 277.619 Q1944.26 279.031 1941.39 279.031 L1937.98 279.031 L1937.98 275.466 L1940.48 275.466 Q1942.24 275.466 1943.21 274.632 Q1944.19 273.799 1945.37 270.697 L1946.13 268.753 L1935.64 243.244 L1940.16 243.244 L1948.26 263.521 L1956.36 243.244 L1960.88 243.244 L1949.49 271.577 Z" fill="#000000" fill-rule="nonzero" fill-opacity="1" /><path clip-path="url(#clip440)" d="M1967.84 263.29 L1972.73 263.29 L1972.73 267.271 L1968.93 274.679 L1965.95 274.679 L1967.84 267.271 L1967.84 263.29 Z" fill="#000000" fill-rule="nonzero" fill-opacity="1" /><path clip-path="url(#clip440)" d="M2003.38 253.521 L2003.38 269.17 L1999.12 269.17 L1999.12 253.66 Q1999.12 249.98 1997.68 248.151 Q1996.25 246.322 1993.38 246.322 Q1989.93 246.322 1987.94 248.522 Q1985.95 250.721 1985.95 254.517 L1985.95 269.17 L1981.66 269.17 L1981.66 243.244 L1985.95 243.244 L1985.95 247.272 Q1987.47 244.934 1989.53 243.776 Q1991.62 242.619 1994.33 242.619 Q1998.79 242.619 2001.08 245.397 Q2003.38 248.151 2003.38 253.521 Z" fill="#000000" fill-rule="nonzero" fill-opacity="1" /><path clip-path="url(#clip440)" d="M2009.72 254.285 L2022.2 254.285 L2022.2 258.082 L2009.72 258.082 L2009.72 254.285 Z" fill="#000000" fill-rule="nonzero" fill-opacity="1" /><path clip-path="url(#clip440)" d="M2038.93 271.577 Q2037.13 276.207 2035.41 277.619 Q2033.7 279.031 2030.83 279.031 L2027.43 279.031 L2027.43 275.466 L2029.93 275.466 Q2031.69 275.466 2032.66 274.632 Q2033.63 273.799 2034.81 270.697 L2035.57 268.753 L2025.09 243.244 L2029.6 243.244 L2037.7 263.521 L2045.81 243.244 L2050.32 243.244 L2038.93 271.577 Z" fill="#000000" fill-rule="nonzero" fill-opacity="1" /><path clip-path="url(#clip440)" d="M2055.53 233.198 L2059.23 233.198 Q2062.7 238.66 2064.42 243.892 Q2066.15 249.123 2066.15 254.285 Q2066.15 259.471 2064.42 264.725 Q2062.7 269.98 2059.23 275.42 L2055.53 275.42 Q2058.61 270.119 2060.11 264.887 Q2061.64 259.633 2061.64 254.285 Q2061.64 248.938 2060.11 243.73 Q2058.61 238.522 2055.53 233.198 Z" fill="#000000" fill-rule="nonzero" fill-opacity="1" /></svg>
