<?xml version="1.0" encoding="utf-8"?>
<svg xmlns="http://www.w3.org/2000/svg" xmlns:xlink="http://www.w3.org/1999/xlink" width="600" height="400" viewBox="0 0 2400 1600">
<defs>
  <clipPath id="clip590">
    <rect x="0" y="0" width="2400" height="1600"/>
  </clipPath>
</defs>
<path clip-path="url(#clip590)" d="M0 1600 L2400 1600 L2400 0 L0 0  Z" fill="#ffffff" fill-rule="evenodd" fill-opacity="1"/>
<defs>
  <clipPath id="clip591">
    <rect x="480" y="0" width="1681" height="1600"/>
  </clipPath>
</defs>
<path clip-path="url(#clip590)" d="M86.9921 1521.01 L2112.76 1521.01 L2112.76 62.9921 L86.9921 62.9921  Z" fill="#ffffff" fill-rule="evenodd" fill-opacity="1"/>
<defs>
  <clipPath id="clip592">
    <rect x="86" y="62" width="2027" height="1459"/>
  </clipPath>
</defs>
<polyline clip-path="url(#clip592)" style="stroke:#000000; stroke-linecap:round; stroke-linejoin:round; stroke-width:2; stroke-opacity:0.1; fill:none" points="86.9921,1521.01 86.9921,62.9921 "/>
<polyline clip-path="url(#clip592)" style="stroke:#000000; stroke-linecap:round; stroke-linejoin:round; stroke-width:2; stroke-opacity:0.1; fill:none" points="593.433,1521.01 593.433,62.9921 "/>
<polyline clip-path="url(#clip592)" style="stroke:#000000; stroke-linecap:round; stroke-linejoin:round; stroke-width:2; stroke-opacity:0.1; fill:none" points="1099.87,1521.01 1099.87,62.9921 "/>
<polyline clip-path="url(#clip592)" style="stroke:#000000; stroke-linecap:round; stroke-linejoin:round; stroke-width:2; stroke-opacity:0.1; fill:none" points="1606.31,1521.01 1606.31,62.9921 "/>
<polyline clip-path="url(#clip592)" style="stroke:#000000; stroke-linecap:round; stroke-linejoin:round; stroke-width:2; stroke-opacity:0.1; fill:none" points="2112.76,1521.01 2112.76,62.9921 "/>
<polyline clip-path="url(#clip590)" style="stroke:#000000; stroke-linecap:round; stroke-linejoin:round; stroke-width:4; stroke-opacity:1; fill:none" points="86.9921,1521.01 2112.76,1521.01 "/>
<polyline clip-path="url(#clip590)" style="stroke:#000000; stroke-linecap:round; stroke-linejoin:round; stroke-width:4; stroke-opacity:1; fill:none" points="86.9921,1521.01 86.9921,1502.11 "/>
<polyline clip-path="url(#clip590)" style="stroke:#000000; stroke-linecap:round; stroke-linejoin:round; stroke-width:4; stroke-opacity:1; fill:none" points="593.433,1521.01 593.433,1502.11 "/>
<polyline clip-path="url(#clip590)" style="stroke:#000000; stroke-linecap:round; stroke-linejoin:round; stroke-width:4; stroke-opacity:1; fill:none" points="1099.87,1521.01 1099.87,1502.11 "/>
<polyline clip-path="url(#clip590)" style="stroke:#000000; stroke-linecap:round; stroke-linejoin:round; stroke-width:4; stroke-opacity:1; fill:none" points="1606.31,1521.01 1606.31,1502.11 "/>
<polyline clip-path="url(#clip590)" style="stroke:#000000; stroke-linecap:round; stroke-linejoin:round; stroke-width:4; stroke-opacity:1; fill:none" points="2112.76,1521.01 2112.76,1502.11 "/>
<path clip-path="url(#clip590)" d="M86.9921 1551.93 Q83.381 1551.93 81.5523 1555.49 Q79.7468 1559.03 79.7468 1566.16 Q79.7468 1573.27 81.5523 1576.83 Q83.381 1580.38 86.9921 1580.38 Q90.6264 1580.38 92.4319 1576.83 Q94.2606 1573.27 94.2606 1566.16 Q94.2606 1559.03 92.4319 1555.49 Q90.6264 1551.93 86.9921 1551.93 M86.9921 1548.22 Q92.8023 1548.22 95.8578 1552.83 Q98.9365 1557.41 98.9365 1566.16 Q98.9365 1574.89 95.8578 1579.5 Q92.8023 1584.08 86.9921 1584.08 Q81.182 1584.08 78.1033 1579.5 Q75.0477 1574.89 75.0477 1566.16 Q75.0477 1557.41 78.1033 1552.83 Q81.182 1548.22 86.9921 1548.22 Z" fill="#000000" fill-rule="nonzero" fill-opacity="1" /><path clip-path="url(#clip590)" d="M583.711 1548.85 L602.067 1548.85 L602.067 1552.78 L587.993 1552.78 L587.993 1561.26 Q589.012 1560.91 590.03 1560.75 Q591.049 1560.56 592.067 1560.56 Q597.854 1560.56 601.234 1563.73 Q604.614 1566.9 604.614 1572.32 Q604.614 1577.9 601.141 1581 Q597.669 1584.08 591.35 1584.08 Q589.174 1584.08 586.905 1583.71 Q584.66 1583.34 582.253 1582.6 L582.253 1577.9 Q584.336 1579.03 586.558 1579.59 Q588.78 1580.14 591.257 1580.14 Q595.262 1580.14 597.6 1578.04 Q599.938 1575.93 599.938 1572.32 Q599.938 1568.71 597.6 1566.6 Q595.262 1564.5 591.257 1564.5 Q589.382 1564.5 587.507 1564.91 Q585.655 1565.33 583.711 1566.21 L583.711 1548.85 Z" fill="#000000" fill-rule="nonzero" fill-opacity="1" /><path clip-path="url(#clip590)" d="M1074.56 1579.47 L1082.2 1579.47 L1082.2 1553.11 L1073.89 1554.77 L1073.89 1550.51 L1082.15 1548.85 L1086.83 1548.85 L1086.83 1579.47 L1094.47 1579.47 L1094.47 1583.41 L1074.56 1583.41 L1074.56 1579.47 Z" fill="#000000" fill-rule="nonzero" fill-opacity="1" /><path clip-path="url(#clip590)" d="M1113.91 1551.93 Q1110.3 1551.93 1108.47 1555.49 Q1106.67 1559.03 1106.67 1566.16 Q1106.67 1573.27 1108.47 1576.83 Q1110.3 1580.38 1113.91 1580.38 Q1117.55 1580.38 1119.35 1576.83 Q1121.18 1573.27 1121.18 1566.16 Q1121.18 1559.03 1119.35 1555.49 Q1117.55 1551.93 1113.91 1551.93 M1113.91 1548.22 Q1119.72 1548.22 1122.78 1552.83 Q1125.86 1557.41 1125.86 1566.16 Q1125.86 1574.89 1122.78 1579.5 Q1119.72 1584.08 1113.91 1584.08 Q1108.1 1584.08 1105.02 1579.5 Q1101.97 1574.89 1101.97 1566.16 Q1101.97 1557.41 1105.02 1552.83 Q1108.1 1548.22 1113.91 1548.22 Z" fill="#000000" fill-rule="nonzero" fill-opacity="1" /><path clip-path="url(#clip590)" d="M1581.5 1579.47 L1589.14 1579.47 L1589.14 1553.11 L1580.83 1554.77 L1580.83 1550.51 L1589.09 1548.85 L1593.77 1548.85 L1593.77 1579.47 L1601.41 1579.47 L1601.41 1583.41 L1581.5 1583.41 L1581.5 1579.47 Z" fill="#000000" fill-rule="nonzero" fill-opacity="1" /><path clip-path="url(#clip590)" d="M1610.9 1548.85 L1629.25 1548.85 L1629.25 1552.78 L1615.18 1552.78 L1615.18 1561.26 Q1616.2 1560.91 1617.22 1560.75 Q1618.24 1560.56 1619.25 1560.56 Q1625.04 1560.56 1628.42 1563.73 Q1631.8 1566.9 1631.8 1572.32 Q1631.8 1577.9 1628.33 1581 Q1624.86 1584.08 1618.54 1584.08 Q1616.36 1584.08 1614.09 1583.71 Q1611.85 1583.34 1609.44 1582.6 L1609.44 1577.9 Q1611.52 1579.03 1613.75 1579.59 Q1615.97 1580.14 1618.44 1580.14 Q1622.45 1580.14 1624.79 1578.04 Q1627.13 1575.93 1627.13 1572.32 Q1627.13 1568.71 1624.79 1566.6 Q1622.45 1564.5 1618.44 1564.5 Q1616.57 1564.5 1614.69 1564.91 Q1612.84 1565.33 1610.9 1566.21 L1610.9 1548.85 Z" fill="#000000" fill-rule="nonzero" fill-opacity="1" /><path clip-path="url(#clip590)" d="M2091.53 1579.47 L2107.85 1579.47 L2107.85 1583.41 L2085.9 1583.41 L2085.9 1579.47 Q2088.57 1576.72 2093.15 1572.09 Q2097.76 1567.44 2098.94 1566.09 Q2101.18 1563.57 2102.06 1561.83 Q2102.96 1560.07 2102.96 1558.38 Q2102.96 1555.63 2101.02 1553.89 Q2099.1 1552.16 2096 1552.16 Q2093.8 1552.16 2091.34 1552.92 Q2088.91 1553.69 2086.14 1555.24 L2086.14 1550.51 Q2088.96 1549.38 2091.41 1548.8 Q2093.87 1548.22 2095.9 1548.22 Q2101.27 1548.22 2104.47 1550.91 Q2107.66 1553.59 2107.66 1558.08 Q2107.66 1560.21 2106.85 1562.13 Q2106.07 1564.03 2103.96 1566.63 Q2103.38 1567.3 2100.28 1570.51 Q2097.18 1573.71 2091.53 1579.47 Z" fill="#000000" fill-rule="nonzero" fill-opacity="1" /><path clip-path="url(#clip590)" d="M2127.66 1551.93 Q2124.05 1551.93 2122.22 1555.49 Q2120.42 1559.03 2120.42 1566.16 Q2120.42 1573.27 2122.22 1576.83 Q2124.05 1580.38 2127.66 1580.38 Q2131.3 1580.38 2133.1 1576.83 Q2134.93 1573.27 2134.93 1566.16 Q2134.93 1559.03 2133.1 1555.49 Q2131.3 1551.93 2127.66 1551.93 M2127.66 1548.22 Q2133.47 1548.22 2136.53 1552.83 Q2139.61 1557.41 2139.61 1566.16 Q2139.61 1574.89 2136.53 1579.5 Q2133.47 1584.08 2127.66 1584.08 Q2121.85 1584.08 2118.77 1579.5 Q2115.72 1574.89 2115.72 1566.16 Q2115.72 1557.41 2118.77 1552.83 Q2121.85 1548.22 2127.66 1548.22 Z" fill="#000000" fill-rule="nonzero" fill-opacity="1" /><polyline clip-path="url(#clip592)" style="stroke:#000000; stroke-linecap:round; stroke-linejoin:round; stroke-width:2; stroke-opacity:0.1; fill:none" points="86.9921,1521.01 2112.76,1521.01 "/>
<polyline clip-path="url(#clip592)" style="stroke:#000000; stroke-linecap:round; stroke-linejoin:round; stroke-width:2; stroke-opacity:0.1; fill:none" points="86.9921,1229.4 2112.76,1229.4 "/>
<polyline clip-path="url(#clip592)" style="stroke:#000000; stroke-linecap:round; stroke-linejoin:round; stroke-width:2; stroke-opacity:0.1; fill:none" points="86.9921,937.802 2112.76,937.802 "/>
<polyline clip-path="url(#clip592)" style="stroke:#000000; stroke-linecap:round; stroke-linejoin:round; stroke-width:2; stroke-opacity:0.1; fill:none" points="86.9921,646.198 2112.76,646.198 "/>
<polyline clip-path="url(#clip592)" style="stroke:#000000; stroke-linecap:round; stroke-linejoin:round; stroke-width:2; stroke-opacity:0.1; fill:none" points="86.9921,354.595 2112.76,354.595 "/>
<polyline clip-path="url(#clip592)" style="stroke:#000000; stroke-linecap:round; stroke-linejoin:round; stroke-width:2; stroke-opacity:0.1; fill:none" points="86.9921,62.9921 2112.76,62.9921 "/>
<polyline clip-path="url(#clip590)" style="stroke:#000000; stroke-linecap:round; stroke-linejoin:round; stroke-width:4; stroke-opacity:1; fill:none" points="86.9921,1521.01 86.9921,62.9921 "/>
<polyline clip-path="url(#clip590)" style="stroke:#000000; stroke-linecap:round; stroke-linejoin:round; stroke-width:4; stroke-opacity:1; fill:none" points="86.9921,1521.01 103.888,1521.01 "/>
<polyline clip-path="url(#clip590)" style="stroke:#000000; stroke-linecap:round; stroke-linejoin:round; stroke-width:4; stroke-opacity:1; fill:none" points="86.9921,1229.4 103.888,1229.4 "/>
<polyline clip-path="url(#clip590)" style="stroke:#000000; stroke-linecap:round; stroke-linejoin:round; stroke-width:4; stroke-opacity:1; fill:none" points="86.9921,937.802 103.888,937.802 "/>
<polyline clip-path="url(#clip590)" style="stroke:#000000; stroke-linecap:round; stroke-linejoin:round; stroke-width:4; stroke-opacity:1; fill:none" points="86.9921,646.198 103.888,646.198 "/>
<polyline clip-path="url(#clip590)" style="stroke:#000000; stroke-linecap:round; stroke-linejoin:round; stroke-width:4; stroke-opacity:1; fill:none" points="86.9921,354.595 103.888,354.595 "/>
<polyline clip-path="url(#clip590)" style="stroke:#000000; stroke-linecap:round; stroke-linejoin:round; stroke-width:4; stroke-opacity:1; fill:none" points="86.9921,62.9921 103.888,62.9921 "/>
<path clip-path="url(#clip590)" d="M-9.12329 1521.46 L20.5525 1521.46 L20.5525 1525.39 L-9.12329 1525.39 L-9.12329 1521.46 Z" fill="#000000" fill-rule="nonzero" fill-opacity="1" /><path clip-path="url(#clip590)" d="M34.6728 1534.35 L50.9921 1534.35 L50.9921 1538.29 L29.0478 1538.29 L29.0478 1534.35 Q31.7098 1531.6 36.2931 1526.97 Q40.8996 1522.32 42.0801 1520.97 Q44.3255 1518.45 45.2051 1516.71 Q46.1079 1514.95 46.1079 1513.26 Q46.1079 1510.51 44.1635 1508.77 Q42.2422 1507.04 39.1403 1507.04 Q36.9413 1507.04 34.4876 1507.8 Q32.057 1508.57 29.2793 1510.12 L29.2793 1505.39 Q32.1033 1504.26 34.557 1503.68 Q37.0107 1503.1 39.0477 1503.1 Q44.4181 1503.1 47.6125 1505.79 Q50.8069 1508.47 50.8069 1512.96 Q50.8069 1515.09 49.9968 1517.01 Q49.2097 1518.91 47.1033 1521.51 Q46.5246 1522.18 43.4227 1525.39 Q40.3209 1528.59 34.6728 1534.35 Z" fill="#000000" fill-rule="nonzero" fill-opacity="1" /><path clip-path="url(#clip590)" d="M-9.49366 1229.86 L20.1821 1229.86 L20.1821 1233.79 L-9.49366 1233.79 L-9.49366 1229.86 Z" fill="#000000" fill-rule="nonzero" fill-opacity="1" /><path clip-path="url(#clip590)" d="M31.0848 1242.75 L38.7237 1242.75 L38.7237 1216.38 L30.4135 1218.05 L30.4135 1213.79 L38.6774 1212.12 L43.3533 1212.12 L43.3533 1242.75 L50.9921 1242.75 L50.9921 1246.68 L31.0848 1246.68 L31.0848 1242.75 Z" fill="#000000" fill-rule="nonzero" fill-opacity="1" /><path clip-path="url(#clip590)" d="M39.0477 923.6 Q35.4367 923.6 33.608 927.165 Q31.8024 930.707 31.8024 937.836 Q31.8024 944.943 33.608 948.508 Q35.4367 952.049 39.0477 952.049 Q42.682 952.049 44.4875 948.508 Q46.3162 944.943 46.3162 937.836 Q46.3162 930.707 44.4875 927.165 Q42.682 923.6 39.0477 923.6 M39.0477 919.897 Q44.8579 919.897 47.9134 924.503 Q50.9921 929.086 50.9921 937.836 Q50.9921 946.563 47.9134 951.17 Q44.8579 955.753 39.0477 955.753 Q33.2376 955.753 30.1589 951.17 Q27.1034 946.563 27.1034 937.836 Q27.1034 929.086 30.1589 924.503 Q33.2376 919.897 39.0477 919.897 Z" fill="#000000" fill-rule="nonzero" fill-opacity="1" /><path clip-path="url(#clip590)" d="M31.0848 659.543 L38.7237 659.543 L38.7237 633.178 L30.4135 634.844 L30.4135 630.585 L38.6774 628.918 L43.3533 628.918 L43.3533 659.543 L50.9921 659.543 L50.9921 663.478 L31.0848 663.478 L31.0848 659.543 Z" fill="#000000" fill-rule="nonzero" fill-opacity="1" /><path clip-path="url(#clip590)" d="M34.6728 367.94 L50.9921 367.94 L50.9921 371.875 L29.0478 371.875 L29.0478 367.94 Q31.7098 365.185 36.2931 360.556 Q40.8996 355.903 42.0801 354.561 Q44.3255 352.037 45.2051 350.301 Q46.1079 348.542 46.1079 346.852 Q46.1079 344.098 44.1635 342.362 Q42.2422 340.625 39.1403 340.625 Q36.9413 340.625 34.4876 341.389 Q32.057 342.153 29.2793 343.704 L29.2793 338.982 Q32.1033 337.848 34.557 337.269 Q37.0107 336.69 39.0477 336.69 Q44.4181 336.69 47.6125 339.375 Q50.8069 342.061 50.8069 346.551 Q50.8069 348.681 49.9968 350.602 Q49.2097 352.5 47.1033 355.093 Q46.5246 355.764 43.4227 358.982 Q40.3209 362.176 34.6728 367.94 Z" fill="#000000" fill-rule="nonzero" fill-opacity="1" /><path clip-path="url(#clip590)" d="M43.8625 61.638 Q47.219 62.3556 49.094 64.6241 Q50.9921 66.8926 50.9921 70.2259 Q50.9921 75.3416 47.4736 78.1425 Q43.9551 80.9434 37.4737 80.9434 Q35.2978 80.9434 32.983 80.5036 Q30.6913 80.0869 28.2376 79.2305 L28.2376 74.7166 Q30.1821 75.8509 32.4969 76.4296 Q34.8117 77.0083 37.3348 77.0083 Q41.7329 77.0083 44.0246 75.2722 Q46.3394 73.5361 46.3394 70.2259 Q46.3394 67.1703 44.1866 65.4574 Q42.057 63.7213 38.2376 63.7213 L34.2098 63.7213 L34.2098 59.8787 L38.4227 59.8787 Q41.8718 59.8787 43.7005 58.513 Q45.5292 57.1241 45.5292 54.5315 Q45.5292 51.8695 43.6311 50.4575 Q41.7561 49.0223 38.2376 49.0223 Q36.3163 49.0223 34.1172 49.439 Q31.9182 49.8556 29.2793 50.7352 L29.2793 46.5686 Q31.9413 45.8279 34.2561 45.4575 Q36.5941 45.0871 38.6542 45.0871 Q43.9783 45.0871 47.0801 47.5177 Q50.1819 49.9251 50.1819 54.0454 Q50.1819 56.9158 48.5384 58.9065 Q46.8949 60.8741 43.8625 61.638 Z" fill="#000000" fill-rule="nonzero" fill-opacity="1" /><path clip-path="url(#clip590)" d="M569.347 18.8205 L569.347 41.5461 L579.637 41.5461 Q585.348 41.5461 588.468 38.5889 Q591.587 35.6318 591.587 30.163 Q591.587 24.7348 588.468 21.7777 Q585.348 18.8205 579.637 18.8205 L569.347 18.8205 M561.165 12.096 L579.637 12.096 Q589.804 12.096 594.99 16.714 Q600.215 21.2916 600.215 30.163 Q600.215 39.1155 594.99 43.6931 Q589.804 48.2706 579.637 48.2706 L569.347 48.2706 L569.347 72.576 L561.165 72.576 L561.165 12.096 Z" fill="#000000" fill-rule="nonzero" fill-opacity="1" /><path clip-path="url(#clip590)" d="M635.701 34.1734 Q634.445 33.4443 632.947 33.1202 Q631.488 32.7556 629.706 32.7556 Q623.386 32.7556 619.984 36.8875 Q616.621 40.9789 616.621 48.6757 L616.621 72.576 L609.127 72.576 L609.127 27.2059 L616.621 27.2059 L616.621 34.2544 Q618.971 30.1225 622.738 28.1376 Q626.506 26.1121 631.893 26.1121 Q632.663 26.1121 633.595 26.2337 Q634.526 26.3147 635.661 26.5172 L635.701 34.1734 Z" fill="#000000" fill-rule="nonzero" fill-opacity="1" /><path clip-path="url(#clip590)" d="M659.277 32.4315 Q653.282 32.4315 649.798 37.1306 Q646.315 41.7891 646.315 49.9314 Q646.315 58.0738 649.758 62.7728 Q653.242 67.4314 659.277 67.4314 Q665.232 67.4314 668.716 62.7323 Q672.2 58.0333 672.2 49.9314 Q672.2 41.8701 668.716 37.1711 Q665.232 32.4315 659.277 32.4315 M659.277 26.1121 Q669 26.1121 674.549 32.4315 Q680.099 38.7509 680.099 49.9314 Q680.099 61.0714 674.549 67.4314 Q669 73.7508 659.277 73.7508 Q649.515 73.7508 643.965 67.4314 Q638.456 61.0714 638.456 49.9314 Q638.456 38.7509 643.965 32.4315 Q649.515 26.1121 659.277 26.1121 Z" fill="#000000" fill-rule="nonzero" fill-opacity="1" /><path clip-path="url(#clip590)" d="M725.024 49.9314 Q725.024 41.7081 721.621 37.0496 Q718.259 32.3505 712.344 32.3505 Q706.43 32.3505 703.027 37.0496 Q699.665 41.7081 699.665 49.9314 Q699.665 58.1548 703.027 62.8538 Q706.43 67.5124 712.344 67.5124 Q718.259 67.5124 721.621 62.8538 Q725.024 58.1548 725.024 49.9314 M699.665 34.0924 Q702.014 30.0415 705.579 28.0971 Q709.185 26.1121 714.167 26.1121 Q722.431 26.1121 727.576 32.6746 Q732.761 39.2371 732.761 49.9314 Q732.761 60.6258 727.576 67.1883 Q722.431 73.7508 714.167 73.7508 Q709.185 73.7508 705.579 71.8063 Q702.014 69.8214 699.665 65.7705 L699.665 72.576 L692.171 72.576 L692.171 9.54393 L699.665 9.54393 L699.665 34.0924 Z" fill="#000000" fill-rule="nonzero" fill-opacity="1" /><path clip-path="url(#clip590)" d="M765.735 49.7694 Q756.702 49.7694 753.218 51.8354 Q749.734 53.9013 749.734 58.8839 Q749.734 62.8538 752.327 65.2034 Q754.96 67.5124 759.456 67.5124 Q765.654 67.5124 769.381 63.1374 Q773.148 58.7219 773.148 51.4303 L773.148 49.7694 L765.735 49.7694 M780.602 46.6907 L780.602 72.576 L773.148 72.576 L773.148 65.6895 Q770.596 69.8214 766.788 71.8063 Q762.981 73.7508 757.471 73.7508 Q750.504 73.7508 746.372 69.8619 Q742.28 65.9325 742.28 59.3701 Q742.28 51.7138 747.385 47.825 Q752.529 43.9361 762.697 43.9361 L773.148 43.9361 L773.148 43.2069 Q773.148 38.0623 769.746 35.2672 Q766.383 32.4315 760.266 32.4315 Q756.378 32.4315 752.691 33.3632 Q749.005 34.295 745.602 36.1584 L745.602 29.2718 Q749.694 27.692 753.542 26.9223 Q757.39 26.1121 761.036 26.1121 Q770.88 26.1121 775.741 31.2163 Q780.602 36.3204 780.602 46.6907 Z" fill="#000000" fill-rule="nonzero" fill-opacity="1" /><path clip-path="url(#clip590)" d="M828.524 49.9314 Q828.524 41.7081 825.121 37.0496 Q821.759 32.3505 815.845 32.3505 Q809.931 32.3505 806.528 37.0496 Q803.166 41.7081 803.166 49.9314 Q803.166 58.1548 806.528 62.8538 Q809.931 67.5124 815.845 67.5124 Q821.759 67.5124 825.121 62.8538 Q828.524 58.1548 828.524 49.9314 M803.166 34.0924 Q805.515 30.0415 809.08 28.0971 Q812.685 26.1121 817.668 26.1121 Q825.932 26.1121 831.076 32.6746 Q836.261 39.2371 836.261 49.9314 Q836.261 60.6258 831.076 67.1883 Q825.932 73.7508 817.668 73.7508 Q812.685 73.7508 809.08 71.8063 Q805.515 69.8214 803.166 65.7705 L803.166 72.576 L795.671 72.576 L795.671 9.54393 L803.166 9.54393 L803.166 34.0924 Z" fill="#000000" fill-rule="nonzero" fill-opacity="1" /><path clip-path="url(#clip590)" d="M848.617 27.2059 L856.07 27.2059 L856.07 72.576 L848.617 72.576 L848.617 27.2059 M848.617 9.54393 L856.07 9.54393 L856.07 18.9825 L848.617 18.9825 L848.617 9.54393 Z" fill="#000000" fill-rule="nonzero" fill-opacity="1" /><path clip-path="url(#clip590)" d="M871.666 9.54393 L879.12 9.54393 L879.12 72.576 L871.666 72.576 L871.666 9.54393 Z" fill="#000000" fill-rule="nonzero" fill-opacity="1" /><path clip-path="url(#clip590)" d="M894.716 27.2059 L902.17 27.2059 L902.17 72.576 L894.716 72.576 L894.716 27.2059 M894.716 9.54393 L902.17 9.54393 L902.17 18.9825 L894.716 18.9825 L894.716 9.54393 Z" fill="#000000" fill-rule="nonzero" fill-opacity="1" /><path clip-path="url(#clip590)" d="M925.138 14.324 L925.138 27.2059 L940.491 27.2059 L940.491 32.9987 L925.138 32.9987 L925.138 57.6282 Q925.138 63.1779 926.637 64.7578 Q928.176 66.3376 932.835 66.3376 L940.491 66.3376 L940.491 72.576 L932.835 72.576 Q924.207 72.576 920.925 69.3758 Q917.644 66.1351 917.644 57.6282 L917.644 32.9987 L912.175 32.9987 L912.175 27.2059 L917.644 27.2059 L917.644 14.324 L925.138 14.324 Z" fill="#000000" fill-rule="nonzero" fill-opacity="1" /><path clip-path="url(#clip590)" d="M969.172 76.7889 Q966.012 84.8907 963.014 87.3618 Q960.017 89.8329 954.993 89.8329 L949.039 89.8329 L949.039 83.5945 L953.414 83.5945 Q956.492 83.5945 958.194 82.1361 Q959.895 80.6778 961.961 75.2496 L963.298 71.8468 L944.947 27.2059 L952.846 27.2059 L967.025 62.6918 L981.203 27.2059 L989.102 27.2059 L969.172 76.7889 Z" fill="#000000" fill-rule="nonzero" fill-opacity="1" /><path clip-path="url(#clip590)" d="M1034.27 18.8205 L1034.27 65.8515 L1044.15 65.8515 Q1056.67 65.8515 1062.46 60.1802 Q1068.3 54.509 1068.3 42.2752 Q1068.3 30.1225 1062.46 24.4918 Q1056.67 18.8205 1044.15 18.8205 L1034.27 18.8205 M1026.09 12.096 L1042.9 12.096 Q1060.48 12.096 1068.7 19.4281 Q1076.93 26.7198 1076.93 42.2752 Q1076.93 57.9117 1068.66 65.2439 Q1060.4 72.576 1042.9 72.576 L1026.09 72.576 L1026.09 12.096 Z" fill="#000000" fill-rule="nonzero" fill-opacity="1" /><path clip-path="url(#clip590)" d="M1089.65 27.2059 L1097.1 27.2059 L1097.1 72.576 L1089.65 72.576 L1089.65 27.2059 M1089.65 9.54393 L1097.1 9.54393 L1097.1 18.9825 L1089.65 18.9825 L1089.65 9.54393 Z" fill="#000000" fill-rule="nonzero" fill-opacity="1" /><path clip-path="url(#clip590)" d="M1141.62 28.5427 L1141.62 35.5912 Q1138.46 33.9709 1135.06 33.1607 Q1131.65 32.3505 1128.01 32.3505 Q1122.46 32.3505 1119.66 34.0519 Q1116.91 35.7533 1116.91 39.156 Q1116.91 41.7486 1118.89 43.2475 Q1120.88 44.7058 1126.87 46.0426 L1129.43 46.6097 Q1137.37 48.3111 1140.69 51.4303 Q1144.05 54.509 1144.05 60.0587 Q1144.05 66.3781 1139.03 70.0644 Q1134.04 73.7508 1125.29 73.7508 Q1121.65 73.7508 1117.68 73.0216 Q1113.75 72.3329 1109.37 70.9151 L1109.37 63.2184 Q1113.51 65.3654 1117.52 66.4591 Q1121.53 67.5124 1125.46 67.5124 Q1130.72 67.5124 1133.56 65.73 Q1136.39 63.9071 1136.39 60.6258 Q1136.39 57.5877 1134.33 55.9673 Q1132.3 54.3469 1125.37 52.8481 L1122.78 52.2405 Q1115.85 50.7821 1112.78 47.7845 Q1109.7 44.7463 1109.7 39.4801 Q1109.7 33.0797 1114.23 29.5959 Q1118.77 26.1121 1127.12 26.1121 Q1131.25 26.1121 1134.89 26.7198 Q1138.54 27.3274 1141.62 28.5427 Z" fill="#000000" fill-rule="nonzero" fill-opacity="1" /><path clip-path="url(#clip590)" d="M1163.29 14.324 L1163.29 27.2059 L1178.64 27.2059 L1178.64 32.9987 L1163.29 32.9987 L1163.29 57.6282 Q1163.29 63.1779 1164.79 64.7578 Q1166.33 66.3376 1170.99 66.3376 L1178.64 66.3376 L1178.64 72.576 L1170.99 72.576 Q1162.36 72.576 1159.08 69.3758 Q1155.8 66.1351 1155.8 57.6282 L1155.8 32.9987 L1150.33 32.9987 L1150.33 27.2059 L1155.8 27.2059 L1155.8 14.324 L1163.29 14.324 Z" fill="#000000" fill-rule="nonzero" fill-opacity="1" /><path clip-path="url(#clip590)" d="M1214.74 34.1734 Q1213.48 33.4443 1211.98 33.1202 Q1210.52 32.7556 1208.74 32.7556 Q1202.42 32.7556 1199.02 36.8875 Q1195.66 40.9789 1195.66 48.6757 L1195.66 72.576 L1188.16 72.576 L1188.16 27.2059 L1195.66 27.2059 L1195.66 34.2544 Q1198.01 30.1225 1201.77 28.1376 Q1205.54 26.1121 1210.93 26.1121 Q1211.7 26.1121 1212.63 26.2337 Q1213.56 26.3147 1214.7 26.5172 L1214.74 34.1734 Z" fill="#000000" fill-rule="nonzero" fill-opacity="1" /><path clip-path="url(#clip590)" d="M1222.56 27.2059 L1230.01 27.2059 L1230.01 72.576 L1222.56 72.576 L1222.56 27.2059 M1222.56 9.54393 L1230.01 9.54393 L1230.01 18.9825 L1222.56 18.9825 L1222.56 9.54393 Z" fill="#000000" fill-rule="nonzero" fill-opacity="1" /><path clip-path="url(#clip590)" d="M1278.17 49.9314 Q1278.17 41.7081 1274.77 37.0496 Q1271.41 32.3505 1265.5 32.3505 Q1259.58 32.3505 1256.18 37.0496 Q1252.82 41.7081 1252.82 49.9314 Q1252.82 58.1548 1256.18 62.8538 Q1259.58 67.5124 1265.5 67.5124 Q1271.41 67.5124 1274.77 62.8538 Q1278.17 58.1548 1278.17 49.9314 M1252.82 34.0924 Q1255.17 30.0415 1258.73 28.0971 Q1262.34 26.1121 1267.32 26.1121 Q1275.58 26.1121 1280.73 32.6746 Q1285.91 39.2371 1285.91 49.9314 Q1285.91 60.6258 1280.73 67.1883 Q1275.58 73.7508 1267.32 73.7508 Q1262.34 73.7508 1258.73 71.8063 Q1255.17 69.8214 1252.82 65.7705 L1252.82 72.576 L1245.32 72.576 L1245.32 9.54393 L1252.82 9.54393 L1252.82 34.0924 Z" fill="#000000" fill-rule="nonzero" fill-opacity="1" /><path clip-path="url(#clip590)" d="M1297.5 54.671 L1297.5 27.2059 L1304.95 27.2059 L1304.95 54.3874 Q1304.95 60.8284 1307.46 64.0691 Q1309.97 67.2693 1315 67.2693 Q1321.03 67.2693 1324.52 63.421 Q1328.04 59.5726 1328.04 52.9291 L1328.04 27.2059 L1335.49 27.2059 L1335.49 72.576 L1328.04 72.576 L1328.04 65.6084 Q1325.33 69.7404 1321.72 71.7658 Q1318.16 73.7508 1313.42 73.7508 Q1305.6 73.7508 1301.55 68.8897 Q1297.5 64.0286 1297.5 54.671 M1316.25 26.1121 L1316.25 26.1121 Z" fill="#000000" fill-rule="nonzero" fill-opacity="1" /><path clip-path="url(#clip590)" d="M1358.22 14.324 L1358.22 27.2059 L1373.57 27.2059 L1373.57 32.9987 L1358.22 32.9987 L1358.22 57.6282 Q1358.22 63.1779 1359.72 64.7578 Q1361.26 66.3376 1365.92 66.3376 L1373.57 66.3376 L1373.57 72.576 L1365.92 72.576 Q1357.29 72.576 1354.01 69.3758 Q1350.73 66.1351 1350.73 57.6282 L1350.73 32.9987 L1345.26 32.9987 L1345.26 27.2059 L1350.73 27.2059 L1350.73 14.324 L1358.22 14.324 Z" fill="#000000" fill-rule="nonzero" fill-opacity="1" /><path clip-path="url(#clip590)" d="M1383.38 27.2059 L1390.83 27.2059 L1390.83 72.576 L1383.38 72.576 L1383.38 27.2059 M1383.38 9.54393 L1390.83 9.54393 L1390.83 18.9825 L1383.38 18.9825 L1383.38 9.54393 Z" fill="#000000" fill-rule="nonzero" fill-opacity="1" /><path clip-path="url(#clip590)" d="M1424.01 32.4315 Q1418.01 32.4315 1414.53 37.1306 Q1411.04 41.7891 1411.04 49.9314 Q1411.04 58.0738 1414.49 62.7728 Q1417.97 67.4314 1424.01 67.4314 Q1429.96 67.4314 1433.45 62.7323 Q1436.93 58.0333 1436.93 49.9314 Q1436.93 41.8701 1433.45 37.1711 Q1429.96 32.4315 1424.01 32.4315 M1424.01 26.1121 Q1433.73 26.1121 1439.28 32.4315 Q1444.83 38.7509 1444.83 49.9314 Q1444.83 61.0714 1439.28 67.4314 Q1433.73 73.7508 1424.01 73.7508 Q1414.24 73.7508 1408.69 67.4314 Q1403.19 61.0714 1403.19 49.9314 Q1403.19 38.7509 1408.69 32.4315 Q1414.24 26.1121 1424.01 26.1121 Z" fill="#000000" fill-rule="nonzero" fill-opacity="1" /><path clip-path="url(#clip590)" d="M1494.9 45.1919 L1494.9 72.576 L1487.44 72.576 L1487.44 45.4349 Q1487.44 38.994 1484.93 35.7938 Q1482.42 32.5936 1477.4 32.5936 Q1471.36 32.5936 1467.88 36.4419 Q1464.39 40.2903 1464.39 46.9338 L1464.39 72.576 L1456.9 72.576 L1456.9 27.2059 L1464.39 27.2059 L1464.39 34.2544 Q1467.07 30.163 1470.67 28.1376 Q1474.32 26.1121 1479.06 26.1121 Q1486.88 26.1121 1490.89 30.9732 Q1494.9 35.7938 1494.9 45.1919 Z" fill="#000000" fill-rule="nonzero" fill-opacity="1" /><path clip-path="url(#clip590)" d="M1554.04 9.62495 Q1548.61 18.942 1545.98 28.0566 Q1543.35 37.1711 1543.35 46.5287 Q1543.35 55.8863 1545.98 65.0818 Q1548.65 74.2369 1554.04 83.5134 L1547.56 83.5134 Q1541.48 73.9938 1538.45 64.7983 Q1535.45 55.6027 1535.45 46.5287 Q1535.45 37.4952 1538.45 28.3401 Q1541.44 19.1851 1547.56 9.62495 L1554.04 9.62495 Z" fill="#000000" fill-rule="nonzero" fill-opacity="1" /><path clip-path="url(#clip590)" d="M1601.07 49.9314 Q1601.07 41.7081 1597.67 37.0496 Q1594.31 32.3505 1588.39 32.3505 Q1582.48 32.3505 1579.08 37.0496 Q1575.71 41.7081 1575.71 49.9314 Q1575.71 58.1548 1579.08 62.8538 Q1582.48 67.5124 1588.39 67.5124 Q1594.31 67.5124 1597.67 62.8538 Q1601.07 58.1548 1601.07 49.9314 M1575.71 34.0924 Q1578.06 30.0415 1581.63 28.0971 Q1585.23 26.1121 1590.22 26.1121 Q1598.48 26.1121 1603.62 32.6746 Q1608.81 39.2371 1608.81 49.9314 Q1608.81 60.6258 1603.62 67.1883 Q1598.48 73.7508 1590.22 73.7508 Q1585.23 73.7508 1581.63 71.8063 Q1578.06 69.8214 1575.71 65.7705 L1575.71 72.576 L1568.22 72.576 L1568.22 9.54393 L1575.71 9.54393 L1575.71 34.0924 Z" fill="#000000" fill-rule="nonzero" fill-opacity="1" /><path clip-path="url(#clip590)" d="M1619.99 9.62495 L1626.47 9.62495 Q1632.55 19.1851 1635.55 28.3401 Q1638.58 37.4952 1638.58 46.5287 Q1638.58 55.6027 1635.55 64.7983 Q1632.55 73.9938 1626.47 83.5134 L1619.99 83.5134 Q1625.38 74.2369 1628.01 65.0818 Q1630.68 55.8863 1630.68 46.5287 Q1630.68 37.1711 1628.01 28.0566 Q1625.38 18.942 1619.99 9.62495 Z" fill="#000000" fill-rule="nonzero" fill-opacity="1" /><polyline clip-path="url(#clip592)" style="stroke:#000003; stroke-linecap:round; stroke-linejoin:round; stroke-width:4; stroke-opacity:1; fill:none" points="496.886,398.336 497.209,400.323 499.039,412.916 502.274,422.513 503.801,427.496 507.338,434.709 510.694,442.076 512.403,444.813 517.467,453.331 519.34,456.656 522.531,461.128 527.596,468.471 529.425,471.237 532.66,475.331 537.725,481.883 540.681,485.817 542.789,488.283 547.853,494.316 552.918,500.387 552.926,500.397 557.982,506.11 563.047,511.79 565.85,514.977 568.111,517.407 573.175,522.879 578.24,528.27 579.422,529.557 583.304,533.662 588.369,538.935 593.433,544.094 593.474,544.137 598.497,549.396 603.562,554.516 607.804,558.717 608.626,559.558 613.691,564.782 618.755,569.786 622.378,573.298 623.82,574.773 628.884,579.948 633.948,584.867 637.105,587.878 639.013,589.84 644.077,594.991 649.142,599.849 651.909,602.458 654.206,604.844 659.27,609.99 664.335,614.803 666.722,617.038 669.399,619.854 674.464,625.007 679.528,629.786 681.49,631.618 684.592,634.933 689.657,640.095 694.721,644.844 696.17,646.198 699.786,650.133 704.85,655.3 709.914,660.013 710.729,660.779 714.979,665.501 720.043,670.658 725.108,675.323 725.145,675.359 730.172,681.076 735.237,686.199 739.25,689.939 740.301,691.146 745.365,696.885 750.43,701.94 753.153,704.519 755.494,707.283 760.559,712.944 765.623,717.889 766.875,719.099 770.687,723.732 775.752,729.253 780.372,733.679 780.816,734.228 785.881,740.482 790.945,745.795 793.448,748.26 796.009,751.527 801.074,757.497 806.138,762.534 806.439,762.84 811.203,769.123 816.267,774.721 818.922,777.42 821.331,780.664 826.396,786.928 831.368,792 831.46,792.126 836.525,799.167 841.589,804.831 843.232,806.58 846.654,811.466 851.718,817.707 854.93,821.16 856.782,823.869 861.847,830.737 866.444,835.74 866.911,836.442 871.976,843.965 877.04,849.75 877.536,850.321 882.104,857.445 887.169,863.604 888.275,864.901 892.233,871.238 897.298,877.726 898.762,879.481 902.362,885.403 907.426,892.146 908.985,894.061 912.491,899.987 917.555,906.882 918.947,908.641 922.62,915.021 927.684,921.936 928.669,923.221 932.749,930.506 937.813,937.294 938.189,937.802 942.877,946.406 947.34,952.382 947.942,953.503 953.006,962.654 956.104,966.962 958.071,970.728 963.135,979.148 964.789,981.542 968.199,988.248 973.264,995.774 973.495,996.122 978.328,1005.87 981.536,1010.7 983.393,1014.5 988.457,1023.41 989.646,1025.28 993.521,1033.4 997.637,1039.86 998.586,1041.88 1003.65,1051.84 1005.24,1054.44 1008.71,1061.95 1013.04,1069.02 1013.78,1070.65 1018.84,1081.06 1020.34,1083.6 1023.91,1091.52 1027.85,1098.18 1028.97,1100.7 1034.04,1110.9 1035.11,1112.76 1039.1,1121.79 1042.33,1127.34 1044.17,1131.52 1049.23,1141 1049.76,1141.92 1054.29,1152.23 1056.79,1156.5 1059.36,1162.34 1064.42,1170.94 1064.51,1171.08 1069.49,1182.26 1071.58,1185.66 1074.55,1192.28 1079.62,1200.21 1079.64,1200.24 1084.68,1211.09 1087.26,1214.82 1089.75,1220.06 1094.81,1228 1095.91,1229.4 1099.87,1237.19 1104.94,1243.41 1105.48,1243.98 1110,1251.92 1115.07,1257.24 1116.76,1258.57 1120.13,1263.5 1125.2,1268.47 1130.26,1271.4 1135.32,1273.1 1135.58,1273.15 1140.39,1275.26 1145.45,1275.58 1150.52,1274.03 1151.83,1273.15 1155.58,1272.03 1160.65,1269.36 1165.71,1264.68 1169.8,1258.57 1170.78,1257.74 1175.84,1252.21 1180.29,1243.98 1180.9,1243.26 1185.97,1236.12 1189.19,1229.4 1191.03,1226.73 1196.1,1216.67 1196.93,1214.82 1201.16,1207.92 1204.54,1200.24 1206.23,1197.36 1211.29,1185.78 1211.34,1185.66 1216.36,1176.74 1218.78,1171.08 1221.42,1166.29 1225.6,1156.5 1226.48,1154.88 1231.55,1144.17 1232.51,1141.92 1236.61,1134.49 1239.69,1127.34 1241.68,1123.73 1246.43,1112.76 1246.74,1112.2 1251.81,1102.8 1253.83,1098.18 1256.87,1092.86 1260.98,1083.6 1261.94,1081.93 1267,1072.02 1268.35,1069.02 1272.06,1062.81 1275.9,1054.44 1277.13,1052.38 1282.19,1042.7 1283.52,1039.86 1287.26,1033.9 1291.35,1025.28 1292.32,1023.74 1297.39,1014.96 1299.46,1010.7 1302.45,1006.15 1307.41,996.122 1307.51,995.956 1312.58,988.489 1316.1,981.542 1317.64,979.299 1322.71,970.93 1324.78,966.962 1327.77,962.776 1332.84,953.667 1333.53,952.382 1337.9,946.504 1342.64,937.802 1342.97,937.356 1348.03,930.582 1352.15,923.221 1353.09,921.984 1358.16,915.08 1361.86,908.641 1363.22,906.918 1368.29,900.031 1371.82,894.061 1373.35,892.173 1378.42,885.435 1382.04,879.481 1383.48,877.747 1388.55,871.262 1392.52,864.901 1393.61,863.619 1398.67,857.462 1403.25,850.321 1403.74,849.761 1408.8,843.977 1413.87,836.456 1414.34,835.74 1418.93,830.746 1424,823.88 1425.85,821.16 1429.06,817.714 1434.13,811.473 1437.55,806.58 1439.19,804.836 1444.25,799.172 1449.32,792.132 1449.41,792 1454.38,786.932 1459.45,780.668 1461.86,777.42 1464.51,774.723 1469.58,769.126 1474.34,762.84 1474.64,762.536 1479.7,757.499 1484.77,751.529 1487.33,748.26 1489.83,745.797 1494.9,740.483 1499.96,734.229 1500.41,733.679 1505.03,729.254 1510.09,723.733 1513.9,719.099 1515.16,717.89 1520.22,712.945 1525.28,707.284 1527.63,704.519 1530.35,701.941 1535.41,696.885 1540.48,691.146 1541.53,689.939 1545.54,686.199 1550.61,681.076 1555.63,675.359 1555.67,675.324 1560.74,670.659 1565.8,665.501 1570.05,660.779 1570.86,660.013 1575.93,655.3 1580.99,650.133 1584.61,646.198 1586.06,644.844 1591.12,640.095 1596.19,634.933 1599.29,631.618 1601.25,629.786 1606.31,625.007 1611.38,619.854 1614.06,617.038 1616.44,614.803 1621.51,609.99 1626.57,604.844 1628.87,602.458 1631.64,599.849 1636.7,594.991 1641.77,589.84 1643.67,587.878 1646.83,584.867 1651.89,579.948 1656.96,574.773 1658.4,573.298 1662.02,569.786 1667.09,564.782 1672.15,559.558 1672.98,558.717 1677.22,554.516 1682.28,549.396 1687.3,544.137 1687.35,544.094 1692.41,538.935 1697.47,533.662 1701.36,529.557 1702.54,528.27 1707.6,522.879 1712.67,517.407 1714.93,514.977 1717.73,511.79 1722.8,506.11 1727.85,500.397 1727.86,500.387 1732.93,494.316 1737.99,488.283 1740.1,485.817 1743.05,481.883 1748.12,475.331 1751.35,471.237 1753.18,468.471 1758.25,461.128 1761.44,456.656 1763.31,453.331 1768.38,444.813 1770.08,442.076 1773.44,434.709 1776.98,427.496 1778.5,422.513 1781.74,412.916 1783.57,400.323 1783.89,398.336 1783.57,393.308 1782.9,383.756 1778.5,370.439 1778.04,369.175 1773.44,361.73 1768.4,354.595 1768.38,354.574 1763.31,349.346 1758.25,344.618 1753.18,340.335 1752.79,340.015 1748.12,336.665 1743.05,333.287 1737.99,330.155 1732.93,327.249 1729.57,325.435 1727.86,324.54 1722.8,321.983 1717.73,319.576 1712.67,317.309 1707.6,315.173 1702.54,313.159 1697.47,311.259 1696.36,310.855 1692.41,309.36 1687.35,307.525 1682.28,305.777 1677.22,304.113 1672.15,302.527 1667.09,301.015 1662.02,299.574 1656.96,298.199 1651.89,296.888 1649.45,296.275 1646.83,295.553 1641.77,294.197 1636.7,292.894 1631.64,291.643 1626.57,290.441 1621.51,289.286 1616.44,288.176 1611.38,287.108 1606.31,286.082 1601.25,285.095 1596.19,284.146 1591.12,283.232 1586.06,282.353 1582.13,281.694 1580.99,281.474 1575.93,280.51 1570.86,279.579 1565.8,278.679 1560.74,277.809 1555.67,276.967 1550.61,276.153 1545.54,275.366 1540.48,274.605 1535.41,273.868 1530.35,273.156 1525.28,272.466 1520.22,271.799 1515.16,271.153 1510.09,270.529 1505.03,269.924 1499.96,269.338 1494.9,268.772 1489.83,268.223 1484.77,267.692 1479.7,267.178 1479.06,267.114 1474.64,266.581 1469.58,265.988 1464.51,265.412 1459.45,264.853 1454.38,264.31 1449.32,263.783 1444.25,263.272 1439.19,262.776 1434.13,262.295 1429.06,261.828 1424,261.375 1418.93,260.935 1413.87,260.509 1408.8,260.095 1403.74,259.694 1398.67,259.305 1393.61,258.928 1388.55,258.562 1383.48,258.208 1378.42,257.865 1373.35,257.532 1368.29,257.21 1363.22,256.898 1358.16,256.596 1353.09,256.304 1348.03,256.022 1342.97,255.748 1337.9,255.484 1332.84,255.229 1327.77,254.982 1322.71,254.744 1317.64,254.515 1312.58,254.293 1307.51,254.08 1302.45,253.875 1297.39,253.677 1292.32,253.487 1287.26,253.304 1282.19,253.129 1277.13,252.961 1272.06,252.8 1267,252.645 1263.17,252.534 1261.94,252.488 1256.87,252.31 1251.81,252.139 1246.74,251.977 1241.68,251.823 1236.61,251.677 1231.55,251.539 1226.48,251.408 1221.42,251.286 1216.36,251.172 1211.29,251.065 1206.23,250.966 1201.16,250.874 1196.1,250.79 1191.03,250.713 1185.97,250.644 1180.9,250.582 1175.84,250.528 1170.78,250.481 1165.71,250.441 1160.65,250.408 1155.58,250.383 1150.52,250.365 1145.45,250.354 1140.39,250.35 1135.32,250.354 1130.26,250.365 1125.2,250.383 1120.13,250.408 1115.07,250.441 1110,250.481 1104.94,250.528 1099.87,250.582 1094.81,250.644 1089.75,250.713 1084.68,250.79 1079.62,250.874 1074.55,250.966 1069.49,251.065 1064.42,251.172 1059.36,251.286 1054.29,251.408 1049.23,251.539 1044.17,251.677 1039.1,251.823 1034.04,251.977 1028.97,252.139 1023.91,252.31 1018.84,252.488 1017.61,252.534 1013.78,252.645 1008.71,252.8 1003.65,252.961 998.586,253.129 993.521,253.304 988.457,253.487 983.393,253.677 978.328,253.875 973.264,254.08 968.199,254.293 963.135,254.515 958.071,254.744 953.006,254.982 947.942,255.229 942.877,255.484 937.813,255.748 932.749,256.022 927.684,256.304 922.62,256.596 917.555,256.898 912.491,257.21 907.426,257.532 902.362,257.865 897.298,258.208 892.233,258.562 887.169,258.928 882.104,259.305 877.04,259.694 871.976,260.095 866.911,260.509 861.847,260.935 856.782,261.375 851.718,261.828 846.654,262.295 841.589,262.776 836.525,263.272 831.46,263.783 826.396,264.31 821.331,264.853 816.267,265.412 811.203,265.988 806.138,266.581 801.718,267.114 801.074,267.178 796.009,267.692 790.945,268.223 785.881,268.772 780.816,269.338 775.752,269.924 770.687,270.529 765.623,271.153 760.559,271.799 755.494,272.466 750.43,273.156 745.365,273.868 740.301,274.605 735.237,275.366 730.172,276.153 725.108,276.967 720.043,277.809 714.979,278.679 709.914,279.579 704.85,280.51 699.786,281.474 698.648,281.694 694.721,282.353 689.657,283.232 684.592,284.146 679.528,285.095 674.464,286.082 669.399,287.108 664.335,288.176 659.27,289.286 654.206,290.441 649.142,291.643 644.077,292.894 639.013,294.197 633.948,295.553 631.333,296.275 628.884,296.888 623.82,298.199 618.755,299.574 613.691,301.015 608.626,302.527 603.562,304.113 598.497,305.777 593.433,307.525 588.369,309.36 584.417,310.855 583.304,311.259 578.24,313.159 573.175,315.173 568.111,317.309 563.047,319.576 557.982,321.983 552.918,324.54 551.209,325.435 547.853,327.249 542.789,330.155 537.725,333.287 532.66,336.665 527.991,340.015 527.596,340.335 522.531,344.618 517.467,349.346 512.403,354.574 512.382,354.595 507.338,361.73 502.739,369.175 502.274,370.439 497.874,383.756 497.209,393.308 496.886,398.336 "/>
<polyline clip-path="url(#clip592)" style="stroke:#000003; stroke-linecap:round; stroke-linejoin:round; stroke-width:4; stroke-opacity:1; fill:none" points="743.211,544.137 745.365,555.506 745.905,558.717 750.014,573.298 750.43,574.363 755.304,587.878 755.494,588.293 760.559,600.043 761.53,602.458 765.623,610.783 768.552,617.038 770.687,620.965 775.752,630.582 776.27,631.618 780.816,639.671 784.445,646.198 785.881,648.577 790.945,657.151 793.045,660.779 796.009,665.604 801.074,673.804 802.003,675.359 806.138,682.01 811.203,689.9 811.227,689.939 816.267,697.995 820.535,704.519 821.331,705.752 826.396,713.703 829.973,719.099 831.46,721.41 836.525,729.243 839.491,733.679 841.589,736.962 846.654,744.699 849.045,748.26 851.718,752.484 856.782,760.134 858.6,762.84 861.847,768.036 866.911,775.598 868.13,777.42 871.976,783.667 877.04,791.131 877.617,792 882.104,799.416 887.02,806.58 887.169,806.825 892.233,815.311 896.191,821.16 897.298,823.02 902.362,831.369 905.27,835.74 907.426,839.447 912.491,847.592 914.27,850.321 917.555,856.105 922.62,863.973 923.211,864.901 927.684,872.973 931.904,879.481 932.749,881.013 937.813,890.014 940.364,894.061 942.877,898.742 947.942,907.175 948.838,908.641 953.006,916.613 957.089,923.221 958.071,925.114 963.135,934.529 965.088,937.802 968.199,943.965 973.257,952.382 973.264,952.395 978.328,962.693 980.799,966.962 983.393,972.285 988.457,981.17 988.664,981.542 993.521,991.767 995.958,996.122 998.586,1001.7 1003.63,1010.7 1003.65,1010.74 1008.71,1021.72 1010.64,1025.28 1013.78,1032.15 1017.96,1039.86 1018.84,1041.8 1023.91,1052.36 1025.01,1054.44 1028.97,1063.32 1031.99,1069.02 1034.04,1073.62 1039.1,1083.3 1039.26,1083.6 1044.17,1094.73 1045.98,1098.18 1049.23,1105.55 1053.08,1112.76 1054.29,1115.51 1059.36,1125.84 1060.17,1127.34 1064.42,1136.91 1067.2,1141.92 1069.49,1147.02 1074.55,1156.12 1074.78,1156.5 1079.62,1166.99 1082.1,1171.08 1084.68,1176.56 1089.75,1184.89 1090.26,1185.66 1094.81,1194.73 1098.83,1200.24 1099.87,1202.24 1104.94,1210.68 1108.61,1214.82 1110,1217.18 1115.07,1224.25 1120.13,1228.72 1121.13,1229.4 1125.2,1234.15 1130.26,1238 1135.32,1240.25 1140.39,1241.31 1145.45,1241.35 1150.52,1240.33 1155.58,1238.06 1160.65,1234.07 1164.47,1229.4 1165.71,1228.48 1170.78,1223.49 1175.84,1215.38 1176.15,1214.82 1180.9,1208.81 1185.34,1200.24 1185.97,1199.35 1191.03,1191.06 1193.57,1185.66 1196.1,1181.48 1200.86,1171.08 1201.16,1170.55 1206.23,1161.07 1208.24,1156.5 1211.29,1150.8 1215.16,1141.92 1216.36,1139.62 1221.42,1128.33 1221.84,1127.34 1226.48,1118.35 1228.89,1112.76 1231.55,1107.56 1235.59,1098.18 1236.61,1096.17 1241.68,1085.05 1242.31,1083.6 1246.74,1075.03 1249.37,1069.02 1251.81,1064.31 1256.16,1054.44 1256.87,1053.06 1261.94,1042.73 1263.22,1039.86 1267,1032.79 1270.4,1025.28 1272.06,1022.17 1277.13,1011.31 1277.41,1010.7 1282.19,1002.09 1284.99,996.122 1287.26,992.037 1292.22,981.542 1292.32,981.363 1297.39,972.513 1300.08,966.962 1302.45,962.85 1307.51,952.584 1307.62,952.382 1312.58,944.092 1315.75,937.802 1317.64,934.618 1322.71,925.216 1323.74,923.221 1327.77,916.683 1331.97,908.641 1332.84,907.224 1337.9,898.796 1340.44,894.061 1342.97,890.052 1348.03,881.054 1348.9,879.481 1353.09,873.002 1357.58,864.901 1358.16,863.994 1363.22,856.127 1366.52,850.321 1368.29,847.608 1373.35,839.464 1375.52,835.74 1378.42,831.381 1383.48,823.032 1384.59,821.16 1388.55,815.32 1393.61,806.834 1393.76,806.58 1398.67,799.423 1403.16,792 1403.74,791.136 1408.8,783.672 1412.65,777.42 1413.87,775.602 1418.93,768.039 1422.18,762.84 1424,760.136 1429.06,752.486 1431.74,748.26 1434.13,744.701 1439.19,736.964 1441.29,733.679 1444.25,729.245 1449.32,721.411 1450.81,719.099 1454.38,713.704 1459.45,705.753 1460.24,704.519 1464.51,697.995 1469.55,689.939 1469.58,689.901 1474.64,682.01 1478.78,675.359 1479.7,673.805 1484.77,665.604 1487.73,660.779 1489.83,657.152 1494.9,648.578 1496.33,646.198 1499.96,639.671 1504.51,631.618 1505.03,630.582 1510.09,620.965 1512.23,617.038 1515.16,610.783 1519.25,602.458 1520.22,600.044 1525.28,588.293 1525.47,587.878 1530.35,574.363 1530.76,573.298 1534.87,558.717 1535.41,555.506 1537.57,544.137 1538.5,529.557 1537.31,514.977 1535.41,507.323 1533.52,500.397 1530.35,493.348 1526.49,485.817 1525.28,484.008 1520.22,477.012 1515.41,471.237 1515.16,470.968 1510.09,465.894 1505.03,461.356 1499.96,457.291 1499.13,456.656 1494.9,453.548 1489.83,450.112 1484.77,446.968 1479.7,444.087 1475.9,442.076 1474.64,441.389 1469.58,438.731 1464.51,436.261 1459.45,433.962 1454.38,431.822 1449.32,429.828 1444.25,427.969 1442.91,427.496 1439.19,426.054 1434.13,424.19 1429.06,422.435 1424,420.781 1418.93,419.223 1413.87,417.754 1408.8,416.369 1403.74,415.061 1398.67,413.827 1394.74,412.916 1393.61,412.614 1388.55,411.298 1383.48,410.049 1378.42,408.862 1373.35,407.733 1368.29,406.661 1363.22,405.641 1358.16,404.672 1353.09,403.75 1348.03,402.873 1342.97,402.039 1337.9,401.246 1332.84,400.492 1327.77,399.775 1322.71,399.093 1317.64,398.444 1316.76,398.336 1312.58,397.707 1307.51,396.979 1302.45,396.286 1297.39,395.625 1292.32,394.996 1287.26,394.397 1282.19,393.828 1277.13,393.286 1272.06,392.772 1267,392.285 1261.94,391.823 1256.87,391.385 1251.81,390.971 1246.74,390.58 1241.68,390.212 1236.61,389.865 1231.55,389.539 1226.48,389.235 1221.42,388.95 1216.36,388.684 1211.29,388.438 1206.23,388.211 1201.16,388.001 1196.1,387.81 1191.03,387.637 1185.97,387.481 1180.9,387.342 1175.84,387.219 1170.78,387.114 1165.71,387.025 1160.65,386.952 1155.58,386.896 1150.52,386.856 1145.45,386.832 1140.39,386.824 1135.32,386.832 1130.26,386.856 1125.2,386.896 1120.13,386.952 1115.07,387.025 1110,387.114 1104.94,387.219 1099.87,387.342 1094.81,387.481 1089.75,387.637 1084.68,387.81 1079.62,388.001 1074.55,388.211 1069.49,388.438 1064.42,388.684 1059.36,388.95 1054.29,389.235 1049.23,389.539 1044.17,389.865 1039.1,390.212 1034.04,390.58 1028.97,390.971 1023.91,391.385 1018.84,391.823 1013.78,392.285 1008.71,392.772 1003.65,393.286 998.586,393.828 993.521,394.397 988.457,394.996 983.393,395.625 978.328,396.286 973.264,396.979 968.199,397.707 964.016,398.336 963.135,398.444 958.071,399.093 953.006,399.775 947.942,400.492 942.877,401.246 937.813,402.039 932.749,402.873 927.684,403.75 922.62,404.672 917.555,405.641 912.491,406.661 907.426,407.733 902.362,408.862 897.298,410.049 892.233,411.298 887.169,412.614 886.041,412.916 882.104,413.827 877.04,415.061 871.976,416.369 866.911,417.754 861.847,419.223 856.782,420.781 851.718,422.435 846.654,424.19 841.589,426.054 837.87,427.496 836.525,427.969 831.46,429.828 826.396,431.822 821.331,433.962 816.267,436.261 811.203,438.731 806.138,441.389 804.881,442.076 801.074,444.087 796.009,446.968 790.945,450.112 785.881,453.548 781.653,456.656 780.816,457.291 775.752,461.356 770.687,465.894 765.623,470.968 765.368,471.237 760.559,477.012 755.494,484.008 754.284,485.817 750.43,493.348 747.261,500.397 745.365,507.323 743.469,514.977 742.279,529.557 743.211,544.137 "/>
<polyline clip-path="url(#clip592)" style="stroke:#000006; stroke-linecap:round; stroke-linejoin:round; stroke-width:4; stroke-opacity:1; fill:none" points="906.505,704.519 907.426,708.338 909.734,719.099 912.491,728.948 913.682,733.679 917.555,746.034 918.19,748.26 922.62,761.186 923.142,762.84 927.684,775.193 928.448,777.42 932.749,788.476 934.043,792 937.813,801.264 939.883,806.58 942.877,813.68 945.936,821.16 947.942,825.782 952.186,835.74 953.006,837.589 958.071,849.237 958.522,850.321 963.135,860.948 964.837,864.901 968.199,872.529 971.278,879.481 973.264,883.937 977.853,894.061 978.328,895.12 983.393,906.57 984.303,908.641 988.457,918.128 990.738,923.221 993.521,929.547 997.277,937.802 998.586,940.768 1003.65,951.893 1003.87,952.382 1008.71,963.643 1010.2,966.962 1013.78,975.26 1016.62,981.542 1018.84,986.683 1023.16,996.122 1023.91,997.842 1028.97,1009.31 1029.6,1010.7 1034.04,1021.14 1035.92,1025.28 1039.1,1032.74 1042.38,1039.86 1044.17,1044.02 1049.05,1054.44 1049.23,1054.87 1054.29,1066.57 1055.45,1069.02 1059.36,1078.07 1062.02,1083.6 1064.42,1089.08 1068.95,1098.18 1069.49,1099.39 1074.55,1110.32 1075.83,1112.76 1079.62,1121.03 1083.08,1127.34 1084.68,1130.75 1089.75,1140.17 1090.81,1141.92 1094.81,1149.83 1099.22,1156.5 1099.87,1157.73 1104.94,1166.33 1108.77,1171.08 1110,1173.1 1115.07,1180.09 1120.13,1184.89 1121.18,1185.66 1125.2,1190 1130.26,1193.69 1135.32,1195.89 1140.39,1196.87 1145.45,1196.72 1150.52,1195.4 1155.58,1192.74 1160.65,1188.35 1162.9,1185.66 1165.71,1183.28 1170.78,1177.44 1174.74,1171.08 1175.84,1169.72 1180.9,1162.22 1183.91,1156.5 1185.97,1153.29 1191.03,1143.55 1191.8,1141.92 1196.1,1134.21 1199.25,1127.34 1201.16,1123.7 1206.05,1112.76 1206.23,1112.4 1211.29,1101.99 1212.94,1098.18 1216.36,1091.05 1219.54,1083.6 1221.42,1079.58 1225.9,1069.02 1226.48,1067.73 1231.55,1056.25 1232.32,1054.44 1236.61,1045.06 1238.81,1039.86 1241.68,1033.52 1245.16,1025.28 1246.74,1021.73 1251.39,1010.7 1251.81,1009.76 1256.87,998.34 1257.82,996.122 1261.94,987.054 1264.3,981.542 1267,975.54 1270.68,966.962 1272.06,963.856 1276.99,952.382 1277.13,952.058 1282.19,940.933 1283.57,937.802 1287.26,929.672 1290.09,923.221 1292.32,918.224 1296.51,908.641 1297.39,906.644 1302.45,895.19 1302.96,894.061 1307.51,883.991 1309.52,879.481 1312.58,872.57 1315.96,864.901 1317.64,860.981 1322.27,850.321 1322.71,849.263 1327.77,837.612 1328.6,835.74 1332.84,825.8 1334.85,821.16 1337.9,813.694 1340.9,806.58 1342.97,801.275 1346.74,792 1348.03,788.485 1352.33,777.42 1353.09,775.201 1357.64,762.84 1358.16,761.192 1362.59,748.26 1363.22,746.039 1367.1,733.679 1368.29,728.952 1371.05,719.099 1373.35,708.341 1374.27,704.519 1376.73,689.939 1378.14,675.359 1378.37,660.779 1377.16,646.198 1374.1,631.618 1373.35,629.35 1368.77,617.038 1368.29,616.055 1363.22,606.685 1360.57,602.458 1358.16,599.092 1353.09,592.761 1348.57,587.878 1348.03,587.324 1342.97,582.423 1337.9,578.11 1332.84,574.304 1331.39,573.298 1327.77,570.691 1322.71,567.352 1317.64,564.344 1312.58,561.629 1307.51,559.176 1306.51,558.717 1302.45,556.68 1297.39,554.333 1292.32,552.182 1287.26,550.211 1282.19,548.402 1277.13,546.742 1272.06,545.218 1268.19,544.137 1267,543.753 1261.94,542.201 1256.87,540.765 1251.81,539.438 1246.74,538.212 1241.68,537.079 1236.61,536.034 1231.55,535.071 1226.48,534.185 1221.42,533.37 1216.36,532.624 1211.29,531.941 1206.23,531.319 1201.16,530.754 1196.1,530.244 1191.03,529.786 1188.2,529.557 1185.97,529.334 1180.9,528.884 1175.84,528.491 1170.78,528.154 1165.71,527.871 1160.65,527.64 1155.58,527.462 1150.52,527.335 1145.45,527.26 1140.39,527.234 1135.32,527.26 1130.26,527.335 1125.2,527.462 1120.13,527.64 1115.07,527.871 1110,528.154 1104.94,528.491 1099.87,528.884 1094.81,529.334 1092.58,529.557 1089.75,529.786 1084.68,530.244 1079.62,530.754 1074.55,531.319 1069.49,531.941 1064.42,532.624 1059.36,533.37 1054.29,534.185 1049.23,535.071 1044.17,536.034 1039.1,537.079 1034.04,538.212 1028.97,539.438 1023.91,540.765 1018.84,542.201 1013.78,543.753 1012.59,544.137 1008.71,545.218 1003.65,546.742 998.586,548.402 993.521,550.211 988.457,552.182 983.393,554.333 978.328,556.68 974.269,558.717 973.264,559.176 968.199,561.629 963.135,564.344 958.071,567.352 953.006,570.691 949.387,573.298 947.942,574.305 942.877,578.11 937.813,582.423 932.749,587.324 932.21,587.878 927.684,592.761 922.62,599.092 920.204,602.458 917.555,606.685 912.491,616.055 912.007,617.038 907.426,629.351 906.679,631.618 903.616,646.198 902.408,660.779 902.641,675.359 904.052,689.939 906.505,704.519 "/>
<polyline clip-path="url(#clip592)" style="stroke:#06041b; stroke-linecap:round; stroke-linejoin:round; stroke-width:4; stroke-opacity:1; fill:none" points="983.217,762.84 983.393,766.521 983.832,777.42 985.276,792 987.492,806.58 988.457,811.254 990.251,821.16 993.521,835.353 993.6,835.74 997.225,850.321 998.586,854.958 1001.23,864.901 1003.65,872.731 1005.56,879.481 1008.71,889.287 1010.13,894.061 1013.78,904.983 1014.92,908.641 1018.84,920.054 1019.87,923.221 1023.91,934.654 1024.96,937.802 1028.97,948.884 1030.19,952.382 1034.04,962.808 1035.52,966.962 1039.1,976.46 1040.98,981.542 1044.17,989.853 1046.55,996.122 1049.23,1002.98 1052.26,1010.7 1054.29,1015.8 1058.14,1025.28 1059.36,1028.28 1064.23,1039.86 1064.42,1040.33 1069.49,1052.49 1070.34,1054.44 1074.55,1064.35 1076.69,1069.02 1079.62,1075.67 1083.47,1083.6 1084.68,1086.25 1089.75,1096.47 1090.67,1098.18 1094.81,1106.55 1098.49,1112.76 1099.87,1115.38 1104.94,1123.88 1107.45,1127.34 1110,1131.48 1115.07,1138.17 1118.81,1141.92 1120.13,1143.58 1125.2,1148.62 1130.26,1152.02 1135.32,1154.06 1140.39,1154.91 1145.45,1154.61 1150.52,1153.13 1155.58,1150.32 1160.65,1145.94 1164,1141.92 1165.71,1140.28 1170.78,1134.12 1174.97,1127.34 1175.84,1126.14 1180.9,1118.07 1183.66,1112.76 1185.97,1108.77 1191.03,1098.38 1191.12,1098.18 1196.1,1088.33 1198.21,1083.6 1201.16,1077.35 1204.75,1069.02 1206.23,1065.72 1210.93,1054.44 1211.29,1053.6 1216.36,1041.5 1217.02,1039.86 1221.42,1029.2 1222.99,1025.28 1226.48,1016.53 1228.78,1010.7 1231.55,1003.55 1234.42,996.122 1236.61,990.306 1239.95,981.542 1241.68,976.818 1245.37,966.962 1246.74,963.09 1250.68,952.382 1251.81,949.107 1255.88,937.802 1256.87,934.83 1260.96,923.221 1261.94,920.192 1265.9,908.641 1267,905.092 1270.67,894.061 1272.06,889.372 1275.24,879.481 1277.13,872.797 1279.56,864.901 1282.19,855.008 1283.57,850.321 1287.19,835.74 1287.26,835.395 1290.53,821.16 1292.32,811.283 1293.29,806.58 1295.51,792 1296.95,777.42 1297.39,766.573 1297.56,762.84 1297.39,756.548 1297.14,748.26 1295.46,733.679 1292.32,719.921 1292.11,719.099 1287.26,705.729 1286.75,704.519 1282.19,695.648 1278.7,689.939 1277.13,687.638 1272.06,680.995 1267,675.437 1266.92,675.359 1261.94,670.393 1256.87,666.038 1251.81,662.271 1249.58,660.779 1246.74,658.774 1241.68,655.532 1236.61,652.667 1231.55,650.134 1226.48,647.892 1222.19,646.198 1221.42,645.856 1216.36,643.78 1211.29,641.928 1206.23,640.277 1201.16,638.81 1196.1,637.51 1191.03,636.363 1185.97,635.358 1180.9,634.483 1175.84,633.731 1170.78,633.093 1165.71,632.563 1160.65,632.137 1155.58,631.809 1151.42,631.618 1150.52,631.568 1145.45,631.399 1140.39,631.343 1135.32,631.399 1130.26,631.568 1129.36,631.618 1125.2,631.809 1120.13,632.137 1115.07,632.563 1110,633.093 1104.94,633.731 1099.87,634.483 1094.81,635.358 1089.75,636.363 1084.68,637.51 1079.62,638.81 1074.55,640.277 1069.49,641.928 1064.42,643.78 1059.36,645.856 1058.59,646.198 1054.29,647.892 1049.23,650.134 1044.17,652.667 1039.1,655.532 1034.04,658.775 1031.2,660.779 1028.97,662.271 1023.91,666.038 1018.84,670.393 1013.86,675.359 1013.78,675.438 1008.71,680.995 1003.65,687.639 1002.08,689.939 998.586,695.649 994.028,704.519 993.521,705.73 988.666,719.099 988.457,719.925 985.318,733.679 983.636,748.26 983.393,756.616 983.217,762.84 "/>
<polyline clip-path="url(#clip592)" style="stroke:#160b39; stroke-linecap:round; stroke-linejoin:round; stroke-width:4; stroke-opacity:1; fill:none" points="1013.37,806.58 1013.78,814.352 1014.08,821.16 1015.51,835.74 1017.64,850.321 1018.84,856.483 1020.28,864.901 1023.43,879.481 1023.91,881.31 1026.87,894.061 1028.97,901.712 1030.7,908.641 1034.04,920.165 1034.85,923.221 1039.1,937.235 1039.26,937.802 1043.84,952.382 1044.17,953.329 1048.62,966.962 1049.23,968.687 1053.61,981.542 1054.29,983.408 1058.82,996.122 1059.36,997.55 1064.26,1010.7 1064.42,1011.13 1069.49,1024.3 1069.86,1025.28 1074.55,1037.07 1075.7,1039.86 1079.62,1049.3 1081.87,1054.44 1084.68,1060.9 1088.52,1069.02 1089.75,1071.7 1094.81,1081.9 1095.73,1083.6 1099.87,1091.73 1103.8,1098.18 1104.94,1100.24 1110,1108.31 1113.5,1112.76 1115.07,1115.05 1120.13,1121.16 1125.2,1125.6 1127.99,1127.34 1130.26,1129.11 1135.32,1131.58 1140.39,1132.55 1145.45,1132.1 1150.52,1130.17 1154.58,1127.34 1155.58,1126.79 1160.65,1122.74 1165.71,1117.04 1168.68,1112.76 1170.78,1110.11 1175.84,1102.34 1178.13,1098.18 1180.9,1093.54 1185.9,1083.6 1185.97,1083.48 1191.03,1073.38 1192.99,1069.02 1196.1,1062.31 1199.46,1054.44 1201.16,1050.47 1205.49,1039.86 1206.23,1038.04 1211.22,1025.28 1211.29,1025.11 1216.36,1011.89 1216.81,1010.7 1221.42,998.158 1222.18,996.122 1226.48,983.889 1227.33,981.542 1231.55,969.064 1232.29,966.962 1236.61,953.623 1237.04,952.382 1241.58,937.802 1241.68,937.459 1245.98,923.221 1246.74,920.339 1250.12,908.641 1251.81,901.844 1253.94,894.061 1256.87,881.406 1257.37,879.481 1260.51,864.901 1261.94,856.561 1263.15,850.321 1265.28,835.74 1266.71,821.16 1267,814.482 1267.41,806.58 1267.17,792 1267,790.116 1265.8,777.42 1262.96,762.84 1261.94,759.312 1258.28,748.26 1256.87,744.993 1251.81,734.857 1251.13,733.679 1246.74,726.882 1241.68,720.381 1240.55,719.099 1236.61,714.765 1231.55,709.956 1226.48,705.875 1224.59,704.519 1221.42,702.15 1216.36,698.792 1211.29,695.88 1206.23,693.353 1201.16,691.162 1197.95,689.939 1196.1,689.153 1191.03,687.231 1185.97,685.565 1180.9,684.13 1175.84,682.907 1170.78,681.878 1165.71,681.029 1160.65,680.35 1155.58,679.83 1150.52,679.464 1145.45,679.246 1140.39,679.174 1135.32,679.246 1130.26,679.464 1125.2,679.83 1120.13,680.35 1115.07,681.03 1110,681.878 1104.94,682.907 1099.87,684.13 1094.81,685.565 1089.75,687.231 1084.68,689.153 1082.83,689.939 1079.62,691.162 1074.55,693.354 1069.49,695.88 1064.42,698.792 1059.36,702.15 1056.19,704.519 1054.29,705.876 1049.23,709.957 1044.17,714.766 1040.23,719.099 1039.1,720.382 1034.04,726.884 1029.65,733.679 1028.97,734.859 1023.91,744.996 1022.5,748.26 1018.84,759.319 1017.82,762.84 1014.98,777.42 1013.78,790.159 1013.62,792 1013.37,806.58 "/>
<polyline clip-path="url(#clip592)" style="stroke:#2b0a56; stroke-linecap:round; stroke-linejoin:round; stroke-width:4; stroke-opacity:1; fill:none" points="1031.32,850.321 1032.98,864.901 1034.04,871.292 1035.22,879.481 1037.96,894.061 1039.1,899.002 1041.1,908.641 1044.17,920.879 1044.7,923.221 1048.56,937.802 1049.23,940.016 1052.69,952.382 1054.29,957.452 1057.12,966.962 1059.36,973.72 1061.83,981.542 1064.42,989.039 1066.8,996.122 1069.49,1003.54 1072.05,1010.7 1074.55,1017.3 1077.61,1025.28 1079.62,1030.33 1083.54,1039.86 1084.68,1042.57 1089.75,1054 1089.95,1054.44 1094.81,1065.03 1096.85,1069.02 1099.87,1075.11 1104.78,1083.6 1104.94,1083.89 1110,1092.4 1114.34,1098.18 1115.07,1099.27 1120.13,1105.61 1125.2,1110.27 1129.03,1112.76 1130.26,1113.72 1135.32,1116.2 1140.39,1117.16 1145.45,1116.64 1150.52,1114.6 1153.12,1112.76 1155.58,1111.31 1160.65,1106.96 1165.71,1100.94 1167.59,1098.18 1170.78,1093.95 1175.84,1085.65 1176.94,1083.6 1180.9,1076.65 1184.64,1069.02 1185.97,1066.39 1191.03,1055.32 1191.41,1054.44 1196.1,1043.74 1197.7,1039.86 1201.16,1031.3 1203.52,1025.28 1206.23,1018.11 1209,1010.7 1211.29,1004.2 1214.18,996.122 1216.36,989.573 1219.11,981.542 1221.42,974.148 1223.78,966.962 1226.48,957.789 1228.18,952.382 1231.55,940.275 1232.29,937.802 1236.13,923.221 1236.61,921.089 1239.72,908.641 1241.68,899.154 1242.85,894.061 1245.59,879.481 1246.74,871.418 1247.81,864.901 1249.47,850.321 1250.39,835.74 1250.47,821.16 1249.51,806.58 1247.21,792 1246.74,790.073 1243.28,777.42 1241.68,773.167 1237.11,762.84 1236.61,761.898 1231.55,753.383 1227.84,748.26 1226.48,746.509 1221.42,740.705 1216.36,735.878 1213.69,733.679 1211.29,731.665 1206.23,727.907 1201.16,724.702 1196.1,721.968 1191.03,719.639 1189.7,719.099 1185.97,717.444 1180.9,715.505 1175.84,713.866 1170.78,712.497 1165.71,711.375 1160.65,710.482 1155.58,709.801 1150.52,709.323 1145.45,709.039 1140.39,708.945 1135.32,709.039 1130.26,709.323 1125.2,709.801 1120.13,710.482 1115.07,711.375 1110,712.497 1104.94,713.866 1099.87,715.505 1094.81,717.444 1091.08,719.099 1089.75,719.639 1084.68,721.969 1079.62,724.703 1074.55,727.908 1069.49,731.666 1067.09,733.679 1064.42,735.879 1059.36,740.707 1054.29,746.511 1052.94,748.26 1049.23,753.386 1044.17,761.902 1043.67,762.84 1039.1,773.174 1037.5,777.42 1034.04,790.089 1033.57,792 1031.28,806.58 1030.32,821.16 1030.4,835.74 1031.32,850.321 "/>
<polyline clip-path="url(#clip592)" style="stroke:#410967; stroke-linecap:round; stroke-linejoin:round; stroke-width:4; stroke-opacity:1; fill:none" points="1042.98,864.901 1044.17,875.858 1044.51,879.481 1046.57,894.061 1049.23,908.382 1049.27,908.641 1052.29,923.221 1054.29,931.258 1055.78,937.802 1059.36,951.096 1059.68,952.382 1063.84,966.962 1064.42,968.78 1068.31,981.542 1069.49,985.023 1073.12,996.122 1074.55,1000.13 1078.29,1010.7 1079.62,1014.22 1083.85,1025.28 1084.68,1027.36 1089.75,1039.54 1089.88,1039.86 1094.81,1051.06 1096.43,1054.44 1099.87,1061.61 1103.91,1069.02 1104.94,1070.96 1110,1079.53 1112.9,1083.6 1115.07,1086.88 1120.13,1093.16 1125.2,1097.84 1125.7,1098.18 1130.26,1101.75 1135.32,1104.14 1140.39,1105.05 1145.45,1104.51 1150.52,1102.48 1155.58,1098.85 1156.25,1098.18 1160.65,1094.3 1165.71,1088.26 1168.81,1083.6 1170.78,1080.85 1175.84,1072.4 1177.61,1069.02 1180.9,1062.91 1184.91,1054.44 1185.97,1052.21 1191.03,1040.63 1191.36,1039.86 1196.1,1028.31 1197.29,1025.28 1201.16,1015.02 1202.77,1010.7 1206.23,1000.78 1207.87,996.122 1211.29,985.556 1212.63,981.542 1216.36,969.203 1217.07,966.962 1221.19,952.382 1221.42,951.44 1225.06,937.802 1226.48,931.52 1228.54,923.221 1231.54,908.641 1231.55,908.612 1234.24,894.061 1236.29,879.481 1236.61,876.073 1237.82,864.901 1238.6,850.321 1238.48,835.74 1237.27,821.16 1236.61,817.121 1234.73,806.58 1231.55,795.486 1230.4,792 1226.48,782.877 1223.68,777.42 1221.42,773.625 1216.36,766.362 1213.42,762.84 1211.29,760.396 1206.23,755.333 1201.16,751.121 1197.09,748.26 1196.1,747.541 1191.03,744.277 1185.97,741.519 1180.9,739.2 1175.84,737.263 1170.78,735.662 1165.71,734.363 1162.37,733.679 1160.65,733.282 1155.58,732.381 1150.52,731.749 1145.45,731.374 1140.39,731.25 1135.32,731.374 1130.26,731.749 1125.2,732.381 1120.13,733.282 1118.41,733.679 1115.07,734.363 1110,735.663 1104.94,737.263 1099.87,739.2 1094.81,741.52 1089.75,744.277 1084.68,747.542 1083.69,748.26 1079.62,751.122 1074.55,755.335 1069.49,760.398 1067.36,762.84 1064.42,766.365 1059.36,773.629 1057.1,777.42 1054.29,782.884 1050.38,792 1049.23,795.499 1046.06,806.58 1044.17,817.161 1043.52,821.16 1042.31,835.74 1042.2,850.321 1042.98,864.901 "/>
<polyline clip-path="url(#clip592)" style="stroke:#550f6d; stroke-linecap:round; stroke-linejoin:round; stroke-width:4; stroke-opacity:1; fill:none" points="1052.32,879.481 1053.9,894.061 1054.29,896.489 1056.03,908.641 1058.75,923.221 1059.36,925.873 1061.86,937.802 1064.42,947.949 1065.46,952.382 1069.46,966.962 1069.49,967.035 1073.76,981.542 1074.55,983.945 1078.46,996.122 1079.62,999.403 1083.58,1010.7 1084.68,1013.61 1089.18,1025.28 1089.75,1026.66 1094.81,1038.66 1095.34,1039.86 1099.87,1049.74 1102.27,1054.44 1104.94,1059.68 1110,1068.29 1110.49,1069.02 1115.07,1076.13 1120.13,1082.34 1121.43,1083.6 1125.2,1087.59 1130.26,1091.4 1135.32,1093.7 1140.39,1094.57 1145.45,1094.01 1150.52,1092.01 1155.58,1088.48 1160.35,1083.6 1160.65,1083.32 1165.71,1077.29 1170.78,1069.48 1171.04,1069.02 1175.84,1060.89 1179.09,1054.44 1180.9,1050.85 1185.88,1039.86 1185.97,1039.66 1191.03,1027.61 1191.96,1025.28 1196.1,1014.41 1197.48,1010.7 1201.16,1000.07 1202.54,996.122 1206.23,984.485 1207.19,981.542 1211.29,967.463 1211.44,966.962 1215.41,952.382 1216.36,948.304 1218.99,937.802 1221.42,926.132 1222.09,923.221 1224.79,908.641 1226.48,896.699 1226.91,894.061 1228.48,879.481 1229.3,864.901 1229.25,850.321 1228.13,835.74 1226.48,825.732 1225.65,821.16 1221.42,806.585 1221.42,806.58 1216.36,794.992 1214.77,792 1211.29,786.289 1206.23,779.442 1204.47,777.42 1201.16,773.784 1196.1,769.06 1191.03,765.16 1187.45,762.84 1185.97,761.848 1180.9,758.901 1175.84,756.455 1170.78,754.445 1165.71,752.82 1160.65,751.541 1155.58,750.575 1150.52,749.901 1145.45,749.503 1140.39,749.371 1135.32,749.503 1130.26,749.901 1125.2,750.575 1120.13,751.541 1115.07,752.821 1110,754.446 1104.94,756.456 1099.87,758.902 1094.81,761.849 1093.33,762.84 1089.75,765.162 1084.68,769.062 1079.62,773.787 1076.31,777.42 1074.55,779.445 1069.49,786.295 1066.01,792 1064.42,795 1059.37,806.58 1059.36,806.6 1055.14,821.16 1054.29,825.777 1052.66,835.74 1051.54,850.321 1051.49,864.901 1052.32,879.481 "/>
<polyline clip-path="url(#clip592)" style="stroke:#6a176e; stroke-linecap:round; stroke-linejoin:round; stroke-width:4; stroke-opacity:1; fill:none" points="1059.34,879.481 1059.36,879.762 1060.33,894.061 1062.03,908.641 1064.42,923.221 1064.42,923.255 1067.21,937.802 1069.49,947.44 1070.56,952.382 1074.37,966.962 1074.55,967.563 1078.54,981.542 1079.62,984.873 1083.17,996.122 1084.68,1000.43 1088.29,1010.7 1089.75,1014.53 1093.97,1025.28 1094.81,1027.29 1099.87,1038.81 1100.37,1039.86 1104.94,1049.26 1107.8,1054.44 1110,1058.42 1115.07,1066.27 1117.21,1069.02 1120.13,1072.93 1125.2,1078.21 1130.26,1081.93 1133.98,1083.6 1135.32,1084.28 1140.39,1085.24 1145.45,1084.58 1147.65,1083.6 1150.52,1082.46 1155.58,1078.97 1160.65,1073.89 1164.33,1069.02 1165.71,1067.27 1170.78,1059.51 1173.57,1054.44 1175.84,1050.3 1180.86,1039.86 1180.9,1039.77 1185.97,1028.21 1187.17,1025.28 1191.03,1015.33 1192.77,1010.7 1196.1,1001.11 1197.83,996.122 1201.16,985.432 1202.41,981.542 1206.23,968.009 1206.54,966.962 1210.31,952.382 1211.29,947.82 1213.64,937.802 1216.36,923.524 1216.42,923.221 1218.79,908.641 1220.48,894.061 1221.42,880.07 1221.47,879.481 1221.64,864.901 1221.42,860.84 1220.8,850.321 1218.66,835.74 1216.36,826.494 1214.82,821.16 1211.29,812.15 1208.67,806.58 1206.23,802.234 1201.16,794.697 1198.99,792 1196.1,788.633 1191.03,783.649 1185.97,779.582 1182.74,777.42 1180.9,776.165 1175.84,773.208 1170.78,770.794 1165.71,768.855 1160.65,767.335 1155.58,766.192 1150.52,765.396 1145.45,764.927 1140.39,764.772 1135.32,764.927 1130.26,765.397 1125.2,766.192 1120.13,767.335 1115.07,768.856 1110,770.796 1104.94,773.209 1099.87,776.166 1098.04,777.42 1094.81,779.584 1089.75,783.652 1084.68,788.637 1081.79,792 1079.62,794.702 1074.55,802.242 1072.12,806.58 1069.49,812.164 1065.96,821.16 1064.42,826.524 1062.13,835.74 1059.99,850.321 1059.36,861.13 1059.15,864.901 1059.34,879.481 "/>
<polyline clip-path="url(#clip592)" style="stroke:#7e1e6c; stroke-linecap:round; stroke-linejoin:round; stroke-width:4; stroke-opacity:1; fill:none" points="1066.21,894.061 1067.5,908.641 1069.49,922.86 1069.53,923.221 1072.06,937.802 1074.55,949.148 1075.21,952.382 1078.81,966.962 1079.62,969.743 1082.89,981.542 1084.68,987.175 1087.48,996.122 1089.75,1002.58 1092.63,1010.7 1094.81,1016.32 1098.45,1025.28 1099.87,1028.58 1104.94,1039.41 1105.17,1039.86 1110,1049.05 1113.34,1054.44 1115.07,1057.23 1120.13,1064.1 1124.86,1069.02 1125.2,1069.39 1130.26,1073.49 1135.32,1075.97 1140.39,1076.88 1145.45,1076.23 1150.52,1074 1155.58,1070.12 1156.62,1069.02 1160.65,1064.93 1165.71,1058.19 1168.03,1054.44 1170.78,1050 1175.84,1040.35 1176.08,1039.86 1180.9,1029.47 1182.69,1025.28 1185.97,1017.11 1188.43,1010.7 1191.03,1003.27 1193.51,996.122 1196.1,987.762 1198.06,981.542 1201.16,970.218 1202.09,966.962 1205.66,952.382 1206.23,949.574 1208.79,937.802 1211.29,923.261 1211.3,923.221 1213.31,908.641 1214.6,894.061 1215.09,879.481 1214.61,864.901 1212.91,850.321 1211.29,842.578 1209.65,835.74 1206.23,825.917 1204.24,821.16 1201.16,815.175 1196.1,807.2 1195.64,806.58 1191.03,800.916 1185.97,795.866 1181.17,792 1180.9,791.79 1175.84,788.289 1170.78,785.456 1165.71,783.195 1160.65,781.433 1155.58,780.114 1150.52,779.2 1145.45,778.661 1140.39,778.484 1135.32,778.662 1130.26,779.2 1125.2,780.115 1120.13,781.434 1115.07,783.196 1110,785.458 1104.94,788.291 1099.87,791.793 1099.62,792 1094.81,795.869 1089.75,800.921 1085.15,806.58 1084.68,807.208 1079.62,815.186 1076.54,821.16 1074.55,825.938 1071.14,835.74 1069.49,842.628 1067.88,850.321 1066.19,864.901 1065.72,879.481 1066.21,894.061 "/>
<polyline clip-path="url(#clip592)" style="stroke:#932567; stroke-linecap:round; stroke-linejoin:round; stroke-width:4; stroke-opacity:1; fill:none" points="1071.71,894.061 1072.6,908.641 1074.28,923.221 1074.55,924.823 1076.57,937.802 1079.52,952.382 1079.62,952.779 1082.95,966.962 1084.68,973.147 1086.96,981.542 1089.75,990.399 1091.54,996.122 1094.81,1005.36 1096.75,1010.7 1099.87,1018.5 1102.76,1025.28 1104.94,1030.05 1109.92,1039.86 1110,1040.02 1115.07,1048.65 1119.24,1054.44 1120.13,1055.69 1125.2,1061.37 1130.26,1065.41 1135.32,1067.86 1140.39,1068.75 1145.45,1068.09 1150.52,1065.86 1155.58,1062.01 1160.65,1056.48 1162.12,1054.44 1165.71,1049.49 1170.78,1040.91 1171.32,1039.86 1175.84,1030.9 1178.38,1025.28 1180.9,1019.29 1184.31,1010.7 1185.97,1006.07 1189.46,996.122 1191.03,991.021 1193.99,981.542 1196.1,973.665 1197.96,966.962 1201.16,953.181 1201.36,952.382 1204.28,937.802 1206.23,925.168 1206.56,923.221 1208.22,908.641 1209.1,894.061 1209.06,879.481 1207.9,864.901 1206.23,855.102 1205.3,850.321 1201.16,836.803 1200.77,835.74 1196.1,825.783 1193.4,821.16 1191.03,817.639 1185.97,811.358 1181.11,806.58 1180.9,806.384 1175.84,802.266 1170.78,798.968 1165.71,796.358 1160.65,794.338 1155.58,792.836 1151.52,792 1150.52,791.779 1145.45,791.111 1140.39,790.891 1135.32,791.111 1130.26,791.779 1129.26,792 1125.2,792.837 1120.13,794.339 1115.07,796.36 1110,798.97 1104.94,802.27 1099.87,806.389 1099.67,806.58 1094.81,811.365 1089.75,817.649 1087.39,821.16 1084.68,825.798 1080.01,835.74 1079.62,836.831 1075.49,850.321 1074.55,855.18 1072.9,864.901 1071.74,879.481 1071.71,894.061 "/>
<polyline clip-path="url(#clip592)" style="stroke:#a62c5f; stroke-linecap:round; stroke-linejoin:round; stroke-width:4; stroke-opacity:1; fill:none" points="1076.97,894.061 1077.43,908.641 1078.77,923.221 1079.62,928.928 1080.83,937.802 1083.55,952.382 1084.68,957.177 1086.88,966.962 1089.75,977.463 1090.83,981.542 1094.81,994.192 1095.42,996.122 1099.87,1008.41 1100.74,1010.7 1104.94,1020.7 1107.04,1025.28 1110,1031.32 1114.83,1039.86 1115.07,1040.26 1120.13,1047.7 1125.2,1053.45 1126.39,1054.44 1130.26,1057.72 1135.32,1060.34 1140.39,1061.28 1145.45,1060.56 1150.52,1058.15 1155.06,1054.44 1155.58,1054.02 1160.65,1048.4 1165.71,1041.04 1166.4,1039.86 1170.78,1032.1 1174.11,1025.28 1175.84,1021.47 1180.32,1010.7 1180.9,1009.14 1185.57,996.122 1185.97,994.853 1190.11,981.542 1191.03,978.037 1194.03,966.962 1196.1,957.639 1197.33,952.382 1200.02,937.802 1201.16,929.361 1202.07,923.221 1203.39,908.641 1203.84,894.061 1203.26,879.481 1201.37,864.901 1201.16,863.956 1197.75,850.321 1196.1,845.745 1191.69,835.74 1191.03,834.534 1185.97,826.586 1181.55,821.16 1180.9,820.434 1175.84,815.568 1170.78,811.719 1165.71,808.706 1161.07,806.58 1160.65,806.383 1155.58,804.556 1150.52,803.292 1145.45,802.55 1140.39,802.305 1135.32,802.55 1130.26,803.293 1125.2,804.557 1120.13,806.385 1119.72,806.58 1115.07,808.709 1110,811.723 1104.94,815.574 1099.87,820.441 1099.24,821.16 1094.81,826.597 1089.75,834.551 1089.1,835.74 1084.68,845.776 1083.04,850.321 1079.62,864.035 1079.43,864.901 1077.55,879.481 1076.97,894.061 "/>
<polyline clip-path="url(#clip592)" style="stroke:#ba3655; stroke-linecap:round; stroke-linejoin:round; stroke-width:4; stroke-opacity:1; fill:none" points="1082.07,894.061 1082.09,908.641 1083.09,923.221 1084.68,935.799 1084.91,937.802 1087.44,952.382 1089.75,962.676 1090.67,966.962 1094.57,981.542 1094.81,982.312 1099.18,996.122 1099.87,998.038 1104.66,1010.7 1104.94,1011.36 1110,1022.57 1111.37,1025.28 1115.07,1032.05 1120.13,1039.78 1120.2,1039.86 1125.2,1045.87 1130.26,1050.22 1135.32,1052.88 1140.39,1053.83 1145.45,1053.08 1150.52,1050.61 1155.58,1046.41 1160.65,1040.43 1161.04,1039.86 1165.71,1032.75 1169.78,1025.28 1170.78,1023.3 1175.84,1012.04 1176.4,1010.7 1180.9,998.666 1181.82,996.122 1185.97,982.861 1186.38,981.542 1190.24,966.962 1191.03,963.215 1193.44,952.382 1195.93,937.802 1196.1,936.391 1197.75,923.221 1198.73,908.641 1198.74,894.061 1197.57,879.481 1196.1,871.018 1194.87,864.901 1191.03,852.873 1190.04,850.321 1185.97,842.151 1181.9,835.74 1180.9,834.377 1175.84,828.541 1170.78,823.998 1166.73,821.16 1165.71,820.466 1160.65,817.692 1155.58,815.64 1150.52,814.228 1145.45,813.402 1140.39,813.13 1135.32,813.403 1130.26,814.23 1125.2,815.643 1120.13,817.696 1115.07,820.47 1114.06,821.16 1110,824.004 1104.94,828.55 1099.87,834.389 1098.89,835.74 1094.81,842.171 1090.75,850.321 1089.75,852.91 1085.93,864.901 1084.68,871.125 1083.23,879.481 1082.07,894.061 "/>
<polyline clip-path="url(#clip592)" style="stroke:#cc4148; stroke-linecap:round; stroke-linejoin:round; stroke-width:4; stroke-opacity:1; fill:none" points="1087.11,894.061 1086.66,908.641 1087.3,923.221 1088.87,937.802 1089.75,943.029 1091.23,952.382 1094.35,966.962 1094.81,968.682 1098.21,981.542 1099.87,986.772 1102.91,996.122 1104.94,1001.5 1108.64,1010.7 1110,1013.73 1115.07,1023.79 1115.93,1025.28 1120.13,1031.94 1125.2,1038.29 1126.9,1039.86 1130.26,1042.87 1135.32,1045.65 1140.39,1046.63 1145.45,1045.83 1150.52,1043.22 1154.39,1039.86 1155.58,1038.79 1160.65,1032.53 1165.23,1025.28 1165.71,1024.46 1170.78,1014.38 1172.42,1010.7 1175.84,1002.13 1178.08,996.122 1180.9,987.355 1182.73,981.542 1185.97,969.181 1186.56,966.962 1189.64,952.382 1191.03,943.529 1191.99,937.802 1193.53,923.221 1194.16,908.641 1193.7,894.061 1191.89,879.481 1191.03,875.604 1188.23,864.901 1185.97,858.978 1181.86,850.321 1180.9,848.697 1175.84,841.51 1170.78,836.029 1170.45,835.74 1165.71,831.856 1160.65,828.685 1155.58,826.358 1150.52,824.768 1145.45,823.841 1140.39,823.536 1135.32,823.842 1130.26,824.77 1125.2,826.362 1120.13,828.69 1115.07,831.863 1110.34,835.74 1110,836.038 1104.94,841.523 1099.87,848.718 1098.94,850.321 1094.81,859.016 1092.57,864.901 1089.75,875.698 1088.91,879.481 1087.11,894.061 "/>
<polyline clip-path="url(#clip592)" style="stroke:#dc5039; stroke-linecap:round; stroke-linejoin:round; stroke-width:4; stroke-opacity:1; fill:none" points="1092.16,894.061 1091.2,908.641 1091.48,923.221 1092.77,937.802 1094.81,951.309 1094.96,952.382 1097.99,966.962 1099.87,974.088 1101.86,981.542 1104.94,990.997 1106.69,996.122 1110,1004.41 1112.78,1010.7 1115.07,1015.31 1120.13,1024.04 1121.02,1025.28 1125.2,1030.7 1130.26,1035.47 1135.32,1038.39 1140.39,1039.43 1145.45,1038.57 1150.52,1035.8 1155.58,1031.16 1160.16,1025.28 1160.65,1024.6 1165.71,1015.9 1168.29,1010.7 1170.78,1005.02 1174.31,996.122 1175.84,991.604 1179.08,981.542 1180.9,974.645 1182.92,966.962 1185.91,952.382 1185.97,951.971 1188.08,937.802 1189.36,923.221 1189.62,908.641 1188.65,894.061 1186.1,879.481 1185.97,878.991 1181.27,864.901 1180.9,864.104 1175.84,854.869 1172.58,850.321 1170.78,848.128 1165.71,843.2 1160.65,839.504 1155.58,836.822 1152.61,835.74 1150.52,834.988 1145.45,833.909 1140.39,833.554 1135.32,833.91 1130.26,834.991 1128.18,835.74 1125.2,836.826 1120.13,839.511 1115.07,843.209 1110,848.142 1108.21,850.321 1104.94,854.891 1099.87,864.14 1099.53,864.901 1094.81,879.073 1094.7,879.481 1092.16,894.061 "/>
<polyline clip-path="url(#clip592)" style="stroke:#e8612b; stroke-linecap:round; stroke-linejoin:round; stroke-width:4; stroke-opacity:1; fill:none" points="1097.33,894.061 1095.77,908.641 1095.65,923.221 1096.68,937.802 1098.69,952.382 1099.87,958.196 1101.64,966.962 1104.94,979.365 1105.53,981.542 1110,994.643 1110.55,996.122 1115.07,1006.44 1117.21,1010.7 1120.13,1015.82 1125.2,1022.98 1127.39,1025.28 1130.26,1028.05 1135.32,1031.06 1140.39,1032.13 1145.45,1031.22 1150.52,1028.35 1153.77,1025.28 1155.58,1023.42 1160.65,1016.32 1163.86,1010.7 1165.71,1007.01 1170.46,996.122 1170.78,995.253 1175.42,981.542 1175.84,979.975 1179.26,966.962 1180.9,958.738 1182.19,952.382 1184.18,937.802 1185.19,923.221 1185.05,908.641 1183.48,894.061 1180.9,882.692 1180.01,879.481 1175.84,869.281 1173.53,864.901 1170.78,860.699 1165.71,854.681 1160.73,850.321 1160.65,850.251 1155.58,847.139 1150.52,845.026 1145.45,843.801 1140.39,843.399 1135.32,843.802 1130.26,845.03 1125.2,847.146 1120.13,850.26 1120.06,850.321 1115.07,854.696 1110,860.721 1107.27,864.901 1104.94,869.322 1100.79,879.481 1099.87,882.789 1097.33,894.061 "/>
<polyline clip-path="url(#clip592)" style="stroke:#f2751a; stroke-linecap:round; stroke-linejoin:round; stroke-width:4; stroke-opacity:1; fill:none" points="1102.74,894.061 1100.46,908.641 1099.88,923.221 1100.62,937.802 1102.47,952.382 1104.94,964.931 1105.34,966.962 1109.32,981.542 1110,983.542 1114.64,996.122 1115.07,997.105 1120.13,1007.23 1122.25,1010.7 1125.2,1014.94 1130.26,1020.31 1135.32,1023.62 1140.39,1024.79 1145.45,1023.78 1150.52,1020.6 1155.58,1015.33 1158.82,1010.7 1160.65,1007.72 1165.71,997.594 1166.35,996.122 1170.78,984.043 1171.62,981.542 1175.57,966.962 1175.84,965.574 1178.4,952.382 1180.23,937.802 1180.9,924.222 1180.96,923.221 1180.9,921.784 1180.36,908.641 1178.07,894.061 1175.84,886.275 1173.38,879.481 1170.78,874.273 1165.71,866.551 1164.28,864.901 1160.65,861.28 1155.58,857.596 1150.52,855.12 1145.45,853.693 1140.39,853.228 1135.32,853.696 1130.26,855.125 1125.2,857.605 1120.13,861.294 1116.52,864.901 1115.07,866.574 1110,874.312 1107.42,879.481 1104.94,886.36 1102.74,894.061 "/>
<polyline clip-path="url(#clip592)" style="stroke:#f98c09; stroke-linecap:round; stroke-linejoin:round; stroke-width:4; stroke-opacity:1; fill:none" points="1108.58,894.061 1105.39,908.641 1104.94,913.987 1104.28,923.221 1104.67,937.802 1104.94,940.095 1106.36,952.382 1109.2,966.962 1110,969.928 1113.35,981.542 1115.07,986.204 1119.18,996.122 1120.13,998.032 1125.2,1006.38 1128.7,1010.7 1130.26,1012.37 1135.32,1015.74 1140.39,1016.93 1145.45,1015.88 1150.52,1012.63 1152.35,1010.7 1155.58,1006.77 1160.65,998.456 1161.81,996.122 1165.71,986.683 1167.59,981.542 1170.78,970.418 1171.71,966.962 1174.51,952.382 1175.84,940.757 1176.18,937.802 1176.55,923.221 1175.84,913.401 1175.43,908.641 1172.23,894.061 1170.78,890.022 1165.81,879.481 1165.71,879.328 1160.65,872.871 1155.58,868.327 1150.52,865.314 1149.32,864.901 1145.45,863.663 1140.39,863.131 1135.32,863.666 1131.48,864.901 1130.26,865.322 1125.2,868.341 1120.13,872.893 1115.07,879.363 1114.99,879.481 1110,890.096 1108.58,894.061 "/>
<polyline clip-path="url(#clip592)" style="stroke:#fba40a; stroke-linecap:round; stroke-linejoin:round; stroke-width:4; stroke-opacity:1; fill:none" points="1110.76,908.641 1110,913.974 1108.96,923.221 1108.96,937.802 1110,948.235 1110.42,952.382 1113.31,966.962 1115.07,973.074 1117.75,981.542 1120.13,987.295 1124.5,996.122 1125.2,997.269 1130.26,1003.54 1135.32,1007.44 1140.39,1008.81 1145.45,1007.58 1150.52,1003.79 1155.58,997.598 1156.48,996.122 1160.65,987.718 1163.2,981.542 1165.71,973.563 1167.59,966.962 1170.45,952.382 1170.78,949.172 1171.89,937.802 1171.88,923.221 1170.78,913.61 1170.07,908.641 1165.71,894.275 1165.62,894.061 1160.65,885.509 1155.58,879.548 1155.5,879.481 1150.52,876.089 1145.45,874.117 1140.39,873.477 1135.32,874.123 1130.26,876.101 1125.31,879.481 1125.2,879.57 1120.13,885.548 1115.19,894.061 1115.07,894.36 1110.76,908.641 "/>
<polyline clip-path="url(#clip592)" style="stroke:#fabb21; stroke-linecap:round; stroke-linejoin:round; stroke-width:4; stroke-opacity:1; fill:none" points="1116.91,908.641 1115.07,917.212 1114.08,923.221 1113.61,937.802 1114.83,952.382 1115.07,953.596 1117.84,966.962 1120.13,974.216 1122.83,981.542 1125.2,986.297 1130.26,994.046 1132.41,996.122 1135.32,998.374 1140.39,999.74 1145.45,998.493 1148.6,996.122 1150.52,994.315 1155.58,986.629 1158.11,981.542 1160.65,974.66 1163.06,966.962 1165.71,954.094 1166.04,952.382 1167.24,937.802 1166.75,923.221 1165.71,916.943 1163.91,908.641 1160.65,900.468 1156.99,894.061 1155.58,892.246 1150.52,887.769 1145.45,885.243 1140.39,884.429 1135.32,885.252 1130.26,887.789 1125.2,892.28 1123.82,894.061 1120.13,900.545 1116.91,908.641 "/>
<polyline clip-path="url(#clip592)" style="stroke:#f6d542; stroke-linecap:round; stroke-linejoin:round; stroke-width:4; stroke-opacity:1; fill:none" points="1124.65,908.641 1120.13,922.634 1120,923.221 1118.87,937.802 1119.86,952.382 1120.13,953.76 1123.15,966.962 1125.2,972.485 1129.5,981.542 1130.26,982.704 1135.32,987.535 1140.39,989.23 1145.45,987.658 1150.52,982.919 1151.43,981.542 1155.58,972.835 1157.75,966.962 1160.65,954.228 1161.01,952.382 1161.98,937.802 1160.83,923.221 1160.65,922.42 1156.17,908.641 1155.58,907.553 1150.52,901.156 1145.45,897.621 1140.39,896.493 1135.32,897.636 1130.26,901.192 1125.2,907.619 1124.65,908.641 "/>
<polyline clip-path="url(#clip592)" style="stroke:#f1ed70; stroke-linecap:round; stroke-linejoin:round; stroke-width:4; stroke-opacity:1; fill:none" points="1128.25,923.221 1125.35,937.802 1126.24,952.382 1130.24,966.962 1130.26,967.008 1135.32,973.676 1140.39,976.045 1145.45,973.809 1150.52,967.226 1150.65,966.962 1154.65,952.382 1155.52,937.802 1152.58,923.221 1150.52,918.981 1145.45,913.15 1140.39,911.328 1135.32,913.184 1130.26,919.064 1128.25,923.221 "/>
<defs>
  <clipPath id="clip593">
    <rect x="2160" y="62" width="73" height="1459"/>
  </clipPath>
</defs>
<polyline clip-path="url(#clip593)" style="stroke:#000003; stroke-linecap:round; stroke-linejoin:round; stroke-width:4; stroke-opacity:1; fill:none" points="2160.76,1520.86 2232.76,1520.86 "/>
<polyline clip-path="url(#clip593)" style="stroke:#000003; stroke-linecap:round; stroke-linejoin:round; stroke-width:4; stroke-opacity:1; fill:none" points="2160.76,1519.55 2232.76,1519.55 "/>
<polyline clip-path="url(#clip593)" style="stroke:#010007; stroke-linecap:round; stroke-linejoin:round; stroke-width:4; stroke-opacity:1; fill:none" points="2160.76,1506.43 2232.76,1506.43 "/>
<polyline clip-path="url(#clip593)" style="stroke:#07051d; stroke-linecap:round; stroke-linejoin:round; stroke-width:4; stroke-opacity:1; fill:none" points="2160.76,1448.11 2232.76,1448.11 "/>
<polyline clip-path="url(#clip593)" style="stroke:#170b3b; stroke-linecap:round; stroke-linejoin:round; stroke-width:4; stroke-opacity:1; fill:none" points="2160.76,1375.21 2232.76,1375.21 "/>
<polyline clip-path="url(#clip593)" style="stroke:#2b0a56; stroke-linecap:round; stroke-linejoin:round; stroke-width:4; stroke-opacity:1; fill:none" points="2160.76,1302.31 2232.76,1302.31 "/>
<polyline clip-path="url(#clip593)" style="stroke:#410967; stroke-linecap:round; stroke-linejoin:round; stroke-width:4; stroke-opacity:1; fill:none" points="2160.76,1229.4 2232.76,1229.4 "/>
<polyline clip-path="url(#clip593)" style="stroke:#570f6d; stroke-linecap:round; stroke-linejoin:round; stroke-width:4; stroke-opacity:1; fill:none" points="2160.76,1156.5 2232.76,1156.5 "/>
<polyline clip-path="url(#clip593)" style="stroke:#6a176e; stroke-linecap:round; stroke-linejoin:round; stroke-width:4; stroke-opacity:1; fill:none" points="2160.76,1083.6 2232.76,1083.6 "/>
<polyline clip-path="url(#clip593)" style="stroke:#7e1e6c; stroke-linecap:round; stroke-linejoin:round; stroke-width:4; stroke-opacity:1; fill:none" points="2160.76,1010.7 2232.76,1010.7 "/>
<polyline clip-path="url(#clip593)" style="stroke:#932567; stroke-linecap:round; stroke-linejoin:round; stroke-width:4; stroke-opacity:1; fill:none" points="2160.76,937.802 2232.76,937.802 "/>
<polyline clip-path="url(#clip593)" style="stroke:#a72d5f; stroke-linecap:round; stroke-linejoin:round; stroke-width:4; stroke-opacity:1; fill:none" points="2160.76,864.901 2232.76,864.901 "/>
<polyline clip-path="url(#clip593)" style="stroke:#bb3754; stroke-linecap:round; stroke-linejoin:round; stroke-width:4; stroke-opacity:1; fill:none" points="2160.76,792 2232.76,792 "/>
<polyline clip-path="url(#clip593)" style="stroke:#cc4148; stroke-linecap:round; stroke-linejoin:round; stroke-width:4; stroke-opacity:1; fill:none" points="2160.76,719.099 2232.76,719.099 "/>
<polyline clip-path="url(#clip593)" style="stroke:#dc5039; stroke-linecap:round; stroke-linejoin:round; stroke-width:4; stroke-opacity:1; fill:none" points="2160.76,646.198 2232.76,646.198 "/>
<polyline clip-path="url(#clip593)" style="stroke:#e9622a; stroke-linecap:round; stroke-linejoin:round; stroke-width:4; stroke-opacity:1; fill:none" points="2160.76,573.298 2232.76,573.298 "/>
<polyline clip-path="url(#clip593)" style="stroke:#f2751a; stroke-linecap:round; stroke-linejoin:round; stroke-width:4; stroke-opacity:1; fill:none" points="2160.76,500.397 2232.76,500.397 "/>
<polyline clip-path="url(#clip593)" style="stroke:#f98c09; stroke-linecap:round; stroke-linejoin:round; stroke-width:4; stroke-opacity:1; fill:none" points="2160.76,427.496 2232.76,427.496 "/>
<polyline clip-path="url(#clip593)" style="stroke:#fba40a; stroke-linecap:round; stroke-linejoin:round; stroke-width:4; stroke-opacity:1; fill:none" points="2160.76,354.595 2232.76,354.595 "/>
<polyline clip-path="url(#clip593)" style="stroke:#fabd23; stroke-linecap:round; stroke-linejoin:round; stroke-width:4; stroke-opacity:1; fill:none" points="2160.76,281.694 2232.76,281.694 "/>
<polyline clip-path="url(#clip593)" style="stroke:#f5d745; stroke-linecap:round; stroke-linejoin:round; stroke-width:4; stroke-opacity:1; fill:none" points="2160.76,208.794 2232.76,208.794 "/>
<polyline clip-path="url(#clip593)" style="stroke:#f1ed70; stroke-linecap:round; stroke-linejoin:round; stroke-width:4; stroke-opacity:1; fill:none" points="2160.76,135.893 2232.76,135.893 "/>
<path clip-path="url(#clip590)" d="M2280.7 1503.18 Q2277.09 1503.18 2275.26 1506.74 Q2273.45 1510.28 2273.45 1517.41 Q2273.45 1524.52 2275.26 1528.09 Q2277.09 1531.63 2280.7 1531.63 Q2284.33 1531.63 2286.14 1528.09 Q2287.97 1524.52 2287.97 1517.41 Q2287.97 1510.28 2286.14 1506.74 Q2284.33 1503.18 2280.7 1503.18 M2280.7 1499.47 Q2286.51 1499.47 2289.57 1504.08 Q2292.64 1508.66 2292.64 1517.41 Q2292.64 1526.14 2289.57 1530.75 Q2286.51 1535.33 2280.7 1535.33 Q2274.89 1535.33 2271.81 1530.75 Q2268.76 1526.14 2268.76 1517.41 Q2268.76 1508.66 2271.81 1504.08 Q2274.89 1499.47 2280.7 1499.47 Z" fill="#000000" fill-rule="nonzero" fill-opacity="1" /><path clip-path="url(#clip590)" d="M2280.7 1357.38 Q2277.09 1357.38 2275.26 1360.94 Q2273.45 1364.48 2273.45 1371.61 Q2273.45 1378.72 2275.26 1382.28 Q2277.09 1385.83 2280.7 1385.83 Q2284.33 1385.83 2286.14 1382.28 Q2287.97 1378.72 2287.97 1371.61 Q2287.97 1364.48 2286.14 1360.94 Q2284.33 1357.38 2280.7 1357.38 M2280.7 1353.67 Q2286.51 1353.67 2289.57 1358.28 Q2292.64 1362.86 2292.64 1371.61 Q2292.64 1380.34 2289.57 1384.95 Q2286.51 1389.53 2280.7 1389.53 Q2274.89 1389.53 2271.81 1384.95 Q2268.76 1380.34 2268.76 1371.61 Q2268.76 1362.86 2271.81 1358.28 Q2274.89 1353.67 2280.7 1353.67 Z" fill="#000000" fill-rule="nonzero" fill-opacity="1" /><path clip-path="url(#clip590)" d="M2300.86 1382.98 L2305.75 1382.98 L2305.75 1388.86 L2300.86 1388.86 L2300.86 1382.98 Z" fill="#000000" fill-rule="nonzero" fill-opacity="1" /><path clip-path="url(#clip590)" d="M2316.74 1384.92 L2324.38 1384.92 L2324.38 1358.56 L2316.07 1360.22 L2316.07 1355.96 L2324.33 1354.3 L2329.01 1354.3 L2329.01 1384.92 L2336.65 1384.92 L2336.65 1388.86 L2316.74 1388.86 L2316.74 1384.92 Z" fill="#000000" fill-rule="nonzero" fill-opacity="1" /><path clip-path="url(#clip590)" d="M2280.7 1211.57 Q2277.09 1211.57 2275.26 1215.14 Q2273.45 1218.68 2273.45 1225.81 Q2273.45 1232.92 2275.26 1236.48 Q2277.09 1240.02 2280.7 1240.02 Q2284.33 1240.02 2286.14 1236.48 Q2287.97 1232.92 2287.97 1225.81 Q2287.97 1218.68 2286.14 1215.14 Q2284.33 1211.57 2280.7 1211.57 M2280.7 1207.87 Q2286.51 1207.87 2289.57 1212.48 Q2292.64 1217.06 2292.64 1225.81 Q2292.64 1234.54 2289.57 1239.14 Q2286.51 1243.73 2280.7 1243.73 Q2274.89 1243.73 2271.81 1239.14 Q2268.76 1234.54 2268.76 1225.81 Q2268.76 1217.06 2271.81 1212.48 Q2274.89 1207.87 2280.7 1207.87 Z" fill="#000000" fill-rule="nonzero" fill-opacity="1" /><path clip-path="url(#clip590)" d="M2300.86 1237.18 L2305.75 1237.18 L2305.75 1243.06 L2300.86 1243.06 L2300.86 1237.18 Z" fill="#000000" fill-rule="nonzero" fill-opacity="1" /><path clip-path="url(#clip590)" d="M2319.96 1239.12 L2336.28 1239.12 L2336.28 1243.06 L2314.33 1243.06 L2314.33 1239.12 Q2317 1236.37 2321.58 1231.74 Q2326.19 1227.08 2327.37 1225.74 Q2329.61 1223.22 2330.49 1221.48 Q2331.39 1219.72 2331.39 1218.03 Q2331.39 1215.28 2329.45 1213.54 Q2327.53 1211.81 2324.43 1211.81 Q2322.23 1211.81 2319.77 1212.57 Q2317.34 1213.33 2314.57 1214.88 L2314.57 1210.16 Q2317.39 1209.03 2319.84 1208.45 Q2322.3 1207.87 2324.33 1207.87 Q2329.7 1207.87 2332.9 1210.56 Q2336.09 1213.24 2336.09 1217.73 Q2336.09 1219.86 2335.28 1221.78 Q2334.5 1223.68 2332.39 1226.27 Q2331.81 1226.94 2328.71 1230.16 Q2325.61 1233.36 2319.96 1239.12 Z" fill="#000000" fill-rule="nonzero" fill-opacity="1" /><path clip-path="url(#clip590)" d="M2280.7 1065.77 Q2277.09 1065.77 2275.26 1069.34 Q2273.45 1072.88 2273.45 1080.01 Q2273.45 1087.12 2275.26 1090.68 Q2277.09 1094.22 2280.7 1094.22 Q2284.33 1094.22 2286.14 1090.68 Q2287.97 1087.12 2287.97 1080.01 Q2287.97 1072.88 2286.14 1069.34 Q2284.33 1065.77 2280.7 1065.77 M2280.7 1062.07 Q2286.51 1062.07 2289.57 1066.68 Q2292.64 1071.26 2292.64 1080.01 Q2292.64 1088.74 2289.57 1093.34 Q2286.51 1097.93 2280.7 1097.93 Q2274.89 1097.93 2271.81 1093.34 Q2268.76 1088.74 2268.76 1080.01 Q2268.76 1071.26 2271.81 1066.68 Q2274.89 1062.07 2280.7 1062.07 Z" fill="#000000" fill-rule="nonzero" fill-opacity="1" /><path clip-path="url(#clip590)" d="M2300.86 1091.37 L2305.75 1091.37 L2305.75 1097.25 L2300.86 1097.25 L2300.86 1091.37 Z" fill="#000000" fill-rule="nonzero" fill-opacity="1" /><path clip-path="url(#clip590)" d="M2330.1 1078.62 Q2333.45 1079.34 2335.33 1081.61 Q2337.23 1083.87 2337.23 1087.21 Q2337.23 1092.32 2333.71 1095.12 Q2330.19 1097.93 2323.71 1097.93 Q2321.53 1097.93 2319.22 1097.49 Q2316.93 1097.07 2314.47 1096.21 L2314.47 1091.7 Q2316.42 1092.83 2318.73 1093.41 Q2321.05 1093.99 2323.57 1093.99 Q2327.97 1093.99 2330.26 1092.25 Q2332.58 1090.52 2332.58 1087.21 Q2332.58 1084.15 2330.42 1082.44 Q2328.29 1080.7 2324.47 1080.7 L2320.45 1080.7 L2320.45 1076.86 L2324.66 1076.86 Q2328.11 1076.86 2329.94 1075.5 Q2331.76 1074.11 2331.76 1071.51 Q2331.76 1068.85 2329.87 1067.44 Q2327.99 1066 2324.47 1066 Q2322.55 1066 2320.35 1066.42 Q2318.15 1066.84 2315.51 1067.72 L2315.51 1063.55 Q2318.18 1062.81 2320.49 1062.44 Q2322.83 1062.07 2324.89 1062.07 Q2330.21 1062.07 2333.32 1064.5 Q2336.42 1066.91 2336.42 1071.03 Q2336.42 1073.9 2334.77 1075.89 Q2333.13 1077.86 2330.1 1078.62 Z" fill="#000000" fill-rule="nonzero" fill-opacity="1" /><path clip-path="url(#clip590)" d="M2280.7 919.971 Q2277.09 919.971 2275.26 923.536 Q2273.45 927.078 2273.45 934.207 Q2273.45 941.314 2275.26 944.879 Q2277.09 948.42 2280.7 948.42 Q2284.33 948.42 2286.14 944.879 Q2287.97 941.314 2287.97 934.207 Q2287.97 927.078 2286.14 923.536 Q2284.33 919.971 2280.7 919.971 M2280.7 916.268 Q2286.51 916.268 2289.57 920.874 Q2292.64 925.458 2292.64 934.207 Q2292.64 942.934 2289.57 947.541 Q2286.51 952.124 2280.7 952.124 Q2274.89 952.124 2271.81 947.541 Q2268.76 942.934 2268.76 934.207 Q2268.76 925.458 2271.81 920.874 Q2274.89 916.268 2280.7 916.268 Z" fill="#000000" fill-rule="nonzero" fill-opacity="1" /><path clip-path="url(#clip590)" d="M2300.86 945.573 L2305.75 945.573 L2305.75 951.453 L2300.86 951.453 L2300.86 945.573 Z" fill="#000000" fill-rule="nonzero" fill-opacity="1" /><path clip-path="url(#clip590)" d="M2328.78 920.967 L2316.97 939.416 L2328.78 939.416 L2328.78 920.967 M2327.55 916.893 L2333.43 916.893 L2333.43 939.416 L2338.36 939.416 L2338.36 943.305 L2333.43 943.305 L2333.43 951.453 L2328.78 951.453 L2328.78 943.305 L2313.18 943.305 L2313.18 938.791 L2327.55 916.893 Z" fill="#000000" fill-rule="nonzero" fill-opacity="1" /><path clip-path="url(#clip590)" d="M2280.7 774.17 Q2277.09 774.17 2275.26 777.735 Q2273.45 781.276 2273.45 788.406 Q2273.45 795.512 2275.26 799.077 Q2277.09 802.619 2280.7 802.619 Q2284.33 802.619 2286.14 799.077 Q2287.97 795.512 2287.97 788.406 Q2287.97 781.276 2286.14 777.735 Q2284.33 774.17 2280.7 774.17 M2280.7 770.466 Q2286.51 770.466 2289.57 775.073 Q2292.64 779.656 2292.64 788.406 Q2292.64 797.133 2289.57 801.739 Q2286.51 806.322 2280.7 806.322 Q2274.89 806.322 2271.81 801.739 Q2268.76 797.133 2268.76 788.406 Q2268.76 779.656 2271.81 775.073 Q2274.89 770.466 2280.7 770.466 Z" fill="#000000" fill-rule="nonzero" fill-opacity="1" /><path clip-path="url(#clip590)" d="M2300.86 799.772 L2305.75 799.772 L2305.75 805.651 L2300.86 805.651 L2300.86 799.772 Z" fill="#000000" fill-rule="nonzero" fill-opacity="1" /><path clip-path="url(#clip590)" d="M2315.98 771.091 L2334.33 771.091 L2334.33 775.026 L2320.26 775.026 L2320.26 783.499 Q2321.28 783.151 2322.3 782.989 Q2323.32 782.804 2324.33 782.804 Q2330.12 782.804 2333.5 785.975 Q2336.88 789.147 2336.88 794.563 Q2336.88 800.142 2333.41 803.244 Q2329.94 806.322 2323.62 806.322 Q2321.44 806.322 2319.17 805.952 Q2316.93 805.582 2314.52 804.841 L2314.52 800.142 Q2316.6 801.276 2318.83 801.832 Q2321.05 802.387 2323.52 802.387 Q2327.53 802.387 2329.87 800.281 Q2332.2 798.174 2332.2 794.563 Q2332.2 790.952 2329.87 788.846 Q2327.53 786.739 2323.52 786.739 Q2321.65 786.739 2319.77 787.156 Q2317.92 787.573 2315.98 788.452 L2315.98 771.091 Z" fill="#000000" fill-rule="nonzero" fill-opacity="1" /><path clip-path="url(#clip590)" d="M2280.7 628.368 Q2277.09 628.368 2275.26 631.933 Q2273.45 635.475 2273.45 642.604 Q2273.45 649.711 2275.26 653.276 Q2277.09 656.817 2280.7 656.817 Q2284.33 656.817 2286.14 653.276 Q2287.97 649.711 2287.97 642.604 Q2287.97 635.475 2286.14 631.933 Q2284.33 628.368 2280.7 628.368 M2280.7 624.665 Q2286.51 624.665 2289.57 629.271 Q2292.64 633.854 2292.64 642.604 Q2292.64 651.331 2289.57 655.938 Q2286.51 660.521 2280.7 660.521 Q2274.89 660.521 2271.81 655.938 Q2268.76 651.331 2268.76 642.604 Q2268.76 633.854 2271.81 629.271 Q2274.89 624.665 2280.7 624.665 Z" fill="#000000" fill-rule="nonzero" fill-opacity="1" /><path clip-path="url(#clip590)" d="M2300.86 653.97 L2305.75 653.97 L2305.75 659.85 L2300.86 659.85 L2300.86 653.97 Z" fill="#000000" fill-rule="nonzero" fill-opacity="1" /><path clip-path="url(#clip590)" d="M2326.51 640.706 Q2323.36 640.706 2321.51 642.859 Q2319.68 645.012 2319.68 648.762 Q2319.68 652.489 2321.51 654.664 Q2323.36 656.817 2326.51 656.817 Q2329.66 656.817 2331.49 654.664 Q2333.34 652.489 2333.34 648.762 Q2333.34 645.012 2331.49 642.859 Q2329.66 640.706 2326.51 640.706 M2335.79 626.054 L2335.79 630.313 Q2334.03 629.479 2332.23 629.04 Q2330.45 628.6 2328.69 628.6 Q2324.06 628.6 2321.6 631.725 Q2319.17 634.85 2318.83 641.169 Q2320.19 639.155 2322.25 638.09 Q2324.31 637.003 2326.79 637.003 Q2332 637.003 2335.01 640.174 Q2338.04 643.322 2338.04 648.762 Q2338.04 654.086 2334.89 657.303 Q2331.74 660.521 2326.51 660.521 Q2320.51 660.521 2317.34 655.938 Q2314.17 651.331 2314.17 642.604 Q2314.17 634.41 2318.06 629.549 Q2321.95 624.665 2328.5 624.665 Q2330.26 624.665 2332.04 625.012 Q2333.85 625.359 2335.79 626.054 Z" fill="#000000" fill-rule="nonzero" fill-opacity="1" /><path clip-path="url(#clip590)" d="M2280.7 482.567 Q2277.09 482.567 2275.26 486.132 Q2273.45 489.673 2273.45 496.803 Q2273.45 503.909 2275.26 507.474 Q2277.09 511.016 2280.7 511.016 Q2284.33 511.016 2286.14 507.474 Q2287.97 503.909 2287.97 496.803 Q2287.97 489.673 2286.14 486.132 Q2284.33 482.567 2280.7 482.567 M2280.7 478.863 Q2286.51 478.863 2289.57 483.47 Q2292.64 488.053 2292.64 496.803 Q2292.64 505.53 2289.57 510.136 Q2286.51 514.719 2280.7 514.719 Q2274.89 514.719 2271.81 510.136 Q2268.76 505.53 2268.76 496.803 Q2268.76 488.053 2271.81 483.47 Q2274.89 478.863 2280.7 478.863 Z" fill="#000000" fill-rule="nonzero" fill-opacity="1" /><path clip-path="url(#clip590)" d="M2300.86 508.168 L2305.75 508.168 L2305.75 514.048 L2300.86 514.048 L2300.86 508.168 Z" fill="#000000" fill-rule="nonzero" fill-opacity="1" /><path clip-path="url(#clip590)" d="M2314.75 479.488 L2336.97 479.488 L2336.97 481.479 L2324.43 514.048 L2319.54 514.048 L2331.35 483.423 L2314.75 483.423 L2314.75 479.488 Z" fill="#000000" fill-rule="nonzero" fill-opacity="1" /><path clip-path="url(#clip590)" d="M2280.7 336.765 Q2277.09 336.765 2275.26 340.33 Q2273.45 343.872 2273.45 351.001 Q2273.45 358.108 2275.26 361.672 Q2277.09 365.214 2280.7 365.214 Q2284.33 365.214 2286.14 361.672 Q2287.97 358.108 2287.97 351.001 Q2287.97 343.872 2286.14 340.33 Q2284.33 336.765 2280.7 336.765 M2280.7 333.061 Q2286.51 333.061 2289.57 337.668 Q2292.64 342.251 2292.64 351.001 Q2292.64 359.728 2289.57 364.334 Q2286.51 368.918 2280.7 368.918 Q2274.89 368.918 2271.81 364.334 Q2268.76 359.728 2268.76 351.001 Q2268.76 342.251 2271.81 337.668 Q2274.89 333.061 2280.7 333.061 Z" fill="#000000" fill-rule="nonzero" fill-opacity="1" /><path clip-path="url(#clip590)" d="M2300.86 362.367 L2305.75 362.367 L2305.75 368.246 L2300.86 368.246 L2300.86 362.367 Z" fill="#000000" fill-rule="nonzero" fill-opacity="1" /><path clip-path="url(#clip590)" d="M2325.93 351.835 Q2322.6 351.835 2320.68 353.617 Q2318.78 355.399 2318.78 358.524 Q2318.78 361.649 2320.68 363.432 Q2322.6 365.214 2325.93 365.214 Q2329.26 365.214 2331.19 363.432 Q2333.11 361.626 2333.11 358.524 Q2333.11 355.399 2331.19 353.617 Q2329.29 351.835 2325.93 351.835 M2321.26 349.844 Q2318.25 349.103 2316.56 347.043 Q2314.89 344.983 2314.89 342.02 Q2314.89 337.876 2317.83 335.469 Q2320.79 333.061 2325.93 333.061 Q2331.09 333.061 2334.03 335.469 Q2336.97 337.876 2336.97 342.02 Q2336.97 344.983 2335.28 347.043 Q2333.62 349.103 2330.63 349.844 Q2334.01 350.631 2335.89 352.922 Q2337.78 355.214 2337.78 358.524 Q2337.78 363.547 2334.7 366.233 Q2331.65 368.918 2325.93 368.918 Q2320.21 368.918 2317.14 366.233 Q2314.08 363.547 2314.08 358.524 Q2314.08 355.214 2315.98 352.922 Q2317.88 350.631 2321.26 349.844 M2319.54 342.46 Q2319.54 345.145 2321.21 346.649 Q2322.9 348.154 2325.93 348.154 Q2328.94 348.154 2330.63 346.649 Q2332.34 345.145 2332.34 342.46 Q2332.34 339.774 2330.63 338.27 Q2328.94 336.765 2325.93 336.765 Q2322.9 336.765 2321.21 338.27 Q2319.54 339.774 2319.54 342.46 Z" fill="#000000" fill-rule="nonzero" fill-opacity="1" /><path clip-path="url(#clip590)" d="M2280.7 190.964 Q2277.09 190.964 2275.26 194.528 Q2273.45 198.07 2273.45 205.2 Q2273.45 212.306 2275.26 215.871 Q2277.09 219.413 2280.7 219.413 Q2284.33 219.413 2286.14 215.871 Q2287.97 212.306 2287.97 205.2 Q2287.97 198.07 2286.14 194.528 Q2284.33 190.964 2280.7 190.964 M2280.7 187.26 Q2286.51 187.26 2289.57 191.866 Q2292.64 196.45 2292.64 205.2 Q2292.64 213.926 2289.57 218.533 Q2286.51 223.116 2280.7 223.116 Q2274.89 223.116 2271.81 218.533 Q2268.76 213.926 2268.76 205.2 Q2268.76 196.45 2271.81 191.866 Q2274.89 187.26 2280.7 187.26 Z" fill="#000000" fill-rule="nonzero" fill-opacity="1" /><path clip-path="url(#clip590)" d="M2300.86 216.565 L2305.75 216.565 L2305.75 222.445 L2300.86 222.445 L2300.86 216.565 Z" fill="#000000" fill-rule="nonzero" fill-opacity="1" /><path clip-path="url(#clip590)" d="M2316.07 221.727 L2316.07 217.468 Q2317.83 218.301 2319.64 218.741 Q2321.44 219.181 2323.18 219.181 Q2327.81 219.181 2330.24 216.079 Q2332.69 212.954 2333.04 206.612 Q2331.7 208.602 2329.64 209.667 Q2327.58 210.732 2325.08 210.732 Q2319.89 210.732 2316.86 207.607 Q2313.85 204.459 2313.85 199.019 Q2313.85 193.695 2317 190.477 Q2320.14 187.26 2325.38 187.26 Q2331.37 187.26 2334.52 191.866 Q2337.69 196.45 2337.69 205.2 Q2337.69 213.371 2333.8 218.255 Q2329.94 223.116 2323.39 223.116 Q2321.63 223.116 2319.82 222.769 Q2318.01 222.422 2316.07 221.727 M2325.38 207.075 Q2328.52 207.075 2330.35 204.922 Q2332.2 202.769 2332.2 199.019 Q2332.2 195.292 2330.35 193.14 Q2328.52 190.964 2325.38 190.964 Q2322.23 190.964 2320.38 193.14 Q2318.55 195.292 2318.55 199.019 Q2318.55 202.769 2320.38 204.922 Q2322.23 207.075 2325.38 207.075 Z" fill="#000000" fill-rule="nonzero" fill-opacity="1" /><path clip-path="url(#clip590)" d="M2269.43 72.7082 L2277.07 72.7082 L2277.07 46.3426 L2268.76 48.0092 L2268.76 43.75 L2277.02 42.0833 L2281.7 42.0833 L2281.7 72.7082 L2289.33 72.7082 L2289.33 76.6433 L2269.43 76.6433 L2269.43 72.7082 Z" fill="#000000" fill-rule="nonzero" fill-opacity="1" /><path clip-path="url(#clip590)" d="M2298.78 70.7637 L2303.66 70.7637 L2303.66 76.6433 L2298.78 76.6433 L2298.78 70.7637 Z" fill="#000000" fill-rule="nonzero" fill-opacity="1" /><path clip-path="url(#clip590)" d="M2323.85 45.162 Q2320.24 45.162 2318.41 48.7268 Q2316.6 52.2685 2316.6 59.398 Q2316.6 66.5045 2318.41 70.0693 Q2320.24 73.6109 2323.85 73.6109 Q2327.48 73.6109 2329.29 70.0693 Q2331.12 66.5045 2331.12 59.398 Q2331.12 52.2685 2329.29 48.7268 Q2327.48 45.162 2323.85 45.162 M2323.85 41.4583 Q2329.66 41.4583 2332.71 46.0648 Q2335.79 50.6481 2335.79 59.398 Q2335.79 68.1249 2332.71 72.7313 Q2329.66 77.3146 2323.85 77.3146 Q2318.04 77.3146 2314.96 72.7313 Q2311.9 68.1249 2311.9 59.398 Q2311.9 50.6481 2314.96 46.0648 Q2318.04 41.4583 2323.85 41.4583 Z" fill="#000000" fill-rule="nonzero" fill-opacity="1" /><polyline clip-path="url(#clip590)" style="stroke:#000000; stroke-linecap:round; stroke-linejoin:round; stroke-width:4; stroke-opacity:1; fill:none" points="2232.76,1521.01 2232.76,1521.01 2256.76,1521.01 2232.76,1521.01 2232.76,1375.21 2256.76,1375.21 2232.76,1375.21 2232.76,1229.4 2256.76,1229.4 2232.76,1229.4 2232.76,1083.6 2256.76,1083.6 2232.76,1083.6 2232.76,937.802 2256.76,937.802 2232.76,937.802 2232.76,792 2256.76,792 2232.76,792 2232.76,646.198 2256.76,646.198 2232.76,646.198 2232.76,500.397 2256.76,500.397 2232.76,500.397 2232.76,354.595 2256.76,354.595 2232.76,354.595 2232.76,208.794 2256.76,208.794 2232.76,208.794 2232.76,62.9921 2256.76,62.9921 2232.76,62.9921 "/>
</svg>
