<?xml version="1.0" encoding="utf-8"?>
<svg xmlns="http://www.w3.org/2000/svg" xmlns:xlink="http://www.w3.org/1999/xlink" width="600" height="400" viewBox="0 0 2400 1600">
<defs>
  <clipPath id="clip560">
    <rect x="0" y="0" width="2400" height="1600"/>
  </clipPath>
</defs>
<path clip-path="url(#clip560)" d="M0 1600 L2400 1600 L2400 0 L0 0  Z" fill="#ffffff" fill-rule="evenodd" fill-opacity="1"/>
<defs>
  <clipPath id="clip561">
    <rect x="480" y="0" width="1681" height="1600"/>
  </clipPath>
</defs>
<path clip-path="url(#clip560)" d="M86.9921 1521.01 L2112.76 1521.01 L2112.76 62.9921 L86.9921 62.9921  Z" fill="#ffffff" fill-rule="evenodd" fill-opacity="1"/>
<defs>
  <clipPath id="clip562">
    <rect x="86" y="62" width="2027" height="1459"/>
  </clipPath>
</defs>
<polyline clip-path="url(#clip562)" style="stroke:#000000; stroke-linecap:round; stroke-linejoin:round; stroke-width:2; stroke-opacity:0.1; fill:none" points="86.9921,1521.01 86.9921,62.9921 "/>
<polyline clip-path="url(#clip562)" style="stroke:#000000; stroke-linecap:round; stroke-linejoin:round; stroke-width:2; stroke-opacity:0.1; fill:none" points="593.433,1521.01 593.433,62.9921 "/>
<polyline clip-path="url(#clip562)" style="stroke:#000000; stroke-linecap:round; stroke-linejoin:round; stroke-width:2; stroke-opacity:0.1; fill:none" points="1099.87,1521.01 1099.87,62.9921 "/>
<polyline clip-path="url(#clip562)" style="stroke:#000000; stroke-linecap:round; stroke-linejoin:round; stroke-width:2; stroke-opacity:0.1; fill:none" points="1606.31,1521.01 1606.31,62.9921 "/>
<polyline clip-path="url(#clip562)" style="stroke:#000000; stroke-linecap:round; stroke-linejoin:round; stroke-width:2; stroke-opacity:0.1; fill:none" points="2112.76,1521.01 2112.76,62.9921 "/>
<polyline clip-path="url(#clip560)" style="stroke:#000000; stroke-linecap:round; stroke-linejoin:round; stroke-width:4; stroke-opacity:1; fill:none" points="86.9921,1521.01 2112.76,1521.01 "/>
<polyline clip-path="url(#clip560)" style="stroke:#000000; stroke-linecap:round; stroke-linejoin:round; stroke-width:4; stroke-opacity:1; fill:none" points="86.9921,1521.01 86.9921,1502.11 "/>
<polyline clip-path="url(#clip560)" style="stroke:#000000; stroke-linecap:round; stroke-linejoin:round; stroke-width:4; stroke-opacity:1; fill:none" points="593.433,1521.01 593.433,1502.11 "/>
<polyline clip-path="url(#clip560)" style="stroke:#000000; stroke-linecap:round; stroke-linejoin:round; stroke-width:4; stroke-opacity:1; fill:none" points="1099.87,1521.01 1099.87,1502.11 "/>
<polyline clip-path="url(#clip560)" style="stroke:#000000; stroke-linecap:round; stroke-linejoin:round; stroke-width:4; stroke-opacity:1; fill:none" points="1606.31,1521.01 1606.31,1502.11 "/>
<polyline clip-path="url(#clip560)" style="stroke:#000000; stroke-linecap:round; stroke-linejoin:round; stroke-width:4; stroke-opacity:1; fill:none" points="2112.76,1521.01 2112.76,1502.11 "/>
<path clip-path="url(#clip560)" d="M86.9921 1551.93 Q83.381 1551.93 81.5523 1555.49 Q79.7468 1559.03 79.7468 1566.16 Q79.7468 1573.27 81.5523 1576.83 Q83.381 1580.38 86.9921 1580.38 Q90.6264 1580.38 92.4319 1576.83 Q94.2606 1573.27 94.2606 1566.16 Q94.2606 1559.03 92.4319 1555.49 Q90.6264 1551.93 86.9921 1551.93 M86.9921 1548.22 Q92.8023 1548.22 95.8578 1552.83 Q98.9365 1557.41 98.9365 1566.16 Q98.9365 1574.89 95.8578 1579.5 Q92.8023 1584.08 86.9921 1584.08 Q81.182 1584.08 78.1033 1579.5 Q75.0477 1574.89 75.0477 1566.16 Q75.0477 1557.41 78.1033 1552.83 Q81.182 1548.22 86.9921 1548.22 Z" fill="#000000" fill-rule="nonzero" fill-opacity="1" /><path clip-path="url(#clip560)" d="M583.711 1548.85 L602.067 1548.85 L602.067 1552.78 L587.993 1552.78 L587.993 1561.26 Q589.012 1560.91 590.03 1560.75 Q591.049 1560.56 592.067 1560.56 Q597.854 1560.56 601.234 1563.73 Q604.614 1566.9 604.614 1572.32 Q604.614 1577.9 601.141 1581 Q597.669 1584.08 591.35 1584.08 Q589.174 1584.08 586.905 1583.71 Q584.66 1583.34 582.253 1582.6 L582.253 1577.9 Q584.336 1579.03 586.558 1579.59 Q588.78 1580.14 591.257 1580.14 Q595.262 1580.14 597.6 1578.04 Q599.938 1575.93 599.938 1572.32 Q599.938 1568.71 597.6 1566.6 Q595.262 1564.5 591.257 1564.5 Q589.382 1564.5 587.507 1564.91 Q585.655 1565.33 583.711 1566.21 L583.711 1548.85 Z" fill="#000000" fill-rule="nonzero" fill-opacity="1" /><path clip-path="url(#clip560)" d="M1074.56 1579.47 L1082.2 1579.47 L1082.2 1553.11 L1073.89 1554.77 L1073.89 1550.51 L1082.15 1548.85 L1086.83 1548.85 L1086.83 1579.47 L1094.47 1579.47 L1094.47 1583.41 L1074.56 1583.41 L1074.56 1579.47 Z" fill="#000000" fill-rule="nonzero" fill-opacity="1" /><path clip-path="url(#clip560)" d="M1113.91 1551.93 Q1110.3 1551.93 1108.47 1555.49 Q1106.67 1559.03 1106.67 1566.16 Q1106.67 1573.27 1108.47 1576.83 Q1110.3 1580.38 1113.91 1580.38 Q1117.55 1580.38 1119.35 1576.83 Q1121.18 1573.27 1121.18 1566.16 Q1121.18 1559.03 1119.35 1555.49 Q1117.55 1551.93 1113.91 1551.93 M1113.91 1548.22 Q1119.72 1548.22 1122.78 1552.83 Q1125.86 1557.41 1125.86 1566.16 Q1125.86 1574.89 1122.78 1579.5 Q1119.72 1584.08 1113.91 1584.08 Q1108.1 1584.08 1105.02 1579.5 Q1101.97 1574.89 1101.97 1566.16 Q1101.97 1557.41 1105.02 1552.83 Q1108.1 1548.22 1113.91 1548.22 Z" fill="#000000" fill-rule="nonzero" fill-opacity="1" /><path clip-path="url(#clip560)" d="M1581.5 1579.47 L1589.14 1579.47 L1589.14 1553.11 L1580.83 1554.77 L1580.83 1550.51 L1589.09 1548.85 L1593.77 1548.85 L1593.77 1579.47 L1601.41 1579.47 L1601.41 1583.41 L1581.5 1583.41 L1581.5 1579.47 Z" fill="#000000" fill-rule="nonzero" fill-opacity="1" /><path clip-path="url(#clip560)" d="M1610.9 1548.85 L1629.25 1548.85 L1629.25 1552.78 L1615.18 1552.78 L1615.18 1561.26 Q1616.2 1560.91 1617.22 1560.75 Q1618.24 1560.56 1619.25 1560.56 Q1625.04 1560.56 1628.42 1563.73 Q1631.8 1566.9 1631.8 1572.32 Q1631.8 1577.9 1628.33 1581 Q1624.86 1584.08 1618.54 1584.08 Q1616.36 1584.08 1614.09 1583.71 Q1611.85 1583.34 1609.44 1582.6 L1609.44 1577.9 Q1611.52 1579.03 1613.75 1579.59 Q1615.97 1580.14 1618.44 1580.14 Q1622.45 1580.14 1624.79 1578.04 Q1627.13 1575.93 1627.13 1572.32 Q1627.13 1568.71 1624.79 1566.6 Q1622.45 1564.5 1618.44 1564.5 Q1616.57 1564.5 1614.69 1564.91 Q1612.84 1565.33 1610.9 1566.21 L1610.9 1548.85 Z" fill="#000000" fill-rule="nonzero" fill-opacity="1" /><path clip-path="url(#clip560)" d="M2091.53 1579.47 L2107.85 1579.47 L2107.85 1583.41 L2085.9 1583.41 L2085.9 1579.47 Q2088.57 1576.72 2093.15 1572.09 Q2097.76 1567.44 2098.94 1566.09 Q2101.18 1563.57 2102.06 1561.83 Q2102.96 1560.07 2102.96 1558.38 Q2102.96 1555.63 2101.02 1553.89 Q2099.1 1552.16 2096 1552.16 Q2093.8 1552.16 2091.34 1552.92 Q2088.91 1553.69 2086.14 1555.24 L2086.14 1550.51 Q2088.96 1549.38 2091.41 1548.8 Q2093.87 1548.22 2095.9 1548.22 Q2101.27 1548.22 2104.47 1550.91 Q2107.66 1553.59 2107.66 1558.08 Q2107.66 1560.21 2106.85 1562.13 Q2106.07 1564.03 2103.96 1566.63 Q2103.38 1567.3 2100.28 1570.51 Q2097.18 1573.71 2091.53 1579.47 Z" fill="#000000" fill-rule="nonzero" fill-opacity="1" /><path clip-path="url(#clip560)" d="M2127.66 1551.93 Q2124.05 1551.93 2122.22 1555.49 Q2120.42 1559.03 2120.42 1566.16 Q2120.42 1573.27 2122.22 1576.83 Q2124.05 1580.38 2127.66 1580.38 Q2131.3 1580.38 2133.1 1576.83 Q2134.93 1573.27 2134.93 1566.16 Q2134.93 1559.03 2133.1 1555.49 Q2131.3 1551.93 2127.66 1551.93 M2127.66 1548.22 Q2133.47 1548.22 2136.53 1552.83 Q2139.61 1557.41 2139.61 1566.16 Q2139.61 1574.89 2136.53 1579.5 Q2133.47 1584.08 2127.66 1584.08 Q2121.85 1584.08 2118.77 1579.5 Q2115.72 1574.89 2115.72 1566.16 Q2115.72 1557.41 2118.77 1552.83 Q2121.85 1548.22 2127.66 1548.22 Z" fill="#000000" fill-rule="nonzero" fill-opacity="1" /><polyline clip-path="url(#clip562)" style="stroke:#000000; stroke-linecap:round; stroke-linejoin:round; stroke-width:2; stroke-opacity:0.1; fill:none" points="86.9921,1521.01 2112.76,1521.01 "/>
<polyline clip-path="url(#clip562)" style="stroke:#000000; stroke-linecap:round; stroke-linejoin:round; stroke-width:2; stroke-opacity:0.1; fill:none" points="86.9921,1229.4 2112.76,1229.4 "/>
<polyline clip-path="url(#clip562)" style="stroke:#000000; stroke-linecap:round; stroke-linejoin:round; stroke-width:2; stroke-opacity:0.1; fill:none" points="86.9921,937.802 2112.76,937.802 "/>
<polyline clip-path="url(#clip562)" style="stroke:#000000; stroke-linecap:round; stroke-linejoin:round; stroke-width:2; stroke-opacity:0.1; fill:none" points="86.9921,646.198 2112.76,646.198 "/>
<polyline clip-path="url(#clip562)" style="stroke:#000000; stroke-linecap:round; stroke-linejoin:round; stroke-width:2; stroke-opacity:0.1; fill:none" points="86.9921,354.595 2112.76,354.595 "/>
<polyline clip-path="url(#clip562)" style="stroke:#000000; stroke-linecap:round; stroke-linejoin:round; stroke-width:2; stroke-opacity:0.1; fill:none" points="86.9921,62.9921 2112.76,62.9921 "/>
<polyline clip-path="url(#clip560)" style="stroke:#000000; stroke-linecap:round; stroke-linejoin:round; stroke-width:4; stroke-opacity:1; fill:none" points="86.9921,1521.01 86.9921,62.9921 "/>
<polyline clip-path="url(#clip560)" style="stroke:#000000; stroke-linecap:round; stroke-linejoin:round; stroke-width:4; stroke-opacity:1; fill:none" points="86.9921,1521.01 103.888,1521.01 "/>
<polyline clip-path="url(#clip560)" style="stroke:#000000; stroke-linecap:round; stroke-linejoin:round; stroke-width:4; stroke-opacity:1; fill:none" points="86.9921,1229.4 103.888,1229.4 "/>
<polyline clip-path="url(#clip560)" style="stroke:#000000; stroke-linecap:round; stroke-linejoin:round; stroke-width:4; stroke-opacity:1; fill:none" points="86.9921,937.802 103.888,937.802 "/>
<polyline clip-path="url(#clip560)" style="stroke:#000000; stroke-linecap:round; stroke-linejoin:round; stroke-width:4; stroke-opacity:1; fill:none" points="86.9921,646.198 103.888,646.198 "/>
<polyline clip-path="url(#clip560)" style="stroke:#000000; stroke-linecap:round; stroke-linejoin:round; stroke-width:4; stroke-opacity:1; fill:none" points="86.9921,354.595 103.888,354.595 "/>
<polyline clip-path="url(#clip560)" style="stroke:#000000; stroke-linecap:round; stroke-linejoin:round; stroke-width:4; stroke-opacity:1; fill:none" points="86.9921,62.9921 103.888,62.9921 "/>
<path clip-path="url(#clip560)" d="M-9.12329 1521.46 L20.5525 1521.46 L20.5525 1525.39 L-9.12329 1525.39 L-9.12329 1521.46 Z" fill="#000000" fill-rule="nonzero" fill-opacity="1" /><path clip-path="url(#clip560)" d="M34.6728 1534.35 L50.9921 1534.35 L50.9921 1538.29 L29.0478 1538.29 L29.0478 1534.35 Q31.7098 1531.6 36.2931 1526.97 Q40.8996 1522.32 42.0801 1520.97 Q44.3255 1518.45 45.2051 1516.71 Q46.1079 1514.95 46.1079 1513.26 Q46.1079 1510.51 44.1635 1508.77 Q42.2422 1507.04 39.1403 1507.04 Q36.9413 1507.04 34.4876 1507.8 Q32.057 1508.57 29.2793 1510.12 L29.2793 1505.39 Q32.1033 1504.26 34.557 1503.68 Q37.0107 1503.1 39.0477 1503.1 Q44.4181 1503.1 47.6125 1505.79 Q50.8069 1508.47 50.8069 1512.96 Q50.8069 1515.09 49.9968 1517.01 Q49.2097 1518.91 47.1033 1521.51 Q46.5246 1522.18 43.4227 1525.39 Q40.3209 1528.59 34.6728 1534.35 Z" fill="#000000" fill-rule="nonzero" fill-opacity="1" /><path clip-path="url(#clip560)" d="M-9.49366 1229.86 L20.1821 1229.86 L20.1821 1233.79 L-9.49366 1233.79 L-9.49366 1229.86 Z" fill="#000000" fill-rule="nonzero" fill-opacity="1" /><path clip-path="url(#clip560)" d="M31.0848 1242.75 L38.7237 1242.75 L38.7237 1216.38 L30.4135 1218.05 L30.4135 1213.79 L38.6774 1212.12 L43.3533 1212.12 L43.3533 1242.75 L50.9921 1242.75 L50.9921 1246.68 L31.0848 1246.68 L31.0848 1242.75 Z" fill="#000000" fill-rule="nonzero" fill-opacity="1" /><path clip-path="url(#clip560)" d="M39.0477 923.6 Q35.4367 923.6 33.608 927.165 Q31.8024 930.707 31.8024 937.836 Q31.8024 944.943 33.608 948.508 Q35.4367 952.049 39.0477 952.049 Q42.682 952.049 44.4875 948.508 Q46.3162 944.943 46.3162 937.836 Q46.3162 930.707 44.4875 927.165 Q42.682 923.6 39.0477 923.6 M39.0477 919.897 Q44.8579 919.897 47.9134 924.503 Q50.9921 929.086 50.9921 937.836 Q50.9921 946.563 47.9134 951.17 Q44.8579 955.753 39.0477 955.753 Q33.2376 955.753 30.1589 951.17 Q27.1034 946.563 27.1034 937.836 Q27.1034 929.086 30.1589 924.503 Q33.2376 919.897 39.0477 919.897 Z" fill="#000000" fill-rule="nonzero" fill-opacity="1" /><path clip-path="url(#clip560)" d="M31.0848 659.543 L38.7237 659.543 L38.7237 633.178 L30.4135 634.844 L30.4135 630.585 L38.6774 628.918 L43.3533 628.918 L43.3533 659.543 L50.9921 659.543 L50.9921 663.478 L31.0848 663.478 L31.0848 659.543 Z" fill="#000000" fill-rule="nonzero" fill-opacity="1" /><path clip-path="url(#clip560)" d="M34.6728 367.94 L50.9921 367.94 L50.9921 371.875 L29.0478 371.875 L29.0478 367.94 Q31.7098 365.185 36.2931 360.556 Q40.8996 355.903 42.0801 354.561 Q44.3255 352.037 45.2051 350.301 Q46.1079 348.542 46.1079 346.852 Q46.1079 344.098 44.1635 342.362 Q42.2422 340.625 39.1403 340.625 Q36.9413 340.625 34.4876 341.389 Q32.057 342.153 29.2793 343.704 L29.2793 338.982 Q32.1033 337.848 34.557 337.269 Q37.0107 336.69 39.0477 336.69 Q44.4181 336.69 47.6125 339.375 Q50.8069 342.061 50.8069 346.551 Q50.8069 348.681 49.9968 350.602 Q49.2097 352.5 47.1033 355.093 Q46.5246 355.764 43.4227 358.982 Q40.3209 362.176 34.6728 367.94 Z" fill="#000000" fill-rule="nonzero" fill-opacity="1" /><path clip-path="url(#clip560)" d="M43.8625 61.638 Q47.219 62.3556 49.094 64.6241 Q50.9921 66.8926 50.9921 70.2259 Q50.9921 75.3416 47.4736 78.1425 Q43.9551 80.9434 37.4737 80.9434 Q35.2978 80.9434 32.983 80.5036 Q30.6913 80.0869 28.2376 79.2305 L28.2376 74.7166 Q30.1821 75.8509 32.4969 76.4296 Q34.8117 77.0083 37.3348 77.0083 Q41.7329 77.0083 44.0246 75.2722 Q46.3394 73.5361 46.3394 70.2259 Q46.3394 67.1703 44.1866 65.4574 Q42.057 63.7213 38.2376 63.7213 L34.2098 63.7213 L34.2098 59.8787 L38.4227 59.8787 Q41.8718 59.8787 43.7005 58.513 Q45.5292 57.1241 45.5292 54.5315 Q45.5292 51.8695 43.6311 50.4575 Q41.7561 49.0223 38.2376 49.0223 Q36.3163 49.0223 34.1172 49.439 Q31.9182 49.8556 29.2793 50.7352 L29.2793 46.5686 Q31.9413 45.8279 34.2561 45.4575 Q36.5941 45.0871 38.6542 45.0871 Q43.9783 45.0871 47.0801 47.5177 Q50.1819 49.9251 50.1819 54.0454 Q50.1819 56.9158 48.5384 58.9065 Q46.8949 60.8741 43.8625 61.638 Z" fill="#000000" fill-rule="nonzero" fill-opacity="1" /><path clip-path="url(#clip560)" d="M570.259 18.8205 L570.259 41.5461 L580.548 41.5461 Q586.26 41.5461 589.379 38.5889 Q592.498 35.6318 592.498 30.163 Q592.498 24.7348 589.379 21.7777 Q586.26 18.8205 580.548 18.8205 L570.259 18.8205 M562.076 12.096 L580.548 12.096 Q590.716 12.096 595.901 16.714 Q601.127 21.2916 601.127 30.163 Q601.127 39.1155 595.901 43.6931 Q590.716 48.2706 580.548 48.2706 L570.259 48.2706 L570.259 72.576 L562.076 72.576 L562.076 12.096 Z" fill="#000000" fill-rule="nonzero" fill-opacity="1" /><path clip-path="url(#clip560)" d="M636.613 34.1734 Q635.357 33.4443 633.858 33.1202 Q632.4 32.7556 630.617 32.7556 Q624.298 32.7556 620.895 36.8875 Q617.533 40.9789 617.533 48.6757 L617.533 72.576 L610.039 72.576 L610.039 27.2059 L617.533 27.2059 L617.533 34.2544 Q619.882 30.1225 623.65 28.1376 Q627.417 26.1121 632.805 26.1121 Q633.574 26.1121 634.506 26.2337 Q635.438 26.3147 636.572 26.5172 L636.613 34.1734 Z" fill="#000000" fill-rule="nonzero" fill-opacity="1" /><path clip-path="url(#clip560)" d="M660.189 32.4315 Q654.194 32.4315 650.71 37.1306 Q647.226 41.7891 647.226 49.9314 Q647.226 58.0738 650.669 62.7728 Q654.153 67.4314 660.189 67.4314 Q666.144 67.4314 669.627 62.7323 Q673.111 58.0333 673.111 49.9314 Q673.111 41.8701 669.627 37.1711 Q666.144 32.4315 660.189 32.4315 M660.189 26.1121 Q669.911 26.1121 675.461 32.4315 Q681.011 38.7509 681.011 49.9314 Q681.011 61.0714 675.461 67.4314 Q669.911 73.7508 660.189 73.7508 Q650.426 73.7508 644.876 67.4314 Q639.367 61.0714 639.367 49.9314 Q639.367 38.7509 644.876 32.4315 Q650.426 26.1121 660.189 26.1121 Z" fill="#000000" fill-rule="nonzero" fill-opacity="1" /><path clip-path="url(#clip560)" d="M725.935 49.9314 Q725.935 41.7081 722.532 37.0496 Q719.17 32.3505 713.256 32.3505 Q707.341 32.3505 703.939 37.0496 Q700.576 41.7081 700.576 49.9314 Q700.576 58.1548 703.939 62.8538 Q707.341 67.5124 713.256 67.5124 Q719.17 67.5124 722.532 62.8538 Q725.935 58.1548 725.935 49.9314 M700.576 34.0924 Q702.926 30.0415 706.491 28.0971 Q710.096 26.1121 715.079 26.1121 Q723.342 26.1121 728.487 32.6746 Q733.672 39.2371 733.672 49.9314 Q733.672 60.6258 728.487 67.1883 Q723.342 73.7508 715.079 73.7508 Q710.096 73.7508 706.491 71.8063 Q702.926 69.8214 700.576 65.7705 L700.576 72.576 L693.082 72.576 L693.082 9.54393 L700.576 9.54393 L700.576 34.0924 Z" fill="#000000" fill-rule="nonzero" fill-opacity="1" /><path clip-path="url(#clip560)" d="M766.647 49.7694 Q757.613 49.7694 754.129 51.8354 Q750.646 53.9013 750.646 58.8839 Q750.646 62.8538 753.238 65.2034 Q755.871 67.5124 760.368 67.5124 Q766.566 67.5124 770.292 63.1374 Q774.06 58.7219 774.06 51.4303 L774.06 49.7694 L766.647 49.7694 M781.513 46.6907 L781.513 72.576 L774.06 72.576 L774.06 65.6895 Q771.508 69.8214 767.7 71.8063 Q763.892 73.7508 758.383 73.7508 Q751.415 73.7508 747.283 69.8619 Q743.192 65.9325 743.192 59.3701 Q743.192 51.7138 748.296 47.825 Q753.441 43.9361 763.608 43.9361 L774.06 43.9361 L774.06 43.2069 Q774.06 38.0623 770.657 35.2672 Q767.295 32.4315 761.178 32.4315 Q757.289 32.4315 753.603 33.3632 Q749.916 34.295 746.514 36.1584 L746.514 29.2718 Q750.605 27.692 754.453 26.9223 Q758.302 26.1121 761.948 26.1121 Q771.791 26.1121 776.652 31.2163 Q781.513 36.3204 781.513 46.6907 Z" fill="#000000" fill-rule="nonzero" fill-opacity="1" /><path clip-path="url(#clip560)" d="M829.436 49.9314 Q829.436 41.7081 826.033 37.0496 Q822.671 32.3505 816.756 32.3505 Q810.842 32.3505 807.439 37.0496 Q804.077 41.7081 804.077 49.9314 Q804.077 58.1548 807.439 62.8538 Q810.842 67.5124 816.756 67.5124 Q822.671 67.5124 826.033 62.8538 Q829.436 58.1548 829.436 49.9314 M804.077 34.0924 Q806.427 30.0415 809.991 28.0971 Q813.597 26.1121 818.579 26.1121 Q826.843 26.1121 831.988 32.6746 Q837.173 39.2371 837.173 49.9314 Q837.173 60.6258 831.988 67.1883 Q826.843 73.7508 818.579 73.7508 Q813.597 73.7508 809.991 71.8063 Q806.427 69.8214 804.077 65.7705 L804.077 72.576 L796.583 72.576 L796.583 9.54393 L804.077 9.54393 L804.077 34.0924 Z" fill="#000000" fill-rule="nonzero" fill-opacity="1" /><path clip-path="url(#clip560)" d="M849.528 27.2059 L856.982 27.2059 L856.982 72.576 L849.528 72.576 L849.528 27.2059 M849.528 9.54393 L856.982 9.54393 L856.982 18.9825 L849.528 18.9825 L849.528 9.54393 Z" fill="#000000" fill-rule="nonzero" fill-opacity="1" /><path clip-path="url(#clip560)" d="M872.578 9.54393 L880.031 9.54393 L880.031 72.576 L872.578 72.576 L872.578 9.54393 Z" fill="#000000" fill-rule="nonzero" fill-opacity="1" /><path clip-path="url(#clip560)" d="M895.627 27.2059 L903.081 27.2059 L903.081 72.576 L895.627 72.576 L895.627 27.2059 M895.627 9.54393 L903.081 9.54393 L903.081 18.9825 L895.627 18.9825 L895.627 9.54393 Z" fill="#000000" fill-rule="nonzero" fill-opacity="1" /><path clip-path="url(#clip560)" d="M926.05 14.324 L926.05 27.2059 L941.403 27.2059 L941.403 32.9987 L926.05 32.9987 L926.05 57.6282 Q926.05 63.1779 927.549 64.7578 Q929.088 66.3376 933.746 66.3376 L941.403 66.3376 L941.403 72.576 L933.746 72.576 Q925.118 72.576 921.837 69.3758 Q918.556 66.1351 918.556 57.6282 L918.556 32.9987 L913.087 32.9987 L913.087 27.2059 L918.556 27.2059 L918.556 14.324 L926.05 14.324 Z" fill="#000000" fill-rule="nonzero" fill-opacity="1" /><path clip-path="url(#clip560)" d="M970.083 76.7889 Q966.923 84.8907 963.926 87.3618 Q960.928 89.8329 955.905 89.8329 L949.95 89.8329 L949.95 83.5945 L954.325 83.5945 Q957.404 83.5945 959.105 82.1361 Q960.806 80.6778 962.872 75.2496 L964.209 71.8468 L945.859 27.2059 L953.758 27.2059 L967.936 62.6918 L982.114 27.2059 L990.013 27.2059 L970.083 76.7889 Z" fill="#000000" fill-rule="nonzero" fill-opacity="1" /><path clip-path="url(#clip560)" d="M1035.18 18.8205 L1035.18 65.8515 L1045.07 65.8515 Q1057.58 65.8515 1063.38 60.1802 Q1069.21 54.509 1069.21 42.2752 Q1069.21 30.1225 1063.38 24.4918 Q1057.58 18.8205 1045.07 18.8205 L1035.18 18.8205 M1027 12.096 L1043.81 12.096 Q1061.39 12.096 1069.61 19.4281 Q1077.84 26.7198 1077.84 42.2752 Q1077.84 57.9117 1069.57 65.2439 Q1061.31 72.576 1043.81 72.576 L1027 72.576 L1027 12.096 Z" fill="#000000" fill-rule="nonzero" fill-opacity="1" /><path clip-path="url(#clip560)" d="M1090.56 27.2059 L1098.01 27.2059 L1098.01 72.576 L1090.56 72.576 L1090.56 27.2059 M1090.56 9.54393 L1098.01 9.54393 L1098.01 18.9825 L1090.56 18.9825 L1090.56 9.54393 Z" fill="#000000" fill-rule="nonzero" fill-opacity="1" /><path clip-path="url(#clip560)" d="M1142.53 28.5427 L1142.53 35.5912 Q1139.37 33.9709 1135.97 33.1607 Q1132.56 32.3505 1128.92 32.3505 Q1123.37 32.3505 1120.57 34.0519 Q1117.82 35.7533 1117.82 39.156 Q1117.82 41.7486 1119.8 43.2475 Q1121.79 44.7058 1127.78 46.0426 L1130.34 46.6097 Q1138.28 48.3111 1141.6 51.4303 Q1144.96 54.509 1144.96 60.0587 Q1144.96 66.3781 1139.94 70.0644 Q1134.95 73.7508 1126.2 73.7508 Q1122.56 73.7508 1118.59 73.0216 Q1114.66 72.3329 1110.28 70.9151 L1110.28 63.2184 Q1114.42 65.3654 1118.43 66.4591 Q1122.44 67.5124 1126.37 67.5124 Q1131.63 67.5124 1134.47 65.73 Q1137.3 63.9071 1137.3 60.6258 Q1137.3 57.5877 1135.24 55.9673 Q1133.21 54.3469 1126.29 52.8481 L1123.69 52.2405 Q1116.77 50.7821 1113.69 47.7845 Q1110.61 44.7463 1110.61 39.4801 Q1110.61 33.0797 1115.15 29.5959 Q1119.68 26.1121 1128.03 26.1121 Q1132.16 26.1121 1135.81 26.7198 Q1139.45 27.3274 1142.53 28.5427 Z" fill="#000000" fill-rule="nonzero" fill-opacity="1" /><path clip-path="url(#clip560)" d="M1164.2 14.324 L1164.2 27.2059 L1179.56 27.2059 L1179.56 32.9987 L1164.2 32.9987 L1164.2 57.6282 Q1164.2 63.1779 1165.7 64.7578 Q1167.24 66.3376 1171.9 66.3376 L1179.56 66.3376 L1179.56 72.576 L1171.9 72.576 Q1163.27 72.576 1159.99 69.3758 Q1156.71 66.1351 1156.71 57.6282 L1156.71 32.9987 L1151.24 32.9987 L1151.24 27.2059 L1156.71 27.2059 L1156.71 14.324 L1164.2 14.324 Z" fill="#000000" fill-rule="nonzero" fill-opacity="1" /><path clip-path="url(#clip560)" d="M1215.65 34.1734 Q1214.39 33.4443 1212.89 33.1202 Q1211.44 32.7556 1209.65 32.7556 Q1203.33 32.7556 1199.93 36.8875 Q1196.57 40.9789 1196.57 48.6757 L1196.57 72.576 L1189.07 72.576 L1189.07 27.2059 L1196.57 27.2059 L1196.57 34.2544 Q1198.92 30.1225 1202.69 28.1376 Q1206.45 26.1121 1211.84 26.1121 Q1212.61 26.1121 1213.54 26.2337 Q1214.47 26.3147 1215.61 26.5172 L1215.65 34.1734 Z" fill="#000000" fill-rule="nonzero" fill-opacity="1" /><path clip-path="url(#clip560)" d="M1223.47 27.2059 L1230.92 27.2059 L1230.92 72.576 L1223.47 72.576 L1223.47 27.2059 M1223.47 9.54393 L1230.92 9.54393 L1230.92 18.9825 L1223.47 18.9825 L1223.47 9.54393 Z" fill="#000000" fill-rule="nonzero" fill-opacity="1" /><path clip-path="url(#clip560)" d="M1279.09 49.9314 Q1279.09 41.7081 1275.68 37.0496 Q1272.32 32.3505 1266.41 32.3505 Q1260.49 32.3505 1257.09 37.0496 Q1253.73 41.7081 1253.73 49.9314 Q1253.73 58.1548 1257.09 62.8538 Q1260.49 67.5124 1266.41 67.5124 Q1272.32 67.5124 1275.68 62.8538 Q1279.09 58.1548 1279.09 49.9314 M1253.73 34.0924 Q1256.08 30.0415 1259.64 28.0971 Q1263.25 26.1121 1268.23 26.1121 Q1276.49 26.1121 1281.64 32.6746 Q1286.82 39.2371 1286.82 49.9314 Q1286.82 60.6258 1281.64 67.1883 Q1276.49 73.7508 1268.23 73.7508 Q1263.25 73.7508 1259.64 71.8063 Q1256.08 69.8214 1253.73 65.7705 L1253.73 72.576 L1246.23 72.576 L1246.23 9.54393 L1253.73 9.54393 L1253.73 34.0924 Z" fill="#000000" fill-rule="nonzero" fill-opacity="1" /><path clip-path="url(#clip560)" d="M1298.41 54.671 L1298.41 27.2059 L1305.86 27.2059 L1305.86 54.3874 Q1305.86 60.8284 1308.37 64.0691 Q1310.89 67.2693 1315.91 67.2693 Q1321.94 67.2693 1325.43 63.421 Q1328.95 59.5726 1328.95 52.9291 L1328.95 27.2059 L1336.41 27.2059 L1336.41 72.576 L1328.95 72.576 L1328.95 65.6084 Q1326.24 69.7404 1322.63 71.7658 Q1319.07 73.7508 1314.33 73.7508 Q1306.51 73.7508 1302.46 68.8897 Q1298.41 64.0286 1298.41 54.671 M1317.16 26.1121 L1317.16 26.1121 Z" fill="#000000" fill-rule="nonzero" fill-opacity="1" /><path clip-path="url(#clip560)" d="M1359.13 14.324 L1359.13 27.2059 L1374.48 27.2059 L1374.48 32.9987 L1359.13 32.9987 L1359.13 57.6282 Q1359.13 63.1779 1360.63 64.7578 Q1362.17 66.3376 1366.83 66.3376 L1374.48 66.3376 L1374.48 72.576 L1366.83 72.576 Q1358.2 72.576 1354.92 69.3758 Q1351.64 66.1351 1351.64 57.6282 L1351.64 32.9987 L1346.17 32.9987 L1346.17 27.2059 L1351.64 27.2059 L1351.64 14.324 L1359.13 14.324 Z" fill="#000000" fill-rule="nonzero" fill-opacity="1" /><path clip-path="url(#clip560)" d="M1384.29 27.2059 L1391.74 27.2059 L1391.74 72.576 L1384.29 72.576 L1384.29 27.2059 M1384.29 9.54393 L1391.74 9.54393 L1391.74 18.9825 L1384.29 18.9825 L1384.29 9.54393 Z" fill="#000000" fill-rule="nonzero" fill-opacity="1" /><path clip-path="url(#clip560)" d="M1424.92 32.4315 Q1418.92 32.4315 1415.44 37.1306 Q1411.96 41.7891 1411.96 49.9314 Q1411.96 58.0738 1415.4 62.7728 Q1418.88 67.4314 1424.92 67.4314 Q1430.87 67.4314 1434.36 62.7323 Q1437.84 58.0333 1437.84 49.9314 Q1437.84 41.8701 1434.36 37.1711 Q1430.87 32.4315 1424.92 32.4315 M1424.92 26.1121 Q1434.64 26.1121 1440.19 32.4315 Q1445.74 38.7509 1445.74 49.9314 Q1445.74 61.0714 1440.19 67.4314 Q1434.64 73.7508 1424.92 73.7508 Q1415.16 73.7508 1409.61 67.4314 Q1404.1 61.0714 1404.1 49.9314 Q1404.1 38.7509 1409.61 32.4315 Q1415.16 26.1121 1424.92 26.1121 Z" fill="#000000" fill-rule="nonzero" fill-opacity="1" /><path clip-path="url(#clip560)" d="M1495.81 45.1919 L1495.81 72.576 L1488.36 72.576 L1488.36 45.4349 Q1488.36 38.994 1485.84 35.7938 Q1483.33 32.5936 1478.31 32.5936 Q1472.27 32.5936 1468.79 36.4419 Q1465.31 40.2903 1465.31 46.9338 L1465.31 72.576 L1457.81 72.576 L1457.81 27.2059 L1465.31 27.2059 L1465.31 34.2544 Q1467.98 30.163 1471.58 28.1376 Q1475.23 26.1121 1479.97 26.1121 Q1487.79 26.1121 1491.8 30.9732 Q1495.81 35.7938 1495.81 45.1919 Z" fill="#000000" fill-rule="nonzero" fill-opacity="1" /><path clip-path="url(#clip560)" d="M1554.95 9.62495 Q1549.52 18.942 1546.89 28.0566 Q1544.26 37.1711 1544.26 46.5287 Q1544.26 55.8863 1546.89 65.0818 Q1549.56 74.2369 1554.95 83.5134 L1548.47 83.5134 Q1542.39 73.9938 1539.36 64.7983 Q1536.36 55.6027 1536.36 46.5287 Q1536.36 37.4952 1539.36 28.3401 Q1542.35 19.1851 1548.47 9.62495 L1554.95 9.62495 Z" fill="#000000" fill-rule="nonzero" fill-opacity="1" /><path clip-path="url(#clip560)" d="M1590.03 49.7694 Q1581 49.7694 1577.52 51.8354 Q1574.03 53.9013 1574.03 58.8839 Q1574.03 62.8538 1576.62 65.2034 Q1579.26 67.5124 1583.75 67.5124 Q1589.95 67.5124 1593.68 63.1374 Q1597.45 58.7219 1597.45 51.4303 L1597.45 49.7694 L1590.03 49.7694 M1604.9 46.6907 L1604.9 72.576 L1597.45 72.576 L1597.45 65.6895 Q1594.89 69.8214 1591.09 71.8063 Q1587.28 73.7508 1581.77 73.7508 Q1574.8 73.7508 1570.67 69.8619 Q1566.58 65.9325 1566.58 59.3701 Q1566.58 51.7138 1571.68 47.825 Q1576.83 43.9361 1587 43.9361 L1597.45 43.9361 L1597.45 43.2069 Q1597.45 38.0623 1594.04 35.2672 Q1590.68 32.4315 1584.56 32.4315 Q1580.68 32.4315 1576.99 33.3632 Q1573.3 34.295 1569.9 36.1584 L1569.9 29.2718 Q1573.99 27.692 1577.84 26.9223 Q1581.69 26.1121 1585.33 26.1121 Q1595.18 26.1121 1600.04 31.2163 Q1604.9 36.3204 1604.9 46.6907 Z" fill="#000000" fill-rule="nonzero" fill-opacity="1" /><path clip-path="url(#clip560)" d="M1619.08 9.62495 L1625.56 9.62495 Q1631.64 19.1851 1634.63 28.3401 Q1637.67 37.4952 1637.67 46.5287 Q1637.67 55.6027 1634.63 64.7983 Q1631.64 73.9938 1625.56 83.5134 L1619.08 83.5134 Q1624.47 74.2369 1627.1 65.0818 Q1629.77 55.8863 1629.77 46.5287 Q1629.77 37.1711 1627.1 28.0566 Q1624.47 18.942 1619.08 9.62495 Z" fill="#000000" fill-rule="nonzero" fill-opacity="1" /><polyline clip-path="url(#clip562)" style="stroke:#000003; stroke-linecap:round; stroke-linejoin:round; stroke-width:4; stroke-opacity:1; fill:none" points="496.716,398.336 497.209,401.272 498.955,412.916 502.274,422.601 503.799,427.496 507.338,434.626 510.775,442.076 512.403,444.656 517.467,453.082 519.503,456.656 522.531,460.859 527.596,468.131 529.673,471.237 532.66,474.984 537.725,481.479 541.02,485.817 542.789,487.868 547.853,493.857 552.918,499.877 553.34,500.397 557.982,505.594 563.047,511.236 566.375,514.977 568.111,516.826 573.175,522.271 578.24,527.63 580.031,529.557 583.304,532.986 588.369,538.239 593.433,543.372 594.171,544.137 598.497,548.623 603.562,553.731 608.626,558.683 608.66,558.717 613.691,563.908 618.755,568.909 623.348,573.298 623.82,573.775 628.884,578.967 633.948,583.892 638.193,587.878 639.013,588.713 644.077,593.895 649.142,598.77 653.119,602.458 654.206,603.574 659.27,608.768 664.335,613.613 668.06,617.038 669.399,618.43 674.464,623.65 679.528,628.477 682.96,631.618 684.592,633.341 689.657,638.593 694.721,643.407 697.772,646.198 699.786,648.361 704.85,653.644 709.914,658.443 712.459,660.779 714.979,663.539 720.043,668.841 725.108,673.614 726.995,675.359 730.172,678.917 735.237,684.217 740.301,688.945 741.365,689.939 745.365,694.529 750.43,699.793 755.494,704.449 755.568,704.519 760.559,710.397 765.623,715.583 769.392,719.099 770.687,720.645 775.752,726.53 780.816,731.586 783.014,733.679 785.881,737.202 790.945,742.917 796.009,747.787 796.494,748.26 801.074,754.064 806.138,759.531 809.554,762.84 811.203,764.967 816.267,771.181 821.331,776.322 822.43,777.42 826.396,782.708 831.46,788.48 834.988,792 836.525,794.092 841.589,800.622 846.654,805.87 847.338,806.58 851.718,812.75 856.782,818.58 859.262,821.16 861.847,824.883 866.911,831.374 871.084,835.74 871.976,837.055 877.04,844.279 882.104,849.798 882.581,850.321 887.169,857.333 892.233,863.31 893.665,864.901 897.298,870.586 902.362,877.018 904.549,879.481 907.426,884.096 912.491,890.953 915.207,894.061 917.555,897.921 922.62,905.145 925.621,908.641 927.684,912.117 932.749,919.615 935.783,923.221 937.813,926.726 942.877,934.374 945.699,937.802 947.942,941.768 953.006,949.414 955.392,952.382 958.071,957.23 963.135,964.708 964.902,966.962 968.199,973.068 973.264,980.212 974.28,981.542 978.328,989.203 983.393,995.864 983.585,996.122 988.457,1005.53 992.388,1010.7 993.521,1012.92 998.586,1021.93 1001.07,1025.28 1003.65,1030.41 1008.71,1038.3 1009.85,1039.86 1013.78,1047.79 1018.72,1054.44 1018.84,1054.69 1023.91,1064.9 1026.93,1069.02 1028.97,1073.22 1034.04,1081.65 1035.46,1083.6 1039.1,1091.1 1044.17,1097.98 1044.31,1098.18 1049.23,1108.28 1052.67,1112.76 1054.29,1116.1 1059.36,1124.77 1061.41,1127.34 1064.42,1133.42 1069.49,1140.58 1070.63,1141.92 1074.55,1149.58 1079.62,1155.71 1080.37,1156.5 1084.68,1164.52 1089.75,1170.07 1090.87,1171.08 1094.81,1177.86 1099.87,1183.33 1103.16,1185.66 1104.94,1188.37 1110,1194.43 1115.07,1197.96 1120.13,1200.11 1120.53,1200.24 1125.2,1204.34 1130.26,1206.96 1135.32,1208.34 1140.39,1208.76 1145.45,1208.34 1150.52,1206.96 1155.58,1204.34 1160.25,1200.24 1160.65,1200.11 1165.71,1197.96 1170.78,1194.43 1175.84,1188.37 1177.62,1185.66 1180.9,1183.33 1185.97,1177.86 1189.91,1171.08 1191.03,1170.07 1196.1,1164.52 1200.41,1156.5 1201.16,1155.71 1206.23,1149.58 1210.14,1141.92 1211.29,1140.58 1216.36,1133.42 1219.37,1127.34 1221.42,1124.77 1226.48,1116.1 1228.11,1112.76 1231.55,1108.28 1236.47,1098.18 1236.61,1097.98 1241.68,1091.1 1245.32,1083.6 1246.74,1081.65 1251.81,1073.22 1253.85,1069.02 1256.87,1064.9 1261.94,1054.69 1262.06,1054.44 1267,1047.79 1270.93,1039.86 1272.06,1038.3 1277.13,1030.41 1279.71,1025.28 1282.19,1021.93 1287.26,1012.92 1288.39,1010.7 1292.32,1005.53 1297.19,996.122 1297.39,995.864 1302.45,989.203 1306.5,981.542 1307.51,980.212 1312.58,973.068 1315.88,966.962 1317.64,964.708 1322.71,957.23 1325.39,952.382 1327.77,949.414 1332.84,941.768 1335.08,937.802 1337.9,934.374 1342.97,926.726 1345,923.221 1348.03,919.615 1353.09,912.117 1355.16,908.641 1358.16,905.145 1363.22,897.921 1365.57,894.061 1368.29,890.953 1373.35,884.096 1376.23,879.481 1378.42,877.018 1383.48,870.586 1387.11,864.901 1388.55,863.31 1393.61,857.333 1398.2,850.321 1398.67,849.798 1403.74,844.279 1408.8,837.055 1409.69,835.74 1413.87,831.374 1418.93,824.883 1421.52,821.16 1424,818.58 1429.06,812.75 1433.44,806.58 1434.13,805.87 1439.19,800.622 1444.25,794.092 1445.79,792 1449.32,788.48 1454.38,782.708 1458.35,777.42 1459.45,776.322 1464.51,771.181 1469.58,764.967 1471.23,762.84 1474.64,759.531 1479.7,754.064 1484.29,748.26 1484.77,747.787 1489.83,742.917 1494.9,737.202 1497.76,733.679 1499.96,731.586 1505.03,726.53 1510.09,720.645 1511.39,719.099 1515.16,715.583 1520.22,710.397 1525.21,704.519 1525.28,704.449 1530.35,699.793 1535.41,694.529 1539.41,689.939 1540.48,688.945 1545.54,684.217 1550.61,678.917 1553.78,675.359 1555.67,673.614 1560.74,668.841 1565.8,663.539 1568.32,660.779 1570.86,658.443 1575.93,653.644 1580.99,648.361 1583.01,646.198 1586.06,643.407 1591.12,638.593 1596.19,633.341 1597.82,631.618 1601.25,628.477 1606.31,623.65 1611.38,618.43 1612.72,617.038 1616.44,613.613 1621.51,608.768 1626.57,603.574 1627.66,602.458 1631.64,598.77 1636.7,593.895 1641.77,588.713 1642.59,587.878 1646.83,583.892 1651.89,578.967 1656.96,573.775 1657.43,573.298 1662.02,568.909 1667.09,563.908 1672.12,558.717 1672.15,558.683 1677.22,553.731 1682.28,548.623 1686.61,544.137 1687.35,543.372 1692.41,538.239 1697.47,532.986 1700.75,529.557 1702.54,527.63 1707.6,522.271 1712.67,516.826 1714.4,514.977 1717.73,511.236 1722.8,505.594 1727.44,500.397 1727.86,499.877 1732.93,493.857 1737.99,487.868 1739.76,485.817 1743.05,481.479 1748.12,474.984 1751.11,471.237 1753.18,468.131 1758.25,460.859 1761.28,456.656 1763.31,453.082 1768.38,444.656 1770,442.076 1773.44,434.626 1776.98,427.496 1778.5,422.601 1781.82,412.916 1783.57,401.272 1784.06,398.336 1783.57,390.125 1783.16,383.756 1778.5,369.517 1778.38,369.175 1773.44,361.136 1768.84,354.595 1768.38,354.093 1763.31,348.877 1758.25,344.163 1753.34,340.015 1753.18,339.902 1748.12,336.267 1743.05,332.901 1737.99,329.781 1732.93,326.886 1730.25,325.435 1727.86,324.185 1722.8,321.637 1717.73,319.24 1712.67,316.982 1707.6,314.855 1702.54,312.85 1697.47,310.959 1697.19,310.855 1692.41,309.046 1687.35,307.219 1682.28,305.479 1677.22,303.821 1672.15,302.242 1667.09,300.738 1662.02,299.303 1656.96,297.935 1651.89,296.63 1650.48,296.275 1646.83,295.268 1641.77,293.917 1636.7,292.62 1631.64,291.375 1626.57,290.178 1621.51,289.028 1616.44,287.923 1611.38,286.86 1606.31,285.839 1601.25,284.857 1596.19,283.912 1591.12,283.003 1586.06,282.128 1583.47,281.694 1580.99,281.213 1575.93,280.254 1570.86,279.326 1565.8,278.43 1560.74,277.564 1555.67,276.726 1550.61,275.916 1545.54,275.132 1540.48,274.374 1535.41,273.641 1530.35,272.932 1525.28,272.246 1520.22,271.582 1515.16,270.939 1510.09,270.317 1505.03,269.715 1499.96,269.133 1494.9,268.569 1489.83,268.023 1484.77,267.495 1481.02,267.114 1479.7,266.953 1474.64,266.345 1469.58,265.754 1464.51,265.18 1459.45,264.623 1454.38,264.083 1449.32,263.559 1444.25,263.05 1439.19,262.556 1434.13,262.077 1429.06,261.612 1424,261.161 1418.93,260.723 1413.87,260.299 1408.8,259.887 1403.74,259.488 1398.67,259.1 1393.61,258.725 1388.55,258.361 1383.48,258.009 1378.42,257.667 1373.35,257.336 1368.29,257.015 1363.22,256.705 1358.16,256.404 1353.09,256.114 1348.03,255.832 1342.97,255.56 1337.9,255.298 1332.84,255.043 1327.77,254.798 1322.71,254.561 1317.64,254.333 1312.58,254.112 1307.51,253.9 1302.45,253.696 1297.39,253.499 1292.32,253.31 1287.26,253.128 1282.19,252.954 1277.13,252.786 1272.06,252.626 1269.04,252.534 1267,252.456 1261.94,252.269 1256.87,252.091 1251.81,251.921 1246.74,251.76 1241.68,251.606 1236.61,251.461 1231.55,251.323 1226.48,251.194 1221.42,251.072 1216.36,250.958 1211.29,250.852 1206.23,250.753 1201.16,250.662 1196.1,250.578 1191.03,250.502 1185.97,250.433 1180.9,250.371 1175.84,250.317 1170.78,250.27 1165.71,250.23 1160.65,250.198 1155.58,250.173 1150.52,250.155 1145.45,250.144 1140.39,250.14 1135.32,250.144 1130.26,250.155 1125.2,250.173 1120.13,250.198 1115.07,250.23 1110,250.27 1104.94,250.317 1099.87,250.371 1094.81,250.433 1089.75,250.502 1084.68,250.578 1079.62,250.662 1074.55,250.753 1069.49,250.852 1064.42,250.958 1059.36,251.072 1054.29,251.194 1049.23,251.323 1044.17,251.461 1039.1,251.606 1034.04,251.76 1028.97,251.921 1023.91,252.091 1018.84,252.269 1013.78,252.456 1011.74,252.534 1008.71,252.626 1003.65,252.786 998.586,252.954 993.521,253.128 988.457,253.31 983.393,253.499 978.328,253.696 973.264,253.9 968.199,254.112 963.135,254.333 958.071,254.561 953.006,254.798 947.942,255.043 942.877,255.298 937.813,255.56 932.749,255.832 927.684,256.114 922.62,256.404 917.555,256.705 912.491,257.015 907.426,257.336 902.362,257.667 897.298,258.009 892.233,258.361 887.169,258.725 882.104,259.1 877.04,259.488 871.976,259.887 866.911,260.299 861.847,260.723 856.782,261.161 851.718,261.612 846.654,262.077 841.589,262.556 836.525,263.05 831.46,263.559 826.396,264.083 821.331,264.623 816.267,265.18 811.203,265.754 806.138,266.345 801.074,266.953 799.763,267.114 796.009,267.495 790.945,268.023 785.881,268.569 780.816,269.133 775.752,269.715 770.687,270.317 765.623,270.939 760.559,271.582 755.494,272.246 750.43,272.932 745.365,273.641 740.301,274.374 735.237,275.132 730.172,275.916 725.108,276.726 720.043,277.564 714.979,278.43 709.914,279.326 704.85,280.254 699.786,281.213 697.305,281.694 694.721,282.128 689.657,283.003 684.592,283.912 679.528,284.857 674.464,285.839 669.399,286.86 664.335,287.923 659.27,289.028 654.206,290.178 649.142,291.375 644.077,292.62 639.013,293.917 633.948,295.268 630.3,296.275 628.884,296.63 623.82,297.935 618.755,299.303 613.691,300.738 608.626,302.242 603.562,303.821 598.497,305.479 593.433,307.219 588.369,309.046 583.591,310.855 583.304,310.959 578.24,312.85 573.175,314.855 568.111,316.982 563.047,319.24 557.982,321.637 552.918,324.185 550.533,325.435 547.853,326.886 542.789,329.781 537.725,332.901 532.66,336.267 527.596,339.902 527.443,340.015 522.531,344.163 517.467,348.877 512.403,354.093 511.937,354.595 507.338,361.136 502.398,369.175 502.274,369.517 497.623,383.756 497.209,390.125 496.716,398.336 "/>
<polyline clip-path="url(#clip562)" style="stroke:#000003; stroke-linecap:round; stroke-linejoin:round; stroke-width:4; stroke-opacity:1; fill:none" points="743.21,544.137 745.365,554.997 746.021,558.717 750.26,573.298 750.43,573.722 755.494,587.374 755.666,587.878 760.559,598.951 762.009,602.458 765.623,609.639 769.18,617.038 770.687,619.748 775.752,629.178 777.005,631.618 780.816,638.215 785.377,646.198 785.881,647.014 790.945,655.48 794.101,660.779 796.009,663.812 801.074,671.928 803.189,675.359 806.138,679.989 811.203,687.82 812.545,689.939 816.267,695.737 821.331,703.338 822.096,704.519 826.396,711.198 831.46,718.613 831.78,719.099 836.525,726.475 841.541,733.679 841.589,733.752 846.654,741.651 851.292,748.26 851.718,748.913 856.782,756.788 861.048,762.84 861.847,764.078 866.911,771.937 870.778,777.42 871.976,779.299 877.04,787.14 880.46,792 882.104,794.621 887.169,802.428 890.075,806.58 892.233,810.077 897.298,817.825 899.613,821.16 902.362,825.696 907.426,833.346 909.071,835.74 912.491,841.493 917.555,848.996 918.452,850.321 922.62,857.472 927.684,864.773 927.77,864.901 932.749,873.626 936.759,879.481 937.813,881.331 942.877,889.932 945.651,894.061 947.942,898.173 953.006,906.354 954.51,908.641 958.071,915.175 963.135,922.846 963.376,923.221 968.199,932.268 971.835,937.802 973.264,940.495 978.328,949.373 980.258,952.382 983.393,958.414 988.457,966.407 988.804,966.962 993.521,976.219 996.924,981.542 998.586,984.819 1003.65,993.803 1005.1,996.122 1008.71,1003.37 1013.4,1010.7 1013.78,1011.46 1018.84,1021.47 1021.24,1025.28 1023.91,1030.71 1028.97,1039.05 1029.48,1039.86 1034.04,1049.2 1037.4,1054.44 1039.1,1057.92 1044.17,1066.93 1045.52,1069.02 1049.23,1076.59 1053.96,1083.6 1054.29,1084.29 1059.36,1094.21 1062.14,1098.18 1064.42,1102.74 1069.49,1110.85 1070.91,1112.76 1074.55,1119.77 1079.62,1126.56 1080.26,1127.34 1084.68,1135.39 1089.75,1141.3 1090.34,1141.92 1094.81,1149.39 1099.87,1154.83 1101.87,1156.5 1104.94,1161 1110,1166.42 1115.07,1169.87 1117.51,1171.08 1120.13,1173.76 1125.2,1177.45 1130.26,1179.69 1135.32,1180.89 1140.39,1181.28 1145.45,1180.89 1150.52,1179.69 1155.58,1177.45 1160.65,1173.76 1163.27,1171.08 1165.71,1169.87 1170.78,1166.42 1175.84,1161 1178.91,1156.5 1180.9,1154.83 1185.97,1149.39 1190.44,1141.92 1191.03,1141.3 1196.1,1135.39 1200.52,1127.34 1201.16,1126.56 1206.23,1119.77 1209.87,1112.76 1211.29,1110.85 1216.36,1102.74 1218.64,1098.18 1221.42,1094.21 1226.48,1084.29 1226.82,1083.6 1231.55,1076.59 1235.26,1069.02 1236.61,1066.93 1241.68,1057.92 1243.38,1054.44 1246.74,1049.2 1251.3,1039.86 1251.81,1039.05 1256.87,1030.71 1259.53,1025.28 1261.94,1021.47 1267,1011.46 1267.37,1010.7 1272.06,1003.37 1275.68,996.122 1277.13,993.803 1282.19,984.819 1283.85,981.542 1287.26,976.219 1291.97,966.962 1292.32,966.407 1297.39,958.414 1300.52,952.382 1302.45,949.373 1307.51,940.495 1308.94,937.802 1312.58,932.268 1317.4,923.221 1317.64,922.846 1322.71,915.175 1326.27,908.641 1327.77,906.354 1332.84,898.173 1335.13,894.061 1337.9,889.932 1342.97,881.331 1344.02,879.481 1348.03,873.626 1353.01,864.901 1353.09,864.773 1358.16,857.472 1362.33,850.321 1363.22,848.996 1368.29,841.493 1371.71,835.74 1373.35,833.346 1378.42,825.696 1381.17,821.16 1383.48,817.825 1388.55,810.077 1390.7,806.58 1393.61,802.428 1398.67,794.621 1400.32,792 1403.74,787.14 1408.8,779.299 1410,777.42 1413.87,771.937 1418.93,764.078 1419.73,762.84 1424,756.788 1429.06,748.913 1429.49,748.26 1434.13,741.651 1439.19,733.752 1439.24,733.679 1444.25,726.475 1449,719.099 1449.32,718.613 1454.38,711.198 1458.68,704.519 1459.45,703.338 1464.51,695.737 1468.23,689.939 1469.58,687.82 1474.64,679.989 1477.59,675.359 1479.7,671.928 1484.77,663.812 1486.68,660.779 1489.83,655.48 1494.9,647.014 1495.4,646.198 1499.96,638.215 1503.77,631.618 1505.03,629.178 1510.09,619.748 1511.6,617.038 1515.16,609.639 1518.77,602.458 1520.22,598.951 1525.11,587.878 1525.28,587.374 1530.35,573.722 1530.52,573.298 1534.76,558.717 1535.41,554.997 1537.57,544.137 1538.62,529.557 1537.55,514.977 1535.41,506.137 1533.88,500.397 1530.35,492.447 1527,485.817 1525.28,483.241 1520.22,476.263 1516.06,471.237 1515.16,470.28 1510.09,465.23 1505.03,460.718 1499.96,456.679 1499.93,456.656 1494.9,452.944 1489.83,449.531 1484.77,446.409 1479.7,443.549 1476.92,442.076 1474.64,440.827 1469.58,438.188 1464.51,435.736 1459.45,433.455 1454.38,431.332 1449.32,429.355 1444.25,427.512 1444.21,427.496 1439.19,425.548 1434.13,423.698 1429.06,421.956 1424,420.316 1418.93,418.771 1413.87,417.314 1408.8,415.94 1403.74,414.644 1398.67,413.421 1396.49,412.916 1393.61,412.142 1388.55,410.837 1383.48,409.598 1378.42,408.42 1373.35,407.301 1368.29,406.237 1363.22,405.226 1358.16,404.265 1353.09,403.35 1348.03,402.481 1342.97,401.655 1337.9,400.869 1332.84,400.121 1327.77,399.411 1322.71,398.735 1319.58,398.336 1317.64,398.035 1312.58,397.277 1307.51,396.555 1302.45,395.867 1297.39,395.212 1292.32,394.588 1287.26,393.994 1282.19,393.429 1277.13,392.892 1272.06,392.383 1267,391.899 1261.94,391.44 1256.87,391.006 1251.81,390.596 1246.74,390.209 1241.68,389.843 1236.61,389.5 1231.55,389.177 1226.48,388.874 1221.42,388.592 1216.36,388.329 1211.29,388.085 1206.23,387.859 1201.16,387.652 1196.1,387.463 1191.03,387.291 1185.97,387.136 1180.9,386.998 1175.84,386.877 1170.78,386.772 1165.71,386.684 1160.65,386.612 1155.58,386.556 1150.52,386.517 1145.45,386.493 1140.39,386.485 1135.32,386.493 1130.26,386.517 1125.2,386.556 1120.13,386.612 1115.07,386.684 1110,386.772 1104.94,386.877 1099.87,386.998 1094.81,387.136 1089.75,387.291 1084.68,387.463 1079.62,387.652 1074.55,387.859 1069.49,388.085 1064.42,388.329 1059.36,388.592 1054.29,388.874 1049.23,389.177 1044.17,389.5 1039.1,389.843 1034.04,390.209 1028.97,390.596 1023.91,391.006 1018.84,391.44 1013.78,391.899 1008.71,392.383 1003.65,392.892 998.586,393.429 993.521,393.994 988.457,394.588 983.393,395.212 978.328,395.867 973.264,396.555 968.199,397.277 963.135,398.035 961.197,398.336 958.071,398.735 953.006,399.411 947.942,400.121 942.877,400.869 937.813,401.655 932.749,402.481 927.684,403.35 922.62,404.265 917.555,405.226 912.491,406.237 907.426,407.301 902.362,408.42 897.298,409.598 892.233,410.837 887.169,412.142 884.286,412.916 882.104,413.421 877.04,414.644 871.976,415.94 866.911,417.314 861.847,418.771 856.782,420.316 851.718,421.956 846.654,423.698 841.589,425.548 836.569,427.496 836.525,427.512 831.46,429.355 826.396,431.332 821.331,433.455 816.267,435.736 811.203,438.188 806.138,440.827 803.858,442.076 801.074,443.549 796.009,446.409 790.945,449.531 785.881,452.944 780.846,456.656 780.816,456.679 775.752,460.718 770.687,465.23 765.623,470.28 764.717,471.237 760.559,476.263 755.494,483.241 753.783,485.817 750.43,492.447 746.898,500.397 745.365,506.137 743.228,514.977 742.16,529.557 743.21,544.137 "/>
<polyline clip-path="url(#clip562)" style="stroke:#000006; stroke-linecap:round; stroke-linejoin:round; stroke-width:4; stroke-opacity:1; fill:none" points="902.284,660.779 902.362,663.152 902.703,675.359 904.3,689.939 906.964,704.519 907.426,706.307 910.376,719.099 912.491,726.185 914.51,733.679 917.555,742.815 919.216,748.26 922.62,757.618 924.381,762.84 927.684,771.306 929.928,777.42 932.749,784.253 935.801,792 937.813,796.656 941.97,806.58 942.877,808.604 947.942,820.201 948.34,821.16 953.006,831.698 954.77,835.74 958.071,842.991 961.411,850.321 963.135,854.024 968.199,864.744 968.269,864.901 973.264,875.821 974.966,879.481 978.328,886.71 981.863,894.061 983.393,897.307 988.457,907.748 988.878,908.641 993.521,918.675 995.73,923.221 998.586,929.328 1002.82,937.802 1003.65,939.564 1008.71,950.143 1009.81,952.382 1013.78,960.916 1016.83,966.962 1018.84,971.259 1023.91,981.155 1024.1,981.542 1028.97,992.035 1031.08,996.122 1034.04,1002.44 1038.43,1010.7 1039.1,1012.12 1044.17,1022.5 1045.66,1025.28 1049.23,1032.8 1053.17,1039.86 1054.29,1042.18 1059.36,1051.96 1060.79,1054.44 1064.42,1061.8 1068.84,1069.02 1069.49,1070.31 1074.55,1079.79 1077.07,1083.6 1079.62,1088.41 1084.68,1096.26 1086.11,1098.18 1089.75,1104.55 1094.81,1111.22 1096.17,1112.76 1099.87,1118.52 1104.94,1124.4 1108.32,1127.34 1110,1129.54 1115.07,1134.92 1120.13,1138.59 1125.2,1141.07 1127.77,1141.92 1130.26,1143.39 1135.32,1145.14 1140.39,1145.7 1145.45,1145.14 1150.52,1143.39 1153.01,1141.92 1155.58,1141.07 1160.65,1138.59 1165.71,1134.92 1170.78,1129.54 1172.46,1127.34 1175.84,1124.4 1180.9,1118.52 1184.6,1112.76 1185.97,1111.22 1191.03,1104.55 1194.67,1098.18 1196.1,1096.26 1201.16,1088.41 1203.71,1083.6 1206.23,1079.79 1211.29,1070.31 1211.94,1069.02 1216.36,1061.8 1219.99,1054.44 1221.42,1051.96 1226.48,1042.18 1227.6,1039.86 1231.55,1032.8 1235.12,1025.28 1236.61,1022.5 1241.68,1012.12 1242.35,1010.7 1246.74,1002.44 1249.7,996.122 1251.81,992.035 1256.68,981.542 1256.87,981.155 1261.94,971.259 1263.95,966.962 1267,960.916 1270.97,952.382 1272.06,950.143 1277.13,939.564 1277.96,937.802 1282.19,929.328 1285.05,923.221 1287.26,918.675 1291.9,908.641 1292.32,907.748 1297.39,897.307 1298.92,894.061 1302.45,886.71 1305.81,879.481 1307.51,875.821 1312.51,864.901 1312.58,864.744 1317.64,854.024 1319.37,850.321 1322.71,842.991 1326.01,835.74 1327.77,831.698 1332.44,821.16 1332.84,820.201 1337.9,808.604 1338.81,806.58 1342.97,796.656 1344.98,792 1348.03,784.253 1350.85,777.42 1353.09,771.306 1356.4,762.84 1358.16,757.618 1361.56,748.26 1363.22,742.815 1366.27,733.679 1368.29,726.185 1370.4,719.099 1373.35,706.307 1373.81,704.519 1376.48,689.939 1378.08,675.359 1378.42,663.152 1378.49,660.779 1378.42,659.611 1377.47,646.198 1374.62,631.618 1373.35,627.68 1369.5,617.038 1368.29,614.538 1363.22,605.21 1361.52,602.458 1358.16,597.725 1353.09,591.462 1349.8,587.878 1348.03,586.046 1342.97,581.21 1337.9,576.959 1332.96,573.298 1332.84,573.205 1327.77,569.549 1322.71,566.262 1317.64,563.303 1312.58,560.635 1308.59,558.717 1307.51,558.151 1302.45,555.627 1297.39,553.318 1292.32,551.204 1287.26,549.267 1282.19,547.491 1277.13,545.862 1272.06,544.366 1271.24,544.137 1267,542.761 1261.94,541.235 1256.87,539.824 1251.81,538.519 1246.74,537.315 1241.68,536.202 1236.61,535.176 1231.55,534.231 1226.48,533.361 1221.42,532.562 1216.36,531.829 1211.29,531.16 1206.23,530.55 1201.16,529.996 1196.72,529.557 1196.1,529.481 1191.03,528.921 1185.97,528.42 1180.9,527.978 1175.84,527.592 1170.78,527.26 1165.71,526.981 1160.65,526.755 1155.58,526.58 1150.52,526.455 1145.45,526.381 1140.39,526.356 1135.32,526.381 1130.26,526.455 1125.2,526.58 1120.13,526.755 1115.07,526.981 1110,527.26 1104.94,527.592 1099.87,527.978 1094.81,528.42 1089.75,528.921 1084.68,529.481 1084.05,529.557 1079.62,529.996 1074.55,530.55 1069.49,531.16 1064.42,531.829 1059.36,532.562 1054.29,533.361 1049.23,534.231 1044.17,535.176 1039.1,536.202 1034.04,537.315 1028.97,538.519 1023.91,539.824 1018.84,541.235 1013.78,542.761 1009.54,544.137 1008.71,544.366 1003.65,545.862 998.586,547.491 993.521,549.267 988.457,551.204 983.393,553.318 978.328,555.627 973.264,558.151 972.187,558.717 968.199,560.635 963.135,563.303 958.071,566.262 953.006,569.549 947.942,573.205 947.82,573.298 942.877,576.959 937.813,581.21 932.749,586.046 930.978,587.878 927.684,591.462 922.62,597.725 919.255,602.458 917.555,605.21 912.491,614.538 911.278,617.038 907.426,627.68 906.162,631.618 903.308,646.198 902.362,659.611 902.284,660.779 "/>
<polyline clip-path="url(#clip562)" style="stroke:#06041b; stroke-linecap:round; stroke-linejoin:round; stroke-width:4; stroke-opacity:1; fill:none" points="983.231,762.84 983.393,765.169 984.112,777.42 985.843,792 988.397,806.58 988.457,806.836 991.413,821.16 993.521,829.278 995.017,835.74 998.586,848.351 999.087,850.321 1003.51,864.901 1003.65,865.31 1008.19,879.481 1008.71,880.935 1013.17,894.061 1013.78,895.699 1018.4,908.641 1018.84,909.786 1023.87,923.221 1023.91,923.305 1028.97,936.49 1029.46,937.802 1034.04,949.345 1035.22,952.382 1039.1,961.872 1041.19,966.962 1044.17,974.044 1047.39,981.542 1049.23,985.799 1053.89,996.122 1054.29,997.027 1059.36,1008.33 1060.46,1010.7 1064.42,1019.39 1067.35,1025.28 1069.49,1029.79 1074.55,1039.42 1074.79,1039.86 1079.62,1049.53 1082.49,1054.44 1084.68,1058.61 1089.75,1067.02 1091.09,1069.02 1094.81,1075.4 1099.87,1082.32 1100.94,1083.6 1104.94,1089.49 1110,1095.23 1113.35,1098.18 1115.07,1100.18 1120.13,1104.91 1125.2,1108.22 1130.26,1110.4 1135.32,1111.65 1140.39,1112.06 1145.45,1111.65 1150.52,1110.4 1155.58,1108.22 1160.65,1104.91 1165.71,1100.18 1167.43,1098.18 1170.78,1095.23 1175.84,1089.49 1179.84,1083.6 1180.9,1082.32 1185.97,1075.4 1189.68,1069.02 1191.03,1067.02 1196.1,1058.61 1198.29,1054.44 1201.16,1049.53 1205.99,1039.86 1206.23,1039.42 1211.29,1029.79 1213.42,1025.28 1216.36,1019.39 1220.32,1010.7 1221.42,1008.33 1226.48,997.027 1226.89,996.122 1231.55,985.799 1233.39,981.542 1236.61,974.044 1239.59,966.962 1241.68,961.872 1245.56,952.382 1246.74,949.345 1251.32,937.802 1251.81,936.49 1256.87,923.305 1256.9,923.221 1261.94,909.786 1262.38,908.641 1267,895.699 1267.61,894.061 1272.06,880.935 1272.59,879.481 1277.13,865.31 1277.27,864.901 1281.69,850.321 1282.19,848.351 1285.76,835.74 1287.26,829.278 1289.37,821.16 1292.32,806.836 1292.38,806.58 1294.94,792 1296.67,777.42 1297.39,765.169 1297.55,762.84 1297.4,748.26 1297.39,748.119 1296,733.679 1292.97,719.099 1292.32,717.004 1287.93,704.519 1287.26,703.045 1282.19,693.162 1280.26,689.939 1277.13,685.285 1272.06,678.783 1268.98,675.359 1267,673.229 1261.94,668.304 1256.87,664.068 1252.35,660.779 1251.81,660.368 1246.74,656.791 1241.68,653.641 1236.61,650.862 1231.55,648.409 1226.48,646.24 1226.38,646.198 1221.42,643.99 1216.36,641.974 1211.29,640.178 1206.23,638.578 1201.16,637.157 1196.1,635.899 1191.03,634.79 1185.97,633.818 1180.9,632.973 1175.84,632.247 1170.78,631.631 1170.65,631.618 1165.71,631.009 1160.65,630.505 1155.58,630.117 1150.52,629.843 1145.45,629.679 1140.39,629.624 1135.32,629.679 1130.26,629.843 1125.2,630.117 1120.13,630.505 1115.07,631.009 1110.13,631.618 1110,631.631 1104.94,632.247 1099.87,632.973 1094.81,633.818 1089.75,634.79 1084.68,635.899 1079.62,637.157 1074.55,638.578 1069.49,640.178 1064.42,641.974 1059.36,643.99 1054.4,646.198 1054.29,646.24 1049.23,648.409 1044.17,650.862 1039.1,653.641 1034.04,656.791 1028.97,660.368 1028.43,660.779 1023.91,664.068 1018.84,668.304 1013.78,673.229 1011.8,675.359 1008.71,678.783 1003.65,685.285 1000.52,689.939 998.586,693.162 993.521,703.045 992.848,704.519 988.457,717.004 987.809,719.099 984.775,733.679 983.393,748.119 983.38,748.26 983.231,762.84 "/>
<polyline clip-path="url(#clip562)" style="stroke:#160b39; stroke-linecap:round; stroke-linejoin:round; stroke-width:4; stroke-opacity:1; fill:none" points="1013.47,806.58 1013.78,810.415 1014.5,821.16 1016.29,835.74 1018.84,850.312 1018.84,850.321 1021.8,864.901 1023.91,873.211 1025.33,879.481 1028.97,892.71 1029.31,894.061 1033.6,908.641 1034.04,909.952 1038.19,923.221 1039.1,925.808 1043.11,937.802 1044.17,940.678 1048.32,952.382 1049.23,954.735 1053.85,966.962 1054.29,968.069 1059.36,980.805 1059.65,981.542 1064.42,993.138 1065.68,996.122 1069.49,1004.92 1072.11,1010.7 1074.55,1016.05 1079.11,1025.28 1079.62,1026.34 1084.68,1036.48 1086.55,1039.86 1089.75,1045.93 1094.81,1054.14 1095.01,1054.44 1099.87,1062.55 1104.83,1069.02 1104.94,1069.18 1110,1076.08 1115.07,1081.28 1117.94,1083.6 1120.13,1085.8 1125.2,1089.69 1130.26,1092.28 1135.32,1093.78 1140.39,1094.26 1145.45,1093.78 1150.52,1092.28 1155.58,1089.69 1160.65,1085.8 1162.84,1083.6 1165.71,1081.28 1170.78,1076.08 1175.84,1069.18 1175.95,1069.02 1180.9,1062.55 1185.77,1054.44 1185.97,1054.14 1191.03,1045.93 1194.22,1039.86 1196.1,1036.48 1201.16,1026.34 1201.67,1025.28 1206.23,1016.05 1208.67,1010.7 1211.29,1004.92 1215.1,996.122 1216.36,993.138 1221.13,981.542 1221.42,980.805 1226.48,968.069 1226.93,966.962 1231.55,954.735 1232.45,952.382 1236.61,940.678 1237.67,937.802 1241.68,925.808 1242.59,923.221 1246.74,909.952 1247.18,908.641 1251.47,894.061 1251.81,892.71 1255.45,879.481 1256.87,873.211 1258.98,864.901 1261.93,850.321 1261.94,850.312 1264.49,835.74 1266.28,821.16 1267,810.415 1267.3,806.58 1267.41,792 1267,786.012 1266.37,777.42 1263.92,762.84 1261.94,755.613 1259.64,748.26 1256.87,741.618 1252.97,733.679 1251.81,731.668 1246.74,723.888 1243,719.099 1241.68,717.497 1236.61,711.982 1231.55,707.337 1228,704.519 1226.48,703.285 1221.42,699.543 1216.36,696.308 1211.29,693.508 1206.23,691.084 1203.52,689.939 1201.16,688.83 1196.1,686.705 1191.03,684.856 1185.97,683.254 1180.9,681.877 1175.84,680.703 1170.78,679.717 1165.71,678.904 1160.65,678.253 1155.58,677.755 1150.52,677.405 1145.45,677.196 1140.39,677.127 1135.32,677.196 1130.26,677.405 1125.2,677.755 1120.13,678.253 1115.07,678.904 1110,679.717 1104.94,680.703 1099.87,681.877 1094.81,683.254 1089.75,684.856 1084.68,686.705 1079.62,688.83 1077.26,689.939 1074.55,691.084 1069.49,693.508 1064.42,696.308 1059.36,699.543 1054.29,703.285 1052.78,704.519 1049.23,707.337 1044.17,711.982 1039.1,717.497 1037.78,719.099 1034.04,723.888 1028.97,731.668 1027.81,733.679 1023.91,741.618 1021.14,748.26 1018.84,755.613 1016.86,762.84 1014.4,777.42 1013.78,786.012 1013.37,792 1013.47,806.58 "/>
<polyline clip-path="url(#clip562)" style="stroke:#2b0a56; stroke-linecap:round; stroke-linejoin:round; stroke-width:4; stroke-opacity:1; fill:none" points="1031.97,850.321 1034.04,864.515 1034.09,864.901 1036.68,879.481 1039.1,890.089 1039.91,894.061 1043.58,908.641 1044.17,910.613 1047.61,923.221 1049.23,928.303 1052.06,937.802 1054.29,944.392 1056.87,952.382 1059.36,959.264 1062.05,966.962 1064.42,973.149 1067.61,981.542 1069.49,986.162 1073.6,996.122 1074.55,998.323 1079.62,1009.71 1080.06,1010.7 1084.68,1020.63 1087.04,1025.28 1089.75,1030.67 1094.81,1039.58 1094.98,1039.86 1099.87,1048.35 1104.17,1054.44 1104.94,1055.64 1110,1062.63 1115.07,1068.04 1116.18,1069.02 1120.13,1073.09 1125.2,1076.95 1130.26,1079.56 1135.32,1081.08 1140.39,1081.58 1145.45,1081.08 1150.52,1079.56 1155.58,1076.95 1160.65,1073.09 1164.6,1069.02 1165.71,1068.04 1170.78,1062.63 1175.84,1055.64 1176.61,1054.44 1180.9,1048.35 1185.8,1039.86 1185.97,1039.58 1191.03,1030.67 1193.74,1025.28 1196.1,1020.63 1200.71,1010.7 1201.16,1009.71 1206.23,998.323 1207.18,996.122 1211.29,986.162 1213.17,981.542 1216.36,973.149 1218.73,966.962 1221.42,959.264 1223.91,952.382 1226.48,944.392 1228.72,937.802 1231.55,928.303 1233.17,923.221 1236.61,910.613 1237.2,908.641 1240.87,894.061 1241.68,890.089 1244.1,879.481 1246.69,864.901 1246.74,864.515 1248.81,850.321 1250.13,835.74 1250.59,821.16 1250.02,806.58 1248.16,792 1246.74,785.666 1244.67,777.42 1241.68,769.105 1239.04,762.84 1236.61,758.133 1231.55,749.831 1230.44,748.26 1226.48,743.064 1221.42,737.465 1217.35,733.679 1216.36,732.756 1211.29,728.513 1206.23,724.91 1201.16,721.844 1196.1,719.237 1195.8,719.099 1191.03,716.715 1185.97,714.538 1180.9,712.684 1175.84,711.119 1170.78,709.813 1165.71,708.744 1160.65,707.893 1155.58,707.246 1150.52,706.791 1145.45,706.521 1140.39,706.431 1135.32,706.521 1130.26,706.791 1125.2,707.246 1120.13,707.893 1115.07,708.744 1110,709.813 1104.94,711.119 1099.87,712.684 1094.81,714.538 1089.75,716.715 1084.98,719.099 1084.68,719.237 1079.62,721.844 1074.55,724.91 1069.49,728.513 1064.42,732.756 1063.43,733.679 1059.36,737.465 1054.29,743.064 1050.34,748.26 1049.23,749.831 1044.17,758.133 1041.74,762.84 1039.1,769.105 1036.11,777.42 1034.04,785.666 1032.62,792 1030.75,806.58 1030.19,821.16 1030.65,835.74 1031.97,850.321 "/>
<polyline clip-path="url(#clip562)" style="stroke:#410967; stroke-linecap:round; stroke-linejoin:round; stroke-width:4; stroke-opacity:1; fill:none" points="1043.65,864.901 1044.17,868.387 1045.58,879.481 1048.18,894.061 1049.23,898.612 1051.3,908.641 1054.29,920.279 1054.98,923.221 1059.1,937.802 1059.36,938.587 1063.6,952.382 1064.42,954.738 1068.55,966.962 1069.49,969.469 1073.96,981.542 1074.55,983.009 1079.62,995.496 1079.87,996.122 1084.68,1007.18 1086.29,1010.7 1089.75,1017.97 1093.55,1025.28 1094.81,1027.69 1099.87,1036.62 1101.95,1039.86 1104.94,1044.69 1110,1051.61 1112.48,1054.44 1115.07,1057.68 1120.13,1062.79 1125.2,1066.54 1130.06,1069.02 1130.26,1069.15 1135.32,1071.04 1140.39,1071.66 1145.45,1071.04 1150.52,1069.15 1150.72,1069.02 1155.58,1066.54 1160.65,1062.79 1165.71,1057.68 1168.3,1054.44 1170.78,1051.61 1175.84,1044.69 1178.83,1039.86 1180.9,1036.62 1185.97,1027.69 1187.23,1025.28 1191.03,1017.97 1194.49,1010.7 1196.1,1007.18 1200.91,996.122 1201.16,995.496 1206.23,983.009 1206.82,981.542 1211.29,969.469 1212.23,966.962 1216.36,954.738 1217.18,952.382 1221.42,938.587 1221.68,937.802 1225.8,923.221 1226.48,920.279 1229.48,908.641 1231.55,898.612 1232.6,894.061 1235.2,879.481 1236.61,868.387 1237.12,864.901 1238.36,850.321 1238.69,835.74 1237.93,821.16 1236.61,811.662 1235.84,806.58 1232.04,792 1231.55,790.623 1226.48,778.479 1225.96,777.42 1221.42,769.556 1216.6,762.84 1216.36,762.52 1211.29,756.632 1206.23,751.777 1201.84,748.26 1201.16,747.709 1196.1,744.016 1191.03,740.899 1185.97,738.274 1180.9,736.071 1175.84,734.234 1174.02,733.679 1170.78,732.574 1165.71,731.153 1160.65,730.024 1155.58,729.167 1150.52,728.565 1145.45,728.209 1140.39,728.091 1135.32,728.209 1130.26,728.565 1125.2,729.167 1120.13,730.024 1115.07,731.153 1110,732.574 1106.76,733.679 1104.94,734.234 1099.87,736.071 1094.81,738.274 1089.75,740.899 1084.68,744.016 1079.62,747.709 1078.94,748.26 1074.55,751.777 1069.49,756.632 1064.42,762.52 1064.18,762.84 1059.36,769.556 1054.81,777.42 1054.29,778.479 1049.23,790.623 1048.74,792 1044.94,806.58 1044.17,811.662 1042.85,821.16 1042.09,835.74 1042.41,850.321 1043.65,864.901 "/>
<polyline clip-path="url(#clip562)" style="stroke:#550f6d; stroke-linecap:round; stroke-linejoin:round; stroke-width:4; stroke-opacity:1; fill:none" points="1053.1,879.481 1054.29,887.453 1055.16,894.061 1057.84,908.641 1059.36,915.06 1061.11,923.221 1064.42,935.706 1064.94,937.802 1069.24,952.382 1069.49,953.122 1074,966.962 1074.55,968.465 1079.3,981.542 1079.62,982.323 1084.68,994.926 1085.17,996.122 1089.75,1006.49 1091.72,1010.7 1094.81,1017.02 1099.31,1025.28 1099.87,1026.32 1104.94,1034.86 1108.45,1039.86 1110,1042.16 1115.07,1048.58 1120.13,1053.56 1121.27,1054.44 1125.2,1057.82 1130.26,1060.86 1135.32,1062.63 1140.39,1063.21 1145.45,1062.63 1150.52,1060.86 1155.58,1057.82 1159.51,1054.44 1160.65,1053.56 1165.71,1048.58 1170.78,1042.16 1172.33,1039.86 1175.84,1034.86 1180.9,1026.32 1181.47,1025.28 1185.97,1017.02 1189.06,1010.7 1191.03,1006.49 1195.61,996.122 1196.1,994.926 1201.16,982.323 1201.47,981.542 1206.23,968.465 1206.78,966.962 1211.29,953.122 1211.54,952.382 1215.84,937.802 1216.36,935.706 1219.67,923.221 1221.42,915.06 1222.94,908.641 1225.62,894.061 1226.48,887.453 1227.68,879.481 1229,864.901 1229.43,850.321 1228.8,835.74 1226.83,821.16 1226.48,819.594 1223.2,806.58 1221.42,801.656 1217.27,792 1216.36,790.261 1211.29,781.877 1207.99,777.42 1206.23,775.208 1201.16,769.701 1196.1,765.189 1192.97,762.84 1191.03,761.356 1185.97,757.991 1180.9,755.188 1175.84,752.868 1170.78,750.966 1165.71,749.431 1160.8,748.26 1160.65,748.219 1155.58,747.176 1150.52,746.447 1145.45,746.015 1140.39,745.872 1135.32,746.015 1130.26,746.447 1125.2,747.176 1120.13,748.219 1119.98,748.26 1115.07,749.431 1110,750.966 1104.94,752.868 1099.87,755.188 1094.81,757.991 1089.75,761.356 1087.81,762.84 1084.68,765.189 1079.62,769.701 1074.55,775.208 1072.79,777.42 1069.49,781.877 1064.42,790.261 1063.51,792 1059.36,801.656 1057.58,806.58 1054.29,819.594 1053.95,821.16 1051.98,835.74 1051.35,850.321 1051.78,864.901 1053.1,879.481 "/>
<polyline clip-path="url(#clip562)" style="stroke:#6a176e; stroke-linecap:round; stroke-linejoin:round; stroke-width:4; stroke-opacity:1; fill:none" points="1059.08,864.901 1059.36,870.257 1059.78,879.481 1061.3,894.061 1063.61,908.641 1064.42,912.447 1066.52,923.221 1069.49,935.236 1070.07,937.802 1074.16,952.382 1074.55,953.572 1078.78,966.962 1079.62,969.27 1084.01,981.542 1084.68,983.214 1089.75,995.669 1089.93,996.122 1094.81,1006.91 1096.65,1010.7 1099.87,1017 1104.67,1025.28 1104.94,1025.75 1110,1033.64 1114.93,1039.86 1115.07,1040.05 1120.13,1045.71 1125.2,1049.93 1130.26,1052.86 1134.87,1054.44 1135.32,1054.62 1140.39,1055.29 1145.45,1054.62 1145.91,1054.44 1150.52,1052.86 1155.58,1049.93 1160.65,1045.71 1165.71,1040.05 1165.85,1039.86 1170.78,1033.64 1175.84,1025.75 1176.11,1025.28 1180.9,1017 1184.13,1010.7 1185.97,1006.91 1190.85,996.122 1191.03,995.669 1196.1,983.214 1196.76,981.542 1201.16,969.27 1202,966.962 1206.23,953.572 1206.62,952.382 1210.71,937.802 1211.29,935.236 1214.26,923.221 1216.36,912.447 1217.17,908.641 1219.48,894.061 1221,879.481 1221.42,870.257 1221.7,864.901 1221.42,852.307 1221.37,850.321 1219.81,835.74 1216.59,821.16 1216.36,820.42 1211.29,806.767 1211.21,806.58 1206.23,797.334 1202.64,792 1201.16,790.019 1196.1,784.136 1191.03,779.377 1188.56,777.42 1185.97,775.368 1180.9,771.95 1175.84,769.144 1170.78,766.861 1165.71,765.03 1160.65,763.598 1157.1,762.84 1155.58,762.482 1150.52,761.635 1145.45,761.134 1140.39,760.969 1135.32,761.134 1130.26,761.635 1125.2,762.482 1123.68,762.84 1120.13,763.598 1115.07,765.03 1110,766.861 1104.94,769.144 1099.87,771.95 1094.81,775.368 1092.22,777.42 1089.75,779.377 1084.68,784.136 1079.62,790.019 1078.14,792 1074.55,797.334 1069.57,806.58 1069.49,806.767 1064.42,820.42 1064.19,821.16 1060.97,835.74 1059.41,850.321 1059.36,852.307 1059.08,864.901 "/>
<polyline clip-path="url(#clip562)" style="stroke:#7e1e6c; stroke-linecap:round; stroke-linejoin:round; stroke-width:4; stroke-opacity:1; fill:none" points="1065.85,879.481 1066.91,894.061 1068.83,908.641 1069.49,912.084 1071.42,923.221 1074.55,936.888 1074.75,937.802 1078.62,952.382 1079.62,955.519 1083.13,966.962 1084.68,971.295 1088.33,981.542 1089.75,985.074 1094.32,996.122 1094.81,997.207 1099.87,1007.9 1101.31,1010.7 1104.94,1017.37 1109.92,1025.28 1110,1025.42 1115.07,1032.48 1120.13,1038.05 1122.22,1039.86 1125.2,1042.55 1130.26,1045.81 1135.32,1047.73 1140.39,1048.36 1145.45,1047.73 1150.52,1045.81 1155.58,1042.55 1158.56,1039.86 1160.65,1038.05 1165.71,1032.48 1170.78,1025.42 1170.86,1025.28 1175.84,1017.37 1179.47,1010.7 1180.9,1007.9 1185.97,997.207 1186.46,996.122 1191.03,985.074 1192.45,981.542 1196.1,971.295 1197.65,966.962 1201.16,955.519 1202.16,952.382 1206.03,937.802 1206.23,936.888 1209.35,923.221 1211.29,912.084 1211.95,908.641 1213.87,894.061 1214.93,879.481 1215.02,864.901 1213.93,850.321 1211.31,835.74 1211.29,835.657 1206.71,821.16 1206.23,820.029 1201.16,809.818 1199.19,806.58 1196.1,802.117 1191.03,796.073 1186.81,792 1185.97,791.217 1180.9,787.124 1175.84,783.799 1170.78,781.118 1165.71,778.985 1160.94,777.42 1160.65,777.317 1155.58,775.94 1150.52,774.982 1145.45,774.416 1140.39,774.229 1135.32,774.416 1130.26,774.982 1125.2,775.94 1120.13,777.317 1119.84,777.42 1115.07,778.985 1110,781.118 1104.94,783.799 1099.87,787.124 1094.81,791.217 1093.97,792 1089.75,796.073 1084.68,802.117 1081.59,806.58 1079.62,809.818 1074.55,820.029 1074.07,821.16 1069.49,835.657 1069.47,835.74 1066.85,850.321 1065.75,864.901 1065.85,879.481 "/>
<polyline clip-path="url(#clip562)" style="stroke:#932567; stroke-linecap:round; stroke-linejoin:round; stroke-width:4; stroke-opacity:1; fill:none" points="1071.55,879.481 1072.14,894.061 1073.67,908.641 1074.55,913.879 1075.98,923.221 1079.05,937.802 1079.62,939.917 1082.77,952.382 1084.68,958.567 1087.2,966.962 1089.75,974.119 1092.39,981.542 1094.81,987.469 1098.49,996.122 1099.87,999.067 1104.94,1009.07 1105.84,1010.7 1110,1017.74 1115.07,1024.94 1115.35,1025.28 1120.13,1031 1125.2,1035.61 1130.26,1038.85 1132.89,1039.86 1135.32,1040.86 1140.39,1041.55 1145.45,1040.86 1147.88,1039.86 1150.52,1038.85 1155.58,1035.61 1160.65,1031 1165.43,1025.28 1165.71,1024.94 1170.78,1017.74 1174.93,1010.7 1175.84,1009.07 1180.9,999.067 1182.29,996.122 1185.97,987.469 1188.39,981.542 1191.03,974.119 1193.58,966.962 1196.1,958.567 1198.01,952.382 1201.16,939.917 1201.73,937.802 1204.8,923.221 1206.23,913.879 1207.11,908.641 1208.64,894.061 1209.23,879.481 1208.7,864.901 1206.78,850.321 1206.23,847.866 1203.05,835.74 1201.16,830.736 1196.76,821.16 1196.1,819.977 1191.03,812.224 1186.33,806.58 1185.97,806.176 1180.9,801.286 1175.84,797.367 1170.78,794.242 1166.18,792 1165.71,791.762 1160.65,789.696 1155.58,788.151 1150.52,787.08 1145.45,786.45 1140.39,786.242 1135.32,786.45 1130.26,787.08 1125.2,788.151 1120.13,789.696 1115.07,791.762 1114.6,792 1110,794.242 1104.94,797.367 1099.87,801.286 1094.81,806.176 1094.45,806.58 1089.75,812.224 1084.68,819.977 1084.02,821.16 1079.62,830.736 1077.73,835.74 1074.55,847.866 1074,850.321 1072.08,864.901 1071.55,879.481 "/>
<polyline clip-path="url(#clip562)" style="stroke:#a62c5f; stroke-linecap:round; stroke-linejoin:round; stroke-width:4; stroke-opacity:1; fill:none" points="1077.02,879.481 1077.11,894.061 1078.25,908.641 1079.62,918.079 1080.29,923.221 1083.12,937.802 1084.68,943.967 1086.71,952.382 1089.75,962.428 1091.09,966.962 1094.81,977.414 1096.3,981.542 1099.87,990.057 1102.57,996.122 1104.94,1000.9 1110,1010.08 1110.39,1010.7 1115.07,1017.78 1120.13,1024 1121.44,1025.28 1125.2,1028.91 1130.26,1032.39 1135.32,1034.46 1140.39,1035.15 1145.45,1034.46 1150.52,1032.39 1155.58,1028.91 1159.34,1025.28 1160.65,1024 1165.71,1017.78 1170.39,1010.7 1170.78,1010.08 1175.84,1000.9 1178.21,996.122 1180.9,990.057 1184.47,981.542 1185.97,977.414 1189.69,966.962 1191.03,962.428 1194.07,952.382 1196.1,943.967 1197.66,937.802 1200.48,923.221 1201.16,918.079 1202.53,908.641 1203.67,894.061 1203.76,879.481 1202.58,864.901 1201.16,857.02 1199.77,850.321 1196.1,839.184 1194.72,835.74 1191.03,828.538 1186.24,821.16 1185.97,820.794 1180.9,814.893 1175.84,810.241 1170.78,806.586 1170.77,806.58 1165.71,803.576 1160.65,801.251 1155.58,799.524 1150.52,798.331 1145.45,797.631 1140.39,797.401 1135.32,797.631 1130.26,798.331 1125.2,799.524 1120.13,801.251 1115.07,803.576 1110.01,806.58 1110,806.586 1104.94,810.241 1099.87,814.893 1094.81,820.794 1094.54,821.16 1089.75,828.538 1086.06,835.74 1084.68,839.184 1081.01,850.321 1079.62,857.02 1078.2,864.901 1077.02,879.481 "/>
<polyline clip-path="url(#clip562)" style="stroke:#ba3655; stroke-linecap:round; stroke-linejoin:round; stroke-width:4; stroke-opacity:1; fill:none" points="1082.34,879.481 1081.91,894.061 1082.66,908.641 1084.42,923.221 1084.68,924.584 1087.03,937.802 1089.75,949.06 1090.51,952.382 1094.81,966.858 1094.84,966.962 1099.87,980.893 1100.12,981.542 1104.94,992.54 1106.64,996.122 1110,1002.41 1115.07,1010.62 1115.13,1010.7 1120.13,1017.21 1125.2,1022.3 1129.34,1025.28 1130.26,1025.94 1135.32,1028.14 1140.39,1028.87 1145.45,1028.14 1150.52,1025.94 1151.44,1025.28 1155.58,1022.3 1160.65,1017.21 1165.65,1010.7 1165.71,1010.62 1170.78,1002.41 1174.14,996.122 1175.84,992.54 1180.66,981.542 1180.9,980.893 1185.94,966.962 1185.97,966.858 1190.27,952.382 1191.03,949.06 1193.75,937.802 1196.1,924.584 1196.36,923.221 1198.12,908.641 1198.86,894.061 1198.44,879.481 1196.55,864.901 1196.1,862.916 1192.71,850.321 1191.03,846.047 1186.02,835.74 1185.97,835.647 1180.9,828.351 1175.84,822.725 1174.1,821.16 1170.78,818.332 1165.71,814.892 1160.65,812.26 1155.58,810.32 1150.52,808.988 1145.45,808.21 1140.39,807.954 1135.32,808.21 1130.26,808.988 1125.2,810.32 1120.13,812.26 1115.07,814.892 1110,818.332 1106.68,821.16 1104.94,822.725 1099.87,828.351 1094.81,835.647 1094.75,835.74 1089.75,846.047 1088.07,850.321 1084.68,862.916 1084.23,864.901 1082.34,879.481 "/>
<polyline clip-path="url(#clip562)" style="stroke:#cc4148; stroke-linecap:round; stroke-linejoin:round; stroke-width:4; stroke-opacity:1; fill:none" points="1087.62,879.481 1086.63,894.061 1086.97,908.641 1088.42,923.221 1089.75,930.945 1090.85,937.802 1094.2,952.382 1094.81,954.433 1098.5,966.962 1099.87,970.77 1103.89,981.542 1104.94,983.923 1110,994.628 1110.79,996.122 1115.07,1003.33 1120.13,1010.42 1120.38,1010.7 1125.2,1015.78 1130.26,1019.59 1135.32,1021.87 1140.39,1022.63 1145.45,1021.87 1150.52,1019.59 1155.58,1015.78 1160.4,1010.7 1160.65,1010.42 1165.71,1003.33 1169.99,996.122 1170.78,994.628 1175.84,983.923 1176.88,981.542 1180.9,970.77 1182.28,966.962 1185.97,954.433 1186.58,952.382 1189.93,937.802 1191.03,930.945 1192.36,923.221 1193.81,908.641 1194.15,894.061 1193.16,879.481 1191.03,867.56 1190.47,864.901 1185.97,851.7 1185.38,850.321 1180.9,842.122 1176.36,835.74 1175.84,835.108 1170.78,829.909 1165.71,825.912 1160.65,822.892 1156.7,821.16 1155.58,820.669 1150.52,819.1 1145.45,818.183 1140.39,817.882 1135.32,818.183 1130.26,819.1 1125.2,820.669 1124.08,821.16 1120.13,822.892 1115.07,825.912 1110,829.909 1104.94,835.108 1104.42,835.74 1099.87,842.122 1095.39,850.321 1094.81,851.7 1090.31,864.901 1089.75,867.56 1087.62,879.481 "/>
<polyline clip-path="url(#clip562)" style="stroke:#dc5039; stroke-linecap:round; stroke-linejoin:round; stroke-width:4; stroke-opacity:1; fill:none" points="1092.94,879.481 1091.33,894.061 1091.23,908.641 1092.38,923.221 1094.6,937.802 1094.81,938.703 1097.85,952.382 1099.87,959.255 1102.16,966.962 1104.94,974.413 1107.74,981.542 1110,986.364 1115.07,996.025 1115.13,996.122 1120.13,1003.4 1125.2,1009.19 1126.99,1010.7 1130.26,1013.25 1135.32,1015.63 1140.39,1016.43 1145.45,1015.63 1150.52,1013.25 1153.79,1010.7 1155.58,1009.19 1160.65,1003.4 1165.65,996.122 1165.71,996.025 1170.78,986.364 1173.04,981.542 1175.84,974.413 1178.62,966.962 1180.9,959.255 1182.93,952.382 1185.97,938.703 1186.18,937.802 1188.4,923.221 1189.54,908.641 1189.45,894.061 1187.84,879.481 1185.97,871.334 1184.18,864.901 1180.9,856.938 1177.43,850.321 1175.84,847.871 1170.78,841.541 1165.71,836.772 1164.3,835.74 1160.65,833.229 1155.58,830.644 1150.52,828.881 1145.45,827.854 1140.39,827.518 1135.32,827.854 1130.26,828.881 1125.2,830.644 1120.13,833.229 1116.48,835.74 1115.07,836.772 1110,841.541 1104.94,847.871 1103.35,850.321 1099.87,856.938 1096.6,864.901 1094.81,871.334 1092.94,879.481 "/>
<polyline clip-path="url(#clip562)" style="stroke:#e8612b; stroke-linecap:round; stroke-linejoin:round; stroke-width:4; stroke-opacity:1; fill:none" points="1098.43,879.481 1096.08,894.061 1095.5,908.641 1096.33,923.221 1098.35,937.802 1099.87,944.771 1101.51,952.382 1104.94,963.927 1105.87,966.962 1110,977.503 1111.73,981.542 1115.07,988.01 1119.95,996.122 1120.13,996.383 1125.2,1002.37 1130.26,1006.7 1135.32,1009.32 1140.39,1010.2 1145.45,1009.32 1150.52,1006.7 1155.58,1002.37 1160.65,996.383 1160.83,996.122 1165.71,988.01 1169.05,981.542 1170.78,977.503 1174.91,966.962 1175.84,963.927 1179.27,952.382 1180.9,944.771 1182.43,937.802 1184.45,923.221 1185.27,908.641 1184.7,894.061 1182.35,879.481 1180.9,874.456 1177.48,864.901 1175.84,861.597 1170.78,853.499 1168.17,850.321 1165.71,847.719 1160.65,843.57 1155.58,840.573 1150.52,838.548 1145.45,837.376 1140.39,836.993 1135.32,837.376 1130.26,838.548 1125.2,840.573 1120.13,843.57 1115.07,847.719 1112.61,850.321 1110,853.499 1104.94,861.597 1103.3,864.901 1099.87,874.456 1098.43,879.481 "/>
<polyline clip-path="url(#clip562)" style="stroke:#f2751a; stroke-linecap:round; stroke-linejoin:round; stroke-width:4; stroke-opacity:1; fill:none" points="1104.23,879.481 1100.99,894.061 1099.87,908.205 1099.84,908.641 1099.87,909.49 1100.32,923.221 1102.16,937.802 1104.94,951.046 1105.22,952.382 1109.67,966.962 1110,967.808 1115.07,979.685 1115.96,981.542 1120.13,988.571 1125.2,995.476 1125.83,996.122 1130.26,1000.01 1135.32,1002.7 1140.39,1003.6 1145.45,1002.7 1150.52,1000.01 1154.95,996.122 1155.58,995.476 1160.65,988.571 1164.81,981.542 1165.71,979.685 1170.78,967.808 1171.11,966.962 1175.56,952.382 1175.84,951.046 1178.62,937.802 1180.45,923.221 1180.9,909.49 1180.93,908.641 1180.9,908.205 1179.78,894.061 1176.55,879.481 1175.84,877.495 1170.78,866.272 1169.97,864.901 1165.71,859.142 1160.65,854.077 1155.58,850.48 1155.26,850.321 1150.52,848.147 1145.45,846.8 1140.39,846.359 1135.32,846.8 1130.26,848.147 1125.52,850.321 1125.2,850.48 1120.13,854.077 1115.07,859.142 1110.81,864.901 1110,866.272 1104.94,877.495 1104.23,879.481 "/>
<polyline clip-path="url(#clip562)" style="stroke:#f98c09; stroke-linecap:round; stroke-linejoin:round; stroke-width:4; stroke-opacity:1; fill:none" points="1106.2,894.061 1104.94,903.501 1104.38,908.641 1104.44,923.221 1104.94,927.652 1106.06,937.802 1109.09,952.382 1110,955.371 1113.75,966.962 1115.07,970.055 1120.13,980.544 1120.71,981.542 1125.2,987.746 1130.26,992.909 1135.32,996.078 1135.53,996.122 1140.39,997.01 1145.24,996.122 1145.45,996.078 1150.52,992.909 1155.58,987.746 1160.07,981.542 1160.65,980.544 1165.71,970.055 1167.03,966.962 1170.78,955.371 1171.69,952.382 1174.72,937.802 1175.84,927.652 1176.34,923.221 1176.4,908.641 1175.84,903.501 1174.58,894.061 1170.78,881.155 1170.13,879.481 1165.71,871.463 1160.65,864.901 1160.65,864.893 1155.58,860.75 1150.52,857.98 1145.45,856.39 1140.39,855.871 1135.32,856.39 1130.26,857.98 1125.2,860.75 1120.13,864.893 1120.12,864.901 1115.07,871.463 1110.65,879.481 1110,881.155 1106.2,894.061 "/>
<polyline clip-path="url(#clip562)" style="stroke:#fba40a; stroke-linecap:round; stroke-linejoin:round; stroke-width:4; stroke-opacity:1; fill:none" points="1111.93,894.061 1110,903.604 1109.2,908.641 1108.8,923.221 1110,936.377 1110.14,937.802 1113.22,952.382 1115.07,958.101 1118.22,966.962 1120.13,970.917 1125.2,979.634 1126.66,981.542 1130.26,985.246 1135.32,988.451 1140.39,989.532 1145.45,988.451 1150.52,985.246 1154.11,981.542 1155.58,979.634 1160.65,970.917 1162.56,966.962 1165.71,958.101 1167.56,952.382 1170.64,937.802 1170.78,936.377 1171.98,923.221 1171.58,908.641 1170.78,903.604 1168.85,894.061 1165.71,885.776 1162.45,879.481 1160.65,876.91 1155.58,871.624 1150.52,868.151 1145.45,866.179 1140.39,865.539 1135.32,866.179 1130.26,868.151 1125.2,871.624 1120.13,876.91 1118.33,879.481 1115.07,885.776 1111.93,894.061 "/>
<polyline clip-path="url(#clip562)" style="stroke:#fabb21; stroke-linecap:round; stroke-linejoin:round; stroke-width:4; stroke-opacity:1; fill:none" points="1118.61,894.061 1115.07,906.168 1114.52,908.641 1113.52,923.221 1114.59,937.802 1115.07,940.132 1117.77,952.382 1120.13,959.02 1123.44,966.962 1125.2,969.973 1130.26,976.527 1135.32,980.625 1138.65,981.542 1140.39,981.916 1142.13,981.542 1145.45,980.625 1150.52,976.527 1155.58,969.973 1157.33,966.962 1160.65,959.02 1163.01,952.382 1165.71,940.132 1166.19,937.802 1167.26,923.221 1166.25,908.641 1165.71,906.168 1162.16,894.061 1160.65,890.981 1155.58,883.575 1151.23,879.481 1150.52,878.943 1145.45,876.69 1140.39,875.959 1135.32,876.69 1130.26,878.943 1129.55,879.481 1125.2,883.575 1120.13,890.981 1118.61,894.061 "/>
<polyline clip-path="url(#clip562)" style="stroke:#f6d542; stroke-linecap:round; stroke-linejoin:round; stroke-width:4; stroke-opacity:1; fill:none" points="1120.86,908.641 1120.13,912.954 1118.88,923.221 1119.64,937.802 1120.13,940.136 1123.1,952.382 1125.2,957.38 1130.26,966.75 1130.44,966.962 1135.32,970.879 1140.39,972.261 1145.45,970.879 1150.34,966.962 1150.52,966.75 1155.58,957.38 1157.68,952.382 1160.65,940.136 1161.14,937.802 1161.89,923.221 1160.65,912.954 1159.92,908.641 1155.58,898.21 1152.88,894.061 1150.52,891.59 1145.45,888.535 1140.39,887.552 1135.32,888.535 1130.26,891.59 1127.9,894.061 1125.2,898.21 1120.86,908.641 "/>
<polyline clip-path="url(#clip562)" style="stroke:#f1ed70; stroke-linecap:round; stroke-linejoin:round; stroke-width:4; stroke-opacity:1; fill:none" points="1129.83,908.641 1125.58,923.221 1125.99,937.802 1130.23,952.382 1130.26,952.441 1135.32,958.243 1140.39,960.255 1145.45,958.243 1150.52,952.441 1150.55,952.382 1154.79,937.802 1155.2,923.221 1150.94,908.641 1150.52,907.945 1145.45,903.133 1140.39,901.609 1135.32,903.133 1130.26,907.945 1129.83,908.641 "/>
<defs>
  <clipPath id="clip563">
    <rect x="2160" y="62" width="73" height="1459"/>
  </clipPath>
</defs>
<polyline clip-path="url(#clip563)" style="stroke:#000003; stroke-linecap:round; stroke-linejoin:round; stroke-width:4; stroke-opacity:1; fill:none" points="2160.76,1520.86 2232.76,1520.86 "/>
<polyline clip-path="url(#clip563)" style="stroke:#000003; stroke-linecap:round; stroke-linejoin:round; stroke-width:4; stroke-opacity:1; fill:none" points="2160.76,1519.55 2232.76,1519.55 "/>
<polyline clip-path="url(#clip563)" style="stroke:#010007; stroke-linecap:round; stroke-linejoin:round; stroke-width:4; stroke-opacity:1; fill:none" points="2160.76,1506.43 2232.76,1506.43 "/>
<polyline clip-path="url(#clip563)" style="stroke:#07051d; stroke-linecap:round; stroke-linejoin:round; stroke-width:4; stroke-opacity:1; fill:none" points="2160.76,1448.11 2232.76,1448.11 "/>
<polyline clip-path="url(#clip563)" style="stroke:#170b3b; stroke-linecap:round; stroke-linejoin:round; stroke-width:4; stroke-opacity:1; fill:none" points="2160.76,1375.21 2232.76,1375.21 "/>
<polyline clip-path="url(#clip563)" style="stroke:#2b0a56; stroke-linecap:round; stroke-linejoin:round; stroke-width:4; stroke-opacity:1; fill:none" points="2160.76,1302.31 2232.76,1302.31 "/>
<polyline clip-path="url(#clip563)" style="stroke:#410967; stroke-linecap:round; stroke-linejoin:round; stroke-width:4; stroke-opacity:1; fill:none" points="2160.76,1229.4 2232.76,1229.4 "/>
<polyline clip-path="url(#clip563)" style="stroke:#570f6d; stroke-linecap:round; stroke-linejoin:round; stroke-width:4; stroke-opacity:1; fill:none" points="2160.76,1156.5 2232.76,1156.5 "/>
<polyline clip-path="url(#clip563)" style="stroke:#6a176e; stroke-linecap:round; stroke-linejoin:round; stroke-width:4; stroke-opacity:1; fill:none" points="2160.76,1083.6 2232.76,1083.6 "/>
<polyline clip-path="url(#clip563)" style="stroke:#7e1e6c; stroke-linecap:round; stroke-linejoin:round; stroke-width:4; stroke-opacity:1; fill:none" points="2160.76,1010.7 2232.76,1010.7 "/>
<polyline clip-path="url(#clip563)" style="stroke:#932567; stroke-linecap:round; stroke-linejoin:round; stroke-width:4; stroke-opacity:1; fill:none" points="2160.76,937.802 2232.76,937.802 "/>
<polyline clip-path="url(#clip563)" style="stroke:#a72d5f; stroke-linecap:round; stroke-linejoin:round; stroke-width:4; stroke-opacity:1; fill:none" points="2160.76,864.901 2232.76,864.901 "/>
<polyline clip-path="url(#clip563)" style="stroke:#bb3754; stroke-linecap:round; stroke-linejoin:round; stroke-width:4; stroke-opacity:1; fill:none" points="2160.76,792 2232.76,792 "/>
<polyline clip-path="url(#clip563)" style="stroke:#cc4148; stroke-linecap:round; stroke-linejoin:round; stroke-width:4; stroke-opacity:1; fill:none" points="2160.76,719.099 2232.76,719.099 "/>
<polyline clip-path="url(#clip563)" style="stroke:#dc5039; stroke-linecap:round; stroke-linejoin:round; stroke-width:4; stroke-opacity:1; fill:none" points="2160.76,646.198 2232.76,646.198 "/>
<polyline clip-path="url(#clip563)" style="stroke:#e9622a; stroke-linecap:round; stroke-linejoin:round; stroke-width:4; stroke-opacity:1; fill:none" points="2160.76,573.298 2232.76,573.298 "/>
<polyline clip-path="url(#clip563)" style="stroke:#f2751a; stroke-linecap:round; stroke-linejoin:round; stroke-width:4; stroke-opacity:1; fill:none" points="2160.76,500.397 2232.76,500.397 "/>
<polyline clip-path="url(#clip563)" style="stroke:#f98c09; stroke-linecap:round; stroke-linejoin:round; stroke-width:4; stroke-opacity:1; fill:none" points="2160.76,427.496 2232.76,427.496 "/>
<polyline clip-path="url(#clip563)" style="stroke:#fba40a; stroke-linecap:round; stroke-linejoin:round; stroke-width:4; stroke-opacity:1; fill:none" points="2160.76,354.595 2232.76,354.595 "/>
<polyline clip-path="url(#clip563)" style="stroke:#fabd23; stroke-linecap:round; stroke-linejoin:round; stroke-width:4; stroke-opacity:1; fill:none" points="2160.76,281.694 2232.76,281.694 "/>
<polyline clip-path="url(#clip563)" style="stroke:#f5d745; stroke-linecap:round; stroke-linejoin:round; stroke-width:4; stroke-opacity:1; fill:none" points="2160.76,208.794 2232.76,208.794 "/>
<polyline clip-path="url(#clip563)" style="stroke:#f1ed70; stroke-linecap:round; stroke-linejoin:round; stroke-width:4; stroke-opacity:1; fill:none" points="2160.76,135.893 2232.76,135.893 "/>
<path clip-path="url(#clip560)" d="M2280.7 1503.18 Q2277.09 1503.18 2275.26 1506.74 Q2273.45 1510.28 2273.45 1517.41 Q2273.45 1524.52 2275.26 1528.09 Q2277.09 1531.63 2280.7 1531.63 Q2284.33 1531.63 2286.14 1528.09 Q2287.97 1524.52 2287.97 1517.41 Q2287.97 1510.28 2286.14 1506.74 Q2284.33 1503.18 2280.7 1503.18 M2280.7 1499.47 Q2286.51 1499.47 2289.57 1504.08 Q2292.64 1508.66 2292.64 1517.41 Q2292.64 1526.14 2289.57 1530.75 Q2286.51 1535.33 2280.7 1535.33 Q2274.89 1535.33 2271.81 1530.75 Q2268.76 1526.14 2268.76 1517.41 Q2268.76 1508.66 2271.81 1504.08 Q2274.89 1499.47 2280.7 1499.47 Z" fill="#000000" fill-rule="nonzero" fill-opacity="1" /><path clip-path="url(#clip560)" d="M2280.7 1357.38 Q2277.09 1357.38 2275.26 1360.94 Q2273.45 1364.48 2273.45 1371.61 Q2273.45 1378.72 2275.26 1382.28 Q2277.09 1385.83 2280.7 1385.83 Q2284.33 1385.83 2286.14 1382.28 Q2287.97 1378.72 2287.97 1371.61 Q2287.97 1364.48 2286.14 1360.94 Q2284.33 1357.38 2280.7 1357.38 M2280.7 1353.67 Q2286.51 1353.67 2289.57 1358.28 Q2292.64 1362.86 2292.64 1371.61 Q2292.64 1380.34 2289.57 1384.95 Q2286.51 1389.53 2280.7 1389.53 Q2274.89 1389.53 2271.81 1384.95 Q2268.76 1380.34 2268.76 1371.61 Q2268.76 1362.86 2271.81 1358.28 Q2274.89 1353.67 2280.7 1353.67 Z" fill="#000000" fill-rule="nonzero" fill-opacity="1" /><path clip-path="url(#clip560)" d="M2300.86 1382.98 L2305.75 1382.98 L2305.75 1388.86 L2300.86 1388.86 L2300.86 1382.98 Z" fill="#000000" fill-rule="nonzero" fill-opacity="1" /><path clip-path="url(#clip560)" d="M2316.74 1384.92 L2324.38 1384.92 L2324.38 1358.56 L2316.07 1360.22 L2316.07 1355.96 L2324.33 1354.3 L2329.01 1354.3 L2329.01 1384.92 L2336.65 1384.92 L2336.65 1388.86 L2316.74 1388.86 L2316.74 1384.92 Z" fill="#000000" fill-rule="nonzero" fill-opacity="1" /><path clip-path="url(#clip560)" d="M2280.7 1211.57 Q2277.09 1211.57 2275.26 1215.14 Q2273.45 1218.68 2273.45 1225.81 Q2273.45 1232.92 2275.26 1236.48 Q2277.09 1240.02 2280.7 1240.02 Q2284.33 1240.02 2286.14 1236.48 Q2287.97 1232.92 2287.97 1225.81 Q2287.97 1218.68 2286.14 1215.14 Q2284.33 1211.57 2280.7 1211.57 M2280.7 1207.87 Q2286.51 1207.87 2289.57 1212.48 Q2292.64 1217.06 2292.64 1225.81 Q2292.64 1234.54 2289.57 1239.14 Q2286.51 1243.73 2280.7 1243.73 Q2274.89 1243.73 2271.81 1239.14 Q2268.76 1234.54 2268.76 1225.81 Q2268.76 1217.06 2271.81 1212.48 Q2274.89 1207.87 2280.7 1207.87 Z" fill="#000000" fill-rule="nonzero" fill-opacity="1" /><path clip-path="url(#clip560)" d="M2300.86 1237.18 L2305.75 1237.18 L2305.75 1243.06 L2300.86 1243.06 L2300.86 1237.18 Z" fill="#000000" fill-rule="nonzero" fill-opacity="1" /><path clip-path="url(#clip560)" d="M2319.96 1239.12 L2336.28 1239.12 L2336.28 1243.06 L2314.33 1243.06 L2314.33 1239.12 Q2317 1236.37 2321.58 1231.74 Q2326.19 1227.08 2327.37 1225.74 Q2329.61 1223.22 2330.49 1221.48 Q2331.39 1219.72 2331.39 1218.03 Q2331.39 1215.28 2329.45 1213.54 Q2327.53 1211.81 2324.43 1211.81 Q2322.23 1211.81 2319.77 1212.57 Q2317.34 1213.33 2314.57 1214.88 L2314.57 1210.16 Q2317.39 1209.03 2319.84 1208.45 Q2322.3 1207.87 2324.33 1207.87 Q2329.7 1207.87 2332.9 1210.56 Q2336.09 1213.24 2336.09 1217.73 Q2336.09 1219.86 2335.28 1221.78 Q2334.5 1223.68 2332.39 1226.27 Q2331.81 1226.94 2328.71 1230.16 Q2325.61 1233.36 2319.96 1239.12 Z" fill="#000000" fill-rule="nonzero" fill-opacity="1" /><path clip-path="url(#clip560)" d="M2280.7 1065.77 Q2277.09 1065.77 2275.26 1069.34 Q2273.45 1072.88 2273.45 1080.01 Q2273.45 1087.12 2275.26 1090.68 Q2277.09 1094.22 2280.7 1094.22 Q2284.33 1094.22 2286.14 1090.68 Q2287.97 1087.12 2287.97 1080.01 Q2287.97 1072.88 2286.14 1069.34 Q2284.33 1065.77 2280.7 1065.77 M2280.7 1062.07 Q2286.51 1062.07 2289.57 1066.68 Q2292.64 1071.26 2292.64 1080.01 Q2292.64 1088.74 2289.57 1093.34 Q2286.51 1097.93 2280.7 1097.93 Q2274.89 1097.93 2271.81 1093.34 Q2268.76 1088.74 2268.76 1080.01 Q2268.76 1071.26 2271.81 1066.68 Q2274.89 1062.07 2280.7 1062.07 Z" fill="#000000" fill-rule="nonzero" fill-opacity="1" /><path clip-path="url(#clip560)" d="M2300.86 1091.37 L2305.75 1091.37 L2305.75 1097.25 L2300.86 1097.25 L2300.86 1091.37 Z" fill="#000000" fill-rule="nonzero" fill-opacity="1" /><path clip-path="url(#clip560)" d="M2330.1 1078.62 Q2333.45 1079.34 2335.33 1081.61 Q2337.23 1083.87 2337.23 1087.21 Q2337.23 1092.32 2333.71 1095.12 Q2330.19 1097.93 2323.71 1097.93 Q2321.53 1097.93 2319.22 1097.49 Q2316.93 1097.07 2314.47 1096.21 L2314.47 1091.7 Q2316.42 1092.83 2318.73 1093.41 Q2321.05 1093.99 2323.57 1093.99 Q2327.97 1093.99 2330.26 1092.25 Q2332.58 1090.52 2332.58 1087.21 Q2332.58 1084.15 2330.42 1082.44 Q2328.29 1080.7 2324.47 1080.7 L2320.45 1080.7 L2320.45 1076.86 L2324.66 1076.86 Q2328.11 1076.86 2329.94 1075.5 Q2331.76 1074.11 2331.76 1071.51 Q2331.76 1068.85 2329.87 1067.44 Q2327.99 1066 2324.47 1066 Q2322.55 1066 2320.35 1066.42 Q2318.15 1066.84 2315.51 1067.72 L2315.51 1063.55 Q2318.18 1062.81 2320.49 1062.44 Q2322.83 1062.07 2324.89 1062.07 Q2330.21 1062.07 2333.32 1064.5 Q2336.42 1066.91 2336.42 1071.03 Q2336.42 1073.9 2334.77 1075.89 Q2333.13 1077.86 2330.1 1078.62 Z" fill="#000000" fill-rule="nonzero" fill-opacity="1" /><path clip-path="url(#clip560)" d="M2280.7 919.971 Q2277.09 919.971 2275.26 923.536 Q2273.45 927.078 2273.45 934.207 Q2273.45 941.314 2275.26 944.879 Q2277.09 948.42 2280.7 948.42 Q2284.33 948.42 2286.14 944.879 Q2287.97 941.314 2287.97 934.207 Q2287.97 927.078 2286.14 923.536 Q2284.33 919.971 2280.7 919.971 M2280.7 916.268 Q2286.51 916.268 2289.57 920.874 Q2292.64 925.458 2292.64 934.207 Q2292.64 942.934 2289.57 947.541 Q2286.51 952.124 2280.7 952.124 Q2274.89 952.124 2271.81 947.541 Q2268.76 942.934 2268.76 934.207 Q2268.76 925.458 2271.81 920.874 Q2274.89 916.268 2280.7 916.268 Z" fill="#000000" fill-rule="nonzero" fill-opacity="1" /><path clip-path="url(#clip560)" d="M2300.86 945.573 L2305.75 945.573 L2305.75 951.453 L2300.86 951.453 L2300.86 945.573 Z" fill="#000000" fill-rule="nonzero" fill-opacity="1" /><path clip-path="url(#clip560)" d="M2328.78 920.967 L2316.97 939.416 L2328.78 939.416 L2328.78 920.967 M2327.55 916.893 L2333.43 916.893 L2333.43 939.416 L2338.36 939.416 L2338.36 943.305 L2333.43 943.305 L2333.43 951.453 L2328.78 951.453 L2328.78 943.305 L2313.18 943.305 L2313.18 938.791 L2327.55 916.893 Z" fill="#000000" fill-rule="nonzero" fill-opacity="1" /><path clip-path="url(#clip560)" d="M2280.7 774.17 Q2277.09 774.17 2275.26 777.735 Q2273.45 781.276 2273.45 788.406 Q2273.45 795.512 2275.26 799.077 Q2277.09 802.619 2280.7 802.619 Q2284.33 802.619 2286.14 799.077 Q2287.97 795.512 2287.97 788.406 Q2287.97 781.276 2286.14 777.735 Q2284.33 774.17 2280.7 774.17 M2280.7 770.466 Q2286.51 770.466 2289.57 775.073 Q2292.64 779.656 2292.64 788.406 Q2292.64 797.133 2289.57 801.739 Q2286.51 806.322 2280.7 806.322 Q2274.89 806.322 2271.81 801.739 Q2268.76 797.133 2268.76 788.406 Q2268.76 779.656 2271.81 775.073 Q2274.89 770.466 2280.7 770.466 Z" fill="#000000" fill-rule="nonzero" fill-opacity="1" /><path clip-path="url(#clip560)" d="M2300.86 799.772 L2305.75 799.772 L2305.75 805.651 L2300.86 805.651 L2300.86 799.772 Z" fill="#000000" fill-rule="nonzero" fill-opacity="1" /><path clip-path="url(#clip560)" d="M2315.98 771.091 L2334.33 771.091 L2334.33 775.026 L2320.26 775.026 L2320.26 783.499 Q2321.28 783.151 2322.3 782.989 Q2323.32 782.804 2324.33 782.804 Q2330.12 782.804 2333.5 785.975 Q2336.88 789.147 2336.88 794.563 Q2336.88 800.142 2333.41 803.244 Q2329.94 806.322 2323.62 806.322 Q2321.44 806.322 2319.17 805.952 Q2316.93 805.582 2314.52 804.841 L2314.52 800.142 Q2316.6 801.276 2318.83 801.832 Q2321.05 802.387 2323.52 802.387 Q2327.53 802.387 2329.87 800.281 Q2332.2 798.174 2332.2 794.563 Q2332.2 790.952 2329.87 788.846 Q2327.53 786.739 2323.52 786.739 Q2321.65 786.739 2319.77 787.156 Q2317.92 787.573 2315.98 788.452 L2315.98 771.091 Z" fill="#000000" fill-rule="nonzero" fill-opacity="1" /><path clip-path="url(#clip560)" d="M2280.7 628.368 Q2277.09 628.368 2275.26 631.933 Q2273.45 635.475 2273.45 642.604 Q2273.45 649.711 2275.26 653.276 Q2277.09 656.817 2280.7 656.817 Q2284.33 656.817 2286.14 653.276 Q2287.97 649.711 2287.97 642.604 Q2287.97 635.475 2286.14 631.933 Q2284.33 628.368 2280.7 628.368 M2280.7 624.665 Q2286.51 624.665 2289.57 629.271 Q2292.64 633.854 2292.64 642.604 Q2292.64 651.331 2289.57 655.938 Q2286.51 660.521 2280.7 660.521 Q2274.89 660.521 2271.81 655.938 Q2268.76 651.331 2268.76 642.604 Q2268.76 633.854 2271.81 629.271 Q2274.89 624.665 2280.7 624.665 Z" fill="#000000" fill-rule="nonzero" fill-opacity="1" /><path clip-path="url(#clip560)" d="M2300.86 653.97 L2305.75 653.97 L2305.75 659.85 L2300.86 659.85 L2300.86 653.97 Z" fill="#000000" fill-rule="nonzero" fill-opacity="1" /><path clip-path="url(#clip560)" d="M2326.51 640.706 Q2323.36 640.706 2321.51 642.859 Q2319.68 645.012 2319.68 648.762 Q2319.68 652.489 2321.51 654.664 Q2323.36 656.817 2326.51 656.817 Q2329.66 656.817 2331.49 654.664 Q2333.34 652.489 2333.34 648.762 Q2333.34 645.012 2331.49 642.859 Q2329.66 640.706 2326.51 640.706 M2335.79 626.054 L2335.79 630.313 Q2334.03 629.479 2332.23 629.04 Q2330.45 628.6 2328.69 628.6 Q2324.06 628.6 2321.6 631.725 Q2319.17 634.85 2318.83 641.169 Q2320.19 639.155 2322.25 638.09 Q2324.31 637.003 2326.79 637.003 Q2332 637.003 2335.01 640.174 Q2338.04 643.322 2338.04 648.762 Q2338.04 654.086 2334.89 657.303 Q2331.74 660.521 2326.51 660.521 Q2320.51 660.521 2317.34 655.938 Q2314.17 651.331 2314.17 642.604 Q2314.17 634.41 2318.06 629.549 Q2321.95 624.665 2328.5 624.665 Q2330.26 624.665 2332.04 625.012 Q2333.85 625.359 2335.79 626.054 Z" fill="#000000" fill-rule="nonzero" fill-opacity="1" /><path clip-path="url(#clip560)" d="M2280.7 482.567 Q2277.09 482.567 2275.26 486.132 Q2273.45 489.673 2273.45 496.803 Q2273.45 503.909 2275.26 507.474 Q2277.09 511.016 2280.7 511.016 Q2284.33 511.016 2286.14 507.474 Q2287.97 503.909 2287.97 496.803 Q2287.97 489.673 2286.14 486.132 Q2284.33 482.567 2280.7 482.567 M2280.7 478.863 Q2286.51 478.863 2289.57 483.47 Q2292.64 488.053 2292.64 496.803 Q2292.64 505.53 2289.57 510.136 Q2286.51 514.719 2280.7 514.719 Q2274.89 514.719 2271.81 510.136 Q2268.76 505.53 2268.76 496.803 Q2268.76 488.053 2271.81 483.47 Q2274.89 478.863 2280.7 478.863 Z" fill="#000000" fill-rule="nonzero" fill-opacity="1" /><path clip-path="url(#clip560)" d="M2300.86 508.168 L2305.75 508.168 L2305.75 514.048 L2300.86 514.048 L2300.86 508.168 Z" fill="#000000" fill-rule="nonzero" fill-opacity="1" /><path clip-path="url(#clip560)" d="M2314.75 479.488 L2336.97 479.488 L2336.97 481.479 L2324.43 514.048 L2319.54 514.048 L2331.35 483.423 L2314.75 483.423 L2314.75 479.488 Z" fill="#000000" fill-rule="nonzero" fill-opacity="1" /><path clip-path="url(#clip560)" d="M2280.7 336.765 Q2277.09 336.765 2275.26 340.33 Q2273.45 343.872 2273.45 351.001 Q2273.45 358.108 2275.26 361.672 Q2277.09 365.214 2280.7 365.214 Q2284.33 365.214 2286.14 361.672 Q2287.97 358.108 2287.97 351.001 Q2287.97 343.872 2286.14 340.33 Q2284.33 336.765 2280.7 336.765 M2280.7 333.061 Q2286.51 333.061 2289.57 337.668 Q2292.64 342.251 2292.64 351.001 Q2292.64 359.728 2289.57 364.334 Q2286.51 368.918 2280.7 368.918 Q2274.89 368.918 2271.81 364.334 Q2268.76 359.728 2268.76 351.001 Q2268.76 342.251 2271.81 337.668 Q2274.89 333.061 2280.7 333.061 Z" fill="#000000" fill-rule="nonzero" fill-opacity="1" /><path clip-path="url(#clip560)" d="M2300.86 362.367 L2305.75 362.367 L2305.75 368.246 L2300.86 368.246 L2300.86 362.367 Z" fill="#000000" fill-rule="nonzero" fill-opacity="1" /><path clip-path="url(#clip560)" d="M2325.93 351.835 Q2322.6 351.835 2320.68 353.617 Q2318.78 355.399 2318.78 358.524 Q2318.78 361.649 2320.68 363.432 Q2322.6 365.214 2325.93 365.214 Q2329.26 365.214 2331.19 363.432 Q2333.11 361.626 2333.11 358.524 Q2333.11 355.399 2331.19 353.617 Q2329.29 351.835 2325.93 351.835 M2321.26 349.844 Q2318.25 349.103 2316.56 347.043 Q2314.89 344.983 2314.89 342.02 Q2314.89 337.876 2317.83 335.469 Q2320.79 333.061 2325.93 333.061 Q2331.09 333.061 2334.03 335.469 Q2336.97 337.876 2336.97 342.02 Q2336.97 344.983 2335.28 347.043 Q2333.62 349.103 2330.63 349.844 Q2334.01 350.631 2335.89 352.922 Q2337.78 355.214 2337.78 358.524 Q2337.78 363.547 2334.7 366.233 Q2331.65 368.918 2325.93 368.918 Q2320.21 368.918 2317.14 366.233 Q2314.08 363.547 2314.08 358.524 Q2314.08 355.214 2315.98 352.922 Q2317.88 350.631 2321.26 349.844 M2319.54 342.46 Q2319.54 345.145 2321.21 346.649 Q2322.9 348.154 2325.93 348.154 Q2328.94 348.154 2330.63 346.649 Q2332.34 345.145 2332.34 342.46 Q2332.34 339.774 2330.63 338.27 Q2328.94 336.765 2325.93 336.765 Q2322.9 336.765 2321.21 338.27 Q2319.54 339.774 2319.54 342.46 Z" fill="#000000" fill-rule="nonzero" fill-opacity="1" /><path clip-path="url(#clip560)" d="M2280.7 190.964 Q2277.09 190.964 2275.26 194.528 Q2273.45 198.07 2273.45 205.2 Q2273.45 212.306 2275.26 215.871 Q2277.09 219.413 2280.7 219.413 Q2284.33 219.413 2286.14 215.871 Q2287.97 212.306 2287.97 205.2 Q2287.97 198.07 2286.14 194.528 Q2284.33 190.964 2280.7 190.964 M2280.7 187.26 Q2286.51 187.26 2289.57 191.866 Q2292.64 196.45 2292.64 205.2 Q2292.64 213.926 2289.57 218.533 Q2286.51 223.116 2280.7 223.116 Q2274.89 223.116 2271.81 218.533 Q2268.76 213.926 2268.76 205.2 Q2268.76 196.45 2271.81 191.866 Q2274.89 187.26 2280.7 187.26 Z" fill="#000000" fill-rule="nonzero" fill-opacity="1" /><path clip-path="url(#clip560)" d="M2300.86 216.565 L2305.75 216.565 L2305.75 222.445 L2300.86 222.445 L2300.86 216.565 Z" fill="#000000" fill-rule="nonzero" fill-opacity="1" /><path clip-path="url(#clip560)" d="M2316.07 221.727 L2316.07 217.468 Q2317.83 218.301 2319.64 218.741 Q2321.44 219.181 2323.18 219.181 Q2327.81 219.181 2330.24 216.079 Q2332.69 212.954 2333.04 206.612 Q2331.7 208.602 2329.64 209.667 Q2327.58 210.732 2325.08 210.732 Q2319.89 210.732 2316.86 207.607 Q2313.85 204.459 2313.85 199.019 Q2313.85 193.695 2317 190.477 Q2320.14 187.26 2325.38 187.26 Q2331.37 187.26 2334.52 191.866 Q2337.69 196.45 2337.69 205.2 Q2337.69 213.371 2333.8 218.255 Q2329.94 223.116 2323.39 223.116 Q2321.63 223.116 2319.82 222.769 Q2318.01 222.422 2316.07 221.727 M2325.38 207.075 Q2328.52 207.075 2330.35 204.922 Q2332.2 202.769 2332.2 199.019 Q2332.2 195.292 2330.35 193.14 Q2328.52 190.964 2325.38 190.964 Q2322.23 190.964 2320.38 193.14 Q2318.55 195.292 2318.55 199.019 Q2318.55 202.769 2320.38 204.922 Q2322.23 207.075 2325.38 207.075 Z" fill="#000000" fill-rule="nonzero" fill-opacity="1" /><path clip-path="url(#clip560)" d="M2269.43 72.7082 L2277.07 72.7082 L2277.07 46.3426 L2268.76 48.0092 L2268.76 43.75 L2277.02 42.0833 L2281.7 42.0833 L2281.7 72.7082 L2289.33 72.7082 L2289.33 76.6433 L2269.43 76.6433 L2269.43 72.7082 Z" fill="#000000" fill-rule="nonzero" fill-opacity="1" /><path clip-path="url(#clip560)" d="M2298.78 70.7637 L2303.66 70.7637 L2303.66 76.6433 L2298.78 76.6433 L2298.78 70.7637 Z" fill="#000000" fill-rule="nonzero" fill-opacity="1" /><path clip-path="url(#clip560)" d="M2323.85 45.162 Q2320.24 45.162 2318.41 48.7268 Q2316.6 52.2685 2316.6 59.398 Q2316.6 66.5045 2318.41 70.0693 Q2320.24 73.6109 2323.85 73.6109 Q2327.48 73.6109 2329.29 70.0693 Q2331.12 66.5045 2331.12 59.398 Q2331.12 52.2685 2329.29 48.7268 Q2327.48 45.162 2323.85 45.162 M2323.85 41.4583 Q2329.66 41.4583 2332.71 46.0648 Q2335.79 50.6481 2335.79 59.398 Q2335.79 68.1249 2332.71 72.7313 Q2329.66 77.3146 2323.85 77.3146 Q2318.04 77.3146 2314.96 72.7313 Q2311.9 68.1249 2311.9 59.398 Q2311.9 50.6481 2314.96 46.0648 Q2318.04 41.4583 2323.85 41.4583 Z" fill="#000000" fill-rule="nonzero" fill-opacity="1" /><polyline clip-path="url(#clip560)" style="stroke:#000000; stroke-linecap:round; stroke-linejoin:round; stroke-width:4; stroke-opacity:1; fill:none" points="2232.76,1521.01 2232.76,1521.01 2256.76,1521.01 2232.76,1521.01 2232.76,1375.21 2256.76,1375.21 2232.76,1375.21 2232.76,1229.4 2256.76,1229.4 2232.76,1229.4 2232.76,1083.6 2256.76,1083.6 2232.76,1083.6 2232.76,937.802 2256.76,937.802 2232.76,937.802 2232.76,792 2256.76,792 2232.76,792 2232.76,646.198 2256.76,646.198 2232.76,646.198 2232.76,500.397 2256.76,500.397 2232.76,500.397 2232.76,354.595 2256.76,354.595 2232.76,354.595 2232.76,208.794 2256.76,208.794 2232.76,208.794 2232.76,62.9921 2256.76,62.9921 2232.76,62.9921 "/>
</svg>
