<?xml version="1.0" encoding="utf-8"?>
<svg xmlns="http://www.w3.org/2000/svg" xmlns:xlink="http://www.w3.org/1999/xlink" width="600" height="400" viewBox="0 0 2400 1600">
<defs>
  <clipPath id="clip050">
    <rect x="0" y="0" width="2400" height="1600"/>
  </clipPath>
</defs>
<path clip-path="url(#clip050)" d="M0 1600 L2400 1600 L2400 0 L0 0  Z" fill="#ffffff" fill-rule="evenodd" fill-opacity="1"/>
<defs>
  <clipPath id="clip051">
    <rect x="480" y="0" width="1681" height="1600"/>
  </clipPath>
</defs>
<path clip-path="url(#clip050)" d="M86.9921 1521.01 L2352.76 1521.01 L2352.76 47.2441 L86.9921 47.2441  Z" fill="#ffffff" fill-rule="evenodd" fill-opacity="1"/>
<defs>
  <clipPath id="clip052">
    <rect x="86" y="47" width="2267" height="1475"/>
  </clipPath>
</defs>
<polyline clip-path="url(#clip052)" style="stroke:#000000; stroke-linecap:round; stroke-linejoin:round; stroke-width:2; stroke-opacity:0.1; fill:none" points="413.265,1521.01 413.265,47.2441 "/>
<polyline clip-path="url(#clip052)" style="stroke:#000000; stroke-linecap:round; stroke-linejoin:round; stroke-width:2; stroke-opacity:0.1; fill:none" points="816.57,1521.01 816.57,47.2441 "/>
<polyline clip-path="url(#clip052)" style="stroke:#000000; stroke-linecap:round; stroke-linejoin:round; stroke-width:2; stroke-opacity:0.1; fill:none" points="1219.87,1521.01 1219.87,47.2441 "/>
<polyline clip-path="url(#clip052)" style="stroke:#000000; stroke-linecap:round; stroke-linejoin:round; stroke-width:2; stroke-opacity:0.1; fill:none" points="1623.18,1521.01 1623.18,47.2441 "/>
<polyline clip-path="url(#clip052)" style="stroke:#000000; stroke-linecap:round; stroke-linejoin:round; stroke-width:2; stroke-opacity:0.1; fill:none" points="2026.48,1521.01 2026.48,47.2441 "/>
<polyline clip-path="url(#clip050)" style="stroke:#000000; stroke-linecap:round; stroke-linejoin:round; stroke-width:4; stroke-opacity:1; fill:none" points="86.9921,1521.01 2352.76,1521.01 "/>
<polyline clip-path="url(#clip050)" style="stroke:#000000; stroke-linecap:round; stroke-linejoin:round; stroke-width:4; stroke-opacity:1; fill:none" points="413.265,1521.01 413.265,1502.11 "/>
<polyline clip-path="url(#clip050)" style="stroke:#000000; stroke-linecap:round; stroke-linejoin:round; stroke-width:4; stroke-opacity:1; fill:none" points="816.57,1521.01 816.57,1502.11 "/>
<polyline clip-path="url(#clip050)" style="stroke:#000000; stroke-linecap:round; stroke-linejoin:round; stroke-width:4; stroke-opacity:1; fill:none" points="1219.87,1521.01 1219.87,1502.11 "/>
<polyline clip-path="url(#clip050)" style="stroke:#000000; stroke-linecap:round; stroke-linejoin:round; stroke-width:4; stroke-opacity:1; fill:none" points="1623.18,1521.01 1623.18,1502.11 "/>
<polyline clip-path="url(#clip050)" style="stroke:#000000; stroke-linecap:round; stroke-linejoin:round; stroke-width:4; stroke-opacity:1; fill:none" points="2026.48,1521.01 2026.48,1502.11 "/>
<path clip-path="url(#clip050)" d="M380.777 1582.69 L380.777 1578.43 Q382.536 1579.26 384.342 1579.7 Q386.147 1580.14 387.884 1580.14 Q392.513 1580.14 394.944 1577.04 Q397.397 1573.92 397.745 1567.57 Q396.402 1569.57 394.342 1570.63 Q392.282 1571.69 389.782 1571.69 Q384.597 1571.69 381.564 1568.57 Q378.555 1565.42 378.555 1559.98 Q378.555 1554.66 381.703 1551.44 Q384.851 1548.22 390.083 1548.22 Q396.078 1548.22 399.226 1552.83 Q402.397 1557.41 402.397 1566.16 Q402.397 1574.33 398.508 1579.22 Q394.643 1584.08 388.092 1584.08 Q386.333 1584.08 384.527 1583.73 Q382.722 1583.38 380.777 1582.69 M390.083 1568.04 Q393.231 1568.04 395.059 1565.88 Q396.911 1563.73 396.911 1559.98 Q396.911 1556.26 395.059 1554.1 Q393.231 1551.93 390.083 1551.93 Q386.934 1551.93 385.083 1554.1 Q383.254 1556.26 383.254 1559.98 Q383.254 1563.73 385.083 1565.88 Q386.934 1568.04 390.083 1568.04 Z" fill="#000000" fill-rule="nonzero" fill-opacity="1" /><path clip-path="url(#clip050)" d="M410.8 1577.53 L415.684 1577.53 L415.684 1583.41 L410.8 1583.41 L410.8 1577.53 Z" fill="#000000" fill-rule="nonzero" fill-opacity="1" /><path clip-path="url(#clip050)" d="M436.448 1564.26 Q433.3 1564.26 431.448 1566.42 Q429.619 1568.57 429.619 1572.32 Q429.619 1576.05 431.448 1578.22 Q433.3 1580.38 436.448 1580.38 Q439.596 1580.38 441.425 1578.22 Q443.277 1576.05 443.277 1572.32 Q443.277 1568.57 441.425 1566.42 Q439.596 1564.26 436.448 1564.26 M445.73 1549.61 L445.73 1553.87 Q443.971 1553.04 442.166 1552.6 Q440.383 1552.16 438.624 1552.16 Q433.994 1552.16 431.541 1555.28 Q429.11 1558.41 428.763 1564.73 Q430.129 1562.71 432.189 1561.65 Q434.249 1560.56 436.726 1560.56 Q441.934 1560.56 444.943 1563.73 Q447.976 1566.88 447.976 1572.32 Q447.976 1577.64 444.828 1580.86 Q441.68 1584.08 436.448 1584.08 Q430.453 1584.08 427.281 1579.5 Q424.11 1574.89 424.11 1566.16 Q424.11 1557.97 427.999 1553.11 Q431.888 1548.22 438.439 1548.22 Q440.198 1548.22 441.98 1548.57 Q443.786 1548.92 445.73 1549.61 Z" fill="#000000" fill-rule="nonzero" fill-opacity="1" /><path clip-path="url(#clip050)" d="M784.209 1582.69 L784.209 1578.43 Q785.968 1579.26 787.774 1579.7 Q789.579 1580.14 791.315 1580.14 Q795.945 1580.14 798.375 1577.04 Q800.829 1573.92 801.176 1567.57 Q799.834 1569.57 797.773 1570.63 Q795.713 1571.69 793.213 1571.69 Q788.028 1571.69 784.996 1568.57 Q781.987 1565.42 781.987 1559.98 Q781.987 1554.66 785.135 1551.44 Q788.283 1548.22 793.514 1548.22 Q799.51 1548.22 802.658 1552.83 Q805.829 1557.41 805.829 1566.16 Q805.829 1574.33 801.94 1579.22 Q798.074 1584.08 791.524 1584.08 Q789.764 1584.08 787.959 1583.73 Q786.153 1583.38 784.209 1582.69 M793.514 1568.04 Q796.662 1568.04 798.491 1565.88 Q800.343 1563.73 800.343 1559.98 Q800.343 1556.26 798.491 1554.1 Q796.662 1551.93 793.514 1551.93 Q790.366 1551.93 788.514 1554.1 Q786.686 1556.26 786.686 1559.98 Q786.686 1563.73 788.514 1565.88 Q790.366 1568.04 793.514 1568.04 Z" fill="#000000" fill-rule="nonzero" fill-opacity="1" /><path clip-path="url(#clip050)" d="M814.232 1577.53 L819.116 1577.53 L819.116 1583.41 L814.232 1583.41 L814.232 1577.53 Z" fill="#000000" fill-rule="nonzero" fill-opacity="1" /><path clip-path="url(#clip050)" d="M839.301 1567 Q835.968 1567 834.046 1568.78 Q832.148 1570.56 832.148 1573.69 Q832.148 1576.81 834.046 1578.59 Q835.968 1580.38 839.301 1580.38 Q842.634 1580.38 844.556 1578.59 Q846.477 1576.79 846.477 1573.69 Q846.477 1570.56 844.556 1568.78 Q842.657 1567 839.301 1567 M834.625 1565.01 Q831.616 1564.26 829.926 1562.2 Q828.259 1560.14 828.259 1557.18 Q828.259 1553.04 831.199 1550.63 Q834.162 1548.22 839.301 1548.22 Q844.463 1548.22 847.403 1550.63 Q850.343 1553.04 850.343 1557.18 Q850.343 1560.14 848.653 1562.2 Q846.986 1564.26 844 1565.01 Q847.38 1565.79 849.255 1568.08 Q851.153 1570.38 851.153 1573.69 Q851.153 1578.71 848.074 1581.39 Q845.019 1584.08 839.301 1584.08 Q833.583 1584.08 830.505 1581.39 Q827.449 1578.71 827.449 1573.69 Q827.449 1570.38 829.347 1568.08 Q831.246 1565.79 834.625 1565.01 M832.912 1557.62 Q832.912 1560.31 834.579 1561.81 Q836.269 1563.32 839.301 1563.32 Q842.31 1563.32 844 1561.81 Q845.713 1560.31 845.713 1557.62 Q845.713 1554.94 844 1553.43 Q842.31 1551.93 839.301 1551.93 Q836.269 1551.93 834.579 1553.43 Q832.912 1554.94 832.912 1557.62 Z" fill="#000000" fill-rule="nonzero" fill-opacity="1" /><path clip-path="url(#clip050)" d="M1171.95 1579.47 L1179.58 1579.47 L1179.58 1553.11 L1171.27 1554.77 L1171.27 1550.51 L1179.54 1548.85 L1184.21 1548.85 L1184.21 1579.47 L1191.85 1579.47 L1191.85 1583.41 L1171.95 1583.41 L1171.95 1579.47 Z" fill="#000000" fill-rule="nonzero" fill-opacity="1" /><path clip-path="url(#clip050)" d="M1211.3 1551.93 Q1207.69 1551.93 1205.86 1555.49 Q1204.05 1559.03 1204.05 1566.16 Q1204.05 1573.27 1205.86 1576.83 Q1207.69 1580.38 1211.3 1580.38 Q1214.93 1580.38 1216.74 1576.83 Q1218.57 1573.27 1218.57 1566.16 Q1218.57 1559.03 1216.74 1555.49 Q1214.93 1551.93 1211.3 1551.93 M1211.3 1548.22 Q1217.11 1548.22 1220.16 1552.83 Q1223.24 1557.41 1223.24 1566.16 Q1223.24 1574.89 1220.16 1579.5 Q1217.11 1584.08 1211.3 1584.08 Q1205.49 1584.08 1202.41 1579.5 Q1199.35 1574.89 1199.35 1566.16 Q1199.35 1557.41 1202.41 1552.83 Q1205.49 1548.22 1211.3 1548.22 Z" fill="#000000" fill-rule="nonzero" fill-opacity="1" /><path clip-path="url(#clip050)" d="M1231.46 1577.53 L1236.34 1577.53 L1236.34 1583.41 L1231.46 1583.41 L1231.46 1577.53 Z" fill="#000000" fill-rule="nonzero" fill-opacity="1" /><path clip-path="url(#clip050)" d="M1256.53 1551.93 Q1252.92 1551.93 1251.09 1555.49 Q1249.28 1559.03 1249.28 1566.16 Q1249.28 1573.27 1251.09 1576.83 Q1252.92 1580.38 1256.53 1580.38 Q1260.16 1580.38 1261.97 1576.83 Q1263.8 1573.27 1263.8 1566.16 Q1263.8 1559.03 1261.97 1555.49 Q1260.16 1551.93 1256.53 1551.93 M1256.53 1548.22 Q1262.34 1548.22 1265.39 1552.83 Q1268.47 1557.41 1268.47 1566.16 Q1268.47 1574.89 1265.39 1579.5 Q1262.34 1584.08 1256.53 1584.08 Q1250.72 1584.08 1247.64 1579.5 Q1244.58 1574.89 1244.58 1566.16 Q1244.58 1557.41 1247.64 1552.83 Q1250.72 1548.22 1256.53 1548.22 Z" fill="#000000" fill-rule="nonzero" fill-opacity="1" /><path clip-path="url(#clip050)" d="M1576.05 1579.47 L1583.69 1579.47 L1583.69 1553.11 L1575.38 1554.77 L1575.38 1550.51 L1583.64 1548.85 L1588.32 1548.85 L1588.32 1579.47 L1595.96 1579.47 L1595.96 1583.41 L1576.05 1583.41 L1576.05 1579.47 Z" fill="#000000" fill-rule="nonzero" fill-opacity="1" /><path clip-path="url(#clip050)" d="M1615.4 1551.93 Q1611.79 1551.93 1609.96 1555.49 Q1608.16 1559.03 1608.16 1566.16 Q1608.16 1573.27 1609.96 1576.83 Q1611.79 1580.38 1615.4 1580.38 Q1619.03 1580.38 1620.84 1576.83 Q1622.67 1573.27 1622.67 1566.16 Q1622.67 1559.03 1620.84 1555.49 Q1619.03 1551.93 1615.4 1551.93 M1615.4 1548.22 Q1621.21 1548.22 1624.27 1552.83 Q1627.34 1557.41 1627.34 1566.16 Q1627.34 1574.89 1624.27 1579.5 Q1621.21 1584.08 1615.4 1584.08 Q1609.59 1584.08 1606.51 1579.5 Q1603.46 1574.89 1603.46 1566.16 Q1603.46 1557.41 1606.51 1552.83 Q1609.59 1548.22 1615.4 1548.22 Z" fill="#000000" fill-rule="nonzero" fill-opacity="1" /><path clip-path="url(#clip050)" d="M1635.56 1577.53 L1640.45 1577.53 L1640.45 1583.41 L1635.56 1583.41 L1635.56 1577.53 Z" fill="#000000" fill-rule="nonzero" fill-opacity="1" /><path clip-path="url(#clip050)" d="M1654.66 1579.47 L1670.98 1579.47 L1670.98 1583.41 L1649.03 1583.41 L1649.03 1579.47 Q1651.7 1576.72 1656.28 1572.09 Q1660.89 1567.44 1662.07 1566.09 Q1664.31 1563.57 1665.19 1561.83 Q1666.09 1560.07 1666.09 1558.38 Q1666.09 1555.63 1664.15 1553.89 Q1662.23 1552.16 1659.13 1552.16 Q1656.93 1552.16 1654.47 1552.92 Q1652.04 1553.69 1649.27 1555.24 L1649.27 1550.51 Q1652.09 1549.38 1654.54 1548.8 Q1657 1548.22 1659.03 1548.22 Q1664.4 1548.22 1667.6 1550.91 Q1670.79 1553.59 1670.79 1558.08 Q1670.79 1560.21 1669.98 1562.13 Q1669.2 1564.03 1667.09 1566.63 Q1666.51 1567.3 1663.41 1570.51 Q1660.31 1573.71 1654.66 1579.47 Z" fill="#000000" fill-rule="nonzero" fill-opacity="1" /><path clip-path="url(#clip050)" d="M1978.31 1579.47 L1985.95 1579.47 L1985.95 1553.11 L1977.64 1554.77 L1977.64 1550.51 L1985.9 1548.85 L1990.58 1548.85 L1990.58 1579.47 L1998.22 1579.47 L1998.22 1583.41 L1978.31 1583.41 L1978.31 1579.47 Z" fill="#000000" fill-rule="nonzero" fill-opacity="1" /><path clip-path="url(#clip050)" d="M2017.66 1551.93 Q2014.05 1551.93 2012.22 1555.49 Q2010.42 1559.03 2010.42 1566.16 Q2010.42 1573.27 2012.22 1576.83 Q2014.05 1580.38 2017.66 1580.38 Q2021.3 1580.38 2023.1 1576.83 Q2024.93 1573.27 2024.93 1566.16 Q2024.93 1559.03 2023.1 1555.49 Q2021.3 1551.93 2017.66 1551.93 M2017.66 1548.22 Q2023.47 1548.22 2026.53 1552.83 Q2029.61 1557.41 2029.61 1566.16 Q2029.61 1574.89 2026.53 1579.5 Q2023.47 1584.08 2017.66 1584.08 Q2011.85 1584.08 2008.77 1579.5 Q2005.72 1574.89 2005.72 1566.16 Q2005.72 1557.41 2008.77 1552.83 Q2011.85 1548.22 2017.66 1548.22 Z" fill="#000000" fill-rule="nonzero" fill-opacity="1" /><path clip-path="url(#clip050)" d="M2037.83 1577.53 L2042.71 1577.53 L2042.71 1583.41 L2037.83 1583.41 L2037.83 1577.53 Z" fill="#000000" fill-rule="nonzero" fill-opacity="1" /><path clip-path="url(#clip050)" d="M2065.74 1552.92 L2053.94 1571.37 L2065.74 1571.37 L2065.74 1552.92 M2064.51 1548.85 L2070.39 1548.85 L2070.39 1571.37 L2075.33 1571.37 L2075.33 1575.26 L2070.39 1575.26 L2070.39 1583.41 L2065.74 1583.41 L2065.74 1575.26 L2050.14 1575.26 L2050.14 1570.75 L2064.51 1548.85 Z" fill="#000000" fill-rule="nonzero" fill-opacity="1" /><polyline clip-path="url(#clip052)" style="stroke:#000000; stroke-linecap:round; stroke-linejoin:round; stroke-width:2; stroke-opacity:0.1; fill:none" points="86.9921,1521.01 2352.76,1521.01 "/>
<polyline clip-path="url(#clip052)" style="stroke:#000000; stroke-linecap:round; stroke-linejoin:round; stroke-width:2; stroke-opacity:0.1; fill:none" points="86.9921,1273.73 2352.76,1273.73 "/>
<polyline clip-path="url(#clip052)" style="stroke:#000000; stroke-linecap:round; stroke-linejoin:round; stroke-width:2; stroke-opacity:0.1; fill:none" points="86.9921,1026.46 2352.76,1026.46 "/>
<polyline clip-path="url(#clip052)" style="stroke:#000000; stroke-linecap:round; stroke-linejoin:round; stroke-width:2; stroke-opacity:0.1; fill:none" points="86.9921,779.18 2352.76,779.18 "/>
<polyline clip-path="url(#clip052)" style="stroke:#000000; stroke-linecap:round; stroke-linejoin:round; stroke-width:2; stroke-opacity:0.1; fill:none" points="86.9921,531.905 2352.76,531.905 "/>
<polyline clip-path="url(#clip052)" style="stroke:#000000; stroke-linecap:round; stroke-linejoin:round; stroke-width:2; stroke-opacity:0.1; fill:none" points="86.9921,284.629 2352.76,284.629 "/>
<polyline clip-path="url(#clip050)" style="stroke:#000000; stroke-linecap:round; stroke-linejoin:round; stroke-width:4; stroke-opacity:1; fill:none" points="86.9921,1521.01 86.9921,47.2441 "/>
<polyline clip-path="url(#clip050)" style="stroke:#000000; stroke-linecap:round; stroke-linejoin:round; stroke-width:4; stroke-opacity:1; fill:none" points="86.9921,1521.01 105.89,1521.01 "/>
<polyline clip-path="url(#clip050)" style="stroke:#000000; stroke-linecap:round; stroke-linejoin:round; stroke-width:4; stroke-opacity:1; fill:none" points="86.9921,1273.73 105.89,1273.73 "/>
<polyline clip-path="url(#clip050)" style="stroke:#000000; stroke-linecap:round; stroke-linejoin:round; stroke-width:4; stroke-opacity:1; fill:none" points="86.9921,1026.46 105.89,1026.46 "/>
<polyline clip-path="url(#clip050)" style="stroke:#000000; stroke-linecap:round; stroke-linejoin:round; stroke-width:4; stroke-opacity:1; fill:none" points="86.9921,779.18 105.89,779.18 "/>
<polyline clip-path="url(#clip050)" style="stroke:#000000; stroke-linecap:round; stroke-linejoin:round; stroke-width:4; stroke-opacity:1; fill:none" points="86.9921,531.905 105.89,531.905 "/>
<polyline clip-path="url(#clip050)" style="stroke:#000000; stroke-linecap:round; stroke-linejoin:round; stroke-width:4; stroke-opacity:1; fill:none" points="86.9921,284.629 105.89,284.629 "/>
<path clip-path="url(#clip050)" d="M39.0477 1506.81 Q35.4367 1506.81 33.608 1510.37 Q31.8024 1513.91 31.8024 1521.04 Q31.8024 1528.15 33.608 1531.71 Q35.4367 1535.26 39.0477 1535.26 Q42.682 1535.26 44.4875 1531.71 Q46.3162 1528.15 46.3162 1521.04 Q46.3162 1513.91 44.4875 1510.37 Q42.682 1506.81 39.0477 1506.81 M39.0477 1503.1 Q44.8579 1503.1 47.9134 1507.71 Q50.9921 1512.29 50.9921 1521.04 Q50.9921 1529.77 47.9134 1534.38 Q44.8579 1538.96 39.0477 1538.96 Q33.2376 1538.96 30.1589 1534.38 Q27.1034 1529.77 27.1034 1521.04 Q27.1034 1512.29 30.1589 1507.71 Q33.2376 1503.1 39.0477 1503.1 Z" fill="#000000" fill-rule="nonzero" fill-opacity="1" /><path clip-path="url(#clip050)" d="M-30.4658 1287.08 L-22.8269 1287.08 L-22.8269 1260.71 L-31.1371 1262.38 L-31.1371 1258.12 L-22.8732 1256.45 L-18.1973 1256.45 L-18.1973 1287.08 L-10.5585 1287.08 L-10.5585 1291.01 L-30.4658 1291.01 L-30.4658 1287.08 Z" fill="#000000" fill-rule="nonzero" fill-opacity="1" /><path clip-path="url(#clip050)" d="M8.88587 1259.53 Q5.27478 1259.53 3.44608 1263.1 Q1.64054 1266.64 1.64054 1273.77 Q1.64054 1280.87 3.44608 1284.44 Q5.27478 1287.98 8.88587 1287.98 Q12.5201 1287.98 14.3257 1284.44 Q16.1543 1280.87 16.1543 1273.77 Q16.1543 1266.64 14.3257 1263.1 Q12.5201 1259.53 8.88587 1259.53 M8.88587 1255.83 Q14.696 1255.83 17.7516 1260.43 Q20.8303 1265.02 20.8303 1273.77 Q20.8303 1282.49 17.7516 1287.1 Q14.696 1291.68 8.88587 1291.68 Q3.07572 1291.68 -0.00297114 1287.1 Q-3.05851 1282.49 -3.05851 1273.77 Q-3.05851 1265.02 -0.00297114 1260.43 Q3.07572 1255.83 8.88587 1255.83 Z" fill="#000000" fill-rule="nonzero" fill-opacity="1" /><path clip-path="url(#clip050)" d="M39.0477 1259.53 Q35.4367 1259.53 33.608 1263.1 Q31.8024 1266.64 31.8024 1273.77 Q31.8024 1280.87 33.608 1284.44 Q35.4367 1287.98 39.0477 1287.98 Q42.682 1287.98 44.4875 1284.44 Q46.3162 1280.87 46.3162 1273.77 Q46.3162 1266.64 44.4875 1263.1 Q42.682 1259.53 39.0477 1259.53 M39.0477 1255.83 Q44.8579 1255.83 47.9134 1260.43 Q50.9921 1265.02 50.9921 1273.77 Q50.9921 1282.49 47.9134 1287.1 Q44.8579 1291.68 39.0477 1291.68 Q33.2376 1291.68 30.1589 1287.1 Q27.1034 1282.49 27.1034 1273.77 Q27.1034 1265.02 30.1589 1260.43 Q33.2376 1255.83 39.0477 1255.83 Z" fill="#000000" fill-rule="nonzero" fill-opacity="1" /><path clip-path="url(#clip050)" d="M-27.2482 1039.8 L-10.9288 1039.8 L-10.9288 1043.74 L-32.8732 1043.74 L-32.8732 1039.8 Q-30.2111 1037.05 -25.6278 1032.42 Q-21.0214 1027.76 -19.8408 1026.42 Q-17.5955 1023.9 -16.7158 1022.16 Q-15.8131 1020.4 -15.8131 1018.71 Q-15.8131 1015.96 -17.7575 1014.22 Q-19.6788 1012.49 -22.7806 1012.49 Q-24.9797 1012.49 -27.4334 1013.25 Q-29.8639 1014.01 -32.6417 1015.57 L-32.6417 1010.84 Q-29.8176 1009.71 -27.3639 1009.13 Q-24.9102 1008.55 -22.8732 1008.55 Q-17.5029 1008.55 -14.3085 1011.24 Q-11.114 1013.92 -11.114 1018.41 Q-11.114 1020.54 -11.9242 1022.46 Q-12.7112 1024.36 -14.8177 1026.95 Q-15.3964 1027.63 -18.4982 1030.84 Q-21.6001 1034.04 -27.2482 1039.8 Z" fill="#000000" fill-rule="nonzero" fill-opacity="1" /><path clip-path="url(#clip050)" d="M8.88587 1012.25 Q5.27478 1012.25 3.44608 1015.82 Q1.64054 1019.36 1.64054 1026.49 Q1.64054 1033.6 3.44608 1037.16 Q5.27478 1040.7 8.88587 1040.7 Q12.5201 1040.7 14.3257 1037.16 Q16.1543 1033.6 16.1543 1026.49 Q16.1543 1019.36 14.3257 1015.82 Q12.5201 1012.25 8.88587 1012.25 M8.88587 1008.55 Q14.696 1008.55 17.7516 1013.16 Q20.8303 1017.74 20.8303 1026.49 Q20.8303 1035.22 17.7516 1039.82 Q14.696 1044.41 8.88587 1044.41 Q3.07572 1044.41 -0.00297114 1039.82 Q-3.05851 1035.22 -3.05851 1026.49 Q-3.05851 1017.74 -0.00297114 1013.16 Q3.07572 1008.55 8.88587 1008.55 Z" fill="#000000" fill-rule="nonzero" fill-opacity="1" /><path clip-path="url(#clip050)" d="M39.0477 1012.25 Q35.4367 1012.25 33.608 1015.82 Q31.8024 1019.36 31.8024 1026.49 Q31.8024 1033.6 33.608 1037.16 Q35.4367 1040.7 39.0477 1040.7 Q42.682 1040.7 44.4875 1037.16 Q46.3162 1033.6 46.3162 1026.49 Q46.3162 1019.36 44.4875 1015.82 Q42.682 1012.25 39.0477 1012.25 M39.0477 1008.55 Q44.8579 1008.55 47.9134 1013.16 Q50.9921 1017.74 50.9921 1026.49 Q50.9921 1035.22 47.9134 1039.82 Q44.8579 1044.41 39.0477 1044.41 Q33.2376 1044.41 30.1589 1039.82 Q27.1034 1035.22 27.1034 1026.49 Q27.1034 1017.74 30.1589 1013.16 Q33.2376 1008.55 39.0477 1008.55 Z" fill="#000000" fill-rule="nonzero" fill-opacity="1" /><path clip-path="url(#clip050)" d="M-17.1094 777.826 Q-13.7529 778.544 -11.8779 780.812 Q-9.97977 783.081 -9.97977 786.414 Q-9.97977 791.53 -13.4983 794.331 Q-17.0168 797.132 -23.4982 797.132 Q-25.6741 797.132 -27.9889 796.692 Q-30.2806 796.275 -32.7343 795.419 L-32.7343 790.905 Q-30.7898 792.039 -28.475 792.618 Q-26.1602 793.197 -23.6371 793.197 Q-19.239 793.197 -16.9473 791.46 Q-14.6325 789.724 -14.6325 786.414 Q-14.6325 783.359 -16.7853 781.646 Q-18.9149 779.91 -22.7343 779.91 L-26.7621 779.91 L-26.7621 776.067 L-22.5491 776.067 Q-19.1001 776.067 -17.2714 774.701 Q-15.4427 773.312 -15.4427 770.72 Q-15.4427 768.058 -17.3408 766.646 Q-19.2158 765.211 -22.7343 765.211 Q-24.6556 765.211 -26.8547 765.627 Q-29.0537 766.044 -31.6926 766.924 L-31.6926 762.757 Q-29.0306 762.016 -26.7158 761.646 Q-24.3778 761.275 -22.3177 761.275 Q-16.9936 761.275 -13.8918 763.706 Q-10.79 766.113 -10.79 770.234 Q-10.79 773.104 -12.4335 775.095 Q-14.077 777.062 -17.1094 777.826 Z" fill="#000000" fill-rule="nonzero" fill-opacity="1" /><path clip-path="url(#clip050)" d="M8.88587 764.979 Q5.27478 764.979 3.44608 768.544 Q1.64054 772.086 1.64054 779.215 Q1.64054 786.322 3.44608 789.886 Q5.27478 793.428 8.88587 793.428 Q12.5201 793.428 14.3257 789.886 Q16.1543 786.322 16.1543 779.215 Q16.1543 772.086 14.3257 768.544 Q12.5201 764.979 8.88587 764.979 M8.88587 761.275 Q14.696 761.275 17.7516 765.882 Q20.8303 770.465 20.8303 779.215 Q20.8303 787.942 17.7516 792.548 Q14.696 797.132 8.88587 797.132 Q3.07572 797.132 -0.00297114 792.548 Q-3.05851 787.942 -3.05851 779.215 Q-3.05851 770.465 -0.00297114 765.882 Q3.07572 761.275 8.88587 761.275 Z" fill="#000000" fill-rule="nonzero" fill-opacity="1" /><path clip-path="url(#clip050)" d="M39.0477 764.979 Q35.4367 764.979 33.608 768.544 Q31.8024 772.086 31.8024 779.215 Q31.8024 786.322 33.608 789.886 Q35.4367 793.428 39.0477 793.428 Q42.682 793.428 44.4875 789.886 Q46.3162 786.322 46.3162 779.215 Q46.3162 772.086 44.4875 768.544 Q42.682 764.979 39.0477 764.979 M39.0477 761.275 Q44.8579 761.275 47.9134 765.882 Q50.9921 770.465 50.9921 779.215 Q50.9921 787.942 47.9134 792.548 Q44.8579 797.132 39.0477 797.132 Q33.2376 797.132 30.1589 792.548 Q27.1034 787.942 27.1034 779.215 Q27.1034 770.465 30.1589 765.882 Q33.2376 761.275 39.0477 761.275 Z" fill="#000000" fill-rule="nonzero" fill-opacity="1" /><path clip-path="url(#clip050)" d="M-18.4288 518.699 L-30.2343 537.148 L-18.4288 537.148 L-18.4288 518.699 M-19.6556 514.625 L-13.776 514.625 L-13.776 537.148 L-8.84552 537.148 L-8.84552 541.037 L-13.776 541.037 L-13.776 549.185 L-18.4288 549.185 L-18.4288 541.037 L-34.0306 541.037 L-34.0306 536.523 L-19.6556 514.625 Z" fill="#000000" fill-rule="nonzero" fill-opacity="1" /><path clip-path="url(#clip050)" d="M8.88587 517.703 Q5.27478 517.703 3.44608 521.268 Q1.64054 524.81 1.64054 531.939 Q1.64054 539.046 3.44608 542.611 Q5.27478 546.152 8.88587 546.152 Q12.5201 546.152 14.3257 542.611 Q16.1543 539.046 16.1543 531.939 Q16.1543 524.81 14.3257 521.268 Q12.5201 517.703 8.88587 517.703 M8.88587 514 Q14.696 514 17.7516 518.606 Q20.8303 523.189 20.8303 531.939 Q20.8303 540.666 17.7516 545.273 Q14.696 549.856 8.88587 549.856 Q3.07572 549.856 -0.00297114 545.273 Q-3.05851 540.666 -3.05851 531.939 Q-3.05851 523.189 -0.00297114 518.606 Q3.07572 514 8.88587 514 Z" fill="#000000" fill-rule="nonzero" fill-opacity="1" /><path clip-path="url(#clip050)" d="M39.0477 517.703 Q35.4367 517.703 33.608 521.268 Q31.8024 524.81 31.8024 531.939 Q31.8024 539.046 33.608 542.611 Q35.4367 546.152 39.0477 546.152 Q42.682 546.152 44.4875 542.611 Q46.3162 539.046 46.3162 531.939 Q46.3162 524.81 44.4875 521.268 Q42.682 517.703 39.0477 517.703 M39.0477 514 Q44.8579 514 47.9134 518.606 Q50.9921 523.189 50.9921 531.939 Q50.9921 540.666 47.9134 545.273 Q44.8579 549.856 39.0477 549.856 Q33.2376 549.856 30.1589 545.273 Q27.1034 540.666 27.1034 531.939 Q27.1034 523.189 30.1589 518.606 Q33.2376 514 39.0477 514 Z" fill="#000000" fill-rule="nonzero" fill-opacity="1" /><path clip-path="url(#clip050)" d="M-31.2297 267.349 L-12.8733 267.349 L-12.8733 271.284 L-26.9473 271.284 L-26.9473 279.756 Q-25.9288 279.409 -24.9102 279.247 Q-23.8917 279.062 -22.8732 279.062 Q-17.0862 279.062 -13.7066 282.233 Q-10.327 285.404 -10.327 290.821 Q-10.327 296.4 -13.7992 299.501 Q-17.2714 302.58 -23.5908 302.58 Q-25.7667 302.58 -28.0352 302.21 Q-30.2806 301.839 -32.688 301.099 L-32.688 296.4 Q-30.6047 297.534 -28.3824 298.089 Q-26.1602 298.645 -23.6834 298.645 Q-19.6788 298.645 -17.3408 296.539 Q-15.0029 294.432 -15.0029 290.821 Q-15.0029 287.21 -17.3408 285.103 Q-19.6788 282.997 -23.6834 282.997 Q-25.5584 282.997 -27.4334 283.414 Q-29.2852 283.83 -31.2297 284.71 L-31.2297 267.349 Z" fill="#000000" fill-rule="nonzero" fill-opacity="1" /><path clip-path="url(#clip050)" d="M8.88587 270.428 Q5.27478 270.428 3.44608 273.992 Q1.64054 277.534 1.64054 284.664 Q1.64054 291.77 3.44608 295.335 Q5.27478 298.876 8.88587 298.876 Q12.5201 298.876 14.3257 295.335 Q16.1543 291.77 16.1543 284.664 Q16.1543 277.534 14.3257 273.992 Q12.5201 270.428 8.88587 270.428 M8.88587 266.724 Q14.696 266.724 17.7516 271.33 Q20.8303 275.914 20.8303 284.664 Q20.8303 293.39 17.7516 297.997 Q14.696 302.58 8.88587 302.58 Q3.07572 302.58 -0.00297114 297.997 Q-3.05851 293.39 -3.05851 284.664 Q-3.05851 275.914 -0.00297114 271.33 Q3.07572 266.724 8.88587 266.724 Z" fill="#000000" fill-rule="nonzero" fill-opacity="1" /><path clip-path="url(#clip050)" d="M39.0477 270.428 Q35.4367 270.428 33.608 273.992 Q31.8024 277.534 31.8024 284.664 Q31.8024 291.77 33.608 295.335 Q35.4367 298.876 39.0477 298.876 Q42.682 298.876 44.4875 295.335 Q46.3162 291.77 46.3162 284.664 Q46.3162 277.534 44.4875 273.992 Q42.682 270.428 39.0477 270.428 M39.0477 266.724 Q44.8579 266.724 47.9134 271.33 Q50.9921 275.914 50.9921 284.664 Q50.9921 293.39 47.9134 297.997 Q44.8579 302.58 39.0477 302.58 Q33.2376 302.58 30.1589 297.997 Q27.1034 293.39 27.1034 284.664 Q27.1034 275.914 30.1589 271.33 Q33.2376 266.724 39.0477 266.724 Z" fill="#000000" fill-rule="nonzero" fill-opacity="1" /><path clip-path="url(#clip052)" d="M211.613 472.558 L211.613 1521.01 L413.265 1521.01 L413.265 472.558 L211.613 472.558 L211.613 472.558  Z" fill="#009af9" fill-rule="evenodd" fill-opacity="1"/>
<polyline clip-path="url(#clip052)" style="stroke:#000000; stroke-linecap:round; stroke-linejoin:round; stroke-width:4; stroke-opacity:1; fill:none" points="211.613,472.558 211.613,1521.01 413.265,1521.01 413.265,472.558 211.613,472.558 "/>
<path clip-path="url(#clip052)" d="M413.265 447.831 L413.265 1521.01 L614.918 1521.01 L614.918 447.831 L413.265 447.831 L413.265 447.831  Z" fill="#009af9" fill-rule="evenodd" fill-opacity="1"/>
<polyline clip-path="url(#clip052)" style="stroke:#000000; stroke-linecap:round; stroke-linejoin:round; stroke-width:4; stroke-opacity:1; fill:none" points="413.265,447.831 413.265,1521.01 614.918,1521.01 614.918,447.831 413.265,447.831 "/>
<path clip-path="url(#clip052)" d="M614.918 420.631 L614.918 1521.01 L816.57 1521.01 L816.57 420.631 L614.918 420.631 L614.918 420.631  Z" fill="#009af9" fill-rule="evenodd" fill-opacity="1"/>
<polyline clip-path="url(#clip052)" style="stroke:#000000; stroke-linecap:round; stroke-linejoin:round; stroke-width:4; stroke-opacity:1; fill:none" points="614.918,420.631 614.918,1521.01 816.57,1521.01 816.57,420.631 614.918,420.631 "/>
<path clip-path="url(#clip052)" d="M816.57 351.393 L816.57 1521.01 L1018.22 1521.01 L1018.22 351.393 L816.57 351.393 L816.57 351.393  Z" fill="#009af9" fill-rule="evenodd" fill-opacity="1"/>
<polyline clip-path="url(#clip052)" style="stroke:#000000; stroke-linecap:round; stroke-linejoin:round; stroke-width:4; stroke-opacity:1; fill:none" points="816.57,351.393 816.57,1521.01 1018.22,1521.01 1018.22,351.393 816.57,351.393 "/>
<path clip-path="url(#clip052)" d="M1018.22 247.537 L1018.22 1521.01 L1219.87 1521.01 L1219.87 247.537 L1018.22 247.537 L1018.22 247.537  Z" fill="#009af9" fill-rule="evenodd" fill-opacity="1"/>
<polyline clip-path="url(#clip052)" style="stroke:#000000; stroke-linecap:round; stroke-linejoin:round; stroke-width:4; stroke-opacity:1; fill:none" points="1018.22,247.537 1018.22,1521.01 1219.87,1521.01 1219.87,247.537 1018.22,247.537 "/>
<path clip-path="url(#clip052)" d="M1219.87 341.502 L1219.87 1521.01 L1421.53 1521.01 L1421.53 341.502 L1219.87 341.502 L1219.87 341.502  Z" fill="#009af9" fill-rule="evenodd" fill-opacity="1"/>
<polyline clip-path="url(#clip052)" style="stroke:#000000; stroke-linecap:round; stroke-linejoin:round; stroke-width:4; stroke-opacity:1; fill:none" points="1219.87,341.502 1219.87,1521.01 1421.53,1521.01 1421.53,341.502 1219.87,341.502 "/>
<path clip-path="url(#clip052)" d="M1421.53 220.337 L1421.53 1521.01 L1623.18 1521.01 L1623.18 220.337 L1421.53 220.337 L1421.53 220.337  Z" fill="#009af9" fill-rule="evenodd" fill-opacity="1"/>
<polyline clip-path="url(#clip052)" style="stroke:#000000; stroke-linecap:round; stroke-linejoin:round; stroke-width:4; stroke-opacity:1; fill:none" points="1421.53,220.337 1421.53,1521.01 1623.18,1521.01 1623.18,220.337 1421.53,220.337 "/>
<path clip-path="url(#clip052)" d="M1623.18 227.755 L1623.18 1521.01 L1824.83 1521.01 L1824.83 227.755 L1623.18 227.755 L1623.18 227.755  Z" fill="#009af9" fill-rule="evenodd" fill-opacity="1"/>
<polyline clip-path="url(#clip052)" style="stroke:#000000; stroke-linecap:round; stroke-linejoin:round; stroke-width:4; stroke-opacity:1; fill:none" points="1623.18,227.755 1623.18,1521.01 1824.83,1521.01 1824.83,227.755 1623.18,227.755 "/>
<path clip-path="url(#clip052)" d="M1824.83 47.2441 L1824.83 1521.01 L2026.48 1521.01 L2026.48 47.2441 L1824.83 47.2441 L1824.83 47.2441  Z" fill="#009af9" fill-rule="evenodd" fill-opacity="1"/>
<polyline clip-path="url(#clip052)" style="stroke:#000000; stroke-linecap:round; stroke-linejoin:round; stroke-width:4; stroke-opacity:1; fill:none" points="1824.83,47.2441 1824.83,1521.01 2026.48,1521.01 2026.48,47.2441 1824.83,47.2441 "/>
<path clip-path="url(#clip052)" d="M2026.48 69.4989 L2026.48 1521.01 L2228.13 1521.01 L2228.13 69.4989 L2026.48 69.4989 L2026.48 69.4989  Z" fill="#009af9" fill-rule="evenodd" fill-opacity="1"/>
<polyline clip-path="url(#clip052)" style="stroke:#000000; stroke-linecap:round; stroke-linejoin:round; stroke-width:4; stroke-opacity:1; fill:none" points="2026.48,69.4989 2026.48,1521.01 2228.13,1521.01 2228.13,69.4989 2026.48,69.4989 "/>
<circle clip-path="url(#clip052)" style="fill:#009af9; stroke:none; fill-opacity:0" cx="312.439" cy="472.558" r="2"/>
<circle clip-path="url(#clip052)" style="fill:#009af9; stroke:none; fill-opacity:0" cx="514.091" cy="447.831" r="2"/>
<circle clip-path="url(#clip052)" style="fill:#009af9; stroke:none; fill-opacity:0" cx="715.744" cy="420.631" r="2"/>
<circle clip-path="url(#clip052)" style="fill:#009af9; stroke:none; fill-opacity:0" cx="917.396" cy="351.393" r="2"/>
<circle clip-path="url(#clip052)" style="fill:#009af9; stroke:none; fill-opacity:0" cx="1119.05" cy="247.537" r="2"/>
<circle clip-path="url(#clip052)" style="fill:#009af9; stroke:none; fill-opacity:0" cx="1320.7" cy="341.502" r="2"/>
<circle clip-path="url(#clip052)" style="fill:#009af9; stroke:none; fill-opacity:0" cx="1522.35" cy="220.337" r="2"/>
<circle clip-path="url(#clip052)" style="fill:#009af9; stroke:none; fill-opacity:0" cx="1724" cy="227.755" r="2"/>
<circle clip-path="url(#clip052)" style="fill:#009af9; stroke:none; fill-opacity:0" cx="1925.66" cy="47.2441" r="2"/>
<circle clip-path="url(#clip052)" style="fill:#009af9; stroke:none; fill-opacity:0" cx="2127.31" cy="69.4989" r="2"/>
<path clip-path="url(#clip050)" d="M162.518 200.05 L441.524 200.05 L441.524 96.3696 L162.518 96.3696  Z" fill="#ffffff" fill-rule="evenodd" fill-opacity="1"/>
<polyline clip-path="url(#clip050)" style="stroke:#000000; stroke-linecap:round; stroke-linejoin:round; stroke-width:4; stroke-opacity:1; fill:none" points="162.518,200.05 441.524,200.05 441.524,96.3696 162.518,96.3696 162.518,200.05 "/>
<path clip-path="url(#clip050)" d="M187.693 168.946 L338.744 168.946 L338.744 127.474 L187.693 127.474 L187.693 168.946  Z" fill="#009af9" fill-rule="evenodd" fill-opacity="1"/>
<polyline clip-path="url(#clip050)" style="stroke:#000000; stroke-linecap:round; stroke-linejoin:round; stroke-width:4; stroke-opacity:1; fill:none" points="187.693,168.946 338.744,168.946 338.744,127.474 187.693,127.474 187.693,168.946 "/>
<path clip-path="url(#clip050)" d="M377.761 167.897 Q375.956 172.527 374.243 173.939 Q372.53 175.351 369.66 175.351 L366.257 175.351 L366.257 171.786 L368.757 171.786 Q370.516 171.786 371.488 170.952 Q372.46 170.119 373.641 167.017 L374.405 165.073 L363.919 139.564 L368.433 139.564 L376.534 159.841 L384.636 139.564 L389.15 139.564 L377.761 167.897 Z" fill="#000000" fill-rule="nonzero" fill-opacity="1" /><path clip-path="url(#clip050)" d="M396.442 161.554 L404.081 161.554 L404.081 135.189 L395.77 136.855 L395.77 132.596 L404.034 130.93 L408.71 130.93 L408.71 161.554 L416.349 161.554 L416.349 165.49 L396.442 165.49 L396.442 161.554 Z" fill="#000000" fill-rule="nonzero" fill-opacity="1" /></svg>
