<?xml version="1.0" encoding="utf-8"?>
<svg xmlns="http://www.w3.org/2000/svg" xmlns:xlink="http://www.w3.org/1999/xlink" width="600" height="400" viewBox="0 0 2400 1600">
<defs>
  <clipPath id="clip310">
    <rect x="0" y="0" width="2400" height="1600"/>
  </clipPath>
</defs>
<path clip-path="url(#clip310)" d="M0 1600 L2400 1600 L2400 0 L0 0  Z" fill="#ffffff" fill-rule="evenodd" fill-opacity="1"/>
<defs>
  <clipPath id="clip311">
    <rect x="480" y="0" width="1681" height="1600"/>
  </clipPath>
</defs>
<path clip-path="url(#clip310)" d="M86.9921 1521.01 L2352.76 1521.01 L2352.76 47.2441 L86.9921 47.2441  Z" fill="#ffffff" fill-rule="evenodd" fill-opacity="1"/>
<defs>
  <clipPath id="clip312">
    <rect x="86" y="47" width="2267" height="1475"/>
  </clipPath>
</defs>
<polyline clip-path="url(#clip312)" style="stroke:#000000; stroke-linecap:round; stroke-linejoin:round; stroke-width:2; stroke-opacity:0.1; fill:none" points="532.295,1521.01 532.295,47.2441 "/>
<polyline clip-path="url(#clip312)" style="stroke:#000000; stroke-linecap:round; stroke-linejoin:round; stroke-width:2; stroke-opacity:0.1; fill:none" points="1001.1,1521.01 1001.1,47.2441 "/>
<polyline clip-path="url(#clip312)" style="stroke:#000000; stroke-linecap:round; stroke-linejoin:round; stroke-width:2; stroke-opacity:0.1; fill:none" points="1469.9,1521.01 1469.9,47.2441 "/>
<polyline clip-path="url(#clip312)" style="stroke:#000000; stroke-linecap:round; stroke-linejoin:round; stroke-width:2; stroke-opacity:0.1; fill:none" points="1938.71,1521.01 1938.71,47.2441 "/>
<polyline clip-path="url(#clip310)" style="stroke:#000000; stroke-linecap:round; stroke-linejoin:round; stroke-width:4; stroke-opacity:1; fill:none" points="86.9921,1521.01 2352.76,1521.01 "/>
<polyline clip-path="url(#clip310)" style="stroke:#000000; stroke-linecap:round; stroke-linejoin:round; stroke-width:4; stroke-opacity:1; fill:none" points="532.295,1521.01 532.295,1502.11 "/>
<polyline clip-path="url(#clip310)" style="stroke:#000000; stroke-linecap:round; stroke-linejoin:round; stroke-width:4; stroke-opacity:1; fill:none" points="1001.1,1521.01 1001.1,1502.11 "/>
<polyline clip-path="url(#clip310)" style="stroke:#000000; stroke-linecap:round; stroke-linejoin:round; stroke-width:4; stroke-opacity:1; fill:none" points="1469.9,1521.01 1469.9,1502.11 "/>
<polyline clip-path="url(#clip310)" style="stroke:#000000; stroke-linecap:round; stroke-linejoin:round; stroke-width:4; stroke-opacity:1; fill:none" points="1938.71,1521.01 1938.71,1502.11 "/>
<path clip-path="url(#clip310)" d="M532.7 1564.26 Q529.552 1564.26 527.7 1566.42 Q525.871 1568.57 525.871 1572.32 Q525.871 1576.05 527.7 1578.22 Q529.552 1580.38 532.7 1580.38 Q535.848 1580.38 537.677 1578.22 Q539.529 1576.05 539.529 1572.32 Q539.529 1568.57 537.677 1566.42 Q535.848 1564.26 532.7 1564.26 M541.982 1549.61 L541.982 1553.87 Q540.223 1553.04 538.418 1552.6 Q536.635 1552.16 534.876 1552.16 Q530.246 1552.16 527.793 1555.28 Q525.362 1558.41 525.015 1564.73 Q526.381 1562.71 528.441 1561.65 Q530.501 1560.56 532.978 1560.56 Q538.186 1560.56 541.195 1563.73 Q544.228 1566.88 544.228 1572.32 Q544.228 1577.64 541.08 1580.86 Q537.932 1584.08 532.7 1584.08 Q526.705 1584.08 523.533 1579.5 Q520.362 1574.89 520.362 1566.16 Q520.362 1557.97 524.251 1553.11 Q528.14 1548.22 534.691 1548.22 Q536.45 1548.22 538.232 1548.57 Q540.038 1548.92 541.982 1549.61 Z" fill="#000000" fill-rule="nonzero" fill-opacity="1" /><path clip-path="url(#clip310)" d="M991.4 1582.69 L991.4 1578.43 Q993.159 1579.26 994.965 1579.7 Q996.77 1580.14 998.506 1580.14 Q1003.14 1580.14 1005.57 1577.04 Q1008.02 1573.92 1008.37 1567.57 Q1007.02 1569.57 1004.96 1570.63 Q1002.9 1571.69 1000.4 1571.69 Q995.219 1571.69 992.187 1568.57 Q989.178 1565.42 989.178 1559.98 Q989.178 1554.66 992.326 1551.44 Q995.474 1548.22 1000.71 1548.22 Q1006.7 1548.22 1009.85 1552.83 Q1013.02 1557.41 1013.02 1566.16 Q1013.02 1574.33 1009.13 1579.22 Q1005.27 1584.08 998.715 1584.08 Q996.955 1584.08 995.15 1583.73 Q993.344 1583.38 991.4 1582.69 M1000.71 1568.04 Q1003.85 1568.04 1005.68 1565.88 Q1007.53 1563.73 1007.53 1559.98 Q1007.53 1556.26 1005.68 1554.1 Q1003.85 1551.93 1000.71 1551.93 Q997.557 1551.93 995.705 1554.1 Q993.877 1556.26 993.877 1559.98 Q993.877 1563.73 995.705 1565.88 Q997.557 1568.04 1000.71 1568.04 Z" fill="#000000" fill-rule="nonzero" fill-opacity="1" /><path clip-path="url(#clip310)" d="M1445.39 1579.47 L1453.03 1579.47 L1453.03 1553.11 L1444.72 1554.77 L1444.72 1550.51 L1452.98 1548.85 L1457.66 1548.85 L1457.66 1579.47 L1465.3 1579.47 L1465.3 1583.41 L1445.39 1583.41 L1445.39 1579.47 Z" fill="#000000" fill-rule="nonzero" fill-opacity="1" /><path clip-path="url(#clip310)" d="M1478.77 1579.47 L1495.09 1579.47 L1495.09 1583.41 L1473.14 1583.41 L1473.14 1579.47 Q1475.81 1576.72 1480.39 1572.09 Q1485 1567.44 1486.18 1566.09 Q1488.42 1563.57 1489.3 1561.83 Q1490.2 1560.07 1490.2 1558.38 Q1490.2 1555.63 1488.26 1553.89 Q1486.34 1552.16 1483.24 1552.16 Q1481.04 1552.16 1478.58 1552.92 Q1476.15 1553.69 1473.37 1555.24 L1473.37 1550.51 Q1476.2 1549.38 1478.65 1548.8 Q1481.11 1548.22 1483.14 1548.22 Q1488.51 1548.22 1491.71 1550.91 Q1494.9 1553.59 1494.9 1558.08 Q1494.9 1560.21 1494.09 1562.13 Q1493.31 1564.03 1491.2 1566.63 Q1490.62 1567.3 1487.52 1570.51 Q1484.42 1573.71 1478.77 1579.47 Z" fill="#000000" fill-rule="nonzero" fill-opacity="1" /><path clip-path="url(#clip310)" d="M1913.89 1579.47 L1921.53 1579.47 L1921.53 1553.11 L1913.22 1554.77 L1913.22 1550.51 L1921.48 1548.85 L1926.16 1548.85 L1926.16 1579.47 L1933.8 1579.47 L1933.8 1583.41 L1913.89 1583.41 L1913.89 1579.47 Z" fill="#000000" fill-rule="nonzero" fill-opacity="1" /><path clip-path="url(#clip310)" d="M1943.29 1548.85 L1961.65 1548.85 L1961.65 1552.78 L1947.57 1552.78 L1947.57 1561.26 Q1948.59 1560.91 1949.61 1560.75 Q1950.63 1560.56 1951.65 1560.56 Q1957.43 1560.56 1960.81 1563.73 Q1964.19 1566.9 1964.19 1572.32 Q1964.19 1577.9 1960.72 1581 Q1957.25 1584.08 1950.93 1584.08 Q1948.75 1584.08 1946.48 1583.71 Q1944.24 1583.34 1941.83 1582.6 L1941.83 1577.9 Q1943.91 1579.03 1946.14 1579.59 Q1948.36 1580.14 1950.84 1580.14 Q1954.84 1580.14 1957.18 1578.04 Q1959.52 1575.93 1959.52 1572.32 Q1959.52 1568.71 1957.18 1566.6 Q1954.84 1564.5 1950.84 1564.5 Q1948.96 1564.5 1947.09 1564.91 Q1945.23 1565.33 1943.29 1566.21 L1943.29 1548.85 Z" fill="#000000" fill-rule="nonzero" fill-opacity="1" /><polyline clip-path="url(#clip312)" style="stroke:#000000; stroke-linecap:round; stroke-linejoin:round; stroke-width:2; stroke-opacity:0.1; fill:none" points="86.9921,1479.43 2352.76,1479.43 "/>
<polyline clip-path="url(#clip312)" style="stroke:#000000; stroke-linecap:round; stroke-linejoin:round; stroke-width:2; stroke-opacity:0.1; fill:none" points="86.9921,1167.39 2352.76,1167.39 "/>
<polyline clip-path="url(#clip312)" style="stroke:#000000; stroke-linecap:round; stroke-linejoin:round; stroke-width:2; stroke-opacity:0.1; fill:none" points="86.9921,855.357 2352.76,855.357 "/>
<polyline clip-path="url(#clip312)" style="stroke:#000000; stroke-linecap:round; stroke-linejoin:round; stroke-width:2; stroke-opacity:0.1; fill:none" points="86.9921,543.32 2352.76,543.32 "/>
<polyline clip-path="url(#clip312)" style="stroke:#000000; stroke-linecap:round; stroke-linejoin:round; stroke-width:2; stroke-opacity:0.1; fill:none" points="86.9921,231.283 2352.76,231.283 "/>
<polyline clip-path="url(#clip310)" style="stroke:#000000; stroke-linecap:round; stroke-linejoin:round; stroke-width:4; stroke-opacity:1; fill:none" points="86.9921,1521.01 86.9921,47.2441 "/>
<polyline clip-path="url(#clip310)" style="stroke:#000000; stroke-linecap:round; stroke-linejoin:round; stroke-width:4; stroke-opacity:1; fill:none" points="86.9921,1479.43 105.89,1479.43 "/>
<polyline clip-path="url(#clip310)" style="stroke:#000000; stroke-linecap:round; stroke-linejoin:round; stroke-width:4; stroke-opacity:1; fill:none" points="86.9921,1167.39 105.89,1167.39 "/>
<polyline clip-path="url(#clip310)" style="stroke:#000000; stroke-linecap:round; stroke-linejoin:round; stroke-width:4; stroke-opacity:1; fill:none" points="86.9921,855.357 105.89,855.357 "/>
<polyline clip-path="url(#clip310)" style="stroke:#000000; stroke-linecap:round; stroke-linejoin:round; stroke-width:4; stroke-opacity:1; fill:none" points="86.9921,543.32 105.89,543.32 "/>
<polyline clip-path="url(#clip310)" style="stroke:#000000; stroke-linecap:round; stroke-linejoin:round; stroke-width:4; stroke-opacity:1; fill:none" points="86.9921,231.283 105.89,231.283 "/>
<path clip-path="url(#clip310)" d="M10.8708 1502.05 Q10.8708 1505.66 14.4356 1507.49 Q17.9773 1509.29 25.1068 1509.29 Q32.2133 1509.29 35.7781 1507.49 Q39.3197 1505.66 39.3197 1502.05 Q39.3197 1498.41 35.7781 1496.61 Q32.2133 1494.78 25.1068 1494.78 Q17.9773 1494.78 14.4356 1496.61 Q10.8708 1498.41 10.8708 1502.05 M7.16713 1502.05 Q7.16713 1496.24 11.7736 1493.18 Q16.3569 1490.1 25.1068 1490.1 Q33.8337 1490.1 38.4401 1493.18 Q43.0234 1496.24 43.0234 1502.05 Q43.0234 1507.86 38.4401 1510.94 Q33.8337 1513.99 25.1068 1513.99 Q16.3569 1513.99 11.7736 1510.94 Q7.16713 1507.86 7.16713 1502.05 Z" fill="#000000" fill-rule="nonzero" fill-opacity="1" /><path clip-path="url(#clip310)" d="M36.4725 1481.89 L36.4725 1477 L42.3521 1477 L42.3521 1481.89 L36.4725 1481.89 Z" fill="#000000" fill-rule="nonzero" fill-opacity="1" /><path clip-path="url(#clip310)" d="M10.8708 1456.82 Q10.8708 1460.43 14.4356 1462.26 Q17.9773 1464.06 25.1068 1464.06 Q32.2133 1464.06 35.7781 1462.26 Q39.3197 1460.43 39.3197 1456.82 Q39.3197 1453.18 35.7781 1451.38 Q32.2133 1449.55 25.1068 1449.55 Q17.9773 1449.55 14.4356 1451.38 Q10.8708 1453.18 10.8708 1456.82 M7.16713 1456.82 Q7.16713 1451.01 11.7736 1447.95 Q16.3569 1444.87 25.1068 1444.87 Q33.8337 1444.87 38.4401 1447.95 Q43.0234 1451.01 43.0234 1456.82 Q43.0234 1462.63 38.4401 1465.71 Q33.8337 1468.76 25.1068 1468.76 Q16.3569 1468.76 11.7736 1465.71 Q7.16713 1462.63 7.16713 1456.82 Z" fill="#000000" fill-rule="nonzero" fill-opacity="1" /><path clip-path="url(#clip310)" d="M10.8708 1189.51 Q10.8708 1193.12 14.4356 1194.95 Q17.9773 1196.76 25.1068 1196.76 Q32.2133 1196.76 35.7781 1194.95 Q39.3197 1193.12 39.3197 1189.51 Q39.3197 1185.88 35.7781 1184.07 Q32.2133 1182.24 25.1068 1182.24 Q17.9773 1182.24 14.4356 1184.07 Q10.8708 1185.88 10.8708 1189.51 M7.16713 1189.51 Q7.16713 1183.7 11.7736 1180.65 Q16.3569 1177.57 25.1068 1177.57 Q33.8337 1177.57 38.4401 1180.65 Q43.0234 1183.7 43.0234 1189.51 Q43.0234 1195.32 38.4401 1198.4 Q33.8337 1201.46 25.1068 1201.46 Q16.3569 1201.46 11.7736 1198.4 Q7.16713 1195.32 7.16713 1189.51 Z" fill="#000000" fill-rule="nonzero" fill-opacity="1" /><path clip-path="url(#clip310)" d="M36.4725 1169.35 L36.4725 1164.47 L42.3521 1164.47 L42.3521 1169.35 L36.4725 1169.35 Z" fill="#000000" fill-rule="nonzero" fill-opacity="1" /><path clip-path="url(#clip310)" d="M7.79213 1154.23 L7.79213 1135.88 L11.7273 1135.88 L11.7273 1149.95 L20.1995 1149.95 Q19.8522 1148.93 19.6902 1147.92 Q19.505 1146.9 19.505 1145.88 Q19.505 1140.09 22.6763 1136.71 Q25.8476 1133.33 31.2642 1133.33 Q36.8429 1133.33 39.9447 1136.8 Q43.0234 1140.28 43.0234 1146.6 Q43.0234 1148.77 42.6531 1151.04 Q42.2827 1153.29 41.5419 1155.69 L36.8429 1155.69 Q37.9771 1153.61 38.5327 1151.39 Q39.0883 1149.17 39.0883 1146.69 Q39.0883 1142.68 36.9818 1140.35 Q34.8753 1138.01 31.2642 1138.01 Q27.6531 1138.01 25.5467 1140.35 Q23.4402 1142.68 23.4402 1146.69 Q23.4402 1148.56 23.8569 1150.44 Q24.2735 1152.29 25.1531 1154.23 L7.79213 1154.23 Z" fill="#000000" fill-rule="nonzero" fill-opacity="1" /><path clip-path="url(#clip310)" d="M38.417 888.204 L38.417 880.565 L12.0514 880.565 L13.718 888.876 L9.45878 888.876 L7.79213 880.612 L7.79213 875.936 L38.417 875.936 L38.417 868.297 L42.3521 868.297 L42.3521 888.204 L38.417 888.204 Z" fill="#000000" fill-rule="nonzero" fill-opacity="1" /><path clip-path="url(#clip310)" d="M36.4725 858.853 L36.4725 853.968 L42.3521 853.968 L42.3521 858.853 L36.4725 858.853 Z" fill="#000000" fill-rule="nonzero" fill-opacity="1" /><path clip-path="url(#clip310)" d="M10.8708 833.783 Q10.8708 837.394 14.4356 839.223 Q17.9773 841.029 25.1068 841.029 Q32.2133 841.029 35.7781 839.223 Q39.3197 837.394 39.3197 833.783 Q39.3197 830.149 35.7781 828.344 Q32.2133 826.515 25.1068 826.515 Q17.9773 826.515 14.4356 828.344 Q10.8708 830.149 10.8708 833.783 M7.16713 833.783 Q7.16713 827.973 11.7736 824.918 Q16.3569 821.839 25.1068 821.839 Q33.8337 821.839 38.4401 824.918 Q43.0234 827.973 43.0234 833.783 Q43.0234 839.593 38.4401 842.672 Q33.8337 845.728 25.1068 845.728 Q16.3569 845.728 11.7736 842.672 Q7.16713 839.593 7.16713 833.783 Z" fill="#000000" fill-rule="nonzero" fill-opacity="1" /><path clip-path="url(#clip310)" d="M38.417 575.669 L38.417 568.03 L12.0514 568.03 L13.718 576.341 L9.45878 576.341 L7.79213 568.077 L7.79213 563.401 L38.417 563.401 L38.417 555.762 L42.3521 555.762 L42.3521 575.669 L38.417 575.669 Z" fill="#000000" fill-rule="nonzero" fill-opacity="1" /><path clip-path="url(#clip310)" d="M36.4725 546.318 L36.4725 541.433 L42.3521 541.433 L42.3521 546.318 L36.4725 546.318 Z" fill="#000000" fill-rule="nonzero" fill-opacity="1" /><path clip-path="url(#clip310)" d="M7.79213 531.202 L7.79213 512.846 L11.7273 512.846 L11.7273 526.92 L20.1995 526.92 Q19.8522 525.901 19.6902 524.883 Q19.505 523.864 19.505 522.846 Q19.505 517.059 22.6763 513.679 Q25.8476 510.299 31.2642 510.299 Q36.8429 510.299 39.9447 513.772 Q43.0234 517.244 43.0234 523.563 Q43.0234 525.739 42.6531 528.008 Q42.2827 530.253 41.5419 532.66 L36.8429 532.66 Q37.9771 530.577 38.5327 528.355 Q39.0883 526.133 39.0883 523.656 Q39.0883 519.651 36.9818 517.313 Q34.8753 514.975 31.2642 514.975 Q27.6531 514.975 25.5467 517.313 Q23.4402 519.651 23.4402 523.656 Q23.4402 525.531 23.8569 527.406 Q24.2735 529.258 25.1531 531.202 L7.79213 531.202 Z" fill="#000000" fill-rule="nonzero" fill-opacity="1" /><path clip-path="url(#clip310)" d="M38.417 260.044 L38.417 243.725 L42.3521 243.725 L42.3521 265.669 L38.417 265.669 Q35.6623 263.007 31.0327 258.424 Q26.38 253.817 25.0374 252.637 Q22.5143 250.391 20.7782 249.512 Q19.0189 248.609 17.3291 248.609 Q14.5745 248.609 12.8384 250.553 Q11.1023 252.475 11.1023 255.576 Q11.1023 257.776 11.8662 260.229 Q12.6301 262.66 14.181 265.438 L9.45878 265.438 Q8.32453 262.613 7.74583 260.16 Q7.16713 257.706 7.16713 255.669 Q7.16713 250.299 9.8523 247.104 Q12.5375 243.91 17.0282 243.91 Q19.1578 243.91 21.0791 244.72 Q22.9772 245.507 25.5698 247.614 Q26.2411 248.192 29.4587 251.294 Q32.6531 254.396 38.417 260.044 Z" fill="#000000" fill-rule="nonzero" fill-opacity="1" /><path clip-path="url(#clip310)" d="M36.4725 233.91 L36.4725 229.026 L42.3521 229.026 L42.3521 233.91 L36.4725 233.91 Z" fill="#000000" fill-rule="nonzero" fill-opacity="1" /><path clip-path="url(#clip310)" d="M10.8708 208.841 Q10.8708 212.452 14.4356 214.28 Q17.9773 216.086 25.1068 216.086 Q32.2133 216.086 35.7781 214.28 Q39.3197 212.452 39.3197 208.841 Q39.3197 205.206 35.7781 203.401 Q32.2133 201.572 25.1068 201.572 Q17.9773 201.572 14.4356 203.401 Q10.8708 205.206 10.8708 208.841 M7.16713 208.841 Q7.16713 203.03 11.7736 199.975 Q16.3569 196.896 25.1068 196.896 Q33.8337 196.896 38.4401 199.975 Q43.0234 203.03 43.0234 208.841 Q43.0234 214.651 38.4401 217.729 Q33.8337 220.785 25.1068 220.785 Q16.3569 220.785 11.7736 217.729 Q7.16713 214.651 7.16713 208.841 Z" fill="#000000" fill-rule="nonzero" fill-opacity="1" /><polyline clip-path="url(#clip312)" style="stroke:#009af9; stroke-linecap:round; stroke-linejoin:round; stroke-width:4; stroke-opacity:1; fill:none" points="959.405,1478.88 961.1,1478.83 962.796,1478.77 978.476,1477.97 994.156,1476.35 1003.58,1474.72 1013,1472.35 1020.97,1469.59 1028.94,1465.92 1033.26,1463.47 1037.59,1460.65 1041.92,1457.41 1046.25,1453.72 1050.24,1449.87 1054.22,1445.55 1058.21,1440.73 1062.2,1435.36 1066.48,1428.96 1070.76,1421.84 1075.03,1413.97 1079.31,1405.3 1084.27,1394.2 1089.22,1381.93 1094.18,1368.45 1099.13,1353.74 1103.54,1339.62 1107.94,1324.54 1112.34,1308.5 1116.75,1291.55 1120.61,1275.97 1124.47,1259.77 1128.33,1242.99 1132.19,1225.71 1140.61,1186.62 1149.03,1146.36 1157.51,1105.76 1165.98,1066.3 1168.32,1055.77 1170.66,1045.46 1173,1035.39 1175.34,1025.6 1177.68,1016.11 1180.02,1006.95 1182.37,998.144 1184.71,989.723 1186.93,982.091 1189.16,974.85 1191.39,968.021 1193.62,961.625 1195.84,955.678 1198.07,950.199 1200.3,945.203 1202.53,940.706 1204.84,936.572 1207.16,933.004 1209.48,930.014 1211.79,927.612 1214.11,925.805 1216.43,924.6 1218.74,923.999 1221.06,924.006 1223.01,924.483 1224.96,925.388 1226.91,926.721 1228.86,928.478 1230.81,930.655 1232.76,933.246 1234.71,936.247 1236.66,939.649 1239.04,944.337 1241.42,949.596 1243.8,955.41 1246.18,961.758 1248.56,968.62 1250.94,975.972 1253.32,983.792 1255.7,992.054 1260.06,1008.25 1264.42,1025.67 1266.6,1034.78 1268.79,1044.14 1270.97,1053.71 1273.15,1063.47 1281.2,1100.83 1289.26,1139.36 1297.42,1178.49 1305.58,1216.7 1310.15,1237.39 1314.73,1257.4 1319.3,1276.63 1323.87,1294.97 1328.02,1310.78 1332.16,1325.78 1336.3,1339.93 1340.45,1353.22 1345.19,1367.37 1349.94,1380.39 1354.68,1392.29 1359.42,1403.12 1363.82,1412.22 1368.21,1420.46 1372.6,1427.9 1377,1434.58 1381.33,1440.46 1385.66,1445.7 1389.99,1450.35 1394.32,1454.45 1398.52,1457.96 1402.73,1461.04 1406.93,1463.74 1411.14,1466.09 1419.76,1469.97 1428.38,1472.82 1437.83,1475.05 1447.27,1476.58 1460.99,1477.95 1474.71,1478.69 1477.53,1478.79 1480.34,1478.88 "/>
<polyline clip-path="url(#clip312)" style="stroke:#e26f46; stroke-linecap:round; stroke-linejoin:round; stroke-width:4; stroke-opacity:1; fill:none" points="929.674,1478.94 931.563,1478.89 933.453,1478.84 950.922,1478.12 968.392,1476.66 978.891,1475.2 989.39,1473.08 998.266,1470.59 1007.14,1467.3 1011.96,1465.1 1016.78,1462.57 1021.61,1459.67 1026.43,1456.35 1030.87,1452.9 1035.32,1449.02 1039.76,1444.69 1044.21,1439.88 1048.97,1434.13 1053.74,1427.74 1058.5,1420.68 1063.27,1412.89 1068.79,1402.93 1074.31,1391.92 1079.83,1379.82 1085.35,1366.62 1090.26,1353.95 1095.16,1340.41 1100.07,1326.01 1104.98,1310.8 1109.28,1296.81 1113.58,1282.27 1117.88,1267.22 1122.19,1251.7 1131.57,1216.62 1140.95,1180.48 1150.39,1144.04 1159.82,1108.63 1162.43,1099.18 1165.04,1089.92 1167.65,1080.88 1170.26,1072.09 1172.87,1063.58 1175.48,1055.35 1178.08,1047.45 1180.69,1039.89 1183.17,1033.04 1185.66,1026.54 1188.14,1020.42 1190.62,1014.67 1193.1,1009.34 1195.58,1004.42 1198.07,999.935 1200.55,995.898 1203.13,992.187 1205.71,988.985 1208.29,986.302 1210.87,984.146 1213.45,982.524 1216.03,981.442 1218.61,980.903 1221.19,980.909 1223.37,981.337 1225.54,982.15 1227.71,983.346 1229.88,984.923 1232.06,986.876 1234.23,989.202 1236.4,991.895 1238.57,994.949 1241.22,999.157 1243.88,1003.88 1246.53,1009.1 1249.18,1014.79 1251.83,1020.95 1254.49,1027.55 1257.14,1034.57 1259.79,1041.99 1264.65,1056.52 1269.51,1072.16 1271.94,1080.34 1274.37,1088.73 1276.8,1097.32 1279.23,1106.08 1288.2,1139.62 1297.18,1174.2 1306.27,1209.32 1315.36,1243.62 1320.46,1262.19 1325.55,1280.15 1330.65,1297.4 1335.74,1313.87 1340.36,1328.06 1344.98,1341.52 1349.59,1354.22 1354.21,1366.15 1359.5,1378.85 1364.78,1390.53 1370.07,1401.22 1375.35,1410.94 1380.25,1419.1 1385.14,1426.51 1390.04,1433.18 1394.93,1439.17 1399.76,1444.45 1404.58,1449.16 1409.41,1453.33 1414.23,1457.01 1418.92,1460.16 1423.6,1462.93 1428.29,1465.35 1432.97,1467.46 1442.58,1470.94 1452.18,1473.5 1462.7,1475.5 1473.23,1476.87 1488.51,1478.1 1503.8,1478.77 1506.94,1478.86 1510.07,1478.94 "/>
<polyline clip-path="url(#clip312)" style="stroke:#3da44d; stroke-linecap:round; stroke-linejoin:round; stroke-width:4; stroke-opacity:1; fill:none" points="502.473,1479.23 507.144,1479.21 511.815,1479.19 555.002,1478.9 598.189,1478.31 624.142,1477.72 650.096,1476.86 672.04,1475.86 693.983,1474.53 705.901,1473.64 717.82,1472.61 729.738,1471.44 741.657,1470.1 752.644,1468.7 763.632,1467.13 774.62,1465.38 785.607,1463.43 797.387,1461.11 809.167,1458.52 820.947,1455.66 832.727,1452.52 846.375,1448.49 860.024,1444.03 873.672,1439.14 887.32,1433.8 899.449,1428.67 911.578,1423.19 923.707,1417.37 935.836,1411.22 946.472,1405.56 957.108,1399.68 967.744,1393.59 978.38,1387.31 1001.57,1373.12 1024.76,1358.5 1048.09,1343.76 1071.42,1329.44 1077.87,1325.61 1084.32,1321.87 1090.77,1318.21 1097.22,1314.66 1103.67,1311.21 1110.12,1307.89 1116.56,1304.69 1123.01,1301.63 1129.15,1298.86 1135.28,1296.23 1141.42,1293.75 1147.56,1291.43 1153.69,1289.27 1159.83,1287.28 1165.96,1285.47 1172.1,1283.83 1178.48,1282.33 1184.86,1281.04 1191.24,1279.95 1197.62,1279.08 1204,1278.42 1210.38,1277.99 1216.76,1277.77 1223.14,1277.77 1228.51,1277.94 1233.88,1278.27 1239.25,1278.76 1244.62,1279.39 1249.99,1280.19 1255.36,1281.13 1260.73,1282.22 1266.1,1283.45 1272.65,1285.15 1279.21,1287.06 1285.77,1289.17 1292.32,1291.48 1298.88,1293.97 1305.44,1296.64 1311.99,1299.48 1318.55,1302.48 1330.56,1308.36 1342.58,1314.68 1348.58,1317.99 1354.59,1321.39 1360.59,1324.86 1366.6,1328.41 1388.79,1341.97 1410.98,1355.96 1433.45,1370.17 1455.93,1384.04 1468.53,1391.55 1481.12,1398.82 1493.72,1405.8 1506.31,1412.46 1517.72,1418.2 1529.14,1423.64 1540.55,1428.78 1551.96,1433.61 1565.03,1438.74 1578.1,1443.47 1591.17,1447.79 1604.23,1451.73 1616.33,1455.03 1628.43,1458.02 1640.53,1460.72 1652.63,1463.15 1664.56,1465.28 1676.48,1467.19 1688.41,1468.87 1700.34,1470.36 1711.92,1471.64 1723.5,1472.76 1735.09,1473.73 1746.67,1474.59 1770.41,1476 1794.16,1477.03 1820.17,1477.84 1846.19,1478.4 1883.98,1478.89 1921.77,1479.16 1929.52,1479.2 1937.27,1479.23 "/>
<polyline clip-path="url(#clip312)" style="stroke:#c271d2; stroke-linecap:round; stroke-linejoin:round; stroke-width:4; stroke-opacity:1; fill:none" points="1059.32,1478.54 1060.36,1478.45 1061.41,1478.36 1071.07,1477.06 1080.74,1474.43 1086.55,1471.78 1092.36,1467.94 1097.27,1463.46 1102.18,1457.51 1104.84,1453.54 1107.51,1448.96 1110.18,1443.71 1112.85,1437.72 1115.31,1431.47 1117.77,1424.47 1120.22,1416.64 1122.68,1407.93 1125.32,1397.55 1127.96,1386.01 1130.59,1373.23 1133.23,1359.16 1136.28,1341.16 1139.34,1321.25 1142.39,1299.39 1145.45,1275.52 1148.16,1252.62 1150.88,1228.15 1153.59,1202.14 1156.31,1174.63 1158.69,1149.36 1161.07,1123.07 1163.45,1095.86 1165.83,1067.82 1171.02,1004.41 1176.21,939.093 1181.43,873.232 1186.65,809.217 1188.09,792.136 1189.54,775.406 1190.98,759.075 1192.42,743.187 1193.87,727.79 1195.31,712.928 1196.75,698.646 1198.2,684.985 1199.57,672.603 1200.94,660.856 1202.32,649.779 1203.69,639.401 1205.06,629.754 1206.44,620.866 1207.81,612.761 1209.18,605.465 1210.61,598.759 1212.04,592.971 1213.47,588.121 1214.89,584.224 1216.32,581.292 1217.75,579.337 1219.18,578.363 1220.6,578.374 1221.81,579.147 1223.01,580.616 1224.21,582.778 1225.41,585.628 1226.61,589.159 1227.82,593.363 1229.02,598.231 1230.22,603.751 1231.69,611.356 1233.15,619.888 1234.62,629.319 1236.09,639.618 1237.56,650.749 1239.02,662.677 1240.49,675.363 1241.96,688.766 1244.65,715.039 1247.34,743.3 1248.68,758.086 1250.02,773.259 1251.37,788.784 1252.71,804.621 1257.68,865.23 1262.64,927.744 1267.67,991.214 1272.7,1053.21 1275.52,1086.78 1278.34,1119.24 1281.16,1150.43 1283.98,1180.19 1286.53,1205.84 1289.09,1230.16 1291.64,1253.11 1294.2,1274.67 1297.12,1297.63 1300.05,1318.75 1302.97,1338.07 1305.89,1355.63 1308.6,1370.39 1311.31,1383.77 1314.02,1395.83 1316.73,1406.66 1319.4,1416.21 1322.07,1424.71 1324.73,1432.26 1327.4,1438.91 1330,1444.6 1332.59,1449.6 1335.18,1453.98 1337.77,1457.79 1343.09,1464.08 1348.4,1468.71 1354.22,1472.32 1360.05,1474.8 1368.5,1477.03 1376.96,1478.23 1378.7,1478.39 1380.43,1478.54 "/>
<polyline clip-path="url(#clip312)" style="stroke:#ac8d18; stroke-linecap:round; stroke-linejoin:round; stroke-width:4; stroke-opacity:1; fill:none" points="744.379,1479.13 747.475,1479.1 750.571,1479.07 779.195,1478.63 807.82,1477.74 825.022,1476.85 842.224,1475.55 856.768,1474.04 871.312,1472.03 879.212,1470.69 887.111,1469.14 895.011,1467.37 902.911,1465.35 910.193,1463.24 917.476,1460.87 924.759,1458.23 932.041,1455.29 939.849,1451.78 947.657,1447.89 955.465,1443.57 963.272,1438.82 972.318,1432.74 981.365,1426.02 990.411,1418.64 999.457,1410.58 1007.5,1402.85 1015.53,1394.58 1023.57,1385.8 1031.61,1376.51 1038.66,1367.98 1045.71,1359.1 1052.76,1349.91 1059.81,1340.45 1075.18,1319.03 1090.55,1296.98 1106.02,1274.74 1121.48,1253.12 1125.76,1247.36 1130.03,1241.71 1134.3,1236.19 1138.58,1230.83 1142.85,1225.63 1147.13,1220.61 1151.4,1215.79 1155.67,1211.18 1159.74,1207 1163.81,1203.03 1167.87,1199.29 1171.94,1195.78 1176.01,1192.53 1180.07,1189.53 1184.14,1186.79 1188.21,1184.33 1192.44,1182.06 1196.67,1180.11 1200.89,1178.47 1205.12,1177.15 1209.35,1176.16 1213.58,1175.5 1217.81,1175.17 1222.04,1175.18 1225.6,1175.44 1229.15,1175.93 1232.71,1176.66 1236.27,1177.63 1239.83,1178.82 1243.39,1180.24 1246.95,1181.88 1250.51,1183.75 1254.86,1186.31 1259.2,1189.2 1263.55,1192.38 1267.89,1195.86 1272.24,1199.62 1276.59,1203.64 1280.93,1207.93 1285.28,1212.45 1293.24,1221.32 1301.2,1230.87 1305.18,1235.86 1309.16,1240.98 1313.14,1246.23 1317.12,1251.57 1331.83,1272.04 1346.54,1293.15 1361.44,1314.58 1376.33,1335.51 1384.68,1346.85 1393.03,1357.81 1401.38,1368.34 1409.73,1378.39 1417.29,1387.05 1424.85,1395.26 1432.42,1403.01 1439.98,1410.29 1448.64,1418.04 1457.31,1425.18 1465.97,1431.7 1474.63,1437.63 1482.65,1442.61 1490.67,1447.13 1498.69,1451.2 1506.7,1454.86 1514.61,1458.08 1522.52,1460.96 1530.42,1463.5 1538.33,1465.75 1546,1467.67 1553.68,1469.36 1561.36,1470.84 1569.03,1472.12 1584.77,1474.25 1600.51,1475.81 1617.75,1477.03 1635,1477.87 1660.04,1478.62 1685.09,1479.03 1690.23,1479.08 1695.37,1479.13 "/>
<polyline clip-path="url(#clip312)" style="stroke:#00a9ad; stroke-linecap:round; stroke-linejoin:round; stroke-width:4; stroke-opacity:1; fill:none" points="1028.08,1478.68 1029.33,1478.61 1030.58,1478.54 1042.13,1477.45 1053.67,1475.24 1060.61,1473.03 1067.55,1469.81 1073.42,1466.06 1079.28,1461.08 1082.47,1457.75 1085.65,1453.92 1088.84,1449.53 1092.03,1444.51 1094.96,1439.28 1097.9,1433.42 1100.84,1426.87 1103.78,1419.58 1106.93,1410.88 1110.08,1401.22 1113.22,1390.53 1116.37,1378.75 1120.02,1363.68 1123.67,1347.01 1127.32,1328.71 1130.97,1308.73 1134.21,1289.56 1137.45,1269.07 1140.7,1247.29 1143.94,1224.27 1146.78,1203.11 1149.63,1181.11 1152.47,1158.32 1155.31,1134.85 1161.51,1081.77 1167.71,1027.09 1173.95,971.952 1180.19,918.362 1181.91,904.062 1183.64,890.057 1185.36,876.385 1187.08,863.085 1188.81,850.196 1190.53,837.754 1192.26,825.797 1193.98,814.361 1195.62,803.995 1197.26,794.162 1198.9,784.888 1200.54,776.201 1202.18,768.125 1203.82,760.684 1205.46,753.899 1207.1,747.791 1208.81,742.177 1210.51,737.332 1212.22,733.271 1213.92,730.009 1215.63,727.555 1217.33,725.918 1219.04,725.102 1220.75,725.112 1222.18,725.759 1223.62,726.989 1225.05,728.799 1226.49,731.185 1227.92,734.141 1229.36,737.66 1230.8,741.735 1232.23,746.356 1233.98,752.722 1235.74,759.865 1237.49,767.76 1239.24,776.382 1241,785.701 1242.75,795.686 1244.5,806.306 1246.25,817.527 1249.47,839.521 1252.68,863.179 1254.28,875.557 1255.89,888.26 1257.49,901.256 1259.1,914.515 1265.03,965.253 1270.96,1017.59 1276.97,1070.72 1282.98,1122.62 1286.35,1150.72 1289.72,1177.9 1293.08,1204 1296.45,1228.92 1299.5,1250.39 1302.55,1270.75 1305.6,1289.97 1308.66,1308.02 1312.15,1327.24 1315.64,1344.92 1319.14,1361.09 1322.63,1375.79 1325.86,1388.15 1329.1,1399.35 1332.33,1409.45 1335.57,1418.51 1338.76,1426.51 1341.94,1433.63 1345.13,1439.94 1348.32,1445.51 1351.42,1450.27 1354.51,1454.46 1357.61,1458.12 1360.71,1461.31 1367.06,1466.58 1373.4,1470.46 1380.36,1473.48 1387.31,1475.55 1397.42,1477.42 1407.52,1478.43 1409.59,1478.56 1411.66,1478.68 "/>
<polyline clip-path="url(#clip312)" style="stroke:#ed5d92; stroke-linecap:round; stroke-linejoin:round; stroke-width:4; stroke-opacity:1; fill:none" points="151.118,1479.3 158.076,1479.28 165.034,1479.27 229.372,1479.08 293.711,1478.68 332.376,1478.28 371.04,1477.71 403.731,1477.03 436.422,1476.14 454.177,1475.54 471.933,1474.85 489.688,1474.07 507.444,1473.17 523.813,1472.23 540.182,1471.17 556.551,1470 572.92,1468.69 590.469,1467.13 608.019,1465.4 625.568,1463.48 643.117,1461.36 663.45,1458.66 683.783,1455.67 704.115,1452.38 724.448,1448.8 742.517,1445.36 760.586,1441.68 778.656,1437.77 796.725,1433.64 812.57,1429.85 828.415,1425.9 844.26,1421.81 860.105,1417.6 894.656,1408.07 929.207,1398.26 963.963,1388.36 998.719,1378.75 1008.33,1376.18 1017.93,1373.67 1027.54,1371.21 1037.15,1368.83 1046.75,1366.51 1056.36,1364.28 1065.97,1362.14 1075.57,1360.08 1084.71,1358.22 1093.86,1356.46 1103,1354.79 1112.14,1353.24 1121.28,1351.79 1130.42,1350.45 1139.56,1349.23 1148.7,1348.14 1158.2,1347.13 1167.71,1346.26 1177.21,1345.53 1186.72,1344.95 1196.22,1344.51 1205.72,1344.21 1215.23,1344.07 1224.73,1344.07 1232.73,1344.18 1240.73,1344.4 1248.73,1344.73 1256.74,1345.16 1264.74,1345.69 1272.74,1346.32 1280.74,1347.05 1288.74,1347.88 1298.5,1349.02 1308.27,1350.3 1318.04,1351.72 1327.81,1353.27 1337.58,1354.94 1347.34,1356.73 1357.11,1358.64 1366.88,1360.65 1384.77,1364.6 1402.67,1368.84 1411.62,1371.07 1420.57,1373.34 1429.51,1375.68 1438.46,1378.06 1471.52,1387.16 1504.57,1396.55 1538.06,1406.09 1571.54,1415.4 1590.31,1420.44 1609.07,1425.32 1627.83,1430.01 1646.6,1434.48 1663.6,1438.33 1680.6,1441.98 1697.61,1445.43 1714.61,1448.67 1734.08,1452.12 1753.54,1455.29 1773.01,1458.2 1792.48,1460.83 1810.5,1463.05 1828.53,1465.06 1846.55,1466.87 1864.58,1468.5 1882.35,1469.93 1900.12,1471.21 1917.89,1472.34 1935.66,1473.34 1952.91,1474.2 1970.16,1474.95 1987.42,1475.61 2004.67,1476.18 2040.04,1477.13 2075.42,1477.82 2114.17,1478.36 2152.93,1478.74 2209.23,1479.07 2265.53,1479.25 2277.08,1479.28 2288.63,1479.3 "/>
<polyline clip-path="url(#clip312)" style="stroke:#c68125; stroke-linecap:round; stroke-linejoin:round; stroke-width:4; stroke-opacity:1; fill:none" points="1115.83,1478.05 1116.51,1477.92 1117.18,1477.78 1123.45,1475.77 1129.71,1471.71 1133.47,1467.62 1137.24,1461.7 1140.42,1454.78 1143.6,1445.6 1145.33,1439.47 1147.06,1432.41 1148.79,1424.31 1150.52,1415.07 1152.11,1405.42 1153.7,1394.61 1155.3,1382.54 1156.89,1369.1 1158.6,1353.08 1160.31,1335.26 1162.02,1315.55 1163.73,1293.84 1165.7,1266.06 1167.68,1235.34 1169.66,1201.6 1171.64,1164.77 1173.4,1129.43 1175.16,1091.67 1176.92,1051.52 1178.68,1009.09 1180.22,970.082 1181.76,929.518 1183.31,887.525 1184.85,844.26 1188.21,746.404 1191.58,645.613 1194.96,543.979 1198.34,445.196 1199.28,418.837 1200.21,393.02 1201.15,367.818 1202.09,343.302 1203.02,319.542 1203.96,296.608 1204.89,274.568 1205.83,253.488 1206.72,234.38 1207.61,216.254 1208.5,199.16 1209.39,183.146 1210.28,168.259 1211.17,154.543 1212.06,142.036 1212.95,130.777 1213.87,120.428 1214.8,111.497 1215.72,104.012 1216.65,97.9987 1217.57,93.4754 1218.5,90.4573 1219.42,88.9544 1220.35,88.9715 1221.13,90.1644 1221.9,92.4317 1222.68,95.7681 1223.46,100.166 1224.24,105.615 1225.02,112.103 1225.8,119.614 1226.58,128.132 1227.53,139.867 1228.48,153.034 1229.43,167.587 1230.38,183.479 1231.33,200.657 1232.28,219.064 1233.23,238.64 1234.19,259.323 1235.93,299.866 1237.67,343.476 1238.54,366.292 1239.41,389.707 1240.28,413.664 1241.15,438.103 1244.37,531.632 1247.59,628.099 1250.85,726.043 1254.11,821.71 1255.94,873.51 1257.76,923.605 1259.59,971.728 1261.42,1017.66 1263.07,1057.23 1264.73,1094.77 1266.38,1130.19 1268.04,1163.46 1269.93,1198.89 1271.83,1231.48 1273.72,1261.29 1275.62,1288.39 1277.37,1311.17 1279.13,1331.81 1280.88,1350.43 1282.64,1367.14 1284.37,1381.87 1286.1,1395 1287.83,1406.63 1289.56,1416.9 1291.24,1425.69 1292.92,1433.4 1294.6,1440.15 1296.28,1446.03 1299.72,1455.75 1303.16,1462.89 1306.94,1468.46 1310.71,1472.29 1316.19,1475.72 1321.67,1477.58 1322.8,1477.83 1323.92,1478.05 "/>
<polyline clip-path="url(#clip312)" style="stroke:#00a98d; stroke-linecap:round; stroke-linejoin:round; stroke-width:4; stroke-opacity:1; fill:none" points="872.003,1479.02 874.268,1478.98 876.533,1478.94 897.475,1478.34 918.416,1477.12 931.001,1475.9 943.586,1474.13 954.227,1472.06 964.867,1469.31 970.647,1467.48 976.426,1465.37 982.205,1462.95 987.984,1460.18 993.312,1457.3 998.64,1454.06 1003.97,1450.45 1009.3,1446.43 1015.01,1441.64 1020.72,1436.31 1026.43,1430.42 1032.14,1423.92 1038.76,1415.61 1045.38,1406.43 1052,1396.33 1058.62,1385.32 1064.5,1374.75 1070.38,1363.45 1076.26,1351.45 1082.14,1338.75 1087.3,1327.09 1092.46,1314.96 1097.62,1302.4 1102.77,1289.46 1114.02,1260.19 1125.26,1230.04 1136.58,1199.64 1147.89,1170.1 1151.02,1162.22 1154.14,1154.49 1157.27,1146.96 1160.4,1139.62 1163.52,1132.52 1166.65,1125.66 1169.78,1119.07 1172.91,1112.76 1175.88,1107.05 1178.86,1101.62 1181.83,1096.51 1184.81,1091.72 1187.78,1087.27 1190.76,1083.17 1193.73,1079.43 1196.71,1076.06 1199.8,1072.96 1202.89,1070.29 1205.99,1068.05 1209.08,1066.25 1212.18,1064.9 1215.27,1064 1218.36,1063.55 1221.46,1063.55 1224.06,1063.91 1226.66,1064.59 1229.27,1065.59 1231.87,1066.9 1234.48,1068.53 1237.08,1070.47 1239.68,1072.72 1242.29,1075.27 1245.47,1078.78 1248.65,1082.72 1251.83,1087.07 1255.01,1091.82 1258.18,1096.96 1261.36,1102.46 1264.54,1108.32 1267.72,1114.51 1273.55,1126.63 1279.37,1139.68 1282.28,1146.5 1285.2,1153.5 1288.11,1160.67 1291.02,1167.98 1301.78,1195.95 1312.54,1224.8 1323.44,1254.1 1334.34,1282.71 1340.45,1298.2 1346.55,1313.19 1352.66,1327.58 1358.77,1341.32 1364.3,1353.16 1369.84,1364.38 1375.37,1374.98 1380.91,1384.93 1387.24,1395.52 1393.58,1405.27 1399.91,1414.19 1406.25,1422.29 1412.12,1429.11 1417.98,1435.28 1423.85,1440.85 1429.72,1445.85 1435.5,1450.25 1441.29,1454.18 1447.07,1457.66 1452.85,1460.73 1458.47,1463.36 1464.09,1465.66 1469.7,1467.68 1475.32,1469.44 1486.83,1472.35 1498.35,1474.48 1510.96,1476.15 1523.58,1477.29 1541.9,1478.32 1560.23,1478.88 1563.99,1478.95 1567.74,1479.02 "/>
<polyline clip-path="url(#clip312)" style="stroke:#8e971d; stroke-linecap:round; stroke-linejoin:round; stroke-width:4; stroke-opacity:1; fill:none" points="1026.55,1478.69 1027.81,1478.62 1029.07,1478.54 1040.71,1477.46 1052.34,1475.28 1059.34,1473.08 1066.33,1469.89 1072.25,1466.17 1078.16,1461.22 1081.37,1457.92 1084.58,1454.12 1087.79,1449.77 1091.01,1444.79 1093.97,1439.6 1096.93,1433.78 1099.89,1427.28 1102.85,1420.05 1106.02,1411.43 1109.2,1401.84 1112.37,1391.23 1115.55,1379.55 1119.23,1364.59 1122.9,1348.06 1126.58,1329.9 1130.26,1310.08 1133.53,1291.06 1136.8,1270.74 1140.06,1249.13 1143.33,1226.29 1146.2,1205.3 1149.06,1183.47 1151.93,1160.87 1154.8,1137.58 1161.05,1084.92 1167.3,1030.67 1173.58,975.973 1179.87,922.809 1181.61,908.622 1183.35,894.728 1185.08,881.164 1186.82,867.97 1188.56,855.182 1190.3,842.839 1192.03,830.977 1193.77,819.632 1195.43,809.348 1197.08,799.593 1198.73,790.392 1200.39,781.774 1202.04,773.762 1203.69,766.38 1205.35,759.649 1207,753.589 1208.72,748.019 1210.44,743.213 1212.16,739.184 1213.88,735.948 1215.6,733.513 1217.31,731.889 1219.03,731.08 1220.75,731.09 1222.2,731.732 1223.65,732.952 1225.09,734.747 1226.54,737.114 1227.99,740.047 1229.44,743.539 1230.88,747.581 1232.33,752.165 1234.1,758.481 1235.86,765.568 1237.63,773.4 1239.4,781.953 1241.16,791.198 1242.93,801.105 1244.7,811.641 1246.47,822.772 1249.7,844.592 1252.94,868.063 1254.56,880.343 1256.18,892.945 1257.79,905.838 1259.41,918.991 1265.39,969.328 1271.37,1021.25 1277.43,1073.96 1283.49,1125.45 1286.88,1153.33 1290.27,1180.29 1293.67,1206.19 1297.06,1230.91 1300.14,1252.21 1303.21,1272.41 1306.29,1291.47 1309.36,1309.38 1312.89,1328.44 1316.41,1345.98 1319.93,1362.03 1323.45,1376.62 1326.71,1388.87 1329.97,1399.98 1333.23,1410 1336.49,1419 1339.71,1426.93 1342.92,1433.99 1346.13,1440.25 1349.35,1445.78 1352.47,1450.51 1355.59,1454.66 1358.71,1458.29 1361.83,1461.45 1368.23,1466.68 1374.63,1470.53 1381.64,1473.53 1388.65,1475.59 1398.83,1477.43 1409.02,1478.43 1411.11,1478.57 1413.2,1478.69 "/>
<path clip-path="url(#clip310)" d="M1966.84 666.61 L2277.23 666.61 L2277.23 96.3696 L1966.84 96.3696  Z" fill="#ffffff" fill-rule="evenodd" fill-opacity="1"/>
<polyline clip-path="url(#clip310)" style="stroke:#000000; stroke-linecap:round; stroke-linejoin:round; stroke-width:4; stroke-opacity:1; fill:none" points="1966.84,666.61 2277.23,666.61 2277.23,96.3696 1966.84,96.3696 1966.84,666.61 "/>
<polyline clip-path="url(#clip310)" style="stroke:#009af9; stroke-linecap:round; stroke-linejoin:round; stroke-width:4; stroke-opacity:1; fill:none" points="1992.01,148.21 2143.06,148.21 "/>
<path clip-path="url(#clip310)" d="M2182.08 167.897 Q2180.27 172.527 2178.56 173.939 Q2176.85 175.351 2173.98 175.351 L2170.57 175.351 L2170.57 171.786 L2173.07 171.786 Q2174.83 171.786 2175.81 170.952 Q2176.78 170.119 2177.96 167.017 L2178.72 165.073 L2168.24 139.564 L2172.75 139.564 L2180.85 159.841 L2188.95 139.564 L2193.47 139.564 L2182.08 167.897 Z" fill="#000000" fill-rule="nonzero" fill-opacity="1" /><path clip-path="url(#clip310)" d="M2200.76 161.554 L2208.4 161.554 L2208.4 135.189 L2200.09 136.855 L2200.09 132.596 L2208.35 130.93 L2213.03 130.93 L2213.03 161.554 L2220.67 161.554 L2220.67 165.49 L2200.76 165.49 L2200.76 161.554 Z" fill="#000000" fill-rule="nonzero" fill-opacity="1" /><polyline clip-path="url(#clip310)" style="stroke:#e26f46; stroke-linecap:round; stroke-linejoin:round; stroke-width:4; stroke-opacity:1; fill:none" points="1992.01,200.05 2143.06,200.05 "/>
<path clip-path="url(#clip310)" d="M2182.08 219.737 Q2180.27 224.367 2178.56 225.779 Q2176.85 227.191 2173.98 227.191 L2170.57 227.191 L2170.57 223.626 L2173.07 223.626 Q2174.83 223.626 2175.81 222.792 Q2176.78 221.959 2177.96 218.857 L2178.72 216.913 L2168.24 191.404 L2172.75 191.404 L2180.85 211.681 L2188.95 191.404 L2193.47 191.404 L2182.08 219.737 Z" fill="#000000" fill-rule="nonzero" fill-opacity="1" /><path clip-path="url(#clip310)" d="M2203.98 213.394 L2220.3 213.394 L2220.3 217.33 L2198.35 217.33 L2198.35 213.394 Q2201.01 210.64 2205.6 206.01 Q2210.2 201.357 2211.38 200.015 Q2213.63 197.492 2214.51 195.756 Q2215.41 193.996 2215.41 192.307 Q2215.41 189.552 2213.47 187.816 Q2211.55 186.08 2208.44 186.08 Q2206.25 186.08 2203.79 186.844 Q2201.36 187.607 2198.58 189.158 L2198.58 184.436 Q2201.41 183.302 2203.86 182.723 Q2206.31 182.145 2208.35 182.145 Q2213.72 182.145 2216.92 184.83 Q2220.11 187.515 2220.11 192.006 Q2220.11 194.135 2219.3 196.057 Q2218.51 197.955 2216.41 200.547 Q2215.83 201.219 2212.73 204.436 Q2209.62 207.631 2203.98 213.394 Z" fill="#000000" fill-rule="nonzero" fill-opacity="1" /><polyline clip-path="url(#clip310)" style="stroke:#3da44d; stroke-linecap:round; stroke-linejoin:round; stroke-width:4; stroke-opacity:1; fill:none" points="1992.01,251.89 2143.06,251.89 "/>
<path clip-path="url(#clip310)" d="M2182.08 271.577 Q2180.27 276.207 2178.56 277.619 Q2176.85 279.031 2173.98 279.031 L2170.57 279.031 L2170.57 275.466 L2173.07 275.466 Q2174.83 275.466 2175.81 274.632 Q2176.78 273.799 2177.96 270.697 L2178.72 268.753 L2168.24 243.244 L2172.75 243.244 L2180.85 263.521 L2188.95 243.244 L2193.47 243.244 L2182.08 271.577 Z" fill="#000000" fill-rule="nonzero" fill-opacity="1" /><path clip-path="url(#clip310)" d="M2214.12 250.535 Q2217.47 251.253 2219.35 253.521 Q2221.25 255.79 2221.25 259.123 Q2221.25 264.239 2217.73 267.04 Q2214.21 269.841 2207.73 269.841 Q2205.55 269.841 2203.24 269.401 Q2200.94 268.984 2198.49 268.128 L2198.49 263.614 Q2200.44 264.748 2202.75 265.327 Q2205.06 265.906 2207.59 265.906 Q2211.99 265.906 2214.28 264.17 Q2216.59 262.433 2216.59 259.123 Q2216.59 256.068 2214.44 254.355 Q2212.31 252.619 2208.49 252.619 L2204.46 252.619 L2204.46 248.776 L2208.68 248.776 Q2212.12 248.776 2213.95 247.41 Q2215.78 246.022 2215.78 243.429 Q2215.78 240.767 2213.88 239.355 Q2212.01 237.92 2208.49 237.92 Q2206.57 237.92 2204.37 238.336 Q2202.17 238.753 2199.53 239.633 L2199.53 235.466 Q2202.19 234.725 2204.51 234.355 Q2206.85 233.985 2208.91 233.985 Q2214.23 233.985 2217.33 236.415 Q2220.44 238.822 2220.44 242.943 Q2220.44 245.813 2218.79 247.804 Q2217.15 249.772 2214.12 250.535 Z" fill="#000000" fill-rule="nonzero" fill-opacity="1" /><polyline clip-path="url(#clip310)" style="stroke:#c271d2; stroke-linecap:round; stroke-linejoin:round; stroke-width:4; stroke-opacity:1; fill:none" points="1992.01,303.73 2143.06,303.73 "/>
<path clip-path="url(#clip310)" d="M2182.08 323.417 Q2180.27 328.047 2178.56 329.459 Q2176.85 330.871 2173.98 330.871 L2170.57 330.871 L2170.57 327.306 L2173.07 327.306 Q2174.83 327.306 2175.81 326.472 Q2176.78 325.639 2177.96 322.537 L2178.72 320.593 L2168.24 295.084 L2172.75 295.084 L2180.85 315.361 L2188.95 295.084 L2193.47 295.084 L2182.08 323.417 Z" fill="#000000" fill-rule="nonzero" fill-opacity="1" /><path clip-path="url(#clip310)" d="M2212.8 290.524 L2200.99 308.973 L2212.8 308.973 L2212.8 290.524 M2211.57 286.45 L2217.45 286.45 L2217.45 308.973 L2222.38 308.973 L2222.38 312.861 L2217.45 312.861 L2217.45 321.01 L2212.8 321.01 L2212.8 312.861 L2197.19 312.861 L2197.19 308.348 L2211.57 286.45 Z" fill="#000000" fill-rule="nonzero" fill-opacity="1" /><polyline clip-path="url(#clip310)" style="stroke:#ac8d18; stroke-linecap:round; stroke-linejoin:round; stroke-width:4; stroke-opacity:1; fill:none" points="1992.01,355.57 2143.06,355.57 "/>
<path clip-path="url(#clip310)" d="M2182.08 375.257 Q2180.27 379.887 2178.56 381.299 Q2176.85 382.711 2173.98 382.711 L2170.57 382.711 L2170.57 379.146 L2173.07 379.146 Q2174.83 379.146 2175.81 378.312 Q2176.78 377.479 2177.96 374.377 L2178.72 372.433 L2168.24 346.924 L2172.75 346.924 L2180.85 367.201 L2188.95 346.924 L2193.47 346.924 L2182.08 375.257 Z" fill="#000000" fill-rule="nonzero" fill-opacity="1" /><path clip-path="url(#clip310)" d="M2200 338.29 L2218.35 338.29 L2218.35 342.225 L2204.28 342.225 L2204.28 350.697 Q2205.3 350.35 2206.31 350.188 Q2207.33 350.002 2208.35 350.002 Q2214.14 350.002 2217.52 353.174 Q2220.9 356.345 2220.9 361.762 Q2220.9 367.34 2217.43 370.442 Q2213.95 373.521 2207.63 373.521 Q2205.46 373.521 2203.19 373.15 Q2200.94 372.78 2198.54 372.039 L2198.54 367.34 Q2200.62 368.475 2202.84 369.03 Q2205.06 369.586 2207.54 369.586 Q2211.55 369.586 2213.88 367.479 Q2216.22 365.373 2216.22 361.762 Q2216.22 358.151 2213.88 356.044 Q2211.55 353.938 2207.54 353.938 Q2205.67 353.938 2203.79 354.354 Q2201.94 354.771 2200 355.651 L2200 338.29 Z" fill="#000000" fill-rule="nonzero" fill-opacity="1" /><polyline clip-path="url(#clip310)" style="stroke:#00a9ad; stroke-linecap:round; stroke-linejoin:round; stroke-width:4; stroke-opacity:1; fill:none" points="1992.01,407.41 2143.06,407.41 "/>
<path clip-path="url(#clip310)" d="M2182.08 427.097 Q2180.27 431.727 2178.56 433.139 Q2176.85 434.551 2173.98 434.551 L2170.57 434.551 L2170.57 430.986 L2173.07 430.986 Q2174.83 430.986 2175.81 430.152 Q2176.78 429.319 2177.96 426.217 L2178.72 424.273 L2168.24 398.764 L2172.75 398.764 L2180.85 419.041 L2188.95 398.764 L2193.47 398.764 L2182.08 427.097 Z" fill="#000000" fill-rule="nonzero" fill-opacity="1" /><path clip-path="url(#clip310)" d="M2210.53 405.546 Q2207.38 405.546 2205.53 407.699 Q2203.7 409.852 2203.7 413.602 Q2203.7 417.328 2205.53 419.504 Q2207.38 421.657 2210.53 421.657 Q2213.68 421.657 2215.5 419.504 Q2217.36 417.328 2217.36 413.602 Q2217.36 409.852 2215.5 407.699 Q2213.68 405.546 2210.53 405.546 M2219.81 390.893 L2219.81 395.153 Q2218.05 394.319 2216.25 393.88 Q2214.46 393.44 2212.7 393.44 Q2208.07 393.44 2205.62 396.565 Q2203.19 399.69 2202.84 406.009 Q2204.21 403.995 2206.27 402.93 Q2208.33 401.842 2210.81 401.842 Q2216.01 401.842 2219.02 405.014 Q2222.06 408.162 2222.06 413.602 Q2222.06 418.926 2218.91 422.143 Q2215.76 425.361 2210.53 425.361 Q2204.53 425.361 2201.36 420.778 Q2198.19 416.171 2198.19 407.444 Q2198.19 399.25 2202.08 394.389 Q2205.97 389.505 2212.52 389.505 Q2214.28 389.505 2216.06 389.852 Q2217.87 390.199 2219.81 390.893 Z" fill="#000000" fill-rule="nonzero" fill-opacity="1" /><polyline clip-path="url(#clip310)" style="stroke:#ed5d92; stroke-linecap:round; stroke-linejoin:round; stroke-width:4; stroke-opacity:1; fill:none" points="1992.01,459.25 2143.06,459.25 "/>
<path clip-path="url(#clip310)" d="M2182.08 478.937 Q2180.27 483.567 2178.56 484.979 Q2176.85 486.391 2173.98 486.391 L2170.57 486.391 L2170.57 482.826 L2173.07 482.826 Q2174.83 482.826 2175.81 481.992 Q2176.78 481.159 2177.96 478.057 L2178.72 476.113 L2168.24 450.604 L2172.75 450.604 L2180.85 470.881 L2188.95 450.604 L2193.47 450.604 L2182.08 478.937 Z" fill="#000000" fill-rule="nonzero" fill-opacity="1" /><path clip-path="url(#clip310)" d="M2198.77 441.97 L2220.99 441.97 L2220.99 443.96 L2208.44 476.53 L2203.56 476.53 L2215.37 445.905 L2198.77 445.905 L2198.77 441.97 Z" fill="#000000" fill-rule="nonzero" fill-opacity="1" /><polyline clip-path="url(#clip310)" style="stroke:#c68125; stroke-linecap:round; stroke-linejoin:round; stroke-width:4; stroke-opacity:1; fill:none" points="1992.01,511.09 2143.06,511.09 "/>
<path clip-path="url(#clip310)" d="M2182.08 530.777 Q2180.27 535.407 2178.56 536.819 Q2176.85 538.231 2173.98 538.231 L2170.57 538.231 L2170.57 534.666 L2173.07 534.666 Q2174.83 534.666 2175.81 533.832 Q2176.78 532.999 2177.96 529.897 L2178.72 527.953 L2168.24 502.444 L2172.75 502.444 L2180.85 522.721 L2188.95 502.444 L2193.47 502.444 L2182.08 530.777 Z" fill="#000000" fill-rule="nonzero" fill-opacity="1" /><path clip-path="url(#clip310)" d="M2209.95 511.958 Q2206.62 511.958 2204.69 513.74 Q2202.8 515.522 2202.8 518.647 Q2202.8 521.772 2204.69 523.555 Q2206.62 525.337 2209.95 525.337 Q2213.28 525.337 2215.2 523.555 Q2217.12 521.749 2217.12 518.647 Q2217.12 515.522 2215.2 513.74 Q2213.31 511.958 2209.95 511.958 M2205.27 509.967 Q2202.26 509.226 2200.57 507.166 Q2198.91 505.106 2198.91 502.143 Q2198.91 497.999 2201.85 495.592 Q2204.81 493.185 2209.95 493.185 Q2215.11 493.185 2218.05 495.592 Q2220.99 497.999 2220.99 502.143 Q2220.99 505.106 2219.3 507.166 Q2217.63 509.226 2214.65 509.967 Q2218.03 510.754 2219.9 513.046 Q2221.8 515.337 2221.8 518.647 Q2221.8 523.671 2218.72 526.356 Q2215.67 529.041 2209.95 529.041 Q2204.23 529.041 2201.15 526.356 Q2198.1 523.671 2198.1 518.647 Q2198.1 515.337 2200 513.046 Q2201.89 510.754 2205.27 509.967 M2203.56 502.583 Q2203.56 505.268 2205.23 506.772 Q2206.92 508.277 2209.95 508.277 Q2212.96 508.277 2214.65 506.772 Q2216.36 505.268 2216.36 502.583 Q2216.36 499.897 2214.65 498.393 Q2212.96 496.888 2209.95 496.888 Q2206.92 496.888 2205.23 498.393 Q2203.56 499.897 2203.56 502.583 Z" fill="#000000" fill-rule="nonzero" fill-opacity="1" /><polyline clip-path="url(#clip310)" style="stroke:#00a98d; stroke-linecap:round; stroke-linejoin:round; stroke-width:4; stroke-opacity:1; fill:none" points="1992.01,562.93 2143.06,562.93 "/>
<path clip-path="url(#clip310)" d="M2182.08 582.617 Q2180.27 587.247 2178.56 588.659 Q2176.85 590.071 2173.98 590.071 L2170.57 590.071 L2170.57 586.506 L2173.07 586.506 Q2174.83 586.506 2175.81 585.672 Q2176.78 584.839 2177.96 581.737 L2178.72 579.793 L2168.24 554.284 L2172.75 554.284 L2180.85 574.561 L2188.95 554.284 L2193.47 554.284 L2182.08 582.617 Z" fill="#000000" fill-rule="nonzero" fill-opacity="1" /><path clip-path="url(#clip310)" d="M2200.09 579.492 L2200.09 575.233 Q2201.85 576.066 2203.65 576.506 Q2205.46 576.946 2207.19 576.946 Q2211.82 576.946 2214.25 573.844 Q2216.71 570.719 2217.06 564.376 Q2215.71 566.367 2213.65 567.432 Q2211.59 568.497 2209.09 568.497 Q2203.91 568.497 2200.88 565.372 Q2197.87 562.224 2197.87 556.784 Q2197.87 551.46 2201.01 548.242 Q2204.16 545.025 2209.39 545.025 Q2215.39 545.025 2218.54 549.631 Q2221.71 554.214 2221.71 562.964 Q2221.71 571.136 2217.82 576.02 Q2213.95 580.881 2207.4 580.881 Q2205.64 580.881 2203.84 580.534 Q2202.03 580.186 2200.09 579.492 M2209.39 564.839 Q2212.54 564.839 2214.37 562.686 Q2216.22 560.534 2216.22 556.784 Q2216.22 553.057 2214.37 550.904 Q2212.54 548.728 2209.39 548.728 Q2206.25 548.728 2204.39 550.904 Q2202.56 553.057 2202.56 556.784 Q2202.56 560.534 2204.39 562.686 Q2206.25 564.839 2209.39 564.839 Z" fill="#000000" fill-rule="nonzero" fill-opacity="1" /><polyline clip-path="url(#clip310)" style="stroke:#8e971d; stroke-linecap:round; stroke-linejoin:round; stroke-width:4; stroke-opacity:1; fill:none" points="1992.01,614.77 2143.06,614.77 "/>
<path clip-path="url(#clip310)" d="M2182.08 634.457 Q2180.27 639.087 2178.56 640.499 Q2176.85 641.911 2173.98 641.911 L2170.57 641.911 L2170.57 638.346 L2173.07 638.346 Q2174.83 638.346 2175.81 637.512 Q2176.78 636.679 2177.96 633.577 L2178.72 631.633 L2168.24 606.124 L2172.75 606.124 L2180.85 626.401 L2188.95 606.124 L2193.47 606.124 L2182.08 634.457 Z" fill="#000000" fill-rule="nonzero" fill-opacity="1" /><path clip-path="url(#clip310)" d="M2200.76 628.114 L2208.4 628.114 L2208.4 601.749 L2200.09 603.415 L2200.09 599.156 L2208.35 597.49 L2213.03 597.49 L2213.03 628.114 L2220.67 628.114 L2220.67 632.05 L2200.76 632.05 L2200.76 628.114 Z" fill="#000000" fill-rule="nonzero" fill-opacity="1" /><path clip-path="url(#clip310)" d="M2240.11 600.568 Q2236.5 600.568 2234.67 604.133 Q2232.87 607.675 2232.87 614.804 Q2232.87 621.911 2234.67 625.476 Q2236.5 629.017 2240.11 629.017 Q2243.75 629.017 2245.55 625.476 Q2247.38 621.911 2247.38 614.804 Q2247.38 607.675 2245.55 604.133 Q2243.75 600.568 2240.11 600.568 M2240.11 596.865 Q2245.92 596.865 2248.98 601.471 Q2252.06 606.054 2252.06 614.804 Q2252.06 623.531 2248.98 628.138 Q2245.92 632.721 2240.11 632.721 Q2234.3 632.721 2231.22 628.138 Q2228.17 623.531 2228.17 614.804 Q2228.17 606.054 2231.22 601.471 Q2234.3 596.865 2240.11 596.865 Z" fill="#000000" fill-rule="nonzero" fill-opacity="1" /></svg>
