<?xml version="1.0" encoding="utf-8"?>
<svg xmlns="http://www.w3.org/2000/svg" xmlns:xlink="http://www.w3.org/1999/xlink" width="600" height="400" viewBox="0 0 2400 1600">
<defs>
  <clipPath id="clip790">
    <rect x="0" y="0" width="2400" height="1600"/>
  </clipPath>
</defs>
<path clip-path="url(#clip790)" d="M0 1600 L2400 1600 L2400 0 L0 0  Z" fill="#ffffff" fill-rule="evenodd" fill-opacity="1"/>
<defs>
  <clipPath id="clip791">
    <rect x="480" y="0" width="1681" height="1600"/>
  </clipPath>
</defs>
<path clip-path="url(#clip790)" d="M86.9921 1521.01 L2352.76 1521.01 L2352.76 47.2441 L86.9921 47.2441  Z" fill="#ffffff" fill-rule="evenodd" fill-opacity="1"/>
<defs>
  <clipPath id="clip792">
    <rect x="86" y="47" width="2267" height="1475"/>
  </clipPath>
</defs>
<polyline clip-path="url(#clip792)" style="stroke:#000000; stroke-linecap:round; stroke-linejoin:round; stroke-width:2; stroke-opacity:0.1; fill:none" points="251.305,1521.01 251.305,47.2441 "/>
<polyline clip-path="url(#clip792)" style="stroke:#000000; stroke-linecap:round; stroke-linejoin:round; stroke-width:2; stroke-opacity:0.1; fill:none" points="557.814,1521.01 557.814,47.2441 "/>
<polyline clip-path="url(#clip792)" style="stroke:#000000; stroke-linecap:round; stroke-linejoin:round; stroke-width:2; stroke-opacity:0.1; fill:none" points="864.323,1521.01 864.323,47.2441 "/>
<polyline clip-path="url(#clip792)" style="stroke:#000000; stroke-linecap:round; stroke-linejoin:round; stroke-width:2; stroke-opacity:0.1; fill:none" points="1170.83,1521.01 1170.83,47.2441 "/>
<polyline clip-path="url(#clip792)" style="stroke:#000000; stroke-linecap:round; stroke-linejoin:round; stroke-width:2; stroke-opacity:0.1; fill:none" points="1477.34,1521.01 1477.34,47.2441 "/>
<polyline clip-path="url(#clip792)" style="stroke:#000000; stroke-linecap:round; stroke-linejoin:round; stroke-width:2; stroke-opacity:0.1; fill:none" points="1783.85,1521.01 1783.85,47.2441 "/>
<polyline clip-path="url(#clip792)" style="stroke:#000000; stroke-linecap:round; stroke-linejoin:round; stroke-width:2; stroke-opacity:0.1; fill:none" points="2090.36,1521.01 2090.36,47.2441 "/>
<polyline clip-path="url(#clip790)" style="stroke:#000000; stroke-linecap:round; stroke-linejoin:round; stroke-width:4; stroke-opacity:1; fill:none" points="86.9921,1521.01 2352.76,1521.01 "/>
<polyline clip-path="url(#clip790)" style="stroke:#000000; stroke-linecap:round; stroke-linejoin:round; stroke-width:4; stroke-opacity:1; fill:none" points="251.305,1521.01 251.305,1502.11 "/>
<polyline clip-path="url(#clip790)" style="stroke:#000000; stroke-linecap:round; stroke-linejoin:round; stroke-width:4; stroke-opacity:1; fill:none" points="557.814,1521.01 557.814,1502.11 "/>
<polyline clip-path="url(#clip790)" style="stroke:#000000; stroke-linecap:round; stroke-linejoin:round; stroke-width:4; stroke-opacity:1; fill:none" points="864.323,1521.01 864.323,1502.11 "/>
<polyline clip-path="url(#clip790)" style="stroke:#000000; stroke-linecap:round; stroke-linejoin:round; stroke-width:4; stroke-opacity:1; fill:none" points="1170.83,1521.01 1170.83,1502.11 "/>
<polyline clip-path="url(#clip790)" style="stroke:#000000; stroke-linecap:round; stroke-linejoin:round; stroke-width:4; stroke-opacity:1; fill:none" points="1477.34,1521.01 1477.34,1502.11 "/>
<polyline clip-path="url(#clip790)" style="stroke:#000000; stroke-linecap:round; stroke-linejoin:round; stroke-width:4; stroke-opacity:1; fill:none" points="1783.85,1521.01 1783.85,1502.11 "/>
<polyline clip-path="url(#clip790)" style="stroke:#000000; stroke-linecap:round; stroke-linejoin:round; stroke-width:4; stroke-opacity:1; fill:none" points="2090.36,1521.01 2090.36,1502.11 "/>
<path clip-path="url(#clip790)" d="M223.041 1579.47 L239.361 1579.47 L239.361 1583.41 L217.416 1583.41 L217.416 1579.47 Q220.078 1576.72 224.662 1572.09 Q229.268 1567.44 230.449 1566.09 Q232.694 1563.57 233.574 1561.83 Q234.476 1560.07 234.476 1558.38 Q234.476 1555.63 232.532 1553.89 Q230.611 1552.16 227.509 1552.16 Q225.31 1552.16 222.856 1552.92 Q220.426 1553.69 217.648 1555.24 L217.648 1550.51 Q220.472 1549.38 222.926 1548.8 Q225.379 1548.22 227.416 1548.22 Q232.787 1548.22 235.981 1550.91 Q239.175 1553.59 239.175 1558.08 Q239.175 1560.21 238.365 1562.13 Q237.578 1564.03 235.472 1566.63 Q234.893 1567.3 231.791 1570.51 Q228.689 1573.71 223.041 1579.47 Z" fill="#000000" fill-rule="nonzero" fill-opacity="1" /><path clip-path="url(#clip790)" d="M249.175 1577.53 L254.06 1577.53 L254.06 1583.41 L249.175 1583.41 L249.175 1577.53 Z" fill="#000000" fill-rule="nonzero" fill-opacity="1" /><path clip-path="url(#clip790)" d="M264.291 1548.85 L282.647 1548.85 L282.647 1552.78 L268.573 1552.78 L268.573 1561.26 Q269.592 1560.91 270.61 1560.75 Q271.629 1560.56 272.647 1560.56 Q278.434 1560.56 281.814 1563.73 Q285.194 1566.9 285.194 1572.32 Q285.194 1577.9 281.722 1581 Q278.249 1584.08 271.93 1584.08 Q269.754 1584.08 267.485 1583.71 Q265.24 1583.34 262.833 1582.6 L262.833 1577.9 Q264.916 1579.03 267.138 1579.59 Q269.36 1580.14 271.837 1580.14 Q275.842 1580.14 278.18 1578.04 Q280.518 1575.93 280.518 1572.32 Q280.518 1568.71 278.18 1566.6 Q275.842 1564.5 271.837 1564.5 Q269.962 1564.5 268.087 1564.91 Q266.235 1565.33 264.291 1566.21 L264.291 1548.85 Z" fill="#000000" fill-rule="nonzero" fill-opacity="1" /><path clip-path="url(#clip790)" d="M524.979 1548.85 L543.335 1548.85 L543.335 1552.78 L529.261 1552.78 L529.261 1561.26 Q530.28 1560.91 531.298 1560.75 Q532.317 1560.56 533.335 1560.56 Q539.122 1560.56 542.502 1563.73 Q545.881 1566.9 545.881 1572.32 Q545.881 1577.9 542.409 1581 Q538.937 1584.08 532.618 1584.08 Q530.442 1584.08 528.173 1583.71 Q525.928 1583.34 523.52 1582.6 L523.52 1577.9 Q525.604 1579.03 527.826 1579.59 Q530.048 1580.14 532.525 1580.14 Q536.53 1580.14 538.868 1578.04 Q541.205 1575.93 541.205 1572.32 Q541.205 1568.71 538.868 1566.6 Q536.53 1564.5 532.525 1564.5 Q530.65 1564.5 528.775 1564.91 Q526.923 1565.33 524.979 1566.21 L524.979 1548.85 Z" fill="#000000" fill-rule="nonzero" fill-opacity="1" /><path clip-path="url(#clip790)" d="M555.094 1577.53 L559.979 1577.53 L559.979 1583.41 L555.094 1583.41 L555.094 1577.53 Z" fill="#000000" fill-rule="nonzero" fill-opacity="1" /><path clip-path="url(#clip790)" d="M580.164 1551.93 Q576.553 1551.93 574.724 1555.49 Q572.918 1559.03 572.918 1566.16 Q572.918 1573.27 574.724 1576.83 Q576.553 1580.38 580.164 1580.38 Q583.798 1580.38 585.603 1576.83 Q587.432 1573.27 587.432 1566.16 Q587.432 1559.03 585.603 1555.49 Q583.798 1551.93 580.164 1551.93 M580.164 1548.22 Q585.974 1548.22 589.029 1552.83 Q592.108 1557.41 592.108 1566.16 Q592.108 1574.89 589.029 1579.5 Q585.974 1584.08 580.164 1584.08 Q574.353 1584.08 571.275 1579.5 Q568.219 1574.89 568.219 1566.16 Q568.219 1557.41 571.275 1552.83 Q574.353 1548.22 580.164 1548.22 Z" fill="#000000" fill-rule="nonzero" fill-opacity="1" /><path clip-path="url(#clip790)" d="M830.643 1548.85 L852.865 1548.85 L852.865 1550.84 L840.319 1583.41 L835.435 1583.41 L847.24 1552.78 L830.643 1552.78 L830.643 1548.85 Z" fill="#000000" fill-rule="nonzero" fill-opacity="1" /><path clip-path="url(#clip790)" d="M861.985 1577.53 L866.87 1577.53 L866.87 1583.41 L861.985 1583.41 L861.985 1577.53 Z" fill="#000000" fill-rule="nonzero" fill-opacity="1" /><path clip-path="url(#clip790)" d="M877.101 1548.85 L895.457 1548.85 L895.457 1552.78 L881.383 1552.78 L881.383 1561.26 Q882.402 1560.91 883.42 1560.75 Q884.439 1560.56 885.458 1560.56 Q891.245 1560.56 894.624 1563.73 Q898.004 1566.9 898.004 1572.32 Q898.004 1577.9 894.532 1581 Q891.059 1584.08 884.74 1584.08 Q882.564 1584.08 880.296 1583.71 Q878.05 1583.34 875.643 1582.6 L875.643 1577.9 Q877.726 1579.03 879.948 1579.59 Q882.17 1580.14 884.647 1580.14 Q888.652 1580.14 890.99 1578.04 Q893.328 1575.93 893.328 1572.32 Q893.328 1568.71 890.99 1566.6 Q888.652 1564.5 884.647 1564.5 Q882.772 1564.5 880.897 1564.91 Q879.046 1565.33 877.101 1566.21 L877.101 1548.85 Z" fill="#000000" fill-rule="nonzero" fill-opacity="1" /><path clip-path="url(#clip790)" d="M1122.9 1579.47 L1130.54 1579.47 L1130.54 1553.11 L1122.23 1554.77 L1122.23 1550.51 L1130.5 1548.85 L1135.17 1548.85 L1135.17 1579.47 L1142.81 1579.47 L1142.81 1583.41 L1122.9 1583.41 L1122.9 1579.47 Z" fill="#000000" fill-rule="nonzero" fill-opacity="1" /><path clip-path="url(#clip790)" d="M1162.26 1551.93 Q1158.65 1551.93 1156.82 1555.49 Q1155.01 1559.03 1155.01 1566.16 Q1155.01 1573.27 1156.82 1576.83 Q1158.65 1580.38 1162.26 1580.38 Q1165.89 1580.38 1167.7 1576.83 Q1169.52 1573.27 1169.52 1566.16 Q1169.52 1559.03 1167.7 1555.49 Q1165.89 1551.93 1162.26 1551.93 M1162.26 1548.22 Q1168.07 1548.22 1171.12 1552.83 Q1174.2 1557.41 1174.2 1566.16 Q1174.2 1574.89 1171.12 1579.5 Q1168.07 1584.08 1162.26 1584.08 Q1156.45 1584.08 1153.37 1579.5 Q1150.31 1574.89 1150.31 1566.16 Q1150.31 1557.41 1153.37 1552.83 Q1156.45 1548.22 1162.26 1548.22 Z" fill="#000000" fill-rule="nonzero" fill-opacity="1" /><path clip-path="url(#clip790)" d="M1182.42 1577.53 L1187.3 1577.53 L1187.3 1583.41 L1182.42 1583.41 L1182.42 1577.53 Z" fill="#000000" fill-rule="nonzero" fill-opacity="1" /><path clip-path="url(#clip790)" d="M1207.49 1551.93 Q1203.88 1551.93 1202.05 1555.49 Q1200.24 1559.03 1200.24 1566.16 Q1200.24 1573.27 1202.05 1576.83 Q1203.88 1580.38 1207.49 1580.38 Q1211.12 1580.38 1212.93 1576.83 Q1214.76 1573.27 1214.76 1566.16 Q1214.76 1559.03 1212.93 1555.49 Q1211.12 1551.93 1207.49 1551.93 M1207.49 1548.22 Q1213.3 1548.22 1216.35 1552.83 Q1219.43 1557.41 1219.43 1566.16 Q1219.43 1574.89 1216.35 1579.5 Q1213.3 1584.08 1207.49 1584.08 Q1201.68 1584.08 1198.6 1579.5 Q1195.54 1574.89 1195.54 1566.16 Q1195.54 1557.41 1198.6 1552.83 Q1201.68 1548.22 1207.49 1548.22 Z" fill="#000000" fill-rule="nonzero" fill-opacity="1" /><path clip-path="url(#clip790)" d="M1429.91 1579.47 L1437.55 1579.47 L1437.55 1553.11 L1429.24 1554.77 L1429.24 1550.51 L1437.5 1548.85 L1442.18 1548.85 L1442.18 1579.47 L1449.82 1579.47 L1449.82 1583.41 L1429.91 1583.41 L1429.91 1579.47 Z" fill="#000000" fill-rule="nonzero" fill-opacity="1" /><path clip-path="url(#clip790)" d="M1463.29 1579.47 L1479.61 1579.47 L1479.61 1583.41 L1457.67 1583.41 L1457.67 1579.47 Q1460.33 1576.72 1464.91 1572.09 Q1469.52 1567.44 1470.7 1566.09 Q1472.94 1563.57 1473.82 1561.83 Q1474.73 1560.07 1474.73 1558.38 Q1474.73 1555.63 1472.78 1553.89 Q1470.86 1552.16 1467.76 1552.16 Q1465.56 1552.16 1463.11 1552.92 Q1460.68 1553.69 1457.9 1555.24 L1457.9 1550.51 Q1460.72 1549.38 1463.18 1548.8 Q1465.63 1548.22 1467.67 1548.22 Q1473.04 1548.22 1476.23 1550.91 Q1479.43 1553.59 1479.43 1558.08 Q1479.43 1560.21 1478.61 1562.13 Q1477.83 1564.03 1475.72 1566.63 Q1475.14 1567.3 1472.04 1570.51 Q1468.94 1573.71 1463.29 1579.47 Z" fill="#000000" fill-rule="nonzero" fill-opacity="1" /><path clip-path="url(#clip790)" d="M1489.42 1577.53 L1494.31 1577.53 L1494.31 1583.41 L1489.42 1583.41 L1489.42 1577.53 Z" fill="#000000" fill-rule="nonzero" fill-opacity="1" /><path clip-path="url(#clip790)" d="M1504.54 1548.85 L1522.9 1548.85 L1522.9 1552.78 L1508.82 1552.78 L1508.82 1561.26 Q1509.84 1560.91 1510.86 1560.75 Q1511.88 1560.56 1512.9 1560.56 Q1518.68 1560.56 1522.06 1563.73 Q1525.44 1566.9 1525.44 1572.32 Q1525.44 1577.9 1521.97 1581 Q1518.5 1584.08 1512.18 1584.08 Q1510 1584.08 1507.74 1583.71 Q1505.49 1583.34 1503.08 1582.6 L1503.08 1577.9 Q1505.17 1579.03 1507.39 1579.59 Q1509.61 1580.14 1512.09 1580.14 Q1516.09 1580.14 1518.43 1578.04 Q1520.77 1575.93 1520.77 1572.32 Q1520.77 1568.71 1518.43 1566.6 Q1516.09 1564.5 1512.09 1564.5 Q1510.21 1564.5 1508.34 1564.91 Q1506.49 1565.33 1504.54 1566.21 L1504.54 1548.85 Z" fill="#000000" fill-rule="nonzero" fill-opacity="1" /><path clip-path="url(#clip790)" d="M1735.92 1579.47 L1743.56 1579.47 L1743.56 1553.11 L1735.25 1554.77 L1735.25 1550.51 L1743.52 1548.85 L1748.19 1548.85 L1748.19 1579.47 L1755.83 1579.47 L1755.83 1583.41 L1735.92 1583.41 L1735.92 1579.47 Z" fill="#000000" fill-rule="nonzero" fill-opacity="1" /><path clip-path="url(#clip790)" d="M1765.32 1548.85 L1783.68 1548.85 L1783.68 1552.78 L1769.6 1552.78 L1769.6 1561.26 Q1770.62 1560.91 1771.64 1560.75 Q1772.66 1560.56 1773.68 1560.56 Q1779.46 1560.56 1782.84 1563.73 Q1786.22 1566.9 1786.22 1572.32 Q1786.22 1577.9 1782.75 1581 Q1779.28 1584.08 1772.96 1584.08 Q1770.78 1584.08 1768.52 1583.71 Q1766.27 1583.34 1763.86 1582.6 L1763.86 1577.9 Q1765.95 1579.03 1768.17 1579.59 Q1770.39 1580.14 1772.87 1580.14 Q1776.87 1580.14 1779.21 1578.04 Q1781.55 1575.93 1781.55 1572.32 Q1781.55 1568.71 1779.21 1566.6 Q1776.87 1564.5 1772.87 1564.5 Q1770.99 1564.5 1769.12 1564.91 Q1767.27 1565.33 1765.32 1566.21 L1765.32 1548.85 Z" fill="#000000" fill-rule="nonzero" fill-opacity="1" /><path clip-path="url(#clip790)" d="M1795.44 1577.53 L1800.32 1577.53 L1800.32 1583.41 L1795.44 1583.41 L1795.44 1577.53 Z" fill="#000000" fill-rule="nonzero" fill-opacity="1" /><path clip-path="url(#clip790)" d="M1820.51 1551.93 Q1816.89 1551.93 1815.07 1555.49 Q1813.26 1559.03 1813.26 1566.16 Q1813.26 1573.27 1815.07 1576.83 Q1816.89 1580.38 1820.51 1580.38 Q1824.14 1580.38 1825.95 1576.83 Q1827.77 1573.27 1827.77 1566.16 Q1827.77 1559.03 1825.95 1555.49 Q1824.14 1551.93 1820.51 1551.93 M1820.51 1548.22 Q1826.32 1548.22 1829.37 1552.83 Q1832.45 1557.41 1832.45 1566.16 Q1832.45 1574.89 1829.37 1579.5 Q1826.32 1584.08 1820.51 1584.08 Q1814.7 1584.08 1811.62 1579.5 Q1808.56 1574.89 1808.56 1566.16 Q1808.56 1557.41 1811.62 1552.83 Q1814.7 1548.22 1820.51 1548.22 Z" fill="#000000" fill-rule="nonzero" fill-opacity="1" /><path clip-path="url(#clip790)" d="M2042.93 1579.47 L2050.57 1579.47 L2050.57 1553.11 L2042.26 1554.77 L2042.26 1550.51 L2050.52 1548.85 L2055.2 1548.85 L2055.2 1579.47 L2062.84 1579.47 L2062.84 1583.41 L2042.93 1583.41 L2042.93 1579.47 Z" fill="#000000" fill-rule="nonzero" fill-opacity="1" /><path clip-path="url(#clip790)" d="M2071.1 1548.85 L2093.32 1548.85 L2093.32 1550.84 L2080.78 1583.41 L2075.89 1583.41 L2087.7 1552.78 L2071.1 1552.78 L2071.1 1548.85 Z" fill="#000000" fill-rule="nonzero" fill-opacity="1" /><path clip-path="url(#clip790)" d="M2102.44 1577.53 L2107.33 1577.53 L2107.33 1583.41 L2102.44 1583.41 L2102.44 1577.53 Z" fill="#000000" fill-rule="nonzero" fill-opacity="1" /><path clip-path="url(#clip790)" d="M2117.56 1548.85 L2135.92 1548.85 L2135.92 1552.78 L2121.84 1552.78 L2121.84 1561.26 Q2122.86 1560.91 2123.88 1560.75 Q2124.9 1560.56 2125.92 1560.56 Q2131.7 1560.56 2135.08 1563.73 Q2138.46 1566.9 2138.46 1572.32 Q2138.46 1577.9 2134.99 1581 Q2131.52 1584.08 2125.2 1584.08 Q2123.02 1584.08 2120.75 1583.71 Q2118.51 1583.34 2116.1 1582.6 L2116.1 1577.9 Q2118.18 1579.03 2120.41 1579.59 Q2122.63 1580.14 2125.11 1580.14 Q2129.11 1580.14 2131.45 1578.04 Q2133.79 1575.93 2133.79 1572.32 Q2133.79 1568.71 2131.45 1566.6 Q2129.11 1564.5 2125.11 1564.5 Q2123.23 1564.5 2121.36 1564.91 Q2119.5 1565.33 2117.56 1566.21 L2117.56 1548.85 Z" fill="#000000" fill-rule="nonzero" fill-opacity="1" /><polyline clip-path="url(#clip792)" style="stroke:#000000; stroke-linecap:round; stroke-linejoin:round; stroke-width:2; stroke-opacity:0.1; fill:none" points="86.9921,1479.42 2352.76,1479.42 "/>
<polyline clip-path="url(#clip792)" style="stroke:#000000; stroke-linecap:round; stroke-linejoin:round; stroke-width:2; stroke-opacity:0.1; fill:none" points="86.9921,1116.99 2352.76,1116.99 "/>
<polyline clip-path="url(#clip792)" style="stroke:#000000; stroke-linecap:round; stroke-linejoin:round; stroke-width:2; stroke-opacity:0.1; fill:none" points="86.9921,754.568 2352.76,754.568 "/>
<polyline clip-path="url(#clip792)" style="stroke:#000000; stroke-linecap:round; stroke-linejoin:round; stroke-width:2; stroke-opacity:0.1; fill:none" points="86.9921,392.142 2352.76,392.142 "/>
<polyline clip-path="url(#clip790)" style="stroke:#000000; stroke-linecap:round; stroke-linejoin:round; stroke-width:4; stroke-opacity:1; fill:none" points="86.9921,1521.01 86.9921,47.2441 "/>
<polyline clip-path="url(#clip790)" style="stroke:#000000; stroke-linecap:round; stroke-linejoin:round; stroke-width:4; stroke-opacity:1; fill:none" points="86.9921,1479.42 105.89,1479.42 "/>
<polyline clip-path="url(#clip790)" style="stroke:#000000; stroke-linecap:round; stroke-linejoin:round; stroke-width:4; stroke-opacity:1; fill:none" points="86.9921,1116.99 105.89,1116.99 "/>
<polyline clip-path="url(#clip790)" style="stroke:#000000; stroke-linecap:round; stroke-linejoin:round; stroke-width:4; stroke-opacity:1; fill:none" points="86.9921,754.568 105.89,754.568 "/>
<polyline clip-path="url(#clip790)" style="stroke:#000000; stroke-linecap:round; stroke-linejoin:round; stroke-width:4; stroke-opacity:1; fill:none" points="86.9921,392.142 105.89,392.142 "/>
<path clip-path="url(#clip790)" d="M10.8708 1502.04 Q10.8708 1505.65 14.4356 1507.48 Q17.9773 1509.28 25.1068 1509.28 Q32.2133 1509.28 35.7781 1507.48 Q39.3197 1505.65 39.3197 1502.04 Q39.3197 1498.4 35.7781 1496.6 Q32.2133 1494.77 25.1068 1494.77 Q17.9773 1494.77 14.4356 1496.6 Q10.8708 1498.4 10.8708 1502.04 M7.16713 1502.04 Q7.16713 1496.23 11.7736 1493.17 Q16.3569 1490.09 25.1068 1490.09 Q33.8337 1490.09 38.4401 1493.17 Q43.0234 1496.23 43.0234 1502.04 Q43.0234 1507.85 38.4401 1510.92 Q33.8337 1513.98 25.1068 1513.98 Q16.3569 1513.98 11.7736 1510.92 Q7.16713 1507.85 7.16713 1502.04 Z" fill="#000000" fill-rule="nonzero" fill-opacity="1" /><path clip-path="url(#clip790)" d="M36.4725 1481.87 L36.4725 1476.99 L42.3521 1476.99 L42.3521 1481.87 L36.4725 1481.87 Z" fill="#000000" fill-rule="nonzero" fill-opacity="1" /><path clip-path="url(#clip790)" d="M10.8708 1456.8 Q10.8708 1460.42 14.4356 1462.24 Q17.9773 1464.05 25.1068 1464.05 Q32.2133 1464.05 35.7781 1462.24 Q39.3197 1460.42 39.3197 1456.8 Q39.3197 1453.17 35.7781 1451.36 Q32.2133 1449.54 25.1068 1449.54 Q17.9773 1449.54 14.4356 1451.36 Q10.8708 1453.17 10.8708 1456.8 M7.16713 1456.8 Q7.16713 1450.99 11.7736 1447.94 Q16.3569 1444.86 25.1068 1444.86 Q33.8337 1444.86 38.4401 1447.94 Q43.0234 1450.99 43.0234 1456.8 Q43.0234 1462.61 38.4401 1465.69 Q33.8337 1468.75 25.1068 1468.75 Q16.3569 1468.75 11.7736 1465.69 Q7.16713 1462.61 7.16713 1456.8 Z" fill="#000000" fill-rule="nonzero" fill-opacity="1" /><path clip-path="url(#clip790)" d="M10.8708 1139.11 Q10.8708 1142.72 14.4356 1144.55 Q17.9773 1146.36 25.1068 1146.36 Q32.2133 1146.36 35.7781 1144.55 Q39.3197 1142.72 39.3197 1139.11 Q39.3197 1135.48 35.7781 1133.67 Q32.2133 1131.84 25.1068 1131.84 Q17.9773 1131.84 14.4356 1133.67 Q10.8708 1135.48 10.8708 1139.11 M7.16713 1139.11 Q7.16713 1133.3 11.7736 1130.25 Q16.3569 1127.17 25.1068 1127.17 Q33.8337 1127.17 38.4401 1130.25 Q43.0234 1133.3 43.0234 1139.11 Q43.0234 1144.92 38.4401 1148 Q33.8337 1151.06 25.1068 1151.06 Q16.3569 1151.06 11.7736 1148 Q7.16713 1144.92 7.16713 1139.11 Z" fill="#000000" fill-rule="nonzero" fill-opacity="1" /><path clip-path="url(#clip790)" d="M36.4725 1118.95 L36.4725 1114.07 L42.3521 1114.07 L42.3521 1118.95 L36.4725 1118.95 Z" fill="#000000" fill-rule="nonzero" fill-opacity="1" /><path clip-path="url(#clip790)" d="M7.79213 1103.83 L7.79213 1085.48 L11.7273 1085.48 L11.7273 1099.55 L20.1995 1099.55 Q19.8522 1098.53 19.6902 1097.52 Q19.505 1096.5 19.505 1095.48 Q19.505 1089.69 22.6763 1086.31 Q25.8476 1082.93 31.2642 1082.93 Q36.8429 1082.93 39.9447 1086.4 Q43.0234 1089.88 43.0234 1096.2 Q43.0234 1098.37 42.6531 1100.64 Q42.2827 1102.89 41.5419 1105.29 L36.8429 1105.29 Q37.9771 1103.21 38.5327 1100.99 Q39.0883 1098.77 39.0883 1096.29 Q39.0883 1092.28 36.9818 1089.95 Q34.8753 1087.61 31.2642 1087.61 Q27.6531 1087.61 25.5467 1089.95 Q23.4402 1092.28 23.4402 1096.29 Q23.4402 1098.16 23.8569 1100.04 Q24.2735 1101.89 25.1531 1103.83 L7.79213 1103.83 Z" fill="#000000" fill-rule="nonzero" fill-opacity="1" /><path clip-path="url(#clip790)" d="M38.417 787.415 L38.417 779.776 L12.0514 779.776 L13.718 788.087 L9.45878 788.087 L7.79213 779.823 L7.79213 775.147 L38.417 775.147 L38.417 767.508 L42.3521 767.508 L42.3521 787.415 L38.417 787.415 Z" fill="#000000" fill-rule="nonzero" fill-opacity="1" /><path clip-path="url(#clip790)" d="M36.4725 758.064 L36.4725 753.179 L42.3521 753.179 L42.3521 758.064 L36.4725 758.064 Z" fill="#000000" fill-rule="nonzero" fill-opacity="1" /><path clip-path="url(#clip790)" d="M10.8708 732.994 Q10.8708 736.605 14.4356 738.434 Q17.9773 740.24 25.1068 740.24 Q32.2133 740.24 35.7781 738.434 Q39.3197 736.605 39.3197 732.994 Q39.3197 729.36 35.7781 727.555 Q32.2133 725.726 25.1068 725.726 Q17.9773 725.726 14.4356 727.555 Q10.8708 729.36 10.8708 732.994 M7.16713 732.994 Q7.16713 727.184 11.7736 724.129 Q16.3569 721.05 25.1068 721.05 Q33.8337 721.05 38.4401 724.129 Q43.0234 727.184 43.0234 732.994 Q43.0234 738.804 38.4401 741.883 Q33.8337 744.939 25.1068 744.939 Q16.3569 744.939 11.7736 741.883 Q7.16713 738.804 7.16713 732.994 Z" fill="#000000" fill-rule="nonzero" fill-opacity="1" /><path clip-path="url(#clip790)" d="M38.417 424.492 L38.417 416.853 L12.0514 416.853 L13.718 425.163 L9.45878 425.163 L7.79213 416.899 L7.79213 412.223 L38.417 412.223 L38.417 404.584 L42.3521 404.584 L42.3521 424.492 L38.417 424.492 Z" fill="#000000" fill-rule="nonzero" fill-opacity="1" /><path clip-path="url(#clip790)" d="M36.4725 395.14 L36.4725 390.256 L42.3521 390.256 L42.3521 395.14 L36.4725 395.14 Z" fill="#000000" fill-rule="nonzero" fill-opacity="1" /><path clip-path="url(#clip790)" d="M7.79213 380.024 L7.79213 361.668 L11.7273 361.668 L11.7273 375.742 L20.1995 375.742 Q19.8522 374.724 19.6902 373.705 Q19.505 372.686 19.505 371.668 Q19.505 365.881 22.6763 362.501 Q25.8476 359.122 31.2642 359.122 Q36.8429 359.122 39.9447 362.594 Q43.0234 366.066 43.0234 372.386 Q43.0234 374.561 42.6531 376.83 Q42.2827 379.075 41.5419 381.483 L36.8429 381.483 Q37.9771 379.399 38.5327 377.177 Q39.0883 374.955 39.0883 372.478 Q39.0883 368.474 36.9818 366.136 Q34.8753 363.798 31.2642 363.798 Q27.6531 363.798 25.5467 366.136 Q23.4402 368.474 23.4402 372.478 Q23.4402 374.353 23.8569 376.228 Q24.2735 378.08 25.1531 380.024 L7.79213 380.024 Z" fill="#000000" fill-rule="nonzero" fill-opacity="1" /><polyline clip-path="url(#clip792)" style="stroke:#009af9; stroke-linecap:round; stroke-linejoin:round; stroke-width:4; stroke-opacity:1; fill:none" points="1017.8,1478.77 1019.12,1478.71 1020.43,1478.65 1032.6,1477.7 1044.76,1475.8 1052.07,1473.88 1059.38,1471.1 1065.56,1467.85 1071.75,1463.55 1075.1,1460.67 1078.46,1457.36 1081.82,1453.56 1085.17,1449.22 1088.27,1444.69 1091.36,1439.62 1094.46,1433.96 1097.55,1427.65 1100.87,1420.13 1104.19,1411.78 1107.51,1402.53 1110.83,1392.34 1114.67,1379.3 1118.51,1364.89 1122.36,1349.06 1126.2,1331.78 1129.62,1315.2 1133.04,1297.48 1136.45,1278.64 1139.87,1258.73 1142.86,1240.43 1145.86,1221.4 1148.86,1201.69 1151.85,1181.39 1158.38,1135.48 1164.92,1088.19 1171.49,1040.5 1178.06,994.149 1179.88,981.781 1181.69,969.668 1183.51,957.843 1185.33,946.34 1187.14,935.192 1188.96,924.431 1190.77,914.09 1192.59,904.199 1194.32,895.233 1196.05,886.728 1197.78,878.707 1199.5,871.194 1201.23,864.209 1202.96,857.773 1204.69,851.905 1206.42,846.622 1208.21,841.766 1210.01,837.576 1211.81,834.064 1213.6,831.242 1215.4,829.12 1217.2,827.704 1219,826.998 1220.79,827.007 1222.31,827.566 1223.82,828.63 1225.33,830.195 1226.84,832.259 1228.36,834.816 1229.87,837.86 1231.38,841.384 1232.89,845.381 1234.74,850.887 1236.59,857.065 1238.43,863.894 1240.28,871.35 1242.13,879.41 1243.97,888.047 1245.82,897.232 1247.67,906.936 1251.05,925.96 1254.44,946.422 1256.13,957.127 1257.82,968.114 1259.51,979.354 1261.2,990.822 1267.45,1034.71 1273.7,1079.97 1280.03,1125.92 1286.36,1170.81 1289.91,1195.12 1293.46,1218.62 1297.01,1241.2 1300.56,1262.75 1303.77,1281.32 1306.98,1298.93 1310.2,1315.55 1313.41,1331.16 1317.1,1347.79 1320.78,1363.08 1324.46,1377.07 1328.14,1389.78 1331.55,1400.47 1334.95,1410.16 1338.36,1418.89 1341.77,1426.73 1345.13,1433.64 1348.49,1439.8 1351.85,1445.26 1355.21,1450.08 1358.47,1454.2 1361.73,1457.82 1364.99,1460.99 1368.26,1463.75 1374.95,1468.31 1381.63,1471.66 1388.96,1474.27 1396.29,1476.07 1406.93,1477.68 1417.58,1478.55 1419.76,1478.67 1421.95,1478.77 "/>
<polyline clip-path="url(#clip792)" style="stroke:#e26f46; stroke-linecap:round; stroke-linejoin:round; stroke-width:4; stroke-opacity:1; fill:none" points="1125.06,1478.04 1125.68,1477.91 1126.29,1477.77 1132,1475.76 1137.71,1471.7 1141.14,1467.61 1144.57,1461.69 1147.47,1454.77 1150.37,1445.59 1151.95,1439.46 1153.52,1432.4 1155.1,1424.3 1156.67,1415.05 1158.12,1405.41 1159.58,1394.6 1161.03,1382.53 1162.48,1369.09 1164.04,1353.07 1165.59,1335.25 1167.15,1315.54 1168.71,1293.83 1170.51,1266.05 1172.31,1235.33 1174.12,1201.59 1175.92,1164.76 1177.53,1129.42 1179.13,1091.66 1180.73,1051.52 1182.33,1009.08 1183.74,970.075 1185.15,929.511 1186.55,887.518 1187.96,844.254 1191.02,746.399 1194.09,645.608 1197.17,543.975 1200.25,445.193 1201.11,418.834 1201.96,393.018 1202.81,367.816 1203.66,343.3 1204.52,319.54 1205.37,296.607 1206.22,274.566 1207.07,253.486 1207.88,234.379 1208.69,216.253 1209.51,199.159 1210.32,183.145 1211.13,168.259 1211.94,154.542 1212.75,142.036 1213.56,130.777 1214.4,120.428 1215.25,111.497 1216.09,104.012 1216.93,97.9986 1217.78,93.4753 1218.62,90.4573 1219.46,88.9544 1220.31,88.9715 1221.01,90.1644 1221.72,92.4316 1222.43,95.768 1223.14,100.166 1223.85,105.615 1224.56,112.102 1225.27,119.614 1225.98,128.131 1226.85,139.867 1227.72,153.033 1228.58,167.587 1229.45,183.479 1230.32,200.656 1231.18,219.063 1232.05,238.639 1232.92,259.321 1234.5,299.864 1236.09,343.474 1236.88,366.29 1237.68,389.705 1238.47,413.661 1239.27,438.1 1242.2,531.628 1245.13,628.094 1248.1,726.038 1251.07,821.703 1252.74,873.503 1254.4,923.598 1256.07,971.72 1257.73,1017.65 1259.24,1057.23 1260.75,1094.76 1262.26,1130.18 1263.76,1163.45 1265.49,1198.88 1267.22,1231.47 1268.95,1261.28 1270.67,1288.38 1272.27,1311.16 1273.87,1331.8 1275.47,1350.42 1277.07,1367.13 1278.64,1381.86 1280.22,1394.98 1281.8,1406.62 1283.37,1416.89 1284.9,1425.67 1286.44,1433.39 1287.97,1440.14 1289.5,1446.02 1292.64,1455.73 1295.77,1462.88 1299.21,1468.45 1302.65,1472.27 1307.64,1475.71 1312.64,1477.57 1313.66,1477.82 1314.69,1478.04 "/>
<polyline clip-path="url(#clip792)" style="stroke:#3da44d; stroke-linecap:round; stroke-linejoin:round; stroke-width:4; stroke-opacity:1; fill:none" points="983.696,1478.87 985.234,1478.81 986.771,1478.76 1000.99,1477.95 1015.21,1476.32 1023.75,1474.68 1032.3,1472.3 1039.52,1469.52 1046.74,1465.84 1050.67,1463.38 1054.59,1460.54 1058.51,1457.29 1062.44,1453.58 1066.06,1449.71 1069.67,1445.37 1073.29,1440.52 1076.91,1435.13 1080.79,1428.69 1084.66,1421.54 1088.54,1413.63 1092.42,1404.91 1096.91,1393.76 1101.41,1381.43 1105.9,1367.88 1110.39,1353.1 1114.39,1338.91 1118.38,1323.75 1122.37,1307.64 1126.36,1290.6 1129.87,1274.94 1133.37,1258.66 1136.87,1241.8 1140.37,1224.43 1148.01,1185.15 1155.64,1144.68 1163.32,1103.88 1171,1064.23 1173.13,1053.64 1175.25,1043.28 1177.37,1033.16 1179.49,1023.32 1181.62,1013.78 1183.74,1004.58 1185.86,995.728 1187.99,987.266 1190.01,979.595 1192.03,972.318 1194.05,965.456 1196.07,959.027 1198.09,953.051 1200.11,947.544 1202.13,942.524 1204.15,938.004 1206.25,933.849 1208.35,930.264 1210.45,927.259 1212.55,924.845 1214.65,923.029 1216.75,921.817 1218.85,921.214 1220.95,921.221 1222.72,921.7 1224.48,922.61 1226.25,923.949 1228.02,925.715 1229.79,927.902 1231.56,930.507 1233.32,933.522 1235.09,936.942 1237.25,941.653 1239.41,946.938 1241.57,952.781 1243.73,959.161 1245.88,966.057 1248.04,973.446 1250.2,981.305 1252.36,989.608 1256.31,1005.88 1260.27,1023.39 1262.25,1032.55 1264.22,1041.95 1266.2,1051.57 1268.18,1061.38 1275.48,1098.93 1282.79,1137.65 1290.19,1176.97 1297.59,1215.38 1301.73,1236.17 1305.88,1256.28 1310.03,1275.6 1314.17,1294.04 1317.93,1309.93 1321.69,1325 1325.45,1339.22 1329.2,1352.57 1333.5,1366.79 1337.81,1379.88 1342.11,1391.85 1346.41,1402.73 1350.39,1411.87 1354.38,1420.16 1358.36,1427.63 1362.34,1434.34 1366.27,1440.25 1370.2,1445.52 1374.12,1450.19 1378.05,1454.32 1381.86,1457.84 1385.68,1460.94 1389.49,1463.65 1393.3,1466.01 1401.12,1469.91 1408.94,1472.78 1417.5,1475.01 1426.06,1476.55 1438.51,1477.93 1450.95,1478.68 1453.5,1478.78 1456.05,1478.87 "/>
<polyline clip-path="url(#clip792)" style="stroke:#c271d2; stroke-linecap:round; stroke-linejoin:round; stroke-width:4; stroke-opacity:1; fill:none" points="1039.83,1478.69 1041,1478.63 1042.17,1478.55 1053.01,1477.49 1063.85,1475.35 1070.36,1473.2 1076.87,1470.08 1082.38,1466.44 1087.89,1461.6 1090.88,1458.38 1093.87,1454.66 1096.86,1450.39 1099.85,1445.52 1102.61,1440.45 1105.37,1434.75 1108.13,1428.4 1110.88,1421.32 1113.84,1412.88 1116.8,1403.5 1119.75,1393.12 1122.71,1381.69 1126.14,1367.06 1129.56,1350.88 1132.99,1333.11 1136.41,1313.72 1139.46,1295.11 1142.5,1275.22 1145.54,1254.08 1148.59,1231.74 1151.26,1211.2 1153.93,1189.84 1156.6,1167.72 1159.27,1144.94 1165.09,1093.41 1170.91,1040.33 1176.76,986.811 1182.62,934.792 1184.24,920.912 1185.85,907.317 1187.47,894.045 1189.09,881.135 1190.71,868.623 1192.33,856.546 1193.95,844.94 1195.56,833.839 1197.1,823.777 1198.64,814.232 1200.18,805.23 1201.72,796.797 1203.26,788.958 1204.8,781.735 1206.34,775.149 1207.88,769.22 1209.48,763.77 1211.09,759.067 1212.69,755.125 1214.29,751.959 1215.89,749.577 1217.49,747.987 1219.09,747.196 1220.69,747.205 1222.04,747.833 1223.39,749.027 1224.74,750.784 1226.08,753.1 1227.43,755.969 1228.78,759.386 1230.13,763.341 1231.48,767.827 1233.12,774.006 1234.77,780.94 1236.41,788.604 1238.06,796.973 1239.7,806.018 1241.35,815.711 1242.99,826.02 1244.64,836.912 1247.65,858.262 1250.67,881.227 1252.18,893.242 1253.68,905.572 1255.19,918.187 1256.7,931.057 1262.27,980.309 1267.84,1031.11 1273.48,1082.69 1279.12,1133.06 1282.28,1160.34 1285.44,1186.72 1288.6,1212.06 1291.76,1236.25 1294.63,1257.09 1297.49,1276.86 1300.36,1295.51 1303.22,1313.03 1306.5,1331.68 1309.78,1348.85 1313.06,1364.55 1316.34,1378.82 1319.37,1390.81 1322.41,1401.68 1325.45,1411.49 1328.48,1420.29 1331.48,1428.05 1334.47,1434.96 1337.47,1441.08 1340.46,1446.49 1343.37,1451.12 1346.27,1455.18 1349.18,1458.73 1352.09,1461.83 1358.04,1466.95 1364,1470.71 1370.53,1473.64 1377.06,1475.66 1386.55,1477.47 1396.03,1478.44 1397.98,1478.58 1399.92,1478.69 "/>
<polyline clip-path="url(#clip792)" style="stroke:#ac8d18; stroke-linecap:round; stroke-linejoin:round; stroke-width:4; stroke-opacity:1; fill:none" points="151.118,1479.3 158.076,1479.29 165.034,1479.27 229.372,1479.1 293.711,1478.73 332.376,1478.37 371.04,1477.85 403.731,1477.23 436.422,1476.42 454.177,1475.87 471.933,1475.25 489.688,1474.53 507.444,1473.71 523.813,1472.85 540.182,1471.9 556.551,1470.82 572.92,1469.63 590.469,1468.21 608.019,1466.63 625.568,1464.88 643.117,1462.96 663.45,1460.49 683.783,1457.77 704.115,1454.77 724.448,1451.5 742.517,1448.37 760.586,1445.02 778.656,1441.46 796.725,1437.69 812.57,1434.23 828.415,1430.64 844.26,1426.91 860.105,1423.07 894.656,1414.39 929.207,1405.45 963.963,1396.43 998.719,1387.67 1008.33,1385.33 1017.93,1383.04 1027.54,1380.8 1037.15,1378.63 1046.75,1376.52 1056.36,1374.49 1065.97,1372.53 1075.57,1370.66 1084.71,1368.97 1093.86,1367.36 1103,1365.84 1112.14,1364.42 1121.28,1363.1 1130.42,1361.88 1139.56,1360.77 1148.7,1359.78 1158.2,1358.86 1167.71,1358.07 1177.21,1357.4 1186.72,1356.87 1196.22,1356.47 1205.72,1356.2 1215.23,1356.07 1224.73,1356.07 1232.73,1356.17 1240.73,1356.37 1248.73,1356.67 1256.74,1357.06 1264.74,1357.54 1272.74,1358.12 1280.74,1358.79 1288.74,1359.54 1298.5,1360.58 1308.27,1361.75 1318.04,1363.04 1327.81,1364.45 1337.58,1365.97 1347.34,1367.61 1357.11,1369.34 1366.88,1371.18 1384.77,1374.78 1402.67,1378.64 1411.62,1380.67 1420.57,1382.75 1429.51,1384.87 1438.46,1387.04 1471.52,1395.34 1504.57,1403.89 1538.06,1412.58 1571.54,1421.07 1590.31,1425.67 1609.07,1430.11 1627.83,1434.38 1646.6,1438.45 1663.6,1441.97 1680.6,1445.3 1697.61,1448.44 1714.61,1451.39 1734.08,1454.53 1753.54,1457.42 1773.01,1460.07 1792.48,1462.47 1810.5,1464.49 1828.53,1466.32 1846.55,1467.98 1864.58,1469.46 1882.35,1470.77 1900.12,1471.93 1917.89,1472.96 1935.66,1473.87 1952.91,1474.65 1970.16,1475.34 1987.42,1475.94 2004.67,1476.46 2040.04,1477.32 2075.42,1477.95 2114.17,1478.45 2152.93,1478.79 2209.23,1479.09 2265.53,1479.26 2277.08,1479.28 2288.63,1479.3 "/>
<polyline clip-path="url(#clip792)" style="stroke:#00a9ad; stroke-linecap:round; stroke-linejoin:round; stroke-width:4; stroke-opacity:1; fill:none" points="696.693,1479.17 700.099,1479.15 703.505,1479.12 735.001,1478.76 766.496,1478.02 785.423,1477.28 804.35,1476.21 820.353,1474.95 836.356,1473.29 845.048,1472.18 853.739,1470.9 862.431,1469.43 871.123,1467.76 879.136,1466.01 887.149,1464.05 895.162,1461.86 903.175,1459.43 911.766,1456.52 920.357,1453.29 928.947,1449.72 937.538,1445.79 947.492,1440.75 957.445,1435.18 967.398,1429.07 977.352,1422.39 986.197,1415.99 995.042,1409.15 1003.89,1401.87 1012.73,1394.18 1020.49,1387.11 1028.25,1379.76 1036,1372.15 1043.76,1364.31 1060.67,1346.58 1077.59,1328.31 1094.6,1309.89 1111.61,1291.99 1116.32,1287.21 1121.02,1282.54 1125.72,1277.97 1130.42,1273.52 1135.13,1269.22 1139.83,1265.06 1144.53,1261.07 1149.24,1257.25 1153.71,1253.79 1158.19,1250.5 1162.66,1247.4 1167.13,1244.5 1171.61,1241.8 1176.08,1239.32 1180.56,1237.05 1185.03,1235.01 1189.69,1233.13 1194.34,1231.52 1198.99,1230.16 1203.64,1229.07 1208.3,1228.25 1212.95,1227.7 1217.6,1227.43 1222.25,1227.43 1226.17,1227.65 1230.09,1228.06 1234,1228.67 1237.92,1229.46 1241.83,1230.45 1245.75,1231.63 1249.67,1232.99 1253.58,1234.53 1258.37,1236.66 1263.15,1239.04 1267.93,1241.68 1272.71,1244.56 1277.49,1247.67 1282.27,1251.01 1287.05,1254.56 1291.84,1258.31 1300.6,1265.65 1309.36,1273.56 1313.74,1277.69 1318.12,1281.93 1322.5,1286.28 1326.88,1290.71 1343.06,1307.65 1359.24,1325.14 1375.63,1342.89 1392.02,1360.22 1401.21,1369.61 1410.39,1378.69 1419.58,1387.41 1428.76,1395.73 1437.09,1402.91 1445.41,1409.71 1453.73,1416.13 1462.06,1422.16 1471.59,1428.58 1481.12,1434.48 1490.65,1439.89 1500.18,1444.8 1509,1448.93 1517.82,1452.67 1526.65,1456.04 1535.47,1459.07 1544.17,1461.74 1552.87,1464.12 1561.57,1466.23 1570.27,1468.09 1578.71,1469.68 1587.16,1471.08 1595.6,1472.3 1604.05,1473.37 1621.37,1475.13 1638.68,1476.42 1657.65,1477.43 1676.63,1478.12 1704.19,1478.75 1731.75,1479.08 1737.4,1479.13 1743.06,1479.17 "/>
<polyline clip-path="url(#clip792)" style="stroke:#ed5d92; stroke-linecap:round; stroke-linejoin:round; stroke-width:4; stroke-opacity:1; fill:none" points="1045.29,1478.67 1046.42,1478.6 1047.56,1478.52 1058.07,1477.43 1068.58,1475.23 1074.9,1473.01 1081.21,1469.79 1086.55,1466.03 1091.89,1461.05 1094.79,1457.72 1097.69,1453.88 1100.59,1449.49 1103.5,1444.46 1106.17,1439.23 1108.84,1433.36 1111.52,1426.8 1114.19,1419.5 1117.06,1410.8 1119.92,1401.13 1122.79,1390.42 1125.66,1378.63 1128.98,1363.54 1132.3,1346.86 1135.62,1328.53 1138.94,1308.53 1141.9,1289.34 1144.85,1268.84 1147.8,1247.03 1150.75,1223.99 1153.34,1202.8 1155.93,1180.77 1158.52,1157.97 1161.1,1134.47 1166.75,1081.33 1172.39,1026.59 1178.07,971.398 1183.75,917.751 1185.32,903.436 1186.89,889.416 1188.46,875.729 1190.02,862.415 1191.59,849.512 1193.16,837.057 1194.73,825.087 1196.3,813.639 1197.8,803.262 1199.29,793.418 1200.78,784.135 1202.27,775.438 1203.77,767.353 1205.26,759.904 1206.75,753.112 1208.25,746.998 1209.8,741.378 1211.35,736.527 1212.91,732.463 1214.46,729.197 1216.01,726.74 1217.56,725.101 1219.12,724.285 1220.67,724.294 1221.97,724.942 1223.28,726.173 1224.59,727.985 1225.9,730.374 1227.2,733.333 1228.51,736.856 1229.82,740.935 1231.12,745.561 1232.72,751.934 1234.31,759.085 1235.91,766.989 1237.51,775.619 1239.1,784.948 1240.7,794.944 1242.29,805.576 1243.89,816.808 1246.81,838.826 1249.73,862.509 1251.2,874.9 1252.66,887.617 1254.12,900.627 1255.58,913.899 1260.98,964.692 1266.38,1017.08 1271.85,1070.27 1277.32,1122.23 1280.39,1150.36 1283.45,1177.56 1286.52,1203.7 1289.58,1228.64 1292.36,1250.13 1295.14,1270.52 1297.91,1289.76 1300.69,1307.82 1303.87,1327.06 1307.05,1344.76 1310.23,1360.95 1313.41,1375.67 1316.36,1388.04 1319.3,1399.25 1322.24,1409.36 1325.19,1418.44 1328.09,1426.44 1330.99,1433.56 1333.9,1439.88 1336.8,1445.46 1339.62,1450.23 1342.44,1454.42 1345.26,1458.09 1348.07,1461.28 1353.85,1466.56 1359.63,1470.44 1365.96,1473.46 1372.29,1475.54 1381.49,1477.4 1390.69,1478.41 1392.57,1478.55 1394.46,1478.67 "/>
<polyline clip-path="url(#clip792)" style="stroke:#c68125; stroke-linecap:round; stroke-linejoin:round; stroke-width:4; stroke-opacity:1; fill:none" points="1110.68,1478.22 1111.39,1478.11 1112.11,1477.99 1118.68,1476.24 1125.25,1472.71 1129.2,1469.17 1133.15,1464.02 1136.49,1458.02 1139.83,1450.04 1141.65,1444.72 1143.46,1438.59 1145.27,1431.56 1147.09,1423.53 1148.76,1415.16 1150.43,1405.77 1152.11,1395.28 1153.78,1383.62 1155.57,1369.7 1157.36,1354.23 1159.16,1337.12 1160.95,1318.26 1163.03,1294.14 1165.1,1267.47 1167.18,1238.17 1169.26,1206.19 1171.1,1175.51 1172.95,1142.71 1174.8,1107.85 1176.64,1071 1178.26,1037.14 1179.88,1001.91 1181.5,965.448 1183.12,927.88 1186.65,842.908 1190.18,755.388 1193.73,667.136 1197.28,581.36 1198.26,558.471 1199.24,536.054 1200.22,514.17 1201.21,492.882 1202.19,472.251 1203.17,452.336 1204.15,433.198 1205.13,414.893 1206.07,398.302 1207,382.562 1207.93,367.718 1208.87,353.813 1209.8,340.887 1210.73,328.976 1211.67,318.116 1212.6,308.34 1213.57,299.353 1214.54,291.598 1215.52,285.099 1216.49,279.877 1217.46,275.949 1218.43,273.329 1219.4,272.024 1220.37,272.039 1221.19,273.074 1222.01,275.043 1222.82,277.94 1223.64,281.759 1224.46,286.491 1225.27,292.124 1226.09,298.646 1226.91,306.043 1227.91,316.233 1228.91,327.666 1229.9,340.303 1230.9,354.103 1231.9,369.019 1232.9,385.002 1233.89,402.001 1234.89,419.96 1236.72,455.165 1238.55,493.033 1239.46,512.845 1240.38,533.177 1241.29,553.979 1242.21,575.201 1245.58,656.415 1248.96,740.18 1252.38,825.228 1255.8,908.299 1257.72,953.279 1259.64,996.778 1261.55,1038.56 1263.47,1078.45 1265.21,1112.81 1266.94,1145.4 1268.68,1176.16 1270.42,1205.05 1272.41,1235.81 1274.4,1264.11 1276.39,1290 1278.37,1313.54 1280.22,1333.31 1282.06,1351.24 1283.9,1367.4 1285.74,1381.91 1287.56,1394.71 1289.37,1406.1 1291.19,1416.21 1293,1425.12 1294.77,1432.75 1296.53,1439.45 1298.29,1445.31 1300.05,1450.42 1303.67,1458.85 1307.28,1465.05 1311.24,1469.89 1315.2,1473.21 1320.95,1476.2 1326.7,1477.81 1327.88,1478.03 1329.06,1478.22 "/>
<polyline clip-path="url(#clip792)" style="stroke:#00a98d; stroke-linecap:round; stroke-linejoin:round; stroke-width:4; stroke-opacity:1; fill:none" points="1099.29,1478.34 1100.07,1478.23 1100.86,1478.12 1108.12,1476.54 1115.38,1473.35 1119.74,1470.14 1124.1,1465.48 1127.79,1460.04 1131.48,1452.82 1133.48,1448 1135.48,1442.45 1137.49,1436.08 1139.49,1428.81 1141.34,1421.23 1143.18,1412.73 1145.03,1403.23 1146.88,1392.67 1148.86,1380.07 1150.84,1366.07 1152.82,1350.57 1154.8,1333.49 1157.09,1311.65 1159.39,1287.5 1161.68,1260.97 1163.98,1232.01 1166.01,1204.23 1168.05,1174.54 1170.09,1142.97 1172.13,1109.6 1173.92,1078.94 1175.71,1047.04 1177.49,1014.02 1179.28,980.006 1183.18,903.066 1187.08,823.817 1191,743.906 1194.92,666.236 1196.01,645.511 1197.09,625.212 1198.17,605.397 1199.26,586.121 1200.34,567.439 1201.42,549.407 1202.51,532.077 1203.59,515.502 1204.62,500.479 1205.66,486.227 1206.69,472.786 1207.72,460.195 1208.75,448.49 1209.78,437.705 1210.81,427.872 1211.84,419.019 1212.92,410.882 1213.99,403.86 1215.06,397.975 1216.13,393.247 1217.21,389.69 1218.28,387.317 1219.35,386.136 1220.42,386.149 1221.32,387.087 1222.23,388.87 1223.13,391.493 1224.03,394.951 1224.94,399.235 1225.84,404.336 1226.74,410.242 1227.64,416.939 1228.75,426.167 1229.85,436.519 1230.95,447.962 1232.05,460.457 1233.15,473.964 1234.26,488.436 1235.36,503.828 1236.46,520.09 1238.48,551.968 1240.5,586.257 1241.51,604.197 1242.52,622.607 1243.53,641.443 1244.54,660.659 1248.27,734.198 1252,810.046 1255.77,887.057 1259.55,962.276 1261.67,1003 1263.79,1042.39 1265.9,1080.23 1268.02,1116.34 1269.94,1147.46 1271.86,1176.97 1273.78,1204.82 1275.69,1230.98 1277.89,1258.84 1280.09,1284.46 1282.28,1307.9 1284.48,1329.21 1286.51,1347.12 1288.55,1363.35 1290.58,1377.99 1292.62,1391.13 1294.62,1402.71 1296.63,1413.03 1298.63,1422.18 1300.64,1430.26 1302.58,1437.16 1304.53,1443.23 1306.48,1448.53 1308.42,1453.16 1312.41,1460.8 1316.4,1466.41 1320.78,1470.79 1325.15,1473.8 1331.5,1476.5 1337.85,1477.96 1339.16,1478.16 1340.46,1478.34 "/>
<polyline clip-path="url(#clip792)" style="stroke:#8e971d; stroke-linecap:round; stroke-linejoin:round; stroke-width:4; stroke-opacity:1; fill:none" points="661.918,1479.19 665.551,1479.16 669.184,1479.14 702.772,1478.8 736.361,1478.11 756.546,1477.41 776.732,1476.41 793.798,1475.23 810.864,1473.67 820.134,1472.63 829.403,1471.43 838.673,1470.05 847.942,1468.48 856.488,1466.84 865.034,1465.01 873.579,1462.95 882.125,1460.67 891.287,1457.95 900.448,1454.92 909.61,1451.57 918.772,1447.88 929.387,1443.16 940.002,1437.94 950.617,1432.21 961.232,1425.95 970.665,1419.94 980.098,1413.53 989.531,1406.71 998.965,1399.49 1007.24,1392.87 1015.51,1385.97 1023.78,1378.84 1032.05,1371.49 1050.09,1354.86 1068.13,1337.73 1086.27,1320.46 1104.42,1303.67 1109.43,1299.19 1114.45,1294.81 1119.46,1290.52 1124.48,1286.36 1129.49,1282.32 1134.51,1278.42 1139.53,1274.68 1144.54,1271.1 1149.31,1267.85 1154.08,1264.77 1158.86,1261.86 1163.63,1259.14 1168.4,1256.61 1173.17,1254.28 1177.94,1252.16 1182.72,1250.24 1187.68,1248.48 1192.64,1246.97 1197.6,1245.69 1202.56,1244.67 1207.53,1243.9 1212.49,1243.39 1217.45,1243.14 1222.41,1243.14 1226.59,1243.34 1230.76,1243.73 1234.94,1244.29 1239.12,1245.04 1243.29,1245.97 1247.47,1247.07 1251.65,1248.35 1255.82,1249.79 1260.92,1251.79 1266.02,1254.02 1271.12,1256.5 1276.22,1259.2 1281.32,1262.12 1286.42,1265.25 1291.52,1268.57 1296.62,1272.09 1305.96,1278.98 1315.3,1286.39 1319.98,1290.26 1324.65,1294.24 1329.32,1298.31 1333.99,1302.47 1351.25,1318.36 1368.5,1334.75 1385.99,1351.4 1403.47,1367.65 1413.26,1376.46 1423.06,1384.97 1432.85,1393.15 1442.65,1400.95 1451.53,1407.68 1460.4,1414.05 1469.28,1420.07 1478.16,1425.73 1488.32,1431.75 1498.48,1437.29 1508.64,1442.35 1518.81,1446.96 1528.22,1450.83 1537.63,1454.33 1547.04,1457.5 1556.45,1460.34 1565.72,1462.84 1575,1465.07 1584.28,1467.05 1593.56,1468.79 1602.56,1470.29 1611.57,1471.6 1620.58,1472.74 1629.59,1473.74 1648.05,1475.4 1666.52,1476.61 1686.75,1477.56 1706.99,1478.21 1736.38,1478.79 1765.77,1479.1 1771.8,1479.15 1777.83,1479.19 "/>
<path clip-path="url(#clip790)" d="M1966.84 666.61 L2277.23 666.61 L2277.23 96.3696 L1966.84 96.3696  Z" fill="#ffffff" fill-rule="evenodd" fill-opacity="1"/>
<polyline clip-path="url(#clip790)" style="stroke:#000000; stroke-linecap:round; stroke-linejoin:round; stroke-width:4; stroke-opacity:1; fill:none" points="1966.84,666.61 2277.23,666.61 2277.23,96.3696 1966.84,96.3696 1966.84,666.61 "/>
<polyline clip-path="url(#clip790)" style="stroke:#009af9; stroke-linecap:round; stroke-linejoin:round; stroke-width:4; stroke-opacity:1; fill:none" points="1992.01,148.21 2143.06,148.21 "/>
<path clip-path="url(#clip790)" d="M2182.08 167.897 Q2180.27 172.527 2178.56 173.939 Q2176.85 175.351 2173.98 175.351 L2170.57 175.351 L2170.57 171.786 L2173.07 171.786 Q2174.83 171.786 2175.81 170.952 Q2176.78 170.119 2177.96 167.017 L2178.72 165.073 L2168.24 139.564 L2172.75 139.564 L2180.85 159.841 L2188.95 139.564 L2193.47 139.564 L2182.08 167.897 Z" fill="#000000" fill-rule="nonzero" fill-opacity="1" /><path clip-path="url(#clip790)" d="M2200.76 161.554 L2208.4 161.554 L2208.4 135.189 L2200.09 136.855 L2200.09 132.596 L2208.35 130.93 L2213.03 130.93 L2213.03 161.554 L2220.67 161.554 L2220.67 165.49 L2200.76 165.49 L2200.76 161.554 Z" fill="#000000" fill-rule="nonzero" fill-opacity="1" /><polyline clip-path="url(#clip790)" style="stroke:#e26f46; stroke-linecap:round; stroke-linejoin:round; stroke-width:4; stroke-opacity:1; fill:none" points="1992.01,200.05 2143.06,200.05 "/>
<path clip-path="url(#clip790)" d="M2182.08 219.737 Q2180.27 224.367 2178.56 225.779 Q2176.85 227.191 2173.98 227.191 L2170.57 227.191 L2170.57 223.626 L2173.07 223.626 Q2174.83 223.626 2175.81 222.792 Q2176.78 221.959 2177.96 218.857 L2178.72 216.913 L2168.24 191.404 L2172.75 191.404 L2180.85 211.681 L2188.95 191.404 L2193.47 191.404 L2182.08 219.737 Z" fill="#000000" fill-rule="nonzero" fill-opacity="1" /><path clip-path="url(#clip790)" d="M2203.98 213.394 L2220.3 213.394 L2220.3 217.33 L2198.35 217.33 L2198.35 213.394 Q2201.01 210.64 2205.6 206.01 Q2210.2 201.357 2211.38 200.015 Q2213.63 197.492 2214.51 195.756 Q2215.41 193.996 2215.41 192.307 Q2215.41 189.552 2213.47 187.816 Q2211.55 186.08 2208.44 186.08 Q2206.25 186.08 2203.79 186.844 Q2201.36 187.607 2198.58 189.158 L2198.58 184.436 Q2201.41 183.302 2203.86 182.723 Q2206.31 182.145 2208.35 182.145 Q2213.72 182.145 2216.92 184.83 Q2220.11 187.515 2220.11 192.006 Q2220.11 194.135 2219.3 196.057 Q2218.51 197.955 2216.41 200.547 Q2215.83 201.219 2212.73 204.436 Q2209.62 207.631 2203.98 213.394 Z" fill="#000000" fill-rule="nonzero" fill-opacity="1" /><polyline clip-path="url(#clip790)" style="stroke:#3da44d; stroke-linecap:round; stroke-linejoin:round; stroke-width:4; stroke-opacity:1; fill:none" points="1992.01,251.89 2143.06,251.89 "/>
<path clip-path="url(#clip790)" d="M2182.08 271.577 Q2180.27 276.207 2178.56 277.619 Q2176.85 279.031 2173.98 279.031 L2170.57 279.031 L2170.57 275.466 L2173.07 275.466 Q2174.83 275.466 2175.81 274.632 Q2176.78 273.799 2177.96 270.697 L2178.72 268.753 L2168.24 243.244 L2172.75 243.244 L2180.85 263.521 L2188.95 243.244 L2193.47 243.244 L2182.08 271.577 Z" fill="#000000" fill-rule="nonzero" fill-opacity="1" /><path clip-path="url(#clip790)" d="M2214.12 250.535 Q2217.47 251.253 2219.35 253.521 Q2221.25 255.79 2221.25 259.123 Q2221.25 264.239 2217.73 267.04 Q2214.21 269.841 2207.73 269.841 Q2205.55 269.841 2203.24 269.401 Q2200.94 268.984 2198.49 268.128 L2198.49 263.614 Q2200.44 264.748 2202.75 265.327 Q2205.06 265.906 2207.59 265.906 Q2211.99 265.906 2214.28 264.17 Q2216.59 262.433 2216.59 259.123 Q2216.59 256.068 2214.44 254.355 Q2212.31 252.619 2208.49 252.619 L2204.46 252.619 L2204.46 248.776 L2208.68 248.776 Q2212.12 248.776 2213.95 247.41 Q2215.78 246.022 2215.78 243.429 Q2215.78 240.767 2213.88 239.355 Q2212.01 237.92 2208.49 237.92 Q2206.57 237.92 2204.37 238.336 Q2202.17 238.753 2199.53 239.633 L2199.53 235.466 Q2202.19 234.725 2204.51 234.355 Q2206.85 233.985 2208.91 233.985 Q2214.23 233.985 2217.33 236.415 Q2220.44 238.822 2220.44 242.943 Q2220.44 245.813 2218.79 247.804 Q2217.15 249.772 2214.12 250.535 Z" fill="#000000" fill-rule="nonzero" fill-opacity="1" /><polyline clip-path="url(#clip790)" style="stroke:#c271d2; stroke-linecap:round; stroke-linejoin:round; stroke-width:4; stroke-opacity:1; fill:none" points="1992.01,303.73 2143.06,303.73 "/>
<path clip-path="url(#clip790)" d="M2182.08 323.417 Q2180.27 328.047 2178.56 329.459 Q2176.85 330.871 2173.98 330.871 L2170.57 330.871 L2170.57 327.306 L2173.07 327.306 Q2174.83 327.306 2175.81 326.472 Q2176.78 325.639 2177.96 322.537 L2178.72 320.593 L2168.24 295.084 L2172.75 295.084 L2180.85 315.361 L2188.95 295.084 L2193.47 295.084 L2182.08 323.417 Z" fill="#000000" fill-rule="nonzero" fill-opacity="1" /><path clip-path="url(#clip790)" d="M2212.8 290.524 L2200.99 308.973 L2212.8 308.973 L2212.8 290.524 M2211.57 286.45 L2217.45 286.45 L2217.45 308.973 L2222.38 308.973 L2222.38 312.861 L2217.45 312.861 L2217.45 321.01 L2212.8 321.01 L2212.8 312.861 L2197.19 312.861 L2197.19 308.348 L2211.57 286.45 Z" fill="#000000" fill-rule="nonzero" fill-opacity="1" /><polyline clip-path="url(#clip790)" style="stroke:#ac8d18; stroke-linecap:round; stroke-linejoin:round; stroke-width:4; stroke-opacity:1; fill:none" points="1992.01,355.57 2143.06,355.57 "/>
<path clip-path="url(#clip790)" d="M2182.08 375.257 Q2180.27 379.887 2178.56 381.299 Q2176.85 382.711 2173.98 382.711 L2170.57 382.711 L2170.57 379.146 L2173.07 379.146 Q2174.83 379.146 2175.81 378.312 Q2176.78 377.479 2177.96 374.377 L2178.72 372.433 L2168.24 346.924 L2172.75 346.924 L2180.85 367.201 L2188.95 346.924 L2193.47 346.924 L2182.08 375.257 Z" fill="#000000" fill-rule="nonzero" fill-opacity="1" /><path clip-path="url(#clip790)" d="M2200 338.29 L2218.35 338.29 L2218.35 342.225 L2204.28 342.225 L2204.28 350.697 Q2205.3 350.35 2206.31 350.188 Q2207.33 350.002 2208.35 350.002 Q2214.14 350.002 2217.52 353.174 Q2220.9 356.345 2220.9 361.762 Q2220.9 367.34 2217.43 370.442 Q2213.95 373.521 2207.63 373.521 Q2205.46 373.521 2203.19 373.15 Q2200.94 372.78 2198.54 372.039 L2198.54 367.34 Q2200.62 368.475 2202.84 369.03 Q2205.06 369.586 2207.54 369.586 Q2211.55 369.586 2213.88 367.479 Q2216.22 365.373 2216.22 361.762 Q2216.22 358.151 2213.88 356.044 Q2211.55 353.938 2207.54 353.938 Q2205.67 353.938 2203.79 354.354 Q2201.94 354.771 2200 355.651 L2200 338.29 Z" fill="#000000" fill-rule="nonzero" fill-opacity="1" /><polyline clip-path="url(#clip790)" style="stroke:#00a9ad; stroke-linecap:round; stroke-linejoin:round; stroke-width:4; stroke-opacity:1; fill:none" points="1992.01,407.41 2143.06,407.41 "/>
<path clip-path="url(#clip790)" d="M2182.08 427.097 Q2180.27 431.727 2178.56 433.139 Q2176.85 434.551 2173.98 434.551 L2170.57 434.551 L2170.57 430.986 L2173.07 430.986 Q2174.83 430.986 2175.81 430.152 Q2176.78 429.319 2177.96 426.217 L2178.72 424.273 L2168.24 398.764 L2172.75 398.764 L2180.85 419.041 L2188.95 398.764 L2193.47 398.764 L2182.08 427.097 Z" fill="#000000" fill-rule="nonzero" fill-opacity="1" /><path clip-path="url(#clip790)" d="M2210.53 405.546 Q2207.38 405.546 2205.53 407.699 Q2203.7 409.852 2203.7 413.602 Q2203.7 417.328 2205.53 419.504 Q2207.38 421.657 2210.53 421.657 Q2213.68 421.657 2215.5 419.504 Q2217.36 417.328 2217.36 413.602 Q2217.36 409.852 2215.5 407.699 Q2213.68 405.546 2210.53 405.546 M2219.81 390.893 L2219.81 395.153 Q2218.05 394.319 2216.25 393.88 Q2214.46 393.44 2212.7 393.44 Q2208.07 393.44 2205.62 396.565 Q2203.19 399.69 2202.84 406.009 Q2204.21 403.995 2206.27 402.93 Q2208.33 401.842 2210.81 401.842 Q2216.01 401.842 2219.02 405.014 Q2222.06 408.162 2222.06 413.602 Q2222.06 418.926 2218.91 422.143 Q2215.76 425.361 2210.53 425.361 Q2204.53 425.361 2201.36 420.778 Q2198.19 416.171 2198.19 407.444 Q2198.19 399.25 2202.08 394.389 Q2205.97 389.505 2212.52 389.505 Q2214.28 389.505 2216.06 389.852 Q2217.87 390.199 2219.81 390.893 Z" fill="#000000" fill-rule="nonzero" fill-opacity="1" /><polyline clip-path="url(#clip790)" style="stroke:#ed5d92; stroke-linecap:round; stroke-linejoin:round; stroke-width:4; stroke-opacity:1; fill:none" points="1992.01,459.25 2143.06,459.25 "/>
<path clip-path="url(#clip790)" d="M2182.08 478.937 Q2180.27 483.567 2178.56 484.979 Q2176.85 486.391 2173.98 486.391 L2170.57 486.391 L2170.57 482.826 L2173.07 482.826 Q2174.83 482.826 2175.81 481.992 Q2176.78 481.159 2177.96 478.057 L2178.72 476.113 L2168.24 450.604 L2172.75 450.604 L2180.85 470.881 L2188.95 450.604 L2193.47 450.604 L2182.08 478.937 Z" fill="#000000" fill-rule="nonzero" fill-opacity="1" /><path clip-path="url(#clip790)" d="M2198.77 441.97 L2220.99 441.97 L2220.99 443.96 L2208.44 476.53 L2203.56 476.53 L2215.37 445.905 L2198.77 445.905 L2198.77 441.97 Z" fill="#000000" fill-rule="nonzero" fill-opacity="1" /><polyline clip-path="url(#clip790)" style="stroke:#c68125; stroke-linecap:round; stroke-linejoin:round; stroke-width:4; stroke-opacity:1; fill:none" points="1992.01,511.09 2143.06,511.09 "/>
<path clip-path="url(#clip790)" d="M2182.08 530.777 Q2180.27 535.407 2178.56 536.819 Q2176.85 538.231 2173.98 538.231 L2170.57 538.231 L2170.57 534.666 L2173.07 534.666 Q2174.83 534.666 2175.81 533.832 Q2176.78 532.999 2177.96 529.897 L2178.72 527.953 L2168.24 502.444 L2172.75 502.444 L2180.85 522.721 L2188.95 502.444 L2193.47 502.444 L2182.08 530.777 Z" fill="#000000" fill-rule="nonzero" fill-opacity="1" /><path clip-path="url(#clip790)" d="M2209.95 511.958 Q2206.62 511.958 2204.69 513.74 Q2202.8 515.522 2202.8 518.647 Q2202.8 521.772 2204.69 523.555 Q2206.62 525.337 2209.95 525.337 Q2213.28 525.337 2215.2 523.555 Q2217.12 521.749 2217.12 518.647 Q2217.12 515.522 2215.2 513.74 Q2213.31 511.958 2209.95 511.958 M2205.27 509.967 Q2202.26 509.226 2200.57 507.166 Q2198.91 505.106 2198.91 502.143 Q2198.91 497.999 2201.85 495.592 Q2204.81 493.185 2209.95 493.185 Q2215.11 493.185 2218.05 495.592 Q2220.99 497.999 2220.99 502.143 Q2220.99 505.106 2219.3 507.166 Q2217.63 509.226 2214.65 509.967 Q2218.03 510.754 2219.9 513.046 Q2221.8 515.337 2221.8 518.647 Q2221.8 523.671 2218.72 526.356 Q2215.67 529.041 2209.95 529.041 Q2204.23 529.041 2201.15 526.356 Q2198.1 523.671 2198.1 518.647 Q2198.1 515.337 2200 513.046 Q2201.89 510.754 2205.27 509.967 M2203.56 502.583 Q2203.56 505.268 2205.23 506.772 Q2206.92 508.277 2209.95 508.277 Q2212.96 508.277 2214.65 506.772 Q2216.36 505.268 2216.36 502.583 Q2216.36 499.897 2214.65 498.393 Q2212.96 496.888 2209.95 496.888 Q2206.92 496.888 2205.23 498.393 Q2203.56 499.897 2203.56 502.583 Z" fill="#000000" fill-rule="nonzero" fill-opacity="1" /><polyline clip-path="url(#clip790)" style="stroke:#00a98d; stroke-linecap:round; stroke-linejoin:round; stroke-width:4; stroke-opacity:1; fill:none" points="1992.01,562.93 2143.06,562.93 "/>
<path clip-path="url(#clip790)" d="M2182.08 582.617 Q2180.27 587.247 2178.56 588.659 Q2176.85 590.071 2173.98 590.071 L2170.57 590.071 L2170.57 586.506 L2173.07 586.506 Q2174.83 586.506 2175.81 585.672 Q2176.78 584.839 2177.96 581.737 L2178.72 579.793 L2168.24 554.284 L2172.75 554.284 L2180.85 574.561 L2188.95 554.284 L2193.47 554.284 L2182.08 582.617 Z" fill="#000000" fill-rule="nonzero" fill-opacity="1" /><path clip-path="url(#clip790)" d="M2200.09 579.492 L2200.09 575.233 Q2201.85 576.066 2203.65 576.506 Q2205.46 576.946 2207.19 576.946 Q2211.82 576.946 2214.25 573.844 Q2216.71 570.719 2217.06 564.376 Q2215.71 566.367 2213.65 567.432 Q2211.59 568.497 2209.09 568.497 Q2203.91 568.497 2200.88 565.372 Q2197.87 562.224 2197.87 556.784 Q2197.87 551.46 2201.01 548.242 Q2204.16 545.025 2209.39 545.025 Q2215.39 545.025 2218.54 549.631 Q2221.71 554.214 2221.71 562.964 Q2221.71 571.136 2217.82 576.02 Q2213.95 580.881 2207.4 580.881 Q2205.64 580.881 2203.84 580.534 Q2202.03 580.186 2200.09 579.492 M2209.39 564.839 Q2212.54 564.839 2214.37 562.686 Q2216.22 560.534 2216.22 556.784 Q2216.22 553.057 2214.37 550.904 Q2212.54 548.728 2209.39 548.728 Q2206.25 548.728 2204.39 550.904 Q2202.56 553.057 2202.56 556.784 Q2202.56 560.534 2204.39 562.686 Q2206.25 564.839 2209.39 564.839 Z" fill="#000000" fill-rule="nonzero" fill-opacity="1" /><polyline clip-path="url(#clip790)" style="stroke:#8e971d; stroke-linecap:round; stroke-linejoin:round; stroke-width:4; stroke-opacity:1; fill:none" points="1992.01,614.77 2143.06,614.77 "/>
<path clip-path="url(#clip790)" d="M2182.08 634.457 Q2180.27 639.087 2178.56 640.499 Q2176.85 641.911 2173.98 641.911 L2170.57 641.911 L2170.57 638.346 L2173.07 638.346 Q2174.83 638.346 2175.81 637.512 Q2176.78 636.679 2177.96 633.577 L2178.72 631.633 L2168.24 606.124 L2172.75 606.124 L2180.85 626.401 L2188.95 606.124 L2193.47 606.124 L2182.08 634.457 Z" fill="#000000" fill-rule="nonzero" fill-opacity="1" /><path clip-path="url(#clip790)" d="M2200.76 628.114 L2208.4 628.114 L2208.4 601.749 L2200.09 603.415 L2200.09 599.156 L2208.35 597.49 L2213.03 597.49 L2213.03 628.114 L2220.67 628.114 L2220.67 632.05 L2200.76 632.05 L2200.76 628.114 Z" fill="#000000" fill-rule="nonzero" fill-opacity="1" /><path clip-path="url(#clip790)" d="M2240.11 600.568 Q2236.5 600.568 2234.67 604.133 Q2232.87 607.675 2232.87 614.804 Q2232.87 621.911 2234.67 625.476 Q2236.5 629.017 2240.11 629.017 Q2243.75 629.017 2245.55 625.476 Q2247.38 621.911 2247.38 614.804 Q2247.38 607.675 2245.55 604.133 Q2243.75 600.568 2240.11 600.568 M2240.11 596.865 Q2245.92 596.865 2248.98 601.471 Q2252.06 606.054 2252.06 614.804 Q2252.06 623.531 2248.98 628.138 Q2245.92 632.721 2240.11 632.721 Q2234.3 632.721 2231.22 628.138 Q2228.17 623.531 2228.17 614.804 Q2228.17 606.054 2231.22 601.471 Q2234.3 596.865 2240.11 596.865 Z" fill="#000000" fill-rule="nonzero" fill-opacity="1" /></svg>
