<?xml version="1.0" encoding="utf-8"?>
<svg xmlns="http://www.w3.org/2000/svg" xmlns:xlink="http://www.w3.org/1999/xlink" width="600" height="400" viewBox="0 0 2400 1600">
<defs>
  <clipPath id="clip500">
    <rect x="0" y="0" width="2400" height="1600"/>
  </clipPath>
</defs>
<path clip-path="url(#clip500)" d="M0 1600 L2400 1600 L2400 0 L0 0  Z" fill="#ffffff" fill-rule="evenodd" fill-opacity="1"/>
<defs>
  <clipPath id="clip501">
    <rect x="480" y="0" width="1681" height="1600"/>
  </clipPath>
</defs>
<path clip-path="url(#clip500)" d="M86.9921 1521.01 L2352.76 1521.01 L2352.76 47.2441 L86.9921 47.2441  Z" fill="#ffffff" fill-rule="evenodd" fill-opacity="1"/>
<defs>
  <clipPath id="clip502">
    <rect x="86" y="47" width="2267" height="1475"/>
  </clipPath>
</defs>
<polyline clip-path="url(#clip502)" style="stroke:#000000; stroke-linecap:round; stroke-linejoin:round; stroke-width:2; stroke-opacity:0.1; fill:none" points="86.9921,1521.01 86.9921,47.2441 "/>
<polyline clip-path="url(#clip502)" style="stroke:#000000; stroke-linecap:round; stroke-linejoin:round; stroke-width:2; stroke-opacity:0.1; fill:none" points="653.433,1521.01 653.433,47.2441 "/>
<polyline clip-path="url(#clip502)" style="stroke:#000000; stroke-linecap:round; stroke-linejoin:round; stroke-width:2; stroke-opacity:0.1; fill:none" points="1219.87,1521.01 1219.87,47.2441 "/>
<polyline clip-path="url(#clip502)" style="stroke:#000000; stroke-linecap:round; stroke-linejoin:round; stroke-width:2; stroke-opacity:0.1; fill:none" points="1786.31,1521.01 1786.31,47.2441 "/>
<polyline clip-path="url(#clip502)" style="stroke:#000000; stroke-linecap:round; stroke-linejoin:round; stroke-width:2; stroke-opacity:0.1; fill:none" points="2352.76,1521.01 2352.76,47.2441 "/>
<polyline clip-path="url(#clip500)" style="stroke:#000000; stroke-linecap:round; stroke-linejoin:round; stroke-width:4; stroke-opacity:1; fill:none" points="86.9921,1521.01 2352.76,1521.01 "/>
<polyline clip-path="url(#clip500)" style="stroke:#000000; stroke-linecap:round; stroke-linejoin:round; stroke-width:4; stroke-opacity:1; fill:none" points="86.9921,1521.01 86.9921,1502.11 "/>
<polyline clip-path="url(#clip500)" style="stroke:#000000; stroke-linecap:round; stroke-linejoin:round; stroke-width:4; stroke-opacity:1; fill:none" points="653.433,1521.01 653.433,1502.11 "/>
<polyline clip-path="url(#clip500)" style="stroke:#000000; stroke-linecap:round; stroke-linejoin:round; stroke-width:4; stroke-opacity:1; fill:none" points="1219.87,1521.01 1219.87,1502.11 "/>
<polyline clip-path="url(#clip500)" style="stroke:#000000; stroke-linecap:round; stroke-linejoin:round; stroke-width:4; stroke-opacity:1; fill:none" points="1786.31,1521.01 1786.31,1502.11 "/>
<polyline clip-path="url(#clip500)" style="stroke:#000000; stroke-linecap:round; stroke-linejoin:round; stroke-width:4; stroke-opacity:1; fill:none" points="2352.76,1521.01 2352.76,1502.11 "/>
<path clip-path="url(#clip500)" d="M86.9921 1551.93 Q83.381 1551.93 81.5523 1555.49 Q79.7468 1559.03 79.7468 1566.16 Q79.7468 1573.27 81.5523 1576.83 Q83.381 1580.38 86.9921 1580.38 Q90.6264 1580.38 92.4319 1576.83 Q94.2606 1573.27 94.2606 1566.16 Q94.2606 1559.03 92.4319 1555.49 Q90.6264 1551.93 86.9921 1551.93 M86.9921 1548.22 Q92.8023 1548.22 95.8578 1552.83 Q98.9365 1557.41 98.9365 1566.16 Q98.9365 1574.89 95.8578 1579.5 Q92.8023 1584.08 86.9921 1584.08 Q81.182 1584.08 78.1033 1579.5 Q75.0477 1574.89 75.0477 1566.16 Q75.0477 1557.41 78.1033 1552.83 Q81.182 1548.22 86.9921 1548.22 Z" fill="#000000" fill-rule="nonzero" fill-opacity="1" /><path clip-path="url(#clip500)" d="M643.815 1579.47 L651.454 1579.47 L651.454 1553.11 L643.144 1554.77 L643.144 1550.51 L651.408 1548.85 L656.084 1548.85 L656.084 1579.47 L663.722 1579.47 L663.722 1583.41 L643.815 1583.41 L643.815 1579.47 Z" fill="#000000" fill-rule="nonzero" fill-opacity="1" /><path clip-path="url(#clip500)" d="M1214.53 1579.47 L1230.85 1579.47 L1230.85 1583.41 L1208.9 1583.41 L1208.9 1579.47 Q1211.56 1576.72 1216.15 1572.09 Q1220.75 1567.44 1221.93 1566.09 Q1224.18 1563.57 1225.06 1561.83 Q1225.96 1560.07 1225.96 1558.38 Q1225.96 1555.63 1224.02 1553.89 Q1222.1 1552.16 1218.99 1552.16 Q1216.8 1552.16 1214.34 1552.92 Q1211.91 1553.69 1209.13 1555.24 L1209.13 1550.51 Q1211.96 1549.38 1214.41 1548.8 Q1216.86 1548.22 1218.9 1548.22 Q1224.27 1548.22 1227.47 1550.91 Q1230.66 1553.59 1230.66 1558.08 Q1230.66 1560.21 1229.85 1562.13 Q1229.06 1564.03 1226.96 1566.63 Q1226.38 1567.3 1223.28 1570.51 Q1220.17 1573.71 1214.53 1579.47 Z" fill="#000000" fill-rule="nonzero" fill-opacity="1" /><path clip-path="url(#clip500)" d="M1790.56 1564.77 Q1793.92 1565.49 1795.79 1567.76 Q1797.69 1570.03 1797.69 1573.36 Q1797.69 1578.48 1794.17 1581.28 Q1790.66 1584.08 1784.17 1584.08 Q1782 1584.08 1779.68 1583.64 Q1777.39 1583.22 1774.94 1582.37 L1774.94 1577.85 Q1776.88 1578.99 1779.2 1579.57 Q1781.51 1580.14 1784.03 1580.14 Q1788.43 1580.14 1790.72 1578.41 Q1793.04 1576.67 1793.04 1573.36 Q1793.04 1570.31 1790.89 1568.59 Q1788.76 1566.86 1784.94 1566.86 L1780.91 1566.86 L1780.91 1563.01 L1785.12 1563.01 Q1788.57 1563.01 1790.4 1561.65 Q1792.23 1560.26 1792.23 1557.67 Q1792.23 1555.01 1790.33 1553.59 Q1788.46 1552.16 1784.94 1552.16 Q1783.02 1552.16 1780.82 1552.57 Q1778.62 1552.99 1775.98 1553.87 L1775.98 1549.7 Q1778.64 1548.96 1780.96 1548.59 Q1783.29 1548.22 1785.35 1548.22 Q1790.68 1548.22 1793.78 1550.65 Q1796.88 1553.06 1796.88 1557.18 Q1796.88 1560.05 1795.24 1562.04 Q1793.6 1564.01 1790.56 1564.77 Z" fill="#000000" fill-rule="nonzero" fill-opacity="1" /><path clip-path="url(#clip500)" d="M2355.77 1552.92 L2343.96 1571.37 L2355.77 1571.37 L2355.77 1552.92 M2354.54 1548.85 L2360.42 1548.85 L2360.42 1571.37 L2365.35 1571.37 L2365.35 1575.26 L2360.42 1575.26 L2360.42 1583.41 L2355.77 1583.41 L2355.77 1575.26 L2340.16 1575.26 L2340.16 1570.75 L2354.54 1548.85 Z" fill="#000000" fill-rule="nonzero" fill-opacity="1" /><polyline clip-path="url(#clip502)" style="stroke:#000000; stroke-linecap:round; stroke-linejoin:round; stroke-width:2; stroke-opacity:0.1; fill:none" points="86.9921,1479.3 2352.76,1479.3 "/>
<polyline clip-path="url(#clip502)" style="stroke:#000000; stroke-linecap:round; stroke-linejoin:round; stroke-width:2; stroke-opacity:0.1; fill:none" points="86.9921,1184.44 2352.76,1184.44 "/>
<polyline clip-path="url(#clip502)" style="stroke:#000000; stroke-linecap:round; stroke-linejoin:round; stroke-width:2; stroke-opacity:0.1; fill:none" points="86.9921,889.584 2352.76,889.584 "/>
<polyline clip-path="url(#clip502)" style="stroke:#000000; stroke-linecap:round; stroke-linejoin:round; stroke-width:2; stroke-opacity:0.1; fill:none" points="86.9921,594.728 2352.76,594.728 "/>
<polyline clip-path="url(#clip502)" style="stroke:#000000; stroke-linecap:round; stroke-linejoin:round; stroke-width:2; stroke-opacity:0.1; fill:none" points="86.9921,299.871 2352.76,299.871 "/>
<polyline clip-path="url(#clip500)" style="stroke:#000000; stroke-linecap:round; stroke-linejoin:round; stroke-width:4; stroke-opacity:1; fill:none" points="86.9921,1521.01 86.9921,47.2441 "/>
<polyline clip-path="url(#clip500)" style="stroke:#000000; stroke-linecap:round; stroke-linejoin:round; stroke-width:4; stroke-opacity:1; fill:none" points="86.9921,1479.3 105.89,1479.3 "/>
<polyline clip-path="url(#clip500)" style="stroke:#000000; stroke-linecap:round; stroke-linejoin:round; stroke-width:4; stroke-opacity:1; fill:none" points="86.9921,1184.44 105.89,1184.44 "/>
<polyline clip-path="url(#clip500)" style="stroke:#000000; stroke-linecap:round; stroke-linejoin:round; stroke-width:4; stroke-opacity:1; fill:none" points="86.9921,889.584 105.89,889.584 "/>
<polyline clip-path="url(#clip500)" style="stroke:#000000; stroke-linecap:round; stroke-linejoin:round; stroke-width:4; stroke-opacity:1; fill:none" points="86.9921,594.728 105.89,594.728 "/>
<polyline clip-path="url(#clip500)" style="stroke:#000000; stroke-linecap:round; stroke-linejoin:round; stroke-width:4; stroke-opacity:1; fill:none" points="86.9921,299.871 105.89,299.871 "/>
<path clip-path="url(#clip500)" d="M10.8708 1501.91 Q10.8708 1505.52 14.4356 1507.35 Q17.9773 1509.16 25.1068 1509.16 Q32.2133 1509.16 35.7781 1507.35 Q39.3197 1505.52 39.3197 1501.91 Q39.3197 1498.28 35.7781 1496.47 Q32.2133 1494.64 25.1068 1494.64 Q17.9773 1494.64 14.4356 1496.47 Q10.8708 1498.28 10.8708 1501.91 M7.16713 1501.91 Q7.16713 1496.1 11.7736 1493.05 Q16.3569 1489.97 25.1068 1489.97 Q33.8337 1489.97 38.4401 1493.05 Q43.0234 1496.1 43.0234 1501.91 Q43.0234 1507.72 38.4401 1510.8 Q33.8337 1513.86 25.1068 1513.86 Q16.3569 1513.86 11.7736 1510.8 Q7.16713 1507.72 7.16713 1501.91 Z" fill="#000000" fill-rule="nonzero" fill-opacity="1" /><path clip-path="url(#clip500)" d="M36.4725 1481.75 L36.4725 1476.87 L42.3521 1476.87 L42.3521 1481.75 L36.4725 1481.75 Z" fill="#000000" fill-rule="nonzero" fill-opacity="1" /><path clip-path="url(#clip500)" d="M10.8708 1456.68 Q10.8708 1460.29 14.4356 1462.12 Q17.9773 1463.93 25.1068 1463.93 Q32.2133 1463.93 35.7781 1462.12 Q39.3197 1460.29 39.3197 1456.68 Q39.3197 1453.05 35.7781 1451.24 Q32.2133 1449.41 25.1068 1449.41 Q17.9773 1449.41 14.4356 1451.24 Q10.8708 1453.05 10.8708 1456.68 M7.16713 1456.68 Q7.16713 1450.87 11.7736 1447.82 Q16.3569 1444.74 25.1068 1444.74 Q33.8337 1444.74 38.4401 1447.82 Q43.0234 1450.87 43.0234 1456.68 Q43.0234 1462.49 38.4401 1465.57 Q33.8337 1468.63 25.1068 1468.63 Q16.3569 1468.63 11.7736 1465.57 Q7.16713 1462.49 7.16713 1456.68 Z" fill="#000000" fill-rule="nonzero" fill-opacity="1" /><path clip-path="url(#clip500)" d="M10.8708 1206.56 Q10.8708 1210.17 14.4356 1212 Q17.9773 1213.8 25.1068 1213.8 Q32.2133 1213.8 35.7781 1212 Q39.3197 1210.17 39.3197 1206.56 Q39.3197 1202.92 35.7781 1201.12 Q32.2133 1199.29 25.1068 1199.29 Q17.9773 1199.29 14.4356 1201.12 Q10.8708 1202.92 10.8708 1206.56 M7.16713 1206.56 Q7.16713 1200.75 11.7736 1197.69 Q16.3569 1194.61 25.1068 1194.61 Q33.8337 1194.61 38.4401 1197.69 Q43.0234 1200.75 43.0234 1206.56 Q43.0234 1212.37 38.4401 1215.45 Q33.8337 1218.5 25.1068 1218.5 Q16.3569 1218.5 11.7736 1215.45 Q7.16713 1212.37 7.16713 1206.56 Z" fill="#000000" fill-rule="nonzero" fill-opacity="1" /><path clip-path="url(#clip500)" d="M36.4725 1186.4 L36.4725 1181.51 L42.3521 1181.51 L42.3521 1186.4 L36.4725 1186.4 Z" fill="#000000" fill-rule="nonzero" fill-opacity="1" /><path clip-path="url(#clip500)" d="M7.79213 1171.28 L7.79213 1152.92 L11.7273 1152.92 L11.7273 1167 L20.1995 1167 Q19.8522 1165.98 19.6902 1164.96 Q19.505 1163.94 19.505 1162.92 Q19.505 1157.14 22.6763 1153.76 Q25.8476 1150.38 31.2642 1150.38 Q36.8429 1150.38 39.9447 1153.85 Q43.0234 1157.32 43.0234 1163.64 Q43.0234 1165.82 42.6531 1168.09 Q42.2827 1170.33 41.5419 1172.74 L36.8429 1172.74 Q37.9771 1170.66 38.5327 1168.43 Q39.0883 1166.21 39.0883 1163.74 Q39.0883 1159.73 36.9818 1157.39 Q34.8753 1155.05 31.2642 1155.05 Q27.6531 1155.05 25.5467 1157.39 Q23.4402 1159.73 23.4402 1163.74 Q23.4402 1165.61 23.8569 1167.49 Q24.2735 1169.34 25.1531 1171.28 L7.79213 1171.28 Z" fill="#000000" fill-rule="nonzero" fill-opacity="1" /><path clip-path="url(#clip500)" d="M38.417 922.431 L38.417 914.793 L12.0514 914.793 L13.718 923.103 L9.45878 923.103 L7.79213 914.839 L7.79213 910.163 L38.417 910.163 L38.417 902.524 L42.3521 902.524 L42.3521 922.431 L38.417 922.431 Z" fill="#000000" fill-rule="nonzero" fill-opacity="1" /><path clip-path="url(#clip500)" d="M36.4725 893.08 L36.4725 888.195 L42.3521 888.195 L42.3521 893.08 L36.4725 893.08 Z" fill="#000000" fill-rule="nonzero" fill-opacity="1" /><path clip-path="url(#clip500)" d="M10.8708 868.01 Q10.8708 871.622 14.4356 873.45 Q17.9773 875.256 25.1068 875.256 Q32.2133 875.256 35.7781 873.45 Q39.3197 871.622 39.3197 868.01 Q39.3197 864.376 35.7781 862.571 Q32.2133 860.742 25.1068 860.742 Q17.9773 860.742 14.4356 862.571 Q10.8708 864.376 10.8708 868.01 M7.16713 868.01 Q7.16713 862.2 11.7736 859.145 Q16.3569 856.066 25.1068 856.066 Q33.8337 856.066 38.4401 859.145 Q43.0234 862.2 43.0234 868.01 Q43.0234 873.821 38.4401 876.899 Q33.8337 879.955 25.1068 879.955 Q16.3569 879.955 11.7736 876.899 Q7.16713 873.821 7.16713 868.01 Z" fill="#000000" fill-rule="nonzero" fill-opacity="1" /><path clip-path="url(#clip500)" d="M38.417 627.077 L38.417 619.438 L12.0514 619.438 L13.718 627.748 L9.45878 627.748 L7.79213 619.485 L7.79213 614.809 L38.417 614.809 L38.417 607.17 L42.3521 607.17 L42.3521 627.077 L38.417 627.077 Z" fill="#000000" fill-rule="nonzero" fill-opacity="1" /><path clip-path="url(#clip500)" d="M36.4725 597.725 L36.4725 592.841 L42.3521 592.841 L42.3521 597.725 L36.4725 597.725 Z" fill="#000000" fill-rule="nonzero" fill-opacity="1" /><path clip-path="url(#clip500)" d="M7.79213 582.61 L7.79213 564.253 L11.7273 564.253 L11.7273 578.327 L20.1995 578.327 Q19.8522 577.309 19.6902 576.29 Q19.505 575.272 19.505 574.253 Q19.505 568.466 22.6763 565.087 Q25.8476 561.707 31.2642 561.707 Q36.8429 561.707 39.9447 565.179 Q43.0234 568.652 43.0234 574.971 Q43.0234 577.147 42.6531 579.415 Q42.2827 581.661 41.5419 584.068 L36.8429 584.068 Q37.9771 581.985 38.5327 579.763 Q39.0883 577.54 39.0883 575.064 Q39.0883 571.059 36.9818 568.721 Q34.8753 566.383 31.2642 566.383 Q27.6531 566.383 25.5467 568.721 Q23.4402 571.059 23.4402 575.064 Q23.4402 576.939 23.8569 578.814 Q24.2735 580.665 25.1531 582.61 L7.79213 582.61 Z" fill="#000000" fill-rule="nonzero" fill-opacity="1" /><path clip-path="url(#clip500)" d="M38.417 328.633 L38.417 312.313 L42.3521 312.313 L42.3521 334.258 L38.417 334.258 Q35.6623 331.596 31.0327 327.012 Q26.38 322.406 25.0374 321.225 Q22.5143 318.98 20.7782 318.1 Q19.0189 317.197 17.3291 317.197 Q14.5745 317.197 12.8384 319.142 Q11.1023 321.063 11.1023 324.165 Q11.1023 326.364 11.8662 328.818 Q12.6301 331.248 14.181 334.026 L9.45878 334.026 Q8.32453 331.202 7.74583 328.748 Q7.16713 326.295 7.16713 324.258 Q7.16713 318.887 9.8523 315.693 Q12.5375 312.498 17.0282 312.498 Q19.1578 312.498 21.0791 313.309 Q22.9772 314.096 25.5698 316.202 Q26.2411 316.781 29.4587 319.883 Q32.6531 322.984 38.417 328.633 Z" fill="#000000" fill-rule="nonzero" fill-opacity="1" /><path clip-path="url(#clip500)" d="M36.4725 302.498 L36.4725 297.614 L42.3521 297.614 L42.3521 302.498 L36.4725 302.498 Z" fill="#000000" fill-rule="nonzero" fill-opacity="1" /><path clip-path="url(#clip500)" d="M10.8708 277.429 Q10.8708 281.04 14.4356 282.869 Q17.9773 284.674 25.1068 284.674 Q32.2133 284.674 35.7781 282.869 Q39.3197 281.04 39.3197 277.429 Q39.3197 273.795 35.7781 271.989 Q32.2133 270.161 25.1068 270.161 Q17.9773 270.161 14.4356 271.989 Q10.8708 273.795 10.8708 277.429 M7.16713 277.429 Q7.16713 271.619 11.7736 268.563 Q16.3569 265.485 25.1068 265.485 Q33.8337 265.485 38.4401 268.563 Q43.0234 271.619 43.0234 277.429 Q43.0234 283.239 38.4401 286.318 Q33.8337 289.374 25.1068 289.374 Q16.3569 289.374 11.7736 286.318 Q7.16713 283.239 7.16713 277.429 Z" fill="#000000" fill-rule="nonzero" fill-opacity="1" /><polyline clip-path="url(#clip502)" style="stroke:#009af9; stroke-linecap:round; stroke-linejoin:round; stroke-width:4; stroke-opacity:1; fill:none" points="91.6159,1479.3 96.2396,1479.3 100.863,1479.3 105.487,1479.15 107.799,1478.59 110.111,1476.88 111.267,1475.23 112.423,1472.82 113.579,1469.46 114.735,1464.93 115.89,1459.05 117.046,1451.63 118.202,1442.52 119.358,1431.58 120.514,1418.71 121.67,1403.84 122.826,1386.95 123.982,1368.03 125.138,1347.12 126.294,1324.28 127.45,1299.59 128.606,1273.16 129.762,1245.12 130.918,1215.61 132.074,1184.78 133.229,1152.78 135.541,1085.96 137.853,1016.42 140.165,945.432 142.477,874.128 144.789,803.535 147.101,734.531 149.413,667.846 151.724,604.071 152.88,573.421 154.036,543.66 155.192,514.825 156.348,486.949 157.504,460.055 158.66,434.165 159.816,409.293 160.972,385.448 162.128,362.635 163.284,340.855 164.44,320.107 165.596,300.383 166.752,281.677 167.907,263.976 169.063,247.266 170.219,231.533 171.375,216.76 172.531,202.926 173.687,190.014 174.843,178 177.155,156.583 179.467,138.491 181.779,123.535 184.091,111.522 186.402,102.257 188.714,95.5515 191.026,91.2181 193.338,89.0769 195.65,88.9544 197.962,90.6849 200.274,94.1109 202.586,99.0831 204.897,105.461 207.209,113.112 209.521,121.912 211.833,131.747 214.145,142.507 216.457,154.093 221.08,179.378 225.704,206.938 230.328,236.207 234.952,266.709 245.64,339.842 256.328,413.812 267.016,486.243 277.705,555.689 288.393,621.337 299.081,682.794 309.77,739.94 320.458,792.832 331.146,841.631 341.834,886.561 352.523,927.876 363.211,965.84 373.899,1000.72 384.588,1032.76 395.276,1062.22 405.964,1089.3 416.652,1114.23 427.341,1137.19 438.029,1158.36 448.717,1177.9 459.405,1195.94 470.094,1212.63 480.782,1228.08 491.47,1242.39 502.159,1255.67 512.847,1268.01 523.535,1279.47 534.223,1290.15 555.6,1309.36 576.977,1326.11 598.353,1340.77 619.73,1353.64 641.106,1364.98 662.483,1375.02 683.859,1383.93 705.236,1391.87 726.612,1398.95 747.989,1405.3 790.742,1416.14 833.495,1424.97 876.248,1432.24 919.001,1438.27 1004.51,1447.58 1090.01,1454.28 1175.52,1459.22 1261.03,1462.95 1432.04,1468.04 1603.05,1471.22 1808.59,1473.64 2014.14,1475.18 2219.68,1476.21 2425.22,1476.92 2772.79,1477.7 3120.36,1478.18 3875.47,1478.71 4571.61,1478.94 5317.96,1479.07 6182.67,1479.15 6951.12,1479.19 7624.98,1479.22 8359.68,1479.24 9098.73,1479.25 9915.86,1479.26 10693.3,1479.27 11501.7,1479.27 12182.2,1479.28 13013,1479.28 13774.1,1479.28 14477,1479.29 15189,1479.29 15987,1479.29 16710.1,1479.29 17538,1479.29 18304.6,1479.29 19060.3,1479.29 19794,1479.29 20546.2,1479.29 21370.4,1479.29 22567.5,1479.29 22813.1,1479.29 "/>
<path clip-path="url(#clip500)" d="M1625.61 200.05 L2277.23 200.05 L2277.23 96.3696 L1625.61 96.3696  Z" fill="#ffffff" fill-rule="evenodd" fill-opacity="1"/>
<polyline clip-path="url(#clip500)" style="stroke:#000000; stroke-linecap:round; stroke-linejoin:round; stroke-width:4; stroke-opacity:1; fill:none" points="1625.61,200.05 2277.23,200.05 2277.23,96.3696 1625.61,96.3696 1625.61,200.05 "/>
<polyline clip-path="url(#clip500)" style="stroke:#009af9; stroke-linecap:round; stroke-linejoin:round; stroke-width:4; stroke-opacity:1; fill:none" points="1650.79,148.21 1801.84,148.21 "/>
<path clip-path="url(#clip500)" d="M1831.29 161.601 L1831.29 175.351 L1827.01 175.351 L1827.01 139.564 L1831.29 139.564 L1831.29 143.499 Q1832.64 141.184 1834.67 140.073 Q1836.73 138.939 1839.58 138.939 Q1844.3 138.939 1847.24 142.689 Q1850.21 146.439 1850.21 152.55 Q1850.21 158.661 1847.24 162.411 Q1844.3 166.161 1839.58 166.161 Q1836.73 166.161 1834.67 165.05 Q1832.64 163.915 1831.29 161.601 M1845.78 152.55 Q1845.78 147.851 1843.84 145.189 Q1841.92 142.504 1838.54 142.504 Q1835.16 142.504 1833.21 145.189 Q1831.29 147.851 1831.29 152.55 Q1831.29 157.249 1833.21 159.934 Q1835.16 162.596 1838.54 162.596 Q1841.92 162.596 1843.84 159.934 Q1845.78 157.249 1845.78 152.55 Z" fill="#000000" fill-rule="nonzero" fill-opacity="1" /><path clip-path="url(#clip500)" d="M1867.31 142.55 Q1863.89 142.55 1861.9 145.235 Q1859.9 147.897 1859.9 152.55 Q1859.9 157.203 1861.87 159.888 Q1863.86 162.55 1867.31 162.55 Q1870.71 162.55 1872.71 159.865 Q1874.7 157.179 1874.7 152.55 Q1874.7 147.943 1872.71 145.258 Q1870.71 142.55 1867.31 142.55 M1867.31 138.939 Q1872.87 138.939 1876.04 142.55 Q1879.21 146.161 1879.21 152.55 Q1879.21 158.916 1876.04 162.55 Q1872.87 166.161 1867.31 166.161 Q1861.73 166.161 1858.56 162.55 Q1855.41 158.916 1855.41 152.55 Q1855.41 146.161 1858.56 142.55 Q1861.73 138.939 1867.31 138.939 Z" fill="#000000" fill-rule="nonzero" fill-opacity="1" /><path clip-path="url(#clip500)" d="M1902.8 140.328 L1902.8 144.355 Q1900.99 143.429 1899.05 142.967 Q1897.1 142.504 1895.02 142.504 Q1891.85 142.504 1890.25 143.476 Q1888.68 144.448 1888.68 146.392 Q1888.68 147.874 1889.81 148.73 Q1890.95 149.564 1894.37 150.328 L1895.83 150.652 Q1900.37 151.624 1902.27 153.406 Q1904.19 155.166 1904.19 158.337 Q1904.19 161.948 1901.32 164.054 Q1898.47 166.161 1893.47 166.161 Q1891.39 166.161 1889.12 165.744 Q1886.87 165.351 1884.37 164.54 L1884.37 160.142 Q1886.73 161.369 1889.02 161.994 Q1891.32 162.596 1893.56 162.596 Q1896.57 162.596 1898.19 161.578 Q1899.81 160.536 1899.81 158.661 Q1899.81 156.925 1898.63 155.999 Q1897.47 155.073 1893.52 154.216 L1892.03 153.869 Q1888.08 153.036 1886.32 151.323 Q1884.56 149.587 1884.56 146.578 Q1884.56 142.92 1887.15 140.93 Q1889.74 138.939 1894.51 138.939 Q1896.87 138.939 1898.96 139.286 Q1901.04 139.633 1902.8 140.328 Z" fill="#000000" fill-rule="nonzero" fill-opacity="1" /><path clip-path="url(#clip500)" d="M1915.18 132.203 L1915.18 139.564 L1923.96 139.564 L1923.96 142.874 L1915.18 142.874 L1915.18 156.948 Q1915.18 160.119 1916.04 161.022 Q1916.92 161.925 1919.58 161.925 L1923.96 161.925 L1923.96 165.49 L1919.58 165.49 Q1914.65 165.49 1912.77 163.661 Q1910.9 161.809 1910.9 156.948 L1910.9 142.874 L1907.77 142.874 L1907.77 139.564 L1910.9 139.564 L1910.9 132.203 L1915.18 132.203 Z" fill="#000000" fill-rule="nonzero" fill-opacity="1" /><path clip-path="url(#clip500)" d="M1951.73 151.462 L1951.73 153.545 L1932.15 153.545 Q1932.43 157.943 1934.79 160.258 Q1937.17 162.55 1941.41 162.55 Q1943.86 162.55 1946.15 161.948 Q1948.47 161.346 1950.74 160.142 L1950.74 164.17 Q1948.45 165.142 1946.04 165.652 Q1943.63 166.161 1941.15 166.161 Q1934.95 166.161 1931.32 162.55 Q1927.71 158.939 1927.71 152.781 Q1927.71 146.416 1931.13 142.689 Q1934.58 138.939 1940.41 138.939 Q1945.64 138.939 1948.68 142.318 Q1951.73 145.675 1951.73 151.462 M1947.47 150.212 Q1947.43 146.717 1945.51 144.633 Q1943.61 142.55 1940.46 142.55 Q1936.89 142.55 1934.74 144.564 Q1932.61 146.578 1932.29 150.235 L1947.47 150.212 Z" fill="#000000" fill-rule="nonzero" fill-opacity="1" /><path clip-path="url(#clip500)" d="M1973.75 143.545 Q1973.03 143.129 1972.17 142.943 Q1971.34 142.735 1970.32 142.735 Q1966.71 142.735 1964.77 145.096 Q1962.84 147.434 1962.84 151.832 L1962.84 165.49 L1958.56 165.49 L1958.56 139.564 L1962.84 139.564 L1962.84 143.592 Q1964.19 141.23 1966.34 140.096 Q1968.49 138.939 1971.57 138.939 Q1972.01 138.939 1972.54 139.008 Q1973.08 139.055 1973.72 139.17 L1973.75 143.545 Z" fill="#000000" fill-rule="nonzero" fill-opacity="1" /><path clip-path="url(#clip500)" d="M1978.21 139.564 L1982.47 139.564 L1982.47 165.49 L1978.21 165.49 L1978.21 139.564 M1978.21 129.471 L1982.47 129.471 L1982.47 134.865 L1978.21 134.865 L1978.21 129.471 Z" fill="#000000" fill-rule="nonzero" fill-opacity="1" /><path clip-path="url(#clip500)" d="M2001.43 142.55 Q1998.01 142.55 1996.01 145.235 Q1994.02 147.897 1994.02 152.55 Q1994.02 157.203 1995.99 159.888 Q1997.98 162.55 2001.43 162.55 Q2004.83 162.55 2006.83 159.865 Q2008.82 157.179 2008.82 152.55 Q2008.82 147.943 2006.83 145.258 Q2004.83 142.55 2001.43 142.55 M2001.43 138.939 Q2006.99 138.939 2010.16 142.55 Q2013.33 146.161 2013.33 152.55 Q2013.33 158.916 2010.16 162.55 Q2006.99 166.161 2001.43 166.161 Q1995.85 166.161 1992.68 162.55 Q1989.53 158.916 1989.53 152.55 Q1989.53 146.161 1992.68 142.55 Q1995.85 138.939 2001.43 138.939 Z" fill="#000000" fill-rule="nonzero" fill-opacity="1" /><path clip-path="url(#clip500)" d="M2035.41 143.545 Q2034.7 143.129 2033.84 142.943 Q2033.01 142.735 2031.99 142.735 Q2028.38 142.735 2026.43 145.096 Q2024.51 147.434 2024.51 151.832 L2024.51 165.49 L2020.23 165.49 L2020.23 139.564 L2024.51 139.564 L2024.51 143.592 Q2025.85 141.23 2028.01 140.096 Q2030.16 138.939 2033.24 138.939 Q2033.68 138.939 2034.21 139.008 Q2034.74 139.055 2035.39 139.17 L2035.41 143.545 Z" fill="#000000" fill-rule="nonzero" fill-opacity="1" /><path clip-path="url(#clip500)" d="M2051.89 139.564 L2056.41 139.564 L2064.51 161.323 L2072.61 139.564 L2077.13 139.564 L2067.4 165.49 L2061.62 165.49 L2051.89 139.564 Z" fill="#000000" fill-rule="nonzero" fill-opacity="1" /><path clip-path="url(#clip500)" d="M2094.79 152.457 Q2089.63 152.457 2087.63 153.638 Q2085.64 154.818 2085.64 157.666 Q2085.64 159.934 2087.13 161.277 Q2088.63 162.596 2091.2 162.596 Q2094.74 162.596 2096.87 160.096 Q2099.02 157.573 2099.02 153.406 L2099.02 152.457 L2094.79 152.457 M2103.28 150.698 L2103.28 165.49 L2099.02 165.49 L2099.02 161.554 Q2097.57 163.915 2095.39 165.05 Q2093.21 166.161 2090.07 166.161 Q2086.08 166.161 2083.72 163.939 Q2081.38 161.693 2081.38 157.943 Q2081.38 153.568 2084.3 151.346 Q2087.24 149.124 2093.05 149.124 L2099.02 149.124 L2099.02 148.707 Q2099.02 145.767 2097.08 144.17 Q2095.16 142.55 2091.66 142.55 Q2089.44 142.55 2087.33 143.082 Q2085.23 143.615 2083.28 144.679 L2083.28 140.744 Q2085.62 139.842 2087.82 139.402 Q2090.02 138.939 2092.1 138.939 Q2097.73 138.939 2100.51 141.855 Q2103.28 144.772 2103.28 150.698 Z" fill="#000000" fill-rule="nonzero" fill-opacity="1" /><path clip-path="url(#clip500)" d="M2127.08 143.545 Q2126.36 143.129 2125.51 142.943 Q2124.67 142.735 2123.65 142.735 Q2120.04 142.735 2118.1 145.096 Q2116.18 147.434 2116.18 151.832 L2116.18 165.49 L2111.89 165.49 L2111.89 139.564 L2116.18 139.564 L2116.18 143.592 Q2117.52 141.23 2119.67 140.096 Q2121.82 138.939 2124.9 138.939 Q2125.34 138.939 2125.88 139.008 Q2126.41 139.055 2127.06 139.17 L2127.08 143.545 Z" fill="#000000" fill-rule="nonzero" fill-opacity="1" /><path clip-path="url(#clip500)" d="M2131.55 139.564 L2135.81 139.564 L2135.81 165.49 L2131.55 165.49 L2131.55 139.564 M2131.55 129.471 L2135.81 129.471 L2135.81 134.865 L2131.55 134.865 L2131.55 129.471 Z" fill="#000000" fill-rule="nonzero" fill-opacity="1" /><path clip-path="url(#clip500)" d="M2156.5 152.457 Q2151.34 152.457 2149.35 153.638 Q2147.36 154.818 2147.36 157.666 Q2147.36 159.934 2148.84 161.277 Q2150.34 162.596 2152.91 162.596 Q2156.45 162.596 2158.58 160.096 Q2160.74 157.573 2160.74 153.406 L2160.74 152.457 L2156.5 152.457 M2165 150.698 L2165 165.49 L2160.74 165.49 L2160.74 161.554 Q2159.28 163.915 2157.1 165.05 Q2154.93 166.161 2151.78 166.161 Q2147.8 166.161 2145.44 163.939 Q2143.1 161.693 2143.1 157.943 Q2143.1 153.568 2146.01 151.346 Q2148.95 149.124 2154.76 149.124 L2160.74 149.124 L2160.74 148.707 Q2160.74 145.767 2158.79 144.17 Q2156.87 142.55 2153.38 142.55 Q2151.15 142.55 2149.05 143.082 Q2146.94 143.615 2145 144.679 L2145 140.744 Q2147.33 139.842 2149.53 139.402 Q2151.73 138.939 2153.82 138.939 Q2159.44 138.939 2162.22 141.855 Q2165 144.772 2165 150.698 Z" fill="#000000" fill-rule="nonzero" fill-opacity="1" /><path clip-path="url(#clip500)" d="M2195.32 149.841 L2195.32 165.49 L2191.06 165.49 L2191.06 149.98 Q2191.06 146.3 2189.63 144.471 Q2188.19 142.642 2185.32 142.642 Q2181.87 142.642 2179.88 144.842 Q2177.89 147.041 2177.89 150.837 L2177.89 165.49 L2173.61 165.49 L2173.61 139.564 L2177.89 139.564 L2177.89 143.592 Q2179.42 141.254 2181.48 140.096 Q2183.56 138.939 2186.27 138.939 Q2190.74 138.939 2193.03 141.717 Q2195.32 144.471 2195.32 149.841 Z" fill="#000000" fill-rule="nonzero" fill-opacity="1" /><path clip-path="url(#clip500)" d="M2222.47 140.559 L2222.47 144.541 Q2220.67 143.545 2218.84 143.059 Q2217.03 142.55 2215.18 142.55 Q2211.04 142.55 2208.75 145.189 Q2206.45 147.804 2206.45 152.55 Q2206.45 157.295 2208.75 159.934 Q2211.04 162.55 2215.18 162.55 Q2217.03 162.55 2218.84 162.064 Q2220.67 161.554 2222.47 160.559 L2222.47 164.494 Q2220.69 165.328 2218.77 165.744 Q2216.87 166.161 2214.72 166.161 Q2208.86 166.161 2205.41 162.48 Q2201.96 158.8 2201.96 152.55 Q2201.96 146.207 2205.44 142.573 Q2208.93 138.939 2215 138.939 Q2216.96 138.939 2218.84 139.355 Q2220.71 139.749 2222.47 140.559 Z" fill="#000000" fill-rule="nonzero" fill-opacity="1" /><path clip-path="url(#clip500)" d="M2252.06 151.462 L2252.06 153.545 L2232.47 153.545 Q2232.75 157.943 2235.11 160.258 Q2237.5 162.55 2241.73 162.55 Q2244.18 162.55 2246.48 161.948 Q2248.79 161.346 2251.06 160.142 L2251.06 164.17 Q2248.77 165.142 2246.36 165.652 Q2243.95 166.161 2241.48 166.161 Q2235.27 166.161 2231.64 162.55 Q2228.03 158.939 2228.03 152.781 Q2228.03 146.416 2231.45 142.689 Q2234.9 138.939 2240.74 138.939 Q2245.97 138.939 2249 142.318 Q2252.06 145.675 2252.06 151.462 M2247.8 150.212 Q2247.75 146.717 2245.83 144.633 Q2243.93 142.55 2240.78 142.55 Q2237.22 142.55 2235.06 144.564 Q2232.94 146.578 2232.61 150.235 L2247.8 150.212 Z" fill="#000000" fill-rule="nonzero" fill-opacity="1" /></svg>
