<?xml version="1.0" encoding="utf-8"?>
<svg xmlns="http://www.w3.org/2000/svg" xmlns:xlink="http://www.w3.org/1999/xlink" width="600" height="400" viewBox="0 0 2400 1600">
<defs>
  <clipPath id="clip460">
    <rect x="0" y="0" width="2400" height="1600"/>
  </clipPath>
</defs>
<path clip-path="url(#clip460)" d="M0 1600 L2400 1600 L2400 0 L0 0  Z" fill="#ffffff" fill-rule="evenodd" fill-opacity="1"/>
<defs>
  <clipPath id="clip461">
    <rect x="480" y="0" width="1681" height="1600"/>
  </clipPath>
</defs>
<path clip-path="url(#clip460)" d="M86.9921 1521.01 L2352.76 1521.01 L2352.76 47.2441 L86.9921 47.2441  Z" fill="#ffffff" fill-rule="evenodd" fill-opacity="1"/>
<defs>
  <clipPath id="clip462">
    <rect x="86" y="47" width="2267" height="1475"/>
  </clipPath>
</defs>
<polyline clip-path="url(#clip462)" style="stroke:#000000; stroke-linecap:round; stroke-linejoin:round; stroke-width:2; stroke-opacity:0.1; fill:none" points="151.118,1521.01 151.118,47.2441 "/>
<polyline clip-path="url(#clip462)" style="stroke:#000000; stroke-linecap:round; stroke-linejoin:round; stroke-width:2; stroke-opacity:0.1; fill:none" points="752.15,1521.01 752.15,47.2441 "/>
<polyline clip-path="url(#clip462)" style="stroke:#000000; stroke-linecap:round; stroke-linejoin:round; stroke-width:2; stroke-opacity:0.1; fill:none" points="1353.18,1521.01 1353.18,47.2441 "/>
<polyline clip-path="url(#clip462)" style="stroke:#000000; stroke-linecap:round; stroke-linejoin:round; stroke-width:2; stroke-opacity:0.1; fill:none" points="1954.22,1521.01 1954.22,47.2441 "/>
<polyline clip-path="url(#clip460)" style="stroke:#000000; stroke-linecap:round; stroke-linejoin:round; stroke-width:4; stroke-opacity:1; fill:none" points="86.9921,1521.01 2352.76,1521.01 "/>
<polyline clip-path="url(#clip460)" style="stroke:#000000; stroke-linecap:round; stroke-linejoin:round; stroke-width:4; stroke-opacity:1; fill:none" points="151.118,1521.01 151.118,1502.11 "/>
<polyline clip-path="url(#clip460)" style="stroke:#000000; stroke-linecap:round; stroke-linejoin:round; stroke-width:4; stroke-opacity:1; fill:none" points="752.15,1521.01 752.15,1502.11 "/>
<polyline clip-path="url(#clip460)" style="stroke:#000000; stroke-linecap:round; stroke-linejoin:round; stroke-width:4; stroke-opacity:1; fill:none" points="1353.18,1521.01 1353.18,1502.11 "/>
<polyline clip-path="url(#clip460)" style="stroke:#000000; stroke-linecap:round; stroke-linejoin:round; stroke-width:4; stroke-opacity:1; fill:none" points="1954.22,1521.01 1954.22,1502.11 "/>
<path clip-path="url(#clip460)" d="M151.118 1551.93 Q147.506 1551.93 145.678 1555.49 Q143.872 1559.03 143.872 1566.16 Q143.872 1573.27 145.678 1576.83 Q147.506 1580.38 151.118 1580.38 Q154.752 1580.38 156.557 1576.83 Q158.386 1573.27 158.386 1566.16 Q158.386 1559.03 156.557 1555.49 Q154.752 1551.93 151.118 1551.93 M151.118 1548.22 Q156.928 1548.22 159.983 1552.83 Q163.062 1557.41 163.062 1566.16 Q163.062 1574.89 159.983 1579.5 Q156.928 1584.08 151.118 1584.08 Q145.307 1584.08 142.229 1579.5 Q139.173 1574.89 139.173 1566.16 Q139.173 1557.41 142.229 1552.83 Q145.307 1548.22 151.118 1548.22 Z" fill="#000000" fill-rule="nonzero" fill-opacity="1" /><path clip-path="url(#clip460)" d="M726.838 1579.47 L734.477 1579.47 L734.477 1553.11 L726.166 1554.77 L726.166 1550.51 L734.43 1548.85 L739.106 1548.85 L739.106 1579.47 L746.745 1579.47 L746.745 1583.41 L726.838 1583.41 L726.838 1579.47 Z" fill="#000000" fill-rule="nonzero" fill-opacity="1" /><path clip-path="url(#clip460)" d="M766.189 1551.93 Q762.578 1551.93 760.75 1555.49 Q758.944 1559.03 758.944 1566.16 Q758.944 1573.27 760.75 1576.83 Q762.578 1580.38 766.189 1580.38 Q769.824 1580.38 771.629 1576.83 Q773.458 1573.27 773.458 1566.16 Q773.458 1559.03 771.629 1555.49 Q769.824 1551.93 766.189 1551.93 M766.189 1548.22 Q771.999 1548.22 775.055 1552.83 Q778.134 1557.41 778.134 1566.16 Q778.134 1574.89 775.055 1579.5 Q771.999 1584.08 766.189 1584.08 Q760.379 1584.08 757.301 1579.5 Q754.245 1574.89 754.245 1566.16 Q754.245 1557.41 757.301 1552.83 Q760.379 1548.22 766.189 1548.22 Z" fill="#000000" fill-rule="nonzero" fill-opacity="1" /><path clip-path="url(#clip460)" d="M1331.96 1579.47 L1348.28 1579.47 L1348.28 1583.41 L1326.33 1583.41 L1326.33 1579.47 Q1328.99 1576.72 1333.58 1572.09 Q1338.18 1567.44 1339.36 1566.09 Q1341.61 1563.57 1342.49 1561.83 Q1343.39 1560.07 1343.39 1558.38 Q1343.39 1555.63 1341.45 1553.89 Q1339.53 1552.16 1336.42 1552.16 Q1334.22 1552.16 1331.77 1552.92 Q1329.34 1553.69 1326.56 1555.24 L1326.56 1550.51 Q1329.39 1549.38 1331.84 1548.8 Q1334.29 1548.22 1336.33 1548.22 Q1341.7 1548.22 1344.9 1550.91 Q1348.09 1553.59 1348.09 1558.08 Q1348.09 1560.21 1347.28 1562.13 Q1346.49 1564.03 1344.39 1566.63 Q1343.81 1567.3 1340.71 1570.51 Q1337.6 1573.71 1331.96 1579.47 Z" fill="#000000" fill-rule="nonzero" fill-opacity="1" /><path clip-path="url(#clip460)" d="M1368.09 1551.93 Q1364.48 1551.93 1362.65 1555.49 Q1360.84 1559.03 1360.84 1566.16 Q1360.84 1573.27 1362.65 1576.83 Q1364.48 1580.38 1368.09 1580.38 Q1371.72 1580.38 1373.53 1576.83 Q1375.36 1573.27 1375.36 1566.16 Q1375.36 1559.03 1373.53 1555.49 Q1371.72 1551.93 1368.09 1551.93 M1368.09 1548.22 Q1373.9 1548.22 1376.96 1552.83 Q1380.03 1557.41 1380.03 1566.16 Q1380.03 1574.89 1376.96 1579.5 Q1373.9 1584.08 1368.09 1584.08 Q1362.28 1584.08 1359.2 1579.5 Q1356.15 1574.89 1356.15 1566.16 Q1356.15 1557.41 1359.2 1552.83 Q1362.28 1548.22 1368.09 1548.22 Z" fill="#000000" fill-rule="nonzero" fill-opacity="1" /><path clip-path="url(#clip460)" d="M1943.06 1564.77 Q1946.41 1565.49 1948.29 1567.76 Q1950.19 1570.03 1950.19 1573.36 Q1950.19 1578.48 1946.67 1581.28 Q1943.15 1584.08 1936.67 1584.08 Q1934.49 1584.08 1932.18 1583.64 Q1929.89 1583.22 1927.43 1582.37 L1927.43 1577.85 Q1929.38 1578.99 1931.69 1579.57 Q1934.01 1580.14 1936.53 1580.14 Q1940.93 1580.14 1943.22 1578.41 Q1945.53 1576.67 1945.53 1573.36 Q1945.53 1570.31 1943.38 1568.59 Q1941.25 1566.86 1937.43 1566.86 L1933.41 1566.86 L1933.41 1563.01 L1937.62 1563.01 Q1941.07 1563.01 1942.9 1561.65 Q1944.72 1560.26 1944.72 1557.67 Q1944.72 1555.01 1942.83 1553.59 Q1940.95 1552.16 1937.43 1552.16 Q1935.51 1552.16 1933.31 1552.57 Q1931.11 1552.99 1928.47 1553.87 L1928.47 1549.7 Q1931.14 1548.96 1933.45 1548.59 Q1935.79 1548.22 1937.85 1548.22 Q1943.17 1548.22 1946.28 1550.65 Q1949.38 1553.06 1949.38 1557.18 Q1949.38 1560.05 1947.73 1562.04 Q1946.09 1564.01 1943.06 1564.77 Z" fill="#000000" fill-rule="nonzero" fill-opacity="1" /><path clip-path="url(#clip460)" d="M1969.05 1551.93 Q1965.44 1551.93 1963.61 1555.49 Q1961.81 1559.03 1961.81 1566.16 Q1961.81 1573.27 1963.61 1576.83 Q1965.44 1580.38 1969.05 1580.38 Q1972.69 1580.38 1974.49 1576.83 Q1976.32 1573.27 1976.32 1566.16 Q1976.32 1559.03 1974.49 1555.49 Q1972.69 1551.93 1969.05 1551.93 M1969.05 1548.22 Q1974.86 1548.22 1977.92 1552.83 Q1981 1557.41 1981 1566.16 Q1981 1574.89 1977.92 1579.5 Q1974.86 1584.08 1969.05 1584.08 Q1963.24 1584.08 1960.16 1579.5 Q1957.11 1574.89 1957.11 1566.16 Q1957.11 1557.41 1960.16 1552.83 Q1963.24 1548.22 1969.05 1548.22 Z" fill="#000000" fill-rule="nonzero" fill-opacity="1" /><polyline clip-path="url(#clip462)" style="stroke:#000000; stroke-linecap:round; stroke-linejoin:round; stroke-width:2; stroke-opacity:0.1; fill:none" points="86.9921,1479.3 2352.76,1479.3 "/>
<polyline clip-path="url(#clip462)" style="stroke:#000000; stroke-linecap:round; stroke-linejoin:round; stroke-width:2; stroke-opacity:0.1; fill:none" points="86.9921,1123.45 2352.76,1123.45 "/>
<polyline clip-path="url(#clip462)" style="stroke:#000000; stroke-linecap:round; stroke-linejoin:round; stroke-width:2; stroke-opacity:0.1; fill:none" points="86.9921,767.604 2352.76,767.604 "/>
<polyline clip-path="url(#clip462)" style="stroke:#000000; stroke-linecap:round; stroke-linejoin:round; stroke-width:2; stroke-opacity:0.1; fill:none" points="86.9921,411.758 2352.76,411.758 "/>
<polyline clip-path="url(#clip462)" style="stroke:#000000; stroke-linecap:round; stroke-linejoin:round; stroke-width:2; stroke-opacity:0.1; fill:none" points="86.9921,55.9113 2352.76,55.9113 "/>
<polyline clip-path="url(#clip460)" style="stroke:#000000; stroke-linecap:round; stroke-linejoin:round; stroke-width:4; stroke-opacity:1; fill:none" points="86.9921,1521.01 86.9921,47.2441 "/>
<polyline clip-path="url(#clip460)" style="stroke:#000000; stroke-linecap:round; stroke-linejoin:round; stroke-width:4; stroke-opacity:1; fill:none" points="86.9921,1479.3 105.89,1479.3 "/>
<polyline clip-path="url(#clip460)" style="stroke:#000000; stroke-linecap:round; stroke-linejoin:round; stroke-width:4; stroke-opacity:1; fill:none" points="86.9921,1123.45 105.89,1123.45 "/>
<polyline clip-path="url(#clip460)" style="stroke:#000000; stroke-linecap:round; stroke-linejoin:round; stroke-width:4; stroke-opacity:1; fill:none" points="86.9921,767.604 105.89,767.604 "/>
<polyline clip-path="url(#clip460)" style="stroke:#000000; stroke-linecap:round; stroke-linejoin:round; stroke-width:4; stroke-opacity:1; fill:none" points="86.9921,411.758 105.89,411.758 "/>
<polyline clip-path="url(#clip460)" style="stroke:#000000; stroke-linecap:round; stroke-linejoin:round; stroke-width:4; stroke-opacity:1; fill:none" points="86.9921,55.9113 105.89,55.9113 "/>
<path clip-path="url(#clip460)" d="M10.8708 1532.08 Q10.8708 1535.69 14.4356 1537.51 Q17.9773 1539.32 25.1068 1539.32 Q32.2133 1539.32 35.7781 1537.51 Q39.3197 1535.69 39.3197 1532.08 Q39.3197 1528.44 35.7781 1526.64 Q32.2133 1524.81 25.1068 1524.81 Q17.9773 1524.81 14.4356 1526.64 Q10.8708 1528.44 10.8708 1532.08 M7.16713 1532.08 Q7.16713 1526.26 11.7736 1523.21 Q16.3569 1520.13 25.1068 1520.13 Q33.8337 1520.13 38.4401 1523.21 Q43.0234 1526.26 43.0234 1532.08 Q43.0234 1537.89 38.4401 1540.96 Q33.8337 1544.02 25.1068 1544.02 Q16.3569 1544.02 11.7736 1540.96 Q7.16713 1537.89 7.16713 1532.08 Z" fill="#000000" fill-rule="nonzero" fill-opacity="1" /><path clip-path="url(#clip460)" d="M36.4725 1511.91 L36.4725 1507.03 L42.3521 1507.03 L42.3521 1511.91 L36.4725 1511.91 Z" fill="#000000" fill-rule="nonzero" fill-opacity="1" /><path clip-path="url(#clip460)" d="M10.8708 1486.84 Q10.8708 1490.45 14.4356 1492.28 Q17.9773 1494.09 25.1068 1494.09 Q32.2133 1494.09 35.7781 1492.28 Q39.3197 1490.45 39.3197 1486.84 Q39.3197 1483.21 35.7781 1481.4 Q32.2133 1479.58 25.1068 1479.58 Q17.9773 1479.58 14.4356 1481.4 Q10.8708 1483.21 10.8708 1486.84 M7.16713 1486.84 Q7.16713 1481.03 11.7736 1477.98 Q16.3569 1474.9 25.1068 1474.9 Q33.8337 1474.9 38.4401 1477.98 Q43.0234 1481.03 43.0234 1486.84 Q43.0234 1492.65 38.4401 1495.73 Q33.8337 1498.79 25.1068 1498.79 Q16.3569 1498.79 11.7736 1495.73 Q7.16713 1492.65 7.16713 1486.84 Z" fill="#000000" fill-rule="nonzero" fill-opacity="1" /><path clip-path="url(#clip460)" d="M10.8708 1456.68 Q10.8708 1460.29 14.4356 1462.12 Q17.9773 1463.93 25.1068 1463.93 Q32.2133 1463.93 35.7781 1462.12 Q39.3197 1460.29 39.3197 1456.68 Q39.3197 1453.05 35.7781 1451.24 Q32.2133 1449.41 25.1068 1449.41 Q17.9773 1449.41 14.4356 1451.24 Q10.8708 1453.05 10.8708 1456.68 M7.16713 1456.68 Q7.16713 1450.87 11.7736 1447.82 Q16.3569 1444.74 25.1068 1444.74 Q33.8337 1444.74 38.4401 1447.82 Q43.0234 1450.87 43.0234 1456.68 Q43.0234 1462.49 38.4401 1465.57 Q33.8337 1468.63 25.1068 1468.63 Q16.3569 1468.63 11.7736 1465.57 Q7.16713 1462.49 7.16713 1456.68 Z" fill="#000000" fill-rule="nonzero" fill-opacity="1" /><path clip-path="url(#clip460)" d="M10.8708 1426.52 Q10.8708 1430.13 14.4356 1431.96 Q17.9773 1433.77 25.1068 1433.77 Q32.2133 1433.77 35.7781 1431.96 Q39.3197 1430.13 39.3197 1426.52 Q39.3197 1422.89 35.7781 1421.08 Q32.2133 1419.25 25.1068 1419.25 Q17.9773 1419.25 14.4356 1421.08 Q10.8708 1422.89 10.8708 1426.52 M7.16713 1426.52 Q7.16713 1420.71 11.7736 1417.65 Q16.3569 1414.58 25.1068 1414.58 Q33.8337 1414.58 38.4401 1417.65 Q43.0234 1420.71 43.0234 1426.52 Q43.0234 1432.33 38.4401 1435.41 Q33.8337 1438.46 25.1068 1438.46 Q16.3569 1438.46 11.7736 1435.41 Q7.16713 1432.33 7.16713 1426.52 Z" fill="#000000" fill-rule="nonzero" fill-opacity="1" /><path clip-path="url(#clip460)" d="M10.8708 1175.73 Q10.8708 1179.34 14.4356 1181.17 Q17.9773 1182.98 25.1068 1182.98 Q32.2133 1182.98 35.7781 1181.17 Q39.3197 1179.34 39.3197 1175.73 Q39.3197 1172.1 35.7781 1170.29 Q32.2133 1168.46 25.1068 1168.46 Q17.9773 1168.46 14.4356 1170.29 Q10.8708 1172.1 10.8708 1175.73 M7.16713 1175.73 Q7.16713 1169.92 11.7736 1166.87 Q16.3569 1163.79 25.1068 1163.79 Q33.8337 1163.79 38.4401 1166.87 Q43.0234 1169.92 43.0234 1175.73 Q43.0234 1181.54 38.4401 1184.62 Q33.8337 1187.68 25.1068 1187.68 Q16.3569 1187.68 11.7736 1184.62 Q7.16713 1181.54 7.16713 1175.73 Z" fill="#000000" fill-rule="nonzero" fill-opacity="1" /><path clip-path="url(#clip460)" d="M36.4725 1155.57 L36.4725 1150.68 L42.3521 1150.68 L42.3521 1155.57 L36.4725 1155.57 Z" fill="#000000" fill-rule="nonzero" fill-opacity="1" /><path clip-path="url(#clip460)" d="M10.8708 1130.5 Q10.8708 1134.11 14.4356 1135.94 Q17.9773 1137.74 25.1068 1137.74 Q32.2133 1137.74 35.7781 1135.94 Q39.3197 1134.11 39.3197 1130.5 Q39.3197 1126.87 35.7781 1125.06 Q32.2133 1123.23 25.1068 1123.23 Q17.9773 1123.23 14.4356 1125.06 Q10.8708 1126.87 10.8708 1130.5 M7.16713 1130.5 Q7.16713 1124.69 11.7736 1121.63 Q16.3569 1118.56 25.1068 1118.56 Q33.8337 1118.56 38.4401 1121.63 Q43.0234 1124.69 43.0234 1130.5 Q43.0234 1136.31 38.4401 1139.39 Q33.8337 1142.44 25.1068 1142.44 Q16.3569 1142.44 11.7736 1139.39 Q7.16713 1136.31 7.16713 1130.5 Z" fill="#000000" fill-rule="nonzero" fill-opacity="1" /><path clip-path="url(#clip460)" d="M38.417 1106.31 L38.417 1089.99 L42.3521 1089.99 L42.3521 1111.93 L38.417 1111.93 Q35.6623 1109.27 31.0327 1104.69 Q26.38 1100.08 25.0374 1098.9 Q22.5143 1096.66 20.7782 1095.78 Q19.0189 1094.87 17.3291 1094.87 Q14.5745 1094.87 12.8384 1096.82 Q11.1023 1098.74 11.1023 1101.84 Q11.1023 1104.04 11.8662 1106.5 Q12.6301 1108.93 14.181 1111.7 L9.45878 1111.7 Q8.32453 1108.88 7.74583 1106.43 Q7.16713 1103.97 7.16713 1101.93 Q7.16713 1096.56 9.8523 1093.37 Q12.5375 1090.18 17.0282 1090.18 Q19.1578 1090.18 21.0791 1090.99 Q22.9772 1091.77 25.5698 1093.88 Q26.2411 1094.46 29.4587 1097.56 Q32.6531 1100.66 38.417 1106.31 Z" fill="#000000" fill-rule="nonzero" fill-opacity="1" /><path clip-path="url(#clip460)" d="M7.79213 1080.13 L7.79213 1061.77 L11.7273 1061.77 L11.7273 1075.85 L20.1995 1075.85 Q19.8522 1074.83 19.6902 1073.81 Q19.505 1072.79 19.505 1071.77 Q19.505 1065.99 22.6763 1062.61 Q25.8476 1059.23 31.2642 1059.23 Q36.8429 1059.23 39.9447 1062.7 Q43.0234 1066.17 43.0234 1072.49 Q43.0234 1074.67 42.6531 1076.94 Q42.2827 1079.18 41.5419 1081.59 L36.8429 1081.59 Q37.9771 1079.5 38.5327 1077.28 Q39.0883 1075.06 39.0883 1072.58 Q39.0883 1068.58 36.9818 1066.24 Q34.8753 1063.9 31.2642 1063.9 Q27.6531 1063.9 25.5467 1066.24 Q23.4402 1068.58 23.4402 1072.58 Q23.4402 1074.46 23.8569 1076.33 Q24.2735 1078.19 25.1531 1080.13 L7.79213 1080.13 Z" fill="#000000" fill-rule="nonzero" fill-opacity="1" /><path clip-path="url(#clip460)" d="M10.8708 820.382 Q10.8708 823.993 14.4356 825.822 Q17.9773 827.627 25.1068 827.627 Q32.2133 827.627 35.7781 825.822 Q39.3197 823.993 39.3197 820.382 Q39.3197 816.748 35.7781 814.942 Q32.2133 813.113 25.1068 813.113 Q17.9773 813.113 14.4356 814.942 Q10.8708 816.748 10.8708 820.382 M7.16713 820.382 Q7.16713 814.572 11.7736 811.516 Q16.3569 808.438 25.1068 808.438 Q33.8337 808.438 38.4401 811.516 Q43.0234 814.572 43.0234 820.382 Q43.0234 826.192 38.4401 829.271 Q33.8337 832.326 25.1068 832.326 Q16.3569 832.326 11.7736 829.271 Q7.16713 826.192 7.16713 820.382 Z" fill="#000000" fill-rule="nonzero" fill-opacity="1" /><path clip-path="url(#clip460)" d="M36.4725 800.22 L36.4725 795.336 L42.3521 795.336 L42.3521 800.22 L36.4725 800.22 Z" fill="#000000" fill-rule="nonzero" fill-opacity="1" /><path clip-path="url(#clip460)" d="M10.8708 775.151 Q10.8708 778.762 14.4356 780.59 Q17.9773 782.396 25.1068 782.396 Q32.2133 782.396 35.7781 780.59 Q39.3197 778.762 39.3197 775.151 Q39.3197 771.516 35.7781 769.711 Q32.2133 767.882 25.1068 767.882 Q17.9773 767.882 14.4356 769.711 Q10.8708 771.516 10.8708 775.151 M7.16713 775.151 Q7.16713 769.341 11.7736 766.285 Q16.3569 763.206 25.1068 763.206 Q33.8337 763.206 38.4401 766.285 Q43.0234 769.341 43.0234 775.151 Q43.0234 780.961 38.4401 784.04 Q33.8337 787.095 25.1068 787.095 Q16.3569 787.095 11.7736 784.04 Q7.16713 780.961 7.16713 775.151 Z" fill="#000000" fill-rule="nonzero" fill-opacity="1" /><path clip-path="url(#clip460)" d="M7.79213 754.942 L7.79213 736.586 L11.7273 736.586 L11.7273 750.66 L20.1995 750.66 Q19.8522 749.642 19.6902 748.623 Q19.505 747.605 19.505 746.586 Q19.505 740.799 22.6763 737.419 Q25.8476 734.04 31.2642 734.04 Q36.8429 734.04 39.9447 737.512 Q43.0234 740.984 43.0234 747.304 Q43.0234 749.48 42.6531 751.748 Q42.2827 753.993 41.5419 756.401 L36.8429 756.401 Q37.9771 754.317 38.5327 752.095 Q39.0883 749.873 39.0883 747.396 Q39.0883 743.392 36.9818 741.054 Q34.8753 738.716 31.2642 738.716 Q27.6531 738.716 25.5467 741.054 Q23.4402 743.392 23.4402 747.396 Q23.4402 749.271 23.8569 751.146 Q24.2735 752.998 25.1531 754.942 L7.79213 754.942 Z" fill="#000000" fill-rule="nonzero" fill-opacity="1" /><path clip-path="url(#clip460)" d="M10.8708 714.827 Q10.8708 718.438 14.4356 720.267 Q17.9773 722.072 25.1068 722.072 Q32.2133 722.072 35.7781 720.267 Q39.3197 718.438 39.3197 714.827 Q39.3197 711.193 35.7781 709.387 Q32.2133 707.558 25.1068 707.558 Q17.9773 707.558 14.4356 709.387 Q10.8708 711.193 10.8708 714.827 M7.16713 714.827 Q7.16713 709.017 11.7736 705.961 Q16.3569 702.883 25.1068 702.883 Q33.8337 702.883 38.4401 705.961 Q43.0234 709.017 43.0234 714.827 Q43.0234 720.637 38.4401 723.716 Q33.8337 726.771 25.1068 726.771 Q16.3569 726.771 11.7736 723.716 Q7.16713 720.637 7.16713 714.827 Z" fill="#000000" fill-rule="nonzero" fill-opacity="1" /><path clip-path="url(#clip460)" d="M10.8708 464.038 Q10.8708 467.649 14.4356 469.477 Q17.9773 471.283 25.1068 471.283 Q32.2133 471.283 35.7781 469.477 Q39.3197 467.649 39.3197 464.038 Q39.3197 460.403 35.7781 458.598 Q32.2133 456.769 25.1068 456.769 Q17.9773 456.769 14.4356 458.598 Q10.8708 460.403 10.8708 464.038 M7.16713 464.038 Q7.16713 458.228 11.7736 455.172 Q16.3569 452.093 25.1068 452.093 Q33.8337 452.093 38.4401 455.172 Q43.0234 458.228 43.0234 464.038 Q43.0234 469.848 38.4401 472.927 Q33.8337 475.982 25.1068 475.982 Q16.3569 475.982 11.7736 472.927 Q7.16713 469.848 7.16713 464.038 Z" fill="#000000" fill-rule="nonzero" fill-opacity="1" /><path clip-path="url(#clip460)" d="M36.4725 443.876 L36.4725 438.992 L42.3521 438.992 L42.3521 443.876 L36.4725 443.876 Z" fill="#000000" fill-rule="nonzero" fill-opacity="1" /><path clip-path="url(#clip460)" d="M10.8708 418.806 Q10.8708 422.418 14.4356 424.246 Q17.9773 426.052 25.1068 426.052 Q32.2133 426.052 35.7781 424.246 Q39.3197 422.418 39.3197 418.806 Q39.3197 415.172 35.7781 413.367 Q32.2133 411.538 25.1068 411.538 Q17.9773 411.538 14.4356 413.367 Q10.8708 415.172 10.8708 418.806 M7.16713 418.806 Q7.16713 412.996 11.7736 409.941 Q16.3569 406.862 25.1068 406.862 Q33.8337 406.862 38.4401 409.941 Q43.0234 412.996 43.0234 418.806 Q43.0234 424.617 38.4401 427.695 Q33.8337 430.751 25.1068 430.751 Q16.3569 430.751 11.7736 427.695 Q7.16713 424.617 7.16713 418.806 Z" fill="#000000" fill-rule="nonzero" fill-opacity="1" /><path clip-path="url(#clip460)" d="M7.79213 399.825 L7.79213 377.603 L9.78286 377.603 L42.3521 390.149 L42.3521 395.033 L11.7273 383.228 L11.7273 399.825 L7.79213 399.825 Z" fill="#000000" fill-rule="nonzero" fill-opacity="1" /><path clip-path="url(#clip460)" d="M7.79213 368.436 L7.79213 350.08 L11.7273 350.08 L11.7273 364.154 L20.1995 364.154 Q19.8522 363.135 19.6902 362.117 Q19.505 361.098 19.505 360.08 Q19.505 354.293 22.6763 350.913 Q25.8476 347.534 31.2642 347.534 Q36.8429 347.534 39.9447 351.006 Q43.0234 354.478 43.0234 360.798 Q43.0234 362.973 42.6531 365.242 Q42.2827 367.487 41.5419 369.895 L36.8429 369.895 Q37.9771 367.811 38.5327 365.589 Q39.0883 363.367 39.0883 360.89 Q39.0883 356.886 36.9818 354.548 Q34.8753 352.21 31.2642 352.21 Q27.6531 352.21 25.5467 354.548 Q23.4402 356.886 23.4402 360.89 Q23.4402 362.765 23.8569 364.64 Q24.2735 366.492 25.1531 368.436 L7.79213 368.436 Z" fill="#000000" fill-rule="nonzero" fill-opacity="1" /><path clip-path="url(#clip460)" d="M10.8708 108.689 Q10.8708 112.3 14.4356 114.129 Q17.9773 115.934 25.1068 115.934 Q32.2133 115.934 35.7781 114.129 Q39.3197 112.3 39.3197 108.689 Q39.3197 105.055 35.7781 103.249 Q32.2133 101.42 25.1068 101.42 Q17.9773 101.42 14.4356 103.249 Q10.8708 105.055 10.8708 108.689 M7.16713 108.689 Q7.16713 102.879 11.7736 99.8231 Q16.3569 96.7444 25.1068 96.7444 Q33.8337 96.7444 38.4401 99.8231 Q43.0234 102.879 43.0234 108.689 Q43.0234 114.499 38.4401 117.578 Q33.8337 120.633 25.1068 120.633 Q16.3569 120.633 11.7736 117.578 Q7.16713 114.499 7.16713 108.689 Z" fill="#000000" fill-rule="nonzero" fill-opacity="1" /><path clip-path="url(#clip460)" d="M36.4725 88.5269 L36.4725 83.6427 L42.3521 83.6427 L42.3521 88.5269 L36.4725 88.5269 Z" fill="#000000" fill-rule="nonzero" fill-opacity="1" /><path clip-path="url(#clip460)" d="M38.417 72.6474 L38.417 65.0085 L12.0514 65.0085 L13.718 73.3186 L9.45878 73.3186 L7.79213 65.0548 L7.79213 60.3789 L38.417 60.3789 L38.417 52.7401 L42.3521 52.7401 L42.3521 72.6474 L38.417 72.6474 Z" fill="#000000" fill-rule="nonzero" fill-opacity="1" /><path clip-path="url(#clip460)" d="M10.8708 33.2957 Q10.8708 36.9068 14.4356 38.7355 Q17.9773 40.541 25.1068 40.541 Q32.2133 40.541 35.7781 38.7355 Q39.3197 36.9068 39.3197 33.2957 Q39.3197 29.6615 35.7781 27.8559 Q32.2133 26.0272 25.1068 26.0272 Q17.9773 26.0272 14.4356 27.8559 Q10.8708 29.6615 10.8708 33.2957 M7.16713 33.2957 Q7.16713 27.4856 11.7736 24.43 Q16.3569 21.3513 25.1068 21.3513 Q33.8337 21.3513 38.4401 24.43 Q43.0234 27.4856 43.0234 33.2957 Q43.0234 39.1059 38.4401 42.1846 Q33.8337 45.2401 25.1068 45.2401 Q16.3569 45.2401 11.7736 42.1846 Q7.16713 39.1059 7.16713 33.2957 Z" fill="#000000" fill-rule="nonzero" fill-opacity="1" /><path clip-path="url(#clip460)" d="M10.8708 3.13383 Q10.8708 6.74493 14.4356 8.57362 Q17.9773 10.3792 25.1068 10.3792 Q32.2133 10.3792 35.7781 8.57362 Q39.3197 6.74493 39.3197 3.13383 Q39.3197 -0.500405 35.7781 -2.30595 Q32.2133 -4.13465 25.1068 -4.13465 Q17.9773 -4.13465 14.4356 -2.30595 Q10.8708 -0.500405 10.8708 3.13383 M7.16713 3.13383 Q7.16713 -2.67632 11.7736 -5.73186 Q16.3569 -8.81055 25.1068 -8.81055 Q33.8337 -8.81055 38.4401 -5.73186 Q43.0234 -2.67632 43.0234 3.13383 Q43.0234 8.94399 38.4401 12.0227 Q33.8337 15.0782 25.1068 15.0782 Q16.3569 15.0782 11.7736 12.0227 Q7.16713 8.94399 7.16713 3.13383 Z" fill="#000000" fill-rule="nonzero" fill-opacity="1" /><polyline clip-path="url(#clip462)" style="stroke:#009af9; stroke-linecap:round; stroke-linejoin:round; stroke-width:4; stroke-opacity:1; fill:none" points="151.118,1479.3 154.597,1479.3 158.076,1479.29 161.555,1479.28 165.034,1479.25 181.119,1478.4 197.203,1474.93 205.245,1471.53 213.288,1466.65 221.33,1460.05 229.372,1451.52 237.415,1440.88 245.457,1427.98 253.499,1412.71 261.542,1395.03 269.584,1374.89 277.626,1352.3 285.669,1327.31 293.711,1299.99 298.544,1282.49 303.377,1264.21 308.21,1245.18 313.043,1225.43 322.709,1183.9 332.376,1139.91 342.042,1093.8 351.708,1045.89 361.374,996.537 371.04,946.096 387.386,859.319 403.731,772.122 420.076,686.084 436.422,602.649 445.299,558.885 454.177,516.452 463.055,475.515 471.933,436.224 480.81,398.711 489.688,363.093 498.566,329.468 507.444,297.92 515.628,270.736 523.813,245.417 531.997,221.996 540.182,200.495 548.366,180.927 556.551,163.297 564.735,147.6 572.92,133.826 581.695,121.172 590.469,110.675 599.244,102.296 608.019,95.9893 616.793,91.7027 625.568,89.3786 634.343,88.9544 643.117,90.3635 653.284,94.196 663.45,100.281 673.616,108.5 683.783,118.733 693.949,130.856 704.115,144.745 714.282,160.276 724.448,177.324 742.517,210.991 760.586,248.395 778.656,288.891 796.725,331.867 828.415,411.529 860.105,494.334 894.656,585.477 929.207,675.169 946.585,719.125 963.963,762.05 981.341,803.787 998.719,844.21 1017.93,887.252 1037.15,928.46 1056.36,967.763 1075.57,1005.12 1093.86,1038.83 1112.14,1070.76 1130.42,1100.93 1148.7,1129.36 1167.71,1157.11 1186.72,1183.08 1205.72,1207.32 1224.73,1229.9 1240.73,1247.67 1256.74,1264.37 1272.74,1280.02 1288.74,1294.69 1308.27,1311.32 1327.81,1326.63 1347.34,1340.69 1366.88,1353.6 1402.67,1374.48 1438.46,1392.18 1471.52,1406.06 1504.57,1417.89 1538.06,1428.04 1571.54,1436.62 1609.07,1444.63 1646.6,1451.21 1680.6,1456.14 1714.61,1460.24 1792.48,1467.19 1864.58,1471.4 1935.66,1474.16 2004.67,1475.93 2075.42,1477.12 2152.93,1477.96 2265.53,1478.65 2288.63,1478.74 "/>
<path clip-path="url(#clip460)" d="M1828.97 200.05 L2277.23 200.05 L2277.23 96.3696 L1828.97 96.3696  Z" fill="#ffffff" fill-rule="evenodd" fill-opacity="1"/>
<polyline clip-path="url(#clip460)" style="stroke:#000000; stroke-linecap:round; stroke-linejoin:round; stroke-width:4; stroke-opacity:1; fill:none" points="1828.97,200.05 2277.23,200.05 2277.23,96.3696 1828.97,96.3696 1828.97,200.05 "/>
<polyline clip-path="url(#clip460)" style="stroke:#009af9; stroke-linecap:round; stroke-linejoin:round; stroke-width:4; stroke-opacity:1; fill:none" points="1854.14,148.21 2005.19,148.21 "/>
<path clip-path="url(#clip460)" d="M2058.24 133.592 L2058.24 138.522 Q2055.88 136.323 2053.19 135.235 Q2050.53 134.147 2047.52 134.147 Q2041.59 134.147 2038.45 137.781 Q2035.3 141.392 2035.3 148.244 Q2035.3 155.073 2038.45 158.707 Q2041.59 162.318 2047.52 162.318 Q2050.53 162.318 2053.19 161.23 Q2055.88 160.142 2058.24 157.943 L2058.24 162.828 Q2055.78 164.494 2053.03 165.328 Q2050.3 166.161 2047.24 166.161 Q2039.39 166.161 2034.88 161.369 Q2030.37 156.554 2030.37 148.244 Q2030.37 139.911 2034.88 135.119 Q2039.39 130.305 2047.24 130.305 Q2050.34 130.305 2053.07 131.138 Q2055.83 131.948 2058.24 133.592 Z" fill="#000000" fill-rule="nonzero" fill-opacity="1" /><path clip-path="url(#clip460)" d="M2086.82 149.841 L2086.82 165.49 L2082.57 165.49 L2082.57 149.98 Q2082.57 146.3 2081.13 144.471 Q2079.7 142.642 2076.82 142.642 Q2073.38 142.642 2071.38 144.842 Q2069.39 147.041 2069.39 150.837 L2069.39 165.49 L2065.11 165.49 L2065.11 129.471 L2069.39 129.471 L2069.39 143.592 Q2070.92 141.254 2072.98 140.096 Q2075.07 138.939 2077.77 138.939 Q2082.24 138.939 2084.53 141.717 Q2086.82 144.471 2086.82 149.841 Z" fill="#000000" fill-rule="nonzero" fill-opacity="1" /><path clip-path="url(#clip460)" d="M2095.32 139.564 L2099.58 139.564 L2099.58 165.49 L2095.32 165.49 L2095.32 139.564 M2095.32 129.471 L2099.58 129.471 L2099.58 134.865 L2095.32 134.865 L2095.32 129.471 Z" fill="#000000" fill-rule="nonzero" fill-opacity="1" /><path clip-path="url(#clip460)" d="M2125.02 140.328 L2125.02 144.355 Q2123.21 143.429 2121.27 142.967 Q2119.32 142.504 2117.24 142.504 Q2114.07 142.504 2112.47 143.476 Q2110.9 144.448 2110.9 146.392 Q2110.9 147.874 2112.03 148.73 Q2113.17 149.564 2116.59 150.328 L2118.05 150.652 Q2122.59 151.624 2124.49 153.406 Q2126.41 155.166 2126.41 158.337 Q2126.41 161.948 2123.54 164.054 Q2120.69 166.161 2115.69 166.161 Q2113.61 166.161 2111.34 165.744 Q2109.09 165.351 2106.59 164.54 L2106.59 160.142 Q2108.95 161.369 2111.25 161.994 Q2113.54 162.596 2115.78 162.596 Q2118.79 162.596 2120.41 161.578 Q2122.03 160.536 2122.03 158.661 Q2122.03 156.925 2120.85 155.999 Q2119.69 155.073 2115.74 154.216 L2114.26 153.869 Q2110.3 153.036 2108.54 151.323 Q2106.78 149.587 2106.78 146.578 Q2106.78 142.92 2109.37 140.93 Q2111.96 138.939 2116.73 138.939 Q2119.09 138.939 2121.18 139.286 Q2123.26 139.633 2125.02 140.328 Z" fill="#000000" fill-rule="nonzero" fill-opacity="1" /><path clip-path="url(#clip460)" d="M2135.74 152.55 Q2135.74 157.249 2137.66 159.934 Q2139.6 162.596 2142.98 162.596 Q2146.36 162.596 2148.31 159.934 Q2150.25 157.249 2150.25 152.55 Q2150.25 147.851 2148.31 145.189 Q2146.36 142.504 2142.98 142.504 Q2139.6 142.504 2137.66 145.189 Q2135.74 147.851 2135.74 152.55 M2150.25 161.601 Q2148.91 163.915 2146.85 165.05 Q2144.81 166.161 2141.94 166.161 Q2137.24 166.161 2134.28 162.411 Q2131.34 158.661 2131.34 152.55 Q2131.34 146.439 2134.28 142.689 Q2137.24 138.939 2141.94 138.939 Q2144.81 138.939 2146.85 140.073 Q2148.91 141.184 2150.25 143.499 L2150.25 139.564 L2154.51 139.564 L2154.51 175.351 L2150.25 175.351 L2150.25 161.601 Z" fill="#000000" fill-rule="nonzero" fill-opacity="1" /><path clip-path="url(#clip460)" d="M2173.51 129.518 Q2170.41 134.842 2168.91 140.05 Q2167.4 145.258 2167.4 150.605 Q2167.4 155.953 2168.91 161.207 Q2170.44 166.439 2173.51 171.74 L2169.81 171.74 Q2166.34 166.3 2164.6 161.045 Q2162.89 155.791 2162.89 150.605 Q2162.89 145.443 2164.6 140.212 Q2166.32 134.98 2169.81 129.518 L2173.51 129.518 Z" fill="#000000" fill-rule="nonzero" fill-opacity="1" /><path clip-path="url(#clip460)" d="M2183.19 161.554 L2190.83 161.554 L2190.83 135.189 L2182.52 136.855 L2182.52 132.596 L2190.78 130.93 L2195.46 130.93 L2195.46 161.554 L2203.1 161.554 L2203.1 165.49 L2183.19 165.49 L2183.19 161.554 Z" fill="#000000" fill-rule="nonzero" fill-opacity="1" /><path clip-path="url(#clip460)" d="M2222.54 134.008 Q2218.93 134.008 2217.1 137.573 Q2215.3 141.115 2215.3 148.244 Q2215.3 155.351 2217.1 158.916 Q2218.93 162.457 2222.54 162.457 Q2226.18 162.457 2227.98 158.916 Q2229.81 155.351 2229.81 148.244 Q2229.81 141.115 2227.98 137.573 Q2226.18 134.008 2222.54 134.008 M2222.54 130.305 Q2228.35 130.305 2231.41 134.911 Q2234.49 139.494 2234.49 148.244 Q2234.49 156.971 2231.41 161.578 Q2228.35 166.161 2222.54 166.161 Q2216.73 166.161 2213.65 161.578 Q2210.6 156.971 2210.6 148.244 Q2210.6 139.494 2213.65 134.911 Q2216.73 130.305 2222.54 130.305 Z" fill="#000000" fill-rule="nonzero" fill-opacity="1" /><path clip-path="url(#clip460)" d="M2241.43 129.518 L2245.13 129.518 Q2248.61 134.98 2250.32 140.212 Q2252.06 145.443 2252.06 150.605 Q2252.06 155.791 2250.32 161.045 Q2248.61 166.3 2245.13 171.74 L2241.43 171.74 Q2244.51 166.439 2246.01 161.207 Q2247.54 155.953 2247.54 150.605 Q2247.54 145.258 2246.01 140.05 Q2244.51 134.842 2241.43 129.518 Z" fill="#000000" fill-rule="nonzero" fill-opacity="1" /></svg>
