<?xml version="1.0" encoding="utf-8"?>
<svg xmlns="http://www.w3.org/2000/svg" xmlns:xlink="http://www.w3.org/1999/xlink" width="600" height="400" viewBox="0 0 2400 1600">
<defs>
  <clipPath id="clip070">
    <rect x="0" y="0" width="2400" height="1600"/>
  </clipPath>
</defs>
<path clip-path="url(#clip070)" d="M0 1600 L2400 1600 L2400 0 L0 0  Z" fill="#ffffff" fill-rule="evenodd" fill-opacity="1"/>
<defs>
  <clipPath id="clip071">
    <rect x="480" y="0" width="1681" height="1600"/>
  </clipPath>
</defs>
<path clip-path="url(#clip070)" d="M86.9921 1521.01 L2352.76 1521.01 L2352.76 47.2441 L86.9921 47.2441  Z" fill="#ffffff" fill-rule="evenodd" fill-opacity="1"/>
<defs>
  <clipPath id="clip072">
    <rect x="86" y="47" width="2267" height="1475"/>
  </clipPath>
</defs>
<polyline clip-path="url(#clip072)" style="stroke:#000000; stroke-linecap:round; stroke-linejoin:round; stroke-width:2; stroke-opacity:0.1; fill:none" points="146.755,1521.01 146.755,47.2441 "/>
<polyline clip-path="url(#clip072)" style="stroke:#000000; stroke-linecap:round; stroke-linejoin:round; stroke-width:2; stroke-opacity:0.1; fill:none" points="582.982,1521.01 582.982,47.2441 "/>
<polyline clip-path="url(#clip072)" style="stroke:#000000; stroke-linecap:round; stroke-linejoin:round; stroke-width:2; stroke-opacity:0.1; fill:none" points="1019.21,1521.01 1019.21,47.2441 "/>
<polyline clip-path="url(#clip072)" style="stroke:#000000; stroke-linecap:round; stroke-linejoin:round; stroke-width:2; stroke-opacity:0.1; fill:none" points="1455.44,1521.01 1455.44,47.2441 "/>
<polyline clip-path="url(#clip072)" style="stroke:#000000; stroke-linecap:round; stroke-linejoin:round; stroke-width:2; stroke-opacity:0.1; fill:none" points="1891.66,1521.01 1891.66,47.2441 "/>
<polyline clip-path="url(#clip072)" style="stroke:#000000; stroke-linecap:round; stroke-linejoin:round; stroke-width:2; stroke-opacity:0.1; fill:none" points="2327.89,1521.01 2327.89,47.2441 "/>
<polyline clip-path="url(#clip070)" style="stroke:#000000; stroke-linecap:round; stroke-linejoin:round; stroke-width:4; stroke-opacity:1; fill:none" points="86.9921,1521.01 2352.76,1521.01 "/>
<polyline clip-path="url(#clip070)" style="stroke:#000000; stroke-linecap:round; stroke-linejoin:round; stroke-width:4; stroke-opacity:1; fill:none" points="146.755,1521.01 146.755,1502.11 "/>
<polyline clip-path="url(#clip070)" style="stroke:#000000; stroke-linecap:round; stroke-linejoin:round; stroke-width:4; stroke-opacity:1; fill:none" points="582.982,1521.01 582.982,1502.11 "/>
<polyline clip-path="url(#clip070)" style="stroke:#000000; stroke-linecap:round; stroke-linejoin:round; stroke-width:4; stroke-opacity:1; fill:none" points="1019.21,1521.01 1019.21,1502.11 "/>
<polyline clip-path="url(#clip070)" style="stroke:#000000; stroke-linecap:round; stroke-linejoin:round; stroke-width:4; stroke-opacity:1; fill:none" points="1455.44,1521.01 1455.44,1502.11 "/>
<polyline clip-path="url(#clip070)" style="stroke:#000000; stroke-linecap:round; stroke-linejoin:round; stroke-width:4; stroke-opacity:1; fill:none" points="1891.66,1521.01 1891.66,1502.11 "/>
<polyline clip-path="url(#clip070)" style="stroke:#000000; stroke-linecap:round; stroke-linejoin:round; stroke-width:4; stroke-opacity:1; fill:none" points="2327.89,1521.01 2327.89,1502.11 "/>
<path clip-path="url(#clip070)" d="M146.755 1551.93 Q143.144 1551.93 141.315 1555.49 Q139.51 1559.03 139.51 1566.16 Q139.51 1573.27 141.315 1576.83 Q143.144 1580.38 146.755 1580.38 Q150.389 1580.38 152.195 1576.83 Q154.024 1573.27 154.024 1566.16 Q154.024 1559.03 152.195 1555.49 Q150.389 1551.93 146.755 1551.93 M146.755 1548.22 Q152.565 1548.22 155.621 1552.83 Q158.7 1557.41 158.7 1566.16 Q158.7 1574.89 155.621 1579.5 Q152.565 1584.08 146.755 1584.08 Q140.945 1584.08 137.866 1579.5 Q134.811 1574.89 134.811 1566.16 Q134.811 1557.41 137.866 1552.83 Q140.945 1548.22 146.755 1548.22 Z" fill="#000000" fill-rule="nonzero" fill-opacity="1" /><path clip-path="url(#clip070)" d="M542.589 1579.47 L550.228 1579.47 L550.228 1553.11 L541.918 1554.77 L541.918 1550.51 L550.182 1548.85 L554.858 1548.85 L554.858 1579.47 L562.496 1579.47 L562.496 1583.41 L542.589 1583.41 L542.589 1579.47 Z" fill="#000000" fill-rule="nonzero" fill-opacity="1" /><path clip-path="url(#clip070)" d="M581.941 1551.93 Q578.33 1551.93 576.501 1555.49 Q574.695 1559.03 574.695 1566.16 Q574.695 1573.27 576.501 1576.83 Q578.33 1580.38 581.941 1580.38 Q585.575 1580.38 587.381 1576.83 Q589.209 1573.27 589.209 1566.16 Q589.209 1559.03 587.381 1555.49 Q585.575 1551.93 581.941 1551.93 M581.941 1548.22 Q587.751 1548.22 590.806 1552.83 Q593.885 1557.41 593.885 1566.16 Q593.885 1574.89 590.806 1579.5 Q587.751 1584.08 581.941 1584.08 Q576.131 1584.08 573.052 1579.5 Q569.996 1574.89 569.996 1566.16 Q569.996 1557.41 573.052 1552.83 Q576.131 1548.22 581.941 1548.22 Z" fill="#000000" fill-rule="nonzero" fill-opacity="1" /><path clip-path="url(#clip070)" d="M612.103 1551.93 Q608.492 1551.93 606.663 1555.49 Q604.857 1559.03 604.857 1566.16 Q604.857 1573.27 606.663 1576.83 Q608.492 1580.38 612.103 1580.38 Q615.737 1580.38 617.542 1576.83 Q619.371 1573.27 619.371 1566.16 Q619.371 1559.03 617.542 1555.49 Q615.737 1551.93 612.103 1551.93 M612.103 1548.22 Q617.913 1548.22 620.968 1552.83 Q624.047 1557.41 624.047 1566.16 Q624.047 1574.89 620.968 1579.5 Q617.913 1584.08 612.103 1584.08 Q606.292 1584.08 603.214 1579.5 Q600.158 1574.89 600.158 1566.16 Q600.158 1557.41 603.214 1552.83 Q606.292 1548.22 612.103 1548.22 Z" fill="#000000" fill-rule="nonzero" fill-opacity="1" /><path clip-path="url(#clip070)" d="M982.902 1579.47 L999.221 1579.47 L999.221 1583.41 L977.277 1583.41 L977.277 1579.47 Q979.939 1576.72 984.522 1572.09 Q989.129 1567.44 990.309 1566.09 Q992.555 1563.57 993.434 1561.83 Q994.337 1560.07 994.337 1558.38 Q994.337 1555.63 992.393 1553.89 Q990.471 1552.16 987.369 1552.16 Q985.17 1552.16 982.717 1552.92 Q980.286 1553.69 977.508 1555.24 L977.508 1550.51 Q980.332 1549.38 982.786 1548.8 Q985.24 1548.22 987.277 1548.22 Q992.647 1548.22 995.842 1550.91 Q999.036 1553.59 999.036 1558.08 Q999.036 1560.21 998.226 1562.13 Q997.439 1564.03 995.332 1566.63 Q994.754 1567.3 991.652 1570.51 Q988.55 1573.71 982.902 1579.47 Z" fill="#000000" fill-rule="nonzero" fill-opacity="1" /><path clip-path="url(#clip070)" d="M1019.04 1551.93 Q1015.42 1551.93 1013.6 1555.49 Q1011.79 1559.03 1011.79 1566.16 Q1011.79 1573.27 1013.6 1576.83 Q1015.42 1580.38 1019.04 1580.38 Q1022.67 1580.38 1024.48 1576.83 Q1026.3 1573.27 1026.3 1566.16 Q1026.3 1559.03 1024.48 1555.49 Q1022.67 1551.93 1019.04 1551.93 M1019.04 1548.22 Q1024.85 1548.22 1027.9 1552.83 Q1030.98 1557.41 1030.98 1566.16 Q1030.98 1574.89 1027.9 1579.5 Q1024.85 1584.08 1019.04 1584.08 Q1013.23 1584.08 1010.15 1579.5 Q1007.09 1574.89 1007.09 1566.16 Q1007.09 1557.41 1010.15 1552.83 Q1013.23 1548.22 1019.04 1548.22 Z" fill="#000000" fill-rule="nonzero" fill-opacity="1" /><path clip-path="url(#clip070)" d="M1049.2 1551.93 Q1045.59 1551.93 1043.76 1555.49 Q1041.95 1559.03 1041.95 1566.16 Q1041.95 1573.27 1043.76 1576.83 Q1045.59 1580.38 1049.2 1580.38 Q1052.83 1580.38 1054.64 1576.83 Q1056.47 1573.27 1056.47 1566.16 Q1056.47 1559.03 1054.64 1555.49 Q1052.83 1551.93 1049.2 1551.93 M1049.2 1548.22 Q1055.01 1548.22 1058.06 1552.83 Q1061.14 1557.41 1061.14 1566.16 Q1061.14 1574.89 1058.06 1579.5 Q1055.01 1584.08 1049.2 1584.08 Q1043.39 1584.08 1040.31 1579.5 Q1037.25 1574.89 1037.25 1566.16 Q1037.25 1557.41 1040.31 1552.83 Q1043.39 1548.22 1049.2 1548.22 Z" fill="#000000" fill-rule="nonzero" fill-opacity="1" /><path clip-path="url(#clip070)" d="M1429.2 1564.77 Q1432.55 1565.49 1434.43 1567.76 Q1436.33 1570.03 1436.33 1573.36 Q1436.33 1578.48 1432.81 1581.28 Q1429.29 1584.08 1422.81 1584.08 Q1420.63 1584.08 1418.32 1583.64 Q1416.03 1583.22 1413.57 1582.37 L1413.57 1577.85 Q1415.52 1578.99 1417.83 1579.57 Q1420.15 1580.14 1422.67 1580.14 Q1427.07 1580.14 1429.36 1578.41 Q1431.68 1576.67 1431.68 1573.36 Q1431.68 1570.31 1429.52 1568.59 Q1427.39 1566.86 1423.57 1566.86 L1419.55 1566.86 L1419.55 1563.01 L1423.76 1563.01 Q1427.21 1563.01 1429.04 1561.65 Q1430.87 1560.26 1430.87 1557.67 Q1430.87 1555.01 1428.97 1553.59 Q1427.09 1552.16 1423.57 1552.16 Q1421.65 1552.16 1419.45 1552.57 Q1417.25 1552.99 1414.62 1553.87 L1414.62 1549.7 Q1417.28 1548.96 1419.59 1548.59 Q1421.93 1548.22 1423.99 1548.22 Q1429.31 1548.22 1432.42 1550.65 Q1435.52 1553.06 1435.52 1557.18 Q1435.52 1560.05 1433.87 1562.04 Q1432.23 1564.01 1429.2 1564.77 Z" fill="#000000" fill-rule="nonzero" fill-opacity="1" /><path clip-path="url(#clip070)" d="M1455.19 1551.93 Q1451.58 1551.93 1449.75 1555.49 Q1447.95 1559.03 1447.95 1566.16 Q1447.95 1573.27 1449.75 1576.83 Q1451.58 1580.38 1455.19 1580.38 Q1458.83 1580.38 1460.63 1576.83 Q1462.46 1573.27 1462.46 1566.16 Q1462.46 1559.03 1460.63 1555.49 Q1458.83 1551.93 1455.19 1551.93 M1455.19 1548.22 Q1461 1548.22 1464.06 1552.83 Q1467.14 1557.41 1467.14 1566.16 Q1467.14 1574.89 1464.06 1579.5 Q1461 1584.08 1455.19 1584.08 Q1449.38 1584.08 1446.3 1579.5 Q1443.25 1574.89 1443.25 1566.16 Q1443.25 1557.41 1446.3 1552.83 Q1449.38 1548.22 1455.19 1548.22 Z" fill="#000000" fill-rule="nonzero" fill-opacity="1" /><path clip-path="url(#clip070)" d="M1485.36 1551.93 Q1481.74 1551.93 1479.92 1555.49 Q1478.11 1559.03 1478.11 1566.16 Q1478.11 1573.27 1479.92 1576.83 Q1481.74 1580.38 1485.36 1580.38 Q1488.99 1580.38 1490.8 1576.83 Q1492.62 1573.27 1492.62 1566.16 Q1492.62 1559.03 1490.8 1555.49 Q1488.99 1551.93 1485.36 1551.93 M1485.36 1548.22 Q1491.17 1548.22 1494.22 1552.83 Q1497.3 1557.41 1497.3 1566.16 Q1497.3 1574.89 1494.22 1579.5 Q1491.17 1584.08 1485.36 1584.08 Q1479.55 1584.08 1476.47 1579.5 Q1473.41 1574.89 1473.41 1566.16 Q1473.41 1557.41 1476.47 1552.83 Q1479.55 1548.22 1485.36 1548.22 Z" fill="#000000" fill-rule="nonzero" fill-opacity="1" /><path clip-path="url(#clip070)" d="M1864.75 1552.92 L1852.95 1571.37 L1864.75 1571.37 L1864.75 1552.92 M1863.53 1548.85 L1869.41 1548.85 L1869.41 1571.37 L1874.34 1571.37 L1874.34 1575.26 L1869.41 1575.26 L1869.41 1583.41 L1864.75 1583.41 L1864.75 1575.26 L1849.15 1575.26 L1849.15 1570.75 L1863.53 1548.85 Z" fill="#000000" fill-rule="nonzero" fill-opacity="1" /><path clip-path="url(#clip070)" d="M1892.07 1551.93 Q1888.46 1551.93 1886.63 1555.49 Q1884.82 1559.03 1884.82 1566.16 Q1884.82 1573.27 1886.63 1576.83 Q1888.46 1580.38 1892.07 1580.38 Q1895.7 1580.38 1897.51 1576.83 Q1899.34 1573.27 1899.34 1566.16 Q1899.34 1559.03 1897.51 1555.49 Q1895.7 1551.93 1892.07 1551.93 M1892.07 1548.22 Q1897.88 1548.22 1900.93 1552.83 Q1904.01 1557.41 1904.01 1566.16 Q1904.01 1574.89 1900.93 1579.5 Q1897.88 1584.08 1892.07 1584.08 Q1886.26 1584.08 1883.18 1579.5 Q1880.12 1574.89 1880.12 1566.16 Q1880.12 1557.41 1883.18 1552.83 Q1886.26 1548.22 1892.07 1548.22 Z" fill="#000000" fill-rule="nonzero" fill-opacity="1" /><path clip-path="url(#clip070)" d="M1922.23 1551.93 Q1918.62 1551.93 1916.79 1555.49 Q1914.99 1559.03 1914.99 1566.16 Q1914.99 1573.27 1916.79 1576.83 Q1918.62 1580.38 1922.23 1580.38 Q1925.87 1580.38 1927.67 1576.83 Q1929.5 1573.27 1929.5 1566.16 Q1929.5 1559.03 1927.67 1555.49 Q1925.87 1551.93 1922.23 1551.93 M1922.23 1548.22 Q1928.04 1548.22 1931.1 1552.83 Q1934.18 1557.41 1934.18 1566.16 Q1934.18 1574.89 1931.1 1579.5 Q1928.04 1584.08 1922.23 1584.08 Q1916.42 1584.08 1913.34 1579.5 Q1910.29 1574.89 1910.29 1566.16 Q1910.29 1557.41 1913.34 1552.83 Q1916.42 1548.22 1922.23 1548.22 Z" fill="#000000" fill-rule="nonzero" fill-opacity="1" /><path clip-path="url(#clip070)" d="M2287.51 1548.85 L2305.87 1548.85 L2305.87 1552.78 L2291.79 1552.78 L2291.79 1561.26 Q2292.81 1560.91 2293.83 1560.75 Q2294.85 1560.56 2295.87 1560.56 Q2301.65 1560.56 2305.03 1563.73 Q2308.41 1566.9 2308.41 1572.32 Q2308.41 1577.9 2304.94 1581 Q2301.47 1584.08 2295.15 1584.08 Q2292.97 1584.08 2290.7 1583.71 Q2288.46 1583.34 2286.05 1582.6 L2286.05 1577.9 Q2288.13 1579.03 2290.36 1579.59 Q2292.58 1580.14 2295.06 1580.14 Q2299.06 1580.14 2301.4 1578.04 Q2303.74 1575.93 2303.74 1572.32 Q2303.74 1568.71 2301.4 1566.6 Q2299.06 1564.5 2295.06 1564.5 Q2293.18 1564.5 2291.31 1564.91 Q2289.45 1565.33 2287.51 1566.21 L2287.51 1548.85 Z" fill="#000000" fill-rule="nonzero" fill-opacity="1" /><path clip-path="url(#clip070)" d="M2327.62 1551.93 Q2324.01 1551.93 2322.18 1555.49 Q2320.38 1559.03 2320.38 1566.16 Q2320.38 1573.27 2322.18 1576.83 Q2324.01 1580.38 2327.62 1580.38 Q2331.26 1580.38 2333.06 1576.83 Q2334.89 1573.27 2334.89 1566.16 Q2334.89 1559.03 2333.06 1555.49 Q2331.26 1551.93 2327.62 1551.93 M2327.62 1548.22 Q2333.43 1548.22 2336.49 1552.83 Q2339.57 1557.41 2339.57 1566.16 Q2339.57 1574.89 2336.49 1579.5 Q2333.43 1584.08 2327.62 1584.08 Q2321.81 1584.08 2318.74 1579.5 Q2315.68 1574.89 2315.68 1566.16 Q2315.68 1557.41 2318.74 1552.83 Q2321.81 1548.22 2327.62 1548.22 Z" fill="#000000" fill-rule="nonzero" fill-opacity="1" /><path clip-path="url(#clip070)" d="M2357.79 1551.93 Q2354.18 1551.93 2352.35 1555.49 Q2350.54 1559.03 2350.54 1566.16 Q2350.54 1573.27 2352.35 1576.83 Q2354.18 1580.38 2357.79 1580.38 Q2361.42 1580.38 2363.23 1576.83 Q2365.06 1573.27 2365.06 1566.16 Q2365.06 1559.03 2363.23 1555.49 Q2361.42 1551.93 2357.79 1551.93 M2357.79 1548.22 Q2363.6 1548.22 2366.65 1552.83 Q2369.73 1557.41 2369.73 1566.16 Q2369.73 1574.89 2366.65 1579.5 Q2363.6 1584.08 2357.79 1584.08 Q2351.98 1584.08 2348.9 1579.5 Q2345.84 1574.89 2345.84 1566.16 Q2345.84 1557.41 2348.9 1552.83 Q2351.98 1548.22 2357.79 1548.22 Z" fill="#000000" fill-rule="nonzero" fill-opacity="1" /><polyline clip-path="url(#clip072)" style="stroke:#000000; stroke-linecap:round; stroke-linejoin:round; stroke-width:2; stroke-opacity:0.1; fill:none" points="86.9921,1479.3 2352.76,1479.3 "/>
<polyline clip-path="url(#clip072)" style="stroke:#000000; stroke-linecap:round; stroke-linejoin:round; stroke-width:2; stroke-opacity:0.1; fill:none" points="86.9921,1131.71 2352.76,1131.71 "/>
<polyline clip-path="url(#clip072)" style="stroke:#000000; stroke-linecap:round; stroke-linejoin:round; stroke-width:2; stroke-opacity:0.1; fill:none" points="86.9921,784.126 2352.76,784.126 "/>
<polyline clip-path="url(#clip072)" style="stroke:#000000; stroke-linecap:round; stroke-linejoin:round; stroke-width:2; stroke-opacity:0.1; fill:none" points="86.9921,436.54 2352.76,436.54 "/>
<polyline clip-path="url(#clip072)" style="stroke:#000000; stroke-linecap:round; stroke-linejoin:round; stroke-width:2; stroke-opacity:0.1; fill:none" points="86.9921,88.9544 2352.76,88.9544 "/>
<polyline clip-path="url(#clip070)" style="stroke:#000000; stroke-linecap:round; stroke-linejoin:round; stroke-width:4; stroke-opacity:1; fill:none" points="86.9921,1521.01 86.9921,47.2441 "/>
<polyline clip-path="url(#clip070)" style="stroke:#000000; stroke-linecap:round; stroke-linejoin:round; stroke-width:4; stroke-opacity:1; fill:none" points="86.9921,1479.3 105.89,1479.3 "/>
<polyline clip-path="url(#clip070)" style="stroke:#000000; stroke-linecap:round; stroke-linejoin:round; stroke-width:4; stroke-opacity:1; fill:none" points="86.9921,1131.71 105.89,1131.71 "/>
<polyline clip-path="url(#clip070)" style="stroke:#000000; stroke-linecap:round; stroke-linejoin:round; stroke-width:4; stroke-opacity:1; fill:none" points="86.9921,784.126 105.89,784.126 "/>
<polyline clip-path="url(#clip070)" style="stroke:#000000; stroke-linecap:round; stroke-linejoin:round; stroke-width:4; stroke-opacity:1; fill:none" points="86.9921,436.54 105.89,436.54 "/>
<polyline clip-path="url(#clip070)" style="stroke:#000000; stroke-linecap:round; stroke-linejoin:round; stroke-width:4; stroke-opacity:1; fill:none" points="86.9921,88.9544 105.89,88.9544 "/>
<path clip-path="url(#clip070)" d="M10.8708 1516.99 Q10.8708 1520.61 14.4356 1522.43 Q17.9773 1524.24 25.1068 1524.24 Q32.2133 1524.24 35.7781 1522.43 Q39.3197 1520.61 39.3197 1516.99 Q39.3197 1513.36 35.7781 1511.55 Q32.2133 1509.73 25.1068 1509.73 Q17.9773 1509.73 14.4356 1511.55 Q10.8708 1513.36 10.8708 1516.99 M7.16713 1516.99 Q7.16713 1511.18 11.7736 1508.13 Q16.3569 1505.05 25.1068 1505.05 Q33.8337 1505.05 38.4401 1508.13 Q43.0234 1511.18 43.0234 1516.99 Q43.0234 1522.8 38.4401 1525.88 Q33.8337 1528.94 25.1068 1528.94 Q16.3569 1528.94 11.7736 1525.88 Q7.16713 1522.8 7.16713 1516.99 Z" fill="#000000" fill-rule="nonzero" fill-opacity="1" /><path clip-path="url(#clip070)" d="M36.4725 1496.83 L36.4725 1491.95 L42.3521 1491.95 L42.3521 1496.83 L36.4725 1496.83 Z" fill="#000000" fill-rule="nonzero" fill-opacity="1" /><path clip-path="url(#clip070)" d="M10.8708 1471.76 Q10.8708 1475.37 14.4356 1477.2 Q17.9773 1479.01 25.1068 1479.01 Q32.2133 1479.01 35.7781 1477.2 Q39.3197 1475.37 39.3197 1471.76 Q39.3197 1468.13 35.7781 1466.32 Q32.2133 1464.49 25.1068 1464.49 Q17.9773 1464.49 14.4356 1466.32 Q10.8708 1468.13 10.8708 1471.76 M7.16713 1471.76 Q7.16713 1465.95 11.7736 1462.9 Q16.3569 1459.82 25.1068 1459.82 Q33.8337 1459.82 38.4401 1462.9 Q43.0234 1465.95 43.0234 1471.76 Q43.0234 1477.57 38.4401 1480.65 Q33.8337 1483.71 25.1068 1483.71 Q16.3569 1483.71 11.7736 1480.65 Q7.16713 1477.57 7.16713 1471.76 Z" fill="#000000" fill-rule="nonzero" fill-opacity="1" /><path clip-path="url(#clip070)" d="M10.8708 1441.6 Q10.8708 1445.21 14.4356 1447.04 Q17.9773 1448.85 25.1068 1448.85 Q32.2133 1448.85 35.7781 1447.04 Q39.3197 1445.21 39.3197 1441.6 Q39.3197 1437.97 35.7781 1436.16 Q32.2133 1434.33 25.1068 1434.33 Q17.9773 1434.33 14.4356 1436.16 Q10.8708 1437.97 10.8708 1441.6 M7.16713 1441.6 Q7.16713 1435.79 11.7736 1432.74 Q16.3569 1429.66 25.1068 1429.66 Q33.8337 1429.66 38.4401 1432.74 Q43.0234 1435.79 43.0234 1441.6 Q43.0234 1447.41 38.4401 1450.49 Q33.8337 1453.55 25.1068 1453.55 Q16.3569 1453.55 11.7736 1450.49 Q7.16713 1447.41 7.16713 1441.6 Z" fill="#000000" fill-rule="nonzero" fill-opacity="1" /><path clip-path="url(#clip070)" d="M10.8708 1168.91 Q10.8708 1172.52 14.4356 1174.35 Q17.9773 1176.16 25.1068 1176.16 Q32.2133 1176.16 35.7781 1174.35 Q39.3197 1172.52 39.3197 1168.91 Q39.3197 1165.28 35.7781 1163.47 Q32.2133 1161.64 25.1068 1161.64 Q17.9773 1161.64 14.4356 1163.47 Q10.8708 1165.28 10.8708 1168.91 M7.16713 1168.91 Q7.16713 1163.1 11.7736 1160.04 Q16.3569 1156.97 25.1068 1156.97 Q33.8337 1156.97 38.4401 1160.04 Q43.0234 1163.1 43.0234 1168.91 Q43.0234 1174.72 38.4401 1177.8 Q33.8337 1180.86 25.1068 1180.86 Q16.3569 1180.86 11.7736 1177.8 Q7.16713 1174.72 7.16713 1168.91 Z" fill="#000000" fill-rule="nonzero" fill-opacity="1" /><path clip-path="url(#clip070)" d="M36.4725 1148.75 L36.4725 1143.86 L42.3521 1143.86 L42.3521 1148.75 L36.4725 1148.75 Z" fill="#000000" fill-rule="nonzero" fill-opacity="1" /><path clip-path="url(#clip070)" d="M38.417 1129.65 L38.417 1113.33 L42.3521 1113.33 L42.3521 1135.28 L38.417 1135.28 Q35.6623 1132.61 31.0327 1128.03 Q26.38 1123.42 25.0374 1122.24 Q22.5143 1120 20.7782 1119.12 Q19.0189 1118.22 17.3291 1118.22 Q14.5745 1118.22 12.8384 1120.16 Q11.1023 1122.08 11.1023 1125.18 Q11.1023 1127.38 11.8662 1129.84 Q12.6301 1132.27 14.181 1135.05 L9.45878 1135.05 Q8.32453 1132.22 7.74583 1129.77 Q7.16713 1127.31 7.16713 1125.28 Q7.16713 1119.91 9.8523 1116.71 Q12.5375 1113.52 17.0282 1113.52 Q19.1578 1113.52 21.0791 1114.33 Q22.9772 1115.11 25.5698 1117.22 Q26.2411 1117.8 29.4587 1120.9 Q32.6531 1124 38.417 1129.65 Z" fill="#000000" fill-rule="nonzero" fill-opacity="1" /><path clip-path="url(#clip070)" d="M7.79213 1103.47 L7.79213 1085.11 L11.7273 1085.11 L11.7273 1099.19 L20.1995 1099.19 Q19.8522 1098.17 19.6902 1097.15 Q19.505 1096.13 19.505 1095.11 Q19.505 1089.33 22.6763 1085.95 Q25.8476 1082.57 31.2642 1082.57 Q36.8429 1082.57 39.9447 1086.04 Q43.0234 1089.51 43.0234 1095.83 Q43.0234 1098.01 42.6531 1100.28 Q42.2827 1102.52 41.5419 1104.93 L36.8429 1104.93 Q37.9771 1102.85 38.5327 1100.62 Q39.0883 1098.4 39.0883 1095.92 Q39.0883 1091.92 36.9818 1089.58 Q34.8753 1087.24 31.2642 1087.24 Q27.6531 1087.24 25.5467 1089.58 Q23.4402 1091.92 23.4402 1095.92 Q23.4402 1097.8 23.8569 1099.67 Q24.2735 1101.53 25.1531 1103.47 L7.79213 1103.47 Z" fill="#000000" fill-rule="nonzero" fill-opacity="1" /><path clip-path="url(#clip070)" d="M10.8708 821.823 Q10.8708 825.434 14.4356 827.262 Q17.9773 829.068 25.1068 829.068 Q32.2133 829.068 35.7781 827.262 Q39.3197 825.434 39.3197 821.823 Q39.3197 818.188 35.7781 816.383 Q32.2133 814.554 25.1068 814.554 Q17.9773 814.554 14.4356 816.383 Q10.8708 818.188 10.8708 821.823 M7.16713 821.823 Q7.16713 816.012 11.7736 812.957 Q16.3569 809.878 25.1068 809.878 Q33.8337 809.878 38.4401 812.957 Q43.0234 816.012 43.0234 821.823 Q43.0234 827.633 38.4401 830.711 Q33.8337 833.767 25.1068 833.767 Q16.3569 833.767 11.7736 830.711 Q7.16713 827.633 7.16713 821.823 Z" fill="#000000" fill-rule="nonzero" fill-opacity="1" /><path clip-path="url(#clip070)" d="M36.4725 801.661 L36.4725 796.776 L42.3521 796.776 L42.3521 801.661 L36.4725 801.661 Z" fill="#000000" fill-rule="nonzero" fill-opacity="1" /><path clip-path="url(#clip070)" d="M7.79213 786.545 L7.79213 768.189 L11.7273 768.189 L11.7273 782.263 L20.1995 782.263 Q19.8522 781.244 19.6902 780.226 Q19.505 779.207 19.505 778.189 Q19.505 772.402 22.6763 769.022 Q25.8476 765.642 31.2642 765.642 Q36.8429 765.642 39.9447 769.114 Q43.0234 772.587 43.0234 778.906 Q43.0234 781.082 42.6531 783.351 Q42.2827 785.596 41.5419 788.003 L36.8429 788.003 Q37.9771 785.92 38.5327 783.698 Q39.0883 781.476 39.0883 778.999 Q39.0883 774.994 36.9818 772.656 Q34.8753 770.318 31.2642 770.318 Q27.6531 770.318 25.5467 772.656 Q23.4402 774.994 23.4402 778.999 Q23.4402 780.874 23.8569 782.749 Q24.2735 784.601 25.1531 786.545 L7.79213 786.545 Z" fill="#000000" fill-rule="nonzero" fill-opacity="1" /><path clip-path="url(#clip070)" d="M10.8708 746.429 Q10.8708 750.041 14.4356 751.869 Q17.9773 753.675 25.1068 753.675 Q32.2133 753.675 35.7781 751.869 Q39.3197 750.041 39.3197 746.429 Q39.3197 742.795 35.7781 740.99 Q32.2133 739.161 25.1068 739.161 Q17.9773 739.161 14.4356 740.99 Q10.8708 742.795 10.8708 746.429 M7.16713 746.429 Q7.16713 740.619 11.7736 737.564 Q16.3569 734.485 25.1068 734.485 Q33.8337 734.485 38.4401 737.564 Q43.0234 740.619 43.0234 746.429 Q43.0234 752.24 38.4401 755.318 Q33.8337 758.374 25.1068 758.374 Q16.3569 758.374 11.7736 755.318 Q7.16713 752.24 7.16713 746.429 Z" fill="#000000" fill-rule="nonzero" fill-opacity="1" /><path clip-path="url(#clip070)" d="M10.8708 473.739 Q10.8708 477.35 14.4356 479.179 Q17.9773 480.984 25.1068 480.984 Q32.2133 480.984 35.7781 479.179 Q39.3197 477.35 39.3197 473.739 Q39.3197 470.105 35.7781 468.299 Q32.2133 466.471 25.1068 466.471 Q17.9773 466.471 14.4356 468.299 Q10.8708 470.105 10.8708 473.739 M7.16713 473.739 Q7.16713 467.929 11.7736 464.873 Q16.3569 461.795 25.1068 461.795 Q33.8337 461.795 38.4401 464.873 Q43.0234 467.929 43.0234 473.739 Q43.0234 479.549 38.4401 482.628 Q33.8337 485.683 25.1068 485.683 Q16.3569 485.683 11.7736 482.628 Q7.16713 479.549 7.16713 473.739 Z" fill="#000000" fill-rule="nonzero" fill-opacity="1" /><path clip-path="url(#clip070)" d="M36.4725 453.577 L36.4725 448.693 L42.3521 448.693 L42.3521 453.577 L36.4725 453.577 Z" fill="#000000" fill-rule="nonzero" fill-opacity="1" /><path clip-path="url(#clip070)" d="M7.79213 439.688 L7.79213 417.466 L9.78286 417.466 L42.3521 430.012 L42.3521 434.897 L11.7273 423.091 L11.7273 439.688 L7.79213 439.688 Z" fill="#000000" fill-rule="nonzero" fill-opacity="1" /><path clip-path="url(#clip070)" d="M7.79213 408.3 L7.79213 389.943 L11.7273 389.943 L11.7273 404.017 L20.1995 404.017 Q19.8522 402.999 19.6902 401.98 Q19.505 400.962 19.505 399.943 Q19.505 394.156 22.6763 390.777 Q25.8476 387.397 31.2642 387.397 Q36.8429 387.397 39.9447 390.869 Q43.0234 394.341 43.0234 400.661 Q43.0234 402.837 42.6531 405.105 Q42.2827 407.351 41.5419 409.758 L36.8429 409.758 Q37.9771 407.675 38.5327 405.452 Q39.0883 403.23 39.0883 400.753 Q39.0883 396.749 36.9818 394.411 Q34.8753 392.073 31.2642 392.073 Q27.6531 392.073 25.5467 394.411 Q23.4402 396.749 23.4402 400.753 Q23.4402 402.628 23.8569 404.503 Q24.2735 406.355 25.1531 408.3 L7.79213 408.3 Z" fill="#000000" fill-rule="nonzero" fill-opacity="1" /><path clip-path="url(#clip070)" d="M38.417 136.882 L38.417 129.244 L12.0514 129.244 L13.718 137.554 L9.45878 137.554 L7.79213 129.29 L7.79213 124.614 L38.417 124.614 L38.417 116.975 L42.3521 116.975 L42.3521 136.882 L38.417 136.882 Z" fill="#000000" fill-rule="nonzero" fill-opacity="1" /><path clip-path="url(#clip070)" d="M36.4725 107.531 L36.4725 102.646 L42.3521 102.646 L42.3521 107.531 L36.4725 107.531 Z" fill="#000000" fill-rule="nonzero" fill-opacity="1" /><path clip-path="url(#clip070)" d="M10.8708 82.4614 Q10.8708 86.0725 14.4356 87.9012 Q17.9773 89.7067 25.1068 89.7067 Q32.2133 89.7067 35.7781 87.9012 Q39.3197 86.0725 39.3197 82.4614 Q39.3197 78.8271 35.7781 77.0216 Q32.2133 75.1929 25.1068 75.1929 Q17.9773 75.1929 14.4356 77.0216 Q10.8708 78.8271 10.8708 82.4614 M7.16713 82.4614 Q7.16713 76.6512 11.7736 73.5957 Q16.3569 70.517 25.1068 70.517 Q33.8337 70.517 38.4401 73.5957 Q43.0234 76.6512 43.0234 82.4614 Q43.0234 88.2715 38.4401 91.3502 Q33.8337 94.4057 25.1068 94.4057 Q16.3569 94.4057 11.7736 91.3502 Q7.16713 88.2715 7.16713 82.4614 Z" fill="#000000" fill-rule="nonzero" fill-opacity="1" /><path clip-path="url(#clip070)" d="M10.8708 52.2995 Q10.8708 55.9106 14.4356 57.7393 Q17.9773 59.5448 25.1068 59.5448 Q32.2133 59.5448 35.7781 57.7393 Q39.3197 55.9106 39.3197 52.2995 Q39.3197 48.6653 35.7781 46.8597 Q32.2133 45.031 25.1068 45.031 Q17.9773 45.031 14.4356 46.8597 Q10.8708 48.6653 10.8708 52.2995 M7.16713 52.2995 Q7.16713 46.4893 11.7736 43.4338 Q16.3569 40.3551 25.1068 40.3551 Q33.8337 40.3551 38.4401 43.4338 Q43.0234 46.4893 43.0234 52.2995 Q43.0234 58.1096 38.4401 61.1883 Q33.8337 64.2439 25.1068 64.2439 Q16.3569 64.2439 11.7736 61.1883 Q7.16713 58.1096 7.16713 52.2995 Z" fill="#000000" fill-rule="nonzero" fill-opacity="1" /><polyline clip-path="url(#clip072)" style="stroke:#009af9; stroke-linecap:round; stroke-linejoin:round; stroke-width:4; stroke-opacity:1; fill:none" points="151.118,88.9544 194.74,672.899 238.363,1006.58 281.986,1159.52 325.608,1284.65 369.231,1354.17 412.854,1270.75 456.477,1395.88 500.099,1340.26 543.722,1451.49 587.345,1451.49 630.967,1465.39 674.59,1451.49 718.213,1465.39 761.836,1423.68 805.458,1465.39 849.081,1479.3 892.704,1451.49 936.326,1465.39 979.949,1479.3 1023.57,1479.3 1067.19,1465.39 1110.82,1465.39 1154.44,1479.3 1198.06,1479.3 1241.69,1479.3 1285.31,1479.3 1328.93,1479.3 1372.55,1465.39 1416.18,1479.3 1459.8,1479.3 1503.42,1479.3 1547.04,1479.3 1590.67,1479.3 1634.29,1479.3 1677.91,1479.3 1721.54,1479.3 1765.16,1479.3 1808.78,1479.3 1852.4,1479.3 1896.03,1479.3 1939.65,1479.3 1983.27,1479.3 2026.89,1479.3 2070.52,1479.3 2114.14,1479.3 2157.76,1479.3 2201.39,1479.3 2245.01,1479.3 2288.63,1479.3 "/>
</svg>
