<?xml version="1.0" encoding="utf-8"?>
<svg xmlns="http://www.w3.org/2000/svg" xmlns:xlink="http://www.w3.org/1999/xlink" width="600" height="400" viewBox="0 0 2400 1600">
<defs>
  <clipPath id="clip510">
    <rect x="0" y="0" width="2400" height="1600"/>
  </clipPath>
</defs>
<path clip-path="url(#clip510)" d="M0 1600 L2400 1600 L2400 0 L0 0  Z" fill="#ffffff" fill-rule="evenodd" fill-opacity="1"/>
<defs>
  <clipPath id="clip511">
    <rect x="480" y="0" width="1681" height="1600"/>
  </clipPath>
</defs>
<path clip-path="url(#clip510)" d="M157.257 1474.16 L2352.76 1474.16 L2352.76 47.2441 L157.257 47.2441  Z" fill="#ffffff" fill-rule="evenodd" fill-opacity="1"/>
<defs>
  <clipPath id="clip512">
    <rect x="157" y="47" width="2196" height="1428"/>
  </clipPath>
</defs>
<polyline clip-path="url(#clip512)" style="stroke:#000000; stroke-linecap:round; stroke-linejoin:round; stroke-width:2; stroke-opacity:0.1; fill:none" points="219.394,1474.16 219.394,47.2441 "/>
<polyline clip-path="url(#clip512)" style="stroke:#000000; stroke-linecap:round; stroke-linejoin:round; stroke-width:2; stroke-opacity:0.1; fill:none" points="613.688,1474.16 613.688,47.2441 "/>
<polyline clip-path="url(#clip512)" style="stroke:#000000; stroke-linecap:round; stroke-linejoin:round; stroke-width:2; stroke-opacity:0.1; fill:none" points="1007.98,1474.16 1007.98,47.2441 "/>
<polyline clip-path="url(#clip512)" style="stroke:#000000; stroke-linecap:round; stroke-linejoin:round; stroke-width:2; stroke-opacity:0.1; fill:none" points="1402.28,1474.16 1402.28,47.2441 "/>
<polyline clip-path="url(#clip512)" style="stroke:#000000; stroke-linecap:round; stroke-linejoin:round; stroke-width:2; stroke-opacity:0.1; fill:none" points="1796.57,1474.16 1796.57,47.2441 "/>
<polyline clip-path="url(#clip512)" style="stroke:#000000; stroke-linecap:round; stroke-linejoin:round; stroke-width:2; stroke-opacity:0.1; fill:none" points="2190.87,1474.16 2190.87,47.2441 "/>
<polyline clip-path="url(#clip510)" style="stroke:#000000; stroke-linecap:round; stroke-linejoin:round; stroke-width:4; stroke-opacity:1; fill:none" points="157.257,1474.16 2352.76,1474.16 "/>
<polyline clip-path="url(#clip510)" style="stroke:#000000; stroke-linecap:round; stroke-linejoin:round; stroke-width:4; stroke-opacity:1; fill:none" points="219.394,1474.16 219.394,1455.27 "/>
<polyline clip-path="url(#clip510)" style="stroke:#000000; stroke-linecap:round; stroke-linejoin:round; stroke-width:4; stroke-opacity:1; fill:none" points="613.688,1474.16 613.688,1455.27 "/>
<polyline clip-path="url(#clip510)" style="stroke:#000000; stroke-linecap:round; stroke-linejoin:round; stroke-width:4; stroke-opacity:1; fill:none" points="1007.98,1474.16 1007.98,1455.27 "/>
<polyline clip-path="url(#clip510)" style="stroke:#000000; stroke-linecap:round; stroke-linejoin:round; stroke-width:4; stroke-opacity:1; fill:none" points="1402.28,1474.16 1402.28,1455.27 "/>
<polyline clip-path="url(#clip510)" style="stroke:#000000; stroke-linecap:round; stroke-linejoin:round; stroke-width:4; stroke-opacity:1; fill:none" points="1796.57,1474.16 1796.57,1455.27 "/>
<polyline clip-path="url(#clip510)" style="stroke:#000000; stroke-linecap:round; stroke-linejoin:round; stroke-width:4; stroke-opacity:1; fill:none" points="2190.87,1474.16 2190.87,1455.27 "/>
<path clip-path="url(#clip510)" d="M219.394 1505.08 Q215.783 1505.08 213.954 1508.65 Q212.148 1512.19 212.148 1519.32 Q212.148 1526.43 213.954 1529.99 Q215.783 1533.53 219.394 1533.53 Q223.028 1533.53 224.833 1529.99 Q226.662 1526.43 226.662 1519.32 Q226.662 1512.19 224.833 1508.65 Q223.028 1505.08 219.394 1505.08 M219.394 1501.38 Q225.204 1501.38 228.259 1505.99 Q231.338 1510.57 231.338 1519.32 Q231.338 1528.05 228.259 1532.65 Q225.204 1537.24 219.394 1537.24 Q213.584 1537.24 210.505 1532.65 Q207.449 1528.05 207.449 1519.32 Q207.449 1510.57 210.505 1505.99 Q213.584 1501.38 219.394 1501.38 Z" fill="#000000" fill-rule="nonzero" fill-opacity="1" /><path clip-path="url(#clip510)" d="M493.993 1548.29 L501.632 1548.29 L501.632 1521.92 L493.322 1523.59 L493.322 1519.33 L501.585 1517.66 L506.261 1517.66 L506.261 1548.29 L513.9 1548.29 L513.9 1552.22 L493.993 1552.22 L493.993 1548.29 Z" fill="#000000" fill-rule="nonzero" fill-opacity="1" /><path clip-path="url(#clip510)" d="M523.345 1546.35 L528.229 1546.35 L528.229 1552.22 L523.345 1552.22 L523.345 1546.35 Z" fill="#000000" fill-rule="nonzero" fill-opacity="1" /><path clip-path="url(#clip510)" d="M548.414 1520.74 Q544.803 1520.74 542.974 1524.31 Q541.169 1527.85 541.169 1534.98 Q541.169 1542.09 542.974 1545.65 Q544.803 1549.19 548.414 1549.19 Q552.048 1549.19 553.854 1545.65 Q555.682 1542.09 555.682 1534.98 Q555.682 1527.85 553.854 1524.31 Q552.048 1520.74 548.414 1520.74 M548.414 1517.04 Q554.224 1517.04 557.28 1521.65 Q560.358 1526.23 560.358 1534.98 Q560.358 1543.71 557.28 1548.31 Q554.224 1552.9 548.414 1552.9 Q542.604 1552.9 539.525 1548.31 Q536.47 1543.71 536.47 1534.98 Q536.47 1526.23 539.525 1521.65 Q542.604 1517.04 548.414 1517.04 Z" fill="#000000" fill-rule="nonzero" fill-opacity="1" /><path clip-path="url(#clip510)" d="M596.747 1526.76 L586.168 1537.39 L596.747 1547.97 L593.992 1550.77 L583.367 1540.14 L572.743 1550.77 L570.011 1547.97 L580.567 1537.39 L570.011 1526.76 L572.743 1523.96 L583.367 1534.59 L593.992 1523.96 L596.747 1526.76 Z" fill="#000000" fill-rule="nonzero" fill-opacity="1" /><path clip-path="url(#clip510)" d="M609.108 1548.29 L616.747 1548.29 L616.747 1521.92 L608.437 1523.59 L608.437 1519.33 L616.701 1517.66 L621.377 1517.66 L621.377 1548.29 L629.015 1548.29 L629.015 1552.22 L609.108 1552.22 L609.108 1548.29 Z" fill="#000000" fill-rule="nonzero" fill-opacity="1" /><path clip-path="url(#clip510)" d="M648.46 1520.74 Q644.849 1520.74 643.02 1524.31 Q641.214 1527.85 641.214 1534.98 Q641.214 1542.09 643.02 1545.65 Q644.849 1549.19 648.46 1549.19 Q652.094 1549.19 653.899 1545.65 Q655.728 1542.09 655.728 1534.98 Q655.728 1527.85 653.899 1524.31 Q652.094 1520.74 648.46 1520.74 M648.46 1517.04 Q654.27 1517.04 657.325 1521.65 Q660.404 1526.23 660.404 1534.98 Q660.404 1543.71 657.325 1548.31 Q654.27 1552.9 648.46 1552.9 Q642.65 1552.9 639.571 1548.31 Q636.515 1543.71 636.515 1534.98 Q636.515 1526.23 639.571 1521.65 Q642.65 1517.04 648.46 1517.04 Z" fill="#000000" fill-rule="nonzero" fill-opacity="1" /><path clip-path="url(#clip510)" d="M660.404 1511.14 L684.516 1511.14 L684.516 1514.34 L660.404 1514.34 L660.404 1511.14 Z" fill="#000000" fill-rule="nonzero" fill-opacity="1" /><path clip-path="url(#clip510)" d="M693.374 1521.62 L699.581 1521.62 L699.581 1500.19 L692.829 1501.55 L692.829 1498.09 L699.543 1496.73 L703.342 1496.73 L703.342 1521.62 L709.549 1521.62 L709.549 1524.81 L693.374 1524.81 L693.374 1521.62 Z" fill="#000000" fill-rule="nonzero" fill-opacity="1" /><path clip-path="url(#clip510)" d="M717.881 1521.62 L724.087 1521.62 L724.087 1500.19 L717.335 1501.55 L717.335 1498.09 L724.05 1496.73 L727.849 1496.73 L727.849 1521.62 L734.055 1521.62 L734.055 1524.81 L717.881 1524.81 L717.881 1521.62 Z" fill="#000000" fill-rule="nonzero" fill-opacity="1" /><path clip-path="url(#clip510)" d="M892.373 1548.29 L908.693 1548.29 L908.693 1552.22 L886.748 1552.22 L886.748 1548.29 Q889.41 1545.53 893.994 1540.91 Q898.6 1536.25 899.781 1534.91 Q902.026 1532.39 902.906 1530.65 Q903.808 1528.89 903.808 1527.2 Q903.808 1524.45 901.864 1522.71 Q899.943 1520.97 896.841 1520.97 Q894.642 1520.97 892.188 1521.74 Q889.758 1522.5 886.98 1524.05 L886.98 1519.33 Q889.804 1518.2 892.258 1517.62 Q894.711 1517.04 896.748 1517.04 Q902.119 1517.04 905.313 1519.72 Q908.508 1522.41 908.508 1526.9 Q908.508 1529.03 907.697 1530.95 Q906.91 1532.85 904.804 1535.44 Q904.225 1536.11 901.123 1539.33 Q898.021 1542.53 892.373 1548.29 Z" fill="#000000" fill-rule="nonzero" fill-opacity="1" /><path clip-path="url(#clip510)" d="M918.507 1546.35 L923.392 1546.35 L923.392 1552.22 L918.507 1552.22 L918.507 1546.35 Z" fill="#000000" fill-rule="nonzero" fill-opacity="1" /><path clip-path="url(#clip510)" d="M943.577 1520.74 Q939.966 1520.74 938.137 1524.31 Q936.331 1527.85 936.331 1534.98 Q936.331 1542.09 938.137 1545.65 Q939.966 1549.19 943.577 1549.19 Q947.211 1549.19 949.017 1545.65 Q950.845 1542.09 950.845 1534.98 Q950.845 1527.85 949.017 1524.31 Q947.211 1520.74 943.577 1520.74 M943.577 1517.04 Q949.387 1517.04 952.442 1521.65 Q955.521 1526.23 955.521 1534.98 Q955.521 1543.71 952.442 1548.31 Q949.387 1552.9 943.577 1552.9 Q937.767 1552.9 934.688 1548.31 Q931.632 1543.71 931.632 1534.98 Q931.632 1526.23 934.688 1521.65 Q937.767 1517.04 943.577 1517.04 Z" fill="#000000" fill-rule="nonzero" fill-opacity="1" /><path clip-path="url(#clip510)" d="M991.91 1526.76 L981.331 1537.39 L991.91 1547.97 L989.155 1550.77 L978.53 1540.14 L967.905 1550.77 L965.174 1547.97 L975.729 1537.39 L965.174 1526.76 L967.905 1523.96 L978.53 1534.59 L989.155 1523.96 L991.91 1526.76 Z" fill="#000000" fill-rule="nonzero" fill-opacity="1" /><path clip-path="url(#clip510)" d="M1004.27 1548.29 L1011.91 1548.29 L1011.91 1521.92 L1003.6 1523.59 L1003.6 1519.33 L1011.86 1517.66 L1016.54 1517.66 L1016.54 1548.29 L1024.18 1548.29 L1024.18 1552.22 L1004.27 1552.22 L1004.27 1548.29 Z" fill="#000000" fill-rule="nonzero" fill-opacity="1" /><path clip-path="url(#clip510)" d="M1043.62 1520.74 Q1040.01 1520.74 1038.18 1524.31 Q1036.38 1527.85 1036.38 1534.98 Q1036.38 1542.09 1038.18 1545.65 Q1040.01 1549.19 1043.62 1549.19 Q1047.26 1549.19 1049.06 1545.65 Q1050.89 1542.09 1050.89 1534.98 Q1050.89 1527.85 1049.06 1524.31 Q1047.26 1520.74 1043.62 1520.74 M1043.62 1517.04 Q1049.43 1517.04 1052.49 1521.65 Q1055.57 1526.23 1055.57 1534.98 Q1055.57 1543.71 1052.49 1548.31 Q1049.43 1552.9 1043.62 1552.9 Q1037.81 1552.9 1034.73 1548.31 Q1031.68 1543.71 1031.68 1534.98 Q1031.68 1526.23 1034.73 1521.65 Q1037.81 1517.04 1043.62 1517.04 Z" fill="#000000" fill-rule="nonzero" fill-opacity="1" /><path clip-path="url(#clip510)" d="M1055.57 1511.14 L1079.68 1511.14 L1079.68 1514.34 L1055.57 1514.34 L1055.57 1511.14 Z" fill="#000000" fill-rule="nonzero" fill-opacity="1" /><path clip-path="url(#clip510)" d="M1088.54 1521.62 L1094.74 1521.62 L1094.74 1500.19 L1087.99 1501.55 L1087.99 1498.09 L1094.71 1496.73 L1098.51 1496.73 L1098.51 1521.62 L1104.71 1521.62 L1104.71 1524.81 L1088.54 1524.81 L1088.54 1521.62 Z" fill="#000000" fill-rule="nonzero" fill-opacity="1" /><path clip-path="url(#clip510)" d="M1113.04 1521.62 L1119.25 1521.62 L1119.25 1500.19 L1112.5 1501.55 L1112.5 1498.09 L1119.21 1496.73 L1123.01 1496.73 L1123.01 1521.62 L1129.22 1521.62 L1129.22 1524.81 L1113.04 1524.81 L1113.04 1521.62 Z" fill="#000000" fill-rule="nonzero" fill-opacity="1" /><path clip-path="url(#clip510)" d="M1296.74 1533.59 Q1300.09 1534.31 1301.97 1536.58 Q1303.87 1538.85 1303.87 1542.18 Q1303.87 1547.29 1300.35 1550.1 Q1296.83 1552.9 1290.35 1552.9 Q1288.17 1552.9 1285.86 1552.46 Q1283.57 1552.04 1281.11 1551.18 L1281.11 1546.67 Q1283.06 1547.8 1285.37 1548.38 Q1287.69 1548.96 1290.21 1548.96 Q1294.61 1548.96 1296.9 1547.22 Q1299.21 1545.49 1299.21 1542.18 Q1299.21 1539.12 1297.06 1537.41 Q1294.93 1535.67 1291.11 1535.67 L1287.08 1535.67 L1287.08 1531.83 L1291.3 1531.83 Q1294.75 1531.83 1296.58 1530.47 Q1298.4 1529.08 1298.4 1526.48 Q1298.4 1523.82 1296.51 1522.41 Q1294.63 1520.97 1291.11 1520.97 Q1289.19 1520.97 1286.99 1521.39 Q1284.79 1521.81 1282.15 1522.69 L1282.15 1518.52 Q1284.82 1517.78 1287.13 1517.41 Q1289.47 1517.04 1291.53 1517.04 Q1296.85 1517.04 1299.96 1519.47 Q1303.06 1521.88 1303.06 1526 Q1303.06 1528.87 1301.41 1530.86 Q1299.77 1532.83 1296.74 1533.59 Z" fill="#000000" fill-rule="nonzero" fill-opacity="1" /><path clip-path="url(#clip510)" d="M1312.73 1546.35 L1317.62 1546.35 L1317.62 1552.22 L1312.73 1552.22 L1312.73 1546.35 Z" fill="#000000" fill-rule="nonzero" fill-opacity="1" /><path clip-path="url(#clip510)" d="M1337.8 1520.74 Q1334.19 1520.74 1332.36 1524.31 Q1330.56 1527.85 1330.56 1534.98 Q1330.56 1542.09 1332.36 1545.65 Q1334.19 1549.19 1337.8 1549.19 Q1341.44 1549.19 1343.24 1545.65 Q1345.07 1542.09 1345.07 1534.98 Q1345.07 1527.85 1343.24 1524.31 Q1341.44 1520.74 1337.8 1520.74 M1337.8 1517.04 Q1343.61 1517.04 1346.67 1521.65 Q1349.75 1526.23 1349.75 1534.98 Q1349.75 1543.71 1346.67 1548.31 Q1343.61 1552.9 1337.8 1552.9 Q1331.99 1552.9 1328.91 1548.31 Q1325.86 1543.71 1325.86 1534.98 Q1325.86 1526.23 1328.91 1521.65 Q1331.99 1517.04 1337.8 1517.04 Z" fill="#000000" fill-rule="nonzero" fill-opacity="1" /><path clip-path="url(#clip510)" d="M1386.14 1526.76 L1375.56 1537.39 L1386.14 1547.97 L1383.38 1550.77 L1372.76 1540.14 L1362.13 1550.77 L1359.4 1547.97 L1369.95 1537.39 L1359.4 1526.76 L1362.13 1523.96 L1372.76 1534.59 L1383.38 1523.96 L1386.14 1526.76 Z" fill="#000000" fill-rule="nonzero" fill-opacity="1" /><path clip-path="url(#clip510)" d="M1398.5 1548.29 L1406.14 1548.29 L1406.14 1521.92 L1397.82 1523.59 L1397.82 1519.33 L1406.09 1517.66 L1410.76 1517.66 L1410.76 1548.29 L1418.4 1548.29 L1418.4 1552.22 L1398.5 1552.22 L1398.5 1548.29 Z" fill="#000000" fill-rule="nonzero" fill-opacity="1" /><path clip-path="url(#clip510)" d="M1437.85 1520.74 Q1434.24 1520.74 1432.41 1524.31 Q1430.6 1527.85 1430.6 1534.98 Q1430.6 1542.09 1432.41 1545.65 Q1434.24 1549.19 1437.85 1549.19 Q1441.48 1549.19 1443.29 1545.65 Q1445.12 1542.09 1445.12 1534.98 Q1445.12 1527.85 1443.29 1524.31 Q1441.48 1520.74 1437.85 1520.74 M1437.85 1517.04 Q1443.66 1517.04 1446.71 1521.65 Q1449.79 1526.23 1449.79 1534.98 Q1449.79 1543.71 1446.71 1548.31 Q1443.66 1552.9 1437.85 1552.9 Q1432.04 1552.9 1428.96 1548.31 Q1425.9 1543.71 1425.9 1534.98 Q1425.9 1526.23 1428.96 1521.65 Q1432.04 1517.04 1437.85 1517.04 Z" fill="#000000" fill-rule="nonzero" fill-opacity="1" /><path clip-path="url(#clip510)" d="M1449.79 1511.14 L1473.9 1511.14 L1473.9 1514.34 L1449.79 1514.34 L1449.79 1511.14 Z" fill="#000000" fill-rule="nonzero" fill-opacity="1" /><path clip-path="url(#clip510)" d="M1482.76 1521.62 L1488.97 1521.62 L1488.97 1500.19 L1482.22 1501.55 L1482.22 1498.09 L1488.93 1496.73 L1492.73 1496.73 L1492.73 1521.62 L1498.94 1521.62 L1498.94 1524.81 L1482.76 1524.81 L1482.76 1521.62 Z" fill="#000000" fill-rule="nonzero" fill-opacity="1" /><path clip-path="url(#clip510)" d="M1507.27 1521.62 L1513.48 1521.62 L1513.48 1500.19 L1506.72 1501.55 L1506.72 1498.09 L1513.44 1496.73 L1517.24 1496.73 L1517.24 1521.62 L1523.44 1521.62 L1523.44 1524.81 L1507.27 1524.81 L1507.27 1521.62 Z" fill="#000000" fill-rule="nonzero" fill-opacity="1" /><path clip-path="url(#clip510)" d="M1690.36 1521.74 L1678.56 1540.19 L1690.36 1540.19 L1690.36 1521.74 M1689.13 1517.66 L1695.01 1517.66 L1695.01 1540.19 L1699.94 1540.19 L1699.94 1544.08 L1695.01 1544.08 L1695.01 1552.22 L1690.36 1552.22 L1690.36 1544.08 L1674.76 1544.08 L1674.76 1539.56 L1689.13 1517.66 Z" fill="#000000" fill-rule="nonzero" fill-opacity="1" /><path clip-path="url(#clip510)" d="M1707.68 1546.35 L1712.56 1546.35 L1712.56 1552.22 L1707.68 1552.22 L1707.68 1546.35 Z" fill="#000000" fill-rule="nonzero" fill-opacity="1" /><path clip-path="url(#clip510)" d="M1732.75 1520.74 Q1729.13 1520.74 1727.31 1524.31 Q1725.5 1527.85 1725.5 1534.98 Q1725.5 1542.09 1727.31 1545.65 Q1729.13 1549.19 1732.75 1549.19 Q1736.38 1549.19 1738.18 1545.65 Q1740.01 1542.09 1740.01 1534.98 Q1740.01 1527.85 1738.18 1524.31 Q1736.38 1520.74 1732.75 1520.74 M1732.75 1517.04 Q1738.56 1517.04 1741.61 1521.65 Q1744.69 1526.23 1744.69 1534.98 Q1744.69 1543.71 1741.61 1548.31 Q1738.56 1552.9 1732.75 1552.9 Q1726.93 1552.9 1723.86 1548.31 Q1720.8 1543.71 1720.8 1534.98 Q1720.8 1526.23 1723.86 1521.65 Q1726.93 1517.04 1732.75 1517.04 Z" fill="#000000" fill-rule="nonzero" fill-opacity="1" /><path clip-path="url(#clip510)" d="M1781.08 1526.76 L1770.5 1537.39 L1781.08 1547.97 L1778.32 1550.77 L1767.7 1540.14 L1757.07 1550.77 L1754.34 1547.97 L1764.9 1537.39 L1754.34 1526.76 L1757.07 1523.96 L1767.7 1534.59 L1778.32 1523.96 L1781.08 1526.76 Z" fill="#000000" fill-rule="nonzero" fill-opacity="1" /><path clip-path="url(#clip510)" d="M1793.44 1548.29 L1801.08 1548.29 L1801.08 1521.92 L1792.77 1523.59 L1792.77 1519.33 L1801.03 1517.66 L1805.71 1517.66 L1805.71 1548.29 L1813.35 1548.29 L1813.35 1552.22 L1793.44 1552.22 L1793.44 1548.29 Z" fill="#000000" fill-rule="nonzero" fill-opacity="1" /><path clip-path="url(#clip510)" d="M1832.79 1520.74 Q1829.18 1520.74 1827.35 1524.31 Q1825.55 1527.85 1825.55 1534.98 Q1825.55 1542.09 1827.35 1545.65 Q1829.18 1549.19 1832.79 1549.19 Q1836.43 1549.19 1838.23 1545.65 Q1840.06 1542.09 1840.06 1534.98 Q1840.06 1527.85 1838.23 1524.31 Q1836.43 1520.74 1832.79 1520.74 M1832.79 1517.04 Q1838.6 1517.04 1841.66 1521.65 Q1844.74 1526.23 1844.74 1534.98 Q1844.74 1543.71 1841.66 1548.31 Q1838.6 1552.9 1832.79 1552.9 Q1826.98 1552.9 1823.9 1548.31 Q1820.85 1543.71 1820.85 1534.98 Q1820.85 1526.23 1823.9 1521.65 Q1826.98 1517.04 1832.79 1517.04 Z" fill="#000000" fill-rule="nonzero" fill-opacity="1" /><path clip-path="url(#clip510)" d="M1844.74 1511.14 L1868.85 1511.14 L1868.85 1514.34 L1844.74 1514.34 L1844.74 1511.14 Z" fill="#000000" fill-rule="nonzero" fill-opacity="1" /><path clip-path="url(#clip510)" d="M1877.71 1521.62 L1883.91 1521.62 L1883.91 1500.19 L1877.16 1501.55 L1877.16 1498.09 L1883.87 1496.73 L1887.67 1496.73 L1887.67 1521.62 L1893.88 1521.62 L1893.88 1524.81 L1877.71 1524.81 L1877.71 1521.62 Z" fill="#000000" fill-rule="nonzero" fill-opacity="1" /><path clip-path="url(#clip510)" d="M1902.21 1521.62 L1908.42 1521.62 L1908.42 1500.19 L1901.67 1501.55 L1901.67 1498.09 L1908.38 1496.73 L1912.18 1496.73 L1912.18 1521.62 L1918.39 1521.62 L1918.39 1524.81 L1902.21 1524.81 L1902.21 1521.62 Z" fill="#000000" fill-rule="nonzero" fill-opacity="1" /><path clip-path="url(#clip510)" d="M2071.18 1517.66 L2089.54 1517.66 L2089.54 1521.6 L2075.47 1521.6 L2075.47 1530.07 Q2076.48 1529.72 2077.5 1529.56 Q2078.52 1529.38 2079.54 1529.38 Q2085.33 1529.38 2088.71 1532.55 Q2092.09 1535.72 2092.09 1541.14 Q2092.09 1546.72 2088.61 1549.82 Q2085.14 1552.9 2078.82 1552.9 Q2076.65 1552.9 2074.38 1552.53 Q2072.13 1552.16 2069.73 1551.41 L2069.73 1546.72 Q2071.81 1547.85 2074.03 1548.41 Q2076.25 1548.96 2078.73 1548.96 Q2082.73 1548.96 2085.07 1546.85 Q2087.41 1544.75 2087.41 1541.14 Q2087.41 1537.53 2085.07 1535.42 Q2082.73 1533.31 2078.73 1533.31 Q2076.85 1533.31 2074.98 1533.73 Q2073.13 1534.15 2071.18 1535.03 L2071.18 1517.66 Z" fill="#000000" fill-rule="nonzero" fill-opacity="1" /><path clip-path="url(#clip510)" d="M2101.3 1546.35 L2106.18 1546.35 L2106.18 1552.22 L2101.3 1552.22 L2101.3 1546.35 Z" fill="#000000" fill-rule="nonzero" fill-opacity="1" /><path clip-path="url(#clip510)" d="M2126.37 1520.74 Q2122.76 1520.74 2120.93 1524.31 Q2119.12 1527.85 2119.12 1534.98 Q2119.12 1542.09 2120.93 1545.65 Q2122.76 1549.19 2126.37 1549.19 Q2130 1549.19 2131.81 1545.65 Q2133.64 1542.09 2133.64 1534.98 Q2133.64 1527.85 2131.81 1524.31 Q2130 1520.74 2126.37 1520.74 M2126.37 1517.04 Q2132.18 1517.04 2135.23 1521.65 Q2138.31 1526.23 2138.31 1534.98 Q2138.31 1543.71 2135.23 1548.31 Q2132.18 1552.9 2126.37 1552.9 Q2120.56 1552.9 2117.48 1548.31 Q2114.42 1543.71 2114.42 1534.98 Q2114.42 1526.23 2117.48 1521.65 Q2120.56 1517.04 2126.37 1517.04 Z" fill="#000000" fill-rule="nonzero" fill-opacity="1" /><path clip-path="url(#clip510)" d="M2174.7 1526.76 L2164.12 1537.39 L2174.7 1547.97 L2171.95 1550.77 L2161.32 1540.14 L2150.7 1550.77 L2147.97 1547.97 L2158.52 1537.39 L2147.97 1526.76 L2150.7 1523.96 L2161.32 1534.59 L2171.95 1523.96 L2174.7 1526.76 Z" fill="#000000" fill-rule="nonzero" fill-opacity="1" /><path clip-path="url(#clip510)" d="M2187.06 1548.29 L2194.7 1548.29 L2194.7 1521.92 L2186.39 1523.59 L2186.39 1519.33 L2194.66 1517.66 L2199.33 1517.66 L2199.33 1548.29 L2206.97 1548.29 L2206.97 1552.22 L2187.06 1552.22 L2187.06 1548.29 Z" fill="#000000" fill-rule="nonzero" fill-opacity="1" /><path clip-path="url(#clip510)" d="M2226.41 1520.74 Q2222.8 1520.74 2220.97 1524.31 Q2219.17 1527.85 2219.17 1534.98 Q2219.17 1542.09 2220.97 1545.65 Q2222.8 1549.19 2226.41 1549.19 Q2230.05 1549.19 2231.85 1545.65 Q2233.68 1542.09 2233.68 1534.98 Q2233.68 1527.85 2231.85 1524.31 Q2230.05 1520.74 2226.41 1520.74 M2226.41 1517.04 Q2232.22 1517.04 2235.28 1521.65 Q2238.36 1526.23 2238.36 1534.98 Q2238.36 1543.71 2235.28 1548.31 Q2232.22 1552.9 2226.41 1552.9 Q2220.6 1552.9 2217.53 1548.31 Q2214.47 1543.71 2214.47 1534.98 Q2214.47 1526.23 2217.53 1521.65 Q2220.6 1517.04 2226.41 1517.04 Z" fill="#000000" fill-rule="nonzero" fill-opacity="1" /><path clip-path="url(#clip510)" d="M2238.36 1511.14 L2262.47 1511.14 L2262.47 1514.34 L2238.36 1514.34 L2238.36 1511.14 Z" fill="#000000" fill-rule="nonzero" fill-opacity="1" /><path clip-path="url(#clip510)" d="M2271.33 1521.62 L2277.54 1521.62 L2277.54 1500.19 L2270.78 1501.55 L2270.78 1498.09 L2277.5 1496.73 L2281.3 1496.73 L2281.3 1521.62 L2287.5 1521.62 L2287.5 1524.81 L2271.33 1524.81 L2271.33 1521.62 Z" fill="#000000" fill-rule="nonzero" fill-opacity="1" /><path clip-path="url(#clip510)" d="M2295.84 1521.62 L2302.04 1521.62 L2302.04 1500.19 L2295.29 1501.55 L2295.29 1498.09 L2302 1496.73 L2305.8 1496.73 L2305.8 1521.62 L2312.01 1521.62 L2312.01 1524.81 L2295.84 1524.81 L2295.84 1521.62 Z" fill="#000000" fill-rule="nonzero" fill-opacity="1" /><polyline clip-path="url(#clip512)" style="stroke:#000000; stroke-linecap:round; stroke-linejoin:round; stroke-width:2; stroke-opacity:0.1; fill:none" points="157.257,1433.78 2352.76,1433.78 "/>
<polyline clip-path="url(#clip512)" style="stroke:#000000; stroke-linecap:round; stroke-linejoin:round; stroke-width:2; stroke-opacity:0.1; fill:none" points="157.257,978.733 2352.76,978.733 "/>
<polyline clip-path="url(#clip512)" style="stroke:#000000; stroke-linecap:round; stroke-linejoin:round; stroke-width:2; stroke-opacity:0.1; fill:none" points="157.257,523.686 2352.76,523.686 "/>
<polyline clip-path="url(#clip512)" style="stroke:#000000; stroke-linecap:round; stroke-linejoin:round; stroke-width:2; stroke-opacity:0.1; fill:none" points="157.257,68.6392 2352.76,68.6392 "/>
<polyline clip-path="url(#clip510)" style="stroke:#000000; stroke-linecap:round; stroke-linejoin:round; stroke-width:4; stroke-opacity:1; fill:none" points="157.257,1474.16 157.257,47.2441 "/>
<polyline clip-path="url(#clip510)" style="stroke:#000000; stroke-linecap:round; stroke-linejoin:round; stroke-width:4; stroke-opacity:1; fill:none" points="157.257,1433.78 176.155,1433.78 "/>
<polyline clip-path="url(#clip510)" style="stroke:#000000; stroke-linecap:round; stroke-linejoin:round; stroke-width:4; stroke-opacity:1; fill:none" points="157.257,978.733 176.155,978.733 "/>
<polyline clip-path="url(#clip510)" style="stroke:#000000; stroke-linecap:round; stroke-linejoin:round; stroke-width:4; stroke-opacity:1; fill:none" points="157.257,523.686 176.155,523.686 "/>
<polyline clip-path="url(#clip510)" style="stroke:#000000; stroke-linecap:round; stroke-linejoin:round; stroke-width:4; stroke-opacity:1; fill:none" points="157.257,68.6392 176.155,68.6392 "/>
<path clip-path="url(#clip510)" d="M81.1356 1433.78 Q81.1356 1437.39 84.7004 1439.22 Q88.2421 1441.03 95.3716 1441.03 Q102.478 1441.03 106.043 1439.22 Q109.585 1437.39 109.585 1433.78 Q109.585 1430.15 106.043 1428.34 Q102.478 1426.51 95.3716 1426.51 Q88.2421 1426.51 84.7004 1428.34 Q81.1356 1430.15 81.1356 1433.78 M77.4319 1433.78 Q77.4319 1427.97 82.0384 1424.91 Q86.6217 1421.84 95.3716 1421.84 Q104.098 1421.84 108.705 1424.91 Q113.288 1427.97 113.288 1433.78 Q113.288 1439.59 108.705 1442.67 Q104.098 1445.72 95.3716 1445.72 Q86.6217 1445.72 82.0384 1442.67 Q77.4319 1439.59 77.4319 1433.78 Z" fill="#000000" fill-rule="nonzero" fill-opacity="1" /><path clip-path="url(#clip510)" d="M75.2921 1097.78 L75.2921 1079.43 L79.2273 1079.43 L79.2273 1093.5 L87.6995 1093.5 Q87.3522 1092.48 87.1902 1091.46 Q87.005 1090.45 87.005 1089.43 Q87.005 1083.64 90.1763 1080.26 Q93.3476 1076.88 98.7642 1076.88 Q104.343 1076.88 107.445 1080.35 Q110.523 1083.83 110.523 1090.15 Q110.523 1092.32 110.153 1094.59 Q109.783 1096.84 109.042 1099.24 L104.343 1099.24 Q105.477 1097.16 106.033 1094.94 Q106.588 1092.71 106.588 1090.24 Q106.588 1086.23 104.482 1083.9 Q102.375 1081.56 98.7642 1081.56 Q95.1531 1081.56 93.0467 1083.9 Q90.9402 1086.23 90.9402 1090.24 Q90.9402 1092.11 91.3569 1093.99 Q91.7735 1095.84 92.6531 1097.78 L75.2921 1097.78 Z" fill="#000000" fill-rule="nonzero" fill-opacity="1" /><path clip-path="url(#clip510)" d="M103.973 1067.67 L103.973 1062.78 L109.852 1062.78 L109.852 1067.67 L103.973 1067.67 Z" fill="#000000" fill-rule="nonzero" fill-opacity="1" /><path clip-path="url(#clip510)" d="M78.3708 1042.6 Q78.3708 1046.21 81.9356 1048.04 Q85.4773 1049.84 92.6068 1049.84 Q99.7133 1049.84 103.278 1048.04 Q106.82 1046.21 106.82 1042.6 Q106.82 1038.97 103.278 1037.16 Q99.7133 1035.33 92.6068 1035.33 Q85.4773 1035.33 81.9356 1037.16 Q78.3708 1038.97 78.3708 1042.6 M74.6671 1042.6 Q74.6671 1036.79 79.2736 1033.73 Q83.8569 1030.65 92.6068 1030.65 Q101.334 1030.65 105.94 1033.73 Q110.523 1036.79 110.523 1042.6 Q110.523 1048.41 105.94 1051.49 Q101.334 1054.54 92.6068 1054.54 Q83.8569 1054.54 79.2736 1051.49 Q74.6671 1048.41 74.6671 1042.6 Z" fill="#000000" fill-rule="nonzero" fill-opacity="1" /><path clip-path="url(#clip510)" d="M78.3708 1012.44 Q78.3708 1016.05 81.9356 1017.88 Q85.4773 1019.68 92.6068 1019.68 Q99.7133 1019.68 103.278 1017.88 Q106.82 1016.05 106.82 1012.44 Q106.82 1008.8 103.278 1007 Q99.7133 1005.17 92.6068 1005.17 Q85.4773 1005.17 81.9356 1007 Q78.3708 1008.8 78.3708 1012.44 M74.6671 1012.44 Q74.6671 1006.63 79.2736 1003.57 Q83.8569 1000.49 92.6068 1000.49 Q101.334 1000.49 105.94 1003.57 Q110.523 1006.63 110.523 1012.44 Q110.523 1018.25 105.94 1021.33 Q101.334 1024.38 92.6068 1024.38 Q83.8569 1024.38 79.2736 1021.33 Q74.6671 1018.25 74.6671 1012.44 Z" fill="#000000" fill-rule="nonzero" fill-opacity="1" /><path clip-path="url(#clip510)" d="M84.3893 964.104 L95.0142 974.683 L105.593 964.104 L108.394 966.859 L97.7689 977.484 L108.394 988.109 L105.593 990.84 L95.0142 980.285 L84.3893 990.84 L81.5884 988.109 L92.2133 977.484 L81.5884 966.859 L84.3893 964.104 Z" fill="#000000" fill-rule="nonzero" fill-opacity="1" /><path clip-path="url(#clip510)" d="M105.917 951.743 L105.917 944.104 L79.5514 944.104 L81.218 952.415 L76.9588 952.415 L75.2921 944.151 L75.2921 939.475 L105.917 939.475 L105.917 931.836 L109.852 931.836 L109.852 951.743 L105.917 951.743 Z" fill="#000000" fill-rule="nonzero" fill-opacity="1" /><path clip-path="url(#clip510)" d="M78.3708 912.392 Q78.3708 916.003 81.9356 917.831 Q85.4773 919.637 92.6068 919.637 Q99.7133 919.637 103.278 917.831 Q106.82 916.003 106.82 912.392 Q106.82 908.757 103.278 906.952 Q99.7133 905.123 92.6068 905.123 Q85.4773 905.123 81.9356 906.952 Q78.3708 908.757 78.3708 912.392 M74.6671 912.392 Q74.6671 906.581 79.2736 903.526 Q83.8569 900.447 92.6068 900.447 Q101.334 900.447 105.94 903.526 Q110.523 906.581 110.523 912.392 Q110.523 918.202 105.94 921.28 Q101.334 924.336 92.6068 924.336 Q83.8569 924.336 79.2736 921.28 Q74.6671 918.202 74.6671 912.392 Z" fill="#000000" fill-rule="nonzero" fill-opacity="1" /><path clip-path="url(#clip510)" d="M79.2444 899.902 L79.2444 893.695 L57.8224 893.695 L59.1765 900.447 L55.7159 900.447 L54.3617 893.733 L54.3617 889.934 L79.2444 889.934 L79.2444 883.727 L82.4417 883.727 L82.4417 899.902 L79.2444 899.902 Z" fill="#000000" fill-rule="nonzero" fill-opacity="1" /><path clip-path="url(#clip510)" d="M56.8632 867.929 Q56.8632 870.863 59.7596 872.348 Q62.6371 873.815 68.4299 873.815 Q74.2039 873.815 77.1003 872.348 Q79.9779 870.863 79.9779 867.929 Q79.9779 864.976 77.1003 863.509 Q74.2039 862.023 68.4299 862.023 Q62.6371 862.023 59.7596 863.509 Q56.8632 864.976 56.8632 867.929 M53.8539 867.929 Q53.8539 863.208 57.5967 860.725 Q61.3206 858.224 68.4299 858.224 Q75.5205 858.224 79.2632 860.725 Q82.9872 863.208 82.9872 867.929 Q82.9872 872.649 79.2632 875.151 Q75.5205 877.633 68.4299 877.633 Q61.3206 877.633 57.5967 875.151 Q53.8539 872.649 53.8539 867.929 Z" fill="#000000" fill-rule="nonzero" fill-opacity="1" /><path clip-path="url(#clip510)" d="M105.917 642.25 L105.917 634.612 L79.5514 634.612 L81.218 642.922 L76.9588 642.922 L75.2921 634.658 L75.2921 629.982 L105.917 629.982 L105.917 622.343 L109.852 622.343 L109.852 642.25 L105.917 642.25 Z" fill="#000000" fill-rule="nonzero" fill-opacity="1" /><path clip-path="url(#clip510)" d="M103.973 612.899 L103.973 608.014 L109.852 608.014 L109.852 612.899 L103.973 612.899 Z" fill="#000000" fill-rule="nonzero" fill-opacity="1" /><path clip-path="url(#clip510)" d="M78.3708 587.829 Q78.3708 591.44 81.9356 593.269 Q85.4773 595.075 92.6068 595.075 Q99.7133 595.075 103.278 593.269 Q106.82 591.44 106.82 587.829 Q106.82 584.195 103.278 582.39 Q99.7133 580.561 92.6068 580.561 Q85.4773 580.561 81.9356 582.39 Q78.3708 584.195 78.3708 587.829 M74.6671 587.829 Q74.6671 582.019 79.2736 578.964 Q83.8569 575.885 92.6068 575.885 Q101.334 575.885 105.94 578.964 Q110.523 582.019 110.523 587.829 Q110.523 593.64 105.94 596.718 Q101.334 599.774 92.6068 599.774 Q83.8569 599.774 79.2736 596.718 Q74.6671 593.64 74.6671 587.829 Z" fill="#000000" fill-rule="nonzero" fill-opacity="1" /><path clip-path="url(#clip510)" d="M78.3708 557.667 Q78.3708 561.279 81.9356 563.107 Q85.4773 564.913 92.6068 564.913 Q99.7133 564.913 103.278 563.107 Q106.82 561.279 106.82 557.667 Q106.82 554.033 103.278 552.228 Q99.7133 550.399 92.6068 550.399 Q85.4773 550.399 81.9356 552.228 Q78.3708 554.033 78.3708 557.667 M74.6671 557.667 Q74.6671 551.857 79.2736 548.802 Q83.8569 545.723 92.6068 545.723 Q101.334 545.723 105.94 548.802 Q110.523 551.857 110.523 557.667 Q110.523 563.478 105.94 566.556 Q101.334 569.612 92.6068 569.612 Q83.8569 569.612 79.2736 566.556 Q74.6671 563.478 74.6671 557.667 Z" fill="#000000" fill-rule="nonzero" fill-opacity="1" /><path clip-path="url(#clip510)" d="M84.3893 509.334 L95.0142 519.913 L105.593 509.334 L108.394 512.089 L97.7689 522.714 L108.394 533.339 L105.593 536.07 L95.0142 525.515 L84.3893 536.07 L81.5884 533.339 L92.2133 522.714 L81.5884 512.089 L84.3893 509.334 Z" fill="#000000" fill-rule="nonzero" fill-opacity="1" /><path clip-path="url(#clip510)" d="M105.917 496.973 L105.917 489.335 L79.5514 489.335 L81.218 497.645 L76.9588 497.645 L75.2921 489.381 L75.2921 484.705 L105.917 484.705 L105.917 477.066 L109.852 477.066 L109.852 496.973 L105.917 496.973 Z" fill="#000000" fill-rule="nonzero" fill-opacity="1" /><path clip-path="url(#clip510)" d="M78.3708 457.622 Q78.3708 461.233 81.9356 463.062 Q85.4773 464.867 92.6068 464.867 Q99.7133 464.867 103.278 463.062 Q106.82 461.233 106.82 457.622 Q106.82 453.987 103.278 452.182 Q99.7133 450.353 92.6068 450.353 Q85.4773 450.353 81.9356 452.182 Q78.3708 453.987 78.3708 457.622 M74.6671 457.622 Q74.6671 451.812 79.2736 448.756 Q83.8569 445.677 92.6068 445.677 Q101.334 445.677 105.94 448.756 Q110.523 451.812 110.523 457.622 Q110.523 463.432 105.94 466.511 Q101.334 469.566 92.6068 469.566 Q83.8569 469.566 79.2736 466.511 Q74.6671 463.432 74.6671 457.622 Z" fill="#000000" fill-rule="nonzero" fill-opacity="1" /><path clip-path="url(#clip510)" d="M79.2444 445.132 L79.2444 438.925 L57.8224 438.925 L59.1765 445.677 L55.7159 445.677 L54.3617 438.963 L54.3617 435.164 L79.2444 435.164 L79.2444 428.957 L82.4417 428.957 L82.4417 445.132 L79.2444 445.132 Z" fill="#000000" fill-rule="nonzero" fill-opacity="1" /><path clip-path="url(#clip510)" d="M79.2444 420.625 L79.2444 414.419 L57.8224 414.419 L59.1765 421.171 L55.7159 421.171 L54.3617 414.456 L54.3617 410.657 L79.2444 410.657 L79.2444 404.451 L82.4417 404.451 L82.4417 420.625 L79.2444 420.625 Z" fill="#000000" fill-rule="nonzero" fill-opacity="1" /><path clip-path="url(#clip510)" d="M105.917 187.203 L105.917 179.565 L79.5514 179.565 L81.218 187.875 L76.9588 187.875 L75.2921 179.611 L75.2921 174.935 L105.917 174.935 L105.917 167.296 L109.852 167.296 L109.852 187.203 L105.917 187.203 Z" fill="#000000" fill-rule="nonzero" fill-opacity="1" /><path clip-path="url(#clip510)" d="M103.973 157.852 L103.973 152.967 L109.852 152.967 L109.852 157.852 L103.973 157.852 Z" fill="#000000" fill-rule="nonzero" fill-opacity="1" /><path clip-path="url(#clip510)" d="M75.2921 142.736 L75.2921 124.38 L79.2273 124.38 L79.2273 138.454 L87.6995 138.454 Q87.3522 137.435 87.1902 136.417 Q87.005 135.398 87.005 134.38 Q87.005 128.593 90.1763 125.213 Q93.3476 121.833 98.7642 121.833 Q104.343 121.833 107.445 125.306 Q110.523 128.778 110.523 135.097 Q110.523 137.273 110.153 139.542 Q109.783 141.787 109.042 144.194 L104.343 144.194 Q105.477 142.111 106.033 139.889 Q106.588 137.667 106.588 135.19 Q106.588 131.185 104.482 128.847 Q102.375 126.509 98.7642 126.509 Q95.1531 126.509 93.0467 128.847 Q90.9402 131.185 90.9402 135.19 Q90.9402 137.065 91.3569 138.94 Q91.7735 140.792 92.6531 142.736 L75.2921 142.736 Z" fill="#000000" fill-rule="nonzero" fill-opacity="1" /><path clip-path="url(#clip510)" d="M78.3708 102.621 Q78.3708 106.232 81.9356 108.06 Q85.4773 109.866 92.6068 109.866 Q99.7133 109.866 103.278 108.06 Q106.82 106.232 106.82 102.621 Q106.82 98.9863 103.278 97.1807 Q99.7133 95.352 92.6068 95.352 Q85.4773 95.352 81.9356 97.1807 Q78.3708 98.9863 78.3708 102.621 M74.6671 102.621 Q74.6671 96.8103 79.2736 93.7548 Q83.8569 90.6761 92.6068 90.6761 Q101.334 90.6761 105.94 93.7548 Q110.523 96.8103 110.523 102.621 Q110.523 108.431 105.94 111.509 Q101.334 114.565 92.6068 114.565 Q83.8569 114.565 79.2736 111.509 Q74.6671 108.431 74.6671 102.621 Z" fill="#000000" fill-rule="nonzero" fill-opacity="1" /><path clip-path="url(#clip510)" d="M84.3893 54.2874 L95.0142 64.8661 L105.593 54.2874 L108.394 57.042 L97.7689 67.667 L108.394 78.2919 L105.593 81.0234 L95.0142 70.4679 L84.3893 81.0234 L81.5884 78.2919 L92.2133 67.667 L81.5884 57.042 L84.3893 54.2874 Z" fill="#000000" fill-rule="nonzero" fill-opacity="1" /><path clip-path="url(#clip510)" d="M105.917 41.9264 L105.917 34.2875 L79.5514 34.2875 L81.218 42.5977 L76.9588 42.5977 L75.2921 34.3338 L75.2921 29.6579 L105.917 29.6579 L105.917 22.0191 L109.852 22.0191 L109.852 41.9264 L105.917 41.9264 Z" fill="#000000" fill-rule="nonzero" fill-opacity="1" /><path clip-path="url(#clip510)" d="M78.3708 2.57474 Q78.3708 6.18583 81.9356 8.01453 Q85.4773 9.82007 92.6068 9.82007 Q99.7133 9.82007 103.278 8.01453 Q106.82 6.18583 106.82 2.57474 Q106.82 -1.0595 103.278 -2.86504 Q99.7133 -4.69374 92.6068 -4.69374 Q85.4773 -4.69374 81.9356 -2.86504 Q78.3708 -1.0595 78.3708 2.57474 M74.6671 2.57474 Q74.6671 -3.23541 79.2736 -6.29095 Q83.8569 -9.36964 92.6068 -9.36964 Q101.334 -9.36964 105.94 -6.29095 Q110.523 -3.23541 110.523 2.57474 Q110.523 8.38489 105.94 11.4636 Q101.334 14.5191 92.6068 14.5191 Q83.8569 14.5191 79.2736 11.4636 Q74.6671 8.38489 74.6671 2.57474 Z" fill="#000000" fill-rule="nonzero" fill-opacity="1" /><path clip-path="url(#clip510)" d="M79.2444 -9.91506 L79.2444 -16.1216 L57.8224 -16.1216 L59.1765 -9.36964 L55.7159 -9.36964 L54.3617 -16.084 L54.3617 -19.8832 L79.2444 -19.8832 L79.2444 -26.0897 L82.4417 -26.0897 L82.4417 -9.91506 L79.2444 -9.91506 Z" fill="#000000" fill-rule="nonzero" fill-opacity="1" /><path clip-path="url(#clip510)" d="M79.2444 -34.4216 L79.2444 -40.6282 L57.8224 -40.6282 L59.1765 -33.8762 L55.7159 -33.8762 L54.3617 -40.5905 L54.3617 -44.3897 L79.2444 -44.3897 L79.2444 -50.5963 L82.4417 -50.5963 L82.4417 -34.4216 L79.2444 -34.4216 Z" fill="#000000" fill-rule="nonzero" fill-opacity="1" /><polyline clip-path="url(#clip512)" style="stroke:#009af9; stroke-linecap:round; stroke-linejoin:round; stroke-width:4; stroke-opacity:1; fill:none" points="219.394,1433.78 232.878,1433.78 357.565,1433.78 432.496,1433.78 495.85,1433.78 564.67,1433.78 628.115,1433.78 696.136,1433.78 774.944,1433.78 844.98,1433.78 906.395,1433.78 973.354,1433.78 1040.71,1433.78 1115.18,1433.78 1186.04,1433.78 1259.71,1433.78 1321.73,1433.78 1397.45,1433.77 1466.82,1433.36 1498.85,1432.12 1530.88,1428.09 1547.1,1423.75 1563.32,1416.69 1571.43,1411.76 1579.55,1405.65 1587.66,1398.16 1595.77,1389.04 1604.86,1376.58 1613.95,1361.39 1618.5,1352.66 1623.04,1343.1 1627.59,1332.66 1632.13,1321.3 1636.68,1308.98 1641.22,1295.64 1645.77,1281.24 1650.31,1265.75 1654.86,1249.13 1659.41,1231.35 1663.95,1212.39 1668.5,1192.21 1672.62,1172.87 1676.73,1152.52 1680.85,1131.16 1684.97,1108.79 1689.09,1085.41 1693.21,1061.06 1697.33,1035.74 1701.45,1009.48 1709.69,954.297 1717.92,895.854 1726.16,834.604 1734.4,771.1 1753.26,620.857 1772.12,471.736 1776.84,435.878 1781.56,400.934 1786.27,367.078 1790.99,334.48 1795.7,303.306 1800.42,273.716 1805.14,245.864 1809.85,219.896 1814.22,197.65 1818.58,177.235 1822.95,158.743 1827.32,142.255 1831.68,127.843 1836.05,115.568 1840.42,105.481 1844.78,97.6218 1849.15,92.0176 1853.52,88.6849 1857.88,87.6286 1862.25,88.8419 1866.62,92.3066 1870.98,97.9934 1875.35,105.862 1879.71,115.863 1884.02,127.751 1888.32,141.585 1892.63,157.291 1896.93,174.788 1901.24,193.984 1905.54,214.787 1909.85,237.094 1914.15,260.801 1918.46,285.799 1922.76,311.976 1927.07,339.217 1931.37,367.407 1939.98,426.171 1948.59,487.341 1965.31,609.652 1982.03,731.615 1990.39,790.841 1998.75,848.177 2007.11,903.189 2015.46,955.523 2024.03,1006.11 2032.6,1053.39 2036.89,1075.74 2041.17,1097.23 2045.46,1117.84 2049.74,1137.58 2054.03,1156.44 2058.31,1174.44 2062.6,1191.58 2066.88,1207.89 2075.45,1238.02 2084.02,1264.99 2093.41,1291.12 2102.8,1313.92 2112.18,1333.67 2121.57,1350.65 2130.96,1365.15 2140.35,1377.44 2149.74,1387.8 2159.13,1396.46 2172.77,1406.49 2186.4,1414.05 2200.04,1419.68 2213.68,1423.82 2240.96,1428.97 2268.24,1431.56 2273.83,1431.89 2279.43,1432.18 2285.02,1432.42 2290.62,1432.63 "/>
<path clip-path="url(#clip510)" d="M230.44 198.488 L1045.45 198.488 L1045.45 94.8081 L230.44 94.8081  Z" fill="#ffffff" fill-rule="evenodd" fill-opacity="1"/>
<polyline clip-path="url(#clip510)" style="stroke:#000000; stroke-linecap:round; stroke-linejoin:round; stroke-width:4; stroke-opacity:1; fill:none" points="230.44,198.488 1045.45,198.488 1045.45,94.8081 230.44,94.8081 230.44,198.488 "/>
<polyline clip-path="url(#clip510)" style="stroke:#009af9; stroke-linecap:round; stroke-linejoin:round; stroke-width:4; stroke-opacity:1; fill:none" points="254.835,146.648 401.201,146.648 "/>
<path clip-path="url(#clip510)" d="M451.151 158.998 L451.151 149.715 L443.512 149.715 L443.512 145.873 L455.781 145.873 L455.781 160.711 Q453.072 162.632 449.809 163.627 Q446.545 164.599 442.841 164.599 Q434.739 164.599 430.156 159.877 Q425.596 155.132 425.596 146.683 Q425.596 138.211 430.156 133.488 Q434.739 128.743 442.841 128.743 Q446.221 128.743 449.253 129.576 Q452.309 130.41 454.878 132.03 L454.878 137.007 Q452.285 134.808 449.369 133.697 Q446.452 132.586 443.234 132.586 Q436.892 132.586 433.697 136.127 Q430.526 139.669 430.526 146.683 Q430.526 153.674 433.697 157.215 Q436.892 160.757 443.234 160.757 Q445.711 160.757 447.656 160.34 Q449.6 159.9 451.151 158.998 Z" fill="#000000" fill-rule="nonzero" fill-opacity="1" /><path clip-path="url(#clip510)" d="M475.919 150.896 Q470.757 150.896 468.767 152.076 Q466.776 153.257 466.776 156.104 Q466.776 158.373 468.257 159.715 Q469.762 161.035 472.332 161.035 Q475.873 161.035 478.003 158.535 Q480.156 156.011 480.156 151.845 L480.156 150.896 L475.919 150.896 M484.415 149.137 L484.415 163.928 L480.156 163.928 L480.156 159.993 Q478.697 162.354 476.521 163.488 Q474.345 164.599 471.197 164.599 Q467.216 164.599 464.855 162.377 Q462.517 160.132 462.517 156.382 Q462.517 152.007 465.433 149.785 Q468.373 147.562 474.183 147.562 L480.156 147.562 L480.156 147.146 Q480.156 144.206 478.211 142.609 Q476.29 140.988 472.795 140.988 Q470.572 140.988 468.466 141.521 Q466.359 142.053 464.415 143.118 L464.415 139.183 Q466.753 138.28 468.952 137.84 Q471.151 137.377 473.234 137.377 Q478.859 137.377 481.637 140.294 Q484.415 143.211 484.415 149.137 Z" fill="#000000" fill-rule="nonzero" fill-opacity="1" /><path clip-path="url(#clip510)" d="M513.373 142.979 Q514.97 140.109 517.192 138.743 Q519.415 137.377 522.424 137.377 Q526.475 137.377 528.674 140.225 Q530.873 143.049 530.873 148.28 L530.873 163.928 L526.591 163.928 L526.591 148.419 Q526.591 144.692 525.271 142.887 Q523.952 141.081 521.243 141.081 Q517.933 141.081 516.012 143.28 Q514.091 145.479 514.091 149.275 L514.091 163.928 L509.808 163.928 L509.808 148.419 Q509.808 144.669 508.489 142.887 Q507.169 141.081 504.415 141.081 Q501.151 141.081 499.23 143.303 Q497.308 145.502 497.308 149.275 L497.308 163.928 L493.026 163.928 L493.026 138.002 L497.308 138.002 L497.308 142.03 Q498.767 139.646 500.804 138.512 Q502.841 137.377 505.642 137.377 Q508.466 137.377 510.433 138.813 Q512.424 140.248 513.373 142.979 Z" fill="#000000" fill-rule="nonzero" fill-opacity="1" /><path clip-path="url(#clip510)" d="M559.553 142.979 Q561.151 140.109 563.373 138.743 Q565.595 137.377 568.604 137.377 Q572.655 137.377 574.854 140.225 Q577.053 143.049 577.053 148.28 L577.053 163.928 L572.771 163.928 L572.771 148.419 Q572.771 144.692 571.451 142.887 Q570.132 141.081 567.424 141.081 Q564.113 141.081 562.192 143.28 Q560.271 145.479 560.271 149.275 L560.271 163.928 L555.989 163.928 L555.989 148.419 Q555.989 144.669 554.669 142.887 Q553.35 141.081 550.595 141.081 Q547.331 141.081 545.41 143.303 Q543.489 145.502 543.489 149.275 L543.489 163.928 L539.206 163.928 L539.206 138.002 L543.489 138.002 L543.489 142.03 Q544.947 139.646 546.984 138.512 Q549.021 137.377 551.822 137.377 Q554.646 137.377 556.614 138.813 Q558.604 140.248 559.553 142.979 Z" fill="#000000" fill-rule="nonzero" fill-opacity="1" /><path clip-path="url(#clip510)" d="M597.331 150.896 Q592.169 150.896 590.178 152.076 Q588.187 153.257 588.187 156.104 Q588.187 158.373 589.669 159.715 Q591.174 161.035 593.743 161.035 Q597.285 161.035 599.414 158.535 Q601.567 156.011 601.567 151.845 L601.567 150.896 L597.331 150.896 M605.826 149.137 L605.826 163.928 L601.567 163.928 L601.567 159.993 Q600.109 162.354 597.933 163.488 Q595.757 164.599 592.609 164.599 Q588.627 164.599 586.266 162.377 Q583.928 160.132 583.928 156.382 Q583.928 152.007 586.845 149.785 Q589.785 147.562 595.595 147.562 L601.567 147.562 L601.567 147.146 Q601.567 144.206 599.623 142.609 Q597.701 140.988 594.206 140.988 Q591.984 140.988 589.877 141.521 Q587.771 142.053 585.826 143.118 L585.826 139.183 Q588.164 138.28 590.363 137.84 Q592.562 137.377 594.646 137.377 Q600.271 137.377 603.048 140.294 Q605.826 143.211 605.826 149.137 Z" fill="#000000" fill-rule="nonzero" fill-opacity="1" /><path clip-path="url(#clip510)" d="M624.831 127.956 Q621.729 133.28 620.224 138.488 Q618.72 143.697 618.72 149.044 Q618.72 154.391 620.224 159.646 Q621.752 164.877 624.831 170.178 L621.127 170.178 Q617.655 164.738 615.919 159.484 Q614.206 154.229 614.206 149.044 Q614.206 143.882 615.919 138.65 Q617.632 133.419 621.127 127.956 L624.831 127.956 Z" fill="#000000" fill-rule="nonzero" fill-opacity="1" /><path clip-path="url(#clip510)" d="M637.724 159.993 L654.044 159.993 L654.044 163.928 L632.099 163.928 L632.099 159.993 Q634.761 157.238 639.345 152.609 Q643.951 147.956 645.132 146.613 Q647.377 144.09 648.257 142.354 Q649.159 140.595 649.159 138.905 Q649.159 136.15 647.215 134.414 Q645.294 132.678 642.192 132.678 Q639.993 132.678 637.539 133.442 Q635.108 134.206 632.331 135.757 L632.331 131.035 Q635.155 129.901 637.608 129.322 Q640.062 128.743 642.099 128.743 Q647.47 128.743 650.664 131.428 Q653.858 134.113 653.858 138.604 Q653.858 140.734 653.048 142.655 Q652.261 144.553 650.155 147.146 Q649.576 147.817 646.474 151.035 Q643.372 154.229 637.724 159.993 Z" fill="#000000" fill-rule="nonzero" fill-opacity="1" /><path clip-path="url(#clip510)" d="M678.025 145.294 Q681.381 146.012 683.256 148.28 Q685.154 150.549 685.154 153.882 Q685.154 158.998 681.636 161.798 Q678.117 164.599 671.636 164.599 Q669.46 164.599 667.145 164.16 Q664.854 163.743 662.4 162.886 L662.4 158.373 Q664.344 159.507 666.659 160.086 Q668.974 160.664 671.497 160.664 Q675.895 160.664 678.187 158.928 Q680.502 157.192 680.502 153.882 Q680.502 150.826 678.349 149.113 Q676.219 147.377 672.4 147.377 L668.372 147.377 L668.372 143.535 L672.585 143.535 Q676.034 143.535 677.863 142.169 Q679.692 140.78 679.692 138.188 Q679.692 135.525 677.793 134.113 Q675.918 132.678 672.4 132.678 Q670.479 132.678 668.28 133.095 Q666.081 133.512 663.442 134.391 L663.442 130.225 Q666.104 129.484 668.418 129.113 Q670.756 128.743 672.817 128.743 Q678.141 128.743 681.242 131.174 Q684.344 133.581 684.344 137.701 Q684.344 140.572 682.701 142.562 Q681.057 144.53 678.025 145.294 Z" fill="#000000" fill-rule="nonzero" fill-opacity="1" /><path clip-path="url(#clip510)" d="M704.02 147.516 Q700.687 147.516 698.766 149.299 Q696.867 151.081 696.867 154.206 Q696.867 157.331 698.766 159.113 Q700.687 160.896 704.02 160.896 Q707.353 160.896 709.275 159.113 Q711.196 157.308 711.196 154.206 Q711.196 151.081 709.275 149.299 Q707.377 147.516 704.02 147.516 M699.344 145.525 Q696.335 144.785 694.645 142.725 Q692.979 140.664 692.979 137.701 Q692.979 133.558 695.918 131.151 Q698.881 128.743 704.02 128.743 Q709.182 128.743 712.122 131.151 Q715.062 133.558 715.062 137.701 Q715.062 140.664 713.372 142.725 Q711.705 144.785 708.719 145.525 Q712.099 146.312 713.974 148.604 Q715.872 150.896 715.872 154.206 Q715.872 159.229 712.793 161.914 Q709.738 164.599 704.02 164.599 Q698.303 164.599 695.224 161.914 Q692.168 159.229 692.168 154.206 Q692.168 150.896 694.066 148.604 Q695.965 146.312 699.344 145.525 M697.631 138.141 Q697.631 140.826 699.298 142.331 Q700.988 143.836 704.02 143.836 Q707.029 143.836 708.719 142.331 Q710.432 140.826 710.432 138.141 Q710.432 135.456 708.719 133.951 Q707.029 132.447 704.02 132.447 Q700.988 132.447 699.298 133.951 Q697.631 135.456 697.631 138.141 Z" fill="#000000" fill-rule="nonzero" fill-opacity="1" /><path clip-path="url(#clip510)" d="M724.182 158.049 L729.066 158.049 L729.066 163.928 L724.182 163.928 L724.182 158.049 Z" fill="#000000" fill-rule="nonzero" fill-opacity="1" /><path clip-path="url(#clip510)" d="M739.298 129.368 L757.654 129.368 L757.654 133.303 L743.58 133.303 L743.58 141.775 Q744.599 141.428 745.617 141.266 Q746.636 141.081 747.654 141.081 Q753.441 141.081 756.821 144.252 Q760.2 147.424 760.2 152.84 Q760.2 158.419 756.728 161.521 Q753.256 164.599 746.937 164.599 Q744.761 164.599 742.492 164.229 Q740.247 163.859 737.839 163.118 L737.839 158.419 Q739.923 159.553 742.145 160.109 Q744.367 160.664 746.844 160.664 Q750.849 160.664 753.187 158.558 Q755.524 156.451 755.524 152.84 Q755.524 149.229 753.187 147.123 Q750.849 145.016 746.844 145.016 Q744.969 145.016 743.094 145.433 Q741.242 145.85 739.298 146.729 L739.298 129.368 Z" fill="#000000" fill-rule="nonzero" fill-opacity="1" /><path clip-path="url(#clip510)" d="M769.899 158.049 L774.784 158.049 L774.784 162.03 L770.987 169.437 L768.001 169.437 L769.899 162.03 L769.899 158.049 Z" fill="#000000" fill-rule="nonzero" fill-opacity="1" /><path clip-path="url(#clip510)" d="M800.362 159.993 L808.001 159.993 L808.001 133.627 L799.691 135.294 L799.691 131.035 L807.955 129.368 L812.631 129.368 L812.631 159.993 L820.27 159.993 L820.27 163.928 L800.362 163.928 L800.362 159.993 Z" fill="#000000" fill-rule="nonzero" fill-opacity="1" /><path clip-path="url(#clip510)" d="M829.714 158.049 L834.598 158.049 L834.598 163.928 L829.714 163.928 L829.714 158.049 Z" fill="#000000" fill-rule="nonzero" fill-opacity="1" /><path clip-path="url(#clip510)" d="M843.603 129.368 L865.825 129.368 L865.825 131.359 L853.279 163.928 L848.394 163.928 L860.2 133.303 L843.603 133.303 L843.603 129.368 Z" fill="#000000" fill-rule="nonzero" fill-opacity="1" /><path clip-path="url(#clip510)" d="M874.991 129.368 L893.348 129.368 L893.348 133.303 L879.274 133.303 L879.274 141.775 Q880.292 141.428 881.311 141.266 Q882.329 141.081 883.348 141.081 Q889.135 141.081 892.514 144.252 Q895.894 147.424 895.894 152.84 Q895.894 158.419 892.422 161.521 Q888.95 164.599 882.63 164.599 Q880.454 164.599 878.186 164.229 Q875.94 163.859 873.533 163.118 L873.533 158.419 Q875.616 159.553 877.839 160.109 Q880.061 160.664 882.538 160.664 Q886.542 160.664 888.88 158.558 Q891.218 156.451 891.218 152.84 Q891.218 149.229 888.88 147.123 Q886.542 145.016 882.538 145.016 Q880.663 145.016 878.788 145.433 Q876.936 145.85 874.991 146.729 L874.991 129.368 Z" fill="#000000" fill-rule="nonzero" fill-opacity="1" /><path clip-path="url(#clip510)" d="M926.681 149.9 L926.681 151.984 L907.098 151.984 Q907.376 156.382 909.737 158.697 Q912.121 160.988 916.357 160.988 Q918.811 160.988 921.102 160.386 Q923.417 159.785 925.686 158.581 L925.686 162.609 Q923.394 163.581 920.987 164.09 Q918.579 164.599 916.102 164.599 Q909.899 164.599 906.264 160.988 Q902.653 157.377 902.653 151.22 Q902.653 144.854 906.079 141.127 Q909.528 137.377 915.362 137.377 Q920.593 137.377 923.625 140.757 Q926.681 144.113 926.681 149.9 M922.422 148.65 Q922.375 145.155 920.454 143.072 Q918.556 140.988 915.408 140.988 Q911.843 140.988 909.69 143.002 Q907.561 145.016 907.237 148.674 L922.422 148.65 Z" fill="#000000" fill-rule="nonzero" fill-opacity="1" /><path clip-path="url(#clip510)" d="M931.519 149.044 L943.996 149.044 L943.996 152.84 L931.519 152.84 L931.519 149.044 Z" fill="#000000" fill-rule="nonzero" fill-opacity="1" /><path clip-path="url(#clip510)" d="M952.19 159.993 L959.829 159.993 L959.829 133.627 L951.519 135.294 L951.519 131.035 L959.783 129.368 L964.459 129.368 L964.459 159.993 L972.097 159.993 L972.097 163.928 L952.19 163.928 L952.19 159.993 Z" fill="#000000" fill-rule="nonzero" fill-opacity="1" /><path clip-path="url(#clip510)" d="M995.708 145.294 Q999.065 146.012 1000.94 148.28 Q1002.84 150.549 1002.84 153.882 Q1002.84 158.998 999.319 161.798 Q995.801 164.599 989.32 164.599 Q987.144 164.599 984.829 164.16 Q982.537 163.743 980.083 162.886 L980.083 158.373 Q982.028 159.507 984.343 160.086 Q986.657 160.664 989.181 160.664 Q993.579 160.664 995.87 158.928 Q998.185 157.192 998.185 153.882 Q998.185 150.826 996.032 149.113 Q993.903 147.377 990.083 147.377 L986.056 147.377 L986.056 143.535 L990.269 143.535 Q993.718 143.535 995.546 142.169 Q997.375 140.78 997.375 138.188 Q997.375 135.525 995.477 134.113 Q993.602 132.678 990.083 132.678 Q988.162 132.678 985.963 133.095 Q983.764 133.512 981.125 134.391 L981.125 130.225 Q983.787 129.484 986.102 129.113 Q988.44 128.743 990.5 128.743 Q995.824 128.743 998.926 131.174 Q1002.03 133.581 1002.03 137.701 Q1002.03 140.572 1000.38 142.562 Q998.741 144.53 995.708 145.294 Z" fill="#000000" fill-rule="nonzero" fill-opacity="1" /><path clip-path="url(#clip510)" d="M1010.43 127.956 L1014.13 127.956 Q1017.61 133.419 1019.32 138.65 Q1021.06 143.882 1021.06 149.044 Q1021.06 154.229 1019.32 159.484 Q1017.61 164.738 1014.13 170.178 L1010.43 170.178 Q1013.51 164.877 1015.01 159.646 Q1016.54 154.391 1016.54 149.044 Q1016.54 143.697 1015.01 138.488 Q1013.51 133.28 1010.43 127.956 Z" fill="#000000" fill-rule="nonzero" fill-opacity="1" /></svg>
