<?xml version="1.0" encoding="utf-8"?>
<svg xmlns="http://www.w3.org/2000/svg" xmlns:xlink="http://www.w3.org/1999/xlink" width="600" height="400" viewBox="0 0 2400 1600">
<defs>
  <clipPath id="clip160">
    <rect x="0" y="0" width="2400" height="1600"/>
  </clipPath>
</defs>
<path clip-path="url(#clip160)" d="M0 1600 L2400 1600 L2400 0 L0 0  Z" fill="#ffffff" fill-rule="evenodd" fill-opacity="1"/>
<defs>
  <clipPath id="clip161">
    <rect x="480" y="0" width="1681" height="1600"/>
  </clipPath>
</defs>
<path clip-path="url(#clip160)" d="M86.9921 1521.01 L2352.76 1521.01 L2352.76 47.2441 L86.9921 47.2441  Z" fill="#ffffff" fill-rule="evenodd" fill-opacity="1"/>
<defs>
  <clipPath id="clip162">
    <rect x="86" y="47" width="2267" height="1475"/>
  </clipPath>
</defs>
<polyline clip-path="url(#clip162)" style="stroke:#000000; stroke-linecap:round; stroke-linejoin:round; stroke-width:2; stroke-opacity:0.1; fill:none" points="86.9921,1521.01 86.9921,47.2441 "/>
<polyline clip-path="url(#clip162)" style="stroke:#000000; stroke-linecap:round; stroke-linejoin:round; stroke-width:2; stroke-opacity:0.1; fill:none" points="540.145,1521.01 540.145,47.2441 "/>
<polyline clip-path="url(#clip162)" style="stroke:#000000; stroke-linecap:round; stroke-linejoin:round; stroke-width:2; stroke-opacity:0.1; fill:none" points="993.298,1521.01 993.298,47.2441 "/>
<polyline clip-path="url(#clip162)" style="stroke:#000000; stroke-linecap:round; stroke-linejoin:round; stroke-width:2; stroke-opacity:0.1; fill:none" points="1446.45,1521.01 1446.45,47.2441 "/>
<polyline clip-path="url(#clip162)" style="stroke:#000000; stroke-linecap:round; stroke-linejoin:round; stroke-width:2; stroke-opacity:0.1; fill:none" points="1899.6,1521.01 1899.6,47.2441 "/>
<polyline clip-path="url(#clip162)" style="stroke:#000000; stroke-linecap:round; stroke-linejoin:round; stroke-width:2; stroke-opacity:0.1; fill:none" points="2352.76,1521.01 2352.76,47.2441 "/>
<polyline clip-path="url(#clip160)" style="stroke:#000000; stroke-linecap:round; stroke-linejoin:round; stroke-width:4; stroke-opacity:1; fill:none" points="86.9921,1521.01 2352.76,1521.01 "/>
<polyline clip-path="url(#clip160)" style="stroke:#000000; stroke-linecap:round; stroke-linejoin:round; stroke-width:4; stroke-opacity:1; fill:none" points="86.9921,1521.01 86.9921,1502.11 "/>
<polyline clip-path="url(#clip160)" style="stroke:#000000; stroke-linecap:round; stroke-linejoin:round; stroke-width:4; stroke-opacity:1; fill:none" points="540.145,1521.01 540.145,1502.11 "/>
<polyline clip-path="url(#clip160)" style="stroke:#000000; stroke-linecap:round; stroke-linejoin:round; stroke-width:4; stroke-opacity:1; fill:none" points="993.298,1521.01 993.298,1502.11 "/>
<polyline clip-path="url(#clip160)" style="stroke:#000000; stroke-linecap:round; stroke-linejoin:round; stroke-width:4; stroke-opacity:1; fill:none" points="1446.45,1521.01 1446.45,1502.11 "/>
<polyline clip-path="url(#clip160)" style="stroke:#000000; stroke-linecap:round; stroke-linejoin:round; stroke-width:4; stroke-opacity:1; fill:none" points="1899.6,1521.01 1899.6,1502.11 "/>
<polyline clip-path="url(#clip160)" style="stroke:#000000; stroke-linecap:round; stroke-linejoin:round; stroke-width:4; stroke-opacity:1; fill:none" points="2352.76,1521.01 2352.76,1502.11 "/>
<path clip-path="url(#clip160)" d="M46.6104 1548.85 L64.9668 1548.85 L64.9668 1552.78 L50.8928 1552.78 L50.8928 1561.26 Q51.9113 1560.91 52.9298 1560.75 Q53.9483 1560.56 54.9668 1560.56 Q60.7538 1560.56 64.1335 1563.73 Q67.5131 1566.9 67.5131 1572.32 Q67.5131 1577.9 64.0409 1581 Q60.5687 1584.08 54.2492 1584.08 Q52.0733 1584.08 49.8048 1583.71 Q47.5595 1583.34 45.1521 1582.6 L45.1521 1577.9 Q47.2354 1579.03 49.4576 1579.59 Q51.6798 1580.14 54.1567 1580.14 Q58.1613 1580.14 60.4992 1578.04 Q62.8372 1575.93 62.8372 1572.32 Q62.8372 1568.71 60.4992 1566.6 Q58.1613 1564.5 54.1567 1564.5 Q52.2817 1564.5 50.4067 1564.91 Q48.5548 1565.33 46.6104 1566.21 L46.6104 1548.85 Z" fill="#000000" fill-rule="nonzero" fill-opacity="1" /><path clip-path="url(#clip160)" d="M86.7259 1551.93 Q83.1148 1551.93 81.2861 1555.49 Q79.4806 1559.03 79.4806 1566.16 Q79.4806 1573.27 81.2861 1576.83 Q83.1148 1580.38 86.7259 1580.38 Q90.3602 1580.38 92.1657 1576.83 Q93.9944 1573.27 93.9944 1566.16 Q93.9944 1559.03 92.1657 1555.49 Q90.3602 1551.93 86.7259 1551.93 M86.7259 1548.22 Q92.5361 1548.22 95.5916 1552.83 Q98.6703 1557.41 98.6703 1566.16 Q98.6703 1574.89 95.5916 1579.5 Q92.5361 1584.08 86.7259 1584.08 Q80.9158 1584.08 77.8371 1579.5 Q74.7815 1574.89 74.7815 1566.16 Q74.7815 1557.41 77.8371 1552.83 Q80.9158 1548.22 86.7259 1548.22 Z" fill="#000000" fill-rule="nonzero" fill-opacity="1" /><path clip-path="url(#clip160)" d="M116.888 1551.93 Q113.277 1551.93 111.448 1555.49 Q109.642 1559.03 109.642 1566.16 Q109.642 1573.27 111.448 1576.83 Q113.277 1580.38 116.888 1580.38 Q120.522 1580.38 122.328 1576.83 Q124.156 1573.27 124.156 1566.16 Q124.156 1559.03 122.328 1555.49 Q120.522 1551.93 116.888 1551.93 M116.888 1548.22 Q122.698 1548.22 125.753 1552.83 Q128.832 1557.41 128.832 1566.16 Q128.832 1574.89 125.753 1579.5 Q122.698 1584.08 116.888 1584.08 Q111.078 1584.08 107.999 1579.5 Q104.943 1574.89 104.943 1566.16 Q104.943 1557.41 107.999 1552.83 Q111.078 1548.22 116.888 1548.22 Z" fill="#000000" fill-rule="nonzero" fill-opacity="1" /><path clip-path="url(#clip160)" d="M510.469 1564.26 Q507.321 1564.26 505.469 1566.42 Q503.64 1568.57 503.64 1572.32 Q503.64 1576.05 505.469 1578.22 Q507.321 1580.38 510.469 1580.38 Q513.617 1580.38 515.446 1578.22 Q517.298 1576.05 517.298 1572.32 Q517.298 1568.57 515.446 1566.42 Q513.617 1564.26 510.469 1564.26 M519.751 1549.61 L519.751 1553.87 Q517.992 1553.04 516.187 1552.6 Q514.404 1552.16 512.645 1552.16 Q508.015 1552.16 505.562 1555.28 Q503.131 1558.41 502.784 1564.73 Q504.15 1562.71 506.21 1561.65 Q508.27 1560.56 510.747 1560.56 Q515.955 1560.56 518.964 1563.73 Q521.997 1566.88 521.997 1572.32 Q521.997 1577.64 518.849 1580.86 Q515.701 1584.08 510.469 1584.08 Q504.474 1584.08 501.302 1579.5 Q498.131 1574.89 498.131 1566.16 Q498.131 1557.97 502.02 1553.11 Q505.909 1548.22 512.46 1548.22 Q514.219 1548.22 516.001 1548.57 Q517.807 1548.92 519.751 1549.61 Z" fill="#000000" fill-rule="nonzero" fill-opacity="1" /><path clip-path="url(#clip160)" d="M540.052 1551.93 Q536.441 1551.93 534.613 1555.49 Q532.807 1559.03 532.807 1566.16 Q532.807 1573.27 534.613 1576.83 Q536.441 1580.38 540.052 1580.38 Q543.687 1580.38 545.492 1576.83 Q547.321 1573.27 547.321 1566.16 Q547.321 1559.03 545.492 1555.49 Q543.687 1551.93 540.052 1551.93 M540.052 1548.22 Q545.862 1548.22 548.918 1552.83 Q551.997 1557.41 551.997 1566.16 Q551.997 1574.89 548.918 1579.5 Q545.862 1584.08 540.052 1584.08 Q534.242 1584.08 531.163 1579.5 Q528.108 1574.89 528.108 1566.16 Q528.108 1557.41 531.163 1552.83 Q534.242 1548.22 540.052 1548.22 Z" fill="#000000" fill-rule="nonzero" fill-opacity="1" /><path clip-path="url(#clip160)" d="M570.214 1551.93 Q566.603 1551.93 564.774 1555.49 Q562.969 1559.03 562.969 1566.16 Q562.969 1573.27 564.774 1576.83 Q566.603 1580.38 570.214 1580.38 Q573.848 1580.38 575.654 1576.83 Q577.483 1573.27 577.483 1566.16 Q577.483 1559.03 575.654 1555.49 Q573.848 1551.93 570.214 1551.93 M570.214 1548.22 Q576.024 1548.22 579.08 1552.83 Q582.159 1557.41 582.159 1566.16 Q582.159 1574.89 579.08 1579.5 Q576.024 1584.08 570.214 1584.08 Q564.404 1584.08 561.325 1579.5 Q558.27 1574.89 558.27 1566.16 Q558.27 1557.41 561.325 1552.83 Q564.404 1548.22 570.214 1548.22 Z" fill="#000000" fill-rule="nonzero" fill-opacity="1" /><path clip-path="url(#clip160)" d="M951.573 1548.85 L973.795 1548.85 L973.795 1550.84 L961.249 1583.41 L956.365 1583.41 L968.17 1552.78 L951.573 1552.78 L951.573 1548.85 Z" fill="#000000" fill-rule="nonzero" fill-opacity="1" /><path clip-path="url(#clip160)" d="M992.916 1551.93 Q989.305 1551.93 987.476 1555.49 Q985.67 1559.03 985.67 1566.16 Q985.67 1573.27 987.476 1576.83 Q989.305 1580.38 992.916 1580.38 Q996.55 1580.38 998.355 1576.83 Q1000.18 1573.27 1000.18 1566.16 Q1000.18 1559.03 998.355 1555.49 Q996.55 1551.93 992.916 1551.93 M992.916 1548.22 Q998.726 1548.22 1001.78 1552.83 Q1004.86 1557.41 1004.86 1566.16 Q1004.86 1574.89 1001.78 1579.5 Q998.726 1584.08 992.916 1584.08 Q987.106 1584.08 984.027 1579.5 Q980.971 1574.89 980.971 1566.16 Q980.971 1557.41 984.027 1552.83 Q987.106 1548.22 992.916 1548.22 Z" fill="#000000" fill-rule="nonzero" fill-opacity="1" /><path clip-path="url(#clip160)" d="M1023.08 1551.93 Q1019.47 1551.93 1017.64 1555.49 Q1015.83 1559.03 1015.83 1566.16 Q1015.83 1573.27 1017.64 1576.83 Q1019.47 1580.38 1023.08 1580.38 Q1026.71 1580.38 1028.52 1576.83 Q1030.35 1573.27 1030.35 1566.16 Q1030.35 1559.03 1028.52 1555.49 Q1026.71 1551.93 1023.08 1551.93 M1023.08 1548.22 Q1028.89 1548.22 1031.94 1552.83 Q1035.02 1557.41 1035.02 1566.16 Q1035.02 1574.89 1031.94 1579.5 Q1028.89 1584.08 1023.08 1584.08 Q1017.27 1584.08 1014.19 1579.5 Q1011.13 1574.89 1011.13 1566.16 Q1011.13 1557.41 1014.19 1552.83 Q1017.27 1548.22 1023.08 1548.22 Z" fill="#000000" fill-rule="nonzero" fill-opacity="1" /><path clip-path="url(#clip160)" d="M1416.24 1567 Q1412.91 1567 1410.99 1568.78 Q1409.09 1570.56 1409.09 1573.69 Q1409.09 1576.81 1410.99 1578.59 Q1412.91 1580.38 1416.24 1580.38 Q1419.58 1580.38 1421.5 1578.59 Q1423.42 1576.79 1423.42 1573.69 Q1423.42 1570.56 1421.5 1568.78 Q1419.6 1567 1416.24 1567 M1411.57 1565.01 Q1408.56 1564.26 1406.87 1562.2 Q1405.2 1560.14 1405.2 1557.18 Q1405.2 1553.04 1408.14 1550.63 Q1411.1 1548.22 1416.24 1548.22 Q1421.4 1548.22 1424.34 1550.63 Q1427.28 1553.04 1427.28 1557.18 Q1427.28 1560.14 1425.59 1562.2 Q1423.93 1564.26 1420.94 1565.01 Q1424.32 1565.79 1426.2 1568.08 Q1428.09 1570.38 1428.09 1573.69 Q1428.09 1578.71 1425.02 1581.39 Q1421.96 1584.08 1416.24 1584.08 Q1410.52 1584.08 1407.45 1581.39 Q1404.39 1578.71 1404.39 1573.69 Q1404.39 1570.38 1406.29 1568.08 Q1408.19 1565.79 1411.57 1565.01 M1409.85 1557.62 Q1409.85 1560.31 1411.52 1561.81 Q1413.21 1563.32 1416.24 1563.32 Q1419.25 1563.32 1420.94 1561.81 Q1422.65 1560.31 1422.65 1557.62 Q1422.65 1554.94 1420.94 1553.43 Q1419.25 1551.93 1416.24 1551.93 Q1413.21 1551.93 1411.52 1553.43 Q1409.85 1554.94 1409.85 1557.62 Z" fill="#000000" fill-rule="nonzero" fill-opacity="1" /><path clip-path="url(#clip160)" d="M1446.4 1551.93 Q1442.79 1551.93 1440.96 1555.49 Q1439.16 1559.03 1439.16 1566.16 Q1439.16 1573.27 1440.96 1576.83 Q1442.79 1580.38 1446.4 1580.38 Q1450.04 1580.38 1451.84 1576.83 Q1453.67 1573.27 1453.67 1566.16 Q1453.67 1559.03 1451.84 1555.49 Q1450.04 1551.93 1446.4 1551.93 M1446.4 1548.22 Q1452.21 1548.22 1455.27 1552.83 Q1458.35 1557.41 1458.35 1566.16 Q1458.35 1574.89 1455.27 1579.5 Q1452.21 1584.08 1446.4 1584.08 Q1440.59 1584.08 1437.52 1579.5 Q1434.46 1574.89 1434.46 1566.16 Q1434.46 1557.41 1437.52 1552.83 Q1440.59 1548.22 1446.4 1548.22 Z" fill="#000000" fill-rule="nonzero" fill-opacity="1" /><path clip-path="url(#clip160)" d="M1476.57 1551.93 Q1472.95 1551.93 1471.13 1555.49 Q1469.32 1559.03 1469.32 1566.16 Q1469.32 1573.27 1471.13 1576.83 Q1472.95 1580.38 1476.57 1580.38 Q1480.2 1580.38 1482.01 1576.83 Q1483.83 1573.27 1483.83 1566.16 Q1483.83 1559.03 1482.01 1555.49 Q1480.2 1551.93 1476.57 1551.93 M1476.57 1548.22 Q1482.38 1548.22 1485.43 1552.83 Q1488.51 1557.41 1488.51 1566.16 Q1488.51 1574.89 1485.43 1579.5 Q1482.38 1584.08 1476.57 1584.08 Q1470.76 1584.08 1467.68 1579.5 Q1464.62 1574.89 1464.62 1566.16 Q1464.62 1557.41 1467.68 1552.83 Q1470.76 1548.22 1476.57 1548.22 Z" fill="#000000" fill-rule="nonzero" fill-opacity="1" /><path clip-path="url(#clip160)" d="M1859.65 1582.69 L1859.65 1578.43 Q1861.41 1579.26 1863.21 1579.7 Q1865.02 1580.14 1866.76 1580.14 Q1871.39 1580.14 1873.82 1577.04 Q1876.27 1573.92 1876.62 1567.57 Q1875.27 1569.57 1873.21 1570.63 Q1871.15 1571.69 1868.65 1571.69 Q1863.47 1571.69 1860.44 1568.57 Q1857.43 1565.42 1857.43 1559.98 Q1857.43 1554.66 1860.58 1551.44 Q1863.72 1548.22 1868.96 1548.22 Q1874.95 1548.22 1878.1 1552.83 Q1881.27 1557.41 1881.27 1566.16 Q1881.27 1574.33 1877.38 1579.22 Q1873.52 1584.08 1866.96 1584.08 Q1865.21 1584.08 1863.4 1583.73 Q1861.59 1583.38 1859.65 1582.69 M1868.96 1568.04 Q1872.1 1568.04 1873.93 1565.88 Q1875.78 1563.73 1875.78 1559.98 Q1875.78 1556.26 1873.93 1554.1 Q1872.1 1551.93 1868.96 1551.93 Q1865.81 1551.93 1863.96 1554.1 Q1862.13 1556.26 1862.13 1559.98 Q1862.13 1563.73 1863.96 1565.88 Q1865.81 1568.04 1868.96 1568.04 Z" fill="#000000" fill-rule="nonzero" fill-opacity="1" /><path clip-path="url(#clip160)" d="M1899.67 1551.93 Q1896.06 1551.93 1894.23 1555.49 Q1892.43 1559.03 1892.43 1566.16 Q1892.43 1573.27 1894.23 1576.83 Q1896.06 1580.38 1899.67 1580.38 Q1903.31 1580.38 1905.11 1576.83 Q1906.94 1573.27 1906.94 1566.16 Q1906.94 1559.03 1905.11 1555.49 Q1903.31 1551.93 1899.67 1551.93 M1899.67 1548.22 Q1905.48 1548.22 1908.54 1552.83 Q1911.62 1557.41 1911.62 1566.16 Q1911.62 1574.89 1908.54 1579.5 Q1905.48 1584.08 1899.67 1584.08 Q1893.86 1584.08 1890.78 1579.5 Q1887.73 1574.89 1887.73 1566.16 Q1887.73 1557.41 1890.78 1552.83 Q1893.86 1548.22 1899.67 1548.22 Z" fill="#000000" fill-rule="nonzero" fill-opacity="1" /><path clip-path="url(#clip160)" d="M1929.83 1551.93 Q1926.22 1551.93 1924.39 1555.49 Q1922.59 1559.03 1922.59 1566.16 Q1922.59 1573.27 1924.39 1576.83 Q1926.22 1580.38 1929.83 1580.38 Q1933.47 1580.38 1935.27 1576.83 Q1937.1 1573.27 1937.1 1566.16 Q1937.1 1559.03 1935.27 1555.49 Q1933.47 1551.93 1929.83 1551.93 M1929.83 1548.22 Q1935.64 1548.22 1938.7 1552.83 Q1941.78 1557.41 1941.78 1566.16 Q1941.78 1574.89 1938.7 1579.5 Q1935.64 1584.08 1929.83 1584.08 Q1924.02 1584.08 1920.95 1579.5 Q1917.89 1574.89 1917.89 1566.16 Q1917.89 1557.41 1920.95 1552.83 Q1924.02 1548.22 1929.83 1548.22 Z" fill="#000000" fill-rule="nonzero" fill-opacity="1" /><path clip-path="url(#clip160)" d="M2297.28 1579.47 L2304.92 1579.47 L2304.92 1553.11 L2296.61 1554.77 L2296.61 1550.51 L2304.87 1548.85 L2309.55 1548.85 L2309.55 1579.47 L2317.19 1579.47 L2317.19 1583.41 L2297.28 1583.41 L2297.28 1579.47 Z" fill="#000000" fill-rule="nonzero" fill-opacity="1" /><path clip-path="url(#clip160)" d="M2336.63 1551.93 Q2333.02 1551.93 2331.19 1555.49 Q2329.39 1559.03 2329.39 1566.16 Q2329.39 1573.27 2331.19 1576.83 Q2333.02 1580.38 2336.63 1580.38 Q2340.27 1580.38 2342.07 1576.83 Q2343.9 1573.27 2343.9 1566.16 Q2343.9 1559.03 2342.07 1555.49 Q2340.27 1551.93 2336.63 1551.93 M2336.63 1548.22 Q2342.44 1548.22 2345.5 1552.83 Q2348.58 1557.41 2348.58 1566.16 Q2348.58 1574.89 2345.5 1579.5 Q2342.44 1584.08 2336.63 1584.08 Q2330.82 1584.08 2327.74 1579.5 Q2324.69 1574.89 2324.69 1566.16 Q2324.69 1557.41 2327.74 1552.83 Q2330.82 1548.22 2336.63 1548.22 Z" fill="#000000" fill-rule="nonzero" fill-opacity="1" /><path clip-path="url(#clip160)" d="M2366.8 1551.93 Q2363.18 1551.93 2361.36 1555.49 Q2359.55 1559.03 2359.55 1566.16 Q2359.55 1573.27 2361.36 1576.83 Q2363.18 1580.38 2366.8 1580.38 Q2370.43 1580.38 2372.23 1576.83 Q2374.06 1573.27 2374.06 1566.16 Q2374.06 1559.03 2372.23 1555.49 Q2370.43 1551.93 2366.8 1551.93 M2366.8 1548.22 Q2372.61 1548.22 2375.66 1552.83 Q2378.74 1557.41 2378.74 1566.16 Q2378.74 1574.89 2375.66 1579.5 Q2372.61 1584.08 2366.8 1584.08 Q2360.99 1584.08 2357.91 1579.5 Q2354.85 1574.89 2354.85 1566.16 Q2354.85 1557.41 2357.91 1552.83 Q2360.99 1548.22 2366.8 1548.22 Z" fill="#000000" fill-rule="nonzero" fill-opacity="1" /><path clip-path="url(#clip160)" d="M2396.96 1551.93 Q2393.35 1551.93 2391.52 1555.49 Q2389.71 1559.03 2389.71 1566.16 Q2389.71 1573.27 2391.52 1576.83 Q2393.35 1580.38 2396.96 1580.38 Q2400.59 1580.38 2402.4 1576.83 Q2404.23 1573.27 2404.23 1566.16 Q2404.23 1559.03 2402.4 1555.49 Q2400.59 1551.93 2396.96 1551.93 M2396.96 1548.22 Q2402.77 1548.22 2405.82 1552.83 Q2408.9 1557.41 2408.9 1566.16 Q2408.9 1574.89 2405.82 1579.5 Q2402.77 1584.08 2396.96 1584.08 Q2391.15 1584.08 2388.07 1579.5 Q2385.01 1574.89 2385.01 1566.16 Q2385.01 1557.41 2388.07 1552.83 Q2391.15 1548.22 2396.96 1548.22 Z" fill="#000000" fill-rule="nonzero" fill-opacity="1" /><polyline clip-path="url(#clip162)" style="stroke:#000000; stroke-linecap:round; stroke-linejoin:round; stroke-width:2; stroke-opacity:0.1; fill:none" points="86.9921,1479.3 2352.76,1479.3 "/>
<polyline clip-path="url(#clip162)" style="stroke:#000000; stroke-linecap:round; stroke-linejoin:round; stroke-width:2; stroke-opacity:0.1; fill:none" points="86.9921,1189.38 2352.76,1189.38 "/>
<polyline clip-path="url(#clip162)" style="stroke:#000000; stroke-linecap:round; stroke-linejoin:round; stroke-width:2; stroke-opacity:0.1; fill:none" points="86.9921,899.459 2352.76,899.459 "/>
<polyline clip-path="url(#clip162)" style="stroke:#000000; stroke-linecap:round; stroke-linejoin:round; stroke-width:2; stroke-opacity:0.1; fill:none" points="86.9921,609.54 2352.76,609.54 "/>
<polyline clip-path="url(#clip162)" style="stroke:#000000; stroke-linecap:round; stroke-linejoin:round; stroke-width:2; stroke-opacity:0.1; fill:none" points="86.9921,319.62 2352.76,319.62 "/>
<polyline clip-path="url(#clip160)" style="stroke:#000000; stroke-linecap:round; stroke-linejoin:round; stroke-width:4; stroke-opacity:1; fill:none" points="86.9921,1521.01 86.9921,47.2441 "/>
<polyline clip-path="url(#clip160)" style="stroke:#000000; stroke-linecap:round; stroke-linejoin:round; stroke-width:4; stroke-opacity:1; fill:none" points="86.9921,1479.3 105.89,1479.3 "/>
<polyline clip-path="url(#clip160)" style="stroke:#000000; stroke-linecap:round; stroke-linejoin:round; stroke-width:4; stroke-opacity:1; fill:none" points="86.9921,1189.38 105.89,1189.38 "/>
<polyline clip-path="url(#clip160)" style="stroke:#000000; stroke-linecap:round; stroke-linejoin:round; stroke-width:4; stroke-opacity:1; fill:none" points="86.9921,899.459 105.89,899.459 "/>
<polyline clip-path="url(#clip160)" style="stroke:#000000; stroke-linecap:round; stroke-linejoin:round; stroke-width:4; stroke-opacity:1; fill:none" points="86.9921,609.54 105.89,609.54 "/>
<polyline clip-path="url(#clip160)" style="stroke:#000000; stroke-linecap:round; stroke-linejoin:round; stroke-width:4; stroke-opacity:1; fill:none" points="86.9921,319.62 105.89,319.62 "/>
<path clip-path="url(#clip160)" d="M10.8708 1516.99 Q10.8708 1520.61 14.4356 1522.43 Q17.9773 1524.24 25.1068 1524.24 Q32.2133 1524.24 35.7781 1522.43 Q39.3197 1520.61 39.3197 1516.99 Q39.3197 1513.36 35.7781 1511.55 Q32.2133 1509.73 25.1068 1509.73 Q17.9773 1509.73 14.4356 1511.55 Q10.8708 1513.36 10.8708 1516.99 M7.16713 1516.99 Q7.16713 1511.18 11.7736 1508.13 Q16.3569 1505.05 25.1068 1505.05 Q33.8337 1505.05 38.4401 1508.13 Q43.0234 1511.18 43.0234 1516.99 Q43.0234 1522.8 38.4401 1525.88 Q33.8337 1528.94 25.1068 1528.94 Q16.3569 1528.94 11.7736 1525.88 Q7.16713 1522.8 7.16713 1516.99 Z" fill="#000000" fill-rule="nonzero" fill-opacity="1" /><path clip-path="url(#clip160)" d="M36.4725 1496.83 L36.4725 1491.95 L42.3521 1491.95 L42.3521 1496.83 L36.4725 1496.83 Z" fill="#000000" fill-rule="nonzero" fill-opacity="1" /><path clip-path="url(#clip160)" d="M10.8708 1471.76 Q10.8708 1475.37 14.4356 1477.2 Q17.9773 1479.01 25.1068 1479.01 Q32.2133 1479.01 35.7781 1477.2 Q39.3197 1475.37 39.3197 1471.76 Q39.3197 1468.13 35.7781 1466.32 Q32.2133 1464.49 25.1068 1464.49 Q17.9773 1464.49 14.4356 1466.32 Q10.8708 1468.13 10.8708 1471.76 M7.16713 1471.76 Q7.16713 1465.95 11.7736 1462.9 Q16.3569 1459.82 25.1068 1459.82 Q33.8337 1459.82 38.4401 1462.9 Q43.0234 1465.95 43.0234 1471.76 Q43.0234 1477.57 38.4401 1480.65 Q33.8337 1483.71 25.1068 1483.71 Q16.3569 1483.71 11.7736 1480.65 Q7.16713 1477.57 7.16713 1471.76 Z" fill="#000000" fill-rule="nonzero" fill-opacity="1" /><path clip-path="url(#clip160)" d="M10.8708 1441.6 Q10.8708 1445.21 14.4356 1447.04 Q17.9773 1448.85 25.1068 1448.85 Q32.2133 1448.85 35.7781 1447.04 Q39.3197 1445.21 39.3197 1441.6 Q39.3197 1437.97 35.7781 1436.16 Q32.2133 1434.33 25.1068 1434.33 Q17.9773 1434.33 14.4356 1436.16 Q10.8708 1437.97 10.8708 1441.6 M7.16713 1441.6 Q7.16713 1435.79 11.7736 1432.74 Q16.3569 1429.66 25.1068 1429.66 Q33.8337 1429.66 38.4401 1432.74 Q43.0234 1435.79 43.0234 1441.6 Q43.0234 1447.41 38.4401 1450.49 Q33.8337 1453.55 25.1068 1453.55 Q16.3569 1453.55 11.7736 1450.49 Q7.16713 1447.41 7.16713 1441.6 Z" fill="#000000" fill-rule="nonzero" fill-opacity="1" /><path clip-path="url(#clip160)" d="M10.8708 1226.46 Q10.8708 1230.07 14.4356 1231.9 Q17.9773 1233.71 25.1068 1233.71 Q32.2133 1233.71 35.7781 1231.9 Q39.3197 1230.07 39.3197 1226.46 Q39.3197 1222.83 35.7781 1221.02 Q32.2133 1219.19 25.1068 1219.19 Q17.9773 1219.19 14.4356 1221.02 Q10.8708 1222.83 10.8708 1226.46 M7.16713 1226.46 Q7.16713 1220.65 11.7736 1217.6 Q16.3569 1214.52 25.1068 1214.52 Q33.8337 1214.52 38.4401 1217.6 Q43.0234 1220.65 43.0234 1226.46 Q43.0234 1232.27 38.4401 1235.35 Q33.8337 1238.41 25.1068 1238.41 Q16.3569 1238.41 11.7736 1235.35 Q7.16713 1232.27 7.16713 1226.46 Z" fill="#000000" fill-rule="nonzero" fill-opacity="1" /><path clip-path="url(#clip160)" d="M36.4725 1206.3 L36.4725 1201.42 L42.3521 1201.42 L42.3521 1206.3 L36.4725 1206.3 Z" fill="#000000" fill-rule="nonzero" fill-opacity="1" /><path clip-path="url(#clip160)" d="M10.8708 1181.23 Q10.8708 1184.84 14.4356 1186.67 Q17.9773 1188.48 25.1068 1188.48 Q32.2133 1188.48 35.7781 1186.67 Q39.3197 1184.84 39.3197 1181.23 Q39.3197 1177.6 35.7781 1175.79 Q32.2133 1173.96 25.1068 1173.96 Q17.9773 1173.96 14.4356 1175.79 Q10.8708 1177.6 10.8708 1181.23 M7.16713 1181.23 Q7.16713 1175.42 11.7736 1172.36 Q16.3569 1169.29 25.1068 1169.29 Q33.8337 1169.29 38.4401 1172.36 Q43.0234 1175.42 43.0234 1181.23 Q43.0234 1187.04 38.4401 1190.12 Q33.8337 1193.17 25.1068 1193.17 Q16.3569 1193.17 11.7736 1190.12 Q7.16713 1187.04 7.16713 1181.23 Z" fill="#000000" fill-rule="nonzero" fill-opacity="1" /><path clip-path="url(#clip160)" d="M38.417 1160.26 L38.417 1152.62 L12.0514 1152.62 L13.718 1160.93 L9.45878 1160.93 L7.79213 1152.67 L7.79213 1147.99 L38.417 1147.99 L38.417 1140.35 L42.3521 1140.35 L42.3521 1160.26 L38.417 1160.26 Z" fill="#000000" fill-rule="nonzero" fill-opacity="1" /><path clip-path="url(#clip160)" d="M10.8708 936.357 Q10.8708 939.968 14.4356 941.797 Q17.9773 943.602 25.1068 943.602 Q32.2133 943.602 35.7781 941.797 Q39.3197 939.968 39.3197 936.357 Q39.3197 932.723 35.7781 930.917 Q32.2133 929.088 25.1068 929.088 Q17.9773 929.088 14.4356 930.917 Q10.8708 932.723 10.8708 936.357 M7.16713 936.357 Q7.16713 930.547 11.7736 927.491 Q16.3569 924.412 25.1068 924.412 Q33.8337 924.412 38.4401 927.491 Q43.0234 930.547 43.0234 936.357 Q43.0234 942.167 38.4401 945.246 Q33.8337 948.301 25.1068 948.301 Q16.3569 948.301 11.7736 945.246 Q7.16713 942.167 7.16713 936.357 Z" fill="#000000" fill-rule="nonzero" fill-opacity="1" /><path clip-path="url(#clip160)" d="M36.4725 916.195 L36.4725 911.311 L42.3521 911.311 L42.3521 916.195 L36.4725 916.195 Z" fill="#000000" fill-rule="nonzero" fill-opacity="1" /><path clip-path="url(#clip160)" d="M10.8708 891.126 Q10.8708 894.737 14.4356 896.565 Q17.9773 898.371 25.1068 898.371 Q32.2133 898.371 35.7781 896.565 Q39.3197 894.737 39.3197 891.126 Q39.3197 887.491 35.7781 885.686 Q32.2133 883.857 25.1068 883.857 Q17.9773 883.857 14.4356 885.686 Q10.8708 887.491 10.8708 891.126 M7.16713 891.126 Q7.16713 885.315 11.7736 882.26 Q16.3569 879.181 25.1068 879.181 Q33.8337 879.181 38.4401 882.26 Q43.0234 885.315 43.0234 891.126 Q43.0234 896.936 38.4401 900.014 Q33.8337 903.07 25.1068 903.07 Q16.3569 903.07 11.7736 900.014 Q7.16713 896.936 7.16713 891.126 Z" fill="#000000" fill-rule="nonzero" fill-opacity="1" /><path clip-path="url(#clip160)" d="M38.417 866.936 L38.417 850.617 L42.3521 850.617 L42.3521 872.561 L38.417 872.561 Q35.6623 869.899 31.0327 865.316 Q26.38 860.709 25.0374 859.529 Q22.5143 857.283 20.7782 856.404 Q19.0189 855.501 17.3291 855.501 Q14.5745 855.501 12.8384 857.445 Q11.1023 859.367 11.1023 862.468 Q11.1023 864.667 11.8662 867.121 Q12.6301 869.552 14.181 872.329 L9.45878 872.329 Q8.32453 869.505 7.74583 867.052 Q7.16713 864.598 7.16713 862.561 Q7.16713 857.191 9.8523 853.996 Q12.5375 850.802 17.0282 850.802 Q19.1578 850.802 21.0791 851.612 Q22.9772 852.399 25.5698 854.505 Q26.2411 855.084 29.4587 858.186 Q32.6531 861.288 38.417 866.936 Z" fill="#000000" fill-rule="nonzero" fill-opacity="1" /><path clip-path="url(#clip160)" d="M10.8708 646.912 Q10.8708 650.523 14.4356 652.352 Q17.9773 654.157 25.1068 654.157 Q32.2133 654.157 35.7781 652.352 Q39.3197 650.523 39.3197 646.912 Q39.3197 643.278 35.7781 641.472 Q32.2133 639.644 25.1068 639.644 Q17.9773 639.644 14.4356 641.472 Q10.8708 643.278 10.8708 646.912 M7.16713 646.912 Q7.16713 641.102 11.7736 638.046 Q16.3569 634.968 25.1068 634.968 Q33.8337 634.968 38.4401 638.046 Q43.0234 641.102 43.0234 646.912 Q43.0234 652.722 38.4401 655.801 Q33.8337 658.856 25.1068 658.856 Q16.3569 658.856 11.7736 655.801 Q7.16713 652.722 7.16713 646.912 Z" fill="#000000" fill-rule="nonzero" fill-opacity="1" /><path clip-path="url(#clip160)" d="M36.4725 626.75 L36.4725 621.866 L42.3521 621.866 L42.3521 626.75 L36.4725 626.75 Z" fill="#000000" fill-rule="nonzero" fill-opacity="1" /><path clip-path="url(#clip160)" d="M10.8708 601.681 Q10.8708 605.292 14.4356 607.121 Q17.9773 608.926 25.1068 608.926 Q32.2133 608.926 35.7781 607.121 Q39.3197 605.292 39.3197 601.681 Q39.3197 598.047 35.7781 596.241 Q32.2133 594.412 25.1068 594.412 Q17.9773 594.412 14.4356 596.241 Q10.8708 598.047 10.8708 601.681 M7.16713 601.681 Q7.16713 595.871 11.7736 592.815 Q16.3569 589.736 25.1068 589.736 Q33.8337 589.736 38.4401 592.815 Q43.0234 595.871 43.0234 601.681 Q43.0234 607.491 38.4401 610.57 Q33.8337 613.625 25.1068 613.625 Q16.3569 613.625 11.7736 610.57 Q7.16713 607.491 7.16713 601.681 Z" fill="#000000" fill-rule="nonzero" fill-opacity="1" /><path clip-path="url(#clip160)" d="M23.718 567.352 Q24.4356 563.996 26.7041 562.121 Q28.9726 560.223 32.3059 560.223 Q37.4216 560.223 40.2225 563.741 Q43.0234 567.26 43.0234 573.741 Q43.0234 575.917 42.5836 578.232 Q42.1669 580.523 41.3105 582.977 L36.7966 582.977 Q37.9309 581.033 38.5096 578.718 Q39.0883 576.403 39.0883 573.88 Q39.0883 569.482 37.3522 567.19 Q35.6161 564.875 32.3059 564.875 Q29.2503 564.875 27.5374 567.028 Q25.8013 569.158 25.8013 572.977 L25.8013 577.005 L21.9587 577.005 L21.9587 572.792 Q21.9587 569.343 20.593 567.514 Q19.2041 565.686 16.6115 565.686 Q13.9495 565.686 12.5375 567.584 Q11.1023 569.459 11.1023 572.977 Q11.1023 574.899 11.519 577.098 Q11.9356 579.297 12.8152 581.936 L8.6486 581.936 Q7.90787 579.273 7.5375 576.959 Q7.16713 574.621 7.16713 572.561 Q7.16713 567.237 9.59767 564.135 Q12.0051 561.033 16.1254 561.033 Q18.9958 561.033 20.9865 562.676 Q22.9541 564.32 23.718 567.352 Z" fill="#000000" fill-rule="nonzero" fill-opacity="1" /><path clip-path="url(#clip160)" d="M10.8708 357.56 Q10.8708 361.171 14.4356 363 Q17.9773 364.805 25.1068 364.805 Q32.2133 364.805 35.7781 363 Q39.3197 361.171 39.3197 357.56 Q39.3197 353.926 35.7781 352.12 Q32.2133 350.291 25.1068 350.291 Q17.9773 350.291 14.4356 352.12 Q10.8708 353.926 10.8708 357.56 M7.16713 357.56 Q7.16713 351.75 11.7736 348.694 Q16.3569 345.615 25.1068 345.615 Q33.8337 345.615 38.4401 348.694 Q43.0234 351.75 43.0234 357.56 Q43.0234 363.37 38.4401 366.449 Q33.8337 369.504 25.1068 369.504 Q16.3569 369.504 11.7736 366.449 Q7.16713 363.37 7.16713 357.56 Z" fill="#000000" fill-rule="nonzero" fill-opacity="1" /><path clip-path="url(#clip160)" d="M36.4725 337.398 L36.4725 332.514 L42.3521 332.514 L42.3521 337.398 L36.4725 337.398 Z" fill="#000000" fill-rule="nonzero" fill-opacity="1" /><path clip-path="url(#clip160)" d="M10.8708 312.329 Q10.8708 315.94 14.4356 317.768 Q17.9773 319.574 25.1068 319.574 Q32.2133 319.574 35.7781 317.768 Q39.3197 315.94 39.3197 312.329 Q39.3197 308.694 35.7781 306.889 Q32.2133 305.06 25.1068 305.06 Q17.9773 305.06 14.4356 306.889 Q10.8708 308.694 10.8708 312.329 M7.16713 312.329 Q7.16713 306.518 11.7736 303.463 Q16.3569 300.384 25.1068 300.384 Q33.8337 300.384 38.4401 303.463 Q43.0234 306.518 43.0234 312.329 Q43.0234 318.139 38.4401 321.217 Q33.8337 324.273 25.1068 324.273 Q16.3569 324.273 11.7736 321.217 Q7.16713 318.139 7.16713 312.329 Z" fill="#000000" fill-rule="nonzero" fill-opacity="1" /><path clip-path="url(#clip160)" d="M11.8662 279.319 L30.3152 291.125 L30.3152 279.319 L11.8662 279.319 M7.79213 280.546 L7.79213 274.667 L30.3152 274.667 L30.3152 269.736 L34.204 269.736 L34.204 274.667 L42.3521 274.667 L42.3521 279.319 L34.204 279.319 L34.204 294.921 L29.6902 294.921 L7.79213 280.546 Z" fill="#000000" fill-rule="nonzero" fill-opacity="1" /><polyline clip-path="url(#clip162)" style="stroke:#009af9; stroke-linecap:round; stroke-linejoin:round; stroke-width:4; stroke-opacity:1; fill:none" points="-2178.77,1479.3 -2157.43,1479.3 -1960.12,1479.3 -1841.54,1479.3 -1741.28,1479.3 -1632.37,1479.3 -1531.97,1479.3 -1424.33,1479.3 -1299.61,1479.3 -1188.78,1479.3 -1091.59,1479.3 -985.628,1479.3 -879.036,1479.3 -761.185,1479.3 -649.052,1479.3 -532.46,1479.3 -434.315,1479.3 -314.49,1479.3 -204.724,1479.3 -103.345,1479.3 -0.652612,1479.3 114.437,1479.3 218.727,1479.3 338.132,1479.3 448.691,1479.3 557.688,1479.3 663.516,1479.3 717.759,1479.3 772.003,1479.29 786.86,1479.26 801.718,1479.07 809.146,1478.77 816.575,1478.14 824.004,1476.86 831.433,1474.38 835.147,1472.42 838.861,1469.78 842.576,1466.27 846.29,1461.65 850.005,1455.64 853.719,1447.91 857.433,1438.09 861.148,1425.76 863.005,1418.5 864.862,1410.44 866.719,1401.51 868.576,1391.65 870.434,1380.79 872.291,1368.87 874.148,1355.83 876.005,1341.6 877.862,1326.12 879.719,1309.33 881.577,1291.19 883.434,1271.64 885.291,1250.64 887.148,1228.15 889.005,1204.16 890.863,1178.63 893.56,1138.81 896.258,1095.77 898.956,1049.58 901.654,1000.38 904.352,948.374 907.05,893.831 909.748,837.089 912.446,778.557 917.841,658.081 923.237,536.897 925.935,477.654 928.633,420.233 931.331,365.346 934.028,313.698 935.377,289.304 936.726,265.977 938.075,243.795 939.424,222.837 940.773,203.178 942.122,184.886 943.471,168.027 944.82,152.664 946.169,138.851 947.518,126.639 948.867,116.074 950.216,107.192 951.565,100.027 952.914,94.6054 954.263,90.9453 955.611,89.0598 956.96,88.9544 958.309,90.6281 959.658,94.0729 961.007,99.2741 962.356,106.21 963.705,114.854 965.054,125.17 966.403,137.119 967.752,150.655 969.101,165.725 970.45,182.273 971.799,200.238 973.148,219.552 974.497,240.146 975.845,261.945 977.194,284.873 978.543,308.85 979.892,333.793 981.241,359.617 982.59,386.239 985.288,441.526 987.986,498.96 993.382,617.541 998.777,736.792 1001.48,795.218 1004.17,852.176 1006.87,907.243 1009.57,960.057 1012.27,1010.32 1014.96,1057.81 1017.66,1102.36 1020.36,1143.86 1023.06,1182.25 1025.76,1217.54 1028.45,1249.76 1031.15,1279 1033.85,1305.37 1036.55,1329 1039.25,1350.05 1041.94,1368.69 1044.64,1385.11 1047.34,1399.47 1050.04,1411.97 1052.73,1422.79 1055.43,1432.09 1058.13,1440.06 1060.83,1446.83 1063.53,1452.57 1065.74,1456.59 1067.95,1460.07 1070.17,1463.07 1072.38,1465.64 1076.81,1469.72 1081.24,1472.67 1085.67,1474.77 1090.09,1476.24 1094.52,1477.26 1098.95,1477.96 "/>
<path clip-path="url(#clip160)" d="M1681.67 200.05 L2277.23 200.05 L2277.23 96.3696 L1681.67 96.3696  Z" fill="#ffffff" fill-rule="evenodd" fill-opacity="1"/>
<polyline clip-path="url(#clip160)" style="stroke:#000000; stroke-linecap:round; stroke-linejoin:round; stroke-width:4; stroke-opacity:1; fill:none" points="1681.67,200.05 2277.23,200.05 2277.23,96.3696 1681.67,96.3696 1681.67,200.05 "/>
<polyline clip-path="url(#clip160)" style="stroke:#009af9; stroke-linecap:round; stroke-linejoin:round; stroke-width:4; stroke-opacity:1; fill:none" points="1706.85,148.21 1857.9,148.21 "/>
<path clip-path="url(#clip160)" d="M1903.58 140.559 L1903.58 144.541 Q1901.78 143.545 1899.95 143.059 Q1898.15 142.55 1896.29 142.55 Q1892.15 142.55 1889.86 145.189 Q1887.57 147.804 1887.57 152.55 Q1887.57 157.295 1889.86 159.934 Q1892.15 162.55 1896.29 162.55 Q1898.15 162.55 1899.95 162.064 Q1901.78 161.554 1903.58 160.559 L1903.58 164.494 Q1901.8 165.328 1899.88 165.744 Q1897.98 166.161 1895.83 166.161 Q1889.97 166.161 1886.52 162.48 Q1883.08 158.8 1883.08 152.55 Q1883.08 146.207 1886.55 142.573 Q1890.04 138.939 1896.11 138.939 Q1898.08 138.939 1899.95 139.355 Q1901.83 139.749 1903.58 140.559 Z" fill="#000000" fill-rule="nonzero" fill-opacity="1" /><path clip-path="url(#clip160)" d="M1930.69 173.36 L1930.69 176.67 L1906.06 176.67 L1906.06 173.36 L1930.69 173.36 Z" fill="#000000" fill-rule="nonzero" fill-opacity="1" /><path clip-path="url(#clip160)" d="M1938.82 161.601 L1938.82 175.351 L1934.53 175.351 L1934.53 139.564 L1938.82 139.564 L1938.82 143.499 Q1940.16 141.184 1942.2 140.073 Q1944.26 138.939 1947.1 138.939 Q1951.83 138.939 1954.77 142.689 Q1957.73 146.439 1957.73 152.55 Q1957.73 158.661 1954.77 162.411 Q1951.83 166.161 1947.1 166.161 Q1944.26 166.161 1942.2 165.05 Q1940.16 163.915 1938.82 161.601 M1953.31 152.55 Q1953.31 147.851 1951.36 145.189 Q1949.44 142.504 1946.06 142.504 Q1942.68 142.504 1940.74 145.189 Q1938.82 147.851 1938.82 152.55 Q1938.82 157.249 1940.74 159.934 Q1942.68 162.596 1946.06 162.596 Q1949.44 162.596 1951.36 159.934 Q1953.31 157.249 1953.31 152.55 Z" fill="#000000" fill-rule="nonzero" fill-opacity="1" /><path clip-path="url(#clip160)" d="M1974.83 142.55 Q1971.41 142.55 1969.42 145.235 Q1967.43 147.897 1967.43 152.55 Q1967.43 157.203 1969.39 159.888 Q1971.39 162.55 1974.83 162.55 Q1978.24 162.55 1980.23 159.865 Q1982.22 157.179 1982.22 152.55 Q1982.22 147.943 1980.23 145.258 Q1978.24 142.55 1974.83 142.55 M1974.83 138.939 Q1980.39 138.939 1983.56 142.55 Q1986.73 146.161 1986.73 152.55 Q1986.73 158.916 1983.56 162.55 Q1980.39 166.161 1974.83 166.161 Q1969.26 166.161 1966.08 162.55 Q1962.94 158.916 1962.94 152.55 Q1962.94 146.161 1966.08 142.55 Q1969.26 138.939 1974.83 138.939 Z" fill="#000000" fill-rule="nonzero" fill-opacity="1" /><path clip-path="url(#clip160)" d="M2010.32 140.328 L2010.32 144.355 Q2008.51 143.429 2006.57 142.967 Q2004.63 142.504 2002.54 142.504 Q1999.37 142.504 1997.77 143.476 Q1996.2 144.448 1996.2 146.392 Q1996.2 147.874 1997.33 148.73 Q1998.47 149.564 2001.89 150.328 L2003.35 150.652 Q2007.89 151.624 2009.79 153.406 Q2011.71 155.166 2011.71 158.337 Q2011.71 161.948 2008.84 164.054 Q2005.99 166.161 2000.99 166.161 Q1998.91 166.161 1996.64 165.744 Q1994.39 165.351 1991.89 164.54 L1991.89 160.142 Q1994.26 161.369 1996.55 161.994 Q1998.84 162.596 2001.08 162.596 Q2004.09 162.596 2005.71 161.578 Q2007.33 160.536 2007.33 158.661 Q2007.33 156.925 2006.15 155.999 Q2005 155.073 2001.04 154.216 L1999.56 153.869 Q1995.6 153.036 1993.84 151.323 Q1992.08 149.587 1992.08 146.578 Q1992.08 142.92 1994.67 140.93 Q1997.26 138.939 2002.03 138.939 Q2004.39 138.939 2006.48 139.286 Q2008.56 139.633 2010.32 140.328 Z" fill="#000000" fill-rule="nonzero" fill-opacity="1" /><path clip-path="url(#clip160)" d="M2022.7 132.203 L2022.7 139.564 L2031.48 139.564 L2031.48 142.874 L2022.7 142.874 L2022.7 156.948 Q2022.7 160.119 2023.56 161.022 Q2024.44 161.925 2027.1 161.925 L2031.48 161.925 L2031.48 165.49 L2027.1 165.49 Q2022.17 165.49 2020.3 163.661 Q2018.42 161.809 2018.42 156.948 L2018.42 142.874 L2015.3 142.874 L2015.3 139.564 L2018.42 139.564 L2018.42 132.203 L2022.7 132.203 Z" fill="#000000" fill-rule="nonzero" fill-opacity="1" /><path clip-path="url(#clip160)" d="M2059.26 151.462 L2059.26 153.545 L2039.67 153.545 Q2039.95 157.943 2042.31 160.258 Q2044.7 162.55 2048.93 162.55 Q2051.39 162.55 2053.68 161.948 Q2055.99 161.346 2058.26 160.142 L2058.26 164.17 Q2055.97 165.142 2053.56 165.652 Q2051.15 166.161 2048.68 166.161 Q2042.47 166.161 2038.84 162.55 Q2035.23 158.939 2035.23 152.781 Q2035.23 146.416 2038.65 142.689 Q2042.1 138.939 2047.94 138.939 Q2053.17 138.939 2056.2 142.318 Q2059.26 145.675 2059.26 151.462 M2055 150.212 Q2054.95 146.717 2053.03 144.633 Q2051.13 142.55 2047.98 142.55 Q2044.42 142.55 2042.26 144.564 Q2040.14 146.578 2039.81 150.235 L2055 150.212 Z" fill="#000000" fill-rule="nonzero" fill-opacity="1" /><path clip-path="url(#clip160)" d="M2081.27 143.545 Q2080.55 143.129 2079.7 142.943 Q2078.86 142.735 2077.84 142.735 Q2074.23 142.735 2072.29 145.096 Q2070.37 147.434 2070.37 151.832 L2070.37 165.49 L2066.08 165.49 L2066.08 139.564 L2070.37 139.564 L2070.37 143.592 Q2071.71 141.23 2073.86 140.096 Q2076.01 138.939 2079.09 138.939 Q2079.53 138.939 2080.07 139.008 Q2080.6 139.055 2081.25 139.17 L2081.27 143.545 Z" fill="#000000" fill-rule="nonzero" fill-opacity="1" /><path clip-path="url(#clip160)" d="M2085.74 139.564 L2090 139.564 L2090 165.49 L2085.74 165.49 L2085.74 139.564 M2085.74 129.471 L2090 129.471 L2090 134.865 L2085.74 134.865 L2085.74 129.471 Z" fill="#000000" fill-rule="nonzero" fill-opacity="1" /><path clip-path="url(#clip160)" d="M2108.95 142.55 Q2105.53 142.55 2103.54 145.235 Q2101.55 147.897 2101.55 152.55 Q2101.55 157.203 2103.51 159.888 Q2105.51 162.55 2108.95 162.55 Q2112.36 162.55 2114.35 159.865 Q2116.34 157.179 2116.34 152.55 Q2116.34 147.943 2114.35 145.258 Q2112.36 142.55 2108.95 142.55 M2108.95 138.939 Q2114.51 138.939 2117.68 142.55 Q2120.85 146.161 2120.85 152.55 Q2120.85 158.916 2117.68 162.55 Q2114.51 166.161 2108.95 166.161 Q2103.38 166.161 2100.2 162.55 Q2097.06 158.916 2097.06 152.55 Q2097.06 146.161 2100.2 142.55 Q2103.38 138.939 2108.95 138.939 Z" fill="#000000" fill-rule="nonzero" fill-opacity="1" /><path clip-path="url(#clip160)" d="M2142.94 143.545 Q2142.22 143.129 2141.36 142.943 Q2140.53 142.735 2139.51 142.735 Q2135.9 142.735 2133.95 145.096 Q2132.03 147.434 2132.03 151.832 L2132.03 165.49 L2127.75 165.49 L2127.75 139.564 L2132.03 139.564 L2132.03 143.592 Q2133.38 141.23 2135.53 140.096 Q2137.68 138.939 2140.76 138.939 Q2141.2 138.939 2141.73 139.008 Q2142.26 139.055 2142.91 139.17 L2142.94 143.545 Z" fill="#000000" fill-rule="nonzero" fill-opacity="1" /><path clip-path="url(#clip160)" d="M2167.1 173.36 L2167.1 176.67 L2142.47 176.67 L2142.47 173.36 L2167.1 173.36 Z" fill="#000000" fill-rule="nonzero" fill-opacity="1" /><path clip-path="url(#clip160)" d="M2188.17 143.499 L2188.17 129.471 L2192.43 129.471 L2192.43 165.49 L2188.17 165.49 L2188.17 161.601 Q2186.82 163.915 2184.76 165.05 Q2182.73 166.161 2179.86 166.161 Q2175.16 166.161 2172.19 162.411 Q2169.25 158.661 2169.25 152.55 Q2169.25 146.439 2172.19 142.689 Q2175.16 138.939 2179.86 138.939 Q2182.73 138.939 2184.76 140.073 Q2186.82 141.184 2188.17 143.499 M2173.65 152.55 Q2173.65 157.249 2175.57 159.934 Q2177.52 162.596 2180.9 162.596 Q2184.28 162.596 2186.22 159.934 Q2188.17 157.249 2188.17 152.55 Q2188.17 147.851 2186.22 145.189 Q2184.28 142.504 2180.9 142.504 Q2177.52 142.504 2175.57 145.189 Q2173.65 147.851 2173.65 152.55 Z" fill="#000000" fill-rule="nonzero" fill-opacity="1" /><path clip-path="url(#clip160)" d="M2201.2 139.564 L2205.46 139.564 L2205.46 165.49 L2201.2 165.49 L2201.2 139.564 M2201.2 129.471 L2205.46 129.471 L2205.46 134.865 L2201.2 134.865 L2201.2 129.471 Z" fill="#000000" fill-rule="nonzero" fill-opacity="1" /><path clip-path="url(#clip160)" d="M2230.9 140.328 L2230.9 144.355 Q2229.09 143.429 2227.15 142.967 Q2225.2 142.504 2223.12 142.504 Q2219.95 142.504 2218.35 143.476 Q2216.78 144.448 2216.78 146.392 Q2216.78 147.874 2217.91 148.73 Q2219.05 149.564 2222.47 150.328 L2223.93 150.652 Q2228.47 151.624 2230.37 153.406 Q2232.29 155.166 2232.29 158.337 Q2232.29 161.948 2229.42 164.054 Q2226.57 166.161 2221.57 166.161 Q2219.49 166.161 2217.22 165.744 Q2214.97 165.351 2212.47 164.54 L2212.47 160.142 Q2214.83 161.369 2217.12 161.994 Q2219.42 162.596 2221.66 162.596 Q2224.67 162.596 2226.29 161.578 Q2227.91 160.536 2227.91 158.661 Q2227.91 156.925 2226.73 155.999 Q2225.57 155.073 2221.62 154.216 L2220.13 153.869 Q2216.18 153.036 2214.42 151.323 Q2212.66 149.587 2212.66 146.578 Q2212.66 142.92 2215.25 140.93 Q2217.84 138.939 2222.61 138.939 Q2224.97 138.939 2227.06 139.286 Q2229.14 139.633 2230.9 140.328 Z" fill="#000000" fill-rule="nonzero" fill-opacity="1" /><path clip-path="url(#clip160)" d="M2243.28 132.203 L2243.28 139.564 L2252.06 139.564 L2252.06 142.874 L2243.28 142.874 L2243.28 156.948 Q2243.28 160.119 2244.14 161.022 Q2245.02 161.925 2247.68 161.925 L2252.06 161.925 L2252.06 165.49 L2247.68 165.49 Q2242.75 165.49 2240.87 163.661 Q2239 161.809 2239 156.948 L2239 142.874 L2235.87 142.874 L2235.87 139.564 L2239 139.564 L2239 132.203 L2243.28 132.203 Z" fill="#000000" fill-rule="nonzero" fill-opacity="1" /></svg>
