<?xml version="1.0" encoding="utf-8"?>
<svg xmlns="http://www.w3.org/2000/svg" xmlns:xlink="http://www.w3.org/1999/xlink" width="600" height="400" viewBox="0 0 2400 1600">
<defs>
  <clipPath id="clip520">
    <rect x="0" y="0" width="2400" height="1600"/>
  </clipPath>
</defs>
<path clip-path="url(#clip520)" d="M0 1600 L2400 1600 L2400 0 L0 0  Z" fill="#ffffff" fill-rule="evenodd" fill-opacity="1"/>
<defs>
  <clipPath id="clip521">
    <rect x="480" y="0" width="1681" height="1600"/>
  </clipPath>
</defs>
<path clip-path="url(#clip520)" d="M157.257 1474.16 L2352.76 1474.16 L2352.76 47.2441 L157.257 47.2441  Z" fill="#ffffff" fill-rule="evenodd" fill-opacity="1"/>
<defs>
  <clipPath id="clip522">
    <rect x="157" y="47" width="2196" height="1428"/>
  </clipPath>
</defs>
<polyline clip-path="url(#clip522)" style="stroke:#000000; stroke-linecap:round; stroke-linejoin:round; stroke-width:2; stroke-opacity:0.1; fill:none" points="219.394,1474.16 219.394,47.2441 "/>
<polyline clip-path="url(#clip522)" style="stroke:#000000; stroke-linecap:round; stroke-linejoin:round; stroke-width:2; stroke-opacity:0.1; fill:none" points="546.744,1474.16 546.744,47.2441 "/>
<polyline clip-path="url(#clip522)" style="stroke:#000000; stroke-linecap:round; stroke-linejoin:round; stroke-width:2; stroke-opacity:0.1; fill:none" points="874.094,1474.16 874.094,47.2441 "/>
<polyline clip-path="url(#clip522)" style="stroke:#000000; stroke-linecap:round; stroke-linejoin:round; stroke-width:2; stroke-opacity:0.1; fill:none" points="1201.44,1474.16 1201.44,47.2441 "/>
<polyline clip-path="url(#clip522)" style="stroke:#000000; stroke-linecap:round; stroke-linejoin:round; stroke-width:2; stroke-opacity:0.1; fill:none" points="1528.79,1474.16 1528.79,47.2441 "/>
<polyline clip-path="url(#clip522)" style="stroke:#000000; stroke-linecap:round; stroke-linejoin:round; stroke-width:2; stroke-opacity:0.1; fill:none" points="1856.14,1474.16 1856.14,47.2441 "/>
<polyline clip-path="url(#clip522)" style="stroke:#000000; stroke-linecap:round; stroke-linejoin:round; stroke-width:2; stroke-opacity:0.1; fill:none" points="2183.49,1474.16 2183.49,47.2441 "/>
<polyline clip-path="url(#clip520)" style="stroke:#000000; stroke-linecap:round; stroke-linejoin:round; stroke-width:4; stroke-opacity:1; fill:none" points="157.257,1474.16 2352.76,1474.16 "/>
<polyline clip-path="url(#clip520)" style="stroke:#000000; stroke-linecap:round; stroke-linejoin:round; stroke-width:4; stroke-opacity:1; fill:none" points="219.394,1474.16 219.394,1455.27 "/>
<polyline clip-path="url(#clip520)" style="stroke:#000000; stroke-linecap:round; stroke-linejoin:round; stroke-width:4; stroke-opacity:1; fill:none" points="546.744,1474.16 546.744,1455.27 "/>
<polyline clip-path="url(#clip520)" style="stroke:#000000; stroke-linecap:round; stroke-linejoin:round; stroke-width:4; stroke-opacity:1; fill:none" points="874.094,1474.16 874.094,1455.27 "/>
<polyline clip-path="url(#clip520)" style="stroke:#000000; stroke-linecap:round; stroke-linejoin:round; stroke-width:4; stroke-opacity:1; fill:none" points="1201.44,1474.16 1201.44,1455.27 "/>
<polyline clip-path="url(#clip520)" style="stroke:#000000; stroke-linecap:round; stroke-linejoin:round; stroke-width:4; stroke-opacity:1; fill:none" points="1528.79,1474.16 1528.79,1455.27 "/>
<polyline clip-path="url(#clip520)" style="stroke:#000000; stroke-linecap:round; stroke-linejoin:round; stroke-width:4; stroke-opacity:1; fill:none" points="1856.14,1474.16 1856.14,1455.27 "/>
<polyline clip-path="url(#clip520)" style="stroke:#000000; stroke-linecap:round; stroke-linejoin:round; stroke-width:4; stroke-opacity:1; fill:none" points="2183.49,1474.16 2183.49,1455.27 "/>
<path clip-path="url(#clip520)" d="M219.394 1505.08 Q215.783 1505.08 213.954 1508.65 Q212.148 1512.19 212.148 1519.32 Q212.148 1526.43 213.954 1529.99 Q215.783 1533.53 219.394 1533.53 Q223.028 1533.53 224.833 1529.99 Q226.662 1526.43 226.662 1519.32 Q226.662 1512.19 224.833 1508.65 Q223.028 1505.08 219.394 1505.08 M219.394 1501.38 Q225.204 1501.38 228.259 1505.99 Q231.338 1510.57 231.338 1519.32 Q231.338 1528.05 228.259 1532.65 Q225.204 1537.24 219.394 1537.24 Q213.584 1537.24 210.505 1532.65 Q207.449 1528.05 207.449 1519.32 Q207.449 1510.57 210.505 1505.99 Q213.584 1501.38 219.394 1501.38 Z" fill="#000000" fill-rule="nonzero" fill-opacity="1" /><path clip-path="url(#clip520)" d="M415.554 1548.29 L431.874 1548.29 L431.874 1552.22 L409.93 1552.22 L409.93 1548.29 Q412.592 1545.53 417.175 1540.91 Q421.781 1536.25 422.962 1534.91 Q425.207 1532.39 426.087 1530.65 Q426.99 1528.89 426.99 1527.2 Q426.99 1524.45 425.045 1522.71 Q423.124 1520.97 420.022 1520.97 Q417.823 1520.97 415.369 1521.74 Q412.939 1522.5 410.161 1524.05 L410.161 1519.33 Q412.985 1518.2 415.439 1517.62 Q417.892 1517.04 419.929 1517.04 Q425.3 1517.04 428.494 1519.72 Q431.689 1522.41 431.689 1526.9 Q431.689 1529.03 430.878 1530.95 Q430.091 1532.85 427.985 1535.44 Q427.406 1536.11 424.304 1539.33 Q421.203 1542.53 415.554 1548.29 Z" fill="#000000" fill-rule="nonzero" fill-opacity="1" /><path clip-path="url(#clip520)" d="M441.689 1546.35 L446.573 1546.35 L446.573 1552.22 L441.689 1552.22 L441.689 1546.35 Z" fill="#000000" fill-rule="nonzero" fill-opacity="1" /><path clip-path="url(#clip520)" d="M466.758 1520.74 Q463.147 1520.74 461.318 1524.31 Q459.513 1527.85 459.513 1534.98 Q459.513 1542.09 461.318 1545.65 Q463.147 1549.19 466.758 1549.19 Q470.392 1549.19 472.198 1545.65 Q474.026 1542.09 474.026 1534.98 Q474.026 1527.85 472.198 1524.31 Q470.392 1520.74 466.758 1520.74 M466.758 1517.04 Q472.568 1517.04 475.624 1521.65 Q478.702 1526.23 478.702 1534.98 Q478.702 1543.71 475.624 1548.31 Q472.568 1552.9 466.758 1552.9 Q460.948 1552.9 457.869 1548.31 Q454.814 1543.71 454.814 1534.98 Q454.814 1526.23 457.869 1521.65 Q460.948 1517.04 466.758 1517.04 Z" fill="#000000" fill-rule="nonzero" fill-opacity="1" /><path clip-path="url(#clip520)" d="M496.92 1520.74 Q493.309 1520.74 491.48 1524.31 Q489.674 1527.85 489.674 1534.98 Q489.674 1542.09 491.48 1545.65 Q493.309 1549.19 496.92 1549.19 Q500.554 1549.19 502.36 1545.65 Q504.188 1542.09 504.188 1534.98 Q504.188 1527.85 502.36 1524.31 Q500.554 1520.74 496.92 1520.74 M496.92 1517.04 Q502.73 1517.04 505.785 1521.65 Q508.864 1526.23 508.864 1534.98 Q508.864 1543.71 505.785 1548.31 Q502.73 1552.9 496.92 1552.9 Q491.11 1552.9 488.031 1548.31 Q484.975 1543.71 484.975 1534.98 Q484.975 1526.23 488.031 1521.65 Q491.11 1517.04 496.92 1517.04 Z" fill="#000000" fill-rule="nonzero" fill-opacity="1" /><path clip-path="url(#clip520)" d="M545.253 1526.76 L534.674 1537.39 L545.253 1547.97 L542.498 1550.77 L531.873 1540.14 L521.248 1550.77 L518.517 1547.97 L529.072 1537.39 L518.517 1526.76 L521.248 1523.96 L531.873 1534.59 L542.498 1523.96 L545.253 1526.76 Z" fill="#000000" fill-rule="nonzero" fill-opacity="1" /><path clip-path="url(#clip520)" d="M557.614 1548.29 L565.253 1548.29 L565.253 1521.92 L556.943 1523.59 L556.943 1519.33 L565.206 1517.66 L569.882 1517.66 L569.882 1548.29 L577.521 1548.29 L577.521 1552.22 L557.614 1552.22 L557.614 1548.29 Z" fill="#000000" fill-rule="nonzero" fill-opacity="1" /><path clip-path="url(#clip520)" d="M596.966 1520.74 Q593.354 1520.74 591.526 1524.31 Q589.72 1527.85 589.72 1534.98 Q589.72 1542.09 591.526 1545.65 Q593.354 1549.19 596.966 1549.19 Q600.6 1549.19 602.405 1545.65 Q604.234 1542.09 604.234 1534.98 Q604.234 1527.85 602.405 1524.31 Q600.6 1520.74 596.966 1520.74 M596.966 1517.04 Q602.776 1517.04 605.831 1521.65 Q608.91 1526.23 608.91 1534.98 Q608.91 1543.71 605.831 1548.31 Q602.776 1552.9 596.966 1552.9 Q591.155 1552.9 588.077 1548.31 Q585.021 1543.71 585.021 1534.98 Q585.021 1526.23 588.077 1521.65 Q591.155 1517.04 596.966 1517.04 Z" fill="#000000" fill-rule="nonzero" fill-opacity="1" /><path clip-path="url(#clip520)" d="M608.91 1511.14 L633.021 1511.14 L633.021 1514.34 L608.91 1514.34 L608.91 1511.14 Z" fill="#000000" fill-rule="nonzero" fill-opacity="1" /><path clip-path="url(#clip520)" d="M641.88 1521.62 L648.087 1521.62 L648.087 1500.19 L641.335 1501.55 L641.335 1498.09 L648.049 1496.73 L651.848 1496.73 L651.848 1521.62 L658.055 1521.62 L658.055 1524.81 L641.88 1524.81 L641.88 1521.62 Z" fill="#000000" fill-rule="nonzero" fill-opacity="1" /><path clip-path="url(#clip520)" d="M673.853 1499.24 Q670.919 1499.24 669.433 1502.13 Q667.966 1505.01 667.966 1510.8 Q667.966 1516.58 669.433 1519.47 Q670.919 1522.35 673.853 1522.35 Q676.806 1522.35 678.273 1519.47 Q679.759 1516.58 679.759 1510.8 Q679.759 1505.01 678.273 1502.13 Q676.806 1499.24 673.853 1499.24 M673.853 1496.23 Q678.574 1496.23 681.057 1499.97 Q683.558 1503.69 683.558 1510.8 Q683.558 1517.89 681.057 1521.64 Q678.574 1525.36 673.853 1525.36 Q669.132 1525.36 666.631 1521.64 Q664.148 1517.89 664.148 1510.8 Q664.148 1503.69 666.631 1499.97 Q669.132 1496.23 673.853 1496.23 Z" fill="#000000" fill-rule="nonzero" fill-opacity="1" /><path clip-path="url(#clip520)" d="M752.303 1521.74 L740.497 1540.19 L752.303 1540.19 L752.303 1521.74 M751.076 1517.66 L756.955 1517.66 L756.955 1540.19 L761.886 1540.19 L761.886 1544.08 L756.955 1544.08 L756.955 1552.22 L752.303 1552.22 L752.303 1544.08 L736.701 1544.08 L736.701 1539.56 L751.076 1517.66 Z" fill="#000000" fill-rule="nonzero" fill-opacity="1" /><path clip-path="url(#clip520)" d="M769.617 1546.35 L774.502 1546.35 L774.502 1552.22 L769.617 1552.22 L769.617 1546.35 Z" fill="#000000" fill-rule="nonzero" fill-opacity="1" /><path clip-path="url(#clip520)" d="M794.687 1520.74 Q791.076 1520.74 789.247 1524.31 Q787.441 1527.85 787.441 1534.98 Q787.441 1542.09 789.247 1545.65 Q791.076 1549.19 794.687 1549.19 Q798.321 1549.19 800.126 1545.65 Q801.955 1542.09 801.955 1534.98 Q801.955 1527.85 800.126 1524.31 Q798.321 1520.74 794.687 1520.74 M794.687 1517.04 Q800.497 1517.04 803.552 1521.65 Q806.631 1526.23 806.631 1534.98 Q806.631 1543.71 803.552 1548.31 Q800.497 1552.9 794.687 1552.9 Q788.877 1552.9 785.798 1548.31 Q782.742 1543.71 782.742 1534.98 Q782.742 1526.23 785.798 1521.65 Q788.877 1517.04 794.687 1517.04 Z" fill="#000000" fill-rule="nonzero" fill-opacity="1" /><path clip-path="url(#clip520)" d="M824.849 1520.74 Q821.237 1520.74 819.409 1524.31 Q817.603 1527.85 817.603 1534.98 Q817.603 1542.09 819.409 1545.65 Q821.237 1549.19 824.849 1549.19 Q828.483 1549.19 830.288 1545.65 Q832.117 1542.09 832.117 1534.98 Q832.117 1527.85 830.288 1524.31 Q828.483 1520.74 824.849 1520.74 M824.849 1517.04 Q830.659 1517.04 833.714 1521.65 Q836.793 1526.23 836.793 1534.98 Q836.793 1543.71 833.714 1548.31 Q830.659 1552.9 824.849 1552.9 Q819.038 1552.9 815.96 1548.31 Q812.904 1543.71 812.904 1534.98 Q812.904 1526.23 815.96 1521.65 Q819.038 1517.04 824.849 1517.04 Z" fill="#000000" fill-rule="nonzero" fill-opacity="1" /><path clip-path="url(#clip520)" d="M873.182 1526.76 L862.603 1537.39 L873.182 1547.97 L870.427 1550.77 L859.802 1540.14 L849.177 1550.77 L846.446 1547.97 L857.001 1537.39 L846.446 1526.76 L849.177 1523.96 L859.802 1534.59 L870.427 1523.96 L873.182 1526.76 Z" fill="#000000" fill-rule="nonzero" fill-opacity="1" /><path clip-path="url(#clip520)" d="M885.543 1548.29 L893.182 1548.29 L893.182 1521.92 L884.871 1523.59 L884.871 1519.33 L893.135 1517.66 L897.811 1517.66 L897.811 1548.29 L905.45 1548.29 L905.45 1552.22 L885.543 1552.22 L885.543 1548.29 Z" fill="#000000" fill-rule="nonzero" fill-opacity="1" /><path clip-path="url(#clip520)" d="M924.894 1520.74 Q921.283 1520.74 919.455 1524.31 Q917.649 1527.85 917.649 1534.98 Q917.649 1542.09 919.455 1545.65 Q921.283 1549.19 924.894 1549.19 Q928.529 1549.19 930.334 1545.65 Q932.163 1542.09 932.163 1534.98 Q932.163 1527.85 930.334 1524.31 Q928.529 1520.74 924.894 1520.74 M924.894 1517.04 Q930.704 1517.04 933.76 1521.65 Q936.839 1526.23 936.839 1534.98 Q936.839 1543.71 933.76 1548.31 Q930.704 1552.9 924.894 1552.9 Q919.084 1552.9 916.005 1548.31 Q912.95 1543.71 912.95 1534.98 Q912.95 1526.23 916.005 1521.65 Q919.084 1517.04 924.894 1517.04 Z" fill="#000000" fill-rule="nonzero" fill-opacity="1" /><path clip-path="url(#clip520)" d="M936.839 1511.14 L960.95 1511.14 L960.95 1514.34 L936.839 1514.34 L936.839 1511.14 Z" fill="#000000" fill-rule="nonzero" fill-opacity="1" /><path clip-path="url(#clip520)" d="M969.809 1521.62 L976.015 1521.62 L976.015 1500.19 L969.263 1501.55 L969.263 1498.09 L975.978 1496.73 L979.777 1496.73 L979.777 1521.62 L985.983 1521.62 L985.983 1524.81 L969.809 1524.81 L969.809 1521.62 Z" fill="#000000" fill-rule="nonzero" fill-opacity="1" /><path clip-path="url(#clip520)" d="M1001.78 1499.24 Q998.848 1499.24 997.362 1502.13 Q995.895 1505.01 995.895 1510.8 Q995.895 1516.58 997.362 1519.47 Q998.848 1522.35 1001.78 1522.35 Q1004.73 1522.35 1006.2 1519.47 Q1007.69 1516.58 1007.69 1510.8 Q1007.69 1505.01 1006.2 1502.13 Q1004.73 1499.24 1001.78 1499.24 M1001.78 1496.23 Q1006.5 1496.23 1008.99 1499.97 Q1011.49 1503.69 1011.49 1510.8 Q1011.49 1517.89 1008.99 1521.64 Q1006.5 1525.36 1001.78 1525.36 Q997.061 1525.36 994.56 1521.64 Q992.077 1517.89 992.077 1510.8 Q992.077 1503.69 994.56 1499.97 Q997.061 1496.23 1001.78 1496.23 Z" fill="#000000" fill-rule="nonzero" fill-opacity="1" /><path clip-path="url(#clip520)" d="M1076.89 1533.08 Q1073.74 1533.08 1071.89 1535.23 Q1070.06 1537.39 1070.06 1541.14 Q1070.06 1544.86 1071.89 1547.04 Q1073.74 1549.19 1076.89 1549.19 Q1080.03 1549.19 1081.86 1547.04 Q1083.72 1544.86 1083.72 1541.14 Q1083.72 1537.39 1081.86 1535.23 Q1080.03 1533.08 1076.89 1533.08 M1086.17 1518.43 L1086.17 1522.69 Q1084.41 1521.85 1082.6 1521.41 Q1080.82 1520.97 1079.06 1520.97 Q1074.43 1520.97 1071.98 1524.1 Q1069.55 1527.22 1069.2 1533.54 Q1070.57 1531.53 1072.63 1530.47 Q1074.69 1529.38 1077.16 1529.38 Q1082.37 1529.38 1085.38 1532.55 Q1088.41 1535.7 1088.41 1541.14 Q1088.41 1546.46 1085.27 1549.68 Q1082.12 1552.9 1076.89 1552.9 Q1070.89 1552.9 1067.72 1548.31 Q1064.55 1543.71 1064.55 1534.98 Q1064.55 1526.78 1068.44 1521.92 Q1072.33 1517.04 1078.88 1517.04 Q1080.64 1517.04 1082.42 1517.39 Q1084.22 1517.73 1086.17 1518.43 Z" fill="#000000" fill-rule="nonzero" fill-opacity="1" /><path clip-path="url(#clip520)" d="M1096.47 1546.35 L1101.35 1546.35 L1101.35 1552.22 L1096.47 1552.22 L1096.47 1546.35 Z" fill="#000000" fill-rule="nonzero" fill-opacity="1" /><path clip-path="url(#clip520)" d="M1121.54 1520.74 Q1117.93 1520.74 1116.1 1524.31 Q1114.29 1527.85 1114.29 1534.98 Q1114.29 1542.09 1116.1 1545.65 Q1117.93 1549.19 1121.54 1549.19 Q1125.17 1549.19 1126.98 1545.65 Q1128.81 1542.09 1128.81 1534.98 Q1128.81 1527.85 1126.98 1524.31 Q1125.17 1520.74 1121.54 1520.74 M1121.54 1517.04 Q1127.35 1517.04 1130.4 1521.65 Q1133.48 1526.23 1133.48 1534.98 Q1133.48 1543.71 1130.4 1548.31 Q1127.35 1552.9 1121.54 1552.9 Q1115.73 1552.9 1112.65 1548.31 Q1109.59 1543.71 1109.59 1534.98 Q1109.59 1526.23 1112.65 1521.65 Q1115.73 1517.04 1121.54 1517.04 Z" fill="#000000" fill-rule="nonzero" fill-opacity="1" /><path clip-path="url(#clip520)" d="M1151.7 1520.74 Q1148.09 1520.74 1146.26 1524.31 Q1144.46 1527.85 1144.46 1534.98 Q1144.46 1542.09 1146.26 1545.65 Q1148.09 1549.19 1151.7 1549.19 Q1155.34 1549.19 1157.14 1545.65 Q1158.97 1542.09 1158.97 1534.98 Q1158.97 1527.85 1157.14 1524.31 Q1155.34 1520.74 1151.7 1520.74 M1151.7 1517.04 Q1157.51 1517.04 1160.57 1521.65 Q1163.65 1526.23 1163.65 1534.98 Q1163.65 1543.71 1160.57 1548.31 Q1157.51 1552.9 1151.7 1552.9 Q1145.89 1552.9 1142.81 1548.31 Q1139.76 1543.71 1139.76 1534.98 Q1139.76 1526.23 1142.81 1521.65 Q1145.89 1517.04 1151.7 1517.04 Z" fill="#000000" fill-rule="nonzero" fill-opacity="1" /><path clip-path="url(#clip520)" d="M1200.03 1526.76 L1189.46 1537.39 L1200.03 1547.97 L1197.28 1550.77 L1186.65 1540.14 L1176.03 1550.77 L1173.3 1547.97 L1183.85 1537.39 L1173.3 1526.76 L1176.03 1523.96 L1186.65 1534.59 L1197.28 1523.96 L1200.03 1526.76 Z" fill="#000000" fill-rule="nonzero" fill-opacity="1" /><path clip-path="url(#clip520)" d="M1212.4 1548.29 L1220.03 1548.29 L1220.03 1521.92 L1211.72 1523.59 L1211.72 1519.33 L1219.99 1517.66 L1224.66 1517.66 L1224.66 1548.29 L1232.3 1548.29 L1232.3 1552.22 L1212.4 1552.22 L1212.4 1548.29 Z" fill="#000000" fill-rule="nonzero" fill-opacity="1" /><path clip-path="url(#clip520)" d="M1251.75 1520.74 Q1248.14 1520.74 1246.31 1524.31 Q1244.5 1527.85 1244.5 1534.98 Q1244.5 1542.09 1246.31 1545.65 Q1248.14 1549.19 1251.75 1549.19 Q1255.38 1549.19 1257.19 1545.65 Q1259.02 1542.09 1259.02 1534.98 Q1259.02 1527.85 1257.19 1524.31 Q1255.38 1520.74 1251.75 1520.74 M1251.75 1517.04 Q1257.56 1517.04 1260.61 1521.65 Q1263.69 1526.23 1263.69 1534.98 Q1263.69 1543.71 1260.61 1548.31 Q1257.56 1552.9 1251.75 1552.9 Q1245.94 1552.9 1242.86 1548.31 Q1239.8 1543.71 1239.8 1534.98 Q1239.8 1526.23 1242.86 1521.65 Q1245.94 1517.04 1251.75 1517.04 Z" fill="#000000" fill-rule="nonzero" fill-opacity="1" /><path clip-path="url(#clip520)" d="M1263.69 1511.14 L1287.8 1511.14 L1287.8 1514.34 L1263.69 1514.34 L1263.69 1511.14 Z" fill="#000000" fill-rule="nonzero" fill-opacity="1" /><path clip-path="url(#clip520)" d="M1296.66 1521.62 L1302.87 1521.62 L1302.87 1500.19 L1296.12 1501.55 L1296.12 1498.09 L1302.83 1496.73 L1306.63 1496.73 L1306.63 1521.62 L1312.84 1521.62 L1312.84 1524.81 L1296.66 1524.81 L1296.66 1521.62 Z" fill="#000000" fill-rule="nonzero" fill-opacity="1" /><path clip-path="url(#clip520)" d="M1328.63 1499.24 Q1325.7 1499.24 1324.21 1502.13 Q1322.75 1505.01 1322.75 1510.8 Q1322.75 1516.58 1324.21 1519.47 Q1325.7 1522.35 1328.63 1522.35 Q1331.59 1522.35 1333.05 1519.47 Q1334.54 1516.58 1334.54 1510.8 Q1334.54 1505.01 1333.05 1502.13 Q1331.59 1499.24 1328.63 1499.24 M1328.63 1496.23 Q1333.36 1496.23 1335.84 1499.97 Q1338.34 1503.69 1338.34 1510.8 Q1338.34 1517.89 1335.84 1521.64 Q1333.36 1525.36 1328.63 1525.36 Q1323.91 1525.36 1321.41 1521.64 Q1318.93 1517.89 1318.93 1510.8 Q1318.93 1503.69 1321.41 1499.97 Q1323.91 1496.23 1328.63 1496.23 Z" fill="#000000" fill-rule="nonzero" fill-opacity="1" /><path clip-path="url(#clip520)" d="M1403.7 1535.81 Q1400.37 1535.81 1398.45 1537.6 Q1396.55 1539.38 1396.55 1542.5 Q1396.55 1545.63 1398.45 1547.41 Q1400.37 1549.19 1403.7 1549.19 Q1407.04 1549.19 1408.96 1547.41 Q1410.88 1545.6 1410.88 1542.5 Q1410.88 1539.38 1408.96 1537.6 Q1407.06 1535.81 1403.7 1535.81 M1399.03 1533.82 Q1396.02 1533.08 1394.33 1531.02 Q1392.66 1528.96 1392.66 1526 Q1392.66 1521.85 1395.6 1519.45 Q1398.57 1517.04 1403.7 1517.04 Q1408.87 1517.04 1411.81 1519.45 Q1414.75 1521.85 1414.75 1526 Q1414.75 1528.96 1413.06 1531.02 Q1411.39 1533.08 1408.4 1533.82 Q1411.78 1534.61 1413.66 1536.9 Q1415.56 1539.19 1415.56 1542.5 Q1415.56 1547.53 1412.48 1550.21 Q1409.42 1552.9 1403.7 1552.9 Q1397.99 1552.9 1394.91 1550.21 Q1391.85 1547.53 1391.85 1542.5 Q1391.85 1539.19 1393.75 1536.9 Q1395.65 1534.61 1399.03 1533.82 M1397.32 1526.44 Q1397.32 1529.12 1398.98 1530.63 Q1400.67 1532.13 1403.7 1532.13 Q1406.71 1532.13 1408.4 1530.63 Q1410.12 1529.12 1410.12 1526.44 Q1410.12 1523.75 1408.4 1522.25 Q1406.71 1520.74 1403.7 1520.74 Q1400.67 1520.74 1398.98 1522.25 Q1397.32 1523.75 1397.32 1526.44 Z" fill="#000000" fill-rule="nonzero" fill-opacity="1" /><path clip-path="url(#clip520)" d="M1423.87 1546.35 L1428.75 1546.35 L1428.75 1552.22 L1423.87 1552.22 L1423.87 1546.35 Z" fill="#000000" fill-rule="nonzero" fill-opacity="1" /><path clip-path="url(#clip520)" d="M1448.94 1520.74 Q1445.32 1520.74 1443.5 1524.31 Q1441.69 1527.85 1441.69 1534.98 Q1441.69 1542.09 1443.5 1545.65 Q1445.32 1549.19 1448.94 1549.19 Q1452.57 1549.19 1454.38 1545.65 Q1456.2 1542.09 1456.2 1534.98 Q1456.2 1527.85 1454.38 1524.31 Q1452.57 1520.74 1448.94 1520.74 M1448.94 1517.04 Q1454.75 1517.04 1457.8 1521.65 Q1460.88 1526.23 1460.88 1534.98 Q1460.88 1543.71 1457.8 1548.31 Q1454.75 1552.9 1448.94 1552.9 Q1443.13 1552.9 1440.05 1548.31 Q1436.99 1543.71 1436.99 1534.98 Q1436.99 1526.23 1440.05 1521.65 Q1443.13 1517.04 1448.94 1517.04 Z" fill="#000000" fill-rule="nonzero" fill-opacity="1" /><path clip-path="url(#clip520)" d="M1479.1 1520.74 Q1475.49 1520.74 1473.66 1524.31 Q1471.85 1527.85 1471.85 1534.98 Q1471.85 1542.09 1473.66 1545.65 Q1475.49 1549.19 1479.1 1549.19 Q1482.73 1549.19 1484.54 1545.65 Q1486.37 1542.09 1486.37 1534.98 Q1486.37 1527.85 1484.54 1524.31 Q1482.73 1520.74 1479.1 1520.74 M1479.1 1517.04 Q1484.91 1517.04 1487.96 1521.65 Q1491.04 1526.23 1491.04 1534.98 Q1491.04 1543.71 1487.96 1548.31 Q1484.91 1552.9 1479.1 1552.9 Q1473.29 1552.9 1470.21 1548.31 Q1467.15 1543.71 1467.15 1534.98 Q1467.15 1526.23 1470.21 1521.65 Q1473.29 1517.04 1479.1 1517.04 Z" fill="#000000" fill-rule="nonzero" fill-opacity="1" /><path clip-path="url(#clip520)" d="M1527.43 1526.76 L1516.85 1537.39 L1527.43 1547.97 L1524.68 1550.77 L1514.05 1540.14 L1503.43 1550.77 L1500.69 1547.97 L1511.25 1537.39 L1500.69 1526.76 L1503.43 1523.96 L1514.05 1534.59 L1524.68 1523.96 L1527.43 1526.76 Z" fill="#000000" fill-rule="nonzero" fill-opacity="1" /><path clip-path="url(#clip520)" d="M1539.79 1548.29 L1547.43 1548.29 L1547.43 1521.92 L1539.12 1523.59 L1539.12 1519.33 L1547.38 1517.66 L1552.06 1517.66 L1552.06 1548.29 L1559.7 1548.29 L1559.7 1552.22 L1539.79 1552.22 L1539.79 1548.29 Z" fill="#000000" fill-rule="nonzero" fill-opacity="1" /><path clip-path="url(#clip520)" d="M1579.14 1520.74 Q1575.53 1520.74 1573.7 1524.31 Q1571.9 1527.85 1571.9 1534.98 Q1571.9 1542.09 1573.7 1545.65 Q1575.53 1549.19 1579.14 1549.19 Q1582.78 1549.19 1584.58 1545.65 Q1586.41 1542.09 1586.41 1534.98 Q1586.41 1527.85 1584.58 1524.31 Q1582.78 1520.74 1579.14 1520.74 M1579.14 1517.04 Q1584.95 1517.04 1588.01 1521.65 Q1591.09 1526.23 1591.09 1534.98 Q1591.09 1543.71 1588.01 1548.31 Q1584.95 1552.9 1579.14 1552.9 Q1573.33 1552.9 1570.25 1548.31 Q1567.2 1543.71 1567.2 1534.98 Q1567.2 1526.23 1570.25 1521.65 Q1573.33 1517.04 1579.14 1517.04 Z" fill="#000000" fill-rule="nonzero" fill-opacity="1" /><path clip-path="url(#clip520)" d="M1591.09 1511.14 L1615.2 1511.14 L1615.2 1514.34 L1591.09 1514.34 L1591.09 1511.14 Z" fill="#000000" fill-rule="nonzero" fill-opacity="1" /><path clip-path="url(#clip520)" d="M1624.06 1521.62 L1630.26 1521.62 L1630.26 1500.19 L1623.51 1501.55 L1623.51 1498.09 L1630.23 1496.73 L1634.03 1496.73 L1634.03 1521.62 L1640.23 1521.62 L1640.23 1524.81 L1624.06 1524.81 L1624.06 1521.62 Z" fill="#000000" fill-rule="nonzero" fill-opacity="1" /><path clip-path="url(#clip520)" d="M1656.03 1499.24 Q1653.1 1499.24 1651.61 1502.13 Q1650.14 1505.01 1650.14 1510.8 Q1650.14 1516.58 1651.61 1519.47 Q1653.1 1522.35 1656.03 1522.35 Q1658.98 1522.35 1660.45 1519.47 Q1661.94 1516.58 1661.94 1510.8 Q1661.94 1505.01 1660.45 1502.13 Q1658.98 1499.24 1656.03 1499.24 M1656.03 1496.23 Q1660.75 1496.23 1663.23 1499.97 Q1665.74 1503.69 1665.74 1510.8 Q1665.74 1517.89 1663.23 1521.64 Q1660.75 1525.36 1656.03 1525.36 Q1651.31 1525.36 1648.81 1521.64 Q1646.33 1517.89 1646.33 1510.8 Q1646.33 1503.69 1648.81 1499.97 Q1651.31 1496.23 1656.03 1496.23 Z" fill="#000000" fill-rule="nonzero" fill-opacity="1" /><path clip-path="url(#clip520)" d="M1733.2 1548.29 L1740.84 1548.29 L1740.84 1521.92 L1732.53 1523.59 L1732.53 1519.33 L1740.79 1517.66 L1745.47 1517.66 L1745.47 1548.29 L1753.1 1548.29 L1753.1 1552.22 L1733.2 1552.22 L1733.2 1548.29 Z" fill="#000000" fill-rule="nonzero" fill-opacity="1" /><path clip-path="url(#clip520)" d="M1762.55 1546.35 L1767.43 1546.35 L1767.43 1552.22 L1762.55 1552.22 L1762.55 1546.35 Z" fill="#000000" fill-rule="nonzero" fill-opacity="1" /><path clip-path="url(#clip520)" d="M1787.62 1520.74 Q1784.01 1520.74 1782.18 1524.31 Q1780.37 1527.85 1780.37 1534.98 Q1780.37 1542.09 1782.18 1545.65 Q1784.01 1549.19 1787.62 1549.19 Q1791.25 1549.19 1793.06 1545.65 Q1794.89 1542.09 1794.89 1534.98 Q1794.89 1527.85 1793.06 1524.31 Q1791.25 1520.74 1787.62 1520.74 M1787.62 1517.04 Q1793.43 1517.04 1796.48 1521.65 Q1799.56 1526.23 1799.56 1534.98 Q1799.56 1543.71 1796.48 1548.31 Q1793.43 1552.9 1787.62 1552.9 Q1781.81 1552.9 1778.73 1548.31 Q1775.67 1543.71 1775.67 1534.98 Q1775.67 1526.23 1778.73 1521.65 Q1781.81 1517.04 1787.62 1517.04 Z" fill="#000000" fill-rule="nonzero" fill-opacity="1" /><path clip-path="url(#clip520)" d="M1817.78 1520.74 Q1814.17 1520.74 1812.34 1524.31 Q1810.54 1527.85 1810.54 1534.98 Q1810.54 1542.09 1812.34 1545.65 Q1814.17 1549.19 1817.78 1549.19 Q1821.41 1549.19 1823.22 1545.65 Q1825.05 1542.09 1825.05 1534.98 Q1825.05 1527.85 1823.22 1524.31 Q1821.41 1520.74 1817.78 1520.74 M1817.78 1517.04 Q1823.59 1517.04 1826.65 1521.65 Q1829.72 1526.23 1829.72 1534.98 Q1829.72 1543.71 1826.65 1548.31 Q1823.59 1552.9 1817.78 1552.9 Q1811.97 1552.9 1808.89 1548.31 Q1805.84 1543.71 1805.84 1534.98 Q1805.84 1526.23 1808.89 1521.65 Q1811.97 1517.04 1817.78 1517.04 Z" fill="#000000" fill-rule="nonzero" fill-opacity="1" /><path clip-path="url(#clip520)" d="M1866.11 1526.76 L1855.53 1537.39 L1866.11 1547.97 L1863.36 1550.77 L1852.73 1540.14 L1842.11 1550.77 L1839.38 1547.97 L1849.93 1537.39 L1839.38 1526.76 L1842.11 1523.96 L1852.73 1534.59 L1863.36 1523.96 L1866.11 1526.76 Z" fill="#000000" fill-rule="nonzero" fill-opacity="1" /><path clip-path="url(#clip520)" d="M1878.47 1548.29 L1886.11 1548.29 L1886.11 1521.92 L1877.8 1523.59 L1877.8 1519.33 L1886.07 1517.66 L1890.74 1517.66 L1890.74 1548.29 L1898.38 1548.29 L1898.38 1552.22 L1878.47 1552.22 L1878.47 1548.29 Z" fill="#000000" fill-rule="nonzero" fill-opacity="1" /><path clip-path="url(#clip520)" d="M1917.83 1520.74 Q1914.22 1520.74 1912.39 1524.31 Q1910.58 1527.85 1910.58 1534.98 Q1910.58 1542.09 1912.39 1545.65 Q1914.22 1549.19 1917.83 1549.19 Q1921.46 1549.19 1923.27 1545.65 Q1925.09 1542.09 1925.09 1534.98 Q1925.09 1527.85 1923.27 1524.31 Q1921.46 1520.74 1917.83 1520.74 M1917.83 1517.04 Q1923.64 1517.04 1926.69 1521.65 Q1929.77 1526.23 1929.77 1534.98 Q1929.77 1543.71 1926.69 1548.31 Q1923.64 1552.9 1917.83 1552.9 Q1912.02 1552.9 1908.94 1548.31 Q1905.88 1543.71 1905.88 1534.98 Q1905.88 1526.23 1908.94 1521.65 Q1912.02 1517.04 1917.83 1517.04 Z" fill="#000000" fill-rule="nonzero" fill-opacity="1" /><path clip-path="url(#clip520)" d="M1929.77 1511.14 L1953.88 1511.14 L1953.88 1514.34 L1929.77 1514.34 L1929.77 1511.14 Z" fill="#000000" fill-rule="nonzero" fill-opacity="1" /><path clip-path="url(#clip520)" d="M1962.2 1524.23 L1962.2 1520.77 Q1963.62 1521.45 1965.09 1521.81 Q1966.56 1522.16 1967.97 1522.16 Q1971.73 1522.16 1973.71 1519.64 Q1975.7 1517.1 1975.98 1511.95 Q1974.89 1513.57 1973.22 1514.43 Q1971.54 1515.3 1969.51 1515.3 Q1965.3 1515.3 1962.83 1512.76 Q1960.39 1510.2 1960.39 1505.78 Q1960.39 1501.46 1962.95 1498.84 Q1965.51 1496.23 1969.76 1496.23 Q1974.63 1496.23 1977.18 1499.97 Q1979.76 1503.69 1979.76 1510.8 Q1979.76 1517.44 1976.6 1521.41 Q1973.46 1525.36 1968.14 1525.36 Q1966.71 1525.36 1965.24 1525.08 Q1963.78 1524.8 1962.2 1524.23 M1969.76 1512.33 Q1972.31 1512.33 1973.8 1510.58 Q1975.3 1508.83 1975.3 1505.78 Q1975.3 1502.75 1973.8 1501 Q1972.31 1499.24 1969.76 1499.24 Q1967.2 1499.24 1965.69 1501 Q1964.21 1502.75 1964.21 1505.78 Q1964.21 1508.83 1965.69 1510.58 Q1967.2 1512.33 1969.76 1512.33 Z" fill="#000000" fill-rule="nonzero" fill-opacity="1" /><path clip-path="url(#clip520)" d="M2060.55 1548.29 L2068.19 1548.29 L2068.19 1521.92 L2059.88 1523.59 L2059.88 1519.33 L2068.14 1517.66 L2072.82 1517.66 L2072.82 1548.29 L2080.45 1548.29 L2080.45 1552.22 L2060.55 1552.22 L2060.55 1548.29 Z" fill="#000000" fill-rule="nonzero" fill-opacity="1" /><path clip-path="url(#clip520)" d="M2089.9 1546.35 L2094.78 1546.35 L2094.78 1552.22 L2089.9 1552.22 L2089.9 1546.35 Z" fill="#000000" fill-rule="nonzero" fill-opacity="1" /><path clip-path="url(#clip520)" d="M2109 1548.29 L2125.32 1548.29 L2125.32 1552.22 L2103.37 1552.22 L2103.37 1548.29 Q2106.03 1545.53 2110.62 1540.91 Q2115.22 1536.25 2116.4 1534.91 Q2118.65 1532.39 2119.53 1530.65 Q2120.43 1528.89 2120.43 1527.2 Q2120.43 1524.45 2118.49 1522.71 Q2116.57 1520.97 2113.46 1520.97 Q2111.26 1520.97 2108.81 1521.74 Q2106.38 1522.5 2103.6 1524.05 L2103.6 1519.33 Q2106.43 1518.2 2108.88 1517.62 Q2111.33 1517.04 2113.37 1517.04 Q2118.74 1517.04 2121.94 1519.72 Q2125.13 1522.41 2125.13 1526.9 Q2125.13 1529.03 2124.32 1530.95 Q2123.53 1532.85 2121.43 1535.44 Q2120.85 1536.11 2117.75 1539.33 Q2114.64 1542.53 2109 1548.29 Z" fill="#000000" fill-rule="nonzero" fill-opacity="1" /><path clip-path="url(#clip520)" d="M2145.13 1520.74 Q2141.52 1520.74 2139.69 1524.31 Q2137.89 1527.85 2137.89 1534.98 Q2137.89 1542.09 2139.69 1545.65 Q2141.52 1549.19 2145.13 1549.19 Q2148.76 1549.19 2150.57 1545.65 Q2152.4 1542.09 2152.4 1534.98 Q2152.4 1527.85 2150.57 1524.31 Q2148.76 1520.74 2145.13 1520.74 M2145.13 1517.04 Q2150.94 1517.04 2154 1521.65 Q2157.07 1526.23 2157.07 1534.98 Q2157.07 1543.71 2154 1548.31 Q2150.94 1552.9 2145.13 1552.9 Q2139.32 1552.9 2136.24 1548.31 Q2133.19 1543.71 2133.19 1534.98 Q2133.19 1526.23 2136.24 1521.65 Q2139.32 1517.04 2145.13 1517.04 Z" fill="#000000" fill-rule="nonzero" fill-opacity="1" /><path clip-path="url(#clip520)" d="M2193.46 1526.76 L2182.88 1537.39 L2193.46 1547.97 L2190.71 1550.77 L2180.08 1540.14 L2169.46 1550.77 L2166.73 1547.97 L2177.28 1537.39 L2166.73 1526.76 L2169.46 1523.96 L2180.08 1534.59 L2190.71 1523.96 L2193.46 1526.76 Z" fill="#000000" fill-rule="nonzero" fill-opacity="1" /><path clip-path="url(#clip520)" d="M2205.82 1548.29 L2213.46 1548.29 L2213.46 1521.92 L2205.15 1523.59 L2205.15 1519.33 L2213.42 1517.66 L2218.09 1517.66 L2218.09 1548.29 L2225.73 1548.29 L2225.73 1552.22 L2205.82 1552.22 L2205.82 1548.29 Z" fill="#000000" fill-rule="nonzero" fill-opacity="1" /><path clip-path="url(#clip520)" d="M2245.18 1520.74 Q2241.57 1520.74 2239.74 1524.31 Q2237.93 1527.85 2237.93 1534.98 Q2237.93 1542.09 2239.74 1545.65 Q2241.57 1549.19 2245.18 1549.19 Q2248.81 1549.19 2250.62 1545.65 Q2252.44 1542.09 2252.44 1534.98 Q2252.44 1527.85 2250.62 1524.31 Q2248.81 1520.74 2245.18 1520.74 M2245.18 1517.04 Q2250.99 1517.04 2254.04 1521.65 Q2257.12 1526.23 2257.12 1534.98 Q2257.12 1543.71 2254.04 1548.31 Q2250.99 1552.9 2245.18 1552.9 Q2239.37 1552.9 2236.29 1548.31 Q2233.23 1543.71 2233.23 1534.98 Q2233.23 1526.23 2236.29 1521.65 Q2239.37 1517.04 2245.18 1517.04 Z" fill="#000000" fill-rule="nonzero" fill-opacity="1" /><path clip-path="url(#clip520)" d="M2257.12 1511.14 L2281.23 1511.14 L2281.23 1514.34 L2257.12 1514.34 L2257.12 1511.14 Z" fill="#000000" fill-rule="nonzero" fill-opacity="1" /><path clip-path="url(#clip520)" d="M2289.55 1524.23 L2289.55 1520.77 Q2290.97 1521.45 2292.44 1521.81 Q2293.91 1522.16 2295.32 1522.16 Q2299.08 1522.16 2301.06 1519.64 Q2303.05 1517.1 2303.33 1511.95 Q2302.24 1513.57 2300.57 1514.43 Q2298.89 1515.3 2296.86 1515.3 Q2292.65 1515.3 2290.18 1512.76 Q2287.74 1510.2 2287.74 1505.78 Q2287.74 1501.46 2290.3 1498.84 Q2292.86 1496.23 2297.11 1496.23 Q2301.98 1496.23 2304.54 1499.97 Q2307.11 1503.69 2307.11 1510.8 Q2307.11 1517.44 2303.95 1521.41 Q2300.81 1525.36 2295.49 1525.36 Q2294.06 1525.36 2292.59 1525.08 Q2291.13 1524.8 2289.55 1524.23 M2297.11 1512.33 Q2299.66 1512.33 2301.15 1510.58 Q2302.65 1508.83 2302.65 1505.78 Q2302.65 1502.75 2301.15 1501 Q2299.66 1499.24 2297.11 1499.24 Q2294.55 1499.24 2293.04 1501 Q2291.56 1502.75 2291.56 1505.78 Q2291.56 1508.83 2293.04 1510.58 Q2294.55 1512.33 2297.11 1512.33 Z" fill="#000000" fill-rule="nonzero" fill-opacity="1" /><polyline clip-path="url(#clip522)" style="stroke:#000000; stroke-linecap:round; stroke-linejoin:round; stroke-width:2; stroke-opacity:0.1; fill:none" points="157.257,1433.78 2352.76,1433.78 "/>
<polyline clip-path="url(#clip522)" style="stroke:#000000; stroke-linecap:round; stroke-linejoin:round; stroke-width:2; stroke-opacity:0.1; fill:none" points="157.257,1188.23 2352.76,1188.23 "/>
<polyline clip-path="url(#clip522)" style="stroke:#000000; stroke-linecap:round; stroke-linejoin:round; stroke-width:2; stroke-opacity:0.1; fill:none" points="157.257,942.684 2352.76,942.684 "/>
<polyline clip-path="url(#clip522)" style="stroke:#000000; stroke-linecap:round; stroke-linejoin:round; stroke-width:2; stroke-opacity:0.1; fill:none" points="157.257,697.135 2352.76,697.135 "/>
<polyline clip-path="url(#clip522)" style="stroke:#000000; stroke-linecap:round; stroke-linejoin:round; stroke-width:2; stroke-opacity:0.1; fill:none" points="157.257,451.587 2352.76,451.587 "/>
<polyline clip-path="url(#clip522)" style="stroke:#000000; stroke-linecap:round; stroke-linejoin:round; stroke-width:2; stroke-opacity:0.1; fill:none" points="157.257,206.039 2352.76,206.039 "/>
<polyline clip-path="url(#clip520)" style="stroke:#000000; stroke-linecap:round; stroke-linejoin:round; stroke-width:4; stroke-opacity:1; fill:none" points="157.257,1474.16 157.257,47.2441 "/>
<polyline clip-path="url(#clip520)" style="stroke:#000000; stroke-linecap:round; stroke-linejoin:round; stroke-width:4; stroke-opacity:1; fill:none" points="157.257,1433.78 176.155,1433.78 "/>
<polyline clip-path="url(#clip520)" style="stroke:#000000; stroke-linecap:round; stroke-linejoin:round; stroke-width:4; stroke-opacity:1; fill:none" points="157.257,1188.23 176.155,1188.23 "/>
<polyline clip-path="url(#clip520)" style="stroke:#000000; stroke-linecap:round; stroke-linejoin:round; stroke-width:4; stroke-opacity:1; fill:none" points="157.257,942.684 176.155,942.684 "/>
<polyline clip-path="url(#clip520)" style="stroke:#000000; stroke-linecap:round; stroke-linejoin:round; stroke-width:4; stroke-opacity:1; fill:none" points="157.257,697.135 176.155,697.135 "/>
<polyline clip-path="url(#clip520)" style="stroke:#000000; stroke-linecap:round; stroke-linejoin:round; stroke-width:4; stroke-opacity:1; fill:none" points="157.257,451.587 176.155,451.587 "/>
<polyline clip-path="url(#clip520)" style="stroke:#000000; stroke-linecap:round; stroke-linejoin:round; stroke-width:4; stroke-opacity:1; fill:none" points="157.257,206.039 176.155,206.039 "/>
<path clip-path="url(#clip520)" d="M81.1356 1433.78 Q81.1356 1437.39 84.7004 1439.22 Q88.2421 1441.03 95.3716 1441.03 Q102.478 1441.03 106.043 1439.22 Q109.585 1437.39 109.585 1433.78 Q109.585 1430.15 106.043 1428.34 Q102.478 1426.51 95.3716 1426.51 Q88.2421 1426.51 84.7004 1428.34 Q81.1356 1430.15 81.1356 1433.78 M77.4319 1433.78 Q77.4319 1427.97 82.0384 1424.91 Q86.6217 1421.84 95.3716 1421.84 Q104.098 1421.84 108.705 1424.91 Q113.288 1427.97 113.288 1433.78 Q113.288 1439.59 108.705 1442.67 Q104.098 1445.72 95.3716 1445.72 Q86.6217 1445.72 82.0384 1442.67 Q77.4319 1439.59 77.4319 1433.78 Z" fill="#000000" fill-rule="nonzero" fill-opacity="1" /><path clip-path="url(#clip520)" d="M75.2921 1295.86 L75.2921 1277.5 L79.2273 1277.5 L79.2273 1291.57 L87.6995 1291.57 Q87.3522 1290.56 87.1902 1289.54 Q87.005 1288.52 87.005 1287.5 Q87.005 1281.71 90.1763 1278.33 Q93.3476 1274.95 98.7642 1274.95 Q104.343 1274.95 107.445 1278.43 Q110.523 1281.9 110.523 1288.22 Q110.523 1290.39 110.153 1292.66 Q109.783 1294.91 109.042 1297.32 L104.343 1297.32 Q105.477 1295.23 106.033 1293.01 Q106.588 1290.79 106.588 1288.31 Q106.588 1284.31 104.482 1281.97 Q102.375 1279.63 98.7642 1279.63 Q95.1531 1279.63 93.0467 1281.97 Q90.9402 1284.31 90.9402 1288.31 Q90.9402 1290.19 91.3569 1292.06 Q91.7735 1293.91 92.6531 1295.86 L75.2921 1295.86 Z" fill="#000000" fill-rule="nonzero" fill-opacity="1" /><path clip-path="url(#clip520)" d="M103.973 1265.74 L103.973 1260.86 L109.852 1260.86 L109.852 1265.74 L103.973 1265.74 Z" fill="#000000" fill-rule="nonzero" fill-opacity="1" /><path clip-path="url(#clip520)" d="M78.3708 1240.67 Q78.3708 1244.28 81.9356 1246.11 Q85.4773 1247.92 92.6068 1247.92 Q99.7133 1247.92 103.278 1246.11 Q106.82 1244.28 106.82 1240.67 Q106.82 1237.04 103.278 1235.23 Q99.7133 1233.4 92.6068 1233.4 Q85.4773 1233.4 81.9356 1235.23 Q78.3708 1237.04 78.3708 1240.67 M74.6671 1240.67 Q74.6671 1234.86 79.2736 1231.81 Q83.8569 1228.73 92.6068 1228.73 Q101.334 1228.73 105.94 1231.81 Q110.523 1234.86 110.523 1240.67 Q110.523 1246.48 105.94 1249.56 Q101.334 1252.62 92.6068 1252.62 Q83.8569 1252.62 79.2736 1249.56 Q74.6671 1246.48 74.6671 1240.67 Z" fill="#000000" fill-rule="nonzero" fill-opacity="1" /><path clip-path="url(#clip520)" d="M78.3708 1210.51 Q78.3708 1214.12 81.9356 1215.95 Q85.4773 1217.76 92.6068 1217.76 Q99.7133 1217.76 103.278 1215.95 Q106.82 1214.12 106.82 1210.51 Q106.82 1206.88 103.278 1205.07 Q99.7133 1203.24 92.6068 1203.24 Q85.4773 1203.24 81.9356 1205.07 Q78.3708 1206.88 78.3708 1210.51 M74.6671 1210.51 Q74.6671 1204.7 79.2736 1201.64 Q83.8569 1198.57 92.6068 1198.57 Q101.334 1198.57 105.94 1201.64 Q110.523 1204.7 110.523 1210.51 Q110.523 1216.32 105.94 1219.4 Q101.334 1222.45 92.6068 1222.45 Q83.8569 1222.45 79.2736 1219.4 Q74.6671 1216.32 74.6671 1210.51 Z" fill="#000000" fill-rule="nonzero" fill-opacity="1" /><path clip-path="url(#clip520)" d="M84.3893 1162.18 L95.0142 1172.76 L105.593 1162.18 L108.394 1164.93 L97.7689 1175.56 L108.394 1186.18 L105.593 1188.91 L95.0142 1178.36 L84.3893 1188.91 L81.5884 1186.18 L92.2133 1175.56 L81.5884 1164.93 L84.3893 1162.18 Z" fill="#000000" fill-rule="nonzero" fill-opacity="1" /><path clip-path="url(#clip520)" d="M105.917 1149.82 L105.917 1142.18 L79.5514 1142.18 L81.218 1150.49 L76.9588 1150.49 L75.2921 1142.22 L75.2921 1137.55 L105.917 1137.55 L105.917 1129.91 L109.852 1129.91 L109.852 1149.82 L105.917 1149.82 Z" fill="#000000" fill-rule="nonzero" fill-opacity="1" /><path clip-path="url(#clip520)" d="M78.3708 1110.46 Q78.3708 1114.08 81.9356 1115.9 Q85.4773 1117.71 92.6068 1117.71 Q99.7133 1117.71 103.278 1115.9 Q106.82 1114.08 106.82 1110.46 Q106.82 1106.83 103.278 1105.02 Q99.7133 1103.2 92.6068 1103.2 Q85.4773 1103.2 81.9356 1105.02 Q78.3708 1106.83 78.3708 1110.46 M74.6671 1110.46 Q74.6671 1104.65 79.2736 1101.6 Q83.8569 1098.52 92.6068 1098.52 Q101.334 1098.52 105.94 1101.6 Q110.523 1104.65 110.523 1110.46 Q110.523 1116.27 105.94 1119.35 Q101.334 1122.41 92.6068 1122.41 Q83.8569 1122.41 79.2736 1119.35 Q74.6671 1116.27 74.6671 1110.46 Z" fill="#000000" fill-rule="nonzero" fill-opacity="1" /><path clip-path="url(#clip520)" d="M81.8587 1096.71 L78.3981 1096.71 Q79.0751 1095.29 79.4325 1093.82 Q79.7898 1092.35 79.7898 1090.94 Q79.7898 1087.18 77.2696 1085.2 Q74.7305 1083.21 69.5772 1082.93 Q71.1947 1084.02 72.0598 1085.69 Q72.925 1087.37 72.925 1089.4 Q72.925 1093.61 70.3859 1096.08 Q67.8281 1098.52 63.4083 1098.52 Q59.0825 1098.52 56.4682 1095.96 Q53.8539 1093.4 53.8539 1089.15 Q53.8539 1084.28 57.5967 1081.72 Q61.3206 1079.15 68.4299 1079.15 Q75.0691 1079.15 79.0375 1082.31 Q82.9872 1085.45 82.9872 1090.77 Q82.9872 1092.2 82.705 1093.67 Q82.4229 1095.13 81.8587 1096.71 M69.9534 1089.15 Q69.9534 1086.6 68.2042 1085.11 Q66.4551 1083.61 63.4083 1083.61 Q60.3802 1083.61 58.6311 1085.11 Q56.8632 1086.6 56.8632 1089.15 Q56.8632 1091.71 58.6311 1093.22 Q60.3802 1094.7 63.4083 1094.7 Q66.4551 1094.7 68.2042 1093.22 Q69.9534 1091.71 69.9534 1089.15 Z" fill="#000000" fill-rule="nonzero" fill-opacity="1" /><path clip-path="url(#clip520)" d="M105.917 1061.75 L105.917 1054.11 L79.5514 1054.11 L81.218 1062.42 L76.9588 1062.42 L75.2921 1054.15 L75.2921 1049.48 L105.917 1049.48 L105.917 1041.84 L109.852 1041.84 L109.852 1061.75 L105.917 1061.75 Z" fill="#000000" fill-rule="nonzero" fill-opacity="1" /><path clip-path="url(#clip520)" d="M103.973 1032.39 L103.973 1027.51 L109.852 1027.51 L109.852 1032.39 L103.973 1032.39 Z" fill="#000000" fill-rule="nonzero" fill-opacity="1" /><path clip-path="url(#clip520)" d="M78.3708 1007.33 Q78.3708 1010.94 81.9356 1012.77 Q85.4773 1014.57 92.6068 1014.57 Q99.7133 1014.57 103.278 1012.77 Q106.82 1010.94 106.82 1007.33 Q106.82 1003.69 103.278 1001.89 Q99.7133 1000.06 92.6068 1000.06 Q85.4773 1000.06 81.9356 1001.89 Q78.3708 1003.69 78.3708 1007.33 M74.6671 1007.33 Q74.6671 1001.52 79.2736 998.46 Q83.8569 995.381 92.6068 995.381 Q101.334 995.381 105.94 998.46 Q110.523 1001.52 110.523 1007.33 Q110.523 1013.14 105.94 1016.21 Q101.334 1019.27 92.6068 1019.27 Q83.8569 1019.27 79.2736 1016.21 Q74.6671 1013.14 74.6671 1007.33 Z" fill="#000000" fill-rule="nonzero" fill-opacity="1" /><path clip-path="url(#clip520)" d="M78.3708 977.163 Q78.3708 980.774 81.9356 982.603 Q85.4773 984.409 92.6068 984.409 Q99.7133 984.409 103.278 982.603 Q106.82 980.774 106.82 977.163 Q106.82 973.529 103.278 971.724 Q99.7133 969.895 92.6068 969.895 Q85.4773 969.895 81.9356 971.724 Q78.3708 973.529 78.3708 977.163 M74.6671 977.163 Q74.6671 971.353 79.2736 968.298 Q83.8569 965.219 92.6068 965.219 Q101.334 965.219 105.94 968.298 Q110.523 971.353 110.523 977.163 Q110.523 982.974 105.94 986.052 Q101.334 989.108 92.6068 989.108 Q83.8569 989.108 79.2736 986.052 Q74.6671 982.974 74.6671 977.163 Z" fill="#000000" fill-rule="nonzero" fill-opacity="1" /><path clip-path="url(#clip520)" d="M84.3893 928.83 L95.0142 939.409 L105.593 928.83 L108.394 931.585 L97.7689 942.21 L108.394 952.835 L105.593 955.566 L95.0142 945.011 L84.3893 955.566 L81.5884 952.835 L92.2133 942.21 L81.5884 931.585 L84.3893 928.83 Z" fill="#000000" fill-rule="nonzero" fill-opacity="1" /><path clip-path="url(#clip520)" d="M105.917 916.469 L105.917 908.83 L79.5514 908.83 L81.218 917.141 L76.9588 917.141 L75.2921 908.877 L75.2921 904.201 L105.917 904.201 L105.917 896.562 L109.852 896.562 L109.852 916.469 L105.917 916.469 Z" fill="#000000" fill-rule="nonzero" fill-opacity="1" /><path clip-path="url(#clip520)" d="M78.3708 877.118 Q78.3708 880.729 81.9356 882.557 Q85.4773 884.363 92.6068 884.363 Q99.7133 884.363 103.278 882.557 Q106.82 880.729 106.82 877.118 Q106.82 873.483 103.278 871.678 Q99.7133 869.849 92.6068 869.849 Q85.4773 869.849 81.9356 871.678 Q78.3708 873.483 78.3708 877.118 M74.6671 877.118 Q74.6671 871.307 79.2736 868.252 Q83.8569 865.173 92.6068 865.173 Q101.334 865.173 105.94 868.252 Q110.523 871.307 110.523 877.118 Q110.523 882.928 105.94 886.006 Q101.334 889.062 92.6068 889.062 Q83.8569 889.062 79.2736 886.006 Q74.6671 882.928 74.6671 877.118 Z" fill="#000000" fill-rule="nonzero" fill-opacity="1" /><path clip-path="url(#clip520)" d="M79.2444 864.628 L79.2444 858.421 L57.8224 858.421 L59.1765 865.173 L55.7159 865.173 L54.3617 858.459 L54.3617 854.66 L79.2444 854.66 L79.2444 848.453 L82.4417 848.453 L82.4417 864.628 L79.2444 864.628 Z" fill="#000000" fill-rule="nonzero" fill-opacity="1" /><path clip-path="url(#clip520)" d="M56.8632 832.655 Q56.8632 835.589 59.7596 837.074 Q62.6371 838.541 68.4299 838.541 Q74.2039 838.541 77.1003 837.074 Q79.9779 835.589 79.9779 832.655 Q79.9779 829.702 77.1003 828.235 Q74.2039 826.749 68.4299 826.749 Q62.6371 826.749 59.7596 828.235 Q56.8632 829.702 56.8632 832.655 M53.8539 832.655 Q53.8539 827.934 57.5967 825.451 Q61.3206 822.95 68.4299 822.95 Q75.5205 822.95 79.2632 825.451 Q82.9872 827.934 82.9872 832.655 Q82.9872 837.375 79.2632 839.877 Q75.5205 842.359 68.4299 842.359 Q61.3206 842.359 57.5967 839.877 Q53.8539 837.375 53.8539 832.655 Z" fill="#000000" fill-rule="nonzero" fill-opacity="1" /><path clip-path="url(#clip520)" d="M105.917 816.198 L105.917 808.559 L79.5514 808.559 L81.218 816.869 L76.9588 816.869 L75.2921 808.605 L75.2921 803.93 L105.917 803.93 L105.917 796.291 L109.852 796.291 L109.852 816.198 L105.917 816.198 Z" fill="#000000" fill-rule="nonzero" fill-opacity="1" /><path clip-path="url(#clip520)" d="M103.973 786.846 L103.973 781.962 L109.852 781.962 L109.852 786.846 L103.973 786.846 Z" fill="#000000" fill-rule="nonzero" fill-opacity="1" /><path clip-path="url(#clip520)" d="M75.2921 771.731 L75.2921 753.374 L79.2273 753.374 L79.2273 767.448 L87.6995 767.448 Q87.3522 766.43 87.1902 765.411 Q87.005 764.393 87.005 763.374 Q87.005 757.587 90.1763 754.208 Q93.3476 750.828 98.7642 750.828 Q104.343 750.828 107.445 754.3 Q110.523 757.772 110.523 764.092 Q110.523 766.268 110.153 768.536 Q109.783 770.782 109.042 773.189 L104.343 773.189 Q105.477 771.106 106.033 768.883 Q106.588 766.661 106.588 764.184 Q106.588 760.18 104.482 757.842 Q102.375 755.504 98.7642 755.504 Q95.1531 755.504 93.0467 757.842 Q90.9402 760.18 90.9402 764.184 Q90.9402 766.059 91.3569 767.934 Q91.7735 769.786 92.6531 771.731 L75.2921 771.731 Z" fill="#000000" fill-rule="nonzero" fill-opacity="1" /><path clip-path="url(#clip520)" d="M78.3708 731.615 Q78.3708 735.226 81.9356 737.055 Q85.4773 738.86 92.6068 738.86 Q99.7133 738.86 103.278 737.055 Q106.82 735.226 106.82 731.615 Q106.82 727.981 103.278 726.175 Q99.7133 724.347 92.6068 724.347 Q85.4773 724.347 81.9356 726.175 Q78.3708 727.981 78.3708 731.615 M74.6671 731.615 Q74.6671 725.805 79.2736 722.749 Q83.8569 719.671 92.6068 719.671 Q101.334 719.671 105.94 722.749 Q110.523 725.805 110.523 731.615 Q110.523 737.425 105.94 740.504 Q101.334 743.559 92.6068 743.559 Q83.8569 743.559 79.2736 740.504 Q74.6671 737.425 74.6671 731.615 Z" fill="#000000" fill-rule="nonzero" fill-opacity="1" /><path clip-path="url(#clip520)" d="M84.3893 683.282 L95.0142 693.861 L105.593 683.282 L108.394 686.037 L97.7689 696.662 L108.394 707.287 L105.593 710.018 L95.0142 699.462 L84.3893 710.018 L81.5884 707.287 L92.2133 696.662 L81.5884 686.037 L84.3893 683.282 Z" fill="#000000" fill-rule="nonzero" fill-opacity="1" /><path clip-path="url(#clip520)" d="M105.917 670.921 L105.917 663.282 L79.5514 663.282 L81.218 671.592 L76.9588 671.592 L75.2921 663.328 L75.2921 658.653 L105.917 658.653 L105.917 651.014 L109.852 651.014 L109.852 670.921 L105.917 670.921 Z" fill="#000000" fill-rule="nonzero" fill-opacity="1" /><path clip-path="url(#clip520)" d="M78.3708 631.569 Q78.3708 635.18 81.9356 637.009 Q85.4773 638.815 92.6068 638.815 Q99.7133 638.815 103.278 637.009 Q106.82 635.18 106.82 631.569 Q106.82 627.935 103.278 626.13 Q99.7133 624.301 92.6068 624.301 Q85.4773 624.301 81.9356 626.13 Q78.3708 627.935 78.3708 631.569 M74.6671 631.569 Q74.6671 625.759 79.2736 622.704 Q83.8569 619.625 92.6068 619.625 Q101.334 619.625 105.94 622.704 Q110.523 625.759 110.523 631.569 Q110.523 637.379 105.94 640.458 Q101.334 643.514 92.6068 643.514 Q83.8569 643.514 79.2736 640.458 Q74.6671 637.379 74.6671 631.569 Z" fill="#000000" fill-rule="nonzero" fill-opacity="1" /><path clip-path="url(#clip520)" d="M79.2444 619.08 L79.2444 612.873 L57.8224 612.873 L59.1765 619.625 L55.7159 619.625 L54.3617 612.911 L54.3617 609.111 L79.2444 609.111 L79.2444 602.905 L82.4417 602.905 L82.4417 619.08 L79.2444 619.08 Z" fill="#000000" fill-rule="nonzero" fill-opacity="1" /><path clip-path="url(#clip520)" d="M56.8632 587.106 Q56.8632 590.04 59.7596 591.526 Q62.6371 592.993 68.4299 592.993 Q74.2039 592.993 77.1003 591.526 Q79.9779 590.04 79.9779 587.106 Q79.9779 584.154 77.1003 582.687 Q74.2039 581.201 68.4299 581.201 Q62.6371 581.201 59.7596 582.687 Q56.8632 584.154 56.8632 587.106 M53.8539 587.106 Q53.8539 582.386 57.5967 579.903 Q61.3206 577.402 68.4299 577.402 Q75.5205 577.402 79.2632 579.903 Q82.9872 582.386 82.9872 587.106 Q82.9872 591.827 79.2632 594.329 Q75.5205 596.811 68.4299 596.811 Q61.3206 596.811 57.5967 594.329 Q53.8539 591.827 53.8539 587.106 Z" fill="#000000" fill-rule="nonzero" fill-opacity="1" /><path clip-path="url(#clip520)" d="M105.917 566.564 L105.917 550.245 L109.852 550.245 L109.852 572.189 L105.917 572.189 Q103.162 569.527 98.5327 564.944 Q93.88 560.337 92.5374 559.157 Q90.0143 556.911 88.2782 556.032 Q86.5189 555.129 84.8291 555.129 Q82.0745 555.129 80.3384 557.073 Q78.6023 558.995 78.6023 562.097 Q78.6023 564.296 79.3662 566.749 Q80.1301 569.18 81.681 571.958 L76.9588 571.958 Q75.8245 569.134 75.2458 566.68 Q74.6671 564.226 74.6671 562.189 Q74.6671 556.819 77.3523 553.624 Q80.0375 550.43 84.5282 550.43 Q86.6578 550.43 88.5791 551.24 Q90.4772 552.027 93.0698 554.134 Q93.7411 554.712 96.9587 557.814 Q100.153 560.916 105.917 566.564 Z" fill="#000000" fill-rule="nonzero" fill-opacity="1" /><path clip-path="url(#clip520)" d="M103.973 540.43 L103.973 535.546 L109.852 535.546 L109.852 540.43 L103.973 540.43 Z" fill="#000000" fill-rule="nonzero" fill-opacity="1" /><path clip-path="url(#clip520)" d="M78.3708 515.361 Q78.3708 518.972 81.9356 520.8 Q85.4773 522.606 92.6068 522.606 Q99.7133 522.606 103.278 520.8 Q106.82 518.972 106.82 515.361 Q106.82 511.726 103.278 509.921 Q99.7133 508.092 92.6068 508.092 Q85.4773 508.092 81.9356 509.921 Q78.3708 511.726 78.3708 515.361 M74.6671 515.361 Q74.6671 509.551 79.2736 506.495 Q83.8569 503.416 92.6068 503.416 Q101.334 503.416 105.94 506.495 Q110.523 509.551 110.523 515.361 Q110.523 521.171 105.94 524.25 Q101.334 527.305 92.6068 527.305 Q83.8569 527.305 79.2736 524.25 Q74.6671 521.171 74.6671 515.361 Z" fill="#000000" fill-rule="nonzero" fill-opacity="1" /><path clip-path="url(#clip520)" d="M78.3708 485.199 Q78.3708 488.81 81.9356 490.639 Q85.4773 492.444 92.6068 492.444 Q99.7133 492.444 103.278 490.639 Q106.82 488.81 106.82 485.199 Q106.82 481.565 103.278 479.759 Q99.7133 477.93 92.6068 477.93 Q85.4773 477.93 81.9356 479.759 Q78.3708 481.565 78.3708 485.199 M74.6671 485.199 Q74.6671 479.389 79.2736 476.333 Q83.8569 473.254 92.6068 473.254 Q101.334 473.254 105.94 476.333 Q110.523 479.389 110.523 485.199 Q110.523 491.009 105.94 494.088 Q101.334 497.143 92.6068 497.143 Q83.8569 497.143 79.2736 494.088 Q74.6671 491.009 74.6671 485.199 Z" fill="#000000" fill-rule="nonzero" fill-opacity="1" /><path clip-path="url(#clip520)" d="M84.3893 436.866 L95.0142 447.444 L105.593 436.866 L108.394 439.62 L97.7689 450.245 L108.394 460.87 L105.593 463.602 L95.0142 453.046 L84.3893 463.602 L81.5884 460.87 L92.2133 450.245 L81.5884 439.62 L84.3893 436.866 Z" fill="#000000" fill-rule="nonzero" fill-opacity="1" /><path clip-path="url(#clip520)" d="M105.917 424.505 L105.917 416.866 L79.5514 416.866 L81.218 425.176 L76.9588 425.176 L75.2921 416.912 L75.2921 412.236 L105.917 412.236 L105.917 404.597 L109.852 404.597 L109.852 424.505 L105.917 424.505 Z" fill="#000000" fill-rule="nonzero" fill-opacity="1" /><path clip-path="url(#clip520)" d="M78.3708 385.153 Q78.3708 388.764 81.9356 390.593 Q85.4773 392.398 92.6068 392.398 Q99.7133 392.398 103.278 390.593 Q106.82 388.764 106.82 385.153 Q106.82 381.519 103.278 379.713 Q99.7133 377.885 92.6068 377.885 Q85.4773 377.885 81.9356 379.713 Q78.3708 381.519 78.3708 385.153 M74.6671 385.153 Q74.6671 379.343 79.2736 376.287 Q83.8569 373.209 92.6068 373.209 Q101.334 373.209 105.94 376.287 Q110.523 379.343 110.523 385.153 Q110.523 390.963 105.94 394.042 Q101.334 397.097 92.6068 397.097 Q83.8569 397.097 79.2736 394.042 Q74.6671 390.963 74.6671 385.153 Z" fill="#000000" fill-rule="nonzero" fill-opacity="1" /><path clip-path="url(#clip520)" d="M79.2444 372.663 L79.2444 366.457 L57.8224 366.457 L59.1765 373.209 L55.7159 373.209 L54.3617 366.494 L54.3617 362.695 L79.2444 362.695 L79.2444 356.489 L82.4417 356.489 L82.4417 372.663 L79.2444 372.663 Z" fill="#000000" fill-rule="nonzero" fill-opacity="1" /><path clip-path="url(#clip520)" d="M56.8632 340.69 Q56.8632 343.624 59.7596 345.11 Q62.6371 346.577 68.4299 346.577 Q74.2039 346.577 77.1003 345.11 Q79.9779 343.624 79.9779 340.69 Q79.9779 337.737 77.1003 336.27 Q74.2039 334.784 68.4299 334.784 Q62.6371 334.784 59.7596 336.27 Q56.8632 337.737 56.8632 340.69 M53.8539 340.69 Q53.8539 335.969 57.5967 333.487 Q61.3206 330.985 68.4299 330.985 Q75.5205 330.985 79.2632 333.487 Q82.9872 335.969 82.9872 340.69 Q82.9872 345.411 79.2632 347.912 Q75.5205 350.395 68.4299 350.395 Q61.3206 350.395 57.5967 347.912 Q53.8539 345.411 53.8539 340.69 Z" fill="#000000" fill-rule="nonzero" fill-opacity="1" /><path clip-path="url(#clip520)" d="M105.917 321.016 L105.917 304.697 L109.852 304.697 L109.852 326.641 L105.917 326.641 Q103.162 323.979 98.5327 319.396 Q93.88 314.789 92.5374 313.609 Q90.0143 311.363 88.2782 310.484 Q86.5189 309.581 84.8291 309.581 Q82.0745 309.581 80.3384 311.525 Q78.6023 313.446 78.6023 316.548 Q78.6023 318.747 79.3662 321.201 Q80.1301 323.632 81.681 326.409 L76.9588 326.409 Q75.8245 323.585 75.2458 321.132 Q74.6671 318.678 74.6671 316.641 Q74.6671 311.271 77.3523 308.076 Q80.0375 304.882 84.5282 304.882 Q86.6578 304.882 88.5791 305.692 Q90.4772 306.479 93.0698 308.585 Q93.7411 309.164 96.9587 312.266 Q100.153 315.368 105.917 321.016 Z" fill="#000000" fill-rule="nonzero" fill-opacity="1" /><path clip-path="url(#clip520)" d="M103.973 294.882 L103.973 289.998 L109.852 289.998 L109.852 294.882 L103.973 294.882 Z" fill="#000000" fill-rule="nonzero" fill-opacity="1" /><path clip-path="url(#clip520)" d="M75.2921 279.766 L75.2921 261.41 L79.2273 261.41 L79.2273 275.484 L87.6995 275.484 Q87.3522 274.465 87.1902 273.447 Q87.005 272.428 87.005 271.41 Q87.005 265.623 90.1763 262.243 Q93.3476 258.863 98.7642 258.863 Q104.343 258.863 107.445 262.336 Q110.523 265.808 110.523 272.127 Q110.523 274.303 110.153 276.572 Q109.783 278.817 109.042 281.224 L104.343 281.224 Q105.477 279.141 106.033 276.919 Q106.588 274.697 106.588 272.22 Q106.588 268.215 104.482 265.877 Q102.375 263.539 98.7642 263.539 Q95.1531 263.539 93.0467 265.877 Q90.9402 268.215 90.9402 272.22 Q90.9402 274.095 91.3569 275.97 Q91.7735 277.822 92.6531 279.766 L75.2921 279.766 Z" fill="#000000" fill-rule="nonzero" fill-opacity="1" /><path clip-path="url(#clip520)" d="M78.3708 239.651 Q78.3708 243.262 81.9356 245.09 Q85.4773 246.896 92.6068 246.896 Q99.7133 246.896 103.278 245.09 Q106.82 243.262 106.82 239.651 Q106.82 236.016 103.278 234.211 Q99.7133 232.382 92.6068 232.382 Q85.4773 232.382 81.9356 234.211 Q78.3708 236.016 78.3708 239.651 M74.6671 239.651 Q74.6671 233.84 79.2736 230.785 Q83.8569 227.706 92.6068 227.706 Q101.334 227.706 105.94 230.785 Q110.523 233.84 110.523 239.651 Q110.523 245.461 105.94 248.539 Q101.334 251.595 92.6068 251.595 Q83.8569 251.595 79.2736 248.539 Q74.6671 245.461 74.6671 239.651 Z" fill="#000000" fill-rule="nonzero" fill-opacity="1" /><path clip-path="url(#clip520)" d="M84.3893 191.317 L95.0142 201.896 L105.593 191.317 L108.394 194.072 L97.7689 204.697 L108.394 215.322 L105.593 218.053 L95.0142 207.498 L84.3893 218.053 L81.5884 215.322 L92.2133 204.697 L81.5884 194.072 L84.3893 191.317 Z" fill="#000000" fill-rule="nonzero" fill-opacity="1" /><path clip-path="url(#clip520)" d="M105.917 178.956 L105.917 171.318 L79.5514 171.318 L81.218 179.628 L76.9588 179.628 L75.2921 171.364 L75.2921 166.688 L105.917 166.688 L105.917 159.049 L109.852 159.049 L109.852 178.956 L105.917 178.956 Z" fill="#000000" fill-rule="nonzero" fill-opacity="1" /><path clip-path="url(#clip520)" d="M78.3708 139.605 Q78.3708 143.216 81.9356 145.045 Q85.4773 146.85 92.6068 146.85 Q99.7133 146.85 103.278 145.045 Q106.82 143.216 106.82 139.605 Q106.82 135.971 103.278 134.165 Q99.7133 132.336 92.6068 132.336 Q85.4773 132.336 81.9356 134.165 Q78.3708 135.971 78.3708 139.605 M74.6671 139.605 Q74.6671 133.795 79.2736 130.739 Q83.8569 127.66 92.6068 127.66 Q101.334 127.66 105.94 130.739 Q110.523 133.795 110.523 139.605 Q110.523 145.415 105.94 148.494 Q101.334 151.549 92.6068 151.549 Q83.8569 151.549 79.2736 148.494 Q74.6671 145.415 74.6671 139.605 Z" fill="#000000" fill-rule="nonzero" fill-opacity="1" /><path clip-path="url(#clip520)" d="M79.2444 127.115 L79.2444 120.908 L57.8224 120.908 L59.1765 127.66 L55.7159 127.66 L54.3617 120.946 L54.3617 117.147 L79.2444 117.147 L79.2444 110.94 L82.4417 110.94 L82.4417 127.115 L79.2444 127.115 Z" fill="#000000" fill-rule="nonzero" fill-opacity="1" /><path clip-path="url(#clip520)" d="M56.8632 95.1418 Q56.8632 98.0758 59.7596 99.5616 Q62.6371 101.029 68.4299 101.029 Q74.2039 101.029 77.1003 99.5616 Q79.9779 98.0758 79.9779 95.1418 Q79.9779 92.189 77.1003 90.722 Q74.2039 89.2362 68.4299 89.2362 Q62.6371 89.2362 59.7596 90.722 Q56.8632 92.189 56.8632 95.1418 M53.8539 95.1418 Q53.8539 90.421 57.5967 87.9384 Q61.3206 85.437 68.4299 85.437 Q75.5205 85.437 79.2632 87.9384 Q82.9872 90.421 82.9872 95.1418 Q82.9872 99.8625 79.2632 102.364 Q75.5205 104.847 68.4299 104.847 Q61.3206 104.847 57.5967 102.364 Q53.8539 99.8625 53.8539 95.1418 Z" fill="#000000" fill-rule="nonzero" fill-opacity="1" /><polyline clip-path="url(#clip522)" style="stroke:#009af9; stroke-linecap:round; stroke-linejoin:round; stroke-width:4; stroke-opacity:1; fill:none" points="219.394,1433.78 232.878,1433.78 357.565,1433.78 432.496,1433.78 495.85,1433.78 564.67,1433.78 628.115,1433.78 696.136,1433.78 774.944,1433.78 844.98,1433.78 906.395,1433.78 973.354,1433.78 1040.71,1433.78 1115.18,1433.78 1186.04,1433.78 1259.71,1433.78 1321.73,1433.78 1397.45,1433.78 1466.82,1433.78 1530.88,1433.78 1595.77,1433.78 1668.5,1433.78 1734.4,1433.78 1809.85,1433.78 1879.71,1433.78 1948.59,1433.78 2015.46,1433.78 2049.74,1433.78 2084.02,1433.77 2093.41,1433.74 2102.8,1433.56 2107.49,1433.27 2112.18,1432.66 2116.88,1431.42 2121.57,1429.01 2123.92,1427.12 2126.27,1424.56 2128.61,1421.17 2130.96,1416.69 2133.31,1410.88 2135.66,1403.39 2138,1393.89 2140.35,1381.94 2141.52,1374.92 2142.7,1367.11 2143.87,1358.47 2145.04,1348.92 2146.22,1338.41 2147.39,1326.87 2148.57,1314.24 2149.74,1300.46 2150.91,1285.47 2152.09,1269.22 2153.26,1251.65 2154.43,1232.72 2155.61,1212.39 2156.78,1190.62 2157.95,1167.38 2159.13,1142.67 2160.83,1104.11 2162.54,1062.44 2164.24,1017.72 2165.95,970.085 2167.65,919.732 2169.36,866.922 2171.06,811.984 2172.77,755.312 2176.18,638.666 2179.59,521.334 2181.29,463.973 2182.99,408.378 2184.7,355.235 2186.4,305.228 2187.26,281.611 2188.11,259.024 2188.96,237.548 2189.81,217.256 2190.67,198.221 2191.52,180.511 2192.37,164.188 2193.22,149.313 2194.08,135.939 2194.93,124.116 2195.78,113.886 2196.63,105.287 2197.49,98.3497 2198.34,93.1 2199.19,89.5563 2200.04,87.7307 2200.9,87.6286 2201.75,89.2491 2202.6,92.5844 2203.45,97.6203 2204.3,104.336 2205.16,112.705 2206.01,122.693 2206.86,134.262 2207.71,147.368 2208.57,161.959 2209.42,177.981 2210.27,195.375 2211.12,214.075 2211.98,234.015 2212.83,255.121 2213.68,277.32 2214.53,300.535 2215.39,324.685 2216.24,349.689 2217.09,375.464 2218.8,428.994 2220.5,484.603 2223.91,599.415 2227.32,714.875 2229.02,771.443 2230.73,826.592 2232.43,879.908 2234.14,931.043 2235.84,979.713 2237.55,1025.69 2239.25,1068.82 2240.96,1109 2242.66,1146.17 2244.37,1180.34 2246.07,1211.54 2247.78,1239.85 2249.48,1265.38 2251.19,1288.26 2252.89,1308.64 2254.6,1326.69 2256.3,1342.58 2258.01,1356.49 2259.71,1368.59 2261.42,1379.07 2263.12,1388.08 2264.83,1395.79 2266.53,1402.35 2268.24,1407.9 2269.63,1411.79 2271.03,1415.16 2272.43,1418.07 2273.83,1420.56 2276.63,1424.51 2279.43,1427.36 2282.23,1429.4 2285.02,1430.82 2287.82,1431.81 2290.62,1432.48 "/>
<path clip-path="url(#clip520)" d="M230.44 198.488 L822.997 198.488 L822.997 94.8081 L230.44 94.8081  Z" fill="#ffffff" fill-rule="evenodd" fill-opacity="1"/>
<polyline clip-path="url(#clip520)" style="stroke:#000000; stroke-linecap:round; stroke-linejoin:round; stroke-width:4; stroke-opacity:1; fill:none" points="230.44,198.488 822.997,198.488 822.997,94.8081 230.44,94.8081 230.44,198.488 "/>
<polyline clip-path="url(#clip520)" style="stroke:#009af9; stroke-linecap:round; stroke-linejoin:round; stroke-width:4; stroke-opacity:1; fill:none" points="254.835,146.648 401.201,146.648 "/>
<path clip-path="url(#clip520)" d="M444.508 141.937 L444.508 127.91 L448.767 127.91 L448.767 163.928 L444.508 163.928 L444.508 160.039 Q443.165 162.354 441.105 163.488 Q439.068 164.599 436.197 164.599 Q431.498 164.599 428.535 160.849 Q425.596 157.099 425.596 150.988 Q425.596 144.877 428.535 141.127 Q431.498 137.377 436.197 137.377 Q439.068 137.377 441.105 138.512 Q443.165 139.623 444.508 141.937 M429.994 150.988 Q429.994 155.687 431.915 158.373 Q433.86 161.035 437.239 161.035 Q440.619 161.035 442.563 158.373 Q444.508 155.687 444.508 150.988 Q444.508 146.289 442.563 143.627 Q440.619 140.942 437.239 140.942 Q433.86 140.942 431.915 143.627 Q429.994 146.289 429.994 150.988 Z" fill="#000000" fill-rule="nonzero" fill-opacity="1" /><path clip-path="url(#clip520)" d="M477.239 171.798 L477.239 175.109 L452.609 175.109 L452.609 171.798 L477.239 171.798 Z" fill="#000000" fill-rule="nonzero" fill-opacity="1" /><path clip-path="url(#clip520)" d="M485.364 160.039 L485.364 173.789 L481.082 173.789 L481.082 138.002 L485.364 138.002 L485.364 141.937 Q486.706 139.623 488.743 138.512 Q490.804 137.377 493.651 137.377 Q498.373 137.377 501.313 141.127 Q504.276 144.877 504.276 150.988 Q504.276 157.099 501.313 160.849 Q498.373 164.599 493.651 164.599 Q490.804 164.599 488.743 163.488 Q486.706 162.354 485.364 160.039 M499.855 150.988 Q499.855 146.289 497.91 143.627 Q495.989 140.942 492.609 140.942 Q489.23 140.942 487.285 143.627 Q485.364 146.289 485.364 150.988 Q485.364 155.687 487.285 158.373 Q489.23 161.035 492.609 161.035 Q495.989 161.035 497.91 158.373 Q499.855 155.687 499.855 150.988 Z" fill="#000000" fill-rule="nonzero" fill-opacity="1" /><path clip-path="url(#clip520)" d="M521.382 140.988 Q517.956 140.988 515.966 143.674 Q513.975 146.336 513.975 150.988 Q513.975 155.641 515.942 158.326 Q517.933 160.988 521.382 160.988 Q524.785 160.988 526.776 158.303 Q528.766 155.618 528.766 150.988 Q528.766 146.382 526.776 143.697 Q524.785 140.988 521.382 140.988 M521.382 137.377 Q526.938 137.377 530.109 140.988 Q533.28 144.6 533.28 150.988 Q533.28 157.354 530.109 160.988 Q526.938 164.599 521.382 164.599 Q515.804 164.599 512.632 160.988 Q509.484 157.354 509.484 150.988 Q509.484 144.6 512.632 140.988 Q515.804 137.377 521.382 137.377 Z" fill="#000000" fill-rule="nonzero" fill-opacity="1" /><path clip-path="url(#clip520)" d="M556.868 138.766 L556.868 142.794 Q555.063 141.868 553.118 141.405 Q551.174 140.942 549.09 140.942 Q545.919 140.942 544.322 141.914 Q542.748 142.887 542.748 144.831 Q542.748 146.312 543.882 147.169 Q545.016 148.002 548.442 148.766 L549.901 149.09 Q554.438 150.062 556.336 151.845 Q558.257 153.604 558.257 156.775 Q558.257 160.386 555.387 162.493 Q552.539 164.599 547.539 164.599 Q545.456 164.599 543.188 164.183 Q540.942 163.789 538.442 162.979 L538.442 158.581 Q540.803 159.808 543.095 160.433 Q545.387 161.035 547.632 161.035 Q550.641 161.035 552.262 160.016 Q553.882 158.974 553.882 157.099 Q553.882 155.363 552.701 154.437 Q551.544 153.512 547.586 152.655 L546.104 152.308 Q542.146 151.474 540.387 149.762 Q538.627 148.025 538.627 145.016 Q538.627 141.359 541.22 139.368 Q543.813 137.377 548.581 137.377 Q550.942 137.377 553.026 137.725 Q555.109 138.072 556.868 138.766 Z" fill="#000000" fill-rule="nonzero" fill-opacity="1" /><path clip-path="url(#clip520)" d="M569.252 130.641 L569.252 138.002 L578.025 138.002 L578.025 141.312 L569.252 141.312 L569.252 155.386 Q569.252 158.558 570.109 159.461 Q570.988 160.363 573.65 160.363 L578.025 160.363 L578.025 163.928 L573.65 163.928 Q568.72 163.928 566.845 162.099 Q564.97 160.248 564.97 155.386 L564.97 141.312 L561.845 141.312 L561.845 138.002 L564.97 138.002 L564.97 130.641 L569.252 130.641 Z" fill="#000000" fill-rule="nonzero" fill-opacity="1" /><path clip-path="url(#clip520)" d="M605.803 149.9 L605.803 151.984 L586.22 151.984 Q586.498 156.382 588.859 158.697 Q591.243 160.988 595.479 160.988 Q597.933 160.988 600.224 160.386 Q602.539 159.785 604.808 158.581 L604.808 162.609 Q602.516 163.581 600.109 164.09 Q597.701 164.599 595.224 164.599 Q589.021 164.599 585.387 160.988 Q581.775 157.377 581.775 151.22 Q581.775 144.854 585.201 141.127 Q588.65 137.377 594.484 137.377 Q599.715 137.377 602.748 140.757 Q605.803 144.113 605.803 149.9 M601.544 148.65 Q601.498 145.155 599.576 143.072 Q597.678 140.988 594.53 140.988 Q590.965 140.988 588.812 143.002 Q586.683 145.016 586.359 148.674 L601.544 148.65 Z" fill="#000000" fill-rule="nonzero" fill-opacity="1" /><path clip-path="url(#clip520)" d="M627.817 141.984 Q627.099 141.567 626.243 141.382 Q625.409 141.174 624.391 141.174 Q620.78 141.174 618.835 143.535 Q616.914 145.873 616.914 150.271 L616.914 163.928 L612.632 163.928 L612.632 138.002 L616.914 138.002 L616.914 142.03 Q618.257 139.669 620.409 138.535 Q622.562 137.377 625.641 137.377 Q626.081 137.377 626.613 137.447 Q627.146 137.493 627.794 137.609 L627.817 141.984 Z" fill="#000000" fill-rule="nonzero" fill-opacity="1" /><path clip-path="url(#clip520)" d="M632.284 138.002 L636.544 138.002 L636.544 163.928 L632.284 163.928 L632.284 138.002 M632.284 127.91 L636.544 127.91 L636.544 133.303 L632.284 133.303 L632.284 127.91 Z" fill="#000000" fill-rule="nonzero" fill-opacity="1" /><path clip-path="url(#clip520)" d="M655.502 140.988 Q652.076 140.988 650.085 143.674 Q648.094 146.336 648.094 150.988 Q648.094 155.641 650.062 158.326 Q652.053 160.988 655.502 160.988 Q658.905 160.988 660.895 158.303 Q662.886 155.618 662.886 150.988 Q662.886 146.382 660.895 143.697 Q658.905 140.988 655.502 140.988 M655.502 137.377 Q661.057 137.377 664.229 140.988 Q667.4 144.6 667.4 150.988 Q667.4 157.354 664.229 160.988 Q661.057 164.599 655.502 164.599 Q649.923 164.599 646.752 160.988 Q643.604 157.354 643.604 150.988 Q643.604 144.6 646.752 140.988 Q649.923 137.377 655.502 137.377 Z" fill="#000000" fill-rule="nonzero" fill-opacity="1" /><path clip-path="url(#clip520)" d="M689.483 141.984 Q688.766 141.567 687.909 141.382 Q687.076 141.174 686.057 141.174 Q682.446 141.174 680.502 143.535 Q678.58 145.873 678.58 150.271 L678.58 163.928 L674.298 163.928 L674.298 138.002 L678.58 138.002 L678.58 142.03 Q679.923 139.669 682.076 138.535 Q684.229 137.377 687.307 137.377 Q687.747 137.377 688.279 137.447 Q688.812 137.493 689.46 137.609 L689.483 141.984 Z" fill="#000000" fill-rule="nonzero" fill-opacity="1" /><path clip-path="url(#clip520)" d="M713.65 171.798 L713.65 175.109 L689.02 175.109 L689.02 171.798 L713.65 171.798 Z" fill="#000000" fill-rule="nonzero" fill-opacity="1" /><path clip-path="url(#clip520)" d="M734.714 141.937 L734.714 127.91 L738.974 127.91 L738.974 163.928 L734.714 163.928 L734.714 160.039 Q733.372 162.354 731.312 163.488 Q729.275 164.599 726.404 164.599 Q721.705 164.599 718.742 160.849 Q715.802 157.099 715.802 150.988 Q715.802 144.877 718.742 141.127 Q721.705 137.377 726.404 137.377 Q729.275 137.377 731.312 138.512 Q733.372 139.623 734.714 141.937 M720.201 150.988 Q720.201 155.687 722.122 158.373 Q724.066 161.035 727.446 161.035 Q730.826 161.035 732.77 158.373 Q734.714 155.687 734.714 150.988 Q734.714 146.289 732.77 143.627 Q730.826 140.942 727.446 140.942 Q724.066 140.942 722.122 143.627 Q720.201 146.289 720.201 150.988 Z" fill="#000000" fill-rule="nonzero" fill-opacity="1" /><path clip-path="url(#clip520)" d="M747.747 138.002 L752.006 138.002 L752.006 163.928 L747.747 163.928 L747.747 138.002 M747.747 127.91 L752.006 127.91 L752.006 133.303 L747.747 133.303 L747.747 127.91 Z" fill="#000000" fill-rule="nonzero" fill-opacity="1" /><path clip-path="url(#clip520)" d="M777.446 138.766 L777.446 142.794 Q775.64 141.868 773.696 141.405 Q771.751 140.942 769.668 140.942 Q766.497 140.942 764.899 141.914 Q763.325 142.887 763.325 144.831 Q763.325 146.312 764.46 147.169 Q765.594 148.002 769.02 148.766 L770.478 149.09 Q775.015 150.062 776.913 151.845 Q778.835 153.604 778.835 156.775 Q778.835 160.386 775.964 162.493 Q773.117 164.599 768.117 164.599 Q766.034 164.599 763.765 164.183 Q761.52 163.789 759.02 162.979 L759.02 158.581 Q761.381 159.808 763.673 160.433 Q765.964 161.035 768.21 161.035 Q771.219 161.035 772.839 160.016 Q774.46 158.974 774.46 157.099 Q774.46 155.363 773.279 154.437 Q772.122 153.512 768.163 152.655 L766.682 152.308 Q762.724 151.474 760.964 149.762 Q759.205 148.025 759.205 145.016 Q759.205 141.359 761.798 139.368 Q764.39 137.377 769.159 137.377 Q771.52 137.377 773.603 137.725 Q775.686 138.072 777.446 138.766 Z" fill="#000000" fill-rule="nonzero" fill-opacity="1" /><path clip-path="url(#clip520)" d="M789.83 130.641 L789.83 138.002 L798.603 138.002 L798.603 141.312 L789.83 141.312 L789.83 155.386 Q789.83 158.558 790.686 159.461 Q791.566 160.363 794.228 160.363 L798.603 160.363 L798.603 163.928 L794.228 163.928 Q789.297 163.928 787.422 162.099 Q785.547 160.248 785.547 155.386 L785.547 141.312 L782.422 141.312 L782.422 138.002 L785.547 138.002 L785.547 130.641 L789.83 130.641 Z" fill="#000000" fill-rule="nonzero" fill-opacity="1" /></svg>
