<?xml version="1.0" encoding="utf-8"?>
<svg xmlns="http://www.w3.org/2000/svg" xmlns:xlink="http://www.w3.org/1999/xlink" width="600" height="400" viewBox="0 0 2400 1600">
<defs>
  <clipPath id="clip730">
    <rect x="0" y="0" width="2400" height="1600"/>
  </clipPath>
</defs>
<path clip-path="url(#clip730)" d="M0 1600 L2400 1600 L2400 0 L0 0  Z" fill="#ffffff" fill-rule="evenodd" fill-opacity="1"/>
<defs>
  <clipPath id="clip731">
    <rect x="480" y="0" width="1681" height="1600"/>
  </clipPath>
</defs>
<path clip-path="url(#clip730)" d="M86.9921 1521.01 L2352.76 1521.01 L2352.76 47.2441 L86.9921 47.2441  Z" fill="#ffffff" fill-rule="evenodd" fill-opacity="1"/>
<defs>
  <clipPath id="clip732">
    <rect x="86" y="47" width="2267" height="1475"/>
  </clipPath>
</defs>
<polyline clip-path="url(#clip732)" style="stroke:#000000; stroke-linecap:round; stroke-linejoin:round; stroke-width:2; stroke-opacity:0.1; fill:none" points="151.118,1521.01 151.118,47.2441 "/>
<polyline clip-path="url(#clip732)" style="stroke:#000000; stroke-linecap:round; stroke-linejoin:round; stroke-width:2; stroke-opacity:0.1; fill:none" points="863.019,1521.01 863.019,47.2441 "/>
<polyline clip-path="url(#clip732)" style="stroke:#000000; stroke-linecap:round; stroke-linejoin:round; stroke-width:2; stroke-opacity:0.1; fill:none" points="1574.92,1521.01 1574.92,47.2441 "/>
<polyline clip-path="url(#clip732)" style="stroke:#000000; stroke-linecap:round; stroke-linejoin:round; stroke-width:2; stroke-opacity:0.1; fill:none" points="2286.82,1521.01 2286.82,47.2441 "/>
<polyline clip-path="url(#clip730)" style="stroke:#000000; stroke-linecap:round; stroke-linejoin:round; stroke-width:4; stroke-opacity:1; fill:none" points="86.9921,1521.01 2352.76,1521.01 "/>
<polyline clip-path="url(#clip730)" style="stroke:#000000; stroke-linecap:round; stroke-linejoin:round; stroke-width:4; stroke-opacity:1; fill:none" points="151.118,1521.01 151.118,1502.11 "/>
<polyline clip-path="url(#clip730)" style="stroke:#000000; stroke-linecap:round; stroke-linejoin:round; stroke-width:4; stroke-opacity:1; fill:none" points="863.019,1521.01 863.019,1502.11 "/>
<polyline clip-path="url(#clip730)" style="stroke:#000000; stroke-linecap:round; stroke-linejoin:round; stroke-width:4; stroke-opacity:1; fill:none" points="1574.92,1521.01 1574.92,1502.11 "/>
<polyline clip-path="url(#clip730)" style="stroke:#000000; stroke-linecap:round; stroke-linejoin:round; stroke-width:4; stroke-opacity:1; fill:none" points="2286.82,1521.01 2286.82,1502.11 "/>
<path clip-path="url(#clip730)" d="M151.118 1551.93 Q147.506 1551.93 145.678 1555.49 Q143.872 1559.03 143.872 1566.16 Q143.872 1573.27 145.678 1576.83 Q147.506 1580.38 151.118 1580.38 Q154.752 1580.38 156.557 1576.83 Q158.386 1573.27 158.386 1566.16 Q158.386 1559.03 156.557 1555.49 Q154.752 1551.93 151.118 1551.93 M151.118 1548.22 Q156.928 1548.22 159.983 1552.83 Q163.062 1557.41 163.062 1566.16 Q163.062 1574.89 159.983 1579.5 Q156.928 1584.08 151.118 1584.08 Q145.307 1584.08 142.229 1579.5 Q139.173 1574.89 139.173 1566.16 Q139.173 1557.41 142.229 1552.83 Q145.307 1548.22 151.118 1548.22 Z" fill="#000000" fill-rule="nonzero" fill-opacity="1" /><path clip-path="url(#clip730)" d="M837.707 1579.47 L845.346 1579.47 L845.346 1553.11 L837.036 1554.77 L837.036 1550.51 L845.3 1548.85 L849.975 1548.85 L849.975 1579.47 L857.614 1579.47 L857.614 1583.41 L837.707 1583.41 L837.707 1579.47 Z" fill="#000000" fill-rule="nonzero" fill-opacity="1" /><path clip-path="url(#clip730)" d="M877.059 1551.93 Q873.448 1551.93 871.619 1555.49 Q869.813 1559.03 869.813 1566.16 Q869.813 1573.27 871.619 1576.83 Q873.448 1580.38 877.059 1580.38 Q880.693 1580.38 882.498 1576.83 Q884.327 1573.27 884.327 1566.16 Q884.327 1559.03 882.498 1555.49 Q880.693 1551.93 877.059 1551.93 M877.059 1548.22 Q882.869 1548.22 885.924 1552.83 Q889.003 1557.41 889.003 1566.16 Q889.003 1574.89 885.924 1579.5 Q882.869 1584.08 877.059 1584.08 Q871.249 1584.08 868.17 1579.5 Q865.114 1574.89 865.114 1566.16 Q865.114 1557.41 868.17 1552.83 Q871.249 1548.22 877.059 1548.22 Z" fill="#000000" fill-rule="nonzero" fill-opacity="1" /><path clip-path="url(#clip730)" d="M1553.69 1579.47 L1570.01 1579.47 L1570.01 1583.41 L1548.07 1583.41 L1548.07 1579.47 Q1550.73 1576.72 1555.31 1572.09 Q1559.92 1567.44 1561.1 1566.09 Q1563.35 1563.57 1564.23 1561.83 Q1565.13 1560.07 1565.13 1558.38 Q1565.13 1555.63 1563.19 1553.89 Q1561.26 1552.16 1558.16 1552.16 Q1555.96 1552.16 1553.51 1552.92 Q1551.08 1553.69 1548.3 1555.24 L1548.3 1550.51 Q1551.13 1549.38 1553.58 1548.8 Q1556.03 1548.22 1558.07 1548.22 Q1563.44 1548.22 1566.63 1550.91 Q1569.83 1553.59 1569.83 1558.08 Q1569.83 1560.21 1569.02 1562.13 Q1568.23 1564.03 1566.12 1566.63 Q1565.55 1567.3 1562.44 1570.51 Q1559.34 1573.71 1553.69 1579.47 Z" fill="#000000" fill-rule="nonzero" fill-opacity="1" /><path clip-path="url(#clip730)" d="M1589.83 1551.93 Q1586.22 1551.93 1584.39 1555.49 Q1582.58 1559.03 1582.58 1566.16 Q1582.58 1573.27 1584.39 1576.83 Q1586.22 1580.38 1589.83 1580.38 Q1593.46 1580.38 1595.27 1576.83 Q1597.1 1573.27 1597.1 1566.16 Q1597.1 1559.03 1595.27 1555.49 Q1593.46 1551.93 1589.83 1551.93 M1589.83 1548.22 Q1595.64 1548.22 1598.69 1552.83 Q1601.77 1557.41 1601.77 1566.16 Q1601.77 1574.89 1598.69 1579.5 Q1595.64 1584.08 1589.83 1584.08 Q1584.02 1584.08 1580.94 1579.5 Q1577.88 1574.89 1577.88 1566.16 Q1577.88 1557.41 1580.94 1552.83 Q1584.02 1548.22 1589.83 1548.22 Z" fill="#000000" fill-rule="nonzero" fill-opacity="1" /><path clip-path="url(#clip730)" d="M2275.67 1564.77 Q2279.02 1565.49 2280.9 1567.76 Q2282.8 1570.03 2282.8 1573.36 Q2282.8 1578.48 2279.28 1581.28 Q2275.76 1584.08 2269.28 1584.08 Q2267.1 1584.08 2264.79 1583.64 Q2262.49 1583.22 2260.04 1582.37 L2260.04 1577.85 Q2261.99 1578.99 2264.3 1579.57 Q2266.61 1580.14 2269.14 1580.14 Q2273.54 1580.14 2275.83 1578.41 Q2278.14 1576.67 2278.14 1573.36 Q2278.14 1570.31 2275.99 1568.59 Q2273.86 1566.86 2270.04 1566.86 L2266.01 1566.86 L2266.01 1563.01 L2270.23 1563.01 Q2273.68 1563.01 2275.5 1561.65 Q2277.33 1560.26 2277.33 1557.67 Q2277.33 1555.01 2275.43 1553.59 Q2273.56 1552.16 2270.04 1552.16 Q2268.12 1552.16 2265.92 1552.57 Q2263.72 1552.99 2261.08 1553.87 L2261.08 1549.7 Q2263.74 1548.96 2266.06 1548.59 Q2268.4 1548.22 2270.46 1548.22 Q2275.78 1548.22 2278.88 1550.65 Q2281.99 1553.06 2281.99 1557.18 Q2281.99 1560.05 2280.34 1562.04 Q2278.7 1564.01 2275.67 1564.77 Z" fill="#000000" fill-rule="nonzero" fill-opacity="1" /><path clip-path="url(#clip730)" d="M2301.66 1551.93 Q2298.05 1551.93 2296.22 1555.49 Q2294.42 1559.03 2294.42 1566.16 Q2294.42 1573.27 2296.22 1576.83 Q2298.05 1580.38 2301.66 1580.38 Q2305.3 1580.38 2307.1 1576.83 Q2308.93 1573.27 2308.93 1566.16 Q2308.93 1559.03 2307.1 1555.49 Q2305.3 1551.93 2301.66 1551.93 M2301.66 1548.22 Q2307.47 1548.22 2310.53 1552.83 Q2313.61 1557.41 2313.61 1566.16 Q2313.61 1574.89 2310.53 1579.5 Q2307.47 1584.08 2301.66 1584.08 Q2295.85 1584.08 2292.77 1579.5 Q2289.72 1574.89 2289.72 1566.16 Q2289.72 1557.41 2292.77 1552.83 Q2295.85 1548.22 2301.66 1548.22 Z" fill="#000000" fill-rule="nonzero" fill-opacity="1" /><polyline clip-path="url(#clip732)" style="stroke:#000000; stroke-linecap:round; stroke-linejoin:round; stroke-width:2; stroke-opacity:0.1; fill:none" points="86.9921,1479.3 2352.76,1479.3 "/>
<polyline clip-path="url(#clip732)" style="stroke:#000000; stroke-linecap:round; stroke-linejoin:round; stroke-width:2; stroke-opacity:0.1; fill:none" points="86.9921,1210.66 2352.76,1210.66 "/>
<polyline clip-path="url(#clip732)" style="stroke:#000000; stroke-linecap:round; stroke-linejoin:round; stroke-width:2; stroke-opacity:0.1; fill:none" points="86.9921,942.023 2352.76,942.023 "/>
<polyline clip-path="url(#clip732)" style="stroke:#000000; stroke-linecap:round; stroke-linejoin:round; stroke-width:2; stroke-opacity:0.1; fill:none" points="86.9921,673.385 2352.76,673.385 "/>
<polyline clip-path="url(#clip732)" style="stroke:#000000; stroke-linecap:round; stroke-linejoin:round; stroke-width:2; stroke-opacity:0.1; fill:none" points="86.9921,404.748 2352.76,404.748 "/>
<polyline clip-path="url(#clip732)" style="stroke:#000000; stroke-linecap:round; stroke-linejoin:round; stroke-width:2; stroke-opacity:0.1; fill:none" points="86.9921,136.11 2352.76,136.11 "/>
<polyline clip-path="url(#clip730)" style="stroke:#000000; stroke-linecap:round; stroke-linejoin:round; stroke-width:4; stroke-opacity:1; fill:none" points="86.9921,1521.01 86.9921,47.2441 "/>
<polyline clip-path="url(#clip730)" style="stroke:#000000; stroke-linecap:round; stroke-linejoin:round; stroke-width:4; stroke-opacity:1; fill:none" points="86.9921,1479.3 105.89,1479.3 "/>
<polyline clip-path="url(#clip730)" style="stroke:#000000; stroke-linecap:round; stroke-linejoin:round; stroke-width:4; stroke-opacity:1; fill:none" points="86.9921,1210.66 105.89,1210.66 "/>
<polyline clip-path="url(#clip730)" style="stroke:#000000; stroke-linecap:round; stroke-linejoin:round; stroke-width:4; stroke-opacity:1; fill:none" points="86.9921,942.023 105.89,942.023 "/>
<polyline clip-path="url(#clip730)" style="stroke:#000000; stroke-linecap:round; stroke-linejoin:round; stroke-width:4; stroke-opacity:1; fill:none" points="86.9921,673.385 105.89,673.385 "/>
<polyline clip-path="url(#clip730)" style="stroke:#000000; stroke-linecap:round; stroke-linejoin:round; stroke-width:4; stroke-opacity:1; fill:none" points="86.9921,404.748 105.89,404.748 "/>
<polyline clip-path="url(#clip730)" style="stroke:#000000; stroke-linecap:round; stroke-linejoin:round; stroke-width:4; stroke-opacity:1; fill:none" points="86.9921,136.11 105.89,136.11 "/>
<path clip-path="url(#clip730)" d="M10.8708 1516.99 Q10.8708 1520.61 14.4356 1522.43 Q17.9773 1524.24 25.1068 1524.24 Q32.2133 1524.24 35.7781 1522.43 Q39.3197 1520.61 39.3197 1516.99 Q39.3197 1513.36 35.7781 1511.55 Q32.2133 1509.73 25.1068 1509.73 Q17.9773 1509.73 14.4356 1511.55 Q10.8708 1513.36 10.8708 1516.99 M7.16713 1516.99 Q7.16713 1511.18 11.7736 1508.13 Q16.3569 1505.05 25.1068 1505.05 Q33.8337 1505.05 38.4401 1508.13 Q43.0234 1511.18 43.0234 1516.99 Q43.0234 1522.8 38.4401 1525.88 Q33.8337 1528.94 25.1068 1528.94 Q16.3569 1528.94 11.7736 1525.88 Q7.16713 1522.8 7.16713 1516.99 Z" fill="#000000" fill-rule="nonzero" fill-opacity="1" /><path clip-path="url(#clip730)" d="M36.4725 1496.83 L36.4725 1491.95 L42.3521 1491.95 L42.3521 1496.83 L36.4725 1496.83 Z" fill="#000000" fill-rule="nonzero" fill-opacity="1" /><path clip-path="url(#clip730)" d="M10.8708 1471.76 Q10.8708 1475.37 14.4356 1477.2 Q17.9773 1479.01 25.1068 1479.01 Q32.2133 1479.01 35.7781 1477.2 Q39.3197 1475.37 39.3197 1471.76 Q39.3197 1468.13 35.7781 1466.32 Q32.2133 1464.49 25.1068 1464.49 Q17.9773 1464.49 14.4356 1466.32 Q10.8708 1468.13 10.8708 1471.76 M7.16713 1471.76 Q7.16713 1465.95 11.7736 1462.9 Q16.3569 1459.82 25.1068 1459.82 Q33.8337 1459.82 38.4401 1462.9 Q43.0234 1465.95 43.0234 1471.76 Q43.0234 1477.57 38.4401 1480.65 Q33.8337 1483.71 25.1068 1483.71 Q16.3569 1483.71 11.7736 1480.65 Q7.16713 1477.57 7.16713 1471.76 Z" fill="#000000" fill-rule="nonzero" fill-opacity="1" /><path clip-path="url(#clip730)" d="M10.8708 1441.6 Q10.8708 1445.21 14.4356 1447.04 Q17.9773 1448.85 25.1068 1448.85 Q32.2133 1448.85 35.7781 1447.04 Q39.3197 1445.21 39.3197 1441.6 Q39.3197 1437.97 35.7781 1436.16 Q32.2133 1434.33 25.1068 1434.33 Q17.9773 1434.33 14.4356 1436.16 Q10.8708 1437.97 10.8708 1441.6 M7.16713 1441.6 Q7.16713 1435.79 11.7736 1432.74 Q16.3569 1429.66 25.1068 1429.66 Q33.8337 1429.66 38.4401 1432.74 Q43.0234 1435.79 43.0234 1441.6 Q43.0234 1447.41 38.4401 1450.49 Q33.8337 1453.55 25.1068 1453.55 Q16.3569 1453.55 11.7736 1450.49 Q7.16713 1447.41 7.16713 1441.6 Z" fill="#000000" fill-rule="nonzero" fill-opacity="1" /><path clip-path="url(#clip730)" d="M10.8708 1247.86 Q10.8708 1251.47 14.4356 1253.3 Q17.9773 1255.1 25.1068 1255.1 Q32.2133 1255.1 35.7781 1253.3 Q39.3197 1251.47 39.3197 1247.86 Q39.3197 1244.22 35.7781 1242.42 Q32.2133 1240.59 25.1068 1240.59 Q17.9773 1240.59 14.4356 1242.42 Q10.8708 1244.22 10.8708 1247.86 M7.16713 1247.86 Q7.16713 1242.05 11.7736 1238.99 Q16.3569 1235.91 25.1068 1235.91 Q33.8337 1235.91 38.4401 1238.99 Q43.0234 1242.05 43.0234 1247.86 Q43.0234 1253.67 38.4401 1256.75 Q33.8337 1259.8 25.1068 1259.8 Q16.3569 1259.8 11.7736 1256.75 Q7.16713 1253.67 7.16713 1247.86 Z" fill="#000000" fill-rule="nonzero" fill-opacity="1" /><path clip-path="url(#clip730)" d="M36.4725 1227.7 L36.4725 1222.81 L42.3521 1222.81 L42.3521 1227.7 L36.4725 1227.7 Z" fill="#000000" fill-rule="nonzero" fill-opacity="1" /><path clip-path="url(#clip730)" d="M10.8708 1202.63 Q10.8708 1206.24 14.4356 1208.07 Q17.9773 1209.87 25.1068 1209.87 Q32.2133 1209.87 35.7781 1208.07 Q39.3197 1206.24 39.3197 1202.63 Q39.3197 1198.99 35.7781 1197.19 Q32.2133 1195.36 25.1068 1195.36 Q17.9773 1195.36 14.4356 1197.19 Q10.8708 1198.99 10.8708 1202.63 M7.16713 1202.63 Q7.16713 1196.82 11.7736 1193.76 Q16.3569 1190.68 25.1068 1190.68 Q33.8337 1190.68 38.4401 1193.76 Q43.0234 1196.82 43.0234 1202.63 Q43.0234 1208.44 38.4401 1211.52 Q33.8337 1214.57 25.1068 1214.57 Q16.3569 1214.57 11.7736 1211.52 Q7.16713 1208.44 7.16713 1202.63 Z" fill="#000000" fill-rule="nonzero" fill-opacity="1" /><path clip-path="url(#clip730)" d="M7.79213 1182.42 L7.79213 1164.06 L11.7273 1164.06 L11.7273 1178.14 L20.1995 1178.14 Q19.8522 1177.12 19.6902 1176.1 Q19.505 1175.08 19.505 1174.06 Q19.505 1168.28 22.6763 1164.9 Q25.8476 1161.52 31.2642 1161.52 Q36.8429 1161.52 39.9447 1164.99 Q43.0234 1168.46 43.0234 1174.78 Q43.0234 1176.96 42.6531 1179.23 Q42.2827 1181.47 41.5419 1183.88 L36.8429 1183.88 Q37.9771 1181.79 38.5327 1179.57 Q39.0883 1177.35 39.0883 1174.87 Q39.0883 1170.87 36.9818 1168.53 Q34.8753 1166.19 31.2642 1166.19 Q27.6531 1166.19 25.5467 1168.53 Q23.4402 1170.87 23.4402 1174.87 Q23.4402 1176.75 23.8569 1178.62 Q24.2735 1180.48 25.1531 1182.42 L7.79213 1182.42 Z" fill="#000000" fill-rule="nonzero" fill-opacity="1" /><path clip-path="url(#clip730)" d="M10.8708 979.719 Q10.8708 983.33 14.4356 985.159 Q17.9773 986.965 25.1068 986.965 Q32.2133 986.965 35.7781 985.159 Q39.3197 983.33 39.3197 979.719 Q39.3197 976.085 35.7781 974.279 Q32.2133 972.451 25.1068 972.451 Q17.9773 972.451 14.4356 974.279 Q10.8708 976.085 10.8708 979.719 M7.16713 979.719 Q7.16713 973.909 11.7736 970.853 Q16.3569 967.775 25.1068 967.775 Q33.8337 967.775 38.4401 970.853 Q43.0234 973.909 43.0234 979.719 Q43.0234 985.529 38.4401 988.608 Q33.8337 991.664 25.1068 991.664 Q16.3569 991.664 11.7736 988.608 Q7.16713 985.529 7.16713 979.719 Z" fill="#000000" fill-rule="nonzero" fill-opacity="1" /><path clip-path="url(#clip730)" d="M36.4725 959.557 L36.4725 954.673 L42.3521 954.673 L42.3521 959.557 L36.4725 959.557 Z" fill="#000000" fill-rule="nonzero" fill-opacity="1" /><path clip-path="url(#clip730)" d="M38.417 943.678 L38.417 936.039 L12.0514 936.039 L13.718 944.349 L9.45878 944.349 L7.79213 936.085 L7.79213 931.409 L38.417 931.409 L38.417 923.77 L42.3521 923.77 L42.3521 943.678 L38.417 943.678 Z" fill="#000000" fill-rule="nonzero" fill-opacity="1" /><path clip-path="url(#clip730)" d="M10.8708 904.326 Q10.8708 907.937 14.4356 909.766 Q17.9773 911.571 25.1068 911.571 Q32.2133 911.571 35.7781 909.766 Q39.3197 907.937 39.3197 904.326 Q39.3197 900.692 35.7781 898.886 Q32.2133 897.058 25.1068 897.058 Q17.9773 897.058 14.4356 898.886 Q10.8708 900.692 10.8708 904.326 M7.16713 904.326 Q7.16713 898.516 11.7736 895.46 Q16.3569 892.382 25.1068 892.382 Q33.8337 892.382 38.4401 895.46 Q43.0234 898.516 43.0234 904.326 Q43.0234 910.136 38.4401 913.215 Q33.8337 916.27 25.1068 916.27 Q16.3569 916.27 11.7736 913.215 Q7.16713 910.136 7.16713 904.326 Z" fill="#000000" fill-rule="nonzero" fill-opacity="1" /><path clip-path="url(#clip730)" d="M10.8708 710.584 Q10.8708 714.195 14.4356 716.024 Q17.9773 717.829 25.1068 717.829 Q32.2133 717.829 35.7781 716.024 Q39.3197 714.195 39.3197 710.584 Q39.3197 706.95 35.7781 705.144 Q32.2133 703.316 25.1068 703.316 Q17.9773 703.316 14.4356 705.144 Q10.8708 706.95 10.8708 710.584 M7.16713 710.584 Q7.16713 704.774 11.7736 701.718 Q16.3569 698.64 25.1068 698.64 Q33.8337 698.64 38.4401 701.718 Q43.0234 704.774 43.0234 710.584 Q43.0234 716.394 38.4401 719.473 Q33.8337 722.528 25.1068 722.528 Q16.3569 722.528 11.7736 719.473 Q7.16713 716.394 7.16713 710.584 Z" fill="#000000" fill-rule="nonzero" fill-opacity="1" /><path clip-path="url(#clip730)" d="M36.4725 690.422 L36.4725 685.538 L42.3521 685.538 L42.3521 690.422 L36.4725 690.422 Z" fill="#000000" fill-rule="nonzero" fill-opacity="1" /><path clip-path="url(#clip730)" d="M38.417 674.543 L38.417 666.904 L12.0514 666.904 L13.718 675.214 L9.45878 675.214 L7.79213 666.95 L7.79213 662.274 L38.417 662.274 L38.417 654.635 L42.3521 654.635 L42.3521 674.543 L38.417 674.543 Z" fill="#000000" fill-rule="nonzero" fill-opacity="1" /><path clip-path="url(#clip730)" d="M7.79213 645.145 L7.79213 626.788 L11.7273 626.788 L11.7273 640.862 L20.1995 640.862 Q19.8522 639.844 19.6902 638.825 Q19.505 637.807 19.505 636.788 Q19.505 631.001 22.6763 627.621 Q25.8476 624.242 31.2642 624.242 Q36.8429 624.242 39.9447 627.714 Q43.0234 631.186 43.0234 637.506 Q43.0234 639.682 42.6531 641.95 Q42.2827 644.195 41.5419 646.603 L36.8429 646.603 Q37.9771 644.52 38.5327 642.297 Q39.0883 640.075 39.0883 637.598 Q39.0883 633.594 36.9818 631.256 Q34.8753 628.918 31.2642 628.918 Q27.6531 628.918 25.5467 631.256 Q23.4402 633.594 23.4402 637.598 Q23.4402 639.473 23.8569 641.348 Q24.2735 643.2 25.1531 645.145 L7.79213 645.145 Z" fill="#000000" fill-rule="nonzero" fill-opacity="1" /><path clip-path="url(#clip730)" d="M10.8708 442.444 Q10.8708 446.055 14.4356 447.884 Q17.9773 449.69 25.1068 449.69 Q32.2133 449.69 35.7781 447.884 Q39.3197 446.055 39.3197 442.444 Q39.3197 438.81 35.7781 437.004 Q32.2133 435.176 25.1068 435.176 Q17.9773 435.176 14.4356 437.004 Q10.8708 438.81 10.8708 442.444 M7.16713 442.444 Q7.16713 436.634 11.7736 433.579 Q16.3569 430.5 25.1068 430.5 Q33.8337 430.5 38.4401 433.579 Q43.0234 436.634 43.0234 442.444 Q43.0234 448.254 38.4401 451.333 Q33.8337 454.389 25.1068 454.389 Q16.3569 454.389 11.7736 451.333 Q7.16713 448.254 7.16713 442.444 Z" fill="#000000" fill-rule="nonzero" fill-opacity="1" /><path clip-path="url(#clip730)" d="M36.4725 422.282 L36.4725 417.398 L42.3521 417.398 L42.3521 422.282 L36.4725 422.282 Z" fill="#000000" fill-rule="nonzero" fill-opacity="1" /><path clip-path="url(#clip730)" d="M38.417 403.185 L38.417 386.866 L42.3521 386.866 L42.3521 408.81 L38.417 408.81 Q35.6623 406.148 31.0327 401.565 Q26.38 396.958 25.0374 395.778 Q22.5143 393.532 20.7782 392.653 Q19.0189 391.75 17.3291 391.75 Q14.5745 391.75 12.8384 393.694 Q11.1023 395.616 11.1023 398.718 Q11.1023 400.917 11.8662 403.37 Q12.6301 405.801 14.181 408.579 L9.45878 408.579 Q8.32453 405.755 7.74583 403.301 Q7.16713 400.847 7.16713 398.81 Q7.16713 393.44 9.8523 390.245 Q12.5375 387.051 17.0282 387.051 Q19.1578 387.051 21.0791 387.861 Q22.9772 388.648 25.5698 390.755 Q26.2411 391.333 29.4587 394.435 Q32.6531 397.537 38.417 403.185 Z" fill="#000000" fill-rule="nonzero" fill-opacity="1" /><path clip-path="url(#clip730)" d="M10.8708 367.051 Q10.8708 370.662 14.4356 372.491 Q17.9773 374.296 25.1068 374.296 Q32.2133 374.296 35.7781 372.491 Q39.3197 370.662 39.3197 367.051 Q39.3197 363.417 35.7781 361.611 Q32.2133 359.783 25.1068 359.783 Q17.9773 359.783 14.4356 361.611 Q10.8708 363.417 10.8708 367.051 M7.16713 367.051 Q7.16713 361.241 11.7736 358.185 Q16.3569 355.107 25.1068 355.107 Q33.8337 355.107 38.4401 358.185 Q43.0234 361.241 43.0234 367.051 Q43.0234 372.861 38.4401 375.94 Q33.8337 378.995 25.1068 378.995 Q16.3569 378.995 11.7736 375.94 Q7.16713 372.861 7.16713 367.051 Z" fill="#000000" fill-rule="nonzero" fill-opacity="1" /><path clip-path="url(#clip730)" d="M10.8708 173.309 Q10.8708 176.92 14.4356 178.749 Q17.9773 180.554 25.1068 180.554 Q32.2133 180.554 35.7781 178.749 Q39.3197 176.92 39.3197 173.309 Q39.3197 169.675 35.7781 167.869 Q32.2133 166.041 25.1068 166.041 Q17.9773 166.041 14.4356 167.869 Q10.8708 169.675 10.8708 173.309 M7.16713 173.309 Q7.16713 167.499 11.7736 164.443 Q16.3569 161.365 25.1068 161.365 Q33.8337 161.365 38.4401 164.443 Q43.0234 167.499 43.0234 173.309 Q43.0234 179.119 38.4401 182.198 Q33.8337 185.253 25.1068 185.253 Q16.3569 185.253 11.7736 182.198 Q7.16713 179.119 7.16713 173.309 Z" fill="#000000" fill-rule="nonzero" fill-opacity="1" /><path clip-path="url(#clip730)" d="M36.4725 153.147 L36.4725 148.263 L42.3521 148.263 L42.3521 153.147 L36.4725 153.147 Z" fill="#000000" fill-rule="nonzero" fill-opacity="1" /><path clip-path="url(#clip730)" d="M38.417 134.05 L38.417 117.731 L42.3521 117.731 L42.3521 139.675 L38.417 139.675 Q35.6623 137.013 31.0327 132.43 Q26.38 127.823 25.0374 126.643 Q22.5143 124.397 20.7782 123.518 Q19.0189 122.615 17.3291 122.615 Q14.5745 122.615 12.8384 124.559 Q11.1023 126.481 11.1023 129.582 Q11.1023 131.782 11.8662 134.235 Q12.6301 136.666 14.181 139.443 L9.45878 139.443 Q8.32453 136.619 7.74583 134.166 Q7.16713 131.712 7.16713 129.675 Q7.16713 124.305 9.8523 121.11 Q12.5375 117.916 17.0282 117.916 Q19.1578 117.916 21.0791 118.726 Q22.9772 119.513 25.5698 121.62 Q26.2411 122.198 29.4587 125.3 Q32.6531 128.402 38.417 134.05 Z" fill="#000000" fill-rule="nonzero" fill-opacity="1" /><path clip-path="url(#clip730)" d="M7.79213 107.87 L7.79213 89.5132 L11.7273 89.5132 L11.7273 103.587 L20.1995 103.587 Q19.8522 102.569 19.6902 101.55 Q19.505 100.532 19.505 99.5132 Q19.505 93.7261 22.6763 90.3465 Q25.8476 86.9669 31.2642 86.9669 Q36.8429 86.9669 39.9447 90.4391 Q43.0234 93.9113 43.0234 100.231 Q43.0234 102.407 42.6531 104.675 Q42.2827 106.921 41.5419 109.328 L36.8429 109.328 Q37.9771 107.245 38.5327 105.022 Q39.0883 102.8 39.0883 100.323 Q39.0883 96.3187 36.9818 93.9808 Q34.8753 91.6428 31.2642 91.6428 Q27.6531 91.6428 25.5467 93.9808 Q23.4402 96.3187 23.4402 100.323 Q23.4402 102.198 23.8569 104.073 Q24.2735 105.925 25.1531 107.87 L7.79213 107.87 Z" fill="#000000" fill-rule="nonzero" fill-opacity="1" /><polyline clip-path="url(#clip732)" style="stroke:#009af9; stroke-linecap:round; stroke-linejoin:round; stroke-width:4; stroke-opacity:1; fill:none" points="151.118,1479.3 165.034,1479.3 293.711,1479.3 371.04,1479.3 436.422,1479.3 507.444,1479.3 572.92,1479.3 643.117,1479.3 724.448,1479.3 796.725,1479.3 860.105,1479.3 929.207,1479.3 998.719,1479.3 1075.57,1479.3 1148.7,1479.3 1224.73,1479.3 1288.74,1479.3 1366.88,1479.28 1438.46,1478.86 1471.52,1477.58 1504.57,1473.43 1521.32,1468.93 1538.06,1461.64 1546.43,1456.55 1554.8,1450.25 1563.17,1442.51 1571.54,1433.09 1580.92,1420.22 1590.31,1404.53 1595,1395.51 1599.69,1385.64 1604.38,1374.86 1609.07,1363.13 1613.76,1350.4 1618.45,1336.62 1623.14,1321.75 1627.83,1305.75 1632.52,1288.59 1637.22,1270.23 1641.91,1250.64 1646.6,1229.8 1650.85,1209.82 1655.1,1188.81 1659.35,1166.74 1663.6,1143.63 1667.85,1119.5 1672.1,1094.34 1676.35,1068.19 1680.6,1041.07 1689.1,984.074 1697.61,923.712 1706.11,860.451 1714.61,794.863 1734.08,639.687 1753.54,485.672 1758.41,448.636 1763.28,412.545 1768.14,377.578 1773.01,343.909 1777.88,311.712 1782.74,281.15 1787.61,252.384 1792.48,225.564 1796.98,202.588 1801.49,181.503 1805.99,162.403 1810.5,145.374 1815.01,130.489 1819.51,117.811 1824.02,107.393 1828.53,99.2756 1833.03,93.4874 1837.54,90.0454 1842.04,88.9544 1846.55,90.2075 1851.06,93.7859 1855.56,99.6594 1860.07,107.787 1864.58,118.116 1869.02,130.393 1873.46,144.682 1877.9,160.904 1882.35,178.975 1886.79,198.802 1891.23,220.287 1895.67,243.327 1900.12,267.812 1904.56,293.63 1909,320.666 1913.44,348.802 1917.89,377.918 1926.77,438.61 1935.66,501.789 1952.91,628.114 1970.16,754.082 1978.79,815.252 1987.42,874.47 1996.04,931.288 2004.67,985.34 2013.51,1037.59 2022.36,1086.42 2026.78,1109.5 2031.2,1131.7 2035.62,1152.98 2040.04,1173.37 2044.47,1192.85 2048.89,1211.44 2053.31,1229.15 2057.73,1245.99 2066.57,1277.11 2075.42,1304.97 2085.11,1331.95 2094.8,1355.5 2104.49,1375.9 2114.17,1393.44 2123.86,1408.41 2133.55,1421.11 2143.24,1431.8 2152.93,1440.75 2167.01,1451.11 2181.08,1458.92 2195.16,1464.74 2209.23,1469.01 2237.38,1474.33 2265.53,1477 2271.31,1477.35 2277.08,1477.64 2282.86,1477.9 2288.63,1478.11 "/>
<path clip-path="url(#clip730)" d="M162.518 200.05 L651.893 200.05 L651.893 96.3696 L162.518 96.3696  Z" fill="#ffffff" fill-rule="evenodd" fill-opacity="1"/>
<polyline clip-path="url(#clip730)" style="stroke:#000000; stroke-linecap:round; stroke-linejoin:round; stroke-width:4; stroke-opacity:1; fill:none" points="162.518,200.05 651.893,200.05 651.893,96.3696 162.518,96.3696 162.518,200.05 "/>
<polyline clip-path="url(#clip730)" style="stroke:#009af9; stroke-linecap:round; stroke-linejoin:round; stroke-width:4; stroke-opacity:1; fill:none" points="187.693,148.21 338.744,148.21 "/>
<path clip-path="url(#clip730)" d="M383.178 149.054 L368.433 149.054 Q368.78 155.976 370.377 158.916 Q372.368 162.527 375.817 162.527 Q379.289 162.527 381.21 158.892 Q382.9 155.698 383.178 149.054 M383.109 145.119 Q382.46 138.545 381.21 136.23 Q379.22 132.573 375.817 132.573 Q372.275 132.573 370.4 136.184 Q368.919 139.101 368.479 145.119 L383.109 145.119 M375.817 129.101 Q381.372 129.101 384.544 134.008 Q387.715 138.892 387.715 147.55 Q387.715 156.184 384.544 161.091 Q381.372 166.022 375.817 166.022 Q370.238 166.022 367.09 161.091 Q363.919 156.184 363.919 147.55 Q363.919 138.892 367.09 134.008 Q370.238 129.101 375.817 129.101 Z" fill="#000000" fill-rule="nonzero" fill-opacity="1" /><path clip-path="url(#clip730)" d="M414.474 173.36 L414.474 176.67 L389.845 176.67 L389.845 173.36 L414.474 173.36 Z" fill="#000000" fill-rule="nonzero" fill-opacity="1" /><path clip-path="url(#clip730)" d="M422.599 161.601 L422.599 175.351 L418.317 175.351 L418.317 139.564 L422.599 139.564 L422.599 143.499 Q423.942 141.184 425.979 140.073 Q428.039 138.939 430.886 138.939 Q435.608 138.939 438.548 142.689 Q441.511 146.439 441.511 152.55 Q441.511 158.661 438.548 162.411 Q435.608 166.161 430.886 166.161 Q428.039 166.161 425.979 165.05 Q423.942 163.915 422.599 161.601 M437.09 152.55 Q437.09 147.851 435.145 145.189 Q433.224 142.504 429.844 142.504 Q426.465 142.504 424.52 145.189 Q422.599 147.851 422.599 152.55 Q422.599 157.249 424.52 159.934 Q426.465 162.596 429.844 162.596 Q433.224 162.596 435.145 159.934 Q437.09 157.249 437.09 152.55 Z" fill="#000000" fill-rule="nonzero" fill-opacity="1" /><path clip-path="url(#clip730)" d="M458.617 142.55 Q455.191 142.55 453.201 145.235 Q451.21 147.897 451.21 152.55 Q451.21 157.203 453.178 159.888 Q455.168 162.55 458.617 162.55 Q462.02 162.55 464.011 159.865 Q466.002 157.179 466.002 152.55 Q466.002 147.943 464.011 145.258 Q462.02 142.55 458.617 142.55 M458.617 138.939 Q464.173 138.939 467.344 142.55 Q470.515 146.161 470.515 152.55 Q470.515 158.916 467.344 162.55 Q464.173 166.161 458.617 166.161 Q453.039 166.161 449.867 162.55 Q446.719 158.916 446.719 152.55 Q446.719 146.161 449.867 142.55 Q453.039 138.939 458.617 138.939 Z" fill="#000000" fill-rule="nonzero" fill-opacity="1" /><path clip-path="url(#clip730)" d="M494.103 140.328 L494.103 144.355 Q492.298 143.429 490.353 142.967 Q488.409 142.504 486.326 142.504 Q483.154 142.504 481.557 143.476 Q479.983 144.448 479.983 146.392 Q479.983 147.874 481.117 148.73 Q482.252 149.564 485.677 150.328 L487.136 150.652 Q491.673 151.624 493.571 153.406 Q495.492 155.166 495.492 158.337 Q495.492 161.948 492.622 164.054 Q489.775 166.161 484.775 166.161 Q482.691 166.161 480.423 165.744 Q478.177 165.351 475.677 164.54 L475.677 160.142 Q478.039 161.369 480.33 161.994 Q482.622 162.596 484.867 162.596 Q487.876 162.596 489.497 161.578 Q491.117 160.536 491.117 158.661 Q491.117 156.925 489.937 155.999 Q488.779 155.073 484.821 154.216 L483.339 153.869 Q479.381 153.036 477.622 151.323 Q475.863 149.587 475.863 146.578 Q475.863 142.92 478.455 140.93 Q481.048 138.939 485.816 138.939 Q488.177 138.939 490.261 139.286 Q492.344 139.633 494.103 140.328 Z" fill="#000000" fill-rule="nonzero" fill-opacity="1" /><path clip-path="url(#clip730)" d="M506.487 132.203 L506.487 139.564 L515.261 139.564 L515.261 142.874 L506.487 142.874 L506.487 156.948 Q506.487 160.119 507.344 161.022 Q508.224 161.925 510.886 161.925 L515.261 161.925 L515.261 165.49 L510.886 165.49 Q505.955 165.49 504.08 163.661 Q502.205 161.809 502.205 156.948 L502.205 142.874 L499.08 142.874 L499.08 139.564 L502.205 139.564 L502.205 132.203 L506.487 132.203 Z" fill="#000000" fill-rule="nonzero" fill-opacity="1" /><path clip-path="url(#clip730)" d="M543.038 151.462 L543.038 153.545 L523.455 153.545 Q523.733 157.943 526.094 160.258 Q528.478 162.55 532.714 162.55 Q535.168 162.55 537.46 161.948 Q539.774 161.346 542.043 160.142 L542.043 164.17 Q539.751 165.142 537.344 165.652 Q534.936 166.161 532.46 166.161 Q526.256 166.161 522.622 162.55 Q519.011 158.939 519.011 152.781 Q519.011 146.416 522.436 142.689 Q525.886 138.939 531.719 138.939 Q536.95 138.939 539.983 142.318 Q543.038 145.675 543.038 151.462 M538.779 150.212 Q538.733 146.717 536.811 144.633 Q534.913 142.55 531.765 142.55 Q528.2 142.55 526.048 144.564 Q523.918 146.578 523.594 150.235 L538.779 150.212 Z" fill="#000000" fill-rule="nonzero" fill-opacity="1" /><path clip-path="url(#clip730)" d="M565.052 143.545 Q564.334 143.129 563.478 142.943 Q562.645 142.735 561.626 142.735 Q558.015 142.735 556.071 145.096 Q554.149 147.434 554.149 151.832 L554.149 165.49 L549.867 165.49 L549.867 139.564 L554.149 139.564 L554.149 143.592 Q555.492 141.23 557.645 140.096 Q559.797 138.939 562.876 138.939 Q563.316 138.939 563.848 139.008 Q564.381 139.055 565.029 139.17 L565.052 143.545 Z" fill="#000000" fill-rule="nonzero" fill-opacity="1" /><path clip-path="url(#clip730)" d="M569.52 139.564 L573.779 139.564 L573.779 165.49 L569.52 165.49 L569.52 139.564 M569.52 129.471 L573.779 129.471 L573.779 134.865 L569.52 134.865 L569.52 129.471 Z" fill="#000000" fill-rule="nonzero" fill-opacity="1" /><path clip-path="url(#clip730)" d="M592.737 142.55 Q589.311 142.55 587.32 145.235 Q585.33 147.897 585.33 152.55 Q585.33 157.203 587.297 159.888 Q589.288 162.55 592.737 162.55 Q596.14 162.55 598.131 159.865 Q600.121 157.179 600.121 152.55 Q600.121 147.943 598.131 145.258 Q596.14 142.55 592.737 142.55 M592.737 138.939 Q598.293 138.939 601.464 142.55 Q604.635 146.161 604.635 152.55 Q604.635 158.916 601.464 162.55 Q598.293 166.161 592.737 166.161 Q587.158 166.161 583.987 162.55 Q580.839 158.916 580.839 152.55 Q580.839 146.161 583.987 142.55 Q587.158 138.939 592.737 138.939 Z" fill="#000000" fill-rule="nonzero" fill-opacity="1" /><path clip-path="url(#clip730)" d="M626.718 143.545 Q626.001 143.129 625.144 142.943 Q624.311 142.735 623.292 142.735 Q619.681 142.735 617.737 145.096 Q615.816 147.434 615.816 151.832 L615.816 165.49 L611.533 165.49 L611.533 139.564 L615.816 139.564 L615.816 143.592 Q617.158 141.23 619.311 140.096 Q621.464 138.939 624.542 138.939 Q624.982 138.939 625.515 139.008 Q626.047 139.055 626.695 139.17 L626.718 143.545 Z" fill="#000000" fill-rule="nonzero" fill-opacity="1" /></svg>
