<?xml version="1.0" encoding="utf-8"?>
<svg xmlns="http://www.w3.org/2000/svg" xmlns:xlink="http://www.w3.org/1999/xlink" width="600" height="400" viewBox="0 0 2400 1600">
<defs>
  <clipPath id="clip390">
    <rect x="0" y="0" width="2400" height="1600"/>
  </clipPath>
</defs>
<path clip-path="url(#clip390)" d="M0 1600 L2400 1600 L2400 0 L0 0  Z" fill="#ffffff" fill-rule="evenodd" fill-opacity="1"/>
<defs>
  <clipPath id="clip391">
    <rect x="480" y="0" width="1681" height="1600"/>
  </clipPath>
</defs>
<path clip-path="url(#clip390)" d="M86.9921 1521.01 L2352.76 1521.01 L2352.76 47.2441 L86.9921 47.2441  Z" fill="#ffffff" fill-rule="evenodd" fill-opacity="1"/>
<defs>
  <clipPath id="clip392">
    <rect x="86" y="47" width="2267" height="1475"/>
  </clipPath>
</defs>
<polyline clip-path="url(#clip392)" style="stroke:#000000; stroke-linecap:round; stroke-linejoin:round; stroke-width:2; stroke-opacity:0.1; fill:none" points="219.615,1521.01 219.615,47.2441 "/>
<polyline clip-path="url(#clip392)" style="stroke:#000000; stroke-linecap:round; stroke-linejoin:round; stroke-width:2; stroke-opacity:0.1; fill:none" points="719.745,1521.01 719.745,47.2441 "/>
<polyline clip-path="url(#clip392)" style="stroke:#000000; stroke-linecap:round; stroke-linejoin:round; stroke-width:2; stroke-opacity:0.1; fill:none" points="1219.87,1521.01 1219.87,47.2441 "/>
<polyline clip-path="url(#clip392)" style="stroke:#000000; stroke-linecap:round; stroke-linejoin:round; stroke-width:2; stroke-opacity:0.1; fill:none" points="1720,1521.01 1720,47.2441 "/>
<polyline clip-path="url(#clip392)" style="stroke:#000000; stroke-linecap:round; stroke-linejoin:round; stroke-width:2; stroke-opacity:0.1; fill:none" points="2220.13,1521.01 2220.13,47.2441 "/>
<polyline clip-path="url(#clip390)" style="stroke:#000000; stroke-linecap:round; stroke-linejoin:round; stroke-width:4; stroke-opacity:1; fill:none" points="86.9921,1521.01 2352.76,1521.01 "/>
<polyline clip-path="url(#clip390)" style="stroke:#000000; stroke-linecap:round; stroke-linejoin:round; stroke-width:4; stroke-opacity:1; fill:none" points="219.615,1521.01 219.615,1502.11 "/>
<polyline clip-path="url(#clip390)" style="stroke:#000000; stroke-linecap:round; stroke-linejoin:round; stroke-width:4; stroke-opacity:1; fill:none" points="719.745,1521.01 719.745,1502.11 "/>
<polyline clip-path="url(#clip390)" style="stroke:#000000; stroke-linecap:round; stroke-linejoin:round; stroke-width:4; stroke-opacity:1; fill:none" points="1219.87,1521.01 1219.87,1502.11 "/>
<polyline clip-path="url(#clip390)" style="stroke:#000000; stroke-linecap:round; stroke-linejoin:round; stroke-width:4; stroke-opacity:1; fill:none" points="1720,1521.01 1720,1502.11 "/>
<polyline clip-path="url(#clip390)" style="stroke:#000000; stroke-linecap:round; stroke-linejoin:round; stroke-width:4; stroke-opacity:1; fill:none" points="2220.13,1521.01 2220.13,1502.11 "/>
<path clip-path="url(#clip390)" d="M219.615 1551.93 Q216.004 1551.93 214.175 1555.49 Q212.37 1559.03 212.37 1566.16 Q212.37 1573.27 214.175 1576.83 Q216.004 1580.38 219.615 1580.38 Q223.249 1580.38 225.055 1576.83 Q226.884 1573.27 226.884 1566.16 Q226.884 1559.03 225.055 1555.49 Q223.249 1551.93 219.615 1551.93 M219.615 1548.22 Q225.425 1548.22 228.481 1552.83 Q231.56 1557.41 231.56 1566.16 Q231.56 1574.89 228.481 1579.5 Q225.425 1584.08 219.615 1584.08 Q213.805 1584.08 210.726 1579.5 Q207.671 1574.89 207.671 1566.16 Q207.671 1557.41 210.726 1552.83 Q213.805 1548.22 219.615 1548.22 Z" fill="#000000" fill-rule="nonzero" fill-opacity="1" /><path clip-path="url(#clip390)" d="M699.016 1579.47 L715.335 1579.47 L715.335 1583.41 L693.391 1583.41 L693.391 1579.47 Q696.053 1576.72 700.636 1572.09 Q705.242 1567.44 706.423 1566.09 Q708.668 1563.57 709.548 1561.83 Q710.451 1560.07 710.451 1558.38 Q710.451 1555.63 708.506 1553.89 Q706.585 1552.16 703.483 1552.16 Q701.284 1552.16 698.83 1552.92 Q696.4 1553.69 693.622 1555.24 L693.622 1550.51 Q696.446 1549.38 698.9 1548.8 Q701.354 1548.22 703.391 1548.22 Q708.761 1548.22 711.955 1550.91 Q715.15 1553.59 715.15 1558.08 Q715.15 1560.21 714.34 1562.13 Q713.553 1564.03 711.446 1566.63 Q710.867 1567.3 707.766 1570.51 Q704.664 1573.71 699.016 1579.47 Z" fill="#000000" fill-rule="nonzero" fill-opacity="1" /><path clip-path="url(#clip390)" d="M725.196 1548.85 L743.552 1548.85 L743.552 1552.78 L729.478 1552.78 L729.478 1561.26 Q730.497 1560.91 731.515 1560.75 Q732.534 1560.56 733.552 1560.56 Q739.339 1560.56 742.719 1563.73 Q746.099 1566.9 746.099 1572.32 Q746.099 1577.9 742.626 1581 Q739.154 1584.08 732.835 1584.08 Q730.659 1584.08 728.39 1583.71 Q726.145 1583.34 723.738 1582.6 L723.738 1577.9 Q725.821 1579.03 728.043 1579.59 Q730.265 1580.14 732.742 1580.14 Q736.747 1580.14 739.085 1578.04 Q741.423 1575.93 741.423 1572.32 Q741.423 1568.71 739.085 1566.6 Q736.747 1564.5 732.742 1564.5 Q730.867 1564.5 728.992 1564.91 Q727.14 1565.33 725.196 1566.21 L725.196 1548.85 Z" fill="#000000" fill-rule="nonzero" fill-opacity="1" /><path clip-path="url(#clip390)" d="M1194.57 1548.85 L1212.93 1548.85 L1212.93 1552.78 L1198.86 1552.78 L1198.86 1561.26 Q1199.87 1560.91 1200.89 1560.75 Q1201.91 1560.56 1202.93 1560.56 Q1208.72 1560.56 1212.1 1563.73 Q1215.48 1566.9 1215.48 1572.32 Q1215.48 1577.9 1212 1581 Q1208.53 1584.08 1202.21 1584.08 Q1200.04 1584.08 1197.77 1583.71 Q1195.52 1583.34 1193.11 1582.6 L1193.11 1577.9 Q1195.2 1579.03 1197.42 1579.59 Q1199.64 1580.14 1202.12 1580.14 Q1206.12 1580.14 1208.46 1578.04 Q1210.8 1575.93 1210.8 1572.32 Q1210.8 1568.71 1208.46 1566.6 Q1206.12 1564.5 1202.12 1564.5 Q1200.24 1564.5 1198.37 1564.91 Q1196.52 1565.33 1194.57 1566.21 L1194.57 1548.85 Z" fill="#000000" fill-rule="nonzero" fill-opacity="1" /><path clip-path="url(#clip390)" d="M1234.69 1551.93 Q1231.08 1551.93 1229.25 1555.49 Q1227.44 1559.03 1227.44 1566.16 Q1227.44 1573.27 1229.25 1576.83 Q1231.08 1580.38 1234.69 1580.38 Q1238.32 1580.38 1240.13 1576.83 Q1241.96 1573.27 1241.96 1566.16 Q1241.96 1559.03 1240.13 1555.49 Q1238.32 1551.93 1234.69 1551.93 M1234.69 1548.22 Q1240.5 1548.22 1243.55 1552.83 Q1246.63 1557.41 1246.63 1566.16 Q1246.63 1574.89 1243.55 1579.5 Q1240.5 1584.08 1234.69 1584.08 Q1228.88 1584.08 1225.8 1579.5 Q1222.74 1574.89 1222.74 1566.16 Q1222.74 1557.41 1225.8 1552.83 Q1228.88 1548.22 1234.69 1548.22 Z" fill="#000000" fill-rule="nonzero" fill-opacity="1" /><path clip-path="url(#clip390)" d="M1693.86 1548.85 L1716.08 1548.85 L1716.08 1550.84 L1703.53 1583.41 L1698.65 1583.41 L1710.45 1552.78 L1693.86 1552.78 L1693.86 1548.85 Z" fill="#000000" fill-rule="nonzero" fill-opacity="1" /><path clip-path="url(#clip390)" d="M1725.25 1548.85 L1743.6 1548.85 L1743.6 1552.78 L1729.53 1552.78 L1729.53 1561.26 Q1730.55 1560.91 1731.57 1560.75 Q1732.58 1560.56 1733.6 1560.56 Q1739.39 1560.56 1742.77 1563.73 Q1746.15 1566.9 1746.15 1572.32 Q1746.15 1577.9 1742.68 1581 Q1739.2 1584.08 1732.89 1584.08 Q1730.71 1584.08 1728.44 1583.71 Q1726.2 1583.34 1723.79 1582.6 L1723.79 1577.9 Q1725.87 1579.03 1728.09 1579.59 Q1730.32 1580.14 1732.79 1580.14 Q1736.8 1580.14 1739.14 1578.04 Q1741.47 1575.93 1741.47 1572.32 Q1741.47 1568.71 1739.14 1566.6 Q1736.8 1564.5 1732.79 1564.5 Q1730.92 1564.5 1729.04 1564.91 Q1727.19 1565.33 1725.25 1566.21 L1725.25 1548.85 Z" fill="#000000" fill-rule="nonzero" fill-opacity="1" /><path clip-path="url(#clip390)" d="M2179.74 1579.47 L2187.38 1579.47 L2187.38 1553.11 L2179.07 1554.77 L2179.07 1550.51 L2187.33 1548.85 L2192.01 1548.85 L2192.01 1579.47 L2199.65 1579.47 L2199.65 1583.41 L2179.74 1583.41 L2179.74 1579.47 Z" fill="#000000" fill-rule="nonzero" fill-opacity="1" /><path clip-path="url(#clip390)" d="M2219.09 1551.93 Q2215.48 1551.93 2213.65 1555.49 Q2211.85 1559.03 2211.85 1566.16 Q2211.85 1573.27 2213.65 1576.83 Q2215.48 1580.38 2219.09 1580.38 Q2222.73 1580.38 2224.53 1576.83 Q2226.36 1573.27 2226.36 1566.16 Q2226.36 1559.03 2224.53 1555.49 Q2222.73 1551.93 2219.09 1551.93 M2219.09 1548.22 Q2224.9 1548.22 2227.96 1552.83 Q2231.04 1557.41 2231.04 1566.16 Q2231.04 1574.89 2227.96 1579.5 Q2224.9 1584.08 2219.09 1584.08 Q2213.28 1584.08 2210.2 1579.5 Q2207.15 1574.89 2207.15 1566.16 Q2207.15 1557.41 2210.2 1552.83 Q2213.28 1548.22 2219.09 1548.22 Z" fill="#000000" fill-rule="nonzero" fill-opacity="1" /><path clip-path="url(#clip390)" d="M2249.25 1551.93 Q2245.64 1551.93 2243.81 1555.49 Q2242.01 1559.03 2242.01 1566.16 Q2242.01 1573.27 2243.81 1576.83 Q2245.64 1580.38 2249.25 1580.38 Q2252.89 1580.38 2254.69 1576.83 Q2256.52 1573.27 2256.52 1566.16 Q2256.52 1559.03 2254.69 1555.49 Q2252.89 1551.93 2249.25 1551.93 M2249.25 1548.22 Q2255.06 1548.22 2258.12 1552.83 Q2261.2 1557.41 2261.2 1566.16 Q2261.2 1574.89 2258.12 1579.5 Q2255.06 1584.08 2249.25 1584.08 Q2243.44 1584.08 2240.36 1579.5 Q2237.31 1574.89 2237.31 1566.16 Q2237.31 1557.41 2240.36 1552.83 Q2243.44 1548.22 2249.25 1548.22 Z" fill="#000000" fill-rule="nonzero" fill-opacity="1" /><polyline clip-path="url(#clip392)" style="stroke:#000000; stroke-linecap:round; stroke-linejoin:round; stroke-width:2; stroke-opacity:0.1; fill:none" points="86.9921,1521.01 2352.76,1521.01 "/>
<polyline clip-path="url(#clip392)" style="stroke:#000000; stroke-linecap:round; stroke-linejoin:round; stroke-width:2; stroke-opacity:0.1; fill:none" points="86.9921,1293.57 2352.76,1293.57 "/>
<polyline clip-path="url(#clip392)" style="stroke:#000000; stroke-linecap:round; stroke-linejoin:round; stroke-width:2; stroke-opacity:0.1; fill:none" points="86.9921,1066.13 2352.76,1066.13 "/>
<polyline clip-path="url(#clip392)" style="stroke:#000000; stroke-linecap:round; stroke-linejoin:round; stroke-width:2; stroke-opacity:0.1; fill:none" points="86.9921,838.696 2352.76,838.696 "/>
<polyline clip-path="url(#clip392)" style="stroke:#000000; stroke-linecap:round; stroke-linejoin:round; stroke-width:2; stroke-opacity:0.1; fill:none" points="86.9921,611.259 2352.76,611.259 "/>
<polyline clip-path="url(#clip392)" style="stroke:#000000; stroke-linecap:round; stroke-linejoin:round; stroke-width:2; stroke-opacity:0.1; fill:none" points="86.9921,383.822 2352.76,383.822 "/>
<polyline clip-path="url(#clip392)" style="stroke:#000000; stroke-linecap:round; stroke-linejoin:round; stroke-width:2; stroke-opacity:0.1; fill:none" points="86.9921,156.385 2352.76,156.385 "/>
<polyline clip-path="url(#clip390)" style="stroke:#000000; stroke-linecap:round; stroke-linejoin:round; stroke-width:4; stroke-opacity:1; fill:none" points="86.9921,1521.01 86.9921,47.2441 "/>
<polyline clip-path="url(#clip390)" style="stroke:#000000; stroke-linecap:round; stroke-linejoin:round; stroke-width:4; stroke-opacity:1; fill:none" points="86.9921,1521.01 105.89,1521.01 "/>
<polyline clip-path="url(#clip390)" style="stroke:#000000; stroke-linecap:round; stroke-linejoin:round; stroke-width:4; stroke-opacity:1; fill:none" points="86.9921,1293.57 105.89,1293.57 "/>
<polyline clip-path="url(#clip390)" style="stroke:#000000; stroke-linecap:round; stroke-linejoin:round; stroke-width:4; stroke-opacity:1; fill:none" points="86.9921,1066.13 105.89,1066.13 "/>
<polyline clip-path="url(#clip390)" style="stroke:#000000; stroke-linecap:round; stroke-linejoin:round; stroke-width:4; stroke-opacity:1; fill:none" points="86.9921,838.696 105.89,838.696 "/>
<polyline clip-path="url(#clip390)" style="stroke:#000000; stroke-linecap:round; stroke-linejoin:round; stroke-width:4; stroke-opacity:1; fill:none" points="86.9921,611.259 105.89,611.259 "/>
<polyline clip-path="url(#clip390)" style="stroke:#000000; stroke-linecap:round; stroke-linejoin:round; stroke-width:4; stroke-opacity:1; fill:none" points="86.9921,383.822 105.89,383.822 "/>
<polyline clip-path="url(#clip390)" style="stroke:#000000; stroke-linecap:round; stroke-linejoin:round; stroke-width:4; stroke-opacity:1; fill:none" points="86.9921,156.385 105.89,156.385 "/>
<path clip-path="url(#clip390)" d="M10.8708 1558.7 Q10.8708 1562.32 14.4356 1564.14 Q17.9773 1565.95 25.1068 1565.95 Q32.2133 1565.95 35.7781 1564.14 Q39.3197 1562.32 39.3197 1558.7 Q39.3197 1555.07 35.7781 1553.26 Q32.2133 1551.44 25.1068 1551.44 Q17.9773 1551.44 14.4356 1553.26 Q10.8708 1555.07 10.8708 1558.7 M7.16713 1558.7 Q7.16713 1552.89 11.7736 1549.84 Q16.3569 1546.76 25.1068 1546.76 Q33.8337 1546.76 38.4401 1549.84 Q43.0234 1552.89 43.0234 1558.7 Q43.0234 1564.51 38.4401 1567.59 Q33.8337 1570.65 25.1068 1570.65 Q16.3569 1570.65 11.7736 1567.59 Q7.16713 1564.51 7.16713 1558.7 Z" fill="#000000" fill-rule="nonzero" fill-opacity="1" /><path clip-path="url(#clip390)" d="M36.4725 1538.54 L36.4725 1533.66 L42.3521 1533.66 L42.3521 1538.54 L36.4725 1538.54 Z" fill="#000000" fill-rule="nonzero" fill-opacity="1" /><path clip-path="url(#clip390)" d="M10.8708 1513.47 Q10.8708 1517.08 14.4356 1518.91 Q17.9773 1520.72 25.1068 1520.72 Q32.2133 1520.72 35.7781 1518.91 Q39.3197 1517.08 39.3197 1513.47 Q39.3197 1509.84 35.7781 1508.03 Q32.2133 1506.2 25.1068 1506.2 Q17.9773 1506.2 14.4356 1508.03 Q10.8708 1509.84 10.8708 1513.47 M7.16713 1513.47 Q7.16713 1507.66 11.7736 1504.61 Q16.3569 1501.53 25.1068 1501.53 Q33.8337 1501.53 38.4401 1504.61 Q43.0234 1507.66 43.0234 1513.47 Q43.0234 1519.28 38.4401 1522.36 Q33.8337 1525.42 25.1068 1525.42 Q16.3569 1525.42 11.7736 1522.36 Q7.16713 1519.28 7.16713 1513.47 Z" fill="#000000" fill-rule="nonzero" fill-opacity="1" /><path clip-path="url(#clip390)" d="M10.8708 1483.31 Q10.8708 1486.92 14.4356 1488.75 Q17.9773 1490.56 25.1068 1490.56 Q32.2133 1490.56 35.7781 1488.75 Q39.3197 1486.92 39.3197 1483.31 Q39.3197 1479.68 35.7781 1477.87 Q32.2133 1476.04 25.1068 1476.04 Q17.9773 1476.04 14.4356 1477.87 Q10.8708 1479.68 10.8708 1483.31 M7.16713 1483.31 Q7.16713 1477.5 11.7736 1474.45 Q16.3569 1471.37 25.1068 1471.37 Q33.8337 1471.37 38.4401 1474.45 Q43.0234 1477.5 43.0234 1483.31 Q43.0234 1489.12 38.4401 1492.2 Q33.8337 1495.26 25.1068 1495.26 Q16.3569 1495.26 11.7736 1492.2 Q7.16713 1489.12 7.16713 1483.31 Z" fill="#000000" fill-rule="nonzero" fill-opacity="1" /><path clip-path="url(#clip390)" d="M10.8708 1330.65 Q10.8708 1334.26 14.4356 1336.09 Q17.9773 1337.9 25.1068 1337.9 Q32.2133 1337.9 35.7781 1336.09 Q39.3197 1334.26 39.3197 1330.65 Q39.3197 1327.02 35.7781 1325.21 Q32.2133 1323.39 25.1068 1323.39 Q17.9773 1323.39 14.4356 1325.21 Q10.8708 1327.02 10.8708 1330.65 M7.16713 1330.65 Q7.16713 1324.84 11.7736 1321.79 Q16.3569 1318.71 25.1068 1318.71 Q33.8337 1318.71 38.4401 1321.79 Q43.0234 1324.84 43.0234 1330.65 Q43.0234 1336.46 38.4401 1339.54 Q33.8337 1342.6 25.1068 1342.6 Q16.3569 1342.6 11.7736 1339.54 Q7.16713 1336.46 7.16713 1330.65 Z" fill="#000000" fill-rule="nonzero" fill-opacity="1" /><path clip-path="url(#clip390)" d="M36.4725 1310.49 L36.4725 1305.61 L42.3521 1305.61 L42.3521 1310.49 L36.4725 1310.49 Z" fill="#000000" fill-rule="nonzero" fill-opacity="1" /><path clip-path="url(#clip390)" d="M10.8708 1285.42 Q10.8708 1289.03 14.4356 1290.86 Q17.9773 1292.67 25.1068 1292.67 Q32.2133 1292.67 35.7781 1290.86 Q39.3197 1289.03 39.3197 1285.42 Q39.3197 1281.79 35.7781 1279.98 Q32.2133 1278.15 25.1068 1278.15 Q17.9773 1278.15 14.4356 1279.98 Q10.8708 1281.79 10.8708 1285.42 M7.16713 1285.42 Q7.16713 1279.61 11.7736 1276.56 Q16.3569 1273.48 25.1068 1273.48 Q33.8337 1273.48 38.4401 1276.56 Q43.0234 1279.61 43.0234 1285.42 Q43.0234 1291.23 38.4401 1294.31 Q33.8337 1297.37 25.1068 1297.37 Q16.3569 1297.37 11.7736 1294.31 Q7.16713 1291.23 7.16713 1285.42 Z" fill="#000000" fill-rule="nonzero" fill-opacity="1" /><path clip-path="url(#clip390)" d="M38.417 1264.45 L38.417 1256.81 L12.0514 1256.81 L13.718 1265.12 L9.45878 1265.12 L7.79213 1256.86 L7.79213 1252.18 L38.417 1252.18 L38.417 1244.54 L42.3521 1244.54 L42.3521 1264.45 L38.417 1264.45 Z" fill="#000000" fill-rule="nonzero" fill-opacity="1" /><path clip-path="url(#clip390)" d="M10.8708 1103.03 Q10.8708 1106.64 14.4356 1108.47 Q17.9773 1110.28 25.1068 1110.28 Q32.2133 1110.28 35.7781 1108.47 Q39.3197 1106.64 39.3197 1103.03 Q39.3197 1099.4 35.7781 1097.59 Q32.2133 1095.76 25.1068 1095.76 Q17.9773 1095.76 14.4356 1097.59 Q10.8708 1099.4 10.8708 1103.03 M7.16713 1103.03 Q7.16713 1097.22 11.7736 1094.17 Q16.3569 1091.09 25.1068 1091.09 Q33.8337 1091.09 38.4401 1094.17 Q43.0234 1097.22 43.0234 1103.03 Q43.0234 1108.84 38.4401 1111.92 Q33.8337 1114.98 25.1068 1114.98 Q16.3569 1114.98 11.7736 1111.92 Q7.16713 1108.84 7.16713 1103.03 Z" fill="#000000" fill-rule="nonzero" fill-opacity="1" /><path clip-path="url(#clip390)" d="M36.4725 1082.87 L36.4725 1077.99 L42.3521 1077.99 L42.3521 1082.87 L36.4725 1082.87 Z" fill="#000000" fill-rule="nonzero" fill-opacity="1" /><path clip-path="url(#clip390)" d="M10.8708 1057.8 Q10.8708 1061.41 14.4356 1063.24 Q17.9773 1065.05 25.1068 1065.05 Q32.2133 1065.05 35.7781 1063.24 Q39.3197 1061.41 39.3197 1057.8 Q39.3197 1054.17 35.7781 1052.36 Q32.2133 1050.53 25.1068 1050.53 Q17.9773 1050.53 14.4356 1052.36 Q10.8708 1054.17 10.8708 1057.8 M7.16713 1057.8 Q7.16713 1051.99 11.7736 1048.93 Q16.3569 1045.86 25.1068 1045.86 Q33.8337 1045.86 38.4401 1048.93 Q43.0234 1051.99 43.0234 1057.8 Q43.0234 1063.61 38.4401 1066.69 Q33.8337 1069.74 25.1068 1069.74 Q16.3569 1069.74 11.7736 1066.69 Q7.16713 1063.61 7.16713 1057.8 Z" fill="#000000" fill-rule="nonzero" fill-opacity="1" /><path clip-path="url(#clip390)" d="M38.417 1033.61 L38.417 1017.29 L42.3521 1017.29 L42.3521 1039.24 L38.417 1039.24 Q35.6623 1036.57 31.0327 1031.99 Q26.38 1027.38 25.0374 1026.2 Q22.5143 1023.96 20.7782 1023.08 Q19.0189 1022.18 17.3291 1022.18 Q14.5745 1022.18 12.8384 1024.12 Q11.1023 1026.04 11.1023 1029.14 Q11.1023 1031.34 11.8662 1033.8 Q12.6301 1036.23 14.181 1039 L9.45878 1039 Q8.32453 1036.18 7.74583 1033.73 Q7.16713 1031.27 7.16713 1029.24 Q7.16713 1023.87 9.8523 1020.67 Q12.5375 1017.48 17.0282 1017.48 Q19.1578 1017.48 21.0791 1018.29 Q22.9772 1019.07 25.5698 1021.18 Q26.2411 1021.76 29.4587 1024.86 Q32.6531 1027.96 38.417 1033.61 Z" fill="#000000" fill-rule="nonzero" fill-opacity="1" /><path clip-path="url(#clip390)" d="M10.8708 876.069 Q10.8708 879.68 14.4356 881.509 Q17.9773 883.314 25.1068 883.314 Q32.2133 883.314 35.7781 881.509 Q39.3197 879.68 39.3197 876.069 Q39.3197 872.435 35.7781 870.629 Q32.2133 868.8 25.1068 868.8 Q17.9773 868.8 14.4356 870.629 Q10.8708 872.435 10.8708 876.069 M7.16713 876.069 Q7.16713 870.259 11.7736 867.203 Q16.3569 864.124 25.1068 864.124 Q33.8337 864.124 38.4401 867.203 Q43.0234 870.259 43.0234 876.069 Q43.0234 881.879 38.4401 884.958 Q33.8337 888.013 25.1068 888.013 Q16.3569 888.013 11.7736 884.958 Q7.16713 881.879 7.16713 876.069 Z" fill="#000000" fill-rule="nonzero" fill-opacity="1" /><path clip-path="url(#clip390)" d="M36.4725 855.907 L36.4725 851.023 L42.3521 851.023 L42.3521 855.907 L36.4725 855.907 Z" fill="#000000" fill-rule="nonzero" fill-opacity="1" /><path clip-path="url(#clip390)" d="M10.8708 830.838 Q10.8708 834.449 14.4356 836.277 Q17.9773 838.083 25.1068 838.083 Q32.2133 838.083 35.7781 836.277 Q39.3197 834.449 39.3197 830.838 Q39.3197 827.203 35.7781 825.398 Q32.2133 823.569 25.1068 823.569 Q17.9773 823.569 14.4356 825.398 Q10.8708 827.203 10.8708 830.838 M7.16713 830.838 Q7.16713 825.027 11.7736 821.972 Q16.3569 818.893 25.1068 818.893 Q33.8337 818.893 38.4401 821.972 Q43.0234 825.027 43.0234 830.838 Q43.0234 836.648 38.4401 839.726 Q33.8337 842.782 25.1068 842.782 Q16.3569 842.782 11.7736 839.726 Q7.16713 836.648 7.16713 830.838 Z" fill="#000000" fill-rule="nonzero" fill-opacity="1" /><path clip-path="url(#clip390)" d="M23.718 796.509 Q24.4356 793.153 26.7041 791.278 Q28.9726 789.38 32.3059 789.38 Q37.4216 789.38 40.2225 792.898 Q43.0234 796.417 43.0234 802.898 Q43.0234 805.074 42.5836 807.389 Q42.1669 809.68 41.3105 812.134 L36.7966 812.134 Q37.9309 810.19 38.5096 807.875 Q39.0883 805.56 39.0883 803.037 Q39.0883 798.639 37.3522 796.347 Q35.6161 794.032 32.3059 794.032 Q29.2503 794.032 27.5374 796.185 Q25.8013 798.315 25.8013 802.134 L25.8013 806.162 L21.9587 806.162 L21.9587 801.949 Q21.9587 798.5 20.593 796.671 Q19.2041 794.842 16.6115 794.842 Q13.9495 794.842 12.5375 796.741 Q11.1023 798.616 11.1023 802.134 Q11.1023 804.055 11.519 806.254 Q11.9356 808.453 12.8152 811.092 L8.6486 811.092 Q7.90787 808.43 7.5375 806.116 Q7.16713 803.778 7.16713 801.717 Q7.16713 796.393 9.59767 793.292 Q12.0051 790.19 16.1254 790.19 Q18.9958 790.19 20.9865 791.833 Q22.9541 793.477 23.718 796.509 Z" fill="#000000" fill-rule="nonzero" fill-opacity="1" /><path clip-path="url(#clip390)" d="M10.8708 649.199 Q10.8708 652.81 14.4356 654.639 Q17.9773 656.444 25.1068 656.444 Q32.2133 656.444 35.7781 654.639 Q39.3197 652.81 39.3197 649.199 Q39.3197 645.565 35.7781 643.759 Q32.2133 641.93 25.1068 641.93 Q17.9773 641.93 14.4356 643.759 Q10.8708 645.565 10.8708 649.199 M7.16713 649.199 Q7.16713 643.389 11.7736 640.333 Q16.3569 637.254 25.1068 637.254 Q33.8337 637.254 38.4401 640.333 Q43.0234 643.389 43.0234 649.199 Q43.0234 655.009 38.4401 658.088 Q33.8337 661.143 25.1068 661.143 Q16.3569 661.143 11.7736 658.088 Q7.16713 655.009 7.16713 649.199 Z" fill="#000000" fill-rule="nonzero" fill-opacity="1" /><path clip-path="url(#clip390)" d="M36.4725 629.037 L36.4725 624.153 L42.3521 624.153 L42.3521 629.037 L36.4725 629.037 Z" fill="#000000" fill-rule="nonzero" fill-opacity="1" /><path clip-path="url(#clip390)" d="M10.8708 603.968 Q10.8708 607.579 14.4356 609.407 Q17.9773 611.213 25.1068 611.213 Q32.2133 611.213 35.7781 609.407 Q39.3197 607.579 39.3197 603.968 Q39.3197 600.333 35.7781 598.528 Q32.2133 596.699 25.1068 596.699 Q17.9773 596.699 14.4356 598.528 Q10.8708 600.333 10.8708 603.968 M7.16713 603.968 Q7.16713 598.157 11.7736 595.102 Q16.3569 592.023 25.1068 592.023 Q33.8337 592.023 38.4401 595.102 Q43.0234 598.157 43.0234 603.968 Q43.0234 609.778 38.4401 612.856 Q33.8337 615.912 25.1068 615.912 Q16.3569 615.912 11.7736 612.856 Q7.16713 609.778 7.16713 603.968 Z" fill="#000000" fill-rule="nonzero" fill-opacity="1" /><path clip-path="url(#clip390)" d="M11.8662 570.958 L30.3152 582.764 L30.3152 570.958 L11.8662 570.958 M7.79213 572.185 L7.79213 566.306 L30.3152 566.306 L30.3152 561.375 L34.204 561.375 L34.204 566.306 L42.3521 566.306 L42.3521 570.958 L34.204 570.958 L34.204 586.56 L29.6902 586.56 L7.79213 572.185 Z" fill="#000000" fill-rule="nonzero" fill-opacity="1" /><path clip-path="url(#clip390)" d="M10.8708 421.021 Q10.8708 424.632 14.4356 426.461 Q17.9773 428.266 25.1068 428.266 Q32.2133 428.266 35.7781 426.461 Q39.3197 424.632 39.3197 421.021 Q39.3197 417.387 35.7781 415.581 Q32.2133 413.752 25.1068 413.752 Q17.9773 413.752 14.4356 415.581 Q10.8708 417.387 10.8708 421.021 M7.16713 421.021 Q7.16713 415.211 11.7736 412.155 Q16.3569 409.077 25.1068 409.077 Q33.8337 409.077 38.4401 412.155 Q43.0234 415.211 43.0234 421.021 Q43.0234 426.831 38.4401 429.91 Q33.8337 432.965 25.1068 432.965 Q16.3569 432.965 11.7736 429.91 Q7.16713 426.831 7.16713 421.021 Z" fill="#000000" fill-rule="nonzero" fill-opacity="1" /><path clip-path="url(#clip390)" d="M36.4725 400.859 L36.4725 395.975 L42.3521 395.975 L42.3521 400.859 L36.4725 400.859 Z" fill="#000000" fill-rule="nonzero" fill-opacity="1" /><path clip-path="url(#clip390)" d="M10.8708 375.79 Q10.8708 379.401 14.4356 381.229 Q17.9773 383.035 25.1068 383.035 Q32.2133 383.035 35.7781 381.229 Q39.3197 379.401 39.3197 375.79 Q39.3197 372.155 35.7781 370.35 Q32.2133 368.521 25.1068 368.521 Q17.9773 368.521 14.4356 370.35 Q10.8708 372.155 10.8708 375.79 M7.16713 375.79 Q7.16713 369.98 11.7736 366.924 Q16.3569 363.845 25.1068 363.845 Q33.8337 363.845 38.4401 366.924 Q43.0234 369.98 43.0234 375.79 Q43.0234 381.6 38.4401 384.679 Q33.8337 387.734 25.1068 387.734 Q16.3569 387.734 11.7736 384.679 Q7.16713 381.6 7.16713 375.79 Z" fill="#000000" fill-rule="nonzero" fill-opacity="1" /><path clip-path="url(#clip390)" d="M7.79213 355.581 L7.79213 337.225 L11.7273 337.225 L11.7273 351.299 L20.1995 351.299 Q19.8522 350.281 19.6902 349.262 Q19.505 348.244 19.505 347.225 Q19.505 341.438 22.6763 338.058 Q25.8476 334.679 31.2642 334.679 Q36.8429 334.679 39.9447 338.151 Q43.0234 341.623 43.0234 347.943 Q43.0234 350.119 42.6531 352.387 Q42.2827 354.632 41.5419 357.04 L36.8429 357.04 Q37.9771 354.956 38.5327 352.734 Q39.0883 350.512 39.0883 348.035 Q39.0883 344.031 36.9818 341.693 Q34.8753 339.355 31.2642 339.355 Q27.6531 339.355 25.5467 341.693 Q23.4402 344.031 23.4402 348.035 Q23.4402 349.91 23.8569 351.785 Q24.2735 353.637 25.1531 355.581 L7.79213 355.581 Z" fill="#000000" fill-rule="nonzero" fill-opacity="1" /><path clip-path="url(#clip390)" d="M10.8708 194.162 Q10.8708 197.774 14.4356 199.602 Q17.9773 201.408 25.1068 201.408 Q32.2133 201.408 35.7781 199.602 Q39.3197 197.774 39.3197 194.162 Q39.3197 190.528 35.7781 188.723 Q32.2133 186.894 25.1068 186.894 Q17.9773 186.894 14.4356 188.723 Q10.8708 190.528 10.8708 194.162 M7.16713 194.162 Q7.16713 188.352 11.7736 185.297 Q16.3569 182.218 25.1068 182.218 Q33.8337 182.218 38.4401 185.297 Q43.0234 188.352 43.0234 194.162 Q43.0234 199.973 38.4401 203.051 Q33.8337 206.107 25.1068 206.107 Q16.3569 206.107 11.7736 203.051 Q7.16713 199.973 7.16713 194.162 Z" fill="#000000" fill-rule="nonzero" fill-opacity="1" /><path clip-path="url(#clip390)" d="M36.4725 174.001 L36.4725 169.116 L42.3521 169.116 L42.3521 174.001 L36.4725 174.001 Z" fill="#000000" fill-rule="nonzero" fill-opacity="1" /><path clip-path="url(#clip390)" d="M10.8708 148.931 Q10.8708 152.542 14.4356 154.371 Q17.9773 156.177 25.1068 156.177 Q32.2133 156.177 35.7781 154.371 Q39.3197 152.542 39.3197 148.931 Q39.3197 145.297 35.7781 143.491 Q32.2133 141.663 25.1068 141.663 Q17.9773 141.663 14.4356 143.491 Q10.8708 145.297 10.8708 148.931 M7.16713 148.931 Q7.16713 143.121 11.7736 140.066 Q16.3569 136.987 25.1068 136.987 Q33.8337 136.987 38.4401 140.066 Q43.0234 143.121 43.0234 148.931 Q43.0234 154.741 38.4401 157.82 Q33.8337 160.876 25.1068 160.876 Q16.3569 160.876 11.7736 157.82 Q7.16713 154.741 7.16713 148.931 Z" fill="#000000" fill-rule="nonzero" fill-opacity="1" /><path clip-path="url(#clip390)" d="M23.2087 118.191 Q23.2087 121.339 25.3615 123.191 Q27.5142 125.019 31.2642 125.019 Q34.9911 125.019 37.167 123.191 Q39.3197 121.339 39.3197 118.191 Q39.3197 115.042 37.167 113.214 Q34.9911 111.362 31.2642 111.362 Q27.5142 111.362 25.3615 113.214 Q23.2087 115.042 23.2087 118.191 M8.55601 108.908 L12.8152 108.908 Q11.9819 110.668 11.5421 112.473 Q11.1023 114.255 11.1023 116.015 Q11.1023 120.644 14.2273 123.098 Q17.3523 125.529 23.6717 125.876 Q21.6578 124.51 20.593 122.45 Q19.505 120.39 19.505 117.913 Q19.505 112.705 22.6763 109.695 Q25.8244 106.663 31.2642 106.663 Q36.5883 106.663 39.8058 109.811 Q43.0234 112.959 43.0234 118.191 Q43.0234 124.186 38.4401 127.357 Q33.8337 130.529 25.1068 130.529 Q16.9124 130.529 12.0514 126.64 Q7.16713 122.751 7.16713 116.2 Q7.16713 114.441 7.51435 112.658 Q7.86157 110.853 8.55601 108.908 Z" fill="#000000" fill-rule="nonzero" fill-opacity="1" /><path clip-path="url(#clip392)" d="M211.613 1521.01 L211.613 1521.01 L227.617 1521.01 L227.617 1521.01 L211.613 1521.01 L211.613 1521.01  Z" fill="#009af9" fill-rule="evenodd" fill-opacity="1"/>
<polyline clip-path="url(#clip392)" style="stroke:#000000; stroke-linecap:round; stroke-linejoin:round; stroke-width:4; stroke-opacity:1; fill:none" points="211.613,1521.01 211.613,1521.01 227.617,1521.01 227.617,1521.01 211.613,1521.01 "/>
<path clip-path="url(#clip392)" d="M231.618 1521.01 L231.618 1521.01 L247.622 1521.01 L247.622 1521.01 L231.618 1521.01 L231.618 1521.01  Z" fill="#009af9" fill-rule="evenodd" fill-opacity="1"/>
<polyline clip-path="url(#clip392)" style="stroke:#000000; stroke-linecap:round; stroke-linejoin:round; stroke-width:4; stroke-opacity:1; fill:none" points="231.618,1521.01 231.618,1521.01 247.622,1521.01 247.622,1521.01 231.618,1521.01 "/>
<path clip-path="url(#clip392)" d="M251.624 1521.01 L251.624 1521.01 L267.628 1521.01 L267.628 1521.01 L251.624 1521.01 L251.624 1521.01  Z" fill="#009af9" fill-rule="evenodd" fill-opacity="1"/>
<polyline clip-path="url(#clip392)" style="stroke:#000000; stroke-linecap:round; stroke-linejoin:round; stroke-width:4; stroke-opacity:1; fill:none" points="251.624,1521.01 251.624,1521.01 267.628,1521.01 267.628,1521.01 251.624,1521.01 "/>
<path clip-path="url(#clip392)" d="M271.629 1521.01 L271.629 1521.01 L287.633 1521.01 L287.633 1521.01 L271.629 1521.01 L271.629 1521.01  Z" fill="#009af9" fill-rule="evenodd" fill-opacity="1"/>
<polyline clip-path="url(#clip392)" style="stroke:#000000; stroke-linecap:round; stroke-linejoin:round; stroke-width:4; stroke-opacity:1; fill:none" points="271.629,1521.01 271.629,1521.01 287.633,1521.01 287.633,1521.01 271.629,1521.01 "/>
<path clip-path="url(#clip392)" d="M291.634 1521.01 L291.634 1521.01 L307.638 1521.01 L307.638 1521.01 L291.634 1521.01 L291.634 1521.01  Z" fill="#009af9" fill-rule="evenodd" fill-opacity="1"/>
<polyline clip-path="url(#clip392)" style="stroke:#000000; stroke-linecap:round; stroke-linejoin:round; stroke-width:4; stroke-opacity:1; fill:none" points="291.634,1521.01 291.634,1521.01 307.638,1521.01 307.638,1521.01 291.634,1521.01 "/>
<path clip-path="url(#clip392)" d="M311.639 1521.01 L311.639 1521.01 L327.643 1521.01 L327.643 1521.01 L311.639 1521.01 L311.639 1521.01  Z" fill="#009af9" fill-rule="evenodd" fill-opacity="1"/>
<polyline clip-path="url(#clip392)" style="stroke:#000000; stroke-linecap:round; stroke-linejoin:round; stroke-width:4; stroke-opacity:1; fill:none" points="311.639,1521.01 311.639,1521.01 327.643,1521.01 327.643,1521.01 311.639,1521.01 "/>
<path clip-path="url(#clip392)" d="M331.644 1521.01 L331.644 1521.01 L347.648 1521.01 L347.648 1521.01 L331.644 1521.01 L331.644 1521.01  Z" fill="#009af9" fill-rule="evenodd" fill-opacity="1"/>
<polyline clip-path="url(#clip392)" style="stroke:#000000; stroke-linecap:round; stroke-linejoin:round; stroke-width:4; stroke-opacity:1; fill:none" points="331.644,1521.01 331.644,1521.01 347.648,1521.01 347.648,1521.01 331.644,1521.01 "/>
<path clip-path="url(#clip392)" d="M351.649 1521.01 L351.649 1521.01 L367.654 1521.01 L367.654 1521.01 L351.649 1521.01 L351.649 1521.01  Z" fill="#009af9" fill-rule="evenodd" fill-opacity="1"/>
<polyline clip-path="url(#clip392)" style="stroke:#000000; stroke-linecap:round; stroke-linejoin:round; stroke-width:4; stroke-opacity:1; fill:none" points="351.649,1521.01 351.649,1521.01 367.654,1521.01 367.654,1521.01 351.649,1521.01 "/>
<path clip-path="url(#clip392)" d="M371.655 1521 L371.655 1521.01 L387.659 1521.01 L387.659 1521 L371.655 1521 L371.655 1521  Z" fill="#009af9" fill-rule="evenodd" fill-opacity="1"/>
<polyline clip-path="url(#clip392)" style="stroke:#000000; stroke-linecap:round; stroke-linejoin:round; stroke-width:4; stroke-opacity:1; fill:none" points="371.655,1521 371.655,1521.01 387.659,1521.01 387.659,1521 371.655,1521 "/>
<path clip-path="url(#clip392)" d="M391.66 1520.98 L391.66 1521.01 L407.664 1521.01 L407.664 1520.98 L391.66 1520.98 L391.66 1520.98  Z" fill="#009af9" fill-rule="evenodd" fill-opacity="1"/>
<polyline clip-path="url(#clip392)" style="stroke:#000000; stroke-linecap:round; stroke-linejoin:round; stroke-width:4; stroke-opacity:1; fill:none" points="391.66,1520.98 391.66,1521.01 407.664,1521.01 407.664,1520.98 391.66,1520.98 "/>
<path clip-path="url(#clip392)" d="M411.665 1520.91 L411.665 1521.01 L427.669 1521.01 L427.669 1520.91 L411.665 1520.91 L411.665 1520.91  Z" fill="#009af9" fill-rule="evenodd" fill-opacity="1"/>
<polyline clip-path="url(#clip392)" style="stroke:#000000; stroke-linecap:round; stroke-linejoin:round; stroke-width:4; stroke-opacity:1; fill:none" points="411.665,1520.91 411.665,1521.01 427.669,1521.01 427.669,1520.91 411.665,1520.91 "/>
<path clip-path="url(#clip392)" d="M431.67 1520.75 L431.67 1521.01 L447.674 1521.01 L447.674 1520.75 L431.67 1520.75 L431.67 1520.75  Z" fill="#009af9" fill-rule="evenodd" fill-opacity="1"/>
<polyline clip-path="url(#clip392)" style="stroke:#000000; stroke-linecap:round; stroke-linejoin:round; stroke-width:4; stroke-opacity:1; fill:none" points="431.67,1520.75 431.67,1521.01 447.674,1521.01 447.674,1520.75 431.67,1520.75 "/>
<path clip-path="url(#clip392)" d="M451.675 1520.34 L451.675 1521.01 L467.679 1521.01 L467.679 1520.34 L451.675 1520.34 L451.675 1520.34  Z" fill="#009af9" fill-rule="evenodd" fill-opacity="1"/>
<polyline clip-path="url(#clip392)" style="stroke:#000000; stroke-linecap:round; stroke-linejoin:round; stroke-width:4; stroke-opacity:1; fill:none" points="451.675,1520.34 451.675,1521.01 467.679,1521.01 467.679,1520.34 451.675,1520.34 "/>
<path clip-path="url(#clip392)" d="M471.68 1519.42 L471.68 1521.01 L487.685 1521.01 L487.685 1519.42 L471.68 1519.42 L471.68 1519.42  Z" fill="#009af9" fill-rule="evenodd" fill-opacity="1"/>
<polyline clip-path="url(#clip392)" style="stroke:#000000; stroke-linecap:round; stroke-linejoin:round; stroke-width:4; stroke-opacity:1; fill:none" points="471.68,1519.42 471.68,1521.01 487.685,1521.01 487.685,1519.42 471.68,1519.42 "/>
<path clip-path="url(#clip392)" d="M491.686 1517.51 L491.686 1521.01 L507.69 1521.01 L507.69 1517.51 L491.686 1517.51 L491.686 1517.51  Z" fill="#009af9" fill-rule="evenodd" fill-opacity="1"/>
<polyline clip-path="url(#clip392)" style="stroke:#000000; stroke-linecap:round; stroke-linejoin:round; stroke-width:4; stroke-opacity:1; fill:none" points="491.686,1517.51 491.686,1521.01 507.69,1521.01 507.69,1517.51 491.686,1517.51 "/>
<path clip-path="url(#clip392)" d="M511.691 1513.79 L511.691 1521.01 L527.695 1521.01 L527.695 1513.79 L511.691 1513.79 L511.691 1513.79  Z" fill="#009af9" fill-rule="evenodd" fill-opacity="1"/>
<polyline clip-path="url(#clip392)" style="stroke:#000000; stroke-linecap:round; stroke-linejoin:round; stroke-width:4; stroke-opacity:1; fill:none" points="511.691,1513.79 511.691,1521.01 527.695,1521.01 527.695,1513.79 511.691,1513.79 "/>
<path clip-path="url(#clip392)" d="M531.696 1506.96 L531.696 1521.01 L547.7 1521.01 L547.7 1506.96 L531.696 1506.96 L531.696 1506.96  Z" fill="#009af9" fill-rule="evenodd" fill-opacity="1"/>
<polyline clip-path="url(#clip392)" style="stroke:#000000; stroke-linecap:round; stroke-linejoin:round; stroke-width:4; stroke-opacity:1; fill:none" points="531.696,1506.96 531.696,1521.01 547.7,1521.01 547.7,1506.96 531.696,1506.96 "/>
<path clip-path="url(#clip392)" d="M551.701 1495.19 L551.701 1521.01 L567.705 1521.01 L567.705 1495.19 L551.701 1495.19 L551.701 1495.19  Z" fill="#009af9" fill-rule="evenodd" fill-opacity="1"/>
<polyline clip-path="url(#clip392)" style="stroke:#000000; stroke-linecap:round; stroke-linejoin:round; stroke-width:4; stroke-opacity:1; fill:none" points="551.701,1495.19 551.701,1521.01 567.705,1521.01 567.705,1495.19 551.701,1495.19 "/>
<path clip-path="url(#clip392)" d="M571.706 1476.01 L571.706 1521.01 L587.71 1521.01 L587.71 1476.01 L571.706 1476.01 L571.706 1476.01  Z" fill="#009af9" fill-rule="evenodd" fill-opacity="1"/>
<polyline clip-path="url(#clip392)" style="stroke:#000000; stroke-linecap:round; stroke-linejoin:round; stroke-width:4; stroke-opacity:1; fill:none" points="571.706,1476.01 571.706,1521.01 587.71,1521.01 587.71,1476.01 571.706,1476.01 "/>
<path clip-path="url(#clip392)" d="M591.712 1446.43 L591.712 1521.01 L607.716 1521.01 L607.716 1446.43 L591.712 1446.43 L591.712 1446.43  Z" fill="#009af9" fill-rule="evenodd" fill-opacity="1"/>
<polyline clip-path="url(#clip392)" style="stroke:#000000; stroke-linecap:round; stroke-linejoin:round; stroke-width:4; stroke-opacity:1; fill:none" points="591.712,1446.43 591.712,1521.01 607.716,1521.01 607.716,1446.43 591.712,1446.43 "/>
<path clip-path="url(#clip392)" d="M611.717 1403.11 L611.717 1521.01 L627.721 1521.01 L627.721 1403.11 L611.717 1403.11 L611.717 1403.11  Z" fill="#009af9" fill-rule="evenodd" fill-opacity="1"/>
<polyline clip-path="url(#clip392)" style="stroke:#000000; stroke-linecap:round; stroke-linejoin:round; stroke-width:4; stroke-opacity:1; fill:none" points="611.717,1403.11 611.717,1521.01 627.721,1521.01 627.721,1403.11 611.717,1403.11 "/>
<path clip-path="url(#clip392)" d="M631.722 1342.83 L631.722 1521.01 L647.726 1521.01 L647.726 1342.83 L631.722 1342.83 L631.722 1342.83  Z" fill="#009af9" fill-rule="evenodd" fill-opacity="1"/>
<polyline clip-path="url(#clip392)" style="stroke:#000000; stroke-linecap:round; stroke-linejoin:round; stroke-width:4; stroke-opacity:1; fill:none" points="631.722,1342.83 631.722,1521.01 647.726,1521.01 647.726,1342.83 631.722,1342.83 "/>
<path clip-path="url(#clip392)" d="M651.727 1262.97 L651.727 1521.01 L667.731 1521.01 L667.731 1262.97 L651.727 1262.97 L651.727 1262.97  Z" fill="#009af9" fill-rule="evenodd" fill-opacity="1"/>
<polyline clip-path="url(#clip392)" style="stroke:#000000; stroke-linecap:round; stroke-linejoin:round; stroke-width:4; stroke-opacity:1; fill:none" points="651.727,1262.97 651.727,1521.01 667.731,1521.01 667.731,1262.97 651.727,1262.97 "/>
<path clip-path="url(#clip392)" d="M671.732 1162.19 L671.732 1521.01 L687.736 1521.01 L687.736 1162.19 L671.732 1162.19 L671.732 1162.19  Z" fill="#009af9" fill-rule="evenodd" fill-opacity="1"/>
<polyline clip-path="url(#clip392)" style="stroke:#000000; stroke-linecap:round; stroke-linejoin:round; stroke-width:4; stroke-opacity:1; fill:none" points="671.732,1162.19 671.732,1521.01 687.736,1521.01 687.736,1162.19 671.732,1162.19 "/>
<path clip-path="url(#clip392)" d="M691.737 1040.99 L691.737 1521.01 L707.742 1521.01 L707.742 1040.99 L691.737 1040.99 L691.737 1040.99  Z" fill="#009af9" fill-rule="evenodd" fill-opacity="1"/>
<polyline clip-path="url(#clip392)" style="stroke:#000000; stroke-linecap:round; stroke-linejoin:round; stroke-width:4; stroke-opacity:1; fill:none" points="691.737,1040.99 691.737,1521.01 707.742,1521.01 707.742,1040.99 691.737,1040.99 "/>
<path clip-path="url(#clip392)" d="M711.743 902.187 L711.743 1521.01 L727.747 1521.01 L727.747 902.187 L711.743 902.187 L711.743 902.187  Z" fill="#009af9" fill-rule="evenodd" fill-opacity="1"/>
<polyline clip-path="url(#clip392)" style="stroke:#000000; stroke-linecap:round; stroke-linejoin:round; stroke-width:4; stroke-opacity:1; fill:none" points="711.743,902.187 711.743,1521.01 727.747,1521.01 727.747,902.187 711.743,902.187 "/>
<path clip-path="url(#clip392)" d="M731.748 751.01 L731.748 1521.01 L747.752 1521.01 L747.752 751.01 L731.748 751.01 L731.748 751.01  Z" fill="#009af9" fill-rule="evenodd" fill-opacity="1"/>
<polyline clip-path="url(#clip392)" style="stroke:#000000; stroke-linecap:round; stroke-linejoin:round; stroke-width:4; stroke-opacity:1; fill:none" points="731.748,751.01 731.748,1521.01 747.752,1521.01 747.752,751.01 731.748,751.01 "/>
<path clip-path="url(#clip392)" d="M751.753 594.884 L751.753 1521.01 L767.757 1521.01 L767.757 594.884 L751.753 594.884 L751.753 594.884  Z" fill="#009af9" fill-rule="evenodd" fill-opacity="1"/>
<polyline clip-path="url(#clip392)" style="stroke:#000000; stroke-linecap:round; stroke-linejoin:round; stroke-width:4; stroke-opacity:1; fill:none" points="751.753,594.884 751.753,1521.01 767.757,1521.01 767.757,594.884 751.753,594.884 "/>
<path clip-path="url(#clip392)" d="M771.758 442.823 L771.758 1521.01 L787.762 1521.01 L787.762 442.823 L771.758 442.823 L771.758 442.823  Z" fill="#009af9" fill-rule="evenodd" fill-opacity="1"/>
<polyline clip-path="url(#clip392)" style="stroke:#000000; stroke-linecap:round; stroke-linejoin:round; stroke-width:4; stroke-opacity:1; fill:none" points="771.758,442.823 771.758,1521.01 787.762,1521.01 787.762,442.823 771.758,442.823 "/>
<path clip-path="url(#clip392)" d="M791.763 304.513 L791.763 1521.01 L807.767 1521.01 L807.767 304.513 L791.763 304.513 L791.763 304.513  Z" fill="#009af9" fill-rule="evenodd" fill-opacity="1"/>
<polyline clip-path="url(#clip392)" style="stroke:#000000; stroke-linecap:round; stroke-linejoin:round; stroke-width:4; stroke-opacity:1; fill:none" points="791.763,304.513 791.763,1521.01 807.767,1521.01 807.767,304.513 791.763,304.513 "/>
<path clip-path="url(#clip392)" d="M811.768 189.235 L811.768 1521.01 L827.773 1521.01 L827.773 189.235 L811.768 189.235 L811.768 189.235  Z" fill="#009af9" fill-rule="evenodd" fill-opacity="1"/>
<polyline clip-path="url(#clip392)" style="stroke:#000000; stroke-linecap:round; stroke-linejoin:round; stroke-width:4; stroke-opacity:1; fill:none" points="811.768,189.235 811.768,1521.01 827.773,1521.01 827.773,189.235 811.768,189.235 "/>
<path clip-path="url(#clip392)" d="M831.774 104.789 L831.774 1521.01 L847.778 1521.01 L847.778 104.789 L831.774 104.789 L831.774 104.789  Z" fill="#009af9" fill-rule="evenodd" fill-opacity="1"/>
<polyline clip-path="url(#clip392)" style="stroke:#000000; stroke-linecap:round; stroke-linejoin:round; stroke-width:4; stroke-opacity:1; fill:none" points="831.774,104.789 831.774,1521.01 847.778,1521.01 847.778,104.789 831.774,104.789 "/>
<path clip-path="url(#clip392)" d="M851.779 56.6173 L851.779 1521.01 L867.783 1521.01 L867.783 56.6173 L851.779 56.6173 L851.779 56.6173  Z" fill="#009af9" fill-rule="evenodd" fill-opacity="1"/>
<polyline clip-path="url(#clip392)" style="stroke:#000000; stroke-linecap:round; stroke-linejoin:round; stroke-width:4; stroke-opacity:1; fill:none" points="851.779,56.6173 851.779,1521.01 867.783,1521.01 867.783,56.6173 851.779,56.6173 "/>
<path clip-path="url(#clip392)" d="M871.784 47.2441 L871.784 1521.01 L887.788 1521.01 L887.788 47.2441 L871.784 47.2441 L871.784 47.2441  Z" fill="#009af9" fill-rule="evenodd" fill-opacity="1"/>
<polyline clip-path="url(#clip392)" style="stroke:#000000; stroke-linecap:round; stroke-linejoin:round; stroke-width:4; stroke-opacity:1; fill:none" points="871.784,47.2441 871.784,1521.01 887.788,1521.01 887.788,47.2441 871.784,47.2441 "/>
<path clip-path="url(#clip392)" d="M891.789 76.1125 L891.789 1521.01 L907.793 1521.01 L907.793 76.1125 L891.789 76.1125 L891.789 76.1125  Z" fill="#009af9" fill-rule="evenodd" fill-opacity="1"/>
<polyline clip-path="url(#clip392)" style="stroke:#000000; stroke-linecap:round; stroke-linejoin:round; stroke-width:4; stroke-opacity:1; fill:none" points="891.789,76.1125 891.789,1521.01 907.793,1521.01 907.793,76.1125 891.789,76.1125 "/>
<path clip-path="url(#clip392)" d="M911.794 139.821 L911.794 1521.01 L927.798 1521.01 L927.798 139.821 L911.794 139.821 L911.794 139.821  Z" fill="#009af9" fill-rule="evenodd" fill-opacity="1"/>
<polyline clip-path="url(#clip392)" style="stroke:#000000; stroke-linecap:round; stroke-linejoin:round; stroke-width:4; stroke-opacity:1; fill:none" points="911.794,139.821 911.794,1521.01 927.798,1521.01 927.798,139.821 911.794,139.821 "/>
<path clip-path="url(#clip392)" d="M931.799 232.684 L931.799 1521.01 L947.804 1521.01 L947.804 232.684 L931.799 232.684 L931.799 232.684  Z" fill="#009af9" fill-rule="evenodd" fill-opacity="1"/>
<polyline clip-path="url(#clip392)" style="stroke:#000000; stroke-linecap:round; stroke-linejoin:round; stroke-width:4; stroke-opacity:1; fill:none" points="931.799,232.684 931.799,1521.01 947.804,1521.01 947.804,232.684 931.799,232.684 "/>
<path clip-path="url(#clip392)" d="M951.805 347.508 L951.805 1521.01 L967.809 1521.01 L967.809 347.508 L951.805 347.508 L951.805 347.508  Z" fill="#009af9" fill-rule="evenodd" fill-opacity="1"/>
<polyline clip-path="url(#clip392)" style="stroke:#000000; stroke-linecap:round; stroke-linejoin:round; stroke-width:4; stroke-opacity:1; fill:none" points="951.805,347.508 951.805,1521.01 967.809,1521.01 967.809,347.508 951.805,347.508 "/>
<path clip-path="url(#clip392)" d="M971.81 476.435 L971.81 1521.01 L987.814 1521.01 L987.814 476.435 L971.81 476.435 L971.81 476.435  Z" fill="#009af9" fill-rule="evenodd" fill-opacity="1"/>
<polyline clip-path="url(#clip392)" style="stroke:#000000; stroke-linecap:round; stroke-linejoin:round; stroke-width:4; stroke-opacity:1; fill:none" points="971.81,476.435 971.81,1521.01 987.814,1521.01 987.814,476.435 971.81,476.435 "/>
<path clip-path="url(#clip392)" d="M991.815 611.75 L991.815 1521.01 L1007.82 1521.01 L1007.82 611.75 L991.815 611.75 L991.815 611.75  Z" fill="#009af9" fill-rule="evenodd" fill-opacity="1"/>
<polyline clip-path="url(#clip392)" style="stroke:#000000; stroke-linecap:round; stroke-linejoin:round; stroke-width:4; stroke-opacity:1; fill:none" points="991.815,611.75 991.815,1521.01 1007.82,1521.01 1007.82,611.75 991.815,611.75 "/>
<path clip-path="url(#clip392)" d="M1011.82 746.533 L1011.82 1521.01 L1027.82 1521.01 L1027.82 746.533 L1011.82 746.533 L1011.82 746.533  Z" fill="#009af9" fill-rule="evenodd" fill-opacity="1"/>
<polyline clip-path="url(#clip392)" style="stroke:#000000; stroke-linecap:round; stroke-linejoin:round; stroke-width:4; stroke-opacity:1; fill:none" points="1011.82,746.533 1011.82,1521.01 1027.82,1521.01 1027.82,746.533 1011.82,746.533 "/>
<path clip-path="url(#clip392)" d="M1031.83 875.106 L1031.83 1521.01 L1047.83 1521.01 L1047.83 875.106 L1031.83 875.106 L1031.83 875.106  Z" fill="#009af9" fill-rule="evenodd" fill-opacity="1"/>
<polyline clip-path="url(#clip392)" style="stroke:#000000; stroke-linecap:round; stroke-linejoin:round; stroke-width:4; stroke-opacity:1; fill:none" points="1031.83,875.106 1031.83,1521.01 1047.83,1521.01 1047.83,875.106 1031.83,875.106 "/>
<path clip-path="url(#clip392)" d="M1051.83 993.272 L1051.83 1521.01 L1067.83 1521.01 L1067.83 993.272 L1051.83 993.272 L1051.83 993.272  Z" fill="#009af9" fill-rule="evenodd" fill-opacity="1"/>
<polyline clip-path="url(#clip392)" style="stroke:#000000; stroke-linecap:round; stroke-linejoin:round; stroke-width:4; stroke-opacity:1; fill:none" points="1051.83,993.272 1051.83,1521.01 1067.83,1521.01 1067.83,993.272 1051.83,993.272 "/>
<path clip-path="url(#clip392)" d="M1071.84 1098.34 L1071.84 1521.01 L1087.84 1521.01 L1087.84 1098.34 L1071.84 1098.34 L1071.84 1098.34  Z" fill="#009af9" fill-rule="evenodd" fill-opacity="1"/>
<polyline clip-path="url(#clip392)" style="stroke:#000000; stroke-linecap:round; stroke-linejoin:round; stroke-width:4; stroke-opacity:1; fill:none" points="1071.84,1098.34 1071.84,1521.01 1087.84,1521.01 1087.84,1098.34 1071.84,1098.34 "/>
<path clip-path="url(#clip392)" d="M1091.84 1189 L1091.84 1521.01 L1107.85 1521.01 L1107.85 1189 L1091.84 1189 L1091.84 1189  Z" fill="#009af9" fill-rule="evenodd" fill-opacity="1"/>
<polyline clip-path="url(#clip392)" style="stroke:#000000; stroke-linecap:round; stroke-linejoin:round; stroke-width:4; stroke-opacity:1; fill:none" points="1091.84,1189 1091.84,1521.01 1107.85,1521.01 1107.85,1189 1091.84,1189 "/>
<path clip-path="url(#clip392)" d="M1111.85 1265.11 L1111.85 1521.01 L1127.85 1521.01 L1127.85 1265.11 L1111.85 1265.11 L1111.85 1265.11  Z" fill="#009af9" fill-rule="evenodd" fill-opacity="1"/>
<polyline clip-path="url(#clip392)" style="stroke:#000000; stroke-linecap:round; stroke-linejoin:round; stroke-width:4; stroke-opacity:1; fill:none" points="1111.85,1265.11 1111.85,1521.01 1127.85,1521.01 1127.85,1265.11 1111.85,1265.11 "/>
<path clip-path="url(#clip392)" d="M1131.85 1327.38 L1131.85 1521.01 L1147.86 1521.01 L1147.86 1327.38 L1131.85 1327.38 L1131.85 1327.38  Z" fill="#009af9" fill-rule="evenodd" fill-opacity="1"/>
<polyline clip-path="url(#clip392)" style="stroke:#000000; stroke-linecap:round; stroke-linejoin:round; stroke-width:4; stroke-opacity:1; fill:none" points="1131.85,1327.38 1131.85,1521.01 1147.86,1521.01 1147.86,1327.38 1131.85,1327.38 "/>
<path clip-path="url(#clip392)" d="M1151.86 1377.1 L1151.86 1521.01 L1167.86 1521.01 L1167.86 1377.1 L1151.86 1377.1 L1151.86 1377.1  Z" fill="#009af9" fill-rule="evenodd" fill-opacity="1"/>
<polyline clip-path="url(#clip392)" style="stroke:#000000; stroke-linecap:round; stroke-linejoin:round; stroke-width:4; stroke-opacity:1; fill:none" points="1151.86,1377.1 1151.86,1521.01 1167.86,1521.01 1167.86,1377.1 1151.86,1377.1 "/>
<path clip-path="url(#clip392)" d="M1171.86 1415.92 L1171.86 1521.01 L1187.87 1521.01 L1187.87 1415.92 L1171.86 1415.92 L1171.86 1415.92  Z" fill="#009af9" fill-rule="evenodd" fill-opacity="1"/>
<polyline clip-path="url(#clip392)" style="stroke:#000000; stroke-linecap:round; stroke-linejoin:round; stroke-width:4; stroke-opacity:1; fill:none" points="1171.86,1415.92 1171.86,1521.01 1187.87,1521.01 1187.87,1415.92 1171.86,1415.92 "/>
<path clip-path="url(#clip392)" d="M1191.87 1445.57 L1191.87 1521.01 L1207.87 1521.01 L1207.87 1445.57 L1191.87 1445.57 L1191.87 1445.57  Z" fill="#009af9" fill-rule="evenodd" fill-opacity="1"/>
<polyline clip-path="url(#clip392)" style="stroke:#000000; stroke-linecap:round; stroke-linejoin:round; stroke-width:4; stroke-opacity:1; fill:none" points="1191.87,1445.57 1191.87,1521.01 1207.87,1521.01 1207.87,1445.57 1191.87,1445.57 "/>
<path clip-path="url(#clip392)" d="M1211.87 1467.75 L1211.87 1521.01 L1227.88 1521.01 L1227.88 1467.75 L1211.87 1467.75 L1211.87 1467.75  Z" fill="#009af9" fill-rule="evenodd" fill-opacity="1"/>
<polyline clip-path="url(#clip392)" style="stroke:#000000; stroke-linecap:round; stroke-linejoin:round; stroke-width:4; stroke-opacity:1; fill:none" points="1211.87,1467.75 1211.87,1521.01 1227.88,1521.01 1227.88,1467.75 1211.87,1467.75 "/>
<path clip-path="url(#clip392)" d="M1231.88 1484.02 L1231.88 1521.01 L1247.88 1521.01 L1247.88 1484.02 L1231.88 1484.02 L1231.88 1484.02  Z" fill="#009af9" fill-rule="evenodd" fill-opacity="1"/>
<polyline clip-path="url(#clip392)" style="stroke:#000000; stroke-linecap:round; stroke-linejoin:round; stroke-width:4; stroke-opacity:1; fill:none" points="1231.88,1484.02 1231.88,1521.01 1247.88,1521.01 1247.88,1484.02 1231.88,1484.02 "/>
<path clip-path="url(#clip392)" d="M1251.88 1495.72 L1251.88 1521.01 L1267.89 1521.01 L1267.89 1495.72 L1251.88 1495.72 L1251.88 1495.72  Z" fill="#009af9" fill-rule="evenodd" fill-opacity="1"/>
<polyline clip-path="url(#clip392)" style="stroke:#000000; stroke-linecap:round; stroke-linejoin:round; stroke-width:4; stroke-opacity:1; fill:none" points="1251.88,1495.72 1251.88,1521.01 1267.89,1521.01 1267.89,1495.72 1251.88,1495.72 "/>
<path clip-path="url(#clip392)" d="M1271.89 1503.99 L1271.89 1521.01 L1287.89 1521.01 L1287.89 1503.99 L1271.89 1503.99 L1271.89 1503.99  Z" fill="#009af9" fill-rule="evenodd" fill-opacity="1"/>
<polyline clip-path="url(#clip392)" style="stroke:#000000; stroke-linecap:round; stroke-linejoin:round; stroke-width:4; stroke-opacity:1; fill:none" points="1271.89,1503.99 1271.89,1521.01 1287.89,1521.01 1287.89,1503.99 1271.89,1503.99 "/>
<path clip-path="url(#clip392)" d="M1291.89 1509.73 L1291.89 1521.01 L1307.9 1521.01 L1307.9 1509.73 L1291.89 1509.73 L1291.89 1509.73  Z" fill="#009af9" fill-rule="evenodd" fill-opacity="1"/>
<polyline clip-path="url(#clip392)" style="stroke:#000000; stroke-linecap:round; stroke-linejoin:round; stroke-width:4; stroke-opacity:1; fill:none" points="1291.89,1509.73 1291.89,1521.01 1307.9,1521.01 1307.9,1509.73 1291.89,1509.73 "/>
<path clip-path="url(#clip392)" d="M1311.9 1513.64 L1311.9 1521.01 L1327.9 1521.01 L1327.9 1513.64 L1311.9 1513.64 L1311.9 1513.64  Z" fill="#009af9" fill-rule="evenodd" fill-opacity="1"/>
<polyline clip-path="url(#clip392)" style="stroke:#000000; stroke-linecap:round; stroke-linejoin:round; stroke-width:4; stroke-opacity:1; fill:none" points="1311.9,1513.64 1311.9,1521.01 1327.9,1521.01 1327.9,1513.64 1311.9,1513.64 "/>
<path clip-path="url(#clip392)" d="M1331.9 1516.27 L1331.9 1521.01 L1347.91 1521.01 L1347.91 1516.27 L1331.9 1516.27 L1331.9 1516.27  Z" fill="#009af9" fill-rule="evenodd" fill-opacity="1"/>
<polyline clip-path="url(#clip392)" style="stroke:#000000; stroke-linecap:round; stroke-linejoin:round; stroke-width:4; stroke-opacity:1; fill:none" points="1331.9,1516.27 1331.9,1521.01 1347.91,1521.01 1347.91,1516.27 1331.9,1516.27 "/>
<path clip-path="url(#clip392)" d="M1351.91 1518 L1351.91 1521.01 L1367.91 1521.01 L1367.91 1518 L1351.91 1518 L1351.91 1518  Z" fill="#009af9" fill-rule="evenodd" fill-opacity="1"/>
<polyline clip-path="url(#clip392)" style="stroke:#000000; stroke-linecap:round; stroke-linejoin:round; stroke-width:4; stroke-opacity:1; fill:none" points="1351.91,1518 1351.91,1521.01 1367.91,1521.01 1367.91,1518 1351.91,1518 "/>
<path clip-path="url(#clip392)" d="M1371.91 1519.13 L1371.91 1521.01 L1387.92 1521.01 L1387.92 1519.13 L1371.91 1519.13 L1371.91 1519.13  Z" fill="#009af9" fill-rule="evenodd" fill-opacity="1"/>
<polyline clip-path="url(#clip392)" style="stroke:#000000; stroke-linecap:round; stroke-linejoin:round; stroke-width:4; stroke-opacity:1; fill:none" points="1371.91,1519.13 1371.91,1521.01 1387.92,1521.01 1387.92,1519.13 1371.91,1519.13 "/>
<path clip-path="url(#clip392)" d="M1391.92 1519.85 L1391.92 1521.01 L1407.92 1521.01 L1407.92 1519.85 L1391.92 1519.85 L1391.92 1519.85  Z" fill="#009af9" fill-rule="evenodd" fill-opacity="1"/>
<polyline clip-path="url(#clip392)" style="stroke:#000000; stroke-linecap:round; stroke-linejoin:round; stroke-width:4; stroke-opacity:1; fill:none" points="1391.92,1519.85 1391.92,1521.01 1407.92,1521.01 1407.92,1519.85 1391.92,1519.85 "/>
<path clip-path="url(#clip392)" d="M1411.92 1520.3 L1411.92 1521.01 L1427.93 1521.01 L1427.93 1520.3 L1411.92 1520.3 L1411.92 1520.3  Z" fill="#009af9" fill-rule="evenodd" fill-opacity="1"/>
<polyline clip-path="url(#clip392)" style="stroke:#000000; stroke-linecap:round; stroke-linejoin:round; stroke-width:4; stroke-opacity:1; fill:none" points="1411.92,1520.3 1411.92,1521.01 1427.93,1521.01 1427.93,1520.3 1411.92,1520.3 "/>
<path clip-path="url(#clip392)" d="M1431.93 1520.58 L1431.93 1521.01 L1447.93 1521.01 L1447.93 1520.58 L1431.93 1520.58 L1431.93 1520.58  Z" fill="#009af9" fill-rule="evenodd" fill-opacity="1"/>
<polyline clip-path="url(#clip392)" style="stroke:#000000; stroke-linecap:round; stroke-linejoin:round; stroke-width:4; stroke-opacity:1; fill:none" points="1431.93,1520.58 1431.93,1521.01 1447.93,1521.01 1447.93,1520.58 1431.93,1520.58 "/>
<path clip-path="url(#clip392)" d="M1451.93 1520.76 L1451.93 1521.01 L1467.94 1521.01 L1467.94 1520.76 L1451.93 1520.76 L1451.93 1520.76  Z" fill="#009af9" fill-rule="evenodd" fill-opacity="1"/>
<polyline clip-path="url(#clip392)" style="stroke:#000000; stroke-linecap:round; stroke-linejoin:round; stroke-width:4; stroke-opacity:1; fill:none" points="1451.93,1520.76 1451.93,1521.01 1467.94,1521.01 1467.94,1520.76 1451.93,1520.76 "/>
<path clip-path="url(#clip392)" d="M1471.94 1520.86 L1471.94 1521.01 L1487.94 1521.01 L1487.94 1520.86 L1471.94 1520.86 L1471.94 1520.86  Z" fill="#009af9" fill-rule="evenodd" fill-opacity="1"/>
<polyline clip-path="url(#clip392)" style="stroke:#000000; stroke-linecap:round; stroke-linejoin:round; stroke-width:4; stroke-opacity:1; fill:none" points="1471.94,1520.86 1471.94,1521.01 1487.94,1521.01 1487.94,1520.86 1471.94,1520.86 "/>
<path clip-path="url(#clip392)" d="M1491.94 1520.92 L1491.94 1521.01 L1507.95 1521.01 L1507.95 1520.92 L1491.94 1520.92 L1491.94 1520.92  Z" fill="#009af9" fill-rule="evenodd" fill-opacity="1"/>
<polyline clip-path="url(#clip392)" style="stroke:#000000; stroke-linecap:round; stroke-linejoin:round; stroke-width:4; stroke-opacity:1; fill:none" points="1491.94,1520.92 1491.94,1521.01 1507.95,1521.01 1507.95,1520.92 1491.94,1520.92 "/>
<path clip-path="url(#clip392)" d="M1511.95 1520.96 L1511.95 1521.01 L1527.95 1521.01 L1527.95 1520.96 L1511.95 1520.96 L1511.95 1520.96  Z" fill="#009af9" fill-rule="evenodd" fill-opacity="1"/>
<polyline clip-path="url(#clip392)" style="stroke:#000000; stroke-linecap:round; stroke-linejoin:round; stroke-width:4; stroke-opacity:1; fill:none" points="1511.95,1520.96 1511.95,1521.01 1527.95,1521.01 1527.95,1520.96 1511.95,1520.96 "/>
<path clip-path="url(#clip392)" d="M1531.95 1520.98 L1531.95 1521.01 L1547.96 1521.01 L1547.96 1520.98 L1531.95 1520.98 L1531.95 1520.98  Z" fill="#009af9" fill-rule="evenodd" fill-opacity="1"/>
<polyline clip-path="url(#clip392)" style="stroke:#000000; stroke-linecap:round; stroke-linejoin:round; stroke-width:4; stroke-opacity:1; fill:none" points="1531.95,1520.98 1531.95,1521.01 1547.96,1521.01 1547.96,1520.98 1531.95,1520.98 "/>
<path clip-path="url(#clip392)" d="M1551.96 1520.99 L1551.96 1521.01 L1567.96 1521.01 L1567.96 1520.99 L1551.96 1520.99 L1551.96 1520.99  Z" fill="#009af9" fill-rule="evenodd" fill-opacity="1"/>
<polyline clip-path="url(#clip392)" style="stroke:#000000; stroke-linecap:round; stroke-linejoin:round; stroke-width:4; stroke-opacity:1; fill:none" points="1551.96,1520.99 1551.96,1521.01 1567.96,1521.01 1567.96,1520.99 1551.96,1520.99 "/>
<path clip-path="url(#clip392)" d="M1571.97 1521 L1571.97 1521.01 L1587.97 1521.01 L1587.97 1521 L1571.97 1521 L1571.97 1521  Z" fill="#009af9" fill-rule="evenodd" fill-opacity="1"/>
<polyline clip-path="url(#clip392)" style="stroke:#000000; stroke-linecap:round; stroke-linejoin:round; stroke-width:4; stroke-opacity:1; fill:none" points="1571.97,1521 1571.97,1521.01 1587.97,1521.01 1587.97,1521 1571.97,1521 "/>
<path clip-path="url(#clip392)" d="M1591.97 1521 L1591.97 1521.01 L1607.97 1521.01 L1607.97 1521 L1591.97 1521 L1591.97 1521  Z" fill="#009af9" fill-rule="evenodd" fill-opacity="1"/>
<polyline clip-path="url(#clip392)" style="stroke:#000000; stroke-linecap:round; stroke-linejoin:round; stroke-width:4; stroke-opacity:1; fill:none" points="1591.97,1521 1591.97,1521.01 1607.97,1521.01 1607.97,1521 1591.97,1521 "/>
<path clip-path="url(#clip392)" d="M1611.98 1521.01 L1611.98 1521.01 L1627.98 1521.01 L1627.98 1521.01 L1611.98 1521.01 L1611.98 1521.01  Z" fill="#009af9" fill-rule="evenodd" fill-opacity="1"/>
<polyline clip-path="url(#clip392)" style="stroke:#000000; stroke-linecap:round; stroke-linejoin:round; stroke-width:4; stroke-opacity:1; fill:none" points="1611.98,1521.01 1611.98,1521.01 1627.98,1521.01 1627.98,1521.01 1611.98,1521.01 "/>
<path clip-path="url(#clip392)" d="M1631.98 1521.01 L1631.98 1521.01 L1647.98 1521.01 L1647.98 1521.01 L1631.98 1521.01 L1631.98 1521.01  Z" fill="#009af9" fill-rule="evenodd" fill-opacity="1"/>
<polyline clip-path="url(#clip392)" style="stroke:#000000; stroke-linecap:round; stroke-linejoin:round; stroke-width:4; stroke-opacity:1; fill:none" points="1631.98,1521.01 1631.98,1521.01 1647.98,1521.01 1647.98,1521.01 1631.98,1521.01 "/>
<path clip-path="url(#clip392)" d="M1651.99 1521.01 L1651.99 1521.01 L1667.99 1521.01 L1667.99 1521.01 L1651.99 1521.01 L1651.99 1521.01  Z" fill="#009af9" fill-rule="evenodd" fill-opacity="1"/>
<polyline clip-path="url(#clip392)" style="stroke:#000000; stroke-linecap:round; stroke-linejoin:round; stroke-width:4; stroke-opacity:1; fill:none" points="1651.99,1521.01 1651.99,1521.01 1667.99,1521.01 1667.99,1521.01 1651.99,1521.01 "/>
<path clip-path="url(#clip392)" d="M1671.99 1521.01 L1671.99 1521.01 L1688 1521.01 L1688 1521.01 L1671.99 1521.01 L1671.99 1521.01  Z" fill="#009af9" fill-rule="evenodd" fill-opacity="1"/>
<polyline clip-path="url(#clip392)" style="stroke:#000000; stroke-linecap:round; stroke-linejoin:round; stroke-width:4; stroke-opacity:1; fill:none" points="1671.99,1521.01 1671.99,1521.01 1688,1521.01 1688,1521.01 1671.99,1521.01 "/>
<path clip-path="url(#clip392)" d="M1692 1521.01 L1692 1521.01 L1708 1521.01 L1708 1521.01 L1692 1521.01 L1692 1521.01  Z" fill="#009af9" fill-rule="evenodd" fill-opacity="1"/>
<polyline clip-path="url(#clip392)" style="stroke:#000000; stroke-linecap:round; stroke-linejoin:round; stroke-width:4; stroke-opacity:1; fill:none" points="1692,1521.01 1692,1521.01 1708,1521.01 1708,1521.01 1692,1521.01 "/>
<path clip-path="url(#clip392)" d="M1712 1521.01 L1712 1521.01 L1728.01 1521.01 L1728.01 1521.01 L1712 1521.01 L1712 1521.01  Z" fill="#009af9" fill-rule="evenodd" fill-opacity="1"/>
<polyline clip-path="url(#clip392)" style="stroke:#000000; stroke-linecap:round; stroke-linejoin:round; stroke-width:4; stroke-opacity:1; fill:none" points="1712,1521.01 1712,1521.01 1728.01,1521.01 1728.01,1521.01 1712,1521.01 "/>
<path clip-path="url(#clip392)" d="M1732.01 1521.01 L1732.01 1521.01 L1748.01 1521.01 L1748.01 1521.01 L1732.01 1521.01 L1732.01 1521.01  Z" fill="#009af9" fill-rule="evenodd" fill-opacity="1"/>
<polyline clip-path="url(#clip392)" style="stroke:#000000; stroke-linecap:round; stroke-linejoin:round; stroke-width:4; stroke-opacity:1; fill:none" points="1732.01,1521.01 1732.01,1521.01 1748.01,1521.01 1748.01,1521.01 1732.01,1521.01 "/>
<path clip-path="url(#clip392)" d="M1752.01 1521.01 L1752.01 1521.01 L1768.02 1521.01 L1768.02 1521.01 L1752.01 1521.01 L1752.01 1521.01  Z" fill="#009af9" fill-rule="evenodd" fill-opacity="1"/>
<polyline clip-path="url(#clip392)" style="stroke:#000000; stroke-linecap:round; stroke-linejoin:round; stroke-width:4; stroke-opacity:1; fill:none" points="1752.01,1521.01 1752.01,1521.01 1768.02,1521.01 1768.02,1521.01 1752.01,1521.01 "/>
<path clip-path="url(#clip392)" d="M1772.02 1521.01 L1772.02 1521.01 L1788.02 1521.01 L1788.02 1521.01 L1772.02 1521.01 L1772.02 1521.01  Z" fill="#009af9" fill-rule="evenodd" fill-opacity="1"/>
<polyline clip-path="url(#clip392)" style="stroke:#000000; stroke-linecap:round; stroke-linejoin:round; stroke-width:4; stroke-opacity:1; fill:none" points="1772.02,1521.01 1772.02,1521.01 1788.02,1521.01 1788.02,1521.01 1772.02,1521.01 "/>
<path clip-path="url(#clip392)" d="M1792.02 1521.01 L1792.02 1521.01 L1808.03 1521.01 L1808.03 1521.01 L1792.02 1521.01 L1792.02 1521.01  Z" fill="#009af9" fill-rule="evenodd" fill-opacity="1"/>
<polyline clip-path="url(#clip392)" style="stroke:#000000; stroke-linecap:round; stroke-linejoin:round; stroke-width:4; stroke-opacity:1; fill:none" points="1792.02,1521.01 1792.02,1521.01 1808.03,1521.01 1808.03,1521.01 1792.02,1521.01 "/>
<path clip-path="url(#clip392)" d="M1812.03 1521.01 L1812.03 1521.01 L1828.03 1521.01 L1828.03 1521.01 L1812.03 1521.01 L1812.03 1521.01  Z" fill="#009af9" fill-rule="evenodd" fill-opacity="1"/>
<polyline clip-path="url(#clip392)" style="stroke:#000000; stroke-linecap:round; stroke-linejoin:round; stroke-width:4; stroke-opacity:1; fill:none" points="1812.03,1521.01 1812.03,1521.01 1828.03,1521.01 1828.03,1521.01 1812.03,1521.01 "/>
<path clip-path="url(#clip392)" d="M1832.03 1521.01 L1832.03 1521.01 L1848.04 1521.01 L1848.04 1521.01 L1832.03 1521.01 L1832.03 1521.01  Z" fill="#009af9" fill-rule="evenodd" fill-opacity="1"/>
<polyline clip-path="url(#clip392)" style="stroke:#000000; stroke-linecap:round; stroke-linejoin:round; stroke-width:4; stroke-opacity:1; fill:none" points="1832.03,1521.01 1832.03,1521.01 1848.04,1521.01 1848.04,1521.01 1832.03,1521.01 "/>
<path clip-path="url(#clip392)" d="M1852.04 1521.01 L1852.04 1521.01 L1868.04 1521.01 L1868.04 1521.01 L1852.04 1521.01 L1852.04 1521.01  Z" fill="#009af9" fill-rule="evenodd" fill-opacity="1"/>
<polyline clip-path="url(#clip392)" style="stroke:#000000; stroke-linecap:round; stroke-linejoin:round; stroke-width:4; stroke-opacity:1; fill:none" points="1852.04,1521.01 1852.04,1521.01 1868.04,1521.01 1868.04,1521.01 1852.04,1521.01 "/>
<path clip-path="url(#clip392)" d="M1872.04 1521.01 L1872.04 1521.01 L1888.05 1521.01 L1888.05 1521.01 L1872.04 1521.01 L1872.04 1521.01  Z" fill="#009af9" fill-rule="evenodd" fill-opacity="1"/>
<polyline clip-path="url(#clip392)" style="stroke:#000000; stroke-linecap:round; stroke-linejoin:round; stroke-width:4; stroke-opacity:1; fill:none" points="1872.04,1521.01 1872.04,1521.01 1888.05,1521.01 1888.05,1521.01 1872.04,1521.01 "/>
<path clip-path="url(#clip392)" d="M1892.05 1521.01 L1892.05 1521.01 L1908.05 1521.01 L1908.05 1521.01 L1892.05 1521.01 L1892.05 1521.01  Z" fill="#009af9" fill-rule="evenodd" fill-opacity="1"/>
<polyline clip-path="url(#clip392)" style="stroke:#000000; stroke-linecap:round; stroke-linejoin:round; stroke-width:4; stroke-opacity:1; fill:none" points="1892.05,1521.01 1892.05,1521.01 1908.05,1521.01 1908.05,1521.01 1892.05,1521.01 "/>
<path clip-path="url(#clip392)" d="M1912.05 1521.01 L1912.05 1521.01 L1928.06 1521.01 L1928.06 1521.01 L1912.05 1521.01 L1912.05 1521.01  Z" fill="#009af9" fill-rule="evenodd" fill-opacity="1"/>
<polyline clip-path="url(#clip392)" style="stroke:#000000; stroke-linecap:round; stroke-linejoin:round; stroke-width:4; stroke-opacity:1; fill:none" points="1912.05,1521.01 1912.05,1521.01 1928.06,1521.01 1928.06,1521.01 1912.05,1521.01 "/>
<path clip-path="url(#clip392)" d="M1932.06 1521.01 L1932.06 1521.01 L1948.06 1521.01 L1948.06 1521.01 L1932.06 1521.01 L1932.06 1521.01  Z" fill="#009af9" fill-rule="evenodd" fill-opacity="1"/>
<polyline clip-path="url(#clip392)" style="stroke:#000000; stroke-linecap:round; stroke-linejoin:round; stroke-width:4; stroke-opacity:1; fill:none" points="1932.06,1521.01 1932.06,1521.01 1948.06,1521.01 1948.06,1521.01 1932.06,1521.01 "/>
<path clip-path="url(#clip392)" d="M1952.06 1521.01 L1952.06 1521.01 L1968.07 1521.01 L1968.07 1521.01 L1952.06 1521.01 L1952.06 1521.01  Z" fill="#009af9" fill-rule="evenodd" fill-opacity="1"/>
<polyline clip-path="url(#clip392)" style="stroke:#000000; stroke-linecap:round; stroke-linejoin:round; stroke-width:4; stroke-opacity:1; fill:none" points="1952.06,1521.01 1952.06,1521.01 1968.07,1521.01 1968.07,1521.01 1952.06,1521.01 "/>
<path clip-path="url(#clip392)" d="M1972.07 1521.01 L1972.07 1521.01 L1988.07 1521.01 L1988.07 1521.01 L1972.07 1521.01 L1972.07 1521.01  Z" fill="#009af9" fill-rule="evenodd" fill-opacity="1"/>
<polyline clip-path="url(#clip392)" style="stroke:#000000; stroke-linecap:round; stroke-linejoin:round; stroke-width:4; stroke-opacity:1; fill:none" points="1972.07,1521.01 1972.07,1521.01 1988.07,1521.01 1988.07,1521.01 1972.07,1521.01 "/>
<path clip-path="url(#clip392)" d="M1992.07 1521.01 L1992.07 1521.01 L2008.08 1521.01 L2008.08 1521.01 L1992.07 1521.01 L1992.07 1521.01  Z" fill="#009af9" fill-rule="evenodd" fill-opacity="1"/>
<polyline clip-path="url(#clip392)" style="stroke:#000000; stroke-linecap:round; stroke-linejoin:round; stroke-width:4; stroke-opacity:1; fill:none" points="1992.07,1521.01 1992.07,1521.01 2008.08,1521.01 2008.08,1521.01 1992.07,1521.01 "/>
<path clip-path="url(#clip392)" d="M2012.08 1521.01 L2012.08 1521.01 L2028.08 1521.01 L2028.08 1521.01 L2012.08 1521.01 L2012.08 1521.01  Z" fill="#009af9" fill-rule="evenodd" fill-opacity="1"/>
<polyline clip-path="url(#clip392)" style="stroke:#000000; stroke-linecap:round; stroke-linejoin:round; stroke-width:4; stroke-opacity:1; fill:none" points="2012.08,1521.01 2012.08,1521.01 2028.08,1521.01 2028.08,1521.01 2012.08,1521.01 "/>
<path clip-path="url(#clip392)" d="M2032.08 1521.01 L2032.08 1521.01 L2048.09 1521.01 L2048.09 1521.01 L2032.08 1521.01 L2032.08 1521.01  Z" fill="#009af9" fill-rule="evenodd" fill-opacity="1"/>
<polyline clip-path="url(#clip392)" style="stroke:#000000; stroke-linecap:round; stroke-linejoin:round; stroke-width:4; stroke-opacity:1; fill:none" points="2032.08,1521.01 2032.08,1521.01 2048.09,1521.01 2048.09,1521.01 2032.08,1521.01 "/>
<path clip-path="url(#clip392)" d="M2052.09 1521.01 L2052.09 1521.01 L2068.09 1521.01 L2068.09 1521.01 L2052.09 1521.01 L2052.09 1521.01  Z" fill="#009af9" fill-rule="evenodd" fill-opacity="1"/>
<polyline clip-path="url(#clip392)" style="stroke:#000000; stroke-linecap:round; stroke-linejoin:round; stroke-width:4; stroke-opacity:1; fill:none" points="2052.09,1521.01 2052.09,1521.01 2068.09,1521.01 2068.09,1521.01 2052.09,1521.01 "/>
<path clip-path="url(#clip392)" d="M2072.09 1521.01 L2072.09 1521.01 L2088.1 1521.01 L2088.1 1521.01 L2072.09 1521.01 L2072.09 1521.01  Z" fill="#009af9" fill-rule="evenodd" fill-opacity="1"/>
<polyline clip-path="url(#clip392)" style="stroke:#000000; stroke-linecap:round; stroke-linejoin:round; stroke-width:4; stroke-opacity:1; fill:none" points="2072.09,1521.01 2072.09,1521.01 2088.1,1521.01 2088.1,1521.01 2072.09,1521.01 "/>
<path clip-path="url(#clip392)" d="M2092.1 1521.01 L2092.1 1521.01 L2108.1 1521.01 L2108.1 1521.01 L2092.1 1521.01 L2092.1 1521.01  Z" fill="#009af9" fill-rule="evenodd" fill-opacity="1"/>
<polyline clip-path="url(#clip392)" style="stroke:#000000; stroke-linecap:round; stroke-linejoin:round; stroke-width:4; stroke-opacity:1; fill:none" points="2092.1,1521.01 2092.1,1521.01 2108.1,1521.01 2108.1,1521.01 2092.1,1521.01 "/>
<path clip-path="url(#clip392)" d="M2112.1 1521.01 L2112.1 1521.01 L2128.11 1521.01 L2128.11 1521.01 L2112.1 1521.01 L2112.1 1521.01  Z" fill="#009af9" fill-rule="evenodd" fill-opacity="1"/>
<polyline clip-path="url(#clip392)" style="stroke:#000000; stroke-linecap:round; stroke-linejoin:round; stroke-width:4; stroke-opacity:1; fill:none" points="2112.1,1521.01 2112.1,1521.01 2128.11,1521.01 2128.11,1521.01 2112.1,1521.01 "/>
<path clip-path="url(#clip392)" d="M2132.11 1521.01 L2132.11 1521.01 L2148.11 1521.01 L2148.11 1521.01 L2132.11 1521.01 L2132.11 1521.01  Z" fill="#009af9" fill-rule="evenodd" fill-opacity="1"/>
<polyline clip-path="url(#clip392)" style="stroke:#000000; stroke-linecap:round; stroke-linejoin:round; stroke-width:4; stroke-opacity:1; fill:none" points="2132.11,1521.01 2132.11,1521.01 2148.11,1521.01 2148.11,1521.01 2132.11,1521.01 "/>
<path clip-path="url(#clip392)" d="M2152.12 1521.01 L2152.12 1521.01 L2168.12 1521.01 L2168.12 1521.01 L2152.12 1521.01 L2152.12 1521.01  Z" fill="#009af9" fill-rule="evenodd" fill-opacity="1"/>
<polyline clip-path="url(#clip392)" style="stroke:#000000; stroke-linecap:round; stroke-linejoin:round; stroke-width:4; stroke-opacity:1; fill:none" points="2152.12,1521.01 2152.12,1521.01 2168.12,1521.01 2168.12,1521.01 2152.12,1521.01 "/>
<path clip-path="url(#clip392)" d="M2172.12 1521.01 L2172.12 1521.01 L2188.12 1521.01 L2188.12 1521.01 L2172.12 1521.01 L2172.12 1521.01  Z" fill="#009af9" fill-rule="evenodd" fill-opacity="1"/>
<polyline clip-path="url(#clip392)" style="stroke:#000000; stroke-linecap:round; stroke-linejoin:round; stroke-width:4; stroke-opacity:1; fill:none" points="2172.12,1521.01 2172.12,1521.01 2188.12,1521.01 2188.12,1521.01 2172.12,1521.01 "/>
<path clip-path="url(#clip392)" d="M2192.13 1521.01 L2192.13 1521.01 L2208.13 1521.01 L2208.13 1521.01 L2192.13 1521.01 L2192.13 1521.01  Z" fill="#009af9" fill-rule="evenodd" fill-opacity="1"/>
<polyline clip-path="url(#clip392)" style="stroke:#000000; stroke-linecap:round; stroke-linejoin:round; stroke-width:4; stroke-opacity:1; fill:none" points="2192.13,1521.01 2192.13,1521.01 2208.13,1521.01 2208.13,1521.01 2192.13,1521.01 "/>
<path clip-path="url(#clip392)" d="M2212.13 1521.01 L2212.13 1521.01 L2228.13 1521.01 L2228.13 1521.01 L2212.13 1521.01 L2212.13 1521.01  Z" fill="#009af9" fill-rule="evenodd" fill-opacity="1"/>
<polyline clip-path="url(#clip392)" style="stroke:#000000; stroke-linecap:round; stroke-linejoin:round; stroke-width:4; stroke-opacity:1; fill:none" points="2212.13,1521.01 2212.13,1521.01 2228.13,1521.01 2228.13,1521.01 2212.13,1521.01 "/>
<circle clip-path="url(#clip392)" style="fill:#009af9; stroke:none; fill-opacity:0" cx="219.615" cy="1521.01" r="2"/>
<circle clip-path="url(#clip392)" style="fill:#009af9; stroke:none; fill-opacity:0" cx="239.62" cy="1521.01" r="2"/>
<circle clip-path="url(#clip392)" style="fill:#009af9; stroke:none; fill-opacity:0" cx="259.626" cy="1521.01" r="2"/>
<circle clip-path="url(#clip392)" style="fill:#009af9; stroke:none; fill-opacity:0" cx="279.631" cy="1521.01" r="2"/>
<circle clip-path="url(#clip392)" style="fill:#009af9; stroke:none; fill-opacity:0" cx="299.636" cy="1521.01" r="2"/>
<circle clip-path="url(#clip392)" style="fill:#009af9; stroke:none; fill-opacity:0" cx="319.641" cy="1521.01" r="2"/>
<circle clip-path="url(#clip392)" style="fill:#009af9; stroke:none; fill-opacity:0" cx="339.646" cy="1521.01" r="2"/>
<circle clip-path="url(#clip392)" style="fill:#009af9; stroke:none; fill-opacity:0" cx="359.651" cy="1521.01" r="2"/>
<circle clip-path="url(#clip392)" style="fill:#009af9; stroke:none; fill-opacity:0" cx="379.657" cy="1521" r="2"/>
<circle clip-path="url(#clip392)" style="fill:#009af9; stroke:none; fill-opacity:0" cx="399.662" cy="1520.98" r="2"/>
<circle clip-path="url(#clip392)" style="fill:#009af9; stroke:none; fill-opacity:0" cx="419.667" cy="1520.91" r="2"/>
<circle clip-path="url(#clip392)" style="fill:#009af9; stroke:none; fill-opacity:0" cx="439.672" cy="1520.75" r="2"/>
<circle clip-path="url(#clip392)" style="fill:#009af9; stroke:none; fill-opacity:0" cx="459.677" cy="1520.34" r="2"/>
<circle clip-path="url(#clip392)" style="fill:#009af9; stroke:none; fill-opacity:0" cx="479.683" cy="1519.42" r="2"/>
<circle clip-path="url(#clip392)" style="fill:#009af9; stroke:none; fill-opacity:0" cx="499.688" cy="1517.51" r="2"/>
<circle clip-path="url(#clip392)" style="fill:#009af9; stroke:none; fill-opacity:0" cx="519.693" cy="1513.79" r="2"/>
<circle clip-path="url(#clip392)" style="fill:#009af9; stroke:none; fill-opacity:0" cx="539.698" cy="1506.96" r="2"/>
<circle clip-path="url(#clip392)" style="fill:#009af9; stroke:none; fill-opacity:0" cx="559.703" cy="1495.19" r="2"/>
<circle clip-path="url(#clip392)" style="fill:#009af9; stroke:none; fill-opacity:0" cx="579.708" cy="1476.01" r="2"/>
<circle clip-path="url(#clip392)" style="fill:#009af9; stroke:none; fill-opacity:0" cx="599.714" cy="1446.43" r="2"/>
<circle clip-path="url(#clip392)" style="fill:#009af9; stroke:none; fill-opacity:0" cx="619.719" cy="1403.11" r="2"/>
<circle clip-path="url(#clip392)" style="fill:#009af9; stroke:none; fill-opacity:0" cx="639.724" cy="1342.83" r="2"/>
<circle clip-path="url(#clip392)" style="fill:#009af9; stroke:none; fill-opacity:0" cx="659.729" cy="1262.97" r="2"/>
<circle clip-path="url(#clip392)" style="fill:#009af9; stroke:none; fill-opacity:0" cx="679.734" cy="1162.19" r="2"/>
<circle clip-path="url(#clip392)" style="fill:#009af9; stroke:none; fill-opacity:0" cx="699.739" cy="1040.99" r="2"/>
<circle clip-path="url(#clip392)" style="fill:#009af9; stroke:none; fill-opacity:0" cx="719.745" cy="902.187" r="2"/>
<circle clip-path="url(#clip392)" style="fill:#009af9; stroke:none; fill-opacity:0" cx="739.75" cy="751.01" r="2"/>
<circle clip-path="url(#clip392)" style="fill:#009af9; stroke:none; fill-opacity:0" cx="759.755" cy="594.884" r="2"/>
<circle clip-path="url(#clip392)" style="fill:#009af9; stroke:none; fill-opacity:0" cx="779.76" cy="442.823" r="2"/>
<circle clip-path="url(#clip392)" style="fill:#009af9; stroke:none; fill-opacity:0" cx="799.765" cy="304.513" r="2"/>
<circle clip-path="url(#clip392)" style="fill:#009af9; stroke:none; fill-opacity:0" cx="819.771" cy="189.235" r="2"/>
<circle clip-path="url(#clip392)" style="fill:#009af9; stroke:none; fill-opacity:0" cx="839.776" cy="104.789" r="2"/>
<circle clip-path="url(#clip392)" style="fill:#009af9; stroke:none; fill-opacity:0" cx="859.781" cy="56.6173" r="2"/>
<circle clip-path="url(#clip392)" style="fill:#009af9; stroke:none; fill-opacity:0" cx="879.786" cy="47.2441" r="2"/>
<circle clip-path="url(#clip392)" style="fill:#009af9; stroke:none; fill-opacity:0" cx="899.791" cy="76.1125" r="2"/>
<circle clip-path="url(#clip392)" style="fill:#009af9; stroke:none; fill-opacity:0" cx="919.796" cy="139.821" r="2"/>
<circle clip-path="url(#clip392)" style="fill:#009af9; stroke:none; fill-opacity:0" cx="939.802" cy="232.684" r="2"/>
<circle clip-path="url(#clip392)" style="fill:#009af9; stroke:none; fill-opacity:0" cx="959.807" cy="347.508" r="2"/>
<circle clip-path="url(#clip392)" style="fill:#009af9; stroke:none; fill-opacity:0" cx="979.812" cy="476.435" r="2"/>
<circle clip-path="url(#clip392)" style="fill:#009af9; stroke:none; fill-opacity:0" cx="999.817" cy="611.75" r="2"/>
<circle clip-path="url(#clip392)" style="fill:#009af9; stroke:none; fill-opacity:0" cx="1019.82" cy="746.533" r="2"/>
<circle clip-path="url(#clip392)" style="fill:#009af9; stroke:none; fill-opacity:0" cx="1039.83" cy="875.106" r="2"/>
<circle clip-path="url(#clip392)" style="fill:#009af9; stroke:none; fill-opacity:0" cx="1059.83" cy="993.272" r="2"/>
<circle clip-path="url(#clip392)" style="fill:#009af9; stroke:none; fill-opacity:0" cx="1079.84" cy="1098.34" r="2"/>
<circle clip-path="url(#clip392)" style="fill:#009af9; stroke:none; fill-opacity:0" cx="1099.84" cy="1189" r="2"/>
<circle clip-path="url(#clip392)" style="fill:#009af9; stroke:none; fill-opacity:0" cx="1119.85" cy="1265.11" r="2"/>
<circle clip-path="url(#clip392)" style="fill:#009af9; stroke:none; fill-opacity:0" cx="1139.85" cy="1327.38" r="2"/>
<circle clip-path="url(#clip392)" style="fill:#009af9; stroke:none; fill-opacity:0" cx="1159.86" cy="1377.1" r="2"/>
<circle clip-path="url(#clip392)" style="fill:#009af9; stroke:none; fill-opacity:0" cx="1179.86" cy="1415.92" r="2"/>
<circle clip-path="url(#clip392)" style="fill:#009af9; stroke:none; fill-opacity:0" cx="1199.87" cy="1445.57" r="2"/>
<circle clip-path="url(#clip392)" style="fill:#009af9; stroke:none; fill-opacity:0" cx="1219.87" cy="1467.75" r="2"/>
<circle clip-path="url(#clip392)" style="fill:#009af9; stroke:none; fill-opacity:0" cx="1239.88" cy="1484.02" r="2"/>
<circle clip-path="url(#clip392)" style="fill:#009af9; stroke:none; fill-opacity:0" cx="1259.88" cy="1495.72" r="2"/>
<circle clip-path="url(#clip392)" style="fill:#009af9; stroke:none; fill-opacity:0" cx="1279.89" cy="1503.99" r="2"/>
<circle clip-path="url(#clip392)" style="fill:#009af9; stroke:none; fill-opacity:0" cx="1299.89" cy="1509.73" r="2"/>
<circle clip-path="url(#clip392)" style="fill:#009af9; stroke:none; fill-opacity:0" cx="1319.9" cy="1513.64" r="2"/>
<circle clip-path="url(#clip392)" style="fill:#009af9; stroke:none; fill-opacity:0" cx="1339.91" cy="1516.27" r="2"/>
<circle clip-path="url(#clip392)" style="fill:#009af9; stroke:none; fill-opacity:0" cx="1359.91" cy="1518" r="2"/>
<circle clip-path="url(#clip392)" style="fill:#009af9; stroke:none; fill-opacity:0" cx="1379.92" cy="1519.13" r="2"/>
<circle clip-path="url(#clip392)" style="fill:#009af9; stroke:none; fill-opacity:0" cx="1399.92" cy="1519.85" r="2"/>
<circle clip-path="url(#clip392)" style="fill:#009af9; stroke:none; fill-opacity:0" cx="1419.93" cy="1520.3" r="2"/>
<circle clip-path="url(#clip392)" style="fill:#009af9; stroke:none; fill-opacity:0" cx="1439.93" cy="1520.58" r="2"/>
<circle clip-path="url(#clip392)" style="fill:#009af9; stroke:none; fill-opacity:0" cx="1459.94" cy="1520.76" r="2"/>
<circle clip-path="url(#clip392)" style="fill:#009af9; stroke:none; fill-opacity:0" cx="1479.94" cy="1520.86" r="2"/>
<circle clip-path="url(#clip392)" style="fill:#009af9; stroke:none; fill-opacity:0" cx="1499.95" cy="1520.92" r="2"/>
<circle clip-path="url(#clip392)" style="fill:#009af9; stroke:none; fill-opacity:0" cx="1519.95" cy="1520.96" r="2"/>
<circle clip-path="url(#clip392)" style="fill:#009af9; stroke:none; fill-opacity:0" cx="1539.96" cy="1520.98" r="2"/>
<circle clip-path="url(#clip392)" style="fill:#009af9; stroke:none; fill-opacity:0" cx="1559.96" cy="1520.99" r="2"/>
<circle clip-path="url(#clip392)" style="fill:#009af9; stroke:none; fill-opacity:0" cx="1579.97" cy="1521" r="2"/>
<circle clip-path="url(#clip392)" style="fill:#009af9; stroke:none; fill-opacity:0" cx="1599.97" cy="1521" r="2"/>
<circle clip-path="url(#clip392)" style="fill:#009af9; stroke:none; fill-opacity:0" cx="1619.98" cy="1521.01" r="2"/>
<circle clip-path="url(#clip392)" style="fill:#009af9; stroke:none; fill-opacity:0" cx="1639.98" cy="1521.01" r="2"/>
<circle clip-path="url(#clip392)" style="fill:#009af9; stroke:none; fill-opacity:0" cx="1659.99" cy="1521.01" r="2"/>
<circle clip-path="url(#clip392)" style="fill:#009af9; stroke:none; fill-opacity:0" cx="1679.99" cy="1521.01" r="2"/>
<circle clip-path="url(#clip392)" style="fill:#009af9; stroke:none; fill-opacity:0" cx="1700" cy="1521.01" r="2"/>
<circle clip-path="url(#clip392)" style="fill:#009af9; stroke:none; fill-opacity:0" cx="1720" cy="1521.01" r="2"/>
<circle clip-path="url(#clip392)" style="fill:#009af9; stroke:none; fill-opacity:0" cx="1740.01" cy="1521.01" r="2"/>
<circle clip-path="url(#clip392)" style="fill:#009af9; stroke:none; fill-opacity:0" cx="1760.01" cy="1521.01" r="2"/>
<circle clip-path="url(#clip392)" style="fill:#009af9; stroke:none; fill-opacity:0" cx="1780.02" cy="1521.01" r="2"/>
<circle clip-path="url(#clip392)" style="fill:#009af9; stroke:none; fill-opacity:0" cx="1800.02" cy="1521.01" r="2"/>
<circle clip-path="url(#clip392)" style="fill:#009af9; stroke:none; fill-opacity:0" cx="1820.03" cy="1521.01" r="2"/>
<circle clip-path="url(#clip392)" style="fill:#009af9; stroke:none; fill-opacity:0" cx="1840.03" cy="1521.01" r="2"/>
<circle clip-path="url(#clip392)" style="fill:#009af9; stroke:none; fill-opacity:0" cx="1860.04" cy="1521.01" r="2"/>
<circle clip-path="url(#clip392)" style="fill:#009af9; stroke:none; fill-opacity:0" cx="1880.04" cy="1521.01" r="2"/>
<circle clip-path="url(#clip392)" style="fill:#009af9; stroke:none; fill-opacity:0" cx="1900.05" cy="1521.01" r="2"/>
<circle clip-path="url(#clip392)" style="fill:#009af9; stroke:none; fill-opacity:0" cx="1920.06" cy="1521.01" r="2"/>
<circle clip-path="url(#clip392)" style="fill:#009af9; stroke:none; fill-opacity:0" cx="1940.06" cy="1521.01" r="2"/>
<circle clip-path="url(#clip392)" style="fill:#009af9; stroke:none; fill-opacity:0" cx="1960.07" cy="1521.01" r="2"/>
<circle clip-path="url(#clip392)" style="fill:#009af9; stroke:none; fill-opacity:0" cx="1980.07" cy="1521.01" r="2"/>
<circle clip-path="url(#clip392)" style="fill:#009af9; stroke:none; fill-opacity:0" cx="2000.08" cy="1521.01" r="2"/>
<circle clip-path="url(#clip392)" style="fill:#009af9; stroke:none; fill-opacity:0" cx="2020.08" cy="1521.01" r="2"/>
<circle clip-path="url(#clip392)" style="fill:#009af9; stroke:none; fill-opacity:0" cx="2040.09" cy="1521.01" r="2"/>
<circle clip-path="url(#clip392)" style="fill:#009af9; stroke:none; fill-opacity:0" cx="2060.09" cy="1521.01" r="2"/>
<circle clip-path="url(#clip392)" style="fill:#009af9; stroke:none; fill-opacity:0" cx="2080.1" cy="1521.01" r="2"/>
<circle clip-path="url(#clip392)" style="fill:#009af9; stroke:none; fill-opacity:0" cx="2100.1" cy="1521.01" r="2"/>
<circle clip-path="url(#clip392)" style="fill:#009af9; stroke:none; fill-opacity:0" cx="2120.11" cy="1521.01" r="2"/>
<circle clip-path="url(#clip392)" style="fill:#009af9; stroke:none; fill-opacity:0" cx="2140.11" cy="1521.01" r="2"/>
<circle clip-path="url(#clip392)" style="fill:#009af9; stroke:none; fill-opacity:0" cx="2160.12" cy="1521.01" r="2"/>
<circle clip-path="url(#clip392)" style="fill:#009af9; stroke:none; fill-opacity:0" cx="2180.12" cy="1521.01" r="2"/>
<circle clip-path="url(#clip392)" style="fill:#009af9; stroke:none; fill-opacity:0" cx="2200.13" cy="1521.01" r="2"/>
<circle clip-path="url(#clip392)" style="fill:#009af9; stroke:none; fill-opacity:0" cx="2220.13" cy="1521.01" r="2"/>
<path clip-path="url(#clip390)" d="M1648.02 200.05 L2277.23 200.05 L2277.23 96.3696 L1648.02 96.3696  Z" fill="#ffffff" fill-rule="evenodd" fill-opacity="1"/>
<polyline clip-path="url(#clip390)" style="stroke:#000000; stroke-linecap:round; stroke-linejoin:round; stroke-width:4; stroke-opacity:1; fill:none" points="1648.02,200.05 2277.23,200.05 2277.23,96.3696 1648.02,96.3696 1648.02,200.05 "/>
<path clip-path="url(#clip390)" d="M1673.19 168.946 L1824.24 168.946 L1824.24 127.474 L1673.19 127.474 L1673.19 168.946  Z" fill="#009af9" fill-rule="evenodd" fill-opacity="1"/>
<polyline clip-path="url(#clip390)" style="stroke:#000000; stroke-linecap:round; stroke-linejoin:round; stroke-width:4; stroke-opacity:1; fill:none" points="1673.19,168.946 1824.24,168.946 1824.24,127.474 1673.19,127.474 1673.19,168.946 "/>
<path clip-path="url(#clip390)" d="M1853.7 161.601 L1853.7 175.351 L1849.42 175.351 L1849.42 139.564 L1853.7 139.564 L1853.7 143.499 Q1855.04 141.184 1857.08 140.073 Q1859.14 138.939 1861.99 138.939 Q1866.71 138.939 1869.65 142.689 Q1872.61 146.439 1872.61 152.55 Q1872.61 158.661 1869.65 162.411 Q1866.71 166.161 1861.99 166.161 Q1859.14 166.161 1857.08 165.05 Q1855.04 163.915 1853.7 161.601 M1868.19 152.55 Q1868.19 147.851 1866.25 145.189 Q1864.33 142.504 1860.95 142.504 Q1857.57 142.504 1855.62 145.189 Q1853.7 147.851 1853.7 152.55 Q1853.7 157.249 1855.62 159.934 Q1857.57 162.596 1860.95 162.596 Q1864.33 162.596 1866.25 159.934 Q1868.19 157.249 1868.19 152.55 Z" fill="#000000" fill-rule="nonzero" fill-opacity="1" /><path clip-path="url(#clip390)" d="M1894.7 143.545 Q1893.98 143.129 1893.12 142.943 Q1892.29 142.735 1891.27 142.735 Q1887.66 142.735 1885.71 145.096 Q1883.79 147.434 1883.79 151.832 L1883.79 165.49 L1879.51 165.49 L1879.51 139.564 L1883.79 139.564 L1883.79 143.592 Q1885.14 141.23 1887.29 140.096 Q1889.44 138.939 1892.52 138.939 Q1892.96 138.939 1893.49 139.008 Q1894.02 139.055 1894.67 139.17 L1894.7 143.545 Z" fill="#000000" fill-rule="nonzero" fill-opacity="1" /><path clip-path="url(#clip390)" d="M1920.3 151.462 L1920.3 153.545 L1900.71 153.545 Q1900.99 157.943 1903.35 160.258 Q1905.74 162.55 1909.97 162.55 Q1912.43 162.55 1914.72 161.948 Q1917.03 161.346 1919.3 160.142 L1919.3 164.17 Q1917.01 165.142 1914.6 165.652 Q1912.2 166.161 1909.72 166.161 Q1903.52 166.161 1899.88 162.55 Q1896.27 158.939 1896.27 152.781 Q1896.27 146.416 1899.7 142.689 Q1903.15 138.939 1908.98 138.939 Q1914.21 138.939 1917.24 142.318 Q1920.3 145.675 1920.3 151.462 M1916.04 150.212 Q1915.99 146.717 1914.07 144.633 Q1912.17 142.55 1909.02 142.55 Q1905.46 142.55 1903.31 144.564 Q1901.18 146.578 1900.85 150.235 L1916.04 150.212 Z" fill="#000000" fill-rule="nonzero" fill-opacity="1" /><path clip-path="url(#clip390)" d="M1944.35 143.499 L1944.35 129.471 L1948.61 129.471 L1948.61 165.49 L1944.35 165.49 L1944.35 161.601 Q1943.01 163.915 1940.95 165.05 Q1938.91 166.161 1936.04 166.161 Q1931.34 166.161 1928.38 162.411 Q1925.44 158.661 1925.44 152.55 Q1925.44 146.439 1928.38 142.689 Q1931.34 138.939 1936.04 138.939 Q1938.91 138.939 1940.95 140.073 Q1943.01 141.184 1944.35 143.499 M1929.83 152.55 Q1929.83 157.249 1931.76 159.934 Q1933.7 162.596 1937.08 162.596 Q1940.46 162.596 1942.4 159.934 Q1944.35 157.249 1944.35 152.55 Q1944.35 147.851 1942.4 145.189 Q1940.46 142.504 1937.08 142.504 Q1933.7 142.504 1931.76 145.189 Q1929.83 147.851 1929.83 152.55 Z" fill="#000000" fill-rule="nonzero" fill-opacity="1" /><path clip-path="url(#clip390)" d="M1957.38 139.564 L1961.64 139.564 L1961.64 165.49 L1957.38 165.49 L1957.38 139.564 M1957.38 129.471 L1961.64 129.471 L1961.64 134.865 L1957.38 134.865 L1957.38 129.471 Z" fill="#000000" fill-rule="nonzero" fill-opacity="1" /><path clip-path="url(#clip390)" d="M1989.21 140.559 L1989.21 144.541 Q1987.4 143.545 1985.58 143.059 Q1983.77 142.55 1981.92 142.55 Q1977.77 142.55 1975.48 145.189 Q1973.19 147.804 1973.19 152.55 Q1973.19 157.295 1975.48 159.934 Q1977.77 162.55 1981.92 162.55 Q1983.77 162.55 1985.58 162.064 Q1987.4 161.554 1989.21 160.559 L1989.21 164.494 Q1987.43 165.328 1985.51 165.744 Q1983.61 166.161 1981.45 166.161 Q1975.6 166.161 1972.15 162.48 Q1968.7 158.8 1968.7 152.55 Q1968.7 146.207 1972.17 142.573 Q1975.67 138.939 1981.73 138.939 Q1983.7 138.939 1985.58 139.355 Q1987.45 139.749 1989.21 140.559 Z" fill="#000000" fill-rule="nonzero" fill-opacity="1" /><path clip-path="url(#clip390)" d="M2000.83 132.203 L2000.83 139.564 L2009.6 139.564 L2009.6 142.874 L2000.83 142.874 L2000.83 156.948 Q2000.83 160.119 2001.69 161.022 Q2002.57 161.925 2005.23 161.925 L2009.6 161.925 L2009.6 165.49 L2005.23 165.49 Q2000.3 165.49 1998.42 163.661 Q1996.55 161.809 1996.55 156.948 L1996.55 142.874 L1993.42 142.874 L1993.42 139.564 L1996.55 139.564 L1996.55 132.203 L2000.83 132.203 Z" fill="#000000" fill-rule="nonzero" fill-opacity="1" /><path clip-path="url(#clip390)" d="M2015.2 139.564 L2019.46 139.564 L2019.46 165.49 L2015.2 165.49 L2015.2 139.564 M2015.2 129.471 L2019.46 129.471 L2019.46 134.865 L2015.2 134.865 L2015.2 129.471 Z" fill="#000000" fill-rule="nonzero" fill-opacity="1" /><path clip-path="url(#clip390)" d="M2025.32 139.564 L2029.83 139.564 L2037.94 161.323 L2046.04 139.564 L2050.55 139.564 L2040.83 165.49 L2035.04 165.49 L2025.32 139.564 Z" fill="#000000" fill-rule="nonzero" fill-opacity="1" /><path clip-path="url(#clip390)" d="M2078.61 151.462 L2078.61 153.545 L2059.02 153.545 Q2059.3 157.943 2061.66 160.258 Q2064.05 162.55 2068.28 162.55 Q2070.74 162.55 2073.03 161.948 Q2075.34 161.346 2077.61 160.142 L2077.61 164.17 Q2075.32 165.142 2072.91 165.652 Q2070.51 166.161 2068.03 166.161 Q2061.82 166.161 2058.19 162.55 Q2054.58 158.939 2054.58 152.781 Q2054.58 146.416 2058.01 142.689 Q2061.45 138.939 2067.29 138.939 Q2072.52 138.939 2075.55 142.318 Q2078.61 145.675 2078.61 151.462 M2074.35 150.212 Q2074.3 146.717 2072.38 144.633 Q2070.48 142.55 2067.33 142.55 Q2063.77 142.55 2061.62 144.564 Q2059.49 146.578 2059.16 150.235 L2074.35 150.212 Z" fill="#000000" fill-rule="nonzero" fill-opacity="1" /><path clip-path="url(#clip390)" d="M2105.3 173.36 L2105.3 176.67 L2080.67 176.67 L2080.67 173.36 L2105.3 173.36 Z" fill="#000000" fill-rule="nonzero" fill-opacity="1" /><path clip-path="url(#clip390)" d="M2122.43 129.471 L2122.43 133.013 L2118.35 133.013 Q2116.06 133.013 2115.16 133.939 Q2114.28 134.865 2114.28 137.272 L2114.28 139.564 L2121.29 139.564 L2121.29 142.874 L2114.28 142.874 L2114.28 165.49 L2110 165.49 L2110 142.874 L2105.92 142.874 L2105.92 139.564 L2110 139.564 L2110 137.758 Q2110 133.43 2112.01 131.462 Q2114.02 129.471 2118.4 129.471 L2122.43 129.471 Z" fill="#000000" fill-rule="nonzero" fill-opacity="1" /><path clip-path="url(#clip390)" d="M2137.77 152.457 Q2132.61 152.457 2130.62 153.638 Q2128.63 154.818 2128.63 157.666 Q2128.63 159.934 2130.11 161.277 Q2131.62 162.596 2134.19 162.596 Q2137.73 162.596 2139.86 160.096 Q2142.01 157.573 2142.01 153.406 L2142.01 152.457 L2137.77 152.457 M2146.27 150.698 L2146.27 165.49 L2142.01 165.49 L2142.01 161.554 Q2140.55 163.915 2138.38 165.05 Q2136.2 166.161 2133.05 166.161 Q2129.07 166.161 2126.71 163.939 Q2124.37 161.693 2124.37 157.943 Q2124.37 153.568 2127.29 151.346 Q2130.23 149.124 2136.04 149.124 L2142.01 149.124 L2142.01 148.707 Q2142.01 145.767 2140.07 144.17 Q2138.14 142.55 2134.65 142.55 Q2132.43 142.55 2130.32 143.082 Q2128.21 143.615 2126.27 144.679 L2126.27 140.744 Q2128.61 139.842 2130.81 139.402 Q2133.01 138.939 2135.09 138.939 Q2140.71 138.939 2143.49 141.855 Q2146.27 144.772 2146.27 150.698 Z" fill="#000000" fill-rule="nonzero" fill-opacity="1" /><path clip-path="url(#clip390)" d="M2174.74 173.36 L2174.74 176.67 L2150.11 176.67 L2150.11 173.36 L2174.74 173.36 Z" fill="#000000" fill-rule="nonzero" fill-opacity="1" /><path clip-path="url(#clip390)" d="M2182.87 161.601 L2182.87 175.351 L2178.58 175.351 L2178.58 139.564 L2182.87 139.564 L2182.87 143.499 Q2184.21 141.184 2186.25 140.073 Q2188.31 138.939 2191.15 138.939 Q2195.88 138.939 2198.81 142.689 Q2201.78 146.439 2201.78 152.55 Q2201.78 158.661 2198.81 162.411 Q2195.88 166.161 2191.15 166.161 Q2188.31 166.161 2186.25 165.05 Q2184.21 163.915 2182.87 161.601 M2197.36 152.55 Q2197.36 147.851 2195.41 145.189 Q2193.49 142.504 2190.11 142.504 Q2186.73 142.504 2184.79 145.189 Q2182.87 147.851 2182.87 152.55 Q2182.87 157.249 2184.79 159.934 Q2186.73 162.596 2190.11 162.596 Q2193.49 162.596 2195.41 159.934 Q2197.36 157.249 2197.36 152.55 Z" fill="#000000" fill-rule="nonzero" fill-opacity="1" /><path clip-path="url(#clip390)" d="M2225.9 143.499 L2225.9 129.471 L2230.16 129.471 L2230.16 165.49 L2225.9 165.49 L2225.9 161.601 Q2224.56 163.915 2222.5 165.05 Q2220.46 166.161 2217.59 166.161 Q2212.89 166.161 2209.93 162.411 Q2206.99 158.661 2206.99 152.55 Q2206.99 146.439 2209.93 142.689 Q2212.89 138.939 2217.59 138.939 Q2220.46 138.939 2222.5 140.073 Q2224.56 141.184 2225.9 143.499 M2211.38 152.55 Q2211.38 157.249 2213.31 159.934 Q2215.25 162.596 2218.63 162.596 Q2222.01 162.596 2223.95 159.934 Q2225.9 157.249 2225.9 152.55 Q2225.9 147.851 2223.95 145.189 Q2222.01 142.504 2218.63 142.504 Q2215.25 142.504 2213.31 145.189 Q2211.38 147.851 2211.38 152.55 Z" fill="#000000" fill-rule="nonzero" fill-opacity="1" /><path clip-path="url(#clip390)" d="M2252.06 129.471 L2252.06 133.013 L2247.98 133.013 Q2245.69 133.013 2244.79 133.939 Q2243.91 134.865 2243.91 137.272 L2243.91 139.564 L2250.92 139.564 L2250.92 142.874 L2243.91 142.874 L2243.91 165.49 L2239.62 165.49 L2239.62 142.874 L2235.55 142.874 L2235.55 139.564 L2239.62 139.564 L2239.62 137.758 Q2239.62 133.43 2241.64 131.462 Q2243.65 129.471 2248.03 129.471 L2252.06 129.471 Z" fill="#000000" fill-rule="nonzero" fill-opacity="1" /></svg>
