<?xml version="1.0" encoding="utf-8"?>
<svg xmlns="http://www.w3.org/2000/svg" xmlns:xlink="http://www.w3.org/1999/xlink" width="600" height="400" viewBox="0 0 2400 1600">
<defs>
  <clipPath id="clip840">
    <rect x="0" y="0" width="2400" height="1600"/>
  </clipPath>
</defs>
<path clip-path="url(#clip840)" d="M0 1600 L2400 1600 L2400 0 L0 0  Z" fill="#ffffff" fill-rule="evenodd" fill-opacity="1"/>
<defs>
  <clipPath id="clip841">
    <rect x="480" y="0" width="1681" height="1600"/>
  </clipPath>
</defs>
<path clip-path="url(#clip840)" d="M86.9921 1521.01 L2352.76 1521.01 L2352.76 47.2441 L86.9921 47.2441  Z" fill="#ffffff" fill-rule="evenodd" fill-opacity="1"/>
<defs>
  <clipPath id="clip842">
    <rect x="86" y="47" width="2267" height="1475"/>
  </clipPath>
</defs>
<polyline clip-path="url(#clip842)" style="stroke:#000000; stroke-linecap:round; stroke-linejoin:round; stroke-width:2; stroke-opacity:0.1; fill:none" points="357.746,1521.01 357.746,47.2441 "/>
<polyline clip-path="url(#clip842)" style="stroke:#000000; stroke-linecap:round; stroke-linejoin:round; stroke-width:2; stroke-opacity:0.1; fill:none" points="645.122,1521.01 645.122,47.2441 "/>
<polyline clip-path="url(#clip842)" style="stroke:#000000; stroke-linecap:round; stroke-linejoin:round; stroke-width:2; stroke-opacity:0.1; fill:none" points="932.498,1521.01 932.498,47.2441 "/>
<polyline clip-path="url(#clip842)" style="stroke:#000000; stroke-linecap:round; stroke-linejoin:round; stroke-width:2; stroke-opacity:0.1; fill:none" points="1219.87,1521.01 1219.87,47.2441 "/>
<polyline clip-path="url(#clip842)" style="stroke:#000000; stroke-linecap:round; stroke-linejoin:round; stroke-width:2; stroke-opacity:0.1; fill:none" points="1507.25,1521.01 1507.25,47.2441 "/>
<polyline clip-path="url(#clip842)" style="stroke:#000000; stroke-linecap:round; stroke-linejoin:round; stroke-width:2; stroke-opacity:0.1; fill:none" points="1794.63,1521.01 1794.63,47.2441 "/>
<polyline clip-path="url(#clip842)" style="stroke:#000000; stroke-linecap:round; stroke-linejoin:round; stroke-width:2; stroke-opacity:0.1; fill:none" points="2082,1521.01 2082,47.2441 "/>
<polyline clip-path="url(#clip840)" style="stroke:#000000; stroke-linecap:round; stroke-linejoin:round; stroke-width:4; stroke-opacity:1; fill:none" points="86.9921,1521.01 2352.76,1521.01 "/>
<polyline clip-path="url(#clip840)" style="stroke:#000000; stroke-linecap:round; stroke-linejoin:round; stroke-width:4; stroke-opacity:1; fill:none" points="357.746,1521.01 357.746,1502.11 "/>
<polyline clip-path="url(#clip840)" style="stroke:#000000; stroke-linecap:round; stroke-linejoin:round; stroke-width:4; stroke-opacity:1; fill:none" points="645.122,1521.01 645.122,1502.11 "/>
<polyline clip-path="url(#clip840)" style="stroke:#000000; stroke-linecap:round; stroke-linejoin:round; stroke-width:4; stroke-opacity:1; fill:none" points="932.498,1521.01 932.498,1502.11 "/>
<polyline clip-path="url(#clip840)" style="stroke:#000000; stroke-linecap:round; stroke-linejoin:round; stroke-width:4; stroke-opacity:1; fill:none" points="1219.87,1521.01 1219.87,1502.11 "/>
<polyline clip-path="url(#clip840)" style="stroke:#000000; stroke-linecap:round; stroke-linejoin:round; stroke-width:4; stroke-opacity:1; fill:none" points="1507.25,1521.01 1507.25,1502.11 "/>
<polyline clip-path="url(#clip840)" style="stroke:#000000; stroke-linecap:round; stroke-linejoin:round; stroke-width:4; stroke-opacity:1; fill:none" points="1794.63,1521.01 1794.63,1502.11 "/>
<polyline clip-path="url(#clip840)" style="stroke:#000000; stroke-linecap:round; stroke-linejoin:round; stroke-width:4; stroke-opacity:1; fill:none" points="2082,1521.01 2082,1502.11 "/>
<path clip-path="url(#clip840)" d="M317.352 1579.47 L324.991 1579.47 L324.991 1553.11 L316.681 1554.77 L316.681 1550.51 L324.945 1548.85 L329.621 1548.85 L329.621 1579.47 L337.26 1579.47 L337.26 1583.41 L317.352 1583.41 L317.352 1579.47 Z" fill="#000000" fill-rule="nonzero" fill-opacity="1" /><path clip-path="url(#clip840)" d="M359.551 1552.92 L347.746 1571.37 L359.551 1571.37 L359.551 1552.92 M358.324 1548.85 L364.204 1548.85 L364.204 1571.37 L369.135 1571.37 L369.135 1575.26 L364.204 1575.26 L364.204 1583.41 L359.551 1583.41 L359.551 1575.26 L343.949 1575.26 L343.949 1570.75 L358.324 1548.85 Z" fill="#000000" fill-rule="nonzero" fill-opacity="1" /><path clip-path="url(#clip840)" d="M386.866 1551.93 Q383.255 1551.93 381.426 1555.49 Q379.621 1559.03 379.621 1566.16 Q379.621 1573.27 381.426 1576.83 Q383.255 1580.38 386.866 1580.38 Q390.5 1580.38 392.306 1576.83 Q394.134 1573.27 394.134 1566.16 Q394.134 1559.03 392.306 1555.49 Q390.5 1551.93 386.866 1551.93 M386.866 1548.22 Q392.676 1548.22 395.732 1552.83 Q398.81 1557.41 398.81 1566.16 Q398.81 1574.89 395.732 1579.5 Q392.676 1584.08 386.866 1584.08 Q381.056 1584.08 377.977 1579.5 Q374.922 1574.89 374.922 1566.16 Q374.922 1557.41 377.977 1552.83 Q381.056 1548.22 386.866 1548.22 Z" fill="#000000" fill-rule="nonzero" fill-opacity="1" /><path clip-path="url(#clip840)" d="M604.728 1579.47 L612.367 1579.47 L612.367 1553.11 L604.057 1554.77 L604.057 1550.51 L612.321 1548.85 L616.997 1548.85 L616.997 1579.47 L624.636 1579.47 L624.636 1583.41 L604.728 1583.41 L604.728 1579.47 Z" fill="#000000" fill-rule="nonzero" fill-opacity="1" /><path clip-path="url(#clip840)" d="M634.126 1548.85 L652.483 1548.85 L652.483 1552.78 L638.409 1552.78 L638.409 1561.26 Q639.427 1560.91 640.446 1560.75 Q641.464 1560.56 642.483 1560.56 Q648.27 1560.56 651.65 1563.73 Q655.029 1566.9 655.029 1572.32 Q655.029 1577.9 651.557 1581 Q648.085 1584.08 641.765 1584.08 Q639.589 1584.08 637.321 1583.71 Q635.076 1583.34 632.668 1582.6 L632.668 1577.9 Q634.751 1579.03 636.974 1579.59 Q639.196 1580.14 641.673 1580.14 Q645.677 1580.14 648.015 1578.04 Q650.353 1575.93 650.353 1572.32 Q650.353 1568.71 648.015 1566.6 Q645.677 1564.5 641.673 1564.5 Q639.798 1564.5 637.923 1564.91 Q636.071 1565.33 634.126 1566.21 L634.126 1548.85 Z" fill="#000000" fill-rule="nonzero" fill-opacity="1" /><path clip-path="url(#clip840)" d="M674.242 1551.93 Q670.631 1551.93 668.802 1555.49 Q666.997 1559.03 666.997 1566.16 Q666.997 1573.27 668.802 1576.83 Q670.631 1580.38 674.242 1580.38 Q677.876 1580.38 679.682 1576.83 Q681.51 1573.27 681.51 1566.16 Q681.51 1559.03 679.682 1555.49 Q677.876 1551.93 674.242 1551.93 M674.242 1548.22 Q680.052 1548.22 683.108 1552.83 Q686.186 1557.41 686.186 1566.16 Q686.186 1574.89 683.108 1579.5 Q680.052 1584.08 674.242 1584.08 Q668.432 1584.08 665.353 1579.5 Q662.298 1574.89 662.298 1566.16 Q662.298 1557.41 665.353 1552.83 Q668.432 1548.22 674.242 1548.22 Z" fill="#000000" fill-rule="nonzero" fill-opacity="1" /><path clip-path="url(#clip840)" d="M892.105 1579.47 L899.743 1579.47 L899.743 1553.11 L891.433 1554.77 L891.433 1550.51 L899.697 1548.85 L904.373 1548.85 L904.373 1579.47 L912.012 1579.47 L912.012 1583.41 L892.105 1583.41 L892.105 1579.47 Z" fill="#000000" fill-rule="nonzero" fill-opacity="1" /><path clip-path="url(#clip840)" d="M932.035 1564.26 Q928.887 1564.26 927.035 1566.42 Q925.206 1568.57 925.206 1572.32 Q925.206 1576.05 927.035 1578.22 Q928.887 1580.38 932.035 1580.38 Q935.183 1580.38 937.012 1578.22 Q938.864 1576.05 938.864 1572.32 Q938.864 1568.57 937.012 1566.42 Q935.183 1564.26 932.035 1564.26 M941.317 1549.61 L941.317 1553.87 Q939.558 1553.04 937.753 1552.6 Q935.97 1552.16 934.211 1552.16 Q929.581 1552.16 927.128 1555.28 Q924.697 1558.41 924.35 1564.73 Q925.716 1562.71 927.776 1561.65 Q929.836 1560.56 932.313 1560.56 Q937.521 1560.56 940.53 1563.73 Q943.563 1566.88 943.563 1572.32 Q943.563 1577.64 940.415 1580.86 Q937.266 1584.08 932.035 1584.08 Q926.04 1584.08 922.868 1579.5 Q919.697 1574.89 919.697 1566.16 Q919.697 1557.97 923.586 1553.11 Q927.475 1548.22 934.026 1548.22 Q935.785 1548.22 937.567 1548.57 Q939.373 1548.92 941.317 1549.61 Z" fill="#000000" fill-rule="nonzero" fill-opacity="1" /><path clip-path="url(#clip840)" d="M961.618 1551.93 Q958.007 1551.93 956.178 1555.49 Q954.373 1559.03 954.373 1566.16 Q954.373 1573.27 956.178 1576.83 Q958.007 1580.38 961.618 1580.38 Q965.252 1580.38 967.058 1576.83 Q968.887 1573.27 968.887 1566.16 Q968.887 1559.03 967.058 1555.49 Q965.252 1551.93 961.618 1551.93 M961.618 1548.22 Q967.428 1548.22 970.484 1552.83 Q973.562 1557.41 973.562 1566.16 Q973.562 1574.89 970.484 1579.5 Q967.428 1584.08 961.618 1584.08 Q955.808 1584.08 952.729 1579.5 Q949.674 1574.89 949.674 1566.16 Q949.674 1557.41 952.729 1552.83 Q955.808 1548.22 961.618 1548.22 Z" fill="#000000" fill-rule="nonzero" fill-opacity="1" /><path clip-path="url(#clip840)" d="M1179.48 1579.47 L1187.12 1579.47 L1187.12 1553.11 L1178.81 1554.77 L1178.81 1550.51 L1187.07 1548.85 L1191.75 1548.85 L1191.75 1579.47 L1199.39 1579.47 L1199.39 1583.41 L1179.48 1583.41 L1179.48 1579.47 Z" fill="#000000" fill-rule="nonzero" fill-opacity="1" /><path clip-path="url(#clip840)" d="M1207.65 1548.85 L1229.87 1548.85 L1229.87 1550.84 L1217.33 1583.41 L1212.44 1583.41 L1224.25 1552.78 L1207.65 1552.78 L1207.65 1548.85 Z" fill="#000000" fill-rule="nonzero" fill-opacity="1" /><path clip-path="url(#clip840)" d="M1248.99 1551.93 Q1245.38 1551.93 1243.55 1555.49 Q1241.75 1559.03 1241.75 1566.16 Q1241.75 1573.27 1243.55 1576.83 Q1245.38 1580.38 1248.99 1580.38 Q1252.63 1580.38 1254.43 1576.83 Q1256.26 1573.27 1256.26 1566.16 Q1256.26 1559.03 1254.43 1555.49 Q1252.63 1551.93 1248.99 1551.93 M1248.99 1548.22 Q1254.8 1548.22 1257.86 1552.83 Q1260.94 1557.41 1260.94 1566.16 Q1260.94 1574.89 1257.86 1579.5 Q1254.8 1584.08 1248.99 1584.08 Q1243.18 1584.08 1240.11 1579.5 Q1237.05 1574.89 1237.05 1566.16 Q1237.05 1557.41 1240.11 1552.83 Q1243.18 1548.22 1248.99 1548.22 Z" fill="#000000" fill-rule="nonzero" fill-opacity="1" /><path clip-path="url(#clip840)" d="M1466.86 1579.47 L1474.5 1579.47 L1474.5 1553.11 L1466.19 1554.77 L1466.19 1550.51 L1474.45 1548.85 L1479.13 1548.85 L1479.13 1579.47 L1486.76 1579.47 L1486.76 1583.41 L1466.86 1583.41 L1466.86 1579.47 Z" fill="#000000" fill-rule="nonzero" fill-opacity="1" /><path clip-path="url(#clip840)" d="M1506.21 1567 Q1502.88 1567 1500.95 1568.78 Q1499.06 1570.56 1499.06 1573.69 Q1499.06 1576.81 1500.95 1578.59 Q1502.88 1580.38 1506.21 1580.38 Q1509.54 1580.38 1511.46 1578.59 Q1513.38 1576.79 1513.38 1573.69 Q1513.38 1570.56 1511.46 1568.78 Q1509.56 1567 1506.21 1567 M1501.53 1565.01 Q1498.52 1564.26 1496.83 1562.2 Q1495.17 1560.14 1495.17 1557.18 Q1495.17 1553.04 1498.11 1550.63 Q1501.07 1548.22 1506.21 1548.22 Q1511.37 1548.22 1514.31 1550.63 Q1517.25 1553.04 1517.25 1557.18 Q1517.25 1560.14 1515.56 1562.2 Q1513.89 1564.26 1510.91 1565.01 Q1514.29 1565.79 1516.16 1568.08 Q1518.06 1570.38 1518.06 1573.69 Q1518.06 1578.71 1514.98 1581.39 Q1511.93 1584.08 1506.21 1584.08 Q1500.49 1584.08 1497.41 1581.39 Q1494.36 1578.71 1494.36 1573.69 Q1494.36 1570.38 1496.25 1568.08 Q1498.15 1565.79 1501.53 1565.01 M1499.82 1557.62 Q1499.82 1560.31 1501.49 1561.81 Q1503.18 1563.32 1506.21 1563.32 Q1509.22 1563.32 1510.91 1561.81 Q1512.62 1560.31 1512.62 1557.62 Q1512.62 1554.94 1510.91 1553.43 Q1509.22 1551.93 1506.21 1551.93 Q1503.18 1551.93 1501.49 1553.43 Q1499.82 1554.94 1499.82 1557.62 Z" fill="#000000" fill-rule="nonzero" fill-opacity="1" /><path clip-path="url(#clip840)" d="M1536.37 1551.93 Q1532.76 1551.93 1530.93 1555.49 Q1529.13 1559.03 1529.13 1566.16 Q1529.13 1573.27 1530.93 1576.83 Q1532.76 1580.38 1536.37 1580.38 Q1540 1580.38 1541.81 1576.83 Q1543.64 1573.27 1543.64 1566.16 Q1543.64 1559.03 1541.81 1555.49 Q1540 1551.93 1536.37 1551.93 M1536.37 1548.22 Q1542.18 1548.22 1545.24 1552.83 Q1548.31 1557.41 1548.31 1566.16 Q1548.31 1574.89 1545.24 1579.5 Q1542.18 1584.08 1536.37 1584.08 Q1530.56 1584.08 1527.48 1579.5 Q1524.43 1574.89 1524.43 1566.16 Q1524.43 1557.41 1527.48 1552.83 Q1530.56 1548.22 1536.37 1548.22 Z" fill="#000000" fill-rule="nonzero" fill-opacity="1" /><path clip-path="url(#clip840)" d="M1754.23 1579.47 L1761.87 1579.47 L1761.87 1553.11 L1753.56 1554.77 L1753.56 1550.51 L1761.83 1548.85 L1766.5 1548.85 L1766.5 1579.47 L1774.14 1579.47 L1774.14 1583.41 L1754.23 1583.41 L1754.23 1579.47 Z" fill="#000000" fill-rule="nonzero" fill-opacity="1" /><path clip-path="url(#clip840)" d="M1783.72 1582.69 L1783.72 1578.43 Q1785.48 1579.26 1787.29 1579.7 Q1789.09 1580.14 1790.83 1580.14 Q1795.46 1580.14 1797.89 1577.04 Q1800.34 1573.92 1800.69 1567.57 Q1799.35 1569.57 1797.29 1570.63 Q1795.23 1571.69 1792.73 1571.69 Q1787.54 1571.69 1784.51 1568.57 Q1781.5 1565.42 1781.5 1559.98 Q1781.5 1554.66 1784.65 1551.44 Q1787.8 1548.22 1793.03 1548.22 Q1799.02 1548.22 1802.17 1552.83 Q1805.34 1557.41 1805.34 1566.16 Q1805.34 1574.33 1801.45 1579.22 Q1797.59 1584.08 1791.04 1584.08 Q1789.28 1584.08 1787.47 1583.73 Q1785.67 1583.38 1783.72 1582.69 M1793.03 1568.04 Q1796.18 1568.04 1798.01 1565.88 Q1799.86 1563.73 1799.86 1559.98 Q1799.86 1556.26 1798.01 1554.1 Q1796.18 1551.93 1793.03 1551.93 Q1789.88 1551.93 1788.03 1554.1 Q1786.2 1556.26 1786.2 1559.98 Q1786.2 1563.73 1788.03 1565.88 Q1789.88 1568.04 1793.03 1568.04 Z" fill="#000000" fill-rule="nonzero" fill-opacity="1" /><path clip-path="url(#clip840)" d="M1823.75 1551.93 Q1820.14 1551.93 1818.31 1555.49 Q1816.5 1559.03 1816.5 1566.16 Q1816.5 1573.27 1818.31 1576.83 Q1820.14 1580.38 1823.75 1580.38 Q1827.38 1580.38 1829.19 1576.83 Q1831.01 1573.27 1831.01 1566.16 Q1831.01 1559.03 1829.19 1555.49 Q1827.38 1551.93 1823.75 1551.93 M1823.75 1548.22 Q1829.56 1548.22 1832.61 1552.83 Q1835.69 1557.41 1835.69 1566.16 Q1835.69 1574.89 1832.61 1579.5 Q1829.56 1584.08 1823.75 1584.08 Q1817.94 1584.08 1814.86 1579.5 Q1811.8 1574.89 1811.8 1566.16 Q1811.8 1557.41 1814.86 1552.83 Q1817.94 1548.22 1823.75 1548.22 Z" fill="#000000" fill-rule="nonzero" fill-opacity="1" /><path clip-path="url(#clip840)" d="M2045.69 1579.47 L2062.01 1579.47 L2062.01 1583.41 L2040.07 1583.41 L2040.07 1579.47 Q2042.73 1576.72 2047.32 1572.09 Q2051.92 1567.44 2053.1 1566.09 Q2055.35 1563.57 2056.23 1561.83 Q2057.13 1560.07 2057.13 1558.38 Q2057.13 1555.63 2055.19 1553.89 Q2053.26 1552.16 2050.16 1552.16 Q2047.96 1552.16 2045.51 1552.92 Q2043.08 1553.69 2040.3 1555.24 L2040.3 1550.51 Q2043.13 1549.38 2045.58 1548.8 Q2048.03 1548.22 2050.07 1548.22 Q2055.44 1548.22 2058.63 1550.91 Q2061.83 1553.59 2061.83 1558.08 Q2061.83 1560.21 2061.02 1562.13 Q2060.23 1564.03 2058.13 1566.63 Q2057.55 1567.3 2054.44 1570.51 Q2051.34 1573.71 2045.69 1579.47 Z" fill="#000000" fill-rule="nonzero" fill-opacity="1" /><path clip-path="url(#clip840)" d="M2081.83 1551.93 Q2078.22 1551.93 2076.39 1555.49 Q2074.58 1559.03 2074.58 1566.16 Q2074.58 1573.27 2076.39 1576.83 Q2078.22 1580.38 2081.83 1580.38 Q2085.46 1580.38 2087.27 1576.83 Q2089.1 1573.27 2089.1 1566.16 Q2089.1 1559.03 2087.27 1555.49 Q2085.46 1551.93 2081.83 1551.93 M2081.83 1548.22 Q2087.64 1548.22 2090.69 1552.83 Q2093.77 1557.41 2093.77 1566.16 Q2093.77 1574.89 2090.69 1579.5 Q2087.64 1584.08 2081.83 1584.08 Q2076.02 1584.08 2072.94 1579.5 Q2069.88 1574.89 2069.88 1566.16 Q2069.88 1557.41 2072.94 1552.83 Q2076.02 1548.22 2081.83 1548.22 Z" fill="#000000" fill-rule="nonzero" fill-opacity="1" /><path clip-path="url(#clip840)" d="M2111.99 1551.93 Q2108.38 1551.93 2106.55 1555.49 Q2104.75 1559.03 2104.75 1566.16 Q2104.75 1573.27 2106.55 1576.83 Q2108.38 1580.38 2111.99 1580.38 Q2115.62 1580.38 2117.43 1576.83 Q2119.26 1573.27 2119.26 1566.16 Q2119.26 1559.03 2117.43 1555.49 Q2115.62 1551.93 2111.99 1551.93 M2111.99 1548.22 Q2117.8 1548.22 2120.86 1552.83 Q2123.93 1557.41 2123.93 1566.16 Q2123.93 1574.89 2120.86 1579.5 Q2117.8 1584.08 2111.99 1584.08 Q2106.18 1584.08 2103.1 1579.5 Q2100.05 1574.89 2100.05 1566.16 Q2100.05 1557.41 2103.1 1552.83 Q2106.18 1548.22 2111.99 1548.22 Z" fill="#000000" fill-rule="nonzero" fill-opacity="1" /><polyline clip-path="url(#clip842)" style="stroke:#000000; stroke-linecap:round; stroke-linejoin:round; stroke-width:2; stroke-opacity:0.1; fill:none" points="86.9921,1479.71 2352.76,1479.71 "/>
<polyline clip-path="url(#clip842)" style="stroke:#000000; stroke-linecap:round; stroke-linejoin:round; stroke-width:2; stroke-opacity:0.1; fill:none" points="86.9921,1131.05 2352.76,1131.05 "/>
<polyline clip-path="url(#clip842)" style="stroke:#000000; stroke-linecap:round; stroke-linejoin:round; stroke-width:2; stroke-opacity:0.1; fill:none" points="86.9921,782.398 2352.76,782.398 "/>
<polyline clip-path="url(#clip842)" style="stroke:#000000; stroke-linecap:round; stroke-linejoin:round; stroke-width:2; stroke-opacity:0.1; fill:none" points="86.9921,433.742 2352.76,433.742 "/>
<polyline clip-path="url(#clip842)" style="stroke:#000000; stroke-linecap:round; stroke-linejoin:round; stroke-width:2; stroke-opacity:0.1; fill:none" points="86.9921,85.0849 2352.76,85.0849 "/>
<polyline clip-path="url(#clip840)" style="stroke:#000000; stroke-linecap:round; stroke-linejoin:round; stroke-width:4; stroke-opacity:1; fill:none" points="86.9921,1521.01 86.9921,47.2441 "/>
<polyline clip-path="url(#clip840)" style="stroke:#000000; stroke-linecap:round; stroke-linejoin:round; stroke-width:4; stroke-opacity:1; fill:none" points="86.9921,1479.71 105.89,1479.71 "/>
<polyline clip-path="url(#clip840)" style="stroke:#000000; stroke-linecap:round; stroke-linejoin:round; stroke-width:4; stroke-opacity:1; fill:none" points="86.9921,1131.05 105.89,1131.05 "/>
<polyline clip-path="url(#clip840)" style="stroke:#000000; stroke-linecap:round; stroke-linejoin:round; stroke-width:4; stroke-opacity:1; fill:none" points="86.9921,782.398 105.89,782.398 "/>
<polyline clip-path="url(#clip840)" style="stroke:#000000; stroke-linecap:round; stroke-linejoin:round; stroke-width:4; stroke-opacity:1; fill:none" points="86.9921,433.742 105.89,433.742 "/>
<polyline clip-path="url(#clip840)" style="stroke:#000000; stroke-linecap:round; stroke-linejoin:round; stroke-width:4; stroke-opacity:1; fill:none" points="86.9921,85.0849 105.89,85.0849 "/>
<path clip-path="url(#clip840)" d="M-36.3454 1465.51 Q-39.9565 1465.51 -41.7852 1469.08 Q-43.5907 1472.62 -43.5907 1479.75 Q-43.5907 1486.85 -41.7852 1490.42 Q-39.9565 1493.96 -36.3454 1493.96 Q-32.7111 1493.96 -30.9056 1490.42 Q-29.0769 1486.85 -29.0769 1479.75 Q-29.0769 1472.62 -30.9056 1469.08 Q-32.7111 1465.51 -36.3454 1465.51 M-36.3454 1461.81 Q-30.5352 1461.81 -27.4797 1466.41 Q-24.401 1471 -24.401 1479.75 Q-24.401 1488.47 -27.4797 1493.08 Q-30.5352 1497.66 -36.3454 1497.66 Q-42.1555 1497.66 -45.2342 1493.08 Q-48.2897 1488.47 -48.2897 1479.75 Q-48.2897 1471 -45.2342 1466.41 Q-42.1555 1461.81 -36.3454 1461.81 Z" fill="#000000" fill-rule="nonzero" fill-opacity="1" /><path clip-path="url(#clip840)" d="M-16.1834 1491.11 L-11.2992 1491.11 L-11.2992 1496.99 L-16.1834 1496.99 L-16.1834 1491.11 Z" fill="#000000" fill-rule="nonzero" fill-opacity="1" /><path clip-path="url(#clip840)" d="M8.88587 1465.51 Q5.27478 1465.51 3.44608 1469.08 Q1.64054 1472.62 1.64054 1479.75 Q1.64054 1486.85 3.44608 1490.42 Q5.27478 1493.96 8.88587 1493.96 Q12.5201 1493.96 14.3257 1490.42 Q16.1543 1486.85 16.1543 1479.75 Q16.1543 1472.62 14.3257 1469.08 Q12.5201 1465.51 8.88587 1465.51 M8.88587 1461.81 Q14.696 1461.81 17.7516 1466.41 Q20.8303 1471 20.8303 1479.75 Q20.8303 1488.47 17.7516 1493.08 Q14.696 1497.66 8.88587 1497.66 Q3.07572 1497.66 -0.00297114 1493.08 Q-3.05851 1488.47 -3.05851 1479.75 Q-3.05851 1471 -0.00297114 1466.41 Q3.07572 1461.81 8.88587 1461.81 Z" fill="#000000" fill-rule="nonzero" fill-opacity="1" /><path clip-path="url(#clip840)" d="M39.0477 1465.51 Q35.4367 1465.51 33.608 1469.08 Q31.8024 1472.62 31.8024 1479.75 Q31.8024 1486.85 33.608 1490.42 Q35.4367 1493.96 39.0477 1493.96 Q42.682 1493.96 44.4875 1490.42 Q46.3162 1486.85 46.3162 1479.75 Q46.3162 1472.62 44.4875 1469.08 Q42.682 1465.51 39.0477 1465.51 M39.0477 1461.81 Q44.8579 1461.81 47.9134 1466.41 Q50.9921 1471 50.9921 1479.75 Q50.9921 1488.47 47.9134 1493.08 Q44.8579 1497.66 39.0477 1497.66 Q33.2376 1497.66 30.1589 1493.08 Q27.1034 1488.47 27.1034 1479.75 Q27.1034 1471 30.1589 1466.41 Q33.2376 1461.81 39.0477 1461.81 Z" fill="#000000" fill-rule="nonzero" fill-opacity="1" /><path clip-path="url(#clip840)" d="M-34.7482 1116.85 Q-38.3592 1116.85 -40.1879 1120.42 Q-41.9935 1123.96 -41.9935 1131.09 Q-41.9935 1138.2 -40.1879 1141.76 Q-38.3592 1145.3 -34.7482 1145.3 Q-31.1139 1145.3 -29.3084 1141.76 Q-27.4797 1138.2 -27.4797 1131.09 Q-27.4797 1123.96 -29.3084 1120.42 Q-31.1139 1116.85 -34.7482 1116.85 M-34.7482 1113.15 Q-28.938 1113.15 -25.8825 1117.76 Q-22.8038 1122.34 -22.8038 1131.09 Q-22.8038 1139.82 -25.8825 1144.42 Q-28.938 1149.01 -34.7482 1149.01 Q-40.5583 1149.01 -43.637 1144.42 Q-46.6925 1139.82 -46.6925 1131.09 Q-46.6925 1122.34 -43.637 1117.76 Q-40.5583 1113.15 -34.7482 1113.15 Z" fill="#000000" fill-rule="nonzero" fill-opacity="1" /><path clip-path="url(#clip840)" d="M-14.5862 1142.46 L-9.70199 1142.46 L-9.70199 1148.33 L-14.5862 1148.33 L-14.5862 1142.46 Z" fill="#000000" fill-rule="nonzero" fill-opacity="1" /><path clip-path="url(#clip840)" d="M10.4831 1116.85 Q6.87199 1116.85 5.0433 1120.42 Q3.23775 1123.96 3.23775 1131.09 Q3.23775 1138.2 5.0433 1141.76 Q6.87199 1145.3 10.4831 1145.3 Q14.1173 1145.3 15.9229 1141.76 Q17.7516 1138.2 17.7516 1131.09 Q17.7516 1123.96 15.9229 1120.42 Q14.1173 1116.85 10.4831 1116.85 M10.4831 1113.15 Q16.2932 1113.15 19.3488 1117.76 Q22.4275 1122.34 22.4275 1131.09 Q22.4275 1139.82 19.3488 1144.42 Q16.2932 1149.01 10.4831 1149.01 Q4.67293 1149.01 1.59424 1144.42 Q-1.4613 1139.82 -1.4613 1131.09 Q-1.4613 1122.34 1.59424 1117.76 Q4.67293 1113.15 10.4831 1113.15 Z" fill="#000000" fill-rule="nonzero" fill-opacity="1" /><path clip-path="url(#clip840)" d="M34.6728 1144.4 L50.9921 1144.4 L50.9921 1148.33 L29.0478 1148.33 L29.0478 1144.4 Q31.7098 1141.65 36.2931 1137.02 Q40.8996 1132.36 42.0801 1131.02 Q44.3255 1128.5 45.2051 1126.76 Q46.1079 1125 46.1079 1123.31 Q46.1079 1120.56 44.1635 1118.82 Q42.2422 1117.09 39.1403 1117.09 Q36.9413 1117.09 34.4876 1117.85 Q32.057 1118.61 29.2793 1120.16 L29.2793 1115.44 Q32.1033 1114.31 34.557 1113.73 Q37.0107 1113.15 39.0477 1113.15 Q44.4181 1113.15 47.6125 1115.84 Q50.8069 1118.52 50.8069 1123.01 Q50.8069 1125.14 49.9968 1127.06 Q49.2097 1128.96 47.1033 1131.55 Q46.5246 1132.22 43.4227 1135.44 Q40.3209 1138.64 34.6728 1144.4 Z" fill="#000000" fill-rule="nonzero" fill-opacity="1" /><path clip-path="url(#clip840)" d="M-36.8315 768.197 Q-40.4426 768.197 -42.2713 771.762 Q-44.0768 775.303 -44.0768 782.433 Q-44.0768 789.539 -42.2713 793.104 Q-40.4426 796.646 -36.8315 796.646 Q-33.1972 796.646 -31.3917 793.104 Q-29.563 789.539 -29.563 782.433 Q-29.563 775.303 -31.3917 771.762 Q-33.1972 768.197 -36.8315 768.197 M-36.8315 764.493 Q-31.0213 764.493 -27.9658 769.1 Q-24.8871 773.683 -24.8871 782.433 Q-24.8871 791.16 -27.9658 795.766 Q-31.0213 800.35 -36.8315 800.35 Q-42.6416 800.35 -45.7203 795.766 Q-48.7759 791.16 -48.7759 782.433 Q-48.7759 773.683 -45.7203 769.1 Q-42.6416 764.493 -36.8315 764.493 Z" fill="#000000" fill-rule="nonzero" fill-opacity="1" /><path clip-path="url(#clip840)" d="M-16.6695 793.799 L-11.7853 793.799 L-11.7853 799.678 L-16.6695 799.678 L-16.6695 793.799 Z" fill="#000000" fill-rule="nonzero" fill-opacity="1" /><path clip-path="url(#clip840)" d="M8.39976 768.197 Q4.78867 768.197 2.95998 771.762 Q1.15443 775.303 1.15443 782.433 Q1.15443 789.539 2.95998 793.104 Q4.78867 796.646 8.39976 796.646 Q12.034 796.646 13.8395 793.104 Q15.6682 789.539 15.6682 782.433 Q15.6682 775.303 13.8395 771.762 Q12.034 768.197 8.39976 768.197 M8.39976 764.493 Q14.2099 764.493 17.2655 769.1 Q20.3441 773.683 20.3441 782.433 Q20.3441 791.16 17.2655 795.766 Q14.2099 800.35 8.39976 800.35 Q2.58961 800.35 -0.48908 795.766 Q-3.54462 791.16 -3.54462 782.433 Q-3.54462 773.683 -0.48908 769.1 Q2.58961 764.493 8.39976 764.493 Z" fill="#000000" fill-rule="nonzero" fill-opacity="1" /><path clip-path="url(#clip840)" d="M41.4088 769.192 L29.6034 787.641 L41.4088 787.641 L41.4088 769.192 M40.182 765.118 L46.0616 765.118 L46.0616 787.641 L50.9921 787.641 L50.9921 791.53 L46.0616 791.53 L46.0616 799.678 L41.4088 799.678 L41.4088 791.53 L25.8071 791.53 L25.8071 787.016 L40.182 765.118 Z" fill="#000000" fill-rule="nonzero" fill-opacity="1" /><path clip-path="url(#clip840)" d="M-36.5074 419.54 Q-40.1185 419.54 -41.9472 423.105 Q-43.7527 426.647 -43.7527 433.776 Q-43.7527 440.883 -41.9472 444.448 Q-40.1185 447.989 -36.5074 447.989 Q-32.8732 447.989 -31.0676 444.448 Q-29.2389 440.883 -29.2389 433.776 Q-29.2389 426.647 -31.0676 423.105 Q-32.8732 419.54 -36.5074 419.54 M-36.5074 415.837 Q-30.6973 415.837 -27.6417 420.443 Q-24.563 425.026 -24.563 433.776 Q-24.563 442.503 -27.6417 447.11 Q-30.6973 451.693 -36.5074 451.693 Q-42.3176 451.693 -45.3962 447.11 Q-48.4518 442.503 -48.4518 433.776 Q-48.4518 425.026 -45.3962 420.443 Q-42.3176 415.837 -36.5074 415.837 Z" fill="#000000" fill-rule="nonzero" fill-opacity="1" /><path clip-path="url(#clip840)" d="M-16.3455 445.142 L-11.4612 445.142 L-11.4612 451.022 L-16.3455 451.022 L-16.3455 445.142 Z" fill="#000000" fill-rule="nonzero" fill-opacity="1" /><path clip-path="url(#clip840)" d="M8.72383 419.54 Q5.11274 419.54 3.28405 423.105 Q1.4785 426.647 1.4785 433.776 Q1.4785 440.883 3.28405 444.448 Q5.11274 447.989 8.72383 447.989 Q12.3581 447.989 14.1636 444.448 Q15.9923 440.883 15.9923 433.776 Q15.9923 426.647 14.1636 423.105 Q12.3581 419.54 8.72383 419.54 M8.72383 415.837 Q14.534 415.837 17.5895 420.443 Q20.6682 425.026 20.6682 433.776 Q20.6682 442.503 17.5895 447.11 Q14.534 451.693 8.72383 451.693 Q2.91368 451.693 -0.165007 447.11 Q-3.22055 442.503 -3.22055 433.776 Q-3.22055 425.026 -0.165007 420.443 Q2.91368 415.837 8.72383 415.837 Z" fill="#000000" fill-rule="nonzero" fill-opacity="1" /><path clip-path="url(#clip840)" d="M39.4644 431.878 Q36.3163 431.878 34.4644 434.031 Q32.6357 436.184 32.6357 439.934 Q32.6357 443.661 34.4644 445.836 Q36.3163 447.989 39.4644 447.989 Q42.6125 447.989 44.4412 445.836 Q46.2931 443.661 46.2931 439.934 Q46.2931 436.184 44.4412 434.031 Q42.6125 431.878 39.4644 431.878 M48.7468 417.225 L48.7468 421.485 Q46.9875 420.651 45.182 420.212 Q43.3996 419.772 41.6403 419.772 Q37.0107 419.772 34.557 422.897 Q32.1265 426.022 31.7793 432.341 Q33.145 430.327 35.2052 429.262 Q37.2653 428.174 39.7422 428.174 Q44.9505 428.174 47.9597 431.346 Q50.9921 434.494 50.9921 439.934 Q50.9921 445.258 47.844 448.475 Q44.6959 451.693 39.4644 451.693 Q33.4691 451.693 30.2978 447.11 Q27.1265 442.503 27.1265 433.776 Q27.1265 425.582 31.0154 420.721 Q34.9042 415.837 41.4551 415.837 Q43.2144 415.837 44.9968 416.184 Q46.8023 416.531 48.7468 417.225 Z" fill="#000000" fill-rule="nonzero" fill-opacity="1" /><path clip-path="url(#clip840)" d="M-36.2528 70.8836 Q-39.8639 70.8836 -41.6926 74.4484 Q-43.4981 77.99 -43.4981 85.1196 Q-43.4981 92.2261 -41.6926 95.7909 Q-39.8639 99.3325 -36.2528 99.3325 Q-32.6185 99.3325 -30.813 95.7909 Q-28.9843 92.2261 -28.9843 85.1196 Q-28.9843 77.99 -30.813 74.4484 Q-32.6185 70.8836 -36.2528 70.8836 M-36.2528 67.1799 Q-30.4426 67.1799 -27.3871 71.7864 Q-24.3084 76.3697 -24.3084 85.1196 Q-24.3084 93.8464 -27.3871 98.4529 Q-30.4426 103.036 -36.2528 103.036 Q-42.0629 103.036 -45.1416 98.4529 Q-48.1972 93.8464 -48.1972 85.1196 Q-48.1972 76.3697 -45.1416 71.7864 Q-42.0629 67.1799 -36.2528 67.1799 Z" fill="#000000" fill-rule="nonzero" fill-opacity="1" /><path clip-path="url(#clip840)" d="M-16.0908 96.4853 L-11.2066 96.4853 L-11.2066 102.365 L-16.0908 102.365 L-16.0908 96.4853 Z" fill="#000000" fill-rule="nonzero" fill-opacity="1" /><path clip-path="url(#clip840)" d="M8.97846 70.8836 Q5.36737 70.8836 3.53868 74.4484 Q1.73313 77.99 1.73313 85.1196 Q1.73313 92.2261 3.53868 95.7909 Q5.36737 99.3325 8.97846 99.3325 Q12.6127 99.3325 14.4182 95.7909 Q16.2469 92.2261 16.2469 85.1196 Q16.2469 77.99 14.4182 74.4484 Q12.6127 70.8836 8.97846 70.8836 M8.97846 67.1799 Q14.7886 67.1799 17.8442 71.7864 Q20.9228 76.3697 20.9228 85.1196 Q20.9228 93.8464 17.8442 98.4529 Q14.7886 103.036 8.97846 103.036 Q3.16831 103.036 0.089621 98.4529 Q-2.96592 93.8464 -2.96592 85.1196 Q-2.96592 76.3697 0.089621 71.7864 Q3.16831 67.1799 8.97846 67.1799 Z" fill="#000000" fill-rule="nonzero" fill-opacity="1" /><path clip-path="url(#clip840)" d="M39.1403 85.9529 Q35.807 85.9529 33.8857 87.7353 Q31.9876 89.5177 31.9876 92.6427 Q31.9876 95.7677 33.8857 97.5501 Q35.807 99.3325 39.1403 99.3325 Q42.4737 99.3325 44.3949 97.5501 Q46.3162 95.7446 46.3162 92.6427 Q46.3162 89.5177 44.3949 87.7353 Q42.4968 85.9529 39.1403 85.9529 M34.4644 83.9622 Q31.4552 83.2215 29.7654 81.1613 Q28.0987 79.1011 28.0987 76.1382 Q28.0987 71.9947 31.0385 69.5873 Q34.0015 67.1799 39.1403 67.1799 Q44.3023 67.1799 47.2421 69.5873 Q50.1819 71.9947 50.1819 76.1382 Q50.1819 79.1011 48.4921 81.1613 Q46.8255 83.2215 43.8394 83.9622 Q47.219 84.7492 49.094 87.0409 Q50.9921 89.3326 50.9921 92.6427 Q50.9921 97.6658 47.9134 100.351 Q44.8579 103.036 39.1403 103.036 Q33.4228 103.036 30.3441 100.351 Q27.2885 97.6658 27.2885 92.6427 Q27.2885 89.3326 29.1867 87.0409 Q31.0848 84.7492 34.4644 83.9622 M32.7515 76.578 Q32.7515 79.2632 34.4181 80.7678 Q36.1079 82.2724 39.1403 82.2724 Q42.1496 82.2724 43.8394 80.7678 Q45.5523 79.2632 45.5523 76.578 Q45.5523 73.8928 43.8394 72.3882 Q42.1496 70.8836 39.1403 70.8836 Q36.1079 70.8836 34.4181 72.3882 Q32.7515 73.8928 32.7515 76.578 Z" fill="#000000" fill-rule="nonzero" fill-opacity="1" /><polyline clip-path="url(#clip842)" style="stroke:#009af9; stroke-linecap:round; stroke-linejoin:round; stroke-width:4; stroke-opacity:1; fill:none" points="151.118,1479.02 158.076,1478.96 165.034,1478.89 229.372,1477.88 293.711,1475.85 332.376,1473.81 371.04,1470.84 403.731,1467.38 436.422,1462.79 454.177,1459.73 471.933,1456.2 489.688,1452.15 507.444,1447.52 523.813,1442.7 540.182,1437.29 556.551,1431.25 572.92,1424.54 590.469,1416.52 608.019,1407.61 625.568,1397.76 643.117,1386.9 663.45,1373 683.783,1357.64 704.115,1340.77 724.448,1322.35 742.517,1304.68 760.586,1285.79 778.656,1265.71 796.725,1244.49 812.57,1224.99 828.415,1204.7 844.26,1183.7 860.105,1162.06 894.656,1113.12 929.207,1062.72 963.963,1011.89 998.719,962.49 1008.33,949.307 1017.93,936.397 1027.54,923.793 1037.15,911.533 1046.75,899.65 1056.36,888.181 1065.97,877.158 1075.57,866.616 1084.71,857.061 1093.86,847.996 1103,839.447 1112.14,831.438 1121.28,823.993 1130.42,817.134 1139.56,810.879 1148.7,805.248 1158.2,800.073 1167.71,795.607 1177.21,791.864 1186.72,788.856 1196.22,786.594 1205.72,785.085 1215.23,784.333 1224.73,784.342 1232.73,784.938 1240.73,786.072 1248.73,787.741 1256.74,789.94 1264.74,792.665 1272.74,795.909 1280.74,799.666 1288.74,803.926 1298.5,809.794 1308.27,816.379 1318.04,823.657 1327.81,831.605 1337.58,840.196 1347.34,849.401 1357.11,859.191 1366.88,869.534 1384.77,889.81 1402.67,911.619 1411.62,923.03 1420.57,934.74 1429.51,946.72 1438.46,958.943 1471.52,1005.72 1504.57,1053.96 1538.06,1102.94 1571.54,1150.78 1590.31,1176.69 1609.07,1201.74 1627.83,1225.81 1646.6,1248.78 1663.6,1268.57 1680.6,1287.34 1697.61,1305.06 1714.61,1321.69 1734.08,1339.41 1753.54,1355.71 1773.01,1370.62 1792.48,1384.17 1810.5,1395.56 1828.53,1405.89 1846.55,1415.2 1864.58,1423.55 1882.35,1430.92 1900.12,1437.48 1917.89,1443.3 1935.66,1448.44 1952.91,1452.83 1970.16,1456.69 1987.42,1460.07 2004.67,1463.01 2040.04,1467.87 2075.42,1471.44 2114.17,1474.22 2152.93,1476.14 2209.23,1477.86 2265.53,1478.78 2277.08,1478.91 2288.63,1479.02 "/>
<polyline clip-path="url(#clip842)" style="stroke:#e26f46; stroke-linecap:round; stroke-linejoin:round; stroke-width:4; stroke-opacity:1; fill:none" points="398.12,1478.33 401.599,1478.2 405.078,1478.06 437.247,1476.05 469.416,1471.99 488.749,1467.9 508.081,1461.98 524.426,1455.06 540.772,1445.87 549.649,1439.74 558.527,1432.68 567.405,1424.58 576.283,1415.33 584.467,1405.69 592.652,1394.87 600.836,1382.8 609.021,1369.36 617.796,1353.33 626.57,1335.51 635.345,1315.8 644.12,1294.08 654.286,1266.29 664.452,1235.57 674.619,1201.82 684.785,1164.98 693.819,1129.64 702.854,1091.87 711.889,1051.72 720.923,1009.27 728.846,970.259 736.768,929.687 744.691,887.686 752.614,844.412 769.889,746.536 787.164,645.725 804.543,544.07 821.921,445.268 826.724,418.903 831.527,393.081 836.331,367.874 841.134,343.353 845.938,319.589 850.741,296.65 855.545,274.605 860.348,253.521 864.918,234.41 869.489,216.28 874.059,199.182 878.629,183.165 883.2,168.275 887.77,154.556 892.34,142.047 896.911,130.785 901.663,120.435 906.415,111.502 911.167,104.015 915.919,98.0005 920.671,93.4763 925.423,90.4576 930.175,88.9544 934.928,88.9715 938.928,90.1646 942.928,92.4324 946.928,95.7694 950.929,100.168 954.929,105.618 958.929,112.107 962.929,119.62 966.929,128.14 971.813,139.877 976.697,153.047 981.581,167.603 986.465,183.498 991.349,200.679 996.233,219.09 1001.12,238.67 1006,259.357 1014.95,299.908 1023.9,343.527 1028.37,366.348 1032.84,389.768 1037.32,413.729 1041.79,438.174 1058.32,531.721 1074.85,628.207 1091.59,726.171 1108.33,821.857 1117.71,873.668 1127.1,923.773 1136.48,971.906 1145.86,1017.84 1154.36,1057.43 1162.86,1094.97 1171.36,1130.4 1179.87,1163.68 1189.6,1199.11 1199.33,1231.71 1209.07,1261.53 1218.8,1288.64 1227.81,1311.42 1236.82,1332.06 1245.84,1350.68 1254.85,1367.4 1263.73,1382.13 1272.62,1395.26 1281.5,1406.9 1290.39,1417.17 1299.02,1425.95 1307.64,1433.67 1316.27,1440.42 1324.9,1446.3 1342.58,1456.02 1360.27,1463.16 1379.65,1468.74 1399.03,1472.56 1427.18,1476 1455.33,1477.86 1461.1,1478.11 1466.88,1478.33 "/>
<polyline clip-path="url(#clip842)" style="stroke:#3da44d; stroke-linecap:round; stroke-linejoin:round; stroke-width:4; stroke-opacity:1; fill:none" points="151.118,1479.3 158.076,1479.26 165.034,1479.22 229.372,1478.61 293.711,1477.37 332.376,1476.08 371.04,1474.12 403.731,1471.68 436.422,1468.12 454.177,1465.54 471.933,1462.33 489.688,1458.35 507.444,1453.4 523.813,1447.76 540.182,1440.88 556.551,1432.49 572.92,1422.31 581.695,1416.01 590.469,1409.06 599.244,1401.41 608.019,1393 616.793,1383.78 625.568,1373.71 634.343,1362.73 643.117,1350.8 653.284,1335.74 663.45,1319.29 673.616,1301.42 683.783,1282.09 693.949,1261.28 704.115,1239.02 714.282,1215.33 724.448,1190.25 733.483,1166.88 742.517,1142.54 751.552,1117.34 760.586,1091.38 778.656,1037.66 796.725,982.551 812.57,934.142 828.415,886.718 836.338,863.706 844.26,841.338 852.183,819.747 860.105,799.062 868.743,777.685 877.381,757.683 886.019,739.195 894.656,722.347 903.294,707.25 911.932,693.994 920.569,682.655 929.207,673.286 937.896,665.881 946.585,660.513 955.274,657.172 963.963,655.825 972.652,656.422 981.341,658.889 990.03,663.137 998.719,669.061 1008.33,677.416 1017.93,687.494 1027.54,699.103 1037.15,712.041 1046.75,726.102 1056.36,741.078 1065.97,756.763 1075.57,772.959 1093.86,804.519 1112.14,836.085 1130.42,866.703 1148.7,895.665 1158.2,909.907 1167.71,923.535 1177.21,936.528 1186.72,948.879 1196.22,960.594 1205.72,971.691 1215.23,982.2 1224.73,992.157 1240.73,1007.8 1256.74,1022.23 1272.74,1035.71 1288.74,1048.5 1327.81,1078.21 1366.88,1107.84 1402.67,1136.22 1438.46,1166.12 1504.57,1224.06 1571.54,1282.33 1590.31,1297.88 1609.07,1312.92 1627.83,1327.37 1646.6,1341.15 1663.6,1353.03 1680.6,1364.29 1697.61,1374.92 1714.61,1384.9 1734.08,1395.53 1753.54,1405.31 1773.01,1414.26 1792.48,1422.39 1810.5,1429.22 1828.53,1435.42 1846.55,1441 1864.58,1446.02 1900.12,1454.38 1935.66,1460.95 1970.16,1465.9 2004.67,1469.69 2040.04,1472.6 2075.42,1474.75 2114.17,1476.42 2152.93,1477.57 2209.23,1478.6 2265.53,1479.16 2277.08,1479.23 2288.63,1479.3 "/>
<path clip-path="url(#clip840)" d="M1772.25 303.73 L2277.23 303.73 L2277.23 96.3696 L1772.25 96.3696  Z" fill="#ffffff" fill-rule="evenodd" fill-opacity="1"/>
<polyline clip-path="url(#clip840)" style="stroke:#000000; stroke-linecap:round; stroke-linejoin:round; stroke-width:4; stroke-opacity:1; fill:none" points="1772.25,303.73 2277.23,303.73 2277.23,96.3696 1772.25,96.3696 1772.25,303.73 "/>
<polyline clip-path="url(#clip840)" style="stroke:#009af9; stroke-linecap:round; stroke-linejoin:round; stroke-width:4; stroke-opacity:1; fill:none" points="1797.43,148.21 1948.48,148.21 "/>
<path clip-path="url(#clip840)" d="M1994 144.541 Q1995.6 141.67 1997.82 140.305 Q2000.04 138.939 2003.05 138.939 Q2007.1 138.939 2009.3 141.786 Q2011.5 144.61 2011.5 149.841 L2011.5 165.49 L2007.22 165.49 L2007.22 149.98 Q2007.22 146.254 2005.9 144.448 Q2004.58 142.642 2001.87 142.642 Q1998.56 142.642 1996.64 144.842 Q1994.72 147.041 1994.72 150.837 L1994.72 165.49 L1990.44 165.49 L1990.44 149.98 Q1990.44 146.23 1989.12 144.448 Q1987.8 142.642 1985.04 142.642 Q1981.78 142.642 1979.86 144.865 Q1977.94 147.064 1977.94 150.837 L1977.94 165.49 L1973.65 165.49 L1973.65 139.564 L1977.94 139.564 L1977.94 143.592 Q1979.39 141.207 1981.43 140.073 Q1983.47 138.939 1986.27 138.939 Q1989.09 138.939 1991.06 140.374 Q1993.05 141.809 1994 144.541 Z" fill="#000000" fill-rule="nonzero" fill-opacity="1" /><path clip-path="url(#clip840)" d="M2031.78 152.457 Q2026.62 152.457 2024.63 153.638 Q2022.64 154.818 2022.64 157.666 Q2022.64 159.934 2024.12 161.277 Q2025.62 162.596 2028.19 162.596 Q2031.73 162.596 2033.86 160.096 Q2036.01 157.573 2036.01 153.406 L2036.01 152.457 L2031.78 152.457 M2040.27 150.698 L2040.27 165.49 L2036.01 165.49 L2036.01 161.554 Q2034.56 163.915 2032.38 165.05 Q2030.2 166.161 2027.06 166.161 Q2023.08 166.161 2020.71 163.939 Q2018.38 161.693 2018.38 157.943 Q2018.38 153.568 2021.29 151.346 Q2024.23 149.124 2030.04 149.124 L2036.01 149.124 L2036.01 148.707 Q2036.01 145.767 2034.07 144.17 Q2032.15 142.55 2028.65 142.55 Q2026.43 142.55 2024.33 143.082 Q2022.22 143.615 2020.27 144.679 L2020.27 140.744 Q2022.61 139.842 2024.81 139.402 Q2027.01 138.939 2029.09 138.939 Q2034.72 138.939 2037.5 141.855 Q2040.27 144.772 2040.27 150.698 Z" fill="#000000" fill-rule="nonzero" fill-opacity="1" /><path clip-path="url(#clip840)" d="M2049.05 129.471 L2053.31 129.471 L2053.31 165.49 L2049.05 165.49 L2049.05 129.471 Z" fill="#000000" fill-rule="nonzero" fill-opacity="1" /><path clip-path="url(#clip840)" d="M2084.39 151.462 L2084.39 153.545 L2064.81 153.545 Q2065.09 157.943 2067.45 160.258 Q2069.83 162.55 2074.07 162.55 Q2076.52 162.55 2078.82 161.948 Q2081.13 161.346 2083.4 160.142 L2083.4 164.17 Q2081.11 165.142 2078.7 165.652 Q2076.29 166.161 2073.82 166.161 Q2067.61 166.161 2063.98 162.55 Q2060.37 158.939 2060.37 152.781 Q2060.37 146.416 2063.79 142.689 Q2067.24 138.939 2073.07 138.939 Q2078.31 138.939 2081.34 142.318 Q2084.39 145.675 2084.39 151.462 M2080.13 150.212 Q2080.09 146.717 2078.17 144.633 Q2076.27 142.55 2073.12 142.55 Q2069.56 142.55 2067.4 144.564 Q2065.27 146.578 2064.95 150.235 L2080.13 150.212 Z" fill="#000000" fill-rule="nonzero" fill-opacity="1" /><path clip-path="url(#clip840)" d="M2111.32 134.772 L2111.32 147.758 L2117.19 147.758 Q2120.46 147.758 2122.24 146.068 Q2124.02 144.379 2124.02 141.254 Q2124.02 138.152 2122.24 136.462 Q2120.46 134.772 2117.19 134.772 L2111.32 134.772 M2106.64 130.93 L2117.19 130.93 Q2123.01 130.93 2125.97 133.568 Q2128.95 136.184 2128.95 141.254 Q2128.95 146.369 2125.97 148.985 Q2123.01 151.601 2117.19 151.601 L2111.32 151.601 L2111.32 165.49 L2106.64 165.49 L2106.64 130.93 Z" fill="#000000" fill-rule="nonzero" fill-opacity="1" /><path clip-path="url(#clip840)" d="M2139.9 134.772 L2139.9 161.647 L2145.55 161.647 Q2152.7 161.647 2156.01 158.406 Q2159.35 155.166 2159.35 148.175 Q2159.35 141.23 2156.01 138.013 Q2152.7 134.772 2145.55 134.772 L2139.9 134.772 M2135.23 130.93 L2144.83 130.93 Q2154.88 130.93 2159.58 135.119 Q2164.28 139.286 2164.28 148.175 Q2164.28 157.11 2159.56 161.3 Q2154.83 165.49 2144.83 165.49 L2135.23 165.49 L2135.23 130.93 Z" fill="#000000" fill-rule="nonzero" fill-opacity="1" /><path clip-path="url(#clip840)" d="M2171.73 130.93 L2191.59 130.93 L2191.59 134.865 L2176.41 134.865 L2176.41 145.05 L2190.11 145.05 L2190.11 148.985 L2176.41 148.985 L2176.41 165.49 L2171.73 165.49 L2171.73 130.93 Z" fill="#000000" fill-rule="nonzero" fill-opacity="1" /><polyline clip-path="url(#clip840)" style="stroke:#e26f46; stroke-linecap:round; stroke-linejoin:round; stroke-width:4; stroke-opacity:1; fill:none" points="1797.43,200.05 1948.48,200.05 "/>
<path clip-path="url(#clip840)" d="M1990.16 181.311 L1990.16 184.853 L1986.08 184.853 Q1983.79 184.853 1982.89 185.779 Q1982.01 186.705 1982.01 189.112 L1982.01 191.404 L1989.02 191.404 L1989.02 194.714 L1982.01 194.714 L1982.01 217.33 L1977.73 217.33 L1977.73 194.714 L1973.65 194.714 L1973.65 191.404 L1977.73 191.404 L1977.73 189.598 Q1977.73 185.27 1979.74 183.302 Q1981.76 181.311 1986.13 181.311 L1990.16 181.311 Z" fill="#000000" fill-rule="nonzero" fill-opacity="1" /><path clip-path="url(#clip840)" d="M2015.9 203.302 L2015.9 205.385 L1996.32 205.385 Q1996.59 209.783 1998.95 212.098 Q2001.34 214.39 2005.58 214.39 Q2008.03 214.39 2010.32 213.788 Q2012.64 213.186 2014.9 211.982 L2014.9 216.01 Q2012.61 216.982 2010.2 217.492 Q2007.8 218.001 2005.32 218.001 Q1999.12 218.001 1995.48 214.39 Q1991.87 210.779 1991.87 204.621 Q1991.87 198.256 1995.3 194.529 Q1998.75 190.779 2004.58 190.779 Q2009.81 190.779 2012.84 194.158 Q2015.9 197.515 2015.9 203.302 M2011.64 202.052 Q2011.59 198.557 2009.67 196.473 Q2007.77 194.39 2004.63 194.39 Q2001.06 194.39 1998.91 196.404 Q1996.78 198.418 1996.45 202.075 L2011.64 202.052 Z" fill="#000000" fill-rule="nonzero" fill-opacity="1" /><path clip-path="url(#clip840)" d="M2043.07 196.381 Q2044.67 193.51 2046.89 192.145 Q2049.12 190.779 2052.13 190.779 Q2056.18 190.779 2058.38 193.626 Q2060.57 196.45 2060.57 201.681 L2060.57 217.33 L2056.29 217.33 L2056.29 201.82 Q2056.29 198.094 2054.97 196.288 Q2053.65 194.482 2050.95 194.482 Q2047.64 194.482 2045.71 196.682 Q2043.79 198.881 2043.79 202.677 L2043.79 217.33 L2039.51 217.33 L2039.51 201.82 Q2039.51 198.07 2038.19 196.288 Q2036.87 194.482 2034.12 194.482 Q2030.85 194.482 2028.93 196.705 Q2027.01 198.904 2027.01 202.677 L2027.01 217.33 L2022.73 217.33 L2022.73 191.404 L2027.01 191.404 L2027.01 195.432 Q2028.47 193.047 2030.51 191.913 Q2032.54 190.779 2035.34 190.779 Q2038.17 190.779 2040.14 192.214 Q2042.13 193.649 2043.07 196.381 Z" fill="#000000" fill-rule="nonzero" fill-opacity="1" /><path clip-path="url(#clip840)" d="M2080.85 204.297 Q2075.69 204.297 2073.7 205.478 Q2071.71 206.658 2071.71 209.506 Q2071.71 211.774 2073.19 213.117 Q2074.7 214.436 2077.26 214.436 Q2080.81 214.436 2082.94 211.936 Q2085.09 209.413 2085.09 205.246 L2085.09 204.297 L2080.85 204.297 M2089.35 202.538 L2089.35 217.33 L2085.09 217.33 L2085.09 213.394 Q2083.63 215.755 2081.45 216.89 Q2079.28 218.001 2076.13 218.001 Q2072.15 218.001 2069.79 215.779 Q2067.45 213.533 2067.45 209.783 Q2067.45 205.408 2070.37 203.186 Q2073.31 200.964 2079.12 200.964 L2085.09 200.964 L2085.09 200.547 Q2085.09 197.607 2083.14 196.01 Q2081.22 194.39 2077.73 194.39 Q2075.51 194.39 2073.4 194.922 Q2071.29 195.455 2069.35 196.519 L2069.35 192.584 Q2071.69 191.682 2073.88 191.242 Q2076.08 190.779 2078.17 190.779 Q2083.79 190.779 2086.57 193.695 Q2089.35 196.612 2089.35 202.538 Z" fill="#000000" fill-rule="nonzero" fill-opacity="1" /><path clip-path="url(#clip840)" d="M2098.12 181.311 L2102.38 181.311 L2102.38 217.33 L2098.12 217.33 L2098.12 181.311 Z" fill="#000000" fill-rule="nonzero" fill-opacity="1" /><path clip-path="url(#clip840)" d="M2133.47 203.302 L2133.47 205.385 L2113.88 205.385 Q2114.16 209.783 2116.52 212.098 Q2118.91 214.39 2123.14 214.39 Q2125.6 214.39 2127.89 213.788 Q2130.2 213.186 2132.47 211.982 L2132.47 216.01 Q2130.18 216.982 2127.77 217.492 Q2125.37 218.001 2122.89 218.001 Q2116.69 218.001 2113.05 214.39 Q2109.44 210.779 2109.44 204.621 Q2109.44 198.256 2112.87 194.529 Q2116.32 190.779 2122.15 190.779 Q2127.38 190.779 2130.41 194.158 Q2133.47 197.515 2133.47 203.302 M2129.21 202.052 Q2129.16 198.557 2127.24 196.473 Q2125.34 194.39 2122.19 194.39 Q2118.63 194.39 2116.48 196.404 Q2114.35 198.418 2114.02 202.075 L2129.21 202.052 Z" fill="#000000" fill-rule="nonzero" fill-opacity="1" /><path clip-path="url(#clip840)" d="M2160.39 186.612 L2160.39 199.598 L2166.27 199.598 Q2169.53 199.598 2171.31 197.908 Q2173.1 196.219 2173.1 193.094 Q2173.1 189.992 2171.31 188.302 Q2169.53 186.612 2166.27 186.612 L2160.39 186.612 M2155.71 182.77 L2166.27 182.77 Q2172.08 182.77 2175.04 185.408 Q2178.03 188.024 2178.03 193.094 Q2178.03 198.209 2175.04 200.825 Q2172.08 203.441 2166.27 203.441 L2160.39 203.441 L2160.39 217.33 L2155.71 217.33 L2155.71 182.77 Z" fill="#000000" fill-rule="nonzero" fill-opacity="1" /><path clip-path="url(#clip840)" d="M2188.98 186.612 L2188.98 213.487 L2194.63 213.487 Q2201.78 213.487 2205.09 210.246 Q2208.42 207.006 2208.42 200.015 Q2208.42 193.07 2205.09 189.853 Q2201.78 186.612 2194.63 186.612 L2188.98 186.612 M2184.3 182.77 L2193.91 182.77 Q2203.95 182.77 2208.65 186.959 Q2213.35 191.126 2213.35 200.015 Q2213.35 208.95 2208.63 213.14 Q2203.91 217.33 2193.91 217.33 L2184.3 217.33 L2184.3 182.77 Z" fill="#000000" fill-rule="nonzero" fill-opacity="1" /><path clip-path="url(#clip840)" d="M2220.81 182.77 L2240.67 182.77 L2240.67 186.705 L2225.48 186.705 L2225.48 196.89 L2239.18 196.89 L2239.18 200.825 L2225.48 200.825 L2225.48 217.33 L2220.81 217.33 L2220.81 182.77 Z" fill="#000000" fill-rule="nonzero" fill-opacity="1" /><polyline clip-path="url(#clip840)" style="stroke:#3da44d; stroke-linecap:round; stroke-linejoin:round; stroke-width:4; stroke-opacity:1; fill:none" points="1797.43,251.89 1948.48,251.89 "/>
<path clip-path="url(#clip840)" d="M1973.65 234.61 L1980.62 234.61 L1989.44 258.128 L1998.31 234.61 L2005.27 234.61 L2005.27 269.17 L2000.71 269.17 L2000.71 238.822 L1991.8 262.526 L1987.1 262.526 L1978.19 238.822 L1978.19 269.17 L1973.65 269.17 L1973.65 234.61 Z" fill="#000000" fill-rule="nonzero" fill-opacity="1" /><path clip-path="url(#clip840)" d="M2014.37 243.244 L2018.63 243.244 L2018.63 269.17 L2014.37 269.17 L2014.37 243.244 M2014.37 233.151 L2018.63 233.151 L2018.63 238.545 L2014.37 238.545 L2014.37 233.151 Z" fill="#000000" fill-rule="nonzero" fill-opacity="1" /><path clip-path="url(#clip840)" d="M2049.09 243.244 L2039.72 255.859 L2049.58 269.17 L2044.56 269.17 L2037.01 258.984 L2029.46 269.17 L2024.44 269.17 L2034.51 255.605 L2025.3 243.244 L2030.32 243.244 L2037.2 252.48 L2044.07 243.244 L2049.09 243.244 Z" fill="#000000" fill-rule="nonzero" fill-opacity="1" /><path clip-path="url(#clip840)" d="M2059.81 235.883 L2059.81 243.244 L2068.58 243.244 L2068.58 246.554 L2059.81 246.554 L2059.81 260.628 Q2059.81 263.799 2060.67 264.702 Q2061.55 265.605 2064.21 265.605 L2068.58 265.605 L2068.58 269.17 L2064.21 269.17 Q2059.28 269.17 2057.4 267.341 Q2055.53 265.489 2055.53 260.628 L2055.53 246.554 L2052.4 246.554 L2052.4 243.244 L2055.53 243.244 L2055.53 235.883 L2059.81 235.883 Z" fill="#000000" fill-rule="nonzero" fill-opacity="1" /><path clip-path="url(#clip840)" d="M2073.75 258.938 L2073.75 243.244 L2078.01 243.244 L2078.01 258.776 Q2078.01 262.457 2079.44 264.308 Q2080.88 266.137 2083.75 266.137 Q2087.2 266.137 2089.19 263.938 Q2091.2 261.739 2091.2 257.943 L2091.2 243.244 L2095.46 243.244 L2095.46 269.17 L2091.2 269.17 L2091.2 265.188 Q2089.65 267.549 2087.59 268.707 Q2085.55 269.841 2082.84 269.841 Q2078.38 269.841 2076.06 267.063 Q2073.75 264.285 2073.75 258.938 M2084.46 242.619 L2084.46 242.619 Z" fill="#000000" fill-rule="nonzero" fill-opacity="1" /><path clip-path="url(#clip840)" d="M2119.26 247.225 Q2118.54 246.809 2117.68 246.623 Q2116.85 246.415 2115.83 246.415 Q2112.22 246.415 2110.27 248.776 Q2108.35 251.114 2108.35 255.512 L2108.35 269.17 L2104.07 269.17 L2104.07 243.244 L2108.35 243.244 L2108.35 247.272 Q2109.69 244.91 2111.85 243.776 Q2114 242.619 2117.08 242.619 Q2117.52 242.619 2118.05 242.688 Q2118.58 242.735 2119.23 242.85 L2119.26 247.225 Z" fill="#000000" fill-rule="nonzero" fill-opacity="1" /><path clip-path="url(#clip840)" d="M2144.86 255.142 L2144.86 257.225 L2125.27 257.225 Q2125.55 261.623 2127.91 263.938 Q2130.3 266.23 2134.53 266.23 Q2136.99 266.23 2139.28 265.628 Q2141.59 265.026 2143.86 263.822 L2143.86 267.85 Q2141.57 268.822 2139.16 269.332 Q2136.75 269.841 2134.28 269.841 Q2128.07 269.841 2124.44 266.23 Q2120.83 262.619 2120.83 256.461 Q2120.83 250.096 2124.26 246.369 Q2127.7 242.619 2133.54 242.619 Q2138.77 242.619 2141.8 245.998 Q2144.86 249.355 2144.86 255.142 M2140.6 253.892 Q2140.55 250.397 2138.63 248.313 Q2136.73 246.23 2133.58 246.23 Q2130.02 246.23 2127.87 248.244 Q2125.74 250.258 2125.41 253.915 L2140.6 253.892 Z" fill="#000000" fill-rule="nonzero" fill-opacity="1" /><path clip-path="url(#clip840)" d="M2171.78 238.452 L2171.78 251.438 L2177.66 251.438 Q2180.92 251.438 2182.7 249.748 Q2184.49 248.059 2184.49 244.934 Q2184.49 241.832 2182.7 240.142 Q2180.92 238.452 2177.66 238.452 L2171.78 238.452 M2167.1 234.61 L2177.66 234.61 Q2183.47 234.61 2186.43 237.248 Q2189.42 239.864 2189.42 244.934 Q2189.42 250.049 2186.43 252.665 Q2183.47 255.281 2177.66 255.281 L2171.78 255.281 L2171.78 269.17 L2167.1 269.17 L2167.1 234.61 Z" fill="#000000" fill-rule="nonzero" fill-opacity="1" /><path clip-path="url(#clip840)" d="M2200.37 238.452 L2200.37 265.327 L2206.01 265.327 Q2213.17 265.327 2216.48 262.086 Q2219.81 258.846 2219.81 251.855 Q2219.81 244.91 2216.48 241.693 Q2213.17 238.452 2206.01 238.452 L2200.37 238.452 M2195.69 234.61 L2205.3 234.61 Q2215.34 234.61 2220.04 238.799 Q2224.74 242.966 2224.74 251.855 Q2224.74 260.79 2220.02 264.98 Q2215.3 269.17 2205.3 269.17 L2195.69 269.17 L2195.69 234.61 Z" fill="#000000" fill-rule="nonzero" fill-opacity="1" /><path clip-path="url(#clip840)" d="M2232.19 234.61 L2252.06 234.61 L2252.06 238.545 L2236.87 238.545 L2236.87 248.73 L2250.57 248.73 L2250.57 252.665 L2236.87 252.665 L2236.87 269.17 L2232.19 269.17 L2232.19 234.61 Z" fill="#000000" fill-rule="nonzero" fill-opacity="1" /></svg>
