<?xml version="1.0" encoding="utf-8"?>
<svg xmlns="http://www.w3.org/2000/svg" xmlns:xlink="http://www.w3.org/1999/xlink" width="600" height="400" viewBox="0 0 2400 1600">
<defs>
  <clipPath id="clip640">
    <rect x="0" y="0" width="2400" height="1600"/>
  </clipPath>
</defs>
<path clip-path="url(#clip640)" d="M0 1600 L2400 1600 L2400 0 L0 0  Z" fill="#ffffff" fill-rule="evenodd" fill-opacity="1"/>
<defs>
  <clipPath id="clip641">
    <rect x="480" y="0" width="1681" height="1600"/>
  </clipPath>
</defs>
<path clip-path="url(#clip640)" d="M86.9921 1521.01 L2352.76 1521.01 L2352.76 47.2441 L86.9921 47.2441  Z" fill="#ffffff" fill-rule="evenodd" fill-opacity="1"/>
<defs>
  <clipPath id="clip642">
    <rect x="86" y="47" width="2267" height="1475"/>
  </clipPath>
</defs>
<polyline clip-path="url(#clip642)" style="stroke:#000000; stroke-linecap:round; stroke-linejoin:round; stroke-width:2; stroke-opacity:0.1; fill:none" points="151.118,1521.01 151.118,47.2441 "/>
<polyline clip-path="url(#clip642)" style="stroke:#000000; stroke-linecap:round; stroke-linejoin:round; stroke-width:2; stroke-opacity:0.1; fill:none" points="685.496,1521.01 685.496,47.2441 "/>
<polyline clip-path="url(#clip642)" style="stroke:#000000; stroke-linecap:round; stroke-linejoin:round; stroke-width:2; stroke-opacity:0.1; fill:none" points="1219.87,1521.01 1219.87,47.2441 "/>
<polyline clip-path="url(#clip642)" style="stroke:#000000; stroke-linecap:round; stroke-linejoin:round; stroke-width:2; stroke-opacity:0.1; fill:none" points="1754.25,1521.01 1754.25,47.2441 "/>
<polyline clip-path="url(#clip642)" style="stroke:#000000; stroke-linecap:round; stroke-linejoin:round; stroke-width:2; stroke-opacity:0.1; fill:none" points="2288.63,1521.01 2288.63,47.2441 "/>
<polyline clip-path="url(#clip640)" style="stroke:#000000; stroke-linecap:round; stroke-linejoin:round; stroke-width:4; stroke-opacity:1; fill:none" points="86.9921,1521.01 2352.76,1521.01 "/>
<polyline clip-path="url(#clip640)" style="stroke:#000000; stroke-linecap:round; stroke-linejoin:round; stroke-width:4; stroke-opacity:1; fill:none" points="151.118,1521.01 151.118,1502.11 "/>
<polyline clip-path="url(#clip640)" style="stroke:#000000; stroke-linecap:round; stroke-linejoin:round; stroke-width:4; stroke-opacity:1; fill:none" points="685.496,1521.01 685.496,1502.11 "/>
<polyline clip-path="url(#clip640)" style="stroke:#000000; stroke-linecap:round; stroke-linejoin:round; stroke-width:4; stroke-opacity:1; fill:none" points="1219.87,1521.01 1219.87,1502.11 "/>
<polyline clip-path="url(#clip640)" style="stroke:#000000; stroke-linecap:round; stroke-linejoin:round; stroke-width:4; stroke-opacity:1; fill:none" points="1754.25,1521.01 1754.25,1502.11 "/>
<polyline clip-path="url(#clip640)" style="stroke:#000000; stroke-linecap:round; stroke-linejoin:round; stroke-width:4; stroke-opacity:1; fill:none" points="2288.63,1521.01 2288.63,1502.11 "/>
<path clip-path="url(#clip640)" d="M105.18 1566.58 L134.856 1566.58 L134.856 1570.51 L105.18 1570.51 L105.18 1566.58 Z" fill="#000000" fill-rule="nonzero" fill-opacity="1" /><path clip-path="url(#clip640)" d="M148.976 1579.47 L165.296 1579.47 L165.296 1583.41 L143.351 1583.41 L143.351 1579.47 Q146.013 1576.72 150.597 1572.09 Q155.203 1567.44 156.384 1566.09 Q158.629 1563.57 159.509 1561.83 Q160.411 1560.07 160.411 1558.38 Q160.411 1555.63 158.467 1553.89 Q156.546 1552.16 153.444 1552.16 Q151.245 1552.16 148.791 1552.92 Q146.361 1553.69 143.583 1555.24 L143.583 1550.51 Q146.407 1549.38 148.861 1548.8 Q151.314 1548.22 153.351 1548.22 Q158.722 1548.22 161.916 1550.91 Q165.11 1553.59 165.11 1558.08 Q165.11 1560.21 164.3 1562.13 Q163.513 1564.03 161.407 1566.63 Q160.828 1567.3 157.726 1570.51 Q154.624 1573.71 148.976 1579.47 Z" fill="#000000" fill-rule="nonzero" fill-opacity="1" /><path clip-path="url(#clip640)" d="M185.11 1551.93 Q181.499 1551.93 179.671 1555.49 Q177.865 1559.03 177.865 1566.16 Q177.865 1573.27 179.671 1576.83 Q181.499 1580.38 185.11 1580.38 Q188.745 1580.38 190.55 1576.83 Q192.379 1573.27 192.379 1566.16 Q192.379 1559.03 190.55 1555.49 Q188.745 1551.93 185.11 1551.93 M185.11 1548.22 Q190.921 1548.22 193.976 1552.83 Q197.055 1557.41 197.055 1566.16 Q197.055 1574.89 193.976 1579.5 Q190.921 1584.08 185.11 1584.08 Q179.3 1584.08 176.222 1579.5 Q173.166 1574.89 173.166 1566.16 Q173.166 1557.41 176.222 1552.83 Q179.3 1548.22 185.11 1548.22 Z" fill="#000000" fill-rule="nonzero" fill-opacity="1" /><path clip-path="url(#clip640)" d="M639.559 1566.58 L669.234 1566.58 L669.234 1570.51 L639.559 1570.51 L639.559 1566.58 Z" fill="#000000" fill-rule="nonzero" fill-opacity="1" /><path clip-path="url(#clip640)" d="M680.137 1579.47 L687.776 1579.47 L687.776 1553.11 L679.466 1554.77 L679.466 1550.51 L687.73 1548.85 L692.405 1548.85 L692.405 1579.47 L700.044 1579.47 L700.044 1583.41 L680.137 1583.41 L680.137 1579.47 Z" fill="#000000" fill-rule="nonzero" fill-opacity="1" /><path clip-path="url(#clip640)" d="M719.489 1551.93 Q715.878 1551.93 714.049 1555.49 Q712.243 1559.03 712.243 1566.16 Q712.243 1573.27 714.049 1576.83 Q715.878 1580.38 719.489 1580.38 Q723.123 1580.38 724.928 1576.83 Q726.757 1573.27 726.757 1566.16 Q726.757 1559.03 724.928 1555.49 Q723.123 1551.93 719.489 1551.93 M719.489 1548.22 Q725.299 1548.22 728.354 1552.83 Q731.433 1557.41 731.433 1566.16 Q731.433 1574.89 728.354 1579.5 Q725.299 1584.08 719.489 1584.08 Q713.678 1584.08 710.6 1579.5 Q707.544 1574.89 707.544 1566.16 Q707.544 1557.41 710.6 1552.83 Q713.678 1548.22 719.489 1548.22 Z" fill="#000000" fill-rule="nonzero" fill-opacity="1" /><path clip-path="url(#clip640)" d="M1219.87 1551.93 Q1216.26 1551.93 1214.43 1555.49 Q1212.63 1559.03 1212.63 1566.16 Q1212.63 1573.27 1214.43 1576.83 Q1216.26 1580.38 1219.87 1580.38 Q1223.51 1580.38 1225.31 1576.83 Q1227.14 1573.27 1227.14 1566.16 Q1227.14 1559.03 1225.31 1555.49 Q1223.51 1551.93 1219.87 1551.93 M1219.87 1548.22 Q1225.68 1548.22 1228.74 1552.83 Q1231.82 1557.41 1231.82 1566.16 Q1231.82 1574.89 1228.74 1579.5 Q1225.68 1584.08 1219.87 1584.08 Q1214.06 1584.08 1210.99 1579.5 Q1207.93 1574.89 1207.93 1566.16 Q1207.93 1557.41 1210.99 1552.83 Q1214.06 1548.22 1219.87 1548.22 Z" fill="#000000" fill-rule="nonzero" fill-opacity="1" /><path clip-path="url(#clip640)" d="M1728.94 1579.47 L1736.58 1579.47 L1736.58 1553.11 L1728.27 1554.77 L1728.27 1550.51 L1736.53 1548.85 L1741.21 1548.85 L1741.21 1579.47 L1748.85 1579.47 L1748.85 1583.41 L1728.94 1583.41 L1728.94 1579.47 Z" fill="#000000" fill-rule="nonzero" fill-opacity="1" /><path clip-path="url(#clip640)" d="M1768.29 1551.93 Q1764.68 1551.93 1762.85 1555.49 Q1761.05 1559.03 1761.05 1566.16 Q1761.05 1573.27 1762.85 1576.83 Q1764.68 1580.38 1768.29 1580.38 Q1771.93 1580.38 1773.73 1576.83 Q1775.56 1573.27 1775.56 1566.16 Q1775.56 1559.03 1773.73 1555.49 Q1771.93 1551.93 1768.29 1551.93 M1768.29 1548.22 Q1774.1 1548.22 1777.16 1552.83 Q1780.24 1557.41 1780.24 1566.16 Q1780.24 1574.89 1777.16 1579.5 Q1774.1 1584.08 1768.29 1584.08 Q1762.48 1584.08 1759.4 1579.5 Q1756.35 1574.89 1756.35 1566.16 Q1756.35 1557.41 1759.4 1552.83 Q1762.48 1548.22 1768.29 1548.22 Z" fill="#000000" fill-rule="nonzero" fill-opacity="1" /><path clip-path="url(#clip640)" d="M2267.4 1579.47 L2283.72 1579.47 L2283.72 1583.41 L2261.78 1583.41 L2261.78 1579.47 Q2264.44 1576.72 2269.02 1572.09 Q2273.63 1567.44 2274.81 1566.09 Q2277.06 1563.57 2277.94 1561.83 Q2278.84 1560.07 2278.84 1558.38 Q2278.84 1555.63 2276.89 1553.89 Q2274.97 1552.16 2271.87 1552.16 Q2269.67 1552.16 2267.22 1552.92 Q2264.79 1553.69 2262.01 1555.24 L2262.01 1550.51 Q2264.83 1549.38 2267.29 1548.8 Q2269.74 1548.22 2271.78 1548.22 Q2277.15 1548.22 2280.34 1550.91 Q2283.54 1553.59 2283.54 1558.08 Q2283.54 1560.21 2282.73 1562.13 Q2281.94 1564.03 2279.83 1566.63 Q2279.26 1567.3 2276.15 1570.51 Q2273.05 1573.71 2267.4 1579.47 Z" fill="#000000" fill-rule="nonzero" fill-opacity="1" /><path clip-path="url(#clip640)" d="M2303.54 1551.93 Q2299.93 1551.93 2298.1 1555.49 Q2296.29 1559.03 2296.29 1566.16 Q2296.29 1573.27 2298.1 1576.83 Q2299.93 1580.38 2303.54 1580.38 Q2307.17 1580.38 2308.98 1576.83 Q2310.81 1573.27 2310.81 1566.16 Q2310.81 1559.03 2308.98 1555.49 Q2307.17 1551.93 2303.54 1551.93 M2303.54 1548.22 Q2309.35 1548.22 2312.4 1552.83 Q2315.48 1557.41 2315.48 1566.16 Q2315.48 1574.89 2312.4 1579.5 Q2309.35 1584.08 2303.54 1584.08 Q2297.73 1584.08 2294.65 1579.5 Q2291.59 1574.89 2291.59 1566.16 Q2291.59 1557.41 2294.65 1552.83 Q2297.73 1548.22 2303.54 1548.22 Z" fill="#000000" fill-rule="nonzero" fill-opacity="1" /><polyline clip-path="url(#clip642)" style="stroke:#000000; stroke-linecap:round; stroke-linejoin:round; stroke-width:2; stroke-opacity:0.1; fill:none" points="86.9921,1480.68 2352.76,1480.68 "/>
<polyline clip-path="url(#clip642)" style="stroke:#000000; stroke-linecap:round; stroke-linejoin:round; stroke-width:2; stroke-opacity:0.1; fill:none" points="86.9921,1131.78 2352.76,1131.78 "/>
<polyline clip-path="url(#clip642)" style="stroke:#000000; stroke-linecap:round; stroke-linejoin:round; stroke-width:2; stroke-opacity:0.1; fill:none" points="86.9921,782.88 2352.76,782.88 "/>
<polyline clip-path="url(#clip642)" style="stroke:#000000; stroke-linecap:round; stroke-linejoin:round; stroke-width:2; stroke-opacity:0.1; fill:none" points="86.9921,433.981 2352.76,433.981 "/>
<polyline clip-path="url(#clip642)" style="stroke:#000000; stroke-linecap:round; stroke-linejoin:round; stroke-width:2; stroke-opacity:0.1; fill:none" points="86.9921,85.0822 2352.76,85.0822 "/>
<polyline clip-path="url(#clip640)" style="stroke:#000000; stroke-linecap:round; stroke-linejoin:round; stroke-width:4; stroke-opacity:1; fill:none" points="86.9921,1521.01 86.9921,47.2441 "/>
<polyline clip-path="url(#clip640)" style="stroke:#000000; stroke-linecap:round; stroke-linejoin:round; stroke-width:4; stroke-opacity:1; fill:none" points="86.9921,1480.68 105.89,1480.68 "/>
<polyline clip-path="url(#clip640)" style="stroke:#000000; stroke-linecap:round; stroke-linejoin:round; stroke-width:4; stroke-opacity:1; fill:none" points="86.9921,1131.78 105.89,1131.78 "/>
<polyline clip-path="url(#clip640)" style="stroke:#000000; stroke-linecap:round; stroke-linejoin:round; stroke-width:4; stroke-opacity:1; fill:none" points="86.9921,782.88 105.89,782.88 "/>
<polyline clip-path="url(#clip640)" style="stroke:#000000; stroke-linecap:round; stroke-linejoin:round; stroke-width:4; stroke-opacity:1; fill:none" points="86.9921,433.981 105.89,433.981 "/>
<polyline clip-path="url(#clip640)" style="stroke:#000000; stroke-linecap:round; stroke-linejoin:round; stroke-width:4; stroke-opacity:1; fill:none" points="86.9921,85.0822 105.89,85.0822 "/>
<path clip-path="url(#clip640)" d="M10.8708 1503.29 Q10.8708 1506.91 14.4356 1508.73 Q17.9773 1510.54 25.1068 1510.54 Q32.2133 1510.54 35.7781 1508.73 Q39.3197 1506.91 39.3197 1503.29 Q39.3197 1499.66 35.7781 1497.85 Q32.2133 1496.03 25.1068 1496.03 Q17.9773 1496.03 14.4356 1497.85 Q10.8708 1499.66 10.8708 1503.29 M7.16713 1503.29 Q7.16713 1497.48 11.7736 1494.43 Q16.3569 1491.35 25.1068 1491.35 Q33.8337 1491.35 38.4401 1494.43 Q43.0234 1497.48 43.0234 1503.29 Q43.0234 1509.1 38.4401 1512.18 Q33.8337 1515.24 25.1068 1515.24 Q16.3569 1515.24 11.7736 1512.18 Q7.16713 1509.1 7.16713 1503.29 Z" fill="#000000" fill-rule="nonzero" fill-opacity="1" /><path clip-path="url(#clip640)" d="M36.4725 1483.13 L36.4725 1478.25 L42.3521 1478.25 L42.3521 1483.13 L36.4725 1483.13 Z" fill="#000000" fill-rule="nonzero" fill-opacity="1" /><path clip-path="url(#clip640)" d="M10.8708 1458.06 Q10.8708 1461.67 14.4356 1463.5 Q17.9773 1465.31 25.1068 1465.31 Q32.2133 1465.31 35.7781 1463.5 Q39.3197 1461.67 39.3197 1458.06 Q39.3197 1454.43 35.7781 1452.62 Q32.2133 1450.79 25.1068 1450.79 Q17.9773 1450.79 14.4356 1452.62 Q10.8708 1454.43 10.8708 1458.06 M7.16713 1458.06 Q7.16713 1452.25 11.7736 1449.2 Q16.3569 1446.12 25.1068 1446.12 Q33.8337 1446.12 38.4401 1449.2 Q43.0234 1452.25 43.0234 1458.06 Q43.0234 1463.87 38.4401 1466.95 Q33.8337 1470.01 25.1068 1470.01 Q16.3569 1470.01 11.7736 1466.95 Q7.16713 1463.87 7.16713 1458.06 Z" fill="#000000" fill-rule="nonzero" fill-opacity="1" /><path clip-path="url(#clip640)" d="M10.8708 1153.78 Q10.8708 1157.39 14.4356 1159.22 Q17.9773 1161.03 25.1068 1161.03 Q32.2133 1161.03 35.7781 1159.22 Q39.3197 1157.39 39.3197 1153.78 Q39.3197 1150.15 35.7781 1148.34 Q32.2133 1146.51 25.1068 1146.51 Q17.9773 1146.51 14.4356 1148.34 Q10.8708 1150.15 10.8708 1153.78 M7.16713 1153.78 Q7.16713 1147.97 11.7736 1144.92 Q16.3569 1141.84 25.1068 1141.84 Q33.8337 1141.84 38.4401 1144.92 Q43.0234 1147.97 43.0234 1153.78 Q43.0234 1159.59 38.4401 1162.67 Q33.8337 1165.73 25.1068 1165.73 Q16.3569 1165.73 11.7736 1162.67 Q7.16713 1159.59 7.16713 1153.78 Z" fill="#000000" fill-rule="nonzero" fill-opacity="1" /><path clip-path="url(#clip640)" d="M36.4725 1133.62 L36.4725 1128.74 L42.3521 1128.74 L42.3521 1133.62 L36.4725 1133.62 Z" fill="#000000" fill-rule="nonzero" fill-opacity="1" /><path clip-path="url(#clip640)" d="M38.417 1117.74 L38.417 1110.1 L12.0514 1110.1 L13.718 1118.41 L9.45878 1118.41 L7.79213 1110.15 L7.79213 1105.47 L38.417 1105.47 L38.417 1097.83 L42.3521 1097.83 L42.3521 1117.74 L38.417 1117.74 Z" fill="#000000" fill-rule="nonzero" fill-opacity="1" /><path clip-path="url(#clip640)" d="M10.8708 804.697 Q10.8708 808.309 14.4356 810.137 Q17.9773 811.943 25.1068 811.943 Q32.2133 811.943 35.7781 810.137 Q39.3197 808.309 39.3197 804.697 Q39.3197 801.063 35.7781 799.258 Q32.2133 797.429 25.1068 797.429 Q17.9773 797.429 14.4356 799.258 Q10.8708 801.063 10.8708 804.697 M7.16713 804.697 Q7.16713 798.887 11.7736 795.832 Q16.3569 792.753 25.1068 792.753 Q33.8337 792.753 38.4401 795.832 Q43.0234 798.887 43.0234 804.697 Q43.0234 810.508 38.4401 813.586 Q33.8337 816.642 25.1068 816.642 Q16.3569 816.642 11.7736 813.586 Q7.16713 810.508 7.16713 804.697 Z" fill="#000000" fill-rule="nonzero" fill-opacity="1" /><path clip-path="url(#clip640)" d="M36.4725 784.536 L36.4725 779.651 L42.3521 779.651 L42.3521 784.536 L36.4725 784.536 Z" fill="#000000" fill-rule="nonzero" fill-opacity="1" /><path clip-path="url(#clip640)" d="M38.417 765.438 L38.417 749.119 L42.3521 749.119 L42.3521 771.063 L38.417 771.063 Q35.6623 768.401 31.0327 763.818 Q26.38 759.212 25.0374 758.031 Q22.5143 755.786 20.7782 754.906 Q19.0189 754.003 17.3291 754.003 Q14.5745 754.003 12.8384 755.948 Q11.1023 757.869 11.1023 760.971 Q11.1023 763.17 11.8662 765.624 Q12.6301 768.054 14.181 770.832 L9.45878 770.832 Q8.32453 768.008 7.74583 765.554 Q7.16713 763.1 7.16713 761.063 Q7.16713 755.693 9.8523 752.499 Q12.5375 749.304 17.0282 749.304 Q19.1578 749.304 21.0791 750.114 Q22.9772 750.901 25.5698 753.008 Q26.2411 753.587 29.4587 756.688 Q32.6531 759.79 38.417 765.438 Z" fill="#000000" fill-rule="nonzero" fill-opacity="1" /><path clip-path="url(#clip640)" d="M10.8708 456.273 Q10.8708 459.884 14.4356 461.713 Q17.9773 463.518 25.1068 463.518 Q32.2133 463.518 35.7781 461.713 Q39.3197 459.884 39.3197 456.273 Q39.3197 452.639 35.7781 450.833 Q32.2133 449.004 25.1068 449.004 Q17.9773 449.004 14.4356 450.833 Q10.8708 452.639 10.8708 456.273 M7.16713 456.273 Q7.16713 450.463 11.7736 447.407 Q16.3569 444.328 25.1068 444.328 Q33.8337 444.328 38.4401 447.407 Q43.0234 450.463 43.0234 456.273 Q43.0234 462.083 38.4401 465.162 Q33.8337 468.217 25.1068 468.217 Q16.3569 468.217 11.7736 465.162 Q7.16713 462.083 7.16713 456.273 Z" fill="#000000" fill-rule="nonzero" fill-opacity="1" /><path clip-path="url(#clip640)" d="M36.4725 436.111 L36.4725 431.227 L42.3521 431.227 L42.3521 436.111 L36.4725 436.111 Z" fill="#000000" fill-rule="nonzero" fill-opacity="1" /><path clip-path="url(#clip640)" d="M23.718 406.875 Q24.4356 403.519 26.7041 401.644 Q28.9726 399.745 32.3059 399.745 Q37.4216 399.745 40.2225 403.264 Q43.0234 406.782 43.0234 413.264 Q43.0234 415.44 42.5836 417.755 Q42.1669 420.046 41.3105 422.5 L36.7966 422.5 Q37.9309 420.555 38.5096 418.241 Q39.0883 415.926 39.0883 413.403 Q39.0883 409.005 37.3522 406.713 Q35.6161 404.398 32.3059 404.398 Q29.2503 404.398 27.5374 406.551 Q25.8013 408.681 25.8013 412.5 L25.8013 416.528 L21.9587 416.528 L21.9587 412.315 Q21.9587 408.866 20.593 407.037 Q19.2041 405.208 16.6115 405.208 Q13.9495 405.208 12.5375 407.106 Q11.1023 408.981 11.1023 412.5 Q11.1023 414.421 11.519 416.62 Q11.9356 418.819 12.8152 421.458 L8.6486 421.458 Q7.90787 418.796 7.5375 416.481 Q7.16713 414.143 7.16713 412.083 Q7.16713 406.759 9.59767 403.657 Q12.0051 400.556 16.1254 400.556 Q18.9958 400.556 20.9865 402.199 Q22.9541 403.843 23.718 406.875 Z" fill="#000000" fill-rule="nonzero" fill-opacity="1" /><path clip-path="url(#clip640)" d="M10.8708 107.941 Q10.8708 111.552 14.4356 113.381 Q17.9773 115.186 25.1068 115.186 Q32.2133 115.186 35.7781 113.381 Q39.3197 111.552 39.3197 107.941 Q39.3197 104.307 35.7781 102.501 Q32.2133 100.672 25.1068 100.672 Q17.9773 100.672 14.4356 102.501 Q10.8708 104.307 10.8708 107.941 M7.16713 107.941 Q7.16713 102.131 11.7736 99.0752 Q16.3569 95.9965 25.1068 95.9965 Q33.8337 95.9965 38.4401 99.0752 Q43.0234 102.131 43.0234 107.941 Q43.0234 113.751 38.4401 116.83 Q33.8337 119.885 25.1068 119.885 Q16.3569 119.885 11.7736 116.83 Q7.16713 113.751 7.16713 107.941 Z" fill="#000000" fill-rule="nonzero" fill-opacity="1" /><path clip-path="url(#clip640)" d="M36.4725 87.779 L36.4725 82.8947 L42.3521 82.8947 L42.3521 87.779 L36.4725 87.779 Z" fill="#000000" fill-rule="nonzero" fill-opacity="1" /><path clip-path="url(#clip640)" d="M11.8662 59.8624 L30.3152 71.6679 L30.3152 59.8624 L11.8662 59.8624 M7.79213 61.0893 L7.79213 55.2097 L30.3152 55.2097 L30.3152 50.2792 L34.204 50.2792 L34.204 55.2097 L42.3521 55.2097 L42.3521 59.8624 L34.204 59.8624 L34.204 75.4642 L29.6902 75.4642 L7.79213 61.0893 Z" fill="#000000" fill-rule="nonzero" fill-opacity="1" /><polyline clip-path="url(#clip642)" style="stroke:#009af9; stroke-linecap:round; stroke-linejoin:round; stroke-width:4; stroke-opacity:1; fill:none" points="151.118,1477.91 156.461,1477.88 161.805,1477.85 167.149,1477.82 172.493,1477.8 177.836,1477.77 183.18,1477.74 188.524,1477.71 193.868,1477.67 199.212,1477.64 204.555,1477.61 209.899,1477.58 215.243,1477.55 220.587,1477.51 225.93,1477.48 231.274,1477.44 236.618,1477.41 241.962,1477.37 247.306,1477.34 252.649,1477.3 257.993,1477.26 263.337,1477.22 268.681,1477.18 274.025,1477.15 279.368,1477.1 284.712,1477.06 290.056,1477.02 295.4,1476.98 300.743,1476.94 306.087,1476.89 311.431,1476.85 316.775,1476.8 322.119,1476.76 327.462,1476.71 332.806,1476.66 338.15,1476.61 343.494,1476.56 348.837,1476.51 354.181,1476.46 359.525,1476.41 364.869,1476.36 370.213,1476.3 375.556,1476.25 380.9,1476.19 386.244,1476.13 391.588,1476.08 396.932,1476.02 402.275,1475.95 407.619,1475.89 412.963,1475.83 418.307,1475.76 423.65,1475.7 428.994,1475.63 434.338,1475.56 439.682,1475.49 445.026,1475.42 450.369,1475.35 455.713,1475.27 461.057,1475.2 466.401,1475.12 471.744,1475.04 477.088,1474.96 482.432,1474.88 487.776,1474.79 493.12,1474.71 498.463,1474.62 503.807,1474.53 509.151,1474.44 514.495,1474.34 519.839,1474.24 525.182,1474.15 530.526,1474.04 535.87,1473.94 541.214,1473.84 546.557,1473.73 551.901,1473.62 557.245,1473.5 562.589,1473.39 567.933,1473.27 573.276,1473.14 578.62,1473.02 583.964,1472.89 589.308,1472.76 594.651,1472.62 599.995,1472.49 605.339,1472.34 610.683,1472.2 616.027,1472.05 621.37,1471.9 626.714,1471.74 632.058,1471.58 637.402,1471.41 642.746,1471.24 648.089,1471.06 653.433,1470.88 658.777,1470.7 664.121,1470.5 669.464,1470.31 674.808,1470.11 680.152,1469.9 685.496,1469.68 690.84,1469.46 696.183,1469.23 701.527,1469 706.871,1468.76 712.215,1468.51 717.558,1468.25 722.902,1467.98 728.246,1467.71 733.59,1467.43 738.934,1467.14 744.277,1466.83 749.621,1466.52 754.965,1466.2 760.309,1465.86 765.653,1465.52 770.996,1465.16 776.34,1464.79 781.684,1464.4 787.028,1464.01 792.371,1463.59 797.715,1463.16 803.059,1462.72 808.403,1462.26 813.747,1461.78 819.09,1461.28 824.434,1460.76 829.778,1460.22 835.122,1459.66 840.465,1459.08 845.809,1458.47 851.153,1457.83 856.497,1457.17 861.841,1456.48 867.184,1455.76 872.528,1455 877.872,1454.21 883.216,1453.38 888.56,1452.52 893.903,1451.61 899.247,1450.66 904.591,1449.67 909.935,1448.62 915.278,1447.52 920.622,1446.36 925.966,1445.14 931.31,1443.86 936.654,1442.5 941.997,1441.07 947.341,1439.56 952.685,1437.96 958.029,1436.27 963.372,1434.48 968.716,1432.58 974.06,1430.56 979.404,1428.42 984.748,1426.13 990.091,1423.7 995.435,1421.1 1000.78,1418.32 1006.12,1415.35 1011.47,1412.17 1016.81,1408.75 1022.15,1405.08 1027.5,1401.12 1032.84,1396.86 1038.19,1392.26 1043.53,1387.27 1048.87,1381.87 1054.22,1376.01 1059.56,1369.62 1064.9,1362.66 1070.25,1355.05 1075.59,1346.71 1080.94,1337.56 1086.28,1327.5 1091.62,1316.39 1096.97,1304.12 1102.31,1290.51 1107.65,1275.4 1113,1258.56 1118.34,1239.77 1123.69,1218.75 1129.03,1195.18 1134.37,1168.72 1139.72,1138.96 1145.06,1105.48 1150.4,1067.82 1155.75,1025.52 1161.09,978.154 1166.44,925.388 1171.78,867.098 1177.12,803.496 1182.47,735.323 1187.81,664.075 1193.16,592.214 1198.5,523.282 1203.84,461.798 1209.19,412.813 1214.53,381.094 1219.87,370.098 1225.22,381.094 1230.56,412.813 1235.91,461.798 1241.25,523.282 1246.59,592.214 1251.94,664.075 1257.28,735.323 1262.62,803.496 1267.97,867.098 1273.31,925.388 1278.66,978.154 1284,1025.52 1289.34,1067.82 1294.69,1105.48 1300.03,1138.96 1305.37,1168.72 1310.72,1195.18 1316.06,1218.75 1321.41,1239.77 1326.75,1258.56 1332.09,1275.4 1337.44,1290.51 1342.78,1304.12 1348.12,1316.39 1353.47,1327.5 1358.81,1337.56 1364.16,1346.71 1369.5,1355.05 1374.84,1362.66 1380.19,1369.62 1385.53,1376.01 1390.88,1381.87 1396.22,1387.27 1401.56,1392.26 1406.91,1396.86 1412.25,1401.12 1417.59,1405.08 1422.94,1408.75 1428.28,1412.17 1433.63,1415.35 1438.97,1418.32 1444.31,1421.1 1449.66,1423.7 1455,1426.13 1460.34,1428.42 1465.69,1430.56 1471.03,1432.58 1476.38,1434.48 1481.72,1436.27 1487.06,1437.96 1492.41,1439.56 1497.75,1441.07 1503.09,1442.5 1508.44,1443.86 1513.78,1445.14 1519.13,1446.36 1524.47,1447.52 1529.81,1448.62 1535.16,1449.67 1540.5,1450.66 1545.84,1451.61 1551.19,1452.52 1556.53,1453.38 1561.88,1454.21 1567.22,1455 1572.56,1455.76 1577.91,1456.48 1583.25,1457.17 1588.6,1457.83 1593.94,1458.47 1599.28,1459.08 1604.63,1459.66 1609.97,1460.22 1615.31,1460.76 1620.66,1461.28 1626,1461.78 1631.35,1462.26 1636.69,1462.72 1642.03,1463.16 1647.38,1463.59 1652.72,1464.01 1658.06,1464.4 1663.41,1464.79 1668.75,1465.16 1674.1,1465.52 1679.44,1465.86 1684.78,1466.2 1690.13,1466.52 1695.47,1466.83 1700.81,1467.14 1706.16,1467.43 1711.5,1467.71 1716.85,1467.98 1722.19,1468.25 1727.53,1468.51 1732.88,1468.76 1738.22,1469 1743.56,1469.23 1748.91,1469.46 1754.25,1469.68 1759.6,1469.9 1764.94,1470.11 1770.28,1470.31 1775.63,1470.5 1780.97,1470.7 1786.31,1470.88 1791.66,1471.06 1797,1471.24 1802.35,1471.41 1807.69,1471.58 1813.03,1471.74 1818.38,1471.9 1823.72,1472.05 1829.07,1472.2 1834.41,1472.34 1839.75,1472.49 1845.1,1472.62 1850.44,1472.76 1855.78,1472.89 1861.13,1473.02 1866.47,1473.14 1871.82,1473.27 1877.16,1473.39 1882.5,1473.5 1887.85,1473.62 1893.19,1473.73 1898.53,1473.84 1903.88,1473.94 1909.22,1474.04 1914.57,1474.15 1919.91,1474.24 1925.25,1474.34 1930.6,1474.44 1935.94,1474.53 1941.28,1474.62 1946.63,1474.71 1951.97,1474.79 1957.32,1474.88 1962.66,1474.96 1968,1475.04 1973.35,1475.12 1978.69,1475.2 1984.03,1475.27 1989.38,1475.35 1994.72,1475.42 2000.07,1475.49 2005.41,1475.56 2010.75,1475.63 2016.1,1475.7 2021.44,1475.76 2026.79,1475.83 2032.13,1475.89 2037.47,1475.95 2042.82,1476.02 2048.16,1476.08 2053.5,1476.13 2058.85,1476.19 2064.19,1476.25 2069.54,1476.3 2074.88,1476.36 2080.22,1476.41 2085.57,1476.46 2090.91,1476.51 2096.25,1476.56 2101.6,1476.61 2106.94,1476.66 2112.29,1476.71 2117.63,1476.76 2122.97,1476.8 2128.32,1476.85 2133.66,1476.89 2139,1476.94 2144.35,1476.98 2149.69,1477.02 2155.04,1477.06 2160.38,1477.1 2165.72,1477.15 2171.07,1477.18 2176.41,1477.22 2181.75,1477.26 2187.1,1477.3 2192.44,1477.34 2197.79,1477.37 2203.13,1477.41 2208.47,1477.44 2213.82,1477.48 2219.16,1477.51 2224.51,1477.55 2229.85,1477.58 2235.19,1477.61 2240.54,1477.64 2245.88,1477.67 2251.22,1477.71 2256.57,1477.74 2261.91,1477.77 2267.26,1477.8 2272.6,1477.82 2277.94,1477.85 2283.29,1477.88 2288.63,1477.91 "/>
<polyline clip-path="url(#clip642)" style="stroke:#e26f46; stroke-linecap:round; stroke-linejoin:round; stroke-width:4; stroke-opacity:1; fill:none" points="1021.14,1479.3 1022.43,1479.17 1023.73,1479.03 1035.69,1477.01 1047.65,1472.95 1054.84,1468.86 1062.03,1462.93 1068.11,1456.01 1074.19,1446.82 1077.49,1440.68 1080.79,1433.61 1084.1,1425.51 1087.4,1416.25 1090.44,1406.6 1093.48,1395.78 1096.53,1383.7 1099.57,1370.25 1102.84,1354.21 1106.1,1336.38 1109.36,1316.65 1112.63,1294.92 1116.41,1267.11 1120.19,1236.37 1123.97,1202.59 1127.75,1165.73 1131.11,1130.37 1134.47,1092.57 1137.83,1052.39 1141.19,1009.91 1144.14,970.872 1147.08,930.272 1150.03,888.241 1152.97,844.937 1159.4,746.994 1165.82,646.112 1172.29,544.387 1178.75,445.515 1180.54,419.132 1182.32,393.293 1184.11,368.068 1185.9,343.53 1187.68,319.749 1189.47,296.794 1191.25,274.734 1193.04,253.635 1194.74,234.511 1196.44,216.368 1198.14,199.258 1199.84,183.23 1201.54,168.33 1203.24,154.601 1204.94,142.084 1206.64,130.814 1208.41,120.456 1210.17,111.517 1211.94,104.026 1213.71,98.0068 1215.48,93.4794 1217.24,90.4587 1219.01,88.9544 1220.78,88.9715 1222.27,90.1655 1223.75,92.4348 1225.24,95.7742 1226.73,100.176 1228.22,105.63 1229.7,112.123 1231.19,119.641 1232.68,128.167 1234.5,139.913 1236.31,153.091 1238.13,167.658 1239.94,183.564 1241.76,200.757 1243.58,219.181 1245.39,238.774 1247.21,259.475 1250.54,300.055 1253.87,343.704 1255.53,366.541 1257.19,389.977 1258.86,413.955 1260.52,438.416 1266.67,532.029 1272.81,628.582 1279.04,726.614 1285.27,822.367 1288.76,874.214 1292.25,924.354 1295.73,972.52 1299.22,1018.49 1302.39,1058.1 1305.55,1095.67 1308.71,1131.13 1311.87,1164.42 1315.49,1199.88 1319.11,1232.5 1322.73,1262.34 1326.35,1289.47 1329.7,1312.27 1333.05,1332.92 1336.41,1351.56 1339.76,1368.29 1343.06,1383.03 1346.37,1396.17 1349.67,1407.81 1352.97,1418.09 1356.18,1426.88 1359.39,1434.61 1362.6,1441.36 1365.81,1447.25 1372.39,1456.97 1378.96,1464.12 1386.17,1469.7 1393.38,1473.53 1403.85,1476.96 1414.31,1478.82 1416.46,1479.08 1418.61,1479.3 "/>
<path clip-path="url(#clip640)" d="M1878.36 251.89 L2277.23 251.89 L2277.23 96.3696 L1878.36 96.3696  Z" fill="#ffffff" fill-rule="evenodd" fill-opacity="1"/>
<polyline clip-path="url(#clip640)" style="stroke:#000000; stroke-linecap:round; stroke-linejoin:round; stroke-width:4; stroke-opacity:1; fill:none" points="1878.36,251.89 2277.23,251.89 2277.23,96.3696 1878.36,96.3696 1878.36,251.89 "/>
<polyline clip-path="url(#clip640)" style="stroke:#009af9; stroke-linecap:round; stroke-linejoin:round; stroke-width:4; stroke-opacity:1; fill:none" points="1903.54,148.21 2054.59,148.21 "/>
<path clip-path="url(#clip640)" d="M2107.63 133.592 L2107.63 138.522 Q2105.27 136.323 2102.59 135.235 Q2099.93 134.147 2096.92 134.147 Q2090.99 134.147 2087.84 137.781 Q2084.7 141.392 2084.7 148.244 Q2084.7 155.073 2087.84 158.707 Q2090.99 162.318 2096.92 162.318 Q2099.93 162.318 2102.59 161.23 Q2105.27 160.142 2107.63 157.943 L2107.63 162.828 Q2105.18 164.494 2102.43 165.328 Q2099.69 166.161 2096.64 166.161 Q2088.79 166.161 2084.28 161.369 Q2079.76 156.554 2079.76 148.244 Q2079.76 139.911 2084.28 135.119 Q2088.79 130.305 2096.64 130.305 Q2099.74 130.305 2102.47 131.138 Q2105.23 131.948 2107.63 133.592 Z" fill="#000000" fill-rule="nonzero" fill-opacity="1" /><path clip-path="url(#clip640)" d="M2126.45 152.457 Q2121.29 152.457 2119.3 153.638 Q2117.31 154.818 2117.31 157.666 Q2117.31 159.934 2118.79 161.277 Q2120.3 162.596 2122.87 162.596 Q2126.41 162.596 2128.54 160.096 Q2130.69 157.573 2130.69 153.406 L2130.69 152.457 L2126.45 152.457 M2134.95 150.698 L2134.95 165.49 L2130.69 165.49 L2130.69 161.554 Q2129.23 163.915 2127.06 165.05 Q2124.88 166.161 2121.73 166.161 Q2117.75 166.161 2115.39 163.939 Q2113.05 161.693 2113.05 157.943 Q2113.05 153.568 2115.97 151.346 Q2118.91 149.124 2124.72 149.124 L2130.69 149.124 L2130.69 148.707 Q2130.69 145.767 2128.75 144.17 Q2126.82 142.55 2123.33 142.55 Q2121.11 142.55 2119 143.082 Q2116.89 143.615 2114.95 144.679 L2114.95 140.744 Q2117.29 139.842 2119.49 139.402 Q2121.69 138.939 2123.77 138.939 Q2129.39 138.939 2132.17 141.855 Q2134.95 144.772 2134.95 150.698 Z" fill="#000000" fill-rule="nonzero" fill-opacity="1" /><path clip-path="url(#clip640)" d="M2143.28 155.258 L2143.28 139.564 L2147.54 139.564 L2147.54 155.096 Q2147.54 158.777 2148.98 160.628 Q2150.41 162.457 2153.28 162.457 Q2156.73 162.457 2158.72 160.258 Q2160.74 158.059 2160.74 154.263 L2160.74 139.564 L2165 139.564 L2165 165.49 L2160.74 165.49 L2160.74 161.508 Q2159.19 163.869 2157.13 165.027 Q2155.09 166.161 2152.38 166.161 Q2147.91 166.161 2145.6 163.383 Q2143.28 160.605 2143.28 155.258 M2154 138.939 L2154 138.939 Z" fill="#000000" fill-rule="nonzero" fill-opacity="1" /><path clip-path="url(#clip640)" d="M2192.43 140.559 L2192.43 144.541 Q2190.62 143.545 2188.79 143.059 Q2186.99 142.55 2185.13 142.55 Q2180.99 142.55 2178.7 145.189 Q2176.41 147.804 2176.41 152.55 Q2176.41 157.295 2178.7 159.934 Q2180.99 162.55 2185.13 162.55 Q2186.99 162.55 2188.79 162.064 Q2190.62 161.554 2192.43 160.559 L2192.43 164.494 Q2190.64 165.328 2188.72 165.744 Q2186.82 166.161 2184.67 166.161 Q2178.81 166.161 2175.37 162.48 Q2171.92 158.8 2171.92 152.55 Q2171.92 146.207 2175.39 142.573 Q2178.88 138.939 2184.95 138.939 Q2186.92 138.939 2188.79 139.355 Q2190.67 139.749 2192.43 140.559 Z" fill="#000000" fill-rule="nonzero" fill-opacity="1" /><path clip-path="url(#clip640)" d="M2221.38 149.841 L2221.38 165.49 L2217.12 165.49 L2217.12 149.98 Q2217.12 146.3 2215.69 144.471 Q2214.25 142.642 2211.38 142.642 Q2207.94 142.642 2205.94 144.842 Q2203.95 147.041 2203.95 150.837 L2203.95 165.49 L2199.67 165.49 L2199.67 129.471 L2203.95 129.471 L2203.95 143.592 Q2205.48 141.254 2207.54 140.096 Q2209.62 138.939 2212.33 138.939 Q2216.8 138.939 2219.09 141.717 Q2221.38 144.471 2221.38 149.841 Z" fill="#000000" fill-rule="nonzero" fill-opacity="1" /><path clip-path="url(#clip640)" d="M2240.67 167.897 Q2238.86 172.527 2237.15 173.939 Q2235.44 175.351 2232.56 175.351 L2229.16 175.351 L2229.16 171.786 L2231.66 171.786 Q2233.42 171.786 2234.39 170.952 Q2235.37 170.119 2236.55 167.017 L2237.31 165.073 L2226.82 139.564 L2231.34 139.564 L2239.44 159.841 L2247.54 139.564 L2252.06 139.564 L2240.67 167.897 Z" fill="#000000" fill-rule="nonzero" fill-opacity="1" /><polyline clip-path="url(#clip640)" style="stroke:#e26f46; stroke-linecap:round; stroke-linejoin:round; stroke-width:4; stroke-opacity:1; fill:none" points="1903.54,200.05 2054.59,200.05 "/>
<path clip-path="url(#clip640)" d="M2079.76 182.77 L2086.06 182.77 L2101.38 211.681 L2101.38 182.77 L2105.92 182.77 L2105.92 217.33 L2099.63 217.33 L2084.3 188.418 L2084.3 217.33 L2079.76 217.33 L2079.76 182.77 Z" fill="#000000" fill-rule="nonzero" fill-opacity="1" /><path clip-path="url(#clip640)" d="M2125.09 194.39 Q2121.66 194.39 2119.67 197.075 Q2117.68 199.737 2117.68 204.39 Q2117.68 209.043 2119.65 211.728 Q2121.64 214.39 2125.09 214.39 Q2128.49 214.39 2130.48 211.705 Q2132.47 209.019 2132.47 204.39 Q2132.47 199.783 2130.48 197.098 Q2128.49 194.39 2125.09 194.39 M2125.09 190.779 Q2130.64 190.779 2133.82 194.39 Q2136.99 198.001 2136.99 204.39 Q2136.99 210.756 2133.82 214.39 Q2130.64 218.001 2125.09 218.001 Q2119.51 218.001 2116.34 214.39 Q2113.19 210.756 2113.19 204.39 Q2113.19 198.001 2116.34 194.39 Q2119.51 190.779 2125.09 190.779 Z" fill="#000000" fill-rule="nonzero" fill-opacity="1" /><path clip-path="url(#clip640)" d="M2159.07 195.385 Q2158.35 194.969 2157.5 194.783 Q2156.66 194.575 2155.64 194.575 Q2152.03 194.575 2150.09 196.936 Q2148.17 199.274 2148.17 203.672 L2148.17 217.33 L2143.88 217.33 L2143.88 191.404 L2148.17 191.404 L2148.17 195.432 Q2149.51 193.07 2151.66 191.936 Q2153.82 190.779 2156.89 190.779 Q2157.33 190.779 2157.87 190.848 Q2158.4 190.895 2159.05 191.01 L2159.07 195.385 Z" fill="#000000" fill-rule="nonzero" fill-opacity="1" /><path clip-path="url(#clip640)" d="M2182.89 196.381 Q2184.49 193.51 2186.71 192.145 Q2188.93 190.779 2191.94 190.779 Q2195.99 190.779 2198.19 193.626 Q2200.39 196.45 2200.39 201.681 L2200.39 217.33 L2196.11 217.33 L2196.11 201.82 Q2196.11 198.094 2194.79 196.288 Q2193.47 194.482 2190.76 194.482 Q2187.45 194.482 2185.53 196.682 Q2183.61 198.881 2183.61 202.677 L2183.61 217.33 L2179.32 217.33 L2179.32 201.82 Q2179.32 198.07 2178 196.288 Q2176.69 194.482 2173.93 194.482 Q2170.67 194.482 2168.75 196.705 Q2166.82 198.904 2166.82 202.677 L2166.82 217.33 L2162.54 217.33 L2162.54 191.404 L2166.82 191.404 L2166.82 195.432 Q2168.28 193.047 2170.32 191.913 Q2172.36 190.779 2175.16 190.779 Q2177.98 190.779 2179.95 192.214 Q2181.94 193.649 2182.89 196.381 Z" fill="#000000" fill-rule="nonzero" fill-opacity="1" /><path clip-path="url(#clip640)" d="M2220.67 204.297 Q2215.5 204.297 2213.51 205.478 Q2211.52 206.658 2211.52 209.506 Q2211.52 211.774 2213 213.117 Q2214.51 214.436 2217.08 214.436 Q2220.62 214.436 2222.75 211.936 Q2224.9 209.413 2224.9 205.246 L2224.9 204.297 L2220.67 204.297 M2229.16 202.538 L2229.16 217.33 L2224.9 217.33 L2224.9 213.394 Q2223.44 215.755 2221.27 216.89 Q2219.09 218.001 2215.94 218.001 Q2211.96 218.001 2209.6 215.779 Q2207.26 213.533 2207.26 209.783 Q2207.26 205.408 2210.18 203.186 Q2213.12 200.964 2218.93 200.964 L2224.9 200.964 L2224.9 200.547 Q2224.9 197.607 2222.96 196.01 Q2221.04 194.39 2217.54 194.39 Q2215.32 194.39 2213.21 194.922 Q2211.11 195.455 2209.16 196.519 L2209.16 192.584 Q2211.5 191.682 2213.7 191.242 Q2215.9 190.779 2217.98 190.779 Q2223.61 190.779 2226.38 193.695 Q2229.16 196.612 2229.16 202.538 Z" fill="#000000" fill-rule="nonzero" fill-opacity="1" /><path clip-path="url(#clip640)" d="M2237.93 181.311 L2242.19 181.311 L2242.19 217.33 L2237.93 217.33 L2237.93 181.311 Z" fill="#000000" fill-rule="nonzero" fill-opacity="1" /></svg>
