<?xml version="1.0" encoding="utf-8"?>
<svg xmlns="http://www.w3.org/2000/svg" xmlns:xlink="http://www.w3.org/1999/xlink" width="600" height="400" viewBox="0 0 2400 1600">
<defs>
  <clipPath id="clip970">
    <rect x="0" y="0" width="2400" height="1600"/>
  </clipPath>
</defs>
<path clip-path="url(#clip970)" d="M0 1600 L2400 1600 L2400 0 L0 0  Z" fill="#ffffff" fill-rule="evenodd" fill-opacity="1"/>
<defs>
  <clipPath id="clip971">
    <rect x="480" y="0" width="1681" height="1600"/>
  </clipPath>
</defs>
<path clip-path="url(#clip970)" d="M47.2441 1521.01 L2352.76 1521.01 L2352.76 47.2441 L47.2441 47.2441  Z" fill="#ffffff" fill-rule="evenodd" fill-opacity="1"/>
<defs>
  <clipPath id="clip972">
    <rect x="47" y="47" width="2307" height="1475"/>
  </clipPath>
</defs>
<polyline clip-path="url(#clip972)" style="stroke:#000000; stroke-linecap:round; stroke-linejoin:round; stroke-width:2; stroke-opacity:0.1; fill:none" points="112.494,1521.01 112.494,47.2441 "/>
<polyline clip-path="url(#clip972)" style="stroke:#000000; stroke-linecap:round; stroke-linejoin:round; stroke-width:2; stroke-opacity:0.1; fill:none" points="656.247,1521.01 656.247,47.2441 "/>
<polyline clip-path="url(#clip972)" style="stroke:#000000; stroke-linecap:round; stroke-linejoin:round; stroke-width:2; stroke-opacity:0.1; fill:none" points="1200,1521.01 1200,47.2441 "/>
<polyline clip-path="url(#clip972)" style="stroke:#000000; stroke-linecap:round; stroke-linejoin:round; stroke-width:2; stroke-opacity:0.1; fill:none" points="1743.75,1521.01 1743.75,47.2441 "/>
<polyline clip-path="url(#clip972)" style="stroke:#000000; stroke-linecap:round; stroke-linejoin:round; stroke-width:2; stroke-opacity:0.1; fill:none" points="2287.51,1521.01 2287.51,47.2441 "/>
<polyline clip-path="url(#clip970)" style="stroke:#000000; stroke-linecap:round; stroke-linejoin:round; stroke-width:4; stroke-opacity:1; fill:none" points="47.2441,1521.01 2352.76,1521.01 "/>
<polyline clip-path="url(#clip970)" style="stroke:#000000; stroke-linecap:round; stroke-linejoin:round; stroke-width:4; stroke-opacity:1; fill:none" points="112.494,1521.01 112.494,1502.11 "/>
<polyline clip-path="url(#clip970)" style="stroke:#000000; stroke-linecap:round; stroke-linejoin:round; stroke-width:4; stroke-opacity:1; fill:none" points="656.247,1521.01 656.247,1502.11 "/>
<polyline clip-path="url(#clip970)" style="stroke:#000000; stroke-linecap:round; stroke-linejoin:round; stroke-width:4; stroke-opacity:1; fill:none" points="1200,1521.01 1200,1502.11 "/>
<polyline clip-path="url(#clip970)" style="stroke:#000000; stroke-linecap:round; stroke-linejoin:round; stroke-width:4; stroke-opacity:1; fill:none" points="1743.75,1521.01 1743.75,1502.11 "/>
<polyline clip-path="url(#clip970)" style="stroke:#000000; stroke-linecap:round; stroke-linejoin:round; stroke-width:4; stroke-opacity:1; fill:none" points="2287.51,1521.01 2287.51,1502.11 "/>
<path clip-path="url(#clip970)" d="M112.494 1551.93 Q108.883 1551.93 107.055 1555.49 Q105.249 1559.03 105.249 1566.16 Q105.249 1573.27 107.055 1576.83 Q108.883 1580.38 112.494 1580.38 Q116.129 1580.38 117.934 1576.83 Q119.763 1573.27 119.763 1566.16 Q119.763 1559.03 117.934 1555.49 Q116.129 1551.93 112.494 1551.93 M112.494 1548.22 Q118.305 1548.22 121.36 1552.83 Q124.439 1557.41 124.439 1566.16 Q124.439 1574.89 121.36 1579.5 Q118.305 1584.08 112.494 1584.08 Q106.684 1584.08 103.606 1579.5 Q100.55 1574.89 100.55 1566.16 Q100.55 1557.41 103.606 1552.83 Q106.684 1548.22 112.494 1548.22 Z" fill="#000000" fill-rule="nonzero" fill-opacity="1" /><path clip-path="url(#clip970)" d="M635.518 1579.47 L651.838 1579.47 L651.838 1583.41 L629.893 1583.41 L629.893 1579.47 Q632.555 1576.72 637.139 1572.09 Q641.745 1567.44 642.926 1566.09 Q645.171 1563.57 646.051 1561.83 Q646.953 1560.07 646.953 1558.38 Q646.953 1555.63 645.009 1553.89 Q643.088 1552.16 639.986 1552.16 Q637.787 1552.16 635.333 1552.92 Q632.902 1553.69 630.125 1555.24 L630.125 1550.51 Q632.949 1549.38 635.402 1548.8 Q637.856 1548.22 639.893 1548.22 Q645.263 1548.22 648.458 1550.91 Q651.652 1553.59 651.652 1558.08 Q651.652 1560.21 650.842 1562.13 Q650.055 1564.03 647.949 1566.63 Q647.37 1567.3 644.268 1570.51 Q641.166 1573.71 635.518 1579.47 Z" fill="#000000" fill-rule="nonzero" fill-opacity="1" /><path clip-path="url(#clip970)" d="M661.699 1548.85 L680.055 1548.85 L680.055 1552.78 L665.981 1552.78 L665.981 1561.26 Q666.999 1560.91 668.018 1560.75 Q669.036 1560.56 670.055 1560.56 Q675.842 1560.56 679.222 1563.73 Q682.601 1566.9 682.601 1572.32 Q682.601 1577.9 679.129 1581 Q675.657 1584.08 669.337 1584.08 Q667.162 1584.08 664.893 1583.71 Q662.648 1583.34 660.24 1582.6 L660.24 1577.9 Q662.324 1579.03 664.546 1579.59 Q666.768 1580.14 669.245 1580.14 Q673.249 1580.14 675.587 1578.04 Q677.925 1575.93 677.925 1572.32 Q677.925 1568.71 675.587 1566.6 Q673.249 1564.5 669.245 1564.5 Q667.37 1564.5 665.495 1564.91 Q663.643 1565.33 661.699 1566.21 L661.699 1548.85 Z" fill="#000000" fill-rule="nonzero" fill-opacity="1" /><path clip-path="url(#clip970)" d="M1174.7 1548.85 L1193.06 1548.85 L1193.06 1552.78 L1178.98 1552.78 L1178.98 1561.26 Q1180 1560.91 1181.02 1560.75 Q1182.04 1560.56 1183.06 1560.56 Q1188.84 1560.56 1192.22 1563.73 Q1195.6 1566.9 1195.6 1572.32 Q1195.6 1577.9 1192.13 1581 Q1188.66 1584.08 1182.34 1584.08 Q1180.16 1584.08 1177.89 1583.71 Q1175.65 1583.34 1173.24 1582.6 L1173.24 1577.9 Q1175.32 1579.03 1177.55 1579.59 Q1179.77 1580.14 1182.25 1580.14 Q1186.25 1580.14 1188.59 1578.04 Q1190.93 1575.93 1190.93 1572.32 Q1190.93 1568.71 1188.59 1566.6 Q1186.25 1564.5 1182.25 1564.5 Q1180.37 1564.5 1178.5 1564.91 Q1176.64 1565.33 1174.7 1566.21 L1174.7 1548.85 Z" fill="#000000" fill-rule="nonzero" fill-opacity="1" /><path clip-path="url(#clip970)" d="M1214.81 1551.93 Q1211.2 1551.93 1209.37 1555.49 Q1207.57 1559.03 1207.57 1566.16 Q1207.57 1573.27 1209.37 1576.83 Q1211.2 1580.38 1214.81 1580.38 Q1218.45 1580.38 1220.25 1576.83 Q1222.08 1573.27 1222.08 1566.16 Q1222.08 1559.03 1220.25 1555.49 Q1218.45 1551.93 1214.81 1551.93 M1214.81 1548.22 Q1220.62 1548.22 1223.68 1552.83 Q1226.76 1557.41 1226.76 1566.16 Q1226.76 1574.89 1223.68 1579.5 Q1220.62 1584.08 1214.81 1584.08 Q1209 1584.08 1205.93 1579.5 Q1202.87 1574.89 1202.87 1566.16 Q1202.87 1557.41 1205.93 1552.83 Q1209 1548.22 1214.81 1548.22 Z" fill="#000000" fill-rule="nonzero" fill-opacity="1" /><path clip-path="url(#clip970)" d="M1717.61 1548.85 L1739.83 1548.85 L1739.83 1550.84 L1727.28 1583.41 L1722.4 1583.41 L1734.2 1552.78 L1717.61 1552.78 L1717.61 1548.85 Z" fill="#000000" fill-rule="nonzero" fill-opacity="1" /><path clip-path="url(#clip970)" d="M1749 1548.85 L1767.35 1548.85 L1767.35 1552.78 L1753.28 1552.78 L1753.28 1561.26 Q1754.3 1560.91 1755.32 1560.75 Q1756.33 1560.56 1757.35 1560.56 Q1763.14 1560.56 1766.52 1563.73 Q1769.9 1566.9 1769.9 1572.32 Q1769.9 1577.9 1766.43 1581 Q1762.95 1584.08 1756.63 1584.08 Q1754.46 1584.08 1752.19 1583.71 Q1749.94 1583.34 1747.54 1582.6 L1747.54 1577.9 Q1749.62 1579.03 1751.84 1579.59 Q1754.07 1580.14 1756.54 1580.14 Q1760.55 1580.14 1762.88 1578.04 Q1765.22 1575.93 1765.22 1572.32 Q1765.22 1568.71 1762.88 1566.6 Q1760.55 1564.5 1756.54 1564.5 Q1754.67 1564.5 1752.79 1564.91 Q1750.94 1565.33 1749 1566.21 L1749 1548.85 Z" fill="#000000" fill-rule="nonzero" fill-opacity="1" /><path clip-path="url(#clip970)" d="M2247.11 1579.47 L2254.75 1579.47 L2254.75 1553.11 L2246.44 1554.77 L2246.44 1550.51 L2254.7 1548.85 L2259.38 1548.85 L2259.38 1579.47 L2267.02 1579.47 L2267.02 1583.41 L2247.11 1583.41 L2247.11 1579.47 Z" fill="#000000" fill-rule="nonzero" fill-opacity="1" /><path clip-path="url(#clip970)" d="M2286.46 1551.93 Q2282.85 1551.93 2281.02 1555.49 Q2279.22 1559.03 2279.22 1566.16 Q2279.22 1573.27 2281.02 1576.83 Q2282.85 1580.38 2286.46 1580.38 Q2290.1 1580.38 2291.9 1576.83 Q2293.73 1573.27 2293.73 1566.16 Q2293.73 1559.03 2291.9 1555.49 Q2290.1 1551.93 2286.46 1551.93 M2286.46 1548.22 Q2292.27 1548.22 2295.33 1552.83 Q2298.41 1557.41 2298.41 1566.16 Q2298.41 1574.89 2295.33 1579.5 Q2292.27 1584.08 2286.46 1584.08 Q2280.65 1584.08 2277.58 1579.5 Q2274.52 1574.89 2274.52 1566.16 Q2274.52 1557.41 2277.58 1552.83 Q2280.65 1548.22 2286.46 1548.22 Z" fill="#000000" fill-rule="nonzero" fill-opacity="1" /><path clip-path="url(#clip970)" d="M2316.63 1551.93 Q2313.01 1551.93 2311.19 1555.49 Q2309.38 1559.03 2309.38 1566.16 Q2309.38 1573.27 2311.19 1576.83 Q2313.01 1580.38 2316.63 1580.38 Q2320.26 1580.38 2322.07 1576.83 Q2323.89 1573.27 2323.89 1566.16 Q2323.89 1559.03 2322.07 1555.49 Q2320.26 1551.93 2316.63 1551.93 M2316.63 1548.22 Q2322.44 1548.22 2325.49 1552.83 Q2328.57 1557.41 2328.57 1566.16 Q2328.57 1574.89 2325.49 1579.5 Q2322.44 1584.08 2316.63 1584.08 Q2310.82 1584.08 2307.74 1579.5 Q2304.68 1574.89 2304.68 1566.16 Q2304.68 1557.41 2307.74 1552.83 Q2310.82 1548.22 2316.63 1548.22 Z" fill="#000000" fill-rule="nonzero" fill-opacity="1" /><polyline clip-path="url(#clip970)" style="stroke:#000000; stroke-linecap:round; stroke-linejoin:round; stroke-width:4; stroke-opacity:1; fill:none" points="47.2441,1521.01 47.2441,47.2441 "/>
<polyline clip-path="url(#clip972)" style="stroke:#009af9; stroke-linecap:round; stroke-linejoin:round; stroke-width:4; stroke-opacity:1; fill:none" points="112.494,1479.3 114.669,1479.3 116.844,1479.3 119.019,1479.3 121.194,1479.3 123.369,1479.3 125.544,1479.3 127.72,1479.3 129.895,1479.3 132.07,1479.3 134.245,1479.3 136.42,1479.3 138.595,1479.3 140.77,1479.3 142.945,1479.3 145.12,1479.3 147.295,1479.3 149.47,1479.3 151.645,1479.3 153.82,1479.3 155.995,1479.3 158.17,1479.3 160.345,1479.3 162.52,1479.3 164.695,1479.3 166.87,1479.3 169.045,1479.3 171.22,1479.3 173.395,1479.3 175.57,1479.3 177.745,1479.3 179.92,1479.3 182.095,1479.3 184.27,1479.3 186.445,1479.3 188.62,1479.3 190.795,1479.3 192.97,1479.3 195.145,1479.3 197.32,1479.3 199.495,1479.3 201.67,1479.3 203.845,1479.3 206.02,1479.3 208.195,1479.3 210.37,1479.3 212.545,1479.3 214.72,1479.3 216.895,1479.3 219.07,1479.3 221.245,1479.3 223.42,1479.3 225.595,1479.3 227.77,1479.3 229.945,1479.3 232.12,1479.3 234.295,1479.3 236.47,1479.3 238.645,1479.3 240.82,1479.3 242.995,1479.3 245.17,1479.3 247.345,1479.3 249.52,1479.3 251.695,1479.3 253.87,1479.3 256.045,1479.3 258.22,1479.3 260.395,1479.3 262.57,1479.3 264.745,1479.3 266.92,1479.3 269.095,1479.3 271.27,1479.3 273.445,1479.3 275.62,1479.3 277.795,1479.3 279.97,1479.3 282.145,1479.3 284.32,1479.3 286.495,1479.3 288.67,1479.3 290.845,1479.3 293.02,1479.3 295.195,1479.3 297.37,1479.3 299.545,1479.3 301.72,1479.3 303.895,1479.3 306.07,1479.3 308.245,1479.3 310.42,1479.3 312.595,1479.3 314.77,1479.3 316.945,1479.3 319.12,1479.3 321.295,1479.3 323.471,1479.3 325.646,1479.3 327.821,1479.3 329.996,1479.3 332.171,1479.3 334.346,1479.3 336.521,1479.3 338.696,1479.3 340.871,1479.3 343.046,1479.3 345.221,1479.3 347.396,1479.3 349.571,1479.3 351.746,1479.3 353.921,1479.3 356.096,1479.3 358.271,1479.3 360.446,1479.3 362.621,1479.3 364.796,1479.3 366.971,1479.3 369.146,1479.3 371.321,1479.3 373.496,1479.3 375.671,1479.3 377.846,1479.3 380.021,1479.3 382.196,1479.3 384.371,1479.3 386.546,1479.3 388.721,1479.3 390.896,1479.3 393.071,1479.3 395.246,1479.3 397.421,1479.3 399.596,1479.3 401.771,1479.3 403.946,1479.3 406.121,1479.3 408.296,1479.3 410.471,1479.3 412.646,1479.3 414.821,1479.3 416.996,1479.3 419.171,1479.3 421.346,1479.3 423.521,1479.3 425.696,1479.3 427.871,1479.3 430.046,1479.3 432.221,1479.3 434.396,1479.3 436.571,1479.3 438.746,1479.3 440.921,1479.3 443.096,1479.3 445.271,1479.3 447.446,1479.3 449.621,1479.3 451.796,1479.3 453.971,1479.3 456.146,1479.3 458.321,1479.3 460.496,1479.3 462.671,1479.3 464.846,1479.3 467.021,1479.3 469.196,1479.3 471.371,1479.3 473.546,1479.3 475.721,1479.3 477.896,1479.3 480.071,1479.3 482.246,1479.3 484.421,1479.3 486.596,1479.3 488.771,1479.3 490.946,1479.3 493.121,1479.3 495.296,1479.3 497.471,1479.3 499.646,1479.3 501.821,1479.3 503.996,1479.3 506.171,1479.3 508.346,1479.3 510.521,1479.3 512.696,1479.3 514.871,1479.3 517.047,1479.3 519.222,1479.3 521.397,1479.3 523.572,1479.3 525.747,1479.3 527.922,1479.3 530.097,1479.3 532.272,1479.3 534.447,1479.3 536.622,1479.3 538.797,1479.3 540.972,1479.3 543.147,1479.3 545.322,1479.3 547.497,1479.3 549.672,1479.3 551.847,1479.3 554.022,1479.3 556.197,1479.3 558.372,1479.3 560.547,1479.3 562.722,1479.3 564.897,1479.3 567.072,1479.3 569.247,1479.3 571.422,1479.3 573.597,1479.3 575.772,1479.3 577.947,1479.3 580.122,1479.3 582.297,1479.3 584.472,1479.3 586.647,1479.3 588.822,1479.3 590.997,1479.3 593.172,1479.3 595.347,1479.3 597.522,1479.3 599.697,1479.3 601.872,1479.3 604.047,1479.3 606.222,1479.3 608.397,1479.3 610.572,1479.3 612.747,1479.3 614.922,1479.3 617.097,1479.3 619.272,1479.3 621.447,1479.3 623.622,1479.3 625.797,1479.3 627.972,1479.3 630.147,1479.3 632.322,1479.3 634.497,1479.3 636.672,1479.3 638.847,1479.3 641.022,1479.3 643.197,1479.3 645.372,1479.3 647.547,1479.3 649.722,1479.3 651.897,1479.3 654.072,1479.3 656.247,1479.3 658.422,1479.3 660.597,1479.3 662.772,1479.3 664.947,1479.3 667.122,1479.3 669.297,1479.3 671.472,1479.3 673.647,1479.3 675.822,1479.3 677.997,1479.3 680.172,1479.3 682.347,1479.3 684.522,1479.3 686.697,1479.3 688.872,1479.3 691.047,1479.3 693.222,1479.3 695.397,1479.3 697.572,1479.3 699.747,1479.3 701.922,1479.3 704.097,1479.3 706.272,1479.3 708.447,1479.3 710.622,1479.3 712.798,1479.3 714.973,1479.3 717.148,1479.3 719.323,1479.3 721.498,1479.3 723.673,1479.3 725.848,1479.3 728.023,1479.3 730.198,1479.3 732.373,1479.3 734.548,1479.3 736.723,1479.3 738.898,1479.3 741.073,1479.3 743.248,1479.3 745.423,1479.3 747.598,1479.3 749.773,1479.3 751.948,1479.3 754.123,1479.3 756.298,1479.3 758.473,1479.3 760.648,1479.3 762.823,1479.3 764.998,1479.3 767.173,1479.3 769.348,1479.3 771.523,1479.3 773.698,1479.3 775.873,1479.3 778.048,1479.3 780.223,1479.3 782.398,1479.3 784.573,1479.3 786.748,1479.3 788.923,1479.3 791.098,1479.3 793.273,1479.3 795.448,1479.3 797.623,1479.3 799.798,1479.3 801.973,1479.3 804.148,1479.3 806.323,1479.3 808.498,1479.3 810.673,1479.3 812.848,1479.3 815.023,1479.3 817.198,1479.3 819.373,1479.3 821.548,1479.3 823.723,1479.3 825.898,1479.3 828.073,1479.3 830.248,1479.3 832.423,1479.3 834.598,1479.3 836.773,1479.3 838.948,1479.3 841.123,1479.3 843.298,1479.3 845.473,1479.3 847.648,1479.3 849.823,1479.3 851.998,1479.3 854.173,1479.3 856.348,1479.3 858.523,1479.3 860.698,1479.3 862.873,1479.3 865.048,1479.3 867.223,1479.3 869.398,1479.3 871.573,1479.3 873.748,1479.3 875.923,1479.3 878.098,1479.3 880.273,1479.3 882.448,1479.3 884.623,1479.3 886.798,1479.3 888.973,1479.3 891.148,1479.3 893.323,1479.3 895.498,1479.3 897.673,1479.3 899.848,1479.3 902.023,1479.3 904.198,1479.3 906.373,1479.3 908.549,1479.3 910.724,1479.3 912.899,1479.3 915.074,1479.3 917.249,1479.3 919.424,1479.3 921.599,1479.3 923.774,1479.3 925.949,1479.3 928.124,1479.3 930.299,1479.3 932.474,1479.3 934.649,1479.3 936.824,1479.3 938.999,1479.3 941.174,1479.3 943.349,1479.3 945.524,1479.3 947.699,1479.3 949.874,1479.3 952.049,1479.3 954.224,1479.29 956.399,1479.29 958.574,1479.29 960.749,1479.29 962.924,1479.29 965.099,1479.29 967.274,1479.29 969.449,1479.29 971.624,1479.29 973.799,1479.28 975.974,1479.28 978.149,1479.28 980.324,1479.27 982.499,1479.27 984.674,1479.26 986.849,1479.25 989.024,1479.24 991.199,1479.23 993.374,1479.21 995.549,1479.19 997.724,1479.16 999.899,1479.13 1002.07,1479.08 1004.25,1479.02 1006.42,1478.93 1008.6,1478.83 1010.77,1478.68 1012.95,1478.48 1015.12,1478.22 1017.3,1477.86 1019.47,1477.37 1021.65,1476.68 1023.82,1475.74 1026,1474.42 1028.17,1472.58 1030.35,1470.01 1032.52,1466.41 1034.7,1461.39 1036.87,1454.43 1039.05,1444.9 1041.22,1432.01 1043.4,1414.9 1045.57,1392.65 1047.75,1364.33 1049.92,1329.1 1052.1,1286.15 1054.27,1234.75 1056.45,1174.29 1058.62,1104.34 1060.8,1024.86 1062.97,936.46 1065.15,840.606 1067.32,739.7 1069.5,636.893 1071.67,535.658 1073.85,439.293 1076.02,350.567 1078.2,271.669 1080.37,204.441 1082.55,150.689 1084.72,112.343 1086.9,91.3041 1089.07,88.9544 1091.25,105.53 1093.42,139.666 1095.6,188.388 1097.77,247.604 1099.95,312.894 1102.12,380.284 1104.3,446.763 1106.47,510.497 1108.65,570.773 1110.82,627.813 1113,682.512 1115.17,736.142 1117.35,790.032 1119.52,845.243 1121.7,902.275 1123.87,960.895 1126.05,1020.17 1128.22,1078.68 1130.4,1134.9 1132.57,1187.51 1134.75,1235.58 1136.92,1278.59 1139.1,1316.41 1141.27,1349.1 1143.45,1376.87 1145.62,1400.01 1147.8,1418.89 1149.97,1433.93 1152.15,1445.65 1154.32,1454.59 1156.5,1461.27 1158.67,1466.2 1160.85,1469.79 1163.02,1472.39 1165.2,1474.27 1167.37,1475.62 1169.55,1476.59 1171.72,1477.3 1173.9,1477.81 1176.07,1478.18 1178.25,1478.46 1180.42,1478.66 1182.6,1478.81 1184.77,1478.92 1186.95,1479.01 1189.12,1479.07 1191.3,1479.12 1193.47,1479.16 1195.65,1479.19 1197.82,1479.21 1200,1479.23 1202.18,1479.24 1204.35,1479.25 1206.53,1479.26 1208.7,1479.27 1210.88,1479.27 1213.05,1479.28 1215.23,1479.28 1217.4,1479.28 1219.58,1479.29 1221.75,1479.29 1223.93,1479.29 1226.1,1479.29 1228.28,1479.29 1230.45,1479.29 1232.63,1479.29 1234.8,1479.29 1236.98,1479.29 1239.15,1479.3 1241.33,1479.3 1243.5,1479.3 1245.68,1479.3 1247.85,1479.3 1250.03,1479.3 1252.2,1479.3 1254.38,1479.3 1256.55,1479.3 1258.73,1479.3 1260.9,1479.3 1263.08,1479.3 1265.25,1479.3 1267.43,1479.3 1269.6,1479.3 1271.78,1479.3 1273.95,1479.3 1276.13,1479.3 1278.3,1479.3 1280.48,1479.3 1282.65,1479.3 1284.83,1479.3 1287,1479.3 1289.18,1479.3 1291.35,1479.3 1293.53,1479.3 1295.7,1479.3 1297.88,1479.3 1300.05,1479.3 1302.23,1479.3 1304.4,1479.3 1306.58,1479.3 1308.75,1479.3 1310.93,1479.3 1313.1,1479.3 1315.28,1479.3 1317.45,1479.3 1319.63,1479.3 1321.8,1479.3 1323.98,1479.3 1326.15,1479.3 1328.33,1479.3 1330.5,1479.3 1332.68,1479.3 1334.85,1479.3 1337.03,1479.3 1339.2,1479.3 1341.38,1479.3 1343.55,1479.3 1345.73,1479.3 1347.9,1479.3 1350.08,1479.3 1352.25,1479.3 1354.43,1479.3 1356.6,1479.3 1358.78,1479.3 1360.95,1479.3 1363.13,1479.3 1365.3,1479.3 1367.48,1479.3 1369.65,1479.3 1371.83,1479.3 1374,1479.3 1376.18,1479.3 1378.35,1479.3 1380.53,1479.3 1382.7,1479.3 1384.88,1479.3 1387.05,1479.3 1389.23,1479.3 1391.4,1479.3 1393.58,1479.3 1395.75,1479.3 1397.93,1479.3 1400.1,1479.3 1402.28,1479.3 1404.45,1479.3 1406.63,1479.3 1408.8,1479.3 1410.98,1479.3 1413.15,1479.3 1415.33,1479.3 1417.5,1479.3 1419.68,1479.3 1421.85,1479.3 1424.03,1479.3 1426.2,1479.3 1428.38,1479.3 1430.55,1479.3 1432.73,1479.3 1434.9,1479.3 1437.08,1479.3 1439.25,1479.3 1441.43,1479.3 1443.6,1479.3 1445.78,1479.3 1447.95,1479.3 1450.13,1479.3 1452.3,1479.3 1454.48,1479.3 1456.65,1479.3 1458.83,1479.3 1461,1479.3 1463.18,1479.3 1465.35,1479.3 1467.53,1479.3 1469.7,1479.3 1471.88,1479.3 1474.05,1479.3 1476.23,1479.3 1478.4,1479.3 1480.58,1479.3 1482.75,1479.3 1484.93,1479.3 1487.1,1479.3 1489.28,1479.3 1491.45,1479.3 1493.63,1479.3 1495.8,1479.3 1497.98,1479.3 1500.15,1479.3 1502.33,1479.3 1504.5,1479.3 1506.68,1479.3 1508.85,1479.3 1511.03,1479.3 1513.2,1479.3 1515.38,1479.3 1517.55,1479.3 1519.73,1479.3 1521.9,1479.3 1524.08,1479.3 1526.25,1479.3 1528.43,1479.3 1530.6,1479.3 1532.78,1479.3 1534.95,1479.3 1537.13,1479.3 1539.3,1479.3 1541.48,1479.3 1543.65,1479.3 1545.83,1479.3 1548,1479.3 1550.18,1479.3 1552.35,1479.3 1554.53,1479.3 1556.7,1479.3 1558.88,1479.3 1561.05,1479.3 1563.23,1479.3 1565.4,1479.3 1567.58,1479.3 1569.75,1479.3 1571.93,1479.3 1574.1,1479.3 1576.28,1479.3 1578.45,1479.3 1580.63,1479.3 1582.8,1479.3 1584.98,1479.3 1587.15,1479.3 1589.33,1479.3 1591.5,1479.3 1593.68,1479.3 1595.85,1479.3 1598.03,1479.3 1600.2,1479.3 1602.38,1479.3 1604.55,1479.3 1606.73,1479.3 1608.9,1479.3 1611.08,1479.3 1613.25,1479.3 1615.43,1479.3 1617.6,1479.3 1619.78,1479.3 1621.95,1479.3 1624.13,1479.3 1626.3,1479.3 1628.48,1479.3 1630.65,1479.3 1632.83,1479.3 1635,1479.3 1637.18,1479.3 1639.35,1479.3 1641.53,1479.3 1643.7,1479.3 1645.88,1479.3 1648.05,1479.3 1650.23,1479.3 1652.4,1479.3 1654.58,1479.3 1656.75,1479.3 1658.93,1479.3 1661.1,1479.3 1663.28,1479.3 1665.45,1479.3 1667.63,1479.3 1669.8,1479.3 1671.98,1479.3 1674.15,1479.3 1676.33,1479.3 1678.5,1479.3 1680.68,1479.3 1682.85,1479.3 1685.03,1479.3 1687.2,1479.3 1689.38,1479.3 1691.55,1479.3 1693.73,1479.3 1695.9,1479.3 1698.08,1479.3 1700.25,1479.3 1702.43,1479.3 1704.6,1479.3 1706.78,1479.3 1708.95,1479.3 1711.13,1479.3 1713.3,1479.3 1715.48,1479.3 1717.65,1479.3 1719.83,1479.3 1722,1479.3 1724.18,1479.3 1726.35,1479.3 1728.53,1479.3 1730.7,1479.3 1732.88,1479.3 1735.05,1479.3 1737.23,1479.3 1739.4,1479.3 1741.58,1479.3 1743.75,1479.3 1745.93,1479.3 1748.1,1479.3 1750.28,1479.3 1752.45,1479.3 1754.63,1479.3 1756.8,1479.3 1758.98,1479.3 1761.15,1479.3 1763.33,1479.3 1765.5,1479.3 1767.68,1479.3 1769.85,1479.3 1772.03,1479.3 1774.2,1479.3 1776.38,1479.3 1778.55,1479.3 1780.73,1479.3 1782.9,1479.3 1785.08,1479.3 1787.25,1479.3 1789.43,1479.3 1791.6,1479.3 1793.78,1479.3 1795.95,1479.3 1798.13,1479.3 1800.3,1479.3 1802.48,1479.3 1804.65,1479.3 1806.83,1479.3 1809,1479.3 1811.18,1479.3 1813.35,1479.3 1815.53,1479.3 1817.7,1479.3 1819.88,1479.3 1822.05,1479.3 1824.23,1479.3 1826.4,1479.3 1828.58,1479.3 1830.75,1479.3 1832.93,1479.3 1835.1,1479.3 1837.28,1479.3 1839.45,1479.3 1841.63,1479.3 1843.8,1479.3 1845.98,1479.3 1848.15,1479.3 1850.33,1479.3 1852.5,1479.3 1854.68,1479.3 1856.85,1479.3 1859.03,1479.3 1861.2,1479.3 1863.38,1479.3 1865.55,1479.3 1867.73,1479.3 1869.9,1479.3 1872.08,1479.3 1874.25,1479.3 1876.43,1479.3 1878.6,1479.3 1880.78,1479.3 1882.95,1479.3 1885.13,1479.3 1887.3,1479.3 1889.48,1479.3 1891.65,1479.3 1893.83,1479.3 1896,1479.3 1898.18,1479.3 1900.35,1479.3 1902.53,1479.3 1904.7,1479.3 1906.88,1479.3 1909.05,1479.3 1911.23,1479.3 1913.4,1479.3 1915.58,1479.3 1917.75,1479.3 1919.93,1479.3 1922.1,1479.3 1924.28,1479.3 1926.45,1479.3 1928.63,1479.3 1930.8,1479.3 1932.98,1479.3 1935.15,1479.3 1937.33,1479.3 1939.5,1479.3 1941.68,1479.3 1943.85,1479.3 1946.03,1479.3 1948.2,1479.3 1950.38,1479.3 1952.55,1479.3 1954.73,1479.3 1956.9,1479.3 1959.08,1479.3 1961.25,1479.3 1963.43,1479.3 1965.6,1479.3 1967.78,1479.3 1969.95,1479.3 1972.13,1479.3 1974.3,1479.3 1976.48,1479.3 1978.65,1479.3 1980.83,1479.3 1983,1479.3 1985.18,1479.3 1987.35,1479.3 1989.53,1479.3 1991.7,1479.3 1993.88,1479.3 1996.05,1479.3 1998.23,1479.3 2000.4,1479.3 2002.58,1479.3 2004.75,1479.3 2006.93,1479.3 2009.1,1479.3 2011.28,1479.3 2013.45,1479.3 2015.63,1479.3 2017.8,1479.3 2019.98,1479.3 2022.15,1479.3 2024.33,1479.3 2026.5,1479.3 2028.68,1479.3 2030.85,1479.3 2033.03,1479.3 2035.2,1479.3 2037.38,1479.3 2039.55,1479.3 2041.73,1479.3 2043.9,1479.3 2046.08,1479.3 2048.25,1479.3 2050.43,1479.3 2052.6,1479.3 2054.78,1479.3 2056.95,1479.3 2059.13,1479.3 2061.3,1479.3 2063.48,1479.3 2065.65,1479.3 2067.83,1479.3 2070,1479.3 2072.18,1479.3 2074.35,1479.3 2076.53,1479.3 2078.7,1479.3 2080.88,1479.3 2083.05,1479.3 2085.23,1479.3 2087.4,1479.3 2089.58,1479.3 2091.75,1479.3 2093.93,1479.3 2096.1,1479.3 2098.28,1479.3 2100.45,1479.3 2102.63,1479.3 2104.8,1479.3 2106.98,1479.3 2109.15,1479.3 2111.33,1479.3 2113.5,1479.3 2115.68,1479.3 2117.85,1479.3 2120.03,1479.3 2122.2,1479.3 2124.38,1479.3 2126.55,1479.3 2128.73,1479.3 2130.9,1479.3 2133.08,1479.3 2135.25,1479.3 2137.43,1479.3 2139.6,1479.3 2141.78,1479.3 2143.95,1479.3 2146.13,1479.3 2148.3,1479.3 2150.48,1479.3 2152.65,1479.3 2154.83,1479.3 2157,1479.3 2159.18,1479.3 2161.35,1479.3 2163.53,1479.3 2165.7,1479.3 2167.88,1479.3 2170.05,1479.3 2172.23,1479.3 2174.4,1479.3 2176.58,1479.3 2178.76,1479.3 2180.93,1479.3 2183.11,1479.3 2185.28,1479.3 2187.46,1479.3 2189.63,1479.3 2191.81,1479.3 2193.98,1479.3 2196.16,1479.3 2198.33,1479.3 2200.51,1479.3 2202.68,1479.3 2204.86,1479.3 2207.03,1479.3 2209.21,1479.3 2211.38,1479.3 2213.56,1479.3 2215.73,1479.3 2217.91,1479.3 2220.08,1479.3 2222.26,1479.3 2224.43,1479.3 2226.61,1479.3 2228.78,1479.3 2230.96,1479.3 2233.13,1479.3 2235.31,1479.3 2237.48,1479.3 2239.66,1479.3 2241.83,1479.3 2244.01,1479.3 2246.18,1479.3 2248.36,1479.3 2250.53,1479.3 2252.71,1479.3 2254.88,1479.3 2257.06,1479.3 2259.23,1479.3 2261.41,1479.3 2263.58,1479.3 2265.76,1479.3 2267.93,1479.3 2270.11,1479.3 2272.28,1479.3 2274.46,1479.3 2276.63,1479.3 2278.81,1479.3 2280.98,1479.3 2283.16,1479.3 2285.33,1479.3 2287.51,1479.3 "/>
<path clip-path="url(#clip970)" d="M1828.36 200.05 L2275.91 200.05 L2275.91 96.3696 L1828.36 96.3696  Z" fill="#ffffff" fill-rule="evenodd" fill-opacity="1"/>
<polyline clip-path="url(#clip970)" style="stroke:#000000; stroke-linecap:round; stroke-linejoin:round; stroke-width:4; stroke-opacity:1; fill:none" points="1828.36,200.05 2275.91,200.05 2275.91,96.3696 1828.36,96.3696 1828.36,200.05 "/>
<polyline clip-path="url(#clip970)" style="stroke:#009af9; stroke-linecap:round; stroke-linejoin:round; stroke-width:4; stroke-opacity:1; fill:none" points="1853.98,148.21 2007.68,148.21 "/>
<path clip-path="url(#clip970)" d="M2033.3 129.471 L2037.56 129.471 L2037.56 165.49 L2033.3 165.49 L2033.3 129.471 Z" fill="#000000" fill-rule="nonzero" fill-opacity="1" /><path clip-path="url(#clip970)" d="M2046.47 139.564 L2050.73 139.564 L2050.73 165.49 L2046.47 165.49 L2046.47 139.564 M2046.47 129.471 L2050.73 129.471 L2050.73 134.865 L2046.47 134.865 L2046.47 129.471 Z" fill="#000000" fill-rule="nonzero" fill-opacity="1" /><path clip-path="url(#clip970)" d="M2059.48 129.471 L2063.76 129.471 L2063.76 150.744 L2076.47 139.564 L2081.91 139.564 L2068.16 151.693 L2082.49 165.49 L2076.93 165.49 L2063.76 152.828 L2063.76 165.49 L2059.48 165.49 L2059.48 129.471 Z" fill="#000000" fill-rule="nonzero" fill-opacity="1" /><path clip-path="url(#clip970)" d="M2107.58 151.462 L2107.58 153.545 L2088 153.545 Q2088.28 157.943 2090.64 160.258 Q2093.02 162.55 2097.26 162.55 Q2099.71 162.55 2102 161.948 Q2104.32 161.346 2106.59 160.142 L2106.59 164.17 Q2104.29 165.142 2101.89 165.652 Q2099.48 166.161 2097 166.161 Q2090.8 166.161 2087.16 162.55 Q2083.55 158.939 2083.55 152.781 Q2083.55 146.416 2086.98 142.689 Q2090.43 138.939 2096.26 138.939 Q2101.49 138.939 2104.53 142.318 Q2107.58 145.675 2107.58 151.462 M2103.32 150.212 Q2103.28 146.717 2101.35 144.633 Q2099.46 142.55 2096.31 142.55 Q2092.74 142.55 2090.59 144.564 Q2088.46 146.578 2088.14 150.235 L2103.32 150.212 Z" fill="#000000" fill-rule="nonzero" fill-opacity="1" /><path clip-path="url(#clip970)" d="M2114.57 129.471 L2118.83 129.471 L2118.83 165.49 L2114.57 165.49 L2114.57 129.471 Z" fill="#000000" fill-rule="nonzero" fill-opacity="1" /><path clip-path="url(#clip970)" d="M2127.74 139.564 L2132 139.564 L2132 165.49 L2127.74 165.49 L2127.74 139.564 M2127.74 129.471 L2132 129.471 L2132 134.865 L2127.74 134.865 L2127.74 129.471 Z" fill="#000000" fill-rule="nonzero" fill-opacity="1" /><path clip-path="url(#clip970)" d="M2162.47 149.841 L2162.47 165.49 L2158.21 165.49 L2158.21 149.98 Q2158.21 146.3 2156.77 144.471 Q2155.34 142.642 2152.47 142.642 Q2149.02 142.642 2147.03 144.842 Q2145.03 147.041 2145.03 150.837 L2145.03 165.49 L2140.75 165.49 L2140.75 129.471 L2145.03 129.471 L2145.03 143.592 Q2146.56 141.254 2148.62 140.096 Q2150.71 138.939 2153.41 138.939 Q2157.88 138.939 2160.17 141.717 Q2162.47 144.471 2162.47 149.841 Z" fill="#000000" fill-rule="nonzero" fill-opacity="1" /><path clip-path="url(#clip970)" d="M2181.01 142.55 Q2177.58 142.55 2175.59 145.235 Q2173.6 147.897 2173.6 152.55 Q2173.6 157.203 2175.57 159.888 Q2177.56 162.55 2181.01 162.55 Q2184.41 162.55 2186.4 159.865 Q2188.39 157.179 2188.39 152.55 Q2188.39 147.943 2186.4 145.258 Q2184.41 142.55 2181.01 142.55 M2181.01 138.939 Q2186.56 138.939 2189.73 142.55 Q2192.9 146.161 2192.9 152.55 Q2192.9 158.916 2189.73 162.55 Q2186.56 166.161 2181.01 166.161 Q2175.43 166.161 2172.26 162.55 Q2169.11 158.916 2169.11 152.55 Q2169.11 146.161 2172.26 142.55 Q2175.43 138.939 2181.01 138.939 Z" fill="#000000" fill-rule="nonzero" fill-opacity="1" /><path clip-path="url(#clip970)" d="M2210.01 142.55 Q2206.59 142.55 2204.59 145.235 Q2202.6 147.897 2202.6 152.55 Q2202.6 157.203 2204.57 159.888 Q2206.56 162.55 2210.01 162.55 Q2213.41 162.55 2215.4 159.865 Q2217.4 157.179 2217.4 152.55 Q2217.4 147.943 2215.4 145.258 Q2213.41 142.55 2210.01 142.55 M2210.01 138.939 Q2215.57 138.939 2218.74 142.55 Q2221.91 146.161 2221.91 152.55 Q2221.91 158.916 2218.74 162.55 Q2215.57 166.161 2210.01 166.161 Q2204.43 166.161 2201.26 162.55 Q2198.11 158.916 2198.11 152.55 Q2198.11 146.161 2201.26 142.55 Q2204.43 138.939 2210.01 138.939 Z" fill="#000000" fill-rule="nonzero" fill-opacity="1" /><path clip-path="url(#clip970)" d="M2246.03 143.499 L2246.03 129.471 L2250.29 129.471 L2250.29 165.49 L2246.03 165.49 L2246.03 161.601 Q2244.69 163.915 2242.63 165.05 Q2240.59 166.161 2237.72 166.161 Q2233.02 166.161 2230.06 162.411 Q2227.12 158.661 2227.12 152.55 Q2227.12 146.439 2230.06 142.689 Q2233.02 138.939 2237.72 138.939 Q2240.59 138.939 2242.63 140.073 Q2244.69 141.184 2246.03 143.499 M2231.52 152.55 Q2231.52 157.249 2233.44 159.934 Q2235.38 162.596 2238.76 162.596 Q2242.14 162.596 2244.09 159.934 Q2246.03 157.249 2246.03 152.55 Q2246.03 147.851 2244.09 145.189 Q2242.14 142.504 2238.76 142.504 Q2235.38 142.504 2233.44 145.189 Q2231.52 147.851 2231.52 152.55 Z" fill="#000000" fill-rule="nonzero" fill-opacity="1" /></svg>
