<?xml version="1.0" encoding="utf-8"?>
<svg xmlns="http://www.w3.org/2000/svg" xmlns:xlink="http://www.w3.org/1999/xlink" width="600" height="400" viewBox="0 0 2400 1600">
<defs>
  <clipPath id="clip630">
    <rect x="0" y="0" width="2400" height="1600"/>
  </clipPath>
</defs>
<path clip-path="url(#clip630)" d="M0 1600 L2400 1600 L2400 0 L0 0  Z" fill="#ffffff" fill-rule="evenodd" fill-opacity="1"/>
<defs>
  <clipPath id="clip631">
    <rect x="480" y="0" width="1681" height="1600"/>
  </clipPath>
</defs>
<path clip-path="url(#clip630)" d="M86.9921 1521.01 L2352.76 1521.01 L2352.76 47.2441 L86.9921 47.2441  Z" fill="#ffffff" fill-rule="evenodd" fill-opacity="1"/>
<defs>
  <clipPath id="clip632">
    <rect x="86" y="47" width="2267" height="1475"/>
  </clipPath>
</defs>
<polyline clip-path="url(#clip632)" style="stroke:#000000; stroke-linecap:round; stroke-linejoin:round; stroke-width:2; stroke-opacity:0.1; fill:none" points="151.118,1521.01 151.118,47.2441 "/>
<polyline clip-path="url(#clip632)" style="stroke:#000000; stroke-linecap:round; stroke-linejoin:round; stroke-width:2; stroke-opacity:0.1; fill:none" points="685.496,1521.01 685.496,47.2441 "/>
<polyline clip-path="url(#clip632)" style="stroke:#000000; stroke-linecap:round; stroke-linejoin:round; stroke-width:2; stroke-opacity:0.1; fill:none" points="1219.87,1521.01 1219.87,47.2441 "/>
<polyline clip-path="url(#clip632)" style="stroke:#000000; stroke-linecap:round; stroke-linejoin:round; stroke-width:2; stroke-opacity:0.1; fill:none" points="1754.25,1521.01 1754.25,47.2441 "/>
<polyline clip-path="url(#clip632)" style="stroke:#000000; stroke-linecap:round; stroke-linejoin:round; stroke-width:2; stroke-opacity:0.1; fill:none" points="2288.63,1521.01 2288.63,47.2441 "/>
<polyline clip-path="url(#clip630)" style="stroke:#000000; stroke-linecap:round; stroke-linejoin:round; stroke-width:4; stroke-opacity:1; fill:none" points="86.9921,1521.01 2352.76,1521.01 "/>
<polyline clip-path="url(#clip630)" style="stroke:#000000; stroke-linecap:round; stroke-linejoin:round; stroke-width:4; stroke-opacity:1; fill:none" points="151.118,1521.01 151.118,1502.11 "/>
<polyline clip-path="url(#clip630)" style="stroke:#000000; stroke-linecap:round; stroke-linejoin:round; stroke-width:4; stroke-opacity:1; fill:none" points="685.496,1521.01 685.496,1502.11 "/>
<polyline clip-path="url(#clip630)" style="stroke:#000000; stroke-linecap:round; stroke-linejoin:round; stroke-width:4; stroke-opacity:1; fill:none" points="1219.87,1521.01 1219.87,1502.11 "/>
<polyline clip-path="url(#clip630)" style="stroke:#000000; stroke-linecap:round; stroke-linejoin:round; stroke-width:4; stroke-opacity:1; fill:none" points="1754.25,1521.01 1754.25,1502.11 "/>
<polyline clip-path="url(#clip630)" style="stroke:#000000; stroke-linecap:round; stroke-linejoin:round; stroke-width:4; stroke-opacity:1; fill:none" points="2288.63,1521.01 2288.63,1502.11 "/>
<path clip-path="url(#clip630)" d="M151.118 1551.93 Q147.506 1551.93 145.678 1555.49 Q143.872 1559.03 143.872 1566.16 Q143.872 1573.27 145.678 1576.83 Q147.506 1580.38 151.118 1580.38 Q154.752 1580.38 156.557 1576.83 Q158.386 1573.27 158.386 1566.16 Q158.386 1559.03 156.557 1555.49 Q154.752 1551.93 151.118 1551.93 M151.118 1548.22 Q156.928 1548.22 159.983 1552.83 Q163.062 1557.41 163.062 1566.16 Q163.062 1574.89 159.983 1579.5 Q156.928 1584.08 151.118 1584.08 Q145.307 1584.08 142.229 1579.5 Q139.173 1574.89 139.173 1566.16 Q139.173 1557.41 142.229 1552.83 Q145.307 1548.22 151.118 1548.22 Z" fill="#000000" fill-rule="nonzero" fill-opacity="1" /><path clip-path="url(#clip630)" d="M664.767 1579.47 L681.086 1579.47 L681.086 1583.41 L659.142 1583.41 L659.142 1579.47 Q661.804 1576.72 666.387 1572.09 Q670.994 1567.44 672.174 1566.09 Q674.419 1563.57 675.299 1561.83 Q676.202 1560.07 676.202 1558.38 Q676.202 1555.63 674.257 1553.89 Q672.336 1552.16 669.234 1552.16 Q667.035 1552.16 664.582 1552.92 Q662.151 1553.69 659.373 1555.24 L659.373 1550.51 Q662.197 1549.38 664.651 1548.8 Q667.105 1548.22 669.142 1548.22 Q674.512 1548.22 677.706 1550.91 Q680.901 1553.59 680.901 1558.08 Q680.901 1560.21 680.091 1562.13 Q679.304 1564.03 677.197 1566.63 Q676.618 1567.3 673.517 1570.51 Q670.415 1573.71 664.767 1579.47 Z" fill="#000000" fill-rule="nonzero" fill-opacity="1" /><path clip-path="url(#clip630)" d="M690.947 1548.85 L709.304 1548.85 L709.304 1552.78 L695.23 1552.78 L695.23 1561.26 Q696.248 1560.91 697.267 1560.75 Q698.285 1560.56 699.304 1560.56 Q705.091 1560.56 708.47 1563.73 Q711.85 1566.9 711.85 1572.32 Q711.85 1577.9 708.378 1581 Q704.905 1584.08 698.586 1584.08 Q696.41 1584.08 694.142 1583.71 Q691.896 1583.34 689.489 1582.6 L689.489 1577.9 Q691.572 1579.03 693.794 1579.59 Q696.017 1580.14 698.493 1580.14 Q702.498 1580.14 704.836 1578.04 Q707.174 1575.93 707.174 1572.32 Q707.174 1568.71 704.836 1566.6 Q702.498 1564.5 698.493 1564.5 Q696.618 1564.5 694.743 1564.91 Q692.892 1565.33 690.947 1566.21 L690.947 1548.85 Z" fill="#000000" fill-rule="nonzero" fill-opacity="1" /><path clip-path="url(#clip630)" d="M1194.57 1548.85 L1212.93 1548.85 L1212.93 1552.78 L1198.86 1552.78 L1198.86 1561.26 Q1199.87 1560.91 1200.89 1560.75 Q1201.91 1560.56 1202.93 1560.56 Q1208.72 1560.56 1212.1 1563.73 Q1215.48 1566.9 1215.48 1572.32 Q1215.48 1577.9 1212 1581 Q1208.53 1584.08 1202.21 1584.08 Q1200.04 1584.08 1197.77 1583.71 Q1195.52 1583.34 1193.11 1582.6 L1193.11 1577.9 Q1195.2 1579.03 1197.42 1579.59 Q1199.64 1580.14 1202.12 1580.14 Q1206.12 1580.14 1208.46 1578.04 Q1210.8 1575.93 1210.8 1572.32 Q1210.8 1568.71 1208.46 1566.6 Q1206.12 1564.5 1202.12 1564.5 Q1200.24 1564.5 1198.37 1564.91 Q1196.52 1565.33 1194.57 1566.21 L1194.57 1548.85 Z" fill="#000000" fill-rule="nonzero" fill-opacity="1" /><path clip-path="url(#clip630)" d="M1234.69 1551.93 Q1231.08 1551.93 1229.25 1555.49 Q1227.44 1559.03 1227.44 1566.16 Q1227.44 1573.27 1229.25 1576.83 Q1231.08 1580.38 1234.69 1580.38 Q1238.32 1580.38 1240.13 1576.83 Q1241.96 1573.27 1241.96 1566.16 Q1241.96 1559.03 1240.13 1555.49 Q1238.32 1551.93 1234.69 1551.93 M1234.69 1548.22 Q1240.5 1548.22 1243.55 1552.83 Q1246.63 1557.41 1246.63 1566.16 Q1246.63 1574.89 1243.55 1579.5 Q1240.5 1584.08 1234.69 1584.08 Q1228.88 1584.08 1225.8 1579.5 Q1222.74 1574.89 1222.74 1566.16 Q1222.74 1557.41 1225.8 1552.83 Q1228.88 1548.22 1234.69 1548.22 Z" fill="#000000" fill-rule="nonzero" fill-opacity="1" /><path clip-path="url(#clip630)" d="M1728.11 1548.85 L1750.33 1548.85 L1750.33 1550.84 L1737.78 1583.41 L1732.9 1583.41 L1744.7 1552.78 L1728.11 1552.78 L1728.11 1548.85 Z" fill="#000000" fill-rule="nonzero" fill-opacity="1" /><path clip-path="url(#clip630)" d="M1759.5 1548.85 L1777.85 1548.85 L1777.85 1552.78 L1763.78 1552.78 L1763.78 1561.26 Q1764.8 1560.91 1765.81 1560.75 Q1766.83 1560.56 1767.85 1560.56 Q1773.64 1560.56 1777.02 1563.73 Q1780.4 1566.9 1780.4 1572.32 Q1780.4 1577.9 1776.93 1581 Q1773.45 1584.08 1767.13 1584.08 Q1764.96 1584.08 1762.69 1583.71 Q1760.44 1583.34 1758.04 1582.6 L1758.04 1577.9 Q1760.12 1579.03 1762.34 1579.59 Q1764.56 1580.14 1767.04 1580.14 Q1771.05 1580.14 1773.38 1578.04 Q1775.72 1575.93 1775.72 1572.32 Q1775.72 1568.71 1773.38 1566.6 Q1771.05 1564.5 1767.04 1564.5 Q1765.17 1564.5 1763.29 1564.91 Q1761.44 1565.33 1759.5 1566.21 L1759.5 1548.85 Z" fill="#000000" fill-rule="nonzero" fill-opacity="1" /><path clip-path="url(#clip630)" d="M2248.24 1579.47 L2255.88 1579.47 L2255.88 1553.11 L2247.57 1554.77 L2247.57 1550.51 L2255.83 1548.85 L2260.51 1548.85 L2260.51 1579.47 L2268.14 1579.47 L2268.14 1583.41 L2248.24 1583.41 L2248.24 1579.47 Z" fill="#000000" fill-rule="nonzero" fill-opacity="1" /><path clip-path="url(#clip630)" d="M2287.59 1551.93 Q2283.98 1551.93 2282.15 1555.49 Q2280.34 1559.03 2280.34 1566.16 Q2280.34 1573.27 2282.15 1576.83 Q2283.98 1580.38 2287.59 1580.38 Q2291.22 1580.38 2293.03 1576.83 Q2294.86 1573.27 2294.86 1566.16 Q2294.86 1559.03 2293.03 1555.49 Q2291.22 1551.93 2287.59 1551.93 M2287.59 1548.22 Q2293.4 1548.22 2296.45 1552.83 Q2299.53 1557.41 2299.53 1566.16 Q2299.53 1574.89 2296.45 1579.5 Q2293.4 1584.08 2287.59 1584.08 Q2281.78 1584.08 2278.7 1579.5 Q2275.64 1574.89 2275.64 1566.16 Q2275.64 1557.41 2278.7 1552.83 Q2281.78 1548.22 2287.59 1548.22 Z" fill="#000000" fill-rule="nonzero" fill-opacity="1" /><path clip-path="url(#clip630)" d="M2317.75 1551.93 Q2314.14 1551.93 2312.31 1555.49 Q2310.51 1559.03 2310.51 1566.16 Q2310.51 1573.27 2312.31 1576.83 Q2314.14 1580.38 2317.75 1580.38 Q2321.38 1580.38 2323.19 1576.83 Q2325.02 1573.27 2325.02 1566.16 Q2325.02 1559.03 2323.19 1555.49 Q2321.38 1551.93 2317.75 1551.93 M2317.75 1548.22 Q2323.56 1548.22 2326.62 1552.83 Q2329.7 1557.41 2329.7 1566.16 Q2329.7 1574.89 2326.62 1579.5 Q2323.56 1584.08 2317.75 1584.08 Q2311.94 1584.08 2308.86 1579.5 Q2305.81 1574.89 2305.81 1566.16 Q2305.81 1557.41 2308.86 1552.83 Q2311.94 1548.22 2317.75 1548.22 Z" fill="#000000" fill-rule="nonzero" fill-opacity="1" /><polyline clip-path="url(#clip632)" style="stroke:#000000; stroke-linecap:round; stroke-linejoin:round; stroke-width:2; stroke-opacity:0.1; fill:none" points="86.9921,1479.3 2352.76,1479.3 "/>
<polyline clip-path="url(#clip632)" style="stroke:#000000; stroke-linecap:round; stroke-linejoin:round; stroke-width:2; stroke-opacity:0.1; fill:none" points="86.9921,1140.69 2352.76,1140.69 "/>
<polyline clip-path="url(#clip632)" style="stroke:#000000; stroke-linecap:round; stroke-linejoin:round; stroke-width:2; stroke-opacity:0.1; fill:none" points="86.9921,802.075 2352.76,802.075 "/>
<polyline clip-path="url(#clip632)" style="stroke:#000000; stroke-linecap:round; stroke-linejoin:round; stroke-width:2; stroke-opacity:0.1; fill:none" points="86.9921,463.463 2352.76,463.463 "/>
<polyline clip-path="url(#clip632)" style="stroke:#000000; stroke-linecap:round; stroke-linejoin:round; stroke-width:2; stroke-opacity:0.1; fill:none" points="86.9921,124.852 2352.76,124.852 "/>
<polyline clip-path="url(#clip630)" style="stroke:#000000; stroke-linecap:round; stroke-linejoin:round; stroke-width:4; stroke-opacity:1; fill:none" points="86.9921,1521.01 86.9921,47.2441 "/>
<polyline clip-path="url(#clip630)" style="stroke:#000000; stroke-linecap:round; stroke-linejoin:round; stroke-width:4; stroke-opacity:1; fill:none" points="86.9921,1479.3 105.89,1479.3 "/>
<polyline clip-path="url(#clip630)" style="stroke:#000000; stroke-linecap:round; stroke-linejoin:round; stroke-width:4; stroke-opacity:1; fill:none" points="86.9921,1140.69 105.89,1140.69 "/>
<polyline clip-path="url(#clip630)" style="stroke:#000000; stroke-linecap:round; stroke-linejoin:round; stroke-width:4; stroke-opacity:1; fill:none" points="86.9921,802.075 105.89,802.075 "/>
<polyline clip-path="url(#clip630)" style="stroke:#000000; stroke-linecap:round; stroke-linejoin:round; stroke-width:4; stroke-opacity:1; fill:none" points="86.9921,463.463 105.89,463.463 "/>
<polyline clip-path="url(#clip630)" style="stroke:#000000; stroke-linecap:round; stroke-linejoin:round; stroke-width:4; stroke-opacity:1; fill:none" points="86.9921,124.852 105.89,124.852 "/>
<path clip-path="url(#clip630)" d="M10.8708 1501.91 Q10.8708 1505.52 14.4356 1507.35 Q17.9773 1509.16 25.1068 1509.16 Q32.2133 1509.16 35.7781 1507.35 Q39.3197 1505.52 39.3197 1501.91 Q39.3197 1498.28 35.7781 1496.47 Q32.2133 1494.64 25.1068 1494.64 Q17.9773 1494.64 14.4356 1496.47 Q10.8708 1498.28 10.8708 1501.91 M7.16713 1501.91 Q7.16713 1496.1 11.7736 1493.05 Q16.3569 1489.97 25.1068 1489.97 Q33.8337 1489.97 38.4401 1493.05 Q43.0234 1496.1 43.0234 1501.91 Q43.0234 1507.72 38.4401 1510.8 Q33.8337 1513.86 25.1068 1513.86 Q16.3569 1513.86 11.7736 1510.8 Q7.16713 1507.72 7.16713 1501.91 Z" fill="#000000" fill-rule="nonzero" fill-opacity="1" /><path clip-path="url(#clip630)" d="M36.4725 1481.75 L36.4725 1476.87 L42.3521 1476.87 L42.3521 1481.75 L36.4725 1481.75 Z" fill="#000000" fill-rule="nonzero" fill-opacity="1" /><path clip-path="url(#clip630)" d="M10.8708 1456.68 Q10.8708 1460.29 14.4356 1462.12 Q17.9773 1463.93 25.1068 1463.93 Q32.2133 1463.93 35.7781 1462.12 Q39.3197 1460.29 39.3197 1456.68 Q39.3197 1453.05 35.7781 1451.24 Q32.2133 1449.41 25.1068 1449.41 Q17.9773 1449.41 14.4356 1451.24 Q10.8708 1453.05 10.8708 1456.68 M7.16713 1456.68 Q7.16713 1450.87 11.7736 1447.82 Q16.3569 1444.74 25.1068 1444.74 Q33.8337 1444.74 38.4401 1447.82 Q43.0234 1450.87 43.0234 1456.68 Q43.0234 1462.49 38.4401 1465.57 Q33.8337 1468.63 25.1068 1468.63 Q16.3569 1468.63 11.7736 1465.57 Q7.16713 1462.49 7.16713 1456.68 Z" fill="#000000" fill-rule="nonzero" fill-opacity="1" /><path clip-path="url(#clip630)" d="M10.8708 1162.69 Q10.8708 1166.3 14.4356 1168.13 Q17.9773 1169.93 25.1068 1169.93 Q32.2133 1169.93 35.7781 1168.13 Q39.3197 1166.3 39.3197 1162.69 Q39.3197 1159.05 35.7781 1157.25 Q32.2133 1155.42 25.1068 1155.42 Q17.9773 1155.42 14.4356 1157.25 Q10.8708 1159.05 10.8708 1162.69 M7.16713 1162.69 Q7.16713 1156.88 11.7736 1153.82 Q16.3569 1150.74 25.1068 1150.74 Q33.8337 1150.74 38.4401 1153.82 Q43.0234 1156.88 43.0234 1162.69 Q43.0234 1168.5 38.4401 1171.58 Q33.8337 1174.63 25.1068 1174.63 Q16.3569 1174.63 11.7736 1171.58 Q7.16713 1168.5 7.16713 1162.69 Z" fill="#000000" fill-rule="nonzero" fill-opacity="1" /><path clip-path="url(#clip630)" d="M36.4725 1142.53 L36.4725 1137.64 L42.3521 1137.64 L42.3521 1142.53 L36.4725 1142.53 Z" fill="#000000" fill-rule="nonzero" fill-opacity="1" /><path clip-path="url(#clip630)" d="M38.417 1126.65 L38.417 1119.01 L12.0514 1119.01 L13.718 1127.32 L9.45878 1127.32 L7.79213 1119.05 L7.79213 1114.38 L38.417 1114.38 L38.417 1106.74 L42.3521 1106.74 L42.3521 1126.65 L38.417 1126.65 Z" fill="#000000" fill-rule="nonzero" fill-opacity="1" /><path clip-path="url(#clip630)" d="M10.8708 823.892 Q10.8708 827.503 14.4356 829.331 Q17.9773 831.137 25.1068 831.137 Q32.2133 831.137 35.7781 829.331 Q39.3197 827.503 39.3197 823.892 Q39.3197 820.257 35.7781 818.452 Q32.2133 816.623 25.1068 816.623 Q17.9773 816.623 14.4356 818.452 Q10.8708 820.257 10.8708 823.892 M7.16713 823.892 Q7.16713 818.082 11.7736 815.026 Q16.3569 811.947 25.1068 811.947 Q33.8337 811.947 38.4401 815.026 Q43.0234 818.082 43.0234 823.892 Q43.0234 829.702 38.4401 832.781 Q33.8337 835.836 25.1068 835.836 Q16.3569 835.836 11.7736 832.781 Q7.16713 829.702 7.16713 823.892 Z" fill="#000000" fill-rule="nonzero" fill-opacity="1" /><path clip-path="url(#clip630)" d="M36.4725 803.73 L36.4725 798.846 L42.3521 798.846 L42.3521 803.73 L36.4725 803.73 Z" fill="#000000" fill-rule="nonzero" fill-opacity="1" /><path clip-path="url(#clip630)" d="M38.417 784.633 L38.417 768.313 L42.3521 768.313 L42.3521 790.258 L38.417 790.258 Q35.6623 787.596 31.0327 783.012 Q26.38 778.406 25.0374 777.225 Q22.5143 774.98 20.7782 774.1 Q19.0189 773.198 17.3291 773.198 Q14.5745 773.198 12.8384 775.142 Q11.1023 777.063 11.1023 780.165 Q11.1023 782.364 11.8662 784.818 Q12.6301 787.248 14.181 790.026 L9.45878 790.026 Q8.32453 787.202 7.74583 784.748 Q7.16713 782.295 7.16713 780.258 Q7.16713 774.887 9.8523 771.693 Q12.5375 768.498 17.0282 768.498 Q19.1578 768.498 21.0791 769.309 Q22.9772 770.096 25.5698 772.202 Q26.2411 772.781 29.4587 775.883 Q32.6531 778.985 38.417 784.633 Z" fill="#000000" fill-rule="nonzero" fill-opacity="1" /><path clip-path="url(#clip630)" d="M10.8708 485.755 Q10.8708 489.366 14.4356 491.195 Q17.9773 493 25.1068 493 Q32.2133 493 35.7781 491.195 Q39.3197 489.366 39.3197 485.755 Q39.3197 482.121 35.7781 480.315 Q32.2133 478.486 25.1068 478.486 Q17.9773 478.486 14.4356 480.315 Q10.8708 482.121 10.8708 485.755 M7.16713 485.755 Q7.16713 479.945 11.7736 476.889 Q16.3569 473.81 25.1068 473.81 Q33.8337 473.81 38.4401 476.889 Q43.0234 479.945 43.0234 485.755 Q43.0234 491.565 38.4401 494.644 Q33.8337 497.699 25.1068 497.699 Q16.3569 497.699 11.7736 494.644 Q7.16713 491.565 7.16713 485.755 Z" fill="#000000" fill-rule="nonzero" fill-opacity="1" /><path clip-path="url(#clip630)" d="M36.4725 465.593 L36.4725 460.709 L42.3521 460.709 L42.3521 465.593 L36.4725 465.593 Z" fill="#000000" fill-rule="nonzero" fill-opacity="1" /><path clip-path="url(#clip630)" d="M23.718 436.357 Q24.4356 433 26.7041 431.125 Q28.9726 429.227 32.3059 429.227 Q37.4216 429.227 40.2225 432.746 Q43.0234 436.264 43.0234 442.746 Q43.0234 444.922 42.5836 447.236 Q42.1669 449.528 41.3105 451.982 L36.7966 451.982 Q37.9309 450.037 38.5096 447.723 Q39.0883 445.408 39.0883 442.885 Q39.0883 438.486 37.3522 436.195 Q35.6161 433.88 32.3059 433.88 Q29.2503 433.88 27.5374 436.033 Q25.8013 438.162 25.8013 441.982 L25.8013 446.01 L21.9587 446.01 L21.9587 441.797 Q21.9587 438.348 20.593 436.519 Q19.2041 434.69 16.6115 434.69 Q13.9495 434.69 12.5375 436.588 Q11.1023 438.463 11.1023 441.982 Q11.1023 443.903 11.519 446.102 Q11.9356 448.301 12.8152 450.94 L8.6486 450.94 Q7.90787 448.278 7.5375 445.963 Q7.16713 443.625 7.16713 441.565 Q7.16713 436.241 9.59767 433.139 Q12.0051 430.037 16.1254 430.037 Q18.9958 430.037 20.9865 431.681 Q22.9541 433.324 23.718 436.357 Z" fill="#000000" fill-rule="nonzero" fill-opacity="1" /><path clip-path="url(#clip630)" d="M10.8708 147.71 Q10.8708 151.322 14.4356 153.15 Q17.9773 154.956 25.1068 154.956 Q32.2133 154.956 35.7781 153.15 Q39.3197 151.322 39.3197 147.71 Q39.3197 144.076 35.7781 142.271 Q32.2133 140.442 25.1068 140.442 Q17.9773 140.442 14.4356 142.271 Q10.8708 144.076 10.8708 147.71 M7.16713 147.71 Q7.16713 141.9 11.7736 138.845 Q16.3569 135.766 25.1068 135.766 Q33.8337 135.766 38.4401 138.845 Q43.0234 141.9 43.0234 147.71 Q43.0234 153.521 38.4401 156.599 Q33.8337 159.655 25.1068 159.655 Q16.3569 159.655 11.7736 156.599 Q7.16713 153.521 7.16713 147.71 Z" fill="#000000" fill-rule="nonzero" fill-opacity="1" /><path clip-path="url(#clip630)" d="M36.4725 127.549 L36.4725 122.664 L42.3521 122.664 L42.3521 127.549 L36.4725 127.549 Z" fill="#000000" fill-rule="nonzero" fill-opacity="1" /><path clip-path="url(#clip630)" d="M11.8662 99.632 L30.3152 111.437 L30.3152 99.632 L11.8662 99.632 M7.79213 100.859 L7.79213 94.9792 L30.3152 94.9792 L30.3152 90.0487 L34.204 90.0487 L34.204 94.9792 L42.3521 94.9792 L42.3521 99.632 L34.204 99.632 L34.204 115.234 L29.6902 115.234 L7.79213 100.859 Z" fill="#000000" fill-rule="nonzero" fill-opacity="1" /><polyline clip-path="url(#clip632)" style="stroke:#009af9; stroke-linecap:round; stroke-linejoin:round; stroke-width:4; stroke-opacity:1; fill:none" points="151.118,1479.3 153.255,1479.3 155.393,1479.3 157.53,1479.3 159.668,1479.3 161.805,1479.3 163.943,1479.3 166.08,1479.3 168.218,1479.3 170.355,1479.3 172.493,1479.3 174.63,1479.3 176.768,1479.3 178.905,1479.3 181.043,1479.3 183.18,1479.3 185.318,1479.3 187.455,1479.3 189.593,1479.3 191.73,1479.3 193.868,1479.3 196.005,1479.3 198.143,1479.3 200.28,1479.3 202.418,1479.3 204.555,1479.3 206.693,1479.3 208.83,1479.3 210.968,1479.3 213.105,1479.3 215.243,1479.3 217.38,1479.3 219.518,1479.3 221.655,1479.3 223.793,1479.3 225.93,1479.3 228.068,1479.3 230.205,1479.3 232.343,1479.3 234.481,1479.3 236.618,1479.3 238.756,1479.3 240.893,1479.3 243.031,1479.3 245.168,1479.3 247.306,1479.3 249.443,1479.3 251.581,1479.3 253.718,1479.3 255.856,1479.3 257.993,1479.3 260.131,1479.3 262.268,1479.3 264.406,1479.3 266.543,1479.3 268.681,1479.3 270.818,1479.3 272.956,1479.3 275.093,1479.3 277.231,1479.3 279.368,1479.3 281.506,1479.3 283.643,1479.3 285.781,1479.3 287.918,1479.3 290.056,1479.3 292.193,1479.3 294.331,1479.3 296.468,1479.3 298.606,1479.3 300.743,1479.3 302.881,1479.3 305.018,1479.3 307.156,1479.3 309.293,1479.3 311.431,1479.3 313.569,1479.3 315.706,1479.3 317.844,1479.3 319.981,1479.3 322.119,1479.3 324.256,1479.3 326.394,1479.3 328.531,1479.3 330.669,1479.3 332.806,1479.3 334.944,1479.3 337.081,1479.3 339.219,1479.3 341.356,1479.3 343.494,1479.3 345.631,1479.3 347.769,1479.3 349.906,1479.3 352.044,1479.3 354.181,1479.3 356.319,1479.3 358.456,1479.3 360.594,1479.3 362.731,1479.3 364.869,1479.3 367.006,1479.3 369.144,1479.3 371.281,1479.3 373.419,1479.3 375.556,1479.3 377.694,1479.3 379.831,1479.3 381.969,1479.3 384.106,1479.3 386.244,1479.3 388.381,1479.3 390.519,1479.3 392.656,1479.3 394.794,1479.3 396.932,1479.3 399.069,1479.3 401.207,1479.3 403.344,1479.3 405.482,1479.3 407.619,1479.3 409.757,1479.3 411.894,1479.3 414.032,1479.3 416.169,1479.3 418.307,1479.3 420.444,1479.3 422.582,1479.3 424.719,1479.3 426.857,1479.3 428.994,1479.3 431.132,1479.3 433.269,1479.3 435.407,1479.3 437.544,1479.3 439.682,1479.3 441.819,1479.3 443.957,1479.3 446.094,1479.3 448.232,1479.3 450.369,1479.3 452.507,1479.3 454.644,1479.3 456.782,1479.3 458.919,1479.3 461.057,1479.3 463.194,1479.3 465.332,1479.3 467.469,1479.3 469.607,1479.3 471.744,1479.3 473.882,1479.3 476.019,1479.3 478.157,1479.3 480.295,1479.3 482.432,1479.3 484.57,1479.3 486.707,1479.3 488.845,1479.3 490.982,1479.3 493.12,1479.3 495.257,1479.3 497.395,1479.3 499.532,1479.3 501.67,1479.3 503.807,1479.3 505.945,1479.3 508.082,1479.3 510.22,1479.3 512.357,1479.3 514.495,1479.3 516.632,1479.3 518.77,1479.3 520.907,1479.3 523.045,1479.3 525.182,1479.3 527.32,1479.3 529.457,1479.3 531.595,1479.3 533.732,1479.3 535.87,1479.3 538.007,1479.3 540.145,1479.3 542.282,1479.3 544.42,1479.3 546.557,1479.3 548.695,1479.3 550.832,1479.3 552.97,1479.3 555.107,1479.3 557.245,1479.3 559.382,1479.3 561.52,1479.3 563.658,1479.3 565.795,1479.3 567.933,1479.3 570.07,1479.3 572.208,1479.3 574.345,1479.3 576.483,1479.3 578.62,1479.3 580.758,1479.3 582.895,1479.3 585.033,1479.3 587.17,1479.3 589.308,1479.3 591.445,1479.3 593.583,1479.3 595.72,1479.3 597.858,1479.3 599.995,1479.3 602.133,1479.3 604.27,1479.3 606.408,1479.3 608.545,1479.3 610.683,1479.3 612.82,1479.3 614.958,1479.3 617.095,1479.3 619.233,1479.3 621.37,1479.3 623.508,1479.3 625.645,1479.3 627.783,1479.3 629.92,1479.3 632.058,1479.3 634.195,1479.3 636.333,1479.3 638.47,1479.3 640.608,1479.3 642.746,1479.3 644.883,1479.3 647.021,1479.3 649.158,1479.3 651.296,1479.3 653.433,1479.3 655.571,1479.3 657.708,1479.3 659.846,1479.3 661.983,1479.3 664.121,1479.3 666.258,1479.3 668.396,1479.3 670.533,1479.3 672.671,1479.3 674.808,1479.3 676.946,1479.3 679.083,1479.3 681.221,1479.3 683.358,1479.3 685.496,1479.3 687.633,1479.3 689.771,1479.3 691.908,1479.3 694.046,1479.3 696.183,1479.3 698.321,1479.3 700.458,1479.3 702.596,1479.3 704.733,1479.3 706.871,1479.3 709.008,1479.3 711.146,1479.3 713.283,1479.3 715.421,1479.3 717.558,1479.3 719.696,1479.3 721.833,1479.3 723.971,1479.3 726.109,1479.3 728.246,1479.3 730.384,1479.3 732.521,1479.3 734.659,1479.3 736.796,1479.3 738.934,1479.3 741.071,1479.3 743.209,1479.3 745.346,1479.3 747.484,1479.3 749.621,1479.3 751.759,1479.3 753.896,1479.3 756.034,1479.3 758.171,1479.3 760.309,1479.3 762.446,1479.3 764.584,1479.3 766.721,1479.3 768.859,1479.3 770.996,1479.3 773.134,1479.3 775.271,1479.3 777.409,1479.3 779.546,1479.3 781.684,1479.3 783.821,1479.3 785.959,1479.3 788.096,1479.3 790.234,1479.3 792.371,1479.3 794.509,1479.3 796.646,1479.3 798.784,1479.3 800.921,1479.3 803.059,1479.3 805.196,1479.3 807.334,1479.3 809.472,1479.3 811.609,1479.3 813.747,1479.3 815.884,1479.3 818.022,1479.3 820.159,1479.3 822.297,1479.3 824.434,1479.3 826.572,1479.3 828.709,1479.3 830.847,1479.3 832.984,1479.3 835.122,1479.3 837.259,1479.3 839.397,1479.3 841.534,1479.3 843.672,1479.3 845.809,1479.3 847.947,1479.3 850.084,1479.3 852.222,1479.3 854.359,1479.3 856.497,1479.3 858.634,1479.3 860.772,1479.3 862.909,1479.3 865.047,1479.3 867.184,1479.3 869.322,1479.3 871.459,1479.3 873.597,1479.3 875.734,1479.3 877.872,1479.3 880.009,1479.3 882.147,1479.3 884.284,1479.3 886.422,1479.3 888.56,1479.3 890.697,1479.3 892.835,1479.3 894.972,1479.3 897.11,1479.3 899.247,1479.3 901.385,1479.3 903.522,1479.3 905.66,1479.3 907.797,1479.3 909.935,1479.3 912.072,1479.3 914.21,1479.3 916.347,1479.3 918.485,1479.3 920.622,1479.3 922.76,1479.3 924.897,1479.3 927.035,1479.3 929.172,1479.3 931.31,1479.3 933.447,1479.3 935.585,1479.3 937.722,1479.3 939.86,1479.3 941.997,1479.3 944.135,1479.3 946.272,1479.3 948.41,1479.3 950.547,1479.3 952.685,1479.3 954.822,1479.3 956.96,1479.3 959.097,1479.3 961.235,1479.3 963.372,1479.3 965.51,1479.3 967.647,1479.3 969.785,1479.3 971.923,1479.3 974.06,1479.3 976.198,1479.3 978.335,1479.29 980.473,1479.29 982.61,1479.29 984.748,1479.29 986.885,1479.29 989.023,1479.29 991.16,1479.29 993.298,1479.29 995.435,1479.29 997.573,1479.28 999.71,1479.28 1001.85,1479.28 1003.99,1479.27 1006.12,1479.27 1008.26,1479.26 1010.4,1479.25 1012.54,1479.24 1014.67,1479.23 1016.81,1479.21 1018.95,1479.19 1021.09,1479.16 1023.22,1479.13 1025.36,1479.08 1027.5,1479.02 1029.64,1478.93 1031.77,1478.83 1033.91,1478.68 1036.05,1478.48 1038.19,1478.22 1040.32,1477.86 1042.46,1477.37 1044.6,1476.68 1046.74,1475.74 1048.87,1474.42 1051.01,1472.58 1053.15,1470.01 1055.29,1466.41 1057.42,1461.39 1059.56,1454.43 1061.7,1444.9 1063.84,1432.01 1065.97,1414.9 1068.11,1392.65 1070.25,1364.33 1072.39,1329.1 1074.52,1286.15 1076.66,1234.75 1078.8,1174.29 1080.94,1104.34 1083.07,1024.86 1085.21,936.46 1087.35,840.606 1089.49,739.7 1091.62,636.893 1093.76,535.658 1095.9,439.293 1098.04,350.567 1100.17,271.669 1102.31,204.441 1104.45,150.689 1106.59,112.343 1108.72,91.3041 1110.86,88.9544 1113,105.53 1115.14,139.666 1117.27,188.388 1119.41,247.604 1121.55,312.894 1123.69,380.284 1125.82,446.763 1127.96,510.497 1130.1,570.773 1132.24,627.813 1134.37,682.512 1136.51,736.142 1138.65,790.032 1140.79,845.243 1142.92,902.275 1145.06,960.895 1147.2,1020.17 1149.34,1078.68 1151.47,1134.9 1153.61,1187.51 1155.75,1235.58 1157.89,1278.59 1160.02,1316.41 1162.16,1349.1 1164.3,1376.87 1166.44,1400.01 1168.57,1418.89 1170.71,1433.93 1172.85,1445.65 1174.99,1454.59 1177.12,1461.27 1179.26,1466.2 1181.4,1469.79 1183.54,1472.39 1185.67,1474.27 1187.81,1475.62 1189.95,1476.59 1192.09,1477.3 1194.22,1477.81 1196.36,1478.18 1198.5,1478.46 1200.64,1478.66 1202.77,1478.81 1204.91,1478.92 1207.05,1479.01 1209.19,1479.07 1211.32,1479.12 1213.46,1479.16 1215.6,1479.19 1217.74,1479.21 1219.87,1479.23 1222.01,1479.24 1224.15,1479.25 1226.29,1479.26 1228.42,1479.27 1230.56,1479.27 1232.7,1479.28 1234.84,1479.28 1236.97,1479.28 1239.11,1479.29 1241.25,1479.29 1243.39,1479.29 1245.52,1479.29 1247.66,1479.29 1249.8,1479.29 1251.94,1479.29 1254.07,1479.29 1256.21,1479.29 1258.35,1479.3 1260.49,1479.3 1262.62,1479.3 1264.76,1479.3 1266.9,1479.3 1269.04,1479.3 1271.17,1479.3 1273.31,1479.3 1275.45,1479.3 1277.59,1479.3 1279.72,1479.3 1281.86,1479.3 1284,1479.3 1286.14,1479.3 1288.27,1479.3 1290.41,1479.3 1292.55,1479.3 1294.69,1479.3 1296.82,1479.3 1298.96,1479.3 1301.1,1479.3 1303.24,1479.3 1305.37,1479.3 1307.51,1479.3 1309.65,1479.3 1311.79,1479.3 1313.92,1479.3 1316.06,1479.3 1318.2,1479.3 1320.34,1479.3 1322.47,1479.3 1324.61,1479.3 1326.75,1479.3 1328.89,1479.3 1331.02,1479.3 1333.16,1479.3 1335.3,1479.3 1337.44,1479.3 1339.57,1479.3 1341.71,1479.3 1343.85,1479.3 1345.99,1479.3 1348.12,1479.3 1350.26,1479.3 1352.4,1479.3 1354.54,1479.3 1356.67,1479.3 1358.81,1479.3 1360.95,1479.3 1363.09,1479.3 1365.22,1479.3 1367.36,1479.3 1369.5,1479.3 1371.64,1479.3 1373.77,1479.3 1375.91,1479.3 1378.05,1479.3 1380.19,1479.3 1382.33,1479.3 1384.46,1479.3 1386.6,1479.3 1388.74,1479.3 1390.88,1479.3 1393.01,1479.3 1395.15,1479.3 1397.29,1479.3 1399.43,1479.3 1401.56,1479.3 1403.7,1479.3 1405.84,1479.3 1407.98,1479.3 1410.11,1479.3 1412.25,1479.3 1414.39,1479.3 1416.53,1479.3 1418.66,1479.3 1420.8,1479.3 1422.94,1479.3 1425.08,1479.3 1427.21,1479.3 1429.35,1479.3 1431.49,1479.3 1433.63,1479.3 1435.76,1479.3 1437.9,1479.3 1440.04,1479.3 1442.18,1479.3 1444.31,1479.3 1446.45,1479.3 1448.59,1479.3 1450.73,1479.3 1452.86,1479.3 1455,1479.3 1457.14,1479.3 1459.28,1479.3 1461.41,1479.3 1463.55,1479.3 1465.69,1479.3 1467.83,1479.3 1469.96,1479.3 1472.1,1479.3 1474.24,1479.3 1476.38,1479.3 1478.51,1479.3 1480.65,1479.3 1482.79,1479.3 1484.93,1479.3 1487.06,1479.3 1489.2,1479.3 1491.34,1479.3 1493.48,1479.3 1495.61,1479.3 1497.75,1479.3 1499.89,1479.3 1502.03,1479.3 1504.16,1479.3 1506.3,1479.3 1508.44,1479.3 1510.58,1479.3 1512.71,1479.3 1514.85,1479.3 1516.99,1479.3 1519.13,1479.3 1521.26,1479.3 1523.4,1479.3 1525.54,1479.3 1527.68,1479.3 1529.81,1479.3 1531.95,1479.3 1534.09,1479.3 1536.23,1479.3 1538.36,1479.3 1540.5,1479.3 1542.64,1479.3 1544.78,1479.3 1546.91,1479.3 1549.05,1479.3 1551.19,1479.3 1553.33,1479.3 1555.46,1479.3 1557.6,1479.3 1559.74,1479.3 1561.88,1479.3 1564.01,1479.3 1566.15,1479.3 1568.29,1479.3 1570.43,1479.3 1572.56,1479.3 1574.7,1479.3 1576.84,1479.3 1578.98,1479.3 1581.11,1479.3 1583.25,1479.3 1585.39,1479.3 1587.53,1479.3 1589.66,1479.3 1591.8,1479.3 1593.94,1479.3 1596.08,1479.3 1598.21,1479.3 1600.35,1479.3 1602.49,1479.3 1604.63,1479.3 1606.76,1479.3 1608.9,1479.3 1611.04,1479.3 1613.18,1479.3 1615.31,1479.3 1617.45,1479.3 1619.59,1479.3 1621.73,1479.3 1623.86,1479.3 1626,1479.3 1628.14,1479.3 1630.28,1479.3 1632.41,1479.3 1634.55,1479.3 1636.69,1479.3 1638.83,1479.3 1640.96,1479.3 1643.1,1479.3 1645.24,1479.3 1647.38,1479.3 1649.51,1479.3 1651.65,1479.3 1653.79,1479.3 1655.93,1479.3 1658.06,1479.3 1660.2,1479.3 1662.34,1479.3 1664.48,1479.3 1666.61,1479.3 1668.75,1479.3 1670.89,1479.3 1673.03,1479.3 1675.16,1479.3 1677.3,1479.3 1679.44,1479.3 1681.58,1479.3 1683.71,1479.3 1685.85,1479.3 1687.99,1479.3 1690.13,1479.3 1692.26,1479.3 1694.4,1479.3 1696.54,1479.3 1698.68,1479.3 1700.81,1479.3 1702.95,1479.3 1705.09,1479.3 1707.23,1479.3 1709.36,1479.3 1711.5,1479.3 1713.64,1479.3 1715.78,1479.3 1717.91,1479.3 1720.05,1479.3 1722.19,1479.3 1724.33,1479.3 1726.46,1479.3 1728.6,1479.3 1730.74,1479.3 1732.88,1479.3 1735.01,1479.3 1737.15,1479.3 1739.29,1479.3 1741.43,1479.3 1743.56,1479.3 1745.7,1479.3 1747.84,1479.3 1749.98,1479.3 1752.11,1479.3 1754.25,1479.3 1756.39,1479.3 1758.53,1479.3 1760.66,1479.3 1762.8,1479.3 1764.94,1479.3 1767.08,1479.3 1769.21,1479.3 1771.35,1479.3 1773.49,1479.3 1775.63,1479.3 1777.76,1479.3 1779.9,1479.3 1782.04,1479.3 1784.18,1479.3 1786.31,1479.3 1788.45,1479.3 1790.59,1479.3 1792.73,1479.3 1794.87,1479.3 1797,1479.3 1799.14,1479.3 1801.28,1479.3 1803.42,1479.3 1805.55,1479.3 1807.69,1479.3 1809.83,1479.3 1811.97,1479.3 1814.1,1479.3 1816.24,1479.3 1818.38,1479.3 1820.52,1479.3 1822.65,1479.3 1824.79,1479.3 1826.93,1479.3 1829.07,1479.3 1831.2,1479.3 1833.34,1479.3 1835.48,1479.3 1837.62,1479.3 1839.75,1479.3 1841.89,1479.3 1844.03,1479.3 1846.17,1479.3 1848.3,1479.3 1850.44,1479.3 1852.58,1479.3 1854.72,1479.3 1856.85,1479.3 1858.99,1479.3 1861.13,1479.3 1863.27,1479.3 1865.4,1479.3 1867.54,1479.3 1869.68,1479.3 1871.82,1479.3 1873.95,1479.3 1876.09,1479.3 1878.23,1479.3 1880.37,1479.3 1882.5,1479.3 1884.64,1479.3 1886.78,1479.3 1888.92,1479.3 1891.05,1479.3 1893.19,1479.3 1895.33,1479.3 1897.47,1479.3 1899.6,1479.3 1901.74,1479.3 1903.88,1479.3 1906.02,1479.3 1908.15,1479.3 1910.29,1479.3 1912.43,1479.3 1914.57,1479.3 1916.7,1479.3 1918.84,1479.3 1920.98,1479.3 1923.12,1479.3 1925.25,1479.3 1927.39,1479.3 1929.53,1479.3 1931.67,1479.3 1933.8,1479.3 1935.94,1479.3 1938.08,1479.3 1940.22,1479.3 1942.35,1479.3 1944.49,1479.3 1946.63,1479.3 1948.77,1479.3 1950.9,1479.3 1953.04,1479.3 1955.18,1479.3 1957.32,1479.3 1959.45,1479.3 1961.59,1479.3 1963.73,1479.3 1965.87,1479.3 1968,1479.3 1970.14,1479.3 1972.28,1479.3 1974.42,1479.3 1976.55,1479.3 1978.69,1479.3 1980.83,1479.3 1982.97,1479.3 1985.1,1479.3 1987.24,1479.3 1989.38,1479.3 1991.52,1479.3 1993.65,1479.3 1995.79,1479.3 1997.93,1479.3 2000.07,1479.3 2002.2,1479.3 2004.34,1479.3 2006.48,1479.3 2008.62,1479.3 2010.75,1479.3 2012.89,1479.3 2015.03,1479.3 2017.17,1479.3 2019.3,1479.3 2021.44,1479.3 2023.58,1479.3 2025.72,1479.3 2027.85,1479.3 2029.99,1479.3 2032.13,1479.3 2034.27,1479.3 2036.4,1479.3 2038.54,1479.3 2040.68,1479.3 2042.82,1479.3 2044.95,1479.3 2047.09,1479.3 2049.23,1479.3 2051.37,1479.3 2053.5,1479.3 2055.64,1479.3 2057.78,1479.3 2059.92,1479.3 2062.05,1479.3 2064.19,1479.3 2066.33,1479.3 2068.47,1479.3 2070.6,1479.3 2072.74,1479.3 2074.88,1479.3 2077.02,1479.3 2079.15,1479.3 2081.29,1479.3 2083.43,1479.3 2085.57,1479.3 2087.7,1479.3 2089.84,1479.3 2091.98,1479.3 2094.12,1479.3 2096.25,1479.3 2098.39,1479.3 2100.53,1479.3 2102.67,1479.3 2104.8,1479.3 2106.94,1479.3 2109.08,1479.3 2111.22,1479.3 2113.35,1479.3 2115.49,1479.3 2117.63,1479.3 2119.77,1479.3 2121.9,1479.3 2124.04,1479.3 2126.18,1479.3 2128.32,1479.3 2130.45,1479.3 2132.59,1479.3 2134.73,1479.3 2136.87,1479.3 2139,1479.3 2141.14,1479.3 2143.28,1479.3 2145.42,1479.3 2147.55,1479.3 2149.69,1479.3 2151.83,1479.3 2153.97,1479.3 2156.1,1479.3 2158.24,1479.3 2160.38,1479.3 2162.52,1479.3 2164.65,1479.3 2166.79,1479.3 2168.93,1479.3 2171.07,1479.3 2173.2,1479.3 2175.34,1479.3 2177.48,1479.3 2179.62,1479.3 2181.75,1479.3 2183.89,1479.3 2186.03,1479.3 2188.17,1479.3 2190.3,1479.3 2192.44,1479.3 2194.58,1479.3 2196.72,1479.3 2198.85,1479.3 2200.99,1479.3 2203.13,1479.3 2205.27,1479.3 2207.41,1479.3 2209.54,1479.3 2211.68,1479.3 2213.82,1479.3 2215.96,1479.3 2218.09,1479.3 2220.23,1479.3 2222.37,1479.3 2224.51,1479.3 2226.64,1479.3 2228.78,1479.3 2230.92,1479.3 2233.06,1479.3 2235.19,1479.3 2237.33,1479.3 2239.47,1479.3 2241.61,1479.3 2243.74,1479.3 2245.88,1479.3 2248.02,1479.3 2250.16,1479.3 2252.29,1479.3 2254.43,1479.3 2256.57,1479.3 2258.71,1479.3 2260.84,1479.3 2262.98,1479.3 2265.12,1479.3 2267.26,1479.3 2269.39,1479.3 2271.53,1479.3 2273.67,1479.3 2275.81,1479.3 2277.94,1479.3 2280.08,1479.3 2282.22,1479.3 2284.36,1479.3 2286.49,1479.3 2288.63,1479.3 "/>
<path clip-path="url(#clip630)" d="M1842.25 200.05 L2277.23 200.05 L2277.23 96.3696 L1842.25 96.3696  Z" fill="#ffffff" fill-rule="evenodd" fill-opacity="1"/>
<polyline clip-path="url(#clip630)" style="stroke:#000000; stroke-linecap:round; stroke-linejoin:round; stroke-width:4; stroke-opacity:1; fill:none" points="1842.25,200.05 2277.23,200.05 2277.23,96.3696 1842.25,96.3696 1842.25,200.05 "/>
<polyline clip-path="url(#clip630)" style="stroke:#009af9; stroke-linecap:round; stroke-linejoin:round; stroke-width:4; stroke-opacity:1; fill:none" points="1867.43,148.21 2018.48,148.21 "/>
<path clip-path="url(#clip630)" d="M2047.94 161.601 L2047.94 175.351 L2043.65 175.351 L2043.65 139.564 L2047.94 139.564 L2047.94 143.499 Q2049.28 141.184 2051.32 140.073 Q2053.38 138.939 2056.22 138.939 Q2060.95 138.939 2063.89 142.689 Q2066.85 146.439 2066.85 152.55 Q2066.85 158.661 2063.89 162.411 Q2060.95 166.161 2056.22 166.161 Q2053.38 166.161 2051.32 165.05 Q2049.28 163.915 2047.94 161.601 M2062.43 152.55 Q2062.43 147.851 2060.48 145.189 Q2058.56 142.504 2055.18 142.504 Q2051.8 142.504 2049.86 145.189 Q2047.94 147.851 2047.94 152.55 Q2047.94 157.249 2049.86 159.934 Q2051.8 162.596 2055.18 162.596 Q2058.56 162.596 2060.48 159.934 Q2062.43 157.249 2062.43 152.55 Z" fill="#000000" fill-rule="nonzero" fill-opacity="1" /><path clip-path="url(#clip630)" d="M2083.95 142.55 Q2080.53 142.55 2078.54 145.235 Q2076.55 147.897 2076.55 152.55 Q2076.55 157.203 2078.51 159.888 Q2080.51 162.55 2083.95 162.55 Q2087.36 162.55 2089.35 159.865 Q2091.34 157.179 2091.34 152.55 Q2091.34 147.943 2089.35 145.258 Q2087.36 142.55 2083.95 142.55 M2083.95 138.939 Q2089.51 138.939 2092.68 142.55 Q2095.85 146.161 2095.85 152.55 Q2095.85 158.916 2092.68 162.55 Q2089.51 166.161 2083.95 166.161 Q2078.38 166.161 2075.2 162.55 Q2072.06 158.916 2072.06 152.55 Q2072.06 146.161 2075.2 142.55 Q2078.38 138.939 2083.95 138.939 Z" fill="#000000" fill-rule="nonzero" fill-opacity="1" /><path clip-path="url(#clip630)" d="M2119.44 140.328 L2119.44 144.355 Q2117.63 143.429 2115.69 142.967 Q2113.75 142.504 2111.66 142.504 Q2108.49 142.504 2106.89 143.476 Q2105.32 144.448 2105.32 146.392 Q2105.32 147.874 2106.45 148.73 Q2107.59 149.564 2111.01 150.328 L2112.47 150.652 Q2117.01 151.624 2118.91 153.406 Q2120.83 155.166 2120.83 158.337 Q2120.83 161.948 2117.96 164.054 Q2115.11 166.161 2110.11 166.161 Q2108.03 166.161 2105.76 165.744 Q2103.51 165.351 2101.01 164.54 L2101.01 160.142 Q2103.38 161.369 2105.67 161.994 Q2107.96 162.596 2110.2 162.596 Q2113.21 162.596 2114.83 161.578 Q2116.45 160.536 2116.45 158.661 Q2116.45 156.925 2115.27 155.999 Q2114.12 155.073 2110.16 154.216 L2108.68 153.869 Q2104.72 153.036 2102.96 151.323 Q2101.2 149.587 2101.2 146.578 Q2101.2 142.92 2103.79 140.93 Q2106.38 138.939 2111.15 138.939 Q2113.51 138.939 2115.6 139.286 Q2117.68 139.633 2119.44 140.328 Z" fill="#000000" fill-rule="nonzero" fill-opacity="1" /><path clip-path="url(#clip630)" d="M2131.82 132.203 L2131.82 139.564 L2140.6 139.564 L2140.6 142.874 L2131.82 142.874 L2131.82 156.948 Q2131.82 160.119 2132.68 161.022 Q2133.56 161.925 2136.22 161.925 L2140.6 161.925 L2140.6 165.49 L2136.22 165.49 Q2131.29 165.49 2129.42 163.661 Q2127.54 161.809 2127.54 156.948 L2127.54 142.874 L2124.42 142.874 L2124.42 139.564 L2127.54 139.564 L2127.54 132.203 L2131.82 132.203 Z" fill="#000000" fill-rule="nonzero" fill-opacity="1" /><path clip-path="url(#clip630)" d="M2168.38 151.462 L2168.38 153.545 L2148.79 153.545 Q2149.07 157.943 2151.43 160.258 Q2153.82 162.55 2158.05 162.55 Q2160.5 162.55 2162.8 161.948 Q2165.11 161.346 2167.38 160.142 L2167.38 164.17 Q2165.09 165.142 2162.68 165.652 Q2160.27 166.161 2157.8 166.161 Q2151.59 166.161 2147.96 162.55 Q2144.35 158.939 2144.35 152.781 Q2144.35 146.416 2147.77 142.689 Q2151.22 138.939 2157.06 138.939 Q2162.29 138.939 2165.32 142.318 Q2168.38 145.675 2168.38 151.462 M2164.12 150.212 Q2164.07 146.717 2162.15 144.633 Q2160.25 142.55 2157.1 142.55 Q2153.54 142.55 2151.38 144.564 Q2149.25 146.578 2148.93 150.235 L2164.12 150.212 Z" fill="#000000" fill-rule="nonzero" fill-opacity="1" /><path clip-path="url(#clip630)" d="M2190.39 143.545 Q2189.67 143.129 2188.81 142.943 Q2187.98 142.735 2186.96 142.735 Q2183.35 142.735 2181.41 145.096 Q2179.49 147.434 2179.49 151.832 L2179.49 165.49 L2175.2 165.49 L2175.2 139.564 L2179.49 139.564 L2179.49 143.592 Q2180.83 141.23 2182.98 140.096 Q2185.13 138.939 2188.21 138.939 Q2188.65 138.939 2189.19 139.008 Q2189.72 139.055 2190.37 139.17 L2190.39 143.545 Z" fill="#000000" fill-rule="nonzero" fill-opacity="1" /><path clip-path="url(#clip630)" d="M2194.86 139.564 L2199.12 139.564 L2199.12 165.49 L2194.86 165.49 L2194.86 139.564 M2194.86 129.471 L2199.12 129.471 L2199.12 134.865 L2194.86 134.865 L2194.86 129.471 Z" fill="#000000" fill-rule="nonzero" fill-opacity="1" /><path clip-path="url(#clip630)" d="M2218.07 142.55 Q2214.65 142.55 2212.66 145.235 Q2210.67 147.897 2210.67 152.55 Q2210.67 157.203 2212.63 159.888 Q2214.62 162.55 2218.07 162.55 Q2221.48 162.55 2223.47 159.865 Q2225.46 157.179 2225.46 152.55 Q2225.46 147.943 2223.47 145.258 Q2221.48 142.55 2218.07 142.55 M2218.07 138.939 Q2223.63 138.939 2226.8 142.55 Q2229.97 146.161 2229.97 152.55 Q2229.97 158.916 2226.8 162.55 Q2223.63 166.161 2218.07 166.161 Q2212.5 166.161 2209.32 162.55 Q2206.18 158.916 2206.18 152.55 Q2206.18 146.161 2209.32 142.55 Q2212.5 138.939 2218.07 138.939 Z" fill="#000000" fill-rule="nonzero" fill-opacity="1" /><path clip-path="url(#clip630)" d="M2252.06 143.545 Q2251.34 143.129 2250.48 142.943 Q2249.65 142.735 2248.63 142.735 Q2245.02 142.735 2243.07 145.096 Q2241.15 147.434 2241.15 151.832 L2241.15 165.49 L2236.87 165.49 L2236.87 139.564 L2241.15 139.564 L2241.15 143.592 Q2242.5 141.23 2244.65 140.096 Q2246.8 138.939 2249.88 138.939 Q2250.32 138.939 2250.85 139.008 Q2251.38 139.055 2252.03 139.17 L2252.06 143.545 Z" fill="#000000" fill-rule="nonzero" fill-opacity="1" /></svg>
