<?xml version="1.0" encoding="utf-8"?>
<svg xmlns="http://www.w3.org/2000/svg" xmlns:xlink="http://www.w3.org/1999/xlink" width="600" height="400" viewBox="0 0 2400 1600">
<defs>
  <clipPath id="clip230">
    <rect x="0" y="0" width="2400" height="1600"/>
  </clipPath>
</defs>
<path clip-path="url(#clip230)" d="M0 1600 L2400 1600 L2400 0 L0 0  Z" fill="#ffffff" fill-rule="evenodd" fill-opacity="1"/>
<defs>
  <clipPath id="clip231">
    <rect x="480" y="0" width="1681" height="1600"/>
  </clipPath>
</defs>
<path clip-path="url(#clip230)" d="M86.9921 1521.01 L2352.76 1521.01 L2352.76 47.2441 L86.9921 47.2441  Z" fill="#ffffff" fill-rule="evenodd" fill-opacity="1"/>
<defs>
  <clipPath id="clip232">
    <rect x="86" y="47" width="2267" height="1475"/>
  </clipPath>
</defs>
<polyline clip-path="url(#clip232)" style="stroke:#000000; stroke-linecap:round; stroke-linejoin:round; stroke-width:2; stroke-opacity:0.1; fill:none" points="350.684,1521.01 350.684,47.2441 "/>
<polyline clip-path="url(#clip232)" style="stroke:#000000; stroke-linecap:round; stroke-linejoin:round; stroke-width:2; stroke-opacity:0.1; fill:none" points="698.36,1521.01 698.36,47.2441 "/>
<polyline clip-path="url(#clip232)" style="stroke:#000000; stroke-linecap:round; stroke-linejoin:round; stroke-width:2; stroke-opacity:0.1; fill:none" points="1046.04,1521.01 1046.04,47.2441 "/>
<polyline clip-path="url(#clip232)" style="stroke:#000000; stroke-linecap:round; stroke-linejoin:round; stroke-width:2; stroke-opacity:0.1; fill:none" points="1393.71,1521.01 1393.71,47.2441 "/>
<polyline clip-path="url(#clip232)" style="stroke:#000000; stroke-linecap:round; stroke-linejoin:round; stroke-width:2; stroke-opacity:0.1; fill:none" points="1741.39,1521.01 1741.39,47.2441 "/>
<polyline clip-path="url(#clip232)" style="stroke:#000000; stroke-linecap:round; stroke-linejoin:round; stroke-width:2; stroke-opacity:0.1; fill:none" points="2089.06,1521.01 2089.06,47.2441 "/>
<polyline clip-path="url(#clip230)" style="stroke:#000000; stroke-linecap:round; stroke-linejoin:round; stroke-width:4; stroke-opacity:1; fill:none" points="86.9921,1521.01 2352.76,1521.01 "/>
<polyline clip-path="url(#clip230)" style="stroke:#000000; stroke-linecap:round; stroke-linejoin:round; stroke-width:4; stroke-opacity:1; fill:none" points="350.684,1521.01 350.684,1502.11 "/>
<polyline clip-path="url(#clip230)" style="stroke:#000000; stroke-linecap:round; stroke-linejoin:round; stroke-width:4; stroke-opacity:1; fill:none" points="698.36,1521.01 698.36,1502.11 "/>
<polyline clip-path="url(#clip230)" style="stroke:#000000; stroke-linecap:round; stroke-linejoin:round; stroke-width:4; stroke-opacity:1; fill:none" points="1046.04,1521.01 1046.04,1502.11 "/>
<polyline clip-path="url(#clip230)" style="stroke:#000000; stroke-linecap:round; stroke-linejoin:round; stroke-width:4; stroke-opacity:1; fill:none" points="1393.71,1521.01 1393.71,1502.11 "/>
<polyline clip-path="url(#clip230)" style="stroke:#000000; stroke-linecap:round; stroke-linejoin:round; stroke-width:4; stroke-opacity:1; fill:none" points="1741.39,1521.01 1741.39,1502.11 "/>
<polyline clip-path="url(#clip230)" style="stroke:#000000; stroke-linecap:round; stroke-linejoin:round; stroke-width:4; stroke-opacity:1; fill:none" points="2089.06,1521.01 2089.06,1502.11 "/>
<path clip-path="url(#clip230)" d="M339.179 1552.92 L327.374 1571.37 L339.179 1571.37 L339.179 1552.92 M337.952 1548.85 L343.832 1548.85 L343.832 1571.37 L348.762 1571.37 L348.762 1575.26 L343.832 1575.26 L343.832 1583.41 L339.179 1583.41 L339.179 1575.26 L323.577 1575.26 L323.577 1570.75 L337.952 1548.85 Z" fill="#000000" fill-rule="nonzero" fill-opacity="1" /><path clip-path="url(#clip230)" d="M370.66 1564.77 Q374.017 1565.49 375.892 1567.76 Q377.79 1570.03 377.79 1573.36 Q377.79 1578.48 374.271 1581.28 Q370.753 1584.08 364.272 1584.08 Q362.096 1584.08 359.781 1583.64 Q357.489 1583.22 355.035 1582.37 L355.035 1577.85 Q356.98 1578.99 359.295 1579.57 Q361.609 1580.14 364.133 1580.14 Q368.531 1580.14 370.822 1578.41 Q373.137 1576.67 373.137 1573.36 Q373.137 1570.31 370.984 1568.59 Q368.855 1566.86 365.035 1566.86 L361.008 1566.86 L361.008 1563.01 L365.221 1563.01 Q368.67 1563.01 370.498 1561.65 Q372.327 1560.26 372.327 1557.67 Q372.327 1555.01 370.429 1553.59 Q368.554 1552.16 365.035 1552.16 Q363.114 1552.16 360.915 1552.57 Q358.716 1552.99 356.077 1553.87 L356.077 1549.7 Q358.739 1548.96 361.054 1548.59 Q363.392 1548.22 365.452 1548.22 Q370.776 1548.22 373.878 1550.65 Q376.98 1553.06 376.98 1557.18 Q376.98 1560.05 375.336 1562.04 Q373.693 1564.01 370.66 1564.77 Z" fill="#000000" fill-rule="nonzero" fill-opacity="1" /><path clip-path="url(#clip230)" d="M686.288 1552.92 L674.483 1571.37 L686.288 1571.37 L686.288 1552.92 M685.061 1548.85 L690.941 1548.85 L690.941 1571.37 L695.871 1571.37 L695.871 1575.26 L690.941 1575.26 L690.941 1583.41 L686.288 1583.41 L686.288 1575.26 L670.686 1575.26 L670.686 1570.75 L685.061 1548.85 Z" fill="#000000" fill-rule="nonzero" fill-opacity="1" /><path clip-path="url(#clip230)" d="M716.45 1552.92 L704.644 1571.37 L716.45 1571.37 L716.45 1552.92 M715.223 1548.85 L721.103 1548.85 L721.103 1571.37 L726.033 1571.37 L726.033 1575.26 L721.103 1575.26 L721.103 1583.41 L716.45 1583.41 L716.45 1575.26 L700.848 1575.26 L700.848 1570.75 L715.223 1548.85 Z" fill="#000000" fill-rule="nonzero" fill-opacity="1" /><path clip-path="url(#clip230)" d="M1034.7 1552.92 L1022.9 1571.37 L1034.7 1571.37 L1034.7 1552.92 M1033.48 1548.85 L1039.36 1548.85 L1039.36 1571.37 L1044.29 1571.37 L1044.29 1575.26 L1039.36 1575.26 L1039.36 1583.41 L1034.7 1583.41 L1034.7 1575.26 L1019.1 1575.26 L1019.1 1570.75 L1033.48 1548.85 Z" fill="#000000" fill-rule="nonzero" fill-opacity="1" /><path clip-path="url(#clip230)" d="M1052.07 1548.85 L1070.42 1548.85 L1070.42 1552.78 L1056.35 1552.78 L1056.35 1561.26 Q1057.37 1560.91 1058.39 1560.75 Q1059.4 1560.56 1060.42 1560.56 Q1066.21 1560.56 1069.59 1563.73 Q1072.97 1566.9 1072.97 1572.32 Q1072.97 1577.9 1069.5 1581 Q1066.02 1584.08 1059.7 1584.08 Q1057.53 1584.08 1055.26 1583.71 Q1053.02 1583.34 1050.61 1582.6 L1050.61 1577.9 Q1052.69 1579.03 1054.91 1579.59 Q1057.14 1580.14 1059.61 1580.14 Q1063.62 1580.14 1065.95 1578.04 Q1068.29 1575.93 1068.29 1572.32 Q1068.29 1568.71 1065.95 1566.6 Q1063.62 1564.5 1059.61 1564.5 Q1057.74 1564.5 1055.86 1564.91 Q1054.01 1565.33 1052.07 1566.21 L1052.07 1548.85 Z" fill="#000000" fill-rule="nonzero" fill-opacity="1" /><path clip-path="url(#clip230)" d="M1381.8 1552.92 L1370 1571.37 L1381.8 1571.37 L1381.8 1552.92 M1380.58 1548.85 L1386.46 1548.85 L1386.46 1571.37 L1391.39 1571.37 L1391.39 1575.26 L1386.46 1575.26 L1386.46 1583.41 L1381.8 1583.41 L1381.8 1575.26 L1366.2 1575.26 L1366.2 1570.75 L1380.58 1548.85 Z" fill="#000000" fill-rule="nonzero" fill-opacity="1" /><path clip-path="url(#clip230)" d="M1409.7 1564.26 Q1406.55 1564.26 1404.7 1566.42 Q1402.87 1568.57 1402.87 1572.32 Q1402.87 1576.05 1404.7 1578.22 Q1406.55 1580.38 1409.7 1580.38 Q1412.84 1580.38 1414.67 1578.22 Q1416.52 1576.05 1416.52 1572.32 Q1416.52 1568.57 1414.67 1566.42 Q1412.84 1564.26 1409.7 1564.26 M1418.98 1549.61 L1418.98 1553.87 Q1417.22 1553.04 1415.41 1552.6 Q1413.63 1552.16 1411.87 1552.16 Q1407.24 1552.16 1404.79 1555.28 Q1402.36 1558.41 1402.01 1564.73 Q1403.38 1562.71 1405.44 1561.65 Q1407.5 1560.56 1409.97 1560.56 Q1415.18 1560.56 1418.19 1563.73 Q1421.22 1566.88 1421.22 1572.32 Q1421.22 1577.64 1418.08 1580.86 Q1414.93 1584.08 1409.7 1584.08 Q1403.7 1584.08 1400.53 1579.5 Q1397.36 1574.89 1397.36 1566.16 Q1397.36 1557.97 1401.25 1553.11 Q1405.14 1548.22 1411.69 1548.22 Q1413.45 1548.22 1415.23 1548.57 Q1417.03 1548.92 1418.98 1549.61 Z" fill="#000000" fill-rule="nonzero" fill-opacity="1" /><path clip-path="url(#clip230)" d="M1730.01 1552.92 L1718.21 1571.37 L1730.01 1571.37 L1730.01 1552.92 M1728.78 1548.85 L1734.66 1548.85 L1734.66 1571.37 L1739.59 1571.37 L1739.59 1575.26 L1734.66 1575.26 L1734.66 1583.41 L1730.01 1583.41 L1730.01 1575.26 L1714.41 1575.26 L1714.41 1570.75 L1728.78 1548.85 Z" fill="#000000" fill-rule="nonzero" fill-opacity="1" /><path clip-path="url(#clip230)" d="M1746.15 1548.85 L1768.37 1548.85 L1768.37 1550.84 L1755.82 1583.41 L1750.94 1583.41 L1762.74 1552.78 L1746.15 1552.78 L1746.15 1548.85 Z" fill="#000000" fill-rule="nonzero" fill-opacity="1" /><path clip-path="url(#clip230)" d="M2077.28 1552.92 L2065.48 1571.37 L2077.28 1571.37 L2077.28 1552.92 M2076.06 1548.85 L2081.93 1548.85 L2081.93 1571.37 L2086.87 1571.37 L2086.87 1575.26 L2081.93 1575.26 L2081.93 1583.41 L2077.28 1583.41 L2077.28 1575.26 L2061.68 1575.26 L2061.68 1570.75 L2076.06 1548.85 Z" fill="#000000" fill-rule="nonzero" fill-opacity="1" /><path clip-path="url(#clip230)" d="M2104.6 1567 Q2101.26 1567 2099.34 1568.78 Q2097.44 1570.56 2097.44 1573.69 Q2097.44 1576.81 2099.34 1578.59 Q2101.26 1580.38 2104.6 1580.38 Q2107.93 1580.38 2109.85 1578.59 Q2111.77 1576.79 2111.77 1573.69 Q2111.77 1570.56 2109.85 1568.78 Q2107.95 1567 2104.6 1567 M2099.92 1565.01 Q2096.91 1564.26 2095.22 1562.2 Q2093.56 1560.14 2093.56 1557.18 Q2093.56 1553.04 2096.49 1550.63 Q2099.46 1548.22 2104.6 1548.22 Q2109.76 1548.22 2112.7 1550.63 Q2115.64 1553.04 2115.64 1557.18 Q2115.64 1560.14 2113.95 1562.2 Q2112.28 1564.26 2109.3 1565.01 Q2112.68 1565.79 2114.55 1568.08 Q2116.45 1570.38 2116.45 1573.69 Q2116.45 1578.71 2113.37 1581.39 Q2110.31 1584.08 2104.6 1584.08 Q2098.88 1584.08 2095.8 1581.39 Q2092.74 1578.71 2092.74 1573.69 Q2092.74 1570.38 2094.64 1568.08 Q2096.54 1565.79 2099.92 1565.01 M2098.21 1557.62 Q2098.21 1560.31 2099.87 1561.81 Q2101.56 1563.32 2104.6 1563.32 Q2107.61 1563.32 2109.3 1561.81 Q2111.01 1560.31 2111.01 1557.62 Q2111.01 1554.94 2109.3 1553.43 Q2107.61 1551.93 2104.6 1551.93 Q2101.56 1551.93 2099.87 1553.43 Q2098.21 1554.94 2098.21 1557.62 Z" fill="#000000" fill-rule="nonzero" fill-opacity="1" /><polyline clip-path="url(#clip232)" style="stroke:#000000; stroke-linecap:round; stroke-linejoin:round; stroke-width:2; stroke-opacity:0.1; fill:none" points="86.9921,1521.01 2352.76,1521.01 "/>
<polyline clip-path="url(#clip232)" style="stroke:#000000; stroke-linecap:round; stroke-linejoin:round; stroke-width:2; stroke-opacity:0.1; fill:none" points="86.9921,1207.44 2352.76,1207.44 "/>
<polyline clip-path="url(#clip232)" style="stroke:#000000; stroke-linecap:round; stroke-linejoin:round; stroke-width:2; stroke-opacity:0.1; fill:none" points="86.9921,893.874 2352.76,893.874 "/>
<polyline clip-path="url(#clip232)" style="stroke:#000000; stroke-linecap:round; stroke-linejoin:round; stroke-width:2; stroke-opacity:0.1; fill:none" points="86.9921,580.308 2352.76,580.308 "/>
<polyline clip-path="url(#clip232)" style="stroke:#000000; stroke-linecap:round; stroke-linejoin:round; stroke-width:2; stroke-opacity:0.1; fill:none" points="86.9921,266.741 2352.76,266.741 "/>
<polyline clip-path="url(#clip230)" style="stroke:#000000; stroke-linecap:round; stroke-linejoin:round; stroke-width:4; stroke-opacity:1; fill:none" points="86.9921,1521.01 86.9921,47.2441 "/>
<polyline clip-path="url(#clip230)" style="stroke:#000000; stroke-linecap:round; stroke-linejoin:round; stroke-width:4; stroke-opacity:1; fill:none" points="86.9921,1521.01 105.89,1521.01 "/>
<polyline clip-path="url(#clip230)" style="stroke:#000000; stroke-linecap:round; stroke-linejoin:round; stroke-width:4; stroke-opacity:1; fill:none" points="86.9921,1207.44 105.89,1207.44 "/>
<polyline clip-path="url(#clip230)" style="stroke:#000000; stroke-linecap:round; stroke-linejoin:round; stroke-width:4; stroke-opacity:1; fill:none" points="86.9921,893.874 105.89,893.874 "/>
<polyline clip-path="url(#clip230)" style="stroke:#000000; stroke-linecap:round; stroke-linejoin:round; stroke-width:4; stroke-opacity:1; fill:none" points="86.9921,580.308 105.89,580.308 "/>
<polyline clip-path="url(#clip230)" style="stroke:#000000; stroke-linecap:round; stroke-linejoin:round; stroke-width:4; stroke-opacity:1; fill:none" points="86.9921,266.741 105.89,266.741 "/>
<path clip-path="url(#clip230)" d="M10.8708 1521.01 Q10.8708 1524.62 14.4356 1526.45 Q17.9773 1528.25 25.1068 1528.25 Q32.2133 1528.25 35.7781 1526.45 Q39.3197 1524.62 39.3197 1521.01 Q39.3197 1517.37 35.7781 1515.57 Q32.2133 1513.74 25.1068 1513.74 Q17.9773 1513.74 14.4356 1515.57 Q10.8708 1517.37 10.8708 1521.01 M7.16713 1521.01 Q7.16713 1515.2 11.7736 1512.14 Q16.3569 1509.06 25.1068 1509.06 Q33.8337 1509.06 38.4401 1512.14 Q43.0234 1515.2 43.0234 1521.01 Q43.0234 1526.82 38.4401 1529.9 Q33.8337 1532.95 25.1068 1532.95 Q16.3569 1532.95 11.7736 1529.9 Q7.16713 1526.82 7.16713 1521.01 Z" fill="#000000" fill-rule="nonzero" fill-opacity="1" /><path clip-path="url(#clip230)" d="M38.417 1228.67 L38.417 1212.35 L42.3521 1212.35 L42.3521 1234.29 L38.417 1234.29 Q35.6623 1231.63 31.0327 1227.05 Q26.38 1222.44 25.0374 1221.26 Q22.5143 1219.02 20.7782 1218.14 Q19.0189 1217.23 17.3291 1217.23 Q14.5745 1217.23 12.8384 1219.18 Q11.1023 1221.1 11.1023 1224.2 Q11.1023 1226.4 11.8662 1228.85 Q12.6301 1231.28 14.181 1234.06 L9.45878 1234.06 Q8.32453 1231.24 7.74583 1228.78 Q7.16713 1226.33 7.16713 1224.29 Q7.16713 1218.92 9.8523 1215.73 Q12.5375 1212.53 17.0282 1212.53 Q19.1578 1212.53 21.0791 1213.34 Q22.9772 1214.13 25.5698 1216.24 Q26.2411 1216.82 29.4587 1219.92 Q32.6531 1223.02 38.417 1228.67 Z" fill="#000000" fill-rule="nonzero" fill-opacity="1" /><path clip-path="url(#clip230)" d="M10.8708 1192.53 Q10.8708 1196.14 14.4356 1197.97 Q17.9773 1199.78 25.1068 1199.78 Q32.2133 1199.78 35.7781 1197.97 Q39.3197 1196.14 39.3197 1192.53 Q39.3197 1188.9 35.7781 1187.09 Q32.2133 1185.27 25.1068 1185.27 Q17.9773 1185.27 14.4356 1187.09 Q10.8708 1188.9 10.8708 1192.53 M7.16713 1192.53 Q7.16713 1186.72 11.7736 1183.67 Q16.3569 1180.59 25.1068 1180.59 Q33.8337 1180.59 38.4401 1183.67 Q43.0234 1186.72 43.0234 1192.53 Q43.0234 1198.34 38.4401 1201.42 Q33.8337 1204.48 25.1068 1204.48 Q16.3569 1204.48 11.7736 1201.42 Q7.16713 1198.34 7.16713 1192.53 Z" fill="#000000" fill-rule="nonzero" fill-opacity="1" /><path clip-path="url(#clip230)" d="M11.8662 905.703 L30.3152 917.508 L30.3152 905.703 L11.8662 905.703 M7.79213 906.93 L7.79213 901.05 L30.3152 901.05 L30.3152 896.12 L34.204 896.12 L34.204 901.05 L42.3521 901.05 L42.3521 905.703 L34.204 905.703 L34.204 921.305 L29.6902 921.305 L7.79213 906.93 Z" fill="#000000" fill-rule="nonzero" fill-opacity="1" /><path clip-path="url(#clip230)" d="M10.8708 878.388 Q10.8708 881.999 14.4356 883.828 Q17.9773 885.634 25.1068 885.634 Q32.2133 885.634 35.7781 883.828 Q39.3197 881.999 39.3197 878.388 Q39.3197 874.754 35.7781 872.949 Q32.2133 871.12 25.1068 871.12 Q17.9773 871.12 14.4356 872.949 Q10.8708 874.754 10.8708 878.388 M7.16713 878.388 Q7.16713 872.578 11.7736 869.523 Q16.3569 866.444 25.1068 866.444 Q33.8337 866.444 38.4401 869.523 Q43.0234 872.578 43.0234 878.388 Q43.0234 884.198 38.4401 887.277 Q33.8337 890.333 25.1068 890.333 Q16.3569 890.333 11.7736 887.277 Q7.16713 884.198 7.16713 878.388 Z" fill="#000000" fill-rule="nonzero" fill-opacity="1" /><path clip-path="url(#clip230)" d="M23.2087 594.902 Q23.2087 598.051 25.3615 599.902 Q27.5142 601.731 31.2642 601.731 Q34.9911 601.731 37.167 599.902 Q39.3197 598.051 39.3197 594.902 Q39.3197 591.754 37.167 589.926 Q34.9911 588.074 31.2642 588.074 Q27.5142 588.074 25.3615 589.926 Q23.2087 591.754 23.2087 594.902 M8.55601 585.62 L12.8152 585.62 Q11.9819 587.379 11.5421 589.185 Q11.1023 590.967 11.1023 592.727 Q11.1023 597.356 14.2273 599.81 Q17.3523 602.24 23.6717 602.588 Q21.6578 601.222 20.593 599.162 Q19.505 597.101 19.505 594.625 Q19.505 589.416 22.6763 586.407 Q25.8244 583.375 31.2642 583.375 Q36.5883 583.375 39.8058 586.523 Q43.0234 589.671 43.0234 594.902 Q43.0234 600.898 38.4401 604.069 Q33.8337 607.24 25.1068 607.24 Q16.9124 607.24 12.0514 603.351 Q7.16713 599.463 7.16713 592.912 Q7.16713 591.152 7.51435 589.37 Q7.86157 587.564 8.55601 585.62 Z" fill="#000000" fill-rule="nonzero" fill-opacity="1" /><path clip-path="url(#clip230)" d="M10.8708 565.319 Q10.8708 568.93 14.4356 570.759 Q17.9773 572.565 25.1068 572.565 Q32.2133 572.565 35.7781 570.759 Q39.3197 568.93 39.3197 565.319 Q39.3197 561.685 35.7781 559.879 Q32.2133 558.051 25.1068 558.051 Q17.9773 558.051 14.4356 559.879 Q10.8708 561.685 10.8708 565.319 M7.16713 565.319 Q7.16713 559.509 11.7736 556.454 Q16.3569 553.375 25.1068 553.375 Q33.8337 553.375 38.4401 556.454 Q43.0234 559.509 43.0234 565.319 Q43.0234 571.129 38.4401 574.208 Q33.8337 577.264 25.1068 577.264 Q16.3569 577.264 11.7736 574.208 Q7.16713 571.129 7.16713 565.319 Z" fill="#000000" fill-rule="nonzero" fill-opacity="1" /><path clip-path="url(#clip230)" d="M25.9402 281.868 Q25.9402 285.201 27.7226 287.123 Q29.505 289.021 32.63 289.021 Q35.7549 289.021 37.5373 287.123 Q39.3197 285.201 39.3197 281.868 Q39.3197 278.535 37.5373 276.613 Q35.7318 274.692 32.63 274.692 Q29.505 274.692 27.7226 276.613 Q25.9402 278.512 25.9402 281.868 M23.9494 286.544 Q23.2087 289.553 21.1485 291.243 Q19.0884 292.91 16.1254 292.91 Q11.9819 292.91 9.57452 289.97 Q7.16713 287.007 7.16713 281.868 Q7.16713 276.706 9.57452 273.766 Q11.9819 270.826 16.1254 270.826 Q19.0884 270.826 21.1485 272.516 Q23.2087 274.183 23.9494 277.169 Q24.7365 273.789 27.0281 271.914 Q29.3198 270.016 32.63 270.016 Q37.6531 270.016 40.3382 273.095 Q43.0234 276.15 43.0234 281.868 Q43.0234 287.586 40.3382 290.664 Q37.6531 293.72 32.63 293.72 Q29.3198 293.72 27.0281 291.822 Q24.7365 289.924 23.9494 286.544 M16.5652 288.257 Q19.2504 288.257 20.755 286.59 Q22.2596 284.9 22.2596 281.868 Q22.2596 278.859 20.755 277.169 Q19.2504 275.456 16.5652 275.456 Q13.8801 275.456 12.3754 277.169 Q10.8708 278.859 10.8708 281.868 Q10.8708 284.9 12.3754 286.59 Q13.8801 288.257 16.5652 288.257 Z" fill="#000000" fill-rule="nonzero" fill-opacity="1" /><path clip-path="url(#clip230)" d="M10.8708 251.706 Q10.8708 255.317 14.4356 257.146 Q17.9773 258.952 25.1068 258.952 Q32.2133 258.952 35.7781 257.146 Q39.3197 255.317 39.3197 251.706 Q39.3197 248.072 35.7781 246.266 Q32.2133 244.438 25.1068 244.438 Q17.9773 244.438 14.4356 246.266 Q10.8708 248.072 10.8708 251.706 M7.16713 251.706 Q7.16713 245.896 11.7736 242.84 Q16.3569 239.762 25.1068 239.762 Q33.8337 239.762 38.4401 242.84 Q43.0234 245.896 43.0234 251.706 Q43.0234 257.516 38.4401 260.595 Q33.8337 263.651 25.1068 263.651 Q16.3569 263.651 11.7736 260.595 Q7.16713 257.516 7.16713 251.706 Z" fill="#000000" fill-rule="nonzero" fill-opacity="1" /><path clip-path="url(#clip232)" d="M211.613 1473.97 L211.613 1521.01 L281.148 1521.01 L281.148 1473.97 L211.613 1473.97 L211.613 1473.97  Z" fill="#009af9" fill-rule="evenodd" fill-opacity="1"/>
<polyline clip-path="url(#clip232)" style="stroke:#000000; stroke-linecap:round; stroke-linejoin:round; stroke-width:4; stroke-opacity:1; fill:none" points="211.613,1473.97 211.613,1521.01 281.148,1521.01 281.148,1473.97 211.613,1473.97 "/>
<path clip-path="url(#clip232)" d="M281.148 1426.94 L281.148 1521.01 L350.684 1521.01 L350.684 1426.94 L281.148 1426.94 L281.148 1426.94  Z" fill="#009af9" fill-rule="evenodd" fill-opacity="1"/>
<polyline clip-path="url(#clip232)" style="stroke:#000000; stroke-linecap:round; stroke-linejoin:round; stroke-width:4; stroke-opacity:1; fill:none" points="281.148,1426.94 281.148,1521.01 350.684,1521.01 350.684,1426.94 281.148,1426.94 "/>
<path clip-path="url(#clip232)" d="M350.684 1411.26 L350.684 1521.01 L420.219 1521.01 L420.219 1411.26 L350.684 1411.26 L350.684 1411.26  Z" fill="#009af9" fill-rule="evenodd" fill-opacity="1"/>
<polyline clip-path="url(#clip232)" style="stroke:#000000; stroke-linecap:round; stroke-linejoin:round; stroke-width:4; stroke-opacity:1; fill:none" points="350.684,1411.26 350.684,1521.01 420.219,1521.01 420.219,1411.26 350.684,1411.26 "/>
<path clip-path="url(#clip232)" d="M420.219 1317.19 L420.219 1521.01 L489.754 1521.01 L489.754 1317.19 L420.219 1317.19 L420.219 1317.19  Z" fill="#009af9" fill-rule="evenodd" fill-opacity="1"/>
<polyline clip-path="url(#clip232)" style="stroke:#000000; stroke-linecap:round; stroke-linejoin:round; stroke-width:4; stroke-opacity:1; fill:none" points="420.219,1317.19 420.219,1521.01 489.754,1521.01 489.754,1317.19 420.219,1317.19 "/>
<path clip-path="url(#clip232)" d="M489.754 1176.08 L489.754 1521.01 L559.289 1521.01 L559.289 1176.08 L489.754 1176.08 L489.754 1176.08  Z" fill="#009af9" fill-rule="evenodd" fill-opacity="1"/>
<polyline clip-path="url(#clip232)" style="stroke:#000000; stroke-linecap:round; stroke-linejoin:round; stroke-width:4; stroke-opacity:1; fill:none" points="489.754,1176.08 489.754,1521.01 559.289,1521.01 559.289,1176.08 489.754,1176.08 "/>
<path clip-path="url(#clip232)" d="M559.289 1082.01 L559.289 1521.01 L628.825 1521.01 L628.825 1082.01 L559.289 1082.01 L559.289 1082.01  Z" fill="#009af9" fill-rule="evenodd" fill-opacity="1"/>
<polyline clip-path="url(#clip232)" style="stroke:#000000; stroke-linecap:round; stroke-linejoin:round; stroke-width:4; stroke-opacity:1; fill:none" points="559.289,1082.01 559.289,1521.01 628.825,1521.01 628.825,1082.01 559.289,1082.01 "/>
<path clip-path="url(#clip232)" d="M628.825 846.839 L628.825 1521.01 L698.36 1521.01 L698.36 846.839 L628.825 846.839 L628.825 846.839  Z" fill="#009af9" fill-rule="evenodd" fill-opacity="1"/>
<polyline clip-path="url(#clip232)" style="stroke:#000000; stroke-linecap:round; stroke-linejoin:round; stroke-width:4; stroke-opacity:1; fill:none" points="628.825,846.839 628.825,1521.01 698.36,1521.01 698.36,846.839 628.825,846.839 "/>
<path clip-path="url(#clip232)" d="M698.36 690.056 L698.36 1521.01 L767.895 1521.01 L767.895 690.056 L698.36 690.056 L698.36 690.056  Z" fill="#009af9" fill-rule="evenodd" fill-opacity="1"/>
<polyline clip-path="url(#clip232)" style="stroke:#000000; stroke-linecap:round; stroke-linejoin:round; stroke-width:4; stroke-opacity:1; fill:none" points="698.36,690.056 698.36,1521.01 767.895,1521.01 767.895,690.056 698.36,690.056 "/>
<path clip-path="url(#clip232)" d="M767.895 595.986 L767.895 1521.01 L837.43 1521.01 L837.43 595.986 L767.895 595.986 L767.895 595.986  Z" fill="#009af9" fill-rule="evenodd" fill-opacity="1"/>
<polyline clip-path="url(#clip232)" style="stroke:#000000; stroke-linecap:round; stroke-linejoin:round; stroke-width:4; stroke-opacity:1; fill:none" points="767.895,595.986 767.895,1521.01 837.43,1521.01 837.43,595.986 767.895,595.986 "/>
<path clip-path="url(#clip232)" d="M837.43 501.916 L837.43 1521.01 L906.965 1521.01 L906.965 501.916 L837.43 501.916 L837.43 501.916  Z" fill="#009af9" fill-rule="evenodd" fill-opacity="1"/>
<polyline clip-path="url(#clip232)" style="stroke:#000000; stroke-linecap:round; stroke-linejoin:round; stroke-width:4; stroke-opacity:1; fill:none" points="837.43,501.916 837.43,1521.01 906.965,1521.01 906.965,501.916 837.43,501.916 "/>
<path clip-path="url(#clip232)" d="M906.965 345.133 L906.965 1521.01 L976.501 1521.01 L976.501 345.133 L906.965 345.133 L906.965 345.133  Z" fill="#009af9" fill-rule="evenodd" fill-opacity="1"/>
<polyline clip-path="url(#clip232)" style="stroke:#000000; stroke-linecap:round; stroke-linejoin:round; stroke-width:4; stroke-opacity:1; fill:none" points="906.965,345.133 906.965,1521.01 976.501,1521.01 976.501,345.133 906.965,345.133 "/>
<path clip-path="url(#clip232)" d="M976.501 47.2441 L976.501 1521.01 L1046.04 1521.01 L1046.04 47.2441 L976.501 47.2441 L976.501 47.2441  Z" fill="#009af9" fill-rule="evenodd" fill-opacity="1"/>
<polyline clip-path="url(#clip232)" style="stroke:#000000; stroke-linecap:round; stroke-linejoin:round; stroke-width:4; stroke-opacity:1; fill:none" points="976.501,47.2441 976.501,1521.01 1046.04,1521.01 1046.04,47.2441 976.501,47.2441 "/>
<path clip-path="url(#clip232)" d="M1046.04 266.741 L1046.04 1521.01 L1115.57 1521.01 L1115.57 266.741 L1046.04 266.741 L1046.04 266.741  Z" fill="#009af9" fill-rule="evenodd" fill-opacity="1"/>
<polyline clip-path="url(#clip232)" style="stroke:#000000; stroke-linecap:round; stroke-linejoin:round; stroke-width:4; stroke-opacity:1; fill:none" points="1046.04,266.741 1046.04,1521.01 1115.57,1521.01 1115.57,266.741 1046.04,266.741 "/>
<path clip-path="url(#clip232)" d="M1115.57 298.098 L1115.57 1521.01 L1185.11 1521.01 L1185.11 298.098 L1115.57 298.098 L1115.57 298.098  Z" fill="#009af9" fill-rule="evenodd" fill-opacity="1"/>
<polyline clip-path="url(#clip232)" style="stroke:#000000; stroke-linecap:round; stroke-linejoin:round; stroke-width:4; stroke-opacity:1; fill:none" points="1115.57,298.098 1115.57,1521.01 1185.11,1521.01 1185.11,298.098 1115.57,298.098 "/>
<path clip-path="url(#clip232)" d="M1185.11 501.916 L1185.11 1521.01 L1254.64 1521.01 L1254.64 501.916 L1185.11 501.916 L1185.11 501.916  Z" fill="#009af9" fill-rule="evenodd" fill-opacity="1"/>
<polyline clip-path="url(#clip232)" style="stroke:#000000; stroke-linecap:round; stroke-linejoin:round; stroke-width:4; stroke-opacity:1; fill:none" points="1185.11,501.916 1185.11,1521.01 1254.64,1521.01 1254.64,501.916 1185.11,501.916 "/>
<path clip-path="url(#clip232)" d="M1254.64 580.308 L1254.64 1521.01 L1324.18 1521.01 L1324.18 580.308 L1254.64 580.308 L1254.64 580.308  Z" fill="#009af9" fill-rule="evenodd" fill-opacity="1"/>
<polyline clip-path="url(#clip232)" style="stroke:#000000; stroke-linecap:round; stroke-linejoin:round; stroke-width:4; stroke-opacity:1; fill:none" points="1254.64,580.308 1254.64,1521.01 1324.18,1521.01 1324.18,580.308 1254.64,580.308 "/>
<path clip-path="url(#clip232)" d="M1324.18 737.091 L1324.18 1521.01 L1393.71 1521.01 L1393.71 737.091 L1324.18 737.091 L1324.18 737.091  Z" fill="#009af9" fill-rule="evenodd" fill-opacity="1"/>
<polyline clip-path="url(#clip232)" style="stroke:#000000; stroke-linecap:round; stroke-linejoin:round; stroke-width:4; stroke-opacity:1; fill:none" points="1324.18,737.091 1324.18,1521.01 1393.71,1521.01 1393.71,737.091 1324.18,737.091 "/>
<path clip-path="url(#clip232)" d="M1393.71 909.553 L1393.71 1521.01 L1463.25 1521.01 L1463.25 909.553 L1393.71 909.553 L1393.71 909.553  Z" fill="#009af9" fill-rule="evenodd" fill-opacity="1"/>
<polyline clip-path="url(#clip232)" style="stroke:#000000; stroke-linecap:round; stroke-linejoin:round; stroke-width:4; stroke-opacity:1; fill:none" points="1393.71,909.553 1393.71,1521.01 1463.25,1521.01 1463.25,909.553 1393.71,909.553 "/>
<path clip-path="url(#clip232)" d="M1463.25 737.091 L1463.25 1521.01 L1532.78 1521.01 L1532.78 737.091 L1463.25 737.091 L1463.25 737.091  Z" fill="#009af9" fill-rule="evenodd" fill-opacity="1"/>
<polyline clip-path="url(#clip232)" style="stroke:#000000; stroke-linecap:round; stroke-linejoin:round; stroke-width:4; stroke-opacity:1; fill:none" points="1463.25,737.091 1463.25,1521.01 1532.78,1521.01 1532.78,737.091 1463.25,737.091 "/>
<path clip-path="url(#clip232)" d="M1532.78 925.231 L1532.78 1521.01 L1602.32 1521.01 L1602.32 925.231 L1532.78 925.231 L1532.78 925.231  Z" fill="#009af9" fill-rule="evenodd" fill-opacity="1"/>
<polyline clip-path="url(#clip232)" style="stroke:#000000; stroke-linecap:round; stroke-linejoin:round; stroke-width:4; stroke-opacity:1; fill:none" points="1532.78,925.231 1532.78,1521.01 1602.32,1521.01 1602.32,925.231 1532.78,925.231 "/>
<path clip-path="url(#clip232)" d="M1602.32 1207.44 L1602.32 1521.01 L1671.85 1521.01 L1671.85 1207.44 L1602.32 1207.44 L1602.32 1207.44  Z" fill="#009af9" fill-rule="evenodd" fill-opacity="1"/>
<polyline clip-path="url(#clip232)" style="stroke:#000000; stroke-linecap:round; stroke-linejoin:round; stroke-width:4; stroke-opacity:1; fill:none" points="1602.32,1207.44 1602.32,1521.01 1671.85,1521.01 1671.85,1207.44 1602.32,1207.44 "/>
<path clip-path="url(#clip232)" d="M1671.85 1254.48 L1671.85 1521.01 L1741.39 1521.01 L1741.39 1254.48 L1671.85 1254.48 L1671.85 1254.48  Z" fill="#009af9" fill-rule="evenodd" fill-opacity="1"/>
<polyline clip-path="url(#clip232)" style="stroke:#000000; stroke-linecap:round; stroke-linejoin:round; stroke-width:4; stroke-opacity:1; fill:none" points="1671.85,1254.48 1671.85,1521.01 1741.39,1521.01 1741.39,1254.48 1671.85,1254.48 "/>
<path clip-path="url(#clip232)" d="M1741.39 1317.19 L1741.39 1521.01 L1810.92 1521.01 L1810.92 1317.19 L1741.39 1317.19 L1741.39 1317.19  Z" fill="#009af9" fill-rule="evenodd" fill-opacity="1"/>
<polyline clip-path="url(#clip232)" style="stroke:#000000; stroke-linecap:round; stroke-linejoin:round; stroke-width:4; stroke-opacity:1; fill:none" points="1741.39,1317.19 1741.39,1521.01 1810.92,1521.01 1810.92,1317.19 1741.39,1317.19 "/>
<path clip-path="url(#clip232)" d="M1810.92 1395.58 L1810.92 1521.01 L1880.46 1521.01 L1880.46 1395.58 L1810.92 1395.58 L1810.92 1395.58  Z" fill="#009af9" fill-rule="evenodd" fill-opacity="1"/>
<polyline clip-path="url(#clip232)" style="stroke:#000000; stroke-linecap:round; stroke-linejoin:round; stroke-width:4; stroke-opacity:1; fill:none" points="1810.92,1395.58 1810.92,1521.01 1880.46,1521.01 1880.46,1395.58 1810.92,1395.58 "/>
<path clip-path="url(#clip232)" d="M1880.46 1426.94 L1880.46 1521.01 L1949.99 1521.01 L1949.99 1426.94 L1880.46 1426.94 L1880.46 1426.94  Z" fill="#009af9" fill-rule="evenodd" fill-opacity="1"/>
<polyline clip-path="url(#clip232)" style="stroke:#000000; stroke-linecap:round; stroke-linejoin:round; stroke-width:4; stroke-opacity:1; fill:none" points="1880.46,1426.94 1880.46,1521.01 1949.99,1521.01 1949.99,1426.94 1880.46,1426.94 "/>
<path clip-path="url(#clip232)" d="M1949.99 1489.65 L1949.99 1521.01 L2019.53 1521.01 L2019.53 1489.65 L1949.99 1489.65 L1949.99 1489.65  Z" fill="#009af9" fill-rule="evenodd" fill-opacity="1"/>
<polyline clip-path="url(#clip232)" style="stroke:#000000; stroke-linecap:round; stroke-linejoin:round; stroke-width:4; stroke-opacity:1; fill:none" points="1949.99,1489.65 1949.99,1521.01 2019.53,1521.01 2019.53,1489.65 1949.99,1489.65 "/>
<path clip-path="url(#clip232)" d="M2019.53 1473.97 L2019.53 1521.01 L2089.06 1521.01 L2089.06 1473.97 L2019.53 1473.97 L2019.53 1473.97  Z" fill="#009af9" fill-rule="evenodd" fill-opacity="1"/>
<polyline clip-path="url(#clip232)" style="stroke:#000000; stroke-linecap:round; stroke-linejoin:round; stroke-width:4; stroke-opacity:1; fill:none" points="2019.53,1473.97 2019.53,1521.01 2089.06,1521.01 2089.06,1473.97 2019.53,1473.97 "/>
<path clip-path="url(#clip232)" d="M2089.06 1505.33 L2089.06 1521.01 L2158.6 1521.01 L2158.6 1505.33 L2089.06 1505.33 L2089.06 1505.33  Z" fill="#009af9" fill-rule="evenodd" fill-opacity="1"/>
<polyline clip-path="url(#clip232)" style="stroke:#000000; stroke-linecap:round; stroke-linejoin:round; stroke-width:4; stroke-opacity:1; fill:none" points="2089.06,1505.33 2089.06,1521.01 2158.6,1521.01 2158.6,1505.33 2089.06,1505.33 "/>
<path clip-path="url(#clip232)" d="M2158.6 1489.65 L2158.6 1521.01 L2228.13 1521.01 L2228.13 1489.65 L2158.6 1489.65 L2158.6 1489.65  Z" fill="#009af9" fill-rule="evenodd" fill-opacity="1"/>
<polyline clip-path="url(#clip232)" style="stroke:#000000; stroke-linecap:round; stroke-linejoin:round; stroke-width:4; stroke-opacity:1; fill:none" points="2158.6,1489.65 2158.6,1521.01 2228.13,1521.01 2228.13,1489.65 2158.6,1489.65 "/>
<circle clip-path="url(#clip232)" style="fill:#009af9; stroke:none; fill-opacity:0" cx="246.381" cy="1473.97" r="2"/>
<circle clip-path="url(#clip232)" style="fill:#009af9; stroke:none; fill-opacity:0" cx="315.916" cy="1426.94" r="2"/>
<circle clip-path="url(#clip232)" style="fill:#009af9; stroke:none; fill-opacity:0" cx="385.451" cy="1411.26" r="2"/>
<circle clip-path="url(#clip232)" style="fill:#009af9; stroke:none; fill-opacity:0" cx="454.986" cy="1317.19" r="2"/>
<circle clip-path="url(#clip232)" style="fill:#009af9; stroke:none; fill-opacity:0" cx="524.522" cy="1176.08" r="2"/>
<circle clip-path="url(#clip232)" style="fill:#009af9; stroke:none; fill-opacity:0" cx="594.057" cy="1082.01" r="2"/>
<circle clip-path="url(#clip232)" style="fill:#009af9; stroke:none; fill-opacity:0" cx="663.592" cy="846.839" r="2"/>
<circle clip-path="url(#clip232)" style="fill:#009af9; stroke:none; fill-opacity:0" cx="733.127" cy="690.056" r="2"/>
<circle clip-path="url(#clip232)" style="fill:#009af9; stroke:none; fill-opacity:0" cx="802.663" cy="595.986" r="2"/>
<circle clip-path="url(#clip232)" style="fill:#009af9; stroke:none; fill-opacity:0" cx="872.198" cy="501.916" r="2"/>
<circle clip-path="url(#clip232)" style="fill:#009af9; stroke:none; fill-opacity:0" cx="941.733" cy="345.133" r="2"/>
<circle clip-path="url(#clip232)" style="fill:#009af9; stroke:none; fill-opacity:0" cx="1011.27" cy="47.2441" r="2"/>
<circle clip-path="url(#clip232)" style="fill:#009af9; stroke:none; fill-opacity:0" cx="1080.8" cy="266.741" r="2"/>
<circle clip-path="url(#clip232)" style="fill:#009af9; stroke:none; fill-opacity:0" cx="1150.34" cy="298.098" r="2"/>
<circle clip-path="url(#clip232)" style="fill:#009af9; stroke:none; fill-opacity:0" cx="1219.87" cy="501.916" r="2"/>
<circle clip-path="url(#clip232)" style="fill:#009af9; stroke:none; fill-opacity:0" cx="1289.41" cy="580.308" r="2"/>
<circle clip-path="url(#clip232)" style="fill:#009af9; stroke:none; fill-opacity:0" cx="1358.94" cy="737.091" r="2"/>
<circle clip-path="url(#clip232)" style="fill:#009af9; stroke:none; fill-opacity:0" cx="1428.48" cy="909.553" r="2"/>
<circle clip-path="url(#clip232)" style="fill:#009af9; stroke:none; fill-opacity:0" cx="1498.01" cy="737.091" r="2"/>
<circle clip-path="url(#clip232)" style="fill:#009af9; stroke:none; fill-opacity:0" cx="1567.55" cy="925.231" r="2"/>
<circle clip-path="url(#clip232)" style="fill:#009af9; stroke:none; fill-opacity:0" cx="1637.09" cy="1207.44" r="2"/>
<circle clip-path="url(#clip232)" style="fill:#009af9; stroke:none; fill-opacity:0" cx="1706.62" cy="1254.48" r="2"/>
<circle clip-path="url(#clip232)" style="fill:#009af9; stroke:none; fill-opacity:0" cx="1776.16" cy="1317.19" r="2"/>
<circle clip-path="url(#clip232)" style="fill:#009af9; stroke:none; fill-opacity:0" cx="1845.69" cy="1395.58" r="2"/>
<circle clip-path="url(#clip232)" style="fill:#009af9; stroke:none; fill-opacity:0" cx="1915.23" cy="1426.94" r="2"/>
<circle clip-path="url(#clip232)" style="fill:#009af9; stroke:none; fill-opacity:0" cx="1984.76" cy="1489.65" r="2"/>
<circle clip-path="url(#clip232)" style="fill:#009af9; stroke:none; fill-opacity:0" cx="2054.3" cy="1473.97" r="2"/>
<circle clip-path="url(#clip232)" style="fill:#009af9; stroke:none; fill-opacity:0" cx="2123.83" cy="1505.33" r="2"/>
<circle clip-path="url(#clip232)" style="fill:#009af9; stroke:none; fill-opacity:0" cx="2193.37" cy="1489.65" r="2"/>
<path clip-path="url(#clip230)" d="M1594.8 200.05 L2277.23 200.05 L2277.23 96.3696 L1594.8 96.3696  Z" fill="#ffffff" fill-rule="evenodd" fill-opacity="1"/>
<polyline clip-path="url(#clip230)" style="stroke:#000000; stroke-linecap:round; stroke-linejoin:round; stroke-width:4; stroke-opacity:1; fill:none" points="1594.8,200.05 2277.23,200.05 2277.23,96.3696 1594.8,96.3696 1594.8,200.05 "/>
<path clip-path="url(#clip230)" d="M1619.98 168.946 L1771.03 168.946 L1771.03 127.474 L1619.98 127.474 L1619.98 168.946  Z" fill="#009af9" fill-rule="evenodd" fill-opacity="1"/>
<polyline clip-path="url(#clip230)" style="stroke:#000000; stroke-linecap:round; stroke-linejoin:round; stroke-width:4; stroke-opacity:1; fill:none" points="1619.98,168.946 1771.03,168.946 1771.03,127.474 1619.98,127.474 1619.98,168.946 "/>
<path clip-path="url(#clip230)" d="M1800.48 161.601 L1800.48 175.351 L1796.2 175.351 L1796.2 139.564 L1800.48 139.564 L1800.48 143.499 Q1801.83 141.184 1803.86 140.073 Q1805.92 138.939 1808.77 138.939 Q1813.49 138.939 1816.43 142.689 Q1819.4 146.439 1819.4 152.55 Q1819.4 158.661 1816.43 162.411 Q1813.49 166.161 1808.77 166.161 Q1805.92 166.161 1803.86 165.05 Q1801.83 163.915 1800.48 161.601 M1814.97 152.55 Q1814.97 147.851 1813.03 145.189 Q1811.11 142.504 1807.73 142.504 Q1804.35 142.504 1802.4 145.189 Q1800.48 147.851 1800.48 152.55 Q1800.48 157.249 1802.4 159.934 Q1804.35 162.596 1807.73 162.596 Q1811.11 162.596 1813.03 159.934 Q1814.97 157.249 1814.97 152.55 Z" fill="#000000" fill-rule="nonzero" fill-opacity="1" /><path clip-path="url(#clip230)" d="M1836.5 142.55 Q1833.08 142.55 1831.09 145.235 Q1829.09 147.897 1829.09 152.55 Q1829.09 157.203 1831.06 159.888 Q1833.05 162.55 1836.5 162.55 Q1839.9 162.55 1841.9 159.865 Q1843.89 157.179 1843.89 152.55 Q1843.89 147.943 1841.9 145.258 Q1839.9 142.55 1836.5 142.55 M1836.5 138.939 Q1842.06 138.939 1845.23 142.55 Q1848.4 146.161 1848.4 152.55 Q1848.4 158.916 1845.23 162.55 Q1842.06 166.161 1836.5 166.161 Q1830.92 166.161 1827.75 162.55 Q1824.6 158.916 1824.6 152.55 Q1824.6 146.161 1827.75 142.55 Q1830.92 138.939 1836.5 138.939 Z" fill="#000000" fill-rule="nonzero" fill-opacity="1" /><path clip-path="url(#clip230)" d="M1871.99 140.328 L1871.99 144.355 Q1870.18 143.429 1868.24 142.967 Q1866.29 142.504 1864.21 142.504 Q1861.04 142.504 1859.44 143.476 Q1857.87 144.448 1857.87 146.392 Q1857.87 147.874 1859 148.73 Q1860.14 149.564 1863.56 150.328 L1865.02 150.652 Q1869.56 151.624 1871.46 153.406 Q1873.38 155.166 1873.38 158.337 Q1873.38 161.948 1870.51 164.054 Q1867.66 166.161 1862.66 166.161 Q1860.58 166.161 1858.31 165.744 Q1856.06 165.351 1853.56 164.54 L1853.56 160.142 Q1855.92 161.369 1858.21 161.994 Q1860.51 162.596 1862.75 162.596 Q1865.76 162.596 1867.38 161.578 Q1869 160.536 1869 158.661 Q1869 156.925 1867.82 155.999 Q1866.66 155.073 1862.71 154.216 L1861.22 153.869 Q1857.27 153.036 1855.51 151.323 Q1853.75 149.587 1853.75 146.578 Q1853.75 142.92 1856.34 140.93 Q1858.93 138.939 1863.7 138.939 Q1866.06 138.939 1868.15 139.286 Q1870.23 139.633 1871.99 140.328 Z" fill="#000000" fill-rule="nonzero" fill-opacity="1" /><path clip-path="url(#clip230)" d="M1884.37 132.203 L1884.37 139.564 L1893.15 139.564 L1893.15 142.874 L1884.37 142.874 L1884.37 156.948 Q1884.37 160.119 1885.23 161.022 Q1886.11 161.925 1888.77 161.925 L1893.15 161.925 L1893.15 165.49 L1888.77 165.49 Q1883.84 165.49 1881.96 163.661 Q1880.09 161.809 1880.09 156.948 L1880.09 142.874 L1876.96 142.874 L1876.96 139.564 L1880.09 139.564 L1880.09 132.203 L1884.37 132.203 Z" fill="#000000" fill-rule="nonzero" fill-opacity="1" /><path clip-path="url(#clip230)" d="M1920.92 151.462 L1920.92 153.545 L1901.34 153.545 Q1901.62 157.943 1903.98 160.258 Q1906.36 162.55 1910.6 162.55 Q1913.05 162.55 1915.34 161.948 Q1917.66 161.346 1919.93 160.142 L1919.93 164.17 Q1917.64 165.142 1915.23 165.652 Q1912.82 166.161 1910.34 166.161 Q1904.14 166.161 1900.51 162.55 Q1896.9 158.939 1896.9 152.781 Q1896.9 146.416 1900.32 142.689 Q1903.77 138.939 1909.6 138.939 Q1914.83 138.939 1917.87 142.318 Q1920.92 145.675 1920.92 151.462 M1916.66 150.212 Q1916.62 146.717 1914.7 144.633 Q1912.8 142.55 1909.65 142.55 Q1906.08 142.55 1903.93 144.564 Q1901.8 146.578 1901.48 150.235 L1916.66 150.212 Z" fill="#000000" fill-rule="nonzero" fill-opacity="1" /><path clip-path="url(#clip230)" d="M1942.94 143.545 Q1942.22 143.129 1941.36 142.943 Q1940.53 142.735 1939.51 142.735 Q1935.9 142.735 1933.96 145.096 Q1932.03 147.434 1932.03 151.832 L1932.03 165.49 L1927.75 165.49 L1927.75 139.564 L1932.03 139.564 L1932.03 143.592 Q1933.38 141.23 1935.53 140.096 Q1937.68 138.939 1940.76 138.939 Q1941.2 138.939 1941.73 139.008 Q1942.27 139.055 1942.91 139.17 L1942.94 143.545 Z" fill="#000000" fill-rule="nonzero" fill-opacity="1" /><path clip-path="url(#clip230)" d="M1947.4 139.564 L1951.66 139.564 L1951.66 165.49 L1947.4 165.49 L1947.4 139.564 M1947.4 129.471 L1951.66 129.471 L1951.66 134.865 L1947.4 134.865 L1947.4 129.471 Z" fill="#000000" fill-rule="nonzero" fill-opacity="1" /><path clip-path="url(#clip230)" d="M1970.62 142.55 Q1967.2 142.55 1965.2 145.235 Q1963.21 147.897 1963.21 152.55 Q1963.21 157.203 1965.18 159.888 Q1967.17 162.55 1970.62 162.55 Q1974.02 162.55 1976.02 159.865 Q1978.01 157.179 1978.01 152.55 Q1978.01 147.943 1976.02 145.258 Q1974.02 142.55 1970.62 142.55 M1970.62 138.939 Q1976.18 138.939 1979.35 142.55 Q1982.52 146.161 1982.52 152.55 Q1982.52 158.916 1979.35 162.55 Q1976.18 166.161 1970.62 166.161 Q1965.04 166.161 1961.87 162.55 Q1958.72 158.916 1958.72 152.55 Q1958.72 146.161 1961.87 142.55 Q1965.04 138.939 1970.62 138.939 Z" fill="#000000" fill-rule="nonzero" fill-opacity="1" /><path clip-path="url(#clip230)" d="M2004.6 143.545 Q2003.89 143.129 2003.03 142.943 Q2002.2 142.735 2001.18 142.735 Q1997.57 142.735 1995.62 145.096 Q1993.7 147.434 1993.7 151.832 L1993.7 165.49 L1989.42 165.49 L1989.42 139.564 L1993.7 139.564 L1993.7 143.592 Q1995.04 141.23 1997.2 140.096 Q1999.35 138.939 2002.43 138.939 Q2002.87 138.939 2003.4 139.008 Q2003.93 139.055 2004.58 139.17 L2004.6 143.545 Z" fill="#000000" fill-rule="nonzero" fill-opacity="1" /><path clip-path="url(#clip230)" d="M2026.48 149.054 L2011.73 149.054 Q2012.08 155.976 2013.68 158.916 Q2015.67 162.527 2019.12 162.527 Q2022.59 162.527 2024.51 158.892 Q2026.2 155.698 2026.48 149.054 M2026.41 145.119 Q2025.76 138.545 2024.51 136.23 Q2022.52 132.573 2019.12 132.573 Q2015.58 132.573 2013.7 136.184 Q2012.22 139.101 2011.78 145.119 L2026.41 145.119 M2019.12 129.101 Q2024.67 129.101 2027.84 134.008 Q2031.01 138.892 2031.01 147.55 Q2031.01 156.184 2027.84 161.091 Q2024.67 166.022 2019.12 166.022 Q2013.54 166.022 2010.39 161.091 Q2007.22 156.184 2007.22 147.55 Q2007.22 138.892 2010.39 134.008 Q2013.54 129.101 2019.12 129.101 Z" fill="#000000" fill-rule="nonzero" fill-opacity="1" /><path clip-path="url(#clip230)" d="M2057.77 173.36 L2057.77 176.67 L2033.14 176.67 L2033.14 173.36 L2057.77 173.36 Z" fill="#000000" fill-rule="nonzero" fill-opacity="1" /><path clip-path="url(#clip230)" d="M2078.31 140.328 L2078.31 144.355 Q2076.5 143.429 2074.56 142.967 Q2072.61 142.504 2070.53 142.504 Q2067.36 142.504 2065.76 143.476 Q2064.19 144.448 2064.19 146.392 Q2064.19 147.874 2065.32 148.73 Q2066.45 149.564 2069.88 150.328 L2071.34 150.652 Q2075.88 151.624 2077.77 153.406 Q2079.7 155.166 2079.7 158.337 Q2079.7 161.948 2076.82 164.054 Q2073.98 166.161 2068.98 166.161 Q2066.89 166.161 2064.63 165.744 Q2062.38 165.351 2059.88 164.54 L2059.88 160.142 Q2062.24 161.369 2064.53 161.994 Q2066.82 162.596 2069.07 162.596 Q2072.08 162.596 2073.7 161.578 Q2075.32 160.536 2075.32 158.661 Q2075.32 156.925 2074.14 155.999 Q2072.98 155.073 2069.02 154.216 L2067.54 153.869 Q2063.58 153.036 2061.82 151.323 Q2060.07 149.587 2060.07 146.578 Q2060.07 142.92 2062.66 140.93 Q2065.25 138.939 2070.02 138.939 Q2072.38 138.939 2074.46 139.286 Q2076.55 139.633 2078.31 140.328 Z" fill="#000000" fill-rule="nonzero" fill-opacity="1" /><path clip-path="url(#clip230)" d="M2098.26 152.457 Q2093.1 152.457 2091.11 153.638 Q2089.12 154.818 2089.12 157.666 Q2089.12 159.934 2090.6 161.277 Q2092.1 162.596 2094.67 162.596 Q2098.21 162.596 2100.34 160.096 Q2102.5 157.573 2102.5 153.406 L2102.5 152.457 L2098.26 152.457 M2106.76 150.698 L2106.76 165.49 L2102.5 165.49 L2102.5 161.554 Q2101.04 163.915 2098.86 165.05 Q2096.69 166.161 2093.54 166.161 Q2089.56 166.161 2087.2 163.939 Q2084.86 161.693 2084.86 157.943 Q2084.86 153.568 2087.77 151.346 Q2090.71 149.124 2096.52 149.124 L2102.5 149.124 L2102.5 148.707 Q2102.5 145.767 2100.55 144.17 Q2098.63 142.55 2095.13 142.55 Q2092.91 142.55 2090.81 143.082 Q2088.7 143.615 2086.76 144.679 L2086.76 140.744 Q2089.09 139.842 2091.29 139.402 Q2093.49 138.939 2095.57 138.939 Q2101.2 138.939 2103.98 141.855 Q2106.76 144.772 2106.76 150.698 Z" fill="#000000" fill-rule="nonzero" fill-opacity="1" /><path clip-path="url(#clip230)" d="M2135.71 144.541 Q2137.31 141.67 2139.53 140.305 Q2141.75 138.939 2144.76 138.939 Q2148.82 138.939 2151.01 141.786 Q2153.21 144.61 2153.21 149.841 L2153.21 165.49 L2148.93 165.49 L2148.93 149.98 Q2148.93 146.254 2147.61 144.448 Q2146.29 142.642 2143.58 142.642 Q2140.27 142.642 2138.35 144.842 Q2136.43 147.041 2136.43 150.837 L2136.43 165.49 L2132.15 165.49 L2132.15 149.98 Q2132.15 146.23 2130.83 144.448 Q2129.51 142.642 2126.76 142.642 Q2123.49 142.642 2121.57 144.865 Q2119.65 147.064 2119.65 150.837 L2119.65 165.49 L2115.37 165.49 L2115.37 139.564 L2119.65 139.564 L2119.65 143.592 Q2121.11 141.207 2123.14 140.073 Q2125.18 138.939 2127.98 138.939 Q2130.81 138.939 2132.77 140.374 Q2134.76 141.809 2135.71 144.541 Z" fill="#000000" fill-rule="nonzero" fill-opacity="1" /><path clip-path="url(#clip230)" d="M2165.83 161.601 L2165.83 175.351 L2161.55 175.351 L2161.55 139.564 L2165.83 139.564 L2165.83 143.499 Q2167.17 141.184 2169.21 140.073 Q2171.27 138.939 2174.12 138.939 Q2178.84 138.939 2181.78 142.689 Q2184.74 146.439 2184.74 152.55 Q2184.74 158.661 2181.78 162.411 Q2178.84 166.161 2174.12 166.161 Q2171.27 166.161 2169.21 165.05 Q2167.17 163.915 2165.83 161.601 M2180.32 152.55 Q2180.32 147.851 2178.38 145.189 Q2176.45 142.504 2173.07 142.504 Q2169.69 142.504 2167.75 145.189 Q2165.83 147.851 2165.83 152.55 Q2165.83 157.249 2167.75 159.934 Q2169.69 162.596 2173.07 162.596 Q2176.45 162.596 2178.38 159.934 Q2180.32 157.249 2180.32 152.55 Z" fill="#000000" fill-rule="nonzero" fill-opacity="1" /><path clip-path="url(#clip230)" d="M2191.8 129.471 L2196.06 129.471 L2196.06 165.49 L2191.8 165.49 L2191.8 129.471 Z" fill="#000000" fill-rule="nonzero" fill-opacity="1" /><path clip-path="url(#clip230)" d="M2227.15 151.462 L2227.15 153.545 L2207.56 153.545 Q2207.84 157.943 2210.2 160.258 Q2212.59 162.55 2216.82 162.55 Q2219.28 162.55 2221.57 161.948 Q2223.88 161.346 2226.15 160.142 L2226.15 164.17 Q2223.86 165.142 2221.45 165.652 Q2219.05 166.161 2216.57 166.161 Q2210.37 166.161 2206.73 162.55 Q2203.12 158.939 2203.12 152.781 Q2203.12 146.416 2206.55 142.689 Q2210 138.939 2215.83 138.939 Q2221.06 138.939 2224.09 142.318 Q2227.15 145.675 2227.15 151.462 M2222.89 150.212 Q2222.84 146.717 2220.92 144.633 Q2219.02 142.55 2215.87 142.55 Q2212.31 142.55 2210.16 144.564 Q2208.03 146.578 2207.7 150.235 L2222.89 150.212 Z" fill="#000000" fill-rule="nonzero" fill-opacity="1" /><path clip-path="url(#clip230)" d="M2250.67 140.328 L2250.67 144.355 Q2248.86 143.429 2246.92 142.967 Q2244.97 142.504 2242.89 142.504 Q2239.72 142.504 2238.12 143.476 Q2236.55 144.448 2236.55 146.392 Q2236.55 147.874 2237.68 148.73 Q2238.81 149.564 2242.24 150.328 L2243.7 150.652 Q2248.24 151.624 2250.13 153.406 Q2252.06 155.166 2252.06 158.337 Q2252.06 161.948 2249.18 164.054 Q2246.34 166.161 2241.34 166.161 Q2239.25 166.161 2236.99 165.744 Q2234.74 165.351 2232.24 164.54 L2232.24 160.142 Q2234.6 161.369 2236.89 161.994 Q2239.18 162.596 2241.43 162.596 Q2244.44 162.596 2246.06 161.578 Q2247.68 160.536 2247.68 158.661 Q2247.68 156.925 2246.5 155.999 Q2245.34 155.073 2241.38 154.216 L2239.9 153.869 Q2235.94 153.036 2234.19 151.323 Q2232.43 149.587 2232.43 146.578 Q2232.43 142.92 2235.02 140.93 Q2237.61 138.939 2242.38 138.939 Q2244.74 138.939 2246.82 139.286 Q2248.91 139.633 2250.67 140.328 Z" fill="#000000" fill-rule="nonzero" fill-opacity="1" /></svg>
