<?xml version="1.0" encoding="utf-8"?>
<svg xmlns="http://www.w3.org/2000/svg" xmlns:xlink="http://www.w3.org/1999/xlink" width="600" height="400" viewBox="0 0 2400 1600">
<defs>
  <clipPath id="clip200">
    <rect x="0" y="0" width="2400" height="1600"/>
  </clipPath>
</defs>
<path clip-path="url(#clip200)" d="M0 1600 L2400 1600 L2400 0 L0 0  Z" fill="#ffffff" fill-rule="evenodd" fill-opacity="1"/>
<defs>
  <clipPath id="clip201">
    <rect x="480" y="0" width="1681" height="1600"/>
  </clipPath>
</defs>
<path clip-path="url(#clip200)" d="M86.9921 1521.01 L2352.76 1521.01 L2352.76 47.2441 L86.9921 47.2441  Z" fill="#ffffff" fill-rule="evenodd" fill-opacity="1"/>
<defs>
  <clipPath id="clip202">
    <rect x="86" y="47" width="2267" height="1475"/>
  </clipPath>
</defs>
<polyline clip-path="url(#clip202)" style="stroke:#000000; stroke-linecap:round; stroke-linejoin:round; stroke-width:2; stroke-opacity:0.1; fill:none" points="420.219,1521.01 420.219,47.2441 "/>
<polyline clip-path="url(#clip202)" style="stroke:#000000; stroke-linecap:round; stroke-linejoin:round; stroke-width:2; stroke-opacity:0.1; fill:none" points="767.895,1521.01 767.895,47.2441 "/>
<polyline clip-path="url(#clip202)" style="stroke:#000000; stroke-linecap:round; stroke-linejoin:round; stroke-width:2; stroke-opacity:0.1; fill:none" points="1115.57,1521.01 1115.57,47.2441 "/>
<polyline clip-path="url(#clip202)" style="stroke:#000000; stroke-linecap:round; stroke-linejoin:round; stroke-width:2; stroke-opacity:0.1; fill:none" points="1463.25,1521.01 1463.25,47.2441 "/>
<polyline clip-path="url(#clip202)" style="stroke:#000000; stroke-linecap:round; stroke-linejoin:round; stroke-width:2; stroke-opacity:0.1; fill:none" points="1810.92,1521.01 1810.92,47.2441 "/>
<polyline clip-path="url(#clip202)" style="stroke:#000000; stroke-linecap:round; stroke-linejoin:round; stroke-width:2; stroke-opacity:0.1; fill:none" points="2158.6,1521.01 2158.6,47.2441 "/>
<polyline clip-path="url(#clip200)" style="stroke:#000000; stroke-linecap:round; stroke-linejoin:round; stroke-width:4; stroke-opacity:1; fill:none" points="86.9921,1521.01 2352.76,1521.01 "/>
<polyline clip-path="url(#clip200)" style="stroke:#000000; stroke-linecap:round; stroke-linejoin:round; stroke-width:4; stroke-opacity:1; fill:none" points="420.219,1521.01 420.219,1502.11 "/>
<polyline clip-path="url(#clip200)" style="stroke:#000000; stroke-linecap:round; stroke-linejoin:round; stroke-width:4; stroke-opacity:1; fill:none" points="767.895,1521.01 767.895,1502.11 "/>
<polyline clip-path="url(#clip200)" style="stroke:#000000; stroke-linecap:round; stroke-linejoin:round; stroke-width:4; stroke-opacity:1; fill:none" points="1115.57,1521.01 1115.57,1502.11 "/>
<polyline clip-path="url(#clip200)" style="stroke:#000000; stroke-linecap:round; stroke-linejoin:round; stroke-width:4; stroke-opacity:1; fill:none" points="1463.25,1521.01 1463.25,1502.11 "/>
<polyline clip-path="url(#clip200)" style="stroke:#000000; stroke-linecap:round; stroke-linejoin:round; stroke-width:4; stroke-opacity:1; fill:none" points="1810.92,1521.01 1810.92,1502.11 "/>
<polyline clip-path="url(#clip200)" style="stroke:#000000; stroke-linecap:round; stroke-linejoin:round; stroke-width:4; stroke-opacity:1; fill:none" points="2158.6,1521.01 2158.6,1502.11 "/>
<path clip-path="url(#clip200)" d="M408.714 1552.92 L396.909 1571.37 L408.714 1571.37 L408.714 1552.92 M407.487 1548.85 L413.367 1548.85 L413.367 1571.37 L418.298 1571.37 L418.298 1575.26 L413.367 1575.26 L413.367 1583.41 L408.714 1583.41 L408.714 1575.26 L393.113 1575.26 L393.113 1570.75 L407.487 1548.85 Z" fill="#000000" fill-rule="nonzero" fill-opacity="1" /><path clip-path="url(#clip200)" d="M440.196 1564.77 Q443.552 1565.49 445.427 1567.76 Q447.325 1570.03 447.325 1573.36 Q447.325 1578.48 443.807 1581.28 Q440.288 1584.08 433.807 1584.08 Q431.631 1584.08 429.316 1583.64 Q427.024 1583.22 424.571 1582.37 L424.571 1577.85 Q426.515 1578.99 428.83 1579.57 Q431.145 1580.14 433.668 1580.14 Q438.066 1580.14 440.358 1578.41 Q442.672 1576.67 442.672 1573.36 Q442.672 1570.31 440.52 1568.59 Q438.39 1566.86 434.571 1566.86 L430.543 1566.86 L430.543 1563.01 L434.756 1563.01 Q438.205 1563.01 440.034 1561.65 Q441.862 1560.26 441.862 1557.67 Q441.862 1555.01 439.964 1553.59 Q438.089 1552.16 434.571 1552.16 Q432.649 1552.16 430.45 1552.57 Q428.251 1552.99 425.612 1553.87 L425.612 1549.7 Q428.274 1548.96 430.589 1548.59 Q432.927 1548.22 434.987 1548.22 Q440.311 1548.22 443.413 1550.65 Q446.515 1553.06 446.515 1557.18 Q446.515 1560.05 444.872 1562.04 Q443.228 1564.01 440.196 1564.77 Z" fill="#000000" fill-rule="nonzero" fill-opacity="1" /><path clip-path="url(#clip200)" d="M755.823 1552.92 L744.018 1571.37 L755.823 1571.37 L755.823 1552.92 M754.596 1548.85 L760.476 1548.85 L760.476 1571.37 L765.407 1571.37 L765.407 1575.26 L760.476 1575.26 L760.476 1583.41 L755.823 1583.41 L755.823 1575.26 L740.222 1575.26 L740.222 1570.75 L754.596 1548.85 Z" fill="#000000" fill-rule="nonzero" fill-opacity="1" /><path clip-path="url(#clip200)" d="M785.985 1552.92 L774.18 1571.37 L785.985 1571.37 L785.985 1552.92 M784.758 1548.85 L790.638 1548.85 L790.638 1571.37 L795.568 1571.37 L795.568 1575.26 L790.638 1575.26 L790.638 1583.41 L785.985 1583.41 L785.985 1575.26 L770.383 1575.26 L770.383 1570.75 L784.758 1548.85 Z" fill="#000000" fill-rule="nonzero" fill-opacity="1" /><path clip-path="url(#clip200)" d="M1104.24 1552.92 L1092.43 1571.37 L1104.24 1571.37 L1104.24 1552.92 M1103.01 1548.85 L1108.89 1548.85 L1108.89 1571.37 L1113.82 1571.37 L1113.82 1575.26 L1108.89 1575.26 L1108.89 1583.41 L1104.24 1583.41 L1104.24 1575.26 L1088.64 1575.26 L1088.64 1570.75 L1103.01 1548.85 Z" fill="#000000" fill-rule="nonzero" fill-opacity="1" /><path clip-path="url(#clip200)" d="M1121.6 1548.85 L1139.96 1548.85 L1139.96 1552.78 L1125.88 1552.78 L1125.88 1561.26 Q1126.9 1560.91 1127.92 1560.75 Q1128.94 1560.56 1129.96 1560.56 Q1135.74 1560.56 1139.12 1563.73 Q1142.5 1566.9 1142.5 1572.32 Q1142.5 1577.9 1139.03 1581 Q1135.56 1584.08 1129.24 1584.08 Q1127.06 1584.08 1124.8 1583.71 Q1122.55 1583.34 1120.14 1582.6 L1120.14 1577.9 Q1122.23 1579.03 1124.45 1579.59 Q1126.67 1580.14 1129.15 1580.14 Q1133.15 1580.14 1135.49 1578.04 Q1137.83 1575.93 1137.83 1572.32 Q1137.83 1568.71 1135.49 1566.6 Q1133.15 1564.5 1129.15 1564.5 Q1127.27 1564.5 1125.4 1564.91 Q1123.55 1565.33 1121.6 1566.21 L1121.6 1548.85 Z" fill="#000000" fill-rule="nonzero" fill-opacity="1" /><path clip-path="url(#clip200)" d="M1451.34 1552.92 L1439.53 1571.37 L1451.34 1571.37 L1451.34 1552.92 M1450.11 1548.85 L1455.99 1548.85 L1455.99 1571.37 L1460.92 1571.37 L1460.92 1575.26 L1455.99 1575.26 L1455.99 1583.41 L1451.34 1583.41 L1451.34 1575.26 L1435.74 1575.26 L1435.74 1570.75 L1450.11 1548.85 Z" fill="#000000" fill-rule="nonzero" fill-opacity="1" /><path clip-path="url(#clip200)" d="M1479.23 1564.26 Q1476.08 1564.26 1474.23 1566.42 Q1472.4 1568.57 1472.4 1572.32 Q1472.4 1576.05 1474.23 1578.22 Q1476.08 1580.38 1479.23 1580.38 Q1482.38 1580.38 1484.21 1578.22 Q1486.06 1576.05 1486.06 1572.32 Q1486.06 1568.57 1484.21 1566.42 Q1482.38 1564.26 1479.23 1564.26 M1488.51 1549.61 L1488.51 1553.87 Q1486.75 1553.04 1484.95 1552.6 Q1483.17 1552.16 1481.41 1552.16 Q1476.78 1552.16 1474.32 1555.28 Q1471.89 1558.41 1471.55 1564.73 Q1472.91 1562.71 1474.97 1561.65 Q1477.03 1560.56 1479.51 1560.56 Q1484.72 1560.56 1487.73 1563.73 Q1490.76 1566.88 1490.76 1572.32 Q1490.76 1577.64 1487.61 1580.86 Q1484.46 1584.08 1479.23 1584.08 Q1473.24 1584.08 1470.06 1579.5 Q1466.89 1574.89 1466.89 1566.16 Q1466.89 1557.97 1470.78 1553.11 Q1474.67 1548.22 1481.22 1548.22 Q1482.98 1548.22 1484.76 1548.57 Q1486.57 1548.92 1488.51 1549.61 Z" fill="#000000" fill-rule="nonzero" fill-opacity="1" /><path clip-path="url(#clip200)" d="M1799.55 1552.92 L1787.74 1571.37 L1799.55 1571.37 L1799.55 1552.92 M1798.32 1548.85 L1804.2 1548.85 L1804.2 1571.37 L1809.13 1571.37 L1809.13 1575.26 L1804.2 1575.26 L1804.2 1583.41 L1799.55 1583.41 L1799.55 1575.26 L1783.94 1575.26 L1783.94 1570.75 L1798.32 1548.85 Z" fill="#000000" fill-rule="nonzero" fill-opacity="1" /><path clip-path="url(#clip200)" d="M1815.68 1548.85 L1837.9 1548.85 L1837.9 1550.84 L1825.36 1583.41 L1820.47 1583.41 L1832.28 1552.78 L1815.68 1552.78 L1815.68 1548.85 Z" fill="#000000" fill-rule="nonzero" fill-opacity="1" /><path clip-path="url(#clip200)" d="M2146.82 1552.92 L2135.01 1571.37 L2146.82 1571.37 L2146.82 1552.92 M2145.59 1548.85 L2151.47 1548.85 L2151.47 1571.37 L2156.4 1571.37 L2156.4 1575.26 L2151.47 1575.26 L2151.47 1583.41 L2146.82 1583.41 L2146.82 1575.26 L2131.22 1575.26 L2131.22 1570.75 L2145.59 1548.85 Z" fill="#000000" fill-rule="nonzero" fill-opacity="1" /><path clip-path="url(#clip200)" d="M2174.13 1567 Q2170.8 1567 2168.88 1568.78 Q2166.98 1570.56 2166.98 1573.69 Q2166.98 1576.81 2168.88 1578.59 Q2170.8 1580.38 2174.13 1580.38 Q2177.47 1580.38 2179.39 1578.59 Q2181.31 1576.79 2181.31 1573.69 Q2181.31 1570.56 2179.39 1568.78 Q2177.49 1567 2174.13 1567 M2169.46 1565.01 Q2166.45 1564.26 2164.76 1562.2 Q2163.09 1560.14 2163.09 1557.18 Q2163.09 1553.04 2166.03 1550.63 Q2168.99 1548.22 2174.13 1548.22 Q2179.29 1548.22 2182.23 1550.63 Q2185.17 1553.04 2185.17 1557.18 Q2185.17 1560.14 2183.48 1562.2 Q2181.82 1564.26 2178.83 1565.01 Q2182.21 1565.79 2184.09 1568.08 Q2185.98 1570.38 2185.98 1573.69 Q2185.98 1578.71 2182.91 1581.39 Q2179.85 1584.08 2174.13 1584.08 Q2168.41 1584.08 2165.34 1581.39 Q2162.28 1578.71 2162.28 1573.69 Q2162.28 1570.38 2164.18 1568.08 Q2166.08 1565.79 2169.46 1565.01 M2167.74 1557.62 Q2167.74 1560.31 2169.41 1561.81 Q2171.1 1563.32 2174.13 1563.32 Q2177.14 1563.32 2178.83 1561.81 Q2180.54 1560.31 2180.54 1557.62 Q2180.54 1554.94 2178.83 1553.43 Q2177.14 1551.93 2174.13 1551.93 Q2171.1 1551.93 2169.41 1553.43 Q2167.74 1554.94 2167.74 1557.62 Z" fill="#000000" fill-rule="nonzero" fill-opacity="1" /><polyline clip-path="url(#clip202)" style="stroke:#000000; stroke-linecap:round; stroke-linejoin:round; stroke-width:2; stroke-opacity:0.1; fill:none" points="86.9921,1521.01 2352.76,1521.01 "/>
<polyline clip-path="url(#clip202)" style="stroke:#000000; stroke-linecap:round; stroke-linejoin:round; stroke-width:2; stroke-opacity:0.1; fill:none" points="86.9921,1200.62 2352.76,1200.62 "/>
<polyline clip-path="url(#clip202)" style="stroke:#000000; stroke-linecap:round; stroke-linejoin:round; stroke-width:2; stroke-opacity:0.1; fill:none" points="86.9921,880.241 2352.76,880.241 "/>
<polyline clip-path="url(#clip202)" style="stroke:#000000; stroke-linecap:round; stroke-linejoin:round; stroke-width:2; stroke-opacity:0.1; fill:none" points="86.9921,559.858 2352.76,559.858 "/>
<polyline clip-path="url(#clip202)" style="stroke:#000000; stroke-linecap:round; stroke-linejoin:round; stroke-width:2; stroke-opacity:0.1; fill:none" points="86.9921,239.474 2352.76,239.474 "/>
<polyline clip-path="url(#clip200)" style="stroke:#000000; stroke-linecap:round; stroke-linejoin:round; stroke-width:4; stroke-opacity:1; fill:none" points="86.9921,1521.01 86.9921,47.2441 "/>
<polyline clip-path="url(#clip200)" style="stroke:#000000; stroke-linecap:round; stroke-linejoin:round; stroke-width:4; stroke-opacity:1; fill:none" points="86.9921,1521.01 105.89,1521.01 "/>
<polyline clip-path="url(#clip200)" style="stroke:#000000; stroke-linecap:round; stroke-linejoin:round; stroke-width:4; stroke-opacity:1; fill:none" points="86.9921,1200.62 105.89,1200.62 "/>
<polyline clip-path="url(#clip200)" style="stroke:#000000; stroke-linecap:round; stroke-linejoin:round; stroke-width:4; stroke-opacity:1; fill:none" points="86.9921,880.241 105.89,880.241 "/>
<polyline clip-path="url(#clip200)" style="stroke:#000000; stroke-linecap:round; stroke-linejoin:round; stroke-width:4; stroke-opacity:1; fill:none" points="86.9921,559.858 105.89,559.858 "/>
<polyline clip-path="url(#clip200)" style="stroke:#000000; stroke-linecap:round; stroke-linejoin:round; stroke-width:4; stroke-opacity:1; fill:none" points="86.9921,239.474 105.89,239.474 "/>
<path clip-path="url(#clip200)" d="M10.8708 1521.01 Q10.8708 1524.62 14.4356 1526.45 Q17.9773 1528.25 25.1068 1528.25 Q32.2133 1528.25 35.7781 1526.45 Q39.3197 1524.62 39.3197 1521.01 Q39.3197 1517.37 35.7781 1515.57 Q32.2133 1513.74 25.1068 1513.74 Q17.9773 1513.74 14.4356 1515.57 Q10.8708 1517.37 10.8708 1521.01 M7.16713 1521.01 Q7.16713 1515.2 11.7736 1512.14 Q16.3569 1509.06 25.1068 1509.06 Q33.8337 1509.06 38.4401 1512.14 Q43.0234 1515.2 43.0234 1521.01 Q43.0234 1526.82 38.4401 1529.9 Q33.8337 1532.95 25.1068 1532.95 Q16.3569 1532.95 11.7736 1529.9 Q7.16713 1526.82 7.16713 1521.01 Z" fill="#000000" fill-rule="nonzero" fill-opacity="1" /><path clip-path="url(#clip200)" d="M38.417 1221.85 L38.417 1205.53 L42.3521 1205.53 L42.3521 1227.48 L38.417 1227.48 Q35.6623 1224.81 31.0327 1220.23 Q26.38 1215.62 25.0374 1214.44 Q22.5143 1212.2 20.7782 1211.32 Q19.0189 1210.42 17.3291 1210.42 Q14.5745 1210.42 12.8384 1212.36 Q11.1023 1214.28 11.1023 1217.38 Q11.1023 1219.58 11.8662 1222.04 Q12.6301 1224.47 14.181 1227.24 L9.45878 1227.24 Q8.32453 1224.42 7.74583 1221.97 Q7.16713 1219.51 7.16713 1217.48 Q7.16713 1212.11 9.8523 1208.91 Q12.5375 1205.72 17.0282 1205.72 Q19.1578 1205.72 21.0791 1206.53 Q22.9772 1207.31 25.5698 1209.42 Q26.2411 1210 29.4587 1213.1 Q32.6531 1216.2 38.417 1221.85 Z" fill="#000000" fill-rule="nonzero" fill-opacity="1" /><path clip-path="url(#clip200)" d="M10.8708 1185.72 Q10.8708 1189.33 14.4356 1191.16 Q17.9773 1192.96 25.1068 1192.96 Q32.2133 1192.96 35.7781 1191.16 Q39.3197 1189.33 39.3197 1185.72 Q39.3197 1182.08 35.7781 1180.28 Q32.2133 1178.45 25.1068 1178.45 Q17.9773 1178.45 14.4356 1180.28 Q10.8708 1182.08 10.8708 1185.72 M7.16713 1185.72 Q7.16713 1179.91 11.7736 1176.85 Q16.3569 1173.77 25.1068 1173.77 Q33.8337 1173.77 38.4401 1176.85 Q43.0234 1179.91 43.0234 1185.72 Q43.0234 1191.53 38.4401 1194.61 Q33.8337 1197.66 25.1068 1197.66 Q16.3569 1197.66 11.7736 1194.61 Q7.16713 1191.53 7.16713 1185.72 Z" fill="#000000" fill-rule="nonzero" fill-opacity="1" /><path clip-path="url(#clip200)" d="M11.8662 892.07 L30.3152 903.875 L30.3152 892.07 L11.8662 892.07 M7.79213 893.296 L7.79213 887.417 L30.3152 887.417 L30.3152 882.486 L34.204 882.486 L34.204 887.417 L42.3521 887.417 L42.3521 892.07 L34.204 892.07 L34.204 907.671 L29.6902 907.671 L7.79213 893.296 Z" fill="#000000" fill-rule="nonzero" fill-opacity="1" /><path clip-path="url(#clip200)" d="M10.8708 864.755 Q10.8708 868.366 14.4356 870.195 Q17.9773 872 25.1068 872 Q32.2133 872 35.7781 870.195 Q39.3197 868.366 39.3197 864.755 Q39.3197 861.121 35.7781 859.315 Q32.2133 857.487 25.1068 857.487 Q17.9773 857.487 14.4356 859.315 Q10.8708 861.121 10.8708 864.755 M7.16713 864.755 Q7.16713 858.945 11.7736 855.889 Q16.3569 852.811 25.1068 852.811 Q33.8337 852.811 38.4401 855.889 Q43.0234 858.945 43.0234 864.755 Q43.0234 870.565 38.4401 873.644 Q33.8337 876.699 25.1068 876.699 Q16.3569 876.699 11.7736 873.644 Q7.16713 870.565 7.16713 864.755 Z" fill="#000000" fill-rule="nonzero" fill-opacity="1" /><path clip-path="url(#clip200)" d="M23.2087 574.452 Q23.2087 577.601 25.3615 579.452 Q27.5142 581.281 31.2642 581.281 Q34.9911 581.281 37.167 579.452 Q39.3197 577.601 39.3197 574.452 Q39.3197 571.304 37.167 569.476 Q34.9911 567.624 31.2642 567.624 Q27.5142 567.624 25.3615 569.476 Q23.2087 571.304 23.2087 574.452 M8.55601 565.17 L12.8152 565.17 Q11.9819 566.929 11.5421 568.735 Q11.1023 570.517 11.1023 572.276 Q11.1023 576.906 14.2273 579.36 Q17.3523 581.79 23.6717 582.138 Q21.6578 580.772 20.593 578.712 Q19.505 576.651 19.505 574.175 Q19.505 568.966 22.6763 565.957 Q25.8244 562.925 31.2642 562.925 Q36.5883 562.925 39.8058 566.073 Q43.0234 569.221 43.0234 574.452 Q43.0234 580.448 38.4401 583.619 Q33.8337 586.79 25.1068 586.79 Q16.9124 586.79 12.0514 582.901 Q7.16713 579.013 7.16713 572.462 Q7.16713 570.702 7.51435 568.92 Q7.86157 567.114 8.55601 565.17 Z" fill="#000000" fill-rule="nonzero" fill-opacity="1" /><path clip-path="url(#clip200)" d="M10.8708 544.869 Q10.8708 548.48 14.4356 550.309 Q17.9773 552.115 25.1068 552.115 Q32.2133 552.115 35.7781 550.309 Q39.3197 548.48 39.3197 544.869 Q39.3197 541.235 35.7781 539.429 Q32.2133 537.601 25.1068 537.601 Q17.9773 537.601 14.4356 539.429 Q10.8708 541.235 10.8708 544.869 M7.16713 544.869 Q7.16713 539.059 11.7736 536.004 Q16.3569 532.925 25.1068 532.925 Q33.8337 532.925 38.4401 536.004 Q43.0234 539.059 43.0234 544.869 Q43.0234 550.679 38.4401 553.758 Q33.8337 556.814 25.1068 556.814 Q16.3569 556.814 11.7736 553.758 Q7.16713 550.679 7.16713 544.869 Z" fill="#000000" fill-rule="nonzero" fill-opacity="1" /><path clip-path="url(#clip200)" d="M25.9402 254.601 Q25.9402 257.935 27.7226 259.856 Q29.505 261.754 32.63 261.754 Q35.7549 261.754 37.5373 259.856 Q39.3197 257.935 39.3197 254.601 Q39.3197 251.268 37.5373 249.347 Q35.7318 247.425 32.63 247.425 Q29.505 247.425 27.7226 249.347 Q25.9402 251.245 25.9402 254.601 M23.9494 259.277 Q23.2087 262.287 21.1485 263.976 Q19.0884 265.643 16.1254 265.643 Q11.9819 265.643 9.57452 262.703 Q7.16713 259.74 7.16713 254.601 Q7.16713 249.439 9.57452 246.5 Q11.9819 243.56 16.1254 243.56 Q19.0884 243.56 21.1485 245.25 Q23.2087 246.916 23.9494 249.902 Q24.7365 246.523 27.0281 244.648 Q29.3198 242.75 32.63 242.75 Q37.6531 242.75 40.3382 245.828 Q43.0234 248.884 43.0234 254.601 Q43.0234 260.319 40.3382 263.398 Q37.6531 266.453 32.63 266.453 Q29.3198 266.453 27.0281 264.555 Q24.7365 262.657 23.9494 259.277 M16.5652 260.99 Q19.2504 260.99 20.755 259.324 Q22.2596 257.634 22.2596 254.601 Q22.2596 251.592 20.755 249.902 Q19.2504 248.189 16.5652 248.189 Q13.8801 248.189 12.3754 249.902 Q10.8708 251.592 10.8708 254.601 Q10.8708 257.634 12.3754 259.324 Q13.8801 260.99 16.5652 260.99 Z" fill="#000000" fill-rule="nonzero" fill-opacity="1" /><path clip-path="url(#clip200)" d="M10.8708 224.44 Q10.8708 228.051 14.4356 229.879 Q17.9773 231.685 25.1068 231.685 Q32.2133 231.685 35.7781 229.879 Q39.3197 228.051 39.3197 224.44 Q39.3197 220.805 35.7781 219 Q32.2133 217.171 25.1068 217.171 Q17.9773 217.171 14.4356 219 Q10.8708 220.805 10.8708 224.44 M7.16713 224.44 Q7.16713 218.629 11.7736 215.574 Q16.3569 212.495 25.1068 212.495 Q33.8337 212.495 38.4401 215.574 Q43.0234 218.629 43.0234 224.44 Q43.0234 230.25 38.4401 233.328 Q33.8337 236.384 25.1068 236.384 Q16.3569 236.384 11.7736 233.328 Q7.16713 230.25 7.16713 224.44 Z" fill="#000000" fill-rule="nonzero" fill-opacity="1" /><path clip-path="url(#clip202)" d="M211.613 1504.99 L211.613 1521.01 L281.148 1521.01 L281.148 1504.99 L211.613 1504.99 L211.613 1504.99  Z" fill="#009af9" fill-rule="evenodd" fill-opacity="1"/>
<polyline clip-path="url(#clip202)" style="stroke:#000000; stroke-linecap:round; stroke-linejoin:round; stroke-width:4; stroke-opacity:1; fill:none" points="211.613,1504.99 211.613,1521.01 281.148,1521.01 281.148,1504.99 211.613,1504.99 "/>
<path clip-path="url(#clip202)" d="M281.148 1408.87 L281.148 1521.01 L350.684 1521.01 L350.684 1408.87 L281.148 1408.87 L281.148 1408.87  Z" fill="#009af9" fill-rule="evenodd" fill-opacity="1"/>
<polyline clip-path="url(#clip202)" style="stroke:#000000; stroke-linecap:round; stroke-linejoin:round; stroke-width:4; stroke-opacity:1; fill:none" points="281.148,1408.87 281.148,1521.01 350.684,1521.01 350.684,1408.87 281.148,1408.87 "/>
<path clip-path="url(#clip202)" d="M350.684 1456.93 L350.684 1521.01 L420.219 1521.01 L420.219 1456.93 L350.684 1456.93 L350.684 1456.93  Z" fill="#009af9" fill-rule="evenodd" fill-opacity="1"/>
<polyline clip-path="url(#clip202)" style="stroke:#000000; stroke-linecap:round; stroke-linejoin:round; stroke-width:4; stroke-opacity:1; fill:none" points="350.684,1456.93 350.684,1521.01 420.219,1521.01 420.219,1456.93 350.684,1456.93 "/>
<path clip-path="url(#clip202)" d="M420.219 1440.91 L420.219 1521.01 L489.754 1521.01 L489.754 1440.91 L420.219 1440.91 L420.219 1440.91  Z" fill="#009af9" fill-rule="evenodd" fill-opacity="1"/>
<polyline clip-path="url(#clip202)" style="stroke:#000000; stroke-linecap:round; stroke-linejoin:round; stroke-width:4; stroke-opacity:1; fill:none" points="420.219,1440.91 420.219,1521.01 489.754,1521.01 489.754,1440.91 420.219,1440.91 "/>
<path clip-path="url(#clip202)" d="M489.754 1328.78 L489.754 1521.01 L559.289 1521.01 L559.289 1328.78 L489.754 1328.78 L489.754 1328.78  Z" fill="#009af9" fill-rule="evenodd" fill-opacity="1"/>
<polyline clip-path="url(#clip202)" style="stroke:#000000; stroke-linecap:round; stroke-linejoin:round; stroke-width:4; stroke-opacity:1; fill:none" points="489.754,1328.78 489.754,1521.01 559.289,1521.01 559.289,1328.78 489.754,1328.78 "/>
<path clip-path="url(#clip202)" d="M559.289 1248.68 L559.289 1521.01 L628.825 1521.01 L628.825 1248.68 L559.289 1248.68 L559.289 1248.68  Z" fill="#009af9" fill-rule="evenodd" fill-opacity="1"/>
<polyline clip-path="url(#clip202)" style="stroke:#000000; stroke-linecap:round; stroke-linejoin:round; stroke-width:4; stroke-opacity:1; fill:none" points="559.289,1248.68 559.289,1521.01 628.825,1521.01 628.825,1248.68 559.289,1248.68 "/>
<path clip-path="url(#clip202)" d="M628.825 1024.41 L628.825 1521.01 L698.36 1521.01 L698.36 1024.41 L628.825 1024.41 L628.825 1024.41  Z" fill="#009af9" fill-rule="evenodd" fill-opacity="1"/>
<polyline clip-path="url(#clip202)" style="stroke:#000000; stroke-linecap:round; stroke-linejoin:round; stroke-width:4; stroke-opacity:1; fill:none" points="628.825,1024.41 628.825,1521.01 698.36,1521.01 698.36,1024.41 628.825,1024.41 "/>
<path clip-path="url(#clip202)" d="M698.36 944.318 L698.36 1521.01 L767.895 1521.01 L767.895 944.318 L698.36 944.318 L698.36 944.318  Z" fill="#009af9" fill-rule="evenodd" fill-opacity="1"/>
<polyline clip-path="url(#clip202)" style="stroke:#000000; stroke-linecap:round; stroke-linejoin:round; stroke-width:4; stroke-opacity:1; fill:none" points="698.36,944.318 698.36,1521.01 767.895,1521.01 767.895,944.318 698.36,944.318 "/>
<path clip-path="url(#clip202)" d="M767.895 848.203 L767.895 1521.01 L837.43 1521.01 L837.43 848.203 L767.895 848.203 L767.895 848.203  Z" fill="#009af9" fill-rule="evenodd" fill-opacity="1"/>
<polyline clip-path="url(#clip202)" style="stroke:#000000; stroke-linecap:round; stroke-linejoin:round; stroke-width:4; stroke-opacity:1; fill:none" points="767.895,848.203 767.895,1521.01 837.43,1521.01 837.43,848.203 767.895,848.203 "/>
<path clip-path="url(#clip202)" d="M837.43 559.858 L837.43 1521.01 L906.965 1521.01 L906.965 559.858 L837.43 559.858 L837.43 559.858  Z" fill="#009af9" fill-rule="evenodd" fill-opacity="1"/>
<polyline clip-path="url(#clip202)" style="stroke:#000000; stroke-linecap:round; stroke-linejoin:round; stroke-width:4; stroke-opacity:1; fill:none" points="837.43,559.858 837.43,1521.01 906.965,1521.01 906.965,559.858 837.43,559.858 "/>
<path clip-path="url(#clip202)" d="M906.965 383.647 L906.965 1521.01 L976.501 1521.01 L976.501 383.647 L906.965 383.647 L906.965 383.647  Z" fill="#009af9" fill-rule="evenodd" fill-opacity="1"/>
<polyline clip-path="url(#clip202)" style="stroke:#000000; stroke-linecap:round; stroke-linejoin:round; stroke-width:4; stroke-opacity:1; fill:none" points="906.965,383.647 906.965,1521.01 976.501,1521.01 976.501,383.647 906.965,383.647 "/>
<path clip-path="url(#clip202)" d="M976.501 47.2441 L976.501 1521.01 L1046.04 1521.01 L1046.04 47.2441 L976.501 47.2441 L976.501 47.2441  Z" fill="#009af9" fill-rule="evenodd" fill-opacity="1"/>
<polyline clip-path="url(#clip202)" style="stroke:#000000; stroke-linecap:round; stroke-linejoin:round; stroke-width:4; stroke-opacity:1; fill:none" points="976.501,47.2441 976.501,1521.01 1046.04,1521.01 1046.04,47.2441 976.501,47.2441 "/>
<path clip-path="url(#clip202)" d="M1046.04 303.551 L1046.04 1521.01 L1115.57 1521.01 L1115.57 303.551 L1046.04 303.551 L1046.04 303.551  Z" fill="#009af9" fill-rule="evenodd" fill-opacity="1"/>
<polyline clip-path="url(#clip202)" style="stroke:#000000; stroke-linecap:round; stroke-linejoin:round; stroke-width:4; stroke-opacity:1; fill:none" points="1046.04,303.551 1046.04,1521.01 1115.57,1521.01 1115.57,303.551 1046.04,303.551 "/>
<path clip-path="url(#clip202)" d="M1115.57 319.57 L1115.57 1521.01 L1185.11 1521.01 L1185.11 319.57 L1115.57 319.57 L1115.57 319.57  Z" fill="#009af9" fill-rule="evenodd" fill-opacity="1"/>
<polyline clip-path="url(#clip202)" style="stroke:#000000; stroke-linecap:round; stroke-linejoin:round; stroke-width:4; stroke-opacity:1; fill:none" points="1115.57,319.57 1115.57,1521.01 1185.11,1521.01 1185.11,319.57 1115.57,319.57 "/>
<path clip-path="url(#clip202)" d="M1185.11 191.417 L1185.11 1521.01 L1254.64 1521.01 L1254.64 191.417 L1185.11 191.417 L1185.11 191.417  Z" fill="#009af9" fill-rule="evenodd" fill-opacity="1"/>
<polyline clip-path="url(#clip202)" style="stroke:#000000; stroke-linecap:round; stroke-linejoin:round; stroke-width:4; stroke-opacity:1; fill:none" points="1185.11,191.417 1185.11,1521.01 1254.64,1521.01 1254.64,191.417 1185.11,191.417 "/>
<path clip-path="url(#clip202)" d="M1254.64 511.8 L1254.64 1521.01 L1324.18 1521.01 L1324.18 511.8 L1254.64 511.8 L1254.64 511.8  Z" fill="#009af9" fill-rule="evenodd" fill-opacity="1"/>
<polyline clip-path="url(#clip202)" style="stroke:#000000; stroke-linecap:round; stroke-linejoin:round; stroke-width:4; stroke-opacity:1; fill:none" points="1254.64,511.8 1254.64,1521.01 1324.18,1521.01 1324.18,511.8 1254.64,511.8 "/>
<path clip-path="url(#clip202)" d="M1324.18 367.628 L1324.18 1521.01 L1393.71 1521.01 L1393.71 367.628 L1324.18 367.628 L1324.18 367.628  Z" fill="#009af9" fill-rule="evenodd" fill-opacity="1"/>
<polyline clip-path="url(#clip202)" style="stroke:#000000; stroke-linecap:round; stroke-linejoin:round; stroke-width:4; stroke-opacity:1; fill:none" points="1324.18,367.628 1324.18,1521.01 1393.71,1521.01 1393.71,367.628 1324.18,367.628 "/>
<path clip-path="url(#clip202)" d="M1393.71 607.915 L1393.71 1521.01 L1463.25 1521.01 L1463.25 607.915 L1393.71 607.915 L1393.71 607.915  Z" fill="#009af9" fill-rule="evenodd" fill-opacity="1"/>
<polyline clip-path="url(#clip202)" style="stroke:#000000; stroke-linecap:round; stroke-linejoin:round; stroke-width:4; stroke-opacity:1; fill:none" points="1393.71,607.915 1393.71,1521.01 1463.25,1521.01 1463.25,607.915 1393.71,607.915 "/>
<path clip-path="url(#clip202)" d="M1463.25 720.049 L1463.25 1521.01 L1532.78 1521.01 L1532.78 720.049 L1463.25 720.049 L1463.25 720.049  Z" fill="#009af9" fill-rule="evenodd" fill-opacity="1"/>
<polyline clip-path="url(#clip202)" style="stroke:#000000; stroke-linecap:round; stroke-linejoin:round; stroke-width:4; stroke-opacity:1; fill:none" points="1463.25,720.049 1463.25,1521.01 1532.78,1521.01 1532.78,720.049 1463.25,720.049 "/>
<path clip-path="url(#clip202)" d="M1532.78 784.126 L1532.78 1521.01 L1602.32 1521.01 L1602.32 784.126 L1532.78 784.126 L1532.78 784.126  Z" fill="#009af9" fill-rule="evenodd" fill-opacity="1"/>
<polyline clip-path="url(#clip202)" style="stroke:#000000; stroke-linecap:round; stroke-linejoin:round; stroke-width:4; stroke-opacity:1; fill:none" points="1532.78,784.126 1532.78,1521.01 1602.32,1521.01 1602.32,784.126 1532.78,784.126 "/>
<path clip-path="url(#clip202)" d="M1602.32 1008.39 L1602.32 1521.01 L1671.85 1521.01 L1671.85 1008.39 L1602.32 1008.39 L1602.32 1008.39  Z" fill="#009af9" fill-rule="evenodd" fill-opacity="1"/>
<polyline clip-path="url(#clip202)" style="stroke:#000000; stroke-linecap:round; stroke-linejoin:round; stroke-width:4; stroke-opacity:1; fill:none" points="1602.32,1008.39 1602.32,1521.01 1671.85,1521.01 1671.85,1008.39 1602.32,1008.39 "/>
<path clip-path="url(#clip202)" d="M1671.85 1184.61 L1671.85 1521.01 L1741.39 1521.01 L1741.39 1184.61 L1671.85 1184.61 L1671.85 1184.61  Z" fill="#009af9" fill-rule="evenodd" fill-opacity="1"/>
<polyline clip-path="url(#clip202)" style="stroke:#000000; stroke-linecap:round; stroke-linejoin:round; stroke-width:4; stroke-opacity:1; fill:none" points="1671.85,1184.61 1671.85,1521.01 1741.39,1521.01 1741.39,1184.61 1671.85,1184.61 "/>
<path clip-path="url(#clip202)" d="M1741.39 1328.78 L1741.39 1521.01 L1810.92 1521.01 L1810.92 1328.78 L1741.39 1328.78 L1741.39 1328.78  Z" fill="#009af9" fill-rule="evenodd" fill-opacity="1"/>
<polyline clip-path="url(#clip202)" style="stroke:#000000; stroke-linecap:round; stroke-linejoin:round; stroke-width:4; stroke-opacity:1; fill:none" points="1741.39,1328.78 1741.39,1521.01 1810.92,1521.01 1810.92,1328.78 1741.39,1328.78 "/>
<path clip-path="url(#clip202)" d="M1810.92 1248.68 L1810.92 1521.01 L1880.46 1521.01 L1880.46 1248.68 L1810.92 1248.68 L1810.92 1248.68  Z" fill="#009af9" fill-rule="evenodd" fill-opacity="1"/>
<polyline clip-path="url(#clip202)" style="stroke:#000000; stroke-linecap:round; stroke-linejoin:round; stroke-width:4; stroke-opacity:1; fill:none" points="1810.92,1248.68 1810.92,1521.01 1880.46,1521.01 1880.46,1248.68 1810.92,1248.68 "/>
<path clip-path="url(#clip202)" d="M1880.46 1408.87 L1880.46 1521.01 L1949.99 1521.01 L1949.99 1408.87 L1880.46 1408.87 L1880.46 1408.87  Z" fill="#009af9" fill-rule="evenodd" fill-opacity="1"/>
<polyline clip-path="url(#clip202)" style="stroke:#000000; stroke-linecap:round; stroke-linejoin:round; stroke-width:4; stroke-opacity:1; fill:none" points="1880.46,1408.87 1880.46,1521.01 1949.99,1521.01 1949.99,1408.87 1880.46,1408.87 "/>
<path clip-path="url(#clip202)" d="M1949.99 1472.95 L1949.99 1521.01 L2019.53 1521.01 L2019.53 1472.95 L1949.99 1472.95 L1949.99 1472.95  Z" fill="#009af9" fill-rule="evenodd" fill-opacity="1"/>
<polyline clip-path="url(#clip202)" style="stroke:#000000; stroke-linecap:round; stroke-linejoin:round; stroke-width:4; stroke-opacity:1; fill:none" points="1949.99,1472.95 1949.99,1521.01 2019.53,1521.01 2019.53,1472.95 1949.99,1472.95 "/>
<path clip-path="url(#clip202)" d="M2019.53 1472.95 L2019.53 1521.01 L2089.06 1521.01 L2089.06 1472.95 L2019.53 1472.95 L2019.53 1472.95  Z" fill="#009af9" fill-rule="evenodd" fill-opacity="1"/>
<polyline clip-path="url(#clip202)" style="stroke:#000000; stroke-linecap:round; stroke-linejoin:round; stroke-width:4; stroke-opacity:1; fill:none" points="2019.53,1472.95 2019.53,1521.01 2089.06,1521.01 2089.06,1472.95 2019.53,1472.95 "/>
<path clip-path="url(#clip202)" d="M2089.06 1456.93 L2089.06 1521.01 L2158.6 1521.01 L2158.6 1456.93 L2089.06 1456.93 L2089.06 1456.93  Z" fill="#009af9" fill-rule="evenodd" fill-opacity="1"/>
<polyline clip-path="url(#clip202)" style="stroke:#000000; stroke-linecap:round; stroke-linejoin:round; stroke-width:4; stroke-opacity:1; fill:none" points="2089.06,1456.93 2089.06,1521.01 2158.6,1521.01 2158.6,1456.93 2089.06,1456.93 "/>
<path clip-path="url(#clip202)" d="M2158.6 1504.99 L2158.6 1521.01 L2228.13 1521.01 L2228.13 1504.99 L2158.6 1504.99 L2158.6 1504.99  Z" fill="#009af9" fill-rule="evenodd" fill-opacity="1"/>
<polyline clip-path="url(#clip202)" style="stroke:#000000; stroke-linecap:round; stroke-linejoin:round; stroke-width:4; stroke-opacity:1; fill:none" points="2158.6,1504.99 2158.6,1521.01 2228.13,1521.01 2228.13,1504.99 2158.6,1504.99 "/>
<circle clip-path="url(#clip202)" style="fill:#009af9; stroke:none; fill-opacity:0" cx="246.381" cy="1504.99" r="2"/>
<circle clip-path="url(#clip202)" style="fill:#009af9; stroke:none; fill-opacity:0" cx="315.916" cy="1408.87" r="2"/>
<circle clip-path="url(#clip202)" style="fill:#009af9; stroke:none; fill-opacity:0" cx="385.451" cy="1456.93" r="2"/>
<circle clip-path="url(#clip202)" style="fill:#009af9; stroke:none; fill-opacity:0" cx="454.986" cy="1440.91" r="2"/>
<circle clip-path="url(#clip202)" style="fill:#009af9; stroke:none; fill-opacity:0" cx="524.522" cy="1328.78" r="2"/>
<circle clip-path="url(#clip202)" style="fill:#009af9; stroke:none; fill-opacity:0" cx="594.057" cy="1248.68" r="2"/>
<circle clip-path="url(#clip202)" style="fill:#009af9; stroke:none; fill-opacity:0" cx="663.592" cy="1024.41" r="2"/>
<circle clip-path="url(#clip202)" style="fill:#009af9; stroke:none; fill-opacity:0" cx="733.127" cy="944.318" r="2"/>
<circle clip-path="url(#clip202)" style="fill:#009af9; stroke:none; fill-opacity:0" cx="802.663" cy="848.203" r="2"/>
<circle clip-path="url(#clip202)" style="fill:#009af9; stroke:none; fill-opacity:0" cx="872.198" cy="559.858" r="2"/>
<circle clip-path="url(#clip202)" style="fill:#009af9; stroke:none; fill-opacity:0" cx="941.733" cy="383.647" r="2"/>
<circle clip-path="url(#clip202)" style="fill:#009af9; stroke:none; fill-opacity:0" cx="1011.27" cy="47.2441" r="2"/>
<circle clip-path="url(#clip202)" style="fill:#009af9; stroke:none; fill-opacity:0" cx="1080.8" cy="303.551" r="2"/>
<circle clip-path="url(#clip202)" style="fill:#009af9; stroke:none; fill-opacity:0" cx="1150.34" cy="319.57" r="2"/>
<circle clip-path="url(#clip202)" style="fill:#009af9; stroke:none; fill-opacity:0" cx="1219.87" cy="191.417" r="2"/>
<circle clip-path="url(#clip202)" style="fill:#009af9; stroke:none; fill-opacity:0" cx="1289.41" cy="511.8" r="2"/>
<circle clip-path="url(#clip202)" style="fill:#009af9; stroke:none; fill-opacity:0" cx="1358.94" cy="367.628" r="2"/>
<circle clip-path="url(#clip202)" style="fill:#009af9; stroke:none; fill-opacity:0" cx="1428.48" cy="607.915" r="2"/>
<circle clip-path="url(#clip202)" style="fill:#009af9; stroke:none; fill-opacity:0" cx="1498.01" cy="720.049" r="2"/>
<circle clip-path="url(#clip202)" style="fill:#009af9; stroke:none; fill-opacity:0" cx="1567.55" cy="784.126" r="2"/>
<circle clip-path="url(#clip202)" style="fill:#009af9; stroke:none; fill-opacity:0" cx="1637.09" cy="1008.39" r="2"/>
<circle clip-path="url(#clip202)" style="fill:#009af9; stroke:none; fill-opacity:0" cx="1706.62" cy="1184.61" r="2"/>
<circle clip-path="url(#clip202)" style="fill:#009af9; stroke:none; fill-opacity:0" cx="1776.16" cy="1328.78" r="2"/>
<circle clip-path="url(#clip202)" style="fill:#009af9; stroke:none; fill-opacity:0" cx="1845.69" cy="1248.68" r="2"/>
<circle clip-path="url(#clip202)" style="fill:#009af9; stroke:none; fill-opacity:0" cx="1915.23" cy="1408.87" r="2"/>
<circle clip-path="url(#clip202)" style="fill:#009af9; stroke:none; fill-opacity:0" cx="1984.76" cy="1472.95" r="2"/>
<circle clip-path="url(#clip202)" style="fill:#009af9; stroke:none; fill-opacity:0" cx="2054.3" cy="1472.95" r="2"/>
<circle clip-path="url(#clip202)" style="fill:#009af9; stroke:none; fill-opacity:0" cx="2123.83" cy="1456.93" r="2"/>
<circle clip-path="url(#clip202)" style="fill:#009af9; stroke:none; fill-opacity:0" cx="2193.37" cy="1504.99" r="2"/>
<path clip-path="url(#clip200)" d="M1594.8 200.05 L2277.23 200.05 L2277.23 96.3696 L1594.8 96.3696  Z" fill="#ffffff" fill-rule="evenodd" fill-opacity="1"/>
<polyline clip-path="url(#clip200)" style="stroke:#000000; stroke-linecap:round; stroke-linejoin:round; stroke-width:4; stroke-opacity:1; fill:none" points="1594.8,200.05 2277.23,200.05 2277.23,96.3696 1594.8,96.3696 1594.8,200.05 "/>
<path clip-path="url(#clip200)" d="M1619.98 168.946 L1771.03 168.946 L1771.03 127.474 L1619.98 127.474 L1619.98 168.946  Z" fill="#009af9" fill-rule="evenodd" fill-opacity="1"/>
<polyline clip-path="url(#clip200)" style="stroke:#000000; stroke-linecap:round; stroke-linejoin:round; stroke-width:4; stroke-opacity:1; fill:none" points="1619.98,168.946 1771.03,168.946 1771.03,127.474 1619.98,127.474 1619.98,168.946 "/>
<path clip-path="url(#clip200)" d="M1800.48 161.601 L1800.48 175.351 L1796.2 175.351 L1796.2 139.564 L1800.48 139.564 L1800.48 143.499 Q1801.83 141.184 1803.86 140.073 Q1805.92 138.939 1808.77 138.939 Q1813.49 138.939 1816.43 142.689 Q1819.4 146.439 1819.4 152.55 Q1819.4 158.661 1816.43 162.411 Q1813.49 166.161 1808.77 166.161 Q1805.92 166.161 1803.86 165.05 Q1801.83 163.915 1800.48 161.601 M1814.97 152.55 Q1814.97 147.851 1813.03 145.189 Q1811.11 142.504 1807.73 142.504 Q1804.35 142.504 1802.4 145.189 Q1800.48 147.851 1800.48 152.55 Q1800.48 157.249 1802.4 159.934 Q1804.35 162.596 1807.73 162.596 Q1811.11 162.596 1813.03 159.934 Q1814.97 157.249 1814.97 152.55 Z" fill="#000000" fill-rule="nonzero" fill-opacity="1" /><path clip-path="url(#clip200)" d="M1836.5 142.55 Q1833.08 142.55 1831.09 145.235 Q1829.09 147.897 1829.09 152.55 Q1829.09 157.203 1831.06 159.888 Q1833.05 162.55 1836.5 162.55 Q1839.9 162.55 1841.9 159.865 Q1843.89 157.179 1843.89 152.55 Q1843.89 147.943 1841.9 145.258 Q1839.9 142.55 1836.5 142.55 M1836.5 138.939 Q1842.06 138.939 1845.23 142.55 Q1848.4 146.161 1848.4 152.55 Q1848.4 158.916 1845.23 162.55 Q1842.06 166.161 1836.5 166.161 Q1830.92 166.161 1827.75 162.55 Q1824.6 158.916 1824.6 152.55 Q1824.6 146.161 1827.75 142.55 Q1830.92 138.939 1836.5 138.939 Z" fill="#000000" fill-rule="nonzero" fill-opacity="1" /><path clip-path="url(#clip200)" d="M1871.99 140.328 L1871.99 144.355 Q1870.18 143.429 1868.24 142.967 Q1866.29 142.504 1864.21 142.504 Q1861.04 142.504 1859.44 143.476 Q1857.87 144.448 1857.87 146.392 Q1857.87 147.874 1859 148.73 Q1860.14 149.564 1863.56 150.328 L1865.02 150.652 Q1869.56 151.624 1871.46 153.406 Q1873.38 155.166 1873.38 158.337 Q1873.38 161.948 1870.51 164.054 Q1867.66 166.161 1862.66 166.161 Q1860.58 166.161 1858.31 165.744 Q1856.06 165.351 1853.56 164.54 L1853.56 160.142 Q1855.92 161.369 1858.21 161.994 Q1860.51 162.596 1862.75 162.596 Q1865.76 162.596 1867.38 161.578 Q1869 160.536 1869 158.661 Q1869 156.925 1867.82 155.999 Q1866.66 155.073 1862.71 154.216 L1861.22 153.869 Q1857.27 153.036 1855.51 151.323 Q1853.75 149.587 1853.75 146.578 Q1853.75 142.92 1856.34 140.93 Q1858.93 138.939 1863.7 138.939 Q1866.06 138.939 1868.15 139.286 Q1870.23 139.633 1871.99 140.328 Z" fill="#000000" fill-rule="nonzero" fill-opacity="1" /><path clip-path="url(#clip200)" d="M1884.37 132.203 L1884.37 139.564 L1893.15 139.564 L1893.15 142.874 L1884.37 142.874 L1884.37 156.948 Q1884.37 160.119 1885.23 161.022 Q1886.11 161.925 1888.77 161.925 L1893.15 161.925 L1893.15 165.49 L1888.77 165.49 Q1883.84 165.49 1881.96 163.661 Q1880.09 161.809 1880.09 156.948 L1880.09 142.874 L1876.96 142.874 L1876.96 139.564 L1880.09 139.564 L1880.09 132.203 L1884.37 132.203 Z" fill="#000000" fill-rule="nonzero" fill-opacity="1" /><path clip-path="url(#clip200)" d="M1920.92 151.462 L1920.92 153.545 L1901.34 153.545 Q1901.62 157.943 1903.98 160.258 Q1906.36 162.55 1910.6 162.55 Q1913.05 162.55 1915.34 161.948 Q1917.66 161.346 1919.93 160.142 L1919.93 164.17 Q1917.64 165.142 1915.23 165.652 Q1912.82 166.161 1910.34 166.161 Q1904.14 166.161 1900.51 162.55 Q1896.9 158.939 1896.9 152.781 Q1896.9 146.416 1900.32 142.689 Q1903.77 138.939 1909.6 138.939 Q1914.83 138.939 1917.87 142.318 Q1920.92 145.675 1920.92 151.462 M1916.66 150.212 Q1916.62 146.717 1914.7 144.633 Q1912.8 142.55 1909.65 142.55 Q1906.08 142.55 1903.93 144.564 Q1901.8 146.578 1901.48 150.235 L1916.66 150.212 Z" fill="#000000" fill-rule="nonzero" fill-opacity="1" /><path clip-path="url(#clip200)" d="M1942.94 143.545 Q1942.22 143.129 1941.36 142.943 Q1940.53 142.735 1939.51 142.735 Q1935.9 142.735 1933.96 145.096 Q1932.03 147.434 1932.03 151.832 L1932.03 165.49 L1927.75 165.49 L1927.75 139.564 L1932.03 139.564 L1932.03 143.592 Q1933.38 141.23 1935.53 140.096 Q1937.68 138.939 1940.76 138.939 Q1941.2 138.939 1941.73 139.008 Q1942.27 139.055 1942.91 139.17 L1942.94 143.545 Z" fill="#000000" fill-rule="nonzero" fill-opacity="1" /><path clip-path="url(#clip200)" d="M1947.4 139.564 L1951.66 139.564 L1951.66 165.49 L1947.4 165.49 L1947.4 139.564 M1947.4 129.471 L1951.66 129.471 L1951.66 134.865 L1947.4 134.865 L1947.4 129.471 Z" fill="#000000" fill-rule="nonzero" fill-opacity="1" /><path clip-path="url(#clip200)" d="M1970.62 142.55 Q1967.2 142.55 1965.2 145.235 Q1963.21 147.897 1963.21 152.55 Q1963.21 157.203 1965.18 159.888 Q1967.17 162.55 1970.62 162.55 Q1974.02 162.55 1976.02 159.865 Q1978.01 157.179 1978.01 152.55 Q1978.01 147.943 1976.02 145.258 Q1974.02 142.55 1970.62 142.55 M1970.62 138.939 Q1976.18 138.939 1979.35 142.55 Q1982.52 146.161 1982.52 152.55 Q1982.52 158.916 1979.35 162.55 Q1976.18 166.161 1970.62 166.161 Q1965.04 166.161 1961.87 162.55 Q1958.72 158.916 1958.72 152.55 Q1958.72 146.161 1961.87 142.55 Q1965.04 138.939 1970.62 138.939 Z" fill="#000000" fill-rule="nonzero" fill-opacity="1" /><path clip-path="url(#clip200)" d="M2004.6 143.545 Q2003.89 143.129 2003.03 142.943 Q2002.2 142.735 2001.18 142.735 Q1997.57 142.735 1995.62 145.096 Q1993.7 147.434 1993.7 151.832 L1993.7 165.49 L1989.42 165.49 L1989.42 139.564 L1993.7 139.564 L1993.7 143.592 Q1995.04 141.23 1997.2 140.096 Q1999.35 138.939 2002.43 138.939 Q2002.87 138.939 2003.4 139.008 Q2003.93 139.055 2004.58 139.17 L2004.6 143.545 Z" fill="#000000" fill-rule="nonzero" fill-opacity="1" /><path clip-path="url(#clip200)" d="M2026.48 149.054 L2011.73 149.054 Q2012.08 155.976 2013.68 158.916 Q2015.67 162.527 2019.12 162.527 Q2022.59 162.527 2024.51 158.892 Q2026.2 155.698 2026.48 149.054 M2026.41 145.119 Q2025.76 138.545 2024.51 136.23 Q2022.52 132.573 2019.12 132.573 Q2015.58 132.573 2013.7 136.184 Q2012.22 139.101 2011.78 145.119 L2026.41 145.119 M2019.12 129.101 Q2024.67 129.101 2027.84 134.008 Q2031.01 138.892 2031.01 147.55 Q2031.01 156.184 2027.84 161.091 Q2024.67 166.022 2019.12 166.022 Q2013.54 166.022 2010.39 161.091 Q2007.22 156.184 2007.22 147.55 Q2007.22 138.892 2010.39 134.008 Q2013.54 129.101 2019.12 129.101 Z" fill="#000000" fill-rule="nonzero" fill-opacity="1" /><path clip-path="url(#clip200)" d="M2057.77 173.36 L2057.77 176.67 L2033.14 176.67 L2033.14 173.36 L2057.77 173.36 Z" fill="#000000" fill-rule="nonzero" fill-opacity="1" /><path clip-path="url(#clip200)" d="M2078.31 140.328 L2078.31 144.355 Q2076.5 143.429 2074.56 142.967 Q2072.61 142.504 2070.53 142.504 Q2067.36 142.504 2065.76 143.476 Q2064.19 144.448 2064.19 146.392 Q2064.19 147.874 2065.32 148.73 Q2066.45 149.564 2069.88 150.328 L2071.34 150.652 Q2075.88 151.624 2077.77 153.406 Q2079.7 155.166 2079.7 158.337 Q2079.7 161.948 2076.82 164.054 Q2073.98 166.161 2068.98 166.161 Q2066.89 166.161 2064.63 165.744 Q2062.38 165.351 2059.88 164.54 L2059.88 160.142 Q2062.24 161.369 2064.53 161.994 Q2066.82 162.596 2069.07 162.596 Q2072.08 162.596 2073.7 161.578 Q2075.32 160.536 2075.32 158.661 Q2075.32 156.925 2074.14 155.999 Q2072.98 155.073 2069.02 154.216 L2067.54 153.869 Q2063.58 153.036 2061.82 151.323 Q2060.07 149.587 2060.07 146.578 Q2060.07 142.92 2062.66 140.93 Q2065.25 138.939 2070.02 138.939 Q2072.38 138.939 2074.46 139.286 Q2076.55 139.633 2078.31 140.328 Z" fill="#000000" fill-rule="nonzero" fill-opacity="1" /><path clip-path="url(#clip200)" d="M2098.26 152.457 Q2093.1 152.457 2091.11 153.638 Q2089.12 154.818 2089.12 157.666 Q2089.12 159.934 2090.6 161.277 Q2092.1 162.596 2094.67 162.596 Q2098.21 162.596 2100.34 160.096 Q2102.5 157.573 2102.5 153.406 L2102.5 152.457 L2098.26 152.457 M2106.76 150.698 L2106.76 165.49 L2102.5 165.49 L2102.5 161.554 Q2101.04 163.915 2098.86 165.05 Q2096.69 166.161 2093.54 166.161 Q2089.56 166.161 2087.2 163.939 Q2084.86 161.693 2084.86 157.943 Q2084.86 153.568 2087.77 151.346 Q2090.71 149.124 2096.52 149.124 L2102.5 149.124 L2102.5 148.707 Q2102.5 145.767 2100.55 144.17 Q2098.63 142.55 2095.13 142.55 Q2092.91 142.55 2090.81 143.082 Q2088.7 143.615 2086.76 144.679 L2086.76 140.744 Q2089.09 139.842 2091.29 139.402 Q2093.49 138.939 2095.57 138.939 Q2101.2 138.939 2103.98 141.855 Q2106.76 144.772 2106.76 150.698 Z" fill="#000000" fill-rule="nonzero" fill-opacity="1" /><path clip-path="url(#clip200)" d="M2135.71 144.541 Q2137.31 141.67 2139.53 140.305 Q2141.75 138.939 2144.76 138.939 Q2148.82 138.939 2151.01 141.786 Q2153.21 144.61 2153.21 149.841 L2153.21 165.49 L2148.93 165.49 L2148.93 149.98 Q2148.93 146.254 2147.61 144.448 Q2146.29 142.642 2143.58 142.642 Q2140.27 142.642 2138.35 144.842 Q2136.43 147.041 2136.43 150.837 L2136.43 165.49 L2132.15 165.49 L2132.15 149.98 Q2132.15 146.23 2130.83 144.448 Q2129.51 142.642 2126.76 142.642 Q2123.49 142.642 2121.57 144.865 Q2119.65 147.064 2119.65 150.837 L2119.65 165.49 L2115.37 165.49 L2115.37 139.564 L2119.65 139.564 L2119.65 143.592 Q2121.11 141.207 2123.14 140.073 Q2125.18 138.939 2127.98 138.939 Q2130.81 138.939 2132.77 140.374 Q2134.76 141.809 2135.71 144.541 Z" fill="#000000" fill-rule="nonzero" fill-opacity="1" /><path clip-path="url(#clip200)" d="M2165.83 161.601 L2165.83 175.351 L2161.55 175.351 L2161.55 139.564 L2165.83 139.564 L2165.83 143.499 Q2167.17 141.184 2169.21 140.073 Q2171.27 138.939 2174.12 138.939 Q2178.84 138.939 2181.78 142.689 Q2184.74 146.439 2184.74 152.55 Q2184.74 158.661 2181.78 162.411 Q2178.84 166.161 2174.12 166.161 Q2171.27 166.161 2169.21 165.05 Q2167.17 163.915 2165.83 161.601 M2180.32 152.55 Q2180.32 147.851 2178.38 145.189 Q2176.45 142.504 2173.07 142.504 Q2169.69 142.504 2167.75 145.189 Q2165.83 147.851 2165.83 152.55 Q2165.83 157.249 2167.75 159.934 Q2169.69 162.596 2173.07 162.596 Q2176.45 162.596 2178.38 159.934 Q2180.32 157.249 2180.32 152.55 Z" fill="#000000" fill-rule="nonzero" fill-opacity="1" /><path clip-path="url(#clip200)" d="M2191.8 129.471 L2196.06 129.471 L2196.06 165.49 L2191.8 165.49 L2191.8 129.471 Z" fill="#000000" fill-rule="nonzero" fill-opacity="1" /><path clip-path="url(#clip200)" d="M2227.15 151.462 L2227.15 153.545 L2207.56 153.545 Q2207.84 157.943 2210.2 160.258 Q2212.59 162.55 2216.82 162.55 Q2219.28 162.55 2221.57 161.948 Q2223.88 161.346 2226.15 160.142 L2226.15 164.17 Q2223.86 165.142 2221.45 165.652 Q2219.05 166.161 2216.57 166.161 Q2210.37 166.161 2206.73 162.55 Q2203.12 158.939 2203.12 152.781 Q2203.12 146.416 2206.55 142.689 Q2210 138.939 2215.83 138.939 Q2221.06 138.939 2224.09 142.318 Q2227.15 145.675 2227.15 151.462 M2222.89 150.212 Q2222.84 146.717 2220.92 144.633 Q2219.02 142.55 2215.87 142.55 Q2212.31 142.55 2210.16 144.564 Q2208.03 146.578 2207.7 150.235 L2222.89 150.212 Z" fill="#000000" fill-rule="nonzero" fill-opacity="1" /><path clip-path="url(#clip200)" d="M2250.67 140.328 L2250.67 144.355 Q2248.86 143.429 2246.92 142.967 Q2244.97 142.504 2242.89 142.504 Q2239.72 142.504 2238.12 143.476 Q2236.55 144.448 2236.55 146.392 Q2236.55 147.874 2237.68 148.73 Q2238.81 149.564 2242.24 150.328 L2243.7 150.652 Q2248.24 151.624 2250.13 153.406 Q2252.06 155.166 2252.06 158.337 Q2252.06 161.948 2249.18 164.054 Q2246.34 166.161 2241.34 166.161 Q2239.25 166.161 2236.99 165.744 Q2234.74 165.351 2232.24 164.54 L2232.24 160.142 Q2234.6 161.369 2236.89 161.994 Q2239.18 162.596 2241.43 162.596 Q2244.44 162.596 2246.06 161.578 Q2247.68 160.536 2247.68 158.661 Q2247.68 156.925 2246.5 155.999 Q2245.34 155.073 2241.38 154.216 L2239.9 153.869 Q2235.94 153.036 2234.19 151.323 Q2232.43 149.587 2232.43 146.578 Q2232.43 142.92 2235.02 140.93 Q2237.61 138.939 2242.38 138.939 Q2244.74 138.939 2246.82 139.286 Q2248.91 139.633 2250.67 140.328 Z" fill="#000000" fill-rule="nonzero" fill-opacity="1" /></svg>
