<?xml version="1.0" encoding="utf-8"?>
<svg xmlns="http://www.w3.org/2000/svg" xmlns:xlink="http://www.w3.org/1999/xlink" width="600" height="400" viewBox="0 0 2400 1600">
<defs>
  <clipPath id="clip010">
    <rect x="0" y="0" width="2400" height="1600"/>
  </clipPath>
</defs>
<path clip-path="url(#clip010)" d="M0 1600 L2400 1600 L2400 0 L0 0  Z" fill="#ffffff" fill-rule="evenodd" fill-opacity="1"/>
<defs>
  <clipPath id="clip011">
    <rect x="480" y="0" width="1681" height="1600"/>
  </clipPath>
</defs>
<path clip-path="url(#clip010)" d="M86.9921 1521.01 L2352.76 1521.01 L2352.76 47.2441 L86.9921 47.2441  Z" fill="#ffffff" fill-rule="evenodd" fill-opacity="1"/>
<defs>
  <clipPath id="clip012">
    <rect x="86" y="47" width="2267" height="1475"/>
  </clipPath>
</defs>
<polyline clip-path="url(#clip012)" style="stroke:#000000; stroke-linecap:round; stroke-linejoin:round; stroke-width:2; stroke-opacity:0.1; fill:none" points="348.327,1521.01 348.327,47.2441 "/>
<polyline clip-path="url(#clip012)" style="stroke:#000000; stroke-linecap:round; stroke-linejoin:round; stroke-width:2; stroke-opacity:0.1; fill:none" points="775.556,1521.01 775.556,47.2441 "/>
<polyline clip-path="url(#clip012)" style="stroke:#000000; stroke-linecap:round; stroke-linejoin:round; stroke-width:2; stroke-opacity:0.1; fill:none" points="1202.78,1521.01 1202.78,47.2441 "/>
<polyline clip-path="url(#clip012)" style="stroke:#000000; stroke-linecap:round; stroke-linejoin:round; stroke-width:2; stroke-opacity:0.1; fill:none" points="1630.01,1521.01 1630.01,47.2441 "/>
<polyline clip-path="url(#clip012)" style="stroke:#000000; stroke-linecap:round; stroke-linejoin:round; stroke-width:2; stroke-opacity:0.1; fill:none" points="2057.24,1521.01 2057.24,47.2441 "/>
<polyline clip-path="url(#clip010)" style="stroke:#000000; stroke-linecap:round; stroke-linejoin:round; stroke-width:4; stroke-opacity:1; fill:none" points="86.9921,1521.01 2352.76,1521.01 "/>
<polyline clip-path="url(#clip010)" style="stroke:#000000; stroke-linecap:round; stroke-linejoin:round; stroke-width:4; stroke-opacity:1; fill:none" points="348.327,1521.01 348.327,1502.11 "/>
<polyline clip-path="url(#clip010)" style="stroke:#000000; stroke-linecap:round; stroke-linejoin:round; stroke-width:4; stroke-opacity:1; fill:none" points="775.556,1521.01 775.556,1502.11 "/>
<polyline clip-path="url(#clip010)" style="stroke:#000000; stroke-linecap:round; stroke-linejoin:round; stroke-width:4; stroke-opacity:1; fill:none" points="1202.78,1521.01 1202.78,1502.11 "/>
<polyline clip-path="url(#clip010)" style="stroke:#000000; stroke-linecap:round; stroke-linejoin:round; stroke-width:4; stroke-opacity:1; fill:none" points="1630.01,1521.01 1630.01,1502.11 "/>
<polyline clip-path="url(#clip010)" style="stroke:#000000; stroke-linecap:round; stroke-linejoin:round; stroke-width:4; stroke-opacity:1; fill:none" points="2057.24,1521.01 2057.24,1502.11 "/>
<path clip-path="url(#clip010)" d="M295.549 1551.93 Q291.938 1551.93 290.109 1555.49 Q288.304 1559.03 288.304 1566.16 Q288.304 1573.27 290.109 1576.83 Q291.938 1580.38 295.549 1580.38 Q299.183 1580.38 300.989 1576.83 Q302.817 1573.27 302.817 1566.16 Q302.817 1559.03 300.989 1555.49 Q299.183 1551.93 295.549 1551.93 M295.549 1548.22 Q301.359 1548.22 304.415 1552.83 Q307.493 1557.41 307.493 1566.16 Q307.493 1574.89 304.415 1579.5 Q301.359 1584.08 295.549 1584.08 Q289.739 1584.08 286.66 1579.5 Q283.605 1574.89 283.605 1566.16 Q283.605 1557.41 286.66 1552.83 Q289.739 1548.22 295.549 1548.22 Z" fill="#000000" fill-rule="nonzero" fill-opacity="1" /><path clip-path="url(#clip010)" d="M315.711 1577.53 L320.595 1577.53 L320.595 1583.41 L315.711 1583.41 L315.711 1577.53 Z" fill="#000000" fill-rule="nonzero" fill-opacity="1" /><path clip-path="url(#clip010)" d="M343.627 1552.92 L331.822 1571.37 L343.627 1571.37 L343.627 1552.92 M342.401 1548.85 L348.28 1548.85 L348.28 1571.37 L353.211 1571.37 L353.211 1575.26 L348.28 1575.26 L348.28 1583.41 L343.627 1583.41 L343.627 1575.26 L328.026 1575.26 L328.026 1570.75 L342.401 1548.85 Z" fill="#000000" fill-rule="nonzero" fill-opacity="1" /><path clip-path="url(#clip010)" d="M370.942 1551.93 Q367.331 1551.93 365.502 1555.49 Q363.697 1559.03 363.697 1566.16 Q363.697 1573.27 365.502 1576.83 Q367.331 1580.38 370.942 1580.38 Q374.576 1580.38 376.382 1576.83 Q378.211 1573.27 378.211 1566.16 Q378.211 1559.03 376.382 1555.49 Q374.576 1551.93 370.942 1551.93 M370.942 1548.22 Q376.752 1548.22 379.808 1552.83 Q382.887 1557.41 382.887 1566.16 Q382.887 1574.89 379.808 1579.5 Q376.752 1584.08 370.942 1584.08 Q365.132 1584.08 362.053 1579.5 Q358.998 1574.89 358.998 1566.16 Q358.998 1557.41 362.053 1552.83 Q365.132 1548.22 370.942 1548.22 Z" fill="#000000" fill-rule="nonzero" fill-opacity="1" /><path clip-path="url(#clip010)" d="M401.104 1551.93 Q397.493 1551.93 395.664 1555.49 Q393.859 1559.03 393.859 1566.16 Q393.859 1573.27 395.664 1576.83 Q397.493 1580.38 401.104 1580.38 Q404.738 1580.38 406.544 1576.83 Q408.372 1573.27 408.372 1566.16 Q408.372 1559.03 406.544 1555.49 Q404.738 1551.93 401.104 1551.93 M401.104 1548.22 Q406.914 1548.22 409.97 1552.83 Q413.048 1557.41 413.048 1566.16 Q413.048 1574.89 409.97 1579.5 Q406.914 1584.08 401.104 1584.08 Q395.294 1584.08 392.215 1579.5 Q389.16 1574.89 389.16 1566.16 Q389.16 1557.41 392.215 1552.83 Q395.294 1548.22 401.104 1548.22 Z" fill="#000000" fill-rule="nonzero" fill-opacity="1" /><path clip-path="url(#clip010)" d="M723.276 1551.93 Q719.665 1551.93 717.836 1555.49 Q716.031 1559.03 716.031 1566.16 Q716.031 1573.27 717.836 1576.83 Q719.665 1580.38 723.276 1580.38 Q726.91 1580.38 728.716 1576.83 Q730.544 1573.27 730.544 1566.16 Q730.544 1559.03 728.716 1555.49 Q726.91 1551.93 723.276 1551.93 M723.276 1548.22 Q729.086 1548.22 732.142 1552.83 Q735.22 1557.41 735.22 1566.16 Q735.22 1574.89 732.142 1579.5 Q729.086 1584.08 723.276 1584.08 Q717.466 1584.08 714.387 1579.5 Q711.331 1574.89 711.331 1566.16 Q711.331 1557.41 714.387 1552.83 Q717.466 1548.22 723.276 1548.22 Z" fill="#000000" fill-rule="nonzero" fill-opacity="1" /><path clip-path="url(#clip010)" d="M743.438 1577.53 L748.322 1577.53 L748.322 1583.41 L743.438 1583.41 L743.438 1577.53 Z" fill="#000000" fill-rule="nonzero" fill-opacity="1" /><path clip-path="url(#clip010)" d="M771.354 1552.92 L759.549 1571.37 L771.354 1571.37 L771.354 1552.92 M770.127 1548.85 L776.007 1548.85 L776.007 1571.37 L780.938 1571.37 L780.938 1575.26 L776.007 1575.26 L776.007 1583.41 L771.354 1583.41 L771.354 1575.26 L755.753 1575.26 L755.753 1570.75 L770.127 1548.85 Z" fill="#000000" fill-rule="nonzero" fill-opacity="1" /><path clip-path="url(#clip010)" d="M792.697 1579.47 L809.016 1579.47 L809.016 1583.41 L787.072 1583.41 L787.072 1579.47 Q789.734 1576.72 794.317 1572.09 Q798.924 1567.44 800.104 1566.09 Q802.35 1563.57 803.229 1561.83 Q804.132 1560.07 804.132 1558.38 Q804.132 1555.63 802.187 1553.89 Q800.266 1552.16 797.164 1552.16 Q794.965 1552.16 792.512 1552.92 Q790.081 1553.69 787.303 1555.24 L787.303 1550.51 Q790.127 1549.38 792.581 1548.8 Q795.035 1548.22 797.072 1548.22 Q802.442 1548.22 805.637 1550.91 Q808.831 1553.59 808.831 1558.08 Q808.831 1560.21 808.021 1562.13 Q807.234 1564.03 805.127 1566.63 Q804.549 1567.3 801.447 1570.51 Q798.345 1573.71 792.697 1579.47 Z" fill="#000000" fill-rule="nonzero" fill-opacity="1" /><path clip-path="url(#clip010)" d="M818.877 1548.85 L837.234 1548.85 L837.234 1552.78 L823.16 1552.78 L823.16 1561.26 Q824.178 1560.91 825.197 1560.75 Q826.215 1560.56 827.234 1560.56 Q833.021 1560.56 836.4 1563.73 Q839.78 1566.9 839.78 1572.32 Q839.78 1577.9 836.308 1581 Q832.835 1584.08 826.516 1584.08 Q824.34 1584.08 822.072 1583.71 Q819.826 1583.34 817.419 1582.6 L817.419 1577.9 Q819.502 1579.03 821.724 1579.59 Q823.947 1580.14 826.423 1580.14 Q830.428 1580.14 832.766 1578.04 Q835.104 1575.93 835.104 1572.32 Q835.104 1568.71 832.766 1566.6 Q830.428 1564.5 826.423 1564.5 Q824.548 1564.5 822.673 1564.91 Q820.822 1565.33 818.877 1566.21 L818.877 1548.85 Z" fill="#000000" fill-rule="nonzero" fill-opacity="1" /><path clip-path="url(#clip010)" d="M1150.01 1551.93 Q1146.4 1551.93 1144.57 1555.49 Q1142.76 1559.03 1142.76 1566.16 Q1142.76 1573.27 1144.57 1576.83 Q1146.4 1580.38 1150.01 1580.38 Q1153.64 1580.38 1155.45 1576.83 Q1157.28 1573.27 1157.28 1566.16 Q1157.28 1559.03 1155.45 1555.49 Q1153.64 1551.93 1150.01 1551.93 M1150.01 1548.22 Q1155.82 1548.22 1158.87 1552.83 Q1161.95 1557.41 1161.95 1566.16 Q1161.95 1574.89 1158.87 1579.5 Q1155.82 1584.08 1150.01 1584.08 Q1144.2 1584.08 1141.12 1579.5 Q1138.06 1574.89 1138.06 1566.16 Q1138.06 1557.41 1141.12 1552.83 Q1144.2 1548.22 1150.01 1548.22 Z" fill="#000000" fill-rule="nonzero" fill-opacity="1" /><path clip-path="url(#clip010)" d="M1170.17 1577.53 L1175.05 1577.53 L1175.05 1583.41 L1170.17 1583.41 L1170.17 1577.53 Z" fill="#000000" fill-rule="nonzero" fill-opacity="1" /><path clip-path="url(#clip010)" d="M1198.09 1552.92 L1186.28 1571.37 L1198.09 1571.37 L1198.09 1552.92 M1196.86 1548.85 L1202.74 1548.85 L1202.74 1571.37 L1207.67 1571.37 L1207.67 1575.26 L1202.74 1575.26 L1202.74 1583.41 L1198.09 1583.41 L1198.09 1575.26 L1182.48 1575.26 L1182.48 1570.75 L1196.86 1548.85 Z" fill="#000000" fill-rule="nonzero" fill-opacity="1" /><path clip-path="url(#clip010)" d="M1215.45 1548.85 L1233.8 1548.85 L1233.8 1552.78 L1219.73 1552.78 L1219.73 1561.26 Q1220.75 1560.91 1221.77 1560.75 Q1222.78 1560.56 1223.8 1560.56 Q1229.59 1560.56 1232.97 1563.73 Q1236.35 1566.9 1236.35 1572.32 Q1236.35 1577.9 1232.88 1581 Q1229.41 1584.08 1223.09 1584.08 Q1220.91 1584.08 1218.64 1583.71 Q1216.4 1583.34 1213.99 1582.6 L1213.99 1577.9 Q1216.07 1579.03 1218.29 1579.59 Q1220.52 1580.14 1222.99 1580.14 Q1227 1580.14 1229.34 1578.04 Q1231.67 1575.93 1231.67 1572.32 Q1231.67 1568.71 1229.34 1566.6 Q1227 1564.5 1222.99 1564.5 Q1221.12 1564.5 1219.24 1564.91 Q1217.39 1565.33 1215.45 1566.21 L1215.45 1548.85 Z" fill="#000000" fill-rule="nonzero" fill-opacity="1" /><path clip-path="url(#clip010)" d="M1255.56 1551.93 Q1251.95 1551.93 1250.12 1555.49 Q1248.32 1559.03 1248.32 1566.16 Q1248.32 1573.27 1250.12 1576.83 Q1251.95 1580.38 1255.56 1580.38 Q1259.2 1580.38 1261 1576.83 Q1262.83 1573.27 1262.83 1566.16 Q1262.83 1559.03 1261 1555.49 Q1259.2 1551.93 1255.56 1551.93 M1255.56 1548.22 Q1261.37 1548.22 1264.43 1552.83 Q1267.51 1557.41 1267.51 1566.16 Q1267.51 1574.89 1264.43 1579.5 Q1261.37 1584.08 1255.56 1584.08 Q1249.75 1584.08 1246.67 1579.5 Q1243.62 1574.89 1243.62 1566.16 Q1243.62 1557.41 1246.67 1552.83 Q1249.75 1548.22 1255.56 1548.22 Z" fill="#000000" fill-rule="nonzero" fill-opacity="1" /><path clip-path="url(#clip010)" d="M1577.73 1551.93 Q1574.12 1551.93 1572.29 1555.49 Q1570.49 1559.03 1570.49 1566.16 Q1570.49 1573.27 1572.29 1576.83 Q1574.12 1580.38 1577.73 1580.38 Q1581.37 1580.38 1583.17 1576.83 Q1585 1573.27 1585 1566.16 Q1585 1559.03 1583.17 1555.49 Q1581.37 1551.93 1577.73 1551.93 M1577.73 1548.22 Q1583.54 1548.22 1586.6 1552.83 Q1589.68 1557.41 1589.68 1566.16 Q1589.68 1574.89 1586.6 1579.5 Q1583.54 1584.08 1577.73 1584.08 Q1571.92 1584.08 1568.85 1579.5 Q1565.79 1574.89 1565.79 1566.16 Q1565.79 1557.41 1568.85 1552.83 Q1571.92 1548.22 1577.73 1548.22 Z" fill="#000000" fill-rule="nonzero" fill-opacity="1" /><path clip-path="url(#clip010)" d="M1597.9 1577.53 L1602.78 1577.53 L1602.78 1583.41 L1597.9 1583.41 L1597.9 1577.53 Z" fill="#000000" fill-rule="nonzero" fill-opacity="1" /><path clip-path="url(#clip010)" d="M1625.81 1552.92 L1614.01 1571.37 L1625.81 1571.37 L1625.81 1552.92 M1624.59 1548.85 L1630.47 1548.85 L1630.47 1571.37 L1635.4 1571.37 L1635.4 1575.26 L1630.47 1575.26 L1630.47 1583.41 L1625.81 1583.41 L1625.81 1575.26 L1610.21 1575.26 L1610.21 1570.75 L1624.59 1548.85 Z" fill="#000000" fill-rule="nonzero" fill-opacity="1" /><path clip-path="url(#clip010)" d="M1641.95 1548.85 L1664.17 1548.85 L1664.17 1550.84 L1651.62 1583.41 L1646.74 1583.41 L1658.54 1552.78 L1641.95 1552.78 L1641.95 1548.85 Z" fill="#000000" fill-rule="nonzero" fill-opacity="1" /><path clip-path="url(#clip010)" d="M1673.34 1548.85 L1691.69 1548.85 L1691.69 1552.78 L1677.62 1552.78 L1677.62 1561.26 Q1678.64 1560.91 1679.65 1560.75 Q1680.67 1560.56 1681.69 1560.56 Q1687.48 1560.56 1690.86 1563.73 Q1694.24 1566.9 1694.24 1572.32 Q1694.24 1577.9 1690.77 1581 Q1687.29 1584.08 1680.97 1584.08 Q1678.8 1584.08 1676.53 1583.71 Q1674.28 1583.34 1671.88 1582.6 L1671.88 1577.9 Q1673.96 1579.03 1676.18 1579.59 Q1678.4 1580.14 1680.88 1580.14 Q1684.89 1580.14 1687.22 1578.04 Q1689.56 1575.93 1689.56 1572.32 Q1689.56 1568.71 1687.22 1566.6 Q1684.89 1564.5 1680.88 1564.5 Q1679.01 1564.5 1677.13 1564.91 Q1675.28 1565.33 1673.34 1566.21 L1673.34 1548.85 Z" fill="#000000" fill-rule="nonzero" fill-opacity="1" /><path clip-path="url(#clip010)" d="M2004.47 1551.93 Q2000.85 1551.93 1999.03 1555.49 Q1997.22 1559.03 1997.22 1566.16 Q1997.22 1573.27 1999.03 1576.83 Q2000.85 1580.38 2004.47 1580.38 Q2008.1 1580.38 2009.91 1576.83 Q2011.73 1573.27 2011.73 1566.16 Q2011.73 1559.03 2009.91 1555.49 Q2008.1 1551.93 2004.47 1551.93 M2004.47 1548.22 Q2010.28 1548.22 2013.33 1552.83 Q2016.41 1557.41 2016.41 1566.16 Q2016.41 1574.89 2013.33 1579.5 Q2010.28 1584.08 2004.47 1584.08 Q1998.66 1584.08 1995.58 1579.5 Q1992.52 1574.89 1992.52 1566.16 Q1992.52 1557.41 1995.58 1552.83 Q1998.66 1548.22 2004.47 1548.22 Z" fill="#000000" fill-rule="nonzero" fill-opacity="1" /><path clip-path="url(#clip010)" d="M2024.63 1577.53 L2029.51 1577.53 L2029.51 1583.41 L2024.63 1583.41 L2024.63 1577.53 Z" fill="#000000" fill-rule="nonzero" fill-opacity="1" /><path clip-path="url(#clip010)" d="M2039.74 1548.85 L2058.1 1548.85 L2058.1 1552.78 L2044.03 1552.78 L2044.03 1561.26 Q2045.04 1560.91 2046.06 1560.75 Q2047.08 1560.56 2048.1 1560.56 Q2053.89 1560.56 2057.27 1563.73 Q2060.65 1566.9 2060.65 1572.32 Q2060.65 1577.9 2057.17 1581 Q2053.7 1584.08 2047.38 1584.08 Q2045.21 1584.08 2042.94 1583.71 Q2040.69 1583.34 2038.28 1582.6 L2038.28 1577.9 Q2040.37 1579.03 2042.59 1579.59 Q2044.81 1580.14 2047.29 1580.14 Q2051.29 1580.14 2053.63 1578.04 Q2055.97 1575.93 2055.97 1572.32 Q2055.97 1568.71 2053.63 1566.6 Q2051.29 1564.5 2047.29 1564.5 Q2045.41 1564.5 2043.54 1564.91 Q2041.69 1565.33 2039.74 1566.21 L2039.74 1548.85 Z" fill="#000000" fill-rule="nonzero" fill-opacity="1" /><path clip-path="url(#clip010)" d="M2079.86 1551.93 Q2076.25 1551.93 2074.42 1555.49 Q2072.61 1559.03 2072.61 1566.16 Q2072.61 1573.27 2074.42 1576.83 Q2076.25 1580.38 2079.86 1580.38 Q2083.49 1580.38 2085.3 1576.83 Q2087.13 1573.27 2087.13 1566.16 Q2087.13 1559.03 2085.3 1555.49 Q2083.49 1551.93 2079.86 1551.93 M2079.86 1548.22 Q2085.67 1548.22 2088.72 1552.83 Q2091.8 1557.41 2091.8 1566.16 Q2091.8 1574.89 2088.72 1579.5 Q2085.67 1584.08 2079.86 1584.08 Q2074.05 1584.08 2070.97 1579.5 Q2067.91 1574.89 2067.91 1566.16 Q2067.91 1557.41 2070.97 1552.83 Q2074.05 1548.22 2079.86 1548.22 Z" fill="#000000" fill-rule="nonzero" fill-opacity="1" /><path clip-path="url(#clip010)" d="M2110.02 1551.93 Q2106.41 1551.93 2104.58 1555.49 Q2102.78 1559.03 2102.78 1566.16 Q2102.78 1573.27 2104.58 1576.83 Q2106.41 1580.38 2110.02 1580.38 Q2113.65 1580.38 2115.46 1576.83 Q2117.29 1573.27 2117.29 1566.16 Q2117.29 1559.03 2115.46 1555.49 Q2113.65 1551.93 2110.02 1551.93 M2110.02 1548.22 Q2115.83 1548.22 2118.89 1552.83 Q2121.97 1557.41 2121.97 1566.16 Q2121.97 1574.89 2118.89 1579.5 Q2115.83 1584.08 2110.02 1584.08 Q2104.21 1584.08 2101.13 1579.5 Q2098.08 1574.89 2098.08 1566.16 Q2098.08 1557.41 2101.13 1552.83 Q2104.21 1548.22 2110.02 1548.22 Z" fill="#000000" fill-rule="nonzero" fill-opacity="1" /><polyline clip-path="url(#clip012)" style="stroke:#000000; stroke-linecap:round; stroke-linejoin:round; stroke-width:2; stroke-opacity:0.1; fill:none" points="86.9921,1521.01 2352.76,1521.01 "/>
<polyline clip-path="url(#clip012)" style="stroke:#000000; stroke-linecap:round; stroke-linejoin:round; stroke-width:2; stroke-opacity:0.1; fill:none" points="86.9921,1265.15 2352.76,1265.15 "/>
<polyline clip-path="url(#clip012)" style="stroke:#000000; stroke-linecap:round; stroke-linejoin:round; stroke-width:2; stroke-opacity:0.1; fill:none" points="86.9921,1009.28 2352.76,1009.28 "/>
<polyline clip-path="url(#clip012)" style="stroke:#000000; stroke-linecap:round; stroke-linejoin:round; stroke-width:2; stroke-opacity:0.1; fill:none" points="86.9921,753.423 2352.76,753.423 "/>
<polyline clip-path="url(#clip012)" style="stroke:#000000; stroke-linecap:round; stroke-linejoin:round; stroke-width:2; stroke-opacity:0.1; fill:none" points="86.9921,497.561 2352.76,497.561 "/>
<polyline clip-path="url(#clip012)" style="stroke:#000000; stroke-linecap:round; stroke-linejoin:round; stroke-width:2; stroke-opacity:0.1; fill:none" points="86.9921,241.699 2352.76,241.699 "/>
<polyline clip-path="url(#clip010)" style="stroke:#000000; stroke-linecap:round; stroke-linejoin:round; stroke-width:4; stroke-opacity:1; fill:none" points="86.9921,1521.01 86.9921,47.2441 "/>
<polyline clip-path="url(#clip010)" style="stroke:#000000; stroke-linecap:round; stroke-linejoin:round; stroke-width:4; stroke-opacity:1; fill:none" points="86.9921,1521.01 105.89,1521.01 "/>
<polyline clip-path="url(#clip010)" style="stroke:#000000; stroke-linecap:round; stroke-linejoin:round; stroke-width:4; stroke-opacity:1; fill:none" points="86.9921,1265.15 105.89,1265.15 "/>
<polyline clip-path="url(#clip010)" style="stroke:#000000; stroke-linecap:round; stroke-linejoin:round; stroke-width:4; stroke-opacity:1; fill:none" points="86.9921,1009.28 105.89,1009.28 "/>
<polyline clip-path="url(#clip010)" style="stroke:#000000; stroke-linecap:round; stroke-linejoin:round; stroke-width:4; stroke-opacity:1; fill:none" points="86.9921,753.423 105.89,753.423 "/>
<polyline clip-path="url(#clip010)" style="stroke:#000000; stroke-linecap:round; stroke-linejoin:round; stroke-width:4; stroke-opacity:1; fill:none" points="86.9921,497.561 105.89,497.561 "/>
<polyline clip-path="url(#clip010)" style="stroke:#000000; stroke-linecap:round; stroke-linejoin:round; stroke-width:4; stroke-opacity:1; fill:none" points="86.9921,241.699 105.89,241.699 "/>
<path clip-path="url(#clip010)" d="M10.8708 1521.01 Q10.8708 1524.62 14.4356 1526.45 Q17.9773 1528.25 25.1068 1528.25 Q32.2133 1528.25 35.7781 1526.45 Q39.3197 1524.62 39.3197 1521.01 Q39.3197 1517.37 35.7781 1515.57 Q32.2133 1513.74 25.1068 1513.74 Q17.9773 1513.74 14.4356 1515.57 Q10.8708 1517.37 10.8708 1521.01 M7.16713 1521.01 Q7.16713 1515.2 11.7736 1512.14 Q16.3569 1509.06 25.1068 1509.06 Q33.8337 1509.06 38.4401 1512.14 Q43.0234 1515.2 43.0234 1521.01 Q43.0234 1526.82 38.4401 1529.9 Q33.8337 1532.95 25.1068 1532.95 Q16.3569 1532.95 11.7736 1529.9 Q7.16713 1526.82 7.16713 1521.01 Z" fill="#000000" fill-rule="nonzero" fill-opacity="1" /><path clip-path="url(#clip010)" d="M38.417 1305.54 L38.417 1297.9 L12.0514 1297.9 L13.718 1306.21 L9.45878 1306.21 L7.79213 1297.95 L7.79213 1293.27 L38.417 1293.27 L38.417 1285.63 L42.3521 1285.63 L42.3521 1305.54 L38.417 1305.54 Z" fill="#000000" fill-rule="nonzero" fill-opacity="1" /><path clip-path="url(#clip010)" d="M10.8708 1266.19 Q10.8708 1269.8 14.4356 1271.63 Q17.9773 1273.43 25.1068 1273.43 Q32.2133 1273.43 35.7781 1271.63 Q39.3197 1269.8 39.3197 1266.19 Q39.3197 1262.55 35.7781 1260.75 Q32.2133 1258.92 25.1068 1258.92 Q17.9773 1258.92 14.4356 1260.75 Q10.8708 1262.55 10.8708 1266.19 M7.16713 1266.19 Q7.16713 1260.38 11.7736 1257.32 Q16.3569 1254.24 25.1068 1254.24 Q33.8337 1254.24 38.4401 1257.32 Q43.0234 1260.38 43.0234 1266.19 Q43.0234 1272 38.4401 1275.08 Q33.8337 1278.13 25.1068 1278.13 Q16.3569 1278.13 11.7736 1275.08 Q7.16713 1272 7.16713 1266.19 Z" fill="#000000" fill-rule="nonzero" fill-opacity="1" /><path clip-path="url(#clip010)" d="M10.8708 1236.03 Q10.8708 1239.64 14.4356 1241.47 Q17.9773 1243.27 25.1068 1243.27 Q32.2133 1243.27 35.7781 1241.47 Q39.3197 1239.64 39.3197 1236.03 Q39.3197 1232.39 35.7781 1230.59 Q32.2133 1228.76 25.1068 1228.76 Q17.9773 1228.76 14.4356 1230.59 Q10.8708 1232.39 10.8708 1236.03 M7.16713 1236.03 Q7.16713 1230.22 11.7736 1227.16 Q16.3569 1224.08 25.1068 1224.08 Q33.8337 1224.08 38.4401 1227.16 Q43.0234 1230.22 43.0234 1236.03 Q43.0234 1241.84 38.4401 1244.91 Q33.8337 1247.97 25.1068 1247.97 Q16.3569 1247.97 11.7736 1244.91 Q7.16713 1241.84 7.16713 1236.03 Z" fill="#000000" fill-rule="nonzero" fill-opacity="1" /><path clip-path="url(#clip010)" d="M38.417 1045.59 L38.417 1029.27 L42.3521 1029.27 L42.3521 1051.22 L38.417 1051.22 Q35.6623 1048.55 31.0327 1043.97 Q26.38 1039.37 25.0374 1038.18 Q22.5143 1035.94 20.7782 1035.06 Q19.0189 1034.16 17.3291 1034.16 Q14.5745 1034.16 12.8384 1036.1 Q11.1023 1038.02 11.1023 1041.12 Q11.1023 1043.32 11.8662 1045.78 Q12.6301 1048.21 14.181 1050.99 L9.45878 1050.99 Q8.32453 1048.16 7.74583 1045.71 Q7.16713 1043.25 7.16713 1041.22 Q7.16713 1035.85 9.8523 1032.65 Q12.5375 1029.46 17.0282 1029.46 Q19.1578 1029.46 21.0791 1030.27 Q22.9772 1031.06 25.5698 1033.16 Q26.2411 1033.74 29.4587 1036.84 Q32.6531 1039.94 38.417 1045.59 Z" fill="#000000" fill-rule="nonzero" fill-opacity="1" /><path clip-path="url(#clip010)" d="M10.8708 1009.46 Q10.8708 1013.07 14.4356 1014.9 Q17.9773 1016.7 25.1068 1016.7 Q32.2133 1016.7 35.7781 1014.9 Q39.3197 1013.07 39.3197 1009.46 Q39.3197 1005.82 35.7781 1004.02 Q32.2133 1002.19 25.1068 1002.19 Q17.9773 1002.19 14.4356 1004.02 Q10.8708 1005.82 10.8708 1009.46 M7.16713 1009.46 Q7.16713 1003.65 11.7736 1000.59 Q16.3569 997.514 25.1068 997.514 Q33.8337 997.514 38.4401 1000.59 Q43.0234 1003.65 43.0234 1009.46 Q43.0234 1015.27 38.4401 1018.35 Q33.8337 1021.4 25.1068 1021.4 Q16.3569 1021.4 11.7736 1018.35 Q7.16713 1015.27 7.16713 1009.46 Z" fill="#000000" fill-rule="nonzero" fill-opacity="1" /><path clip-path="url(#clip010)" d="M10.8708 979.296 Q10.8708 982.907 14.4356 984.736 Q17.9773 986.541 25.1068 986.541 Q32.2133 986.541 35.7781 984.736 Q39.3197 982.907 39.3197 979.296 Q39.3197 975.662 35.7781 973.856 Q32.2133 972.028 25.1068 972.028 Q17.9773 972.028 14.4356 973.856 Q10.8708 975.662 10.8708 979.296 M7.16713 979.296 Q7.16713 973.486 11.7736 970.43 Q16.3569 967.352 25.1068 967.352 Q33.8337 967.352 38.4401 970.43 Q43.0234 973.486 43.0234 979.296 Q43.0234 985.106 38.4401 988.185 Q33.8337 991.24 25.1068 991.24 Q16.3569 991.24 11.7736 988.185 Q7.16713 985.106 7.16713 979.296 Z" fill="#000000" fill-rule="nonzero" fill-opacity="1" /><path clip-path="url(#clip010)" d="M23.718 779.661 Q24.4356 776.304 26.7041 774.429 Q28.9726 772.531 32.3059 772.531 Q37.4216 772.531 40.2225 776.05 Q43.0234 779.568 43.0234 786.05 Q43.0234 788.226 42.5836 790.54 Q42.1669 792.832 41.3105 795.286 L36.7966 795.286 Q37.9309 793.341 38.5096 791.027 Q39.0883 788.712 39.0883 786.189 Q39.0883 781.79 37.3522 779.499 Q35.6161 777.184 32.3059 777.184 Q29.2503 777.184 27.5374 779.337 Q25.8013 781.466 25.8013 785.286 L25.8013 789.314 L21.9587 789.314 L21.9587 785.101 Q21.9587 781.652 20.593 779.823 Q19.2041 777.994 16.6115 777.994 Q13.9495 777.994 12.5375 779.892 Q11.1023 781.767 11.1023 785.286 Q11.1023 787.207 11.519 789.406 Q11.9356 791.605 12.8152 794.244 L8.6486 794.244 Q7.90787 791.582 7.5375 789.267 Q7.16713 786.929 7.16713 784.869 Q7.16713 779.545 9.59767 776.443 Q12.0051 773.341 16.1254 773.341 Q18.9958 773.341 20.9865 774.985 Q22.9541 776.628 23.718 779.661 Z" fill="#000000" fill-rule="nonzero" fill-opacity="1" /><path clip-path="url(#clip010)" d="M10.8708 753.666 Q10.8708 757.277 14.4356 759.105 Q17.9773 760.911 25.1068 760.911 Q32.2133 760.911 35.7781 759.105 Q39.3197 757.277 39.3197 753.666 Q39.3197 750.031 35.7781 748.226 Q32.2133 746.397 25.1068 746.397 Q17.9773 746.397 14.4356 748.226 Q10.8708 750.031 10.8708 753.666 M7.16713 753.666 Q7.16713 747.855 11.7736 744.8 Q16.3569 741.721 25.1068 741.721 Q33.8337 741.721 38.4401 744.8 Q43.0234 747.855 43.0234 753.666 Q43.0234 759.476 38.4401 762.554 Q33.8337 765.61 25.1068 765.61 Q16.3569 765.61 11.7736 762.554 Q7.16713 759.476 7.16713 753.666 Z" fill="#000000" fill-rule="nonzero" fill-opacity="1" /><path clip-path="url(#clip010)" d="M10.8708 723.504 Q10.8708 727.115 14.4356 728.944 Q17.9773 730.749 25.1068 730.749 Q32.2133 730.749 35.7781 728.944 Q39.3197 727.115 39.3197 723.504 Q39.3197 719.87 35.7781 718.064 Q32.2133 716.235 25.1068 716.235 Q17.9773 716.235 14.4356 718.064 Q10.8708 719.87 10.8708 723.504 M7.16713 723.504 Q7.16713 717.694 11.7736 714.638 Q16.3569 711.559 25.1068 711.559 Q33.8337 711.559 38.4401 714.638 Q43.0234 717.694 43.0234 723.504 Q43.0234 729.314 38.4401 732.393 Q33.8337 735.448 25.1068 735.448 Q16.3569 735.448 11.7736 732.393 Q7.16713 729.314 7.16713 723.504 Z" fill="#000000" fill-rule="nonzero" fill-opacity="1" /><path clip-path="url(#clip010)" d="M11.8662 524.47 L30.3152 536.276 L30.3152 524.47 L11.8662 524.47 M7.79213 525.697 L7.79213 519.818 L30.3152 519.818 L30.3152 514.887 L34.204 514.887 L34.204 519.818 L42.3521 519.818 L42.3521 524.47 L34.204 524.47 L34.204 540.072 L29.6902 540.072 L7.79213 525.697 Z" fill="#000000" fill-rule="nonzero" fill-opacity="1" /><path clip-path="url(#clip010)" d="M10.8708 497.156 Q10.8708 500.767 14.4356 502.596 Q17.9773 504.401 25.1068 504.401 Q32.2133 504.401 35.7781 502.596 Q39.3197 500.767 39.3197 497.156 Q39.3197 493.521 35.7781 491.716 Q32.2133 489.887 25.1068 489.887 Q17.9773 489.887 14.4356 491.716 Q10.8708 493.521 10.8708 497.156 M7.16713 497.156 Q7.16713 491.346 11.7736 488.29 Q16.3569 485.211 25.1068 485.211 Q33.8337 485.211 38.4401 488.29 Q43.0234 491.346 43.0234 497.156 Q43.0234 502.966 38.4401 506.045 Q33.8337 509.1 25.1068 509.1 Q16.3569 509.1 11.7736 506.045 Q7.16713 502.966 7.16713 497.156 Z" fill="#000000" fill-rule="nonzero" fill-opacity="1" /><path clip-path="url(#clip010)" d="M10.8708 466.994 Q10.8708 470.605 14.4356 472.434 Q17.9773 474.239 25.1068 474.239 Q32.2133 474.239 35.7781 472.434 Q39.3197 470.605 39.3197 466.994 Q39.3197 463.36 35.7781 461.554 Q32.2133 459.725 25.1068 459.725 Q17.9773 459.725 14.4356 461.554 Q10.8708 463.36 10.8708 466.994 M7.16713 466.994 Q7.16713 461.184 11.7736 458.128 Q16.3569 455.049 25.1068 455.049 Q33.8337 455.049 38.4401 458.128 Q43.0234 461.184 43.0234 466.994 Q43.0234 472.804 38.4401 475.883 Q33.8337 478.938 25.1068 478.938 Q16.3569 478.938 11.7736 475.883 Q7.16713 472.804 7.16713 466.994 Z" fill="#000000" fill-rule="nonzero" fill-opacity="1" /><path clip-path="url(#clip010)" d="M7.79213 282.081 L7.79213 263.724 L11.7273 263.724 L11.7273 277.798 L20.1995 277.798 Q19.8522 276.78 19.6902 275.761 Q19.505 274.743 19.505 273.724 Q19.505 267.937 22.6763 264.558 Q25.8476 261.178 31.2642 261.178 Q36.8429 261.178 39.9447 264.65 Q43.0234 268.123 43.0234 274.442 Q43.0234 276.618 42.6531 278.886 Q42.2827 281.132 41.5419 283.539 L36.8429 283.539 Q37.9771 281.456 38.5327 279.234 Q39.0883 277.011 39.0883 274.535 Q39.0883 270.53 36.9818 268.192 Q34.8753 265.854 31.2642 265.854 Q27.6531 265.854 25.5467 268.192 Q23.4402 270.53 23.4402 274.535 Q23.4402 276.409 23.8569 278.284 Q24.2735 280.136 25.1531 282.081 L7.79213 282.081 Z" fill="#000000" fill-rule="nonzero" fill-opacity="1" /><path clip-path="url(#clip010)" d="M10.8708 241.965 Q10.8708 245.576 14.4356 247.405 Q17.9773 249.211 25.1068 249.211 Q32.2133 249.211 35.7781 247.405 Q39.3197 245.576 39.3197 241.965 Q39.3197 238.331 35.7781 236.525 Q32.2133 234.697 25.1068 234.697 Q17.9773 234.697 14.4356 236.525 Q10.8708 238.331 10.8708 241.965 M7.16713 241.965 Q7.16713 236.155 11.7736 233.1 Q16.3569 230.021 25.1068 230.021 Q33.8337 230.021 38.4401 233.1 Q43.0234 236.155 43.0234 241.965 Q43.0234 247.775 38.4401 250.854 Q33.8337 253.91 25.1068 253.91 Q16.3569 253.91 11.7736 250.854 Q7.16713 247.775 7.16713 241.965 Z" fill="#000000" fill-rule="nonzero" fill-opacity="1" /><path clip-path="url(#clip010)" d="M10.8708 211.803 Q10.8708 215.414 14.4356 217.243 Q17.9773 219.049 25.1068 219.049 Q32.2133 219.049 35.7781 217.243 Q39.3197 215.414 39.3197 211.803 Q39.3197 208.169 35.7781 206.364 Q32.2133 204.535 25.1068 204.535 Q17.9773 204.535 14.4356 206.364 Q10.8708 208.169 10.8708 211.803 M7.16713 211.803 Q7.16713 205.993 11.7736 202.938 Q16.3569 199.859 25.1068 199.859 Q33.8337 199.859 38.4401 202.938 Q43.0234 205.993 43.0234 211.803 Q43.0234 217.614 38.4401 220.692 Q33.8337 223.748 25.1068 223.748 Q16.3569 223.748 11.7736 220.692 Q7.16713 217.614 7.16713 211.803 Z" fill="#000000" fill-rule="nonzero" fill-opacity="1" /><path clip-path="url(#clip012)" d="M211.613 1518.45 L211.613 1521.01 L245.792 1521.01 L245.792 1518.45 L211.613 1518.45 L211.613 1518.45  Z" fill="#009af9" fill-rule="evenodd" fill-opacity="1"/>
<polyline clip-path="url(#clip012)" style="stroke:#000000; stroke-linecap:round; stroke-linejoin:round; stroke-width:4; stroke-opacity:1; fill:none" points="211.613,1518.45 211.613,1521.01 245.792,1521.01 245.792,1518.45 211.613,1518.45 "/>
<path clip-path="url(#clip012)" d="M245.792 1518.45 L245.792 1521.01 L279.97 1521.01 L279.97 1518.45 L245.792 1518.45 L245.792 1518.45  Z" fill="#009af9" fill-rule="evenodd" fill-opacity="1"/>
<polyline clip-path="url(#clip012)" style="stroke:#000000; stroke-linecap:round; stroke-linejoin:round; stroke-width:4; stroke-opacity:1; fill:none" points="245.792,1518.45 245.792,1521.01 279.97,1521.01 279.97,1518.45 245.792,1518.45 "/>
<path clip-path="url(#clip012)" d="M279.97 1518.45 L279.97 1521.01 L314.148 1521.01 L314.148 1518.45 L279.97 1518.45 L279.97 1518.45  Z" fill="#009af9" fill-rule="evenodd" fill-opacity="1"/>
<polyline clip-path="url(#clip012)" style="stroke:#000000; stroke-linecap:round; stroke-linejoin:round; stroke-width:4; stroke-opacity:1; fill:none" points="279.97,1518.45 279.97,1521.01 314.148,1521.01 314.148,1518.45 279.97,1518.45 "/>
<path clip-path="url(#clip012)" d="M314.148 1513.33 L314.148 1521.01 L348.327 1521.01 L348.327 1513.33 L314.148 1513.33 L314.148 1513.33  Z" fill="#009af9" fill-rule="evenodd" fill-opacity="1"/>
<polyline clip-path="url(#clip012)" style="stroke:#000000; stroke-linecap:round; stroke-linejoin:round; stroke-width:4; stroke-opacity:1; fill:none" points="314.148,1513.33 314.148,1521.01 348.327,1521.01 348.327,1513.33 314.148,1513.33 "/>
<path clip-path="url(#clip012)" d="M348.327 1515.89 L348.327 1521.01 L382.505 1521.01 L382.505 1515.89 L348.327 1515.89 L348.327 1515.89  Z" fill="#009af9" fill-rule="evenodd" fill-opacity="1"/>
<polyline clip-path="url(#clip012)" style="stroke:#000000; stroke-linecap:round; stroke-linejoin:round; stroke-width:4; stroke-opacity:1; fill:none" points="348.327,1515.89 348.327,1521.01 382.505,1521.01 382.505,1515.89 348.327,1515.89 "/>
<path clip-path="url(#clip012)" d="M382.505 1500.54 L382.505 1521.01 L416.683 1521.01 L416.683 1500.54 L382.505 1500.54 L382.505 1500.54  Z" fill="#009af9" fill-rule="evenodd" fill-opacity="1"/>
<polyline clip-path="url(#clip012)" style="stroke:#000000; stroke-linecap:round; stroke-linejoin:round; stroke-width:4; stroke-opacity:1; fill:none" points="382.505,1500.54 382.505,1521.01 416.683,1521.01 416.683,1500.54 382.505,1500.54 "/>
<path clip-path="url(#clip012)" d="M416.683 1508.21 L416.683 1521.01 L450.862 1521.01 L450.862 1508.21 L416.683 1508.21 L416.683 1508.21  Z" fill="#009af9" fill-rule="evenodd" fill-opacity="1"/>
<polyline clip-path="url(#clip012)" style="stroke:#000000; stroke-linecap:round; stroke-linejoin:round; stroke-width:4; stroke-opacity:1; fill:none" points="416.683,1508.21 416.683,1521.01 450.862,1521.01 450.862,1508.21 416.683,1508.21 "/>
<path clip-path="url(#clip012)" d="M450.862 1492.86 L450.862 1521.01 L485.04 1521.01 L485.04 1492.86 L450.862 1492.86 L450.862 1492.86  Z" fill="#009af9" fill-rule="evenodd" fill-opacity="1"/>
<polyline clip-path="url(#clip012)" style="stroke:#000000; stroke-linecap:round; stroke-linejoin:round; stroke-width:4; stroke-opacity:1; fill:none" points="450.862,1492.86 450.862,1521.01 485.04,1521.01 485.04,1492.86 450.862,1492.86 "/>
<path clip-path="url(#clip012)" d="M485.04 1485.19 L485.04 1521.01 L519.218 1521.01 L519.218 1485.19 L485.04 1485.19 L485.04 1485.19  Z" fill="#009af9" fill-rule="evenodd" fill-opacity="1"/>
<polyline clip-path="url(#clip012)" style="stroke:#000000; stroke-linecap:round; stroke-linejoin:round; stroke-width:4; stroke-opacity:1; fill:none" points="485.04,1485.19 485.04,1521.01 519.218,1521.01 519.218,1485.19 485.04,1485.19 "/>
<path clip-path="url(#clip012)" d="M519.218 1462.16 L519.218 1521.01 L553.397 1521.01 L553.397 1462.16 L519.218 1462.16 L519.218 1462.16  Z" fill="#009af9" fill-rule="evenodd" fill-opacity="1"/>
<polyline clip-path="url(#clip012)" style="stroke:#000000; stroke-linecap:round; stroke-linejoin:round; stroke-width:4; stroke-opacity:1; fill:none" points="519.218,1462.16 519.218,1521.01 553.397,1521.01 553.397,1462.16 519.218,1462.16 "/>
<path clip-path="url(#clip012)" d="M553.397 1459.6 L553.397 1521.01 L587.575 1521.01 L587.575 1459.6 L553.397 1459.6 L553.397 1459.6  Z" fill="#009af9" fill-rule="evenodd" fill-opacity="1"/>
<polyline clip-path="url(#clip012)" style="stroke:#000000; stroke-linecap:round; stroke-linejoin:round; stroke-width:4; stroke-opacity:1; fill:none" points="553.397,1459.6 553.397,1521.01 587.575,1521.01 587.575,1459.6 553.397,1459.6 "/>
<path clip-path="url(#clip012)" d="M587.575 1393.08 L587.575 1521.01 L621.753 1521.01 L621.753 1393.08 L587.575 1393.08 L587.575 1393.08  Z" fill="#009af9" fill-rule="evenodd" fill-opacity="1"/>
<polyline clip-path="url(#clip012)" style="stroke:#000000; stroke-linecap:round; stroke-linejoin:round; stroke-width:4; stroke-opacity:1; fill:none" points="587.575,1393.08 587.575,1521.01 621.753,1521.01 621.753,1393.08 587.575,1393.08 "/>
<path clip-path="url(#clip012)" d="M621.753 1357.26 L621.753 1521.01 L655.932 1521.01 L655.932 1357.26 L621.753 1357.26 L621.753 1357.26  Z" fill="#009af9" fill-rule="evenodd" fill-opacity="1"/>
<polyline clip-path="url(#clip012)" style="stroke:#000000; stroke-linecap:round; stroke-linejoin:round; stroke-width:4; stroke-opacity:1; fill:none" points="621.753,1357.26 621.753,1521.01 655.932,1521.01 655.932,1357.26 621.753,1357.26 "/>
<path clip-path="url(#clip012)" d="M655.932 1321.44 L655.932 1521.01 L690.11 1521.01 L690.11 1321.44 L655.932 1321.44 L655.932 1321.44  Z" fill="#009af9" fill-rule="evenodd" fill-opacity="1"/>
<polyline clip-path="url(#clip012)" style="stroke:#000000; stroke-linecap:round; stroke-linejoin:round; stroke-width:4; stroke-opacity:1; fill:none" points="655.932,1321.44 655.932,1521.01 690.11,1521.01 690.11,1321.44 655.932,1321.44 "/>
<path clip-path="url(#clip012)" d="M690.11 1270.26 L690.11 1521.01 L724.288 1521.01 L724.288 1270.26 L690.11 1270.26 L690.11 1270.26  Z" fill="#009af9" fill-rule="evenodd" fill-opacity="1"/>
<polyline clip-path="url(#clip012)" style="stroke:#000000; stroke-linecap:round; stroke-linejoin:round; stroke-width:4; stroke-opacity:1; fill:none" points="690.11,1270.26 690.11,1521.01 724.288,1521.01 724.288,1270.26 690.11,1270.26 "/>
<path clip-path="url(#clip012)" d="M724.288 1229.33 L724.288 1521.01 L758.467 1521.01 L758.467 1229.33 L724.288 1229.33 L724.288 1229.33  Z" fill="#009af9" fill-rule="evenodd" fill-opacity="1"/>
<polyline clip-path="url(#clip012)" style="stroke:#000000; stroke-linecap:round; stroke-linejoin:round; stroke-width:4; stroke-opacity:1; fill:none" points="724.288,1229.33 724.288,1521.01 758.467,1521.01 758.467,1229.33 724.288,1229.33 "/>
<path clip-path="url(#clip012)" d="M758.467 1175.59 L758.467 1521.01 L792.645 1521.01 L792.645 1175.59 L758.467 1175.59 L758.467 1175.59  Z" fill="#009af9" fill-rule="evenodd" fill-opacity="1"/>
<polyline clip-path="url(#clip012)" style="stroke:#000000; stroke-linecap:round; stroke-linejoin:round; stroke-width:4; stroke-opacity:1; fill:none" points="758.467,1175.59 758.467,1521.01 792.645,1521.01 792.645,1175.59 758.467,1175.59 "/>
<path clip-path="url(#clip012)" d="M792.645 1098.84 L792.645 1521.01 L826.823 1521.01 L826.823 1098.84 L792.645 1098.84 L792.645 1098.84  Z" fill="#009af9" fill-rule="evenodd" fill-opacity="1"/>
<polyline clip-path="url(#clip012)" style="stroke:#000000; stroke-linecap:round; stroke-linejoin:round; stroke-width:4; stroke-opacity:1; fill:none" points="792.645,1098.84 792.645,1521.01 826.823,1521.01 826.823,1098.84 792.645,1098.84 "/>
<path clip-path="url(#clip012)" d="M826.823 978.581 L826.823 1521.01 L861.002 1521.01 L861.002 978.581 L826.823 978.581 L826.823 978.581  Z" fill="#009af9" fill-rule="evenodd" fill-opacity="1"/>
<polyline clip-path="url(#clip012)" style="stroke:#000000; stroke-linecap:round; stroke-linejoin:round; stroke-width:4; stroke-opacity:1; fill:none" points="826.823,978.581 826.823,1521.01 861.002,1521.01 861.002,978.581 826.823,978.581 "/>
<path clip-path="url(#clip012)" d="M861.002 917.174 L861.002 1521.01 L895.18 1521.01 L895.18 917.174 L861.002 917.174 L861.002 917.174  Z" fill="#009af9" fill-rule="evenodd" fill-opacity="1"/>
<polyline clip-path="url(#clip012)" style="stroke:#000000; stroke-linecap:round; stroke-linejoin:round; stroke-width:4; stroke-opacity:1; fill:none" points="861.002,917.174 861.002,1521.01 895.18,1521.01 895.18,917.174 861.002,917.174 "/>
<path clip-path="url(#clip012)" d="M895.18 835.298 L895.18 1521.01 L929.358 1521.01 L929.358 835.298 L895.18 835.298 L895.18 835.298  Z" fill="#009af9" fill-rule="evenodd" fill-opacity="1"/>
<polyline clip-path="url(#clip012)" style="stroke:#000000; stroke-linecap:round; stroke-linejoin:round; stroke-width:4; stroke-opacity:1; fill:none" points="895.18,835.298 895.18,1521.01 929.358,1521.01 929.358,835.298 895.18,835.298 "/>
<path clip-path="url(#clip012)" d="M929.358 656.195 L929.358 1521.01 L963.537 1521.01 L963.537 656.195 L929.358 656.195 L929.358 656.195  Z" fill="#009af9" fill-rule="evenodd" fill-opacity="1"/>
<polyline clip-path="url(#clip012)" style="stroke:#000000; stroke-linecap:round; stroke-linejoin:round; stroke-width:4; stroke-opacity:1; fill:none" points="929.358,656.195 929.358,1521.01 963.537,1521.01 963.537,656.195 929.358,656.195 "/>
<path clip-path="url(#clip012)" d="M963.537 548.733 L963.537 1521.01 L997.715 1521.01 L997.715 548.733 L963.537 548.733 L963.537 548.733  Z" fill="#009af9" fill-rule="evenodd" fill-opacity="1"/>
<polyline clip-path="url(#clip012)" style="stroke:#000000; stroke-linecap:round; stroke-linejoin:round; stroke-width:4; stroke-opacity:1; fill:none" points="963.537,548.733 963.537,1521.01 997.715,1521.01 997.715,548.733 963.537,548.733 "/>
<path clip-path="url(#clip012)" d="M997.715 492.444 L997.715 1521.01 L1031.89 1521.01 L1031.89 492.444 L997.715 492.444 L997.715 492.444  Z" fill="#009af9" fill-rule="evenodd" fill-opacity="1"/>
<polyline clip-path="url(#clip012)" style="stroke:#000000; stroke-linecap:round; stroke-linejoin:round; stroke-width:4; stroke-opacity:1; fill:none" points="997.715,492.444 997.715,1521.01 1031.89,1521.01 1031.89,492.444 997.715,492.444 "/>
<path clip-path="url(#clip012)" d="M1031.89 390.099 L1031.89 1521.01 L1066.07 1521.01 L1066.07 390.099 L1031.89 390.099 L1031.89 390.099  Z" fill="#009af9" fill-rule="evenodd" fill-opacity="1"/>
<polyline clip-path="url(#clip012)" style="stroke:#000000; stroke-linecap:round; stroke-linejoin:round; stroke-width:4; stroke-opacity:1; fill:none" points="1031.89,390.099 1031.89,1521.01 1066.07,1521.01 1066.07,390.099 1031.89,390.099 "/>
<path clip-path="url(#clip012)" d="M1066.07 297.989 L1066.07 1521.01 L1100.25 1521.01 L1100.25 297.989 L1066.07 297.989 L1066.07 297.989  Z" fill="#009af9" fill-rule="evenodd" fill-opacity="1"/>
<polyline clip-path="url(#clip012)" style="stroke:#000000; stroke-linecap:round; stroke-linejoin:round; stroke-width:4; stroke-opacity:1; fill:none" points="1066.07,297.989 1066.07,1521.01 1100.25,1521.01 1100.25,297.989 1066.07,297.989 "/>
<path clip-path="url(#clip012)" d="M1100.25 285.196 L1100.25 1521.01 L1134.43 1521.01 L1134.43 285.196 L1100.25 285.196 L1100.25 285.196  Z" fill="#009af9" fill-rule="evenodd" fill-opacity="1"/>
<polyline clip-path="url(#clip012)" style="stroke:#000000; stroke-linecap:round; stroke-linejoin:round; stroke-width:4; stroke-opacity:1; fill:none" points="1100.25,285.196 1100.25,1521.01 1134.43,1521.01 1134.43,285.196 1100.25,285.196 "/>
<path clip-path="url(#clip012)" d="M1134.43 175.175 L1134.43 1521.01 L1168.61 1521.01 L1168.61 175.175 L1134.43 175.175 L1134.43 175.175  Z" fill="#009af9" fill-rule="evenodd" fill-opacity="1"/>
<polyline clip-path="url(#clip012)" style="stroke:#000000; stroke-linecap:round; stroke-linejoin:round; stroke-width:4; stroke-opacity:1; fill:none" points="1134.43,175.175 1134.43,1521.01 1168.61,1521.01 1168.61,175.175 1134.43,175.175 "/>
<path clip-path="url(#clip012)" d="M1168.61 218.671 L1168.61 1521.01 L1202.78 1521.01 L1202.78 218.671 L1168.61 218.671 L1168.61 218.671  Z" fill="#009af9" fill-rule="evenodd" fill-opacity="1"/>
<polyline clip-path="url(#clip012)" style="stroke:#000000; stroke-linecap:round; stroke-linejoin:round; stroke-width:4; stroke-opacity:1; fill:none" points="1168.61,218.671 1168.61,1521.01 1202.78,1521.01 1202.78,218.671 1168.61,218.671 "/>
<path clip-path="url(#clip012)" d="M1202.78 47.2441 L1202.78 1521.01 L1236.96 1521.01 L1236.96 47.2441 L1202.78 47.2441 L1202.78 47.2441  Z" fill="#009af9" fill-rule="evenodd" fill-opacity="1"/>
<polyline clip-path="url(#clip012)" style="stroke:#000000; stroke-linecap:round; stroke-linejoin:round; stroke-width:4; stroke-opacity:1; fill:none" points="1202.78,47.2441 1202.78,1521.01 1236.96,1521.01 1236.96,47.2441 1202.78,47.2441 "/>
<path clip-path="url(#clip012)" d="M1236.96 310.782 L1236.96 1521.01 L1271.14 1521.01 L1271.14 310.782 L1236.96 310.782 L1236.96 310.782  Z" fill="#009af9" fill-rule="evenodd" fill-opacity="1"/>
<polyline clip-path="url(#clip012)" style="stroke:#000000; stroke-linecap:round; stroke-linejoin:round; stroke-width:4; stroke-opacity:1; fill:none" points="1236.96,310.782 1236.96,1521.01 1271.14,1521.01 1271.14,310.782 1236.96,310.782 "/>
<path clip-path="url(#clip012)" d="M1271.14 295.43 L1271.14 1521.01 L1305.32 1521.01 L1305.32 295.43 L1271.14 295.43 L1271.14 295.43  Z" fill="#009af9" fill-rule="evenodd" fill-opacity="1"/>
<polyline clip-path="url(#clip012)" style="stroke:#000000; stroke-linecap:round; stroke-linejoin:round; stroke-width:4; stroke-opacity:1; fill:none" points="1271.14,295.43 1271.14,1521.01 1305.32,1521.01 1305.32,295.43 1271.14,295.43 "/>
<path clip-path="url(#clip012)" d="M1305.32 479.65 L1305.32 1521.01 L1339.5 1521.01 L1339.5 479.65 L1305.32 479.65 L1305.32 479.65  Z" fill="#009af9" fill-rule="evenodd" fill-opacity="1"/>
<polyline clip-path="url(#clip012)" style="stroke:#000000; stroke-linecap:round; stroke-linejoin:round; stroke-width:4; stroke-opacity:1; fill:none" points="1305.32,479.65 1305.32,1521.01 1339.5,1521.01 1339.5,479.65 1305.32,479.65 "/>
<path clip-path="url(#clip012)" d="M1339.5 505.237 L1339.5 1521.01 L1373.68 1521.01 L1373.68 505.237 L1339.5 505.237 L1339.5 505.237  Z" fill="#009af9" fill-rule="evenodd" fill-opacity="1"/>
<polyline clip-path="url(#clip012)" style="stroke:#000000; stroke-linecap:round; stroke-linejoin:round; stroke-width:4; stroke-opacity:1; fill:none" points="1339.5,505.237 1339.5,1521.01 1373.68,1521.01 1373.68,505.237 1339.5,505.237 "/>
<path clip-path="url(#clip012)" d="M1373.68 484.768 L1373.68 1521.01 L1407.85 1521.01 L1407.85 484.768 L1373.68 484.768 L1373.68 484.768  Z" fill="#009af9" fill-rule="evenodd" fill-opacity="1"/>
<polyline clip-path="url(#clip012)" style="stroke:#000000; stroke-linecap:round; stroke-linejoin:round; stroke-width:4; stroke-opacity:1; fill:none" points="1373.68,484.768 1373.68,1521.01 1407.85,1521.01 1407.85,484.768 1373.68,484.768 "/>
<path clip-path="url(#clip012)" d="M1407.85 663.871 L1407.85 1521.01 L1442.03 1521.01 L1442.03 663.871 L1407.85 663.871 L1407.85 663.871  Z" fill="#009af9" fill-rule="evenodd" fill-opacity="1"/>
<polyline clip-path="url(#clip012)" style="stroke:#000000; stroke-linecap:round; stroke-linejoin:round; stroke-width:4; stroke-opacity:1; fill:none" points="1407.85,663.871 1407.85,1521.01 1442.03,1521.01 1442.03,663.871 1407.85,663.871 "/>
<path clip-path="url(#clip012)" d="M1442.03 758.54 L1442.03 1521.01 L1476.21 1521.01 L1476.21 758.54 L1442.03 758.54 L1442.03 758.54  Z" fill="#009af9" fill-rule="evenodd" fill-opacity="1"/>
<polyline clip-path="url(#clip012)" style="stroke:#000000; stroke-linecap:round; stroke-linejoin:round; stroke-width:4; stroke-opacity:1; fill:none" points="1442.03,758.54 1442.03,1521.01 1476.21,1521.01 1476.21,758.54 1442.03,758.54 "/>
<path clip-path="url(#clip012)" d="M1476.21 758.54 L1476.21 1521.01 L1510.39 1521.01 L1510.39 758.54 L1476.21 758.54 L1476.21 758.54  Z" fill="#009af9" fill-rule="evenodd" fill-opacity="1"/>
<polyline clip-path="url(#clip012)" style="stroke:#000000; stroke-linecap:round; stroke-linejoin:round; stroke-width:4; stroke-opacity:1; fill:none" points="1476.21,758.54 1476.21,1521.01 1510.39,1521.01 1510.39,758.54 1476.21,758.54 "/>
<path clip-path="url(#clip012)" d="M1510.39 912.057 L1510.39 1521.01 L1544.57 1521.01 L1544.57 912.057 L1510.39 912.057 L1510.39 912.057  Z" fill="#009af9" fill-rule="evenodd" fill-opacity="1"/>
<polyline clip-path="url(#clip012)" style="stroke:#000000; stroke-linecap:round; stroke-linejoin:round; stroke-width:4; stroke-opacity:1; fill:none" points="1510.39,912.057 1510.39,1521.01 1544.57,1521.01 1544.57,912.057 1510.39,912.057 "/>
<path clip-path="url(#clip012)" d="M1544.57 991.374 L1544.57 1521.01 L1578.75 1521.01 L1578.75 991.374 L1544.57 991.374 L1544.57 991.374  Z" fill="#009af9" fill-rule="evenodd" fill-opacity="1"/>
<polyline clip-path="url(#clip012)" style="stroke:#000000; stroke-linecap:round; stroke-linejoin:round; stroke-width:4; stroke-opacity:1; fill:none" points="1544.57,991.374 1544.57,1521.01 1578.75,1521.01 1578.75,991.374 1544.57,991.374 "/>
<path clip-path="url(#clip012)" d="M1578.75 1057.9 L1578.75 1521.01 L1612.92 1521.01 L1612.92 1057.9 L1578.75 1057.9 L1578.75 1057.9  Z" fill="#009af9" fill-rule="evenodd" fill-opacity="1"/>
<polyline clip-path="url(#clip012)" style="stroke:#000000; stroke-linecap:round; stroke-linejoin:round; stroke-width:4; stroke-opacity:1; fill:none" points="1578.75,1057.9 1578.75,1521.01 1612.92,1521.01 1612.92,1057.9 1578.75,1057.9 "/>
<path clip-path="url(#clip012)" d="M1612.92 1178.15 L1612.92 1521.01 L1647.1 1521.01 L1647.1 1178.15 L1612.92 1178.15 L1612.92 1178.15  Z" fill="#009af9" fill-rule="evenodd" fill-opacity="1"/>
<polyline clip-path="url(#clip012)" style="stroke:#000000; stroke-linecap:round; stroke-linejoin:round; stroke-width:4; stroke-opacity:1; fill:none" points="1612.92,1178.15 1612.92,1521.01 1647.1,1521.01 1647.1,1178.15 1612.92,1178.15 "/>
<path clip-path="url(#clip012)" d="M1647.1 1257.47 L1647.1 1521.01 L1681.28 1521.01 L1681.28 1257.47 L1647.1 1257.47 L1647.1 1257.47  Z" fill="#009af9" fill-rule="evenodd" fill-opacity="1"/>
<polyline clip-path="url(#clip012)" style="stroke:#000000; stroke-linecap:round; stroke-linejoin:round; stroke-width:4; stroke-opacity:1; fill:none" points="1647.1,1257.47 1647.1,1521.01 1681.28,1521.01 1681.28,1257.47 1647.1,1257.47 "/>
<path clip-path="url(#clip012)" d="M1681.28 1249.79 L1681.28 1521.01 L1715.46 1521.01 L1715.46 1249.79 L1681.28 1249.79 L1681.28 1249.79  Z" fill="#009af9" fill-rule="evenodd" fill-opacity="1"/>
<polyline clip-path="url(#clip012)" style="stroke:#000000; stroke-linecap:round; stroke-linejoin:round; stroke-width:4; stroke-opacity:1; fill:none" points="1681.28,1249.79 1681.28,1521.01 1715.46,1521.01 1715.46,1249.79 1681.28,1249.79 "/>
<path clip-path="url(#clip012)" d="M1715.46 1316.32 L1715.46 1521.01 L1749.64 1521.01 L1749.64 1316.32 L1715.46 1316.32 L1715.46 1316.32  Z" fill="#009af9" fill-rule="evenodd" fill-opacity="1"/>
<polyline clip-path="url(#clip012)" style="stroke:#000000; stroke-linecap:round; stroke-linejoin:round; stroke-width:4; stroke-opacity:1; fill:none" points="1715.46,1316.32 1715.46,1521.01 1749.64,1521.01 1749.64,1316.32 1715.46,1316.32 "/>
<path clip-path="url(#clip012)" d="M1749.64 1385.4 L1749.64 1521.01 L1783.82 1521.01 L1783.82 1385.4 L1749.64 1385.4 L1749.64 1385.4  Z" fill="#009af9" fill-rule="evenodd" fill-opacity="1"/>
<polyline clip-path="url(#clip012)" style="stroke:#000000; stroke-linecap:round; stroke-linejoin:round; stroke-width:4; stroke-opacity:1; fill:none" points="1749.64,1385.4 1749.64,1521.01 1783.82,1521.01 1783.82,1385.4 1749.64,1385.4 "/>
<path clip-path="url(#clip012)" d="M1783.82 1387.96 L1783.82 1521.01 L1817.99 1521.01 L1817.99 1387.96 L1783.82 1387.96 L1783.82 1387.96  Z" fill="#009af9" fill-rule="evenodd" fill-opacity="1"/>
<polyline clip-path="url(#clip012)" style="stroke:#000000; stroke-linecap:round; stroke-linejoin:round; stroke-width:4; stroke-opacity:1; fill:none" points="1783.82,1387.96 1783.82,1521.01 1817.99,1521.01 1817.99,1387.96 1783.82,1387.96 "/>
<path clip-path="url(#clip012)" d="M1817.99 1444.25 L1817.99 1521.01 L1852.17 1521.01 L1852.17 1444.25 L1817.99 1444.25 L1817.99 1444.25  Z" fill="#009af9" fill-rule="evenodd" fill-opacity="1"/>
<polyline clip-path="url(#clip012)" style="stroke:#000000; stroke-linecap:round; stroke-linejoin:round; stroke-width:4; stroke-opacity:1; fill:none" points="1817.99,1444.25 1817.99,1521.01 1852.17,1521.01 1852.17,1444.25 1817.99,1444.25 "/>
<path clip-path="url(#clip012)" d="M1852.17 1459.6 L1852.17 1521.01 L1886.35 1521.01 L1886.35 1459.6 L1852.17 1459.6 L1852.17 1459.6  Z" fill="#009af9" fill-rule="evenodd" fill-opacity="1"/>
<polyline clip-path="url(#clip012)" style="stroke:#000000; stroke-linecap:round; stroke-linejoin:round; stroke-width:4; stroke-opacity:1; fill:none" points="1852.17,1459.6 1852.17,1521.01 1886.35,1521.01 1886.35,1459.6 1852.17,1459.6 "/>
<path clip-path="url(#clip012)" d="M1886.35 1464.72 L1886.35 1521.01 L1920.53 1521.01 L1920.53 1464.72 L1886.35 1464.72 L1886.35 1464.72  Z" fill="#009af9" fill-rule="evenodd" fill-opacity="1"/>
<polyline clip-path="url(#clip012)" style="stroke:#000000; stroke-linecap:round; stroke-linejoin:round; stroke-width:4; stroke-opacity:1; fill:none" points="1886.35,1464.72 1886.35,1521.01 1920.53,1521.01 1920.53,1464.72 1886.35,1464.72 "/>
<path clip-path="url(#clip012)" d="M1920.53 1505.66 L1920.53 1521.01 L1954.71 1521.01 L1954.71 1505.66 L1920.53 1505.66 L1920.53 1505.66  Z" fill="#009af9" fill-rule="evenodd" fill-opacity="1"/>
<polyline clip-path="url(#clip012)" style="stroke:#000000; stroke-linecap:round; stroke-linejoin:round; stroke-width:4; stroke-opacity:1; fill:none" points="1920.53,1505.66 1920.53,1521.01 1954.71,1521.01 1954.71,1505.66 1920.53,1505.66 "/>
<path clip-path="url(#clip012)" d="M1954.71 1490.3 L1954.71 1521.01 L1988.89 1521.01 L1988.89 1490.3 L1954.71 1490.3 L1954.71 1490.3  Z" fill="#009af9" fill-rule="evenodd" fill-opacity="1"/>
<polyline clip-path="url(#clip012)" style="stroke:#000000; stroke-linecap:round; stroke-linejoin:round; stroke-width:4; stroke-opacity:1; fill:none" points="1954.71,1490.3 1954.71,1521.01 1988.89,1521.01 1988.89,1490.3 1954.71,1490.3 "/>
<path clip-path="url(#clip012)" d="M1988.89 1518.45 L1988.89 1521.01 L2023.06 1521.01 L2023.06 1518.45 L1988.89 1518.45 L1988.89 1518.45  Z" fill="#009af9" fill-rule="evenodd" fill-opacity="1"/>
<polyline clip-path="url(#clip012)" style="stroke:#000000; stroke-linecap:round; stroke-linejoin:round; stroke-width:4; stroke-opacity:1; fill:none" points="1988.89,1518.45 1988.89,1521.01 2023.06,1521.01 2023.06,1518.45 1988.89,1518.45 "/>
<path clip-path="url(#clip012)" d="M2023.06 1518.45 L2023.06 1521.01 L2057.24 1521.01 L2057.24 1518.45 L2023.06 1518.45 L2023.06 1518.45  Z" fill="#009af9" fill-rule="evenodd" fill-opacity="1"/>
<polyline clip-path="url(#clip012)" style="stroke:#000000; stroke-linecap:round; stroke-linejoin:round; stroke-width:4; stroke-opacity:1; fill:none" points="2023.06,1518.45 2023.06,1521.01 2057.24,1521.01 2057.24,1518.45 2023.06,1518.45 "/>
<path clip-path="url(#clip012)" d="M2057.24 1510.77 L2057.24 1521.01 L2091.42 1521.01 L2091.42 1510.77 L2057.24 1510.77 L2057.24 1510.77  Z" fill="#009af9" fill-rule="evenodd" fill-opacity="1"/>
<polyline clip-path="url(#clip012)" style="stroke:#000000; stroke-linecap:round; stroke-linejoin:round; stroke-width:4; stroke-opacity:1; fill:none" points="2057.24,1510.77 2057.24,1521.01 2091.42,1521.01 2091.42,1510.77 2057.24,1510.77 "/>
<path clip-path="url(#clip012)" d="M2091.42 1510.77 L2091.42 1521.01 L2125.6 1521.01 L2125.6 1510.77 L2091.42 1510.77 L2091.42 1510.77  Z" fill="#009af9" fill-rule="evenodd" fill-opacity="1"/>
<polyline clip-path="url(#clip012)" style="stroke:#000000; stroke-linecap:round; stroke-linejoin:round; stroke-width:4; stroke-opacity:1; fill:none" points="2091.42,1510.77 2091.42,1521.01 2125.6,1521.01 2125.6,1510.77 2091.42,1510.77 "/>
<path clip-path="url(#clip012)" d="M2125.6 1518.45 L2125.6 1521.01 L2159.78 1521.01 L2159.78 1518.45 L2125.6 1518.45 L2125.6 1518.45  Z" fill="#009af9" fill-rule="evenodd" fill-opacity="1"/>
<polyline clip-path="url(#clip012)" style="stroke:#000000; stroke-linecap:round; stroke-linejoin:round; stroke-width:4; stroke-opacity:1; fill:none" points="2125.6,1518.45 2125.6,1521.01 2159.78,1521.01 2159.78,1518.45 2125.6,1518.45 "/>
<path clip-path="url(#clip012)" d="M2159.78 1518.45 L2159.78 1521.01 L2193.96 1521.01 L2193.96 1518.45 L2159.78 1518.45 L2159.78 1518.45  Z" fill="#009af9" fill-rule="evenodd" fill-opacity="1"/>
<polyline clip-path="url(#clip012)" style="stroke:#000000; stroke-linecap:round; stroke-linejoin:round; stroke-width:4; stroke-opacity:1; fill:none" points="2159.78,1518.45 2159.78,1521.01 2193.96,1521.01 2193.96,1518.45 2159.78,1518.45 "/>
<path clip-path="url(#clip012)" d="M2193.96 1518.45 L2193.96 1521.01 L2228.13 1521.01 L2228.13 1518.45 L2193.96 1518.45 L2193.96 1518.45  Z" fill="#009af9" fill-rule="evenodd" fill-opacity="1"/>
<polyline clip-path="url(#clip012)" style="stroke:#000000; stroke-linecap:round; stroke-linejoin:round; stroke-width:4; stroke-opacity:1; fill:none" points="2193.96,1518.45 2193.96,1521.01 2228.13,1521.01 2228.13,1518.45 2193.96,1518.45 "/>
<circle clip-path="url(#clip012)" style="fill:#009af9; stroke:none; fill-opacity:0" cx="228.702" cy="1518.45" r="2"/>
<circle clip-path="url(#clip012)" style="fill:#009af9; stroke:none; fill-opacity:0" cx="262.881" cy="1518.45" r="2"/>
<circle clip-path="url(#clip012)" style="fill:#009af9; stroke:none; fill-opacity:0" cx="297.059" cy="1518.45" r="2"/>
<circle clip-path="url(#clip012)" style="fill:#009af9; stroke:none; fill-opacity:0" cx="331.237" cy="1513.33" r="2"/>
<circle clip-path="url(#clip012)" style="fill:#009af9; stroke:none; fill-opacity:0" cx="365.416" cy="1515.89" r="2"/>
<circle clip-path="url(#clip012)" style="fill:#009af9; stroke:none; fill-opacity:0" cx="399.594" cy="1500.54" r="2"/>
<circle clip-path="url(#clip012)" style="fill:#009af9; stroke:none; fill-opacity:0" cx="433.772" cy="1508.21" r="2"/>
<circle clip-path="url(#clip012)" style="fill:#009af9; stroke:none; fill-opacity:0" cx="467.951" cy="1492.86" r="2"/>
<circle clip-path="url(#clip012)" style="fill:#009af9; stroke:none; fill-opacity:0" cx="502.129" cy="1485.19" r="2"/>
<circle clip-path="url(#clip012)" style="fill:#009af9; stroke:none; fill-opacity:0" cx="536.307" cy="1462.16" r="2"/>
<circle clip-path="url(#clip012)" style="fill:#009af9; stroke:none; fill-opacity:0" cx="570.486" cy="1459.6" r="2"/>
<circle clip-path="url(#clip012)" style="fill:#009af9; stroke:none; fill-opacity:0" cx="604.664" cy="1393.08" r="2"/>
<circle clip-path="url(#clip012)" style="fill:#009af9; stroke:none; fill-opacity:0" cx="638.842" cy="1357.26" r="2"/>
<circle clip-path="url(#clip012)" style="fill:#009af9; stroke:none; fill-opacity:0" cx="673.021" cy="1321.44" r="2"/>
<circle clip-path="url(#clip012)" style="fill:#009af9; stroke:none; fill-opacity:0" cx="707.199" cy="1270.26" r="2"/>
<circle clip-path="url(#clip012)" style="fill:#009af9; stroke:none; fill-opacity:0" cx="741.377" cy="1229.33" r="2"/>
<circle clip-path="url(#clip012)" style="fill:#009af9; stroke:none; fill-opacity:0" cx="775.556" cy="1175.59" r="2"/>
<circle clip-path="url(#clip012)" style="fill:#009af9; stroke:none; fill-opacity:0" cx="809.734" cy="1098.84" r="2"/>
<circle clip-path="url(#clip012)" style="fill:#009af9; stroke:none; fill-opacity:0" cx="843.912" cy="978.581" r="2"/>
<circle clip-path="url(#clip012)" style="fill:#009af9; stroke:none; fill-opacity:0" cx="878.091" cy="917.174" r="2"/>
<circle clip-path="url(#clip012)" style="fill:#009af9; stroke:none; fill-opacity:0" cx="912.269" cy="835.298" r="2"/>
<circle clip-path="url(#clip012)" style="fill:#009af9; stroke:none; fill-opacity:0" cx="946.447" cy="656.195" r="2"/>
<circle clip-path="url(#clip012)" style="fill:#009af9; stroke:none; fill-opacity:0" cx="980.626" cy="548.733" r="2"/>
<circle clip-path="url(#clip012)" style="fill:#009af9; stroke:none; fill-opacity:0" cx="1014.8" cy="492.444" r="2"/>
<circle clip-path="url(#clip012)" style="fill:#009af9; stroke:none; fill-opacity:0" cx="1048.98" cy="390.099" r="2"/>
<circle clip-path="url(#clip012)" style="fill:#009af9; stroke:none; fill-opacity:0" cx="1083.16" cy="297.989" r="2"/>
<circle clip-path="url(#clip012)" style="fill:#009af9; stroke:none; fill-opacity:0" cx="1117.34" cy="285.196" r="2"/>
<circle clip-path="url(#clip012)" style="fill:#009af9; stroke:none; fill-opacity:0" cx="1151.52" cy="175.175" r="2"/>
<circle clip-path="url(#clip012)" style="fill:#009af9; stroke:none; fill-opacity:0" cx="1185.7" cy="218.671" r="2"/>
<circle clip-path="url(#clip012)" style="fill:#009af9; stroke:none; fill-opacity:0" cx="1219.87" cy="47.2441" r="2"/>
<circle clip-path="url(#clip012)" style="fill:#009af9; stroke:none; fill-opacity:0" cx="1254.05" cy="310.782" r="2"/>
<circle clip-path="url(#clip012)" style="fill:#009af9; stroke:none; fill-opacity:0" cx="1288.23" cy="295.43" r="2"/>
<circle clip-path="url(#clip012)" style="fill:#009af9; stroke:none; fill-opacity:0" cx="1322.41" cy="479.65" r="2"/>
<circle clip-path="url(#clip012)" style="fill:#009af9; stroke:none; fill-opacity:0" cx="1356.59" cy="505.237" r="2"/>
<circle clip-path="url(#clip012)" style="fill:#009af9; stroke:none; fill-opacity:0" cx="1390.77" cy="484.768" r="2"/>
<circle clip-path="url(#clip012)" style="fill:#009af9; stroke:none; fill-opacity:0" cx="1424.94" cy="663.871" r="2"/>
<circle clip-path="url(#clip012)" style="fill:#009af9; stroke:none; fill-opacity:0" cx="1459.12" cy="758.54" r="2"/>
<circle clip-path="url(#clip012)" style="fill:#009af9; stroke:none; fill-opacity:0" cx="1493.3" cy="758.54" r="2"/>
<circle clip-path="url(#clip012)" style="fill:#009af9; stroke:none; fill-opacity:0" cx="1527.48" cy="912.057" r="2"/>
<circle clip-path="url(#clip012)" style="fill:#009af9; stroke:none; fill-opacity:0" cx="1561.66" cy="991.374" r="2"/>
<circle clip-path="url(#clip012)" style="fill:#009af9; stroke:none; fill-opacity:0" cx="1595.84" cy="1057.9" r="2"/>
<circle clip-path="url(#clip012)" style="fill:#009af9; stroke:none; fill-opacity:0" cx="1630.01" cy="1178.15" r="2"/>
<circle clip-path="url(#clip012)" style="fill:#009af9; stroke:none; fill-opacity:0" cx="1664.19" cy="1257.47" r="2"/>
<circle clip-path="url(#clip012)" style="fill:#009af9; stroke:none; fill-opacity:0" cx="1698.37" cy="1249.79" r="2"/>
<circle clip-path="url(#clip012)" style="fill:#009af9; stroke:none; fill-opacity:0" cx="1732.55" cy="1316.32" r="2"/>
<circle clip-path="url(#clip012)" style="fill:#009af9; stroke:none; fill-opacity:0" cx="1766.73" cy="1385.4" r="2"/>
<circle clip-path="url(#clip012)" style="fill:#009af9; stroke:none; fill-opacity:0" cx="1800.91" cy="1387.96" r="2"/>
<circle clip-path="url(#clip012)" style="fill:#009af9; stroke:none; fill-opacity:0" cx="1835.08" cy="1444.25" r="2"/>
<circle clip-path="url(#clip012)" style="fill:#009af9; stroke:none; fill-opacity:0" cx="1869.26" cy="1459.6" r="2"/>
<circle clip-path="url(#clip012)" style="fill:#009af9; stroke:none; fill-opacity:0" cx="1903.44" cy="1464.72" r="2"/>
<circle clip-path="url(#clip012)" style="fill:#009af9; stroke:none; fill-opacity:0" cx="1937.62" cy="1505.66" r="2"/>
<circle clip-path="url(#clip012)" style="fill:#009af9; stroke:none; fill-opacity:0" cx="1971.8" cy="1490.3" r="2"/>
<circle clip-path="url(#clip012)" style="fill:#009af9; stroke:none; fill-opacity:0" cx="2005.98" cy="1518.45" r="2"/>
<circle clip-path="url(#clip012)" style="fill:#009af9; stroke:none; fill-opacity:0" cx="2040.15" cy="1518.45" r="2"/>
<circle clip-path="url(#clip012)" style="fill:#009af9; stroke:none; fill-opacity:0" cx="2074.33" cy="1510.77" r="2"/>
<circle clip-path="url(#clip012)" style="fill:#009af9; stroke:none; fill-opacity:0" cx="2108.51" cy="1510.77" r="2"/>
<circle clip-path="url(#clip012)" style="fill:#009af9; stroke:none; fill-opacity:0" cx="2142.69" cy="1518.45" r="2"/>
<circle clip-path="url(#clip012)" style="fill:#009af9; stroke:none; fill-opacity:0" cx="2176.87" cy="1518.45" r="2"/>
<circle clip-path="url(#clip012)" style="fill:#009af9; stroke:none; fill-opacity:0" cx="2211.05" cy="1518.45" r="2"/>
<path clip-path="url(#clip010)" d="M1842.25 200.05 L2277.23 200.05 L2277.23 96.3696 L1842.25 96.3696  Z" fill="#ffffff" fill-rule="evenodd" fill-opacity="1"/>
<polyline clip-path="url(#clip010)" style="stroke:#000000; stroke-linecap:round; stroke-linejoin:round; stroke-width:4; stroke-opacity:1; fill:none" points="1842.25,200.05 2277.23,200.05 2277.23,96.3696 1842.25,96.3696 1842.25,200.05 "/>
<path clip-path="url(#clip010)" d="M1867.43 168.946 L2018.48 168.946 L2018.48 127.474 L1867.43 127.474 L1867.43 168.946  Z" fill="#009af9" fill-rule="evenodd" fill-opacity="1"/>
<polyline clip-path="url(#clip010)" style="stroke:#000000; stroke-linecap:round; stroke-linejoin:round; stroke-width:4; stroke-opacity:1; fill:none" points="1867.43,168.946 2018.48,168.946 2018.48,127.474 1867.43,127.474 1867.43,168.946 "/>
<path clip-path="url(#clip010)" d="M2047.94 161.601 L2047.94 175.351 L2043.65 175.351 L2043.65 139.564 L2047.94 139.564 L2047.94 143.499 Q2049.28 141.184 2051.32 140.073 Q2053.38 138.939 2056.22 138.939 Q2060.95 138.939 2063.89 142.689 Q2066.85 146.439 2066.85 152.55 Q2066.85 158.661 2063.89 162.411 Q2060.95 166.161 2056.22 166.161 Q2053.38 166.161 2051.32 165.05 Q2049.28 163.915 2047.94 161.601 M2062.43 152.55 Q2062.43 147.851 2060.48 145.189 Q2058.56 142.504 2055.18 142.504 Q2051.8 142.504 2049.86 145.189 Q2047.94 147.851 2047.94 152.55 Q2047.94 157.249 2049.86 159.934 Q2051.8 162.596 2055.18 162.596 Q2058.56 162.596 2060.48 159.934 Q2062.43 157.249 2062.43 152.55 Z" fill="#000000" fill-rule="nonzero" fill-opacity="1" /><path clip-path="url(#clip010)" d="M2083.95 142.55 Q2080.53 142.55 2078.54 145.235 Q2076.55 147.897 2076.55 152.55 Q2076.55 157.203 2078.51 159.888 Q2080.51 162.55 2083.95 162.55 Q2087.36 162.55 2089.35 159.865 Q2091.34 157.179 2091.34 152.55 Q2091.34 147.943 2089.35 145.258 Q2087.36 142.55 2083.95 142.55 M2083.95 138.939 Q2089.51 138.939 2092.68 142.55 Q2095.85 146.161 2095.85 152.55 Q2095.85 158.916 2092.68 162.55 Q2089.51 166.161 2083.95 166.161 Q2078.38 166.161 2075.2 162.55 Q2072.06 158.916 2072.06 152.55 Q2072.06 146.161 2075.2 142.55 Q2078.38 138.939 2083.95 138.939 Z" fill="#000000" fill-rule="nonzero" fill-opacity="1" /><path clip-path="url(#clip010)" d="M2119.44 140.328 L2119.44 144.355 Q2117.63 143.429 2115.69 142.967 Q2113.75 142.504 2111.66 142.504 Q2108.49 142.504 2106.89 143.476 Q2105.32 144.448 2105.32 146.392 Q2105.32 147.874 2106.45 148.73 Q2107.59 149.564 2111.01 150.328 L2112.47 150.652 Q2117.01 151.624 2118.91 153.406 Q2120.83 155.166 2120.83 158.337 Q2120.83 161.948 2117.96 164.054 Q2115.11 166.161 2110.11 166.161 Q2108.03 166.161 2105.76 165.744 Q2103.51 165.351 2101.01 164.54 L2101.01 160.142 Q2103.38 161.369 2105.67 161.994 Q2107.96 162.596 2110.2 162.596 Q2113.21 162.596 2114.83 161.578 Q2116.45 160.536 2116.45 158.661 Q2116.45 156.925 2115.27 155.999 Q2114.12 155.073 2110.16 154.216 L2108.68 153.869 Q2104.72 153.036 2102.96 151.323 Q2101.2 149.587 2101.2 146.578 Q2101.2 142.92 2103.79 140.93 Q2106.38 138.939 2111.15 138.939 Q2113.51 138.939 2115.6 139.286 Q2117.68 139.633 2119.44 140.328 Z" fill="#000000" fill-rule="nonzero" fill-opacity="1" /><path clip-path="url(#clip010)" d="M2131.82 132.203 L2131.82 139.564 L2140.6 139.564 L2140.6 142.874 L2131.82 142.874 L2131.82 156.948 Q2131.82 160.119 2132.68 161.022 Q2133.56 161.925 2136.22 161.925 L2140.6 161.925 L2140.6 165.49 L2136.22 165.49 Q2131.29 165.49 2129.42 163.661 Q2127.54 161.809 2127.54 156.948 L2127.54 142.874 L2124.42 142.874 L2124.42 139.564 L2127.54 139.564 L2127.54 132.203 L2131.82 132.203 Z" fill="#000000" fill-rule="nonzero" fill-opacity="1" /><path clip-path="url(#clip010)" d="M2168.38 151.462 L2168.38 153.545 L2148.79 153.545 Q2149.07 157.943 2151.43 160.258 Q2153.82 162.55 2158.05 162.55 Q2160.5 162.55 2162.8 161.948 Q2165.11 161.346 2167.38 160.142 L2167.38 164.17 Q2165.09 165.142 2162.68 165.652 Q2160.27 166.161 2157.8 166.161 Q2151.59 166.161 2147.96 162.55 Q2144.35 158.939 2144.35 152.781 Q2144.35 146.416 2147.77 142.689 Q2151.22 138.939 2157.06 138.939 Q2162.29 138.939 2165.32 142.318 Q2168.38 145.675 2168.38 151.462 M2164.12 150.212 Q2164.07 146.717 2162.15 144.633 Q2160.25 142.55 2157.1 142.55 Q2153.54 142.55 2151.38 144.564 Q2149.25 146.578 2148.93 150.235 L2164.12 150.212 Z" fill="#000000" fill-rule="nonzero" fill-opacity="1" /><path clip-path="url(#clip010)" d="M2190.39 143.545 Q2189.67 143.129 2188.81 142.943 Q2187.98 142.735 2186.96 142.735 Q2183.35 142.735 2181.41 145.096 Q2179.49 147.434 2179.49 151.832 L2179.49 165.49 L2175.2 165.49 L2175.2 139.564 L2179.49 139.564 L2179.49 143.592 Q2180.83 141.23 2182.98 140.096 Q2185.13 138.939 2188.21 138.939 Q2188.65 138.939 2189.19 139.008 Q2189.72 139.055 2190.37 139.17 L2190.39 143.545 Z" fill="#000000" fill-rule="nonzero" fill-opacity="1" /><path clip-path="url(#clip010)" d="M2194.86 139.564 L2199.12 139.564 L2199.12 165.49 L2194.86 165.49 L2194.86 139.564 M2194.86 129.471 L2199.12 129.471 L2199.12 134.865 L2194.86 134.865 L2194.86 129.471 Z" fill="#000000" fill-rule="nonzero" fill-opacity="1" /><path clip-path="url(#clip010)" d="M2218.07 142.55 Q2214.65 142.55 2212.66 145.235 Q2210.67 147.897 2210.67 152.55 Q2210.67 157.203 2212.63 159.888 Q2214.62 162.55 2218.07 162.55 Q2221.48 162.55 2223.47 159.865 Q2225.46 157.179 2225.46 152.55 Q2225.46 147.943 2223.47 145.258 Q2221.48 142.55 2218.07 142.55 M2218.07 138.939 Q2223.63 138.939 2226.8 142.55 Q2229.97 146.161 2229.97 152.55 Q2229.97 158.916 2226.8 162.55 Q2223.63 166.161 2218.07 166.161 Q2212.5 166.161 2209.32 162.55 Q2206.18 158.916 2206.18 152.55 Q2206.18 146.161 2209.32 142.55 Q2212.5 138.939 2218.07 138.939 Z" fill="#000000" fill-rule="nonzero" fill-opacity="1" /><path clip-path="url(#clip010)" d="M2252.06 143.545 Q2251.34 143.129 2250.48 142.943 Q2249.65 142.735 2248.63 142.735 Q2245.02 142.735 2243.07 145.096 Q2241.15 147.434 2241.15 151.832 L2241.15 165.49 L2236.87 165.49 L2236.87 139.564 L2241.15 139.564 L2241.15 143.592 Q2242.5 141.23 2244.65 140.096 Q2246.8 138.939 2249.88 138.939 Q2250.32 138.939 2250.85 139.008 Q2251.38 139.055 2252.03 139.17 L2252.06 143.545 Z" fill="#000000" fill-rule="nonzero" fill-opacity="1" /></svg>
