<?xml version="1.0" encoding="utf-8"?>
<svg xmlns="http://www.w3.org/2000/svg" xmlns:xlink="http://www.w3.org/1999/xlink" width="600" height="400" viewBox="0 0 2400 1600">
<defs>
  <clipPath id="clip380">
    <rect x="0" y="0" width="2400" height="1600"/>
  </clipPath>
</defs>
<path clip-path="url(#clip380)" d="M0 1600 L2400 1600 L2400 0 L0 0  Z" fill="#ffffff" fill-rule="evenodd" fill-opacity="1"/>
<defs>
  <clipPath id="clip381">
    <rect x="480" y="0" width="1681" height="1600"/>
  </clipPath>
</defs>
<path clip-path="url(#clip380)" d="M86.9921 1521.01 L2352.76 1521.01 L2352.76 47.2441 L86.9921 47.2441  Z" fill="#ffffff" fill-rule="evenodd" fill-opacity="1"/>
<defs>
  <clipPath id="clip382">
    <rect x="86" y="47" width="2267" height="1475"/>
  </clipPath>
</defs>
<polyline clip-path="url(#clip382)" style="stroke:#000000; stroke-linecap:round; stroke-linejoin:round; stroke-width:2; stroke-opacity:0.1; fill:none" points="151.118,1521.01 151.118,47.2441 "/>
<polyline clip-path="url(#clip382)" style="stroke:#000000; stroke-linecap:round; stroke-linejoin:round; stroke-width:2; stroke-opacity:0.1; fill:none" points="685.496,1521.01 685.496,47.2441 "/>
<polyline clip-path="url(#clip382)" style="stroke:#000000; stroke-linecap:round; stroke-linejoin:round; stroke-width:2; stroke-opacity:0.1; fill:none" points="1219.87,1521.01 1219.87,47.2441 "/>
<polyline clip-path="url(#clip382)" style="stroke:#000000; stroke-linecap:round; stroke-linejoin:round; stroke-width:2; stroke-opacity:0.1; fill:none" points="1754.25,1521.01 1754.25,47.2441 "/>
<polyline clip-path="url(#clip382)" style="stroke:#000000; stroke-linecap:round; stroke-linejoin:round; stroke-width:2; stroke-opacity:0.1; fill:none" points="2288.63,1521.01 2288.63,47.2441 "/>
<polyline clip-path="url(#clip380)" style="stroke:#000000; stroke-linecap:round; stroke-linejoin:round; stroke-width:4; stroke-opacity:1; fill:none" points="86.9921,1521.01 2352.76,1521.01 "/>
<polyline clip-path="url(#clip380)" style="stroke:#000000; stroke-linecap:round; stroke-linejoin:round; stroke-width:4; stroke-opacity:1; fill:none" points="151.118,1521.01 151.118,1502.11 "/>
<polyline clip-path="url(#clip380)" style="stroke:#000000; stroke-linecap:round; stroke-linejoin:round; stroke-width:4; stroke-opacity:1; fill:none" points="685.496,1521.01 685.496,1502.11 "/>
<polyline clip-path="url(#clip380)" style="stroke:#000000; stroke-linecap:round; stroke-linejoin:round; stroke-width:4; stroke-opacity:1; fill:none" points="1219.87,1521.01 1219.87,1502.11 "/>
<polyline clip-path="url(#clip380)" style="stroke:#000000; stroke-linecap:round; stroke-linejoin:round; stroke-width:4; stroke-opacity:1; fill:none" points="1754.25,1521.01 1754.25,1502.11 "/>
<polyline clip-path="url(#clip380)" style="stroke:#000000; stroke-linecap:round; stroke-linejoin:round; stroke-width:4; stroke-opacity:1; fill:none" points="2288.63,1521.01 2288.63,1502.11 "/>
<path clip-path="url(#clip380)" d="M113.421 1551.93 Q109.81 1551.93 107.981 1555.49 Q106.176 1559.03 106.176 1566.16 Q106.176 1573.27 107.981 1576.83 Q109.81 1580.38 113.421 1580.38 Q117.055 1580.38 118.861 1576.83 Q120.689 1573.27 120.689 1566.16 Q120.689 1559.03 118.861 1555.49 Q117.055 1551.93 113.421 1551.93 M113.421 1548.22 Q119.231 1548.22 122.287 1552.83 Q125.365 1557.41 125.365 1566.16 Q125.365 1574.89 122.287 1579.5 Q119.231 1584.08 113.421 1584.08 Q107.611 1584.08 104.532 1579.5 Q101.477 1574.89 101.477 1566.16 Q101.477 1557.41 104.532 1552.83 Q107.611 1548.22 113.421 1548.22 Z" fill="#000000" fill-rule="nonzero" fill-opacity="1" /><path clip-path="url(#clip380)" d="M133.583 1577.53 L138.467 1577.53 L138.467 1583.41 L133.583 1583.41 L133.583 1577.53 Z" fill="#000000" fill-rule="nonzero" fill-opacity="1" /><path clip-path="url(#clip380)" d="M158.652 1551.93 Q155.041 1551.93 153.212 1555.49 Q151.407 1559.03 151.407 1566.16 Q151.407 1573.27 153.212 1576.83 Q155.041 1580.38 158.652 1580.38 Q162.286 1580.38 164.092 1576.83 Q165.921 1573.27 165.921 1566.16 Q165.921 1559.03 164.092 1555.49 Q162.286 1551.93 158.652 1551.93 M158.652 1548.22 Q164.462 1548.22 167.518 1552.83 Q170.597 1557.41 170.597 1566.16 Q170.597 1574.89 167.518 1579.5 Q164.462 1584.08 158.652 1584.08 Q152.842 1584.08 149.763 1579.5 Q146.708 1574.89 146.708 1566.16 Q146.708 1557.41 149.763 1552.83 Q152.842 1548.22 158.652 1548.22 Z" fill="#000000" fill-rule="nonzero" fill-opacity="1" /><path clip-path="url(#clip380)" d="M188.814 1551.93 Q185.203 1551.93 183.374 1555.49 Q181.569 1559.03 181.569 1566.16 Q181.569 1573.27 183.374 1576.83 Q185.203 1580.38 188.814 1580.38 Q192.448 1580.38 194.254 1576.83 Q196.083 1573.27 196.083 1566.16 Q196.083 1559.03 194.254 1555.49 Q192.448 1551.93 188.814 1551.93 M188.814 1548.22 Q194.624 1548.22 197.68 1552.83 Q200.758 1557.41 200.758 1566.16 Q200.758 1574.89 197.68 1579.5 Q194.624 1584.08 188.814 1584.08 Q183.004 1584.08 179.925 1579.5 Q176.87 1574.89 176.87 1566.16 Q176.87 1557.41 179.925 1552.83 Q183.004 1548.22 188.814 1548.22 Z" fill="#000000" fill-rule="nonzero" fill-opacity="1" /><path clip-path="url(#clip380)" d="M648.297 1551.93 Q644.686 1551.93 642.857 1555.49 Q641.052 1559.03 641.052 1566.16 Q641.052 1573.27 642.857 1576.83 Q644.686 1580.38 648.297 1580.38 Q651.931 1580.38 653.737 1576.83 Q655.565 1573.27 655.565 1566.16 Q655.565 1559.03 653.737 1555.49 Q651.931 1551.93 648.297 1551.93 M648.297 1548.22 Q654.107 1548.22 657.163 1552.83 Q660.241 1557.41 660.241 1566.16 Q660.241 1574.89 657.163 1579.5 Q654.107 1584.08 648.297 1584.08 Q642.487 1584.08 639.408 1579.5 Q636.353 1574.89 636.353 1566.16 Q636.353 1557.41 639.408 1552.83 Q642.487 1548.22 648.297 1548.22 Z" fill="#000000" fill-rule="nonzero" fill-opacity="1" /><path clip-path="url(#clip380)" d="M668.459 1577.53 L673.343 1577.53 L673.343 1583.41 L668.459 1583.41 L668.459 1577.53 Z" fill="#000000" fill-rule="nonzero" fill-opacity="1" /><path clip-path="url(#clip380)" d="M687.556 1579.47 L703.875 1579.47 L703.875 1583.41 L681.931 1583.41 L681.931 1579.47 Q684.593 1576.72 689.176 1572.09 Q693.783 1567.44 694.963 1566.09 Q697.209 1563.57 698.088 1561.83 Q698.991 1560.07 698.991 1558.38 Q698.991 1555.63 697.047 1553.89 Q695.125 1552.16 692.024 1552.16 Q689.824 1552.16 687.371 1552.92 Q684.94 1553.69 682.162 1555.24 L682.162 1550.51 Q684.987 1549.38 687.44 1548.8 Q689.894 1548.22 691.931 1548.22 Q697.301 1548.22 700.496 1550.91 Q703.69 1553.59 703.69 1558.08 Q703.69 1560.21 702.88 1562.13 Q702.093 1564.03 699.986 1566.63 Q699.408 1567.3 696.306 1570.51 Q693.204 1573.71 687.556 1579.47 Z" fill="#000000" fill-rule="nonzero" fill-opacity="1" /><path clip-path="url(#clip380)" d="M713.736 1548.85 L732.093 1548.85 L732.093 1552.78 L718.019 1552.78 L718.019 1561.26 Q719.037 1560.91 720.056 1560.75 Q721.074 1560.56 722.093 1560.56 Q727.88 1560.56 731.259 1563.73 Q734.639 1566.9 734.639 1572.32 Q734.639 1577.9 731.167 1581 Q727.695 1584.08 721.375 1584.08 Q719.199 1584.08 716.931 1583.71 Q714.685 1583.34 712.278 1582.6 L712.278 1577.9 Q714.361 1579.03 716.584 1579.59 Q718.806 1580.14 721.283 1580.14 Q725.287 1580.14 727.625 1578.04 Q729.963 1575.93 729.963 1572.32 Q729.963 1568.71 727.625 1566.6 Q725.287 1564.5 721.283 1564.5 Q719.408 1564.5 717.533 1564.91 Q715.681 1565.33 713.736 1566.21 L713.736 1548.85 Z" fill="#000000" fill-rule="nonzero" fill-opacity="1" /><path clip-path="url(#clip380)" d="M1182.18 1551.93 Q1178.57 1551.93 1176.74 1555.49 Q1174.93 1559.03 1174.93 1566.16 Q1174.93 1573.27 1176.74 1576.83 Q1178.57 1580.38 1182.18 1580.38 Q1185.81 1580.38 1187.62 1576.83 Q1189.45 1573.27 1189.45 1566.16 Q1189.45 1559.03 1187.62 1555.49 Q1185.81 1551.93 1182.18 1551.93 M1182.18 1548.22 Q1187.99 1548.22 1191.04 1552.83 Q1194.12 1557.41 1194.12 1566.16 Q1194.12 1574.89 1191.04 1579.5 Q1187.99 1584.08 1182.18 1584.08 Q1176.37 1584.08 1173.29 1579.5 Q1170.23 1574.89 1170.23 1566.16 Q1170.23 1557.41 1173.29 1552.83 Q1176.37 1548.22 1182.18 1548.22 Z" fill="#000000" fill-rule="nonzero" fill-opacity="1" /><path clip-path="url(#clip380)" d="M1202.34 1577.53 L1207.22 1577.53 L1207.22 1583.41 L1202.34 1583.41 L1202.34 1577.53 Z" fill="#000000" fill-rule="nonzero" fill-opacity="1" /><path clip-path="url(#clip380)" d="M1217.46 1548.85 L1235.81 1548.85 L1235.81 1552.78 L1221.74 1552.78 L1221.74 1561.26 Q1222.76 1560.91 1223.77 1560.75 Q1224.79 1560.56 1225.81 1560.56 Q1231.6 1560.56 1234.98 1563.73 Q1238.36 1566.9 1238.36 1572.32 Q1238.36 1577.9 1234.89 1581 Q1231.41 1584.08 1225.09 1584.08 Q1222.92 1584.08 1220.65 1583.71 Q1218.4 1583.34 1216 1582.6 L1216 1577.9 Q1218.08 1579.03 1220.3 1579.59 Q1222.52 1580.14 1225 1580.14 Q1229.01 1580.14 1231.34 1578.04 Q1233.68 1575.93 1233.68 1572.32 Q1233.68 1568.71 1231.34 1566.6 Q1229.01 1564.5 1225 1564.5 Q1223.13 1564.5 1221.25 1564.91 Q1219.4 1565.33 1217.46 1566.21 L1217.46 1548.85 Z" fill="#000000" fill-rule="nonzero" fill-opacity="1" /><path clip-path="url(#clip380)" d="M1257.57 1551.93 Q1253.96 1551.93 1252.13 1555.49 Q1250.33 1559.03 1250.33 1566.16 Q1250.33 1573.27 1252.13 1576.83 Q1253.96 1580.38 1257.57 1580.38 Q1261.2 1580.38 1263.01 1576.83 Q1264.84 1573.27 1264.84 1566.16 Q1264.84 1559.03 1263.01 1555.49 Q1261.2 1551.93 1257.57 1551.93 M1257.57 1548.22 Q1263.38 1548.22 1266.44 1552.83 Q1269.51 1557.41 1269.51 1566.16 Q1269.51 1574.89 1266.44 1579.5 Q1263.38 1584.08 1257.57 1584.08 Q1251.76 1584.08 1248.68 1579.5 Q1245.63 1574.89 1245.63 1566.16 Q1245.63 1557.41 1248.68 1552.83 Q1251.76 1548.22 1257.57 1548.22 Z" fill="#000000" fill-rule="nonzero" fill-opacity="1" /><path clip-path="url(#clip380)" d="M1717.05 1551.93 Q1713.44 1551.93 1711.61 1555.49 Q1709.81 1559.03 1709.81 1566.16 Q1709.81 1573.27 1711.61 1576.83 Q1713.44 1580.38 1717.05 1580.38 Q1720.69 1580.38 1722.49 1576.83 Q1724.32 1573.27 1724.32 1566.16 Q1724.32 1559.03 1722.49 1555.49 Q1720.69 1551.93 1717.05 1551.93 M1717.05 1548.22 Q1722.86 1548.22 1725.92 1552.83 Q1729 1557.41 1729 1566.16 Q1729 1574.89 1725.92 1579.5 Q1722.86 1584.08 1717.05 1584.08 Q1711.24 1584.08 1708.16 1579.5 Q1705.11 1574.89 1705.11 1566.16 Q1705.11 1557.41 1708.16 1552.83 Q1711.24 1548.22 1717.05 1548.22 Z" fill="#000000" fill-rule="nonzero" fill-opacity="1" /><path clip-path="url(#clip380)" d="M1737.22 1577.53 L1742.1 1577.53 L1742.1 1583.41 L1737.22 1583.41 L1737.22 1577.53 Z" fill="#000000" fill-rule="nonzero" fill-opacity="1" /><path clip-path="url(#clip380)" d="M1751.1 1548.85 L1773.33 1548.85 L1773.33 1550.84 L1760.78 1583.41 L1755.9 1583.41 L1767.7 1552.78 L1751.1 1552.78 L1751.1 1548.85 Z" fill="#000000" fill-rule="nonzero" fill-opacity="1" /><path clip-path="url(#clip380)" d="M1782.49 1548.85 L1800.85 1548.85 L1800.85 1552.78 L1786.78 1552.78 L1786.78 1561.26 Q1787.79 1560.91 1788.81 1560.75 Q1789.83 1560.56 1790.85 1560.56 Q1796.64 1560.56 1800.02 1563.73 Q1803.4 1566.9 1803.4 1572.32 Q1803.4 1577.9 1799.92 1581 Q1796.45 1584.08 1790.13 1584.08 Q1787.96 1584.08 1785.69 1583.71 Q1783.44 1583.34 1781.03 1582.6 L1781.03 1577.9 Q1783.12 1579.03 1785.34 1579.59 Q1787.56 1580.14 1790.04 1580.14 Q1794.04 1580.14 1796.38 1578.04 Q1798.72 1575.93 1798.72 1572.32 Q1798.72 1568.71 1796.38 1566.6 Q1794.04 1564.5 1790.04 1564.5 Q1788.16 1564.5 1786.29 1564.91 Q1784.44 1565.33 1782.49 1566.21 L1782.49 1548.85 Z" fill="#000000" fill-rule="nonzero" fill-opacity="1" /><path clip-path="url(#clip380)" d="M2240.7 1579.47 L2248.34 1579.47 L2248.34 1553.11 L2240.03 1554.77 L2240.03 1550.51 L2248.3 1548.85 L2252.97 1548.85 L2252.97 1579.47 L2260.61 1579.47 L2260.61 1583.41 L2240.7 1583.41 L2240.7 1579.47 Z" fill="#000000" fill-rule="nonzero" fill-opacity="1" /><path clip-path="url(#clip380)" d="M2270.05 1577.53 L2274.94 1577.53 L2274.94 1583.41 L2270.05 1583.41 L2270.05 1577.53 Z" fill="#000000" fill-rule="nonzero" fill-opacity="1" /><path clip-path="url(#clip380)" d="M2295.12 1551.93 Q2291.51 1551.93 2289.68 1555.49 Q2287.88 1559.03 2287.88 1566.16 Q2287.88 1573.27 2289.68 1576.83 Q2291.51 1580.38 2295.12 1580.38 Q2298.76 1580.38 2300.56 1576.83 Q2302.39 1573.27 2302.39 1566.16 Q2302.39 1559.03 2300.56 1555.49 Q2298.76 1551.93 2295.12 1551.93 M2295.12 1548.22 Q2300.93 1548.22 2303.99 1552.83 Q2307.07 1557.41 2307.07 1566.16 Q2307.07 1574.89 2303.99 1579.5 Q2300.93 1584.08 2295.12 1584.08 Q2289.31 1584.08 2286.23 1579.5 Q2283.18 1574.89 2283.18 1566.16 Q2283.18 1557.41 2286.23 1552.83 Q2289.31 1548.22 2295.12 1548.22 Z" fill="#000000" fill-rule="nonzero" fill-opacity="1" /><path clip-path="url(#clip380)" d="M2325.29 1551.93 Q2321.67 1551.93 2319.85 1555.49 Q2318.04 1559.03 2318.04 1566.16 Q2318.04 1573.27 2319.85 1576.83 Q2321.67 1580.38 2325.29 1580.38 Q2328.92 1580.38 2330.73 1576.83 Q2332.55 1573.27 2332.55 1566.16 Q2332.55 1559.03 2330.73 1555.49 Q2328.92 1551.93 2325.29 1551.93 M2325.29 1548.22 Q2331.1 1548.22 2334.15 1552.83 Q2337.23 1557.41 2337.23 1566.16 Q2337.23 1574.89 2334.15 1579.5 Q2331.1 1584.08 2325.29 1584.08 Q2319.48 1584.08 2316.4 1579.5 Q2313.34 1574.89 2313.34 1566.16 Q2313.34 1557.41 2316.4 1552.83 Q2319.48 1548.22 2325.29 1548.22 Z" fill="#000000" fill-rule="nonzero" fill-opacity="1" /><polyline clip-path="url(#clip382)" style="stroke:#000000; stroke-linecap:round; stroke-linejoin:round; stroke-width:2; stroke-opacity:0.1; fill:none" points="86.9921,1340.26 2352.76,1340.26 "/>
<polyline clip-path="url(#clip382)" style="stroke:#000000; stroke-linecap:round; stroke-linejoin:round; stroke-width:2; stroke-opacity:0.1; fill:none" points="86.9921,1062.19 2352.76,1062.19 "/>
<polyline clip-path="url(#clip382)" style="stroke:#000000; stroke-linecap:round; stroke-linejoin:round; stroke-width:2; stroke-opacity:0.1; fill:none" points="86.9921,784.126 2352.76,784.126 "/>
<polyline clip-path="url(#clip382)" style="stroke:#000000; stroke-linecap:round; stroke-linejoin:round; stroke-width:2; stroke-opacity:0.1; fill:none" points="86.9921,506.057 2352.76,506.057 "/>
<polyline clip-path="url(#clip382)" style="stroke:#000000; stroke-linecap:round; stroke-linejoin:round; stroke-width:2; stroke-opacity:0.1; fill:none" points="86.9921,227.989 2352.76,227.989 "/>
<polyline clip-path="url(#clip380)" style="stroke:#000000; stroke-linecap:round; stroke-linejoin:round; stroke-width:4; stroke-opacity:1; fill:none" points="86.9921,1521.01 86.9921,47.2441 "/>
<polyline clip-path="url(#clip380)" style="stroke:#000000; stroke-linecap:round; stroke-linejoin:round; stroke-width:4; stroke-opacity:1; fill:none" points="86.9921,1340.26 105.89,1340.26 "/>
<polyline clip-path="url(#clip380)" style="stroke:#000000; stroke-linecap:round; stroke-linejoin:round; stroke-width:4; stroke-opacity:1; fill:none" points="86.9921,1062.19 105.89,1062.19 "/>
<polyline clip-path="url(#clip380)" style="stroke:#000000; stroke-linecap:round; stroke-linejoin:round; stroke-width:4; stroke-opacity:1; fill:none" points="86.9921,784.126 105.89,784.126 "/>
<polyline clip-path="url(#clip380)" style="stroke:#000000; stroke-linecap:round; stroke-linejoin:round; stroke-width:4; stroke-opacity:1; fill:none" points="86.9921,506.057 105.89,506.057 "/>
<polyline clip-path="url(#clip380)" style="stroke:#000000; stroke-linecap:round; stroke-linejoin:round; stroke-width:4; stroke-opacity:1; fill:none" points="86.9921,227.989 105.89,227.989 "/>
<path clip-path="url(#clip380)" d="M38.417 1345.61 L38.417 1329.29 L42.3521 1329.29 L42.3521 1351.24 L38.417 1351.24 Q35.6623 1348.57 31.0327 1343.99 Q26.38 1339.38 25.0374 1338.2 Q22.5143 1335.96 20.7782 1335.08 Q19.0189 1334.18 17.3291 1334.18 Q14.5745 1334.18 12.8384 1336.12 Q11.1023 1338.04 11.1023 1341.14 Q11.1023 1343.34 11.8662 1345.8 Q12.6301 1348.23 14.181 1351 L9.45878 1351 Q8.32453 1348.18 7.74583 1345.73 Q7.16713 1343.27 7.16713 1341.24 Q7.16713 1335.87 9.8523 1332.67 Q12.5375 1329.48 17.0282 1329.48 Q19.1578 1329.48 21.0791 1330.29 Q22.9772 1331.07 25.5698 1333.18 Q26.2411 1333.76 29.4587 1336.86 Q32.6531 1339.96 38.417 1345.61 Z" fill="#000000" fill-rule="nonzero" fill-opacity="1" /><path clip-path="url(#clip380)" d="M11.8662 1059.19 L30.3152 1070.99 L30.3152 1059.19 L11.8662 1059.19 M7.79213 1060.41 L7.79213 1054.53 L30.3152 1054.53 L30.3152 1049.6 L34.204 1049.6 L34.204 1054.53 L42.3521 1054.53 L42.3521 1059.19 L34.204 1059.19 L34.204 1074.79 L29.6902 1074.79 L7.79213 1060.41 Z" fill="#000000" fill-rule="nonzero" fill-opacity="1" /><path clip-path="url(#clip380)" d="M23.2087 783.721 Q23.2087 786.869 25.3615 788.721 Q27.5142 790.55 31.2642 790.55 Q34.9911 790.55 37.167 788.721 Q39.3197 786.869 39.3197 783.721 Q39.3197 780.573 37.167 778.744 Q34.9911 776.892 31.2642 776.892 Q27.5142 776.892 25.3615 778.744 Q23.2087 780.573 23.2087 783.721 M8.55601 774.439 L12.8152 774.439 Q11.9819 776.198 11.5421 778.003 Q11.1023 779.786 11.1023 781.545 Q11.1023 786.175 14.2273 788.628 Q17.3523 791.059 23.6717 791.406 Q21.6578 790.04 20.593 787.98 Q19.505 785.92 19.505 783.443 Q19.505 778.235 22.6763 775.226 Q25.8244 772.193 31.2642 772.193 Q36.5883 772.193 39.8058 775.341 Q43.0234 778.489 43.0234 783.721 Q43.0234 789.716 38.4401 792.888 Q33.8337 796.059 25.1068 796.059 Q16.9124 796.059 12.0514 792.17 Q7.16713 788.281 7.16713 781.73 Q7.16713 779.971 7.51435 778.189 Q7.86157 776.383 8.55601 774.439 Z" fill="#000000" fill-rule="nonzero" fill-opacity="1" /><path clip-path="url(#clip380)" d="M25.9402 506.057 Q25.9402 509.391 27.7226 511.312 Q29.505 513.21 32.63 513.21 Q35.7549 513.21 37.5373 511.312 Q39.3197 509.391 39.3197 506.057 Q39.3197 502.724 37.5373 500.803 Q35.7318 498.881 32.63 498.881 Q29.505 498.881 27.7226 500.803 Q25.9402 502.701 25.9402 506.057 M23.9494 510.733 Q23.2087 513.742 21.1485 515.432 Q19.0884 517.099 16.1254 517.099 Q11.9819 517.099 9.57452 514.159 Q7.16713 511.196 7.16713 506.057 Q7.16713 500.895 9.57452 497.956 Q11.9819 495.016 16.1254 495.016 Q19.0884 495.016 21.1485 496.706 Q23.2087 498.372 23.9494 501.358 Q24.7365 497.979 27.0281 496.104 Q29.3198 494.206 32.63 494.206 Q37.6531 494.206 40.3382 497.284 Q43.0234 500.34 43.0234 506.057 Q43.0234 511.775 40.3382 514.854 Q37.6531 517.909 32.63 517.909 Q29.3198 517.909 27.0281 516.011 Q24.7365 514.113 23.9494 510.733 M16.5652 512.446 Q19.2504 512.446 20.755 510.78 Q22.2596 509.09 22.2596 506.057 Q22.2596 503.048 20.755 501.358 Q19.2504 499.645 16.5652 499.645 Q13.8801 499.645 12.3754 501.358 Q10.8708 503.048 10.8708 506.057 Q10.8708 509.09 12.3754 510.78 Q13.8801 512.446 16.5652 512.446 Z" fill="#000000" fill-rule="nonzero" fill-opacity="1" /><path clip-path="url(#clip380)" d="M38.417 253.301 L38.417 245.662 L12.0514 245.662 L13.718 253.972 L9.45878 253.972 L7.79213 245.709 L7.79213 241.033 L38.417 241.033 L38.417 233.394 L42.3521 233.394 L42.3521 253.301 L38.417 253.301 Z" fill="#000000" fill-rule="nonzero" fill-opacity="1" /><path clip-path="url(#clip380)" d="M10.8708 213.949 Q10.8708 217.561 14.4356 219.389 Q17.9773 221.195 25.1068 221.195 Q32.2133 221.195 35.7781 219.389 Q39.3197 217.561 39.3197 213.949 Q39.3197 210.315 35.7781 208.51 Q32.2133 206.681 25.1068 206.681 Q17.9773 206.681 14.4356 208.51 Q10.8708 210.315 10.8708 213.949 M7.16713 213.949 Q7.16713 208.139 11.7736 205.084 Q16.3569 202.005 25.1068 202.005 Q33.8337 202.005 38.4401 205.084 Q43.0234 208.139 43.0234 213.949 Q43.0234 219.76 38.4401 222.838 Q33.8337 225.894 25.1068 225.894 Q16.3569 225.894 11.7736 222.838 Q7.16713 219.76 7.16713 213.949 Z" fill="#000000" fill-rule="nonzero" fill-opacity="1" /><polyline clip-path="url(#clip382)" style="stroke:#009af9; stroke-linecap:round; stroke-linejoin:round; stroke-width:4; stroke-opacity:1; fill:none" points="151.118,1479.3 153.255,1479.3 155.393,1479.3 157.53,1479.3 159.668,1479.3 161.805,1479.3 163.943,1479.3 166.08,1479.3 168.218,1479.3 170.355,1479.3 172.493,1479.3 174.63,1479.3 176.768,1479.3 178.905,1479.3 181.043,1479.3 183.18,1479.3 185.318,1479.3 187.455,1479.3 189.593,1479.3 191.73,1479.3 193.868,1479.3 196.005,1479.3 198.143,1479.3 200.28,1479.3 202.418,1479.3 204.555,1479.3 206.693,1479.3 208.83,1479.3 210.968,1479.3 213.105,1479.3 215.243,1479.3 217.38,1479.3 219.518,1479.3 221.655,1479.3 223.793,1479.3 225.93,1479.3 228.068,1479.3 230.205,1479.3 232.343,1479.3 234.481,1479.3 236.618,1479.3 238.756,1479.3 240.893,1479.3 243.031,1479.3 245.168,1479.3 247.306,1479.3 249.443,1479.3 251.581,1479.3 253.718,1479.3 255.856,1479.3 257.993,1479.3 260.131,1479.3 262.268,1479.3 264.406,1479.3 266.543,1479.3 268.681,1479.3 270.818,1479.3 272.956,1479.3 275.093,1479.3 277.231,1479.3 279.368,1479.3 281.506,1479.3 283.643,1479.3 285.781,1479.3 287.918,1479.3 290.056,1479.3 292.193,1479.3 294.331,1479.3 296.468,1479.3 298.606,1479.3 300.743,1479.3 302.881,1479.3 305.018,1479.3 307.156,1479.3 309.293,1479.3 311.431,1479.3 313.569,1479.3 315.706,1479.3 317.844,1479.3 319.981,1479.3 322.119,1479.3 324.256,1479.3 326.394,1479.3 328.531,1479.3 330.669,1479.3 332.806,1479.3 334.944,1479.3 337.081,1479.3 339.219,1479.3 341.356,1479.3 343.494,1479.3 345.631,1479.3 347.769,1479.3 349.906,1479.3 352.044,1479.3 354.181,1479.3 356.319,1479.3 358.456,1479.3 360.594,1479.3 362.731,1479.3 364.869,1479.3 367.006,1479.3 369.144,1479.3 371.281,1479.3 373.419,1479.3 375.556,1479.3 377.694,1479.3 379.831,1479.3 381.969,1479.3 384.106,1479.3 386.244,1479.3 388.381,1479.3 390.519,1479.3 392.656,1479.3 394.794,1479.3 396.932,1479.3 399.069,1479.3 401.207,1479.3 403.344,1479.3 405.482,1479.3 407.619,1479.3 409.757,1479.3 411.894,1479.3 414.032,1479.3 416.169,1479.3 418.307,1479.3 420.444,1479.3 422.582,1479.3 424.719,1479.3 426.857,1479.3 428.994,1479.3 431.132,1479.3 433.269,1479.3 435.407,1479.3 437.544,1479.3 439.682,1479.3 441.819,1479.3 443.957,1479.3 446.094,1479.3 448.232,1479.3 450.369,1479.3 452.507,1479.3 454.644,1479.3 456.782,1479.3 458.919,1479.3 461.057,1479.3 463.194,1479.3 465.332,1479.3 467.469,1479.3 469.607,1479.3 471.744,1479.3 473.882,1479.3 476.019,1479.3 478.157,1479.3 480.295,1479.3 482.432,1479.3 484.57,1479.3 486.707,1479.3 488.845,1479.3 490.982,1479.3 493.12,1479.3 495.257,1479.3 497.395,1479.3 499.532,1479.3 501.67,1479.3 503.807,1479.3 505.945,1479.3 508.082,1479.3 510.22,1479.3 512.357,1479.3 514.495,1479.3 516.632,1479.3 518.77,1479.3 520.907,1479.3 523.045,1479.3 525.182,1479.3 527.32,1479.3 529.457,1479.3 531.595,1479.3 533.732,1479.3 535.87,1479.3 538.007,1479.3 540.145,1479.3 542.282,1479.3 544.42,1479.3 546.557,1479.3 548.695,1479.3 550.832,1479.3 552.97,1479.3 555.107,1479.3 557.245,1479.3 559.382,1479.3 561.52,1479.3 563.658,1479.3 565.795,1479.3 567.933,1479.3 570.07,1479.3 572.208,1479.3 574.345,1479.3 576.483,1479.3 578.62,1479.3 580.758,1479.3 582.895,1479.3 585.033,1479.3 587.17,1479.3 589.308,1479.3 591.445,1479.3 593.583,1479.3 595.72,1479.3 597.858,1479.3 599.995,1479.3 602.133,1479.3 604.27,1479.3 606.408,1479.3 608.545,1479.3 610.683,1479.3 612.82,1479.3 614.958,1479.3 617.095,1479.3 619.233,1479.3 621.37,1479.3 623.508,1479.3 625.645,1479.3 627.783,1479.3 629.92,1479.3 632.058,1479.3 634.195,1479.3 636.333,1479.3 638.47,1479.3 640.608,1479.3 642.746,1479.3 644.883,1479.3 647.021,1479.3 649.158,1479.3 651.296,1479.3 653.433,1479.3 655.571,1479.3 657.708,1479.3 659.846,1479.3 661.983,1479.3 664.121,1479.3 666.258,1479.3 668.396,1479.3 670.533,1479.3 672.671,1479.3 674.808,1479.3 676.946,1479.3 679.083,1479.3 681.221,1479.3 683.358,1479.3 685.496,1479.3 687.633,1479.3 689.771,1479.3 691.908,1479.3 694.046,1479.3 696.183,1479.3 698.321,1479.3 700.458,1479.3 702.596,1479.3 704.733,1479.3 706.871,1479.3 709.008,1479.3 711.146,1479.3 713.283,1479.3 715.421,1479.3 717.558,1479.3 719.696,1479.3 721.833,1479.3 723.971,1479.3 726.109,1479.3 728.246,1479.3 730.384,1479.3 732.521,1479.3 734.659,1479.3 736.796,1479.3 738.934,1479.3 741.071,1479.3 743.209,1479.3 745.346,1479.3 747.484,1479.3 749.621,1479.3 751.759,1479.3 753.896,1479.3 756.034,1479.3 758.171,1479.3 760.309,1479.3 762.446,1479.3 764.584,1479.3 766.721,1479.3 768.859,1479.3 770.996,1479.3 773.134,1479.3 775.271,1479.3 777.409,1479.3 779.546,1479.3 781.684,1479.3 783.821,1479.3 785.959,1479.3 788.096,1479.3 790.234,1479.3 792.371,1479.3 794.509,1479.3 796.646,1479.3 798.784,1479.3 800.921,1479.3 803.059,1479.3 805.196,1479.3 807.334,1479.3 809.472,1479.3 811.609,1479.3 813.747,1479.3 815.884,1479.3 818.022,1479.3 820.159,1479.3 822.297,1479.3 824.434,1479.3 826.572,1479.3 828.709,1479.3 830.847,1479.3 832.984,1479.3 835.122,1479.3 837.259,1479.3 839.397,1479.3 841.534,1479.3 843.672,1479.3 845.809,1479.3 847.947,1479.3 850.084,1479.3 852.222,1479.3 854.359,1479.3 856.497,1479.3 858.634,1479.3 860.772,1479.3 862.909,1479.3 865.047,1479.3 867.184,1479.3 869.322,1479.3 871.459,1479.3 873.597,1479.3 875.734,1479.3 877.872,1479.3 880.009,1479.3 882.147,1479.3 884.284,1479.3 886.422,1479.3 888.56,1479.3 890.697,1479.3 892.835,1479.3 894.972,1479.3 897.11,1479.3 899.247,1479.3 901.385,1479.3 903.522,1479.3 905.66,1479.3 907.797,1479.3 909.935,1479.3 912.072,1479.3 914.21,1479.3 916.347,1479.3 918.485,1479.3 920.622,1479.3 922.76,1479.3 924.897,1479.3 927.035,1479.3 929.172,1479.3 931.31,1479.3 933.447,1479.3 935.585,1479.3 937.722,1479.3 939.86,1479.3 941.997,1479.3 944.135,1479.3 946.272,1479.3 948.41,1479.3 950.547,1479.3 952.685,1479.3 954.822,1479.3 956.96,1479.3 959.097,1479.3 961.235,1479.3 963.372,1479.3 965.51,1479.3 967.647,1479.3 969.785,1479.3 971.923,1479.3 974.06,1479.3 976.198,1465.39 978.335,1451.49 980.473,1437.59 982.61,1423.68 984.748,1409.78 986.885,1395.88 989.023,1381.97 991.16,1368.07 993.298,1354.17 995.435,1340.26 997.573,1326.36 999.71,1312.46 1001.85,1298.55 1003.99,1284.65 1006.12,1270.75 1008.26,1256.84 1010.4,1242.94 1012.54,1229.04 1014.67,1215.13 1016.81,1201.23 1018.95,1187.33 1021.09,1173.42 1023.22,1159.52 1025.36,1145.62 1027.5,1131.71 1029.64,1117.81 1031.77,1103.9 1033.91,1090 1036.05,1076.1 1038.19,1062.19 1040.32,1048.29 1042.46,1034.39 1044.6,1020.48 1046.74,1006.58 1048.87,992.677 1051.01,978.774 1053.15,964.871 1055.29,950.967 1057.42,937.064 1059.56,923.16 1061.7,909.257 1063.84,895.353 1065.97,881.45 1068.11,867.547 1070.25,853.643 1072.39,839.74 1074.52,825.836 1076.66,811.933 1078.8,798.029 1080.94,784.126 1083.07,770.223 1085.21,756.319 1087.35,742.416 1089.49,728.512 1091.62,714.609 1093.76,700.705 1095.9,686.802 1098.04,672.899 1100.17,658.995 1102.31,645.092 1104.45,631.188 1106.59,617.285 1108.72,603.381 1110.86,589.478 1113,575.575 1115.14,561.671 1117.27,547.768 1119.41,533.864 1121.55,519.961 1123.69,506.057 1125.82,492.154 1127.96,478.25 1130.1,464.347 1132.24,450.444 1134.37,436.54 1136.51,422.637 1138.65,408.733 1140.79,394.83 1142.92,380.926 1145.06,367.023 1147.2,353.12 1149.34,339.216 1151.47,325.313 1153.61,311.409 1155.75,297.506 1157.89,283.602 1160.02,269.699 1162.16,255.796 1164.3,241.892 1166.44,227.989 1168.57,214.085 1170.71,200.182 1172.85,186.278 1174.99,172.375 1177.12,158.472 1179.26,144.568 1181.4,130.665 1183.54,116.761 1185.67,102.858 1187.81,88.9544 1189.95,102.858 1192.09,116.761 1194.22,130.665 1196.36,144.568 1198.5,158.472 1200.64,172.375 1202.77,186.278 1204.91,200.182 1207.05,214.085 1209.19,227.989 1211.32,241.892 1213.46,255.796 1215.6,269.699 1217.74,283.602 1219.87,297.506 1222.01,311.409 1224.15,325.313 1226.29,339.216 1228.42,353.12 1230.56,367.023 1232.7,380.926 1234.84,394.83 1236.97,408.733 1239.11,422.637 1241.25,436.54 1243.39,450.444 1245.52,464.347 1247.66,478.25 1249.8,492.154 1251.94,506.057 1254.07,519.961 1256.21,533.864 1258.35,547.768 1260.49,561.671 1262.62,575.575 1264.76,589.478 1266.9,603.381 1269.04,617.285 1271.17,631.188 1273.31,645.092 1275.45,658.995 1277.59,672.899 1279.72,686.802 1281.86,700.705 1284,714.609 1286.14,728.512 1288.27,742.416 1290.41,756.319 1292.55,770.223 1294.69,784.126 1296.82,798.029 1298.96,811.933 1301.1,825.836 1303.24,839.74 1305.37,853.643 1307.51,867.547 1309.65,881.45 1311.79,895.353 1313.92,909.257 1316.06,923.16 1318.2,937.064 1320.34,950.967 1322.47,964.871 1324.61,978.774 1326.75,992.677 1328.89,1006.58 1331.02,1020.48 1333.16,1034.39 1335.3,1048.29 1337.44,1062.19 1339.57,1076.1 1341.71,1090 1343.85,1103.9 1345.99,1117.81 1348.12,1131.71 1350.26,1145.62 1352.4,1159.52 1354.54,1173.42 1356.67,1187.33 1358.81,1201.23 1360.95,1215.13 1363.09,1229.04 1365.22,1242.94 1367.36,1256.84 1369.5,1270.75 1371.64,1284.65 1373.77,1298.55 1375.91,1312.46 1378.05,1326.36 1380.19,1340.26 1382.33,1354.17 1384.46,1368.07 1386.6,1381.97 1388.74,1395.88 1390.88,1409.78 1393.01,1423.68 1395.15,1437.59 1397.29,1451.49 1399.43,1465.39 1401.56,1479.3 1403.7,1479.3 1405.84,1479.3 1407.98,1479.3 1410.11,1479.3 1412.25,1479.3 1414.39,1479.3 1416.53,1479.3 1418.66,1479.3 1420.8,1479.3 1422.94,1479.3 1425.08,1479.3 1427.21,1479.3 1429.35,1479.3 1431.49,1479.3 1433.63,1479.3 1435.76,1479.3 1437.9,1479.3 1440.04,1479.3 1442.18,1479.3 1444.31,1479.3 1446.45,1479.3 1448.59,1479.3 1450.73,1479.3 1452.86,1479.3 1455,1479.3 1457.14,1479.3 1459.28,1479.3 1461.41,1479.3 1463.55,1479.3 1465.69,1479.3 1467.83,1479.3 1469.96,1479.3 1472.1,1479.3 1474.24,1479.3 1476.38,1479.3 1478.51,1479.3 1480.65,1479.3 1482.79,1479.3 1484.93,1479.3 1487.06,1479.3 1489.2,1479.3 1491.34,1479.3 1493.48,1479.3 1495.61,1479.3 1497.75,1479.3 1499.89,1479.3 1502.03,1479.3 1504.16,1479.3 1506.3,1479.3 1508.44,1479.3 1510.58,1479.3 1512.71,1479.3 1514.85,1479.3 1516.99,1479.3 1519.13,1479.3 1521.26,1479.3 1523.4,1479.3 1525.54,1479.3 1527.68,1479.3 1529.81,1479.3 1531.95,1479.3 1534.09,1479.3 1536.23,1479.3 1538.36,1479.3 1540.5,1479.3 1542.64,1479.3 1544.78,1479.3 1546.91,1479.3 1549.05,1479.3 1551.19,1479.3 1553.33,1479.3 1555.46,1479.3 1557.6,1479.3 1559.74,1479.3 1561.88,1479.3 1564.01,1479.3 1566.15,1479.3 1568.29,1479.3 1570.43,1479.3 1572.56,1479.3 1574.7,1479.3 1576.84,1479.3 1578.98,1479.3 1581.11,1479.3 1583.25,1479.3 1585.39,1479.3 1587.53,1479.3 1589.66,1479.3 1591.8,1479.3 1593.94,1479.3 1596.08,1479.3 1598.21,1479.3 1600.35,1479.3 1602.49,1479.3 1604.63,1479.3 1606.76,1479.3 1608.9,1479.3 1611.04,1479.3 1613.18,1479.3 1615.31,1479.3 1617.45,1479.3 1619.59,1479.3 1621.73,1479.3 1623.86,1479.3 1626,1479.3 1628.14,1479.3 1630.28,1479.3 1632.41,1479.3 1634.55,1479.3 1636.69,1479.3 1638.83,1479.3 1640.96,1479.3 1643.1,1479.3 1645.24,1479.3 1647.38,1479.3 1649.51,1479.3 1651.65,1479.3 1653.79,1479.3 1655.93,1479.3 1658.06,1479.3 1660.2,1479.3 1662.34,1479.3 1664.48,1479.3 1666.61,1479.3 1668.75,1479.3 1670.89,1479.3 1673.03,1479.3 1675.16,1479.3 1677.3,1479.3 1679.44,1479.3 1681.58,1479.3 1683.71,1479.3 1685.85,1479.3 1687.99,1479.3 1690.13,1479.3 1692.26,1479.3 1694.4,1479.3 1696.54,1479.3 1698.68,1479.3 1700.81,1479.3 1702.95,1479.3 1705.09,1479.3 1707.23,1479.3 1709.36,1479.3 1711.5,1479.3 1713.64,1479.3 1715.78,1479.3 1717.91,1479.3 1720.05,1479.3 1722.19,1479.3 1724.33,1479.3 1726.46,1479.3 1728.6,1479.3 1730.74,1479.3 1732.88,1479.3 1735.01,1479.3 1737.15,1479.3 1739.29,1479.3 1741.43,1479.3 1743.56,1479.3 1745.7,1479.3 1747.84,1479.3 1749.98,1479.3 1752.11,1479.3 1754.25,1479.3 1756.39,1479.3 1758.53,1479.3 1760.66,1479.3 1762.8,1479.3 1764.94,1479.3 1767.08,1479.3 1769.21,1479.3 1771.35,1479.3 1773.49,1479.3 1775.63,1479.3 1777.76,1479.3 1779.9,1479.3 1782.04,1479.3 1784.18,1479.3 1786.31,1479.3 1788.45,1479.3 1790.59,1479.3 1792.73,1479.3 1794.87,1479.3 1797,1479.3 1799.14,1479.3 1801.28,1479.3 1803.42,1479.3 1805.55,1479.3 1807.69,1479.3 1809.83,1479.3 1811.97,1479.3 1814.1,1479.3 1816.24,1479.3 1818.38,1479.3 1820.52,1479.3 1822.65,1479.3 1824.79,1479.3 1826.93,1479.3 1829.07,1479.3 1831.2,1479.3 1833.34,1479.3 1835.48,1479.3 1837.62,1479.3 1839.75,1479.3 1841.89,1479.3 1844.03,1479.3 1846.17,1479.3 1848.3,1479.3 1850.44,1479.3 1852.58,1479.3 1854.72,1479.3 1856.85,1479.3 1858.99,1479.3 1861.13,1479.3 1863.27,1479.3 1865.4,1479.3 1867.54,1479.3 1869.68,1479.3 1871.82,1479.3 1873.95,1479.3 1876.09,1479.3 1878.23,1479.3 1880.37,1479.3 1882.5,1479.3 1884.64,1479.3 1886.78,1479.3 1888.92,1479.3 1891.05,1479.3 1893.19,1479.3 1895.33,1479.3 1897.47,1479.3 1899.6,1479.3 1901.74,1479.3 1903.88,1479.3 1906.02,1479.3 1908.15,1479.3 1910.29,1479.3 1912.43,1479.3 1914.57,1479.3 1916.7,1479.3 1918.84,1479.3 1920.98,1479.3 1923.12,1479.3 1925.25,1479.3 1927.39,1479.3 1929.53,1479.3 1931.67,1479.3 1933.8,1479.3 1935.94,1479.3 1938.08,1479.3 1940.22,1479.3 1942.35,1479.3 1944.49,1479.3 1946.63,1479.3 1948.77,1479.3 1950.9,1479.3 1953.04,1479.3 1955.18,1479.3 1957.32,1479.3 1959.45,1479.3 1961.59,1479.3 1963.73,1479.3 1965.87,1479.3 1968,1479.3 1970.14,1479.3 1972.28,1479.3 1974.42,1479.3 1976.55,1479.3 1978.69,1479.3 1980.83,1479.3 1982.97,1479.3 1985.1,1479.3 1987.24,1479.3 1989.38,1479.3 1991.52,1479.3 1993.65,1479.3 1995.79,1479.3 1997.93,1479.3 2000.07,1479.3 2002.2,1479.3 2004.34,1479.3 2006.48,1479.3 2008.62,1479.3 2010.75,1479.3 2012.89,1479.3 2015.03,1479.3 2017.17,1479.3 2019.3,1479.3 2021.44,1479.3 2023.58,1479.3 2025.72,1479.3 2027.85,1479.3 2029.99,1479.3 2032.13,1479.3 2034.27,1479.3 2036.4,1479.3 2038.54,1479.3 2040.68,1479.3 2042.82,1479.3 2044.95,1479.3 2047.09,1479.3 2049.23,1479.3 2051.37,1479.3 2053.5,1479.3 2055.64,1479.3 2057.78,1479.3 2059.92,1479.3 2062.05,1479.3 2064.19,1479.3 2066.33,1479.3 2068.47,1479.3 2070.6,1479.3 2072.74,1479.3 2074.88,1479.3 2077.02,1479.3 2079.15,1479.3 2081.29,1479.3 2083.43,1479.3 2085.57,1479.3 2087.7,1479.3 2089.84,1479.3 2091.98,1479.3 2094.12,1479.3 2096.25,1479.3 2098.39,1479.3 2100.53,1479.3 2102.67,1479.3 2104.8,1479.3 2106.94,1479.3 2109.08,1479.3 2111.22,1479.3 2113.35,1479.3 2115.49,1479.3 2117.63,1479.3 2119.77,1479.3 2121.9,1479.3 2124.04,1479.3 2126.18,1479.3 2128.32,1479.3 2130.45,1479.3 2132.59,1479.3 2134.73,1479.3 2136.87,1479.3 2139,1479.3 2141.14,1479.3 2143.28,1479.3 2145.42,1479.3 2147.55,1479.3 2149.69,1479.3 2151.83,1479.3 2153.97,1479.3 2156.1,1479.3 2158.24,1479.3 2160.38,1479.3 2162.52,1479.3 2164.65,1479.3 2166.79,1479.3 2168.93,1479.3 2171.07,1479.3 2173.2,1479.3 2175.34,1479.3 2177.48,1479.3 2179.62,1479.3 2181.75,1479.3 2183.89,1479.3 2186.03,1479.3 2188.17,1479.3 2190.3,1479.3 2192.44,1479.3 2194.58,1479.3 2196.72,1479.3 2198.85,1479.3 2200.99,1479.3 2203.13,1479.3 2205.27,1479.3 2207.41,1479.3 2209.54,1479.3 2211.68,1479.3 2213.82,1479.3 2215.96,1479.3 2218.09,1479.3 2220.23,1479.3 2222.37,1479.3 2224.51,1479.3 2226.64,1479.3 2228.78,1479.3 2230.92,1479.3 2233.06,1479.3 2235.19,1479.3 2237.33,1479.3 2239.47,1479.3 2241.61,1479.3 2243.74,1479.3 2245.88,1479.3 2248.02,1479.3 2250.16,1479.3 2252.29,1479.3 2254.43,1479.3 2256.57,1479.3 2258.71,1479.3 2260.84,1479.3 2262.98,1479.3 2265.12,1479.3 2267.26,1479.3 2269.39,1479.3 2271.53,1479.3 2273.67,1479.3 2275.81,1479.3 2277.94,1479.3 2280.08,1479.3 2282.22,1479.3 2284.36,1479.3 2286.49,1479.3 2288.63,1479.3 "/>
<path clip-path="url(#clip380)" d="M1733.16 200.05 L2277.23 200.05 L2277.23 96.3696 L1733.16 96.3696  Z" fill="#ffffff" fill-rule="evenodd" fill-opacity="1"/>
<polyline clip-path="url(#clip380)" style="stroke:#000000; stroke-linecap:round; stroke-linejoin:round; stroke-width:4; stroke-opacity:1; fill:none" points="1733.16,200.05 2277.23,200.05 2277.23,96.3696 1733.16,96.3696 1733.16,200.05 "/>
<polyline clip-path="url(#clip380)" style="stroke:#009af9; stroke-linecap:round; stroke-linejoin:round; stroke-width:4; stroke-opacity:1; fill:none" points="1758.33,148.21 1909.38,148.21 "/>
<path clip-path="url(#clip380)" d="M1956.27 149.841 L1956.27 165.49 L1952.01 165.49 L1952.01 149.98 Q1952.01 146.3 1950.58 144.471 Q1949.14 142.642 1946.27 142.642 Q1942.82 142.642 1940.83 144.842 Q1938.84 147.041 1938.84 150.837 L1938.84 165.49 L1934.56 165.49 L1934.56 139.564 L1938.84 139.564 L1938.84 143.592 Q1940.37 141.254 1942.43 140.096 Q1944.51 138.939 1947.22 138.939 Q1951.69 138.939 1953.98 141.717 Q1956.27 144.471 1956.27 149.841 Z" fill="#000000" fill-rule="nonzero" fill-opacity="1" /><path clip-path="url(#clip380)" d="M1974.81 142.55 Q1971.39 142.55 1969.39 145.235 Q1967.4 147.897 1967.4 152.55 Q1967.4 157.203 1969.37 159.888 Q1971.36 162.55 1974.81 162.55 Q1978.21 162.55 1980.2 159.865 Q1982.2 157.179 1982.2 152.55 Q1982.2 147.943 1980.2 145.258 Q1978.21 142.55 1974.81 142.55 M1974.81 138.939 Q1980.37 138.939 1983.54 142.55 Q1986.71 146.161 1986.71 152.55 Q1986.71 158.916 1983.54 162.55 Q1980.37 166.161 1974.81 166.161 Q1969.23 166.161 1966.06 162.55 Q1962.91 158.916 1962.91 152.55 Q1962.91 146.161 1966.06 142.55 Q1969.23 138.939 1974.81 138.939 Z" fill="#000000" fill-rule="nonzero" fill-opacity="1" /><path clip-path="url(#clip380)" d="M2015.32 149.841 L2015.32 165.49 L2011.06 165.49 L2011.06 149.98 Q2011.06 146.3 2009.63 144.471 Q2008.19 142.642 2005.32 142.642 Q2001.87 142.642 1999.88 144.842 Q1997.89 147.041 1997.89 150.837 L1997.89 165.49 L1993.61 165.49 L1993.61 139.564 L1997.89 139.564 L1997.89 143.592 Q1999.42 141.254 2001.48 140.096 Q2003.56 138.939 2006.27 138.939 Q2010.74 138.939 2013.03 141.717 Q2015.32 144.471 2015.32 149.841 Z" fill="#000000" fill-rule="nonzero" fill-opacity="1" /><path clip-path="url(#clip380)" d="M2042.47 140.559 L2042.47 144.541 Q2040.67 143.545 2038.84 143.059 Q2037.03 142.55 2035.18 142.55 Q2031.04 142.55 2028.75 145.189 Q2026.45 147.804 2026.45 152.55 Q2026.45 157.295 2028.75 159.934 Q2031.04 162.55 2035.18 162.55 Q2037.03 162.55 2038.84 162.064 Q2040.67 161.554 2042.47 160.559 L2042.47 164.494 Q2040.69 165.328 2038.77 165.744 Q2036.87 166.161 2034.72 166.161 Q2028.86 166.161 2025.41 162.48 Q2021.96 158.8 2021.96 152.55 Q2021.96 146.207 2025.44 142.573 Q2028.93 138.939 2035 138.939 Q2036.96 138.939 2038.84 139.355 Q2040.71 139.749 2042.47 140.559 Z" fill="#000000" fill-rule="nonzero" fill-opacity="1" /><path clip-path="url(#clip380)" d="M2059.93 142.55 Q2056.5 142.55 2054.51 145.235 Q2052.52 147.897 2052.52 152.55 Q2052.52 157.203 2054.49 159.888 Q2056.48 162.55 2059.93 162.55 Q2063.33 162.55 2065.32 159.865 Q2067.31 157.179 2067.31 152.55 Q2067.31 147.943 2065.32 145.258 Q2063.33 142.55 2059.93 142.55 M2059.93 138.939 Q2065.48 138.939 2068.65 142.55 Q2071.82 146.161 2071.82 152.55 Q2071.82 158.916 2068.65 162.55 Q2065.48 166.161 2059.93 166.161 Q2054.35 166.161 2051.18 162.55 Q2048.03 158.916 2048.03 152.55 Q2048.03 146.161 2051.18 142.55 Q2054.35 138.939 2059.93 138.939 Z" fill="#000000" fill-rule="nonzero" fill-opacity="1" /><path clip-path="url(#clip380)" d="M2100.44 149.841 L2100.44 165.49 L2096.18 165.49 L2096.18 149.98 Q2096.18 146.3 2094.74 144.471 Q2093.31 142.642 2090.44 142.642 Q2086.99 142.642 2085 144.842 Q2083.01 147.041 2083.01 150.837 L2083.01 165.49 L2078.72 165.49 L2078.72 139.564 L2083.01 139.564 L2083.01 143.592 Q2084.53 141.254 2086.59 140.096 Q2088.68 138.939 2091.38 138.939 Q2095.85 138.939 2098.14 141.717 Q2100.44 144.471 2100.44 149.841 Z" fill="#000000" fill-rule="nonzero" fill-opacity="1" /><path clip-path="url(#clip380)" d="M2108.93 139.564 L2113.19 139.564 L2113.19 165.953 Q2113.19 170.906 2111.29 173.128 Q2109.42 175.351 2105.23 175.351 L2103.61 175.351 L2103.61 171.74 L2104.74 171.74 Q2107.17 171.74 2108.05 170.605 Q2108.93 169.494 2108.93 165.953 L2108.93 139.564 M2108.93 129.471 L2113.19 129.471 L2113.19 134.865 L2108.93 134.865 L2108.93 129.471 Z" fill="#000000" fill-rule="nonzero" fill-opacity="1" /><path clip-path="url(#clip380)" d="M2121.66 155.258 L2121.66 139.564 L2125.92 139.564 L2125.92 155.096 Q2125.92 158.777 2127.36 160.628 Q2128.79 162.457 2131.66 162.457 Q2135.11 162.457 2137.1 160.258 Q2139.12 158.059 2139.12 154.263 L2139.12 139.564 L2143.38 139.564 L2143.38 165.49 L2139.12 165.49 L2139.12 161.508 Q2137.57 163.869 2135.5 165.027 Q2133.47 166.161 2130.76 166.161 Q2126.29 166.161 2123.98 163.383 Q2121.66 160.605 2121.66 155.258 M2132.38 138.939 L2132.38 138.939 Z" fill="#000000" fill-rule="nonzero" fill-opacity="1" /><path clip-path="url(#clip380)" d="M2169.21 152.226 Q2169.21 147.596 2167.29 145.05 Q2165.39 142.504 2161.94 142.504 Q2158.51 142.504 2156.59 145.05 Q2154.69 147.596 2154.69 152.226 Q2154.69 156.832 2156.59 159.378 Q2158.51 161.925 2161.94 161.925 Q2165.39 161.925 2167.29 159.378 Q2169.21 156.832 2169.21 152.226 M2173.47 162.272 Q2173.47 168.892 2170.53 172.11 Q2167.59 175.351 2161.52 175.351 Q2159.28 175.351 2157.29 175.003 Q2155.3 174.679 2153.42 173.985 L2153.42 169.841 Q2155.3 170.86 2157.13 171.346 Q2158.95 171.832 2160.85 171.832 Q2165.04 171.832 2167.13 169.633 Q2169.21 167.457 2169.21 163.036 L2169.21 160.929 Q2167.89 163.221 2165.83 164.355 Q2163.77 165.49 2160.9 165.49 Q2156.13 165.49 2153.21 161.855 Q2150.3 158.221 2150.3 152.226 Q2150.3 146.207 2153.21 142.573 Q2156.13 138.939 2160.9 138.939 Q2163.77 138.939 2165.83 140.073 Q2167.89 141.207 2169.21 143.499 L2169.21 139.564 L2173.47 139.564 L2173.47 162.272 Z" fill="#000000" fill-rule="nonzero" fill-opacity="1" /><path clip-path="url(#clip380)" d="M2194.02 152.457 Q2188.86 152.457 2186.87 153.638 Q2184.88 154.818 2184.88 157.666 Q2184.88 159.934 2186.36 161.277 Q2187.87 162.596 2190.44 162.596 Q2193.98 162.596 2196.11 160.096 Q2198.26 157.573 2198.26 153.406 L2198.26 152.457 L2194.02 152.457 M2202.52 150.698 L2202.52 165.49 L2198.26 165.49 L2198.26 161.554 Q2196.8 163.915 2194.63 165.05 Q2192.45 166.161 2189.3 166.161 Q2185.32 166.161 2182.96 163.939 Q2180.62 161.693 2180.62 157.943 Q2180.62 153.568 2183.54 151.346 Q2186.48 149.124 2192.29 149.124 L2198.26 149.124 L2198.26 148.707 Q2198.26 145.767 2196.31 144.17 Q2194.39 142.55 2190.9 142.55 Q2188.68 142.55 2186.57 143.082 Q2184.46 143.615 2182.52 144.679 L2182.52 140.744 Q2184.86 139.842 2187.06 139.402 Q2189.25 138.939 2191.34 138.939 Q2196.96 138.939 2199.74 141.855 Q2202.52 144.772 2202.52 150.698 Z" fill="#000000" fill-rule="nonzero" fill-opacity="1" /><path clip-path="url(#clip380)" d="M2215.5 132.203 L2215.5 139.564 L2224.28 139.564 L2224.28 142.874 L2215.5 142.874 L2215.5 156.948 Q2215.5 160.119 2216.36 161.022 Q2217.24 161.925 2219.9 161.925 L2224.28 161.925 L2224.28 165.49 L2219.9 165.49 Q2214.97 165.49 2213.1 163.661 Q2211.22 161.809 2211.22 156.948 L2211.22 142.874 L2208.1 142.874 L2208.1 139.564 L2211.22 139.564 L2211.22 132.203 L2215.5 132.203 Z" fill="#000000" fill-rule="nonzero" fill-opacity="1" /><path clip-path="url(#clip380)" d="M2252.06 151.462 L2252.06 153.545 L2232.47 153.545 Q2232.75 157.943 2235.11 160.258 Q2237.5 162.55 2241.73 162.55 Q2244.18 162.55 2246.48 161.948 Q2248.79 161.346 2251.06 160.142 L2251.06 164.17 Q2248.77 165.142 2246.36 165.652 Q2243.95 166.161 2241.48 166.161 Q2235.27 166.161 2231.64 162.55 Q2228.03 158.939 2228.03 152.781 Q2228.03 146.416 2231.45 142.689 Q2234.9 138.939 2240.74 138.939 Q2245.97 138.939 2249 142.318 Q2252.06 145.675 2252.06 151.462 M2247.8 150.212 Q2247.75 146.717 2245.83 144.633 Q2243.93 142.55 2240.78 142.55 Q2237.22 142.55 2235.06 144.564 Q2232.94 146.578 2232.61 150.235 L2247.8 150.212 Z" fill="#000000" fill-rule="nonzero" fill-opacity="1" /></svg>
