<?xml version="1.0" encoding="utf-8"?>
<svg xmlns="http://www.w3.org/2000/svg" xmlns:xlink="http://www.w3.org/1999/xlink" width="600" height="400" viewBox="0 0 2400 1600">
<defs>
  <clipPath id="clip980">
    <rect x="0" y="0" width="2400" height="1600"/>
  </clipPath>
</defs>
<path clip-path="url(#clip980)" d="M0 1600 L2400 1600 L2400 0 L0 0  Z" fill="#ffffff" fill-rule="evenodd" fill-opacity="1"/>
<defs>
  <clipPath id="clip981">
    <rect x="480" y="0" width="1681" height="1600"/>
  </clipPath>
</defs>
<path clip-path="url(#clip980)" d="M86.9921 1521.01 L2352.76 1521.01 L2352.76 47.2441 L86.9921 47.2441  Z" fill="#ffffff" fill-rule="evenodd" fill-opacity="1"/>
<defs>
  <clipPath id="clip982">
    <rect x="86" y="47" width="2267" height="1475"/>
  </clipPath>
</defs>
<polyline clip-path="url(#clip982)" style="stroke:#000000; stroke-linecap:round; stroke-linejoin:round; stroke-width:2; stroke-opacity:0.1; fill:none" points="151.118,1521.01 151.118,47.2441 "/>
<polyline clip-path="url(#clip982)" style="stroke:#000000; stroke-linecap:round; stroke-linejoin:round; stroke-width:2; stroke-opacity:0.1; fill:none" points="863.622,1521.01 863.622,47.2441 "/>
<polyline clip-path="url(#clip982)" style="stroke:#000000; stroke-linecap:round; stroke-linejoin:round; stroke-width:2; stroke-opacity:0.1; fill:none" points="1576.13,1521.01 1576.13,47.2441 "/>
<polyline clip-path="url(#clip982)" style="stroke:#000000; stroke-linecap:round; stroke-linejoin:round; stroke-width:2; stroke-opacity:0.1; fill:none" points="2288.63,1521.01 2288.63,47.2441 "/>
<polyline clip-path="url(#clip980)" style="stroke:#000000; stroke-linecap:round; stroke-linejoin:round; stroke-width:4; stroke-opacity:1; fill:none" points="86.9921,1521.01 2352.76,1521.01 "/>
<polyline clip-path="url(#clip980)" style="stroke:#000000; stroke-linecap:round; stroke-linejoin:round; stroke-width:4; stroke-opacity:1; fill:none" points="151.118,1521.01 151.118,1502.11 "/>
<polyline clip-path="url(#clip980)" style="stroke:#000000; stroke-linecap:round; stroke-linejoin:round; stroke-width:4; stroke-opacity:1; fill:none" points="863.622,1521.01 863.622,1502.11 "/>
<polyline clip-path="url(#clip980)" style="stroke:#000000; stroke-linecap:round; stroke-linejoin:round; stroke-width:4; stroke-opacity:1; fill:none" points="1576.13,1521.01 1576.13,1502.11 "/>
<polyline clip-path="url(#clip980)" style="stroke:#000000; stroke-linecap:round; stroke-linejoin:round; stroke-width:4; stroke-opacity:1; fill:none" points="2288.63,1521.01 2288.63,1502.11 "/>
<path clip-path="url(#clip980)" d="M128.826 1551.93 Q125.215 1551.93 123.386 1555.49 Q121.581 1559.03 121.581 1566.16 Q121.581 1573.27 123.386 1576.83 Q125.215 1580.38 128.826 1580.38 Q132.46 1580.38 134.266 1576.83 Q136.094 1573.27 136.094 1566.16 Q136.094 1559.03 134.266 1555.49 Q132.46 1551.93 128.826 1551.93 M128.826 1548.22 Q134.636 1548.22 137.692 1552.83 Q140.77 1557.41 140.77 1566.16 Q140.77 1574.89 137.692 1579.5 Q134.636 1584.08 128.826 1584.08 Q123.016 1584.08 119.937 1579.5 Q116.882 1574.89 116.882 1566.16 Q116.882 1557.41 119.937 1552.83 Q123.016 1548.22 128.826 1548.22 Z" fill="#000000" fill-rule="nonzero" fill-opacity="1" /><path clip-path="url(#clip980)" d="M148.988 1577.53 L153.872 1577.53 L153.872 1583.41 L148.988 1583.41 L148.988 1577.53 Z" fill="#000000" fill-rule="nonzero" fill-opacity="1" /><path clip-path="url(#clip980)" d="M178.224 1564.77 Q181.58 1565.49 183.455 1567.76 Q185.353 1570.03 185.353 1573.36 Q185.353 1578.48 181.835 1581.28 Q178.316 1584.08 171.835 1584.08 Q169.659 1584.08 167.344 1583.64 Q165.053 1583.22 162.599 1582.37 L162.599 1577.85 Q164.543 1578.99 166.858 1579.57 Q169.173 1580.14 171.696 1580.14 Q176.094 1580.14 178.386 1578.41 Q180.701 1576.67 180.701 1573.36 Q180.701 1570.31 178.548 1568.59 Q176.418 1566.86 172.599 1566.86 L168.571 1566.86 L168.571 1563.01 L172.784 1563.01 Q176.233 1563.01 178.062 1561.65 Q179.891 1560.26 179.891 1557.67 Q179.891 1555.01 177.992 1553.59 Q176.117 1552.16 172.599 1552.16 Q170.678 1552.16 168.479 1552.57 Q166.279 1552.99 163.641 1553.87 L163.641 1549.7 Q166.303 1548.96 168.617 1548.59 Q170.955 1548.22 173.016 1548.22 Q178.34 1548.22 181.441 1550.65 Q184.543 1553.06 184.543 1557.18 Q184.543 1560.05 182.9 1562.04 Q181.256 1564.01 178.224 1564.77 Z" fill="#000000" fill-rule="nonzero" fill-opacity="1" /><path clip-path="url(#clip980)" d="M840.763 1551.93 Q837.152 1551.93 835.323 1555.49 Q833.518 1559.03 833.518 1566.16 Q833.518 1573.27 835.323 1576.83 Q837.152 1580.38 840.763 1580.38 Q844.397 1580.38 846.203 1576.83 Q848.032 1573.27 848.032 1566.16 Q848.032 1559.03 846.203 1555.49 Q844.397 1551.93 840.763 1551.93 M840.763 1548.22 Q846.573 1548.22 849.629 1552.83 Q852.708 1557.41 852.708 1566.16 Q852.708 1574.89 849.629 1579.5 Q846.573 1584.08 840.763 1584.08 Q834.953 1584.08 831.874 1579.5 Q828.819 1574.89 828.819 1566.16 Q828.819 1557.41 831.874 1552.83 Q834.953 1548.22 840.763 1548.22 Z" fill="#000000" fill-rule="nonzero" fill-opacity="1" /><path clip-path="url(#clip980)" d="M860.925 1577.53 L865.809 1577.53 L865.809 1583.41 L860.925 1583.41 L860.925 1577.53 Z" fill="#000000" fill-rule="nonzero" fill-opacity="1" /><path clip-path="url(#clip980)" d="M888.842 1552.92 L877.036 1571.37 L888.842 1571.37 L888.842 1552.92 M887.615 1548.85 L893.494 1548.85 L893.494 1571.37 L898.425 1571.37 L898.425 1575.26 L893.494 1575.26 L893.494 1583.41 L888.842 1583.41 L888.842 1575.26 L873.24 1575.26 L873.24 1570.75 L887.615 1548.85 Z" fill="#000000" fill-rule="nonzero" fill-opacity="1" /><path clip-path="url(#clip980)" d="M1554.01 1551.93 Q1550.4 1551.93 1548.57 1555.49 Q1546.76 1559.03 1546.76 1566.16 Q1546.76 1573.27 1548.57 1576.83 Q1550.4 1580.38 1554.01 1580.38 Q1557.64 1580.38 1559.45 1576.83 Q1561.28 1573.27 1561.28 1566.16 Q1561.28 1559.03 1559.45 1555.49 Q1557.64 1551.93 1554.01 1551.93 M1554.01 1548.22 Q1559.82 1548.22 1562.87 1552.83 Q1565.95 1557.41 1565.95 1566.16 Q1565.95 1574.89 1562.87 1579.5 Q1559.82 1584.08 1554.01 1584.08 Q1548.2 1584.08 1545.12 1579.5 Q1542.06 1574.89 1542.06 1566.16 Q1542.06 1557.41 1545.12 1552.83 Q1548.2 1548.22 1554.01 1548.22 Z" fill="#000000" fill-rule="nonzero" fill-opacity="1" /><path clip-path="url(#clip980)" d="M1574.17 1577.53 L1579.05 1577.53 L1579.05 1583.41 L1574.17 1583.41 L1574.17 1577.53 Z" fill="#000000" fill-rule="nonzero" fill-opacity="1" /><path clip-path="url(#clip980)" d="M1589.29 1548.85 L1607.64 1548.85 L1607.64 1552.78 L1593.57 1552.78 L1593.57 1561.26 Q1594.59 1560.91 1595.61 1560.75 Q1596.62 1560.56 1597.64 1560.56 Q1603.43 1560.56 1606.81 1563.73 Q1610.19 1566.9 1610.19 1572.32 Q1610.19 1577.9 1606.72 1581 Q1603.24 1584.08 1596.92 1584.08 Q1594.75 1584.08 1592.48 1583.71 Q1590.23 1583.34 1587.83 1582.6 L1587.83 1577.9 Q1589.91 1579.03 1592.13 1579.59 Q1594.36 1580.14 1596.83 1580.14 Q1600.84 1580.14 1603.17 1578.04 Q1605.51 1575.93 1605.51 1572.32 Q1605.51 1568.71 1603.17 1566.6 Q1600.84 1564.5 1596.83 1564.5 Q1594.96 1564.5 1593.08 1564.91 Q1591.23 1565.33 1589.29 1566.21 L1589.29 1548.85 Z" fill="#000000" fill-rule="nonzero" fill-opacity="1" /><path clip-path="url(#clip980)" d="M2265.93 1551.93 Q2262.32 1551.93 2260.49 1555.49 Q2258.69 1559.03 2258.69 1566.16 Q2258.69 1573.27 2260.49 1576.83 Q2262.32 1580.38 2265.93 1580.38 Q2269.57 1580.38 2271.37 1576.83 Q2273.2 1573.27 2273.2 1566.16 Q2273.2 1559.03 2271.37 1555.49 Q2269.57 1551.93 2265.93 1551.93 M2265.93 1548.22 Q2271.74 1548.22 2274.8 1552.83 Q2277.88 1557.41 2277.88 1566.16 Q2277.88 1574.89 2274.8 1579.5 Q2271.74 1584.08 2265.93 1584.08 Q2260.12 1584.08 2257.05 1579.5 Q2253.99 1574.89 2253.99 1566.16 Q2253.99 1557.41 2257.05 1552.83 Q2260.12 1548.22 2265.93 1548.22 Z" fill="#000000" fill-rule="nonzero" fill-opacity="1" /><path clip-path="url(#clip980)" d="M2286.1 1577.53 L2290.98 1577.53 L2290.98 1583.41 L2286.1 1583.41 L2286.1 1577.53 Z" fill="#000000" fill-rule="nonzero" fill-opacity="1" /><path clip-path="url(#clip980)" d="M2311.74 1564.26 Q2308.6 1564.26 2306.74 1566.42 Q2304.92 1568.57 2304.92 1572.32 Q2304.92 1576.05 2306.74 1578.22 Q2308.6 1580.38 2311.74 1580.38 Q2314.89 1580.38 2316.72 1578.22 Q2318.57 1576.05 2318.57 1572.32 Q2318.57 1568.57 2316.72 1566.42 Q2314.89 1564.26 2311.74 1564.26 M2321.03 1549.61 L2321.03 1553.87 Q2319.27 1553.04 2317.46 1552.6 Q2315.68 1552.16 2313.92 1552.16 Q2309.29 1552.16 2306.84 1555.28 Q2304.41 1558.41 2304.06 1564.73 Q2305.42 1562.71 2307.48 1561.65 Q2309.54 1560.56 2312.02 1560.56 Q2317.23 1560.56 2320.24 1563.73 Q2323.27 1566.88 2323.27 1572.32 Q2323.27 1577.64 2320.12 1580.86 Q2316.98 1584.08 2311.74 1584.08 Q2305.75 1584.08 2302.58 1579.5 Q2299.41 1574.89 2299.41 1566.16 Q2299.41 1557.97 2303.29 1553.11 Q2307.18 1548.22 2313.73 1548.22 Q2315.49 1548.22 2317.28 1548.57 Q2319.08 1548.92 2321.03 1549.61 Z" fill="#000000" fill-rule="nonzero" fill-opacity="1" /><polyline clip-path="url(#clip982)" style="stroke:#000000; stroke-linecap:round; stroke-linejoin:round; stroke-width:2; stroke-opacity:0.1; fill:none" points="86.9921,1479.3 2352.76,1479.3 "/>
<polyline clip-path="url(#clip982)" style="stroke:#000000; stroke-linecap:round; stroke-linejoin:round; stroke-width:2; stroke-opacity:0.1; fill:none" points="86.9921,1209.17 2352.76,1209.17 "/>
<polyline clip-path="url(#clip982)" style="stroke:#000000; stroke-linecap:round; stroke-linejoin:round; stroke-width:2; stroke-opacity:0.1; fill:none" points="86.9921,939.042 2352.76,939.042 "/>
<polyline clip-path="url(#clip982)" style="stroke:#000000; stroke-linecap:round; stroke-linejoin:round; stroke-width:2; stroke-opacity:0.1; fill:none" points="86.9921,668.914 2352.76,668.914 "/>
<polyline clip-path="url(#clip982)" style="stroke:#000000; stroke-linecap:round; stroke-linejoin:round; stroke-width:2; stroke-opacity:0.1; fill:none" points="86.9921,398.786 2352.76,398.786 "/>
<polyline clip-path="url(#clip982)" style="stroke:#000000; stroke-linecap:round; stroke-linejoin:round; stroke-width:2; stroke-opacity:0.1; fill:none" points="86.9921,128.658 2352.76,128.658 "/>
<polyline clip-path="url(#clip980)" style="stroke:#000000; stroke-linecap:round; stroke-linejoin:round; stroke-width:4; stroke-opacity:1; fill:none" points="86.9921,1521.01 86.9921,47.2441 "/>
<polyline clip-path="url(#clip980)" style="stroke:#000000; stroke-linecap:round; stroke-linejoin:round; stroke-width:4; stroke-opacity:1; fill:none" points="86.9921,1479.3 105.89,1479.3 "/>
<polyline clip-path="url(#clip980)" style="stroke:#000000; stroke-linecap:round; stroke-linejoin:round; stroke-width:4; stroke-opacity:1; fill:none" points="86.9921,1209.17 105.89,1209.17 "/>
<polyline clip-path="url(#clip980)" style="stroke:#000000; stroke-linecap:round; stroke-linejoin:round; stroke-width:4; stroke-opacity:1; fill:none" points="86.9921,939.042 105.89,939.042 "/>
<polyline clip-path="url(#clip980)" style="stroke:#000000; stroke-linecap:round; stroke-linejoin:round; stroke-width:4; stroke-opacity:1; fill:none" points="86.9921,668.914 105.89,668.914 "/>
<polyline clip-path="url(#clip980)" style="stroke:#000000; stroke-linecap:round; stroke-linejoin:round; stroke-width:4; stroke-opacity:1; fill:none" points="86.9921,398.786 105.89,398.786 "/>
<polyline clip-path="url(#clip980)" style="stroke:#000000; stroke-linecap:round; stroke-linejoin:round; stroke-width:4; stroke-opacity:1; fill:none" points="86.9921,128.658 105.89,128.658 "/>
<path clip-path="url(#clip980)" d="M10.8708 1479.3 Q10.8708 1482.91 14.4356 1484.74 Q17.9773 1486.54 25.1068 1486.54 Q32.2133 1486.54 35.7781 1484.74 Q39.3197 1482.91 39.3197 1479.3 Q39.3197 1475.66 35.7781 1473.86 Q32.2133 1472.03 25.1068 1472.03 Q17.9773 1472.03 14.4356 1473.86 Q10.8708 1475.66 10.8708 1479.3 M7.16713 1479.3 Q7.16713 1473.49 11.7736 1470.43 Q16.3569 1467.35 25.1068 1467.35 Q33.8337 1467.35 38.4401 1470.43 Q43.0234 1473.49 43.0234 1479.3 Q43.0234 1485.11 38.4401 1488.19 Q33.8337 1491.24 25.1068 1491.24 Q16.3569 1491.24 11.7736 1488.19 Q7.16713 1485.11 7.16713 1479.3 Z" fill="#000000" fill-rule="nonzero" fill-opacity="1" /><path clip-path="url(#clip980)" d="M7.79213 1218.89 L7.79213 1200.54 L11.7273 1200.54 L11.7273 1214.61 L20.1995 1214.61 Q19.8522 1213.59 19.6902 1212.57 Q19.505 1211.55 19.505 1210.54 Q19.505 1204.75 22.6763 1201.37 Q25.8476 1197.99 31.2642 1197.99 Q36.8429 1197.99 39.9447 1201.46 Q43.0234 1204.93 43.0234 1211.25 Q43.0234 1213.43 42.6531 1215.7 Q42.2827 1217.94 41.5419 1220.35 L36.8429 1220.35 Q37.9771 1218.27 38.5327 1216.04 Q39.0883 1213.82 39.0883 1211.35 Q39.0883 1207.34 36.9818 1205 Q34.8753 1202.67 31.2642 1202.67 Q27.6531 1202.67 25.5467 1205 Q23.4402 1207.34 23.4402 1211.35 Q23.4402 1213.22 23.8569 1215.1 Q24.2735 1216.95 25.1531 1218.89 L7.79213 1218.89 Z" fill="#000000" fill-rule="nonzero" fill-opacity="1" /><path clip-path="url(#clip980)" d="M38.417 964.354 L38.417 956.715 L12.0514 956.715 L13.718 965.026 L9.45878 965.026 L7.79213 956.762 L7.79213 952.086 L38.417 952.086 L38.417 944.447 L42.3521 944.447 L42.3521 964.354 L38.417 964.354 Z" fill="#000000" fill-rule="nonzero" fill-opacity="1" /><path clip-path="url(#clip980)" d="M10.8708 925.003 Q10.8708 928.614 14.4356 930.442 Q17.9773 932.248 25.1068 932.248 Q32.2133 932.248 35.7781 930.442 Q39.3197 928.614 39.3197 925.003 Q39.3197 921.368 35.7781 919.563 Q32.2133 917.734 25.1068 917.734 Q17.9773 917.734 14.4356 919.563 Q10.8708 921.368 10.8708 925.003 M7.16713 925.003 Q7.16713 919.192 11.7736 916.137 Q16.3569 913.058 25.1068 913.058 Q33.8337 913.058 38.4401 916.137 Q43.0234 919.192 43.0234 925.003 Q43.0234 930.813 38.4401 933.891 Q33.8337 936.947 25.1068 936.947 Q16.3569 936.947 11.7736 933.891 Q7.16713 930.813 7.16713 925.003 Z" fill="#000000" fill-rule="nonzero" fill-opacity="1" /><path clip-path="url(#clip980)" d="M38.417 693.729 L38.417 686.09 L12.0514 686.09 L13.718 694.4 L9.45878 694.4 L7.79213 686.136 L7.79213 681.46 L38.417 681.46 L38.417 673.821 L42.3521 673.821 L42.3521 693.729 L38.417 693.729 Z" fill="#000000" fill-rule="nonzero" fill-opacity="1" /><path clip-path="url(#clip980)" d="M7.79213 664.331 L7.79213 645.974 L11.7273 645.974 L11.7273 660.048 L20.1995 660.048 Q19.8522 659.03 19.6902 658.011 Q19.505 656.993 19.505 655.974 Q19.505 650.187 22.6763 646.808 Q25.8476 643.428 31.2642 643.428 Q36.8429 643.428 39.9447 646.9 Q43.0234 650.372 43.0234 656.692 Q43.0234 658.868 42.6531 661.136 Q42.2827 663.382 41.5419 665.789 L36.8429 665.789 Q37.9771 663.706 38.5327 661.483 Q39.0883 659.261 39.0883 656.784 Q39.0883 652.78 36.9818 650.442 Q34.8753 648.104 31.2642 648.104 Q27.6531 648.104 25.5467 650.442 Q23.4402 652.78 23.4402 656.784 Q23.4402 658.659 23.8569 660.534 Q24.2735 662.386 25.1531 664.331 L7.79213 664.331 Z" fill="#000000" fill-rule="nonzero" fill-opacity="1" /><path clip-path="url(#clip980)" d="M38.417 420.013 L38.417 403.693 L42.3521 403.693 L42.3521 425.638 L38.417 425.638 Q35.6623 422.976 31.0327 418.392 Q26.38 413.786 25.0374 412.605 Q22.5143 410.36 20.7782 409.481 Q19.0189 408.578 17.3291 408.578 Q14.5745 408.578 12.8384 410.522 Q11.1023 412.443 11.1023 415.545 Q11.1023 417.744 11.8662 420.198 Q12.6301 422.629 14.181 425.406 L9.45878 425.406 Q8.32453 422.582 7.74583 420.129 Q7.16713 417.675 7.16713 415.638 Q7.16713 410.268 9.8523 407.073 Q12.5375 403.879 17.0282 403.879 Q19.1578 403.879 21.0791 404.689 Q22.9772 405.476 25.5698 407.582 Q26.2411 408.161 29.4587 411.263 Q32.6531 414.365 38.417 420.013 Z" fill="#000000" fill-rule="nonzero" fill-opacity="1" /><path clip-path="url(#clip980)" d="M10.8708 383.879 Q10.8708 387.49 14.4356 389.319 Q17.9773 391.124 25.1068 391.124 Q32.2133 391.124 35.7781 389.319 Q39.3197 387.49 39.3197 383.879 Q39.3197 380.245 35.7781 378.439 Q32.2133 376.61 25.1068 376.61 Q17.9773 376.61 14.4356 378.439 Q10.8708 380.245 10.8708 383.879 M7.16713 383.879 Q7.16713 378.069 11.7736 375.013 Q16.3569 371.934 25.1068 371.934 Q33.8337 371.934 38.4401 375.013 Q43.0234 378.069 43.0234 383.879 Q43.0234 389.689 38.4401 392.768 Q33.8337 395.823 25.1068 395.823 Q16.3569 395.823 11.7736 392.768 Q7.16713 389.689 7.16713 383.879 Z" fill="#000000" fill-rule="nonzero" fill-opacity="1" /><path clip-path="url(#clip980)" d="M38.417 149.387 L38.417 133.068 L42.3521 133.068 L42.3521 155.012 L38.417 155.012 Q35.6623 152.35 31.0327 147.767 Q26.38 143.16 25.0374 141.98 Q22.5143 139.735 20.7782 138.855 Q19.0189 137.952 17.3291 137.952 Q14.5745 137.952 12.8384 139.897 Q11.1023 141.818 11.1023 144.92 Q11.1023 147.119 11.8662 149.572 Q12.6301 152.003 14.181 154.781 L9.45878 154.781 Q8.32453 151.957 7.74583 149.503 Q7.16713 147.049 7.16713 145.012 Q7.16713 139.642 9.8523 136.448 Q12.5375 133.253 17.0282 133.253 Q19.1578 133.253 21.0791 134.063 Q22.9772 134.85 25.5698 136.957 Q26.2411 137.536 29.4587 140.637 Q32.6531 143.739 38.417 149.387 Z" fill="#000000" fill-rule="nonzero" fill-opacity="1" /><path clip-path="url(#clip980)" d="M7.79213 123.207 L7.79213 104.851 L11.7273 104.851 L11.7273 118.925 L20.1995 118.925 Q19.8522 117.906 19.6902 116.887 Q19.505 115.869 19.505 114.85 Q19.505 109.063 22.6763 105.684 Q25.8476 102.304 31.2642 102.304 Q36.8429 102.304 39.9447 105.776 Q43.0234 109.249 43.0234 115.568 Q43.0234 117.744 42.6531 120.012 Q42.2827 122.258 41.5419 124.665 L36.8429 124.665 Q37.9771 122.582 38.5327 120.36 Q39.0883 118.137 39.0883 115.661 Q39.0883 111.656 36.9818 109.318 Q34.8753 106.98 31.2642 106.98 Q27.6531 106.98 25.5467 109.318 Q23.4402 111.656 23.4402 115.661 Q23.4402 117.536 23.8569 119.411 Q24.2735 121.262 25.1531 123.207 L7.79213 123.207 Z" fill="#000000" fill-rule="nonzero" fill-opacity="1" /><polyline clip-path="url(#clip982)" style="stroke:#009af9; stroke-linecap:round; stroke-linejoin:round; stroke-width:4; stroke-opacity:1; fill:none" points="151.118,1479.3 158.243,1479.3 165.368,1479.3 172.493,1479.3 179.618,1479.3 186.743,1479.3 193.868,1479.3 200.993,1479.3 208.118,1479.3 215.243,1479.3 222.368,1479.3 229.493,1479.3 236.618,1479.3 243.743,1479.3 250.868,1479.3 257.993,1479.3 265.118,1479.3 272.243,1479.3 279.368,1479.3 286.493,1479.3 293.618,1479.3 300.743,1479.3 307.868,1479.3 314.994,1479.3 322.119,1479.3 329.244,1479.3 336.369,1479.3 343.494,1479.3 350.619,1479.3 357.744,1479.3 364.869,1479.3 371.994,1479.3 379.119,1479.3 386.244,1479.3 393.369,1479.3 400.494,1479.3 407.619,1479.3 414.744,1479.3 421.869,1479.3 428.994,1479.3 436.119,1479.3 443.244,1479.3 450.369,1479.3 457.494,1479.3 464.619,1479.3 471.744,1479.3 478.87,1479.3 485.995,1479.3 493.12,1479.3 500.245,1479.3 507.37,1479.3 514.495,1479.3 521.62,1479.3 528.745,1479.3 535.87,1479.3 542.995,1479.3 550.12,1479.3 557.245,1479.3 564.37,1479.3 571.495,1479.3 578.62,1479.3 585.745,1479.3 592.87,1479.3 599.995,1479.3 607.12,1479.3 614.245,1479.3 621.37,1479.3 628.495,1479.3 635.62,1479.3 642.746,1479.3 649.871,1479.3 656.996,1479.3 664.121,1479.29 671.246,1479.29 678.371,1479.29 685.496,1479.29 692.621,1479.29 699.746,1479.29 706.871,1479.28 713.996,1479.28 721.121,1479.27 728.246,1479.26 735.371,1479.25 742.496,1479.24 749.621,1479.22 756.746,1479.2 763.871,1479.16 770.996,1479.1 778.121,1479.02 785.246,1478.92 792.371,1478.79 799.496,1478.62 806.622,1478.4 813.747,1478.11 820.872,1477.75 827.997,1477.28 835.122,1476.7 842.247,1475.96 849.372,1475.05 856.497,1473.91 863.622,1472.52 870.747,1470.81 877.872,1468.73 884.997,1466.22 892.122,1463.2 899.247,1459.59 906.372,1455.3 913.497,1450.22 920.622,1444.25 927.747,1437.27 934.872,1429.16 941.997,1419.77 949.122,1408.98 956.247,1396.62 963.372,1382.57 970.497,1366.67 977.623,1348.78 984.748,1328.76 991.873,1306.47 998.998,1281.81 1006.12,1254.66 1013.25,1224.96 1020.37,1192.63 1027.5,1157.66 1034.62,1120.04 1041.75,1079.82 1048.87,1037.07 1056,991.92 1063.12,944.527 1070.25,895.102 1077.37,843.9 1084.5,791.221 1091.62,737.407 1098.75,682.843 1105.87,627.95 1113,573.179 1120.12,519.012 1127.25,465.948 1134.37,414.499 1141.5,365.182 1148.62,318.51 1155.75,274.982 1162.87,235.076 1170,199.24 1177.12,167.883 1184.25,141.366 1191.37,119.999 1198.5,104.029 1205.62,93.642 1212.75,88.9544 1219.87,90.0128 1227,96.7932 1234.12,109.201 1241.25,127.075 1248.37,150.188 1255.5,178.253 1262.62,210.931 1269.75,247.833 1276.87,288.534 1284,332.574 1291.12,379.471 1298.25,428.731 1305.37,479.852 1312.5,532.332 1319.62,585.685 1326.75,639.436 1333.87,693.138 1341,746.371 1348.12,798.75 1355.25,849.927 1362.37,899.594 1369.5,947.485 1376.62,993.376 1383.75,1037.09 1390.88,1078.48 1398,1117.45 1405.13,1153.93 1412.25,1187.91 1419.38,1219.38 1426.5,1248.38 1433.63,1274.96 1440.75,1299.2 1447.88,1321.2 1455,1341.07 1462.13,1358.92 1469.25,1374.88 1476.38,1390.71 1483.5,1404.44 1490.63,1416.3 1497.75,1426.48 1504.88,1435.2 1512,1442.63 1519.13,1448.92 1526.25,1454.24 1533.38,1458.71 1540.5,1462.45 1547.63,1465.56 1554.75,1468.15 1561.88,1470.28 1569,1472.04 1576.13,1473.47 1583.25,1474.64 1590.38,1475.6 1597.5,1476.36 1604.63,1476.98 1611.75,1477.48 1618.88,1477.87 1626,1478.19 1633.13,1478.43 1640.25,1478.63 1647.38,1478.78 1654.5,1478.9 1661.63,1479 1668.75,1479.07 1675.88,1479.12 1683,1479.17 1690.13,1479.2 1697.25,1479.22 1704.38,1479.24 1711.5,1479.26 1718.63,1479.27 1725.75,1479.28 1732.88,1479.28 1740,1479.29 1747.13,1479.29 1754.25,1479.29 1761.38,1479.29 1768.5,1479.29 1775.63,1479.3 1782.75,1479.3 1789.88,1479.3 1797,1479.3 1804.13,1479.3 1811.25,1479.3 1818.38,1479.3 1825.5,1479.3 1832.63,1479.3 1839.75,1479.3 1846.88,1479.3 1854,1479.3 1861.13,1479.3 1868.25,1479.3 1875.38,1479.3 1882.5,1479.3 1889.63,1479.3 1896.75,1479.3 1903.88,1479.3 1911,1479.3 1918.13,1479.3 1925.25,1479.3 1932.38,1479.3 1939.5,1479.3 1946.63,1479.3 1953.75,1479.3 1960.88,1479.3 1968,1479.3 1975.13,1479.3 1982.25,1479.3 1989.38,1479.3 1996.5,1479.3 2003.63,1479.3 2010.75,1479.3 2017.88,1479.3 2025,1479.3 2032.13,1479.3 2039.25,1479.3 2046.38,1479.3 2053.5,1479.3 2060.63,1479.3 2067.75,1479.3 2074.88,1479.3 2082,1479.3 2089.13,1479.3 2096.25,1479.3 2103.38,1479.3 2110.5,1479.3 2117.63,1479.3 2124.75,1479.3 2131.88,1479.3 2139,1479.3 2146.13,1479.3 2153.25,1479.3 2160.38,1479.3 2167.5,1479.3 2174.63,1479.3 2181.75,1479.3 2188.88,1479.3 2196,1479.3 2203.13,1479.3 2210.26,1479.3 2217.38,1479.3 2224.51,1479.3 2231.63,1479.3 2238.76,1479.3 2245.88,1479.3 2253.01,1479.3 2260.13,1479.3 2267.26,1479.3 2274.38,1479.3 2281.51,1479.3 2288.63,1479.3 "/>
<polyline clip-path="url(#clip982)" style="stroke:#e26f46; stroke-linecap:round; stroke-linejoin:round; stroke-width:4; stroke-opacity:1; fill:none" points="151.118,1479.3 158.243,1479.3 165.368,1479.3 172.493,1479.3 179.618,1479.3 186.743,1479.3 193.868,1479.3 200.993,1479.3 208.118,1479.3 215.243,1479.3 222.368,1479.3 229.493,1479.3 236.618,1479.3 243.743,1479.3 250.868,1479.3 257.993,1479.3 265.118,1479.3 272.243,1479.3 279.368,1479.3 286.493,1479.3 293.618,1479.3 300.743,1479.3 307.868,1479.3 314.994,1479.3 322.119,1479.3 329.244,1479.3 336.369,1479.3 343.494,1479.3 350.619,1479.3 357.744,1479.3 364.869,1479.3 371.994,1479.3 379.119,1479.3 386.244,1479.3 393.369,1479.3 400.494,1479.3 407.619,1479.3 414.744,1479.3 421.869,1479.3 428.994,1479.3 436.119,1479.3 443.244,1479.3 450.369,1479.3 457.494,1479.3 464.619,1479.3 471.744,1479.3 478.87,1479.3 485.995,1479.3 493.12,1479.3 500.245,1479.3 507.37,1479.3 514.495,1479.3 521.62,1479.3 528.745,1479.3 535.87,1479.3 542.995,1479.3 550.12,1479.3 557.245,1479.3 564.37,1479.3 571.495,1479.3 578.62,1479.3 585.745,1479.3 592.87,1479.3 599.995,1479.3 607.12,1479.3 614.245,1479.3 621.37,1479.29 628.495,1479.29 635.62,1479.29 642.746,1479.29 649.871,1479.29 656.996,1479.28 664.121,1479.28 671.246,1479.27 678.371,1479.26 685.496,1479.25 692.621,1479.24 699.746,1479.22 706.871,1479.19 713.996,1479.15 721.121,1479.11 728.246,1479.05 735.371,1478.97 742.496,1478.87 749.621,1478.74 756.746,1478.58 763.871,1478.38 770.996,1478.13 778.121,1477.81 785.246,1477.41 792.371,1476.91 799.496,1476.3 806.622,1475.55 813.747,1474.63 820.872,1473.51 827.997,1472.15 835.122,1470.51 842.247,1468.54 849.372,1466.18 856.497,1463.38 863.622,1460.06 870.747,1456.14 877.872,1451.54 884.997,1446.16 892.122,1439.92 899.247,1432.69 906.372,1424.37 913.497,1414.83 920.622,1403.95 927.747,1391.6 934.872,1377.65 941.997,1361.98 949.122,1344.44 956.247,1324.93 963.372,1303.32 970.497,1279.52 977.623,1253.43 984.748,1224.98 991.873,1194.12 998.998,1160.83 1006.12,1125.11 1013.25,1086.98 1020.37,1046.53 1027.5,1003.85 1034.62,959.08 1041.75,912.407 1048.87,864.051 1056,814.272 1063.12,763.372 1070.25,711.688 1077.37,659.59 1084.5,607.482 1091.62,555.789 1098.75,504.962 1105.87,455.46 1113,407.755 1120.12,362.315 1127.25,319.604 1134.37,280.067 1141.5,244.129 1148.62,212.185 1155.75,184.588 1162.87,161.651 1170,143.636 1177.12,130.748 1184.25,123.135 1191.37,120.882 1198.5,124.011 1205.62,132.481 1212.75,146.187 1219.87,164.963 1227,188.587 1234.12,216.783 1241.25,249.228 1248.37,285.558 1255.5,325.371 1262.62,368.242 1269.75,413.723 1276.87,461.354 1284,510.673 1291.12,561.216 1298.25,612.533 1305.37,664.188 1312.5,715.765 1319.62,766.879 1326.75,817.171 1333.87,866.319 1341,914.037 1348.12,960.078 1355.25,1004.23 1362.37,1046.33 1369.5,1086.23 1376.62,1123.85 1383.75,1159.13 1390.88,1192.03 1398,1222.55 1405.13,1250.72 1412.25,1276.6 1419.38,1300.25 1426.5,1321.75 1433.63,1341.22 1440.75,1358.75 1447.88,1374.46 1455,1388.48 1462.13,1400.94 1469.25,1411.94 1476.38,1421.63 1483.5,1430.12 1490.63,1437.52 1497.75,1443.95 1504.88,1449.5 1512,1454.28 1519.13,1458.37 1526.25,1461.87 1533.38,1464.83 1540.5,1467.34 1547.63,1469.45 1554.75,1471.22 1561.88,1472.7 1569,1473.93 1576.13,1474.95 1583.25,1475.79 1590.38,1476.47 1597.5,1477.03 1604.63,1477.49 1611.75,1477.86 1618.88,1478.16 1626,1478.4 1633.13,1478.59 1640.25,1478.75 1647.38,1478.87 1654.5,1478.96 1661.63,1479.04 1668.75,1479.1 1675.88,1479.15 1683,1479.18 1690.13,1479.21 1697.25,1479.23 1704.38,1479.25 1711.5,1479.26 1718.63,1479.27 1725.75,1479.28 1732.88,1479.28 1740,1479.29 1747.13,1479.29 1754.25,1479.29 1761.38,1479.29 1768.5,1479.29 1775.63,1479.3 1782.75,1479.3 1789.88,1479.3 1797,1479.3 1804.13,1479.3 1811.25,1479.3 1818.38,1479.3 1825.5,1479.3 1832.63,1479.3 1839.75,1479.3 1846.88,1479.3 1854,1479.3 1861.13,1479.3 1868.25,1479.3 1875.38,1479.3 1882.5,1479.3 1889.63,1479.3 1896.75,1479.3 1903.88,1479.3 1911,1479.3 1918.13,1479.3 1925.25,1479.3 1932.38,1479.3 1939.5,1479.3 1946.63,1479.3 1953.75,1479.3 1960.88,1479.3 1968,1479.3 1975.13,1479.3 1982.25,1479.3 1989.38,1479.3 1996.5,1479.3 2003.63,1479.3 2010.75,1479.3 2017.88,1479.3 2025,1479.3 2032.13,1479.3 2039.25,1479.3 2046.38,1479.3 2053.5,1479.3 2060.63,1479.3 2067.75,1479.3 2074.88,1479.3 2082,1479.3 2089.13,1479.3 2096.25,1479.3 2103.38,1479.3 2110.5,1479.3 2117.63,1479.3 2124.75,1479.3 2131.88,1479.3 2139,1479.3 2146.13,1479.3 2153.25,1479.3 2160.38,1479.3 2167.5,1479.3 2174.63,1479.3 2181.75,1479.3 2188.88,1479.3 2196,1479.3 2203.13,1479.3 2210.26,1479.3 2217.38,1479.3 2224.51,1479.3 2231.63,1479.3 2238.76,1479.3 2245.88,1479.3 2253.01,1479.3 2260.13,1479.3 2267.26,1479.3 2274.38,1479.3 2281.51,1479.3 2288.63,1479.3 "/>
<path clip-path="url(#clip980)" d="M1733.16 251.89 L2277.23 251.89 L2277.23 96.3696 L1733.16 96.3696  Z" fill="#ffffff" fill-rule="evenodd" fill-opacity="1"/>
<polyline clip-path="url(#clip980)" style="stroke:#000000; stroke-linecap:round; stroke-linejoin:round; stroke-width:4; stroke-opacity:1; fill:none" points="1733.16,251.89 2277.23,251.89 2277.23,96.3696 1733.16,96.3696 1733.16,251.89 "/>
<polyline clip-path="url(#clip980)" style="stroke:#009af9; stroke-linecap:round; stroke-linejoin:round; stroke-width:4; stroke-opacity:1; fill:none" points="1758.33,148.21 1909.38,148.21 "/>
<path clip-path="url(#clip980)" d="M1956.27 149.841 L1956.27 165.49 L1952.01 165.49 L1952.01 149.98 Q1952.01 146.3 1950.58 144.471 Q1949.14 142.642 1946.27 142.642 Q1942.82 142.642 1940.83 144.842 Q1938.84 147.041 1938.84 150.837 L1938.84 165.49 L1934.56 165.49 L1934.56 139.564 L1938.84 139.564 L1938.84 143.592 Q1940.37 141.254 1942.43 140.096 Q1944.51 138.939 1947.22 138.939 Q1951.69 138.939 1953.98 141.717 Q1956.27 144.471 1956.27 149.841 Z" fill="#000000" fill-rule="nonzero" fill-opacity="1" /><path clip-path="url(#clip980)" d="M1974.81 142.55 Q1971.39 142.55 1969.39 145.235 Q1967.4 147.897 1967.4 152.55 Q1967.4 157.203 1969.37 159.888 Q1971.36 162.55 1974.81 162.55 Q1978.21 162.55 1980.2 159.865 Q1982.2 157.179 1982.2 152.55 Q1982.2 147.943 1980.2 145.258 Q1978.21 142.55 1974.81 142.55 M1974.81 138.939 Q1980.37 138.939 1983.54 142.55 Q1986.71 146.161 1986.71 152.55 Q1986.71 158.916 1983.54 162.55 Q1980.37 166.161 1974.81 166.161 Q1969.23 166.161 1966.06 162.55 Q1962.91 158.916 1962.91 152.55 Q1962.91 146.161 1966.06 142.55 Q1969.23 138.939 1974.81 138.939 Z" fill="#000000" fill-rule="nonzero" fill-opacity="1" /><path clip-path="url(#clip980)" d="M2015.32 149.841 L2015.32 165.49 L2011.06 165.49 L2011.06 149.98 Q2011.06 146.3 2009.63 144.471 Q2008.19 142.642 2005.32 142.642 Q2001.87 142.642 1999.88 144.842 Q1997.89 147.041 1997.89 150.837 L1997.89 165.49 L1993.61 165.49 L1993.61 139.564 L1997.89 139.564 L1997.89 143.592 Q1999.42 141.254 2001.48 140.096 Q2003.56 138.939 2006.27 138.939 Q2010.74 138.939 2013.03 141.717 Q2015.32 144.471 2015.32 149.841 Z" fill="#000000" fill-rule="nonzero" fill-opacity="1" /><path clip-path="url(#clip980)" d="M2042.47 140.559 L2042.47 144.541 Q2040.67 143.545 2038.84 143.059 Q2037.03 142.55 2035.18 142.55 Q2031.04 142.55 2028.75 145.189 Q2026.45 147.804 2026.45 152.55 Q2026.45 157.295 2028.75 159.934 Q2031.04 162.55 2035.18 162.55 Q2037.03 162.55 2038.84 162.064 Q2040.67 161.554 2042.47 160.559 L2042.47 164.494 Q2040.69 165.328 2038.77 165.744 Q2036.87 166.161 2034.72 166.161 Q2028.86 166.161 2025.41 162.48 Q2021.96 158.8 2021.96 152.55 Q2021.96 146.207 2025.44 142.573 Q2028.93 138.939 2035 138.939 Q2036.96 138.939 2038.84 139.355 Q2040.71 139.749 2042.47 140.559 Z" fill="#000000" fill-rule="nonzero" fill-opacity="1" /><path clip-path="url(#clip980)" d="M2059.93 142.55 Q2056.5 142.55 2054.51 145.235 Q2052.52 147.897 2052.52 152.55 Q2052.52 157.203 2054.49 159.888 Q2056.48 162.55 2059.93 162.55 Q2063.33 162.55 2065.32 159.865 Q2067.31 157.179 2067.31 152.55 Q2067.31 147.943 2065.32 145.258 Q2063.33 142.55 2059.93 142.55 M2059.93 138.939 Q2065.48 138.939 2068.65 142.55 Q2071.82 146.161 2071.82 152.55 Q2071.82 158.916 2068.65 162.55 Q2065.48 166.161 2059.93 166.161 Q2054.35 166.161 2051.18 162.55 Q2048.03 158.916 2048.03 152.55 Q2048.03 146.161 2051.18 142.55 Q2054.35 138.939 2059.93 138.939 Z" fill="#000000" fill-rule="nonzero" fill-opacity="1" /><path clip-path="url(#clip980)" d="M2100.44 149.841 L2100.44 165.49 L2096.18 165.49 L2096.18 149.98 Q2096.18 146.3 2094.74 144.471 Q2093.31 142.642 2090.44 142.642 Q2086.99 142.642 2085 144.842 Q2083.01 147.041 2083.01 150.837 L2083.01 165.49 L2078.72 165.49 L2078.72 139.564 L2083.01 139.564 L2083.01 143.592 Q2084.53 141.254 2086.59 140.096 Q2088.68 138.939 2091.38 138.939 Q2095.85 138.939 2098.14 141.717 Q2100.44 144.471 2100.44 149.841 Z" fill="#000000" fill-rule="nonzero" fill-opacity="1" /><path clip-path="url(#clip980)" d="M2108.93 139.564 L2113.19 139.564 L2113.19 165.953 Q2113.19 170.906 2111.29 173.128 Q2109.42 175.351 2105.23 175.351 L2103.61 175.351 L2103.61 171.74 L2104.74 171.74 Q2107.17 171.74 2108.05 170.605 Q2108.93 169.494 2108.93 165.953 L2108.93 139.564 M2108.93 129.471 L2113.19 129.471 L2113.19 134.865 L2108.93 134.865 L2108.93 129.471 Z" fill="#000000" fill-rule="nonzero" fill-opacity="1" /><path clip-path="url(#clip980)" d="M2121.66 155.258 L2121.66 139.564 L2125.92 139.564 L2125.92 155.096 Q2125.92 158.777 2127.36 160.628 Q2128.79 162.457 2131.66 162.457 Q2135.11 162.457 2137.1 160.258 Q2139.12 158.059 2139.12 154.263 L2139.12 139.564 L2143.38 139.564 L2143.38 165.49 L2139.12 165.49 L2139.12 161.508 Q2137.57 163.869 2135.5 165.027 Q2133.47 166.161 2130.76 166.161 Q2126.29 166.161 2123.98 163.383 Q2121.66 160.605 2121.66 155.258 M2132.38 138.939 L2132.38 138.939 Z" fill="#000000" fill-rule="nonzero" fill-opacity="1" /><path clip-path="url(#clip980)" d="M2169.21 152.226 Q2169.21 147.596 2167.29 145.05 Q2165.39 142.504 2161.94 142.504 Q2158.51 142.504 2156.59 145.05 Q2154.69 147.596 2154.69 152.226 Q2154.69 156.832 2156.59 159.378 Q2158.51 161.925 2161.94 161.925 Q2165.39 161.925 2167.29 159.378 Q2169.21 156.832 2169.21 152.226 M2173.47 162.272 Q2173.47 168.892 2170.53 172.11 Q2167.59 175.351 2161.52 175.351 Q2159.28 175.351 2157.29 175.003 Q2155.3 174.679 2153.42 173.985 L2153.42 169.841 Q2155.3 170.86 2157.13 171.346 Q2158.95 171.832 2160.85 171.832 Q2165.04 171.832 2167.13 169.633 Q2169.21 167.457 2169.21 163.036 L2169.21 160.929 Q2167.89 163.221 2165.83 164.355 Q2163.77 165.49 2160.9 165.49 Q2156.13 165.49 2153.21 161.855 Q2150.3 158.221 2150.3 152.226 Q2150.3 146.207 2153.21 142.573 Q2156.13 138.939 2160.9 138.939 Q2163.77 138.939 2165.83 140.073 Q2167.89 141.207 2169.21 143.499 L2169.21 139.564 L2173.47 139.564 L2173.47 162.272 Z" fill="#000000" fill-rule="nonzero" fill-opacity="1" /><path clip-path="url(#clip980)" d="M2194.02 152.457 Q2188.86 152.457 2186.87 153.638 Q2184.88 154.818 2184.88 157.666 Q2184.88 159.934 2186.36 161.277 Q2187.87 162.596 2190.44 162.596 Q2193.98 162.596 2196.11 160.096 Q2198.26 157.573 2198.26 153.406 L2198.26 152.457 L2194.02 152.457 M2202.52 150.698 L2202.52 165.49 L2198.26 165.49 L2198.26 161.554 Q2196.8 163.915 2194.63 165.05 Q2192.45 166.161 2189.3 166.161 Q2185.32 166.161 2182.96 163.939 Q2180.62 161.693 2180.62 157.943 Q2180.62 153.568 2183.54 151.346 Q2186.48 149.124 2192.29 149.124 L2198.26 149.124 L2198.26 148.707 Q2198.26 145.767 2196.31 144.17 Q2194.39 142.55 2190.9 142.55 Q2188.68 142.55 2186.57 143.082 Q2184.46 143.615 2182.52 144.679 L2182.52 140.744 Q2184.86 139.842 2187.06 139.402 Q2189.25 138.939 2191.34 138.939 Q2196.96 138.939 2199.74 141.855 Q2202.52 144.772 2202.52 150.698 Z" fill="#000000" fill-rule="nonzero" fill-opacity="1" /><path clip-path="url(#clip980)" d="M2215.5 132.203 L2215.5 139.564 L2224.28 139.564 L2224.28 142.874 L2215.5 142.874 L2215.5 156.948 Q2215.5 160.119 2216.36 161.022 Q2217.24 161.925 2219.9 161.925 L2224.28 161.925 L2224.28 165.49 L2219.9 165.49 Q2214.97 165.49 2213.1 163.661 Q2211.22 161.809 2211.22 156.948 L2211.22 142.874 L2208.1 142.874 L2208.1 139.564 L2211.22 139.564 L2211.22 132.203 L2215.5 132.203 Z" fill="#000000" fill-rule="nonzero" fill-opacity="1" /><path clip-path="url(#clip980)" d="M2252.06 151.462 L2252.06 153.545 L2232.47 153.545 Q2232.75 157.943 2235.11 160.258 Q2237.5 162.55 2241.73 162.55 Q2244.18 162.55 2246.48 161.948 Q2248.79 161.346 2251.06 160.142 L2251.06 164.17 Q2248.77 165.142 2246.36 165.652 Q2243.95 166.161 2241.48 166.161 Q2235.27 166.161 2231.64 162.55 Q2228.03 158.939 2228.03 152.781 Q2228.03 146.416 2231.45 142.689 Q2234.9 138.939 2240.74 138.939 Q2245.97 138.939 2249 142.318 Q2252.06 145.675 2252.06 151.462 M2247.8 150.212 Q2247.75 146.717 2245.83 144.633 Q2243.93 142.55 2240.78 142.55 Q2237.22 142.55 2235.06 144.564 Q2232.94 146.578 2232.61 150.235 L2247.8 150.212 Z" fill="#000000" fill-rule="nonzero" fill-opacity="1" /><polyline clip-path="url(#clip980)" style="stroke:#e26f46; stroke-linecap:round; stroke-linejoin:round; stroke-width:4; stroke-opacity:1; fill:none" points="1758.33,200.05 1909.38,200.05 "/>
<path clip-path="url(#clip980)" d="M1955.07 192.399 L1955.07 196.381 Q1953.26 195.385 1951.43 194.899 Q1949.63 194.39 1947.77 194.39 Q1943.63 194.39 1941.34 197.029 Q1939.05 199.644 1939.05 204.39 Q1939.05 209.135 1941.34 211.774 Q1943.63 214.39 1947.77 214.39 Q1949.63 214.39 1951.43 213.904 Q1953.26 213.394 1955.07 212.399 L1955.07 216.334 Q1953.28 217.168 1951.36 217.584 Q1949.46 218.001 1947.31 218.001 Q1941.46 218.001 1938.01 214.32 Q1934.56 210.64 1934.56 204.39 Q1934.56 198.047 1938.03 194.413 Q1941.52 190.779 1947.59 190.779 Q1949.56 190.779 1951.43 191.195 Q1953.31 191.589 1955.07 192.399 Z" fill="#000000" fill-rule="nonzero" fill-opacity="1" /><path clip-path="url(#clip980)" d="M1972.52 194.39 Q1969.09 194.39 1967.1 197.075 Q1965.11 199.737 1965.11 204.39 Q1965.11 209.043 1967.08 211.728 Q1969.07 214.39 1972.52 214.39 Q1975.92 214.39 1977.91 211.705 Q1979.9 209.019 1979.9 204.39 Q1979.9 199.783 1977.91 197.098 Q1975.92 194.39 1972.52 194.39 M1972.52 190.779 Q1978.08 190.779 1981.25 194.39 Q1984.42 198.001 1984.42 204.39 Q1984.42 210.756 1981.25 214.39 Q1978.08 218.001 1972.52 218.001 Q1966.94 218.001 1963.77 214.39 Q1960.62 210.756 1960.62 204.39 Q1960.62 198.001 1963.77 194.39 Q1966.94 190.779 1972.52 190.779 Z" fill="#000000" fill-rule="nonzero" fill-opacity="1" /><path clip-path="url(#clip980)" d="M2013.03 201.681 L2013.03 217.33 L2008.77 217.33 L2008.77 201.82 Q2008.77 198.14 2007.33 196.311 Q2005.9 194.482 2003.03 194.482 Q1999.58 194.482 1997.59 196.682 Q1995.6 198.881 1995.6 202.677 L1995.6 217.33 L1991.32 217.33 L1991.32 191.404 L1995.6 191.404 L1995.6 195.432 Q1997.13 193.094 1999.19 191.936 Q2001.27 190.779 2003.98 190.779 Q2008.45 190.779 2010.74 193.557 Q2013.03 196.311 2013.03 201.681 Z" fill="#000000" fill-rule="nonzero" fill-opacity="1" /><path clip-path="url(#clip980)" d="M2021.52 191.404 L2025.78 191.404 L2025.78 217.793 Q2025.78 222.746 2023.89 224.968 Q2022.01 227.191 2017.82 227.191 L2016.2 227.191 L2016.2 223.58 L2017.33 223.58 Q2019.76 223.58 2020.64 222.445 Q2021.52 221.334 2021.52 217.793 L2021.52 191.404 M2021.52 181.311 L2025.78 181.311 L2025.78 186.705 L2021.52 186.705 L2021.52 181.311 Z" fill="#000000" fill-rule="nonzero" fill-opacity="1" /><path clip-path="url(#clip980)" d="M2034.26 207.098 L2034.26 191.404 L2038.51 191.404 L2038.51 206.936 Q2038.51 210.617 2039.95 212.468 Q2041.39 214.297 2044.26 214.297 Q2047.7 214.297 2049.7 212.098 Q2051.71 209.899 2051.71 206.103 L2051.71 191.404 L2055.97 191.404 L2055.97 217.33 L2051.71 217.33 L2051.71 213.348 Q2050.16 215.709 2048.1 216.867 Q2046.06 218.001 2043.35 218.001 Q2038.89 218.001 2036.57 215.223 Q2034.26 212.445 2034.26 207.098 M2044.97 190.779 L2044.97 190.779 Z" fill="#000000" fill-rule="nonzero" fill-opacity="1" /><path clip-path="url(#clip980)" d="M2081.8 204.066 Q2081.8 199.436 2079.88 196.89 Q2077.98 194.344 2074.53 194.344 Q2071.11 194.344 2069.19 196.89 Q2067.29 199.436 2067.29 204.066 Q2067.29 208.672 2069.19 211.218 Q2071.11 213.765 2074.53 213.765 Q2077.98 213.765 2079.88 211.218 Q2081.8 208.672 2081.8 204.066 M2086.06 214.112 Q2086.06 220.732 2083.12 223.95 Q2080.18 227.191 2074.12 227.191 Q2071.87 227.191 2069.88 226.843 Q2067.89 226.519 2066.01 225.825 L2066.01 221.681 Q2067.89 222.7 2069.72 223.186 Q2071.55 223.672 2073.45 223.672 Q2077.63 223.672 2079.72 221.473 Q2081.8 219.297 2081.8 214.876 L2081.8 212.769 Q2080.48 215.061 2078.42 216.195 Q2076.36 217.33 2073.49 217.33 Q2068.72 217.33 2065.81 213.695 Q2062.89 210.061 2062.89 204.066 Q2062.89 198.047 2065.81 194.413 Q2068.72 190.779 2073.49 190.779 Q2076.36 190.779 2078.42 191.913 Q2080.48 193.047 2081.8 195.339 L2081.8 191.404 L2086.06 191.404 L2086.06 214.112 Z" fill="#000000" fill-rule="nonzero" fill-opacity="1" /><path clip-path="url(#clip980)" d="M2106.62 204.297 Q2101.45 204.297 2099.46 205.478 Q2097.47 206.658 2097.47 209.506 Q2097.47 211.774 2098.95 213.117 Q2100.46 214.436 2103.03 214.436 Q2106.57 214.436 2108.7 211.936 Q2110.85 209.413 2110.85 205.246 L2110.85 204.297 L2106.62 204.297 M2115.11 202.538 L2115.11 217.33 L2110.85 217.33 L2110.85 213.394 Q2109.39 215.755 2107.22 216.89 Q2105.04 218.001 2101.89 218.001 Q2097.91 218.001 2095.55 215.779 Q2093.21 213.533 2093.21 209.783 Q2093.21 205.408 2096.13 203.186 Q2099.07 200.964 2104.88 200.964 L2110.85 200.964 L2110.85 200.547 Q2110.85 197.607 2108.91 196.01 Q2106.99 194.39 2103.49 194.39 Q2101.27 194.39 2099.16 194.922 Q2097.06 195.455 2095.11 196.519 L2095.11 192.584 Q2097.45 191.682 2099.65 191.242 Q2101.85 190.779 2103.93 190.779 Q2109.56 190.779 2112.33 193.695 Q2115.11 196.612 2115.11 202.538 Z" fill="#000000" fill-rule="nonzero" fill-opacity="1" /><path clip-path="url(#clip980)" d="M2128.1 184.043 L2128.1 191.404 L2136.87 191.404 L2136.87 194.714 L2128.1 194.714 L2128.1 208.788 Q2128.1 211.959 2128.95 212.862 Q2129.83 213.765 2132.5 213.765 L2136.87 213.765 L2136.87 217.33 L2132.5 217.33 Q2127.57 217.33 2125.69 215.501 Q2123.82 213.649 2123.82 208.788 L2123.82 194.714 L2120.69 194.714 L2120.69 191.404 L2123.82 191.404 L2123.82 184.043 L2128.1 184.043 Z" fill="#000000" fill-rule="nonzero" fill-opacity="1" /><path clip-path="url(#clip980)" d="M2164.65 203.302 L2164.65 205.385 L2145.07 205.385 Q2145.34 209.783 2147.7 212.098 Q2150.09 214.39 2154.32 214.39 Q2156.78 214.39 2159.07 213.788 Q2161.38 213.186 2163.65 211.982 L2163.65 216.01 Q2161.36 216.982 2158.95 217.492 Q2156.55 218.001 2154.07 218.001 Q2147.87 218.001 2144.23 214.39 Q2140.62 210.779 2140.62 204.621 Q2140.62 198.256 2144.05 194.529 Q2147.5 190.779 2153.33 190.779 Q2158.56 190.779 2161.59 194.158 Q2164.65 197.515 2164.65 203.302 M2160.39 202.052 Q2160.34 198.557 2158.42 196.473 Q2156.52 194.39 2153.38 194.39 Q2149.81 194.39 2147.66 196.404 Q2145.53 198.418 2145.2 202.075 L2160.39 202.052 Z" fill="#000000" fill-rule="nonzero" fill-opacity="1" /></svg>
