<?xml version="1.0" encoding="utf-8"?>
<svg xmlns="http://www.w3.org/2000/svg" xmlns:xlink="http://www.w3.org/1999/xlink" width="600" height="400" viewBox="0 0 2400 1600">
<defs>
  <clipPath id="clip920">
    <rect x="0" y="0" width="2400" height="1600"/>
  </clipPath>
</defs>
<path clip-path="url(#clip920)" d="M0 1600 L2400 1600 L2400 0 L0 0  Z" fill="#ffffff" fill-rule="evenodd" fill-opacity="1"/>
<defs>
  <clipPath id="clip921">
    <rect x="480" y="0" width="1681" height="1600"/>
  </clipPath>
</defs>
<path clip-path="url(#clip920)" d="M86.9921 1521.01 L2352.76 1521.01 L2352.76 47.2441 L86.9921 47.2441  Z" fill="#ffffff" fill-rule="evenodd" fill-opacity="1"/>
<defs>
  <clipPath id="clip922">
    <rect x="86" y="47" width="2267" height="1475"/>
  </clipPath>
</defs>
<polyline clip-path="url(#clip922)" style="stroke:#000000; stroke-linecap:round; stroke-linejoin:round; stroke-width:2; stroke-opacity:0.1; fill:none" points="264.68,1521.01 264.68,47.2441 "/>
<polyline clip-path="url(#clip922)" style="stroke:#000000; stroke-linecap:round; stroke-linejoin:round; stroke-width:2; stroke-opacity:0.1; fill:none" points="795.343,1521.01 795.343,47.2441 "/>
<polyline clip-path="url(#clip922)" style="stroke:#000000; stroke-linecap:round; stroke-linejoin:round; stroke-width:2; stroke-opacity:0.1; fill:none" points="1326.01,1521.01 1326.01,47.2441 "/>
<polyline clip-path="url(#clip922)" style="stroke:#000000; stroke-linecap:round; stroke-linejoin:round; stroke-width:2; stroke-opacity:0.1; fill:none" points="1856.67,1521.01 1856.67,47.2441 "/>
<polyline clip-path="url(#clip920)" style="stroke:#000000; stroke-linecap:round; stroke-linejoin:round; stroke-width:4; stroke-opacity:1; fill:none" points="86.9921,1521.01 2352.76,1521.01 "/>
<polyline clip-path="url(#clip920)" style="stroke:#000000; stroke-linecap:round; stroke-linejoin:round; stroke-width:4; stroke-opacity:1; fill:none" points="264.68,1521.01 264.68,1502.11 "/>
<polyline clip-path="url(#clip920)" style="stroke:#000000; stroke-linecap:round; stroke-linejoin:round; stroke-width:4; stroke-opacity:1; fill:none" points="795.343,1521.01 795.343,1502.11 "/>
<polyline clip-path="url(#clip920)" style="stroke:#000000; stroke-linecap:round; stroke-linejoin:round; stroke-width:4; stroke-opacity:1; fill:none" points="1326.01,1521.01 1326.01,1502.11 "/>
<polyline clip-path="url(#clip920)" style="stroke:#000000; stroke-linecap:round; stroke-linejoin:round; stroke-width:4; stroke-opacity:1; fill:none" points="1856.67,1521.01 1856.67,1502.11 "/>
<path clip-path="url(#clip920)" d="M231.832 1579.47 L239.471 1579.47 L239.471 1553.11 L231.161 1554.77 L231.161 1550.51 L239.425 1548.85 L244.101 1548.85 L244.101 1579.47 L251.74 1579.47 L251.74 1583.41 L231.832 1583.41 L231.832 1579.47 Z" fill="#000000" fill-rule="nonzero" fill-opacity="1" /><path clip-path="url(#clip920)" d="M261.184 1577.53 L266.068 1577.53 L266.068 1583.41 L261.184 1583.41 L261.184 1577.53 Z" fill="#000000" fill-rule="nonzero" fill-opacity="1" /><path clip-path="url(#clip920)" d="M286.253 1551.93 Q282.642 1551.93 280.814 1555.49 Q279.008 1559.03 279.008 1566.16 Q279.008 1573.27 280.814 1576.83 Q282.642 1580.38 286.253 1580.38 Q289.888 1580.38 291.693 1576.83 Q293.522 1573.27 293.522 1566.16 Q293.522 1559.03 291.693 1555.49 Q289.888 1551.93 286.253 1551.93 M286.253 1548.22 Q292.064 1548.22 295.119 1552.83 Q298.198 1557.41 298.198 1566.16 Q298.198 1574.89 295.119 1579.5 Q292.064 1584.08 286.253 1584.08 Q280.443 1584.08 277.365 1579.5 Q274.309 1574.89 274.309 1566.16 Q274.309 1557.41 277.365 1552.83 Q280.443 1548.22 286.253 1548.22 Z" fill="#000000" fill-rule="nonzero" fill-opacity="1" /><path clip-path="url(#clip920)" d="M763.295 1579.47 L770.934 1579.47 L770.934 1553.11 L762.623 1554.77 L762.623 1550.51 L770.887 1548.85 L775.563 1548.85 L775.563 1579.47 L783.202 1579.47 L783.202 1583.41 L763.295 1583.41 L763.295 1579.47 Z" fill="#000000" fill-rule="nonzero" fill-opacity="1" /><path clip-path="url(#clip920)" d="M792.646 1577.53 L797.531 1577.53 L797.531 1583.41 L792.646 1583.41 L792.646 1577.53 Z" fill="#000000" fill-rule="nonzero" fill-opacity="1" /><path clip-path="url(#clip920)" d="M811.744 1579.47 L828.063 1579.47 L828.063 1583.41 L806.119 1583.41 L806.119 1579.47 Q808.781 1576.72 813.364 1572.09 Q817.97 1567.44 819.151 1566.09 Q821.396 1563.57 822.276 1561.83 Q823.179 1560.07 823.179 1558.38 Q823.179 1555.63 821.234 1553.89 Q819.313 1552.16 816.211 1552.16 Q814.012 1552.16 811.558 1552.92 Q809.128 1553.69 806.35 1555.24 L806.35 1550.51 Q809.174 1549.38 811.628 1548.8 Q814.081 1548.22 816.118 1548.22 Q821.489 1548.22 824.683 1550.91 Q827.878 1553.59 827.878 1558.08 Q827.878 1560.21 827.067 1562.13 Q826.28 1564.03 824.174 1566.63 Q823.595 1567.3 820.493 1570.51 Q817.392 1573.71 811.744 1579.47 Z" fill="#000000" fill-rule="nonzero" fill-opacity="1" /><path clip-path="url(#clip920)" d="M1292.92 1579.47 L1300.56 1579.47 L1300.56 1553.11 L1292.25 1554.77 L1292.25 1550.51 L1300.51 1548.85 L1305.19 1548.85 L1305.19 1579.47 L1312.82 1579.47 L1312.82 1583.41 L1292.92 1583.41 L1292.92 1579.47 Z" fill="#000000" fill-rule="nonzero" fill-opacity="1" /><path clip-path="url(#clip920)" d="M1322.27 1577.53 L1327.15 1577.53 L1327.15 1583.41 L1322.27 1583.41 L1322.27 1577.53 Z" fill="#000000" fill-rule="nonzero" fill-opacity="1" /><path clip-path="url(#clip920)" d="M1350.18 1552.92 L1338.38 1571.37 L1350.18 1571.37 L1350.18 1552.92 M1348.96 1548.85 L1354.84 1548.85 L1354.84 1571.37 L1359.77 1571.37 L1359.77 1575.26 L1354.84 1575.26 L1354.84 1583.41 L1350.18 1583.41 L1350.18 1575.26 L1334.58 1575.26 L1334.58 1570.75 L1348.96 1548.85 Z" fill="#000000" fill-rule="nonzero" fill-opacity="1" /><path clip-path="url(#clip920)" d="M1823.74 1579.47 L1831.38 1579.47 L1831.38 1553.11 L1823.07 1554.77 L1823.07 1550.51 L1831.33 1548.85 L1836.01 1548.85 L1836.01 1579.47 L1843.65 1579.47 L1843.65 1583.41 L1823.74 1583.41 L1823.74 1579.47 Z" fill="#000000" fill-rule="nonzero" fill-opacity="1" /><path clip-path="url(#clip920)" d="M1853.09 1577.53 L1857.98 1577.53 L1857.98 1583.41 L1853.09 1583.41 L1853.09 1577.53 Z" fill="#000000" fill-rule="nonzero" fill-opacity="1" /><path clip-path="url(#clip920)" d="M1878.74 1564.26 Q1875.59 1564.26 1873.74 1566.42 Q1871.91 1568.57 1871.91 1572.32 Q1871.91 1576.05 1873.74 1578.22 Q1875.59 1580.38 1878.74 1580.38 Q1881.89 1580.38 1883.72 1578.22 Q1885.57 1576.05 1885.57 1572.32 Q1885.57 1568.57 1883.72 1566.42 Q1881.89 1564.26 1878.74 1564.26 M1888.02 1549.61 L1888.02 1553.87 Q1886.27 1553.04 1884.46 1552.6 Q1882.68 1552.16 1880.92 1552.16 Q1876.29 1552.16 1873.83 1555.28 Q1871.4 1558.41 1871.06 1564.73 Q1872.42 1562.71 1874.48 1561.65 Q1876.54 1560.56 1879.02 1560.56 Q1884.23 1560.56 1887.24 1563.73 Q1890.27 1566.88 1890.27 1572.32 Q1890.27 1577.64 1887.12 1580.86 Q1883.97 1584.08 1878.74 1584.08 Q1872.75 1584.08 1869.58 1579.5 Q1866.4 1574.89 1866.4 1566.16 Q1866.4 1557.97 1870.29 1553.11 Q1874.18 1548.22 1880.73 1548.22 Q1882.49 1548.22 1884.27 1548.57 Q1886.08 1548.92 1888.02 1549.61 Z" fill="#000000" fill-rule="nonzero" fill-opacity="1" /><polyline clip-path="url(#clip922)" style="stroke:#000000; stroke-linecap:round; stroke-linejoin:round; stroke-width:2; stroke-opacity:0.1; fill:none" points="86.9921,1521.01 2352.76,1521.01 "/>
<polyline clip-path="url(#clip922)" style="stroke:#000000; stroke-linecap:round; stroke-linejoin:round; stroke-width:2; stroke-opacity:0.1; fill:none" points="86.9921,1231.47 2352.76,1231.47 "/>
<polyline clip-path="url(#clip922)" style="stroke:#000000; stroke-linecap:round; stroke-linejoin:round; stroke-width:2; stroke-opacity:0.1; fill:none" points="86.9921,941.926 2352.76,941.926 "/>
<polyline clip-path="url(#clip922)" style="stroke:#000000; stroke-linecap:round; stroke-linejoin:round; stroke-width:2; stroke-opacity:0.1; fill:none" points="86.9921,652.385 2352.76,652.385 "/>
<polyline clip-path="url(#clip922)" style="stroke:#000000; stroke-linecap:round; stroke-linejoin:round; stroke-width:2; stroke-opacity:0.1; fill:none" points="86.9921,362.844 2352.76,362.844 "/>
<polyline clip-path="url(#clip922)" style="stroke:#000000; stroke-linecap:round; stroke-linejoin:round; stroke-width:2; stroke-opacity:0.1; fill:none" points="86.9921,73.3028 2352.76,73.3028 "/>
<polyline clip-path="url(#clip920)" style="stroke:#000000; stroke-linecap:round; stroke-linejoin:round; stroke-width:4; stroke-opacity:1; fill:none" points="86.9921,1521.01 86.9921,47.2441 "/>
<polyline clip-path="url(#clip920)" style="stroke:#000000; stroke-linecap:round; stroke-linejoin:round; stroke-width:4; stroke-opacity:1; fill:none" points="86.9921,1521.01 105.89,1521.01 "/>
<polyline clip-path="url(#clip920)" style="stroke:#000000; stroke-linecap:round; stroke-linejoin:round; stroke-width:4; stroke-opacity:1; fill:none" points="86.9921,1231.47 105.89,1231.47 "/>
<polyline clip-path="url(#clip920)" style="stroke:#000000; stroke-linecap:round; stroke-linejoin:round; stroke-width:4; stroke-opacity:1; fill:none" points="86.9921,941.926 105.89,941.926 "/>
<polyline clip-path="url(#clip920)" style="stroke:#000000; stroke-linecap:round; stroke-linejoin:round; stroke-width:4; stroke-opacity:1; fill:none" points="86.9921,652.385 105.89,652.385 "/>
<polyline clip-path="url(#clip920)" style="stroke:#000000; stroke-linecap:round; stroke-linejoin:round; stroke-width:4; stroke-opacity:1; fill:none" points="86.9921,362.844 105.89,362.844 "/>
<polyline clip-path="url(#clip920)" style="stroke:#000000; stroke-linecap:round; stroke-linejoin:round; stroke-width:4; stroke-opacity:1; fill:none" points="86.9921,73.3028 105.89,73.3028 "/>
<path clip-path="url(#clip920)" d="M10.8708 1521.01 Q10.8708 1524.62 14.4356 1526.45 Q17.9773 1528.25 25.1068 1528.25 Q32.2133 1528.25 35.7781 1526.45 Q39.3197 1524.62 39.3197 1521.01 Q39.3197 1517.37 35.7781 1515.57 Q32.2133 1513.74 25.1068 1513.74 Q17.9773 1513.74 14.4356 1515.57 Q10.8708 1517.37 10.8708 1521.01 M7.16713 1521.01 Q7.16713 1515.2 11.7736 1512.14 Q16.3569 1509.06 25.1068 1509.06 Q33.8337 1509.06 38.4401 1512.14 Q43.0234 1515.2 43.0234 1521.01 Q43.0234 1526.82 38.4401 1529.9 Q33.8337 1532.95 25.1068 1532.95 Q16.3569 1532.95 11.7736 1529.9 Q7.16713 1526.82 7.16713 1521.01 Z" fill="#000000" fill-rule="nonzero" fill-opacity="1" /><path clip-path="url(#clip920)" d="M38.417 1271.86 L38.417 1264.22 L12.0514 1264.22 L13.718 1272.53 L9.45878 1272.53 L7.79213 1264.27 L7.79213 1259.59 L38.417 1259.59 L38.417 1251.95 L42.3521 1251.95 L42.3521 1271.86 L38.417 1271.86 Z" fill="#000000" fill-rule="nonzero" fill-opacity="1" /><path clip-path="url(#clip920)" d="M10.8708 1232.51 Q10.8708 1236.12 14.4356 1237.95 Q17.9773 1239.75 25.1068 1239.75 Q32.2133 1239.75 35.7781 1237.95 Q39.3197 1236.12 39.3197 1232.51 Q39.3197 1228.87 35.7781 1227.07 Q32.2133 1225.24 25.1068 1225.24 Q17.9773 1225.24 14.4356 1227.07 Q10.8708 1228.87 10.8708 1232.51 M7.16713 1232.51 Q7.16713 1226.7 11.7736 1223.64 Q16.3569 1220.56 25.1068 1220.56 Q33.8337 1220.56 38.4401 1223.64 Q43.0234 1226.7 43.0234 1232.51 Q43.0234 1238.32 38.4401 1241.4 Q33.8337 1244.45 25.1068 1244.45 Q16.3569 1244.45 11.7736 1241.4 Q7.16713 1238.32 7.16713 1232.51 Z" fill="#000000" fill-rule="nonzero" fill-opacity="1" /><path clip-path="url(#clip920)" d="M10.8708 1202.35 Q10.8708 1205.96 14.4356 1207.79 Q17.9773 1209.59 25.1068 1209.59 Q32.2133 1209.59 35.7781 1207.79 Q39.3197 1205.96 39.3197 1202.35 Q39.3197 1198.71 35.7781 1196.91 Q32.2133 1195.08 25.1068 1195.08 Q17.9773 1195.08 14.4356 1196.91 Q10.8708 1198.71 10.8708 1202.35 M7.16713 1202.35 Q7.16713 1196.54 11.7736 1193.48 Q16.3569 1190.4 25.1068 1190.4 Q33.8337 1190.4 38.4401 1193.48 Q43.0234 1196.54 43.0234 1202.35 Q43.0234 1208.16 38.4401 1211.24 Q33.8337 1214.29 25.1068 1214.29 Q16.3569 1214.29 11.7736 1211.24 Q7.16713 1208.16 7.16713 1202.35 Z" fill="#000000" fill-rule="nonzero" fill-opacity="1" /><path clip-path="url(#clip920)" d="M38.417 978.234 L38.417 961.914 L42.3521 961.914 L42.3521 983.858 L38.417 983.858 Q35.6623 981.196 31.0327 976.613 Q26.38 972.007 25.0374 970.826 Q22.5143 968.581 20.7782 967.701 Q19.0189 966.798 17.3291 966.798 Q14.5745 966.798 12.8384 968.743 Q11.1023 970.664 11.1023 973.766 Q11.1023 975.965 11.8662 978.419 Q12.6301 980.849 14.181 983.627 L9.45878 983.627 Q8.32453 980.803 7.74583 978.349 Q7.16713 975.896 7.16713 973.859 Q7.16713 968.488 9.8523 965.294 Q12.5375 962.099 17.0282 962.099 Q19.1578 962.099 21.0791 962.91 Q22.9772 963.697 25.5698 965.803 Q26.2411 966.382 29.4587 969.484 Q32.6531 972.585 38.417 978.234 Z" fill="#000000" fill-rule="nonzero" fill-opacity="1" /><path clip-path="url(#clip920)" d="M10.8708 942.099 Q10.8708 945.711 14.4356 947.539 Q17.9773 949.345 25.1068 949.345 Q32.2133 949.345 35.7781 947.539 Q39.3197 945.711 39.3197 942.099 Q39.3197 938.465 35.7781 936.66 Q32.2133 934.831 25.1068 934.831 Q17.9773 934.831 14.4356 936.66 Q10.8708 938.465 10.8708 942.099 M7.16713 942.099 Q7.16713 936.289 11.7736 933.234 Q16.3569 930.155 25.1068 930.155 Q33.8337 930.155 38.4401 933.234 Q43.0234 936.289 43.0234 942.099 Q43.0234 947.91 38.4401 950.988 Q33.8337 954.044 25.1068 954.044 Q16.3569 954.044 11.7736 950.988 Q7.16713 947.91 7.16713 942.099 Z" fill="#000000" fill-rule="nonzero" fill-opacity="1" /><path clip-path="url(#clip920)" d="M10.8708 911.938 Q10.8708 915.549 14.4356 917.377 Q17.9773 919.183 25.1068 919.183 Q32.2133 919.183 35.7781 917.377 Q39.3197 915.549 39.3197 911.938 Q39.3197 908.303 35.7781 906.498 Q32.2133 904.669 25.1068 904.669 Q17.9773 904.669 14.4356 906.498 Q10.8708 908.303 10.8708 911.938 M7.16713 911.938 Q7.16713 906.127 11.7736 903.072 Q16.3569 899.993 25.1068 899.993 Q33.8337 899.993 38.4401 903.072 Q43.0234 906.127 43.0234 911.938 Q43.0234 917.748 38.4401 920.826 Q33.8337 923.882 25.1068 923.882 Q16.3569 923.882 11.7736 920.826 Q7.16713 917.748 7.16713 911.938 Z" fill="#000000" fill-rule="nonzero" fill-opacity="1" /><path clip-path="url(#clip920)" d="M23.718 678.623 Q24.4356 675.267 26.7041 673.392 Q28.9726 671.494 32.3059 671.494 Q37.4216 671.494 40.2225 675.012 Q43.0234 678.531 43.0234 685.012 Q43.0234 687.188 42.5836 689.503 Q42.1669 691.794 41.3105 694.248 L36.7966 694.248 Q37.9309 692.304 38.5096 689.989 Q39.0883 687.674 39.0883 685.151 Q39.0883 680.753 37.3522 678.461 Q35.6161 676.146 32.3059 676.146 Q29.2503 676.146 27.5374 678.299 Q25.8013 680.429 25.8013 684.248 L25.8013 688.276 L21.9587 688.276 L21.9587 684.063 Q21.9587 680.614 20.593 678.785 Q19.2041 676.956 16.6115 676.956 Q13.9495 676.956 12.5375 678.855 Q11.1023 680.73 11.1023 684.248 Q11.1023 686.169 11.519 688.368 Q11.9356 690.567 12.8152 693.206 L8.6486 693.206 Q7.90787 690.544 7.5375 688.23 Q7.16713 685.892 7.16713 683.831 Q7.16713 678.507 9.59767 675.406 Q12.0051 672.304 16.1254 672.304 Q18.9958 672.304 20.9865 673.947 Q22.9541 675.591 23.718 678.623 Z" fill="#000000" fill-rule="nonzero" fill-opacity="1" /><path clip-path="url(#clip920)" d="M10.8708 652.628 Q10.8708 656.239 14.4356 658.068 Q17.9773 659.873 25.1068 659.873 Q32.2133 659.873 35.7781 658.068 Q39.3197 656.239 39.3197 652.628 Q39.3197 648.994 35.7781 647.188 Q32.2133 645.359 25.1068 645.359 Q17.9773 645.359 14.4356 647.188 Q10.8708 648.994 10.8708 652.628 M7.16713 652.628 Q7.16713 646.818 11.7736 643.762 Q16.3569 640.683 25.1068 640.683 Q33.8337 640.683 38.4401 643.762 Q43.0234 646.818 43.0234 652.628 Q43.0234 658.438 38.4401 661.517 Q33.8337 664.572 25.1068 664.572 Q16.3569 664.572 11.7736 661.517 Q7.16713 658.438 7.16713 652.628 Z" fill="#000000" fill-rule="nonzero" fill-opacity="1" /><path clip-path="url(#clip920)" d="M10.8708 622.466 Q10.8708 626.077 14.4356 627.906 Q17.9773 629.711 25.1068 629.711 Q32.2133 629.711 35.7781 627.906 Q39.3197 626.077 39.3197 622.466 Q39.3197 618.832 35.7781 617.026 Q32.2133 615.198 25.1068 615.198 Q17.9773 615.198 14.4356 617.026 Q10.8708 618.832 10.8708 622.466 M7.16713 622.466 Q7.16713 616.656 11.7736 613.6 Q16.3569 610.522 25.1068 610.522 Q33.8337 610.522 38.4401 613.6 Q43.0234 616.656 43.0234 622.466 Q43.0234 628.276 38.4401 631.355 Q33.8337 634.41 25.1068 634.41 Q16.3569 634.41 11.7736 631.355 Q7.16713 628.276 7.16713 622.466 Z" fill="#000000" fill-rule="nonzero" fill-opacity="1" /><path clip-path="url(#clip920)" d="M11.8662 389.753 L30.3152 401.559 L30.3152 389.753 L11.8662 389.753 M7.79213 390.98 L7.79213 385.101 L30.3152 385.101 L30.3152 380.17 L34.204 380.17 L34.204 385.101 L42.3521 385.101 L42.3521 389.753 L34.204 389.753 L34.204 405.355 L29.6902 405.355 L7.79213 390.98 Z" fill="#000000" fill-rule="nonzero" fill-opacity="1" /><path clip-path="url(#clip920)" d="M10.8708 362.439 Q10.8708 366.05 14.4356 367.878 Q17.9773 369.684 25.1068 369.684 Q32.2133 369.684 35.7781 367.878 Q39.3197 366.05 39.3197 362.439 Q39.3197 358.804 35.7781 356.999 Q32.2133 355.17 25.1068 355.17 Q17.9773 355.17 14.4356 356.999 Q10.8708 358.804 10.8708 362.439 M7.16713 362.439 Q7.16713 356.629 11.7736 353.573 Q16.3569 350.494 25.1068 350.494 Q33.8337 350.494 38.4401 353.573 Q43.0234 356.629 43.0234 362.439 Q43.0234 368.249 38.4401 371.328 Q33.8337 374.383 25.1068 374.383 Q16.3569 374.383 11.7736 371.328 Q7.16713 368.249 7.16713 362.439 Z" fill="#000000" fill-rule="nonzero" fill-opacity="1" /><path clip-path="url(#clip920)" d="M10.8708 332.277 Q10.8708 335.888 14.4356 337.717 Q17.9773 339.522 25.1068 339.522 Q32.2133 339.522 35.7781 337.717 Q39.3197 335.888 39.3197 332.277 Q39.3197 328.643 35.7781 326.837 Q32.2133 325.008 25.1068 325.008 Q17.9773 325.008 14.4356 326.837 Q10.8708 328.643 10.8708 332.277 M7.16713 332.277 Q7.16713 326.467 11.7736 323.411 Q16.3569 320.332 25.1068 320.332 Q33.8337 320.332 38.4401 323.411 Q43.0234 326.467 43.0234 332.277 Q43.0234 338.087 38.4401 341.166 Q33.8337 344.221 25.1068 344.221 Q16.3569 344.221 11.7736 341.166 Q7.16713 338.087 7.16713 332.277 Z" fill="#000000" fill-rule="nonzero" fill-opacity="1" /><path clip-path="url(#clip920)" d="M7.79213 113.685 L7.79213 95.3281 L11.7273 95.3281 L11.7273 109.402 L20.1995 109.402 Q19.8522 108.384 19.6902 107.365 Q19.505 106.347 19.505 105.328 Q19.505 99.5411 22.6763 96.1615 Q25.8476 92.7818 31.2642 92.7818 Q36.8429 92.7818 39.9447 96.2541 Q43.0234 99.7263 43.0234 106.046 Q43.0234 108.222 42.6531 110.49 Q42.2827 112.735 41.5419 115.143 L36.8429 115.143 Q37.9771 113.06 38.5327 110.837 Q39.0883 108.615 39.0883 106.138 Q39.0883 102.134 36.9818 99.7957 Q34.8753 97.4577 31.2642 97.4577 Q27.6531 97.4577 25.5467 99.7957 Q23.4402 102.134 23.4402 106.138 Q23.4402 108.013 23.8569 109.888 Q24.2735 111.74 25.1531 113.685 L7.79213 113.685 Z" fill="#000000" fill-rule="nonzero" fill-opacity="1" /><path clip-path="url(#clip920)" d="M10.8708 73.569 Q10.8708 77.1801 14.4356 79.0088 Q17.9773 80.8143 25.1068 80.8143 Q32.2133 80.8143 35.7781 79.0088 Q39.3197 77.1801 39.3197 73.569 Q39.3197 69.9347 35.7781 68.1292 Q32.2133 66.3005 25.1068 66.3005 Q17.9773 66.3005 14.4356 68.1292 Q10.8708 69.9347 10.8708 73.569 M7.16713 73.569 Q7.16713 67.7588 11.7736 64.7033 Q16.3569 61.6246 25.1068 61.6246 Q33.8337 61.6246 38.4401 64.7033 Q43.0234 67.7588 43.0234 73.569 Q43.0234 79.3791 38.4401 82.4578 Q33.8337 85.5134 25.1068 85.5134 Q16.3569 85.5134 11.7736 82.4578 Q7.16713 79.3791 7.16713 73.569 Z" fill="#000000" fill-rule="nonzero" fill-opacity="1" /><path clip-path="url(#clip920)" d="M10.8708 43.4071 Q10.8708 47.0182 14.4356 48.8469 Q17.9773 50.6524 25.1068 50.6524 Q32.2133 50.6524 35.7781 48.8469 Q39.3197 47.0182 39.3197 43.4071 Q39.3197 39.7729 35.7781 37.9673 Q32.2133 36.1386 25.1068 36.1386 Q17.9773 36.1386 14.4356 37.9673 Q10.8708 39.7729 10.8708 43.4071 M7.16713 43.4071 Q7.16713 37.597 11.7736 34.5414 Q16.3569 31.4627 25.1068 31.4627 Q33.8337 31.4627 38.4401 34.5414 Q43.0234 37.597 43.0234 43.4071 Q43.0234 49.2173 38.4401 52.296 Q33.8337 55.3515 25.1068 55.3515 Q16.3569 55.3515 11.7736 52.296 Q7.16713 49.2173 7.16713 43.4071 Z" fill="#000000" fill-rule="nonzero" fill-opacity="1" /><path clip-path="url(#clip922)" d="M211.613 1518.11 L211.613 1521.01 L238.146 1521.01 L238.146 1518.11 L211.613 1518.11 L211.613 1518.11  Z" fill="#009af9" fill-rule="evenodd" fill-opacity="1"/>
<polyline clip-path="url(#clip922)" style="stroke:#000000; stroke-linecap:round; stroke-linejoin:round; stroke-width:4; stroke-opacity:1; fill:none" points="211.613,1518.11 211.613,1521.01 238.146,1521.01 238.146,1518.11 211.613,1518.11 "/>
<path clip-path="url(#clip922)" d="M238.146 1512.32 L238.146 1521.01 L264.68 1521.01 L264.68 1512.32 L238.146 1512.32 L238.146 1512.32  Z" fill="#009af9" fill-rule="evenodd" fill-opacity="1"/>
<polyline clip-path="url(#clip922)" style="stroke:#000000; stroke-linecap:round; stroke-linejoin:round; stroke-width:4; stroke-opacity:1; fill:none" points="238.146,1512.32 238.146,1521.01 264.68,1521.01 264.68,1512.32 238.146,1512.32 "/>
<path clip-path="url(#clip922)" d="M264.68 1509.43 L264.68 1521.01 L291.213 1521.01 L291.213 1509.43 L264.68 1509.43 L264.68 1509.43  Z" fill="#009af9" fill-rule="evenodd" fill-opacity="1"/>
<polyline clip-path="url(#clip922)" style="stroke:#000000; stroke-linecap:round; stroke-linejoin:round; stroke-width:4; stroke-opacity:1; fill:none" points="264.68,1509.43 264.68,1521.01 291.213,1521.01 291.213,1509.43 264.68,1509.43 "/>
<path clip-path="url(#clip922)" d="M291.213 1512.32 L291.213 1521.01 L317.746 1521.01 L317.746 1512.32 L291.213 1512.32 L291.213 1512.32  Z" fill="#009af9" fill-rule="evenodd" fill-opacity="1"/>
<polyline clip-path="url(#clip922)" style="stroke:#000000; stroke-linecap:round; stroke-linejoin:round; stroke-width:4; stroke-opacity:1; fill:none" points="291.213,1512.32 291.213,1521.01 317.746,1521.01 317.746,1512.32 291.213,1512.32 "/>
<path clip-path="url(#clip922)" d="M317.746 1497.84 L317.746 1521.01 L344.279 1521.01 L344.279 1497.84 L317.746 1497.84 L317.746 1497.84  Z" fill="#009af9" fill-rule="evenodd" fill-opacity="1"/>
<polyline clip-path="url(#clip922)" style="stroke:#000000; stroke-linecap:round; stroke-linejoin:round; stroke-width:4; stroke-opacity:1; fill:none" points="317.746,1497.84 317.746,1521.01 344.279,1521.01 344.279,1497.84 317.746,1497.84 "/>
<path clip-path="url(#clip922)" d="M344.279 1497.84 L344.279 1521.01 L370.812 1521.01 L370.812 1497.84 L344.279 1497.84 L344.279 1497.84  Z" fill="#009af9" fill-rule="evenodd" fill-opacity="1"/>
<polyline clip-path="url(#clip922)" style="stroke:#000000; stroke-linecap:round; stroke-linejoin:round; stroke-width:4; stroke-opacity:1; fill:none" points="344.279,1497.84 344.279,1521.01 370.812,1521.01 370.812,1497.84 344.279,1497.84 "/>
<path clip-path="url(#clip922)" d="M370.812 1477.58 L370.812 1521.01 L397.345 1521.01 L397.345 1477.58 L370.812 1477.58 L370.812 1477.58  Z" fill="#009af9" fill-rule="evenodd" fill-opacity="1"/>
<polyline clip-path="url(#clip922)" style="stroke:#000000; stroke-linecap:round; stroke-linejoin:round; stroke-width:4; stroke-opacity:1; fill:none" points="370.812,1477.58 370.812,1521.01 397.345,1521.01 397.345,1477.58 370.812,1477.58 "/>
<path clip-path="url(#clip922)" d="M397.345 1445.73 L397.345 1521.01 L423.879 1521.01 L423.879 1445.73 L397.345 1445.73 L397.345 1445.73  Z" fill="#009af9" fill-rule="evenodd" fill-opacity="1"/>
<polyline clip-path="url(#clip922)" style="stroke:#000000; stroke-linecap:round; stroke-linejoin:round; stroke-width:4; stroke-opacity:1; fill:none" points="397.345,1445.73 397.345,1521.01 423.879,1521.01 423.879,1445.73 397.345,1445.73 "/>
<path clip-path="url(#clip922)" d="M423.879 1410.98 L423.879 1521.01 L450.412 1521.01 L450.412 1410.98 L423.879 1410.98 L423.879 1410.98  Z" fill="#009af9" fill-rule="evenodd" fill-opacity="1"/>
<polyline clip-path="url(#clip922)" style="stroke:#000000; stroke-linecap:round; stroke-linejoin:round; stroke-width:4; stroke-opacity:1; fill:none" points="423.879,1410.98 423.879,1521.01 450.412,1521.01 450.412,1410.98 423.879,1410.98 "/>
<path clip-path="url(#clip922)" d="M450.412 1393.61 L450.412 1521.01 L476.945 1521.01 L476.945 1393.61 L450.412 1393.61 L450.412 1393.61  Z" fill="#009af9" fill-rule="evenodd" fill-opacity="1"/>
<polyline clip-path="url(#clip922)" style="stroke:#000000; stroke-linecap:round; stroke-linejoin:round; stroke-width:4; stroke-opacity:1; fill:none" points="450.412,1393.61 450.412,1521.01 476.945,1521.01 476.945,1393.61 450.412,1393.61 "/>
<path clip-path="url(#clip922)" d="M476.945 1309.64 L476.945 1521.01 L503.478 1521.01 L503.478 1309.64 L476.945 1309.64 L476.945 1309.64  Z" fill="#009af9" fill-rule="evenodd" fill-opacity="1"/>
<polyline clip-path="url(#clip922)" style="stroke:#000000; stroke-linecap:round; stroke-linejoin:round; stroke-width:4; stroke-opacity:1; fill:none" points="476.945,1309.64 476.945,1521.01 503.478,1521.01 503.478,1309.64 476.945,1309.64 "/>
<path clip-path="url(#clip922)" d="M503.478 1312.54 L503.478 1521.01 L530.011 1521.01 L530.011 1312.54 L503.478 1312.54 L503.478 1312.54  Z" fill="#009af9" fill-rule="evenodd" fill-opacity="1"/>
<polyline clip-path="url(#clip922)" style="stroke:#000000; stroke-linecap:round; stroke-linejoin:round; stroke-width:4; stroke-opacity:1; fill:none" points="503.478,1312.54 503.478,1521.01 530.011,1521.01 530.011,1312.54 503.478,1312.54 "/>
<path clip-path="url(#clip922)" d="M530.011 1202.51 L530.011 1521.01 L556.545 1521.01 L556.545 1202.51 L530.011 1202.51 L530.011 1202.51  Z" fill="#009af9" fill-rule="evenodd" fill-opacity="1"/>
<polyline clip-path="url(#clip922)" style="stroke:#000000; stroke-linecap:round; stroke-linejoin:round; stroke-width:4; stroke-opacity:1; fill:none" points="530.011,1202.51 530.011,1521.01 556.545,1521.01 556.545,1202.51 530.011,1202.51 "/>
<path clip-path="url(#clip922)" d="M556.545 1141.71 L556.545 1521.01 L583.078 1521.01 L583.078 1141.71 L556.545 1141.71 L556.545 1141.71  Z" fill="#009af9" fill-rule="evenodd" fill-opacity="1"/>
<polyline clip-path="url(#clip922)" style="stroke:#000000; stroke-linecap:round; stroke-linejoin:round; stroke-width:4; stroke-opacity:1; fill:none" points="556.545,1141.71 556.545,1521.01 583.078,1521.01 583.078,1141.71 556.545,1141.71 "/>
<path clip-path="url(#clip922)" d="M583.078 996.939 L583.078 1521.01 L609.611 1521.01 L609.611 996.939 L583.078 996.939 L583.078 996.939  Z" fill="#009af9" fill-rule="evenodd" fill-opacity="1"/>
<polyline clip-path="url(#clip922)" style="stroke:#000000; stroke-linecap:round; stroke-linejoin:round; stroke-width:4; stroke-opacity:1; fill:none" points="583.078,996.939 583.078,1521.01 609.611,1521.01 609.611,996.939 583.078,996.939 "/>
<path clip-path="url(#clip922)" d="M609.611 927.449 L609.611 1521.01 L636.144 1521.01 L636.144 927.449 L609.611 927.449 L609.611 927.449  Z" fill="#009af9" fill-rule="evenodd" fill-opacity="1"/>
<polyline clip-path="url(#clip922)" style="stroke:#000000; stroke-linecap:round; stroke-linejoin:round; stroke-width:4; stroke-opacity:1; fill:none" points="609.611,927.449 609.611,1521.01 636.144,1521.01 636.144,927.449 609.611,927.449 "/>
<path clip-path="url(#clip922)" d="M636.144 826.109 L636.144 1521.01 L662.677 1521.01 L662.677 826.109 L636.144 826.109 L636.144 826.109  Z" fill="#009af9" fill-rule="evenodd" fill-opacity="1"/>
<polyline clip-path="url(#clip922)" style="stroke:#000000; stroke-linecap:round; stroke-linejoin:round; stroke-width:4; stroke-opacity:1; fill:none" points="636.144,826.109 636.144,1521.01 662.677,1521.01 662.677,826.109 636.144,826.109 "/>
<path clip-path="url(#clip922)" d="M662.677 669.757 L662.677 1521.01 L689.21 1521.01 L689.21 669.757 L662.677 669.757 L662.677 669.757  Z" fill="#009af9" fill-rule="evenodd" fill-opacity="1"/>
<polyline clip-path="url(#clip922)" style="stroke:#000000; stroke-linecap:round; stroke-linejoin:round; stroke-width:4; stroke-opacity:1; fill:none" points="662.677,669.757 662.677,1521.01 689.21,1521.01 689.21,669.757 662.677,669.757 "/>
<path clip-path="url(#clip922)" d="M689.21 519.196 L689.21 1521.01 L715.744 1521.01 L715.744 519.196 L689.21 519.196 L689.21 519.196  Z" fill="#009af9" fill-rule="evenodd" fill-opacity="1"/>
<polyline clip-path="url(#clip922)" style="stroke:#000000; stroke-linecap:round; stroke-linejoin:round; stroke-width:4; stroke-opacity:1; fill:none" points="689.21,519.196 689.21,1521.01 715.744,1521.01 715.744,519.196 689.21,519.196 "/>
<path clip-path="url(#clip922)" d="M715.744 417.857 L715.744 1521.01 L742.277 1521.01 L742.277 417.857 L715.744 417.857 L715.744 417.857  Z" fill="#009af9" fill-rule="evenodd" fill-opacity="1"/>
<polyline clip-path="url(#clip922)" style="stroke:#000000; stroke-linecap:round; stroke-linejoin:round; stroke-width:4; stroke-opacity:1; fill:none" points="715.744,417.857 715.744,1521.01 742.277,1521.01 742.277,417.857 715.744,417.857 "/>
<path clip-path="url(#clip922)" d="M742.277 264.4 L742.277 1521.01 L768.81 1521.01 L768.81 264.4 L742.277 264.4 L742.277 264.4  Z" fill="#009af9" fill-rule="evenodd" fill-opacity="1"/>
<polyline clip-path="url(#clip922)" style="stroke:#000000; stroke-linecap:round; stroke-linejoin:round; stroke-width:4; stroke-opacity:1; fill:none" points="742.277,264.4 742.277,1521.01 768.81,1521.01 768.81,264.4 742.277,264.4 "/>
<path clip-path="url(#clip922)" d="M768.81 249.923 L768.81 1521.01 L795.343 1521.01 L795.343 249.923 L768.81 249.923 L768.81 249.923  Z" fill="#009af9" fill-rule="evenodd" fill-opacity="1"/>
<polyline clip-path="url(#clip922)" style="stroke:#000000; stroke-linecap:round; stroke-linejoin:round; stroke-width:4; stroke-opacity:1; fill:none" points="768.81,249.923 768.81,1521.01 795.343,1521.01 795.343,249.923 768.81,249.923 "/>
<path clip-path="url(#clip922)" d="M795.343 177.538 L795.343 1521.01 L821.876 1521.01 L821.876 177.538 L795.343 177.538 L795.343 177.538  Z" fill="#009af9" fill-rule="evenodd" fill-opacity="1"/>
<polyline clip-path="url(#clip922)" style="stroke:#000000; stroke-linecap:round; stroke-linejoin:round; stroke-width:4; stroke-opacity:1; fill:none" points="795.343,177.538 795.343,1521.01 821.876,1521.01 821.876,177.538 795.343,177.538 "/>
<path clip-path="url(#clip922)" d="M821.876 90.6752 L821.876 1521.01 L848.409 1521.01 L848.409 90.6752 L821.876 90.6752 L821.876 90.6752  Z" fill="#009af9" fill-rule="evenodd" fill-opacity="1"/>
<polyline clip-path="url(#clip922)" style="stroke:#000000; stroke-linecap:round; stroke-linejoin:round; stroke-width:4; stroke-opacity:1; fill:none" points="821.876,90.6752 821.876,1521.01 848.409,1521.01 848.409,90.6752 821.876,90.6752 "/>
<path clip-path="url(#clip922)" d="M848.409 102.257 L848.409 1521.01 L874.943 1521.01 L874.943 102.257 L848.409 102.257 L848.409 102.257  Z" fill="#009af9" fill-rule="evenodd" fill-opacity="1"/>
<polyline clip-path="url(#clip922)" style="stroke:#000000; stroke-linecap:round; stroke-linejoin:round; stroke-width:4; stroke-opacity:1; fill:none" points="848.409,102.257 848.409,1521.01 874.943,1521.01 874.943,102.257 848.409,102.257 "/>
<path clip-path="url(#clip922)" d="M874.943 81.989 L874.943 1521.01 L901.476 1521.01 L901.476 81.989 L874.943 81.989 L874.943 81.989  Z" fill="#009af9" fill-rule="evenodd" fill-opacity="1"/>
<polyline clip-path="url(#clip922)" style="stroke:#000000; stroke-linecap:round; stroke-linejoin:round; stroke-width:4; stroke-opacity:1; fill:none" points="874.943,81.989 874.943,1521.01 901.476,1521.01 901.476,81.989 874.943,81.989 "/>
<path clip-path="url(#clip922)" d="M901.476 47.2441 L901.476 1521.01 L928.009 1521.01 L928.009 47.2441 L901.476 47.2441 L901.476 47.2441  Z" fill="#009af9" fill-rule="evenodd" fill-opacity="1"/>
<polyline clip-path="url(#clip922)" style="stroke:#000000; stroke-linecap:round; stroke-linejoin:round; stroke-width:4; stroke-opacity:1; fill:none" points="901.476,47.2441 901.476,1521.01 928.009,1521.01 928.009,47.2441 901.476,47.2441 "/>
<path clip-path="url(#clip922)" d="M928.009 125.42 L928.009 1521.01 L954.542 1521.01 L954.542 125.42 L928.009 125.42 L928.009 125.42  Z" fill="#009af9" fill-rule="evenodd" fill-opacity="1"/>
<polyline clip-path="url(#clip922)" style="stroke:#000000; stroke-linecap:round; stroke-linejoin:round; stroke-width:4; stroke-opacity:1; fill:none" points="928.009,125.42 928.009,1521.01 954.542,1521.01 954.542,125.42 928.009,125.42 "/>
<path clip-path="url(#clip922)" d="M954.542 151.479 L954.542 1521.01 L981.075 1521.01 L981.075 151.479 L954.542 151.479 L954.542 151.479  Z" fill="#009af9" fill-rule="evenodd" fill-opacity="1"/>
<polyline clip-path="url(#clip922)" style="stroke:#000000; stroke-linecap:round; stroke-linejoin:round; stroke-width:4; stroke-opacity:1; fill:none" points="954.542,151.479 954.542,1521.01 981.075,1521.01 981.075,151.479 954.542,151.479 "/>
<path clip-path="url(#clip922)" d="M981.075 270.191 L981.075 1521.01 L1007.61 1521.01 L1007.61 270.191 L981.075 270.191 L981.075 270.191  Z" fill="#009af9" fill-rule="evenodd" fill-opacity="1"/>
<polyline clip-path="url(#clip922)" style="stroke:#000000; stroke-linecap:round; stroke-linejoin:round; stroke-width:4; stroke-opacity:1; fill:none" points="981.075,270.191 981.075,1521.01 1007.61,1521.01 1007.61,270.191 981.075,270.191 "/>
<path clip-path="url(#clip922)" d="M1007.61 374.425 L1007.61 1521.01 L1034.14 1521.01 L1034.14 374.425 L1007.61 374.425 L1007.61 374.425  Z" fill="#009af9" fill-rule="evenodd" fill-opacity="1"/>
<polyline clip-path="url(#clip922)" style="stroke:#000000; stroke-linecap:round; stroke-linejoin:round; stroke-width:4; stroke-opacity:1; fill:none" points="1007.61,374.425 1007.61,1521.01 1034.14,1521.01 1034.14,374.425 1007.61,374.425 "/>
<path clip-path="url(#clip922)" d="M1034.14 374.425 L1034.14 1521.01 L1060.67 1521.01 L1060.67 374.425 L1034.14 374.425 L1034.14 374.425  Z" fill="#009af9" fill-rule="evenodd" fill-opacity="1"/>
<polyline clip-path="url(#clip922)" style="stroke:#000000; stroke-linecap:round; stroke-linejoin:round; stroke-width:4; stroke-opacity:1; fill:none" points="1034.14,374.425 1034.14,1521.01 1060.67,1521.01 1060.67,374.425 1034.14,374.425 "/>
<path clip-path="url(#clip922)" d="M1060.67 539.464 L1060.67 1521.01 L1087.21 1521.01 L1087.21 539.464 L1060.67 539.464 L1060.67 539.464  Z" fill="#009af9" fill-rule="evenodd" fill-opacity="1"/>
<polyline clip-path="url(#clip922)" style="stroke:#000000; stroke-linecap:round; stroke-linejoin:round; stroke-width:4; stroke-opacity:1; fill:none" points="1060.67,539.464 1060.67,1521.01 1087.21,1521.01 1087.21,539.464 1060.67,539.464 "/>
<path clip-path="url(#clip922)" d="M1087.21 577.104 L1087.21 1521.01 L1113.74 1521.01 L1113.74 577.104 L1087.21 577.104 L1087.21 577.104  Z" fill="#009af9" fill-rule="evenodd" fill-opacity="1"/>
<polyline clip-path="url(#clip922)" style="stroke:#000000; stroke-linecap:round; stroke-linejoin:round; stroke-width:4; stroke-opacity:1; fill:none" points="1087.21,577.104 1087.21,1521.01 1113.74,1521.01 1113.74,577.104 1087.21,577.104 "/>
<path clip-path="url(#clip922)" d="M1113.74 779.783 L1113.74 1521.01 L1140.27 1521.01 L1140.27 779.783 L1113.74 779.783 L1113.74 779.783  Z" fill="#009af9" fill-rule="evenodd" fill-opacity="1"/>
<polyline clip-path="url(#clip922)" style="stroke:#000000; stroke-linecap:round; stroke-linejoin:round; stroke-width:4; stroke-opacity:1; fill:none" points="1113.74,779.783 1113.74,1521.01 1140.27,1521.01 1140.27,779.783 1113.74,779.783 "/>
<path clip-path="url(#clip922)" d="M1140.27 814.528 L1140.27 1521.01 L1166.81 1521.01 L1166.81 814.528 L1140.27 814.528 L1140.27 814.528  Z" fill="#009af9" fill-rule="evenodd" fill-opacity="1"/>
<polyline clip-path="url(#clip922)" style="stroke:#000000; stroke-linecap:round; stroke-linejoin:round; stroke-width:4; stroke-opacity:1; fill:none" points="1140.27,814.528 1140.27,1521.01 1166.81,1521.01 1166.81,814.528 1140.27,814.528 "/>
<path clip-path="url(#clip922)" d="M1166.81 857.959 L1166.81 1521.01 L1193.34 1521.01 L1193.34 857.959 L1166.81 857.959 L1166.81 857.959  Z" fill="#009af9" fill-rule="evenodd" fill-opacity="1"/>
<polyline clip-path="url(#clip922)" style="stroke:#000000; stroke-linecap:round; stroke-linejoin:round; stroke-width:4; stroke-opacity:1; fill:none" points="1166.81,857.959 1166.81,1521.01 1193.34,1521.01 1193.34,857.959 1166.81,857.959 "/>
<path clip-path="url(#clip922)" d="M1193.34 976.671 L1193.34 1521.01 L1219.87 1521.01 L1219.87 976.671 L1193.34 976.671 L1193.34 976.671  Z" fill="#009af9" fill-rule="evenodd" fill-opacity="1"/>
<polyline clip-path="url(#clip922)" style="stroke:#000000; stroke-linecap:round; stroke-linejoin:round; stroke-width:4; stroke-opacity:1; fill:none" points="1193.34,976.671 1193.34,1521.01 1219.87,1521.01 1219.87,976.671 1193.34,976.671 "/>
<path clip-path="url(#clip922)" d="M1219.87 1086.7 L1219.87 1521.01 L1246.41 1521.01 L1246.41 1086.7 L1219.87 1086.7 L1219.87 1086.7  Z" fill="#009af9" fill-rule="evenodd" fill-opacity="1"/>
<polyline clip-path="url(#clip922)" style="stroke:#000000; stroke-linecap:round; stroke-linejoin:round; stroke-width:4; stroke-opacity:1; fill:none" points="1219.87,1086.7 1219.87,1521.01 1246.41,1521.01 1246.41,1086.7 1219.87,1086.7 "/>
<path clip-path="url(#clip922)" d="M1246.41 1219.89 L1246.41 1521.01 L1272.94 1521.01 L1272.94 1219.89 L1246.41 1219.89 L1246.41 1219.89  Z" fill="#009af9" fill-rule="evenodd" fill-opacity="1"/>
<polyline clip-path="url(#clip922)" style="stroke:#000000; stroke-linecap:round; stroke-linejoin:round; stroke-width:4; stroke-opacity:1; fill:none" points="1246.41,1219.89 1246.41,1521.01 1272.94,1521.01 1272.94,1219.89 1246.41,1219.89 "/>
<path clip-path="url(#clip922)" d="M1272.94 1263.32 L1272.94 1521.01 L1299.47 1521.01 L1299.47 1263.32 L1272.94 1263.32 L1272.94 1263.32  Z" fill="#009af9" fill-rule="evenodd" fill-opacity="1"/>
<polyline clip-path="url(#clip922)" style="stroke:#000000; stroke-linecap:round; stroke-linejoin:round; stroke-width:4; stroke-opacity:1; fill:none" points="1272.94,1263.32 1272.94,1521.01 1299.47,1521.01 1299.47,1263.32 1272.94,1263.32 "/>
<path clip-path="url(#clip922)" d="M1299.47 1272 L1299.47 1521.01 L1326.01 1521.01 L1326.01 1272 L1299.47 1272 L1299.47 1272  Z" fill="#009af9" fill-rule="evenodd" fill-opacity="1"/>
<polyline clip-path="url(#clip922)" style="stroke:#000000; stroke-linecap:round; stroke-linejoin:round; stroke-width:4; stroke-opacity:1; fill:none" points="1299.47,1272 1299.47,1521.01 1326.01,1521.01 1326.01,1272 1299.47,1272 "/>
<path clip-path="url(#clip922)" d="M1326.01 1329.91 L1326.01 1521.01 L1352.54 1521.01 L1352.54 1329.91 L1326.01 1329.91 L1326.01 1329.91  Z" fill="#009af9" fill-rule="evenodd" fill-opacity="1"/>
<polyline clip-path="url(#clip922)" style="stroke:#000000; stroke-linecap:round; stroke-linejoin:round; stroke-width:4; stroke-opacity:1; fill:none" points="1326.01,1329.91 1326.01,1521.01 1352.54,1521.01 1352.54,1329.91 1326.01,1329.91 "/>
<path clip-path="url(#clip922)" d="M1352.54 1408.09 L1352.54 1521.01 L1379.07 1521.01 L1379.07 1408.09 L1352.54 1408.09 L1352.54 1408.09  Z" fill="#009af9" fill-rule="evenodd" fill-opacity="1"/>
<polyline clip-path="url(#clip922)" style="stroke:#000000; stroke-linecap:round; stroke-linejoin:round; stroke-width:4; stroke-opacity:1; fill:none" points="1352.54,1408.09 1352.54,1521.01 1379.07,1521.01 1379.07,1408.09 1352.54,1408.09 "/>
<path clip-path="url(#clip922)" d="M1379.07 1390.71 L1379.07 1521.01 L1405.61 1521.01 L1405.61 1390.71 L1379.07 1390.71 L1379.07 1390.71  Z" fill="#009af9" fill-rule="evenodd" fill-opacity="1"/>
<polyline clip-path="url(#clip922)" style="stroke:#000000; stroke-linecap:round; stroke-linejoin:round; stroke-width:4; stroke-opacity:1; fill:none" points="1379.07,1390.71 1379.07,1521.01 1405.61,1521.01 1405.61,1390.71 1379.07,1390.71 "/>
<path clip-path="url(#clip922)" d="M1405.61 1410.98 L1405.61 1521.01 L1432.14 1521.01 L1432.14 1410.98 L1405.61 1410.98 L1405.61 1410.98  Z" fill="#009af9" fill-rule="evenodd" fill-opacity="1"/>
<polyline clip-path="url(#clip922)" style="stroke:#000000; stroke-linecap:round; stroke-linejoin:round; stroke-width:4; stroke-opacity:1; fill:none" points="1405.61,1410.98 1405.61,1521.01 1432.14,1521.01 1432.14,1410.98 1405.61,1410.98 "/>
<path clip-path="url(#clip922)" d="M1432.14 1457.31 L1432.14 1521.01 L1458.67 1521.01 L1458.67 1457.31 L1432.14 1457.31 L1432.14 1457.31  Z" fill="#009af9" fill-rule="evenodd" fill-opacity="1"/>
<polyline clip-path="url(#clip922)" style="stroke:#000000; stroke-linecap:round; stroke-linejoin:round; stroke-width:4; stroke-opacity:1; fill:none" points="1432.14,1457.31 1432.14,1521.01 1458.67,1521.01 1458.67,1457.31 1432.14,1457.31 "/>
<path clip-path="url(#clip922)" d="M1458.67 1451.52 L1458.67 1521.01 L1485.21 1521.01 L1485.21 1451.52 L1458.67 1451.52 L1458.67 1451.52  Z" fill="#009af9" fill-rule="evenodd" fill-opacity="1"/>
<polyline clip-path="url(#clip922)" style="stroke:#000000; stroke-linecap:round; stroke-linejoin:round; stroke-width:4; stroke-opacity:1; fill:none" points="1458.67,1451.52 1458.67,1521.01 1485.21,1521.01 1485.21,1451.52 1458.67,1451.52 "/>
<path clip-path="url(#clip922)" d="M1485.21 1489.16 L1485.21 1521.01 L1511.74 1521.01 L1511.74 1489.16 L1485.21 1489.16 L1485.21 1489.16  Z" fill="#009af9" fill-rule="evenodd" fill-opacity="1"/>
<polyline clip-path="url(#clip922)" style="stroke:#000000; stroke-linecap:round; stroke-linejoin:round; stroke-width:4; stroke-opacity:1; fill:none" points="1485.21,1489.16 1485.21,1521.01 1511.74,1521.01 1511.74,1489.16 1485.21,1489.16 "/>
<path clip-path="url(#clip922)" d="M1511.74 1486.26 L1511.74 1521.01 L1538.27 1521.01 L1538.27 1486.26 L1511.74 1486.26 L1511.74 1486.26  Z" fill="#009af9" fill-rule="evenodd" fill-opacity="1"/>
<polyline clip-path="url(#clip922)" style="stroke:#000000; stroke-linecap:round; stroke-linejoin:round; stroke-width:4; stroke-opacity:1; fill:none" points="1511.74,1486.26 1511.74,1521.01 1538.27,1521.01 1538.27,1486.26 1511.74,1486.26 "/>
<path clip-path="url(#clip922)" d="M1538.27 1492.05 L1538.27 1521.01 L1564.81 1521.01 L1564.81 1492.05 L1538.27 1492.05 L1538.27 1492.05  Z" fill="#009af9" fill-rule="evenodd" fill-opacity="1"/>
<polyline clip-path="url(#clip922)" style="stroke:#000000; stroke-linecap:round; stroke-linejoin:round; stroke-width:4; stroke-opacity:1; fill:none" points="1538.27,1492.05 1538.27,1521.01 1564.81,1521.01 1564.81,1492.05 1538.27,1492.05 "/>
<path clip-path="url(#clip922)" d="M1564.81 1497.84 L1564.81 1521.01 L1591.34 1521.01 L1591.34 1497.84 L1564.81 1497.84 L1564.81 1497.84  Z" fill="#009af9" fill-rule="evenodd" fill-opacity="1"/>
<polyline clip-path="url(#clip922)" style="stroke:#000000; stroke-linecap:round; stroke-linejoin:round; stroke-width:4; stroke-opacity:1; fill:none" points="1564.81,1497.84 1564.81,1521.01 1591.34,1521.01 1591.34,1497.84 1564.81,1497.84 "/>
<path clip-path="url(#clip922)" d="M1591.34 1506.53 L1591.34 1521.01 L1617.87 1521.01 L1617.87 1506.53 L1591.34 1506.53 L1591.34 1506.53  Z" fill="#009af9" fill-rule="evenodd" fill-opacity="1"/>
<polyline clip-path="url(#clip922)" style="stroke:#000000; stroke-linecap:round; stroke-linejoin:round; stroke-width:4; stroke-opacity:1; fill:none" points="1591.34,1506.53 1591.34,1521.01 1617.87,1521.01 1617.87,1506.53 1591.34,1506.53 "/>
<path clip-path="url(#clip922)" d="M1617.87 1506.53 L1617.87 1521.01 L1644.4 1521.01 L1644.4 1506.53 L1617.87 1506.53 L1617.87 1506.53  Z" fill="#009af9" fill-rule="evenodd" fill-opacity="1"/>
<polyline clip-path="url(#clip922)" style="stroke:#000000; stroke-linecap:round; stroke-linejoin:round; stroke-width:4; stroke-opacity:1; fill:none" points="1617.87,1506.53 1617.87,1521.01 1644.4,1521.01 1644.4,1506.53 1617.87,1506.53 "/>
<path clip-path="url(#clip922)" d="M1644.4 1509.43 L1644.4 1521.01 L1670.94 1521.01 L1670.94 1509.43 L1644.4 1509.43 L1644.4 1509.43  Z" fill="#009af9" fill-rule="evenodd" fill-opacity="1"/>
<polyline clip-path="url(#clip922)" style="stroke:#000000; stroke-linecap:round; stroke-linejoin:round; stroke-width:4; stroke-opacity:1; fill:none" points="1644.4,1509.43 1644.4,1521.01 1670.94,1521.01 1670.94,1509.43 1644.4,1509.43 "/>
<path clip-path="url(#clip922)" d="M1670.94 1509.43 L1670.94 1521.01 L1697.47 1521.01 L1697.47 1509.43 L1670.94 1509.43 L1670.94 1509.43  Z" fill="#009af9" fill-rule="evenodd" fill-opacity="1"/>
<polyline clip-path="url(#clip922)" style="stroke:#000000; stroke-linecap:round; stroke-linejoin:round; stroke-width:4; stroke-opacity:1; fill:none" points="1670.94,1509.43 1670.94,1521.01 1697.47,1521.01 1697.47,1509.43 1670.94,1509.43 "/>
<path clip-path="url(#clip922)" d="M1697.47 1521.01 L1697.47 1521.01 L1724 1521.01 L1724 1521.01 L1697.47 1521.01 L1697.47 1521.01  Z" fill="#009af9" fill-rule="evenodd" fill-opacity="1"/>
<polyline clip-path="url(#clip922)" style="stroke:#000000; stroke-linecap:round; stroke-linejoin:round; stroke-width:4; stroke-opacity:1; fill:none" points="1697.47,1521.01 1697.47,1521.01 1724,1521.01 1697.47,1521.01 "/>
<path clip-path="url(#clip922)" d="M1724 1515.22 L1724 1521.01 L1750.54 1521.01 L1750.54 1515.22 L1724 1515.22 L1724 1515.22  Z" fill="#009af9" fill-rule="evenodd" fill-opacity="1"/>
<polyline clip-path="url(#clip922)" style="stroke:#000000; stroke-linecap:round; stroke-linejoin:round; stroke-width:4; stroke-opacity:1; fill:none" points="1724,1515.22 1724,1521.01 1750.54,1521.01 1750.54,1515.22 1724,1515.22 "/>
<path clip-path="url(#clip922)" d="M1750.54 1515.22 L1750.54 1521.01 L1777.07 1521.01 L1777.07 1515.22 L1750.54 1515.22 L1750.54 1515.22  Z" fill="#009af9" fill-rule="evenodd" fill-opacity="1"/>
<polyline clip-path="url(#clip922)" style="stroke:#000000; stroke-linecap:round; stroke-linejoin:round; stroke-width:4; stroke-opacity:1; fill:none" points="1750.54,1515.22 1750.54,1521.01 1777.07,1521.01 1777.07,1515.22 1750.54,1515.22 "/>
<path clip-path="url(#clip922)" d="M1777.07 1518.11 L1777.07 1521.01 L1803.6 1521.01 L1803.6 1518.11 L1777.07 1518.11 L1777.07 1518.11  Z" fill="#009af9" fill-rule="evenodd" fill-opacity="1"/>
<polyline clip-path="url(#clip922)" style="stroke:#000000; stroke-linecap:round; stroke-linejoin:round; stroke-width:4; stroke-opacity:1; fill:none" points="1777.07,1518.11 1777.07,1521.01 1803.6,1521.01 1803.6,1518.11 1777.07,1518.11 "/>
<path clip-path="url(#clip922)" d="M1803.6 1521.01 L1803.6 1521.01 L1830.14 1521.01 L1830.14 1521.01 L1803.6 1521.01 L1803.6 1521.01  Z" fill="#009af9" fill-rule="evenodd" fill-opacity="1"/>
<polyline clip-path="url(#clip922)" style="stroke:#000000; stroke-linecap:round; stroke-linejoin:round; stroke-width:4; stroke-opacity:1; fill:none" points="1803.6,1521.01 1803.6,1521.01 1830.14,1521.01 1803.6,1521.01 "/>
<path clip-path="url(#clip922)" d="M1830.14 1521.01 L1830.14 1521.01 L1856.67 1521.01 L1856.67 1521.01 L1830.14 1521.01 L1830.14 1521.01  Z" fill="#009af9" fill-rule="evenodd" fill-opacity="1"/>
<polyline clip-path="url(#clip922)" style="stroke:#000000; stroke-linecap:round; stroke-linejoin:round; stroke-width:4; stroke-opacity:1; fill:none" points="1830.14,1521.01 1830.14,1521.01 1856.67,1521.01 1830.14,1521.01 "/>
<path clip-path="url(#clip922)" d="M1856.67 1518.11 L1856.67 1521.01 L1883.2 1521.01 L1883.2 1518.11 L1856.67 1518.11 L1856.67 1518.11  Z" fill="#009af9" fill-rule="evenodd" fill-opacity="1"/>
<polyline clip-path="url(#clip922)" style="stroke:#000000; stroke-linecap:round; stroke-linejoin:round; stroke-width:4; stroke-opacity:1; fill:none" points="1856.67,1518.11 1856.67,1521.01 1883.2,1521.01 1883.2,1518.11 1856.67,1518.11 "/>
<path clip-path="url(#clip922)" d="M1883.2 1521.01 L1883.2 1521.01 L1909.74 1521.01 L1909.74 1521.01 L1883.2 1521.01 L1883.2 1521.01  Z" fill="#009af9" fill-rule="evenodd" fill-opacity="1"/>
<polyline clip-path="url(#clip922)" style="stroke:#000000; stroke-linecap:round; stroke-linejoin:round; stroke-width:4; stroke-opacity:1; fill:none" points="1883.2,1521.01 1883.2,1521.01 1909.74,1521.01 1883.2,1521.01 "/>
<path clip-path="url(#clip922)" d="M1909.74 1521.01 L1909.74 1521.01 L1936.27 1521.01 L1936.27 1521.01 L1909.74 1521.01 L1909.74 1521.01  Z" fill="#009af9" fill-rule="evenodd" fill-opacity="1"/>
<polyline clip-path="url(#clip922)" style="stroke:#000000; stroke-linecap:round; stroke-linejoin:round; stroke-width:4; stroke-opacity:1; fill:none" points="1909.74,1521.01 1909.74,1521.01 1936.27,1521.01 1909.74,1521.01 "/>
<path clip-path="url(#clip922)" d="M1936.27 1521.01 L1936.27 1521.01 L1962.8 1521.01 L1962.8 1521.01 L1936.27 1521.01 L1936.27 1521.01  Z" fill="#009af9" fill-rule="evenodd" fill-opacity="1"/>
<polyline clip-path="url(#clip922)" style="stroke:#000000; stroke-linecap:round; stroke-linejoin:round; stroke-width:4; stroke-opacity:1; fill:none" points="1936.27,1521.01 1936.27,1521.01 1962.8,1521.01 1936.27,1521.01 "/>
<path clip-path="url(#clip922)" d="M1962.8 1521.01 L1962.8 1521.01 L1989.34 1521.01 L1989.34 1521.01 L1962.8 1521.01 L1962.8 1521.01  Z" fill="#009af9" fill-rule="evenodd" fill-opacity="1"/>
<polyline clip-path="url(#clip922)" style="stroke:#000000; stroke-linecap:round; stroke-linejoin:round; stroke-width:4; stroke-opacity:1; fill:none" points="1962.8,1521.01 1962.8,1521.01 1989.34,1521.01 1962.8,1521.01 "/>
<path clip-path="url(#clip922)" d="M1989.34 1521.01 L1989.34 1521.01 L2015.87 1521.01 L2015.87 1521.01 L1989.34 1521.01 L1989.34 1521.01  Z" fill="#009af9" fill-rule="evenodd" fill-opacity="1"/>
<polyline clip-path="url(#clip922)" style="stroke:#000000; stroke-linecap:round; stroke-linejoin:round; stroke-width:4; stroke-opacity:1; fill:none" points="1989.34,1521.01 1989.34,1521.01 2015.87,1521.01 1989.34,1521.01 "/>
<path clip-path="url(#clip922)" d="M2015.87 1521.01 L2015.87 1521.01 L2042.4 1521.01 L2042.4 1521.01 L2015.87 1521.01 L2015.87 1521.01  Z" fill="#009af9" fill-rule="evenodd" fill-opacity="1"/>
<polyline clip-path="url(#clip922)" style="stroke:#000000; stroke-linecap:round; stroke-linejoin:round; stroke-width:4; stroke-opacity:1; fill:none" points="2015.87,1521.01 2015.87,1521.01 2042.4,1521.01 2015.87,1521.01 "/>
<path clip-path="url(#clip922)" d="M2042.4 1521.01 L2042.4 1521.01 L2068.94 1521.01 L2068.94 1521.01 L2042.4 1521.01 L2042.4 1521.01  Z" fill="#009af9" fill-rule="evenodd" fill-opacity="1"/>
<polyline clip-path="url(#clip922)" style="stroke:#000000; stroke-linecap:round; stroke-linejoin:round; stroke-width:4; stroke-opacity:1; fill:none" points="2042.4,1521.01 2042.4,1521.01 2068.94,1521.01 2042.4,1521.01 "/>
<path clip-path="url(#clip922)" d="M2068.94 1521.01 L2068.94 1521.01 L2095.47 1521.01 L2095.47 1521.01 L2068.94 1521.01 L2068.94 1521.01  Z" fill="#009af9" fill-rule="evenodd" fill-opacity="1"/>
<polyline clip-path="url(#clip922)" style="stroke:#000000; stroke-linecap:round; stroke-linejoin:round; stroke-width:4; stroke-opacity:1; fill:none" points="2068.94,1521.01 2068.94,1521.01 2095.47,1521.01 2068.94,1521.01 "/>
<path clip-path="url(#clip922)" d="M2095.47 1521.01 L2095.47 1521.01 L2122 1521.01 L2122 1521.01 L2095.47 1521.01 L2095.47 1521.01  Z" fill="#009af9" fill-rule="evenodd" fill-opacity="1"/>
<polyline clip-path="url(#clip922)" style="stroke:#000000; stroke-linecap:round; stroke-linejoin:round; stroke-width:4; stroke-opacity:1; fill:none" points="2095.47,1521.01 2095.47,1521.01 2122,1521.01 2095.47,1521.01 "/>
<path clip-path="url(#clip922)" d="M2122 1521.01 L2122 1521.01 L2148.54 1521.01 L2148.54 1521.01 L2122 1521.01 L2122 1521.01  Z" fill="#009af9" fill-rule="evenodd" fill-opacity="1"/>
<polyline clip-path="url(#clip922)" style="stroke:#000000; stroke-linecap:round; stroke-linejoin:round; stroke-width:4; stroke-opacity:1; fill:none" points="2122,1521.01 2122,1521.01 2148.54,1521.01 2122,1521.01 "/>
<path clip-path="url(#clip922)" d="M2148.54 1521.01 L2148.54 1521.01 L2175.07 1521.01 L2175.07 1521.01 L2148.54 1521.01 L2148.54 1521.01  Z" fill="#009af9" fill-rule="evenodd" fill-opacity="1"/>
<polyline clip-path="url(#clip922)" style="stroke:#000000; stroke-linecap:round; stroke-linejoin:round; stroke-width:4; stroke-opacity:1; fill:none" points="2148.54,1521.01 2148.54,1521.01 2175.07,1521.01 2148.54,1521.01 "/>
<path clip-path="url(#clip922)" d="M2175.07 1521.01 L2175.07 1521.01 L2201.6 1521.01 L2201.6 1521.01 L2175.07 1521.01 L2175.07 1521.01  Z" fill="#009af9" fill-rule="evenodd" fill-opacity="1"/>
<polyline clip-path="url(#clip922)" style="stroke:#000000; stroke-linecap:round; stroke-linejoin:round; stroke-width:4; stroke-opacity:1; fill:none" points="2175.07,1521.01 2175.07,1521.01 2201.6,1521.01 2175.07,1521.01 "/>
<path clip-path="url(#clip922)" d="M2201.6 1518.11 L2201.6 1521.01 L2228.13 1521.01 L2228.13 1518.11 L2201.6 1518.11 L2201.6 1518.11  Z" fill="#009af9" fill-rule="evenodd" fill-opacity="1"/>
<polyline clip-path="url(#clip922)" style="stroke:#000000; stroke-linecap:round; stroke-linejoin:round; stroke-width:4; stroke-opacity:1; fill:none" points="2201.6,1518.11 2201.6,1521.01 2228.13,1521.01 2228.13,1518.11 2201.6,1518.11 "/>
<circle clip-path="url(#clip922)" style="fill:#009af9; stroke:none; fill-opacity:0" cx="224.88" cy="1518.11" r="2"/>
<circle clip-path="url(#clip922)" style="fill:#009af9; stroke:none; fill-opacity:0" cx="251.413" cy="1512.32" r="2"/>
<circle clip-path="url(#clip922)" style="fill:#009af9; stroke:none; fill-opacity:0" cx="277.946" cy="1509.43" r="2"/>
<circle clip-path="url(#clip922)" style="fill:#009af9; stroke:none; fill-opacity:0" cx="304.479" cy="1512.32" r="2"/>
<circle clip-path="url(#clip922)" style="fill:#009af9; stroke:none; fill-opacity:0" cx="331.012" cy="1497.84" r="2"/>
<circle clip-path="url(#clip922)" style="fill:#009af9; stroke:none; fill-opacity:0" cx="357.546" cy="1497.84" r="2"/>
<circle clip-path="url(#clip922)" style="fill:#009af9; stroke:none; fill-opacity:0" cx="384.079" cy="1477.58" r="2"/>
<circle clip-path="url(#clip922)" style="fill:#009af9; stroke:none; fill-opacity:0" cx="410.612" cy="1445.73" r="2"/>
<circle clip-path="url(#clip922)" style="fill:#009af9; stroke:none; fill-opacity:0" cx="437.145" cy="1410.98" r="2"/>
<circle clip-path="url(#clip922)" style="fill:#009af9; stroke:none; fill-opacity:0" cx="463.678" cy="1393.61" r="2"/>
<circle clip-path="url(#clip922)" style="fill:#009af9; stroke:none; fill-opacity:0" cx="490.212" cy="1309.64" r="2"/>
<circle clip-path="url(#clip922)" style="fill:#009af9; stroke:none; fill-opacity:0" cx="516.745" cy="1312.54" r="2"/>
<circle clip-path="url(#clip922)" style="fill:#009af9; stroke:none; fill-opacity:0" cx="543.278" cy="1202.51" r="2"/>
<circle clip-path="url(#clip922)" style="fill:#009af9; stroke:none; fill-opacity:0" cx="569.811" cy="1141.71" r="2"/>
<circle clip-path="url(#clip922)" style="fill:#009af9; stroke:none; fill-opacity:0" cx="596.344" cy="996.939" r="2"/>
<circle clip-path="url(#clip922)" style="fill:#009af9; stroke:none; fill-opacity:0" cx="622.877" cy="927.449" r="2"/>
<circle clip-path="url(#clip922)" style="fill:#009af9; stroke:none; fill-opacity:0" cx="649.411" cy="826.109" r="2"/>
<circle clip-path="url(#clip922)" style="fill:#009af9; stroke:none; fill-opacity:0" cx="675.944" cy="669.757" r="2"/>
<circle clip-path="url(#clip922)" style="fill:#009af9; stroke:none; fill-opacity:0" cx="702.477" cy="519.196" r="2"/>
<circle clip-path="url(#clip922)" style="fill:#009af9; stroke:none; fill-opacity:0" cx="729.01" cy="417.857" r="2"/>
<circle clip-path="url(#clip922)" style="fill:#009af9; stroke:none; fill-opacity:0" cx="755.543" cy="264.4" r="2"/>
<circle clip-path="url(#clip922)" style="fill:#009af9; stroke:none; fill-opacity:0" cx="782.077" cy="249.923" r="2"/>
<circle clip-path="url(#clip922)" style="fill:#009af9; stroke:none; fill-opacity:0" cx="808.61" cy="177.538" r="2"/>
<circle clip-path="url(#clip922)" style="fill:#009af9; stroke:none; fill-opacity:0" cx="835.143" cy="90.6752" r="2"/>
<circle clip-path="url(#clip922)" style="fill:#009af9; stroke:none; fill-opacity:0" cx="861.676" cy="102.257" r="2"/>
<circle clip-path="url(#clip922)" style="fill:#009af9; stroke:none; fill-opacity:0" cx="888.209" cy="81.989" r="2"/>
<circle clip-path="url(#clip922)" style="fill:#009af9; stroke:none; fill-opacity:0" cx="914.742" cy="47.2441" r="2"/>
<circle clip-path="url(#clip922)" style="fill:#009af9; stroke:none; fill-opacity:0" cx="941.276" cy="125.42" r="2"/>
<circle clip-path="url(#clip922)" style="fill:#009af9; stroke:none; fill-opacity:0" cx="967.809" cy="151.479" r="2"/>
<circle clip-path="url(#clip922)" style="fill:#009af9; stroke:none; fill-opacity:0" cx="994.342" cy="270.191" r="2"/>
<circle clip-path="url(#clip922)" style="fill:#009af9; stroke:none; fill-opacity:0" cx="1020.88" cy="374.425" r="2"/>
<circle clip-path="url(#clip922)" style="fill:#009af9; stroke:none; fill-opacity:0" cx="1047.41" cy="374.425" r="2"/>
<circle clip-path="url(#clip922)" style="fill:#009af9; stroke:none; fill-opacity:0" cx="1073.94" cy="539.464" r="2"/>
<circle clip-path="url(#clip922)" style="fill:#009af9; stroke:none; fill-opacity:0" cx="1100.47" cy="577.104" r="2"/>
<circle clip-path="url(#clip922)" style="fill:#009af9; stroke:none; fill-opacity:0" cx="1127.01" cy="779.783" r="2"/>
<circle clip-path="url(#clip922)" style="fill:#009af9; stroke:none; fill-opacity:0" cx="1153.54" cy="814.528" r="2"/>
<circle clip-path="url(#clip922)" style="fill:#009af9; stroke:none; fill-opacity:0" cx="1180.07" cy="857.959" r="2"/>
<circle clip-path="url(#clip922)" style="fill:#009af9; stroke:none; fill-opacity:0" cx="1206.61" cy="976.671" r="2"/>
<circle clip-path="url(#clip922)" style="fill:#009af9; stroke:none; fill-opacity:0" cx="1233.14" cy="1086.7" r="2"/>
<circle clip-path="url(#clip922)" style="fill:#009af9; stroke:none; fill-opacity:0" cx="1259.67" cy="1219.89" r="2"/>
<circle clip-path="url(#clip922)" style="fill:#009af9; stroke:none; fill-opacity:0" cx="1286.21" cy="1263.32" r="2"/>
<circle clip-path="url(#clip922)" style="fill:#009af9; stroke:none; fill-opacity:0" cx="1312.74" cy="1272" r="2"/>
<circle clip-path="url(#clip922)" style="fill:#009af9; stroke:none; fill-opacity:0" cx="1339.27" cy="1329.91" r="2"/>
<circle clip-path="url(#clip922)" style="fill:#009af9; stroke:none; fill-opacity:0" cx="1365.81" cy="1408.09" r="2"/>
<circle clip-path="url(#clip922)" style="fill:#009af9; stroke:none; fill-opacity:0" cx="1392.34" cy="1390.71" r="2"/>
<circle clip-path="url(#clip922)" style="fill:#009af9; stroke:none; fill-opacity:0" cx="1418.87" cy="1410.98" r="2"/>
<circle clip-path="url(#clip922)" style="fill:#009af9; stroke:none; fill-opacity:0" cx="1445.41" cy="1457.31" r="2"/>
<circle clip-path="url(#clip922)" style="fill:#009af9; stroke:none; fill-opacity:0" cx="1471.94" cy="1451.52" r="2"/>
<circle clip-path="url(#clip922)" style="fill:#009af9; stroke:none; fill-opacity:0" cx="1498.47" cy="1489.16" r="2"/>
<circle clip-path="url(#clip922)" style="fill:#009af9; stroke:none; fill-opacity:0" cx="1525.01" cy="1486.26" r="2"/>
<circle clip-path="url(#clip922)" style="fill:#009af9; stroke:none; fill-opacity:0" cx="1551.54" cy="1492.05" r="2"/>
<circle clip-path="url(#clip922)" style="fill:#009af9; stroke:none; fill-opacity:0" cx="1578.07" cy="1497.84" r="2"/>
<circle clip-path="url(#clip922)" style="fill:#009af9; stroke:none; fill-opacity:0" cx="1604.61" cy="1506.53" r="2"/>
<circle clip-path="url(#clip922)" style="fill:#009af9; stroke:none; fill-opacity:0" cx="1631.14" cy="1506.53" r="2"/>
<circle clip-path="url(#clip922)" style="fill:#009af9; stroke:none; fill-opacity:0" cx="1657.67" cy="1509.43" r="2"/>
<circle clip-path="url(#clip922)" style="fill:#009af9; stroke:none; fill-opacity:0" cx="1684.2" cy="1509.43" r="2"/>
<circle clip-path="url(#clip922)" style="fill:#009af9; stroke:none; fill-opacity:0" cx="1710.74" cy="1521.01" r="2"/>
<circle clip-path="url(#clip922)" style="fill:#009af9; stroke:none; fill-opacity:0" cx="1737.27" cy="1515.22" r="2"/>
<circle clip-path="url(#clip922)" style="fill:#009af9; stroke:none; fill-opacity:0" cx="1763.8" cy="1515.22" r="2"/>
<circle clip-path="url(#clip922)" style="fill:#009af9; stroke:none; fill-opacity:0" cx="1790.34" cy="1518.11" r="2"/>
<circle clip-path="url(#clip922)" style="fill:#009af9; stroke:none; fill-opacity:0" cx="1816.87" cy="1521.01" r="2"/>
<circle clip-path="url(#clip922)" style="fill:#009af9; stroke:none; fill-opacity:0" cx="1843.4" cy="1521.01" r="2"/>
<circle clip-path="url(#clip922)" style="fill:#009af9; stroke:none; fill-opacity:0" cx="1869.94" cy="1518.11" r="2"/>
<circle clip-path="url(#clip922)" style="fill:#009af9; stroke:none; fill-opacity:0" cx="1896.47" cy="1521.01" r="2"/>
<circle clip-path="url(#clip922)" style="fill:#009af9; stroke:none; fill-opacity:0" cx="1923" cy="1521.01" r="2"/>
<circle clip-path="url(#clip922)" style="fill:#009af9; stroke:none; fill-opacity:0" cx="1949.54" cy="1521.01" r="2"/>
<circle clip-path="url(#clip922)" style="fill:#009af9; stroke:none; fill-opacity:0" cx="1976.07" cy="1521.01" r="2"/>
<circle clip-path="url(#clip922)" style="fill:#009af9; stroke:none; fill-opacity:0" cx="2002.6" cy="1521.01" r="2"/>
<circle clip-path="url(#clip922)" style="fill:#009af9; stroke:none; fill-opacity:0" cx="2029.14" cy="1521.01" r="2"/>
<circle clip-path="url(#clip922)" style="fill:#009af9; stroke:none; fill-opacity:0" cx="2055.67" cy="1521.01" r="2"/>
<circle clip-path="url(#clip922)" style="fill:#009af9; stroke:none; fill-opacity:0" cx="2082.2" cy="1521.01" r="2"/>
<circle clip-path="url(#clip922)" style="fill:#009af9; stroke:none; fill-opacity:0" cx="2108.74" cy="1521.01" r="2"/>
<circle clip-path="url(#clip922)" style="fill:#009af9; stroke:none; fill-opacity:0" cx="2135.27" cy="1521.01" r="2"/>
<circle clip-path="url(#clip922)" style="fill:#009af9; stroke:none; fill-opacity:0" cx="2161.8" cy="1521.01" r="2"/>
<circle clip-path="url(#clip922)" style="fill:#009af9; stroke:none; fill-opacity:0" cx="2188.34" cy="1521.01" r="2"/>
<circle clip-path="url(#clip922)" style="fill:#009af9; stroke:none; fill-opacity:0" cx="2214.87" cy="1518.11" r="2"/>
<path clip-path="url(#clip920)" d="M1937.21 200.05 L2277.23 200.05 L2277.23 96.3696 L1937.21 96.3696  Z" fill="#ffffff" fill-rule="evenodd" fill-opacity="1"/>
<polyline clip-path="url(#clip920)" style="stroke:#000000; stroke-linecap:round; stroke-linejoin:round; stroke-width:4; stroke-opacity:1; fill:none" points="1937.21,200.05 2277.23,200.05 2277.23,96.3696 1937.21,96.3696 1937.21,200.05 "/>
<path clip-path="url(#clip920)" d="M1962.38 168.946 L2113.43 168.946 L2113.43 127.474 L1962.38 127.474 L1962.38 168.946  Z" fill="#009af9" fill-rule="evenodd" fill-opacity="1"/>
<polyline clip-path="url(#clip920)" style="stroke:#000000; stroke-linecap:round; stroke-linejoin:round; stroke-width:4; stroke-opacity:1; fill:none" points="1962.38,168.946 2113.43,168.946 2113.43,127.474 1962.38,127.474 1962.38,168.946 "/>
<path clip-path="url(#clip920)" d="M2139.28 161.554 L2146.92 161.554 L2146.92 135.189 L2138.61 136.855 L2138.61 132.596 L2146.87 130.93 L2151.55 130.93 L2151.55 161.554 L2159.19 161.554 L2159.19 165.49 L2139.28 165.49 L2139.28 161.554 Z" fill="#000000" fill-rule="nonzero" fill-opacity="1" /><path clip-path="url(#clip920)" d="M2165.88 150.605 L2178.35 150.605 L2178.35 154.402 L2165.88 154.402 L2165.88 150.605 Z" fill="#000000" fill-rule="nonzero" fill-opacity="1" /><path clip-path="url(#clip920)" d="M2202.54 149.054 L2187.8 149.054 Q2188.14 155.976 2189.74 158.916 Q2191.73 162.527 2195.18 162.527 Q2198.65 162.527 2200.57 158.892 Q2202.26 155.698 2202.54 149.054 M2202.47 145.119 Q2201.82 138.545 2200.57 136.23 Q2198.58 132.573 2195.18 132.573 Q2191.64 132.573 2189.76 136.184 Q2188.28 139.101 2187.84 145.119 L2202.47 145.119 M2195.18 129.101 Q2200.74 129.101 2203.91 134.008 Q2207.08 138.892 2207.08 147.55 Q2207.08 156.184 2203.91 161.091 Q2200.74 166.022 2195.18 166.022 Q2189.6 166.022 2186.45 161.091 Q2183.28 156.184 2183.28 147.55 Q2183.28 138.892 2186.45 134.008 Q2189.6 129.101 2195.18 129.101 Z" fill="#000000" fill-rule="nonzero" fill-opacity="1" /><path clip-path="url(#clip920)" d="M2221.71 130.93 L2225.64 130.93 L2213.61 169.888 L2209.67 169.888 L2221.71 130.93 Z" fill="#000000" fill-rule="nonzero" fill-opacity="1" /><path clip-path="url(#clip920)" d="M2247.52 149.054 L2232.77 149.054 Q2233.12 155.976 2234.72 158.916 Q2236.71 162.527 2240.16 162.527 Q2243.63 162.527 2245.55 158.892 Q2247.24 155.698 2247.52 149.054 M2247.45 145.119 Q2246.8 138.545 2245.55 136.23 Q2243.56 132.573 2240.16 132.573 Q2236.62 132.573 2234.74 136.184 Q2233.26 139.101 2232.82 145.119 L2247.45 145.119 M2240.16 129.101 Q2245.71 129.101 2248.88 134.008 Q2252.06 138.892 2252.06 147.55 Q2252.06 156.184 2248.88 161.091 Q2245.71 166.022 2240.16 166.022 Q2234.58 166.022 2231.43 161.091 Q2228.26 156.184 2228.26 147.55 Q2228.26 138.892 2231.43 134.008 Q2234.58 129.101 2240.16 129.101 Z" fill="#000000" fill-rule="nonzero" fill-opacity="1" /></svg>
