<?xml version="1.0" encoding="utf-8"?>
<svg xmlns="http://www.w3.org/2000/svg" xmlns:xlink="http://www.w3.org/1999/xlink" width="600" height="400" viewBox="0 0 2400 1600">
<defs>
  <clipPath id="clip060">
    <rect x="0" y="0" width="2400" height="1600"/>
  </clipPath>
</defs>
<path clip-path="url(#clip060)" d="M0 1600 L2400 1600 L2400 0 L0 0  Z" fill="#ffffff" fill-rule="evenodd" fill-opacity="1"/>
<defs>
  <clipPath id="clip061">
    <rect x="480" y="0" width="1681" height="1600"/>
  </clipPath>
</defs>
<path clip-path="url(#clip060)" d="M86.9921 1521.01 L2352.76 1521.01 L2352.76 47.2441 L86.9921 47.2441  Z" fill="#ffffff" fill-rule="evenodd" fill-opacity="1"/>
<defs>
  <clipPath id="clip062">
    <rect x="86" y="47" width="2267" height="1475"/>
  </clipPath>
</defs>
<polyline clip-path="url(#clip062)" style="stroke:#000000; stroke-linecap:round; stroke-linejoin:round; stroke-width:2; stroke-opacity:0.1; fill:none" points="151.118,1521.01 151.118,47.2441 "/>
<polyline clip-path="url(#clip062)" style="stroke:#000000; stroke-linecap:round; stroke-linejoin:round; stroke-width:2; stroke-opacity:0.1; fill:none" points="685.496,1521.01 685.496,47.2441 "/>
<polyline clip-path="url(#clip062)" style="stroke:#000000; stroke-linecap:round; stroke-linejoin:round; stroke-width:2; stroke-opacity:0.1; fill:none" points="1219.87,1521.01 1219.87,47.2441 "/>
<polyline clip-path="url(#clip062)" style="stroke:#000000; stroke-linecap:round; stroke-linejoin:round; stroke-width:2; stroke-opacity:0.1; fill:none" points="1754.25,1521.01 1754.25,47.2441 "/>
<polyline clip-path="url(#clip062)" style="stroke:#000000; stroke-linecap:round; stroke-linejoin:round; stroke-width:2; stroke-opacity:0.1; fill:none" points="2288.63,1521.01 2288.63,47.2441 "/>
<polyline clip-path="url(#clip060)" style="stroke:#000000; stroke-linecap:round; stroke-linejoin:round; stroke-width:4; stroke-opacity:1; fill:none" points="86.9921,1521.01 2352.76,1521.01 "/>
<polyline clip-path="url(#clip060)" style="stroke:#000000; stroke-linecap:round; stroke-linejoin:round; stroke-width:4; stroke-opacity:1; fill:none" points="151.118,1521.01 151.118,1502.11 "/>
<polyline clip-path="url(#clip060)" style="stroke:#000000; stroke-linecap:round; stroke-linejoin:round; stroke-width:4; stroke-opacity:1; fill:none" points="685.496,1521.01 685.496,1502.11 "/>
<polyline clip-path="url(#clip060)" style="stroke:#000000; stroke-linecap:round; stroke-linejoin:round; stroke-width:4; stroke-opacity:1; fill:none" points="1219.87,1521.01 1219.87,1502.11 "/>
<polyline clip-path="url(#clip060)" style="stroke:#000000; stroke-linecap:round; stroke-linejoin:round; stroke-width:4; stroke-opacity:1; fill:none" points="1754.25,1521.01 1754.25,1502.11 "/>
<polyline clip-path="url(#clip060)" style="stroke:#000000; stroke-linecap:round; stroke-linejoin:round; stroke-width:4; stroke-opacity:1; fill:none" points="2288.63,1521.01 2288.63,1502.11 "/>
<path clip-path="url(#clip060)" d="M113.421 1551.93 Q109.81 1551.93 107.981 1555.49 Q106.176 1559.03 106.176 1566.16 Q106.176 1573.27 107.981 1576.83 Q109.81 1580.38 113.421 1580.38 Q117.055 1580.38 118.861 1576.83 Q120.689 1573.27 120.689 1566.16 Q120.689 1559.03 118.861 1555.49 Q117.055 1551.93 113.421 1551.93 M113.421 1548.22 Q119.231 1548.22 122.287 1552.83 Q125.365 1557.41 125.365 1566.16 Q125.365 1574.89 122.287 1579.5 Q119.231 1584.08 113.421 1584.08 Q107.611 1584.08 104.532 1579.5 Q101.477 1574.89 101.477 1566.16 Q101.477 1557.41 104.532 1552.83 Q107.611 1548.22 113.421 1548.22 Z" fill="#000000" fill-rule="nonzero" fill-opacity="1" /><path clip-path="url(#clip060)" d="M133.583 1577.53 L138.467 1577.53 L138.467 1583.41 L133.583 1583.41 L133.583 1577.53 Z" fill="#000000" fill-rule="nonzero" fill-opacity="1" /><path clip-path="url(#clip060)" d="M158.652 1551.93 Q155.041 1551.93 153.212 1555.49 Q151.407 1559.03 151.407 1566.16 Q151.407 1573.27 153.212 1576.83 Q155.041 1580.38 158.652 1580.38 Q162.286 1580.38 164.092 1576.83 Q165.921 1573.27 165.921 1566.16 Q165.921 1559.03 164.092 1555.49 Q162.286 1551.93 158.652 1551.93 M158.652 1548.22 Q164.462 1548.22 167.518 1552.83 Q170.597 1557.41 170.597 1566.16 Q170.597 1574.89 167.518 1579.5 Q164.462 1584.08 158.652 1584.08 Q152.842 1584.08 149.763 1579.5 Q146.708 1574.89 146.708 1566.16 Q146.708 1557.41 149.763 1552.83 Q152.842 1548.22 158.652 1548.22 Z" fill="#000000" fill-rule="nonzero" fill-opacity="1" /><path clip-path="url(#clip060)" d="M188.814 1551.93 Q185.203 1551.93 183.374 1555.49 Q181.569 1559.03 181.569 1566.16 Q181.569 1573.27 183.374 1576.83 Q185.203 1580.38 188.814 1580.38 Q192.448 1580.38 194.254 1576.83 Q196.083 1573.27 196.083 1566.16 Q196.083 1559.03 194.254 1555.49 Q192.448 1551.93 188.814 1551.93 M188.814 1548.22 Q194.624 1548.22 197.68 1552.83 Q200.758 1557.41 200.758 1566.16 Q200.758 1574.89 197.68 1579.5 Q194.624 1584.08 188.814 1584.08 Q183.004 1584.08 179.925 1579.5 Q176.87 1574.89 176.87 1566.16 Q176.87 1557.41 179.925 1552.83 Q183.004 1548.22 188.814 1548.22 Z" fill="#000000" fill-rule="nonzero" fill-opacity="1" /><path clip-path="url(#clip060)" d="M648.297 1551.93 Q644.686 1551.93 642.857 1555.49 Q641.052 1559.03 641.052 1566.16 Q641.052 1573.27 642.857 1576.83 Q644.686 1580.38 648.297 1580.38 Q651.931 1580.38 653.737 1576.83 Q655.565 1573.27 655.565 1566.16 Q655.565 1559.03 653.737 1555.49 Q651.931 1551.93 648.297 1551.93 M648.297 1548.22 Q654.107 1548.22 657.163 1552.83 Q660.241 1557.41 660.241 1566.16 Q660.241 1574.89 657.163 1579.5 Q654.107 1584.08 648.297 1584.08 Q642.487 1584.08 639.408 1579.5 Q636.353 1574.89 636.353 1566.16 Q636.353 1557.41 639.408 1552.83 Q642.487 1548.22 648.297 1548.22 Z" fill="#000000" fill-rule="nonzero" fill-opacity="1" /><path clip-path="url(#clip060)" d="M668.459 1577.53 L673.343 1577.53 L673.343 1583.41 L668.459 1583.41 L668.459 1577.53 Z" fill="#000000" fill-rule="nonzero" fill-opacity="1" /><path clip-path="url(#clip060)" d="M687.556 1579.47 L703.875 1579.47 L703.875 1583.41 L681.931 1583.41 L681.931 1579.47 Q684.593 1576.72 689.176 1572.09 Q693.783 1567.44 694.963 1566.09 Q697.209 1563.57 698.088 1561.83 Q698.991 1560.07 698.991 1558.38 Q698.991 1555.63 697.047 1553.89 Q695.125 1552.16 692.024 1552.16 Q689.824 1552.16 687.371 1552.92 Q684.94 1553.69 682.162 1555.24 L682.162 1550.51 Q684.987 1549.38 687.44 1548.8 Q689.894 1548.22 691.931 1548.22 Q697.301 1548.22 700.496 1550.91 Q703.69 1553.59 703.69 1558.08 Q703.69 1560.21 702.88 1562.13 Q702.093 1564.03 699.986 1566.63 Q699.408 1567.3 696.306 1570.51 Q693.204 1573.71 687.556 1579.47 Z" fill="#000000" fill-rule="nonzero" fill-opacity="1" /><path clip-path="url(#clip060)" d="M713.736 1548.85 L732.093 1548.85 L732.093 1552.78 L718.019 1552.78 L718.019 1561.26 Q719.037 1560.91 720.056 1560.75 Q721.074 1560.56 722.093 1560.56 Q727.88 1560.56 731.259 1563.73 Q734.639 1566.9 734.639 1572.32 Q734.639 1577.9 731.167 1581 Q727.695 1584.08 721.375 1584.08 Q719.199 1584.08 716.931 1583.71 Q714.685 1583.34 712.278 1582.6 L712.278 1577.9 Q714.361 1579.03 716.584 1579.59 Q718.806 1580.14 721.283 1580.14 Q725.287 1580.14 727.625 1578.04 Q729.963 1575.93 729.963 1572.32 Q729.963 1568.71 727.625 1566.6 Q725.287 1564.5 721.283 1564.5 Q719.408 1564.5 717.533 1564.91 Q715.681 1565.33 713.736 1566.21 L713.736 1548.85 Z" fill="#000000" fill-rule="nonzero" fill-opacity="1" /><path clip-path="url(#clip060)" d="M1182.18 1551.93 Q1178.57 1551.93 1176.74 1555.49 Q1174.93 1559.03 1174.93 1566.16 Q1174.93 1573.27 1176.74 1576.83 Q1178.57 1580.38 1182.18 1580.38 Q1185.81 1580.38 1187.62 1576.83 Q1189.45 1573.27 1189.45 1566.16 Q1189.45 1559.03 1187.62 1555.49 Q1185.81 1551.93 1182.18 1551.93 M1182.18 1548.22 Q1187.99 1548.22 1191.04 1552.83 Q1194.12 1557.41 1194.12 1566.16 Q1194.12 1574.89 1191.04 1579.5 Q1187.99 1584.08 1182.18 1584.08 Q1176.37 1584.08 1173.29 1579.5 Q1170.23 1574.89 1170.23 1566.16 Q1170.23 1557.41 1173.29 1552.83 Q1176.37 1548.22 1182.18 1548.22 Z" fill="#000000" fill-rule="nonzero" fill-opacity="1" /><path clip-path="url(#clip060)" d="M1202.34 1577.53 L1207.22 1577.53 L1207.22 1583.41 L1202.34 1583.41 L1202.34 1577.53 Z" fill="#000000" fill-rule="nonzero" fill-opacity="1" /><path clip-path="url(#clip060)" d="M1217.46 1548.85 L1235.81 1548.85 L1235.81 1552.78 L1221.74 1552.78 L1221.74 1561.26 Q1222.76 1560.91 1223.77 1560.75 Q1224.79 1560.56 1225.81 1560.56 Q1231.6 1560.56 1234.98 1563.73 Q1238.36 1566.9 1238.36 1572.32 Q1238.36 1577.9 1234.89 1581 Q1231.41 1584.08 1225.09 1584.08 Q1222.92 1584.08 1220.65 1583.71 Q1218.4 1583.34 1216 1582.6 L1216 1577.9 Q1218.08 1579.03 1220.3 1579.59 Q1222.52 1580.14 1225 1580.14 Q1229.01 1580.14 1231.34 1578.04 Q1233.68 1575.93 1233.68 1572.32 Q1233.68 1568.71 1231.34 1566.6 Q1229.01 1564.5 1225 1564.5 Q1223.13 1564.5 1221.25 1564.91 Q1219.4 1565.33 1217.46 1566.21 L1217.46 1548.85 Z" fill="#000000" fill-rule="nonzero" fill-opacity="1" /><path clip-path="url(#clip060)" d="M1257.57 1551.93 Q1253.96 1551.93 1252.13 1555.49 Q1250.33 1559.03 1250.33 1566.16 Q1250.33 1573.27 1252.13 1576.83 Q1253.96 1580.38 1257.57 1580.38 Q1261.2 1580.38 1263.01 1576.83 Q1264.84 1573.27 1264.84 1566.16 Q1264.84 1559.03 1263.01 1555.49 Q1261.2 1551.93 1257.57 1551.93 M1257.57 1548.22 Q1263.38 1548.22 1266.44 1552.83 Q1269.51 1557.41 1269.51 1566.16 Q1269.51 1574.89 1266.44 1579.5 Q1263.38 1584.08 1257.57 1584.08 Q1251.76 1584.08 1248.68 1579.5 Q1245.63 1574.89 1245.63 1566.16 Q1245.63 1557.41 1248.68 1552.83 Q1251.76 1548.22 1257.57 1548.22 Z" fill="#000000" fill-rule="nonzero" fill-opacity="1" /><path clip-path="url(#clip060)" d="M1717.05 1551.93 Q1713.44 1551.93 1711.61 1555.49 Q1709.81 1559.03 1709.81 1566.16 Q1709.81 1573.27 1711.61 1576.83 Q1713.44 1580.38 1717.05 1580.38 Q1720.69 1580.38 1722.49 1576.83 Q1724.32 1573.27 1724.32 1566.16 Q1724.32 1559.03 1722.49 1555.49 Q1720.69 1551.93 1717.05 1551.93 M1717.05 1548.22 Q1722.86 1548.22 1725.92 1552.83 Q1729 1557.41 1729 1566.16 Q1729 1574.89 1725.92 1579.5 Q1722.86 1584.08 1717.05 1584.08 Q1711.24 1584.08 1708.16 1579.5 Q1705.11 1574.89 1705.11 1566.16 Q1705.11 1557.41 1708.16 1552.83 Q1711.24 1548.22 1717.05 1548.22 Z" fill="#000000" fill-rule="nonzero" fill-opacity="1" /><path clip-path="url(#clip060)" d="M1737.22 1577.53 L1742.1 1577.53 L1742.1 1583.41 L1737.22 1583.41 L1737.22 1577.53 Z" fill="#000000" fill-rule="nonzero" fill-opacity="1" /><path clip-path="url(#clip060)" d="M1751.1 1548.85 L1773.33 1548.85 L1773.33 1550.84 L1760.78 1583.41 L1755.9 1583.41 L1767.7 1552.78 L1751.1 1552.78 L1751.1 1548.85 Z" fill="#000000" fill-rule="nonzero" fill-opacity="1" /><path clip-path="url(#clip060)" d="M1782.49 1548.85 L1800.85 1548.85 L1800.85 1552.78 L1786.78 1552.78 L1786.78 1561.26 Q1787.79 1560.91 1788.81 1560.75 Q1789.83 1560.56 1790.85 1560.56 Q1796.64 1560.56 1800.02 1563.73 Q1803.4 1566.9 1803.4 1572.32 Q1803.4 1577.9 1799.92 1581 Q1796.45 1584.08 1790.13 1584.08 Q1787.96 1584.08 1785.69 1583.71 Q1783.44 1583.34 1781.03 1582.6 L1781.03 1577.9 Q1783.12 1579.03 1785.34 1579.59 Q1787.56 1580.14 1790.04 1580.14 Q1794.04 1580.14 1796.38 1578.04 Q1798.72 1575.93 1798.72 1572.32 Q1798.72 1568.71 1796.38 1566.6 Q1794.04 1564.5 1790.04 1564.5 Q1788.16 1564.5 1786.29 1564.91 Q1784.44 1565.33 1782.49 1566.21 L1782.49 1548.85 Z" fill="#000000" fill-rule="nonzero" fill-opacity="1" /><path clip-path="url(#clip060)" d="M2240.7 1579.47 L2248.34 1579.47 L2248.34 1553.11 L2240.03 1554.77 L2240.03 1550.51 L2248.3 1548.85 L2252.97 1548.85 L2252.97 1579.47 L2260.61 1579.47 L2260.61 1583.41 L2240.7 1583.41 L2240.7 1579.47 Z" fill="#000000" fill-rule="nonzero" fill-opacity="1" /><path clip-path="url(#clip060)" d="M2270.05 1577.53 L2274.94 1577.53 L2274.94 1583.41 L2270.05 1583.41 L2270.05 1577.53 Z" fill="#000000" fill-rule="nonzero" fill-opacity="1" /><path clip-path="url(#clip060)" d="M2295.12 1551.93 Q2291.51 1551.93 2289.68 1555.49 Q2287.88 1559.03 2287.88 1566.16 Q2287.88 1573.27 2289.68 1576.83 Q2291.51 1580.38 2295.12 1580.38 Q2298.76 1580.38 2300.56 1576.83 Q2302.39 1573.27 2302.39 1566.16 Q2302.39 1559.03 2300.56 1555.49 Q2298.76 1551.93 2295.12 1551.93 M2295.12 1548.22 Q2300.93 1548.22 2303.99 1552.83 Q2307.07 1557.41 2307.07 1566.16 Q2307.07 1574.89 2303.99 1579.5 Q2300.93 1584.08 2295.12 1584.08 Q2289.31 1584.08 2286.23 1579.5 Q2283.18 1574.89 2283.18 1566.16 Q2283.18 1557.41 2286.23 1552.83 Q2289.31 1548.22 2295.12 1548.22 Z" fill="#000000" fill-rule="nonzero" fill-opacity="1" /><path clip-path="url(#clip060)" d="M2325.29 1551.93 Q2321.67 1551.93 2319.85 1555.49 Q2318.04 1559.03 2318.04 1566.16 Q2318.04 1573.27 2319.85 1576.83 Q2321.67 1580.38 2325.29 1580.38 Q2328.92 1580.38 2330.73 1576.83 Q2332.55 1573.27 2332.55 1566.16 Q2332.55 1559.03 2330.73 1555.49 Q2328.92 1551.93 2325.29 1551.93 M2325.29 1548.22 Q2331.1 1548.22 2334.15 1552.83 Q2337.23 1557.41 2337.23 1566.16 Q2337.23 1574.89 2334.15 1579.5 Q2331.1 1584.08 2325.29 1584.08 Q2319.48 1584.08 2316.4 1579.5 Q2313.34 1574.89 2313.34 1566.16 Q2313.34 1557.41 2316.4 1552.83 Q2319.48 1548.22 2325.29 1548.22 Z" fill="#000000" fill-rule="nonzero" fill-opacity="1" /><polyline clip-path="url(#clip062)" style="stroke:#000000; stroke-linecap:round; stroke-linejoin:round; stroke-width:2; stroke-opacity:0.1; fill:none" points="86.9921,1479.3 2352.76,1479.3 "/>
<polyline clip-path="url(#clip062)" style="stroke:#000000; stroke-linecap:round; stroke-linejoin:round; stroke-width:2; stroke-opacity:0.1; fill:none" points="86.9921,1202.83 2352.76,1202.83 "/>
<polyline clip-path="url(#clip062)" style="stroke:#000000; stroke-linecap:round; stroke-linejoin:round; stroke-width:2; stroke-opacity:0.1; fill:none" points="86.9921,926.354 2352.76,926.354 "/>
<polyline clip-path="url(#clip062)" style="stroke:#000000; stroke-linecap:round; stroke-linejoin:round; stroke-width:2; stroke-opacity:0.1; fill:none" points="86.9921,649.882 2352.76,649.882 "/>
<polyline clip-path="url(#clip062)" style="stroke:#000000; stroke-linecap:round; stroke-linejoin:round; stroke-width:2; stroke-opacity:0.1; fill:none" points="86.9921,373.41 2352.76,373.41 "/>
<polyline clip-path="url(#clip062)" style="stroke:#000000; stroke-linecap:round; stroke-linejoin:round; stroke-width:2; stroke-opacity:0.1; fill:none" points="86.9921,96.9378 2352.76,96.9378 "/>
<polyline clip-path="url(#clip060)" style="stroke:#000000; stroke-linecap:round; stroke-linejoin:round; stroke-width:4; stroke-opacity:1; fill:none" points="86.9921,1521.01 86.9921,47.2441 "/>
<polyline clip-path="url(#clip060)" style="stroke:#000000; stroke-linecap:round; stroke-linejoin:round; stroke-width:4; stroke-opacity:1; fill:none" points="86.9921,1479.3 105.89,1479.3 "/>
<polyline clip-path="url(#clip060)" style="stroke:#000000; stroke-linecap:round; stroke-linejoin:round; stroke-width:4; stroke-opacity:1; fill:none" points="86.9921,1202.83 105.89,1202.83 "/>
<polyline clip-path="url(#clip060)" style="stroke:#000000; stroke-linecap:round; stroke-linejoin:round; stroke-width:4; stroke-opacity:1; fill:none" points="86.9921,926.354 105.89,926.354 "/>
<polyline clip-path="url(#clip060)" style="stroke:#000000; stroke-linecap:round; stroke-linejoin:round; stroke-width:4; stroke-opacity:1; fill:none" points="86.9921,649.882 105.89,649.882 "/>
<polyline clip-path="url(#clip060)" style="stroke:#000000; stroke-linecap:round; stroke-linejoin:round; stroke-width:4; stroke-opacity:1; fill:none" points="86.9921,373.41 105.89,373.41 "/>
<polyline clip-path="url(#clip060)" style="stroke:#000000; stroke-linecap:round; stroke-linejoin:round; stroke-width:4; stroke-opacity:1; fill:none" points="86.9921,96.9378 105.89,96.9378 "/>
<path clip-path="url(#clip060)" d="M10.8708 1479.3 Q10.8708 1482.91 14.4356 1484.74 Q17.9773 1486.54 25.1068 1486.54 Q32.2133 1486.54 35.7781 1484.74 Q39.3197 1482.91 39.3197 1479.3 Q39.3197 1475.66 35.7781 1473.86 Q32.2133 1472.03 25.1068 1472.03 Q17.9773 1472.03 14.4356 1473.86 Q10.8708 1475.66 10.8708 1479.3 M7.16713 1479.3 Q7.16713 1473.49 11.7736 1470.43 Q16.3569 1467.35 25.1068 1467.35 Q33.8337 1467.35 38.4401 1470.43 Q43.0234 1473.49 43.0234 1479.3 Q43.0234 1485.11 38.4401 1488.19 Q33.8337 1491.24 25.1068 1491.24 Q16.3569 1491.24 11.7736 1488.19 Q7.16713 1485.11 7.16713 1479.3 Z" fill="#000000" fill-rule="nonzero" fill-opacity="1" /><path clip-path="url(#clip060)" d="M7.79213 1212.55 L7.79213 1194.19 L11.7273 1194.19 L11.7273 1208.27 L20.1995 1208.27 Q19.8522 1207.25 19.6902 1206.23 Q19.505 1205.21 19.505 1204.19 Q19.505 1198.4 22.6763 1195.02 Q25.8476 1191.65 31.2642 1191.65 Q36.8429 1191.65 39.9447 1195.12 Q43.0234 1198.59 43.0234 1204.91 Q43.0234 1207.08 42.6531 1209.35 Q42.2827 1211.6 41.5419 1214.01 L36.8429 1214.01 Q37.9771 1211.92 38.5327 1209.7 Q39.0883 1207.48 39.0883 1205 Q39.0883 1201 36.9818 1198.66 Q34.8753 1196.32 31.2642 1196.32 Q27.6531 1196.32 25.5467 1198.66 Q23.4402 1201 23.4402 1205 Q23.4402 1206.88 23.8569 1208.75 Q24.2735 1210.6 25.1531 1212.55 L7.79213 1212.55 Z" fill="#000000" fill-rule="nonzero" fill-opacity="1" /><path clip-path="url(#clip060)" d="M38.417 951.666 L38.417 944.027 L12.0514 944.027 L13.718 952.337 L9.45878 952.337 L7.79213 944.073 L7.79213 939.398 L38.417 939.398 L38.417 931.759 L42.3521 931.759 L42.3521 951.666 L38.417 951.666 Z" fill="#000000" fill-rule="nonzero" fill-opacity="1" /><path clip-path="url(#clip060)" d="M10.8708 912.314 Q10.8708 915.925 14.4356 917.754 Q17.9773 919.56 25.1068 919.56 Q32.2133 919.56 35.7781 917.754 Q39.3197 915.925 39.3197 912.314 Q39.3197 908.68 35.7781 906.875 Q32.2133 905.046 25.1068 905.046 Q17.9773 905.046 14.4356 906.875 Q10.8708 908.68 10.8708 912.314 M7.16713 912.314 Q7.16713 906.504 11.7736 903.449 Q16.3569 900.37 25.1068 900.37 Q33.8337 900.37 38.4401 903.449 Q43.0234 906.504 43.0234 912.314 Q43.0234 918.125 38.4401 921.203 Q33.8337 924.259 25.1068 924.259 Q16.3569 924.259 11.7736 921.203 Q7.16713 918.125 7.16713 912.314 Z" fill="#000000" fill-rule="nonzero" fill-opacity="1" /><path clip-path="url(#clip060)" d="M38.417 674.696 L38.417 667.058 L12.0514 667.058 L13.718 675.368 L9.45878 675.368 L7.79213 667.104 L7.79213 662.428 L38.417 662.428 L38.417 654.789 L42.3521 654.789 L42.3521 674.696 L38.417 674.696 Z" fill="#000000" fill-rule="nonzero" fill-opacity="1" /><path clip-path="url(#clip060)" d="M7.79213 645.298 L7.79213 626.942 L11.7273 626.942 L11.7273 641.016 L20.1995 641.016 Q19.8522 639.998 19.6902 638.979 Q19.505 637.96 19.505 636.942 Q19.505 631.155 22.6763 627.775 Q25.8476 624.396 31.2642 624.396 Q36.8429 624.396 39.9447 627.868 Q43.0234 631.34 43.0234 637.66 Q43.0234 639.835 42.6531 642.104 Q42.2827 644.349 41.5419 646.757 L36.8429 646.757 Q37.9771 644.673 38.5327 642.451 Q39.0883 640.229 39.0883 637.752 Q39.0883 633.748 36.9818 631.41 Q34.8753 629.072 31.2642 629.072 Q27.6531 629.072 25.5467 631.41 Q23.4402 633.748 23.4402 637.752 Q23.4402 639.627 23.8569 641.502 Q24.2735 643.354 25.1531 645.298 L7.79213 645.298 Z" fill="#000000" fill-rule="nonzero" fill-opacity="1" /><path clip-path="url(#clip060)" d="M38.417 394.637 L38.417 378.317 L42.3521 378.317 L42.3521 400.261 L38.417 400.261 Q35.6623 397.599 31.0327 393.016 Q26.38 388.41 25.0374 387.229 Q22.5143 384.984 20.7782 384.104 Q19.0189 383.201 17.3291 383.201 Q14.5745 383.201 12.8384 385.146 Q11.1023 387.067 11.1023 390.169 Q11.1023 392.368 11.8662 394.822 Q12.6301 397.252 14.181 400.03 L9.45878 400.03 Q8.32453 397.206 7.74583 394.752 Q7.16713 392.299 7.16713 390.262 Q7.16713 384.891 9.8523 381.697 Q12.5375 378.502 17.0282 378.502 Q19.1578 378.502 21.0791 379.313 Q22.9772 380.1 25.5698 382.206 Q26.2411 382.785 29.4587 385.887 Q32.6531 388.988 38.417 394.637 Z" fill="#000000" fill-rule="nonzero" fill-opacity="1" /><path clip-path="url(#clip060)" d="M10.8708 358.502 Q10.8708 362.114 14.4356 363.942 Q17.9773 365.748 25.1068 365.748 Q32.2133 365.748 35.7781 363.942 Q39.3197 362.114 39.3197 358.502 Q39.3197 354.868 35.7781 353.063 Q32.2133 351.234 25.1068 351.234 Q17.9773 351.234 14.4356 353.063 Q10.8708 354.868 10.8708 358.502 M7.16713 358.502 Q7.16713 352.692 11.7736 349.637 Q16.3569 346.558 25.1068 346.558 Q33.8337 346.558 38.4401 349.637 Q43.0234 352.692 43.0234 358.502 Q43.0234 364.313 38.4401 367.391 Q33.8337 370.447 25.1068 370.447 Q16.3569 370.447 11.7736 367.391 Q7.16713 364.313 7.16713 358.502 Z" fill="#000000" fill-rule="nonzero" fill-opacity="1" /><path clip-path="url(#clip060)" d="M38.417 117.667 L38.417 101.348 L42.3521 101.348 L42.3521 123.292 L38.417 123.292 Q35.6623 120.63 31.0327 116.047 Q26.38 111.44 25.0374 110.26 Q22.5143 108.014 20.7782 107.135 Q19.0189 106.232 17.3291 106.232 Q14.5745 106.232 12.8384 108.176 Q11.1023 110.097 11.1023 113.199 Q11.1023 115.398 11.8662 117.852 Q12.6301 120.283 14.181 123.06 L9.45878 123.06 Q8.32453 120.236 7.74583 117.783 Q7.16713 115.329 7.16713 113.292 Q7.16713 107.922 9.8523 104.727 Q12.5375 101.533 17.0282 101.533 Q19.1578 101.533 21.0791 102.343 Q22.9772 103.13 25.5698 105.236 Q26.2411 105.815 29.4587 108.917 Q32.6531 112.019 38.417 117.667 Z" fill="#000000" fill-rule="nonzero" fill-opacity="1" /><path clip-path="url(#clip060)" d="M7.79213 91.4865 L7.79213 73.1301 L11.7273 73.1301 L11.7273 87.2041 L20.1995 87.2041 Q19.8522 86.1856 19.6902 85.167 Q19.505 84.1485 19.505 83.13 Q19.505 77.343 22.6763 73.9634 Q25.8476 70.5838 31.2642 70.5838 Q36.8429 70.5838 39.9447 74.056 Q43.0234 77.5282 43.0234 83.8476 Q43.0234 86.0235 42.6531 88.292 Q42.2827 90.5374 41.5419 92.9448 L36.8429 92.9448 Q37.9771 90.8615 38.5327 88.6393 Q39.0883 86.417 39.0883 83.9402 Q39.0883 79.9356 36.9818 77.5976 Q34.8753 75.2597 31.2642 75.2597 Q27.6531 75.2597 25.5467 77.5976 Q23.4402 79.9356 23.4402 83.9402 Q23.4402 85.8152 23.8569 87.6902 Q24.2735 89.542 25.1531 91.4865 L7.79213 91.4865 Z" fill="#000000" fill-rule="nonzero" fill-opacity="1" /><polyline clip-path="url(#clip062)" style="stroke:#009af9; stroke-linecap:round; stroke-linejoin:round; stroke-width:4; stroke-opacity:1; fill:none" points="151.226,1405.02 151.335,1406.55 151.444,1407.43 151.552,1408.05 151.661,1408.52 151.77,1408.91 151.879,1409.23 151.987,1409.51 152.205,1409.98 152.422,1410.36 152.64,1410.68 152.857,1410.95 153.292,1411.41 153.727,1411.78 154.162,1412.09 154.597,1412.36 155.466,1412.81 156.336,1413.17 157.206,1413.48 158.076,1413.74 159.815,1414.18 161.555,1414.54 163.294,1414.84 165.034,1415.1 169.055,1415.59 173.076,1415.98 177.097,1416.3 181.119,1416.57 189.161,1417.03 197.203,1417.39 213.288,1417.96 229.372,1418.39 245.457,1418.75 261.542,1419.05 277.626,1419.31 293.711,1419.54 332.376,1420 371.04,1420.38 403.731,1420.65 436.422,1420.9 507.444,1421.35 572.92,1421.71 643.117,1422.05 724.448,1422.4 796.725,1422.68 860.105,1422.91 929.207,1423.15 998.719,1423.39 1075.57,1423.63 1148.7,1423.86 1224.73,1424.1 1288.74,1424.3 1366.88,1424.54 1438.46,1424.77 1504.57,1424.98 1571.54,1425.21 1646.6,1425.47 1714.61,1425.72 1792.48,1426.03 1864.58,1426.35 1935.66,1426.71 2004.67,1427.11 2040.04,1427.34 2075.42,1427.61 2114.17,1427.95 2152.93,1428.37 2181.08,1428.74 2209.23,1429.22 2223.31,1429.52 2237.38,1429.9 2244.42,1430.12 2251.46,1430.38 2258.49,1430.69 2265.53,1431.08 2268.42,1431.28 2271.31,1431.5 2274.19,1431.76 2277.08,1432.08 2278.52,1432.27 2279.97,1432.49 2281.41,1432.75 2282.86,1433.06 2283.58,1433.24 2284.3,1433.46 2285.02,1433.71 2285.74,1434.01 2286.1,1434.19 2286.46,1434.4 2286.83,1434.65 2287.19,1434.94 2287.37,1435.12 2287.55,1435.32 2287.73,1435.56 2287.91,1435.86 2288.09,1436.23 2288.27,1436.75 2288.45,1437.63 2288.63,1479.3 "/>
<polyline clip-path="url(#clip062)" style="stroke:#e26f46; stroke-linecap:round; stroke-linejoin:round; stroke-width:4; stroke-opacity:1; fill:none" points="151.118,1479.3 165.034,1479.3 293.711,1479.3 371.04,1479.3 436.422,1479.3 507.444,1479.3 572.92,1479.3 643.117,1479.3 724.448,1479.3 796.725,1479.3 860.105,1479.3 894.656,1479.3 929.207,1479.3 946.585,1479.28 963.963,1479.08 972.652,1478.67 981.341,1477.6 985.686,1476.58 990.03,1475.02 994.375,1472.67 998.719,1469.21 1003.52,1463.58 1008.33,1455.33 1010.73,1449.93 1013.13,1443.52 1015.53,1435.93 1017.93,1427.01 1020.33,1416.59 1022.74,1404.49 1025.14,1390.52 1027.54,1374.51 1029.94,1356.24 1032.34,1335.55 1034.75,1312.26 1037.15,1286.21 1039.55,1257.25 1041.95,1225.27 1044.35,1190.19 1046.75,1151.97 1049.16,1110.61 1051.56,1066.16 1053.96,1018.73 1056.36,968.494 1058.76,915.681 1061.16,860.59 1063.57,803.584 1065.97,745.09 1070.77,625.647 1075.57,506.784 1077.86,451.916 1080.14,398.924 1082.43,348.397 1084.71,300.915 1085.86,278.494 1087,257.045 1088.14,236.632 1089.29,217.32 1090.43,199.169 1091.57,182.237 1092.71,166.578 1093.86,152.243 1095,139.278 1096.14,127.724 1097.28,117.621 1098.43,109 1099.57,101.891 1100.71,96.3166 1101.85,92.2945 1103,89.8379 1104.14,88.9544 1105.28,89.6462 1106.42,91.9102 1107.57,95.7381 1108.71,101.116 1109.85,108.026 1110.99,116.442 1112.14,126.338 1113.28,137.678 1114.42,150.425 1115.56,164.535 1116.71,179.963 1117.85,196.658 1118.99,214.565 1120.14,233.627 1121.28,253.783 1122.42,274.97 1123.56,297.123 1124.71,320.174 1125.85,344.053 1128.13,394.014 1130.42,446.43 1132.7,500.722 1134.99,556.313 1137.27,612.645 1139.56,669.181 1141.84,725.416 1144.13,780.884 1146.41,835.163 1148.7,887.877 1151.08,940.679 1153.45,991.135 1155.83,1039 1158.2,1084.08 1160.58,1126.26 1162.96,1165.46 1165.33,1201.64 1167.71,1234.84 1170.08,1265.11 1172.46,1292.53 1174.84,1317.23 1177.21,1339.33 1179.59,1359.01 1181.96,1376.41 1184.34,1391.72 1186.72,1405.11 1189.09,1416.76 1191.47,1426.83 1193.84,1435.49 1196.22,1442.9 1200.97,1454.53 1205.72,1462.77 1210.48,1468.48 1215.23,1472.35 1219.98,1474.92 1224.73,1476.59 1232.73,1478.15 1240.73,1478.83 1248.73,1479.12 1256.74,1479.23 1272.74,1479.29 1288.74,1479.3 1366.88,1479.3 1438.46,1479.3 1504.57,1479.3 1571.54,1479.3 1646.6,1479.3 1714.61,1479.3 1792.48,1479.3 1864.58,1479.3 1935.66,1479.3 2004.67,1479.3 2075.42,1479.3 2152.93,1479.3 2265.53,1479.3 2288.63,1479.3 "/>
<path clip-path="url(#clip060)" d="M1174.15 251.89 L2277.23 251.89 L2277.23 96.3696 L1174.15 96.3696  Z" fill="#ffffff" fill-rule="evenodd" fill-opacity="1"/>
<polyline clip-path="url(#clip060)" style="stroke:#000000; stroke-linecap:round; stroke-linejoin:round; stroke-width:4; stroke-opacity:1; fill:none" points="1174.15,251.89 2277.23,251.89 2277.23,96.3696 1174.15,96.3696 1174.15,251.89 "/>
<polyline clip-path="url(#clip060)" style="stroke:#009af9; stroke-linecap:round; stroke-linejoin:round; stroke-width:4; stroke-opacity:1; fill:none" points="1199.33,148.21 1350.38,148.21 "/>
<path clip-path="url(#clip060)" d="M1380.23 148.985 L1380.23 161.647 L1387.73 161.647 Q1391.5 161.647 1393.31 160.096 Q1395.14 158.522 1395.14 155.304 Q1395.14 152.064 1393.31 150.536 Q1391.5 148.985 1387.73 148.985 L1380.23 148.985 M1380.23 134.772 L1380.23 145.189 L1387.15 145.189 Q1390.58 145.189 1392.25 143.916 Q1393.93 142.619 1393.93 139.98 Q1393.93 137.365 1392.25 136.068 Q1390.58 134.772 1387.15 134.772 L1380.23 134.772 M1375.56 130.93 L1387.5 130.93 Q1392.85 130.93 1395.74 133.152 Q1398.63 135.374 1398.63 139.471 Q1398.63 142.642 1397.15 144.517 Q1395.67 146.392 1392.8 146.855 Q1396.25 147.596 1398.15 149.957 Q1400.07 152.295 1400.07 155.814 Q1400.07 160.443 1396.92 162.966 Q1393.77 165.49 1387.96 165.49 L1375.56 165.49 L1375.56 130.93 Z" fill="#000000" fill-rule="nonzero" fill-opacity="1" /><path clip-path="url(#clip060)" d="M1430.07 151.462 L1430.07 153.545 L1410.49 153.545 Q1410.76 157.943 1413.12 160.258 Q1415.51 162.55 1419.74 162.55 Q1422.2 162.55 1424.49 161.948 Q1426.81 161.346 1429.07 160.142 L1429.07 164.17 Q1426.78 165.142 1424.37 165.652 Q1421.97 166.161 1419.49 166.161 Q1413.29 166.161 1409.65 162.55 Q1406.04 158.939 1406.04 152.781 Q1406.04 146.416 1409.47 142.689 Q1412.92 138.939 1418.75 138.939 Q1423.98 138.939 1427.01 142.318 Q1430.07 145.675 1430.07 151.462 M1425.81 150.212 Q1425.76 146.717 1423.84 144.633 Q1421.94 142.55 1418.8 142.55 Q1415.23 142.55 1413.08 144.564 Q1410.95 146.578 1410.62 150.235 L1425.81 150.212 Z" fill="#000000" fill-rule="nonzero" fill-opacity="1" /><path clip-path="url(#clip060)" d="M1441.27 132.203 L1441.27 139.564 L1450.05 139.564 L1450.05 142.874 L1441.27 142.874 L1441.27 156.948 Q1441.27 160.119 1442.13 161.022 Q1443.01 161.925 1445.67 161.925 L1450.05 161.925 L1450.05 165.49 L1445.67 165.49 Q1440.74 165.49 1438.87 163.661 Q1436.99 161.809 1436.99 156.948 L1436.99 142.874 L1433.87 142.874 L1433.87 139.564 L1436.99 139.564 L1436.99 132.203 L1441.27 132.203 Z" fill="#000000" fill-rule="nonzero" fill-opacity="1" /><path clip-path="url(#clip060)" d="M1467.43 152.457 Q1462.27 152.457 1460.28 153.638 Q1458.29 154.818 1458.29 157.666 Q1458.29 159.934 1459.77 161.277 Q1461.27 162.596 1463.84 162.596 Q1467.38 162.596 1469.51 160.096 Q1471.67 157.573 1471.67 153.406 L1471.67 152.457 L1467.43 152.457 M1475.93 150.698 L1475.93 165.49 L1471.67 165.49 L1471.67 161.554 Q1470.21 163.915 1468.03 165.05 Q1465.86 166.161 1462.71 166.161 Q1458.73 166.161 1456.37 163.939 Q1454.03 161.693 1454.03 157.943 Q1454.03 153.568 1456.94 151.346 Q1459.88 149.124 1465.69 149.124 L1471.67 149.124 L1471.67 148.707 Q1471.67 145.767 1469.72 144.17 Q1467.8 142.55 1464.3 142.55 Q1462.08 142.55 1459.98 143.082 Q1457.87 143.615 1455.93 144.679 L1455.93 140.744 Q1458.26 139.842 1460.46 139.402 Q1462.66 138.939 1464.74 138.939 Q1470.37 138.939 1473.15 141.855 Q1475.93 144.772 1475.93 150.698 Z" fill="#000000" fill-rule="nonzero" fill-opacity="1" /><path clip-path="url(#clip060)" d="M1494.93 129.518 Q1491.83 134.842 1490.32 140.05 Q1488.82 145.258 1488.82 150.605 Q1488.82 155.953 1490.32 161.207 Q1491.85 166.439 1494.93 171.74 L1491.23 171.74 Q1487.75 166.3 1486.02 161.045 Q1484.3 155.791 1484.3 150.605 Q1484.3 145.443 1486.02 140.212 Q1487.73 134.98 1491.23 129.518 L1494.93 129.518 Z" fill="#000000" fill-rule="nonzero" fill-opacity="1" /><path clip-path="url(#clip060)" d="M1513.8 134.008 Q1510.18 134.008 1508.36 137.573 Q1506.55 141.115 1506.55 148.244 Q1506.55 155.351 1508.36 158.916 Q1510.18 162.457 1513.8 162.457 Q1517.43 162.457 1519.24 158.916 Q1521.06 155.351 1521.06 148.244 Q1521.06 141.115 1519.24 137.573 Q1517.43 134.008 1513.8 134.008 M1513.8 130.305 Q1519.61 130.305 1522.66 134.911 Q1525.74 139.494 1525.74 148.244 Q1525.74 156.971 1522.66 161.578 Q1519.61 166.161 1513.8 166.161 Q1507.99 166.161 1504.91 161.578 Q1501.85 156.971 1501.85 148.244 Q1501.85 139.494 1504.91 134.911 Q1507.99 130.305 1513.8 130.305 Z" fill="#000000" fill-rule="nonzero" fill-opacity="1" /><path clip-path="url(#clip060)" d="M1533.96 159.61 L1538.84 159.61 L1538.84 165.49 L1533.96 165.49 L1533.96 159.61 Z" fill="#000000" fill-rule="nonzero" fill-opacity="1" /><path clip-path="url(#clip060)" d="M1561.87 135.004 L1550.07 153.453 L1561.87 153.453 L1561.87 135.004 M1560.65 130.93 L1566.53 130.93 L1566.53 153.453 L1571.46 153.453 L1571.46 157.341 L1566.53 157.341 L1566.53 165.49 L1561.87 165.49 L1561.87 157.341 L1546.27 157.341 L1546.27 152.828 L1560.65 130.93 Z" fill="#000000" fill-rule="nonzero" fill-opacity="1" /><path clip-path="url(#clip060)" d="M1589.19 149.078 Q1585.86 149.078 1583.93 150.86 Q1582.04 152.642 1582.04 155.767 Q1582.04 158.892 1583.93 160.675 Q1585.86 162.457 1589.19 162.457 Q1592.52 162.457 1594.44 160.675 Q1596.36 158.869 1596.36 155.767 Q1596.36 152.642 1594.44 150.86 Q1592.54 149.078 1589.19 149.078 M1584.51 147.087 Q1581.5 146.346 1579.81 144.286 Q1578.15 142.226 1578.15 139.263 Q1578.15 135.119 1581.09 132.712 Q1584.05 130.305 1589.19 130.305 Q1594.35 130.305 1597.29 132.712 Q1600.23 135.119 1600.23 139.263 Q1600.23 142.226 1598.54 144.286 Q1596.87 146.346 1593.89 147.087 Q1597.27 147.874 1599.14 150.166 Q1601.04 152.457 1601.04 155.767 Q1601.04 160.791 1597.96 163.476 Q1594.91 166.161 1589.19 166.161 Q1583.47 166.161 1580.39 163.476 Q1577.34 160.791 1577.34 155.767 Q1577.34 152.457 1579.23 150.166 Q1581.13 147.874 1584.51 147.087 M1582.8 139.703 Q1582.8 142.388 1584.47 143.892 Q1586.16 145.397 1589.19 145.397 Q1592.2 145.397 1593.89 143.892 Q1595.6 142.388 1595.6 139.703 Q1595.6 137.017 1593.89 135.513 Q1592.2 134.008 1589.19 134.008 Q1586.16 134.008 1584.47 135.513 Q1582.8 137.017 1582.8 139.703 Z" fill="#000000" fill-rule="nonzero" fill-opacity="1" /><path clip-path="url(#clip060)" d="M1609.4 130.93 L1627.75 130.93 L1627.75 134.865 L1613.68 134.865 L1613.68 143.337 Q1614.7 142.99 1615.72 142.828 Q1616.73 142.642 1617.75 142.642 Q1623.54 142.642 1626.92 145.814 Q1630.3 148.985 1630.3 154.402 Q1630.3 159.98 1626.83 163.082 Q1623.35 166.161 1617.04 166.161 Q1614.86 166.161 1612.59 165.79 Q1610.35 165.42 1607.94 164.679 L1607.94 159.98 Q1610.02 161.115 1612.24 161.67 Q1614.47 162.226 1616.94 162.226 Q1620.95 162.226 1623.29 160.119 Q1625.62 158.013 1625.62 154.402 Q1625.62 150.791 1623.29 148.684 Q1620.95 146.578 1616.94 146.578 Q1615.07 146.578 1613.19 146.994 Q1611.34 147.411 1609.4 148.291 L1609.4 130.93 Z" fill="#000000" fill-rule="nonzero" fill-opacity="1" /><path clip-path="url(#clip060)" d="M1656.73 136.624 L1648.42 141.115 L1656.73 145.629 L1655.39 147.897 L1647.61 143.198 L1647.61 151.925 L1644.98 151.925 L1644.98 143.198 L1637.2 147.897 L1635.85 145.629 L1644.17 141.115 L1635.85 136.624 L1637.2 134.332 L1644.98 139.031 L1644.98 130.305 L1647.61 130.305 L1647.61 139.031 L1655.39 134.332 L1656.73 136.624 Z" fill="#000000" fill-rule="nonzero" fill-opacity="1" /><path clip-path="url(#clip060)" d="M1667.24 161.554 L1683.56 161.554 L1683.56 165.49 L1661.62 165.49 L1661.62 161.554 Q1664.28 158.8 1668.86 154.17 Q1673.47 149.517 1674.65 148.175 Q1676.9 145.652 1677.78 143.916 Q1678.68 142.156 1678.68 140.467 Q1678.68 137.712 1676.73 135.976 Q1674.81 134.24 1671.71 134.24 Q1669.51 134.24 1667.06 135.004 Q1664.63 135.767 1661.85 137.318 L1661.85 132.596 Q1664.67 131.462 1667.13 130.883 Q1669.58 130.305 1671.62 130.305 Q1676.99 130.305 1680.18 132.99 Q1683.38 135.675 1683.38 140.166 Q1683.38 142.295 1682.57 144.217 Q1681.78 146.115 1679.67 148.707 Q1679.1 149.379 1675.99 152.596 Q1672.89 155.791 1667.24 161.554 Z" fill="#000000" fill-rule="nonzero" fill-opacity="1" /><path clip-path="url(#clip060)" d="M1693.86 159.61 L1698.75 159.61 L1698.75 163.591 L1694.95 170.999 L1691.97 170.999 L1693.86 163.591 L1693.86 159.61 Z" fill="#000000" fill-rule="nonzero" fill-opacity="1" /><path clip-path="url(#clip060)" d="M1718.08 129.518 Q1714.97 134.842 1713.47 140.05 Q1711.97 145.258 1711.97 150.605 Q1711.97 155.953 1713.47 161.207 Q1715 166.439 1718.08 171.74 L1714.37 171.74 Q1710.9 166.3 1709.16 161.045 Q1707.45 155.791 1707.45 150.605 Q1707.45 145.443 1709.16 140.212 Q1710.88 134.98 1714.37 129.518 L1718.08 129.518 Z" fill="#000000" fill-rule="nonzero" fill-opacity="1" /><path clip-path="url(#clip060)" d="M1727.75 161.554 L1735.39 161.554 L1735.39 135.189 L1727.08 136.855 L1727.08 132.596 L1735.35 130.93 L1740.02 130.93 L1740.02 161.554 L1747.66 161.554 L1747.66 165.49 L1727.75 165.49 L1727.75 161.554 Z" fill="#000000" fill-rule="nonzero" fill-opacity="1" /><path clip-path="url(#clip060)" d="M1754.35 150.605 L1766.83 150.605 L1766.83 154.402 L1754.35 154.402 L1754.35 150.605 Z" fill="#000000" fill-rule="nonzero" fill-opacity="1" /><path clip-path="url(#clip060)" d="M1784.21 134.008 Q1780.6 134.008 1778.77 137.573 Q1776.97 141.115 1776.97 148.244 Q1776.97 155.351 1778.77 158.916 Q1780.6 162.457 1784.21 162.457 Q1787.84 162.457 1789.65 158.916 Q1791.48 155.351 1791.48 148.244 Q1791.48 141.115 1789.65 137.573 Q1787.84 134.008 1784.21 134.008 M1784.21 130.305 Q1790.02 130.305 1793.08 134.911 Q1796.15 139.494 1796.15 148.244 Q1796.15 156.971 1793.08 161.578 Q1790.02 166.161 1784.21 166.161 Q1778.4 166.161 1775.32 161.578 Q1772.27 156.971 1772.27 148.244 Q1772.27 139.494 1775.32 134.911 Q1778.4 130.305 1784.21 130.305 Z" fill="#000000" fill-rule="nonzero" fill-opacity="1" /><path clip-path="url(#clip060)" d="M1804.37 159.61 L1809.26 159.61 L1809.26 165.49 L1804.37 165.49 L1804.37 159.61 Z" fill="#000000" fill-rule="nonzero" fill-opacity="1" /><path clip-path="url(#clip060)" d="M1832.29 135.004 L1820.48 153.453 L1832.29 153.453 L1832.29 135.004 M1831.06 130.93 L1836.94 130.93 L1836.94 153.453 L1841.87 153.453 L1841.87 157.341 L1836.94 157.341 L1836.94 165.49 L1832.29 165.49 L1832.29 157.341 L1816.69 157.341 L1816.69 152.828 L1831.06 130.93 Z" fill="#000000" fill-rule="nonzero" fill-opacity="1" /><path clip-path="url(#clip060)" d="M1859.6 149.078 Q1856.27 149.078 1854.35 150.86 Q1852.45 152.642 1852.45 155.767 Q1852.45 158.892 1854.35 160.675 Q1856.27 162.457 1859.6 162.457 Q1862.94 162.457 1864.86 160.675 Q1866.78 158.869 1866.78 155.767 Q1866.78 152.642 1864.86 150.86 Q1862.96 149.078 1859.6 149.078 M1854.93 147.087 Q1851.92 146.346 1850.23 144.286 Q1848.56 142.226 1848.56 139.263 Q1848.56 135.119 1851.5 132.712 Q1854.46 130.305 1859.6 130.305 Q1864.77 130.305 1867.71 132.712 Q1870.65 135.119 1870.65 139.263 Q1870.65 142.226 1868.96 144.286 Q1867.29 146.346 1864.3 147.087 Q1867.68 147.874 1869.56 150.166 Q1871.46 152.457 1871.46 155.767 Q1871.46 160.791 1868.38 163.476 Q1865.32 166.161 1859.6 166.161 Q1853.89 166.161 1850.81 163.476 Q1847.75 160.791 1847.75 155.767 Q1847.75 152.457 1849.65 150.166 Q1851.55 147.874 1854.93 147.087 M1853.21 139.703 Q1853.21 142.388 1854.88 143.892 Q1856.57 145.397 1859.6 145.397 Q1862.61 145.397 1864.3 143.892 Q1866.02 142.388 1866.02 139.703 Q1866.02 137.017 1864.3 135.513 Q1862.61 134.008 1859.6 134.008 Q1856.57 134.008 1854.88 135.513 Q1853.21 137.017 1853.21 139.703 Z" fill="#000000" fill-rule="nonzero" fill-opacity="1" /><path clip-path="url(#clip060)" d="M1879.81 130.93 L1898.17 130.93 L1898.17 134.865 L1884.09 134.865 L1884.09 143.337 Q1885.11 142.99 1886.13 142.828 Q1887.15 142.642 1888.17 142.642 Q1893.96 142.642 1897.33 145.814 Q1900.71 148.985 1900.71 154.402 Q1900.71 159.98 1897.24 163.082 Q1893.77 166.161 1887.45 166.161 Q1885.27 166.161 1883.01 165.79 Q1880.76 165.42 1878.35 164.679 L1878.35 159.98 Q1880.44 161.115 1882.66 161.67 Q1884.88 162.226 1887.36 162.226 Q1891.36 162.226 1893.7 160.119 Q1896.04 158.013 1896.04 154.402 Q1896.04 150.791 1893.7 148.684 Q1891.36 146.578 1887.36 146.578 Q1885.48 146.578 1883.61 146.994 Q1881.76 147.411 1879.81 148.291 L1879.81 130.93 Z" fill="#000000" fill-rule="nonzero" fill-opacity="1" /><path clip-path="url(#clip060)" d="M1908.65 129.518 L1912.36 129.518 Q1915.83 134.98 1917.54 140.212 Q1919.28 145.443 1919.28 150.605 Q1919.28 155.791 1917.54 161.045 Q1915.83 166.3 1912.36 171.74 L1908.65 171.74 Q1911.73 166.439 1913.24 161.207 Q1914.77 155.953 1914.77 150.605 Q1914.77 145.258 1913.24 140.05 Q1911.73 134.842 1908.65 129.518 Z" fill="#000000" fill-rule="nonzero" fill-opacity="1" /><path clip-path="url(#clip060)" d="M1945.64 136.624 L1937.33 141.115 L1945.64 145.629 L1944.3 147.897 L1936.52 143.198 L1936.52 151.925 L1933.89 151.925 L1933.89 143.198 L1926.11 147.897 L1924.77 145.629 L1933.08 141.115 L1924.77 136.624 L1926.11 134.332 L1933.89 139.031 L1933.89 130.305 L1936.52 130.305 L1936.52 139.031 L1944.3 134.332 L1945.64 136.624 Z" fill="#000000" fill-rule="nonzero" fill-opacity="1" /><path clip-path="url(#clip060)" d="M1956.15 161.554 L1972.47 161.554 L1972.47 165.49 L1950.53 165.49 L1950.53 161.554 Q1953.19 158.8 1957.77 154.17 Q1962.38 149.517 1963.56 148.175 Q1965.81 145.652 1966.69 143.916 Q1967.59 142.156 1967.59 140.467 Q1967.59 137.712 1965.64 135.976 Q1963.72 134.24 1960.62 134.24 Q1958.42 134.24 1955.97 135.004 Q1953.54 135.767 1950.76 137.318 L1950.76 132.596 Q1953.58 131.462 1956.04 130.883 Q1958.49 130.305 1960.53 130.305 Q1965.9 130.305 1969.09 132.99 Q1972.29 135.675 1972.29 140.166 Q1972.29 142.295 1971.48 144.217 Q1970.69 146.115 1968.58 148.707 Q1968.01 149.379 1964.9 152.596 Q1961.8 155.791 1956.15 161.554 Z" fill="#000000" fill-rule="nonzero" fill-opacity="1" /><path clip-path="url(#clip060)" d="M1981.02 129.518 L1984.72 129.518 Q1988.19 134.98 1989.9 140.212 Q1991.64 145.443 1991.64 150.605 Q1991.64 155.791 1989.9 161.045 Q1988.19 166.3 1984.72 171.74 L1981.02 171.74 Q1984.09 166.439 1985.6 161.207 Q1987.13 155.953 1987.13 150.605 Q1987.13 145.258 1985.6 140.05 Q1984.09 134.842 1981.02 129.518 Z" fill="#000000" fill-rule="nonzero" fill-opacity="1" /><polyline clip-path="url(#clip060)" style="stroke:#e26f46; stroke-linecap:round; stroke-linejoin:round; stroke-width:4; stroke-opacity:1; fill:none" points="1199.33,200.05 1350.38,200.05 "/>
<path clip-path="url(#clip060)" d="M1380.23 200.825 L1380.23 213.487 L1387.73 213.487 Q1391.5 213.487 1393.31 211.936 Q1395.14 210.362 1395.14 207.144 Q1395.14 203.904 1393.31 202.376 Q1391.5 200.825 1387.73 200.825 L1380.23 200.825 M1380.23 186.612 L1380.23 197.029 L1387.15 197.029 Q1390.58 197.029 1392.25 195.756 Q1393.93 194.459 1393.93 191.82 Q1393.93 189.205 1392.25 187.908 Q1390.58 186.612 1387.15 186.612 L1380.23 186.612 M1375.56 182.77 L1387.5 182.77 Q1392.85 182.77 1395.74 184.992 Q1398.63 187.214 1398.63 191.311 Q1398.63 194.482 1397.15 196.357 Q1395.67 198.232 1392.8 198.695 Q1396.25 199.436 1398.15 201.797 Q1400.07 204.135 1400.07 207.654 Q1400.07 212.283 1396.92 214.806 Q1393.77 217.33 1387.96 217.33 L1375.56 217.33 L1375.56 182.77 Z" fill="#000000" fill-rule="nonzero" fill-opacity="1" /><path clip-path="url(#clip060)" d="M1430.07 203.302 L1430.07 205.385 L1410.49 205.385 Q1410.76 209.783 1413.12 212.098 Q1415.51 214.39 1419.74 214.39 Q1422.2 214.39 1424.49 213.788 Q1426.81 213.186 1429.07 211.982 L1429.07 216.01 Q1426.78 216.982 1424.37 217.492 Q1421.97 218.001 1419.49 218.001 Q1413.29 218.001 1409.65 214.39 Q1406.04 210.779 1406.04 204.621 Q1406.04 198.256 1409.47 194.529 Q1412.92 190.779 1418.75 190.779 Q1423.98 190.779 1427.01 194.158 Q1430.07 197.515 1430.07 203.302 M1425.81 202.052 Q1425.76 198.557 1423.84 196.473 Q1421.94 194.39 1418.8 194.39 Q1415.23 194.39 1413.08 196.404 Q1410.95 198.418 1410.62 202.075 L1425.81 202.052 Z" fill="#000000" fill-rule="nonzero" fill-opacity="1" /><path clip-path="url(#clip060)" d="M1441.27 184.043 L1441.27 191.404 L1450.05 191.404 L1450.05 194.714 L1441.27 194.714 L1441.27 208.788 Q1441.27 211.959 1442.13 212.862 Q1443.01 213.765 1445.67 213.765 L1450.05 213.765 L1450.05 217.33 L1445.67 217.33 Q1440.74 217.33 1438.87 215.501 Q1436.99 213.649 1436.99 208.788 L1436.99 194.714 L1433.87 194.714 L1433.87 191.404 L1436.99 191.404 L1436.99 184.043 L1441.27 184.043 Z" fill="#000000" fill-rule="nonzero" fill-opacity="1" /><path clip-path="url(#clip060)" d="M1467.43 204.297 Q1462.27 204.297 1460.28 205.478 Q1458.29 206.658 1458.29 209.506 Q1458.29 211.774 1459.77 213.117 Q1461.27 214.436 1463.84 214.436 Q1467.38 214.436 1469.51 211.936 Q1471.67 209.413 1471.67 205.246 L1471.67 204.297 L1467.43 204.297 M1475.93 202.538 L1475.93 217.33 L1471.67 217.33 L1471.67 213.394 Q1470.21 215.755 1468.03 216.89 Q1465.86 218.001 1462.71 218.001 Q1458.73 218.001 1456.37 215.779 Q1454.03 213.533 1454.03 209.783 Q1454.03 205.408 1456.94 203.186 Q1459.88 200.964 1465.69 200.964 L1471.67 200.964 L1471.67 200.547 Q1471.67 197.607 1469.72 196.01 Q1467.8 194.39 1464.3 194.39 Q1462.08 194.39 1459.98 194.922 Q1457.87 195.455 1455.93 196.519 L1455.93 192.584 Q1458.26 191.682 1460.46 191.242 Q1462.66 190.779 1464.74 190.779 Q1470.37 190.779 1473.15 193.695 Q1475.93 196.612 1475.93 202.538 Z" fill="#000000" fill-rule="nonzero" fill-opacity="1" /><path clip-path="url(#clip060)" d="M1494.93 181.358 Q1491.83 186.682 1490.32 191.89 Q1488.82 197.098 1488.82 202.445 Q1488.82 207.793 1490.32 213.047 Q1491.85 218.279 1494.93 223.58 L1491.23 223.58 Q1487.75 218.14 1486.02 212.885 Q1484.3 207.631 1484.3 202.445 Q1484.3 197.283 1486.02 192.052 Q1487.73 186.82 1491.23 181.358 L1494.93 181.358 Z" fill="#000000" fill-rule="nonzero" fill-opacity="1" /><path clip-path="url(#clip060)" d="M1513.8 185.848 Q1510.18 185.848 1508.36 189.413 Q1506.55 192.955 1506.55 200.084 Q1506.55 207.191 1508.36 210.756 Q1510.18 214.297 1513.8 214.297 Q1517.43 214.297 1519.24 210.756 Q1521.06 207.191 1521.06 200.084 Q1521.06 192.955 1519.24 189.413 Q1517.43 185.848 1513.8 185.848 M1513.8 182.145 Q1519.61 182.145 1522.66 186.751 Q1525.74 191.334 1525.74 200.084 Q1525.74 208.811 1522.66 213.418 Q1519.61 218.001 1513.8 218.001 Q1507.99 218.001 1504.91 213.418 Q1501.85 208.811 1501.85 200.084 Q1501.85 191.334 1504.91 186.751 Q1507.99 182.145 1513.8 182.145 Z" fill="#000000" fill-rule="nonzero" fill-opacity="1" /><path clip-path="url(#clip060)" d="M1533.96 211.45 L1538.84 211.45 L1538.84 217.33 L1533.96 217.33 L1533.96 211.45 Z" fill="#000000" fill-rule="nonzero" fill-opacity="1" /><path clip-path="url(#clip060)" d="M1561.87 186.844 L1550.07 205.293 L1561.87 205.293 L1561.87 186.844 M1560.65 182.77 L1566.53 182.77 L1566.53 205.293 L1571.46 205.293 L1571.46 209.181 L1566.53 209.181 L1566.53 217.33 L1561.87 217.33 L1561.87 209.181 L1546.27 209.181 L1546.27 204.668 L1560.65 182.77 Z" fill="#000000" fill-rule="nonzero" fill-opacity="1" /><path clip-path="url(#clip060)" d="M1589.19 200.918 Q1585.86 200.918 1583.93 202.7 Q1582.04 204.482 1582.04 207.607 Q1582.04 210.732 1583.93 212.515 Q1585.86 214.297 1589.19 214.297 Q1592.52 214.297 1594.44 212.515 Q1596.36 210.709 1596.36 207.607 Q1596.36 204.482 1594.44 202.7 Q1592.54 200.918 1589.19 200.918 M1584.51 198.927 Q1581.5 198.186 1579.81 196.126 Q1578.15 194.066 1578.15 191.103 Q1578.15 186.959 1581.09 184.552 Q1584.05 182.145 1589.19 182.145 Q1594.35 182.145 1597.29 184.552 Q1600.23 186.959 1600.23 191.103 Q1600.23 194.066 1598.54 196.126 Q1596.87 198.186 1593.89 198.927 Q1597.27 199.714 1599.14 202.006 Q1601.04 204.297 1601.04 207.607 Q1601.04 212.631 1597.96 215.316 Q1594.91 218.001 1589.19 218.001 Q1583.47 218.001 1580.39 215.316 Q1577.34 212.631 1577.34 207.607 Q1577.34 204.297 1579.23 202.006 Q1581.13 199.714 1584.51 198.927 M1582.8 191.543 Q1582.8 194.228 1584.47 195.732 Q1586.16 197.237 1589.19 197.237 Q1592.2 197.237 1593.89 195.732 Q1595.6 194.228 1595.6 191.543 Q1595.6 188.857 1593.89 187.353 Q1592.2 185.848 1589.19 185.848 Q1586.16 185.848 1584.47 187.353 Q1582.8 188.857 1582.8 191.543 Z" fill="#000000" fill-rule="nonzero" fill-opacity="1" /><path clip-path="url(#clip060)" d="M1609.4 182.77 L1627.75 182.77 L1627.75 186.705 L1613.68 186.705 L1613.68 195.177 Q1614.7 194.83 1615.72 194.668 Q1616.73 194.482 1617.75 194.482 Q1623.54 194.482 1626.92 197.654 Q1630.3 200.825 1630.3 206.242 Q1630.3 211.82 1626.83 214.922 Q1623.35 218.001 1617.04 218.001 Q1614.86 218.001 1612.59 217.63 Q1610.35 217.26 1607.94 216.519 L1607.94 211.82 Q1610.02 212.955 1612.24 213.51 Q1614.47 214.066 1616.94 214.066 Q1620.95 214.066 1623.29 211.959 Q1625.62 209.853 1625.62 206.242 Q1625.62 202.631 1623.29 200.524 Q1620.95 198.418 1616.94 198.418 Q1615.07 198.418 1613.19 198.834 Q1611.34 199.251 1609.4 200.131 L1609.4 182.77 Z" fill="#000000" fill-rule="nonzero" fill-opacity="1" /><path clip-path="url(#clip060)" d="M1656.73 188.464 L1648.42 192.955 L1656.73 197.469 L1655.39 199.737 L1647.61 195.038 L1647.61 203.765 L1644.98 203.765 L1644.98 195.038 L1637.2 199.737 L1635.85 197.469 L1644.17 192.955 L1635.85 188.464 L1637.2 186.172 L1644.98 190.871 L1644.98 182.145 L1647.61 182.145 L1647.61 190.871 L1655.39 186.172 L1656.73 188.464 Z" fill="#000000" fill-rule="nonzero" fill-opacity="1" /><path clip-path="url(#clip060)" d="M1667.24 213.394 L1683.56 213.394 L1683.56 217.33 L1661.62 217.33 L1661.62 213.394 Q1664.28 210.64 1668.86 206.01 Q1673.47 201.357 1674.65 200.015 Q1676.9 197.492 1677.78 195.756 Q1678.68 193.996 1678.68 192.307 Q1678.68 189.552 1676.73 187.816 Q1674.81 186.08 1671.71 186.08 Q1669.51 186.08 1667.06 186.844 Q1664.63 187.607 1661.85 189.158 L1661.85 184.436 Q1664.67 183.302 1667.13 182.723 Q1669.58 182.145 1671.62 182.145 Q1676.99 182.145 1680.18 184.83 Q1683.38 187.515 1683.38 192.006 Q1683.38 194.135 1682.57 196.057 Q1681.78 197.955 1679.67 200.547 Q1679.1 201.219 1675.99 204.436 Q1672.89 207.631 1667.24 213.394 Z" fill="#000000" fill-rule="nonzero" fill-opacity="1" /><path clip-path="url(#clip060)" d="M1710.11 187.607 L1710.11 200.501 L1723.01 200.501 L1723.01 204.436 L1710.11 204.436 L1710.11 217.33 L1706.22 217.33 L1706.22 204.436 L1693.33 204.436 L1693.33 200.501 L1706.22 200.501 L1706.22 187.607 L1710.11 187.607 Z" fill="#000000" fill-rule="nonzero" fill-opacity="1" /><path clip-path="url(#clip060)" d="M1745.95 186.844 L1734.14 205.293 L1745.95 205.293 L1745.95 186.844 M1744.72 182.77 L1750.6 182.77 L1750.6 205.293 L1755.53 205.293 L1755.53 209.181 L1750.6 209.181 L1750.6 217.33 L1745.95 217.33 L1745.95 209.181 L1730.35 209.181 L1730.35 204.668 L1744.72 182.77 Z" fill="#000000" fill-rule="nonzero" fill-opacity="1" /><path clip-path="url(#clip060)" d="M1777.43 198.695 Q1780.78 199.413 1782.66 201.681 Q1784.56 203.95 1784.56 207.283 Q1784.56 212.399 1781.04 215.2 Q1777.52 218.001 1771.04 218.001 Q1768.86 218.001 1766.55 217.561 Q1764.26 217.144 1761.8 216.288 L1761.8 211.774 Q1763.75 212.908 1766.06 213.487 Q1768.38 214.066 1770.9 214.066 Q1775.3 214.066 1777.59 212.33 Q1779.91 210.593 1779.91 207.283 Q1779.91 204.228 1777.75 202.515 Q1775.62 200.779 1771.8 200.779 L1767.78 200.779 L1767.78 196.936 L1771.99 196.936 Q1775.44 196.936 1777.27 195.57 Q1779.09 194.182 1779.09 191.589 Q1779.09 188.927 1777.2 187.515 Q1775.32 186.08 1771.8 186.08 Q1769.88 186.08 1767.68 186.496 Q1765.48 186.913 1762.84 187.793 L1762.84 183.626 Q1765.51 182.885 1767.82 182.515 Q1770.16 182.145 1772.22 182.145 Q1777.54 182.145 1780.65 184.575 Q1783.75 186.982 1783.75 191.103 Q1783.75 193.973 1782.1 195.964 Q1780.46 197.932 1777.43 198.695 Z" fill="#000000" fill-rule="nonzero" fill-opacity="1" /><path clip-path="url(#clip060)" d="M1792.24 182.77 L1814.47 182.77 L1814.47 184.76 L1801.92 217.33 L1797.03 217.33 L1808.84 186.705 L1792.24 186.705 L1792.24 182.77 Z" fill="#000000" fill-rule="nonzero" fill-opacity="1" /><path clip-path="url(#clip060)" d="M1824.07 211.45 L1828.96 211.45 L1828.96 215.431 L1825.16 222.839 L1822.17 222.839 L1824.07 215.431 L1824.07 211.45 Z" fill="#000000" fill-rule="nonzero" fill-opacity="1" /><path clip-path="url(#clip060)" d="M1848.28 181.358 Q1845.18 186.682 1843.68 191.89 Q1842.17 197.098 1842.17 202.445 Q1842.17 207.793 1843.68 213.047 Q1845.21 218.279 1848.28 223.58 L1844.58 223.58 Q1841.11 218.14 1839.37 212.885 Q1837.66 207.631 1837.66 202.445 Q1837.66 197.283 1839.37 192.052 Q1841.09 186.82 1844.58 181.358 L1848.28 181.358 Z" fill="#000000" fill-rule="nonzero" fill-opacity="1" /><path clip-path="url(#clip060)" d="M1857.96 213.394 L1865.6 213.394 L1865.6 187.029 L1857.29 188.695 L1857.29 184.436 L1865.55 182.77 L1870.23 182.77 L1870.23 213.394 L1877.87 213.394 L1877.87 217.33 L1857.96 217.33 L1857.96 213.394 Z" fill="#000000" fill-rule="nonzero" fill-opacity="1" /><path clip-path="url(#clip060)" d="M1884.56 202.445 L1897.03 202.445 L1897.03 206.242 L1884.56 206.242 L1884.56 202.445 Z" fill="#000000" fill-rule="nonzero" fill-opacity="1" /><path clip-path="url(#clip060)" d="M1914.42 185.848 Q1910.81 185.848 1908.98 189.413 Q1907.17 192.955 1907.17 200.084 Q1907.17 207.191 1908.98 210.756 Q1910.81 214.297 1914.42 214.297 Q1918.05 214.297 1919.86 210.756 Q1921.69 207.191 1921.69 200.084 Q1921.69 192.955 1919.86 189.413 Q1918.05 185.848 1914.42 185.848 M1914.42 182.145 Q1920.23 182.145 1923.28 186.751 Q1926.36 191.334 1926.36 200.084 Q1926.36 208.811 1923.28 213.418 Q1920.23 218.001 1914.42 218.001 Q1908.61 218.001 1905.53 213.418 Q1902.47 208.811 1902.47 200.084 Q1902.47 191.334 1905.53 186.751 Q1908.61 182.145 1914.42 182.145 Z" fill="#000000" fill-rule="nonzero" fill-opacity="1" /><path clip-path="url(#clip060)" d="M1934.58 211.45 L1939.46 211.45 L1939.46 217.33 L1934.58 217.33 L1934.58 211.45 Z" fill="#000000" fill-rule="nonzero" fill-opacity="1" /><path clip-path="url(#clip060)" d="M1962.5 186.844 L1950.69 205.293 L1962.5 205.293 L1962.5 186.844 M1961.27 182.77 L1967.15 182.77 L1967.15 205.293 L1972.08 205.293 L1972.08 209.181 L1967.15 209.181 L1967.15 217.33 L1962.5 217.33 L1962.5 209.181 L1946.89 209.181 L1946.89 204.668 L1961.27 182.77 Z" fill="#000000" fill-rule="nonzero" fill-opacity="1" /><path clip-path="url(#clip060)" d="M1989.81 200.918 Q1986.48 200.918 1984.56 202.7 Q1982.66 204.482 1982.66 207.607 Q1982.66 210.732 1984.56 212.515 Q1986.48 214.297 1989.81 214.297 Q1993.14 214.297 1995.07 212.515 Q1996.99 210.709 1996.99 207.607 Q1996.99 204.482 1995.07 202.7 Q1993.17 200.918 1989.81 200.918 M1985.14 198.927 Q1982.13 198.186 1980.44 196.126 Q1978.77 194.066 1978.77 191.103 Q1978.77 186.959 1981.71 184.552 Q1984.67 182.145 1989.81 182.145 Q1994.97 182.145 1997.91 184.552 Q2000.85 186.959 2000.85 191.103 Q2000.85 194.066 1999.16 196.126 Q1997.5 198.186 1994.51 198.927 Q1997.89 199.714 1999.76 202.006 Q2001.66 204.297 2001.66 207.607 Q2001.66 212.631 1998.58 215.316 Q1995.53 218.001 1989.81 218.001 Q1984.09 218.001 1981.02 215.316 Q1977.96 212.631 1977.96 207.607 Q1977.96 204.297 1979.86 202.006 Q1981.76 199.714 1985.14 198.927 M1983.42 191.543 Q1983.42 194.228 1985.09 195.732 Q1986.78 197.237 1989.81 197.237 Q1992.82 197.237 1994.51 195.732 Q1996.22 194.228 1996.22 191.543 Q1996.22 188.857 1994.51 187.353 Q1992.82 185.848 1989.81 185.848 Q1986.78 185.848 1985.09 187.353 Q1983.42 188.857 1983.42 191.543 Z" fill="#000000" fill-rule="nonzero" fill-opacity="1" /><path clip-path="url(#clip060)" d="M2010.02 182.77 L2028.38 182.77 L2028.38 186.705 L2014.3 186.705 L2014.3 195.177 Q2015.32 194.83 2016.34 194.668 Q2017.36 194.482 2018.38 194.482 Q2024.16 194.482 2027.54 197.654 Q2030.92 200.825 2030.92 206.242 Q2030.92 211.82 2027.45 214.922 Q2023.98 218.001 2017.66 218.001 Q2015.48 218.001 2013.21 217.63 Q2010.97 217.26 2008.56 216.519 L2008.56 211.82 Q2010.64 212.955 2012.87 213.51 Q2015.09 214.066 2017.57 214.066 Q2021.57 214.066 2023.91 211.959 Q2026.25 209.853 2026.25 206.242 Q2026.25 202.631 2023.91 200.524 Q2021.57 198.418 2017.57 198.418 Q2015.69 198.418 2013.82 198.834 Q2011.96 199.251 2010.02 200.131 L2010.02 182.77 Z" fill="#000000" fill-rule="nonzero" fill-opacity="1" /><path clip-path="url(#clip060)" d="M2038.86 181.358 L2042.57 181.358 Q2046.04 186.82 2047.75 192.052 Q2049.49 197.283 2049.49 202.445 Q2049.49 207.631 2047.75 212.885 Q2046.04 218.14 2042.57 223.58 L2038.86 223.58 Q2041.94 218.279 2043.45 213.047 Q2044.97 207.793 2044.97 202.445 Q2044.97 197.098 2043.45 191.89 Q2041.94 186.682 2038.86 181.358 Z" fill="#000000" fill-rule="nonzero" fill-opacity="1" /><path clip-path="url(#clip060)" d="M2075.85 188.464 L2067.54 192.955 L2075.85 197.469 L2074.51 199.737 L2066.73 195.038 L2066.73 203.765 L2064.09 203.765 L2064.09 195.038 L2056.32 199.737 L2054.97 197.469 L2063.28 192.955 L2054.97 188.464 L2056.32 186.172 L2064.09 190.871 L2064.09 182.145 L2066.73 182.145 L2066.73 190.871 L2074.51 186.172 L2075.85 188.464 Z" fill="#000000" fill-rule="nonzero" fill-opacity="1" /><path clip-path="url(#clip060)" d="M2086.36 213.394 L2102.68 213.394 L2102.68 217.33 L2080.74 217.33 L2080.74 213.394 Q2083.4 210.64 2087.98 206.01 Q2092.59 201.357 2093.77 200.015 Q2096.01 197.492 2096.89 195.756 Q2097.8 193.996 2097.8 192.307 Q2097.8 189.552 2095.85 187.816 Q2093.93 186.08 2090.83 186.08 Q2088.63 186.08 2086.18 186.844 Q2083.75 187.607 2080.97 189.158 L2080.97 184.436 Q2083.79 183.302 2086.25 182.723 Q2088.7 182.145 2090.74 182.145 Q2096.11 182.145 2099.3 184.83 Q2102.5 187.515 2102.5 192.006 Q2102.5 194.135 2101.69 196.057 Q2100.9 197.955 2098.79 200.547 Q2098.21 201.219 2095.11 204.436 Q2092.01 207.631 2086.36 213.394 Z" fill="#000000" fill-rule="nonzero" fill-opacity="1" /><path clip-path="url(#clip060)" d="M2129.23 187.607 L2129.23 200.501 L2142.13 200.501 L2142.13 204.436 L2129.23 204.436 L2129.23 217.33 L2125.34 217.33 L2125.34 204.436 L2112.45 204.436 L2112.45 200.501 L2125.34 200.501 L2125.34 187.607 L2129.23 187.607 Z" fill="#000000" fill-rule="nonzero" fill-opacity="1" /><path clip-path="url(#clip060)" d="M2152.26 182.77 L2170.62 182.77 L2170.62 186.705 L2156.55 186.705 L2156.55 195.177 Q2157.57 194.83 2158.58 194.668 Q2159.6 194.482 2160.62 194.482 Q2166.41 194.482 2169.79 197.654 Q2173.17 200.825 2173.17 206.242 Q2173.17 211.82 2169.69 214.922 Q2166.22 218.001 2159.9 218.001 Q2157.73 218.001 2155.46 217.63 Q2153.21 217.26 2150.81 216.519 L2150.81 211.82 Q2152.89 212.955 2155.11 213.51 Q2157.33 214.066 2159.81 214.066 Q2163.82 214.066 2166.15 211.959 Q2168.49 209.853 2168.49 206.242 Q2168.49 202.631 2166.15 200.524 Q2163.82 198.418 2159.81 198.418 Q2157.94 198.418 2156.06 198.834 Q2154.21 199.251 2152.26 200.131 L2152.26 182.77 Z" fill="#000000" fill-rule="nonzero" fill-opacity="1" /><path clip-path="url(#clip060)" d="M2195.23 186.844 L2183.42 205.293 L2195.23 205.293 L2195.23 186.844 M2194 182.77 L2199.88 182.77 L2199.88 205.293 L2204.81 205.293 L2204.81 209.181 L2199.88 209.181 L2199.88 217.33 L2195.23 217.33 L2195.23 209.181 L2179.63 209.181 L2179.63 204.668 L2194 182.77 Z" fill="#000000" fill-rule="nonzero" fill-opacity="1" /><path clip-path="url(#clip060)" d="M2226.71 198.695 Q2230.06 199.413 2231.94 201.681 Q2233.84 203.95 2233.84 207.283 Q2233.84 212.399 2230.32 215.2 Q2226.8 218.001 2220.32 218.001 Q2218.14 218.001 2215.83 217.561 Q2213.54 217.144 2211.08 216.288 L2211.08 211.774 Q2213.03 212.908 2215.34 213.487 Q2217.66 214.066 2220.18 214.066 Q2224.58 214.066 2226.87 212.33 Q2229.19 210.593 2229.19 207.283 Q2229.19 204.228 2227.03 202.515 Q2224.9 200.779 2221.08 200.779 L2217.06 200.779 L2217.06 196.936 L2221.27 196.936 Q2224.72 196.936 2226.55 195.57 Q2228.37 194.182 2228.37 191.589 Q2228.37 188.927 2226.48 187.515 Q2224.6 186.08 2221.08 186.08 Q2219.16 186.08 2216.96 186.496 Q2214.76 186.913 2212.12 187.793 L2212.12 183.626 Q2214.79 182.885 2217.1 182.515 Q2219.44 182.145 2221.5 182.145 Q2226.82 182.145 2229.93 184.575 Q2233.03 186.982 2233.03 191.103 Q2233.03 193.973 2231.38 195.964 Q2229.74 197.932 2226.71 198.695 Z" fill="#000000" fill-rule="nonzero" fill-opacity="1" /><path clip-path="url(#clip060)" d="M2241.43 181.358 L2245.13 181.358 Q2248.61 186.82 2250.32 192.052 Q2252.06 197.283 2252.06 202.445 Q2252.06 207.631 2250.32 212.885 Q2248.61 218.14 2245.13 223.58 L2241.43 223.58 Q2244.51 218.279 2246.01 213.047 Q2247.54 207.793 2247.54 202.445 Q2247.54 197.098 2246.01 191.89 Q2244.51 186.682 2241.43 181.358 Z" fill="#000000" fill-rule="nonzero" fill-opacity="1" /></svg>
