<?xml version="1.0" encoding="utf-8"?>
<svg xmlns="http://www.w3.org/2000/svg" xmlns:xlink="http://www.w3.org/1999/xlink" width="600" height="400" viewBox="0 0 2400 1600">
<defs>
  <clipPath id="clip830">
    <rect x="0" y="0" width="2400" height="1600"/>
  </clipPath>
</defs>
<path clip-path="url(#clip830)" d="M0 1600 L2400 1600 L2400 0 L0 0  Z" fill="#ffffff" fill-rule="evenodd" fill-opacity="1"/>
<defs>
  <clipPath id="clip831">
    <rect x="480" y="0" width="1681" height="1600"/>
  </clipPath>
</defs>
<path clip-path="url(#clip830)" d="M86.9921 1521.01 L2352.76 1521.01 L2352.76 47.2441 L86.9921 47.2441  Z" fill="#ffffff" fill-rule="evenodd" fill-opacity="1"/>
<defs>
  <clipPath id="clip832">
    <rect x="86" y="47" width="2267" height="1475"/>
  </clipPath>
</defs>
<polyline clip-path="url(#clip832)" style="stroke:#000000; stroke-linecap:round; stroke-linejoin:round; stroke-width:2; stroke-opacity:0.1; fill:none" points="151.118,1521.01 151.118,47.2441 "/>
<polyline clip-path="url(#clip832)" style="stroke:#000000; stroke-linecap:round; stroke-linejoin:round; stroke-width:2; stroke-opacity:0.1; fill:none" points="685.496,1521.01 685.496,47.2441 "/>
<polyline clip-path="url(#clip832)" style="stroke:#000000; stroke-linecap:round; stroke-linejoin:round; stroke-width:2; stroke-opacity:0.1; fill:none" points="1219.87,1521.01 1219.87,47.2441 "/>
<polyline clip-path="url(#clip832)" style="stroke:#000000; stroke-linecap:round; stroke-linejoin:round; stroke-width:2; stroke-opacity:0.1; fill:none" points="1754.25,1521.01 1754.25,47.2441 "/>
<polyline clip-path="url(#clip832)" style="stroke:#000000; stroke-linecap:round; stroke-linejoin:round; stroke-width:2; stroke-opacity:0.1; fill:none" points="2288.63,1521.01 2288.63,47.2441 "/>
<polyline clip-path="url(#clip830)" style="stroke:#000000; stroke-linecap:round; stroke-linejoin:round; stroke-width:4; stroke-opacity:1; fill:none" points="86.9921,1521.01 2352.76,1521.01 "/>
<polyline clip-path="url(#clip830)" style="stroke:#000000; stroke-linecap:round; stroke-linejoin:round; stroke-width:4; stroke-opacity:1; fill:none" points="151.118,1521.01 151.118,1502.11 "/>
<polyline clip-path="url(#clip830)" style="stroke:#000000; stroke-linecap:round; stroke-linejoin:round; stroke-width:4; stroke-opacity:1; fill:none" points="685.496,1521.01 685.496,1502.11 "/>
<polyline clip-path="url(#clip830)" style="stroke:#000000; stroke-linecap:round; stroke-linejoin:round; stroke-width:4; stroke-opacity:1; fill:none" points="1219.87,1521.01 1219.87,1502.11 "/>
<polyline clip-path="url(#clip830)" style="stroke:#000000; stroke-linecap:round; stroke-linejoin:round; stroke-width:4; stroke-opacity:1; fill:none" points="1754.25,1521.01 1754.25,1502.11 "/>
<polyline clip-path="url(#clip830)" style="stroke:#000000; stroke-linecap:round; stroke-linejoin:round; stroke-width:4; stroke-opacity:1; fill:none" points="2288.63,1521.01 2288.63,1502.11 "/>
<path clip-path="url(#clip830)" d="M113.421 1551.93 Q109.81 1551.93 107.981 1555.49 Q106.176 1559.03 106.176 1566.16 Q106.176 1573.27 107.981 1576.83 Q109.81 1580.38 113.421 1580.38 Q117.055 1580.38 118.861 1576.83 Q120.689 1573.27 120.689 1566.16 Q120.689 1559.03 118.861 1555.49 Q117.055 1551.93 113.421 1551.93 M113.421 1548.22 Q119.231 1548.22 122.287 1552.83 Q125.365 1557.41 125.365 1566.16 Q125.365 1574.89 122.287 1579.5 Q119.231 1584.08 113.421 1584.08 Q107.611 1584.08 104.532 1579.5 Q101.477 1574.89 101.477 1566.16 Q101.477 1557.41 104.532 1552.83 Q107.611 1548.22 113.421 1548.22 Z" fill="#000000" fill-rule="nonzero" fill-opacity="1" /><path clip-path="url(#clip830)" d="M133.583 1577.53 L138.467 1577.53 L138.467 1583.41 L133.583 1583.41 L133.583 1577.53 Z" fill="#000000" fill-rule="nonzero" fill-opacity="1" /><path clip-path="url(#clip830)" d="M158.652 1551.93 Q155.041 1551.93 153.212 1555.49 Q151.407 1559.03 151.407 1566.16 Q151.407 1573.27 153.212 1576.83 Q155.041 1580.38 158.652 1580.38 Q162.286 1580.38 164.092 1576.83 Q165.921 1573.27 165.921 1566.16 Q165.921 1559.03 164.092 1555.49 Q162.286 1551.93 158.652 1551.93 M158.652 1548.22 Q164.462 1548.22 167.518 1552.83 Q170.597 1557.41 170.597 1566.16 Q170.597 1574.89 167.518 1579.5 Q164.462 1584.08 158.652 1584.08 Q152.842 1584.08 149.763 1579.5 Q146.708 1574.89 146.708 1566.16 Q146.708 1557.41 149.763 1552.83 Q152.842 1548.22 158.652 1548.22 Z" fill="#000000" fill-rule="nonzero" fill-opacity="1" /><path clip-path="url(#clip830)" d="M188.814 1551.93 Q185.203 1551.93 183.374 1555.49 Q181.569 1559.03 181.569 1566.16 Q181.569 1573.27 183.374 1576.83 Q185.203 1580.38 188.814 1580.38 Q192.448 1580.38 194.254 1576.83 Q196.083 1573.27 196.083 1566.16 Q196.083 1559.03 194.254 1555.49 Q192.448 1551.93 188.814 1551.93 M188.814 1548.22 Q194.624 1548.22 197.68 1552.83 Q200.758 1557.41 200.758 1566.16 Q200.758 1574.89 197.68 1579.5 Q194.624 1584.08 188.814 1584.08 Q183.004 1584.08 179.925 1579.5 Q176.87 1574.89 176.87 1566.16 Q176.87 1557.41 179.925 1552.83 Q183.004 1548.22 188.814 1548.22 Z" fill="#000000" fill-rule="nonzero" fill-opacity="1" /><path clip-path="url(#clip830)" d="M648.297 1551.93 Q644.686 1551.93 642.857 1555.49 Q641.052 1559.03 641.052 1566.16 Q641.052 1573.27 642.857 1576.83 Q644.686 1580.38 648.297 1580.38 Q651.931 1580.38 653.737 1576.83 Q655.565 1573.27 655.565 1566.16 Q655.565 1559.03 653.737 1555.49 Q651.931 1551.93 648.297 1551.93 M648.297 1548.22 Q654.107 1548.22 657.163 1552.83 Q660.241 1557.41 660.241 1566.16 Q660.241 1574.89 657.163 1579.5 Q654.107 1584.08 648.297 1584.08 Q642.487 1584.08 639.408 1579.5 Q636.353 1574.89 636.353 1566.16 Q636.353 1557.41 639.408 1552.83 Q642.487 1548.22 648.297 1548.22 Z" fill="#000000" fill-rule="nonzero" fill-opacity="1" /><path clip-path="url(#clip830)" d="M668.459 1577.53 L673.343 1577.53 L673.343 1583.41 L668.459 1583.41 L668.459 1577.53 Z" fill="#000000" fill-rule="nonzero" fill-opacity="1" /><path clip-path="url(#clip830)" d="M687.556 1579.47 L703.875 1579.47 L703.875 1583.41 L681.931 1583.41 L681.931 1579.47 Q684.593 1576.72 689.176 1572.09 Q693.783 1567.44 694.963 1566.09 Q697.209 1563.57 698.088 1561.83 Q698.991 1560.07 698.991 1558.38 Q698.991 1555.63 697.047 1553.89 Q695.125 1552.16 692.024 1552.16 Q689.824 1552.16 687.371 1552.92 Q684.94 1553.69 682.162 1555.24 L682.162 1550.51 Q684.987 1549.38 687.44 1548.8 Q689.894 1548.22 691.931 1548.22 Q697.301 1548.22 700.496 1550.91 Q703.69 1553.59 703.69 1558.08 Q703.69 1560.21 702.88 1562.13 Q702.093 1564.03 699.986 1566.63 Q699.408 1567.3 696.306 1570.51 Q693.204 1573.71 687.556 1579.47 Z" fill="#000000" fill-rule="nonzero" fill-opacity="1" /><path clip-path="url(#clip830)" d="M713.736 1548.85 L732.093 1548.85 L732.093 1552.78 L718.019 1552.78 L718.019 1561.26 Q719.037 1560.91 720.056 1560.75 Q721.074 1560.56 722.093 1560.56 Q727.88 1560.56 731.259 1563.73 Q734.639 1566.9 734.639 1572.32 Q734.639 1577.9 731.167 1581 Q727.695 1584.08 721.375 1584.08 Q719.199 1584.08 716.931 1583.71 Q714.685 1583.34 712.278 1582.6 L712.278 1577.9 Q714.361 1579.03 716.584 1579.59 Q718.806 1580.14 721.283 1580.14 Q725.287 1580.14 727.625 1578.04 Q729.963 1575.93 729.963 1572.32 Q729.963 1568.71 727.625 1566.6 Q725.287 1564.5 721.283 1564.5 Q719.408 1564.5 717.533 1564.91 Q715.681 1565.33 713.736 1566.21 L713.736 1548.85 Z" fill="#000000" fill-rule="nonzero" fill-opacity="1" /><path clip-path="url(#clip830)" d="M1182.18 1551.93 Q1178.57 1551.93 1176.74 1555.49 Q1174.93 1559.03 1174.93 1566.16 Q1174.93 1573.27 1176.74 1576.83 Q1178.57 1580.38 1182.18 1580.38 Q1185.81 1580.38 1187.62 1576.83 Q1189.45 1573.27 1189.45 1566.16 Q1189.45 1559.03 1187.62 1555.49 Q1185.81 1551.93 1182.18 1551.93 M1182.18 1548.22 Q1187.99 1548.22 1191.04 1552.83 Q1194.12 1557.41 1194.12 1566.16 Q1194.12 1574.89 1191.04 1579.5 Q1187.99 1584.08 1182.18 1584.08 Q1176.37 1584.08 1173.29 1579.5 Q1170.23 1574.89 1170.23 1566.16 Q1170.23 1557.41 1173.29 1552.83 Q1176.37 1548.22 1182.18 1548.22 Z" fill="#000000" fill-rule="nonzero" fill-opacity="1" /><path clip-path="url(#clip830)" d="M1202.34 1577.53 L1207.22 1577.53 L1207.22 1583.41 L1202.34 1583.41 L1202.34 1577.53 Z" fill="#000000" fill-rule="nonzero" fill-opacity="1" /><path clip-path="url(#clip830)" d="M1217.46 1548.85 L1235.81 1548.85 L1235.81 1552.78 L1221.74 1552.78 L1221.74 1561.26 Q1222.76 1560.91 1223.77 1560.75 Q1224.79 1560.56 1225.81 1560.56 Q1231.6 1560.56 1234.98 1563.73 Q1238.36 1566.9 1238.36 1572.32 Q1238.36 1577.9 1234.89 1581 Q1231.41 1584.08 1225.09 1584.08 Q1222.92 1584.08 1220.65 1583.71 Q1218.4 1583.34 1216 1582.6 L1216 1577.9 Q1218.08 1579.03 1220.3 1579.59 Q1222.52 1580.14 1225 1580.14 Q1229.01 1580.14 1231.34 1578.04 Q1233.68 1575.93 1233.68 1572.32 Q1233.68 1568.71 1231.34 1566.6 Q1229.01 1564.5 1225 1564.5 Q1223.13 1564.5 1221.25 1564.91 Q1219.4 1565.33 1217.46 1566.21 L1217.46 1548.85 Z" fill="#000000" fill-rule="nonzero" fill-opacity="1" /><path clip-path="url(#clip830)" d="M1257.57 1551.93 Q1253.96 1551.93 1252.13 1555.49 Q1250.33 1559.03 1250.33 1566.16 Q1250.33 1573.27 1252.13 1576.83 Q1253.96 1580.38 1257.57 1580.38 Q1261.2 1580.38 1263.01 1576.83 Q1264.84 1573.27 1264.84 1566.16 Q1264.84 1559.03 1263.01 1555.49 Q1261.2 1551.93 1257.57 1551.93 M1257.57 1548.22 Q1263.38 1548.22 1266.44 1552.83 Q1269.51 1557.41 1269.51 1566.16 Q1269.51 1574.89 1266.44 1579.5 Q1263.38 1584.08 1257.57 1584.08 Q1251.76 1584.08 1248.68 1579.5 Q1245.63 1574.89 1245.63 1566.16 Q1245.63 1557.41 1248.68 1552.83 Q1251.76 1548.22 1257.57 1548.22 Z" fill="#000000" fill-rule="nonzero" fill-opacity="1" /><path clip-path="url(#clip830)" d="M1717.05 1551.93 Q1713.44 1551.93 1711.61 1555.49 Q1709.81 1559.03 1709.81 1566.16 Q1709.81 1573.27 1711.61 1576.83 Q1713.44 1580.38 1717.05 1580.38 Q1720.69 1580.38 1722.49 1576.83 Q1724.32 1573.27 1724.32 1566.16 Q1724.32 1559.03 1722.49 1555.49 Q1720.69 1551.93 1717.05 1551.93 M1717.05 1548.22 Q1722.86 1548.22 1725.92 1552.83 Q1729 1557.41 1729 1566.16 Q1729 1574.89 1725.92 1579.5 Q1722.86 1584.08 1717.05 1584.08 Q1711.24 1584.08 1708.16 1579.5 Q1705.11 1574.89 1705.11 1566.16 Q1705.11 1557.41 1708.16 1552.83 Q1711.24 1548.22 1717.05 1548.22 Z" fill="#000000" fill-rule="nonzero" fill-opacity="1" /><path clip-path="url(#clip830)" d="M1737.22 1577.53 L1742.1 1577.53 L1742.1 1583.41 L1737.22 1583.41 L1737.22 1577.53 Z" fill="#000000" fill-rule="nonzero" fill-opacity="1" /><path clip-path="url(#clip830)" d="M1751.1 1548.85 L1773.33 1548.85 L1773.33 1550.84 L1760.78 1583.41 L1755.9 1583.41 L1767.7 1552.78 L1751.1 1552.78 L1751.1 1548.85 Z" fill="#000000" fill-rule="nonzero" fill-opacity="1" /><path clip-path="url(#clip830)" d="M1782.49 1548.85 L1800.85 1548.85 L1800.85 1552.78 L1786.78 1552.78 L1786.78 1561.26 Q1787.79 1560.91 1788.81 1560.75 Q1789.83 1560.56 1790.85 1560.56 Q1796.64 1560.56 1800.02 1563.73 Q1803.4 1566.9 1803.4 1572.32 Q1803.4 1577.9 1799.92 1581 Q1796.45 1584.08 1790.13 1584.08 Q1787.96 1584.08 1785.69 1583.71 Q1783.44 1583.34 1781.03 1582.6 L1781.03 1577.9 Q1783.12 1579.03 1785.34 1579.59 Q1787.56 1580.14 1790.04 1580.14 Q1794.04 1580.14 1796.38 1578.04 Q1798.72 1575.93 1798.72 1572.32 Q1798.72 1568.71 1796.38 1566.6 Q1794.04 1564.5 1790.04 1564.5 Q1788.16 1564.5 1786.29 1564.91 Q1784.44 1565.33 1782.49 1566.21 L1782.49 1548.85 Z" fill="#000000" fill-rule="nonzero" fill-opacity="1" /><path clip-path="url(#clip830)" d="M2240.7 1579.47 L2248.34 1579.47 L2248.34 1553.11 L2240.03 1554.77 L2240.03 1550.51 L2248.3 1548.85 L2252.97 1548.85 L2252.97 1579.47 L2260.61 1579.47 L2260.61 1583.41 L2240.7 1583.41 L2240.7 1579.47 Z" fill="#000000" fill-rule="nonzero" fill-opacity="1" /><path clip-path="url(#clip830)" d="M2270.05 1577.53 L2274.94 1577.53 L2274.94 1583.41 L2270.05 1583.41 L2270.05 1577.53 Z" fill="#000000" fill-rule="nonzero" fill-opacity="1" /><path clip-path="url(#clip830)" d="M2295.12 1551.93 Q2291.51 1551.93 2289.68 1555.49 Q2287.88 1559.03 2287.88 1566.16 Q2287.88 1573.27 2289.68 1576.83 Q2291.51 1580.38 2295.12 1580.38 Q2298.76 1580.38 2300.56 1576.83 Q2302.39 1573.27 2302.39 1566.16 Q2302.39 1559.03 2300.56 1555.49 Q2298.76 1551.93 2295.12 1551.93 M2295.12 1548.22 Q2300.93 1548.22 2303.99 1552.83 Q2307.07 1557.41 2307.07 1566.16 Q2307.07 1574.89 2303.99 1579.5 Q2300.93 1584.08 2295.12 1584.08 Q2289.31 1584.08 2286.23 1579.5 Q2283.18 1574.89 2283.18 1566.16 Q2283.18 1557.41 2286.23 1552.83 Q2289.31 1548.22 2295.12 1548.22 Z" fill="#000000" fill-rule="nonzero" fill-opacity="1" /><path clip-path="url(#clip830)" d="M2325.29 1551.93 Q2321.67 1551.93 2319.85 1555.49 Q2318.04 1559.03 2318.04 1566.16 Q2318.04 1573.27 2319.85 1576.83 Q2321.67 1580.38 2325.29 1580.38 Q2328.92 1580.38 2330.73 1576.83 Q2332.55 1573.27 2332.55 1566.16 Q2332.55 1559.03 2330.73 1555.49 Q2328.92 1551.93 2325.29 1551.93 M2325.29 1548.22 Q2331.1 1548.22 2334.15 1552.83 Q2337.23 1557.41 2337.23 1566.16 Q2337.23 1574.89 2334.15 1579.5 Q2331.1 1584.08 2325.29 1584.08 Q2319.48 1584.08 2316.4 1579.5 Q2313.34 1574.89 2313.34 1566.16 Q2313.34 1557.41 2316.4 1552.83 Q2319.48 1548.22 2325.29 1548.22 Z" fill="#000000" fill-rule="nonzero" fill-opacity="1" /><polyline clip-path="url(#clip832)" style="stroke:#000000; stroke-linecap:round; stroke-linejoin:round; stroke-width:2; stroke-opacity:0.1; fill:none" points="86.9921,1479.3 2352.76,1479.3 "/>
<polyline clip-path="url(#clip832)" style="stroke:#000000; stroke-linecap:round; stroke-linejoin:round; stroke-width:2; stroke-opacity:0.1; fill:none" points="86.9921,1205.26 2352.76,1205.26 "/>
<polyline clip-path="url(#clip832)" style="stroke:#000000; stroke-linecap:round; stroke-linejoin:round; stroke-width:2; stroke-opacity:0.1; fill:none" points="86.9921,931.227 2352.76,931.227 "/>
<polyline clip-path="url(#clip832)" style="stroke:#000000; stroke-linecap:round; stroke-linejoin:round; stroke-width:2; stroke-opacity:0.1; fill:none" points="86.9921,657.191 2352.76,657.191 "/>
<polyline clip-path="url(#clip832)" style="stroke:#000000; stroke-linecap:round; stroke-linejoin:round; stroke-width:2; stroke-opacity:0.1; fill:none" points="86.9921,383.156 2352.76,383.156 "/>
<polyline clip-path="url(#clip832)" style="stroke:#000000; stroke-linecap:round; stroke-linejoin:round; stroke-width:2; stroke-opacity:0.1; fill:none" points="86.9921,109.12 2352.76,109.12 "/>
<polyline clip-path="url(#clip830)" style="stroke:#000000; stroke-linecap:round; stroke-linejoin:round; stroke-width:4; stroke-opacity:1; fill:none" points="86.9921,1521.01 86.9921,47.2441 "/>
<polyline clip-path="url(#clip830)" style="stroke:#000000; stroke-linecap:round; stroke-linejoin:round; stroke-width:4; stroke-opacity:1; fill:none" points="86.9921,1479.3 105.89,1479.3 "/>
<polyline clip-path="url(#clip830)" style="stroke:#000000; stroke-linecap:round; stroke-linejoin:round; stroke-width:4; stroke-opacity:1; fill:none" points="86.9921,1205.26 105.89,1205.26 "/>
<polyline clip-path="url(#clip830)" style="stroke:#000000; stroke-linecap:round; stroke-linejoin:round; stroke-width:4; stroke-opacity:1; fill:none" points="86.9921,931.227 105.89,931.227 "/>
<polyline clip-path="url(#clip830)" style="stroke:#000000; stroke-linecap:round; stroke-linejoin:round; stroke-width:4; stroke-opacity:1; fill:none" points="86.9921,657.191 105.89,657.191 "/>
<polyline clip-path="url(#clip830)" style="stroke:#000000; stroke-linecap:round; stroke-linejoin:round; stroke-width:4; stroke-opacity:1; fill:none" points="86.9921,383.156 105.89,383.156 "/>
<polyline clip-path="url(#clip830)" style="stroke:#000000; stroke-linecap:round; stroke-linejoin:round; stroke-width:4; stroke-opacity:1; fill:none" points="86.9921,109.12 105.89,109.12 "/>
<path clip-path="url(#clip830)" d="M10.8708 1479.3 Q10.8708 1482.91 14.4356 1484.74 Q17.9773 1486.54 25.1068 1486.54 Q32.2133 1486.54 35.7781 1484.74 Q39.3197 1482.91 39.3197 1479.3 Q39.3197 1475.66 35.7781 1473.86 Q32.2133 1472.03 25.1068 1472.03 Q17.9773 1472.03 14.4356 1473.86 Q10.8708 1475.66 10.8708 1479.3 M7.16713 1479.3 Q7.16713 1473.49 11.7736 1470.43 Q16.3569 1467.35 25.1068 1467.35 Q33.8337 1467.35 38.4401 1470.43 Q43.0234 1473.49 43.0234 1479.3 Q43.0234 1485.11 38.4401 1488.19 Q33.8337 1491.24 25.1068 1491.24 Q16.3569 1491.24 11.7736 1488.19 Q7.16713 1485.11 7.16713 1479.3 Z" fill="#000000" fill-rule="nonzero" fill-opacity="1" /><path clip-path="url(#clip830)" d="M7.79213 1214.98 L7.79213 1196.63 L11.7273 1196.63 L11.7273 1210.7 L20.1995 1210.7 Q19.8522 1209.68 19.6902 1208.66 Q19.505 1207.65 19.505 1206.63 Q19.505 1200.84 22.6763 1197.46 Q25.8476 1194.08 31.2642 1194.08 Q36.8429 1194.08 39.9447 1197.55 Q43.0234 1201.03 43.0234 1207.35 Q43.0234 1209.52 42.6531 1211.79 Q42.2827 1214.04 41.5419 1216.44 L36.8429 1216.44 Q37.9771 1214.36 38.5327 1212.14 Q39.0883 1209.91 39.0883 1207.44 Q39.0883 1203.43 36.9818 1201.1 Q34.8753 1198.76 31.2642 1198.76 Q27.6531 1198.76 25.5467 1201.1 Q23.4402 1203.43 23.4402 1207.44 Q23.4402 1209.31 23.8569 1211.19 Q24.2735 1213.04 25.1531 1214.98 L7.79213 1214.98 Z" fill="#000000" fill-rule="nonzero" fill-opacity="1" /><path clip-path="url(#clip830)" d="M38.417 956.539 L38.417 948.9 L12.0514 948.9 L13.718 957.21 L9.45878 957.21 L7.79213 948.946 L7.79213 944.271 L38.417 944.271 L38.417 936.632 L42.3521 936.632 L42.3521 956.539 L38.417 956.539 Z" fill="#000000" fill-rule="nonzero" fill-opacity="1" /><path clip-path="url(#clip830)" d="M10.8708 917.187 Q10.8708 920.798 14.4356 922.627 Q17.9773 924.433 25.1068 924.433 Q32.2133 924.433 35.7781 922.627 Q39.3197 920.798 39.3197 917.187 Q39.3197 913.553 35.7781 911.748 Q32.2133 909.919 25.1068 909.919 Q17.9773 909.919 14.4356 911.748 Q10.8708 913.553 10.8708 917.187 M7.16713 917.187 Q7.16713 911.377 11.7736 908.322 Q16.3569 905.243 25.1068 905.243 Q33.8337 905.243 38.4401 908.322 Q43.0234 911.377 43.0234 917.187 Q43.0234 922.998 38.4401 926.076 Q33.8337 929.132 25.1068 929.132 Q16.3569 929.132 11.7736 926.076 Q7.16713 922.998 7.16713 917.187 Z" fill="#000000" fill-rule="nonzero" fill-opacity="1" /><path clip-path="url(#clip830)" d="M38.417 682.006 L38.417 674.367 L12.0514 674.367 L13.718 682.677 L9.45878 682.677 L7.79213 674.413 L7.79213 669.737 L38.417 669.737 L38.417 662.099 L42.3521 662.099 L42.3521 682.006 L38.417 682.006 Z" fill="#000000" fill-rule="nonzero" fill-opacity="1" /><path clip-path="url(#clip830)" d="M7.79213 652.608 L7.79213 634.251 L11.7273 634.251 L11.7273 648.325 L20.1995 648.325 Q19.8522 647.307 19.6902 646.288 Q19.505 645.27 19.505 644.251 Q19.505 638.464 22.6763 635.085 Q25.8476 631.705 31.2642 631.705 Q36.8429 631.705 39.9447 635.177 Q43.0234 638.65 43.0234 644.969 Q43.0234 647.145 42.6531 649.413 Q42.2827 651.659 41.5419 654.066 L36.8429 654.066 Q37.9771 651.983 38.5327 649.761 Q39.0883 647.538 39.0883 645.062 Q39.0883 641.057 36.9818 638.719 Q34.8753 636.381 31.2642 636.381 Q27.6531 636.381 25.5467 638.719 Q23.4402 641.057 23.4402 645.062 Q23.4402 646.937 23.8569 648.812 Q24.2735 650.663 25.1531 652.608 L7.79213 652.608 Z" fill="#000000" fill-rule="nonzero" fill-opacity="1" /><path clip-path="url(#clip830)" d="M38.417 404.382 L38.417 388.063 L42.3521 388.063 L42.3521 410.007 L38.417 410.007 Q35.6623 407.345 31.0327 402.762 Q26.38 398.156 25.0374 396.975 Q22.5143 394.73 20.7782 393.85 Q19.0189 392.947 17.3291 392.947 Q14.5745 392.947 12.8384 394.892 Q11.1023 396.813 11.1023 399.915 Q11.1023 402.114 11.8662 404.568 Q12.6301 406.998 14.181 409.776 L9.45878 409.776 Q8.32453 406.952 7.74583 404.498 Q7.16713 402.045 7.16713 400.007 Q7.16713 394.637 9.8523 391.443 Q12.5375 388.248 17.0282 388.248 Q19.1578 388.248 21.0791 389.058 Q22.9772 389.845 25.5698 391.952 Q26.2411 392.531 29.4587 395.633 Q32.6531 398.734 38.417 404.382 Z" fill="#000000" fill-rule="nonzero" fill-opacity="1" /><path clip-path="url(#clip830)" d="M10.8708 368.248 Q10.8708 371.859 14.4356 373.688 Q17.9773 375.494 25.1068 375.494 Q32.2133 375.494 35.7781 373.688 Q39.3197 371.859 39.3197 368.248 Q39.3197 364.614 35.7781 362.809 Q32.2133 360.98 25.1068 360.98 Q17.9773 360.98 14.4356 362.809 Q10.8708 364.614 10.8708 368.248 M7.16713 368.248 Q7.16713 362.438 11.7736 359.383 Q16.3569 356.304 25.1068 356.304 Q33.8337 356.304 38.4401 359.383 Q43.0234 362.438 43.0234 368.248 Q43.0234 374.059 38.4401 377.137 Q33.8337 380.193 25.1068 380.193 Q16.3569 380.193 11.7736 377.137 Q7.16713 374.059 7.16713 368.248 Z" fill="#000000" fill-rule="nonzero" fill-opacity="1" /><path clip-path="url(#clip830)" d="M38.417 129.849 L38.417 113.53 L42.3521 113.53 L42.3521 135.474 L38.417 135.474 Q35.6623 132.812 31.0327 128.229 Q26.38 123.622 25.0374 122.442 Q22.5143 120.197 20.7782 119.317 Q19.0189 118.414 17.3291 118.414 Q14.5745 118.414 12.8384 120.359 Q11.1023 122.28 11.1023 125.382 Q11.1023 127.581 11.8662 130.034 Q12.6301 132.465 14.181 135.243 L9.45878 135.243 Q8.32453 132.419 7.74583 129.965 Q7.16713 127.511 7.16713 125.474 Q7.16713 120.104 9.8523 116.91 Q12.5375 113.715 17.0282 113.715 Q19.1578 113.715 21.0791 114.525 Q22.9772 115.312 25.5698 117.419 Q26.2411 117.998 29.4587 121.099 Q32.6531 124.201 38.417 129.849 Z" fill="#000000" fill-rule="nonzero" fill-opacity="1" /><path clip-path="url(#clip830)" d="M7.79213 103.669 L7.79213 85.3125 L11.7273 85.3125 L11.7273 99.3865 L20.1995 99.3865 Q19.8522 98.368 19.6902 97.3495 Q19.505 96.331 19.505 95.3125 Q19.505 89.5255 22.6763 86.1458 Q25.8476 82.7662 31.2642 82.7662 Q36.8429 82.7662 39.9447 86.2384 Q43.0234 89.7106 43.0234 96.03 Q43.0234 98.206 42.6531 100.474 Q42.2827 102.72 41.5419 105.127 L36.8429 105.127 Q37.9771 103.044 38.5327 100.822 Q39.0883 98.5995 39.0883 96.1226 Q39.0883 92.118 36.9818 89.7801 Q34.8753 87.4421 31.2642 87.4421 Q27.6531 87.4421 25.5467 89.7801 Q23.4402 92.118 23.4402 96.1226 Q23.4402 97.9976 23.8569 99.8726 Q24.2735 101.724 25.1531 103.669 L7.79213 103.669 Z" fill="#000000" fill-rule="nonzero" fill-opacity="1" /><polyline clip-path="url(#clip832)" style="stroke:#009af9; stroke-linecap:round; stroke-linejoin:round; stroke-width:4; stroke-opacity:1; fill:none" points="151.118,1479.3 165.034,1479.3 293.711,1479.3 371.04,1479.25 436.422,1478.97 471.933,1478.54 507.444,1477.73 523.813,1477.17 540.182,1476.47 556.551,1475.59 572.92,1474.5 590.469,1473.09 608.019,1471.37 625.568,1469.31 643.117,1466.89 653.284,1465.31 663.45,1463.58 673.616,1461.71 683.783,1459.68 693.949,1457.5 704.115,1455.16 714.282,1452.66 724.448,1449.99 733.483,1447.48 742.517,1444.84 751.552,1442.07 760.586,1439.17 769.621,1436.13 778.656,1432.97 787.69,1429.68 796.725,1426.28 812.57,1420.01 828.415,1413.41 844.26,1406.5 860.105,1399.32 894.656,1382.95 929.207,1366.03 946.585,1357.51 963.963,1349.1 981.341,1340.88 998.719,1332.94 1008.33,1328.71 1017.93,1324.6 1027.54,1320.63 1037.15,1316.82 1046.75,1313.18 1056.36,1309.72 1065.97,1306.46 1075.57,1303.41 1084.71,1300.7 1093.86,1298.21 1103,1295.92 1112.14,1293.86 1121.28,1292.03 1130.42,1290.44 1139.56,1289.09 1148.7,1287.98 1158.2,1287.09 1167.71,1286.47 1177.21,1286.13 1186.72,1286.07 1196.22,1286.28 1205.72,1286.76 1215.23,1287.51 1224.73,1288.54 1232.73,1289.6 1240.73,1290.86 1248.73,1292.29 1256.74,1293.9 1264.74,1295.68 1272.74,1297.63 1280.74,1299.74 1288.74,1302.01 1298.5,1304.98 1308.27,1308.17 1318.04,1311.56 1327.81,1315.13 1337.58,1318.88 1347.34,1322.79 1357.11,1326.85 1366.88,1331.04 1384.77,1339 1402.67,1347.26 1420.57,1355.73 1438.46,1364.3 1471.52,1380.15 1504.57,1395.56 1521.32,1403.05 1538.06,1410.28 1554.8,1417.18 1571.54,1423.73 1580.92,1427.24 1590.31,1430.62 1599.69,1433.88 1609.07,1437.01 1618.45,1440 1627.83,1442.87 1637.22,1445.6 1646.6,1448.19 1663.6,1452.56 1680.6,1456.5 1697.61,1460.01 1714.61,1463.13 1734.08,1466.24 1753.54,1468.88 1773.01,1471.1 1792.48,1472.94 1810.5,1474.34 1828.53,1475.49 1846.55,1476.41 1864.58,1477.15 1900.12,1478.16 1935.66,1478.74 1970.16,1479.05 2004.67,1479.2 2075.42,1479.29 2152.93,1479.3 2265.53,1479.3 2288.63,1479.3 "/>
<polyline clip-path="url(#clip832)" style="stroke:#e26f46; stroke-linecap:round; stroke-linejoin:round; stroke-width:4; stroke-opacity:1; fill:none" points="151.118,1479.3 165.034,1479.3 293.711,1479.3 371.04,1479.3 436.422,1479.3 507.444,1479.3 572.92,1479.3 643.117,1479.3 724.448,1479.3 796.725,1479.3 860.105,1479.3 894.656,1479.3 929.207,1479.3 946.585,1479.28 963.963,1479.15 972.652,1478.85 981.341,1478.03 990.03,1476 998.719,1471.31 1003.52,1466.67 1008.33,1459.77 1010.73,1455.21 1013.13,1449.74 1015.53,1443.22 1017.93,1435.51 1020.33,1426.44 1022.74,1415.83 1025.14,1403.49 1027.54,1389.25 1029.94,1372.89 1032.34,1354.24 1034.75,1333.1 1037.15,1309.29 1039.55,1282.65 1041.95,1253.04 1044.35,1220.34 1046.75,1184.48 1049.16,1145.42 1051.56,1103.17 1053.96,1057.78 1056.36,1009.39 1058.76,958.187 1061.16,904.412 1063.57,848.39 1065.97,790.506 1070.77,671.027 1075.57,550.303 1077.86,493.884 1080.14,438.917 1082.43,386.003 1084.71,335.745 1085.86,311.799 1087,288.738 1088.14,266.634 1089.29,245.555 1090.43,225.568 1091.57,206.736 1092.71,189.121 1093.86,172.778 1095,157.762 1096.14,144.122 1097.28,131.903 1098.43,121.146 1099.57,111.887 1100.71,104.156 1101.85,97.9798 1103,93.3782 1104.14,90.3665 1105.28,88.9544 1106.42,89.1461 1107.57,90.9401 1108.71,94.3295 1109.85,99.3019 1110.99,105.84 1112.14,113.919 1113.28,123.513 1114.42,134.587 1115.56,147.103 1116.71,161.019 1117.85,176.288 1118.99,192.859 1120.14,210.676 1121.28,229.682 1122.42,249.814 1123.56,271.008 1124.71,293.198 1125.85,316.314 1128.13,365.039 1130.42,416.601 1132.7,470.405 1134.99,525.856 1137.27,582.369 1139.56,639.378 1141.84,696.348 1144.13,752.777 1146.41,808.207 1148.7,862.229 1151.08,916.52 1153.45,968.556 1155.83,1018.06 1158.2,1064.81 1160.58,1108.65 1162.96,1149.48 1165.33,1187.25 1167.71,1221.96 1170.08,1253.66 1172.46,1282.43 1174.84,1308.37 1177.21,1331.62 1179.59,1352.33 1181.96,1370.67 1184.34,1386.82 1186.72,1400.96 1189.09,1413.25 1191.47,1423.9 1193.84,1433.05 1196.22,1440.88 1198.6,1447.54 1200.97,1453.18 1203.35,1457.92 1205.72,1461.88 1210.48,1467.92 1215.23,1472 1219.98,1474.71 1224.73,1476.47 1232.73,1478.1 1240.73,1478.82 1248.73,1479.12 1256.74,1479.23 1272.74,1479.29 1288.74,1479.3 1366.88,1479.3 1438.46,1479.3 1504.57,1479.3 1571.54,1479.3 1646.6,1479.3 1714.61,1479.3 1792.48,1479.3 1864.58,1479.3 1935.66,1479.3 2004.67,1479.3 2075.42,1479.3 2152.93,1479.3 2265.53,1479.3 2288.63,1479.3 "/>
<path clip-path="url(#clip830)" d="M1842.25 251.89 L2277.23 251.89 L2277.23 96.3696 L1842.25 96.3696  Z" fill="#ffffff" fill-rule="evenodd" fill-opacity="1"/>
<polyline clip-path="url(#clip830)" style="stroke:#000000; stroke-linecap:round; stroke-linejoin:round; stroke-width:4; stroke-opacity:1; fill:none" points="1842.25,251.89 2277.23,251.89 2277.23,96.3696 1842.25,96.3696 1842.25,251.89 "/>
<polyline clip-path="url(#clip830)" style="stroke:#009af9; stroke-linecap:round; stroke-linejoin:round; stroke-width:4; stroke-opacity:1; fill:none" points="1867.43,148.21 2018.48,148.21 "/>
<path clip-path="url(#clip830)" d="M2047.94 161.601 L2047.94 175.351 L2043.65 175.351 L2043.65 139.564 L2047.94 139.564 L2047.94 143.499 Q2049.28 141.184 2051.32 140.073 Q2053.38 138.939 2056.22 138.939 Q2060.95 138.939 2063.89 142.689 Q2066.85 146.439 2066.85 152.55 Q2066.85 158.661 2063.89 162.411 Q2060.95 166.161 2056.22 166.161 Q2053.38 166.161 2051.32 165.05 Q2049.28 163.915 2047.94 161.601 M2062.43 152.55 Q2062.43 147.851 2060.48 145.189 Q2058.56 142.504 2055.18 142.504 Q2051.8 142.504 2049.86 145.189 Q2047.94 147.851 2047.94 152.55 Q2047.94 157.249 2049.86 159.934 Q2051.8 162.596 2055.18 162.596 Q2058.56 162.596 2060.48 159.934 Q2062.43 157.249 2062.43 152.55 Z" fill="#000000" fill-rule="nonzero" fill-opacity="1" /><path clip-path="url(#clip830)" d="M2088.93 143.545 Q2088.21 143.129 2087.36 142.943 Q2086.52 142.735 2085.51 142.735 Q2081.89 142.735 2079.95 145.096 Q2078.03 147.434 2078.03 151.832 L2078.03 165.49 L2073.75 165.49 L2073.75 139.564 L2078.03 139.564 L2078.03 143.592 Q2079.37 141.23 2081.52 140.096 Q2083.68 138.939 2086.76 138.939 Q2087.2 138.939 2087.73 139.008 Q2088.26 139.055 2088.91 139.17 L2088.93 143.545 Z" fill="#000000" fill-rule="nonzero" fill-opacity="1" /><path clip-path="url(#clip830)" d="M2093.4 139.564 L2097.66 139.564 L2097.66 165.49 L2093.4 165.49 L2093.4 139.564 M2093.4 129.471 L2097.66 129.471 L2097.66 134.865 L2093.4 134.865 L2093.4 129.471 Z" fill="#000000" fill-rule="nonzero" fill-opacity="1" /><path clip-path="url(#clip830)" d="M2116.62 142.55 Q2113.19 142.55 2111.2 145.235 Q2109.21 147.897 2109.21 152.55 Q2109.21 157.203 2111.18 159.888 Q2113.17 162.55 2116.62 162.55 Q2120.02 162.55 2122.01 159.865 Q2124 157.179 2124 152.55 Q2124 147.943 2122.01 145.258 Q2120.02 142.55 2116.62 142.55 M2116.62 138.939 Q2122.17 138.939 2125.34 142.55 Q2128.51 146.161 2128.51 152.55 Q2128.51 158.916 2125.34 162.55 Q2122.17 166.161 2116.62 166.161 Q2111.04 166.161 2107.87 162.55 Q2104.72 158.916 2104.72 152.55 Q2104.72 146.161 2107.87 142.55 Q2111.04 138.939 2116.62 138.939 Z" fill="#000000" fill-rule="nonzero" fill-opacity="1" /><path clip-path="url(#clip830)" d="M2150.6 143.545 Q2149.88 143.129 2149.02 142.943 Q2148.19 142.735 2147.17 142.735 Q2143.56 142.735 2141.62 145.096 Q2139.69 147.434 2139.69 151.832 L2139.69 165.49 L2135.41 165.49 L2135.41 139.564 L2139.69 139.564 L2139.69 143.592 Q2141.04 141.23 2143.19 140.096 Q2145.34 138.939 2148.42 138.939 Q2148.86 138.939 2149.39 139.008 Q2149.93 139.055 2150.57 139.17 L2150.6 143.545 Z" fill="#000000" fill-rule="nonzero" fill-opacity="1" /><polyline clip-path="url(#clip830)" style="stroke:#e26f46; stroke-linecap:round; stroke-linejoin:round; stroke-width:4; stroke-opacity:1; fill:none" points="1867.43,200.05 2018.48,200.05 "/>
<path clip-path="url(#clip830)" d="M2047.94 213.441 L2047.94 227.191 L2043.65 227.191 L2043.65 191.404 L2047.94 191.404 L2047.94 195.339 Q2049.28 193.024 2051.32 191.913 Q2053.38 190.779 2056.22 190.779 Q2060.95 190.779 2063.89 194.529 Q2066.85 198.279 2066.85 204.39 Q2066.85 210.501 2063.89 214.251 Q2060.95 218.001 2056.22 218.001 Q2053.38 218.001 2051.32 216.89 Q2049.28 215.755 2047.94 213.441 M2062.43 204.39 Q2062.43 199.691 2060.48 197.029 Q2058.56 194.344 2055.18 194.344 Q2051.8 194.344 2049.86 197.029 Q2047.94 199.691 2047.94 204.39 Q2047.94 209.089 2049.86 211.774 Q2051.8 214.436 2055.18 214.436 Q2058.56 214.436 2060.48 211.774 Q2062.43 209.089 2062.43 204.39 Z" fill="#000000" fill-rule="nonzero" fill-opacity="1" /><path clip-path="url(#clip830)" d="M2083.95 194.39 Q2080.53 194.39 2078.54 197.075 Q2076.55 199.737 2076.55 204.39 Q2076.55 209.043 2078.51 211.728 Q2080.51 214.39 2083.95 214.39 Q2087.36 214.39 2089.35 211.705 Q2091.34 209.019 2091.34 204.39 Q2091.34 199.783 2089.35 197.098 Q2087.36 194.39 2083.95 194.39 M2083.95 190.779 Q2089.51 190.779 2092.68 194.39 Q2095.85 198.001 2095.85 204.39 Q2095.85 210.756 2092.68 214.39 Q2089.51 218.001 2083.95 218.001 Q2078.38 218.001 2075.2 214.39 Q2072.06 210.756 2072.06 204.39 Q2072.06 198.001 2075.2 194.39 Q2078.38 190.779 2083.95 190.779 Z" fill="#000000" fill-rule="nonzero" fill-opacity="1" /><path clip-path="url(#clip830)" d="M2119.44 192.168 L2119.44 196.195 Q2117.63 195.269 2115.69 194.807 Q2113.75 194.344 2111.66 194.344 Q2108.49 194.344 2106.89 195.316 Q2105.32 196.288 2105.32 198.232 Q2105.32 199.714 2106.45 200.57 Q2107.59 201.404 2111.01 202.168 L2112.47 202.492 Q2117.01 203.464 2118.91 205.246 Q2120.83 207.006 2120.83 210.177 Q2120.83 213.788 2117.96 215.894 Q2115.11 218.001 2110.11 218.001 Q2108.03 218.001 2105.76 217.584 Q2103.51 217.191 2101.01 216.38 L2101.01 211.982 Q2103.38 213.209 2105.67 213.834 Q2107.96 214.436 2110.2 214.436 Q2113.21 214.436 2114.83 213.418 Q2116.45 212.376 2116.45 210.501 Q2116.45 208.765 2115.27 207.839 Q2114.12 206.913 2110.16 206.056 L2108.68 205.709 Q2104.72 204.876 2102.96 203.163 Q2101.2 201.427 2101.2 198.418 Q2101.2 194.76 2103.79 192.77 Q2106.38 190.779 2111.15 190.779 Q2113.51 190.779 2115.6 191.126 Q2117.68 191.473 2119.44 192.168 Z" fill="#000000" fill-rule="nonzero" fill-opacity="1" /><path clip-path="url(#clip830)" d="M2131.82 184.043 L2131.82 191.404 L2140.6 191.404 L2140.6 194.714 L2131.82 194.714 L2131.82 208.788 Q2131.82 211.959 2132.68 212.862 Q2133.56 213.765 2136.22 213.765 L2140.6 213.765 L2140.6 217.33 L2136.22 217.33 Q2131.29 217.33 2129.42 215.501 Q2127.54 213.649 2127.54 208.788 L2127.54 194.714 L2124.42 194.714 L2124.42 191.404 L2127.54 191.404 L2127.54 184.043 L2131.82 184.043 Z" fill="#000000" fill-rule="nonzero" fill-opacity="1" /><path clip-path="url(#clip830)" d="M2168.38 203.302 L2168.38 205.385 L2148.79 205.385 Q2149.07 209.783 2151.43 212.098 Q2153.82 214.39 2158.05 214.39 Q2160.5 214.39 2162.8 213.788 Q2165.11 213.186 2167.38 211.982 L2167.38 216.01 Q2165.09 216.982 2162.68 217.492 Q2160.27 218.001 2157.8 218.001 Q2151.59 218.001 2147.96 214.39 Q2144.35 210.779 2144.35 204.621 Q2144.35 198.256 2147.77 194.529 Q2151.22 190.779 2157.06 190.779 Q2162.29 190.779 2165.32 194.158 Q2168.38 197.515 2168.38 203.302 M2164.12 202.052 Q2164.07 198.557 2162.15 196.473 Q2160.25 194.39 2157.1 194.39 Q2153.54 194.39 2151.38 196.404 Q2149.25 198.418 2148.93 202.075 L2164.12 202.052 Z" fill="#000000" fill-rule="nonzero" fill-opacity="1" /><path clip-path="url(#clip830)" d="M2190.39 195.385 Q2189.67 194.969 2188.81 194.783 Q2187.98 194.575 2186.96 194.575 Q2183.35 194.575 2181.41 196.936 Q2179.49 199.274 2179.49 203.672 L2179.49 217.33 L2175.2 217.33 L2175.2 191.404 L2179.49 191.404 L2179.49 195.432 Q2180.83 193.07 2182.98 191.936 Q2185.13 190.779 2188.21 190.779 Q2188.65 190.779 2189.19 190.848 Q2189.72 190.895 2190.37 191.01 L2190.39 195.385 Z" fill="#000000" fill-rule="nonzero" fill-opacity="1" /><path clip-path="url(#clip830)" d="M2194.86 191.404 L2199.12 191.404 L2199.12 217.33 L2194.86 217.33 L2194.86 191.404 M2194.86 181.311 L2199.12 181.311 L2199.12 186.705 L2194.86 186.705 L2194.86 181.311 Z" fill="#000000" fill-rule="nonzero" fill-opacity="1" /><path clip-path="url(#clip830)" d="M2218.07 194.39 Q2214.65 194.39 2212.66 197.075 Q2210.67 199.737 2210.67 204.39 Q2210.67 209.043 2212.63 211.728 Q2214.62 214.39 2218.07 214.39 Q2221.48 214.39 2223.47 211.705 Q2225.46 209.019 2225.46 204.39 Q2225.46 199.783 2223.47 197.098 Q2221.48 194.39 2218.07 194.39 M2218.07 190.779 Q2223.63 190.779 2226.8 194.39 Q2229.97 198.001 2229.97 204.39 Q2229.97 210.756 2226.8 214.39 Q2223.63 218.001 2218.07 218.001 Q2212.5 218.001 2209.32 214.39 Q2206.18 210.756 2206.18 204.39 Q2206.18 198.001 2209.32 194.39 Q2212.5 190.779 2218.07 190.779 Z" fill="#000000" fill-rule="nonzero" fill-opacity="1" /><path clip-path="url(#clip830)" d="M2252.06 195.385 Q2251.34 194.969 2250.48 194.783 Q2249.65 194.575 2248.63 194.575 Q2245.02 194.575 2243.07 196.936 Q2241.15 199.274 2241.15 203.672 L2241.15 217.33 L2236.87 217.33 L2236.87 191.404 L2241.15 191.404 L2241.15 195.432 Q2242.5 193.07 2244.65 191.936 Q2246.8 190.779 2249.88 190.779 Q2250.32 190.779 2250.85 190.848 Q2251.38 190.895 2252.03 191.01 L2252.06 195.385 Z" fill="#000000" fill-rule="nonzero" fill-opacity="1" /></svg>
