<?xml version="1.0" encoding="utf-8"?>
<svg xmlns="http://www.w3.org/2000/svg" xmlns:xlink="http://www.w3.org/1999/xlink" width="600" height="400" viewBox="0 0 2400 1600">
<defs>
  <clipPath id="clip860">
    <rect x="0" y="0" width="2400" height="1600"/>
  </clipPath>
</defs>
<path clip-path="url(#clip860)" d="M0 1600 L2400 1600 L2400 0 L0 0  Z" fill="#ffffff" fill-rule="evenodd" fill-opacity="1"/>
<defs>
  <clipPath id="clip861">
    <rect x="480" y="0" width="1681" height="1600"/>
  </clipPath>
</defs>
<path clip-path="url(#clip860)" d="M86.9921 1521.01 L2352.76 1521.01 L2352.76 47.2441 L86.9921 47.2441  Z" fill="#ffffff" fill-rule="evenodd" fill-opacity="1"/>
<defs>
  <clipPath id="clip862">
    <rect x="86" y="47" width="2267" height="1475"/>
  </clipPath>
</defs>
<polyline clip-path="url(#clip862)" style="stroke:#000000; stroke-linecap:round; stroke-linejoin:round; stroke-width:2; stroke-opacity:0.1; fill:none" points="151.118,1521.01 151.118,47.2441 "/>
<polyline clip-path="url(#clip862)" style="stroke:#000000; stroke-linecap:round; stroke-linejoin:round; stroke-width:2; stroke-opacity:0.1; fill:none" points="685.496,1521.01 685.496,47.2441 "/>
<polyline clip-path="url(#clip862)" style="stroke:#000000; stroke-linecap:round; stroke-linejoin:round; stroke-width:2; stroke-opacity:0.1; fill:none" points="1219.87,1521.01 1219.87,47.2441 "/>
<polyline clip-path="url(#clip862)" style="stroke:#000000; stroke-linecap:round; stroke-linejoin:round; stroke-width:2; stroke-opacity:0.1; fill:none" points="1754.25,1521.01 1754.25,47.2441 "/>
<polyline clip-path="url(#clip862)" style="stroke:#000000; stroke-linecap:round; stroke-linejoin:round; stroke-width:2; stroke-opacity:0.1; fill:none" points="2288.63,1521.01 2288.63,47.2441 "/>
<polyline clip-path="url(#clip860)" style="stroke:#000000; stroke-linecap:round; stroke-linejoin:round; stroke-width:4; stroke-opacity:1; fill:none" points="86.9921,1521.01 2352.76,1521.01 "/>
<polyline clip-path="url(#clip860)" style="stroke:#000000; stroke-linecap:round; stroke-linejoin:round; stroke-width:4; stroke-opacity:1; fill:none" points="151.118,1521.01 151.118,1502.11 "/>
<polyline clip-path="url(#clip860)" style="stroke:#000000; stroke-linecap:round; stroke-linejoin:round; stroke-width:4; stroke-opacity:1; fill:none" points="685.496,1521.01 685.496,1502.11 "/>
<polyline clip-path="url(#clip860)" style="stroke:#000000; stroke-linecap:round; stroke-linejoin:round; stroke-width:4; stroke-opacity:1; fill:none" points="1219.87,1521.01 1219.87,1502.11 "/>
<polyline clip-path="url(#clip860)" style="stroke:#000000; stroke-linecap:round; stroke-linejoin:round; stroke-width:4; stroke-opacity:1; fill:none" points="1754.25,1521.01 1754.25,1502.11 "/>
<polyline clip-path="url(#clip860)" style="stroke:#000000; stroke-linecap:round; stroke-linejoin:round; stroke-width:4; stroke-opacity:1; fill:none" points="2288.63,1521.01 2288.63,1502.11 "/>
<path clip-path="url(#clip860)" d="M113.421 1551.93 Q109.81 1551.93 107.981 1555.49 Q106.176 1559.03 106.176 1566.16 Q106.176 1573.27 107.981 1576.83 Q109.81 1580.38 113.421 1580.38 Q117.055 1580.38 118.861 1576.83 Q120.689 1573.27 120.689 1566.16 Q120.689 1559.03 118.861 1555.49 Q117.055 1551.93 113.421 1551.93 M113.421 1548.22 Q119.231 1548.22 122.287 1552.83 Q125.365 1557.41 125.365 1566.16 Q125.365 1574.89 122.287 1579.5 Q119.231 1584.08 113.421 1584.08 Q107.611 1584.08 104.532 1579.5 Q101.477 1574.89 101.477 1566.16 Q101.477 1557.41 104.532 1552.83 Q107.611 1548.22 113.421 1548.22 Z" fill="#000000" fill-rule="nonzero" fill-opacity="1" /><path clip-path="url(#clip860)" d="M133.583 1577.53 L138.467 1577.53 L138.467 1583.41 L133.583 1583.41 L133.583 1577.53 Z" fill="#000000" fill-rule="nonzero" fill-opacity="1" /><path clip-path="url(#clip860)" d="M158.652 1551.93 Q155.041 1551.93 153.212 1555.49 Q151.407 1559.03 151.407 1566.16 Q151.407 1573.27 153.212 1576.83 Q155.041 1580.38 158.652 1580.38 Q162.286 1580.38 164.092 1576.83 Q165.921 1573.27 165.921 1566.16 Q165.921 1559.03 164.092 1555.49 Q162.286 1551.93 158.652 1551.93 M158.652 1548.22 Q164.462 1548.22 167.518 1552.83 Q170.597 1557.41 170.597 1566.16 Q170.597 1574.89 167.518 1579.5 Q164.462 1584.08 158.652 1584.08 Q152.842 1584.08 149.763 1579.5 Q146.708 1574.89 146.708 1566.16 Q146.708 1557.41 149.763 1552.83 Q152.842 1548.22 158.652 1548.22 Z" fill="#000000" fill-rule="nonzero" fill-opacity="1" /><path clip-path="url(#clip860)" d="M188.814 1551.93 Q185.203 1551.93 183.374 1555.49 Q181.569 1559.03 181.569 1566.16 Q181.569 1573.27 183.374 1576.83 Q185.203 1580.38 188.814 1580.38 Q192.448 1580.38 194.254 1576.83 Q196.083 1573.27 196.083 1566.16 Q196.083 1559.03 194.254 1555.49 Q192.448 1551.93 188.814 1551.93 M188.814 1548.22 Q194.624 1548.22 197.68 1552.83 Q200.758 1557.41 200.758 1566.16 Q200.758 1574.89 197.68 1579.5 Q194.624 1584.08 188.814 1584.08 Q183.004 1584.08 179.925 1579.5 Q176.87 1574.89 176.87 1566.16 Q176.87 1557.41 179.925 1552.83 Q183.004 1548.22 188.814 1548.22 Z" fill="#000000" fill-rule="nonzero" fill-opacity="1" /><path clip-path="url(#clip860)" d="M648.297 1551.93 Q644.686 1551.93 642.857 1555.49 Q641.052 1559.03 641.052 1566.16 Q641.052 1573.27 642.857 1576.83 Q644.686 1580.38 648.297 1580.38 Q651.931 1580.38 653.737 1576.83 Q655.565 1573.27 655.565 1566.16 Q655.565 1559.03 653.737 1555.49 Q651.931 1551.93 648.297 1551.93 M648.297 1548.22 Q654.107 1548.22 657.163 1552.83 Q660.241 1557.41 660.241 1566.16 Q660.241 1574.89 657.163 1579.5 Q654.107 1584.08 648.297 1584.08 Q642.487 1584.08 639.408 1579.5 Q636.353 1574.89 636.353 1566.16 Q636.353 1557.41 639.408 1552.83 Q642.487 1548.22 648.297 1548.22 Z" fill="#000000" fill-rule="nonzero" fill-opacity="1" /><path clip-path="url(#clip860)" d="M668.459 1577.53 L673.343 1577.53 L673.343 1583.41 L668.459 1583.41 L668.459 1577.53 Z" fill="#000000" fill-rule="nonzero" fill-opacity="1" /><path clip-path="url(#clip860)" d="M687.556 1579.47 L703.875 1579.47 L703.875 1583.41 L681.931 1583.41 L681.931 1579.47 Q684.593 1576.72 689.176 1572.09 Q693.783 1567.44 694.963 1566.09 Q697.209 1563.57 698.088 1561.83 Q698.991 1560.07 698.991 1558.38 Q698.991 1555.63 697.047 1553.89 Q695.125 1552.16 692.024 1552.16 Q689.824 1552.16 687.371 1552.92 Q684.94 1553.69 682.162 1555.24 L682.162 1550.51 Q684.987 1549.38 687.44 1548.8 Q689.894 1548.22 691.931 1548.22 Q697.301 1548.22 700.496 1550.91 Q703.69 1553.59 703.69 1558.08 Q703.69 1560.21 702.88 1562.13 Q702.093 1564.03 699.986 1566.63 Q699.408 1567.3 696.306 1570.51 Q693.204 1573.71 687.556 1579.47 Z" fill="#000000" fill-rule="nonzero" fill-opacity="1" /><path clip-path="url(#clip860)" d="M713.736 1548.85 L732.093 1548.85 L732.093 1552.78 L718.019 1552.78 L718.019 1561.26 Q719.037 1560.91 720.056 1560.75 Q721.074 1560.56 722.093 1560.56 Q727.88 1560.56 731.259 1563.73 Q734.639 1566.9 734.639 1572.32 Q734.639 1577.9 731.167 1581 Q727.695 1584.08 721.375 1584.08 Q719.199 1584.08 716.931 1583.71 Q714.685 1583.34 712.278 1582.6 L712.278 1577.9 Q714.361 1579.03 716.584 1579.59 Q718.806 1580.14 721.283 1580.14 Q725.287 1580.14 727.625 1578.04 Q729.963 1575.93 729.963 1572.32 Q729.963 1568.71 727.625 1566.6 Q725.287 1564.5 721.283 1564.5 Q719.408 1564.5 717.533 1564.91 Q715.681 1565.33 713.736 1566.21 L713.736 1548.85 Z" fill="#000000" fill-rule="nonzero" fill-opacity="1" /><path clip-path="url(#clip860)" d="M1182.18 1551.93 Q1178.57 1551.93 1176.74 1555.49 Q1174.93 1559.03 1174.93 1566.16 Q1174.93 1573.27 1176.74 1576.83 Q1178.57 1580.38 1182.18 1580.38 Q1185.81 1580.38 1187.62 1576.83 Q1189.45 1573.27 1189.45 1566.16 Q1189.45 1559.03 1187.62 1555.49 Q1185.81 1551.93 1182.18 1551.93 M1182.18 1548.22 Q1187.99 1548.22 1191.04 1552.83 Q1194.12 1557.41 1194.12 1566.16 Q1194.12 1574.89 1191.04 1579.5 Q1187.99 1584.08 1182.18 1584.08 Q1176.37 1584.08 1173.29 1579.5 Q1170.23 1574.89 1170.23 1566.16 Q1170.23 1557.41 1173.29 1552.83 Q1176.37 1548.22 1182.18 1548.22 Z" fill="#000000" fill-rule="nonzero" fill-opacity="1" /><path clip-path="url(#clip860)" d="M1202.34 1577.53 L1207.22 1577.53 L1207.22 1583.41 L1202.34 1583.41 L1202.34 1577.53 Z" fill="#000000" fill-rule="nonzero" fill-opacity="1" /><path clip-path="url(#clip860)" d="M1217.46 1548.85 L1235.81 1548.85 L1235.81 1552.78 L1221.74 1552.78 L1221.74 1561.26 Q1222.76 1560.91 1223.77 1560.75 Q1224.79 1560.56 1225.81 1560.56 Q1231.6 1560.56 1234.98 1563.73 Q1238.36 1566.9 1238.36 1572.32 Q1238.36 1577.9 1234.89 1581 Q1231.41 1584.08 1225.09 1584.08 Q1222.92 1584.08 1220.65 1583.71 Q1218.4 1583.34 1216 1582.6 L1216 1577.9 Q1218.08 1579.03 1220.3 1579.59 Q1222.52 1580.14 1225 1580.14 Q1229.01 1580.14 1231.34 1578.04 Q1233.68 1575.93 1233.68 1572.32 Q1233.68 1568.71 1231.34 1566.6 Q1229.01 1564.5 1225 1564.5 Q1223.13 1564.5 1221.25 1564.91 Q1219.4 1565.33 1217.46 1566.21 L1217.46 1548.85 Z" fill="#000000" fill-rule="nonzero" fill-opacity="1" /><path clip-path="url(#clip860)" d="M1257.57 1551.93 Q1253.96 1551.93 1252.13 1555.49 Q1250.33 1559.03 1250.33 1566.16 Q1250.33 1573.27 1252.13 1576.83 Q1253.96 1580.38 1257.57 1580.38 Q1261.2 1580.38 1263.01 1576.83 Q1264.84 1573.27 1264.84 1566.16 Q1264.84 1559.03 1263.01 1555.49 Q1261.2 1551.93 1257.57 1551.93 M1257.57 1548.22 Q1263.38 1548.22 1266.44 1552.83 Q1269.51 1557.41 1269.51 1566.16 Q1269.51 1574.89 1266.44 1579.5 Q1263.38 1584.08 1257.57 1584.08 Q1251.76 1584.08 1248.68 1579.5 Q1245.63 1574.89 1245.63 1566.16 Q1245.63 1557.41 1248.68 1552.83 Q1251.76 1548.22 1257.57 1548.22 Z" fill="#000000" fill-rule="nonzero" fill-opacity="1" /><path clip-path="url(#clip860)" d="M1717.05 1551.93 Q1713.44 1551.93 1711.61 1555.49 Q1709.81 1559.03 1709.81 1566.16 Q1709.81 1573.27 1711.61 1576.83 Q1713.44 1580.38 1717.05 1580.38 Q1720.69 1580.38 1722.49 1576.83 Q1724.32 1573.27 1724.32 1566.16 Q1724.32 1559.03 1722.49 1555.49 Q1720.69 1551.93 1717.05 1551.93 M1717.05 1548.22 Q1722.86 1548.22 1725.92 1552.83 Q1729 1557.41 1729 1566.16 Q1729 1574.89 1725.92 1579.5 Q1722.86 1584.08 1717.05 1584.08 Q1711.24 1584.08 1708.16 1579.5 Q1705.11 1574.89 1705.11 1566.16 Q1705.11 1557.41 1708.16 1552.83 Q1711.24 1548.22 1717.05 1548.22 Z" fill="#000000" fill-rule="nonzero" fill-opacity="1" /><path clip-path="url(#clip860)" d="M1737.22 1577.53 L1742.1 1577.53 L1742.1 1583.41 L1737.22 1583.41 L1737.22 1577.53 Z" fill="#000000" fill-rule="nonzero" fill-opacity="1" /><path clip-path="url(#clip860)" d="M1751.1 1548.85 L1773.33 1548.85 L1773.33 1550.84 L1760.78 1583.41 L1755.9 1583.41 L1767.7 1552.78 L1751.1 1552.78 L1751.1 1548.85 Z" fill="#000000" fill-rule="nonzero" fill-opacity="1" /><path clip-path="url(#clip860)" d="M1782.49 1548.85 L1800.85 1548.85 L1800.85 1552.78 L1786.78 1552.78 L1786.78 1561.26 Q1787.79 1560.91 1788.81 1560.75 Q1789.83 1560.56 1790.85 1560.56 Q1796.64 1560.56 1800.02 1563.73 Q1803.4 1566.9 1803.4 1572.32 Q1803.4 1577.9 1799.92 1581 Q1796.45 1584.08 1790.13 1584.08 Q1787.96 1584.08 1785.69 1583.71 Q1783.44 1583.34 1781.03 1582.6 L1781.03 1577.9 Q1783.12 1579.03 1785.34 1579.59 Q1787.56 1580.14 1790.04 1580.14 Q1794.04 1580.14 1796.38 1578.04 Q1798.72 1575.93 1798.72 1572.32 Q1798.72 1568.71 1796.38 1566.6 Q1794.04 1564.5 1790.04 1564.5 Q1788.16 1564.5 1786.29 1564.91 Q1784.44 1565.33 1782.49 1566.21 L1782.49 1548.85 Z" fill="#000000" fill-rule="nonzero" fill-opacity="1" /><path clip-path="url(#clip860)" d="M2240.7 1579.47 L2248.34 1579.47 L2248.34 1553.11 L2240.03 1554.77 L2240.03 1550.51 L2248.3 1548.85 L2252.97 1548.85 L2252.97 1579.47 L2260.61 1579.47 L2260.61 1583.41 L2240.7 1583.41 L2240.7 1579.47 Z" fill="#000000" fill-rule="nonzero" fill-opacity="1" /><path clip-path="url(#clip860)" d="M2270.05 1577.53 L2274.94 1577.53 L2274.94 1583.41 L2270.05 1583.41 L2270.05 1577.53 Z" fill="#000000" fill-rule="nonzero" fill-opacity="1" /><path clip-path="url(#clip860)" d="M2295.12 1551.93 Q2291.51 1551.93 2289.68 1555.49 Q2287.88 1559.03 2287.88 1566.16 Q2287.88 1573.27 2289.68 1576.83 Q2291.51 1580.38 2295.12 1580.38 Q2298.76 1580.38 2300.56 1576.83 Q2302.39 1573.27 2302.39 1566.16 Q2302.39 1559.03 2300.56 1555.49 Q2298.76 1551.93 2295.12 1551.93 M2295.12 1548.22 Q2300.93 1548.22 2303.99 1552.83 Q2307.07 1557.41 2307.07 1566.16 Q2307.07 1574.89 2303.99 1579.5 Q2300.93 1584.08 2295.12 1584.08 Q2289.31 1584.08 2286.23 1579.5 Q2283.18 1574.89 2283.18 1566.16 Q2283.18 1557.41 2286.23 1552.83 Q2289.31 1548.22 2295.12 1548.22 Z" fill="#000000" fill-rule="nonzero" fill-opacity="1" /><path clip-path="url(#clip860)" d="M2325.29 1551.93 Q2321.67 1551.93 2319.85 1555.49 Q2318.04 1559.03 2318.04 1566.16 Q2318.04 1573.27 2319.85 1576.83 Q2321.67 1580.38 2325.29 1580.38 Q2328.92 1580.38 2330.73 1576.83 Q2332.55 1573.27 2332.55 1566.16 Q2332.55 1559.03 2330.73 1555.49 Q2328.92 1551.93 2325.29 1551.93 M2325.29 1548.22 Q2331.1 1548.22 2334.15 1552.83 Q2337.23 1557.41 2337.23 1566.16 Q2337.23 1574.89 2334.15 1579.5 Q2331.1 1584.08 2325.29 1584.08 Q2319.48 1584.08 2316.4 1579.5 Q2313.34 1574.89 2313.34 1566.16 Q2313.34 1557.41 2316.4 1552.83 Q2319.48 1548.22 2325.29 1548.22 Z" fill="#000000" fill-rule="nonzero" fill-opacity="1" /><polyline clip-path="url(#clip862)" style="stroke:#000000; stroke-linecap:round; stroke-linejoin:round; stroke-width:2; stroke-opacity:0.1; fill:none" points="86.9921,1479.3 2352.76,1479.3 "/>
<polyline clip-path="url(#clip862)" style="stroke:#000000; stroke-linecap:round; stroke-linejoin:round; stroke-width:2; stroke-opacity:0.1; fill:none" points="86.9921,1226.73 2352.76,1226.73 "/>
<polyline clip-path="url(#clip862)" style="stroke:#000000; stroke-linecap:round; stroke-linejoin:round; stroke-width:2; stroke-opacity:0.1; fill:none" points="86.9921,974.171 2352.76,974.171 "/>
<polyline clip-path="url(#clip862)" style="stroke:#000000; stroke-linecap:round; stroke-linejoin:round; stroke-width:2; stroke-opacity:0.1; fill:none" points="86.9921,721.608 2352.76,721.608 "/>
<polyline clip-path="url(#clip862)" style="stroke:#000000; stroke-linecap:round; stroke-linejoin:round; stroke-width:2; stroke-opacity:0.1; fill:none" points="86.9921,469.044 2352.76,469.044 "/>
<polyline clip-path="url(#clip862)" style="stroke:#000000; stroke-linecap:round; stroke-linejoin:round; stroke-width:2; stroke-opacity:0.1; fill:none" points="86.9921,216.481 2352.76,216.481 "/>
<polyline clip-path="url(#clip860)" style="stroke:#000000; stroke-linecap:round; stroke-linejoin:round; stroke-width:4; stroke-opacity:1; fill:none" points="86.9921,1521.01 86.9921,47.2441 "/>
<polyline clip-path="url(#clip860)" style="stroke:#000000; stroke-linecap:round; stroke-linejoin:round; stroke-width:4; stroke-opacity:1; fill:none" points="86.9921,1479.3 105.89,1479.3 "/>
<polyline clip-path="url(#clip860)" style="stroke:#000000; stroke-linecap:round; stroke-linejoin:round; stroke-width:4; stroke-opacity:1; fill:none" points="86.9921,1226.73 105.89,1226.73 "/>
<polyline clip-path="url(#clip860)" style="stroke:#000000; stroke-linecap:round; stroke-linejoin:round; stroke-width:4; stroke-opacity:1; fill:none" points="86.9921,974.171 105.89,974.171 "/>
<polyline clip-path="url(#clip860)" style="stroke:#000000; stroke-linecap:round; stroke-linejoin:round; stroke-width:4; stroke-opacity:1; fill:none" points="86.9921,721.608 105.89,721.608 "/>
<polyline clip-path="url(#clip860)" style="stroke:#000000; stroke-linecap:round; stroke-linejoin:round; stroke-width:4; stroke-opacity:1; fill:none" points="86.9921,469.044 105.89,469.044 "/>
<polyline clip-path="url(#clip860)" style="stroke:#000000; stroke-linecap:round; stroke-linejoin:round; stroke-width:4; stroke-opacity:1; fill:none" points="86.9921,216.481 105.89,216.481 "/>
<path clip-path="url(#clip860)" d="M10.8708 1479.3 Q10.8708 1482.91 14.4356 1484.74 Q17.9773 1486.54 25.1068 1486.54 Q32.2133 1486.54 35.7781 1484.74 Q39.3197 1482.91 39.3197 1479.3 Q39.3197 1475.66 35.7781 1473.86 Q32.2133 1472.03 25.1068 1472.03 Q17.9773 1472.03 14.4356 1473.86 Q10.8708 1475.66 10.8708 1479.3 M7.16713 1479.3 Q7.16713 1473.49 11.7736 1470.43 Q16.3569 1467.35 25.1068 1467.35 Q33.8337 1467.35 38.4401 1470.43 Q43.0234 1473.49 43.0234 1479.3 Q43.0234 1485.11 38.4401 1488.19 Q33.8337 1491.24 25.1068 1491.24 Q16.3569 1491.24 11.7736 1488.19 Q7.16713 1485.11 7.16713 1479.3 Z" fill="#000000" fill-rule="nonzero" fill-opacity="1" /><path clip-path="url(#clip860)" d="M7.79213 1236.46 L7.79213 1218.1 L11.7273 1218.1 L11.7273 1232.17 L20.1995 1232.17 Q19.8522 1231.16 19.6902 1230.14 Q19.505 1229.12 19.505 1228.1 Q19.505 1222.31 22.6763 1218.93 Q25.8476 1215.55 31.2642 1215.55 Q36.8429 1215.55 39.9447 1219.03 Q43.0234 1222.5 43.0234 1228.82 Q43.0234 1230.99 42.6531 1233.26 Q42.2827 1235.51 41.5419 1237.91 L36.8429 1237.91 Q37.9771 1235.83 38.5327 1233.61 Q39.0883 1231.39 39.0883 1228.91 Q39.0883 1224.91 36.9818 1222.57 Q34.8753 1220.23 31.2642 1220.23 Q27.6531 1220.23 25.5467 1222.57 Q23.4402 1224.91 23.4402 1228.91 Q23.4402 1230.79 23.8569 1232.66 Q24.2735 1234.51 25.1531 1236.46 L7.79213 1236.46 Z" fill="#000000" fill-rule="nonzero" fill-opacity="1" /><path clip-path="url(#clip860)" d="M38.417 999.483 L38.417 991.844 L12.0514 991.844 L13.718 1000.15 L9.45878 1000.15 L7.79213 991.891 L7.79213 987.215 L38.417 987.215 L38.417 979.576 L42.3521 979.576 L42.3521 999.483 L38.417 999.483 Z" fill="#000000" fill-rule="nonzero" fill-opacity="1" /><path clip-path="url(#clip860)" d="M10.8708 960.132 Q10.8708 963.743 14.4356 965.571 Q17.9773 967.377 25.1068 967.377 Q32.2133 967.377 35.7781 965.571 Q39.3197 963.743 39.3197 960.132 Q39.3197 956.497 35.7781 954.692 Q32.2133 952.863 25.1068 952.863 Q17.9773 952.863 14.4356 954.692 Q10.8708 956.497 10.8708 960.132 M7.16713 960.132 Q7.16713 954.321 11.7736 951.266 Q16.3569 948.187 25.1068 948.187 Q33.8337 948.187 38.4401 951.266 Q43.0234 954.321 43.0234 960.132 Q43.0234 965.942 38.4401 969.02 Q33.8337 972.076 25.1068 972.076 Q16.3569 972.076 11.7736 969.02 Q7.16713 965.942 7.16713 960.132 Z" fill="#000000" fill-rule="nonzero" fill-opacity="1" /><path clip-path="url(#clip860)" d="M38.417 746.422 L38.417 738.783 L12.0514 738.783 L13.718 747.093 L9.45878 747.093 L7.79213 738.83 L7.79213 734.154 L38.417 734.154 L38.417 726.515 L42.3521 726.515 L42.3521 746.422 L38.417 746.422 Z" fill="#000000" fill-rule="nonzero" fill-opacity="1" /><path clip-path="url(#clip860)" d="M7.79213 717.024 L7.79213 698.668 L11.7273 698.668 L11.7273 712.742 L20.1995 712.742 Q19.8522 711.723 19.6902 710.705 Q19.505 709.686 19.505 708.668 Q19.505 702.881 22.6763 699.501 Q25.8476 696.122 31.2642 696.122 Q36.8429 696.122 39.9447 699.594 Q43.0234 703.066 43.0234 709.385 Q43.0234 711.561 42.6531 713.83 Q42.2827 716.075 41.5419 718.483 L36.8429 718.483 Q37.9771 716.399 38.5327 714.177 Q39.0883 711.955 39.0883 709.478 Q39.0883 705.473 36.9818 703.135 Q34.8753 700.797 31.2642 700.797 Q27.6531 700.797 25.5467 703.135 Q23.4402 705.473 23.4402 709.478 Q23.4402 711.353 23.8569 713.228 Q24.2735 715.08 25.1531 717.024 L7.79213 717.024 Z" fill="#000000" fill-rule="nonzero" fill-opacity="1" /><path clip-path="url(#clip860)" d="M38.417 490.271 L38.417 473.952 L42.3521 473.952 L42.3521 495.896 L38.417 495.896 Q35.6623 493.234 31.0327 488.651 Q26.38 484.044 25.0374 482.864 Q22.5143 480.618 20.7782 479.739 Q19.0189 478.836 17.3291 478.836 Q14.5745 478.836 12.8384 480.78 Q11.1023 482.701 11.1023 485.803 Q11.1023 488.002 11.8662 490.456 Q12.6301 492.887 14.181 495.664 L9.45878 495.664 Q8.32453 492.84 7.74583 490.387 Q7.16713 487.933 7.16713 485.896 Q7.16713 480.526 9.8523 477.331 Q12.5375 474.137 17.0282 474.137 Q19.1578 474.137 21.0791 474.947 Q22.9772 475.734 25.5698 477.84 Q26.2411 478.419 29.4587 481.521 Q32.6531 484.623 38.417 490.271 Z" fill="#000000" fill-rule="nonzero" fill-opacity="1" /><path clip-path="url(#clip860)" d="M10.8708 454.137 Q10.8708 457.748 14.4356 459.577 Q17.9773 461.382 25.1068 461.382 Q32.2133 461.382 35.7781 459.577 Q39.3197 457.748 39.3197 454.137 Q39.3197 450.503 35.7781 448.697 Q32.2133 446.868 25.1068 446.868 Q17.9773 446.868 14.4356 448.697 Q10.8708 450.503 10.8708 454.137 M7.16713 454.137 Q7.16713 448.327 11.7736 445.271 Q16.3569 442.192 25.1068 442.192 Q33.8337 442.192 38.4401 445.271 Q43.0234 448.327 43.0234 454.137 Q43.0234 459.947 38.4401 463.026 Q33.8337 466.081 25.1068 466.081 Q16.3569 466.081 11.7736 463.026 Q7.16713 459.947 7.16713 454.137 Z" fill="#000000" fill-rule="nonzero" fill-opacity="1" /><path clip-path="url(#clip860)" d="M38.417 237.21 L38.417 220.89 L42.3521 220.89 L42.3521 242.835 L38.417 242.835 Q35.6623 240.173 31.0327 235.589 Q26.38 230.983 25.0374 229.802 Q22.5143 227.557 20.7782 226.677 Q19.0189 225.775 17.3291 225.775 Q14.5745 225.775 12.8384 227.719 Q11.1023 229.64 11.1023 232.742 Q11.1023 234.941 11.8662 237.395 Q12.6301 239.826 14.181 242.603 L9.45878 242.603 Q8.32453 239.779 7.74583 237.326 Q7.16713 234.872 7.16713 232.835 Q7.16713 227.465 9.8523 224.27 Q12.5375 221.076 17.0282 221.076 Q19.1578 221.076 21.0791 221.886 Q22.9772 222.673 25.5698 224.779 Q26.2411 225.358 29.4587 228.46 Q32.6531 231.562 38.417 237.21 Z" fill="#000000" fill-rule="nonzero" fill-opacity="1" /><path clip-path="url(#clip860)" d="M7.79213 211.029 L7.79213 192.673 L11.7273 192.673 L11.7273 206.747 L20.1995 206.747 Q19.8522 205.729 19.6902 204.71 Q19.505 203.692 19.505 202.673 Q19.505 196.886 22.6763 193.506 Q25.8476 190.127 31.2642 190.127 Q36.8429 190.127 39.9447 193.599 Q43.0234 197.071 43.0234 203.391 Q43.0234 205.566 42.6531 207.835 Q42.2827 210.08 41.5419 212.488 L36.8429 212.488 Q37.9771 210.404 38.5327 208.182 Q39.0883 205.96 39.0883 203.483 Q39.0883 199.479 36.9818 197.141 Q34.8753 194.803 31.2642 194.803 Q27.6531 194.803 25.5467 197.141 Q23.4402 199.479 23.4402 203.483 Q23.4402 205.358 23.8569 207.233 Q24.2735 209.085 25.1531 211.029 L7.79213 211.029 Z" fill="#000000" fill-rule="nonzero" fill-opacity="1" /><polyline clip-path="url(#clip862)" style="stroke:#009af9; stroke-linecap:round; stroke-linejoin:round; stroke-width:4; stroke-opacity:1; fill:none" points="151.118,1479.3 165.034,1479.3 293.711,1479.3 371.04,1479.3 436.422,1479.3 507.444,1479.3 572.92,1479.3 643.117,1479.3 724.448,1479.3 796.725,1479.3 860.105,1479.27 877.381,1479.21 894.656,1479.07 911.932,1478.72 929.207,1477.92 937.896,1477.22 946.585,1476.21 955.274,1474.78 963.963,1472.79 972.652,1470.06 981.341,1466.39 985.686,1464.13 990.03,1461.54 994.375,1458.58 998.719,1455.22 1003.52,1450.99 1008.33,1446.16 1013.13,1440.68 1017.93,1434.5 1022.74,1427.55 1027.54,1419.78 1032.34,1411.15 1037.15,1401.6 1041.95,1391.1 1046.75,1379.6 1051.56,1367.09 1056.36,1353.55 1061.16,1338.98 1065.97,1323.38 1070.77,1306.77 1075.57,1289.19 1080.14,1271.62 1084.71,1253.28 1089.29,1234.24 1093.86,1214.6 1103,1173.92 1112.14,1132.2 1121.28,1090.6 1130.42,1050.39 1134.99,1031.23 1139.56,1012.94 1144.13,995.672 1148.7,979.599 1151.08,971.767 1153.45,964.32 1155.83,957.279 1158.2,950.663 1160.58,944.49 1162.96,938.778 1165.33,933.542 1167.71,928.796 1170.08,924.555 1172.46,920.83 1174.84,917.632 1177.21,914.969 1179.59,912.85 1181.96,911.28 1184.34,910.264 1186.72,909.804 1189.09,909.902 1191.47,910.557 1193.84,911.767 1196.22,913.529 1198.6,915.837 1200.97,918.685 1203.35,922.064 1205.72,925.964 1208.1,930.374 1210.48,935.281 1212.85,940.672 1215.23,946.531 1217.61,952.841 1219.98,959.586 1222.36,966.746 1224.73,974.302 1228.73,987.86 1232.73,1002.38 1236.73,1017.75 1240.73,1033.87 1244.73,1050.62 1248.73,1067.89 1252.73,1085.55 1256.74,1103.51 1264.74,1139.86 1272.74,1176.1 1276.74,1193.95 1280.74,1211.5 1284.74,1228.67 1288.74,1245.4 1293.62,1265.14 1298.5,1284.04 1303.39,1302.02 1308.27,1319.03 1313.16,1335.01 1318.04,1349.96 1322.92,1363.85 1327.81,1376.68 1332.69,1388.48 1337.58,1399.27 1342.46,1409.08 1347.34,1417.96 1352.23,1425.94 1357.11,1433.09 1361.99,1439.45 1366.88,1445.09 1371.35,1449.67 1375.83,1453.73 1380.3,1457.32 1384.77,1460.47 1393.72,1465.64 1402.67,1469.54 1411.62,1472.43 1420.57,1474.54 1429.51,1476.05 1438.46,1477.12 1454.99,1478.3 1471.52,1478.86 1488.05,1479.12 1504.57,1479.23 1538.06,1479.29 1571.54,1479.3 1646.6,1479.3 1714.61,1479.3 1792.48,1479.3 1864.58,1479.3 1935.66,1479.3 2004.67,1479.3 2075.42,1479.3 2152.93,1479.3 2265.53,1479.3 2288.63,1479.3 "/>
<polyline clip-path="url(#clip862)" style="stroke:#e26f46; stroke-linecap:round; stroke-linejoin:round; stroke-width:4; stroke-opacity:1; fill:none" points="151.118,1479.3 165.034,1479.3 293.711,1479.3 371.04,1479.3 436.422,1479.3 507.444,1479.3 572.92,1479.3 643.117,1479.3 724.448,1479.3 796.725,1479.3 860.105,1479.3 894.656,1479.3 929.207,1479.3 946.585,1479.3 963.963,1479.29 981.341,1479.23 998.719,1478.6 1003.52,1478.01 1008.33,1477 1013.13,1475.31 1017.93,1472.53 1022.74,1468.11 1027.54,1461.28 1029.94,1456.64 1032.34,1450.98 1034.75,1444.14 1037.15,1435.92 1039.55,1426.12 1041.95,1414.5 1044.35,1400.84 1046.75,1384.9 1049.16,1366.42 1051.56,1345.16 1053.96,1320.89 1056.36,1293.39 1057.56,1278.36 1058.76,1262.46 1059.96,1245.66 1061.16,1227.95 1062.36,1209.31 1063.57,1189.73 1064.77,1169.22 1065.97,1147.76 1067.17,1125.37 1068.37,1102.04 1069.57,1077.8 1070.77,1052.65 1073.17,999.75 1075.57,943.584 1077.86,887.423 1080.14,828.986 1082.43,768.72 1084.71,707.147 1087,644.855 1089.29,582.493 1091.57,520.761 1093.86,460.396 1096.14,402.16 1098.43,346.825 1099.57,320.485 1100.71,295.154 1101.85,270.924 1103,247.883 1104.14,226.117 1105.28,205.708 1106.42,186.733 1107.57,169.265 1108.71,153.37 1109.85,139.112 1110.99,126.545 1112.14,115.72 1113.28,106.678 1114.42,99.4562 1115.56,94.0821 1116.71,90.577 1117.85,88.9544 1118.99,89.2201 1120.14,91.3722 1121.28,95.4013 1122.42,101.29 1123.56,109.014 1124.71,118.542 1125.85,129.834 1126.99,142.844 1128.13,157.521 1129.28,173.806 1130.42,191.635 1131.56,210.937 1132.7,231.64 1133.85,253.663 1134.99,276.923 1136.13,301.336 1137.27,326.811 1138.42,353.257 1139.56,380.581 1141.84,437.484 1144.13,496.756 1146.41,557.641 1148.7,619.401 1151.08,683.792 1153.45,747.634 1155.83,810.259 1158.2,871.073 1160.58,929.565 1162.96,985.314 1165.33,1037.98 1167.71,1087.32 1168.9,1110.68 1170.08,1133.16 1171.27,1154.73 1172.46,1175.4 1173.65,1195.17 1174.84,1214.04 1176.02,1232.01 1177.21,1249.11 1179.59,1280.69 1181.96,1308.94 1184.34,1334.01 1186.72,1356.11 1189.09,1375.45 1191.47,1392.26 1193.84,1406.78 1196.22,1419.22 1198.6,1429.82 1200.97,1438.78 1203.35,1446.31 1205.72,1452.6 1210.48,1462.11 1215.23,1468.48 1219.98,1472.65 1224.73,1475.31 1232.73,1477.69 1240.73,1478.69 1248.73,1479.09 1256.74,1479.23 1272.74,1479.29 1288.74,1479.3 1366.88,1479.3 1438.46,1479.3 1504.57,1479.3 1571.54,1479.3 1646.6,1479.3 1714.61,1479.3 1792.48,1479.3 1864.58,1479.3 1935.66,1479.3 2004.67,1479.3 2075.42,1479.3 2152.93,1479.3 2265.53,1479.3 2288.63,1479.3 "/>
<path clip-path="url(#clip860)" d="M1842.25 251.89 L2277.23 251.89 L2277.23 96.3696 L1842.25 96.3696  Z" fill="#ffffff" fill-rule="evenodd" fill-opacity="1"/>
<polyline clip-path="url(#clip860)" style="stroke:#000000; stroke-linecap:round; stroke-linejoin:round; stroke-width:4; stroke-opacity:1; fill:none" points="1842.25,251.89 2277.23,251.89 2277.23,96.3696 1842.25,96.3696 1842.25,251.89 "/>
<polyline clip-path="url(#clip860)" style="stroke:#009af9; stroke-linecap:round; stroke-linejoin:round; stroke-width:4; stroke-opacity:1; fill:none" points="1867.43,148.21 2018.48,148.21 "/>
<path clip-path="url(#clip860)" d="M2047.94 161.601 L2047.94 175.351 L2043.65 175.351 L2043.65 139.564 L2047.94 139.564 L2047.94 143.499 Q2049.28 141.184 2051.32 140.073 Q2053.38 138.939 2056.22 138.939 Q2060.95 138.939 2063.89 142.689 Q2066.85 146.439 2066.85 152.55 Q2066.85 158.661 2063.89 162.411 Q2060.95 166.161 2056.22 166.161 Q2053.38 166.161 2051.32 165.05 Q2049.28 163.915 2047.94 161.601 M2062.43 152.55 Q2062.43 147.851 2060.48 145.189 Q2058.56 142.504 2055.18 142.504 Q2051.8 142.504 2049.86 145.189 Q2047.94 147.851 2047.94 152.55 Q2047.94 157.249 2049.86 159.934 Q2051.8 162.596 2055.18 162.596 Q2058.56 162.596 2060.48 159.934 Q2062.43 157.249 2062.43 152.55 Z" fill="#000000" fill-rule="nonzero" fill-opacity="1" /><path clip-path="url(#clip860)" d="M2088.93 143.545 Q2088.21 143.129 2087.36 142.943 Q2086.52 142.735 2085.51 142.735 Q2081.89 142.735 2079.95 145.096 Q2078.03 147.434 2078.03 151.832 L2078.03 165.49 L2073.75 165.49 L2073.75 139.564 L2078.03 139.564 L2078.03 143.592 Q2079.37 141.23 2081.52 140.096 Q2083.68 138.939 2086.76 138.939 Q2087.2 138.939 2087.73 139.008 Q2088.26 139.055 2088.91 139.17 L2088.93 143.545 Z" fill="#000000" fill-rule="nonzero" fill-opacity="1" /><path clip-path="url(#clip860)" d="M2093.4 139.564 L2097.66 139.564 L2097.66 165.49 L2093.4 165.49 L2093.4 139.564 M2093.4 129.471 L2097.66 129.471 L2097.66 134.865 L2093.4 134.865 L2093.4 129.471 Z" fill="#000000" fill-rule="nonzero" fill-opacity="1" /><path clip-path="url(#clip860)" d="M2116.62 142.55 Q2113.19 142.55 2111.2 145.235 Q2109.21 147.897 2109.21 152.55 Q2109.21 157.203 2111.18 159.888 Q2113.17 162.55 2116.62 162.55 Q2120.02 162.55 2122.01 159.865 Q2124 157.179 2124 152.55 Q2124 147.943 2122.01 145.258 Q2120.02 142.55 2116.62 142.55 M2116.62 138.939 Q2122.17 138.939 2125.34 142.55 Q2128.51 146.161 2128.51 152.55 Q2128.51 158.916 2125.34 162.55 Q2122.17 166.161 2116.62 166.161 Q2111.04 166.161 2107.87 162.55 Q2104.72 158.916 2104.72 152.55 Q2104.72 146.161 2107.87 142.55 Q2111.04 138.939 2116.62 138.939 Z" fill="#000000" fill-rule="nonzero" fill-opacity="1" /><path clip-path="url(#clip860)" d="M2150.6 143.545 Q2149.88 143.129 2149.02 142.943 Q2148.19 142.735 2147.17 142.735 Q2143.56 142.735 2141.62 145.096 Q2139.69 147.434 2139.69 151.832 L2139.69 165.49 L2135.41 165.49 L2135.41 139.564 L2139.69 139.564 L2139.69 143.592 Q2141.04 141.23 2143.19 140.096 Q2145.34 138.939 2148.42 138.939 Q2148.86 138.939 2149.39 139.008 Q2149.93 139.055 2150.57 139.17 L2150.6 143.545 Z" fill="#000000" fill-rule="nonzero" fill-opacity="1" /><polyline clip-path="url(#clip860)" style="stroke:#e26f46; stroke-linecap:round; stroke-linejoin:round; stroke-width:4; stroke-opacity:1; fill:none" points="1867.43,200.05 2018.48,200.05 "/>
<path clip-path="url(#clip860)" d="M2047.94 213.441 L2047.94 227.191 L2043.65 227.191 L2043.65 191.404 L2047.94 191.404 L2047.94 195.339 Q2049.28 193.024 2051.32 191.913 Q2053.38 190.779 2056.22 190.779 Q2060.95 190.779 2063.89 194.529 Q2066.85 198.279 2066.85 204.39 Q2066.85 210.501 2063.89 214.251 Q2060.95 218.001 2056.22 218.001 Q2053.38 218.001 2051.32 216.89 Q2049.28 215.755 2047.94 213.441 M2062.43 204.39 Q2062.43 199.691 2060.48 197.029 Q2058.56 194.344 2055.18 194.344 Q2051.8 194.344 2049.86 197.029 Q2047.94 199.691 2047.94 204.39 Q2047.94 209.089 2049.86 211.774 Q2051.8 214.436 2055.18 214.436 Q2058.56 214.436 2060.48 211.774 Q2062.43 209.089 2062.43 204.39 Z" fill="#000000" fill-rule="nonzero" fill-opacity="1" /><path clip-path="url(#clip860)" d="M2083.95 194.39 Q2080.53 194.39 2078.54 197.075 Q2076.55 199.737 2076.55 204.39 Q2076.55 209.043 2078.51 211.728 Q2080.51 214.39 2083.95 214.39 Q2087.36 214.39 2089.35 211.705 Q2091.34 209.019 2091.34 204.39 Q2091.34 199.783 2089.35 197.098 Q2087.36 194.39 2083.95 194.39 M2083.95 190.779 Q2089.51 190.779 2092.68 194.39 Q2095.85 198.001 2095.85 204.39 Q2095.85 210.756 2092.68 214.39 Q2089.51 218.001 2083.95 218.001 Q2078.38 218.001 2075.2 214.39 Q2072.06 210.756 2072.06 204.39 Q2072.06 198.001 2075.2 194.39 Q2078.38 190.779 2083.95 190.779 Z" fill="#000000" fill-rule="nonzero" fill-opacity="1" /><path clip-path="url(#clip860)" d="M2119.44 192.168 L2119.44 196.195 Q2117.63 195.269 2115.69 194.807 Q2113.75 194.344 2111.66 194.344 Q2108.49 194.344 2106.89 195.316 Q2105.32 196.288 2105.32 198.232 Q2105.32 199.714 2106.45 200.57 Q2107.59 201.404 2111.01 202.168 L2112.47 202.492 Q2117.01 203.464 2118.91 205.246 Q2120.83 207.006 2120.83 210.177 Q2120.83 213.788 2117.96 215.894 Q2115.11 218.001 2110.11 218.001 Q2108.03 218.001 2105.76 217.584 Q2103.51 217.191 2101.01 216.38 L2101.01 211.982 Q2103.38 213.209 2105.67 213.834 Q2107.96 214.436 2110.2 214.436 Q2113.21 214.436 2114.83 213.418 Q2116.45 212.376 2116.45 210.501 Q2116.45 208.765 2115.27 207.839 Q2114.12 206.913 2110.16 206.056 L2108.68 205.709 Q2104.72 204.876 2102.96 203.163 Q2101.2 201.427 2101.2 198.418 Q2101.2 194.76 2103.79 192.77 Q2106.38 190.779 2111.15 190.779 Q2113.51 190.779 2115.6 191.126 Q2117.68 191.473 2119.44 192.168 Z" fill="#000000" fill-rule="nonzero" fill-opacity="1" /><path clip-path="url(#clip860)" d="M2131.82 184.043 L2131.82 191.404 L2140.6 191.404 L2140.6 194.714 L2131.82 194.714 L2131.82 208.788 Q2131.82 211.959 2132.68 212.862 Q2133.56 213.765 2136.22 213.765 L2140.6 213.765 L2140.6 217.33 L2136.22 217.33 Q2131.29 217.33 2129.42 215.501 Q2127.54 213.649 2127.54 208.788 L2127.54 194.714 L2124.42 194.714 L2124.42 191.404 L2127.54 191.404 L2127.54 184.043 L2131.82 184.043 Z" fill="#000000" fill-rule="nonzero" fill-opacity="1" /><path clip-path="url(#clip860)" d="M2168.38 203.302 L2168.38 205.385 L2148.79 205.385 Q2149.07 209.783 2151.43 212.098 Q2153.82 214.39 2158.05 214.39 Q2160.5 214.39 2162.8 213.788 Q2165.11 213.186 2167.38 211.982 L2167.38 216.01 Q2165.09 216.982 2162.68 217.492 Q2160.27 218.001 2157.8 218.001 Q2151.59 218.001 2147.96 214.39 Q2144.35 210.779 2144.35 204.621 Q2144.35 198.256 2147.77 194.529 Q2151.22 190.779 2157.06 190.779 Q2162.29 190.779 2165.32 194.158 Q2168.38 197.515 2168.38 203.302 M2164.12 202.052 Q2164.07 198.557 2162.15 196.473 Q2160.25 194.39 2157.1 194.39 Q2153.54 194.39 2151.38 196.404 Q2149.25 198.418 2148.93 202.075 L2164.12 202.052 Z" fill="#000000" fill-rule="nonzero" fill-opacity="1" /><path clip-path="url(#clip860)" d="M2190.39 195.385 Q2189.67 194.969 2188.81 194.783 Q2187.98 194.575 2186.96 194.575 Q2183.35 194.575 2181.41 196.936 Q2179.49 199.274 2179.49 203.672 L2179.49 217.33 L2175.2 217.33 L2175.2 191.404 L2179.49 191.404 L2179.49 195.432 Q2180.83 193.07 2182.98 191.936 Q2185.13 190.779 2188.21 190.779 Q2188.65 190.779 2189.19 190.848 Q2189.72 190.895 2190.37 191.01 L2190.39 195.385 Z" fill="#000000" fill-rule="nonzero" fill-opacity="1" /><path clip-path="url(#clip860)" d="M2194.86 191.404 L2199.12 191.404 L2199.12 217.33 L2194.86 217.33 L2194.86 191.404 M2194.86 181.311 L2199.12 181.311 L2199.12 186.705 L2194.86 186.705 L2194.86 181.311 Z" fill="#000000" fill-rule="nonzero" fill-opacity="1" /><path clip-path="url(#clip860)" d="M2218.07 194.39 Q2214.65 194.39 2212.66 197.075 Q2210.67 199.737 2210.67 204.39 Q2210.67 209.043 2212.63 211.728 Q2214.62 214.39 2218.07 214.39 Q2221.48 214.39 2223.47 211.705 Q2225.46 209.019 2225.46 204.39 Q2225.46 199.783 2223.47 197.098 Q2221.48 194.39 2218.07 194.39 M2218.07 190.779 Q2223.63 190.779 2226.8 194.39 Q2229.97 198.001 2229.97 204.39 Q2229.97 210.756 2226.8 214.39 Q2223.63 218.001 2218.07 218.001 Q2212.5 218.001 2209.32 214.39 Q2206.18 210.756 2206.18 204.39 Q2206.18 198.001 2209.32 194.39 Q2212.5 190.779 2218.07 190.779 Z" fill="#000000" fill-rule="nonzero" fill-opacity="1" /><path clip-path="url(#clip860)" d="M2252.06 195.385 Q2251.34 194.969 2250.48 194.783 Q2249.65 194.575 2248.63 194.575 Q2245.02 194.575 2243.07 196.936 Q2241.15 199.274 2241.15 203.672 L2241.15 217.33 L2236.87 217.33 L2236.87 191.404 L2241.15 191.404 L2241.15 195.432 Q2242.5 193.07 2244.65 191.936 Q2246.8 190.779 2249.88 190.779 Q2250.32 190.779 2250.85 190.848 Q2251.38 190.895 2252.03 191.01 L2252.06 195.385 Z" fill="#000000" fill-rule="nonzero" fill-opacity="1" /></svg>
