<?xml version="1.0" encoding="utf-8"?>
<svg xmlns="http://www.w3.org/2000/svg" xmlns:xlink="http://www.w3.org/1999/xlink" width="600" height="400" viewBox="0 0 2400 1600">
<defs>
  <clipPath id="clip030">
    <rect x="0" y="0" width="2400" height="1600"/>
  </clipPath>
</defs>
<path clip-path="url(#clip030)" d="M0 1600 L2400 1600 L2400 0 L0 0  Z" fill="#ffffff" fill-rule="evenodd" fill-opacity="1"/>
<defs>
  <clipPath id="clip031">
    <rect x="480" y="0" width="1681" height="1600"/>
  </clipPath>
</defs>
<path clip-path="url(#clip030)" d="M86.9921 1521.01 L2352.76 1521.01 L2352.76 47.2441 L86.9921 47.2441  Z" fill="#ffffff" fill-rule="evenodd" fill-opacity="1"/>
<defs>
  <clipPath id="clip032">
    <rect x="86" y="47" width="2267" height="1475"/>
  </clipPath>
</defs>
<polyline clip-path="url(#clip032)" style="stroke:#000000; stroke-linecap:round; stroke-linejoin:round; stroke-width:2; stroke-opacity:0.1; fill:none" points="151.118,1521.01 151.118,47.2441 "/>
<polyline clip-path="url(#clip032)" style="stroke:#000000; stroke-linecap:round; stroke-linejoin:round; stroke-width:2; stroke-opacity:0.1; fill:none" points="685.496,1521.01 685.496,47.2441 "/>
<polyline clip-path="url(#clip032)" style="stroke:#000000; stroke-linecap:round; stroke-linejoin:round; stroke-width:2; stroke-opacity:0.1; fill:none" points="1219.87,1521.01 1219.87,47.2441 "/>
<polyline clip-path="url(#clip032)" style="stroke:#000000; stroke-linecap:round; stroke-linejoin:round; stroke-width:2; stroke-opacity:0.1; fill:none" points="1754.25,1521.01 1754.25,47.2441 "/>
<polyline clip-path="url(#clip032)" style="stroke:#000000; stroke-linecap:round; stroke-linejoin:round; stroke-width:2; stroke-opacity:0.1; fill:none" points="2288.63,1521.01 2288.63,47.2441 "/>
<polyline clip-path="url(#clip030)" style="stroke:#000000; stroke-linecap:round; stroke-linejoin:round; stroke-width:4; stroke-opacity:1; fill:none" points="86.9921,1521.01 2352.76,1521.01 "/>
<polyline clip-path="url(#clip030)" style="stroke:#000000; stroke-linecap:round; stroke-linejoin:round; stroke-width:4; stroke-opacity:1; fill:none" points="151.118,1521.01 151.118,1502.11 "/>
<polyline clip-path="url(#clip030)" style="stroke:#000000; stroke-linecap:round; stroke-linejoin:round; stroke-width:4; stroke-opacity:1; fill:none" points="685.496,1521.01 685.496,1502.11 "/>
<polyline clip-path="url(#clip030)" style="stroke:#000000; stroke-linecap:round; stroke-linejoin:round; stroke-width:4; stroke-opacity:1; fill:none" points="1219.87,1521.01 1219.87,1502.11 "/>
<polyline clip-path="url(#clip030)" style="stroke:#000000; stroke-linecap:round; stroke-linejoin:round; stroke-width:4; stroke-opacity:1; fill:none" points="1754.25,1521.01 1754.25,1502.11 "/>
<polyline clip-path="url(#clip030)" style="stroke:#000000; stroke-linecap:round; stroke-linejoin:round; stroke-width:4; stroke-opacity:1; fill:none" points="2288.63,1521.01 2288.63,1502.11 "/>
<path clip-path="url(#clip030)" d="M113.421 1551.93 Q109.81 1551.93 107.981 1555.49 Q106.176 1559.03 106.176 1566.16 Q106.176 1573.27 107.981 1576.83 Q109.81 1580.38 113.421 1580.38 Q117.055 1580.38 118.861 1576.83 Q120.689 1573.27 120.689 1566.16 Q120.689 1559.03 118.861 1555.49 Q117.055 1551.93 113.421 1551.93 M113.421 1548.22 Q119.231 1548.22 122.287 1552.83 Q125.365 1557.41 125.365 1566.16 Q125.365 1574.89 122.287 1579.5 Q119.231 1584.08 113.421 1584.08 Q107.611 1584.08 104.532 1579.5 Q101.477 1574.89 101.477 1566.16 Q101.477 1557.41 104.532 1552.83 Q107.611 1548.22 113.421 1548.22 Z" fill="#000000" fill-rule="nonzero" fill-opacity="1" /><path clip-path="url(#clip030)" d="M133.583 1577.53 L138.467 1577.53 L138.467 1583.41 L133.583 1583.41 L133.583 1577.53 Z" fill="#000000" fill-rule="nonzero" fill-opacity="1" /><path clip-path="url(#clip030)" d="M158.652 1551.93 Q155.041 1551.93 153.212 1555.49 Q151.407 1559.03 151.407 1566.16 Q151.407 1573.27 153.212 1576.83 Q155.041 1580.38 158.652 1580.38 Q162.286 1580.38 164.092 1576.83 Q165.921 1573.27 165.921 1566.16 Q165.921 1559.03 164.092 1555.49 Q162.286 1551.93 158.652 1551.93 M158.652 1548.22 Q164.462 1548.22 167.518 1552.83 Q170.597 1557.41 170.597 1566.16 Q170.597 1574.89 167.518 1579.5 Q164.462 1584.08 158.652 1584.08 Q152.842 1584.08 149.763 1579.5 Q146.708 1574.89 146.708 1566.16 Q146.708 1557.41 149.763 1552.83 Q152.842 1548.22 158.652 1548.22 Z" fill="#000000" fill-rule="nonzero" fill-opacity="1" /><path clip-path="url(#clip030)" d="M188.814 1551.93 Q185.203 1551.93 183.374 1555.49 Q181.569 1559.03 181.569 1566.16 Q181.569 1573.27 183.374 1576.83 Q185.203 1580.38 188.814 1580.38 Q192.448 1580.38 194.254 1576.83 Q196.083 1573.27 196.083 1566.16 Q196.083 1559.03 194.254 1555.49 Q192.448 1551.93 188.814 1551.93 M188.814 1548.22 Q194.624 1548.22 197.68 1552.83 Q200.758 1557.41 200.758 1566.16 Q200.758 1574.89 197.68 1579.5 Q194.624 1584.08 188.814 1584.08 Q183.004 1584.08 179.925 1579.5 Q176.87 1574.89 176.87 1566.16 Q176.87 1557.41 179.925 1552.83 Q183.004 1548.22 188.814 1548.22 Z" fill="#000000" fill-rule="nonzero" fill-opacity="1" /><path clip-path="url(#clip030)" d="M648.297 1551.93 Q644.686 1551.93 642.857 1555.49 Q641.052 1559.03 641.052 1566.16 Q641.052 1573.27 642.857 1576.83 Q644.686 1580.38 648.297 1580.38 Q651.931 1580.38 653.737 1576.83 Q655.565 1573.27 655.565 1566.16 Q655.565 1559.03 653.737 1555.49 Q651.931 1551.93 648.297 1551.93 M648.297 1548.22 Q654.107 1548.22 657.163 1552.83 Q660.241 1557.41 660.241 1566.16 Q660.241 1574.89 657.163 1579.5 Q654.107 1584.08 648.297 1584.08 Q642.487 1584.08 639.408 1579.5 Q636.353 1574.89 636.353 1566.16 Q636.353 1557.41 639.408 1552.83 Q642.487 1548.22 648.297 1548.22 Z" fill="#000000" fill-rule="nonzero" fill-opacity="1" /><path clip-path="url(#clip030)" d="M668.459 1577.53 L673.343 1577.53 L673.343 1583.41 L668.459 1583.41 L668.459 1577.53 Z" fill="#000000" fill-rule="nonzero" fill-opacity="1" /><path clip-path="url(#clip030)" d="M687.556 1579.47 L703.875 1579.47 L703.875 1583.41 L681.931 1583.41 L681.931 1579.47 Q684.593 1576.72 689.176 1572.09 Q693.783 1567.44 694.963 1566.09 Q697.209 1563.57 698.088 1561.83 Q698.991 1560.07 698.991 1558.38 Q698.991 1555.63 697.047 1553.89 Q695.125 1552.16 692.024 1552.16 Q689.824 1552.16 687.371 1552.92 Q684.94 1553.69 682.162 1555.24 L682.162 1550.51 Q684.987 1549.38 687.44 1548.8 Q689.894 1548.22 691.931 1548.22 Q697.301 1548.22 700.496 1550.91 Q703.69 1553.59 703.69 1558.08 Q703.69 1560.21 702.88 1562.13 Q702.093 1564.03 699.986 1566.63 Q699.408 1567.3 696.306 1570.51 Q693.204 1573.71 687.556 1579.47 Z" fill="#000000" fill-rule="nonzero" fill-opacity="1" /><path clip-path="url(#clip030)" d="M713.736 1548.85 L732.093 1548.85 L732.093 1552.78 L718.019 1552.78 L718.019 1561.26 Q719.037 1560.91 720.056 1560.75 Q721.074 1560.56 722.093 1560.56 Q727.88 1560.56 731.259 1563.73 Q734.639 1566.9 734.639 1572.32 Q734.639 1577.9 731.167 1581 Q727.695 1584.08 721.375 1584.08 Q719.199 1584.08 716.931 1583.71 Q714.685 1583.34 712.278 1582.6 L712.278 1577.9 Q714.361 1579.03 716.584 1579.59 Q718.806 1580.14 721.283 1580.14 Q725.287 1580.14 727.625 1578.04 Q729.963 1575.93 729.963 1572.32 Q729.963 1568.71 727.625 1566.6 Q725.287 1564.5 721.283 1564.5 Q719.408 1564.5 717.533 1564.91 Q715.681 1565.33 713.736 1566.21 L713.736 1548.85 Z" fill="#000000" fill-rule="nonzero" fill-opacity="1" /><path clip-path="url(#clip030)" d="M1182.18 1551.93 Q1178.57 1551.93 1176.74 1555.49 Q1174.93 1559.03 1174.93 1566.16 Q1174.93 1573.27 1176.74 1576.83 Q1178.57 1580.38 1182.18 1580.38 Q1185.81 1580.38 1187.62 1576.83 Q1189.45 1573.27 1189.45 1566.16 Q1189.45 1559.03 1187.62 1555.49 Q1185.81 1551.93 1182.18 1551.93 M1182.18 1548.22 Q1187.99 1548.22 1191.04 1552.83 Q1194.12 1557.41 1194.12 1566.16 Q1194.12 1574.89 1191.04 1579.5 Q1187.99 1584.08 1182.18 1584.08 Q1176.37 1584.08 1173.29 1579.5 Q1170.23 1574.89 1170.23 1566.16 Q1170.23 1557.41 1173.29 1552.83 Q1176.37 1548.22 1182.18 1548.22 Z" fill="#000000" fill-rule="nonzero" fill-opacity="1" /><path clip-path="url(#clip030)" d="M1202.34 1577.53 L1207.22 1577.53 L1207.22 1583.41 L1202.34 1583.41 L1202.34 1577.53 Z" fill="#000000" fill-rule="nonzero" fill-opacity="1" /><path clip-path="url(#clip030)" d="M1217.46 1548.85 L1235.81 1548.85 L1235.81 1552.78 L1221.74 1552.78 L1221.74 1561.26 Q1222.76 1560.91 1223.77 1560.75 Q1224.79 1560.56 1225.81 1560.56 Q1231.6 1560.56 1234.98 1563.73 Q1238.36 1566.9 1238.36 1572.32 Q1238.36 1577.9 1234.89 1581 Q1231.41 1584.08 1225.09 1584.08 Q1222.92 1584.08 1220.65 1583.71 Q1218.4 1583.34 1216 1582.6 L1216 1577.9 Q1218.08 1579.03 1220.3 1579.59 Q1222.52 1580.14 1225 1580.14 Q1229.01 1580.14 1231.34 1578.04 Q1233.68 1575.93 1233.68 1572.32 Q1233.68 1568.71 1231.34 1566.6 Q1229.01 1564.5 1225 1564.5 Q1223.13 1564.5 1221.25 1564.91 Q1219.4 1565.33 1217.46 1566.21 L1217.46 1548.85 Z" fill="#000000" fill-rule="nonzero" fill-opacity="1" /><path clip-path="url(#clip030)" d="M1257.57 1551.93 Q1253.96 1551.93 1252.13 1555.49 Q1250.33 1559.03 1250.33 1566.16 Q1250.33 1573.27 1252.13 1576.83 Q1253.96 1580.38 1257.57 1580.38 Q1261.2 1580.38 1263.01 1576.83 Q1264.84 1573.27 1264.84 1566.16 Q1264.84 1559.03 1263.01 1555.49 Q1261.2 1551.93 1257.57 1551.93 M1257.57 1548.22 Q1263.38 1548.22 1266.44 1552.83 Q1269.51 1557.41 1269.51 1566.16 Q1269.51 1574.89 1266.44 1579.5 Q1263.38 1584.08 1257.57 1584.08 Q1251.76 1584.08 1248.68 1579.5 Q1245.63 1574.89 1245.63 1566.16 Q1245.63 1557.41 1248.68 1552.83 Q1251.76 1548.22 1257.57 1548.22 Z" fill="#000000" fill-rule="nonzero" fill-opacity="1" /><path clip-path="url(#clip030)" d="M1717.05 1551.93 Q1713.44 1551.93 1711.61 1555.49 Q1709.81 1559.03 1709.81 1566.16 Q1709.81 1573.27 1711.61 1576.83 Q1713.44 1580.38 1717.05 1580.38 Q1720.69 1580.38 1722.49 1576.83 Q1724.32 1573.27 1724.32 1566.16 Q1724.32 1559.03 1722.49 1555.49 Q1720.69 1551.93 1717.05 1551.93 M1717.05 1548.22 Q1722.86 1548.22 1725.92 1552.83 Q1729 1557.41 1729 1566.16 Q1729 1574.89 1725.92 1579.5 Q1722.86 1584.08 1717.05 1584.08 Q1711.24 1584.08 1708.16 1579.5 Q1705.11 1574.89 1705.11 1566.16 Q1705.11 1557.41 1708.16 1552.83 Q1711.24 1548.22 1717.05 1548.22 Z" fill="#000000" fill-rule="nonzero" fill-opacity="1" /><path clip-path="url(#clip030)" d="M1737.22 1577.53 L1742.1 1577.53 L1742.1 1583.41 L1737.22 1583.41 L1737.22 1577.53 Z" fill="#000000" fill-rule="nonzero" fill-opacity="1" /><path clip-path="url(#clip030)" d="M1751.1 1548.85 L1773.33 1548.85 L1773.33 1550.84 L1760.78 1583.41 L1755.9 1583.41 L1767.7 1552.78 L1751.1 1552.78 L1751.1 1548.85 Z" fill="#000000" fill-rule="nonzero" fill-opacity="1" /><path clip-path="url(#clip030)" d="M1782.49 1548.85 L1800.85 1548.85 L1800.85 1552.78 L1786.78 1552.78 L1786.78 1561.26 Q1787.79 1560.91 1788.81 1560.75 Q1789.83 1560.56 1790.85 1560.56 Q1796.64 1560.56 1800.02 1563.73 Q1803.4 1566.9 1803.4 1572.32 Q1803.4 1577.9 1799.92 1581 Q1796.45 1584.08 1790.13 1584.08 Q1787.96 1584.08 1785.69 1583.71 Q1783.44 1583.34 1781.03 1582.6 L1781.03 1577.9 Q1783.12 1579.03 1785.34 1579.59 Q1787.56 1580.14 1790.04 1580.14 Q1794.04 1580.14 1796.38 1578.04 Q1798.72 1575.93 1798.72 1572.32 Q1798.72 1568.71 1796.38 1566.6 Q1794.04 1564.5 1790.04 1564.5 Q1788.16 1564.5 1786.29 1564.91 Q1784.44 1565.33 1782.49 1566.21 L1782.49 1548.85 Z" fill="#000000" fill-rule="nonzero" fill-opacity="1" /><path clip-path="url(#clip030)" d="M2240.7 1579.47 L2248.34 1579.47 L2248.34 1553.11 L2240.03 1554.77 L2240.03 1550.51 L2248.3 1548.85 L2252.97 1548.85 L2252.97 1579.47 L2260.61 1579.47 L2260.61 1583.41 L2240.7 1583.41 L2240.7 1579.47 Z" fill="#000000" fill-rule="nonzero" fill-opacity="1" /><path clip-path="url(#clip030)" d="M2270.05 1577.53 L2274.94 1577.53 L2274.94 1583.41 L2270.05 1583.41 L2270.05 1577.53 Z" fill="#000000" fill-rule="nonzero" fill-opacity="1" /><path clip-path="url(#clip030)" d="M2295.12 1551.93 Q2291.51 1551.93 2289.68 1555.49 Q2287.88 1559.03 2287.88 1566.16 Q2287.88 1573.27 2289.68 1576.83 Q2291.51 1580.38 2295.12 1580.38 Q2298.76 1580.38 2300.56 1576.83 Q2302.39 1573.27 2302.39 1566.16 Q2302.39 1559.03 2300.56 1555.49 Q2298.76 1551.93 2295.12 1551.93 M2295.12 1548.22 Q2300.93 1548.22 2303.99 1552.83 Q2307.07 1557.41 2307.07 1566.16 Q2307.07 1574.89 2303.99 1579.5 Q2300.93 1584.08 2295.12 1584.08 Q2289.31 1584.08 2286.23 1579.5 Q2283.18 1574.89 2283.18 1566.16 Q2283.18 1557.41 2286.23 1552.83 Q2289.31 1548.22 2295.12 1548.22 Z" fill="#000000" fill-rule="nonzero" fill-opacity="1" /><path clip-path="url(#clip030)" d="M2325.29 1551.93 Q2321.67 1551.93 2319.85 1555.49 Q2318.04 1559.03 2318.04 1566.16 Q2318.04 1573.27 2319.85 1576.83 Q2321.67 1580.38 2325.29 1580.38 Q2328.92 1580.38 2330.73 1576.83 Q2332.55 1573.27 2332.55 1566.16 Q2332.55 1559.03 2330.73 1555.49 Q2328.92 1551.93 2325.29 1551.93 M2325.29 1548.22 Q2331.1 1548.22 2334.15 1552.83 Q2337.23 1557.41 2337.23 1566.16 Q2337.23 1574.89 2334.15 1579.5 Q2331.1 1584.08 2325.29 1584.08 Q2319.48 1584.08 2316.4 1579.5 Q2313.34 1574.89 2313.34 1566.16 Q2313.34 1557.41 2316.4 1552.83 Q2319.48 1548.22 2325.29 1548.22 Z" fill="#000000" fill-rule="nonzero" fill-opacity="1" /><polyline clip-path="url(#clip032)" style="stroke:#000000; stroke-linecap:round; stroke-linejoin:round; stroke-width:2; stroke-opacity:0.1; fill:none" points="86.9921,1479.3 2352.76,1479.3 "/>
<polyline clip-path="url(#clip032)" style="stroke:#000000; stroke-linecap:round; stroke-linejoin:round; stroke-width:2; stroke-opacity:0.1; fill:none" points="86.9921,1202.82 2352.76,1202.82 "/>
<polyline clip-path="url(#clip032)" style="stroke:#000000; stroke-linecap:round; stroke-linejoin:round; stroke-width:2; stroke-opacity:0.1; fill:none" points="86.9921,926.347 2352.76,926.347 "/>
<polyline clip-path="url(#clip032)" style="stroke:#000000; stroke-linecap:round; stroke-linejoin:round; stroke-width:2; stroke-opacity:0.1; fill:none" points="86.9921,649.871 2352.76,649.871 "/>
<polyline clip-path="url(#clip032)" style="stroke:#000000; stroke-linecap:round; stroke-linejoin:round; stroke-width:2; stroke-opacity:0.1; fill:none" points="86.9921,373.396 2352.76,373.396 "/>
<polyline clip-path="url(#clip032)" style="stroke:#000000; stroke-linecap:round; stroke-linejoin:round; stroke-width:2; stroke-opacity:0.1; fill:none" points="86.9921,96.9205 2352.76,96.9205 "/>
<polyline clip-path="url(#clip030)" style="stroke:#000000; stroke-linecap:round; stroke-linejoin:round; stroke-width:4; stroke-opacity:1; fill:none" points="86.9921,1521.01 86.9921,47.2441 "/>
<polyline clip-path="url(#clip030)" style="stroke:#000000; stroke-linecap:round; stroke-linejoin:round; stroke-width:4; stroke-opacity:1; fill:none" points="86.9921,1479.3 105.89,1479.3 "/>
<polyline clip-path="url(#clip030)" style="stroke:#000000; stroke-linecap:round; stroke-linejoin:round; stroke-width:4; stroke-opacity:1; fill:none" points="86.9921,1202.82 105.89,1202.82 "/>
<polyline clip-path="url(#clip030)" style="stroke:#000000; stroke-linecap:round; stroke-linejoin:round; stroke-width:4; stroke-opacity:1; fill:none" points="86.9921,926.347 105.89,926.347 "/>
<polyline clip-path="url(#clip030)" style="stroke:#000000; stroke-linecap:round; stroke-linejoin:round; stroke-width:4; stroke-opacity:1; fill:none" points="86.9921,649.871 105.89,649.871 "/>
<polyline clip-path="url(#clip030)" style="stroke:#000000; stroke-linecap:round; stroke-linejoin:round; stroke-width:4; stroke-opacity:1; fill:none" points="86.9921,373.396 105.89,373.396 "/>
<polyline clip-path="url(#clip030)" style="stroke:#000000; stroke-linecap:round; stroke-linejoin:round; stroke-width:4; stroke-opacity:1; fill:none" points="86.9921,96.9205 105.89,96.9205 "/>
<path clip-path="url(#clip030)" d="M10.8708 1479.3 Q10.8708 1482.91 14.4356 1484.74 Q17.9773 1486.54 25.1068 1486.54 Q32.2133 1486.54 35.7781 1484.74 Q39.3197 1482.91 39.3197 1479.3 Q39.3197 1475.66 35.7781 1473.86 Q32.2133 1472.03 25.1068 1472.03 Q17.9773 1472.03 14.4356 1473.86 Q10.8708 1475.66 10.8708 1479.3 M7.16713 1479.3 Q7.16713 1473.49 11.7736 1470.43 Q16.3569 1467.35 25.1068 1467.35 Q33.8337 1467.35 38.4401 1470.43 Q43.0234 1473.49 43.0234 1479.3 Q43.0234 1485.11 38.4401 1488.19 Q33.8337 1491.24 25.1068 1491.24 Q16.3569 1491.24 11.7736 1488.19 Q7.16713 1485.11 7.16713 1479.3 Z" fill="#000000" fill-rule="nonzero" fill-opacity="1" /><path clip-path="url(#clip030)" d="M7.79213 1212.54 L7.79213 1194.19 L11.7273 1194.19 L11.7273 1208.26 L20.1995 1208.26 Q19.8522 1207.24 19.6902 1206.22 Q19.505 1205.21 19.505 1204.19 Q19.505 1198.4 22.6763 1195.02 Q25.8476 1191.64 31.2642 1191.64 Q36.8429 1191.64 39.9447 1195.11 Q43.0234 1198.59 43.0234 1204.91 Q43.0234 1207.08 42.6531 1209.35 Q42.2827 1211.6 41.5419 1214 L36.8429 1214 Q37.9771 1211.92 38.5327 1209.7 Q39.0883 1207.47 39.0883 1205 Q39.0883 1200.99 36.9818 1198.66 Q34.8753 1196.32 31.2642 1196.32 Q27.6531 1196.32 25.5467 1198.66 Q23.4402 1200.99 23.4402 1205 Q23.4402 1206.87 23.8569 1208.75 Q24.2735 1210.6 25.1531 1212.54 L7.79213 1212.54 Z" fill="#000000" fill-rule="nonzero" fill-opacity="1" /><path clip-path="url(#clip030)" d="M38.417 951.659 L38.417 944.02 L12.0514 944.02 L13.718 952.33 L9.45878 952.33 L7.79213 944.067 L7.79213 939.391 L38.417 939.391 L38.417 931.752 L42.3521 931.752 L42.3521 951.659 L38.417 951.659 Z" fill="#000000" fill-rule="nonzero" fill-opacity="1" /><path clip-path="url(#clip030)" d="M10.8708 912.307 Q10.8708 915.919 14.4356 917.747 Q17.9773 919.553 25.1068 919.553 Q32.2133 919.553 35.7781 917.747 Q39.3197 915.919 39.3197 912.307 Q39.3197 908.673 35.7781 906.868 Q32.2133 905.039 25.1068 905.039 Q17.9773 905.039 14.4356 906.868 Q10.8708 908.673 10.8708 912.307 M7.16713 912.307 Q7.16713 906.497 11.7736 903.442 Q16.3569 900.363 25.1068 900.363 Q33.8337 900.363 38.4401 903.442 Q43.0234 906.497 43.0234 912.307 Q43.0234 918.118 38.4401 921.196 Q33.8337 924.252 25.1068 924.252 Q16.3569 924.252 11.7736 921.196 Q7.16713 918.118 7.16713 912.307 Z" fill="#000000" fill-rule="nonzero" fill-opacity="1" /><path clip-path="url(#clip030)" d="M38.417 674.686 L38.417 667.047 L12.0514 667.047 L13.718 675.357 L9.45878 675.357 L7.79213 667.093 L7.79213 662.418 L38.417 662.418 L38.417 654.779 L42.3521 654.779 L42.3521 674.686 L38.417 674.686 Z" fill="#000000" fill-rule="nonzero" fill-opacity="1" /><path clip-path="url(#clip030)" d="M7.79213 645.288 L7.79213 626.932 L11.7273 626.932 L11.7273 641.006 L20.1995 641.006 Q19.8522 639.987 19.6902 638.969 Q19.505 637.95 19.505 636.932 Q19.505 631.145 22.6763 627.765 Q25.8476 624.385 31.2642 624.385 Q36.8429 624.385 39.9447 627.858 Q43.0234 631.33 43.0234 637.649 Q43.0234 639.825 42.6531 642.094 Q42.2827 644.339 41.5419 646.746 L36.8429 646.746 Q37.9771 644.663 38.5327 642.441 Q39.0883 640.219 39.0883 637.742 Q39.0883 633.737 36.9818 631.399 Q34.8753 629.061 31.2642 629.061 Q27.6531 629.061 25.5467 631.399 Q23.4402 633.737 23.4402 637.742 Q23.4402 639.617 23.8569 641.492 Q24.2735 643.344 25.1531 645.288 L7.79213 645.288 Z" fill="#000000" fill-rule="nonzero" fill-opacity="1" /><path clip-path="url(#clip030)" d="M38.417 394.623 L38.417 378.303 L42.3521 378.303 L42.3521 400.248 L38.417 400.248 Q35.6623 397.586 31.0327 393.002 Q26.38 388.396 25.0374 387.215 Q22.5143 384.97 20.7782 384.09 Q19.0189 383.188 17.3291 383.188 Q14.5745 383.188 12.8384 385.132 Q11.1023 387.053 11.1023 390.155 Q11.1023 392.354 11.8662 394.808 Q12.6301 397.238 14.181 400.016 L9.45878 400.016 Q8.32453 397.192 7.74583 394.738 Q7.16713 392.285 7.16713 390.248 Q7.16713 384.877 9.8523 381.683 Q12.5375 378.489 17.0282 378.489 Q19.1578 378.489 21.0791 379.299 Q22.9772 380.086 25.5698 382.192 Q26.2411 382.771 29.4587 385.873 Q32.6531 388.975 38.417 394.623 Z" fill="#000000" fill-rule="nonzero" fill-opacity="1" /><path clip-path="url(#clip030)" d="M10.8708 358.489 Q10.8708 362.1 14.4356 363.928 Q17.9773 365.734 25.1068 365.734 Q32.2133 365.734 35.7781 363.928 Q39.3197 362.1 39.3197 358.489 Q39.3197 354.854 35.7781 353.049 Q32.2133 351.22 25.1068 351.22 Q17.9773 351.22 14.4356 353.049 Q10.8708 354.854 10.8708 358.489 M7.16713 358.489 Q7.16713 352.678 11.7736 349.623 Q16.3569 346.544 25.1068 346.544 Q33.8337 346.544 38.4401 349.623 Q43.0234 352.678 43.0234 358.489 Q43.0234 364.299 38.4401 367.377 Q33.8337 370.433 25.1068 370.433 Q16.3569 370.433 11.7736 367.377 Q7.16713 364.299 7.16713 358.489 Z" fill="#000000" fill-rule="nonzero" fill-opacity="1" /><path clip-path="url(#clip030)" d="M38.417 117.65 L38.417 101.33 L42.3521 101.33 L42.3521 123.275 L38.417 123.275 Q35.6623 120.613 31.0327 116.029 Q26.38 111.423 25.0374 110.242 Q22.5143 107.997 20.7782 107.117 Q19.0189 106.214 17.3291 106.214 Q14.5745 106.214 12.8384 108.159 Q11.1023 110.08 11.1023 113.182 Q11.1023 115.381 11.8662 117.835 Q12.6301 120.265 14.181 123.043 L9.45878 123.043 Q8.32453 120.219 7.74583 117.765 Q7.16713 115.312 7.16713 113.275 Q7.16713 107.904 9.8523 104.71 Q12.5375 101.515 17.0282 101.515 Q19.1578 101.515 21.0791 102.326 Q22.9772 103.113 25.5698 105.219 Q26.2411 105.798 29.4587 108.9 Q32.6531 112.001 38.417 117.65 Z" fill="#000000" fill-rule="nonzero" fill-opacity="1" /><path clip-path="url(#clip030)" d="M7.79213 91.4692 L7.79213 73.1128 L11.7273 73.1128 L11.7273 87.1868 L20.1995 87.1868 Q19.8522 86.1683 19.6902 85.1498 Q19.505 84.1313 19.505 83.1127 Q19.505 77.3257 22.6763 73.9461 Q25.8476 70.5665 31.2642 70.5665 Q36.8429 70.5665 39.9447 74.0387 Q43.0234 77.5109 43.0234 83.8303 Q43.0234 86.0062 42.6531 88.2747 Q42.2827 90.5201 41.5419 92.9275 L36.8429 92.9275 Q37.9771 90.8442 38.5327 88.622 Q39.0883 86.3998 39.0883 83.9229 Q39.0883 79.9183 36.9818 77.5804 Q34.8753 75.2424 31.2642 75.2424 Q27.6531 75.2424 25.5467 77.5804 Q23.4402 79.9183 23.4402 83.9229 Q23.4402 85.7979 23.8569 87.6729 Q24.2735 89.5247 25.1531 91.4692 L7.79213 91.4692 Z" fill="#000000" fill-rule="nonzero" fill-opacity="1" /><polyline clip-path="url(#clip032)" style="stroke:#009af9; stroke-linecap:round; stroke-linejoin:round; stroke-width:4; stroke-opacity:1; fill:none" points="151.118,1424 165.034,1424 293.711,1424 371.04,1424 436.422,1424 507.444,1424 572.92,1424 643.117,1424 724.448,1424 796.725,1424 860.105,1424 929.207,1424 998.719,1424 1075.57,1424 1148.7,1424 1224.73,1424 1288.74,1424 1366.88,1424 1438.46,1424 1504.57,1424 1571.54,1424 1646.6,1424 1714.61,1424 1792.48,1424 1864.58,1424 1935.66,1424 2004.67,1424 2075.42,1424 2152.93,1424 2265.53,1424 2288.63,1424 "/>
<polyline clip-path="url(#clip032)" style="stroke:#e26f46; stroke-linecap:round; stroke-linejoin:round; stroke-width:4; stroke-opacity:1; fill:none" points="151.118,1479.3 165.034,1479.3 293.711,1479.3 371.04,1479.3 436.422,1479.3 507.444,1479.3 572.92,1479.3 643.117,1479.3 724.448,1479.3 796.725,1479.3 860.105,1479.3 894.656,1479.3 929.207,1479.3 946.585,1479.28 963.963,1479.09 972.652,1478.68 981.341,1477.62 985.686,1476.6 990.03,1475.04 994.375,1472.71 998.719,1469.27 1003.52,1463.67 1008.33,1455.46 1010.73,1450.09 1013.13,1443.7 1015.53,1436.15 1017.93,1427.27 1020.33,1416.89 1022.74,1404.84 1025.14,1390.93 1027.54,1374.97 1029.94,1356.77 1032.34,1336.15 1034.75,1312.93 1037.15,1286.95 1039.55,1258.07 1041.95,1226.17 1044.35,1191.18 1046.75,1153.04 1049.16,1111.77 1051.56,1067.4 1053.96,1020.05 1056.36,969.887 1058.76,917.14 1061.16,862.106 1063.57,805.147 1065.97,746.687 1070.77,627.27 1075.57,508.366 1077.86,453.453 1080.14,400.4 1082.43,349.794 1084.71,302.218 1085.86,279.743 1087,258.236 1088.14,237.762 1089.29,218.386 1090.43,200.167 1091.57,183.164 1092.71,167.431 1093.86,153.019 1095,139.974 1096.14,128.339 1097.28,118.151 1098.43,109.445 1099.57,102.249 1100.71,96.586 1101.85,92.4746 1103,89.9281 1104.14,88.9544 1105.28,89.556 1106.42,91.7302 1107.57,95.4688 1108.71,100.759 1109.85,107.581 1110.99,115.912 1112.14,125.723 1113.28,136.982 1114.42,149.649 1115.56,163.683 1116.71,179.036 1117.85,195.66 1118.99,213.499 1120.14,232.496 1121.28,252.591 1122.42,273.721 1123.56,295.821 1124.71,318.822 1125.85,342.655 1128.13,392.537 1130.42,444.891 1132.7,499.137 1134.99,554.699 1137.27,611.017 1139.56,667.555 1141.84,723.805 1144.13,779.302 1146.41,833.62 1148.7,886.384 1151.08,939.247 1153.45,989.771 1155.83,1037.71 1158.2,1082.87 1160.58,1125.13 1162.96,1164.41 1165.33,1200.68 1167.71,1233.96 1170.08,1264.31 1172.46,1291.81 1174.84,1316.58 1177.21,1338.75 1179.59,1358.49 1181.96,1375.96 1184.34,1391.32 1186.72,1404.77 1189.09,1416.46 1191.47,1426.57 1193.84,1435.27 1196.22,1442.71 1200.97,1454.39 1205.72,1462.67 1210.48,1468.41 1215.23,1472.3 1219.98,1474.89 1224.73,1476.58 1232.73,1478.14 1240.73,1478.83 1248.73,1479.12 1256.74,1479.23 1272.74,1479.29 1288.74,1479.3 1366.88,1479.3 1438.46,1479.3 1504.57,1479.3 1571.54,1479.3 1646.6,1479.3 1714.61,1479.3 1792.48,1479.3 1864.58,1479.3 1935.66,1479.3 2004.67,1479.3 2075.42,1479.3 2152.93,1479.3 2265.53,1479.3 2288.63,1479.3 "/>
<path clip-path="url(#clip030)" d="M1717.02 251.89 L2277.23 251.89 L2277.23 96.3696 L1717.02 96.3696  Z" fill="#ffffff" fill-rule="evenodd" fill-opacity="1"/>
<polyline clip-path="url(#clip030)" style="stroke:#000000; stroke-linecap:round; stroke-linejoin:round; stroke-width:4; stroke-opacity:1; fill:none" points="1717.02,251.89 2277.23,251.89 2277.23,96.3696 1717.02,96.3696 1717.02,251.89 "/>
<polyline clip-path="url(#clip030)" style="stroke:#009af9; stroke-linecap:round; stroke-linejoin:round; stroke-width:4; stroke-opacity:1; fill:none" points="1742.2,148.21 1893.25,148.21 "/>
<path clip-path="url(#clip030)" d="M1923.1 148.985 L1923.1 161.647 L1930.6 161.647 Q1934.37 161.647 1936.18 160.096 Q1938.01 158.522 1938.01 155.304 Q1938.01 152.064 1936.18 150.536 Q1934.37 148.985 1930.6 148.985 L1923.1 148.985 M1923.1 134.772 L1923.1 145.189 L1930.02 145.189 Q1933.45 145.189 1935.11 143.916 Q1936.8 142.619 1936.8 139.98 Q1936.8 137.365 1935.11 136.068 Q1933.45 134.772 1930.02 134.772 L1923.1 134.772 M1918.42 130.93 L1930.37 130.93 Q1935.71 130.93 1938.61 133.152 Q1941.5 135.374 1941.5 139.471 Q1941.5 142.642 1940.02 144.517 Q1938.54 146.392 1935.67 146.855 Q1939.12 147.596 1941.02 149.957 Q1942.94 152.295 1942.94 155.814 Q1942.94 160.443 1939.79 162.966 Q1936.64 165.49 1930.83 165.49 L1918.42 165.49 L1918.42 130.93 Z" fill="#000000" fill-rule="nonzero" fill-opacity="1" /><path clip-path="url(#clip030)" d="M1972.94 151.462 L1972.94 153.545 L1953.35 153.545 Q1953.63 157.943 1955.99 160.258 Q1958.38 162.55 1962.61 162.55 Q1965.07 162.55 1967.36 161.948 Q1969.67 161.346 1971.94 160.142 L1971.94 164.17 Q1969.65 165.142 1967.24 165.652 Q1964.83 166.161 1962.36 166.161 Q1956.15 166.161 1952.52 162.55 Q1948.91 158.939 1948.91 152.781 Q1948.91 146.416 1952.33 142.689 Q1955.78 138.939 1961.62 138.939 Q1966.85 138.939 1969.88 142.318 Q1972.94 145.675 1972.94 151.462 M1968.68 150.212 Q1968.63 146.717 1966.71 144.633 Q1964.81 142.55 1961.66 142.55 Q1958.1 142.55 1955.95 144.564 Q1953.82 146.578 1953.49 150.235 L1968.68 150.212 Z" fill="#000000" fill-rule="nonzero" fill-opacity="1" /><path clip-path="url(#clip030)" d="M1984.14 132.203 L1984.14 139.564 L1992.91 139.564 L1992.91 142.874 L1984.14 142.874 L1984.14 156.948 Q1984.14 160.119 1985 161.022 Q1985.88 161.925 1988.54 161.925 L1992.91 161.925 L1992.91 165.49 L1988.54 165.49 Q1983.61 165.49 1981.73 163.661 Q1979.86 161.809 1979.86 156.948 L1979.86 142.874 L1976.73 142.874 L1976.73 139.564 L1979.86 139.564 L1979.86 132.203 L1984.14 132.203 Z" fill="#000000" fill-rule="nonzero" fill-opacity="1" /><path clip-path="url(#clip030)" d="M2010.3 152.457 Q2005.14 152.457 2003.14 153.638 Q2001.15 154.818 2001.15 157.666 Q2001.15 159.934 2002.64 161.277 Q2004.14 162.596 2006.71 162.596 Q2010.25 162.596 2012.38 160.096 Q2014.53 157.573 2014.53 153.406 L2014.53 152.457 L2010.3 152.457 M2018.79 150.698 L2018.79 165.49 L2014.53 165.49 L2014.53 161.554 Q2013.08 163.915 2010.9 165.05 Q2008.72 166.161 2005.58 166.161 Q2001.59 166.161 1999.23 163.939 Q1996.89 161.693 1996.89 157.943 Q1996.89 153.568 1999.81 151.346 Q2002.75 149.124 2008.56 149.124 L2014.53 149.124 L2014.53 148.707 Q2014.53 145.767 2012.59 144.17 Q2010.67 142.55 2007.17 142.55 Q2004.95 142.55 2002.84 143.082 Q2000.74 143.615 1998.79 144.679 L1998.79 140.744 Q2001.13 139.842 2003.33 139.402 Q2005.53 138.939 2007.61 138.939 Q2013.24 138.939 2016.01 141.855 Q2018.79 144.772 2018.79 150.698 Z" fill="#000000" fill-rule="nonzero" fill-opacity="1" /><path clip-path="url(#clip030)" d="M2037.8 129.518 Q2034.7 134.842 2033.19 140.05 Q2031.69 145.258 2031.69 150.605 Q2031.69 155.953 2033.19 161.207 Q2034.72 166.439 2037.8 171.74 L2034.09 171.74 Q2030.62 166.3 2028.89 161.045 Q2027.17 155.791 2027.17 150.605 Q2027.17 145.443 2028.89 140.212 Q2030.6 134.98 2034.09 129.518 L2037.8 129.518 Z" fill="#000000" fill-rule="nonzero" fill-opacity="1" /><path clip-path="url(#clip030)" d="M2047.47 161.554 L2055.11 161.554 L2055.11 135.189 L2046.8 136.855 L2046.8 132.596 L2055.07 130.93 L2059.74 130.93 L2059.74 161.554 L2067.38 161.554 L2067.38 165.49 L2047.47 165.49 L2047.47 161.554 Z" fill="#000000" fill-rule="nonzero" fill-opacity="1" /><path clip-path="url(#clip030)" d="M2077.31 159.61 L2082.2 159.61 L2082.2 163.591 L2078.4 170.999 L2075.41 170.999 L2077.31 163.591 L2077.31 159.61 Z" fill="#000000" fill-rule="nonzero" fill-opacity="1" /><path clip-path="url(#clip030)" d="M2092.7 161.554 L2100.34 161.554 L2100.34 135.189 L2092.03 136.855 L2092.03 132.596 L2100.3 130.93 L2104.97 130.93 L2104.97 161.554 L2112.61 161.554 L2112.61 165.49 L2092.7 165.49 L2092.7 161.554 Z" fill="#000000" fill-rule="nonzero" fill-opacity="1" /><path clip-path="url(#clip030)" d="M2120.78 129.518 L2124.49 129.518 Q2127.96 134.98 2129.67 140.212 Q2131.41 145.443 2131.41 150.605 Q2131.41 155.791 2129.67 161.045 Q2127.96 166.3 2124.49 171.74 L2120.78 171.74 Q2123.86 166.439 2125.37 161.207 Q2126.89 155.953 2126.89 150.605 Q2126.89 145.258 2125.37 140.05 Q2123.86 134.842 2120.78 129.518 Z" fill="#000000" fill-rule="nonzero" fill-opacity="1" /><polyline clip-path="url(#clip030)" style="stroke:#e26f46; stroke-linecap:round; stroke-linejoin:round; stroke-width:4; stroke-opacity:1; fill:none" points="1742.2,200.05 1893.25,200.05 "/>
<path clip-path="url(#clip030)" d="M1923.1 200.825 L1923.1 213.487 L1930.6 213.487 Q1934.37 213.487 1936.18 211.936 Q1938.01 210.362 1938.01 207.144 Q1938.01 203.904 1936.18 202.376 Q1934.37 200.825 1930.6 200.825 L1923.1 200.825 M1923.1 186.612 L1923.1 197.029 L1930.02 197.029 Q1933.45 197.029 1935.11 195.756 Q1936.8 194.459 1936.8 191.82 Q1936.8 189.205 1935.11 187.908 Q1933.45 186.612 1930.02 186.612 L1923.1 186.612 M1918.42 182.77 L1930.37 182.77 Q1935.71 182.77 1938.61 184.992 Q1941.5 187.214 1941.5 191.311 Q1941.5 194.482 1940.02 196.357 Q1938.54 198.232 1935.67 198.695 Q1939.12 199.436 1941.02 201.797 Q1942.94 204.135 1942.94 207.654 Q1942.94 212.283 1939.79 214.806 Q1936.64 217.33 1930.83 217.33 L1918.42 217.33 L1918.42 182.77 Z" fill="#000000" fill-rule="nonzero" fill-opacity="1" /><path clip-path="url(#clip030)" d="M1972.94 203.302 L1972.94 205.385 L1953.35 205.385 Q1953.63 209.783 1955.99 212.098 Q1958.38 214.39 1962.61 214.39 Q1965.07 214.39 1967.36 213.788 Q1969.67 213.186 1971.94 211.982 L1971.94 216.01 Q1969.65 216.982 1967.24 217.492 Q1964.83 218.001 1962.36 218.001 Q1956.15 218.001 1952.52 214.39 Q1948.91 210.779 1948.91 204.621 Q1948.91 198.256 1952.33 194.529 Q1955.78 190.779 1961.62 190.779 Q1966.85 190.779 1969.88 194.158 Q1972.94 197.515 1972.94 203.302 M1968.68 202.052 Q1968.63 198.557 1966.71 196.473 Q1964.81 194.39 1961.66 194.39 Q1958.1 194.39 1955.95 196.404 Q1953.82 198.418 1953.49 202.075 L1968.68 202.052 Z" fill="#000000" fill-rule="nonzero" fill-opacity="1" /><path clip-path="url(#clip030)" d="M1984.14 184.043 L1984.14 191.404 L1992.91 191.404 L1992.91 194.714 L1984.14 194.714 L1984.14 208.788 Q1984.14 211.959 1985 212.862 Q1985.88 213.765 1988.54 213.765 L1992.91 213.765 L1992.91 217.33 L1988.54 217.33 Q1983.61 217.33 1981.73 215.501 Q1979.86 213.649 1979.86 208.788 L1979.86 194.714 L1976.73 194.714 L1976.73 191.404 L1979.86 191.404 L1979.86 184.043 L1984.14 184.043 Z" fill="#000000" fill-rule="nonzero" fill-opacity="1" /><path clip-path="url(#clip030)" d="M2010.3 204.297 Q2005.14 204.297 2003.14 205.478 Q2001.15 206.658 2001.15 209.506 Q2001.15 211.774 2002.64 213.117 Q2004.14 214.436 2006.71 214.436 Q2010.25 214.436 2012.38 211.936 Q2014.53 209.413 2014.53 205.246 L2014.53 204.297 L2010.3 204.297 M2018.79 202.538 L2018.79 217.33 L2014.53 217.33 L2014.53 213.394 Q2013.08 215.755 2010.9 216.89 Q2008.72 218.001 2005.58 218.001 Q2001.59 218.001 1999.23 215.779 Q1996.89 213.533 1996.89 209.783 Q1996.89 205.408 1999.81 203.186 Q2002.75 200.964 2008.56 200.964 L2014.53 200.964 L2014.53 200.547 Q2014.53 197.607 2012.59 196.01 Q2010.67 194.39 2007.17 194.39 Q2004.95 194.39 2002.84 194.922 Q2000.74 195.455 1998.79 196.519 L1998.79 192.584 Q2001.13 191.682 2003.33 191.242 Q2005.53 190.779 2007.61 190.779 Q2013.24 190.779 2016.01 193.695 Q2018.79 196.612 2018.79 202.538 Z" fill="#000000" fill-rule="nonzero" fill-opacity="1" /><path clip-path="url(#clip030)" d="M2037.8 181.358 Q2034.7 186.682 2033.19 191.89 Q2031.69 197.098 2031.69 202.445 Q2031.69 207.793 2033.19 213.047 Q2034.72 218.279 2037.8 223.58 L2034.09 223.58 Q2030.62 218.14 2028.89 212.885 Q2027.17 207.631 2027.17 202.445 Q2027.17 197.283 2028.89 192.052 Q2030.6 186.82 2034.09 181.358 L2037.8 181.358 Z" fill="#000000" fill-rule="nonzero" fill-opacity="1" /><path clip-path="url(#clip030)" d="M2059.51 186.844 L2047.7 205.293 L2059.51 205.293 L2059.51 186.844 M2058.28 182.77 L2064.16 182.77 L2064.16 205.293 L2069.09 205.293 L2069.09 209.181 L2064.16 209.181 L2064.16 217.33 L2059.51 217.33 L2059.51 209.181 L2043.91 209.181 L2043.91 204.668 L2058.28 182.77 Z" fill="#000000" fill-rule="nonzero" fill-opacity="1" /><path clip-path="url(#clip030)" d="M2090.99 198.695 Q2094.35 199.413 2096.22 201.681 Q2098.12 203.95 2098.12 207.283 Q2098.12 212.399 2094.6 215.2 Q2091.08 218.001 2084.6 218.001 Q2082.43 218.001 2080.11 217.561 Q2077.82 217.144 2075.37 216.288 L2075.37 211.774 Q2077.31 212.908 2079.63 213.487 Q2081.94 214.066 2084.46 214.066 Q2088.86 214.066 2091.15 212.33 Q2093.47 210.593 2093.47 207.283 Q2093.47 204.228 2091.32 202.515 Q2089.19 200.779 2085.37 200.779 L2081.34 200.779 L2081.34 196.936 L2085.55 196.936 Q2089 196.936 2090.83 195.57 Q2092.66 194.182 2092.66 191.589 Q2092.66 188.927 2090.76 187.515 Q2088.88 186.08 2085.37 186.08 Q2083.45 186.08 2081.25 186.496 Q2079.05 186.913 2076.41 187.793 L2076.41 183.626 Q2079.07 182.885 2081.38 182.515 Q2083.72 182.145 2085.78 182.145 Q2091.11 182.145 2094.21 184.575 Q2097.31 186.982 2097.31 191.103 Q2097.31 193.973 2095.67 195.964 Q2094.02 197.932 2090.99 198.695 Z" fill="#000000" fill-rule="nonzero" fill-opacity="1" /><path clip-path="url(#clip030)" d="M2116.99 200.918 Q2113.65 200.918 2111.73 202.7 Q2109.83 204.482 2109.83 207.607 Q2109.83 210.732 2111.73 212.515 Q2113.65 214.297 2116.99 214.297 Q2120.32 214.297 2122.24 212.515 Q2124.16 210.709 2124.16 207.607 Q2124.16 204.482 2122.24 202.7 Q2120.34 200.918 2116.99 200.918 M2112.31 198.927 Q2109.3 198.186 2107.61 196.126 Q2105.94 194.066 2105.94 191.103 Q2105.94 186.959 2108.88 184.552 Q2111.85 182.145 2116.99 182.145 Q2122.15 182.145 2125.09 184.552 Q2128.03 186.959 2128.03 191.103 Q2128.03 194.066 2126.34 196.126 Q2124.67 198.186 2121.69 198.927 Q2125.07 199.714 2126.94 202.006 Q2128.84 204.297 2128.84 207.607 Q2128.84 212.631 2125.76 215.316 Q2122.7 218.001 2116.99 218.001 Q2111.27 218.001 2108.19 215.316 Q2105.13 212.631 2105.13 207.607 Q2105.13 204.297 2107.03 202.006 Q2108.93 199.714 2112.31 198.927 M2110.6 191.543 Q2110.6 194.228 2112.26 195.732 Q2113.95 197.237 2116.99 197.237 Q2120 197.237 2121.69 195.732 Q2123.4 194.228 2123.4 191.543 Q2123.4 188.857 2121.69 187.353 Q2120 185.848 2116.99 185.848 Q2113.95 185.848 2112.26 187.353 Q2110.6 188.857 2110.6 191.543 Z" fill="#000000" fill-rule="nonzero" fill-opacity="1" /><path clip-path="url(#clip030)" d="M2137.63 211.45 L2142.52 211.45 L2142.52 215.431 L2138.72 222.839 L2135.74 222.839 L2137.63 215.431 L2137.63 211.45 Z" fill="#000000" fill-rule="nonzero" fill-opacity="1" /><path clip-path="url(#clip030)" d="M2152.26 182.77 L2170.62 182.77 L2170.62 186.705 L2156.55 186.705 L2156.55 195.177 Q2157.57 194.83 2158.58 194.668 Q2159.6 194.482 2160.62 194.482 Q2166.41 194.482 2169.79 197.654 Q2173.17 200.825 2173.17 206.242 Q2173.17 211.82 2169.69 214.922 Q2166.22 218.001 2159.9 218.001 Q2157.73 218.001 2155.46 217.63 Q2153.21 217.26 2150.81 216.519 L2150.81 211.82 Q2152.89 212.955 2155.11 213.51 Q2157.33 214.066 2159.81 214.066 Q2163.82 214.066 2166.15 211.959 Q2168.49 209.853 2168.49 206.242 Q2168.49 202.631 2166.15 200.524 Q2163.82 198.418 2159.81 198.418 Q2157.94 198.418 2156.06 198.834 Q2154.21 199.251 2152.26 200.131 L2152.26 182.77 Z" fill="#000000" fill-rule="nonzero" fill-opacity="1" /><path clip-path="url(#clip030)" d="M2195.23 186.844 L2183.42 205.293 L2195.23 205.293 L2195.23 186.844 M2194 182.77 L2199.88 182.77 L2199.88 205.293 L2204.81 205.293 L2204.81 209.181 L2199.88 209.181 L2199.88 217.33 L2195.23 217.33 L2195.23 209.181 L2179.63 209.181 L2179.63 204.668 L2194 182.77 Z" fill="#000000" fill-rule="nonzero" fill-opacity="1" /><path clip-path="url(#clip030)" d="M2225.39 186.844 L2213.58 205.293 L2225.39 205.293 L2225.39 186.844 M2224.16 182.77 L2230.04 182.77 L2230.04 205.293 L2234.97 205.293 L2234.97 209.181 L2230.04 209.181 L2230.04 217.33 L2225.39 217.33 L2225.39 209.181 L2209.79 209.181 L2209.79 204.668 L2224.16 182.77 Z" fill="#000000" fill-rule="nonzero" fill-opacity="1" /><path clip-path="url(#clip030)" d="M2241.43 181.358 L2245.13 181.358 Q2248.61 186.82 2250.32 192.052 Q2252.06 197.283 2252.06 202.445 Q2252.06 207.631 2250.32 212.885 Q2248.61 218.14 2245.13 223.58 L2241.43 223.58 Q2244.51 218.279 2246.01 213.047 Q2247.54 207.793 2247.54 202.445 Q2247.54 197.098 2246.01 191.89 Q2244.51 186.682 2241.43 181.358 Z" fill="#000000" fill-rule="nonzero" fill-opacity="1" /></svg>
