<?xml version="1.0" encoding="utf-8"?>
<svg xmlns="http://www.w3.org/2000/svg" xmlns:xlink="http://www.w3.org/1999/xlink" width="600" height="400" viewBox="0 0 2400 1600">
<defs>
  <clipPath id="clip830">
    <rect x="0" y="0" width="2400" height="1600"/>
  </clipPath>
</defs>
<path clip-path="url(#clip830)" d="M0 1600 L2400 1600 L2400 0 L0 0  Z" fill="#ffffff" fill-rule="evenodd" fill-opacity="1"/>
<defs>
  <clipPath id="clip831">
    <rect x="480" y="0" width="1681" height="1600"/>
  </clipPath>
</defs>
<path clip-path="url(#clip830)" d="M86.9921 1521.01 L2352.76 1521.01 L2352.76 47.2441 L86.9921 47.2441  Z" fill="#ffffff" fill-rule="evenodd" fill-opacity="1"/>
<defs>
  <clipPath id="clip832">
    <rect x="86" y="47" width="2267" height="1475"/>
  </clipPath>
</defs>
<polyline clip-path="url(#clip832)" style="stroke:#000000; stroke-linecap:round; stroke-linejoin:round; stroke-width:2; stroke-opacity:0.1; fill:none" points="211.613,1521.01 211.613,47.2441 "/>
<polyline clip-path="url(#clip832)" style="stroke:#000000; stroke-linecap:round; stroke-linejoin:round; stroke-width:2; stroke-opacity:0.1; fill:none" points="521.847,1521.01 521.847,47.2441 "/>
<polyline clip-path="url(#clip832)" style="stroke:#000000; stroke-linecap:round; stroke-linejoin:round; stroke-width:2; stroke-opacity:0.1; fill:none" points="832.081,1521.01 832.081,47.2441 "/>
<polyline clip-path="url(#clip832)" style="stroke:#000000; stroke-linecap:round; stroke-linejoin:round; stroke-width:2; stroke-opacity:0.1; fill:none" points="1142.32,1521.01 1142.32,47.2441 "/>
<polyline clip-path="url(#clip832)" style="stroke:#000000; stroke-linecap:round; stroke-linejoin:round; stroke-width:2; stroke-opacity:0.1; fill:none" points="1452.55,1521.01 1452.55,47.2441 "/>
<polyline clip-path="url(#clip832)" style="stroke:#000000; stroke-linecap:round; stroke-linejoin:round; stroke-width:2; stroke-opacity:0.1; fill:none" points="1762.78,1521.01 1762.78,47.2441 "/>
<polyline clip-path="url(#clip832)" style="stroke:#000000; stroke-linecap:round; stroke-linejoin:round; stroke-width:2; stroke-opacity:0.1; fill:none" points="2073.02,1521.01 2073.02,47.2441 "/>
<polyline clip-path="url(#clip830)" style="stroke:#000000; stroke-linecap:round; stroke-linejoin:round; stroke-width:4; stroke-opacity:1; fill:none" points="86.9921,1521.01 2352.76,1521.01 "/>
<polyline clip-path="url(#clip830)" style="stroke:#000000; stroke-linecap:round; stroke-linejoin:round; stroke-width:4; stroke-opacity:1; fill:none" points="211.613,1521.01 211.613,1502.11 "/>
<polyline clip-path="url(#clip830)" style="stroke:#000000; stroke-linecap:round; stroke-linejoin:round; stroke-width:4; stroke-opacity:1; fill:none" points="521.847,1521.01 521.847,1502.11 "/>
<polyline clip-path="url(#clip830)" style="stroke:#000000; stroke-linecap:round; stroke-linejoin:round; stroke-width:4; stroke-opacity:1; fill:none" points="832.081,1521.01 832.081,1502.11 "/>
<polyline clip-path="url(#clip830)" style="stroke:#000000; stroke-linecap:round; stroke-linejoin:round; stroke-width:4; stroke-opacity:1; fill:none" points="1142.32,1521.01 1142.32,1502.11 "/>
<polyline clip-path="url(#clip830)" style="stroke:#000000; stroke-linecap:round; stroke-linejoin:round; stroke-width:4; stroke-opacity:1; fill:none" points="1452.55,1521.01 1452.55,1502.11 "/>
<polyline clip-path="url(#clip830)" style="stroke:#000000; stroke-linecap:round; stroke-linejoin:round; stroke-width:4; stroke-opacity:1; fill:none" points="1762.78,1521.01 1762.78,1502.11 "/>
<polyline clip-path="url(#clip830)" style="stroke:#000000; stroke-linecap:round; stroke-linejoin:round; stroke-width:4; stroke-opacity:1; fill:none" points="2073.02,1521.01 2073.02,1502.11 "/>
<path clip-path="url(#clip830)" d="M189.796 1551.93 Q186.185 1551.93 184.356 1555.49 Q182.551 1559.03 182.551 1566.16 Q182.551 1573.27 184.356 1576.83 Q186.185 1580.38 189.796 1580.38 Q193.43 1580.38 195.236 1576.83 Q197.065 1573.27 197.065 1566.16 Q197.065 1559.03 195.236 1555.49 Q193.43 1551.93 189.796 1551.93 M189.796 1548.22 Q195.606 1548.22 198.662 1552.83 Q201.741 1557.41 201.741 1566.16 Q201.741 1574.89 198.662 1579.5 Q195.606 1584.08 189.796 1584.08 Q183.986 1584.08 180.907 1579.5 Q177.852 1574.89 177.852 1566.16 Q177.852 1557.41 180.907 1552.83 Q183.986 1548.22 189.796 1548.22 Z" fill="#000000" fill-rule="nonzero" fill-opacity="1" /><path clip-path="url(#clip830)" d="M209.958 1577.53 L214.842 1577.53 L214.842 1583.41 L209.958 1583.41 L209.958 1577.53 Z" fill="#000000" fill-rule="nonzero" fill-opacity="1" /><path clip-path="url(#clip830)" d="M229.055 1579.47 L245.375 1579.47 L245.375 1583.41 L223.43 1583.41 L223.43 1579.47 Q226.092 1576.72 230.676 1572.09 Q235.282 1567.44 236.463 1566.09 Q238.708 1563.57 239.588 1561.83 Q240.49 1560.07 240.49 1558.38 Q240.49 1555.63 238.546 1553.89 Q236.625 1552.16 233.523 1552.16 Q231.324 1552.16 228.87 1552.92 Q226.439 1553.69 223.662 1555.24 L223.662 1550.51 Q226.486 1549.38 228.939 1548.8 Q231.393 1548.22 233.43 1548.22 Q238.801 1548.22 241.995 1550.91 Q245.189 1553.59 245.189 1558.08 Q245.189 1560.21 244.379 1562.13 Q243.592 1564.03 241.486 1566.63 Q240.907 1567.3 237.805 1570.51 Q234.703 1573.71 229.055 1579.47 Z" fill="#000000" fill-rule="nonzero" fill-opacity="1" /><path clip-path="url(#clip830)" d="M498.989 1551.93 Q495.378 1551.93 493.549 1555.49 Q491.743 1559.03 491.743 1566.16 Q491.743 1573.27 493.549 1576.83 Q495.378 1580.38 498.989 1580.38 Q502.623 1580.38 504.428 1576.83 Q506.257 1573.27 506.257 1566.16 Q506.257 1559.03 504.428 1555.49 Q502.623 1551.93 498.989 1551.93 M498.989 1548.22 Q504.799 1548.22 507.854 1552.83 Q510.933 1557.41 510.933 1566.16 Q510.933 1574.89 507.854 1579.5 Q504.799 1584.08 498.989 1584.08 Q493.178 1584.08 490.1 1579.5 Q487.044 1574.89 487.044 1566.16 Q487.044 1557.41 490.1 1552.83 Q493.178 1548.22 498.989 1548.22 Z" fill="#000000" fill-rule="nonzero" fill-opacity="1" /><path clip-path="url(#clip830)" d="M519.151 1577.53 L524.035 1577.53 L524.035 1583.41 L519.151 1583.41 L519.151 1577.53 Z" fill="#000000" fill-rule="nonzero" fill-opacity="1" /><path clip-path="url(#clip830)" d="M547.067 1552.92 L535.262 1571.37 L547.067 1571.37 L547.067 1552.92 M545.84 1548.85 L551.72 1548.85 L551.72 1571.37 L556.65 1571.37 L556.65 1575.26 L551.72 1575.26 L551.72 1583.41 L547.067 1583.41 L547.067 1575.26 L531.465 1575.26 L531.465 1570.75 L545.84 1548.85 Z" fill="#000000" fill-rule="nonzero" fill-opacity="1" /><path clip-path="url(#clip830)" d="M809.385 1551.93 Q805.774 1551.93 803.945 1555.49 Q802.139 1559.03 802.139 1566.16 Q802.139 1573.27 803.945 1576.83 Q805.774 1580.38 809.385 1580.38 Q813.019 1580.38 814.825 1576.83 Q816.653 1573.27 816.653 1566.16 Q816.653 1559.03 814.825 1555.49 Q813.019 1551.93 809.385 1551.93 M809.385 1548.22 Q815.195 1548.22 818.25 1552.83 Q821.329 1557.41 821.329 1566.16 Q821.329 1574.89 818.25 1579.5 Q815.195 1584.08 809.385 1584.08 Q803.575 1584.08 800.496 1579.5 Q797.44 1574.89 797.44 1566.16 Q797.44 1557.41 800.496 1552.83 Q803.575 1548.22 809.385 1548.22 Z" fill="#000000" fill-rule="nonzero" fill-opacity="1" /><path clip-path="url(#clip830)" d="M829.547 1577.53 L834.431 1577.53 L834.431 1583.41 L829.547 1583.41 L829.547 1577.53 Z" fill="#000000" fill-rule="nonzero" fill-opacity="1" /><path clip-path="url(#clip830)" d="M855.195 1564.26 Q852.047 1564.26 850.195 1566.42 Q848.366 1568.57 848.366 1572.32 Q848.366 1576.05 850.195 1578.22 Q852.047 1580.38 855.195 1580.38 Q858.343 1580.38 860.172 1578.22 Q862.023 1576.05 862.023 1572.32 Q862.023 1568.57 860.172 1566.42 Q858.343 1564.26 855.195 1564.26 M864.477 1549.61 L864.477 1553.87 Q862.718 1553.04 860.912 1552.6 Q859.13 1552.16 857.371 1552.16 Q852.741 1552.16 850.287 1555.28 Q847.857 1558.41 847.51 1564.73 Q848.875 1562.71 850.935 1561.65 Q852.996 1560.56 855.472 1560.56 Q860.681 1560.56 863.69 1563.73 Q866.722 1566.88 866.722 1572.32 Q866.722 1577.64 863.574 1580.86 Q860.426 1584.08 855.195 1584.08 Q849.199 1584.08 846.028 1579.5 Q842.857 1574.89 842.857 1566.16 Q842.857 1557.97 846.746 1553.11 Q850.635 1548.22 857.185 1548.22 Q858.945 1548.22 860.727 1548.57 Q862.533 1548.92 864.477 1549.61 Z" fill="#000000" fill-rule="nonzero" fill-opacity="1" /><path clip-path="url(#clip830)" d="M1119.75 1551.93 Q1116.14 1551.93 1114.31 1555.49 Q1112.5 1559.03 1112.5 1566.16 Q1112.5 1573.27 1114.31 1576.83 Q1116.14 1580.38 1119.75 1580.38 Q1123.38 1580.38 1125.19 1576.83 Q1127.01 1573.27 1127.01 1566.16 Q1127.01 1559.03 1125.19 1555.49 Q1123.38 1551.93 1119.75 1551.93 M1119.75 1548.22 Q1125.56 1548.22 1128.61 1552.83 Q1131.69 1557.41 1131.69 1566.16 Q1131.69 1574.89 1128.61 1579.5 Q1125.56 1584.08 1119.75 1584.08 Q1113.94 1584.08 1110.86 1579.5 Q1107.8 1574.89 1107.8 1566.16 Q1107.8 1557.41 1110.86 1552.83 Q1113.94 1548.22 1119.75 1548.22 Z" fill="#000000" fill-rule="nonzero" fill-opacity="1" /><path clip-path="url(#clip830)" d="M1139.91 1577.53 L1144.79 1577.53 L1144.79 1583.41 L1139.91 1583.41 L1139.91 1577.53 Z" fill="#000000" fill-rule="nonzero" fill-opacity="1" /><path clip-path="url(#clip830)" d="M1164.98 1567 Q1161.64 1567 1159.72 1568.78 Q1157.82 1570.56 1157.82 1573.69 Q1157.82 1576.81 1159.72 1578.59 Q1161.64 1580.38 1164.98 1580.38 Q1168.31 1580.38 1170.23 1578.59 Q1172.15 1576.79 1172.15 1573.69 Q1172.15 1570.56 1170.23 1568.78 Q1168.33 1567 1164.98 1567 M1160.3 1565.01 Q1157.29 1564.26 1155.6 1562.2 Q1153.94 1560.14 1153.94 1557.18 Q1153.94 1553.04 1156.88 1550.63 Q1159.84 1548.22 1164.98 1548.22 Q1170.14 1548.22 1173.08 1550.63 Q1176.02 1553.04 1176.02 1557.18 Q1176.02 1560.14 1174.33 1562.2 Q1172.66 1564.26 1169.68 1565.01 Q1173.06 1565.79 1174.93 1568.08 Q1176.83 1570.38 1176.83 1573.69 Q1176.83 1578.71 1173.75 1581.39 Q1170.69 1584.08 1164.98 1584.08 Q1159.26 1584.08 1156.18 1581.39 Q1153.13 1578.71 1153.13 1573.69 Q1153.13 1570.38 1155.02 1568.08 Q1156.92 1565.79 1160.3 1565.01 M1158.59 1557.62 Q1158.59 1560.31 1160.26 1561.81 Q1161.95 1563.32 1164.98 1563.32 Q1167.99 1563.32 1169.68 1561.81 Q1171.39 1560.31 1171.39 1557.62 Q1171.39 1554.94 1169.68 1553.43 Q1167.99 1551.93 1164.98 1551.93 Q1161.95 1551.93 1160.26 1553.43 Q1158.59 1554.94 1158.59 1557.62 Z" fill="#000000" fill-rule="nonzero" fill-opacity="1" /><path clip-path="url(#clip830)" d="M1419.7 1579.47 L1427.34 1579.47 L1427.34 1553.11 L1419.03 1554.77 L1419.03 1550.51 L1427.3 1548.85 L1431.97 1548.85 L1431.97 1579.47 L1439.61 1579.47 L1439.61 1583.41 L1419.7 1583.41 L1419.7 1579.47 Z" fill="#000000" fill-rule="nonzero" fill-opacity="1" /><path clip-path="url(#clip830)" d="M1449.05 1577.53 L1453.94 1577.53 L1453.94 1583.41 L1449.05 1583.41 L1449.05 1577.53 Z" fill="#000000" fill-rule="nonzero" fill-opacity="1" /><path clip-path="url(#clip830)" d="M1474.12 1551.93 Q1470.51 1551.93 1468.68 1555.49 Q1466.88 1559.03 1466.88 1566.16 Q1466.88 1573.27 1468.68 1576.83 Q1470.51 1580.38 1474.12 1580.38 Q1477.76 1580.38 1479.56 1576.83 Q1481.39 1573.27 1481.39 1566.16 Q1481.39 1559.03 1479.56 1555.49 Q1477.76 1551.93 1474.12 1551.93 M1474.12 1548.22 Q1479.93 1548.22 1482.99 1552.83 Q1486.07 1557.41 1486.07 1566.16 Q1486.07 1574.89 1482.99 1579.5 Q1479.93 1584.08 1474.12 1584.08 Q1468.31 1584.08 1465.23 1579.5 Q1462.18 1574.89 1462.18 1566.16 Q1462.18 1557.41 1465.23 1552.83 Q1468.31 1548.22 1474.12 1548.22 Z" fill="#000000" fill-rule="nonzero" fill-opacity="1" /><path clip-path="url(#clip830)" d="M1730.74 1579.47 L1738.37 1579.47 L1738.37 1553.11 L1730.06 1554.77 L1730.06 1550.51 L1738.33 1548.85 L1743 1548.85 L1743 1579.47 L1750.64 1579.47 L1750.64 1583.41 L1730.74 1583.41 L1730.74 1579.47 Z" fill="#000000" fill-rule="nonzero" fill-opacity="1" /><path clip-path="url(#clip830)" d="M1760.09 1577.53 L1764.97 1577.53 L1764.97 1583.41 L1760.09 1583.41 L1760.09 1577.53 Z" fill="#000000" fill-rule="nonzero" fill-opacity="1" /><path clip-path="url(#clip830)" d="M1779.18 1579.47 L1795.5 1579.47 L1795.5 1583.41 L1773.56 1583.41 L1773.56 1579.47 Q1776.22 1576.72 1780.8 1572.09 Q1785.41 1567.44 1786.59 1566.09 Q1788.84 1563.57 1789.72 1561.83 Q1790.62 1560.07 1790.62 1558.38 Q1790.62 1555.63 1788.67 1553.89 Q1786.75 1552.16 1783.65 1552.16 Q1781.45 1552.16 1779 1552.92 Q1776.57 1553.69 1773.79 1555.24 L1773.79 1550.51 Q1776.61 1549.38 1779.07 1548.8 Q1781.52 1548.22 1783.56 1548.22 Q1788.93 1548.22 1792.12 1550.91 Q1795.32 1553.59 1795.32 1558.08 Q1795.32 1560.21 1794.51 1562.13 Q1793.72 1564.03 1791.61 1566.63 Q1791.04 1567.3 1787.93 1570.51 Q1784.83 1573.71 1779.18 1579.47 Z" fill="#000000" fill-rule="nonzero" fill-opacity="1" /><path clip-path="url(#clip830)" d="M2039.93 1579.47 L2047.57 1579.47 L2047.57 1553.11 L2039.26 1554.77 L2039.26 1550.51 L2047.52 1548.85 L2052.2 1548.85 L2052.2 1579.47 L2059.84 1579.47 L2059.84 1583.41 L2039.93 1583.41 L2039.93 1579.47 Z" fill="#000000" fill-rule="nonzero" fill-opacity="1" /><path clip-path="url(#clip830)" d="M2069.28 1577.53 L2074.16 1577.53 L2074.16 1583.41 L2069.28 1583.41 L2069.28 1577.53 Z" fill="#000000" fill-rule="nonzero" fill-opacity="1" /><path clip-path="url(#clip830)" d="M2097.2 1552.92 L2085.39 1571.37 L2097.2 1571.37 L2097.2 1552.92 M2095.97 1548.85 L2101.85 1548.85 L2101.85 1571.37 L2106.78 1571.37 L2106.78 1575.26 L2101.85 1575.26 L2101.85 1583.41 L2097.2 1583.41 L2097.2 1575.26 L2081.59 1575.26 L2081.59 1570.75 L2095.97 1548.85 Z" fill="#000000" fill-rule="nonzero" fill-opacity="1" /><polyline clip-path="url(#clip832)" style="stroke:#000000; stroke-linecap:round; stroke-linejoin:round; stroke-width:2; stroke-opacity:0.1; fill:none" points="86.9921,1521.01 2352.76,1521.01 "/>
<polyline clip-path="url(#clip832)" style="stroke:#000000; stroke-linecap:round; stroke-linejoin:round; stroke-width:2; stroke-opacity:0.1; fill:none" points="86.9921,1308.04 2352.76,1308.04 "/>
<polyline clip-path="url(#clip832)" style="stroke:#000000; stroke-linecap:round; stroke-linejoin:round; stroke-width:2; stroke-opacity:0.1; fill:none" points="86.9921,1095.06 2352.76,1095.06 "/>
<polyline clip-path="url(#clip832)" style="stroke:#000000; stroke-linecap:round; stroke-linejoin:round; stroke-width:2; stroke-opacity:0.1; fill:none" points="86.9921,882.093 2352.76,882.093 "/>
<polyline clip-path="url(#clip832)" style="stroke:#000000; stroke-linecap:round; stroke-linejoin:round; stroke-width:2; stroke-opacity:0.1; fill:none" points="86.9921,669.121 2352.76,669.121 "/>
<polyline clip-path="url(#clip832)" style="stroke:#000000; stroke-linecap:round; stroke-linejoin:round; stroke-width:2; stroke-opacity:0.1; fill:none" points="86.9921,456.15 2352.76,456.15 "/>
<polyline clip-path="url(#clip832)" style="stroke:#000000; stroke-linecap:round; stroke-linejoin:round; stroke-width:2; stroke-opacity:0.1; fill:none" points="86.9921,243.178 2352.76,243.178 "/>
<polyline clip-path="url(#clip830)" style="stroke:#000000; stroke-linecap:round; stroke-linejoin:round; stroke-width:4; stroke-opacity:1; fill:none" points="86.9921,1521.01 86.9921,47.2441 "/>
<polyline clip-path="url(#clip830)" style="stroke:#000000; stroke-linecap:round; stroke-linejoin:round; stroke-width:4; stroke-opacity:1; fill:none" points="86.9921,1521.01 105.89,1521.01 "/>
<polyline clip-path="url(#clip830)" style="stroke:#000000; stroke-linecap:round; stroke-linejoin:round; stroke-width:4; stroke-opacity:1; fill:none" points="86.9921,1308.04 105.89,1308.04 "/>
<polyline clip-path="url(#clip830)" style="stroke:#000000; stroke-linecap:round; stroke-linejoin:round; stroke-width:4; stroke-opacity:1; fill:none" points="86.9921,1095.06 105.89,1095.06 "/>
<polyline clip-path="url(#clip830)" style="stroke:#000000; stroke-linecap:round; stroke-linejoin:round; stroke-width:4; stroke-opacity:1; fill:none" points="86.9921,882.093 105.89,882.093 "/>
<polyline clip-path="url(#clip830)" style="stroke:#000000; stroke-linecap:round; stroke-linejoin:round; stroke-width:4; stroke-opacity:1; fill:none" points="86.9921,669.121 105.89,669.121 "/>
<polyline clip-path="url(#clip830)" style="stroke:#000000; stroke-linecap:round; stroke-linejoin:round; stroke-width:4; stroke-opacity:1; fill:none" points="86.9921,456.15 105.89,456.15 "/>
<polyline clip-path="url(#clip830)" style="stroke:#000000; stroke-linecap:round; stroke-linejoin:round; stroke-width:4; stroke-opacity:1; fill:none" points="86.9921,243.178 105.89,243.178 "/>
<path clip-path="url(#clip830)" d="M10.8708 1521.01 Q10.8708 1524.62 14.4356 1526.45 Q17.9773 1528.25 25.1068 1528.25 Q32.2133 1528.25 35.7781 1526.45 Q39.3197 1524.62 39.3197 1521.01 Q39.3197 1517.37 35.7781 1515.57 Q32.2133 1513.74 25.1068 1513.74 Q17.9773 1513.74 14.4356 1515.57 Q10.8708 1517.37 10.8708 1521.01 M7.16713 1521.01 Q7.16713 1515.2 11.7736 1512.14 Q16.3569 1509.06 25.1068 1509.06 Q33.8337 1509.06 38.4401 1512.14 Q43.0234 1515.2 43.0234 1521.01 Q43.0234 1526.82 38.4401 1529.9 Q33.8337 1532.95 25.1068 1532.95 Q16.3569 1532.95 11.7736 1529.9 Q7.16713 1526.82 7.16713 1521.01 Z" fill="#000000" fill-rule="nonzero" fill-opacity="1" /><path clip-path="url(#clip830)" d="M38.417 1348.43 L38.417 1340.79 L12.0514 1340.79 L13.718 1349.1 L9.45878 1349.1 L7.79213 1340.84 L7.79213 1336.16 L38.417 1336.16 L38.417 1328.52 L42.3521 1328.52 L42.3521 1348.43 L38.417 1348.43 Z" fill="#000000" fill-rule="nonzero" fill-opacity="1" /><path clip-path="url(#clip830)" d="M10.8708 1309.08 Q10.8708 1312.69 14.4356 1314.52 Q17.9773 1316.32 25.1068 1316.32 Q32.2133 1316.32 35.7781 1314.52 Q39.3197 1312.69 39.3197 1309.08 Q39.3197 1305.44 35.7781 1303.64 Q32.2133 1301.81 25.1068 1301.81 Q17.9773 1301.81 14.4356 1303.64 Q10.8708 1305.44 10.8708 1309.08 M7.16713 1309.08 Q7.16713 1303.27 11.7736 1300.21 Q16.3569 1297.13 25.1068 1297.13 Q33.8337 1297.13 38.4401 1300.21 Q43.0234 1303.27 43.0234 1309.08 Q43.0234 1314.89 38.4401 1317.97 Q33.8337 1321.02 25.1068 1321.02 Q16.3569 1321.02 11.7736 1317.97 Q7.16713 1314.89 7.16713 1309.08 Z" fill="#000000" fill-rule="nonzero" fill-opacity="1" /><path clip-path="url(#clip830)" d="M10.8708 1278.92 Q10.8708 1282.53 14.4356 1284.36 Q17.9773 1286.16 25.1068 1286.16 Q32.2133 1286.16 35.7781 1284.36 Q39.3197 1282.53 39.3197 1278.92 Q39.3197 1275.28 35.7781 1273.48 Q32.2133 1271.65 25.1068 1271.65 Q17.9773 1271.65 14.4356 1273.48 Q10.8708 1275.28 10.8708 1278.92 M7.16713 1278.92 Q7.16713 1273.11 11.7736 1270.05 Q16.3569 1266.97 25.1068 1266.97 Q33.8337 1266.97 38.4401 1270.05 Q43.0234 1273.11 43.0234 1278.92 Q43.0234 1284.73 38.4401 1287.8 Q33.8337 1290.86 25.1068 1290.86 Q16.3569 1290.86 11.7736 1287.8 Q7.16713 1284.73 7.16713 1278.92 Z" fill="#000000" fill-rule="nonzero" fill-opacity="1" /><path clip-path="url(#clip830)" d="M38.417 1131.37 L38.417 1115.05 L42.3521 1115.05 L42.3521 1137 L38.417 1137 Q35.6623 1134.34 31.0327 1129.75 Q26.38 1125.15 25.0374 1123.96 Q22.5143 1121.72 20.7782 1120.84 Q19.0189 1119.94 17.3291 1119.94 Q14.5745 1119.94 12.8384 1121.88 Q11.1023 1123.8 11.1023 1126.9 Q11.1023 1129.1 11.8662 1131.56 Q12.6301 1133.99 14.181 1136.77 L9.45878 1136.77 Q8.32453 1133.94 7.74583 1131.49 Q7.16713 1129.03 7.16713 1127 Q7.16713 1121.63 9.8523 1118.43 Q12.5375 1115.24 17.0282 1115.24 Q19.1578 1115.24 21.0791 1116.05 Q22.9772 1116.84 25.5698 1118.94 Q26.2411 1119.52 29.4587 1122.62 Q32.6531 1125.72 38.417 1131.37 Z" fill="#000000" fill-rule="nonzero" fill-opacity="1" /><path clip-path="url(#clip830)" d="M10.8708 1095.24 Q10.8708 1098.85 14.4356 1100.68 Q17.9773 1102.48 25.1068 1102.48 Q32.2133 1102.48 35.7781 1100.68 Q39.3197 1098.85 39.3197 1095.24 Q39.3197 1091.6 35.7781 1089.8 Q32.2133 1087.97 25.1068 1087.97 Q17.9773 1087.97 14.4356 1089.8 Q10.8708 1091.6 10.8708 1095.24 M7.16713 1095.24 Q7.16713 1089.43 11.7736 1086.37 Q16.3569 1083.29 25.1068 1083.29 Q33.8337 1083.29 38.4401 1086.37 Q43.0234 1089.43 43.0234 1095.24 Q43.0234 1101.05 38.4401 1104.13 Q33.8337 1107.18 25.1068 1107.18 Q16.3569 1107.18 11.7736 1104.13 Q7.16713 1101.05 7.16713 1095.24 Z" fill="#000000" fill-rule="nonzero" fill-opacity="1" /><path clip-path="url(#clip830)" d="M10.8708 1065.08 Q10.8708 1068.69 14.4356 1070.52 Q17.9773 1072.32 25.1068 1072.32 Q32.2133 1072.32 35.7781 1070.52 Q39.3197 1068.69 39.3197 1065.08 Q39.3197 1061.44 35.7781 1059.64 Q32.2133 1057.81 25.1068 1057.81 Q17.9773 1057.81 14.4356 1059.64 Q10.8708 1061.44 10.8708 1065.08 M7.16713 1065.08 Q7.16713 1059.27 11.7736 1056.21 Q16.3569 1053.13 25.1068 1053.13 Q33.8337 1053.13 38.4401 1056.21 Q43.0234 1059.27 43.0234 1065.08 Q43.0234 1070.89 38.4401 1073.97 Q33.8337 1077.02 25.1068 1077.02 Q16.3569 1077.02 11.7736 1073.97 Q7.16713 1070.89 7.16713 1065.08 Z" fill="#000000" fill-rule="nonzero" fill-opacity="1" /><path clip-path="url(#clip830)" d="M23.718 908.331 Q24.4356 904.975 26.7041 903.1 Q28.9726 901.202 32.3059 901.202 Q37.4216 901.202 40.2225 904.72 Q43.0234 908.239 43.0234 914.72 Q43.0234 916.896 42.5836 919.211 Q42.1669 921.502 41.3105 923.956 L36.7966 923.956 Q37.9309 922.012 38.5096 919.697 Q39.0883 917.382 39.0883 914.859 Q39.0883 910.461 37.3522 908.169 Q35.6161 905.854 32.3059 905.854 Q29.2503 905.854 27.5374 908.007 Q25.8013 910.137 25.8013 913.956 L25.8013 917.984 L21.9587 917.984 L21.9587 913.771 Q21.9587 910.322 20.593 908.493 Q19.2041 906.665 16.6115 906.665 Q13.9495 906.665 12.5375 908.563 Q11.1023 910.438 11.1023 913.956 Q11.1023 915.877 11.519 918.077 Q11.9356 920.276 12.8152 922.914 L8.6486 922.914 Q7.90787 920.252 7.5375 917.938 Q7.16713 915.6 7.16713 913.54 Q7.16713 908.215 9.59767 905.114 Q12.0051 902.012 16.1254 902.012 Q18.9958 902.012 20.9865 903.655 Q22.9541 905.299 23.718 908.331 Z" fill="#000000" fill-rule="nonzero" fill-opacity="1" /><path clip-path="url(#clip830)" d="M10.8708 882.336 Q10.8708 885.947 14.4356 887.776 Q17.9773 889.581 25.1068 889.581 Q32.2133 889.581 35.7781 887.776 Q39.3197 885.947 39.3197 882.336 Q39.3197 878.702 35.7781 876.896 Q32.2133 875.068 25.1068 875.068 Q17.9773 875.068 14.4356 876.896 Q10.8708 878.702 10.8708 882.336 M7.16713 882.336 Q7.16713 876.526 11.7736 873.47 Q16.3569 870.392 25.1068 870.392 Q33.8337 870.392 38.4401 873.47 Q43.0234 876.526 43.0234 882.336 Q43.0234 888.146 38.4401 891.225 Q33.8337 894.28 25.1068 894.28 Q16.3569 894.28 11.7736 891.225 Q7.16713 888.146 7.16713 882.336 Z" fill="#000000" fill-rule="nonzero" fill-opacity="1" /><path clip-path="url(#clip830)" d="M10.8708 852.174 Q10.8708 855.785 14.4356 857.614 Q17.9773 859.419 25.1068 859.419 Q32.2133 859.419 35.7781 857.614 Q39.3197 855.785 39.3197 852.174 Q39.3197 848.54 35.7781 846.734 Q32.2133 844.906 25.1068 844.906 Q17.9773 844.906 14.4356 846.734 Q10.8708 848.54 10.8708 852.174 M7.16713 852.174 Q7.16713 846.364 11.7736 843.308 Q16.3569 840.23 25.1068 840.23 Q33.8337 840.23 38.4401 843.308 Q43.0234 846.364 43.0234 852.174 Q43.0234 857.984 38.4401 861.063 Q33.8337 864.118 25.1068 864.118 Q16.3569 864.118 11.7736 861.063 Q7.16713 857.984 7.16713 852.174 Z" fill="#000000" fill-rule="nonzero" fill-opacity="1" /><path clip-path="url(#clip830)" d="M11.8662 696.031 L30.3152 707.836 L30.3152 696.031 L11.8662 696.031 M7.79213 697.258 L7.79213 691.378 L30.3152 691.378 L30.3152 686.448 L34.204 686.448 L34.204 691.378 L42.3521 691.378 L42.3521 696.031 L34.204 696.031 L34.204 711.633 L29.6902 711.633 L7.79213 697.258 Z" fill="#000000" fill-rule="nonzero" fill-opacity="1" /><path clip-path="url(#clip830)" d="M10.8708 668.716 Q10.8708 672.327 14.4356 674.156 Q17.9773 675.962 25.1068 675.962 Q32.2133 675.962 35.7781 674.156 Q39.3197 672.327 39.3197 668.716 Q39.3197 665.082 35.7781 663.276 Q32.2133 661.448 25.1068 661.448 Q17.9773 661.448 14.4356 663.276 Q10.8708 665.082 10.8708 668.716 M7.16713 668.716 Q7.16713 662.906 11.7736 659.851 Q16.3569 656.772 25.1068 656.772 Q33.8337 656.772 38.4401 659.851 Q43.0234 662.906 43.0234 668.716 Q43.0234 674.526 38.4401 677.605 Q33.8337 680.661 25.1068 680.661 Q16.3569 680.661 11.7736 677.605 Q7.16713 674.526 7.16713 668.716 Z" fill="#000000" fill-rule="nonzero" fill-opacity="1" /><path clip-path="url(#clip830)" d="M10.8708 638.554 Q10.8708 642.165 14.4356 643.994 Q17.9773 645.8 25.1068 645.8 Q32.2133 645.8 35.7781 643.994 Q39.3197 642.165 39.3197 638.554 Q39.3197 634.92 35.7781 633.115 Q32.2133 631.286 25.1068 631.286 Q17.9773 631.286 14.4356 633.115 Q10.8708 634.92 10.8708 638.554 M7.16713 638.554 Q7.16713 632.744 11.7736 629.689 Q16.3569 626.61 25.1068 626.61 Q33.8337 626.61 38.4401 629.689 Q43.0234 632.744 43.0234 638.554 Q43.0234 644.364 38.4401 647.443 Q33.8337 650.499 25.1068 650.499 Q16.3569 650.499 11.7736 647.443 Q7.16713 644.364 7.16713 638.554 Z" fill="#000000" fill-rule="nonzero" fill-opacity="1" /><path clip-path="url(#clip830)" d="M7.79213 496.531 L7.79213 478.175 L11.7273 478.175 L11.7273 492.249 L20.1995 492.249 Q19.8522 491.23 19.6902 490.212 Q19.505 489.193 19.505 488.175 Q19.505 482.388 22.6763 479.008 Q25.8476 475.629 31.2642 475.629 Q36.8429 475.629 39.9447 479.101 Q43.0234 482.573 43.0234 488.893 Q43.0234 491.068 42.6531 493.337 Q42.2827 495.582 41.5419 497.99 L36.8429 497.99 Q37.9771 495.906 38.5327 493.684 Q39.0883 491.462 39.0883 488.985 Q39.0883 484.981 36.9818 482.643 Q34.8753 480.305 31.2642 480.305 Q27.6531 480.305 25.5467 482.643 Q23.4402 484.981 23.4402 488.985 Q23.4402 490.86 23.8569 492.735 Q24.2735 494.587 25.1531 496.531 L7.79213 496.531 Z" fill="#000000" fill-rule="nonzero" fill-opacity="1" /><path clip-path="url(#clip830)" d="M10.8708 456.416 Q10.8708 460.027 14.4356 461.856 Q17.9773 463.661 25.1068 463.661 Q32.2133 463.661 35.7781 461.856 Q39.3197 460.027 39.3197 456.416 Q39.3197 452.782 35.7781 450.976 Q32.2133 449.147 25.1068 449.147 Q17.9773 449.147 14.4356 450.976 Q10.8708 452.782 10.8708 456.416 M7.16713 456.416 Q7.16713 450.606 11.7736 447.55 Q16.3569 444.471 25.1068 444.471 Q33.8337 444.471 38.4401 447.55 Q43.0234 450.606 43.0234 456.416 Q43.0234 462.226 38.4401 465.305 Q33.8337 468.36 25.1068 468.36 Q16.3569 468.36 11.7736 465.305 Q7.16713 462.226 7.16713 456.416 Z" fill="#000000" fill-rule="nonzero" fill-opacity="1" /><path clip-path="url(#clip830)" d="M10.8708 426.254 Q10.8708 429.865 14.4356 431.694 Q17.9773 433.499 25.1068 433.499 Q32.2133 433.499 35.7781 431.694 Q39.3197 429.865 39.3197 426.254 Q39.3197 422.62 35.7781 420.814 Q32.2133 418.985 25.1068 418.985 Q17.9773 418.985 14.4356 420.814 Q10.8708 422.62 10.8708 426.254 M7.16713 426.254 Q7.16713 420.444 11.7736 417.388 Q16.3569 414.31 25.1068 414.31 Q33.8337 414.31 38.4401 417.388 Q43.0234 420.444 43.0234 426.254 Q43.0234 432.064 38.4401 435.143 Q33.8337 438.198 25.1068 438.198 Q16.3569 438.198 11.7736 435.143 Q7.16713 432.064 7.16713 426.254 Z" fill="#000000" fill-rule="nonzero" fill-opacity="1" /><path clip-path="url(#clip830)" d="M23.2087 272.854 Q23.2087 276.002 25.3615 277.854 Q27.5142 279.682 31.2642 279.682 Q34.9911 279.682 37.167 277.854 Q39.3197 276.002 39.3197 272.854 Q39.3197 269.706 37.167 267.877 Q34.9911 266.025 31.2642 266.025 Q27.5142 266.025 25.3615 267.877 Q23.2087 269.706 23.2087 272.854 M8.55601 263.571 L12.8152 263.571 Q11.9819 265.331 11.5421 267.136 Q11.1023 268.919 11.1023 270.678 Q11.1023 275.307 14.2273 277.761 Q17.3523 280.192 23.6717 280.539 Q21.6578 279.173 20.593 277.113 Q19.505 275.053 19.505 272.576 Q19.505 267.368 22.6763 264.358 Q25.8244 261.326 31.2642 261.326 Q36.5883 261.326 39.8058 264.474 Q43.0234 267.622 43.0234 272.854 Q43.0234 278.849 38.4401 282.02 Q33.8337 285.192 25.1068 285.192 Q16.9124 285.192 12.0514 281.303 Q7.16713 277.414 7.16713 270.863 Q7.16713 269.104 7.51435 267.321 Q7.86157 265.516 8.55601 263.571 Z" fill="#000000" fill-rule="nonzero" fill-opacity="1" /><path clip-path="url(#clip830)" d="M10.8708 243.271 Q10.8708 246.882 14.4356 248.71 Q17.9773 250.516 25.1068 250.516 Q32.2133 250.516 35.7781 248.71 Q39.3197 246.882 39.3197 243.271 Q39.3197 239.636 35.7781 237.831 Q32.2133 236.002 25.1068 236.002 Q17.9773 236.002 14.4356 237.831 Q10.8708 239.636 10.8708 243.271 M7.16713 243.271 Q7.16713 237.46 11.7736 234.405 Q16.3569 231.326 25.1068 231.326 Q33.8337 231.326 38.4401 234.405 Q43.0234 237.46 43.0234 243.271 Q43.0234 249.081 38.4401 252.159 Q33.8337 255.215 25.1068 255.215 Q16.3569 255.215 11.7736 252.159 Q7.16713 249.081 7.16713 243.271 Z" fill="#000000" fill-rule="nonzero" fill-opacity="1" /><path clip-path="url(#clip830)" d="M10.8708 213.109 Q10.8708 216.72 14.4356 218.549 Q17.9773 220.354 25.1068 220.354 Q32.2133 220.354 35.7781 218.549 Q39.3197 216.72 39.3197 213.109 Q39.3197 209.474 35.7781 207.669 Q32.2133 205.84 25.1068 205.84 Q17.9773 205.84 14.4356 207.669 Q10.8708 209.474 10.8708 213.109 M7.16713 213.109 Q7.16713 207.299 11.7736 204.243 Q16.3569 201.164 25.1068 201.164 Q33.8337 201.164 38.4401 204.243 Q43.0234 207.299 43.0234 213.109 Q43.0234 218.919 38.4401 221.998 Q33.8337 225.053 25.1068 225.053 Q16.3569 225.053 11.7736 221.998 Q7.16713 218.919 7.16713 213.109 Z" fill="#000000" fill-rule="nonzero" fill-opacity="1" /><path clip-path="url(#clip832)" d="M211.613 1491.19 L211.613 1521.01 L289.172 1521.01 L289.172 1491.19 L211.613 1491.19 L211.613 1491.19  Z" fill="#009af9" fill-rule="evenodd" fill-opacity="1"/>
<polyline clip-path="url(#clip832)" style="stroke:#000000; stroke-linecap:round; stroke-linejoin:round; stroke-width:4; stroke-opacity:1; fill:none" points="211.613,1491.19 211.613,1521.01 289.172,1521.01 289.172,1491.19 211.613,1491.19 "/>
<path clip-path="url(#clip832)" d="M289.172 1391.1 L289.172 1521.01 L366.73 1521.01 L366.73 1391.1 L289.172 1391.1 L289.172 1391.1  Z" fill="#009af9" fill-rule="evenodd" fill-opacity="1"/>
<polyline clip-path="url(#clip832)" style="stroke:#000000; stroke-linecap:round; stroke-linejoin:round; stroke-width:4; stroke-opacity:1; fill:none" points="289.172,1391.1 289.172,1521.01 366.73,1521.01 366.73,1391.1 289.172,1391.1 "/>
<path clip-path="url(#clip832)" d="M366.73 1082.29 L366.73 1521.01 L444.289 1521.01 L444.289 1082.29 L366.73 1082.29 L366.73 1082.29  Z" fill="#009af9" fill-rule="evenodd" fill-opacity="1"/>
<polyline clip-path="url(#clip832)" style="stroke:#000000; stroke-linecap:round; stroke-linejoin:round; stroke-width:4; stroke-opacity:1; fill:none" points="366.73,1082.29 366.73,1521.01 444.289,1521.01 444.289,1082.29 366.73,1082.29 "/>
<path clip-path="url(#clip832)" d="M444.289 656.343 L444.289 1521.01 L521.847 1521.01 L521.847 656.343 L444.289 656.343 L444.289 656.343  Z" fill="#009af9" fill-rule="evenodd" fill-opacity="1"/>
<polyline clip-path="url(#clip832)" style="stroke:#000000; stroke-linecap:round; stroke-linejoin:round; stroke-width:4; stroke-opacity:1; fill:none" points="444.289,656.343 444.289,1521.01 521.847,1521.01 521.847,656.343 444.289,656.343 "/>
<path clip-path="url(#clip832)" d="M521.847 375.22 L521.847 1521.01 L599.406 1521.01 L599.406 375.22 L521.847 375.22 L521.847 375.22  Z" fill="#009af9" fill-rule="evenodd" fill-opacity="1"/>
<polyline clip-path="url(#clip832)" style="stroke:#000000; stroke-linecap:round; stroke-linejoin:round; stroke-width:4; stroke-opacity:1; fill:none" points="521.847,375.22 521.847,1521.01 599.406,1521.01 599.406,375.22 521.847,375.22 "/>
<path clip-path="url(#clip832)" d="M599.406 104.746 L599.406 1521.01 L676.964 1521.01 L676.964 104.746 L599.406 104.746 L599.406 104.746  Z" fill="#009af9" fill-rule="evenodd" fill-opacity="1"/>
<polyline clip-path="url(#clip832)" style="stroke:#000000; stroke-linecap:round; stroke-linejoin:round; stroke-width:4; stroke-opacity:1; fill:none" points="599.406,104.746 599.406,1521.01 676.964,1521.01 676.964,104.746 599.406,104.746 "/>
<path clip-path="url(#clip832)" d="M676.964 47.2441 L676.964 1521.01 L754.523 1521.01 L754.523 47.2441 L676.964 47.2441 L676.964 47.2441  Z" fill="#009af9" fill-rule="evenodd" fill-opacity="1"/>
<polyline clip-path="url(#clip832)" style="stroke:#000000; stroke-linecap:round; stroke-linejoin:round; stroke-width:4; stroke-opacity:1; fill:none" points="676.964,47.2441 676.964,1521.01 754.523,1521.01 754.523,47.2441 676.964,47.2441 "/>
<path clip-path="url(#clip832)" d="M754.523 172.897 L754.523 1521.01 L832.081 1521.01 L832.081 172.897 L754.523 172.897 L754.523 172.897  Z" fill="#009af9" fill-rule="evenodd" fill-opacity="1"/>
<polyline clip-path="url(#clip832)" style="stroke:#000000; stroke-linecap:round; stroke-linejoin:round; stroke-width:4; stroke-opacity:1; fill:none" points="754.523,172.897 754.523,1521.01 832.081,1521.01 832.081,172.897 754.523,172.897 "/>
<path clip-path="url(#clip832)" d="M832.081 458.279 L832.081 1521.01 L909.64 1521.01 L909.64 458.279 L832.081 458.279 L832.081 458.279  Z" fill="#009af9" fill-rule="evenodd" fill-opacity="1"/>
<polyline clip-path="url(#clip832)" style="stroke:#000000; stroke-linecap:round; stroke-linejoin:round; stroke-width:4; stroke-opacity:1; fill:none" points="832.081,458.279 832.081,1521.01 909.64,1521.01 909.64,458.279 832.081,458.279 "/>
<path clip-path="url(#clip832)" d="M909.64 654.213 L909.64 1521.01 L987.198 1521.01 L987.198 654.213 L909.64 654.213 L909.64 654.213  Z" fill="#009af9" fill-rule="evenodd" fill-opacity="1"/>
<polyline clip-path="url(#clip832)" style="stroke:#000000; stroke-linecap:round; stroke-linejoin:round; stroke-width:4; stroke-opacity:1; fill:none" points="909.64,654.213 909.64,1521.01 987.198,1521.01 987.198,654.213 909.64,654.213 "/>
<path clip-path="url(#clip832)" d="M987.198 848.017 L987.198 1521.01 L1064.76 1521.01 L1064.76 848.017 L987.198 848.017 L987.198 848.017  Z" fill="#009af9" fill-rule="evenodd" fill-opacity="1"/>
<polyline clip-path="url(#clip832)" style="stroke:#000000; stroke-linecap:round; stroke-linejoin:round; stroke-width:4; stroke-opacity:1; fill:none" points="987.198,848.017 987.198,1521.01 1064.76,1521.01 1064.76,848.017 987.198,848.017 "/>
<path clip-path="url(#clip832)" d="M1064.76 1075.9 L1064.76 1521.01 L1142.32 1521.01 L1142.32 1075.9 L1064.76 1075.9 L1064.76 1075.9  Z" fill="#009af9" fill-rule="evenodd" fill-opacity="1"/>
<polyline clip-path="url(#clip832)" style="stroke:#000000; stroke-linecap:round; stroke-linejoin:round; stroke-width:4; stroke-opacity:1; fill:none" points="1064.76,1075.9 1064.76,1521.01 1142.32,1521.01 1142.32,1075.9 1064.76,1075.9 "/>
<path clip-path="url(#clip832)" d="M1142.32 1263.31 L1142.32 1521.01 L1219.87 1521.01 L1219.87 1263.31 L1142.32 1263.31 L1142.32 1263.31  Z" fill="#009af9" fill-rule="evenodd" fill-opacity="1"/>
<polyline clip-path="url(#clip832)" style="stroke:#000000; stroke-linecap:round; stroke-linejoin:round; stroke-width:4; stroke-opacity:1; fill:none" points="1142.32,1263.31 1142.32,1521.01 1219.87,1521.01 1219.87,1263.31 1142.32,1263.31 "/>
<path clip-path="url(#clip832)" d="M1219.87 1318.68 L1219.87 1521.01 L1297.43 1521.01 L1297.43 1318.68 L1219.87 1318.68 L1219.87 1318.68  Z" fill="#009af9" fill-rule="evenodd" fill-opacity="1"/>
<polyline clip-path="url(#clip832)" style="stroke:#000000; stroke-linecap:round; stroke-linejoin:round; stroke-width:4; stroke-opacity:1; fill:none" points="1219.87,1318.68 1219.87,1521.01 1297.43,1521.01 1297.43,1318.68 1219.87,1318.68 "/>
<path clip-path="url(#clip832)" d="M1297.43 1384.71 L1297.43 1521.01 L1374.99 1521.01 L1374.99 1384.71 L1297.43 1384.71 L1297.43 1384.71  Z" fill="#009af9" fill-rule="evenodd" fill-opacity="1"/>
<polyline clip-path="url(#clip832)" style="stroke:#000000; stroke-linecap:round; stroke-linejoin:round; stroke-width:4; stroke-opacity:1; fill:none" points="1297.43,1384.71 1297.43,1521.01 1374.99,1521.01 1374.99,1384.71 1297.43,1384.71 "/>
<path clip-path="url(#clip832)" d="M1374.99 1450.73 L1374.99 1521.01 L1452.55 1521.01 L1452.55 1450.73 L1374.99 1450.73 L1374.99 1450.73  Z" fill="#009af9" fill-rule="evenodd" fill-opacity="1"/>
<polyline clip-path="url(#clip832)" style="stroke:#000000; stroke-linecap:round; stroke-linejoin:round; stroke-width:4; stroke-opacity:1; fill:none" points="1374.99,1450.73 1374.99,1521.01 1452.55,1521.01 1452.55,1450.73 1374.99,1450.73 "/>
<path clip-path="url(#clip832)" d="M1452.55 1482.67 L1452.55 1521.01 L1530.11 1521.01 L1530.11 1482.67 L1452.55 1482.67 L1452.55 1482.67  Z" fill="#009af9" fill-rule="evenodd" fill-opacity="1"/>
<polyline clip-path="url(#clip832)" style="stroke:#000000; stroke-linecap:round; stroke-linejoin:round; stroke-width:4; stroke-opacity:1; fill:none" points="1452.55,1482.67 1452.55,1521.01 1530.11,1521.01 1530.11,1482.67 1452.55,1482.67 "/>
<path clip-path="url(#clip832)" d="M1530.11 1510.36 L1530.11 1521.01 L1607.67 1521.01 L1607.67 1510.36 L1530.11 1510.36 L1530.11 1510.36  Z" fill="#009af9" fill-rule="evenodd" fill-opacity="1"/>
<polyline clip-path="url(#clip832)" style="stroke:#000000; stroke-linecap:round; stroke-linejoin:round; stroke-width:4; stroke-opacity:1; fill:none" points="1530.11,1510.36 1530.11,1521.01 1607.67,1521.01 1607.67,1510.36 1530.11,1510.36 "/>
<path clip-path="url(#clip832)" d="M1607.67 1510.36 L1607.67 1521.01 L1685.23 1521.01 L1685.23 1510.36 L1607.67 1510.36 L1607.67 1510.36  Z" fill="#009af9" fill-rule="evenodd" fill-opacity="1"/>
<polyline clip-path="url(#clip832)" style="stroke:#000000; stroke-linecap:round; stroke-linejoin:round; stroke-width:4; stroke-opacity:1; fill:none" points="1607.67,1510.36 1607.67,1521.01 1685.23,1521.01 1685.23,1510.36 1607.67,1510.36 "/>
<path clip-path="url(#clip832)" d="M1685.23 1514.62 L1685.23 1521.01 L1762.78 1521.01 L1762.78 1514.62 L1685.23 1514.62 L1685.23 1514.62  Z" fill="#009af9" fill-rule="evenodd" fill-opacity="1"/>
<polyline clip-path="url(#clip832)" style="stroke:#000000; stroke-linecap:round; stroke-linejoin:round; stroke-width:4; stroke-opacity:1; fill:none" points="1685.23,1514.62 1685.23,1521.01 1762.78,1521.01 1762.78,1514.62 1685.23,1514.62 "/>
<path clip-path="url(#clip832)" d="M1762.78 1514.62 L1762.78 1521.01 L1840.34 1521.01 L1840.34 1514.62 L1762.78 1514.62 L1762.78 1514.62  Z" fill="#009af9" fill-rule="evenodd" fill-opacity="1"/>
<polyline clip-path="url(#clip832)" style="stroke:#000000; stroke-linecap:round; stroke-linejoin:round; stroke-width:4; stroke-opacity:1; fill:none" points="1762.78,1514.62 1762.78,1521.01 1840.34,1521.01 1840.34,1514.62 1762.78,1514.62 "/>
<path clip-path="url(#clip832)" d="M1840.34 1516.75 L1840.34 1521.01 L1917.9 1521.01 L1917.9 1516.75 L1840.34 1516.75 L1840.34 1516.75  Z" fill="#009af9" fill-rule="evenodd" fill-opacity="1"/>
<polyline clip-path="url(#clip832)" style="stroke:#000000; stroke-linecap:round; stroke-linejoin:round; stroke-width:4; stroke-opacity:1; fill:none" points="1840.34,1516.75 1840.34,1521.01 1917.9,1521.01 1917.9,1516.75 1840.34,1516.75 "/>
<path clip-path="url(#clip832)" d="M1917.9 1521.01 L1917.9 1521.01 L1995.46 1521.01 L1995.46 1521.01 L1917.9 1521.01 L1917.9 1521.01  Z" fill="#009af9" fill-rule="evenodd" fill-opacity="1"/>
<polyline clip-path="url(#clip832)" style="stroke:#000000; stroke-linecap:round; stroke-linejoin:round; stroke-width:4; stroke-opacity:1; fill:none" points="1917.9,1521.01 1917.9,1521.01 1995.46,1521.01 1917.9,1521.01 "/>
<path clip-path="url(#clip832)" d="M1995.46 1516.75 L1995.46 1521.01 L2073.02 1521.01 L2073.02 1516.75 L1995.46 1516.75 L1995.46 1516.75  Z" fill="#009af9" fill-rule="evenodd" fill-opacity="1"/>
<polyline clip-path="url(#clip832)" style="stroke:#000000; stroke-linecap:round; stroke-linejoin:round; stroke-width:4; stroke-opacity:1; fill:none" points="1995.46,1516.75 1995.46,1521.01 2073.02,1521.01 2073.02,1516.75 1995.46,1516.75 "/>
<path clip-path="url(#clip832)" d="M2073.02 1518.88 L2073.02 1521.01 L2150.58 1521.01 L2150.58 1518.88 L2073.02 1518.88 L2073.02 1518.88  Z" fill="#009af9" fill-rule="evenodd" fill-opacity="1"/>
<polyline clip-path="url(#clip832)" style="stroke:#000000; stroke-linecap:round; stroke-linejoin:round; stroke-width:4; stroke-opacity:1; fill:none" points="2073.02,1518.88 2073.02,1521.01 2150.58,1521.01 2150.58,1518.88 2073.02,1518.88 "/>
<path clip-path="url(#clip832)" d="M2150.58 1516.75 L2150.58 1521.01 L2228.13 1521.01 L2228.13 1516.75 L2150.58 1516.75 L2150.58 1516.75  Z" fill="#009af9" fill-rule="evenodd" fill-opacity="1"/>
<polyline clip-path="url(#clip832)" style="stroke:#000000; stroke-linecap:round; stroke-linejoin:round; stroke-width:4; stroke-opacity:1; fill:none" points="2150.58,1516.75 2150.58,1521.01 2228.13,1521.01 2228.13,1516.75 2150.58,1516.75 "/>
<circle clip-path="url(#clip832)" style="fill:#009af9; stroke:none; fill-opacity:0" cx="250.392" cy="1491.19" r="2"/>
<circle clip-path="url(#clip832)" style="fill:#009af9; stroke:none; fill-opacity:0" cx="327.951" cy="1391.1" r="2"/>
<circle clip-path="url(#clip832)" style="fill:#009af9; stroke:none; fill-opacity:0" cx="405.509" cy="1082.29" r="2"/>
<circle clip-path="url(#clip832)" style="fill:#009af9; stroke:none; fill-opacity:0" cx="483.068" cy="656.343" r="2"/>
<circle clip-path="url(#clip832)" style="fill:#009af9; stroke:none; fill-opacity:0" cx="560.627" cy="375.22" r="2"/>
<circle clip-path="url(#clip832)" style="fill:#009af9; stroke:none; fill-opacity:0" cx="638.185" cy="104.746" r="2"/>
<circle clip-path="url(#clip832)" style="fill:#009af9; stroke:none; fill-opacity:0" cx="715.744" cy="47.2441" r="2"/>
<circle clip-path="url(#clip832)" style="fill:#009af9; stroke:none; fill-opacity:0" cx="793.302" cy="172.897" r="2"/>
<circle clip-path="url(#clip832)" style="fill:#009af9; stroke:none; fill-opacity:0" cx="870.861" cy="458.279" r="2"/>
<circle clip-path="url(#clip832)" style="fill:#009af9; stroke:none; fill-opacity:0" cx="948.419" cy="654.213" r="2"/>
<circle clip-path="url(#clip832)" style="fill:#009af9; stroke:none; fill-opacity:0" cx="1025.98" cy="848.017" r="2"/>
<circle clip-path="url(#clip832)" style="fill:#009af9; stroke:none; fill-opacity:0" cx="1103.54" cy="1075.9" r="2"/>
<circle clip-path="url(#clip832)" style="fill:#009af9; stroke:none; fill-opacity:0" cx="1181.09" cy="1263.31" r="2"/>
<circle clip-path="url(#clip832)" style="fill:#009af9; stroke:none; fill-opacity:0" cx="1258.65" cy="1318.68" r="2"/>
<circle clip-path="url(#clip832)" style="fill:#009af9; stroke:none; fill-opacity:0" cx="1336.21" cy="1384.71" r="2"/>
<circle clip-path="url(#clip832)" style="fill:#009af9; stroke:none; fill-opacity:0" cx="1413.77" cy="1450.73" r="2"/>
<circle clip-path="url(#clip832)" style="fill:#009af9; stroke:none; fill-opacity:0" cx="1491.33" cy="1482.67" r="2"/>
<circle clip-path="url(#clip832)" style="fill:#009af9; stroke:none; fill-opacity:0" cx="1568.89" cy="1510.36" r="2"/>
<circle clip-path="url(#clip832)" style="fill:#009af9; stroke:none; fill-opacity:0" cx="1646.45" cy="1510.36" r="2"/>
<circle clip-path="url(#clip832)" style="fill:#009af9; stroke:none; fill-opacity:0" cx="1724" cy="1514.62" r="2"/>
<circle clip-path="url(#clip832)" style="fill:#009af9; stroke:none; fill-opacity:0" cx="1801.56" cy="1514.62" r="2"/>
<circle clip-path="url(#clip832)" style="fill:#009af9; stroke:none; fill-opacity:0" cx="1879.12" cy="1516.75" r="2"/>
<circle clip-path="url(#clip832)" style="fill:#009af9; stroke:none; fill-opacity:0" cx="1956.68" cy="1521.01" r="2"/>
<circle clip-path="url(#clip832)" style="fill:#009af9; stroke:none; fill-opacity:0" cx="2034.24" cy="1516.75" r="2"/>
<circle clip-path="url(#clip832)" style="fill:#009af9; stroke:none; fill-opacity:0" cx="2111.8" cy="1518.88" r="2"/>
<circle clip-path="url(#clip832)" style="fill:#009af9; stroke:none; fill-opacity:0" cx="2189.36" cy="1516.75" r="2"/>
<path clip-path="url(#clip830)" d="M1817.6 200.05 L2277.23 200.05 L2277.23 96.3696 L1817.6 96.3696  Z" fill="#ffffff" fill-rule="evenodd" fill-opacity="1"/>
<polyline clip-path="url(#clip830)" style="stroke:#000000; stroke-linecap:round; stroke-linejoin:round; stroke-width:4; stroke-opacity:1; fill:none" points="1817.6,200.05 2277.23,200.05 2277.23,96.3696 1817.6,96.3696 1817.6,200.05 "/>
<path clip-path="url(#clip830)" d="M1842.77 168.946 L1993.83 168.946 L1993.83 127.474 L1842.77 127.474 L1842.77 168.946  Z" fill="#009af9" fill-rule="evenodd" fill-opacity="1"/>
<polyline clip-path="url(#clip830)" style="stroke:#000000; stroke-linecap:round; stroke-linejoin:round; stroke-width:4; stroke-opacity:1; fill:none" points="1842.77,168.946 1993.83,168.946 1993.83,127.474 1842.77,127.474 1842.77,168.946 "/>
<path clip-path="url(#clip830)" d="M2030.9 142.55 Q2027.47 142.55 2025.48 145.235 Q2023.49 147.897 2023.49 152.55 Q2023.49 157.203 2025.46 159.888 Q2027.45 162.55 2030.9 162.55 Q2034.3 162.55 2036.29 159.865 Q2038.28 157.179 2038.28 152.55 Q2038.28 147.943 2036.29 145.258 Q2034.3 142.55 2030.9 142.55 M2030.9 138.939 Q2036.45 138.939 2039.63 142.55 Q2042.8 146.161 2042.8 152.55 Q2042.8 158.916 2039.63 162.55 Q2036.45 166.161 2030.9 166.161 Q2025.32 166.161 2022.15 162.55 Q2019 158.916 2019 152.55 Q2019 146.161 2022.15 142.55 Q2025.32 138.939 2030.9 138.939 Z" fill="#000000" fill-rule="nonzero" fill-opacity="1" /><path clip-path="url(#clip830)" d="M2066.92 143.499 L2066.92 129.471 L2071.18 129.471 L2071.18 165.49 L2066.92 165.49 L2066.92 161.601 Q2065.57 163.915 2063.51 165.05 Q2061.48 166.161 2058.61 166.161 Q2053.91 166.161 2050.95 162.411 Q2048.01 158.661 2048.01 152.55 Q2048.01 146.439 2050.95 142.689 Q2053.91 138.939 2058.61 138.939 Q2061.48 138.939 2063.51 140.073 Q2065.57 141.184 2066.92 143.499 M2052.4 152.55 Q2052.4 157.249 2054.32 159.934 Q2056.27 162.596 2059.65 162.596 Q2063.03 162.596 2064.97 159.934 Q2066.92 157.249 2066.92 152.55 Q2066.92 147.851 2064.97 145.189 Q2063.03 142.504 2059.65 142.504 Q2056.27 142.504 2054.32 145.189 Q2052.4 147.851 2052.4 152.55 Z" fill="#000000" fill-rule="nonzero" fill-opacity="1" /><path clip-path="url(#clip830)" d="M2097.01 143.499 L2097.01 129.471 L2101.27 129.471 L2101.27 165.49 L2097.01 165.49 L2097.01 161.601 Q2095.67 163.915 2093.61 165.05 Q2091.57 166.161 2088.7 166.161 Q2084 166.161 2081.04 162.411 Q2078.1 158.661 2078.1 152.55 Q2078.1 146.439 2081.04 142.689 Q2084 138.939 2088.7 138.939 Q2091.57 138.939 2093.61 140.073 Q2095.67 141.184 2097.01 143.499 M2082.5 152.55 Q2082.5 157.249 2084.42 159.934 Q2086.36 162.596 2089.74 162.596 Q2093.12 162.596 2095.07 159.934 Q2097.01 157.249 2097.01 152.55 Q2097.01 147.851 2095.07 145.189 Q2093.12 142.504 2089.74 142.504 Q2086.36 142.504 2084.42 145.189 Q2082.5 147.851 2082.5 152.55 Z" fill="#000000" fill-rule="nonzero" fill-opacity="1" /><path clip-path="url(#clip830)" d="M2126.57 140.328 L2126.57 144.355 Q2124.76 143.429 2122.82 142.967 Q2120.88 142.504 2118.79 142.504 Q2115.62 142.504 2114.02 143.476 Q2112.45 144.448 2112.45 146.392 Q2112.45 147.874 2113.58 148.73 Q2114.72 149.564 2118.14 150.328 L2119.6 150.652 Q2124.14 151.624 2126.04 153.406 Q2127.96 155.166 2127.96 158.337 Q2127.96 161.948 2125.09 164.054 Q2122.24 166.161 2117.24 166.161 Q2115.16 166.161 2112.89 165.744 Q2110.64 165.351 2108.14 164.54 L2108.14 160.142 Q2110.51 161.369 2112.8 161.994 Q2115.09 162.596 2117.33 162.596 Q2120.34 162.596 2121.96 161.578 Q2123.58 160.536 2123.58 158.661 Q2123.58 156.925 2122.4 155.999 Q2121.25 155.073 2117.29 154.216 L2115.81 153.869 Q2111.85 153.036 2110.09 151.323 Q2108.33 149.587 2108.33 146.578 Q2108.33 142.92 2110.92 140.93 Q2113.51 138.939 2118.28 138.939 Q2120.64 138.939 2122.73 139.286 Q2124.81 139.633 2126.57 140.328 Z" fill="#000000" fill-rule="nonzero" fill-opacity="1" /><path clip-path="url(#clip830)" d="M2164.83 143.545 Q2164.12 143.129 2163.26 142.943 Q2162.43 142.735 2161.41 142.735 Q2157.8 142.735 2155.85 145.096 Q2153.93 147.434 2153.93 151.832 L2153.93 165.49 L2149.65 165.49 L2149.65 139.564 L2153.93 139.564 L2153.93 143.592 Q2155.27 141.23 2157.43 140.096 Q2159.58 138.939 2162.66 138.939 Q2163.1 138.939 2163.63 139.008 Q2164.16 139.055 2164.81 139.17 L2164.83 143.545 Z" fill="#000000" fill-rule="nonzero" fill-opacity="1" /><path clip-path="url(#clip830)" d="M2181.08 152.457 Q2175.92 152.457 2173.93 153.638 Q2171.94 154.818 2171.94 157.666 Q2171.94 159.934 2173.42 161.277 Q2174.93 162.596 2177.5 162.596 Q2181.04 162.596 2183.17 160.096 Q2185.32 157.573 2185.32 153.406 L2185.32 152.457 L2181.08 152.457 M2189.58 150.698 L2189.58 165.49 L2185.32 165.49 L2185.32 161.554 Q2183.86 163.915 2181.69 165.05 Q2179.51 166.161 2176.36 166.161 Q2172.38 166.161 2170.02 163.939 Q2167.68 161.693 2167.68 157.943 Q2167.68 153.568 2170.6 151.346 Q2173.54 149.124 2179.35 149.124 L2185.32 149.124 L2185.32 148.707 Q2185.32 145.767 2183.38 144.17 Q2181.45 142.55 2177.96 142.55 Q2175.74 142.55 2173.63 143.082 Q2171.52 143.615 2169.58 144.679 L2169.58 140.744 Q2171.92 139.842 2174.12 139.402 Q2176.31 138.939 2178.4 138.939 Q2184.02 138.939 2186.8 141.855 Q2189.58 144.772 2189.58 150.698 Z" fill="#000000" fill-rule="nonzero" fill-opacity="1" /><path clip-path="url(#clip830)" d="M2202.56 132.203 L2202.56 139.564 L2211.34 139.564 L2211.34 142.874 L2202.56 142.874 L2202.56 156.948 Q2202.56 160.119 2203.42 161.022 Q2204.3 161.925 2206.96 161.925 L2211.34 161.925 L2211.34 165.49 L2206.96 165.49 Q2202.03 165.49 2200.16 163.661 Q2198.28 161.809 2198.28 156.948 L2198.28 142.874 L2195.16 142.874 L2195.16 139.564 L2198.28 139.564 L2198.28 132.203 L2202.56 132.203 Z" fill="#000000" fill-rule="nonzero" fill-opacity="1" /><path clip-path="url(#clip830)" d="M2216.94 139.564 L2221.2 139.564 L2221.2 165.49 L2216.94 165.49 L2216.94 139.564 M2216.94 129.471 L2221.2 129.471 L2221.2 134.865 L2216.94 134.865 L2216.94 129.471 Z" fill="#000000" fill-rule="nonzero" fill-opacity="1" /><path clip-path="url(#clip830)" d="M2240.16 142.55 Q2236.73 142.55 2234.74 145.235 Q2232.75 147.897 2232.75 152.55 Q2232.75 157.203 2234.72 159.888 Q2236.71 162.55 2240.16 162.55 Q2243.56 162.55 2245.55 159.865 Q2247.54 157.179 2247.54 152.55 Q2247.54 147.943 2245.55 145.258 Q2243.56 142.55 2240.16 142.55 M2240.16 138.939 Q2245.71 138.939 2248.88 142.55 Q2252.06 146.161 2252.06 152.55 Q2252.06 158.916 2248.88 162.55 Q2245.71 166.161 2240.16 166.161 Q2234.58 166.161 2231.41 162.55 Q2228.26 158.916 2228.26 152.55 Q2228.26 146.161 2231.41 142.55 Q2234.58 138.939 2240.16 138.939 Z" fill="#000000" fill-rule="nonzero" fill-opacity="1" /></svg>
