<?xml version="1.0" encoding="utf-8"?>
<svg xmlns="http://www.w3.org/2000/svg" xmlns:xlink="http://www.w3.org/1999/xlink" width="600" height="400" viewBox="0 0 2400 1600">
<defs>
  <clipPath id="clip700">
    <rect x="0" y="0" width="2400" height="1600"/>
  </clipPath>
</defs>
<path clip-path="url(#clip700)" d="M0 1600 L2400 1600 L2400 0 L0 0  Z" fill="#ffffff" fill-rule="evenodd" fill-opacity="1"/>
<defs>
  <clipPath id="clip701">
    <rect x="480" y="0" width="1681" height="1600"/>
  </clipPath>
</defs>
<path clip-path="url(#clip700)" d="M86.9921 1521.01 L2352.76 1521.01 L2352.76 47.2441 L86.9921 47.2441  Z" fill="#ffffff" fill-rule="evenodd" fill-opacity="1"/>
<defs>
  <clipPath id="clip702">
    <rect x="86" y="47" width="2267" height="1475"/>
  </clipPath>
</defs>
<polyline clip-path="url(#clip702)" style="stroke:#000000; stroke-linecap:round; stroke-linejoin:round; stroke-width:2; stroke-opacity:0.1; fill:none" points="289.172,1521.01 289.172,47.2441 "/>
<polyline clip-path="url(#clip702)" style="stroke:#000000; stroke-linecap:round; stroke-linejoin:round; stroke-width:2; stroke-opacity:0.1; fill:none" points="599.406,1521.01 599.406,47.2441 "/>
<polyline clip-path="url(#clip702)" style="stroke:#000000; stroke-linecap:round; stroke-linejoin:round; stroke-width:2; stroke-opacity:0.1; fill:none" points="909.64,1521.01 909.64,47.2441 "/>
<polyline clip-path="url(#clip702)" style="stroke:#000000; stroke-linecap:round; stroke-linejoin:round; stroke-width:2; stroke-opacity:0.1; fill:none" points="1219.87,1521.01 1219.87,47.2441 "/>
<polyline clip-path="url(#clip702)" style="stroke:#000000; stroke-linecap:round; stroke-linejoin:round; stroke-width:2; stroke-opacity:0.1; fill:none" points="1530.11,1521.01 1530.11,47.2441 "/>
<polyline clip-path="url(#clip702)" style="stroke:#000000; stroke-linecap:round; stroke-linejoin:round; stroke-width:2; stroke-opacity:0.1; fill:none" points="1840.34,1521.01 1840.34,47.2441 "/>
<polyline clip-path="url(#clip702)" style="stroke:#000000; stroke-linecap:round; stroke-linejoin:round; stroke-width:2; stroke-opacity:0.1; fill:none" points="2150.58,1521.01 2150.58,47.2441 "/>
<polyline clip-path="url(#clip700)" style="stroke:#000000; stroke-linecap:round; stroke-linejoin:round; stroke-width:4; stroke-opacity:1; fill:none" points="86.9921,1521.01 2352.76,1521.01 "/>
<polyline clip-path="url(#clip700)" style="stroke:#000000; stroke-linecap:round; stroke-linejoin:round; stroke-width:4; stroke-opacity:1; fill:none" points="289.172,1521.01 289.172,1502.11 "/>
<polyline clip-path="url(#clip700)" style="stroke:#000000; stroke-linecap:round; stroke-linejoin:round; stroke-width:4; stroke-opacity:1; fill:none" points="599.406,1521.01 599.406,1502.11 "/>
<polyline clip-path="url(#clip700)" style="stroke:#000000; stroke-linecap:round; stroke-linejoin:round; stroke-width:4; stroke-opacity:1; fill:none" points="909.64,1521.01 909.64,1502.11 "/>
<polyline clip-path="url(#clip700)" style="stroke:#000000; stroke-linecap:round; stroke-linejoin:round; stroke-width:4; stroke-opacity:1; fill:none" points="1219.87,1521.01 1219.87,1502.11 "/>
<polyline clip-path="url(#clip700)" style="stroke:#000000; stroke-linecap:round; stroke-linejoin:round; stroke-width:4; stroke-opacity:1; fill:none" points="1530.11,1521.01 1530.11,1502.11 "/>
<polyline clip-path="url(#clip700)" style="stroke:#000000; stroke-linecap:round; stroke-linejoin:round; stroke-width:4; stroke-opacity:1; fill:none" points="1840.34,1521.01 1840.34,1502.11 "/>
<polyline clip-path="url(#clip700)" style="stroke:#000000; stroke-linecap:round; stroke-linejoin:round; stroke-width:4; stroke-opacity:1; fill:none" points="2150.58,1521.01 2150.58,1502.11 "/>
<path clip-path="url(#clip700)" d="M267.355 1551.93 Q263.744 1551.93 261.915 1555.49 Q260.109 1559.03 260.109 1566.16 Q260.109 1573.27 261.915 1576.83 Q263.744 1580.38 267.355 1580.38 Q270.989 1580.38 272.794 1576.83 Q274.623 1573.27 274.623 1566.16 Q274.623 1559.03 272.794 1555.49 Q270.989 1551.93 267.355 1551.93 M267.355 1548.22 Q273.165 1548.22 276.22 1552.83 Q279.299 1557.41 279.299 1566.16 Q279.299 1574.89 276.22 1579.5 Q273.165 1584.08 267.355 1584.08 Q261.545 1584.08 258.466 1579.5 Q255.41 1574.89 255.41 1566.16 Q255.41 1557.41 258.466 1552.83 Q261.545 1548.22 267.355 1548.22 Z" fill="#000000" fill-rule="nonzero" fill-opacity="1" /><path clip-path="url(#clip700)" d="M287.517 1577.53 L292.401 1577.53 L292.401 1583.41 L287.517 1583.41 L287.517 1577.53 Z" fill="#000000" fill-rule="nonzero" fill-opacity="1" /><path clip-path="url(#clip700)" d="M306.614 1579.47 L322.933 1579.47 L322.933 1583.41 L300.989 1583.41 L300.989 1579.47 Q303.651 1576.72 308.234 1572.09 Q312.841 1567.44 314.021 1566.09 Q316.266 1563.57 317.146 1561.83 Q318.049 1560.07 318.049 1558.38 Q318.049 1555.63 316.104 1553.89 Q314.183 1552.16 311.081 1552.16 Q308.882 1552.16 306.429 1552.92 Q303.998 1553.69 301.22 1555.24 L301.22 1550.51 Q304.044 1549.38 306.498 1548.8 Q308.952 1548.22 310.989 1548.22 Q316.359 1548.22 319.553 1550.91 Q322.748 1553.59 322.748 1558.08 Q322.748 1560.21 321.938 1562.13 Q321.151 1564.03 319.044 1566.63 Q318.466 1567.3 315.364 1570.51 Q312.262 1573.71 306.614 1579.47 Z" fill="#000000" fill-rule="nonzero" fill-opacity="1" /><path clip-path="url(#clip700)" d="M576.547 1551.93 Q572.936 1551.93 571.107 1555.49 Q569.302 1559.03 569.302 1566.16 Q569.302 1573.27 571.107 1576.83 Q572.936 1580.38 576.547 1580.38 Q580.181 1580.38 581.987 1576.83 Q583.816 1573.27 583.816 1566.16 Q583.816 1559.03 581.987 1555.49 Q580.181 1551.93 576.547 1551.93 M576.547 1548.22 Q582.357 1548.22 585.413 1552.83 Q588.492 1557.41 588.492 1566.16 Q588.492 1574.89 585.413 1579.5 Q582.357 1584.08 576.547 1584.08 Q570.737 1584.08 567.658 1579.5 Q564.603 1574.89 564.603 1566.16 Q564.603 1557.41 567.658 1552.83 Q570.737 1548.22 576.547 1548.22 Z" fill="#000000" fill-rule="nonzero" fill-opacity="1" /><path clip-path="url(#clip700)" d="M596.709 1577.53 L601.593 1577.53 L601.593 1583.41 L596.709 1583.41 L596.709 1577.53 Z" fill="#000000" fill-rule="nonzero" fill-opacity="1" /><path clip-path="url(#clip700)" d="M624.626 1552.92 L612.82 1571.37 L624.626 1571.37 L624.626 1552.92 M623.399 1548.85 L629.278 1548.85 L629.278 1571.37 L634.209 1571.37 L634.209 1575.26 L629.278 1575.26 L629.278 1583.41 L624.626 1583.41 L624.626 1575.26 L609.024 1575.26 L609.024 1570.75 L623.399 1548.85 Z" fill="#000000" fill-rule="nonzero" fill-opacity="1" /><path clip-path="url(#clip700)" d="M886.943 1551.93 Q883.332 1551.93 881.503 1555.49 Q879.698 1559.03 879.698 1566.16 Q879.698 1573.27 881.503 1576.83 Q883.332 1580.38 886.943 1580.38 Q890.578 1580.38 892.383 1576.83 Q894.212 1573.27 894.212 1566.16 Q894.212 1559.03 892.383 1555.49 Q890.578 1551.93 886.943 1551.93 M886.943 1548.22 Q892.753 1548.22 895.809 1552.83 Q898.888 1557.41 898.888 1566.16 Q898.888 1574.89 895.809 1579.5 Q892.753 1584.08 886.943 1584.08 Q881.133 1584.08 878.054 1579.5 Q874.999 1574.89 874.999 1566.16 Q874.999 1557.41 878.054 1552.83 Q881.133 1548.22 886.943 1548.22 Z" fill="#000000" fill-rule="nonzero" fill-opacity="1" /><path clip-path="url(#clip700)" d="M907.105 1577.53 L911.989 1577.53 L911.989 1583.41 L907.105 1583.41 L907.105 1577.53 Z" fill="#000000" fill-rule="nonzero" fill-opacity="1" /><path clip-path="url(#clip700)" d="M932.753 1564.26 Q929.605 1564.26 927.753 1566.42 Q925.925 1568.57 925.925 1572.32 Q925.925 1576.05 927.753 1578.22 Q929.605 1580.38 932.753 1580.38 Q935.901 1580.38 937.73 1578.22 Q939.582 1576.05 939.582 1572.32 Q939.582 1568.57 937.73 1566.42 Q935.901 1564.26 932.753 1564.26 M942.036 1549.61 L942.036 1553.87 Q940.276 1553.04 938.471 1552.6 Q936.688 1552.16 934.929 1552.16 Q930.3 1552.16 927.846 1555.28 Q925.415 1558.41 925.068 1564.73 Q926.434 1562.71 928.494 1561.65 Q930.554 1560.56 933.031 1560.56 Q938.239 1560.56 941.249 1563.73 Q944.281 1566.88 944.281 1572.32 Q944.281 1577.64 941.133 1580.86 Q937.985 1584.08 932.753 1584.08 Q926.758 1584.08 923.587 1579.5 Q920.415 1574.89 920.415 1566.16 Q920.415 1557.97 924.304 1553.11 Q928.193 1548.22 934.744 1548.22 Q936.503 1548.22 938.286 1548.57 Q940.091 1548.92 942.036 1549.61 Z" fill="#000000" fill-rule="nonzero" fill-opacity="1" /><path clip-path="url(#clip700)" d="M1197.3 1551.93 Q1193.69 1551.93 1191.86 1555.49 Q1190.06 1559.03 1190.06 1566.16 Q1190.06 1573.27 1191.86 1576.83 Q1193.69 1580.38 1197.3 1580.38 Q1200.94 1580.38 1202.74 1576.83 Q1204.57 1573.27 1204.57 1566.16 Q1204.57 1559.03 1202.74 1555.49 Q1200.94 1551.93 1197.3 1551.93 M1197.3 1548.22 Q1203.11 1548.22 1206.17 1552.83 Q1209.25 1557.41 1209.25 1566.16 Q1209.25 1574.89 1206.17 1579.5 Q1203.11 1584.08 1197.3 1584.08 Q1191.49 1584.08 1188.42 1579.5 Q1185.36 1574.89 1185.36 1566.16 Q1185.36 1557.41 1188.42 1552.83 Q1191.49 1548.22 1197.3 1548.22 Z" fill="#000000" fill-rule="nonzero" fill-opacity="1" /><path clip-path="url(#clip700)" d="M1217.47 1577.53 L1222.35 1577.53 L1222.35 1583.41 L1217.47 1583.41 L1217.47 1577.53 Z" fill="#000000" fill-rule="nonzero" fill-opacity="1" /><path clip-path="url(#clip700)" d="M1242.54 1567 Q1239.2 1567 1237.28 1568.78 Q1235.38 1570.56 1235.38 1573.69 Q1235.38 1576.81 1237.28 1578.59 Q1239.2 1580.38 1242.54 1580.38 Q1245.87 1580.38 1247.79 1578.59 Q1249.71 1576.79 1249.71 1573.69 Q1249.71 1570.56 1247.79 1568.78 Q1245.89 1567 1242.54 1567 M1237.86 1565.01 Q1234.85 1564.26 1233.16 1562.2 Q1231.49 1560.14 1231.49 1557.18 Q1231.49 1553.04 1234.43 1550.63 Q1237.4 1548.22 1242.54 1548.22 Q1247.7 1548.22 1250.64 1550.63 Q1253.58 1553.04 1253.58 1557.18 Q1253.58 1560.14 1251.89 1562.2 Q1250.22 1564.26 1247.23 1565.01 Q1250.61 1565.79 1252.49 1568.08 Q1254.39 1570.38 1254.39 1573.69 Q1254.39 1578.71 1251.31 1581.39 Q1248.25 1584.08 1242.54 1584.08 Q1236.82 1584.08 1233.74 1581.39 Q1230.68 1578.71 1230.68 1573.69 Q1230.68 1570.38 1232.58 1568.08 Q1234.48 1565.79 1237.86 1565.01 M1236.15 1557.62 Q1236.15 1560.31 1237.81 1561.81 Q1239.5 1563.32 1242.54 1563.32 Q1245.55 1563.32 1247.23 1561.81 Q1248.95 1560.31 1248.95 1557.62 Q1248.95 1554.94 1247.23 1553.43 Q1245.55 1551.93 1242.54 1551.93 Q1239.5 1551.93 1237.81 1553.43 Q1236.15 1554.94 1236.15 1557.62 Z" fill="#000000" fill-rule="nonzero" fill-opacity="1" /><path clip-path="url(#clip700)" d="M1497.26 1579.47 L1504.9 1579.47 L1504.9 1553.11 L1496.59 1554.77 L1496.59 1550.51 L1504.85 1548.85 L1509.53 1548.85 L1509.53 1579.47 L1517.17 1579.47 L1517.17 1583.41 L1497.26 1583.41 L1497.26 1579.47 Z" fill="#000000" fill-rule="nonzero" fill-opacity="1" /><path clip-path="url(#clip700)" d="M1526.61 1577.53 L1531.5 1577.53 L1531.5 1583.41 L1526.61 1583.41 L1526.61 1577.53 Z" fill="#000000" fill-rule="nonzero" fill-opacity="1" /><path clip-path="url(#clip700)" d="M1551.68 1551.93 Q1548.07 1551.93 1546.24 1555.49 Q1544.44 1559.03 1544.44 1566.16 Q1544.44 1573.27 1546.24 1576.83 Q1548.07 1580.38 1551.68 1580.38 Q1555.32 1580.38 1557.12 1576.83 Q1558.95 1573.27 1558.95 1566.16 Q1558.95 1559.03 1557.12 1555.49 Q1555.32 1551.93 1551.68 1551.93 M1551.68 1548.22 Q1557.49 1548.22 1560.55 1552.83 Q1563.63 1557.41 1563.63 1566.16 Q1563.63 1574.89 1560.55 1579.5 Q1557.49 1584.08 1551.68 1584.08 Q1545.87 1584.08 1542.79 1579.5 Q1539.74 1574.89 1539.74 1566.16 Q1539.74 1557.41 1542.79 1552.83 Q1545.87 1548.22 1551.68 1548.22 Z" fill="#000000" fill-rule="nonzero" fill-opacity="1" /><path clip-path="url(#clip700)" d="M1808.29 1579.47 L1815.93 1579.47 L1815.93 1553.11 L1807.62 1554.77 L1807.62 1550.51 L1815.89 1548.85 L1820.56 1548.85 L1820.56 1579.47 L1828.2 1579.47 L1828.2 1583.41 L1808.29 1583.41 L1808.29 1579.47 Z" fill="#000000" fill-rule="nonzero" fill-opacity="1" /><path clip-path="url(#clip700)" d="M1837.65 1577.53 L1842.53 1577.53 L1842.53 1583.41 L1837.65 1583.41 L1837.65 1577.53 Z" fill="#000000" fill-rule="nonzero" fill-opacity="1" /><path clip-path="url(#clip700)" d="M1856.74 1579.47 L1873.06 1579.47 L1873.06 1583.41 L1851.12 1583.41 L1851.12 1579.47 Q1853.78 1576.72 1858.36 1572.09 Q1862.97 1567.44 1864.15 1566.09 Q1866.4 1563.57 1867.27 1561.83 Q1868.18 1560.07 1868.18 1558.38 Q1868.18 1555.63 1866.23 1553.89 Q1864.31 1552.16 1861.21 1552.16 Q1859.01 1552.16 1856.56 1552.92 Q1854.13 1553.69 1851.35 1555.24 L1851.35 1550.51 Q1854.17 1549.38 1856.63 1548.8 Q1859.08 1548.22 1861.12 1548.22 Q1866.49 1548.22 1869.68 1550.91 Q1872.88 1553.59 1872.88 1558.08 Q1872.88 1560.21 1872.07 1562.13 Q1871.28 1564.03 1869.17 1566.63 Q1868.59 1567.3 1865.49 1570.51 Q1862.39 1573.71 1856.74 1579.47 Z" fill="#000000" fill-rule="nonzero" fill-opacity="1" /><path clip-path="url(#clip700)" d="M2117.49 1579.47 L2125.13 1579.47 L2125.13 1553.11 L2116.81 1554.77 L2116.81 1550.51 L2125.08 1548.85 L2129.75 1548.85 L2129.75 1579.47 L2137.39 1579.47 L2137.39 1583.41 L2117.49 1583.41 L2117.49 1579.47 Z" fill="#000000" fill-rule="nonzero" fill-opacity="1" /><path clip-path="url(#clip700)" d="M2146.84 1577.53 L2151.72 1577.53 L2151.72 1583.41 L2146.84 1583.41 L2146.84 1577.53 Z" fill="#000000" fill-rule="nonzero" fill-opacity="1" /><path clip-path="url(#clip700)" d="M2174.75 1552.92 L2162.95 1571.37 L2174.75 1571.37 L2174.75 1552.92 M2173.53 1548.85 L2179.41 1548.85 L2179.41 1571.37 L2184.34 1571.37 L2184.34 1575.26 L2179.41 1575.26 L2179.41 1583.41 L2174.75 1583.41 L2174.75 1575.26 L2159.15 1575.26 L2159.15 1570.75 L2173.53 1548.85 Z" fill="#000000" fill-rule="nonzero" fill-opacity="1" /><polyline clip-path="url(#clip702)" style="stroke:#000000; stroke-linecap:round; stroke-linejoin:round; stroke-width:2; stroke-opacity:0.1; fill:none" points="86.9921,1521.01 2352.76,1521.01 "/>
<polyline clip-path="url(#clip702)" style="stroke:#000000; stroke-linecap:round; stroke-linejoin:round; stroke-width:2; stroke-opacity:0.1; fill:none" points="86.9921,1108.77 2352.76,1108.77 "/>
<polyline clip-path="url(#clip702)" style="stroke:#000000; stroke-linecap:round; stroke-linejoin:round; stroke-width:2; stroke-opacity:0.1; fill:none" points="86.9921,696.525 2352.76,696.525 "/>
<polyline clip-path="url(#clip702)" style="stroke:#000000; stroke-linecap:round; stroke-linejoin:round; stroke-width:2; stroke-opacity:0.1; fill:none" points="86.9921,284.283 2352.76,284.283 "/>
<polyline clip-path="url(#clip700)" style="stroke:#000000; stroke-linecap:round; stroke-linejoin:round; stroke-width:4; stroke-opacity:1; fill:none" points="86.9921,1521.01 86.9921,47.2441 "/>
<polyline clip-path="url(#clip700)" style="stroke:#000000; stroke-linecap:round; stroke-linejoin:round; stroke-width:4; stroke-opacity:1; fill:none" points="86.9921,1521.01 105.89,1521.01 "/>
<polyline clip-path="url(#clip700)" style="stroke:#000000; stroke-linecap:round; stroke-linejoin:round; stroke-width:4; stroke-opacity:1; fill:none" points="86.9921,1108.77 105.89,1108.77 "/>
<polyline clip-path="url(#clip700)" style="stroke:#000000; stroke-linecap:round; stroke-linejoin:round; stroke-width:4; stroke-opacity:1; fill:none" points="86.9921,696.525 105.89,696.525 "/>
<polyline clip-path="url(#clip700)" style="stroke:#000000; stroke-linecap:round; stroke-linejoin:round; stroke-width:4; stroke-opacity:1; fill:none" points="86.9921,284.283 105.89,284.283 "/>
<path clip-path="url(#clip700)" d="M10.8708 1521.01 Q10.8708 1524.62 14.4356 1526.45 Q17.9773 1528.25 25.1068 1528.25 Q32.2133 1528.25 35.7781 1526.45 Q39.3197 1524.62 39.3197 1521.01 Q39.3197 1517.37 35.7781 1515.57 Q32.2133 1513.74 25.1068 1513.74 Q17.9773 1513.74 14.4356 1515.57 Q10.8708 1517.37 10.8708 1521.01 M7.16713 1521.01 Q7.16713 1515.2 11.7736 1512.14 Q16.3569 1509.06 25.1068 1509.06 Q33.8337 1509.06 38.4401 1512.14 Q43.0234 1515.2 43.0234 1521.01 Q43.0234 1526.82 38.4401 1529.9 Q33.8337 1532.95 25.1068 1532.95 Q16.3569 1532.95 11.7736 1529.9 Q7.16713 1526.82 7.16713 1521.01 Z" fill="#000000" fill-rule="nonzero" fill-opacity="1" /><path clip-path="url(#clip700)" d="M38.417 1145.07 L38.417 1128.75 L42.3521 1128.75 L42.3521 1150.7 L38.417 1150.7 Q35.6623 1148.04 31.0327 1143.45 Q26.38 1138.85 25.0374 1137.67 Q22.5143 1135.42 20.7782 1134.54 Q19.0189 1133.64 17.3291 1133.64 Q14.5745 1133.64 12.8384 1135.58 Q11.1023 1137.5 11.1023 1140.61 Q11.1023 1142.81 11.8662 1145.26 Q12.6301 1147.69 14.181 1150.47 L9.45878 1150.47 Q8.32453 1147.64 7.74583 1145.19 Q7.16713 1142.74 7.16713 1140.7 Q7.16713 1135.33 9.8523 1132.13 Q12.5375 1128.94 17.0282 1128.94 Q19.1578 1128.94 21.0791 1129.75 Q22.9772 1130.54 25.5698 1132.64 Q26.2411 1133.22 29.4587 1136.32 Q32.6531 1139.43 38.417 1145.07 Z" fill="#000000" fill-rule="nonzero" fill-opacity="1" /><path clip-path="url(#clip700)" d="M10.8708 1108.94 Q10.8708 1112.55 14.4356 1114.38 Q17.9773 1116.19 25.1068 1116.19 Q32.2133 1116.19 35.7781 1114.38 Q39.3197 1112.55 39.3197 1108.94 Q39.3197 1105.31 35.7781 1103.5 Q32.2133 1101.67 25.1068 1101.67 Q17.9773 1101.67 14.4356 1103.5 Q10.8708 1105.31 10.8708 1108.94 M7.16713 1108.94 Q7.16713 1103.13 11.7736 1100.07 Q16.3569 1097 25.1068 1097 Q33.8337 1097 38.4401 1100.07 Q43.0234 1103.13 43.0234 1108.94 Q43.0234 1114.75 38.4401 1117.83 Q33.8337 1120.88 25.1068 1120.88 Q16.3569 1120.88 11.7736 1117.83 Q7.16713 1114.75 7.16713 1108.94 Z" fill="#000000" fill-rule="nonzero" fill-opacity="1" /><path clip-path="url(#clip700)" d="M10.8708 1078.78 Q10.8708 1082.39 14.4356 1084.22 Q17.9773 1086.02 25.1068 1086.02 Q32.2133 1086.02 35.7781 1084.22 Q39.3197 1082.39 39.3197 1078.78 Q39.3197 1075.14 35.7781 1073.34 Q32.2133 1071.51 25.1068 1071.51 Q17.9773 1071.51 14.4356 1073.34 Q10.8708 1075.14 10.8708 1078.78 M7.16713 1078.78 Q7.16713 1072.97 11.7736 1069.91 Q16.3569 1066.83 25.1068 1066.83 Q33.8337 1066.83 38.4401 1069.91 Q43.0234 1072.97 43.0234 1078.78 Q43.0234 1084.59 38.4401 1087.67 Q33.8337 1090.72 25.1068 1090.72 Q16.3569 1090.72 11.7736 1087.67 Q7.16713 1084.59 7.16713 1078.78 Z" fill="#000000" fill-rule="nonzero" fill-opacity="1" /><path clip-path="url(#clip700)" d="M11.8662 723.434 L30.3152 735.24 L30.3152 723.434 L11.8662 723.434 M7.79213 724.661 L7.79213 718.781 L30.3152 718.781 L30.3152 713.851 L34.204 713.851 L34.204 718.781 L42.3521 718.781 L42.3521 723.434 L34.204 723.434 L34.204 739.036 L29.6902 739.036 L7.79213 724.661 Z" fill="#000000" fill-rule="nonzero" fill-opacity="1" /><path clip-path="url(#clip700)" d="M10.8708 696.12 Q10.8708 699.731 14.4356 701.559 Q17.9773 703.365 25.1068 703.365 Q32.2133 703.365 35.7781 701.559 Q39.3197 699.731 39.3197 696.12 Q39.3197 692.485 35.7781 690.68 Q32.2133 688.851 25.1068 688.851 Q17.9773 688.851 14.4356 690.68 Q10.8708 692.485 10.8708 696.12 M7.16713 696.12 Q7.16713 690.309 11.7736 687.254 Q16.3569 684.175 25.1068 684.175 Q33.8337 684.175 38.4401 687.254 Q43.0234 690.309 43.0234 696.12 Q43.0234 701.93 38.4401 705.008 Q33.8337 708.064 25.1068 708.064 Q16.3569 708.064 11.7736 705.008 Q7.16713 701.93 7.16713 696.12 Z" fill="#000000" fill-rule="nonzero" fill-opacity="1" /><path clip-path="url(#clip700)" d="M10.8708 665.958 Q10.8708 669.569 14.4356 671.397 Q17.9773 673.203 25.1068 673.203 Q32.2133 673.203 35.7781 671.397 Q39.3197 669.569 39.3197 665.958 Q39.3197 662.323 35.7781 660.518 Q32.2133 658.689 25.1068 658.689 Q17.9773 658.689 14.4356 660.518 Q10.8708 662.323 10.8708 665.958 M7.16713 665.958 Q7.16713 660.148 11.7736 657.092 Q16.3569 654.013 25.1068 654.013 Q33.8337 654.013 38.4401 657.092 Q43.0234 660.148 43.0234 665.958 Q43.0234 671.768 38.4401 674.847 Q33.8337 677.902 25.1068 677.902 Q16.3569 677.902 11.7736 674.847 Q7.16713 671.768 7.16713 665.958 Z" fill="#000000" fill-rule="nonzero" fill-opacity="1" /><path clip-path="url(#clip700)" d="M23.2087 313.959 Q23.2087 317.107 25.3615 318.959 Q27.5142 320.787 31.2642 320.787 Q34.9911 320.787 37.167 318.959 Q39.3197 317.107 39.3197 313.959 Q39.3197 310.811 37.167 308.982 Q34.9911 307.13 31.2642 307.13 Q27.5142 307.13 25.3615 308.982 Q23.2087 310.811 23.2087 313.959 M8.55601 304.676 L12.8152 304.676 Q11.9819 306.436 11.5421 308.241 Q11.1023 310.024 11.1023 311.783 Q11.1023 316.412 14.2273 318.866 Q17.3523 321.297 23.6717 321.644 Q21.6578 320.278 20.593 318.218 Q19.505 316.158 19.505 313.681 Q19.505 308.473 22.6763 305.463 Q25.8244 302.431 31.2642 302.431 Q36.5883 302.431 39.8058 305.579 Q43.0234 308.727 43.0234 313.959 Q43.0234 319.954 38.4401 323.125 Q33.8337 326.297 25.1068 326.297 Q16.9124 326.297 12.0514 322.408 Q7.16713 318.519 7.16713 311.968 Q7.16713 310.209 7.51435 308.426 Q7.86157 306.621 8.55601 304.676 Z" fill="#000000" fill-rule="nonzero" fill-opacity="1" /><path clip-path="url(#clip700)" d="M10.8708 284.376 Q10.8708 287.987 14.4356 289.815 Q17.9773 291.621 25.1068 291.621 Q32.2133 291.621 35.7781 289.815 Q39.3197 287.987 39.3197 284.376 Q39.3197 280.741 35.7781 278.936 Q32.2133 277.107 25.1068 277.107 Q17.9773 277.107 14.4356 278.936 Q10.8708 280.741 10.8708 284.376 M7.16713 284.376 Q7.16713 278.565 11.7736 275.51 Q16.3569 272.431 25.1068 272.431 Q33.8337 272.431 38.4401 275.51 Q43.0234 278.565 43.0234 284.376 Q43.0234 290.186 38.4401 293.264 Q33.8337 296.32 25.1068 296.32 Q16.3569 296.32 11.7736 293.264 Q7.16713 290.186 7.16713 284.376 Z" fill="#000000" fill-rule="nonzero" fill-opacity="1" /><path clip-path="url(#clip700)" d="M10.8708 254.214 Q10.8708 257.825 14.4356 259.654 Q17.9773 261.459 25.1068 261.459 Q32.2133 261.459 35.7781 259.654 Q39.3197 257.825 39.3197 254.214 Q39.3197 250.58 35.7781 248.774 Q32.2133 246.945 25.1068 246.945 Q17.9773 246.945 14.4356 248.774 Q10.8708 250.58 10.8708 254.214 M7.16713 254.214 Q7.16713 248.404 11.7736 245.348 Q16.3569 242.269 25.1068 242.269 Q33.8337 242.269 38.4401 245.348 Q43.0234 248.404 43.0234 254.214 Q43.0234 260.024 38.4401 263.103 Q33.8337 266.158 25.1068 266.158 Q16.3569 266.158 11.7736 263.103 Q7.16713 260.024 7.16713 254.214 Z" fill="#000000" fill-rule="nonzero" fill-opacity="1" /><path clip-path="url(#clip702)" d="M211.613 1518.95 L211.613 1521.01 L289.172 1521.01 L289.172 1518.95 L211.613 1518.95 L211.613 1518.95  Z" fill="#009af9" fill-rule="evenodd" fill-opacity="1"/>
<polyline clip-path="url(#clip702)" style="stroke:#000000; stroke-linecap:round; stroke-linejoin:round; stroke-width:4; stroke-opacity:1; fill:none" points="211.613,1518.95 211.613,1521.01 289.172,1521.01 289.172,1518.95 211.613,1518.95 "/>
<path clip-path="url(#clip702)" d="M289.172 1498.33 L289.172 1521.01 L366.73 1521.01 L366.73 1498.33 L289.172 1498.33 L289.172 1498.33  Z" fill="#009af9" fill-rule="evenodd" fill-opacity="1"/>
<polyline clip-path="url(#clip702)" style="stroke:#000000; stroke-linecap:round; stroke-linejoin:round; stroke-width:4; stroke-opacity:1; fill:none" points="289.172,1498.33 289.172,1521.01 366.73,1521.01 366.73,1498.33 289.172,1498.33 "/>
<path clip-path="url(#clip702)" d="M366.73 1440.62 L366.73 1521.01 L444.289 1521.01 L444.289 1440.62 L366.73 1440.62 L366.73 1440.62  Z" fill="#009af9" fill-rule="evenodd" fill-opacity="1"/>
<polyline clip-path="url(#clip702)" style="stroke:#000000; stroke-linecap:round; stroke-linejoin:round; stroke-width:4; stroke-opacity:1; fill:none" points="366.73,1440.62 366.73,1521.01 444.289,1521.01 444.289,1440.62 366.73,1440.62 "/>
<path clip-path="url(#clip702)" d="M444.289 1255.11 L444.289 1521.01 L521.847 1521.01 L521.847 1255.11 L444.289 1255.11 L444.289 1255.11  Z" fill="#009af9" fill-rule="evenodd" fill-opacity="1"/>
<polyline clip-path="url(#clip702)" style="stroke:#000000; stroke-linecap:round; stroke-linejoin:round; stroke-width:4; stroke-opacity:1; fill:none" points="444.289,1255.11 444.289,1521.01 521.847,1521.01 521.847,1255.11 444.289,1255.11 "/>
<path clip-path="url(#clip702)" d="M521.847 888.217 L521.847 1521.01 L599.406 1521.01 L599.406 888.217 L521.847 888.217 L521.847 888.217  Z" fill="#009af9" fill-rule="evenodd" fill-opacity="1"/>
<polyline clip-path="url(#clip702)" style="stroke:#000000; stroke-linecap:round; stroke-linejoin:round; stroke-width:4; stroke-opacity:1; fill:none" points="521.847,888.217 521.847,1521.01 599.406,1521.01 599.406,888.217 521.847,888.217 "/>
<path clip-path="url(#clip702)" d="M599.406 525.444 L599.406 1521.01 L676.964 1521.01 L676.964 525.444 L599.406 525.444 L599.406 525.444  Z" fill="#009af9" fill-rule="evenodd" fill-opacity="1"/>
<polyline clip-path="url(#clip702)" style="stroke:#000000; stroke-linecap:round; stroke-linejoin:round; stroke-width:4; stroke-opacity:1; fill:none" points="599.406,525.444 599.406,1521.01 676.964,1521.01 676.964,525.444 599.406,525.444 "/>
<path clip-path="url(#clip702)" d="M676.964 220.386 L676.964 1521.01 L754.523 1521.01 L754.523 220.386 L676.964 220.386 L676.964 220.386  Z" fill="#009af9" fill-rule="evenodd" fill-opacity="1"/>
<polyline clip-path="url(#clip702)" style="stroke:#000000; stroke-linecap:round; stroke-linejoin:round; stroke-width:4; stroke-opacity:1; fill:none" points="676.964,220.386 676.964,1521.01 754.523,1521.01 754.523,220.386 676.964,220.386 "/>
<path clip-path="url(#clip702)" d="M754.523 47.2441 L754.523 1521.01 L832.081 1521.01 L832.081 47.2441 L754.523 47.2441 L754.523 47.2441  Z" fill="#009af9" fill-rule="evenodd" fill-opacity="1"/>
<polyline clip-path="url(#clip702)" style="stroke:#000000; stroke-linecap:round; stroke-linejoin:round; stroke-width:4; stroke-opacity:1; fill:none" points="754.523,47.2441 754.523,1521.01 832.081,1521.01 832.081,47.2441 754.523,47.2441 "/>
<path clip-path="url(#clip702)" d="M832.081 160.611 L832.081 1521.01 L909.64 1521.01 L909.64 160.611 L832.081 160.611 L832.081 160.611  Z" fill="#009af9" fill-rule="evenodd" fill-opacity="1"/>
<polyline clip-path="url(#clip702)" style="stroke:#000000; stroke-linecap:round; stroke-linejoin:round; stroke-width:4; stroke-opacity:1; fill:none" points="832.081,160.611 832.081,1521.01 909.64,1521.01 909.64,160.611 832.081,160.611 "/>
<path clip-path="url(#clip702)" d="M909.64 311.079 L909.64 1521.01 L987.198 1521.01 L987.198 311.079 L909.64 311.079 L909.64 311.079  Z" fill="#009af9" fill-rule="evenodd" fill-opacity="1"/>
<polyline clip-path="url(#clip702)" style="stroke:#000000; stroke-linecap:round; stroke-linejoin:round; stroke-width:4; stroke-opacity:1; fill:none" points="909.64,311.079 909.64,1521.01 987.198,1521.01 987.198,311.079 909.64,311.079 "/>
<path clip-path="url(#clip702)" d="M987.198 680.035 L987.198 1521.01 L1064.76 1521.01 L1064.76 680.035 L987.198 680.035 L987.198 680.035  Z" fill="#009af9" fill-rule="evenodd" fill-opacity="1"/>
<polyline clip-path="url(#clip702)" style="stroke:#000000; stroke-linecap:round; stroke-linejoin:round; stroke-width:4; stroke-opacity:1; fill:none" points="987.198,680.035 987.198,1521.01 1064.76,1521.01 1064.76,680.035 987.198,680.035 "/>
<path clip-path="url(#clip702)" d="M1064.76 803.707 L1064.76 1521.01 L1142.32 1521.01 L1142.32 803.707 L1064.76 803.707 L1064.76 803.707  Z" fill="#009af9" fill-rule="evenodd" fill-opacity="1"/>
<polyline clip-path="url(#clip702)" style="stroke:#000000; stroke-linecap:round; stroke-linejoin:round; stroke-width:4; stroke-opacity:1; fill:none" points="1064.76,803.707 1064.76,1521.01 1142.32,1521.01 1142.32,803.707 1064.76,803.707 "/>
<path clip-path="url(#clip702)" d="M1142.32 1024.26 L1142.32 1521.01 L1219.87 1521.01 L1219.87 1024.26 L1142.32 1024.26 L1142.32 1024.26  Z" fill="#009af9" fill-rule="evenodd" fill-opacity="1"/>
<polyline clip-path="url(#clip702)" style="stroke:#000000; stroke-linecap:round; stroke-linejoin:round; stroke-width:4; stroke-opacity:1; fill:none" points="1142.32,1024.26 1142.32,1521.01 1219.87,1521.01 1219.87,1024.26 1142.32,1024.26 "/>
<path clip-path="url(#clip702)" d="M1219.87 1180.91 L1219.87 1521.01 L1297.43 1521.01 L1297.43 1180.91 L1219.87 1180.91 L1219.87 1180.91  Z" fill="#009af9" fill-rule="evenodd" fill-opacity="1"/>
<polyline clip-path="url(#clip702)" style="stroke:#000000; stroke-linecap:round; stroke-linejoin:round; stroke-width:4; stroke-opacity:1; fill:none" points="1219.87,1180.91 1219.87,1521.01 1297.43,1521.01 1297.43,1180.91 1219.87,1180.91 "/>
<path clip-path="url(#clip702)" d="M1297.43 1323.13 L1297.43 1521.01 L1374.99 1521.01 L1374.99 1323.13 L1297.43 1323.13 L1297.43 1323.13  Z" fill="#009af9" fill-rule="evenodd" fill-opacity="1"/>
<polyline clip-path="url(#clip702)" style="stroke:#000000; stroke-linecap:round; stroke-linejoin:round; stroke-width:4; stroke-opacity:1; fill:none" points="1297.43,1323.13 1297.43,1521.01 1374.99,1521.01 1374.99,1323.13 1297.43,1323.13 "/>
<path clip-path="url(#clip702)" d="M1374.99 1409.7 L1374.99 1521.01 L1452.55 1521.01 L1452.55 1409.7 L1374.99 1409.7 L1374.99 1409.7  Z" fill="#009af9" fill-rule="evenodd" fill-opacity="1"/>
<polyline clip-path="url(#clip702)" style="stroke:#000000; stroke-linecap:round; stroke-linejoin:round; stroke-width:4; stroke-opacity:1; fill:none" points="1374.99,1409.7 1374.99,1521.01 1452.55,1521.01 1452.55,1409.7 1374.99,1409.7 "/>
<path clip-path="url(#clip702)" d="M1452.55 1422.07 L1452.55 1521.01 L1530.11 1521.01 L1530.11 1422.07 L1452.55 1422.07 L1452.55 1422.07  Z" fill="#009af9" fill-rule="evenodd" fill-opacity="1"/>
<polyline clip-path="url(#clip702)" style="stroke:#000000; stroke-linecap:round; stroke-linejoin:round; stroke-width:4; stroke-opacity:1; fill:none" points="1452.55,1422.07 1452.55,1521.01 1530.11,1521.01 1530.11,1422.07 1452.55,1422.07 "/>
<path clip-path="url(#clip702)" d="M1530.11 1459.17 L1530.11 1521.01 L1607.67 1521.01 L1607.67 1459.17 L1530.11 1459.17 L1530.11 1459.17  Z" fill="#009af9" fill-rule="evenodd" fill-opacity="1"/>
<polyline clip-path="url(#clip702)" style="stroke:#000000; stroke-linecap:round; stroke-linejoin:round; stroke-width:4; stroke-opacity:1; fill:none" points="1530.11,1459.17 1530.11,1521.01 1607.67,1521.01 1607.67,1459.17 1530.11,1459.17 "/>
<path clip-path="url(#clip702)" d="M1607.67 1467.42 L1607.67 1521.01 L1685.23 1521.01 L1685.23 1467.42 L1607.67 1467.42 L1607.67 1467.42  Z" fill="#009af9" fill-rule="evenodd" fill-opacity="1"/>
<polyline clip-path="url(#clip702)" style="stroke:#000000; stroke-linecap:round; stroke-linejoin:round; stroke-width:4; stroke-opacity:1; fill:none" points="1607.67,1467.42 1607.67,1521.01 1685.23,1521.01 1685.23,1467.42 1607.67,1467.42 "/>
<path clip-path="url(#clip702)" d="M1685.23 1512.76 L1685.23 1521.01 L1762.78 1521.01 L1762.78 1512.76 L1685.23 1512.76 L1685.23 1512.76  Z" fill="#009af9" fill-rule="evenodd" fill-opacity="1"/>
<polyline clip-path="url(#clip702)" style="stroke:#000000; stroke-linecap:round; stroke-linejoin:round; stroke-width:4; stroke-opacity:1; fill:none" points="1685.23,1512.76 1685.23,1521.01 1762.78,1521.01 1762.78,1512.76 1685.23,1512.76 "/>
<path clip-path="url(#clip702)" d="M1762.78 1512.76 L1762.78 1521.01 L1840.34 1521.01 L1840.34 1512.76 L1762.78 1512.76 L1762.78 1512.76  Z" fill="#009af9" fill-rule="evenodd" fill-opacity="1"/>
<polyline clip-path="url(#clip702)" style="stroke:#000000; stroke-linecap:round; stroke-linejoin:round; stroke-width:4; stroke-opacity:1; fill:none" points="1762.78,1512.76 1762.78,1521.01 1840.34,1521.01 1840.34,1512.76 1762.78,1512.76 "/>
<path clip-path="url(#clip702)" d="M1840.34 1508.64 L1840.34 1521.01 L1917.9 1521.01 L1917.9 1508.64 L1840.34 1508.64 L1840.34 1508.64  Z" fill="#009af9" fill-rule="evenodd" fill-opacity="1"/>
<polyline clip-path="url(#clip702)" style="stroke:#000000; stroke-linecap:round; stroke-linejoin:round; stroke-width:4; stroke-opacity:1; fill:none" points="1840.34,1508.64 1840.34,1521.01 1917.9,1521.01 1917.9,1508.64 1840.34,1508.64 "/>
<path clip-path="url(#clip702)" d="M1917.9 1512.76 L1917.9 1521.01 L1995.46 1521.01 L1995.46 1512.76 L1917.9 1512.76 L1917.9 1512.76  Z" fill="#009af9" fill-rule="evenodd" fill-opacity="1"/>
<polyline clip-path="url(#clip702)" style="stroke:#000000; stroke-linecap:round; stroke-linejoin:round; stroke-width:4; stroke-opacity:1; fill:none" points="1917.9,1512.76 1917.9,1521.01 1995.46,1521.01 1995.46,1512.76 1917.9,1512.76 "/>
<path clip-path="url(#clip702)" d="M1995.46 1516.89 L1995.46 1521.01 L2073.02 1521.01 L2073.02 1516.89 L1995.46 1516.89 L1995.46 1516.89  Z" fill="#009af9" fill-rule="evenodd" fill-opacity="1"/>
<polyline clip-path="url(#clip702)" style="stroke:#000000; stroke-linecap:round; stroke-linejoin:round; stroke-width:4; stroke-opacity:1; fill:none" points="1995.46,1516.89 1995.46,1521.01 2073.02,1521.01 2073.02,1516.89 1995.46,1516.89 "/>
<path clip-path="url(#clip702)" d="M2073.02 1521.01 L2073.02 1521.01 L2150.58 1521.01 L2150.58 1521.01 L2073.02 1521.01 L2073.02 1521.01  Z" fill="#009af9" fill-rule="evenodd" fill-opacity="1"/>
<polyline clip-path="url(#clip702)" style="stroke:#000000; stroke-linecap:round; stroke-linejoin:round; stroke-width:4; stroke-opacity:1; fill:none" points="2073.02,1521.01 2073.02,1521.01 2150.58,1521.01 2073.02,1521.01 "/>
<path clip-path="url(#clip702)" d="M2150.58 1518.95 L2150.58 1521.01 L2228.13 1521.01 L2228.13 1518.95 L2150.58 1518.95 L2150.58 1518.95  Z" fill="#009af9" fill-rule="evenodd" fill-opacity="1"/>
<polyline clip-path="url(#clip702)" style="stroke:#000000; stroke-linecap:round; stroke-linejoin:round; stroke-width:4; stroke-opacity:1; fill:none" points="2150.58,1518.95 2150.58,1521.01 2228.13,1521.01 2228.13,1518.95 2150.58,1518.95 "/>
<circle clip-path="url(#clip702)" style="fill:#009af9; stroke:none; fill-opacity:0" cx="250.392" cy="1518.95" r="2"/>
<circle clip-path="url(#clip702)" style="fill:#009af9; stroke:none; fill-opacity:0" cx="327.951" cy="1498.33" r="2"/>
<circle clip-path="url(#clip702)" style="fill:#009af9; stroke:none; fill-opacity:0" cx="405.509" cy="1440.62" r="2"/>
<circle clip-path="url(#clip702)" style="fill:#009af9; stroke:none; fill-opacity:0" cx="483.068" cy="1255.11" r="2"/>
<circle clip-path="url(#clip702)" style="fill:#009af9; stroke:none; fill-opacity:0" cx="560.627" cy="888.217" r="2"/>
<circle clip-path="url(#clip702)" style="fill:#009af9; stroke:none; fill-opacity:0" cx="638.185" cy="525.444" r="2"/>
<circle clip-path="url(#clip702)" style="fill:#009af9; stroke:none; fill-opacity:0" cx="715.744" cy="220.386" r="2"/>
<circle clip-path="url(#clip702)" style="fill:#009af9; stroke:none; fill-opacity:0" cx="793.302" cy="47.2441" r="2"/>
<circle clip-path="url(#clip702)" style="fill:#009af9; stroke:none; fill-opacity:0" cx="870.861" cy="160.611" r="2"/>
<circle clip-path="url(#clip702)" style="fill:#009af9; stroke:none; fill-opacity:0" cx="948.419" cy="311.079" r="2"/>
<circle clip-path="url(#clip702)" style="fill:#009af9; stroke:none; fill-opacity:0" cx="1025.98" cy="680.035" r="2"/>
<circle clip-path="url(#clip702)" style="fill:#009af9; stroke:none; fill-opacity:0" cx="1103.54" cy="803.707" r="2"/>
<circle clip-path="url(#clip702)" style="fill:#009af9; stroke:none; fill-opacity:0" cx="1181.09" cy="1024.26" r="2"/>
<circle clip-path="url(#clip702)" style="fill:#009af9; stroke:none; fill-opacity:0" cx="1258.65" cy="1180.91" r="2"/>
<circle clip-path="url(#clip702)" style="fill:#009af9; stroke:none; fill-opacity:0" cx="1336.21" cy="1323.13" r="2"/>
<circle clip-path="url(#clip702)" style="fill:#009af9; stroke:none; fill-opacity:0" cx="1413.77" cy="1409.7" r="2"/>
<circle clip-path="url(#clip702)" style="fill:#009af9; stroke:none; fill-opacity:0" cx="1491.33" cy="1422.07" r="2"/>
<circle clip-path="url(#clip702)" style="fill:#009af9; stroke:none; fill-opacity:0" cx="1568.89" cy="1459.17" r="2"/>
<circle clip-path="url(#clip702)" style="fill:#009af9; stroke:none; fill-opacity:0" cx="1646.45" cy="1467.42" r="2"/>
<circle clip-path="url(#clip702)" style="fill:#009af9; stroke:none; fill-opacity:0" cx="1724" cy="1512.76" r="2"/>
<circle clip-path="url(#clip702)" style="fill:#009af9; stroke:none; fill-opacity:0" cx="1801.56" cy="1512.76" r="2"/>
<circle clip-path="url(#clip702)" style="fill:#009af9; stroke:none; fill-opacity:0" cx="1879.12" cy="1508.64" r="2"/>
<circle clip-path="url(#clip702)" style="fill:#009af9; stroke:none; fill-opacity:0" cx="1956.68" cy="1512.76" r="2"/>
<circle clip-path="url(#clip702)" style="fill:#009af9; stroke:none; fill-opacity:0" cx="2034.24" cy="1516.89" r="2"/>
<circle clip-path="url(#clip702)" style="fill:#009af9; stroke:none; fill-opacity:0" cx="2111.8" cy="1521.01" r="2"/>
<circle clip-path="url(#clip702)" style="fill:#009af9; stroke:none; fill-opacity:0" cx="2189.36" cy="1518.95" r="2"/>
<path clip-path="url(#clip700)" d="M1817.6 200.05 L2277.23 200.05 L2277.23 96.3696 L1817.6 96.3696  Z" fill="#ffffff" fill-rule="evenodd" fill-opacity="1"/>
<polyline clip-path="url(#clip700)" style="stroke:#000000; stroke-linecap:round; stroke-linejoin:round; stroke-width:4; stroke-opacity:1; fill:none" points="1817.6,200.05 2277.23,200.05 2277.23,96.3696 1817.6,96.3696 1817.6,200.05 "/>
<path clip-path="url(#clip700)" d="M1842.77 168.946 L1993.83 168.946 L1993.83 127.474 L1842.77 127.474 L1842.77 168.946  Z" fill="#009af9" fill-rule="evenodd" fill-opacity="1"/>
<polyline clip-path="url(#clip700)" style="stroke:#000000; stroke-linecap:round; stroke-linejoin:round; stroke-width:4; stroke-opacity:1; fill:none" points="1842.77,168.946 1993.83,168.946 1993.83,127.474 1842.77,127.474 1842.77,168.946 "/>
<path clip-path="url(#clip700)" d="M2030.9 142.55 Q2027.47 142.55 2025.48 145.235 Q2023.49 147.897 2023.49 152.55 Q2023.49 157.203 2025.46 159.888 Q2027.45 162.55 2030.9 162.55 Q2034.3 162.55 2036.29 159.865 Q2038.28 157.179 2038.28 152.55 Q2038.28 147.943 2036.29 145.258 Q2034.3 142.55 2030.9 142.55 M2030.9 138.939 Q2036.45 138.939 2039.63 142.55 Q2042.8 146.161 2042.8 152.55 Q2042.8 158.916 2039.63 162.55 Q2036.45 166.161 2030.9 166.161 Q2025.32 166.161 2022.15 162.55 Q2019 158.916 2019 152.55 Q2019 146.161 2022.15 142.55 Q2025.32 138.939 2030.9 138.939 Z" fill="#000000" fill-rule="nonzero" fill-opacity="1" /><path clip-path="url(#clip700)" d="M2066.92 143.499 L2066.92 129.471 L2071.18 129.471 L2071.18 165.49 L2066.92 165.49 L2066.92 161.601 Q2065.57 163.915 2063.51 165.05 Q2061.48 166.161 2058.61 166.161 Q2053.91 166.161 2050.95 162.411 Q2048.01 158.661 2048.01 152.55 Q2048.01 146.439 2050.95 142.689 Q2053.91 138.939 2058.61 138.939 Q2061.48 138.939 2063.51 140.073 Q2065.57 141.184 2066.92 143.499 M2052.4 152.55 Q2052.4 157.249 2054.32 159.934 Q2056.27 162.596 2059.65 162.596 Q2063.03 162.596 2064.97 159.934 Q2066.92 157.249 2066.92 152.55 Q2066.92 147.851 2064.97 145.189 Q2063.03 142.504 2059.65 142.504 Q2056.27 142.504 2054.32 145.189 Q2052.4 147.851 2052.4 152.55 Z" fill="#000000" fill-rule="nonzero" fill-opacity="1" /><path clip-path="url(#clip700)" d="M2097.01 143.499 L2097.01 129.471 L2101.27 129.471 L2101.27 165.49 L2097.01 165.49 L2097.01 161.601 Q2095.67 163.915 2093.61 165.05 Q2091.57 166.161 2088.7 166.161 Q2084 166.161 2081.04 162.411 Q2078.1 158.661 2078.1 152.55 Q2078.1 146.439 2081.04 142.689 Q2084 138.939 2088.7 138.939 Q2091.57 138.939 2093.61 140.073 Q2095.67 141.184 2097.01 143.499 M2082.5 152.55 Q2082.5 157.249 2084.42 159.934 Q2086.36 162.596 2089.74 162.596 Q2093.12 162.596 2095.07 159.934 Q2097.01 157.249 2097.01 152.55 Q2097.01 147.851 2095.07 145.189 Q2093.12 142.504 2089.74 142.504 Q2086.36 142.504 2084.42 145.189 Q2082.5 147.851 2082.5 152.55 Z" fill="#000000" fill-rule="nonzero" fill-opacity="1" /><path clip-path="url(#clip700)" d="M2126.57 140.328 L2126.57 144.355 Q2124.76 143.429 2122.82 142.967 Q2120.88 142.504 2118.79 142.504 Q2115.62 142.504 2114.02 143.476 Q2112.45 144.448 2112.45 146.392 Q2112.45 147.874 2113.58 148.73 Q2114.72 149.564 2118.14 150.328 L2119.6 150.652 Q2124.14 151.624 2126.04 153.406 Q2127.96 155.166 2127.96 158.337 Q2127.96 161.948 2125.09 164.054 Q2122.24 166.161 2117.24 166.161 Q2115.16 166.161 2112.89 165.744 Q2110.64 165.351 2108.14 164.54 L2108.14 160.142 Q2110.51 161.369 2112.8 161.994 Q2115.09 162.596 2117.33 162.596 Q2120.34 162.596 2121.96 161.578 Q2123.58 160.536 2123.58 158.661 Q2123.58 156.925 2122.4 155.999 Q2121.25 155.073 2117.29 154.216 L2115.81 153.869 Q2111.85 153.036 2110.09 151.323 Q2108.33 149.587 2108.33 146.578 Q2108.33 142.92 2110.92 140.93 Q2113.51 138.939 2118.28 138.939 Q2120.64 138.939 2122.73 139.286 Q2124.81 139.633 2126.57 140.328 Z" fill="#000000" fill-rule="nonzero" fill-opacity="1" /><path clip-path="url(#clip700)" d="M2164.83 143.545 Q2164.12 143.129 2163.26 142.943 Q2162.43 142.735 2161.41 142.735 Q2157.8 142.735 2155.85 145.096 Q2153.93 147.434 2153.93 151.832 L2153.93 165.49 L2149.65 165.49 L2149.65 139.564 L2153.93 139.564 L2153.93 143.592 Q2155.27 141.23 2157.43 140.096 Q2159.58 138.939 2162.66 138.939 Q2163.1 138.939 2163.63 139.008 Q2164.16 139.055 2164.81 139.17 L2164.83 143.545 Z" fill="#000000" fill-rule="nonzero" fill-opacity="1" /><path clip-path="url(#clip700)" d="M2181.08 152.457 Q2175.92 152.457 2173.93 153.638 Q2171.94 154.818 2171.94 157.666 Q2171.94 159.934 2173.42 161.277 Q2174.93 162.596 2177.5 162.596 Q2181.04 162.596 2183.17 160.096 Q2185.32 157.573 2185.32 153.406 L2185.32 152.457 L2181.08 152.457 M2189.58 150.698 L2189.58 165.49 L2185.32 165.49 L2185.32 161.554 Q2183.86 163.915 2181.69 165.05 Q2179.51 166.161 2176.36 166.161 Q2172.38 166.161 2170.02 163.939 Q2167.68 161.693 2167.68 157.943 Q2167.68 153.568 2170.6 151.346 Q2173.54 149.124 2179.35 149.124 L2185.32 149.124 L2185.32 148.707 Q2185.32 145.767 2183.38 144.17 Q2181.45 142.55 2177.96 142.55 Q2175.74 142.55 2173.63 143.082 Q2171.52 143.615 2169.58 144.679 L2169.58 140.744 Q2171.92 139.842 2174.12 139.402 Q2176.31 138.939 2178.4 138.939 Q2184.02 138.939 2186.8 141.855 Q2189.58 144.772 2189.58 150.698 Z" fill="#000000" fill-rule="nonzero" fill-opacity="1" /><path clip-path="url(#clip700)" d="M2202.56 132.203 L2202.56 139.564 L2211.34 139.564 L2211.34 142.874 L2202.56 142.874 L2202.56 156.948 Q2202.56 160.119 2203.42 161.022 Q2204.3 161.925 2206.96 161.925 L2211.34 161.925 L2211.34 165.49 L2206.96 165.49 Q2202.03 165.49 2200.16 163.661 Q2198.28 161.809 2198.28 156.948 L2198.28 142.874 L2195.16 142.874 L2195.16 139.564 L2198.28 139.564 L2198.28 132.203 L2202.56 132.203 Z" fill="#000000" fill-rule="nonzero" fill-opacity="1" /><path clip-path="url(#clip700)" d="M2216.94 139.564 L2221.2 139.564 L2221.2 165.49 L2216.94 165.49 L2216.94 139.564 M2216.94 129.471 L2221.2 129.471 L2221.2 134.865 L2216.94 134.865 L2216.94 129.471 Z" fill="#000000" fill-rule="nonzero" fill-opacity="1" /><path clip-path="url(#clip700)" d="M2240.16 142.55 Q2236.73 142.55 2234.74 145.235 Q2232.75 147.897 2232.75 152.55 Q2232.75 157.203 2234.72 159.888 Q2236.71 162.55 2240.16 162.55 Q2243.56 162.55 2245.55 159.865 Q2247.54 157.179 2247.54 152.55 Q2247.54 147.943 2245.55 145.258 Q2243.56 142.55 2240.16 142.55 M2240.16 138.939 Q2245.71 138.939 2248.88 142.55 Q2252.06 146.161 2252.06 152.55 Q2252.06 158.916 2248.88 162.55 Q2245.71 166.161 2240.16 166.161 Q2234.58 166.161 2231.41 162.55 Q2228.26 158.916 2228.26 152.55 Q2228.26 146.161 2231.41 142.55 Q2234.58 138.939 2240.16 138.939 Z" fill="#000000" fill-rule="nonzero" fill-opacity="1" /></svg>
