<?xml version="1.0" encoding="utf-8"?>
<svg xmlns="http://www.w3.org/2000/svg" xmlns:xlink="http://www.w3.org/1999/xlink" width="600" height="400" viewBox="0 0 2400 1600">
<defs>
  <clipPath id="clip100">
    <rect x="0" y="0" width="2400" height="1600"/>
  </clipPath>
</defs>
<path clip-path="url(#clip100)" d="M0 1600 L2400 1600 L2400 0 L0 0  Z" fill="#ffffff" fill-rule="evenodd" fill-opacity="1"/>
<defs>
  <clipPath id="clip101">
    <rect x="480" y="0" width="1681" height="1600"/>
  </clipPath>
</defs>
<path clip-path="url(#clip100)" d="M86.9921 1521.01 L2352.76 1521.01 L2352.76 47.2441 L86.9921 47.2441  Z" fill="#ffffff" fill-rule="evenodd" fill-opacity="1"/>
<defs>
  <clipPath id="clip102">
    <rect x="86" y="47" width="2267" height="1475"/>
  </clipPath>
</defs>
<polyline clip-path="url(#clip102)" style="stroke:#000000; stroke-linecap:round; stroke-linejoin:round; stroke-width:2; stroke-opacity:0.1; fill:none" points="151.118,1521.01 151.118,47.2441 "/>
<polyline clip-path="url(#clip102)" style="stroke:#000000; stroke-linecap:round; stroke-linejoin:round; stroke-width:2; stroke-opacity:0.1; fill:none" points="685.496,1521.01 685.496,47.2441 "/>
<polyline clip-path="url(#clip102)" style="stroke:#000000; stroke-linecap:round; stroke-linejoin:round; stroke-width:2; stroke-opacity:0.1; fill:none" points="1219.87,1521.01 1219.87,47.2441 "/>
<polyline clip-path="url(#clip102)" style="stroke:#000000; stroke-linecap:round; stroke-linejoin:round; stroke-width:2; stroke-opacity:0.1; fill:none" points="1754.25,1521.01 1754.25,47.2441 "/>
<polyline clip-path="url(#clip102)" style="stroke:#000000; stroke-linecap:round; stroke-linejoin:round; stroke-width:2; stroke-opacity:0.1; fill:none" points="2288.63,1521.01 2288.63,47.2441 "/>
<polyline clip-path="url(#clip100)" style="stroke:#000000; stroke-linecap:round; stroke-linejoin:round; stroke-width:4; stroke-opacity:1; fill:none" points="86.9921,1521.01 2352.76,1521.01 "/>
<polyline clip-path="url(#clip100)" style="stroke:#000000; stroke-linecap:round; stroke-linejoin:round; stroke-width:4; stroke-opacity:1; fill:none" points="151.118,1521.01 151.118,1502.11 "/>
<polyline clip-path="url(#clip100)" style="stroke:#000000; stroke-linecap:round; stroke-linejoin:round; stroke-width:4; stroke-opacity:1; fill:none" points="685.496,1521.01 685.496,1502.11 "/>
<polyline clip-path="url(#clip100)" style="stroke:#000000; stroke-linecap:round; stroke-linejoin:round; stroke-width:4; stroke-opacity:1; fill:none" points="1219.87,1521.01 1219.87,1502.11 "/>
<polyline clip-path="url(#clip100)" style="stroke:#000000; stroke-linecap:round; stroke-linejoin:round; stroke-width:4; stroke-opacity:1; fill:none" points="1754.25,1521.01 1754.25,1502.11 "/>
<polyline clip-path="url(#clip100)" style="stroke:#000000; stroke-linecap:round; stroke-linejoin:round; stroke-width:4; stroke-opacity:1; fill:none" points="2288.63,1521.01 2288.63,1502.11 "/>
<path clip-path="url(#clip100)" d="M113.421 1551.93 Q109.81 1551.93 107.981 1555.49 Q106.176 1559.03 106.176 1566.16 Q106.176 1573.27 107.981 1576.83 Q109.81 1580.38 113.421 1580.38 Q117.055 1580.38 118.861 1576.83 Q120.689 1573.27 120.689 1566.16 Q120.689 1559.03 118.861 1555.49 Q117.055 1551.93 113.421 1551.93 M113.421 1548.22 Q119.231 1548.22 122.287 1552.83 Q125.365 1557.41 125.365 1566.16 Q125.365 1574.89 122.287 1579.5 Q119.231 1584.08 113.421 1584.08 Q107.611 1584.08 104.532 1579.5 Q101.477 1574.89 101.477 1566.16 Q101.477 1557.41 104.532 1552.83 Q107.611 1548.22 113.421 1548.22 Z" fill="#000000" fill-rule="nonzero" fill-opacity="1" /><path clip-path="url(#clip100)" d="M133.583 1577.53 L138.467 1577.53 L138.467 1583.41 L133.583 1583.41 L133.583 1577.53 Z" fill="#000000" fill-rule="nonzero" fill-opacity="1" /><path clip-path="url(#clip100)" d="M158.652 1551.93 Q155.041 1551.93 153.212 1555.49 Q151.407 1559.03 151.407 1566.16 Q151.407 1573.27 153.212 1576.83 Q155.041 1580.38 158.652 1580.38 Q162.286 1580.38 164.092 1576.83 Q165.921 1573.27 165.921 1566.16 Q165.921 1559.03 164.092 1555.49 Q162.286 1551.93 158.652 1551.93 M158.652 1548.22 Q164.462 1548.22 167.518 1552.83 Q170.597 1557.41 170.597 1566.16 Q170.597 1574.89 167.518 1579.5 Q164.462 1584.08 158.652 1584.08 Q152.842 1584.08 149.763 1579.5 Q146.708 1574.89 146.708 1566.16 Q146.708 1557.41 149.763 1552.83 Q152.842 1548.22 158.652 1548.22 Z" fill="#000000" fill-rule="nonzero" fill-opacity="1" /><path clip-path="url(#clip100)" d="M188.814 1551.93 Q185.203 1551.93 183.374 1555.49 Q181.569 1559.03 181.569 1566.16 Q181.569 1573.27 183.374 1576.83 Q185.203 1580.38 188.814 1580.38 Q192.448 1580.38 194.254 1576.83 Q196.083 1573.27 196.083 1566.16 Q196.083 1559.03 194.254 1555.49 Q192.448 1551.93 188.814 1551.93 M188.814 1548.22 Q194.624 1548.22 197.68 1552.83 Q200.758 1557.41 200.758 1566.16 Q200.758 1574.89 197.68 1579.5 Q194.624 1584.08 188.814 1584.08 Q183.004 1584.08 179.925 1579.5 Q176.87 1574.89 176.87 1566.16 Q176.87 1557.41 179.925 1552.83 Q183.004 1548.22 188.814 1548.22 Z" fill="#000000" fill-rule="nonzero" fill-opacity="1" /><path clip-path="url(#clip100)" d="M648.297 1551.93 Q644.686 1551.93 642.857 1555.49 Q641.052 1559.03 641.052 1566.16 Q641.052 1573.27 642.857 1576.83 Q644.686 1580.38 648.297 1580.38 Q651.931 1580.38 653.737 1576.83 Q655.565 1573.27 655.565 1566.16 Q655.565 1559.03 653.737 1555.49 Q651.931 1551.93 648.297 1551.93 M648.297 1548.22 Q654.107 1548.22 657.163 1552.83 Q660.241 1557.41 660.241 1566.16 Q660.241 1574.89 657.163 1579.5 Q654.107 1584.08 648.297 1584.08 Q642.487 1584.08 639.408 1579.5 Q636.353 1574.89 636.353 1566.16 Q636.353 1557.41 639.408 1552.83 Q642.487 1548.22 648.297 1548.22 Z" fill="#000000" fill-rule="nonzero" fill-opacity="1" /><path clip-path="url(#clip100)" d="M668.459 1577.53 L673.343 1577.53 L673.343 1583.41 L668.459 1583.41 L668.459 1577.53 Z" fill="#000000" fill-rule="nonzero" fill-opacity="1" /><path clip-path="url(#clip100)" d="M687.556 1579.47 L703.875 1579.47 L703.875 1583.41 L681.931 1583.41 L681.931 1579.47 Q684.593 1576.72 689.176 1572.09 Q693.783 1567.44 694.963 1566.09 Q697.209 1563.57 698.088 1561.83 Q698.991 1560.07 698.991 1558.38 Q698.991 1555.63 697.047 1553.89 Q695.125 1552.16 692.024 1552.16 Q689.824 1552.16 687.371 1552.92 Q684.94 1553.69 682.162 1555.24 L682.162 1550.51 Q684.987 1549.38 687.44 1548.8 Q689.894 1548.22 691.931 1548.22 Q697.301 1548.22 700.496 1550.91 Q703.69 1553.59 703.69 1558.08 Q703.69 1560.21 702.88 1562.13 Q702.093 1564.03 699.986 1566.63 Q699.408 1567.3 696.306 1570.51 Q693.204 1573.71 687.556 1579.47 Z" fill="#000000" fill-rule="nonzero" fill-opacity="1" /><path clip-path="url(#clip100)" d="M713.736 1548.85 L732.093 1548.85 L732.093 1552.78 L718.019 1552.78 L718.019 1561.26 Q719.037 1560.91 720.056 1560.75 Q721.074 1560.56 722.093 1560.56 Q727.88 1560.56 731.259 1563.73 Q734.639 1566.9 734.639 1572.32 Q734.639 1577.9 731.167 1581 Q727.695 1584.08 721.375 1584.08 Q719.199 1584.08 716.931 1583.71 Q714.685 1583.34 712.278 1582.6 L712.278 1577.9 Q714.361 1579.03 716.584 1579.59 Q718.806 1580.14 721.283 1580.14 Q725.287 1580.14 727.625 1578.04 Q729.963 1575.93 729.963 1572.32 Q729.963 1568.71 727.625 1566.6 Q725.287 1564.5 721.283 1564.5 Q719.408 1564.5 717.533 1564.91 Q715.681 1565.33 713.736 1566.21 L713.736 1548.85 Z" fill="#000000" fill-rule="nonzero" fill-opacity="1" /><path clip-path="url(#clip100)" d="M1182.18 1551.93 Q1178.57 1551.93 1176.74 1555.49 Q1174.93 1559.03 1174.93 1566.16 Q1174.93 1573.27 1176.74 1576.83 Q1178.57 1580.38 1182.18 1580.38 Q1185.81 1580.38 1187.62 1576.83 Q1189.45 1573.27 1189.45 1566.16 Q1189.45 1559.03 1187.62 1555.49 Q1185.81 1551.93 1182.18 1551.93 M1182.18 1548.22 Q1187.99 1548.22 1191.04 1552.83 Q1194.12 1557.41 1194.12 1566.16 Q1194.12 1574.89 1191.04 1579.5 Q1187.99 1584.08 1182.18 1584.08 Q1176.37 1584.08 1173.29 1579.5 Q1170.23 1574.89 1170.23 1566.16 Q1170.23 1557.41 1173.29 1552.83 Q1176.37 1548.22 1182.18 1548.22 Z" fill="#000000" fill-rule="nonzero" fill-opacity="1" /><path clip-path="url(#clip100)" d="M1202.34 1577.53 L1207.22 1577.53 L1207.22 1583.41 L1202.34 1583.41 L1202.34 1577.53 Z" fill="#000000" fill-rule="nonzero" fill-opacity="1" /><path clip-path="url(#clip100)" d="M1217.46 1548.85 L1235.81 1548.85 L1235.81 1552.78 L1221.74 1552.78 L1221.74 1561.26 Q1222.76 1560.91 1223.77 1560.75 Q1224.79 1560.56 1225.81 1560.56 Q1231.6 1560.56 1234.98 1563.73 Q1238.36 1566.9 1238.36 1572.32 Q1238.36 1577.9 1234.89 1581 Q1231.41 1584.08 1225.09 1584.08 Q1222.92 1584.08 1220.65 1583.71 Q1218.4 1583.34 1216 1582.6 L1216 1577.9 Q1218.08 1579.03 1220.3 1579.59 Q1222.52 1580.14 1225 1580.14 Q1229.01 1580.14 1231.34 1578.04 Q1233.68 1575.93 1233.68 1572.32 Q1233.68 1568.71 1231.34 1566.6 Q1229.01 1564.5 1225 1564.5 Q1223.13 1564.5 1221.25 1564.91 Q1219.4 1565.33 1217.46 1566.21 L1217.46 1548.85 Z" fill="#000000" fill-rule="nonzero" fill-opacity="1" /><path clip-path="url(#clip100)" d="M1257.57 1551.93 Q1253.96 1551.93 1252.13 1555.49 Q1250.33 1559.03 1250.33 1566.16 Q1250.33 1573.27 1252.13 1576.83 Q1253.96 1580.38 1257.57 1580.38 Q1261.2 1580.38 1263.01 1576.83 Q1264.84 1573.27 1264.84 1566.16 Q1264.84 1559.03 1263.01 1555.49 Q1261.2 1551.93 1257.57 1551.93 M1257.57 1548.22 Q1263.38 1548.22 1266.44 1552.83 Q1269.51 1557.41 1269.51 1566.16 Q1269.51 1574.89 1266.44 1579.5 Q1263.38 1584.08 1257.57 1584.08 Q1251.76 1584.08 1248.68 1579.5 Q1245.63 1574.89 1245.63 1566.16 Q1245.63 1557.41 1248.68 1552.83 Q1251.76 1548.22 1257.57 1548.22 Z" fill="#000000" fill-rule="nonzero" fill-opacity="1" /><path clip-path="url(#clip100)" d="M1717.05 1551.93 Q1713.44 1551.93 1711.61 1555.49 Q1709.81 1559.03 1709.81 1566.16 Q1709.81 1573.27 1711.61 1576.83 Q1713.44 1580.38 1717.05 1580.38 Q1720.69 1580.38 1722.49 1576.83 Q1724.32 1573.27 1724.32 1566.16 Q1724.32 1559.03 1722.49 1555.49 Q1720.69 1551.93 1717.05 1551.93 M1717.05 1548.22 Q1722.86 1548.22 1725.92 1552.83 Q1729 1557.41 1729 1566.16 Q1729 1574.89 1725.92 1579.5 Q1722.86 1584.08 1717.05 1584.08 Q1711.24 1584.08 1708.16 1579.5 Q1705.11 1574.89 1705.11 1566.16 Q1705.11 1557.41 1708.16 1552.83 Q1711.24 1548.22 1717.05 1548.22 Z" fill="#000000" fill-rule="nonzero" fill-opacity="1" /><path clip-path="url(#clip100)" d="M1737.22 1577.53 L1742.1 1577.53 L1742.1 1583.41 L1737.22 1583.41 L1737.22 1577.53 Z" fill="#000000" fill-rule="nonzero" fill-opacity="1" /><path clip-path="url(#clip100)" d="M1751.1 1548.85 L1773.33 1548.85 L1773.33 1550.84 L1760.78 1583.41 L1755.9 1583.41 L1767.7 1552.78 L1751.1 1552.78 L1751.1 1548.85 Z" fill="#000000" fill-rule="nonzero" fill-opacity="1" /><path clip-path="url(#clip100)" d="M1782.49 1548.85 L1800.85 1548.85 L1800.85 1552.78 L1786.78 1552.78 L1786.78 1561.26 Q1787.79 1560.91 1788.81 1560.75 Q1789.83 1560.56 1790.85 1560.56 Q1796.64 1560.56 1800.02 1563.73 Q1803.4 1566.9 1803.4 1572.32 Q1803.4 1577.9 1799.92 1581 Q1796.45 1584.08 1790.13 1584.08 Q1787.96 1584.08 1785.69 1583.71 Q1783.44 1583.34 1781.03 1582.6 L1781.03 1577.9 Q1783.12 1579.03 1785.34 1579.59 Q1787.56 1580.14 1790.04 1580.14 Q1794.04 1580.14 1796.38 1578.04 Q1798.72 1575.93 1798.72 1572.32 Q1798.72 1568.71 1796.38 1566.6 Q1794.04 1564.5 1790.04 1564.5 Q1788.16 1564.5 1786.29 1564.91 Q1784.44 1565.33 1782.49 1566.21 L1782.49 1548.85 Z" fill="#000000" fill-rule="nonzero" fill-opacity="1" /><path clip-path="url(#clip100)" d="M2240.7 1579.47 L2248.34 1579.47 L2248.34 1553.11 L2240.03 1554.77 L2240.03 1550.51 L2248.3 1548.85 L2252.97 1548.85 L2252.97 1579.47 L2260.61 1579.47 L2260.61 1583.41 L2240.7 1583.41 L2240.7 1579.47 Z" fill="#000000" fill-rule="nonzero" fill-opacity="1" /><path clip-path="url(#clip100)" d="M2270.05 1577.53 L2274.94 1577.53 L2274.94 1583.41 L2270.05 1583.41 L2270.05 1577.53 Z" fill="#000000" fill-rule="nonzero" fill-opacity="1" /><path clip-path="url(#clip100)" d="M2295.12 1551.93 Q2291.51 1551.93 2289.68 1555.49 Q2287.88 1559.03 2287.88 1566.16 Q2287.88 1573.27 2289.68 1576.83 Q2291.51 1580.38 2295.12 1580.38 Q2298.76 1580.38 2300.56 1576.83 Q2302.39 1573.27 2302.39 1566.16 Q2302.39 1559.03 2300.56 1555.49 Q2298.76 1551.93 2295.12 1551.93 M2295.12 1548.22 Q2300.93 1548.22 2303.99 1552.83 Q2307.07 1557.41 2307.07 1566.16 Q2307.07 1574.89 2303.99 1579.5 Q2300.93 1584.08 2295.12 1584.08 Q2289.31 1584.08 2286.23 1579.5 Q2283.18 1574.89 2283.18 1566.16 Q2283.18 1557.41 2286.23 1552.83 Q2289.31 1548.22 2295.12 1548.22 Z" fill="#000000" fill-rule="nonzero" fill-opacity="1" /><path clip-path="url(#clip100)" d="M2325.29 1551.93 Q2321.67 1551.93 2319.85 1555.49 Q2318.04 1559.03 2318.04 1566.16 Q2318.04 1573.27 2319.85 1576.83 Q2321.67 1580.38 2325.29 1580.38 Q2328.92 1580.38 2330.73 1576.83 Q2332.55 1573.27 2332.55 1566.16 Q2332.55 1559.03 2330.73 1555.49 Q2328.92 1551.93 2325.29 1551.93 M2325.29 1548.22 Q2331.1 1548.22 2334.15 1552.83 Q2337.23 1557.41 2337.23 1566.16 Q2337.23 1574.89 2334.15 1579.5 Q2331.1 1584.08 2325.29 1584.08 Q2319.48 1584.08 2316.4 1579.5 Q2313.34 1574.89 2313.34 1566.16 Q2313.34 1557.41 2316.4 1552.83 Q2319.48 1548.22 2325.29 1548.22 Z" fill="#000000" fill-rule="nonzero" fill-opacity="1" /><polyline clip-path="url(#clip102)" style="stroke:#000000; stroke-linecap:round; stroke-linejoin:round; stroke-width:2; stroke-opacity:0.1; fill:none" points="86.9921,1479.3 2352.76,1479.3 "/>
<polyline clip-path="url(#clip102)" style="stroke:#000000; stroke-linecap:round; stroke-linejoin:round; stroke-width:2; stroke-opacity:0.1; fill:none" points="86.9921,1246.84 2352.76,1246.84 "/>
<polyline clip-path="url(#clip102)" style="stroke:#000000; stroke-linecap:round; stroke-linejoin:round; stroke-width:2; stroke-opacity:0.1; fill:none" points="86.9921,1014.38 2352.76,1014.38 "/>
<polyline clip-path="url(#clip102)" style="stroke:#000000; stroke-linecap:round; stroke-linejoin:round; stroke-width:2; stroke-opacity:0.1; fill:none" points="86.9921,781.923 2352.76,781.923 "/>
<polyline clip-path="url(#clip102)" style="stroke:#000000; stroke-linecap:round; stroke-linejoin:round; stroke-width:2; stroke-opacity:0.1; fill:none" points="86.9921,549.465 2352.76,549.465 "/>
<polyline clip-path="url(#clip102)" style="stroke:#000000; stroke-linecap:round; stroke-linejoin:round; stroke-width:2; stroke-opacity:0.1; fill:none" points="86.9921,317.007 2352.76,317.007 "/>
<polyline clip-path="url(#clip102)" style="stroke:#000000; stroke-linecap:round; stroke-linejoin:round; stroke-width:2; stroke-opacity:0.1; fill:none" points="86.9921,84.5484 2352.76,84.5484 "/>
<polyline clip-path="url(#clip100)" style="stroke:#000000; stroke-linecap:round; stroke-linejoin:round; stroke-width:4; stroke-opacity:1; fill:none" points="86.9921,1521.01 86.9921,47.2441 "/>
<polyline clip-path="url(#clip100)" style="stroke:#000000; stroke-linecap:round; stroke-linejoin:round; stroke-width:4; stroke-opacity:1; fill:none" points="86.9921,1479.3 105.89,1479.3 "/>
<polyline clip-path="url(#clip100)" style="stroke:#000000; stroke-linecap:round; stroke-linejoin:round; stroke-width:4; stroke-opacity:1; fill:none" points="86.9921,1246.84 105.89,1246.84 "/>
<polyline clip-path="url(#clip100)" style="stroke:#000000; stroke-linecap:round; stroke-linejoin:round; stroke-width:4; stroke-opacity:1; fill:none" points="86.9921,1014.38 105.89,1014.38 "/>
<polyline clip-path="url(#clip100)" style="stroke:#000000; stroke-linecap:round; stroke-linejoin:round; stroke-width:4; stroke-opacity:1; fill:none" points="86.9921,781.923 105.89,781.923 "/>
<polyline clip-path="url(#clip100)" style="stroke:#000000; stroke-linecap:round; stroke-linejoin:round; stroke-width:4; stroke-opacity:1; fill:none" points="86.9921,549.465 105.89,549.465 "/>
<polyline clip-path="url(#clip100)" style="stroke:#000000; stroke-linecap:round; stroke-linejoin:round; stroke-width:4; stroke-opacity:1; fill:none" points="86.9921,317.007 105.89,317.007 "/>
<polyline clip-path="url(#clip100)" style="stroke:#000000; stroke-linecap:round; stroke-linejoin:round; stroke-width:4; stroke-opacity:1; fill:none" points="86.9921,84.5484 105.89,84.5484 "/>
<path clip-path="url(#clip100)" d="M10.8708 1479.3 Q10.8708 1482.91 14.4356 1484.74 Q17.9773 1486.54 25.1068 1486.54 Q32.2133 1486.54 35.7781 1484.74 Q39.3197 1482.91 39.3197 1479.3 Q39.3197 1475.66 35.7781 1473.86 Q32.2133 1472.03 25.1068 1472.03 Q17.9773 1472.03 14.4356 1473.86 Q10.8708 1475.66 10.8708 1479.3 M7.16713 1479.3 Q7.16713 1473.49 11.7736 1470.43 Q16.3569 1467.35 25.1068 1467.35 Q33.8337 1467.35 38.4401 1470.43 Q43.0234 1473.49 43.0234 1479.3 Q43.0234 1485.11 38.4401 1488.19 Q33.8337 1491.24 25.1068 1491.24 Q16.3569 1491.24 11.7736 1488.19 Q7.16713 1485.11 7.16713 1479.3 Z" fill="#000000" fill-rule="nonzero" fill-opacity="1" /><path clip-path="url(#clip100)" d="M38.417 1272.15 L38.417 1264.51 L12.0514 1264.51 L13.718 1272.82 L9.45878 1272.82 L7.79213 1264.56 L7.79213 1259.88 L38.417 1259.88 L38.417 1252.24 L42.3521 1252.24 L42.3521 1272.15 L38.417 1272.15 Z" fill="#000000" fill-rule="nonzero" fill-opacity="1" /><path clip-path="url(#clip100)" d="M10.8708 1232.8 Q10.8708 1236.41 14.4356 1238.24 Q17.9773 1240.05 25.1068 1240.05 Q32.2133 1240.05 35.7781 1238.24 Q39.3197 1236.41 39.3197 1232.8 Q39.3197 1229.17 35.7781 1227.36 Q32.2133 1225.53 25.1068 1225.53 Q17.9773 1225.53 14.4356 1227.36 Q10.8708 1229.17 10.8708 1232.8 M7.16713 1232.8 Q7.16713 1226.99 11.7736 1223.93 Q16.3569 1220.86 25.1068 1220.86 Q33.8337 1220.86 38.4401 1223.93 Q43.0234 1226.99 43.0234 1232.8 Q43.0234 1238.61 38.4401 1241.69 Q33.8337 1244.74 25.1068 1244.74 Q16.3569 1244.74 11.7736 1241.69 Q7.16713 1238.61 7.16713 1232.8 Z" fill="#000000" fill-rule="nonzero" fill-opacity="1" /><path clip-path="url(#clip100)" d="M38.417 1035.61 L38.417 1019.29 L42.3521 1019.29 L42.3521 1041.23 L38.417 1041.23 Q35.6623 1038.57 31.0327 1033.99 Q26.38 1029.38 25.0374 1028.2 Q22.5143 1025.96 20.7782 1025.08 Q19.0189 1024.17 17.3291 1024.17 Q14.5745 1024.17 12.8384 1026.12 Q11.1023 1028.04 11.1023 1031.14 Q11.1023 1033.34 11.8662 1035.79 Q12.6301 1038.22 14.181 1041 L9.45878 1041 Q8.32453 1038.18 7.74583 1035.72 Q7.16713 1033.27 7.16713 1031.23 Q7.16713 1025.86 9.8523 1022.67 Q12.5375 1019.47 17.0282 1019.47 Q19.1578 1019.47 21.0791 1020.28 Q22.9772 1021.07 25.5698 1023.18 Q26.2411 1023.76 29.4587 1026.86 Q32.6531 1029.96 38.417 1035.61 Z" fill="#000000" fill-rule="nonzero" fill-opacity="1" /><path clip-path="url(#clip100)" d="M10.8708 999.474 Q10.8708 1003.08 14.4356 1004.91 Q17.9773 1006.72 25.1068 1006.72 Q32.2133 1006.72 35.7781 1004.91 Q39.3197 1003.08 39.3197 999.474 Q39.3197 995.84 35.7781 994.034 Q32.2133 992.205 25.1068 992.205 Q17.9773 992.205 14.4356 994.034 Q10.8708 995.84 10.8708 999.474 M7.16713 999.474 Q7.16713 993.664 11.7736 990.608 Q16.3569 987.529 25.1068 987.529 Q33.8337 987.529 38.4401 990.608 Q43.0234 993.664 43.0234 999.474 Q43.0234 1005.28 38.4401 1008.36 Q33.8337 1011.42 25.1068 1011.42 Q16.3569 1011.42 11.7736 1008.36 Q7.16713 1005.28 7.16713 999.474 Z" fill="#000000" fill-rule="nonzero" fill-opacity="1" /><path clip-path="url(#clip100)" d="M23.718 793.08 Q24.4356 789.724 26.7041 787.849 Q28.9726 785.951 32.3059 785.951 Q37.4216 785.951 40.2225 789.469 Q43.0234 792.988 43.0234 799.469 Q43.0234 801.645 42.5836 803.96 Q42.1669 806.252 41.3105 808.705 L36.7966 808.705 Q37.9309 806.761 38.5096 804.446 Q39.0883 802.131 39.0883 799.608 Q39.0883 795.21 37.3522 792.918 Q35.6161 790.604 32.3059 790.604 Q29.2503 790.604 27.5374 792.756 Q25.8013 794.886 25.8013 798.705 L25.8013 802.733 L21.9587 802.733 L21.9587 798.52 Q21.9587 795.071 20.593 793.242 Q19.2041 791.414 16.6115 791.414 Q13.9495 791.414 12.5375 793.312 Q11.1023 795.187 11.1023 798.705 Q11.1023 800.627 11.519 802.826 Q11.9356 805.025 12.8152 807.664 L8.6486 807.664 Q7.90787 805.002 7.5375 802.687 Q7.16713 800.349 7.16713 798.289 Q7.16713 792.965 9.59767 789.863 Q12.0051 786.761 16.1254 786.761 Q18.9958 786.761 20.9865 788.404 Q22.9541 790.048 23.718 793.08 Z" fill="#000000" fill-rule="nonzero" fill-opacity="1" /><path clip-path="url(#clip100)" d="M10.8708 767.085 Q10.8708 770.696 14.4356 772.525 Q17.9773 774.33 25.1068 774.33 Q32.2133 774.33 35.7781 772.525 Q39.3197 770.696 39.3197 767.085 Q39.3197 763.451 35.7781 761.645 Q32.2133 759.817 25.1068 759.817 Q17.9773 759.817 14.4356 761.645 Q10.8708 763.451 10.8708 767.085 M7.16713 767.085 Q7.16713 761.275 11.7736 758.219 Q16.3569 755.141 25.1068 755.141 Q33.8337 755.141 38.4401 758.219 Q43.0234 761.275 43.0234 767.085 Q43.0234 772.895 38.4401 775.974 Q33.8337 779.029 25.1068 779.029 Q16.3569 779.029 11.7736 775.974 Q7.16713 772.895 7.16713 767.085 Z" fill="#000000" fill-rule="nonzero" fill-opacity="1" /><path clip-path="url(#clip100)" d="M11.8662 561.293 L30.3152 573.099 L30.3152 561.293 L11.8662 561.293 M7.79213 562.52 L7.79213 556.641 L30.3152 556.641 L30.3152 551.71 L34.204 551.71 L34.204 556.641 L42.3521 556.641 L42.3521 561.293 L34.204 561.293 L34.204 576.895 L29.6902 576.895 L7.79213 562.52 Z" fill="#000000" fill-rule="nonzero" fill-opacity="1" /><path clip-path="url(#clip100)" d="M10.8708 533.979 Q10.8708 537.59 14.4356 539.419 Q17.9773 541.224 25.1068 541.224 Q32.2133 541.224 35.7781 539.419 Q39.3197 537.59 39.3197 533.979 Q39.3197 530.345 35.7781 528.539 Q32.2133 526.71 25.1068 526.71 Q17.9773 526.71 14.4356 528.539 Q10.8708 530.345 10.8708 533.979 M7.16713 533.979 Q7.16713 528.169 11.7736 525.113 Q16.3569 522.034 25.1068 522.034 Q33.8337 522.034 38.4401 525.113 Q43.0234 528.169 43.0234 533.979 Q43.0234 539.789 38.4401 542.868 Q33.8337 545.923 25.1068 545.923 Q16.3569 545.923 11.7736 542.868 Q7.16713 539.789 7.16713 533.979 Z" fill="#000000" fill-rule="nonzero" fill-opacity="1" /><path clip-path="url(#clip100)" d="M7.79213 342.307 L7.79213 323.951 L11.7273 323.951 L11.7273 338.025 L20.1995 338.025 Q19.8522 337.007 19.6902 335.988 Q19.505 334.969 19.505 333.951 Q19.505 328.164 22.6763 324.784 Q25.8476 321.405 31.2642 321.405 Q36.8429 321.405 39.9447 324.877 Q43.0234 328.349 43.0234 334.669 Q43.0234 336.844 42.6531 339.113 Q42.2827 341.358 41.5419 343.766 L36.8429 343.766 Q37.9771 341.682 38.5327 339.46 Q39.0883 337.238 39.0883 334.761 Q39.0883 330.757 36.9818 328.419 Q34.8753 326.081 31.2642 326.081 Q27.6531 326.081 25.5467 328.419 Q23.4402 330.757 23.4402 334.761 Q23.4402 336.636 23.8569 338.511 Q24.2735 340.363 25.1531 342.307 L7.79213 342.307 Z" fill="#000000" fill-rule="nonzero" fill-opacity="1" /><path clip-path="url(#clip100)" d="M10.8708 302.192 Q10.8708 305.803 14.4356 307.632 Q17.9773 309.437 25.1068 309.437 Q32.2133 309.437 35.7781 307.632 Q39.3197 305.803 39.3197 302.192 Q39.3197 298.558 35.7781 296.752 Q32.2133 294.923 25.1068 294.923 Q17.9773 294.923 14.4356 296.752 Q10.8708 298.558 10.8708 302.192 M7.16713 302.192 Q7.16713 296.382 11.7736 293.326 Q16.3569 290.247 25.1068 290.247 Q33.8337 290.247 38.4401 293.326 Q43.0234 296.382 43.0234 302.192 Q43.0234 308.002 38.4401 311.081 Q33.8337 314.136 25.1068 314.136 Q16.3569 314.136 11.7736 311.081 Q7.16713 308.002 7.16713 302.192 Z" fill="#000000" fill-rule="nonzero" fill-opacity="1" /><path clip-path="url(#clip100)" d="M23.2087 99.1432 Q23.2087 102.291 25.3615 104.143 Q27.5142 105.972 31.2642 105.972 Q34.9911 105.972 37.167 104.143 Q39.3197 102.291 39.3197 99.1432 Q39.3197 95.9951 37.167 94.1664 Q34.9911 92.3146 31.2642 92.3146 Q27.5142 92.3146 25.3615 94.1664 Q23.2087 95.9951 23.2087 99.1432 M8.55601 89.8609 L12.8152 89.8609 Q11.9819 91.6201 11.5421 93.4257 Q11.1023 95.2081 11.1023 96.9673 Q11.1023 101.597 14.2273 104.051 Q17.3523 106.481 23.6717 106.828 Q21.6578 105.463 20.593 103.402 Q19.505 101.342 19.505 98.8655 Q19.505 93.6572 22.6763 90.6479 Q25.8244 87.6155 31.2642 87.6155 Q36.5883 87.6155 39.8058 90.7637 Q43.0234 93.9118 43.0234 99.1432 Q43.0234 105.139 38.4401 108.31 Q33.8337 111.481 25.1068 111.481 Q16.9124 111.481 12.0514 107.592 Q7.16713 103.703 7.16713 97.1525 Q7.16713 95.3933 7.51435 93.6109 Q7.86157 91.8053 8.55601 89.8609 Z" fill="#000000" fill-rule="nonzero" fill-opacity="1" /><path clip-path="url(#clip100)" d="M10.8708 69.5601 Q10.8708 73.1712 14.4356 74.9999 Q17.9773 76.8054 25.1068 76.8054 Q32.2133 76.8054 35.7781 74.9999 Q39.3197 73.1712 39.3197 69.5601 Q39.3197 65.9258 35.7781 64.1203 Q32.2133 62.2916 25.1068 62.2916 Q17.9773 62.2916 14.4356 64.1203 Q10.8708 65.9258 10.8708 69.5601 M7.16713 69.5601 Q7.16713 63.7499 11.7736 60.6944 Q16.3569 57.6157 25.1068 57.6157 Q33.8337 57.6157 38.4401 60.6944 Q43.0234 63.7499 43.0234 69.5601 Q43.0234 75.3702 38.4401 78.4489 Q33.8337 81.5045 25.1068 81.5045 Q16.3569 81.5045 11.7736 78.4489 Q7.16713 75.3702 7.16713 69.5601 Z" fill="#000000" fill-rule="nonzero" fill-opacity="1" /><polyline clip-path="url(#clip102)" style="stroke:#009af9; stroke-linecap:round; stroke-linejoin:round; stroke-width:4; stroke-opacity:1; fill:none" points="151.118,1479.3 154.597,1479.3 158.076,1479.3 161.555,1479.3 165.034,1479.3 181.119,1479.3 197.203,1479.3 205.245,1479.24 213.288,1478.42 215.298,1477.7 217.309,1476.51 219.32,1474.6 221.33,1471.65 223.341,1467.22 225.351,1460.81 226.357,1456.67 227.362,1451.79 228.367,1446.09 229.372,1439.47 230.378,1431.83 231.383,1423.07 232.388,1413.11 233.394,1401.85 234.399,1389.2 235.404,1375.08 236.409,1359.41 237.415,1342.14 238.42,1323.2 239.425,1302.57 240.431,1280.23 241.436,1256.18 242.441,1230.43 243.446,1203.03 244.452,1174.03 245.457,1143.53 246.462,1111.63 247.468,1078.45 248.473,1044.15 249.478,1008.9 251.489,936.317 253.499,862.401 255.51,789.047 257.52,718.256 258.526,684.449 259.531,652.029 260.536,621.228 261.542,592.269 262.547,565.358 263.552,540.686 264.558,518.422 265.563,498.715 266.568,481.689 267.573,467.446 268.579,456.063 269.584,447.59 270.589,442.052 271.595,439.451 272.6,439.761 273.605,442.935 274.61,448.904 275.616,457.576 276.621,468.842 277.626,482.575 278.632,498.634 279.637,516.862 280.642,537.095 281.647,559.158 282.653,582.87 283.658,608.046 284.663,634.499 285.669,662.041 287.679,719.653 289.69,779.444 291.7,840.078 293.711,900.351 294.919,935.958 296.127,970.86 297.336,1004.88 298.544,1037.88 299.752,1069.73 300.961,1100.32 302.169,1129.57 303.377,1157.42 304.585,1183.83 305.794,1208.78 307.002,1232.25 308.21,1254.26 309.418,1274.81 310.627,1293.94 311.835,1311.69 313.043,1328.09 314.252,1343.22 315.46,1357.11 316.668,1369.84 317.876,1381.46 319.085,1392.04 320.293,1401.65 321.501,1410.35 322.709,1418.21 323.918,1425.29 325.126,1431.65 326.334,1437.34 327.543,1442.43 329.959,1451.01 332.376,1457.76 334.792,1463.03 337.209,1467.1 339.625,1470.22 342.042,1472.59 346.875,1475.71 351.708,1477.43 361.374,1478.83 371.04,1479.19 387.386,1479.29 403.731,1479.3 420.076,1479.3 436.422,1479.3 507.444,1479.3 572.92,1479.3 643.117,1479.3 724.448,1479.3 796.725,1479.3 860.105,1479.3 929.207,1479.3 998.719,1479.3 1075.57,1479.3 1148.7,1479.3 1224.73,1479.3 1288.74,1479.3 1366.88,1479.3 1438.46,1479.3 1504.57,1479.3 1571.54,1479.3 1646.6,1479.3 1714.61,1479.3 1792.48,1479.3 1864.58,1479.3 1935.66,1479.3 2004.67,1479.3 2075.42,1479.3 2152.93,1479.3 2265.53,1479.3 2288.63,1479.3 "/>
<polyline clip-path="url(#clip102)" style="stroke:#e26f46; stroke-linecap:round; stroke-linejoin:round; stroke-width:4; stroke-opacity:1; fill:none" points="151.118,1479.3 152.857,1479.3 154.597,1479.3 156.336,1479.3 158.076,1479.3 159.815,1479.3 161.555,1479.3 163.294,1479.3 165.034,1479.3 169.055,1479.29 173.076,1479.17 175.087,1478.86 177.097,1478.04 179.108,1476.08 181.119,1471.91 182.124,1468.51 183.129,1463.89 184.134,1457.75 185.14,1449.74 186.145,1439.5 187.15,1426.64 188.156,1410.77 189.161,1391.49 190.166,1368.45 191.171,1341.31 192.177,1309.82 193.182,1273.77 194.187,1233.06 195.193,1187.7 196.198,1137.78 197.203,1083.52 198.208,1025.29 199.214,963.517 200.219,898.786 201.224,831.757 202.23,763.178 203.235,693.865 204.24,624.68 205.245,556.509 206.251,490.245 207.256,426.761 208.261,366.891 209.267,311.411 210.272,261.025 211.277,216.345 212.282,177.882 213.288,146.041 214.293,121.109 215.298,103.263 216.304,92.561 217.309,88.9544 218.314,92.2897 219.32,102.319 220.325,118.711 221.33,141.059 222.335,168.899 223.341,201.717 224.346,238.964 225.351,280.069 226.357,324.449 227.362,371.521 228.367,420.713 229.372,471.469 231.383,575.593 233.394,680.071 234.399,731.422 235.404,781.721 236.409,830.68 237.415,878.055 238.42,923.644 239.425,967.285 240.431,1008.85 241.436,1048.27 242.441,1085.46 243.446,1120.42 244.452,1153.15 245.457,1183.65 246.462,1211.99 247.468,1238.21 248.473,1262.39 249.478,1284.61 250.483,1304.96 251.489,1323.55 252.494,1340.47 253.499,1355.83 254.505,1369.73 255.51,1382.27 256.515,1393.56 257.52,1403.69 258.526,1412.76 259.531,1420.86 260.536,1428.07 261.542,1434.48 263.552,1445.19 265.563,1453.53 267.573,1459.97 269.584,1464.9 273.605,1471.47 277.626,1475.14 285.669,1478.21 293.711,1479.04 303.377,1479.25 313.043,1479.29 322.709,1479.3 332.376,1479.3 351.708,1479.3 371.04,1479.3 403.731,1479.3 436.422,1479.3 507.444,1479.3 572.92,1479.3 643.117,1479.3 724.448,1479.3 796.725,1479.3 860.105,1479.3 929.207,1479.3 998.719,1479.3 1075.57,1479.3 1148.7,1479.3 1224.73,1479.3 1288.74,1479.3 1366.88,1479.3 1438.46,1479.3 1504.57,1479.3 1571.54,1479.3 1646.6,1479.3 1714.61,1479.3 1792.48,1479.3 1864.58,1479.3 1935.66,1479.3 2004.67,1479.3 2075.42,1479.3 2152.93,1479.3 2265.53,1479.3 2288.63,1479.3 "/>
<path clip-path="url(#clip100)" d="M1815.24 251.89 L2277.23 251.89 L2277.23 96.3696 L1815.24 96.3696  Z" fill="#ffffff" fill-rule="evenodd" fill-opacity="1"/>
<polyline clip-path="url(#clip100)" style="stroke:#000000; stroke-linecap:round; stroke-linejoin:round; stroke-width:4; stroke-opacity:1; fill:none" points="1815.24,251.89 2277.23,251.89 2277.23,96.3696 1815.24,96.3696 1815.24,251.89 "/>
<polyline clip-path="url(#clip100)" style="stroke:#009af9; stroke-linecap:round; stroke-linejoin:round; stroke-width:4; stroke-opacity:1; fill:none" points="1840.41,148.21 1991.46,148.21 "/>
<path clip-path="url(#clip100)" d="M2037.15 140.559 L2037.15 144.541 Q2035.34 143.545 2033.51 143.059 Q2031.71 142.55 2029.86 142.55 Q2025.71 142.55 2023.42 145.189 Q2021.13 147.804 2021.13 152.55 Q2021.13 157.295 2023.42 159.934 Q2025.71 162.55 2029.86 162.55 Q2031.71 162.55 2033.51 162.064 Q2035.34 161.554 2037.15 160.559 L2037.15 164.494 Q2035.37 165.328 2033.45 165.744 Q2031.55 166.161 2029.39 166.161 Q2023.54 166.161 2020.09 162.48 Q2016.64 158.8 2016.64 152.55 Q2016.64 146.207 2020.11 142.573 Q2023.61 138.939 2029.67 138.939 Q2031.64 138.939 2033.51 139.355 Q2035.39 139.749 2037.15 140.559 Z" fill="#000000" fill-rule="nonzero" fill-opacity="1" /><path clip-path="url(#clip100)" d="M2054.6 142.55 Q2051.18 142.55 2049.19 145.235 Q2047.2 147.897 2047.2 152.55 Q2047.2 157.203 2049.16 159.888 Q2051.15 162.55 2054.6 162.55 Q2058.01 162.55 2060 159.865 Q2061.99 157.179 2061.99 152.55 Q2061.99 147.943 2060 145.258 Q2058.01 142.55 2054.6 142.55 M2054.6 138.939 Q2060.16 138.939 2063.33 142.55 Q2066.5 146.161 2066.5 152.55 Q2066.5 158.916 2063.33 162.55 Q2060.16 166.161 2054.6 166.161 Q2049.02 166.161 2045.85 162.55 Q2042.7 158.916 2042.7 152.55 Q2042.7 146.161 2045.85 142.55 Q2049.02 138.939 2054.6 138.939 Z" fill="#000000" fill-rule="nonzero" fill-opacity="1" /><path clip-path="url(#clip100)" d="M2095.11 149.841 L2095.11 165.49 L2090.85 165.49 L2090.85 149.98 Q2090.85 146.3 2089.42 144.471 Q2087.98 142.642 2085.11 142.642 Q2081.66 142.642 2079.67 144.842 Q2077.68 147.041 2077.68 150.837 L2077.68 165.49 L2073.4 165.49 L2073.4 139.564 L2077.68 139.564 L2077.68 143.592 Q2079.21 141.254 2081.27 140.096 Q2083.35 138.939 2086.06 138.939 Q2090.53 138.939 2092.82 141.717 Q2095.11 144.471 2095.11 149.841 Z" fill="#000000" fill-rule="nonzero" fill-opacity="1" /><path clip-path="url(#clip100)" d="M2107.82 132.203 L2107.82 139.564 L2116.59 139.564 L2116.59 142.874 L2107.82 142.874 L2107.82 156.948 Q2107.82 160.119 2108.68 161.022 Q2109.56 161.925 2112.22 161.925 L2116.59 161.925 L2116.59 165.49 L2112.22 165.49 Q2107.29 165.49 2105.41 163.661 Q2103.54 161.809 2103.54 156.948 L2103.54 142.874 L2100.41 142.874 L2100.41 139.564 L2103.54 139.564 L2103.54 132.203 L2107.82 132.203 Z" fill="#000000" fill-rule="nonzero" fill-opacity="1" /><path clip-path="url(#clip100)" d="M2137.22 143.545 Q2136.5 143.129 2135.64 142.943 Q2134.81 142.735 2133.79 142.735 Q2130.18 142.735 2128.24 145.096 Q2126.32 147.434 2126.32 151.832 L2126.32 165.49 L2122.03 165.49 L2122.03 139.564 L2126.32 139.564 L2126.32 143.592 Q2127.66 141.23 2129.81 140.096 Q2131.96 138.939 2135.04 138.939 Q2135.48 138.939 2136.01 139.008 Q2136.55 139.055 2137.19 139.17 L2137.22 143.545 Z" fill="#000000" fill-rule="nonzero" fill-opacity="1" /><path clip-path="url(#clip100)" d="M2150.69 142.55 Q2147.26 142.55 2145.27 145.235 Q2143.28 147.897 2143.28 152.55 Q2143.28 157.203 2145.25 159.888 Q2147.24 162.55 2150.69 162.55 Q2154.09 162.55 2156.08 159.865 Q2158.07 157.179 2158.07 152.55 Q2158.07 147.943 2156.08 145.258 Q2154.09 142.55 2150.69 142.55 M2150.69 138.939 Q2156.25 138.939 2159.42 142.55 Q2162.59 146.161 2162.59 152.55 Q2162.59 158.916 2159.42 162.55 Q2156.25 166.161 2150.69 166.161 Q2145.11 166.161 2141.94 162.55 Q2138.79 158.916 2138.79 152.55 Q2138.79 146.161 2141.94 142.55 Q2145.11 138.939 2150.69 138.939 Z" fill="#000000" fill-rule="nonzero" fill-opacity="1" /><path clip-path="url(#clip100)" d="M2169.65 129.471 L2173.91 129.471 L2173.91 165.49 L2169.65 165.49 L2169.65 129.471 Z" fill="#000000" fill-rule="nonzero" fill-opacity="1" /><polyline clip-path="url(#clip100)" style="stroke:#e26f46; stroke-linecap:round; stroke-linejoin:round; stroke-width:4; stroke-opacity:1; fill:none" points="1840.41,200.05 1991.46,200.05 "/>
<path clip-path="url(#clip100)" d="M2024.05 184.043 L2024.05 191.404 L2032.82 191.404 L2032.82 194.714 L2024.05 194.714 L2024.05 208.788 Q2024.05 211.959 2024.9 212.862 Q2025.78 213.765 2028.45 213.765 L2032.82 213.765 L2032.82 217.33 L2028.45 217.33 Q2023.51 217.33 2021.64 215.501 Q2019.76 213.649 2019.76 208.788 L2019.76 194.714 L2016.64 194.714 L2016.64 191.404 L2019.76 191.404 L2019.76 184.043 L2024.05 184.043 Z" fill="#000000" fill-rule="nonzero" fill-opacity="1" /><path clip-path="url(#clip100)" d="M2053.45 195.385 Q2052.73 194.969 2051.87 194.783 Q2051.04 194.575 2050.02 194.575 Q2046.41 194.575 2044.46 196.936 Q2042.54 199.274 2042.54 203.672 L2042.54 217.33 L2038.26 217.33 L2038.26 191.404 L2042.54 191.404 L2042.54 195.432 Q2043.89 193.07 2046.04 191.936 Q2048.19 190.779 2051.27 190.779 Q2051.71 190.779 2052.24 190.848 Q2052.77 190.895 2053.42 191.01 L2053.45 195.385 Z" fill="#000000" fill-rule="nonzero" fill-opacity="1" /><path clip-path="url(#clip100)" d="M2079.05 203.302 L2079.05 205.385 L2059.46 205.385 Q2059.74 209.783 2062.1 212.098 Q2064.49 214.39 2068.72 214.39 Q2071.18 214.39 2073.47 213.788 Q2075.78 213.186 2078.05 211.982 L2078.05 216.01 Q2075.76 216.982 2073.35 217.492 Q2070.95 218.001 2068.47 218.001 Q2062.26 218.001 2058.63 214.39 Q2055.02 210.779 2055.02 204.621 Q2055.02 198.256 2058.45 194.529 Q2061.89 190.779 2067.73 190.779 Q2072.96 190.779 2075.99 194.158 Q2079.05 197.515 2079.05 203.302 M2074.79 202.052 Q2074.74 198.557 2072.82 196.473 Q2070.92 194.39 2067.77 194.39 Q2064.21 194.39 2062.06 196.404 Q2059.93 198.418 2059.6 202.075 L2074.79 202.052 Z" fill="#000000" fill-rule="nonzero" fill-opacity="1" /><path clip-path="url(#clip100)" d="M2097.82 204.297 Q2092.66 204.297 2090.67 205.478 Q2088.68 206.658 2088.68 209.506 Q2088.68 211.774 2090.16 213.117 Q2091.66 214.436 2094.23 214.436 Q2097.77 214.436 2099.9 211.936 Q2102.06 209.413 2102.06 205.246 L2102.06 204.297 L2097.82 204.297 M2106.32 202.538 L2106.32 217.33 L2102.06 217.33 L2102.06 213.394 Q2100.6 215.755 2098.42 216.89 Q2096.25 218.001 2093.1 218.001 Q2089.12 218.001 2086.76 215.779 Q2084.42 213.533 2084.42 209.783 Q2084.42 205.408 2087.33 203.186 Q2090.27 200.964 2096.08 200.964 L2102.06 200.964 L2102.06 200.547 Q2102.06 197.607 2100.11 196.01 Q2098.19 194.39 2094.7 194.39 Q2092.47 194.39 2090.37 194.922 Q2088.26 195.455 2086.32 196.519 L2086.32 192.584 Q2088.65 191.682 2090.85 191.242 Q2093.05 190.779 2095.13 190.779 Q2100.76 190.779 2103.54 193.695 Q2106.32 196.612 2106.32 202.538 Z" fill="#000000" fill-rule="nonzero" fill-opacity="1" /><path clip-path="url(#clip100)" d="M2119.3 184.043 L2119.3 191.404 L2128.07 191.404 L2128.07 194.714 L2119.3 194.714 L2119.3 208.788 Q2119.3 211.959 2120.16 212.862 Q2121.04 213.765 2123.7 213.765 L2128.07 213.765 L2128.07 217.33 L2123.7 217.33 Q2118.77 217.33 2116.89 215.501 Q2115.02 213.649 2115.02 208.788 L2115.02 194.714 L2111.89 194.714 L2111.89 191.404 L2115.02 191.404 L2115.02 184.043 L2119.3 184.043 Z" fill="#000000" fill-rule="nonzero" fill-opacity="1" /><path clip-path="url(#clip100)" d="M2153.86 196.381 Q2155.46 193.51 2157.68 192.145 Q2159.9 190.779 2162.91 190.779 Q2166.96 190.779 2169.16 193.626 Q2171.36 196.45 2171.36 201.681 L2171.36 217.33 L2167.08 217.33 L2167.08 201.82 Q2167.08 198.094 2165.76 196.288 Q2164.44 194.482 2161.73 194.482 Q2158.42 194.482 2156.5 196.682 Q2154.58 198.881 2154.58 202.677 L2154.58 217.33 L2150.3 217.33 L2150.3 201.82 Q2150.3 198.07 2148.98 196.288 Q2147.66 194.482 2144.9 194.482 Q2141.64 194.482 2139.72 196.705 Q2137.8 198.904 2137.8 202.677 L2137.8 217.33 L2133.51 217.33 L2133.51 191.404 L2137.8 191.404 L2137.8 195.432 Q2139.25 193.047 2141.29 191.913 Q2143.33 190.779 2146.13 190.779 Q2148.95 190.779 2150.92 192.214 Q2152.91 193.649 2153.86 196.381 Z" fill="#000000" fill-rule="nonzero" fill-opacity="1" /><path clip-path="url(#clip100)" d="M2202.03 203.302 L2202.03 205.385 L2182.45 205.385 Q2182.73 209.783 2185.09 212.098 Q2187.47 214.39 2191.71 214.39 Q2194.16 214.39 2196.45 213.788 Q2198.77 213.186 2201.04 211.982 L2201.04 216.01 Q2198.75 216.982 2196.34 217.492 Q2193.93 218.001 2191.45 218.001 Q2185.25 218.001 2181.62 214.39 Q2178 210.779 2178 204.621 Q2178 198.256 2181.43 194.529 Q2184.88 190.779 2190.71 190.779 Q2195.94 190.779 2198.98 194.158 Q2202.03 197.515 2202.03 203.302 M2197.77 202.052 Q2197.73 198.557 2195.81 196.473 Q2193.91 194.39 2190.76 194.39 Q2187.19 194.39 2185.04 196.404 Q2182.91 198.418 2182.59 202.075 L2197.77 202.052 Z" fill="#000000" fill-rule="nonzero" fill-opacity="1" /><path clip-path="url(#clip100)" d="M2230.57 201.681 L2230.57 217.33 L2226.31 217.33 L2226.31 201.82 Q2226.31 198.14 2224.88 196.311 Q2223.44 194.482 2220.57 194.482 Q2217.12 194.482 2215.13 196.682 Q2213.14 198.881 2213.14 202.677 L2213.14 217.33 L2208.86 217.33 L2208.86 191.404 L2213.14 191.404 L2213.14 195.432 Q2214.67 193.094 2216.73 191.936 Q2218.81 190.779 2221.52 190.779 Q2225.99 190.779 2228.28 193.557 Q2230.57 196.311 2230.57 201.681 Z" fill="#000000" fill-rule="nonzero" fill-opacity="1" /><path clip-path="url(#clip100)" d="M2243.28 184.043 L2243.28 191.404 L2252.06 191.404 L2252.06 194.714 L2243.28 194.714 L2243.28 208.788 Q2243.28 211.959 2244.14 212.862 Q2245.02 213.765 2247.68 213.765 L2252.06 213.765 L2252.06 217.33 L2247.68 217.33 Q2242.75 217.33 2240.87 215.501 Q2239 213.649 2239 208.788 L2239 194.714 L2235.87 194.714 L2235.87 191.404 L2239 191.404 L2239 184.043 L2243.28 184.043 Z" fill="#000000" fill-rule="nonzero" fill-opacity="1" /></svg>
