<?xml version="1.0" encoding="utf-8"?>
<svg xmlns="http://www.w3.org/2000/svg" xmlns:xlink="http://www.w3.org/1999/xlink" width="600" height="400" viewBox="0 0 2400 1600">
<defs>
  <clipPath id="clip440">
    <rect x="0" y="0" width="2400" height="1600"/>
  </clipPath>
</defs>
<path clip-path="url(#clip440)" d="M0 1600 L2400 1600 L2400 0 L0 0  Z" fill="#ffffff" fill-rule="evenodd" fill-opacity="1"/>
<defs>
  <clipPath id="clip441">
    <rect x="480" y="0" width="1681" height="1600"/>
  </clipPath>
</defs>
<path clip-path="url(#clip440)" d="M86.9921 1521.01 L2352.76 1521.01 L2352.76 47.2441 L86.9921 47.2441  Z" fill="#ffffff" fill-rule="evenodd" fill-opacity="1"/>
<defs>
  <clipPath id="clip442">
    <rect x="86" y="47" width="2267" height="1475"/>
  </clipPath>
</defs>
<polyline clip-path="url(#clip442)" style="stroke:#000000; stroke-linecap:round; stroke-linejoin:round; stroke-width:2; stroke-opacity:0.1; fill:none" points="408.347,1521.01 408.347,47.2441 "/>
<polyline clip-path="url(#clip442)" style="stroke:#000000; stroke-linecap:round; stroke-linejoin:round; stroke-width:2; stroke-opacity:0.1; fill:none" points="900.182,1521.01 900.182,47.2441 "/>
<polyline clip-path="url(#clip442)" style="stroke:#000000; stroke-linecap:round; stroke-linejoin:round; stroke-width:2; stroke-opacity:0.1; fill:none" points="1392.02,1521.01 1392.02,47.2441 "/>
<polyline clip-path="url(#clip442)" style="stroke:#000000; stroke-linecap:round; stroke-linejoin:round; stroke-width:2; stroke-opacity:0.1; fill:none" points="1883.85,1521.01 1883.85,47.2441 "/>
<polyline clip-path="url(#clip440)" style="stroke:#000000; stroke-linecap:round; stroke-linejoin:round; stroke-width:4; stroke-opacity:1; fill:none" points="86.9921,1521.01 2352.76,1521.01 "/>
<polyline clip-path="url(#clip440)" style="stroke:#000000; stroke-linecap:round; stroke-linejoin:round; stroke-width:4; stroke-opacity:1; fill:none" points="408.347,1521.01 408.347,1502.11 "/>
<polyline clip-path="url(#clip440)" style="stroke:#000000; stroke-linecap:round; stroke-linejoin:round; stroke-width:4; stroke-opacity:1; fill:none" points="900.182,1521.01 900.182,1502.11 "/>
<polyline clip-path="url(#clip440)" style="stroke:#000000; stroke-linecap:round; stroke-linejoin:round; stroke-width:4; stroke-opacity:1; fill:none" points="1392.02,1521.01 1392.02,1502.11 "/>
<polyline clip-path="url(#clip440)" style="stroke:#000000; stroke-linecap:round; stroke-linejoin:round; stroke-width:4; stroke-opacity:1; fill:none" points="1883.85,1521.01 1883.85,1502.11 "/>
<path clip-path="url(#clip440)" d="M385.731 1551.93 Q382.12 1551.93 380.292 1555.49 Q378.486 1559.03 378.486 1566.16 Q378.486 1573.27 380.292 1576.83 Q382.12 1580.38 385.731 1580.38 Q389.366 1580.38 391.171 1576.83 Q393 1573.27 393 1566.16 Q393 1559.03 391.171 1555.49 Q389.366 1551.93 385.731 1551.93 M385.731 1548.22 Q391.542 1548.22 394.597 1552.83 Q397.676 1557.41 397.676 1566.16 Q397.676 1574.89 394.597 1579.5 Q391.542 1584.08 385.731 1584.08 Q379.921 1584.08 376.843 1579.5 Q373.787 1574.89 373.787 1566.16 Q373.787 1557.41 376.843 1552.83 Q379.921 1548.22 385.731 1548.22 Z" fill="#000000" fill-rule="nonzero" fill-opacity="1" /><path clip-path="url(#clip440)" d="M405.893 1577.53 L410.778 1577.53 L410.778 1583.41 L405.893 1583.41 L405.893 1577.53 Z" fill="#000000" fill-rule="nonzero" fill-opacity="1" /><path clip-path="url(#clip440)" d="M430.963 1551.93 Q427.352 1551.93 425.523 1555.49 Q423.717 1559.03 423.717 1566.16 Q423.717 1573.27 425.523 1576.83 Q427.352 1580.38 430.963 1580.38 Q434.597 1580.38 436.402 1576.83 Q438.231 1573.27 438.231 1566.16 Q438.231 1559.03 436.402 1555.49 Q434.597 1551.93 430.963 1551.93 M430.963 1548.22 Q436.773 1548.22 439.828 1552.83 Q442.907 1557.41 442.907 1566.16 Q442.907 1574.89 439.828 1579.5 Q436.773 1584.08 430.963 1584.08 Q425.152 1584.08 422.074 1579.5 Q419.018 1574.89 419.018 1566.16 Q419.018 1557.41 422.074 1552.83 Q425.152 1548.22 430.963 1548.22 Z" fill="#000000" fill-rule="nonzero" fill-opacity="1" /><path clip-path="url(#clip440)" d="M878.179 1551.93 Q874.568 1551.93 872.74 1555.49 Q870.934 1559.03 870.934 1566.16 Q870.934 1573.27 872.74 1576.83 Q874.568 1580.38 878.179 1580.38 Q881.814 1580.38 883.619 1576.83 Q885.448 1573.27 885.448 1566.16 Q885.448 1559.03 883.619 1555.49 Q881.814 1551.93 878.179 1551.93 M878.179 1548.22 Q883.99 1548.22 887.045 1552.83 Q890.124 1557.41 890.124 1566.16 Q890.124 1574.89 887.045 1579.5 Q883.99 1584.08 878.179 1584.08 Q872.369 1584.08 869.291 1579.5 Q866.235 1574.89 866.235 1566.16 Q866.235 1557.41 869.291 1552.83 Q872.369 1548.22 878.179 1548.22 Z" fill="#000000" fill-rule="nonzero" fill-opacity="1" /><path clip-path="url(#clip440)" d="M898.341 1577.53 L903.226 1577.53 L903.226 1583.41 L898.341 1583.41 L898.341 1577.53 Z" fill="#000000" fill-rule="nonzero" fill-opacity="1" /><path clip-path="url(#clip440)" d="M914.221 1579.47 L921.86 1579.47 L921.86 1553.11 L913.55 1554.77 L913.55 1550.51 L921.813 1548.85 L926.489 1548.85 L926.489 1579.47 L934.128 1579.47 L934.128 1583.41 L914.221 1583.41 L914.221 1579.47 Z" fill="#000000" fill-rule="nonzero" fill-opacity="1" /><path clip-path="url(#clip440)" d="M1370.2 1551.93 Q1366.59 1551.93 1364.76 1555.49 Q1362.95 1559.03 1362.95 1566.16 Q1362.95 1573.27 1364.76 1576.83 Q1366.59 1580.38 1370.2 1580.38 Q1373.83 1580.38 1375.64 1576.83 Q1377.47 1573.27 1377.47 1566.16 Q1377.47 1559.03 1375.64 1555.49 Q1373.83 1551.93 1370.2 1551.93 M1370.2 1548.22 Q1376.01 1548.22 1379.06 1552.83 Q1382.14 1557.41 1382.14 1566.16 Q1382.14 1574.89 1379.06 1579.5 Q1376.01 1584.08 1370.2 1584.08 Q1364.39 1584.08 1361.31 1579.5 Q1358.25 1574.89 1358.25 1566.16 Q1358.25 1557.41 1361.31 1552.83 Q1364.39 1548.22 1370.2 1548.22 Z" fill="#000000" fill-rule="nonzero" fill-opacity="1" /><path clip-path="url(#clip440)" d="M1390.36 1577.53 L1395.25 1577.53 L1395.25 1583.41 L1390.36 1583.41 L1390.36 1577.53 Z" fill="#000000" fill-rule="nonzero" fill-opacity="1" /><path clip-path="url(#clip440)" d="M1409.46 1579.47 L1425.78 1579.47 L1425.78 1583.41 L1403.83 1583.41 L1403.83 1579.47 Q1406.5 1576.72 1411.08 1572.09 Q1415.68 1567.44 1416.87 1566.09 Q1419.11 1563.57 1419.99 1561.83 Q1420.89 1560.07 1420.89 1558.38 Q1420.89 1555.63 1418.95 1553.89 Q1417.03 1552.16 1413.93 1552.16 Q1411.73 1552.16 1409.27 1552.92 Q1406.84 1553.69 1404.06 1555.24 L1404.06 1550.51 Q1406.89 1549.38 1409.34 1548.8 Q1411.8 1548.22 1413.83 1548.22 Q1419.2 1548.22 1422.4 1550.91 Q1425.59 1553.59 1425.59 1558.08 Q1425.59 1560.21 1424.78 1562.13 Q1424 1564.03 1421.89 1566.63 Q1421.31 1567.3 1418.21 1570.51 Q1415.11 1573.71 1409.46 1579.47 Z" fill="#000000" fill-rule="nonzero" fill-opacity="1" /><path clip-path="url(#clip440)" d="M1861.56 1551.93 Q1857.95 1551.93 1856.12 1555.49 Q1854.31 1559.03 1854.31 1566.16 Q1854.31 1573.27 1856.12 1576.83 Q1857.95 1580.38 1861.56 1580.38 Q1865.19 1580.38 1867 1576.83 Q1868.83 1573.27 1868.83 1566.16 Q1868.83 1559.03 1867 1555.49 Q1865.19 1551.93 1861.56 1551.93 M1861.56 1548.22 Q1867.37 1548.22 1870.42 1552.83 Q1873.5 1557.41 1873.5 1566.16 Q1873.5 1574.89 1870.42 1579.5 Q1867.37 1584.08 1861.56 1584.08 Q1855.75 1584.08 1852.67 1579.5 Q1849.61 1574.89 1849.61 1566.16 Q1849.61 1557.41 1852.67 1552.83 Q1855.75 1548.22 1861.56 1548.22 Z" fill="#000000" fill-rule="nonzero" fill-opacity="1" /><path clip-path="url(#clip440)" d="M1881.72 1577.53 L1886.61 1577.53 L1886.61 1583.41 L1881.72 1583.41 L1881.72 1577.53 Z" fill="#000000" fill-rule="nonzero" fill-opacity="1" /><path clip-path="url(#clip440)" d="M1910.96 1564.77 Q1914.31 1565.49 1916.19 1567.76 Q1918.09 1570.03 1918.09 1573.36 Q1918.09 1578.48 1914.57 1581.28 Q1911.05 1584.08 1904.57 1584.08 Q1902.39 1584.08 1900.08 1583.64 Q1897.79 1583.22 1895.33 1582.37 L1895.33 1577.85 Q1897.28 1578.99 1899.59 1579.57 Q1901.91 1580.14 1904.43 1580.14 Q1908.83 1580.14 1911.12 1578.41 Q1913.43 1576.67 1913.43 1573.36 Q1913.43 1570.31 1911.28 1568.59 Q1909.15 1566.86 1905.33 1566.86 L1901.3 1566.86 L1901.3 1563.01 L1905.52 1563.01 Q1908.97 1563.01 1910.79 1561.65 Q1912.62 1560.26 1912.62 1557.67 Q1912.62 1555.01 1910.73 1553.59 Q1908.85 1552.16 1905.33 1552.16 Q1903.41 1552.16 1901.21 1552.57 Q1899.01 1552.99 1896.37 1553.87 L1896.37 1549.7 Q1899.04 1548.96 1901.35 1548.59 Q1903.69 1548.22 1905.75 1548.22 Q1911.07 1548.22 1914.17 1550.65 Q1917.28 1553.06 1917.28 1557.18 Q1917.28 1560.05 1915.63 1562.04 Q1913.99 1564.01 1910.96 1564.77 Z" fill="#000000" fill-rule="nonzero" fill-opacity="1" /><polyline clip-path="url(#clip442)" style="stroke:#000000; stroke-linecap:round; stroke-linejoin:round; stroke-width:2; stroke-opacity:0.1; fill:none" points="86.9921,1521.01 2352.76,1521.01 "/>
<polyline clip-path="url(#clip442)" style="stroke:#000000; stroke-linecap:round; stroke-linejoin:round; stroke-width:2; stroke-opacity:0.1; fill:none" points="86.9921,1125.9 2352.76,1125.9 "/>
<polyline clip-path="url(#clip442)" style="stroke:#000000; stroke-linecap:round; stroke-linejoin:round; stroke-width:2; stroke-opacity:0.1; fill:none" points="86.9921,730.786 2352.76,730.786 "/>
<polyline clip-path="url(#clip442)" style="stroke:#000000; stroke-linecap:round; stroke-linejoin:round; stroke-width:2; stroke-opacity:0.1; fill:none" points="86.9921,335.675 2352.76,335.675 "/>
<polyline clip-path="url(#clip440)" style="stroke:#000000; stroke-linecap:round; stroke-linejoin:round; stroke-width:4; stroke-opacity:1; fill:none" points="86.9921,1521.01 86.9921,47.2441 "/>
<polyline clip-path="url(#clip440)" style="stroke:#000000; stroke-linecap:round; stroke-linejoin:round; stroke-width:4; stroke-opacity:1; fill:none" points="86.9921,1521.01 105.89,1521.01 "/>
<polyline clip-path="url(#clip440)" style="stroke:#000000; stroke-linecap:round; stroke-linejoin:round; stroke-width:4; stroke-opacity:1; fill:none" points="86.9921,1125.9 105.89,1125.9 "/>
<polyline clip-path="url(#clip440)" style="stroke:#000000; stroke-linecap:round; stroke-linejoin:round; stroke-width:4; stroke-opacity:1; fill:none" points="86.9921,730.786 105.89,730.786 "/>
<polyline clip-path="url(#clip440)" style="stroke:#000000; stroke-linecap:round; stroke-linejoin:round; stroke-width:4; stroke-opacity:1; fill:none" points="86.9921,335.675 105.89,335.675 "/>
<path clip-path="url(#clip440)" d="M10.8708 1521.01 Q10.8708 1524.62 14.4356 1526.45 Q17.9773 1528.25 25.1068 1528.25 Q32.2133 1528.25 35.7781 1526.45 Q39.3197 1524.62 39.3197 1521.01 Q39.3197 1517.37 35.7781 1515.57 Q32.2133 1513.74 25.1068 1513.74 Q17.9773 1513.74 14.4356 1515.57 Q10.8708 1517.37 10.8708 1521.01 M7.16713 1521.01 Q7.16713 1515.2 11.7736 1512.14 Q16.3569 1509.06 25.1068 1509.06 Q33.8337 1509.06 38.4401 1512.14 Q43.0234 1515.2 43.0234 1521.01 Q43.0234 1526.82 38.4401 1529.9 Q33.8337 1532.95 25.1068 1532.95 Q16.3569 1532.95 11.7736 1529.9 Q7.16713 1526.82 7.16713 1521.01 Z" fill="#000000" fill-rule="nonzero" fill-opacity="1" /><path clip-path="url(#clip440)" d="M38.417 1166.29 L38.417 1158.65 L12.0514 1158.65 L13.718 1166.96 L9.45878 1166.96 L7.79213 1158.7 L7.79213 1154.02 L38.417 1154.02 L38.417 1146.38 L42.3521 1146.38 L42.3521 1166.29 L38.417 1166.29 Z" fill="#000000" fill-rule="nonzero" fill-opacity="1" /><path clip-path="url(#clip440)" d="M10.8708 1126.94 Q10.8708 1130.55 14.4356 1132.38 Q17.9773 1134.18 25.1068 1134.18 Q32.2133 1134.18 35.7781 1132.38 Q39.3197 1130.55 39.3197 1126.94 Q39.3197 1123.3 35.7781 1121.5 Q32.2133 1119.67 25.1068 1119.67 Q17.9773 1119.67 14.4356 1121.5 Q10.8708 1123.3 10.8708 1126.94 M7.16713 1126.94 Q7.16713 1121.13 11.7736 1118.07 Q16.3569 1114.99 25.1068 1114.99 Q33.8337 1114.99 38.4401 1118.07 Q43.0234 1121.13 43.0234 1126.94 Q43.0234 1132.75 38.4401 1135.83 Q33.8337 1138.88 25.1068 1138.88 Q16.3569 1138.88 11.7736 1135.83 Q7.16713 1132.75 7.16713 1126.94 Z" fill="#000000" fill-rule="nonzero" fill-opacity="1" /><path clip-path="url(#clip440)" d="M10.8708 1096.78 Q10.8708 1100.39 14.4356 1102.22 Q17.9773 1104.02 25.1068 1104.02 Q32.2133 1104.02 35.7781 1102.22 Q39.3197 1100.39 39.3197 1096.78 Q39.3197 1093.14 35.7781 1091.34 Q32.2133 1089.51 25.1068 1089.51 Q17.9773 1089.51 14.4356 1091.34 Q10.8708 1093.14 10.8708 1096.78 M7.16713 1096.78 Q7.16713 1090.97 11.7736 1087.91 Q16.3569 1084.83 25.1068 1084.83 Q33.8337 1084.83 38.4401 1087.91 Q43.0234 1090.97 43.0234 1096.78 Q43.0234 1102.59 38.4401 1105.67 Q33.8337 1108.72 25.1068 1108.72 Q16.3569 1108.72 11.7736 1105.67 Q7.16713 1102.59 7.16713 1096.78 Z" fill="#000000" fill-rule="nonzero" fill-opacity="1" /><path clip-path="url(#clip440)" d="M38.417 767.094 L38.417 750.774 L42.3521 750.774 L42.3521 772.719 L38.417 772.719 Q35.6623 770.057 31.0327 765.473 Q26.38 760.867 25.0374 759.686 Q22.5143 757.441 20.7782 756.561 Q19.0189 755.659 17.3291 755.659 Q14.5745 755.659 12.8384 757.603 Q11.1023 759.524 11.1023 762.626 Q11.1023 764.825 11.8662 767.279 Q12.6301 769.709 14.181 772.487 L9.45878 772.487 Q8.32453 769.663 7.74583 767.209 Q7.16713 764.756 7.16713 762.719 Q7.16713 757.348 9.8523 754.154 Q12.5375 750.96 17.0282 750.96 Q19.1578 750.96 21.0791 751.77 Q22.9772 752.557 25.5698 754.663 Q26.2411 755.242 29.4587 758.344 Q32.6531 761.446 38.417 767.094 Z" fill="#000000" fill-rule="nonzero" fill-opacity="1" /><path clip-path="url(#clip440)" d="M10.8708 730.96 Q10.8708 734.571 14.4356 736.399 Q17.9773 738.205 25.1068 738.205 Q32.2133 738.205 35.7781 736.399 Q39.3197 734.571 39.3197 730.96 Q39.3197 727.325 35.7781 725.52 Q32.2133 723.691 25.1068 723.691 Q17.9773 723.691 14.4356 725.52 Q10.8708 727.325 10.8708 730.96 M7.16713 730.96 Q7.16713 725.149 11.7736 722.094 Q16.3569 719.015 25.1068 719.015 Q33.8337 719.015 38.4401 722.094 Q43.0234 725.149 43.0234 730.96 Q43.0234 736.77 38.4401 739.848 Q33.8337 742.904 25.1068 742.904 Q16.3569 742.904 11.7736 739.848 Q7.16713 736.77 7.16713 730.96 Z" fill="#000000" fill-rule="nonzero" fill-opacity="1" /><path clip-path="url(#clip440)" d="M10.8708 700.798 Q10.8708 704.409 14.4356 706.238 Q17.9773 708.043 25.1068 708.043 Q32.2133 708.043 35.7781 706.238 Q39.3197 704.409 39.3197 700.798 Q39.3197 697.164 35.7781 695.358 Q32.2133 693.529 25.1068 693.529 Q17.9773 693.529 14.4356 695.358 Q10.8708 697.164 10.8708 700.798 M7.16713 700.798 Q7.16713 694.988 11.7736 691.932 Q16.3569 688.853 25.1068 688.853 Q33.8337 688.853 38.4401 691.932 Q43.0234 694.988 43.0234 700.798 Q43.0234 706.608 38.4401 709.687 Q33.8337 712.742 25.1068 712.742 Q16.3569 712.742 11.7736 709.687 Q7.16713 706.608 7.16713 700.798 Z" fill="#000000" fill-rule="nonzero" fill-opacity="1" /><path clip-path="url(#clip440)" d="M23.718 361.913 Q24.4356 358.557 26.7041 356.682 Q28.9726 354.784 32.3059 354.784 Q37.4216 354.784 40.2225 358.302 Q43.0234 361.821 43.0234 368.302 Q43.0234 370.478 42.5836 372.793 Q42.1669 375.085 41.3105 377.538 L36.7966 377.538 Q37.9309 375.594 38.5096 373.279 Q39.0883 370.964 39.0883 368.441 Q39.0883 364.043 37.3522 361.751 Q35.6161 359.437 32.3059 359.437 Q29.2503 359.437 27.5374 361.589 Q25.8013 363.719 25.8013 367.538 L25.8013 371.566 L21.9587 371.566 L21.9587 367.353 Q21.9587 363.904 20.593 362.075 Q19.2041 360.247 16.6115 360.247 Q13.9495 360.247 12.5375 362.145 Q11.1023 364.02 11.1023 367.538 Q11.1023 369.46 11.519 371.659 Q11.9356 373.858 12.8152 376.497 L8.6486 376.497 Q7.90787 373.835 7.5375 371.52 Q7.16713 369.182 7.16713 367.122 Q7.16713 361.798 9.59767 358.696 Q12.0051 355.594 16.1254 355.594 Q18.9958 355.594 20.9865 357.237 Q22.9541 358.881 23.718 361.913 Z" fill="#000000" fill-rule="nonzero" fill-opacity="1" /><path clip-path="url(#clip440)" d="M10.8708 335.918 Q10.8708 339.529 14.4356 341.358 Q17.9773 343.163 25.1068 343.163 Q32.2133 343.163 35.7781 341.358 Q39.3197 339.529 39.3197 335.918 Q39.3197 332.284 35.7781 330.478 Q32.2133 328.65 25.1068 328.65 Q17.9773 328.65 14.4356 330.478 Q10.8708 332.284 10.8708 335.918 M7.16713 335.918 Q7.16713 330.108 11.7736 327.052 Q16.3569 323.974 25.1068 323.974 Q33.8337 323.974 38.4401 327.052 Q43.0234 330.108 43.0234 335.918 Q43.0234 341.728 38.4401 344.807 Q33.8337 347.863 25.1068 347.863 Q16.3569 347.863 11.7736 344.807 Q7.16713 341.728 7.16713 335.918 Z" fill="#000000" fill-rule="nonzero" fill-opacity="1" /><path clip-path="url(#clip440)" d="M10.8708 305.756 Q10.8708 309.367 14.4356 311.196 Q17.9773 313.002 25.1068 313.002 Q32.2133 313.002 35.7781 311.196 Q39.3197 309.367 39.3197 305.756 Q39.3197 302.122 35.7781 300.316 Q32.2133 298.488 25.1068 298.488 Q17.9773 298.488 14.4356 300.316 Q10.8708 302.122 10.8708 305.756 M7.16713 305.756 Q7.16713 299.946 11.7736 296.891 Q16.3569 293.812 25.1068 293.812 Q33.8337 293.812 38.4401 296.891 Q43.0234 299.946 43.0234 305.756 Q43.0234 311.566 38.4401 314.645 Q33.8337 317.701 25.1068 317.701 Q16.3569 317.701 11.7736 314.645 Q7.16713 311.566 7.16713 305.756 Z" fill="#000000" fill-rule="nonzero" fill-opacity="1" /><path clip-path="url(#clip442)" d="M211.613 1517.06 L211.613 1521.01 L260.797 1521.01 L260.797 1517.06 L211.613 1517.06 L211.613 1517.06  Z" fill="#009af9" fill-rule="evenodd" fill-opacity="1"/>
<polyline clip-path="url(#clip442)" style="stroke:#000000; stroke-linecap:round; stroke-linejoin:round; stroke-width:4; stroke-opacity:1; fill:none" points="211.613,1517.06 211.613,1521.01 260.797,1521.01 260.797,1517.06 211.613,1517.06 "/>
<path clip-path="url(#clip442)" d="M260.797 1517.06 L260.797 1521.01 L309.98 1521.01 L309.98 1517.06 L260.797 1517.06 L260.797 1517.06  Z" fill="#009af9" fill-rule="evenodd" fill-opacity="1"/>
<polyline clip-path="url(#clip442)" style="stroke:#000000; stroke-linecap:round; stroke-linejoin:round; stroke-width:4; stroke-opacity:1; fill:none" points="260.797,1517.06 260.797,1521.01 309.98,1521.01 309.98,1517.06 260.797,1517.06 "/>
<path clip-path="url(#clip442)" d="M309.98 1505.2 L309.98 1521.01 L359.164 1521.01 L359.164 1505.2 L309.98 1505.2 L309.98 1505.2  Z" fill="#009af9" fill-rule="evenodd" fill-opacity="1"/>
<polyline clip-path="url(#clip442)" style="stroke:#000000; stroke-linecap:round; stroke-linejoin:round; stroke-width:4; stroke-opacity:1; fill:none" points="309.98,1505.2 309.98,1521.01 359.164,1521.01 359.164,1505.2 309.98,1505.2 "/>
<path clip-path="url(#clip442)" d="M359.164 1509.15 L359.164 1521.01 L408.347 1521.01 L408.347 1509.15 L359.164 1509.15 L359.164 1509.15  Z" fill="#009af9" fill-rule="evenodd" fill-opacity="1"/>
<polyline clip-path="url(#clip442)" style="stroke:#000000; stroke-linecap:round; stroke-linejoin:round; stroke-width:4; stroke-opacity:1; fill:none" points="359.164,1509.15 359.164,1521.01 408.347,1521.01 408.347,1509.15 359.164,1509.15 "/>
<path clip-path="url(#clip442)" d="M408.347 1509.15 L408.347 1521.01 L457.53 1521.01 L457.53 1509.15 L408.347 1509.15 L408.347 1509.15  Z" fill="#009af9" fill-rule="evenodd" fill-opacity="1"/>
<polyline clip-path="url(#clip442)" style="stroke:#000000; stroke-linecap:round; stroke-linejoin:round; stroke-width:4; stroke-opacity:1; fill:none" points="408.347,1509.15 408.347,1521.01 457.53,1521.01 457.53,1509.15 408.347,1509.15 "/>
<path clip-path="url(#clip442)" d="M457.53 1457.79 L457.53 1521.01 L506.714 1521.01 L506.714 1457.79 L457.53 1457.79 L457.53 1457.79  Z" fill="#009af9" fill-rule="evenodd" fill-opacity="1"/>
<polyline clip-path="url(#clip442)" style="stroke:#000000; stroke-linecap:round; stroke-linejoin:round; stroke-width:4; stroke-opacity:1; fill:none" points="457.53,1457.79 457.53,1521.01 506.714,1521.01 506.714,1457.79 457.53,1457.79 "/>
<path clip-path="url(#clip442)" d="M506.714 1438.03 L506.714 1521.01 L555.897 1521.01 L555.897 1438.03 L506.714 1438.03 L506.714 1438.03  Z" fill="#009af9" fill-rule="evenodd" fill-opacity="1"/>
<polyline clip-path="url(#clip442)" style="stroke:#000000; stroke-linecap:round; stroke-linejoin:round; stroke-width:4; stroke-opacity:1; fill:none" points="506.714,1438.03 506.714,1521.01 555.897,1521.01 555.897,1438.03 506.714,1438.03 "/>
<path clip-path="url(#clip442)" d="M555.897 1382.72 L555.897 1521.01 L605.081 1521.01 L605.081 1382.72 L555.897 1382.72 L555.897 1382.72  Z" fill="#009af9" fill-rule="evenodd" fill-opacity="1"/>
<polyline clip-path="url(#clip442)" style="stroke:#000000; stroke-linecap:round; stroke-linejoin:round; stroke-width:4; stroke-opacity:1; fill:none" points="555.897,1382.72 555.897,1521.01 605.081,1521.01 605.081,1382.72 555.897,1382.72 "/>
<path clip-path="url(#clip442)" d="M605.081 1319.5 L605.081 1521.01 L654.264 1521.01 L654.264 1319.5 L605.081 1319.5 L605.081 1319.5  Z" fill="#009af9" fill-rule="evenodd" fill-opacity="1"/>
<polyline clip-path="url(#clip442)" style="stroke:#000000; stroke-linecap:round; stroke-linejoin:round; stroke-width:4; stroke-opacity:1; fill:none" points="605.081,1319.5 605.081,1521.01 654.264,1521.01 654.264,1319.5 605.081,1319.5 "/>
<path clip-path="url(#clip442)" d="M654.264 1311.6 L654.264 1521.01 L703.448 1521.01 L703.448 1311.6 L654.264 1311.6 L654.264 1311.6  Z" fill="#009af9" fill-rule="evenodd" fill-opacity="1"/>
<polyline clip-path="url(#clip442)" style="stroke:#000000; stroke-linecap:round; stroke-linejoin:round; stroke-width:4; stroke-opacity:1; fill:none" points="654.264,1311.6 654.264,1521.01 703.448,1521.01 703.448,1311.6 654.264,1311.6 "/>
<path clip-path="url(#clip442)" d="M703.448 1200.97 L703.448 1521.01 L752.631 1521.01 L752.631 1200.97 L703.448 1200.97 L703.448 1200.97  Z" fill="#009af9" fill-rule="evenodd" fill-opacity="1"/>
<polyline clip-path="url(#clip442)" style="stroke:#000000; stroke-linecap:round; stroke-linejoin:round; stroke-width:4; stroke-opacity:1; fill:none" points="703.448,1200.97 703.448,1521.01 752.631,1521.01 752.631,1200.97 703.448,1200.97 "/>
<path clip-path="url(#clip442)" d="M752.631 1117.99 L752.631 1521.01 L801.815 1521.01 L801.815 1117.99 L752.631 1117.99 L752.631 1117.99  Z" fill="#009af9" fill-rule="evenodd" fill-opacity="1"/>
<polyline clip-path="url(#clip442)" style="stroke:#000000; stroke-linecap:round; stroke-linejoin:round; stroke-width:4; stroke-opacity:1; fill:none" points="752.631,1117.99 752.631,1521.01 801.815,1521.01 801.815,1117.99 752.631,1117.99 "/>
<path clip-path="url(#clip442)" d="M801.815 959.95 L801.815 1521.01 L850.998 1521.01 L850.998 959.95 L801.815 959.95 L801.815 959.95  Z" fill="#009af9" fill-rule="evenodd" fill-opacity="1"/>
<polyline clip-path="url(#clip442)" style="stroke:#000000; stroke-linecap:round; stroke-linejoin:round; stroke-width:4; stroke-opacity:1; fill:none" points="801.815,959.95 801.815,1521.01 850.998,1521.01 850.998,959.95 801.815,959.95 "/>
<path clip-path="url(#clip442)" d="M850.998 924.39 L850.998 1521.01 L900.182 1521.01 L900.182 924.39 L850.998 924.39 L850.998 924.39  Z" fill="#009af9" fill-rule="evenodd" fill-opacity="1"/>
<polyline clip-path="url(#clip442)" style="stroke:#000000; stroke-linecap:round; stroke-linejoin:round; stroke-width:4; stroke-opacity:1; fill:none" points="850.998,924.39 850.998,1521.01 900.182,1521.01 900.182,924.39 850.998,924.39 "/>
<path clip-path="url(#clip442)" d="M900.182 734.737 L900.182 1521.01 L949.365 1521.01 L949.365 734.737 L900.182 734.737 L900.182 734.737  Z" fill="#009af9" fill-rule="evenodd" fill-opacity="1"/>
<polyline clip-path="url(#clip442)" style="stroke:#000000; stroke-linecap:round; stroke-linejoin:round; stroke-width:4; stroke-opacity:1; fill:none" points="900.182,734.737 900.182,1521.01 949.365,1521.01 949.365,734.737 900.182,734.737 "/>
<path clip-path="url(#clip442)" d="M949.365 450.257 L949.365 1521.01 L998.548 1521.01 L998.548 450.257 L949.365 450.257 L949.365 450.257  Z" fill="#009af9" fill-rule="evenodd" fill-opacity="1"/>
<polyline clip-path="url(#clip442)" style="stroke:#000000; stroke-linecap:round; stroke-linejoin:round; stroke-width:4; stroke-opacity:1; fill:none" points="949.365,450.257 949.365,1521.01 998.548,1521.01 998.548,450.257 949.365,450.257 "/>
<path clip-path="url(#clip442)" d="M998.548 351.48 L998.548 1521.01 L1047.73 1521.01 L1047.73 351.48 L998.548 351.48 L998.548 351.48  Z" fill="#009af9" fill-rule="evenodd" fill-opacity="1"/>
<polyline clip-path="url(#clip442)" style="stroke:#000000; stroke-linecap:round; stroke-linejoin:round; stroke-width:4; stroke-opacity:1; fill:none" points="998.548,351.48 998.548,1521.01 1047.73,1521.01 1047.73,351.48 998.548,351.48 "/>
<path clip-path="url(#clip442)" d="M1047.73 272.457 L1047.73 1521.01 L1096.92 1521.01 L1096.92 272.457 L1047.73 272.457 L1047.73 272.457  Z" fill="#009af9" fill-rule="evenodd" fill-opacity="1"/>
<polyline clip-path="url(#clip442)" style="stroke:#000000; stroke-linecap:round; stroke-linejoin:round; stroke-width:4; stroke-opacity:1; fill:none" points="1047.73,272.457 1047.73,1521.01 1096.92,1521.01 1096.92,272.457 1047.73,272.457 "/>
<path clip-path="url(#clip442)" d="M1096.92 66.9996 L1096.92 1521.01 L1146.1 1521.01 L1146.1 66.9996 L1096.92 66.9996 L1096.92 66.9996  Z" fill="#009af9" fill-rule="evenodd" fill-opacity="1"/>
<polyline clip-path="url(#clip442)" style="stroke:#000000; stroke-linecap:round; stroke-linejoin:round; stroke-width:4; stroke-opacity:1; fill:none" points="1096.92,66.9996 1096.92,1521.01 1146.1,1521.01 1146.1,66.9996 1096.92,66.9996 "/>
<path clip-path="url(#clip442)" d="M1146.1 138.12 L1146.1 1521.01 L1195.28 1521.01 L1195.28 138.12 L1146.1 138.12 L1146.1 138.12  Z" fill="#009af9" fill-rule="evenodd" fill-opacity="1"/>
<polyline clip-path="url(#clip442)" style="stroke:#000000; stroke-linecap:round; stroke-linejoin:round; stroke-width:4; stroke-opacity:1; fill:none" points="1146.1,138.12 1146.1,1521.01 1195.28,1521.01 1195.28,138.12 1146.1,138.12 "/>
<path clip-path="url(#clip442)" d="M1195.28 47.2441 L1195.28 1521.01 L1244.47 1521.01 L1244.47 47.2441 L1195.28 47.2441 L1195.28 47.2441  Z" fill="#009af9" fill-rule="evenodd" fill-opacity="1"/>
<polyline clip-path="url(#clip442)" style="stroke:#000000; stroke-linecap:round; stroke-linejoin:round; stroke-width:4; stroke-opacity:1; fill:none" points="1195.28,47.2441 1195.28,1521.01 1244.47,1521.01 1244.47,47.2441 1195.28,47.2441 "/>
<path clip-path="url(#clip442)" d="M1244.47 130.217 L1244.47 1521.01 L1293.65 1521.01 L1293.65 130.217 L1244.47 130.217 L1244.47 130.217  Z" fill="#009af9" fill-rule="evenodd" fill-opacity="1"/>
<polyline clip-path="url(#clip442)" style="stroke:#000000; stroke-linecap:round; stroke-linejoin:round; stroke-width:4; stroke-opacity:1; fill:none" points="1244.47,130.217 1244.47,1521.01 1293.65,1521.01 1293.65,130.217 1244.47,130.217 "/>
<path clip-path="url(#clip442)" d="M1293.65 308.017 L1293.65 1521.01 L1342.83 1521.01 L1342.83 308.017 L1293.65 308.017 L1293.65 308.017  Z" fill="#009af9" fill-rule="evenodd" fill-opacity="1"/>
<polyline clip-path="url(#clip442)" style="stroke:#000000; stroke-linecap:round; stroke-linejoin:round; stroke-width:4; stroke-opacity:1; fill:none" points="1293.65,308.017 1293.65,1521.01 1342.83,1521.01 1342.83,308.017 1293.65,308.017 "/>
<path clip-path="url(#clip442)" d="M1342.83 394.942 L1342.83 1521.01 L1392.02 1521.01 L1392.02 394.942 L1342.83 394.942 L1342.83 394.942  Z" fill="#009af9" fill-rule="evenodd" fill-opacity="1"/>
<polyline clip-path="url(#clip442)" style="stroke:#000000; stroke-linecap:round; stroke-linejoin:round; stroke-width:4; stroke-opacity:1; fill:none" points="1342.83,394.942 1342.83,1521.01 1392.02,1521.01 1392.02,394.942 1342.83,394.942 "/>
<path clip-path="url(#clip442)" d="M1392.02 604.351 L1392.02 1521.01 L1441.2 1521.01 L1441.2 604.351 L1392.02 604.351 L1392.02 604.351  Z" fill="#009af9" fill-rule="evenodd" fill-opacity="1"/>
<polyline clip-path="url(#clip442)" style="stroke:#000000; stroke-linecap:round; stroke-linejoin:round; stroke-width:4; stroke-opacity:1; fill:none" points="1392.02,604.351 1392.02,1521.01 1441.2,1521.01 1441.2,604.351 1392.02,604.351 "/>
<path clip-path="url(#clip442)" d="M1441.2 541.133 L1441.2 1521.01 L1490.38 1521.01 L1490.38 541.133 L1441.2 541.133 L1441.2 541.133  Z" fill="#009af9" fill-rule="evenodd" fill-opacity="1"/>
<polyline clip-path="url(#clip442)" style="stroke:#000000; stroke-linecap:round; stroke-linejoin:round; stroke-width:4; stroke-opacity:1; fill:none" points="1441.2,541.133 1441.2,1521.01 1490.38,1521.01 1490.38,541.133 1441.2,541.133 "/>
<path clip-path="url(#clip442)" d="M1490.38 746.59 L1490.38 1521.01 L1539.57 1521.01 L1539.57 746.59 L1490.38 746.59 L1490.38 746.59  Z" fill="#009af9" fill-rule="evenodd" fill-opacity="1"/>
<polyline clip-path="url(#clip442)" style="stroke:#000000; stroke-linecap:round; stroke-linejoin:round; stroke-width:4; stroke-opacity:1; fill:none" points="1490.38,746.59 1490.38,1521.01 1539.57,1521.01 1539.57,746.59 1490.38,746.59 "/>
<path clip-path="url(#clip442)" d="M1539.57 908.586 L1539.57 1521.01 L1588.75 1521.01 L1588.75 908.586 L1539.57 908.586 L1539.57 908.586  Z" fill="#009af9" fill-rule="evenodd" fill-opacity="1"/>
<polyline clip-path="url(#clip442)" style="stroke:#000000; stroke-linecap:round; stroke-linejoin:round; stroke-width:4; stroke-opacity:1; fill:none" points="1539.57,908.586 1539.57,1521.01 1588.75,1521.01 1588.75,908.586 1539.57,908.586 "/>
<path clip-path="url(#clip442)" d="M1588.75 1082.43 L1588.75 1521.01 L1637.93 1521.01 L1637.93 1082.43 L1588.75 1082.43 L1588.75 1082.43  Z" fill="#009af9" fill-rule="evenodd" fill-opacity="1"/>
<polyline clip-path="url(#clip442)" style="stroke:#000000; stroke-linecap:round; stroke-linejoin:round; stroke-width:4; stroke-opacity:1; fill:none" points="1588.75,1082.43 1588.75,1521.01 1637.93,1521.01 1637.93,1082.43 1588.75,1082.43 "/>
<path clip-path="url(#clip442)" d="M1637.93 1173.31 L1637.93 1521.01 L1687.12 1521.01 L1687.12 1173.31 L1637.93 1173.31 L1637.93 1173.31  Z" fill="#009af9" fill-rule="evenodd" fill-opacity="1"/>
<polyline clip-path="url(#clip442)" style="stroke:#000000; stroke-linecap:round; stroke-linejoin:round; stroke-width:4; stroke-opacity:1; fill:none" points="1637.93,1173.31 1637.93,1521.01 1687.12,1521.01 1687.12,1173.31 1637.93,1173.31 "/>
<path clip-path="url(#clip442)" d="M1687.12 1248.38 L1687.12 1521.01 L1736.3 1521.01 L1736.3 1248.38 L1687.12 1248.38 L1687.12 1248.38  Z" fill="#009af9" fill-rule="evenodd" fill-opacity="1"/>
<polyline clip-path="url(#clip442)" style="stroke:#000000; stroke-linecap:round; stroke-linejoin:round; stroke-width:4; stroke-opacity:1; fill:none" points="1687.12,1248.38 1687.12,1521.01 1736.3,1521.01 1736.3,1248.38 1687.12,1248.38 "/>
<path clip-path="url(#clip442)" d="M1736.3 1335.31 L1736.3 1521.01 L1785.48 1521.01 L1785.48 1335.31 L1736.3 1335.31 L1736.3 1335.31  Z" fill="#009af9" fill-rule="evenodd" fill-opacity="1"/>
<polyline clip-path="url(#clip442)" style="stroke:#000000; stroke-linecap:round; stroke-linejoin:round; stroke-width:4; stroke-opacity:1; fill:none" points="1736.3,1335.31 1736.3,1521.01 1785.48,1521.01 1785.48,1335.31 1736.3,1335.31 "/>
<path clip-path="url(#clip442)" d="M1785.48 1430.13 L1785.48 1521.01 L1834.67 1521.01 L1834.67 1430.13 L1785.48 1430.13 L1785.48 1430.13  Z" fill="#009af9" fill-rule="evenodd" fill-opacity="1"/>
<polyline clip-path="url(#clip442)" style="stroke:#000000; stroke-linecap:round; stroke-linejoin:round; stroke-width:4; stroke-opacity:1; fill:none" points="1785.48,1430.13 1785.48,1521.01 1834.67,1521.01 1834.67,1430.13 1785.48,1430.13 "/>
<path clip-path="url(#clip442)" d="M1834.67 1465.69 L1834.67 1521.01 L1883.85 1521.01 L1883.85 1465.69 L1834.67 1465.69 L1834.67 1465.69  Z" fill="#009af9" fill-rule="evenodd" fill-opacity="1"/>
<polyline clip-path="url(#clip442)" style="stroke:#000000; stroke-linecap:round; stroke-linejoin:round; stroke-width:4; stroke-opacity:1; fill:none" points="1834.67,1465.69 1834.67,1521.01 1883.85,1521.01 1883.85,1465.69 1834.67,1465.69 "/>
<path clip-path="url(#clip442)" d="M1883.85 1469.64 L1883.85 1521.01 L1933.03 1521.01 L1933.03 1469.64 L1883.85 1469.64 L1883.85 1469.64  Z" fill="#009af9" fill-rule="evenodd" fill-opacity="1"/>
<polyline clip-path="url(#clip442)" style="stroke:#000000; stroke-linecap:round; stroke-linejoin:round; stroke-width:4; stroke-opacity:1; fill:none" points="1883.85,1469.64 1883.85,1521.01 1933.03,1521.01 1933.03,1469.64 1883.85,1469.64 "/>
<path clip-path="url(#clip442)" d="M1933.03 1493.35 L1933.03 1521.01 L1982.22 1521.01 L1982.22 1493.35 L1933.03 1493.35 L1933.03 1493.35  Z" fill="#009af9" fill-rule="evenodd" fill-opacity="1"/>
<polyline clip-path="url(#clip442)" style="stroke:#000000; stroke-linecap:round; stroke-linejoin:round; stroke-width:4; stroke-opacity:1; fill:none" points="1933.03,1493.35 1933.03,1521.01 1982.22,1521.01 1982.22,1493.35 1933.03,1493.35 "/>
<path clip-path="url(#clip442)" d="M1982.22 1497.3 L1982.22 1521.01 L2031.4 1521.01 L2031.4 1497.3 L1982.22 1497.3 L1982.22 1497.3  Z" fill="#009af9" fill-rule="evenodd" fill-opacity="1"/>
<polyline clip-path="url(#clip442)" style="stroke:#000000; stroke-linecap:round; stroke-linejoin:round; stroke-width:4; stroke-opacity:1; fill:none" points="1982.22,1497.3 1982.22,1521.01 2031.4,1521.01 2031.4,1497.3 1982.22,1497.3 "/>
<path clip-path="url(#clip442)" d="M2031.4 1493.35 L2031.4 1521.01 L2080.58 1521.01 L2080.58 1493.35 L2031.4 1493.35 L2031.4 1493.35  Z" fill="#009af9" fill-rule="evenodd" fill-opacity="1"/>
<polyline clip-path="url(#clip442)" style="stroke:#000000; stroke-linecap:round; stroke-linejoin:round; stroke-width:4; stroke-opacity:1; fill:none" points="2031.4,1493.35 2031.4,1521.01 2080.58,1521.01 2080.58,1493.35 2031.4,1493.35 "/>
<path clip-path="url(#clip442)" d="M2080.58 1521.01 L2080.58 1521.01 L2129.77 1521.01 L2129.77 1521.01 L2080.58 1521.01 L2080.58 1521.01  Z" fill="#009af9" fill-rule="evenodd" fill-opacity="1"/>
<polyline clip-path="url(#clip442)" style="stroke:#000000; stroke-linecap:round; stroke-linejoin:round; stroke-width:4; stroke-opacity:1; fill:none" points="2080.58,1521.01 2080.58,1521.01 2129.77,1521.01 2080.58,1521.01 "/>
<path clip-path="url(#clip442)" d="M2129.77 1517.06 L2129.77 1521.01 L2178.95 1521.01 L2178.95 1517.06 L2129.77 1517.06 L2129.77 1517.06  Z" fill="#009af9" fill-rule="evenodd" fill-opacity="1"/>
<polyline clip-path="url(#clip442)" style="stroke:#000000; stroke-linecap:round; stroke-linejoin:round; stroke-width:4; stroke-opacity:1; fill:none" points="2129.77,1517.06 2129.77,1521.01 2178.95,1521.01 2178.95,1517.06 2129.77,1517.06 "/>
<path clip-path="url(#clip442)" d="M2178.95 1513.11 L2178.95 1521.01 L2228.13 1521.01 L2228.13 1513.11 L2178.95 1513.11 L2178.95 1513.11  Z" fill="#009af9" fill-rule="evenodd" fill-opacity="1"/>
<polyline clip-path="url(#clip442)" style="stroke:#000000; stroke-linecap:round; stroke-linejoin:round; stroke-width:4; stroke-opacity:1; fill:none" points="2178.95,1513.11 2178.95,1521.01 2228.13,1521.01 2228.13,1513.11 2178.95,1513.11 "/>
<circle clip-path="url(#clip442)" style="fill:#009af9; stroke:none; fill-opacity:0" cx="236.205" cy="1517.06" r="2"/>
<circle clip-path="url(#clip442)" style="fill:#009af9; stroke:none; fill-opacity:0" cx="285.388" cy="1517.06" r="2"/>
<circle clip-path="url(#clip442)" style="fill:#009af9; stroke:none; fill-opacity:0" cx="334.572" cy="1505.2" r="2"/>
<circle clip-path="url(#clip442)" style="fill:#009af9; stroke:none; fill-opacity:0" cx="383.755" cy="1509.15" r="2"/>
<circle clip-path="url(#clip442)" style="fill:#009af9; stroke:none; fill-opacity:0" cx="432.939" cy="1509.15" r="2"/>
<circle clip-path="url(#clip442)" style="fill:#009af9; stroke:none; fill-opacity:0" cx="482.122" cy="1457.79" r="2"/>
<circle clip-path="url(#clip442)" style="fill:#009af9; stroke:none; fill-opacity:0" cx="531.306" cy="1438.03" r="2"/>
<circle clip-path="url(#clip442)" style="fill:#009af9; stroke:none; fill-opacity:0" cx="580.489" cy="1382.72" r="2"/>
<circle clip-path="url(#clip442)" style="fill:#009af9; stroke:none; fill-opacity:0" cx="629.673" cy="1319.5" r="2"/>
<circle clip-path="url(#clip442)" style="fill:#009af9; stroke:none; fill-opacity:0" cx="678.856" cy="1311.6" r="2"/>
<circle clip-path="url(#clip442)" style="fill:#009af9; stroke:none; fill-opacity:0" cx="728.039" cy="1200.97" r="2"/>
<circle clip-path="url(#clip442)" style="fill:#009af9; stroke:none; fill-opacity:0" cx="777.223" cy="1117.99" r="2"/>
<circle clip-path="url(#clip442)" style="fill:#009af9; stroke:none; fill-opacity:0" cx="826.406" cy="959.95" r="2"/>
<circle clip-path="url(#clip442)" style="fill:#009af9; stroke:none; fill-opacity:0" cx="875.59" cy="924.39" r="2"/>
<circle clip-path="url(#clip442)" style="fill:#009af9; stroke:none; fill-opacity:0" cx="924.773" cy="734.737" r="2"/>
<circle clip-path="url(#clip442)" style="fill:#009af9; stroke:none; fill-opacity:0" cx="973.957" cy="450.257" r="2"/>
<circle clip-path="url(#clip442)" style="fill:#009af9; stroke:none; fill-opacity:0" cx="1023.14" cy="351.48" r="2"/>
<circle clip-path="url(#clip442)" style="fill:#009af9; stroke:none; fill-opacity:0" cx="1072.32" cy="272.457" r="2"/>
<circle clip-path="url(#clip442)" style="fill:#009af9; stroke:none; fill-opacity:0" cx="1121.51" cy="66.9996" r="2"/>
<circle clip-path="url(#clip442)" style="fill:#009af9; stroke:none; fill-opacity:0" cx="1170.69" cy="138.12" r="2"/>
<circle clip-path="url(#clip442)" style="fill:#009af9; stroke:none; fill-opacity:0" cx="1219.87" cy="47.2441" r="2"/>
<circle clip-path="url(#clip442)" style="fill:#009af9; stroke:none; fill-opacity:0" cx="1269.06" cy="130.217" r="2"/>
<circle clip-path="url(#clip442)" style="fill:#009af9; stroke:none; fill-opacity:0" cx="1318.24" cy="308.017" r="2"/>
<circle clip-path="url(#clip442)" style="fill:#009af9; stroke:none; fill-opacity:0" cx="1367.42" cy="394.942" r="2"/>
<circle clip-path="url(#clip442)" style="fill:#009af9; stroke:none; fill-opacity:0" cx="1416.61" cy="604.351" r="2"/>
<circle clip-path="url(#clip442)" style="fill:#009af9; stroke:none; fill-opacity:0" cx="1465.79" cy="541.133" r="2"/>
<circle clip-path="url(#clip442)" style="fill:#009af9; stroke:none; fill-opacity:0" cx="1514.97" cy="746.59" r="2"/>
<circle clip-path="url(#clip442)" style="fill:#009af9; stroke:none; fill-opacity:0" cx="1564.16" cy="908.586" r="2"/>
<circle clip-path="url(#clip442)" style="fill:#009af9; stroke:none; fill-opacity:0" cx="1613.34" cy="1082.43" r="2"/>
<circle clip-path="url(#clip442)" style="fill:#009af9; stroke:none; fill-opacity:0" cx="1662.53" cy="1173.31" r="2"/>
<circle clip-path="url(#clip442)" style="fill:#009af9; stroke:none; fill-opacity:0" cx="1711.71" cy="1248.38" r="2"/>
<circle clip-path="url(#clip442)" style="fill:#009af9; stroke:none; fill-opacity:0" cx="1760.89" cy="1335.31" r="2"/>
<circle clip-path="url(#clip442)" style="fill:#009af9; stroke:none; fill-opacity:0" cx="1810.08" cy="1430.13" r="2"/>
<circle clip-path="url(#clip442)" style="fill:#009af9; stroke:none; fill-opacity:0" cx="1859.26" cy="1465.69" r="2"/>
<circle clip-path="url(#clip442)" style="fill:#009af9; stroke:none; fill-opacity:0" cx="1908.44" cy="1469.64" r="2"/>
<circle clip-path="url(#clip442)" style="fill:#009af9; stroke:none; fill-opacity:0" cx="1957.63" cy="1493.35" r="2"/>
<circle clip-path="url(#clip442)" style="fill:#009af9; stroke:none; fill-opacity:0" cx="2006.81" cy="1497.3" r="2"/>
<circle clip-path="url(#clip442)" style="fill:#009af9; stroke:none; fill-opacity:0" cx="2055.99" cy="1493.35" r="2"/>
<circle clip-path="url(#clip442)" style="fill:#009af9; stroke:none; fill-opacity:0" cx="2105.18" cy="1521.01" r="2"/>
<circle clip-path="url(#clip442)" style="fill:#009af9; stroke:none; fill-opacity:0" cx="2154.36" cy="1517.06" r="2"/>
<circle clip-path="url(#clip442)" style="fill:#009af9; stroke:none; fill-opacity:0" cx="2203.54" cy="1513.11" r="2"/>
<path clip-path="url(#clip440)" d="M1905.4 200.05 L2277.23 200.05 L2277.23 96.3696 L1905.4 96.3696  Z" fill="#ffffff" fill-rule="evenodd" fill-opacity="1"/>
<polyline clip-path="url(#clip440)" style="stroke:#000000; stroke-linecap:round; stroke-linejoin:round; stroke-width:4; stroke-opacity:1; fill:none" points="1905.4,200.05 2277.23,200.05 2277.23,96.3696 1905.4,96.3696 1905.4,200.05 "/>
<path clip-path="url(#clip440)" d="M1930.58 168.946 L2081.63 168.946 L2081.63 127.474 L1930.58 127.474 L1930.58 168.946  Z" fill="#009af9" fill-rule="evenodd" fill-opacity="1"/>
<polyline clip-path="url(#clip440)" style="stroke:#000000; stroke-linecap:round; stroke-linejoin:round; stroke-width:4; stroke-opacity:1; fill:none" points="1930.58,168.946 2081.63,168.946 2081.63,127.474 1930.58,127.474 1930.58,168.946 "/>
<path clip-path="url(#clip440)" d="M2106.8 175.351 L2106.8 139.564 L2111.06 139.564 L2111.06 155.675 Q2111.06 159.031 2112.66 160.744 Q2114.26 162.457 2117.38 162.457 Q2120.81 162.457 2122.52 160.513 Q2124.26 158.568 2124.26 154.679 L2124.26 139.564 L2128.51 139.564 L2128.51 159.517 Q2128.51 160.906 2128.91 161.578 Q2129.32 162.226 2130.18 162.226 Q2130.39 162.226 2130.76 162.11 Q2131.13 161.971 2131.78 161.693 L2131.78 165.119 Q2130.83 165.652 2129.97 165.906 Q2129.14 166.161 2128.33 166.161 Q2126.73 166.161 2125.78 165.258 Q2124.83 164.355 2124.49 162.503 Q2123.33 164.332 2121.64 165.258 Q2119.97 166.161 2117.7 166.161 Q2115.34 166.161 2113.68 165.258 Q2112.03 164.355 2111.06 162.55 L2111.06 175.351 L2106.8 175.351 Z" fill="#000000" fill-rule="nonzero" fill-opacity="1" /><path clip-path="url(#clip440)" d="M2141.62 132.203 L2141.62 139.564 L2150.39 139.564 L2150.39 142.874 L2141.62 142.874 L2141.62 156.948 Q2141.62 160.119 2142.47 161.022 Q2143.35 161.925 2146.01 161.925 L2150.39 161.925 L2150.39 165.49 L2146.01 165.49 Q2141.08 165.49 2139.21 163.661 Q2137.33 161.809 2137.33 156.948 L2137.33 142.874 L2134.21 142.874 L2134.21 139.564 L2137.33 139.564 L2137.33 132.203 L2141.62 132.203 Z" fill="#000000" fill-rule="nonzero" fill-opacity="1" /><path clip-path="url(#clip440)" d="M2168.91 150.605 L2181.38 150.605 L2181.38 154.402 L2168.91 154.402 L2168.91 150.605 Z" fill="#000000" fill-rule="nonzero" fill-opacity="1" /><path clip-path="url(#clip440)" d="M2202.8 175.351 L2202.8 139.564 L2207.06 139.564 L2207.06 155.675 Q2207.06 159.031 2208.65 160.744 Q2210.25 162.457 2213.37 162.457 Q2216.8 162.457 2218.51 160.513 Q2220.25 158.568 2220.25 154.679 L2220.25 139.564 L2224.51 139.564 L2224.51 159.517 Q2224.51 160.906 2224.9 161.578 Q2225.32 162.226 2226.18 162.226 Q2226.38 162.226 2226.75 162.11 Q2227.12 161.971 2227.77 161.693 L2227.77 165.119 Q2226.82 165.652 2225.97 165.906 Q2225.13 166.161 2224.32 166.161 Q2222.73 166.161 2221.78 165.258 Q2220.83 164.355 2220.48 162.503 Q2219.32 164.332 2217.63 165.258 Q2215.97 166.161 2213.7 166.161 Q2211.34 166.161 2209.67 165.258 Q2208.03 164.355 2207.06 162.55 L2207.06 175.351 L2202.8 175.351 Z" fill="#000000" fill-rule="nonzero" fill-opacity="1" /><path clip-path="url(#clip440)" d="M2252.06 140.559 L2252.06 144.541 Q2250.25 143.545 2248.42 143.059 Q2246.62 142.55 2244.76 142.55 Q2240.62 142.55 2238.33 145.189 Q2236.04 147.804 2236.04 152.55 Q2236.04 157.295 2238.33 159.934 Q2240.62 162.55 2244.76 162.55 Q2246.62 162.55 2248.42 162.064 Q2250.25 161.554 2252.06 160.559 L2252.06 164.494 Q2250.27 165.328 2248.35 165.744 Q2246.45 166.161 2244.3 166.161 Q2238.44 166.161 2235 162.48 Q2231.55 158.8 2231.55 152.55 Q2231.55 146.207 2235.02 142.573 Q2238.51 138.939 2244.58 138.939 Q2246.55 138.939 2248.42 139.355 Q2250.3 139.749 2252.06 140.559 Z" fill="#000000" fill-rule="nonzero" fill-opacity="1" /></svg>
