<?xml version="1.0" encoding="utf-8"?>
<svg xmlns="http://www.w3.org/2000/svg" xmlns:xlink="http://www.w3.org/1999/xlink" width="600" height="400" viewBox="0 0 2400 1600">
<defs>
  <clipPath id="clip350">
    <rect x="0" y="0" width="2400" height="1600"/>
  </clipPath>
</defs>
<path clip-path="url(#clip350)" d="M0 1600 L2400 1600 L2400 0 L0 0  Z" fill="#ffffff" fill-rule="evenodd" fill-opacity="1"/>
<defs>
  <clipPath id="clip351">
    <rect x="480" y="0" width="1681" height="1600"/>
  </clipPath>
</defs>
<path clip-path="url(#clip350)" d="M86.9921 1521.01 L2352.76 1521.01 L2352.76 47.2441 L86.9921 47.2441  Z" fill="#ffffff" fill-rule="evenodd" fill-opacity="1"/>
<defs>
  <clipPath id="clip352">
    <rect x="86" y="47" width="2267" height="1475"/>
  </clipPath>
</defs>
<polyline clip-path="url(#clip352)" style="stroke:#000000; stroke-linecap:round; stroke-linejoin:round; stroke-width:2; stroke-opacity:0.1; fill:none" points="446.018,1521.01 446.018,47.2441 "/>
<polyline clip-path="url(#clip352)" style="stroke:#000000; stroke-linecap:round; stroke-linejoin:round; stroke-width:2; stroke-opacity:0.1; fill:none" points="893.865,1521.01 893.865,47.2441 "/>
<polyline clip-path="url(#clip352)" style="stroke:#000000; stroke-linecap:round; stroke-linejoin:round; stroke-width:2; stroke-opacity:0.1; fill:none" points="1341.71,1521.01 1341.71,47.2441 "/>
<polyline clip-path="url(#clip352)" style="stroke:#000000; stroke-linecap:round; stroke-linejoin:round; stroke-width:2; stroke-opacity:0.1; fill:none" points="1789.56,1521.01 1789.56,47.2441 "/>
<polyline clip-path="url(#clip352)" style="stroke:#000000; stroke-linecap:round; stroke-linejoin:round; stroke-width:2; stroke-opacity:0.1; fill:none" points="2237.4,1521.01 2237.4,47.2441 "/>
<polyline clip-path="url(#clip350)" style="stroke:#000000; stroke-linecap:round; stroke-linejoin:round; stroke-width:4; stroke-opacity:1; fill:none" points="86.9921,1521.01 2352.76,1521.01 "/>
<polyline clip-path="url(#clip350)" style="stroke:#000000; stroke-linecap:round; stroke-linejoin:round; stroke-width:4; stroke-opacity:1; fill:none" points="446.018,1521.01 446.018,1502.11 "/>
<polyline clip-path="url(#clip350)" style="stroke:#000000; stroke-linecap:round; stroke-linejoin:round; stroke-width:4; stroke-opacity:1; fill:none" points="893.865,1521.01 893.865,1502.11 "/>
<polyline clip-path="url(#clip350)" style="stroke:#000000; stroke-linecap:round; stroke-linejoin:round; stroke-width:4; stroke-opacity:1; fill:none" points="1341.71,1521.01 1341.71,1502.11 "/>
<polyline clip-path="url(#clip350)" style="stroke:#000000; stroke-linecap:round; stroke-linejoin:round; stroke-width:4; stroke-opacity:1; fill:none" points="1789.56,1521.01 1789.56,1502.11 "/>
<polyline clip-path="url(#clip350)" style="stroke:#000000; stroke-linecap:round; stroke-linejoin:round; stroke-width:4; stroke-opacity:1; fill:none" points="2237.4,1521.01 2237.4,1502.11 "/>
<path clip-path="url(#clip350)" d="M423.495 1551.93 Q419.884 1551.93 418.056 1555.49 Q416.25 1559.03 416.25 1566.16 Q416.25 1573.27 418.056 1576.83 Q419.884 1580.38 423.495 1580.38 Q427.13 1580.38 428.935 1576.83 Q430.764 1573.27 430.764 1566.16 Q430.764 1559.03 428.935 1555.49 Q427.13 1551.93 423.495 1551.93 M423.495 1548.22 Q429.306 1548.22 432.361 1552.83 Q435.44 1557.41 435.44 1566.16 Q435.44 1574.89 432.361 1579.5 Q429.306 1584.08 423.495 1584.08 Q417.685 1584.08 414.607 1579.5 Q411.551 1574.89 411.551 1566.16 Q411.551 1557.41 414.607 1552.83 Q417.685 1548.22 423.495 1548.22 Z" fill="#000000" fill-rule="nonzero" fill-opacity="1" /><path clip-path="url(#clip350)" d="M443.657 1577.53 L448.542 1577.53 L448.542 1583.41 L443.657 1583.41 L443.657 1577.53 Z" fill="#000000" fill-rule="nonzero" fill-opacity="1" /><path clip-path="url(#clip350)" d="M458.866 1582.69 L458.866 1578.43 Q460.625 1579.26 462.43 1579.7 Q464.236 1580.14 465.972 1580.14 Q470.602 1580.14 473.032 1577.04 Q475.486 1573.92 475.833 1567.57 Q474.49 1569.57 472.43 1570.63 Q470.37 1571.69 467.87 1571.69 Q462.685 1571.69 459.653 1568.57 Q456.643 1565.42 456.643 1559.98 Q456.643 1554.66 459.791 1551.44 Q462.94 1548.22 468.171 1548.22 Q474.166 1548.22 477.315 1552.83 Q480.486 1557.41 480.486 1566.16 Q480.486 1574.33 476.597 1579.22 Q472.731 1584.08 466.18 1584.08 Q464.421 1584.08 462.616 1583.73 Q460.81 1583.38 458.866 1582.69 M468.171 1568.04 Q471.319 1568.04 473.148 1565.88 Q475 1563.73 475 1559.98 Q475 1556.26 473.148 1554.1 Q471.319 1551.93 468.171 1551.93 Q465.023 1551.93 463.171 1554.1 Q461.342 1556.26 461.342 1559.98 Q461.342 1563.73 463.171 1565.88 Q465.023 1568.04 468.171 1568.04 Z" fill="#000000" fill-rule="nonzero" fill-opacity="1" /><path clip-path="url(#clip350)" d="M861.018 1579.47 L868.657 1579.47 L868.657 1553.11 L860.347 1554.77 L860.347 1550.51 L868.611 1548.85 L873.286 1548.85 L873.286 1579.47 L880.925 1579.47 L880.925 1583.41 L861.018 1583.41 L861.018 1579.47 Z" fill="#000000" fill-rule="nonzero" fill-opacity="1" /><path clip-path="url(#clip350)" d="M890.37 1577.53 L895.254 1577.53 L895.254 1583.41 L890.37 1583.41 L890.37 1577.53 Z" fill="#000000" fill-rule="nonzero" fill-opacity="1" /><path clip-path="url(#clip350)" d="M915.439 1551.93 Q911.828 1551.93 909.999 1555.49 Q908.194 1559.03 908.194 1566.16 Q908.194 1573.27 909.999 1576.83 Q911.828 1580.38 915.439 1580.38 Q919.073 1580.38 920.879 1576.83 Q922.707 1573.27 922.707 1566.16 Q922.707 1559.03 920.879 1555.49 Q919.073 1551.93 915.439 1551.93 M915.439 1548.22 Q921.249 1548.22 924.305 1552.83 Q927.383 1557.41 927.383 1566.16 Q927.383 1574.89 924.305 1579.5 Q921.249 1584.08 915.439 1584.08 Q909.629 1584.08 906.55 1579.5 Q903.495 1574.89 903.495 1566.16 Q903.495 1557.41 906.55 1552.83 Q909.629 1548.22 915.439 1548.22 Z" fill="#000000" fill-rule="nonzero" fill-opacity="1" /><path clip-path="url(#clip350)" d="M1309.48 1579.47 L1317.12 1579.47 L1317.12 1553.11 L1308.81 1554.77 L1308.81 1550.51 L1317.07 1548.85 L1321.75 1548.85 L1321.75 1579.47 L1329.39 1579.47 L1329.39 1583.41 L1309.48 1583.41 L1309.48 1579.47 Z" fill="#000000" fill-rule="nonzero" fill-opacity="1" /><path clip-path="url(#clip350)" d="M1338.83 1577.53 L1343.71 1577.53 L1343.71 1583.41 L1338.83 1583.41 L1338.83 1577.53 Z" fill="#000000" fill-rule="nonzero" fill-opacity="1" /><path clip-path="url(#clip350)" d="M1354.71 1579.47 L1362.35 1579.47 L1362.35 1553.11 L1354.04 1554.77 L1354.04 1550.51 L1362.3 1548.85 L1366.98 1548.85 L1366.98 1579.47 L1374.62 1579.47 L1374.62 1583.41 L1354.71 1583.41 L1354.71 1579.47 Z" fill="#000000" fill-rule="nonzero" fill-opacity="1" /><path clip-path="url(#clip350)" d="M1757.51 1579.47 L1765.15 1579.47 L1765.15 1553.11 L1756.84 1554.77 L1756.84 1550.51 L1765.1 1548.85 L1769.78 1548.85 L1769.78 1579.47 L1777.42 1579.47 L1777.42 1583.41 L1757.51 1583.41 L1757.51 1579.47 Z" fill="#000000" fill-rule="nonzero" fill-opacity="1" /><path clip-path="url(#clip350)" d="M1786.86 1577.53 L1791.75 1577.53 L1791.75 1583.41 L1786.86 1583.41 L1786.86 1577.53 Z" fill="#000000" fill-rule="nonzero" fill-opacity="1" /><path clip-path="url(#clip350)" d="M1805.96 1579.47 L1822.28 1579.47 L1822.28 1583.41 L1800.33 1583.41 L1800.33 1579.47 Q1803 1576.72 1807.58 1572.09 Q1812.19 1567.44 1813.37 1566.09 Q1815.61 1563.57 1816.49 1561.83 Q1817.39 1560.07 1817.39 1558.38 Q1817.39 1555.63 1815.45 1553.89 Q1813.53 1552.16 1810.43 1552.16 Q1808.23 1552.16 1805.77 1552.92 Q1803.34 1553.69 1800.57 1555.24 L1800.57 1550.51 Q1803.39 1549.38 1805.84 1548.8 Q1808.3 1548.22 1810.33 1548.22 Q1815.7 1548.22 1818.9 1550.91 Q1822.09 1553.59 1822.09 1558.08 Q1822.09 1560.21 1821.28 1562.13 Q1820.5 1564.03 1818.39 1566.63 Q1817.81 1567.3 1814.71 1570.51 Q1811.61 1573.71 1805.96 1579.47 Z" fill="#000000" fill-rule="nonzero" fill-opacity="1" /><path clip-path="url(#clip350)" d="M2204.88 1579.47 L2212.52 1579.47 L2212.52 1553.11 L2204.21 1554.77 L2204.21 1550.51 L2212.47 1548.85 L2217.15 1548.85 L2217.15 1579.47 L2224.79 1579.47 L2224.79 1583.41 L2204.88 1583.41 L2204.88 1579.47 Z" fill="#000000" fill-rule="nonzero" fill-opacity="1" /><path clip-path="url(#clip350)" d="M2234.23 1577.53 L2239.12 1577.53 L2239.12 1583.41 L2234.23 1583.41 L2234.23 1577.53 Z" fill="#000000" fill-rule="nonzero" fill-opacity="1" /><path clip-path="url(#clip350)" d="M2263.47 1564.77 Q2266.83 1565.49 2268.7 1567.76 Q2270.6 1570.03 2270.6 1573.36 Q2270.6 1578.48 2267.08 1581.28 Q2263.56 1584.08 2257.08 1584.08 Q2254.9 1584.08 2252.59 1583.64 Q2250.3 1583.22 2247.84 1582.37 L2247.84 1577.85 Q2249.79 1578.99 2252.1 1579.57 Q2254.42 1580.14 2256.94 1580.14 Q2261.34 1580.14 2263.63 1578.41 Q2265.95 1576.67 2265.95 1573.36 Q2265.95 1570.31 2263.79 1568.59 Q2261.66 1566.86 2257.84 1566.86 L2253.82 1566.86 L2253.82 1563.01 L2258.03 1563.01 Q2261.48 1563.01 2263.31 1561.65 Q2265.14 1560.26 2265.14 1557.67 Q2265.14 1555.01 2263.24 1553.59 Q2261.36 1552.16 2257.84 1552.16 Q2255.92 1552.16 2253.72 1552.57 Q2251.53 1552.99 2248.89 1553.87 L2248.89 1549.7 Q2251.55 1548.96 2253.86 1548.59 Q2256.2 1548.22 2258.26 1548.22 Q2263.59 1548.22 2266.69 1550.65 Q2269.79 1553.06 2269.79 1557.18 Q2269.79 1560.05 2268.15 1562.04 Q2266.5 1564.01 2263.47 1564.77 Z" fill="#000000" fill-rule="nonzero" fill-opacity="1" /><polyline clip-path="url(#clip352)" style="stroke:#000000; stroke-linecap:round; stroke-linejoin:round; stroke-width:2; stroke-opacity:0.1; fill:none" points="86.9921,1480.07 2352.76,1480.07 "/>
<polyline clip-path="url(#clip352)" style="stroke:#000000; stroke-linecap:round; stroke-linejoin:round; stroke-width:2; stroke-opacity:0.1; fill:none" points="86.9921,1187.36 2352.76,1187.36 "/>
<polyline clip-path="url(#clip352)" style="stroke:#000000; stroke-linecap:round; stroke-linejoin:round; stroke-width:2; stroke-opacity:0.1; fill:none" points="86.9921,894.64 2352.76,894.64 "/>
<polyline clip-path="url(#clip352)" style="stroke:#000000; stroke-linecap:round; stroke-linejoin:round; stroke-width:2; stroke-opacity:0.1; fill:none" points="86.9921,601.923 2352.76,601.923 "/>
<polyline clip-path="url(#clip352)" style="stroke:#000000; stroke-linecap:round; stroke-linejoin:round; stroke-width:2; stroke-opacity:0.1; fill:none" points="86.9921,309.207 2352.76,309.207 "/>
<polyline clip-path="url(#clip350)" style="stroke:#000000; stroke-linecap:round; stroke-linejoin:round; stroke-width:4; stroke-opacity:1; fill:none" points="86.9921,1521.01 86.9921,47.2441 "/>
<polyline clip-path="url(#clip350)" style="stroke:#000000; stroke-linecap:round; stroke-linejoin:round; stroke-width:4; stroke-opacity:1; fill:none" points="86.9921,1480.07 105.89,1480.07 "/>
<polyline clip-path="url(#clip350)" style="stroke:#000000; stroke-linecap:round; stroke-linejoin:round; stroke-width:4; stroke-opacity:1; fill:none" points="86.9921,1187.36 105.89,1187.36 "/>
<polyline clip-path="url(#clip350)" style="stroke:#000000; stroke-linecap:round; stroke-linejoin:round; stroke-width:4; stroke-opacity:1; fill:none" points="86.9921,894.64 105.89,894.64 "/>
<polyline clip-path="url(#clip350)" style="stroke:#000000; stroke-linecap:round; stroke-linejoin:round; stroke-width:4; stroke-opacity:1; fill:none" points="86.9921,601.923 105.89,601.923 "/>
<polyline clip-path="url(#clip350)" style="stroke:#000000; stroke-linecap:round; stroke-linejoin:round; stroke-width:4; stroke-opacity:1; fill:none" points="86.9921,309.207 105.89,309.207 "/>
<path clip-path="url(#clip350)" d="M10.8708 1502.69 Q10.8708 1506.3 14.4356 1508.13 Q17.9773 1509.93 25.1068 1509.93 Q32.2133 1509.93 35.7781 1508.13 Q39.3197 1506.3 39.3197 1502.69 Q39.3197 1499.05 35.7781 1497.25 Q32.2133 1495.42 25.1068 1495.42 Q17.9773 1495.42 14.4356 1497.25 Q10.8708 1499.05 10.8708 1502.69 M7.16713 1502.69 Q7.16713 1496.88 11.7736 1493.82 Q16.3569 1490.74 25.1068 1490.74 Q33.8337 1490.74 38.4401 1493.82 Q43.0234 1496.88 43.0234 1502.69 Q43.0234 1508.5 38.4401 1511.58 Q33.8337 1514.63 25.1068 1514.63 Q16.3569 1514.63 11.7736 1511.58 Q7.16713 1508.5 7.16713 1502.69 Z" fill="#000000" fill-rule="nonzero" fill-opacity="1" /><path clip-path="url(#clip350)" d="M36.4725 1482.53 L36.4725 1477.64 L42.3521 1477.64 L42.3521 1482.53 L36.4725 1482.53 Z" fill="#000000" fill-rule="nonzero" fill-opacity="1" /><path clip-path="url(#clip350)" d="M10.8708 1457.46 Q10.8708 1461.07 14.4356 1462.9 Q17.9773 1464.7 25.1068 1464.7 Q32.2133 1464.7 35.7781 1462.9 Q39.3197 1461.07 39.3197 1457.46 Q39.3197 1453.82 35.7781 1452.02 Q32.2133 1450.19 25.1068 1450.19 Q17.9773 1450.19 14.4356 1452.02 Q10.8708 1453.82 10.8708 1457.46 M7.16713 1457.46 Q7.16713 1451.65 11.7736 1448.59 Q16.3569 1445.51 25.1068 1445.51 Q33.8337 1445.51 38.4401 1448.59 Q43.0234 1451.65 43.0234 1457.46 Q43.0234 1463.27 38.4401 1466.35 Q33.8337 1469.4 25.1068 1469.4 Q16.3569 1469.4 11.7736 1466.35 Q7.16713 1463.27 7.16713 1457.46 Z" fill="#000000" fill-rule="nonzero" fill-opacity="1" /><path clip-path="url(#clip350)" d="M38.417 1215.62 L38.417 1199.3 L42.3521 1199.3 L42.3521 1221.25 L38.417 1221.25 Q35.6623 1218.58 31.0327 1214 Q26.38 1209.39 25.0374 1208.21 Q22.5143 1205.97 20.7782 1205.09 Q19.0189 1204.19 17.3291 1204.19 Q14.5745 1204.19 12.8384 1206.13 Q11.1023 1208.05 11.1023 1211.15 Q11.1023 1213.35 11.8662 1215.81 Q12.6301 1218.24 14.181 1221.01 L9.45878 1221.01 Q8.32453 1218.19 7.74583 1215.74 Q7.16713 1213.28 7.16713 1211.25 Q7.16713 1205.87 9.8523 1202.68 Q12.5375 1199.49 17.0282 1199.49 Q19.1578 1199.49 21.0791 1200.3 Q22.9772 1201.08 25.5698 1203.19 Q26.2411 1203.77 29.4587 1206.87 Q32.6531 1209.97 38.417 1215.62 Z" fill="#000000" fill-rule="nonzero" fill-opacity="1" /><path clip-path="url(#clip350)" d="M36.4725 1189.49 L36.4725 1184.6 L42.3521 1184.6 L42.3521 1189.49 L36.4725 1189.49 Z" fill="#000000" fill-rule="nonzero" fill-opacity="1" /><path clip-path="url(#clip350)" d="M7.79213 1174.37 L7.79213 1156.01 L11.7273 1156.01 L11.7273 1170.09 L20.1995 1170.09 Q19.8522 1169.07 19.6902 1168.05 Q19.505 1167.03 19.505 1166.01 Q19.505 1160.23 22.6763 1156.85 Q25.8476 1153.47 31.2642 1153.47 Q36.8429 1153.47 39.9447 1156.94 Q43.0234 1160.41 43.0234 1166.73 Q43.0234 1168.91 42.6531 1171.18 Q42.2827 1173.42 41.5419 1175.83 L36.8429 1175.83 Q37.9771 1173.75 38.5327 1171.52 Q39.0883 1169.3 39.0883 1166.82 Q39.0883 1162.82 36.9818 1160.48 Q34.8753 1158.14 31.2642 1158.14 Q27.6531 1158.14 25.5467 1160.48 Q23.4402 1162.82 23.4402 1166.82 Q23.4402 1168.7 23.8569 1170.57 Q24.2735 1172.43 25.1531 1174.37 L7.79213 1174.37 Z" fill="#000000" fill-rule="nonzero" fill-opacity="1" /><path clip-path="url(#clip350)" d="M7.79213 927.475 L7.79213 909.119 L11.7273 909.119 L11.7273 923.193 L20.1995 923.193 Q19.8522 922.174 19.6902 921.156 Q19.505 920.137 19.505 919.119 Q19.505 913.332 22.6763 909.952 Q25.8476 906.573 31.2642 906.573 Q36.8429 906.573 39.9447 910.045 Q43.0234 913.517 43.0234 919.837 Q43.0234 922.012 42.6531 924.281 Q42.2827 926.526 41.5419 928.934 L36.8429 928.934 Q37.9771 926.85 38.5327 924.628 Q39.0883 922.406 39.0883 919.929 Q39.0883 915.924 36.9818 913.587 Q34.8753 911.249 31.2642 911.249 Q27.6531 911.249 25.5467 913.587 Q23.4402 915.924 23.4402 919.929 Q23.4402 921.804 23.8569 923.679 Q24.2735 925.531 25.1531 927.475 L7.79213 927.475 Z" fill="#000000" fill-rule="nonzero" fill-opacity="1" /><path clip-path="url(#clip350)" d="M36.4725 897.36 L36.4725 892.476 L42.3521 892.476 L42.3521 897.36 L36.4725 897.36 Z" fill="#000000" fill-rule="nonzero" fill-opacity="1" /><path clip-path="url(#clip350)" d="M10.8708 872.29 Q10.8708 875.902 14.4356 877.73 Q17.9773 879.536 25.1068 879.536 Q32.2133 879.536 35.7781 877.73 Q39.3197 875.902 39.3197 872.29 Q39.3197 868.656 35.7781 866.851 Q32.2133 865.022 25.1068 865.022 Q17.9773 865.022 14.4356 866.851 Q10.8708 868.656 10.8708 872.29 M7.16713 872.29 Q7.16713 866.48 11.7736 863.425 Q16.3569 860.346 25.1068 860.346 Q33.8337 860.346 38.4401 863.425 Q43.0234 866.48 43.0234 872.29 Q43.0234 878.101 38.4401 881.179 Q33.8337 884.235 25.1068 884.235 Q16.3569 884.235 11.7736 881.179 Q7.16713 878.101 7.16713 872.29 Z" fill="#000000" fill-rule="nonzero" fill-opacity="1" /><path clip-path="url(#clip350)" d="M7.79213 635.604 L7.79213 613.382 L9.78286 613.382 L42.3521 625.928 L42.3521 630.812 L11.7273 619.007 L11.7273 635.604 L7.79213 635.604 Z" fill="#000000" fill-rule="nonzero" fill-opacity="1" /><path clip-path="url(#clip350)" d="M36.4725 604.261 L36.4725 599.377 L42.3521 599.377 L42.3521 604.261 L36.4725 604.261 Z" fill="#000000" fill-rule="nonzero" fill-opacity="1" /><path clip-path="url(#clip350)" d="M7.79213 589.146 L7.79213 570.789 L11.7273 570.789 L11.7273 584.863 L20.1995 584.863 Q19.8522 583.845 19.6902 582.826 Q19.505 581.808 19.505 580.789 Q19.505 575.002 22.6763 571.623 Q25.8476 568.243 31.2642 568.243 Q36.8429 568.243 39.9447 571.715 Q43.0234 575.187 43.0234 581.507 Q43.0234 583.683 42.6531 585.951 Q42.2827 588.197 41.5419 590.604 L36.8429 590.604 Q37.9771 588.521 38.5327 586.298 Q39.0883 584.076 39.0883 581.599 Q39.0883 577.595 36.9818 575.257 Q34.8753 572.919 31.2642 572.919 Q27.6531 572.919 25.5467 575.257 Q23.4402 577.595 23.4402 581.599 Q23.4402 583.474 23.8569 585.349 Q24.2735 587.201 25.1531 589.146 L7.79213 589.146 Z" fill="#000000" fill-rule="nonzero" fill-opacity="1" /><path clip-path="url(#clip350)" d="M38.417 357.135 L38.417 349.496 L12.0514 349.496 L13.718 357.806 L9.45878 357.806 L7.79213 349.542 L7.79213 344.866 L38.417 344.866 L38.417 337.227 L42.3521 337.227 L42.3521 357.135 L38.417 357.135 Z" fill="#000000" fill-rule="nonzero" fill-opacity="1" /><path clip-path="url(#clip350)" d="M10.8708 317.783 Q10.8708 321.394 14.4356 323.223 Q17.9773 325.028 25.1068 325.028 Q32.2133 325.028 35.7781 323.223 Q39.3197 321.394 39.3197 317.783 Q39.3197 314.149 35.7781 312.343 Q32.2133 310.515 25.1068 310.515 Q17.9773 310.515 14.4356 312.343 Q10.8708 314.149 10.8708 317.783 M7.16713 317.783 Q7.16713 311.973 11.7736 308.917 Q16.3569 305.839 25.1068 305.839 Q33.8337 305.839 38.4401 308.917 Q43.0234 311.973 43.0234 317.783 Q43.0234 323.593 38.4401 326.672 Q33.8337 329.727 25.1068 329.727 Q16.3569 329.727 11.7736 326.672 Q7.16713 323.593 7.16713 317.783 Z" fill="#000000" fill-rule="nonzero" fill-opacity="1" /><path clip-path="url(#clip350)" d="M36.4725 297.621 L36.4725 292.737 L42.3521 292.737 L42.3521 297.621 L36.4725 297.621 Z" fill="#000000" fill-rule="nonzero" fill-opacity="1" /><path clip-path="url(#clip350)" d="M10.8708 272.552 Q10.8708 276.163 14.4356 277.992 Q17.9773 279.797 25.1068 279.797 Q32.2133 279.797 35.7781 277.992 Q39.3197 276.163 39.3197 272.552 Q39.3197 268.918 35.7781 267.112 Q32.2133 265.283 25.1068 265.283 Q17.9773 265.283 14.4356 267.112 Q10.8708 268.918 10.8708 272.552 M7.16713 272.552 Q7.16713 266.742 11.7736 263.686 Q16.3569 260.607 25.1068 260.607 Q33.8337 260.607 38.4401 263.686 Q43.0234 266.742 43.0234 272.552 Q43.0234 278.362 38.4401 281.441 Q33.8337 284.496 25.1068 284.496 Q16.3569 284.496 11.7736 281.441 Q7.16713 278.362 7.16713 272.552 Z" fill="#000000" fill-rule="nonzero" fill-opacity="1" /><polyline clip-path="url(#clip352)" style="stroke:#009af9; stroke-linecap:round; stroke-linejoin:round; stroke-width:4; stroke-opacity:1; fill:none" points="151.118,1479.3 156.332,1479.24 161.547,1479.17 209.765,1478.27 257.983,1476.52 286.959,1474.78 315.936,1472.25 340.436,1469.25 364.935,1465.2 391.549,1459.23 418.162,1451.13 442.697,1441.23 467.233,1428.38 480.385,1420.06 493.537,1410.58 506.689,1399.84 519.841,1387.71 535.079,1371.76 550.317,1353.58 565.555,1332.99 580.794,1309.82 594.335,1286.93 607.877,1261.77 621.419,1234.29 634.961,1204.43 646.836,1176.28 658.711,1146.31 670.586,1114.55 682.461,1081.08 695.407,1042.75 708.354,1002.65 721.301,961.015 734.248,918.087 760.296,829.088 786.343,739.139 800.743,690.296 815.142,642.915 829.542,597.68 843.941,555.283 850.792,536.307 857.642,518.197 864.492,501.024 871.343,484.853 878.193,469.747 885.044,455.768 891.894,442.972 898.744,431.41 905.867,420.748 912.99,411.52 920.113,403.768 927.236,397.527 934.358,392.825 941.481,389.685 948.604,388.12 955.727,388.137 961.723,389.38 967.719,391.739 973.714,395.209 979.71,399.777 985.706,405.429 991.702,412.147 997.698,419.908 1003.69,428.688 1011.01,440.747 1018.33,454.227 1025.65,469.064 1032.97,485.19 1040.3,502.532 1047.62,521.011 1054.94,540.547 1062.26,561.055 1075.67,600.859 1089.08,643.082 1102.49,687.164 1115.9,732.553 1140.68,818.029 1165.45,903.013 1178,944.998 1190.54,985.874 1203.09,1025.39 1215.64,1063.34 1229.7,1103.79 1243.76,1141.88 1257.83,1177.48 1271.89,1210.53 1284.63,1238.25 1297.37,1263.87 1310.12,1287.42 1322.86,1308.98 1337.45,1331.31 1352.04,1351.26 1366.63,1368.97 1381.22,1384.62 1394.72,1397.42 1408.23,1408.72 1421.74,1418.66 1435.25,1427.37 1448.57,1434.88 1461.88,1441.41 1475.2,1447.09 1488.52,1452 1514.38,1459.69 1540.24,1465.39 1566.75,1469.67 1593.26,1472.76 1622.31,1475.14 1651.35,1476.77 1693.55,1478.25 1735.74,1479.08 1744.4,1479.19 1753.05,1479.3 "/>
<polyline clip-path="url(#clip352)" style="stroke:#e26f46; stroke-linecap:round; stroke-linejoin:round; stroke-width:4; stroke-opacity:1; fill:none" points="1048.65,1479.05 1052.69,1478.96 1056.72,1478.88 1094.04,1477.65 1131.37,1475.26 1153.8,1472.89 1176.23,1469.42 1195.19,1465.33 1214.16,1459.8 1234.76,1451.68 1255.36,1440.68 1264.85,1434.41 1274.35,1427.28 1283.84,1419.17 1293.34,1409.98 1303.52,1398.8 1313.7,1386.11 1323.88,1371.76 1334.06,1355.61 1345.86,1334.43 1357.65,1310.38 1369.45,1283.23 1381.24,1252.79 1391.72,1222.82 1402.2,1190 1412.69,1154.26 1423.17,1115.56 1432.36,1079.18 1441.55,1040.57 1450.74,999.777 1459.94,956.904 1469.96,907.946 1479.98,856.896 1490,804.033 1500.02,749.687 1520.18,637.482 1540.35,524.654 1551.49,463.611 1562.64,404.533 1573.78,348.255 1584.93,295.61 1590.23,272.078 1595.54,249.64 1600.84,228.377 1606.14,208.369 1611.44,189.692 1616.75,172.417 1622.05,156.612 1627.35,142.339 1632.86,129.182 1638.38,117.8 1643.89,108.241 1649.4,100.548 1654.92,94.7528 1660.43,90.8827 1665.95,88.9544 1671.46,88.9764 1676.1,90.507 1680.74,93.4148 1685.38,97.6908 1690.02,103.322 1694.66,110.289 1699.31,118.573 1703.95,128.146 1708.59,138.979 1714.25,153.865 1719.92,170.513 1725.59,188.847 1731.25,208.786 1736.92,230.243 1742.59,253.126 1748.25,277.335 1753.92,302.771 1764.3,352.206 1774.68,404.741 1785.06,459.701 1795.44,516.414 1814.62,623.579 1833.8,730.64 1843.51,783.738 1853.22,835.575 1862.93,885.829 1872.64,934.226 1883.53,985.981 1894.41,1034.88 1905.3,1080.73 1916.18,1123.45 1926.05,1159.4 1935.91,1192.73 1945.77,1223.47 1955.64,1251.69 1966.93,1281.02 1978.22,1307.31 1989.52,1330.74 2000.81,1351.5 2011.27,1368.53 2021.72,1383.62 2032.18,1396.93 2042.63,1408.62 2052.94,1418.72 2063.25,1427.53 2073.56,1435.2 2083.87,1441.86 2103.89,1452.29 2123.9,1460.06 2144.42,1465.9 2164.94,1470.12 2187.43,1473.37 2209.91,1475.6 2242.57,1477.62 2275.23,1478.75 2281.93,1478.91 2288.63,1479.05 "/>
<path clip-path="url(#clip350)" d="M1858.13 251.89 L2277.23 251.89 L2277.23 96.3696 L1858.13 96.3696  Z" fill="#ffffff" fill-rule="evenodd" fill-opacity="1"/>
<polyline clip-path="url(#clip350)" style="stroke:#000000; stroke-linecap:round; stroke-linejoin:round; stroke-width:4; stroke-opacity:1; fill:none" points="1858.13,251.89 2277.23,251.89 2277.23,96.3696 1858.13,96.3696 1858.13,251.89 "/>
<polyline clip-path="url(#clip350)" style="stroke:#009af9; stroke-linecap:round; stroke-linejoin:round; stroke-width:4; stroke-opacity:1; fill:none" points="1883.31,148.21 2034.36,148.21 "/>
<path clip-path="url(#clip350)" d="M2080.04 140.559 L2080.04 144.541 Q2078.24 143.545 2076.41 143.059 Q2074.6 142.55 2072.75 142.55 Q2068.61 142.55 2066.32 145.189 Q2064.02 147.804 2064.02 152.55 Q2064.02 157.295 2066.32 159.934 Q2068.61 162.55 2072.75 162.55 Q2074.6 162.55 2076.41 162.064 Q2078.24 161.554 2080.04 160.559 L2080.04 164.494 Q2078.26 165.328 2076.34 165.744 Q2074.44 166.161 2072.29 166.161 Q2066.43 166.161 2062.98 162.48 Q2059.53 158.8 2059.53 152.55 Q2059.53 146.207 2063.01 142.573 Q2066.5 138.939 2072.57 138.939 Q2074.53 138.939 2076.41 139.355 Q2078.28 139.749 2080.04 140.559 Z" fill="#000000" fill-rule="nonzero" fill-opacity="1" /><path clip-path="url(#clip350)" d="M2097.5 142.55 Q2094.07 142.55 2092.08 145.235 Q2090.09 147.897 2090.09 152.55 Q2090.09 157.203 2092.06 159.888 Q2094.05 162.55 2097.5 162.55 Q2100.9 162.55 2102.89 159.865 Q2104.88 157.179 2104.88 152.55 Q2104.88 147.943 2102.89 145.258 Q2100.9 142.55 2097.5 142.55 M2097.5 138.939 Q2103.05 138.939 2106.22 142.55 Q2109.39 146.161 2109.39 152.55 Q2109.39 158.916 2106.22 162.55 Q2103.05 166.161 2097.5 166.161 Q2091.92 166.161 2088.75 162.55 Q2085.6 158.916 2085.6 152.55 Q2085.6 146.161 2088.75 142.55 Q2091.92 138.939 2097.5 138.939 Z" fill="#000000" fill-rule="nonzero" fill-opacity="1" /><path clip-path="url(#clip350)" d="M2138 149.841 L2138 165.49 L2133.75 165.49 L2133.75 149.98 Q2133.75 146.3 2132.31 144.471 Q2130.88 142.642 2128.01 142.642 Q2124.56 142.642 2122.57 144.842 Q2120.57 147.041 2120.57 150.837 L2120.57 165.49 L2116.29 165.49 L2116.29 139.564 L2120.57 139.564 L2120.57 143.592 Q2122.1 141.254 2124.16 140.096 Q2126.25 138.939 2128.95 138.939 Q2133.42 138.939 2135.71 141.717 Q2138 144.471 2138 149.841 Z" fill="#000000" fill-rule="nonzero" fill-opacity="1" /><path clip-path="url(#clip350)" d="M2150.71 132.203 L2150.71 139.564 L2159.49 139.564 L2159.49 142.874 L2150.71 142.874 L2150.71 156.948 Q2150.71 160.119 2151.57 161.022 Q2152.45 161.925 2155.11 161.925 L2159.49 161.925 L2159.49 165.49 L2155.11 165.49 Q2150.18 165.49 2148.31 163.661 Q2146.43 161.809 2146.43 156.948 L2146.43 142.874 L2143.31 142.874 L2143.31 139.564 L2146.43 139.564 L2146.43 132.203 L2150.71 132.203 Z" fill="#000000" fill-rule="nonzero" fill-opacity="1" /><path clip-path="url(#clip350)" d="M2180.11 143.545 Q2179.39 143.129 2178.54 142.943 Q2177.7 142.735 2176.69 142.735 Q2173.07 142.735 2171.13 145.096 Q2169.21 147.434 2169.21 151.832 L2169.21 165.49 L2164.93 165.49 L2164.93 139.564 L2169.21 139.564 L2169.21 143.592 Q2170.55 141.23 2172.7 140.096 Q2174.86 138.939 2177.94 138.939 Q2178.38 138.939 2178.91 139.008 Q2179.44 139.055 2180.09 139.17 L2180.11 143.545 Z" fill="#000000" fill-rule="nonzero" fill-opacity="1" /><path clip-path="url(#clip350)" d="M2193.58 142.55 Q2190.16 142.55 2188.17 145.235 Q2186.18 147.897 2186.18 152.55 Q2186.18 157.203 2188.14 159.888 Q2190.13 162.55 2193.58 162.55 Q2196.99 162.55 2198.98 159.865 Q2200.97 157.179 2200.97 152.55 Q2200.97 147.943 2198.98 145.258 Q2196.99 142.55 2193.58 142.55 M2193.58 138.939 Q2199.14 138.939 2202.31 142.55 Q2205.48 146.161 2205.48 152.55 Q2205.48 158.916 2202.31 162.55 Q2199.14 166.161 2193.58 166.161 Q2188 166.161 2184.83 162.55 Q2181.69 158.916 2181.69 152.55 Q2181.69 146.161 2184.83 142.55 Q2188 138.939 2193.58 138.939 Z" fill="#000000" fill-rule="nonzero" fill-opacity="1" /><path clip-path="url(#clip350)" d="M2212.54 129.471 L2216.8 129.471 L2216.8 165.49 L2212.54 165.49 L2212.54 129.471 Z" fill="#000000" fill-rule="nonzero" fill-opacity="1" /><polyline clip-path="url(#clip350)" style="stroke:#e26f46; stroke-linecap:round; stroke-linejoin:round; stroke-width:4; stroke-opacity:1; fill:none" points="1883.31,200.05 2034.36,200.05 "/>
<path clip-path="url(#clip350)" d="M2083.56 203.302 L2083.56 205.385 L2063.98 205.385 Q2064.26 209.783 2066.62 212.098 Q2069 214.39 2073.24 214.39 Q2075.69 214.39 2077.98 213.788 Q2080.3 213.186 2082.57 211.982 L2082.57 216.01 Q2080.27 216.982 2077.87 217.492 Q2075.46 218.001 2072.98 218.001 Q2066.78 218.001 2063.14 214.39 Q2059.53 210.779 2059.53 204.621 Q2059.53 198.256 2062.96 194.529 Q2066.41 190.779 2072.24 190.779 Q2077.47 190.779 2080.51 194.158 Q2083.56 197.515 2083.56 203.302 M2079.3 202.052 Q2079.26 198.557 2077.33 196.473 Q2075.44 194.39 2072.29 194.39 Q2068.72 194.39 2066.57 196.404 Q2064.44 198.418 2064.12 202.075 L2079.3 202.052 Z" fill="#000000" fill-rule="nonzero" fill-opacity="1" /><path clip-path="url(#clip350)" d="M2111.27 191.404 L2101.89 204.019 L2111.76 217.33 L2106.73 217.33 L2099.19 207.144 L2091.64 217.33 L2086.62 217.33 L2096.69 203.765 L2087.47 191.404 L2092.5 191.404 L2099.37 200.64 L2106.25 191.404 L2111.27 191.404 Z" fill="#000000" fill-rule="nonzero" fill-opacity="1" /><path clip-path="url(#clip350)" d="M2121.89 213.441 L2121.89 227.191 L2117.61 227.191 L2117.61 191.404 L2121.89 191.404 L2121.89 195.339 Q2123.24 193.024 2125.27 191.913 Q2127.33 190.779 2130.18 190.779 Q2134.9 190.779 2137.84 194.529 Q2140.81 198.279 2140.81 204.39 Q2140.81 210.501 2137.84 214.251 Q2134.9 218.001 2130.18 218.001 Q2127.33 218.001 2125.27 216.89 Q2123.24 215.755 2121.89 213.441 M2136.38 204.39 Q2136.38 199.691 2134.44 197.029 Q2132.52 194.344 2129.14 194.344 Q2125.76 194.344 2123.82 197.029 Q2121.89 199.691 2121.89 204.39 Q2121.89 209.089 2123.82 211.774 Q2125.76 214.436 2129.14 214.436 Q2132.52 214.436 2134.44 211.774 Q2136.38 209.089 2136.38 204.39 Z" fill="#000000" fill-rule="nonzero" fill-opacity="1" /><path clip-path="url(#clip350)" d="M2157.91 194.39 Q2154.49 194.39 2152.5 197.075 Q2150.5 199.737 2150.5 204.39 Q2150.5 209.043 2152.47 211.728 Q2154.46 214.39 2157.91 214.39 Q2161.32 214.39 2163.31 211.705 Q2165.3 209.019 2165.3 204.39 Q2165.3 199.783 2163.31 197.098 Q2161.32 194.39 2157.91 194.39 M2157.91 190.779 Q2163.47 190.779 2166.64 194.39 Q2169.81 198.001 2169.81 204.39 Q2169.81 210.756 2166.64 214.39 Q2163.47 218.001 2157.91 218.001 Q2152.33 218.001 2149.16 214.39 Q2146.01 210.756 2146.01 204.39 Q2146.01 198.001 2149.16 194.39 Q2152.33 190.779 2157.91 190.779 Z" fill="#000000" fill-rule="nonzero" fill-opacity="1" /><path clip-path="url(#clip350)" d="M2193.4 192.168 L2193.4 196.195 Q2191.59 195.269 2189.65 194.807 Q2187.7 194.344 2185.62 194.344 Q2182.45 194.344 2180.85 195.316 Q2179.28 196.288 2179.28 198.232 Q2179.28 199.714 2180.41 200.57 Q2181.55 201.404 2184.97 202.168 L2186.43 202.492 Q2190.97 203.464 2192.87 205.246 Q2194.79 207.006 2194.79 210.177 Q2194.79 213.788 2191.92 215.894 Q2189.07 218.001 2184.07 218.001 Q2181.99 218.001 2179.72 217.584 Q2177.47 217.191 2174.97 216.38 L2174.97 211.982 Q2177.33 213.209 2179.63 213.834 Q2181.92 214.436 2184.16 214.436 Q2187.17 214.436 2188.79 213.418 Q2190.41 212.376 2190.41 210.501 Q2190.41 208.765 2189.23 207.839 Q2188.07 206.913 2184.12 206.056 L2182.63 205.709 Q2178.68 204.876 2176.92 203.163 Q2175.16 201.427 2175.16 198.418 Q2175.16 194.76 2177.75 192.77 Q2180.34 190.779 2185.11 190.779 Q2187.47 190.779 2189.56 191.126 Q2191.64 191.473 2193.4 192.168 Z" fill="#000000" fill-rule="nonzero" fill-opacity="1" /><path clip-path="url(#clip350)" d="M2223.75 203.302 L2223.75 205.385 L2204.16 205.385 Q2204.44 209.783 2206.8 212.098 Q2209.19 214.39 2213.42 214.39 Q2215.87 214.39 2218.17 213.788 Q2220.48 213.186 2222.75 211.982 L2222.75 216.01 Q2220.46 216.982 2218.05 217.492 Q2215.64 218.001 2213.17 218.001 Q2206.96 218.001 2203.33 214.39 Q2199.72 210.779 2199.72 204.621 Q2199.72 198.256 2203.14 194.529 Q2206.59 190.779 2212.43 190.779 Q2217.66 190.779 2220.69 194.158 Q2223.75 197.515 2223.75 203.302 M2219.49 202.052 Q2219.44 198.557 2217.52 196.473 Q2215.62 194.39 2212.47 194.39 Q2208.91 194.39 2206.75 196.404 Q2204.62 198.418 2204.3 202.075 L2219.49 202.052 Z" fill="#000000" fill-rule="nonzero" fill-opacity="1" /><path clip-path="url(#clip350)" d="M2247.8 195.339 L2247.8 181.311 L2252.06 181.311 L2252.06 217.33 L2247.8 217.33 L2247.8 213.441 Q2246.45 215.755 2244.39 216.89 Q2242.36 218.001 2239.49 218.001 Q2234.79 218.001 2231.82 214.251 Q2228.88 210.501 2228.88 204.39 Q2228.88 198.279 2231.82 194.529 Q2234.79 190.779 2239.49 190.779 Q2242.36 190.779 2244.39 191.913 Q2246.45 193.024 2247.8 195.339 M2233.28 204.39 Q2233.28 209.089 2235.2 211.774 Q2237.15 214.436 2240.53 214.436 Q2243.91 214.436 2245.85 211.774 Q2247.8 209.089 2247.8 204.39 Q2247.8 199.691 2245.85 197.029 Q2243.91 194.344 2240.53 194.344 Q2237.15 194.344 2235.2 197.029 Q2233.28 199.691 2233.28 204.39 Z" fill="#000000" fill-rule="nonzero" fill-opacity="1" /></svg>
