<?xml version="1.0" encoding="utf-8"?>
<svg xmlns="http://www.w3.org/2000/svg" xmlns:xlink="http://www.w3.org/1999/xlink" width="600" height="400" viewBox="0 0 2400 1600">
<defs>
  <clipPath id="clip590">
    <rect x="0" y="0" width="2400" height="1600"/>
  </clipPath>
</defs>
<path clip-path="url(#clip590)" d="M0 1600 L2400 1600 L2400 0 L0 0  Z" fill="#ffffff" fill-rule="evenodd" fill-opacity="1"/>
<defs>
  <clipPath id="clip591">
    <rect x="480" y="0" width="1681" height="1600"/>
  </clipPath>
</defs>
<path clip-path="url(#clip590)" d="M86.9921 1521.01 L2352.76 1521.01 L2352.76 47.2441 L86.9921 47.2441  Z" fill="#ffffff" fill-rule="evenodd" fill-opacity="1"/>
<defs>
  <clipPath id="clip592">
    <rect x="86" y="47" width="2267" height="1475"/>
  </clipPath>
</defs>
<polyline clip-path="url(#clip592)" style="stroke:#000000; stroke-linecap:round; stroke-linejoin:round; stroke-width:2; stroke-opacity:0.1; fill:none" points="151.118,1521.01 151.118,47.2441 "/>
<polyline clip-path="url(#clip592)" style="stroke:#000000; stroke-linecap:round; stroke-linejoin:round; stroke-width:2; stroke-opacity:0.1; fill:none" points="731.311,1521.01 731.311,47.2441 "/>
<polyline clip-path="url(#clip592)" style="stroke:#000000; stroke-linecap:round; stroke-linejoin:round; stroke-width:2; stroke-opacity:0.1; fill:none" points="1311.51,1521.01 1311.51,47.2441 "/>
<polyline clip-path="url(#clip592)" style="stroke:#000000; stroke-linecap:round; stroke-linejoin:round; stroke-width:2; stroke-opacity:0.1; fill:none" points="1891.7,1521.01 1891.7,47.2441 "/>
<polyline clip-path="url(#clip590)" style="stroke:#000000; stroke-linecap:round; stroke-linejoin:round; stroke-width:4; stroke-opacity:1; fill:none" points="86.9921,1521.01 2352.76,1521.01 "/>
<polyline clip-path="url(#clip590)" style="stroke:#000000; stroke-linecap:round; stroke-linejoin:round; stroke-width:4; stroke-opacity:1; fill:none" points="151.118,1521.01 151.118,1502.11 "/>
<polyline clip-path="url(#clip590)" style="stroke:#000000; stroke-linecap:round; stroke-linejoin:round; stroke-width:4; stroke-opacity:1; fill:none" points="731.311,1521.01 731.311,1502.11 "/>
<polyline clip-path="url(#clip590)" style="stroke:#000000; stroke-linecap:round; stroke-linejoin:round; stroke-width:4; stroke-opacity:1; fill:none" points="1311.51,1521.01 1311.51,1502.11 "/>
<polyline clip-path="url(#clip590)" style="stroke:#000000; stroke-linecap:round; stroke-linejoin:round; stroke-width:4; stroke-opacity:1; fill:none" points="1891.7,1521.01 1891.7,1502.11 "/>
<path clip-path="url(#clip590)" d="M151.118 1551.93 Q147.506 1551.93 145.678 1555.49 Q143.872 1559.03 143.872 1566.16 Q143.872 1573.27 145.678 1576.83 Q147.506 1580.38 151.118 1580.38 Q154.752 1580.38 156.557 1576.83 Q158.386 1573.27 158.386 1566.16 Q158.386 1559.03 156.557 1555.49 Q154.752 1551.93 151.118 1551.93 M151.118 1548.22 Q156.928 1548.22 159.983 1552.83 Q163.062 1557.41 163.062 1566.16 Q163.062 1574.89 159.983 1579.5 Q156.928 1584.08 151.118 1584.08 Q145.307 1584.08 142.229 1579.5 Q139.173 1574.89 139.173 1566.16 Q139.173 1557.41 142.229 1552.83 Q145.307 1548.22 151.118 1548.22 Z" fill="#000000" fill-rule="nonzero" fill-opacity="1" /><path clip-path="url(#clip590)" d="M721.589 1548.85 L739.946 1548.85 L739.946 1552.78 L725.872 1552.78 L725.872 1561.26 Q726.89 1560.91 727.909 1560.75 Q728.927 1560.56 729.946 1560.56 Q735.733 1560.56 739.112 1563.73 Q742.492 1566.9 742.492 1572.32 Q742.492 1577.9 739.02 1581 Q735.547 1584.08 729.228 1584.08 Q727.052 1584.08 724.784 1583.71 Q722.538 1583.34 720.131 1582.6 L720.131 1577.9 Q722.214 1579.03 724.436 1579.59 Q726.659 1580.14 729.135 1580.14 Q733.14 1580.14 735.478 1578.04 Q737.816 1575.93 737.816 1572.32 Q737.816 1568.71 735.478 1566.6 Q733.14 1564.5 729.135 1564.5 Q727.26 1564.5 725.385 1564.91 Q723.534 1565.33 721.589 1566.21 L721.589 1548.85 Z" fill="#000000" fill-rule="nonzero" fill-opacity="1" /><path clip-path="url(#clip590)" d="M1286.19 1579.47 L1293.83 1579.47 L1293.83 1553.11 L1285.52 1554.77 L1285.52 1550.51 L1293.79 1548.85 L1298.46 1548.85 L1298.46 1579.47 L1306.1 1579.47 L1306.1 1583.41 L1286.19 1583.41 L1286.19 1579.47 Z" fill="#000000" fill-rule="nonzero" fill-opacity="1" /><path clip-path="url(#clip590)" d="M1325.54 1551.93 Q1321.93 1551.93 1320.1 1555.49 Q1318.3 1559.03 1318.3 1566.16 Q1318.3 1573.27 1320.1 1576.83 Q1321.93 1580.38 1325.54 1580.38 Q1329.18 1580.38 1330.98 1576.83 Q1332.81 1573.27 1332.81 1566.16 Q1332.81 1559.03 1330.98 1555.49 Q1329.18 1551.93 1325.54 1551.93 M1325.54 1548.22 Q1331.35 1548.22 1334.41 1552.83 Q1337.49 1557.41 1337.49 1566.16 Q1337.49 1574.89 1334.41 1579.5 Q1331.35 1584.08 1325.54 1584.08 Q1319.73 1584.08 1316.66 1579.5 Q1313.6 1574.89 1313.6 1566.16 Q1313.6 1557.41 1316.66 1552.83 Q1319.73 1548.22 1325.54 1548.22 Z" fill="#000000" fill-rule="nonzero" fill-opacity="1" /><path clip-path="url(#clip590)" d="M1866.88 1579.47 L1874.52 1579.47 L1874.52 1553.11 L1866.21 1554.77 L1866.21 1550.51 L1874.48 1548.85 L1879.15 1548.85 L1879.15 1579.47 L1886.79 1579.47 L1886.79 1583.41 L1866.88 1583.41 L1866.88 1579.47 Z" fill="#000000" fill-rule="nonzero" fill-opacity="1" /><path clip-path="url(#clip590)" d="M1896.28 1548.85 L1914.64 1548.85 L1914.64 1552.78 L1900.56 1552.78 L1900.56 1561.26 Q1901.58 1560.91 1902.6 1560.75 Q1903.62 1560.56 1904.64 1560.56 Q1910.43 1560.56 1913.81 1563.73 Q1917.18 1566.9 1917.18 1572.32 Q1917.18 1577.9 1913.71 1581 Q1910.24 1584.08 1903.92 1584.08 Q1901.75 1584.08 1899.48 1583.71 Q1897.23 1583.34 1894.82 1582.6 L1894.82 1577.9 Q1896.91 1579.03 1899.13 1579.59 Q1901.35 1580.14 1903.83 1580.14 Q1907.83 1580.14 1910.17 1578.04 Q1912.51 1575.93 1912.51 1572.32 Q1912.51 1568.71 1910.17 1566.6 Q1907.83 1564.5 1903.83 1564.5 Q1901.95 1564.5 1900.08 1564.91 Q1898.23 1565.33 1896.28 1566.21 L1896.28 1548.85 Z" fill="#000000" fill-rule="nonzero" fill-opacity="1" /><polyline clip-path="url(#clip592)" style="stroke:#000000; stroke-linecap:round; stroke-linejoin:round; stroke-width:2; stroke-opacity:0.1; fill:none" points="86.9921,1479.44 2352.76,1479.44 "/>
<polyline clip-path="url(#clip592)" style="stroke:#000000; stroke-linecap:round; stroke-linejoin:round; stroke-width:2; stroke-opacity:0.1; fill:none" points="86.9921,1201.34 2352.76,1201.34 "/>
<polyline clip-path="url(#clip592)" style="stroke:#000000; stroke-linecap:round; stroke-linejoin:round; stroke-width:2; stroke-opacity:0.1; fill:none" points="86.9921,923.244 2352.76,923.244 "/>
<polyline clip-path="url(#clip592)" style="stroke:#000000; stroke-linecap:round; stroke-linejoin:round; stroke-width:2; stroke-opacity:0.1; fill:none" points="86.9921,645.147 2352.76,645.147 "/>
<polyline clip-path="url(#clip592)" style="stroke:#000000; stroke-linecap:round; stroke-linejoin:round; stroke-width:2; stroke-opacity:0.1; fill:none" points="86.9921,367.051 2352.76,367.051 "/>
<polyline clip-path="url(#clip592)" style="stroke:#000000; stroke-linecap:round; stroke-linejoin:round; stroke-width:2; stroke-opacity:0.1; fill:none" points="86.9921,88.9544 2352.76,88.9544 "/>
<polyline clip-path="url(#clip590)" style="stroke:#000000; stroke-linecap:round; stroke-linejoin:round; stroke-width:4; stroke-opacity:1; fill:none" points="86.9921,1521.01 86.9921,47.2441 "/>
<polyline clip-path="url(#clip590)" style="stroke:#000000; stroke-linecap:round; stroke-linejoin:round; stroke-width:4; stroke-opacity:1; fill:none" points="86.9921,1479.44 105.89,1479.44 "/>
<polyline clip-path="url(#clip590)" style="stroke:#000000; stroke-linecap:round; stroke-linejoin:round; stroke-width:4; stroke-opacity:1; fill:none" points="86.9921,1201.34 105.89,1201.34 "/>
<polyline clip-path="url(#clip590)" style="stroke:#000000; stroke-linecap:round; stroke-linejoin:round; stroke-width:4; stroke-opacity:1; fill:none" points="86.9921,923.244 105.89,923.244 "/>
<polyline clip-path="url(#clip590)" style="stroke:#000000; stroke-linecap:round; stroke-linejoin:round; stroke-width:4; stroke-opacity:1; fill:none" points="86.9921,645.147 105.89,645.147 "/>
<polyline clip-path="url(#clip590)" style="stroke:#000000; stroke-linecap:round; stroke-linejoin:round; stroke-width:4; stroke-opacity:1; fill:none" points="86.9921,367.051 105.89,367.051 "/>
<polyline clip-path="url(#clip590)" style="stroke:#000000; stroke-linecap:round; stroke-linejoin:round; stroke-width:4; stroke-opacity:1; fill:none" points="86.9921,88.9544 105.89,88.9544 "/>
<path clip-path="url(#clip590)" d="M-6.18349 1465.24 Q-9.79459 1465.24 -11.6233 1468.8 Q-13.4288 1472.34 -13.4288 1479.47 Q-13.4288 1486.58 -11.6233 1490.14 Q-9.79459 1493.68 -6.18349 1493.68 Q-2.54925 1493.68 -0.743708 1490.14 Q1.08499 1486.58 1.08499 1479.47 Q1.08499 1472.34 -0.743708 1468.8 Q-2.54925 1465.24 -6.18349 1465.24 M-6.18349 1461.53 Q-0.37334 1461.53 2.6822 1466.14 Q5.76089 1470.72 5.76089 1479.47 Q5.76089 1488.2 2.6822 1492.8 Q-0.37334 1497.39 -6.18349 1497.39 Q-11.9936 1497.39 -15.0723 1492.8 Q-18.1279 1488.2 -18.1279 1479.47 Q-18.1279 1470.72 -15.0723 1466.14 Q-11.9936 1461.53 -6.18349 1461.53 Z" fill="#000000" fill-rule="nonzero" fill-opacity="1" /><path clip-path="url(#clip590)" d="M13.9784 1490.84 L18.8627 1490.84 L18.8627 1496.72 L13.9784 1496.72 L13.9784 1490.84 Z" fill="#000000" fill-rule="nonzero" fill-opacity="1" /><path clip-path="url(#clip590)" d="M39.0477 1465.24 Q35.4367 1465.24 33.608 1468.8 Q31.8024 1472.34 31.8024 1479.47 Q31.8024 1486.58 33.608 1490.14 Q35.4367 1493.68 39.0477 1493.68 Q42.682 1493.68 44.4875 1490.14 Q46.3162 1486.58 46.3162 1479.47 Q46.3162 1472.34 44.4875 1468.8 Q42.682 1465.24 39.0477 1465.24 M39.0477 1461.53 Q44.8579 1461.53 47.9134 1466.14 Q50.9921 1470.72 50.9921 1479.47 Q50.9921 1488.2 47.9134 1492.8 Q44.8579 1497.39 39.0477 1497.39 Q33.2376 1497.39 30.1589 1492.8 Q27.1034 1488.2 27.1034 1479.47 Q27.1034 1470.72 30.1589 1466.14 Q33.2376 1461.53 39.0477 1461.53 Z" fill="#000000" fill-rule="nonzero" fill-opacity="1" /><path clip-path="url(#clip590)" d="M-4.95665 1187.14 Q-8.56774 1187.14 -10.3964 1190.7 Q-12.202 1194.25 -12.202 1201.37 Q-12.202 1208.48 -10.3964 1212.05 Q-8.56774 1215.59 -4.95665 1215.59 Q-1.32241 1215.59 0.483137 1212.05 Q2.31183 1208.48 2.31183 1201.37 Q2.31183 1194.25 0.483137 1190.7 Q-1.32241 1187.14 -4.95665 1187.14 M-4.95665 1183.44 Q0.853506 1183.44 3.90904 1188.04 Q6.98773 1192.62 6.98773 1201.37 Q6.98773 1210.1 3.90904 1214.71 Q0.853506 1219.29 -4.95665 1219.29 Q-10.7668 1219.29 -13.8455 1214.71 Q-16.901 1210.1 -16.901 1201.37 Q-16.901 1192.62 -13.8455 1188.04 Q-10.7668 1183.44 -4.95665 1183.44 Z" fill="#000000" fill-rule="nonzero" fill-opacity="1" /><path clip-path="url(#clip590)" d="M15.2053 1212.74 L20.0895 1212.74 L20.0895 1218.62 L15.2053 1218.62 L15.2053 1212.74 Z" fill="#000000" fill-rule="nonzero" fill-opacity="1" /><path clip-path="url(#clip590)" d="M31.0848 1214.69 L38.7237 1214.69 L38.7237 1188.32 L30.4135 1189.99 L30.4135 1185.73 L38.6774 1184.06 L43.3533 1184.06 L43.3533 1214.69 L50.9921 1214.69 L50.9921 1218.62 L31.0848 1218.62 L31.0848 1214.69 Z" fill="#000000" fill-rule="nonzero" fill-opacity="1" /><path clip-path="url(#clip590)" d="M-4.58628 909.042 Q-8.19737 909.042 -10.0261 912.607 Q-11.8316 916.149 -11.8316 923.278 Q-11.8316 930.385 -10.0261 933.95 Q-8.19737 937.491 -4.58628 937.491 Q-0.95204 937.491 0.853506 933.95 Q2.6822 930.385 2.6822 923.278 Q2.6822 916.149 0.853506 912.607 Q-0.95204 909.042 -4.58628 909.042 M-4.58628 905.339 Q1.22387 905.339 4.27941 909.945 Q7.3581 914.529 7.3581 923.278 Q7.3581 932.005 4.27941 936.612 Q1.22387 941.195 -4.58628 941.195 Q-10.3964 941.195 -13.4751 936.612 Q-16.5307 932.005 -16.5307 923.278 Q-16.5307 914.529 -13.4751 909.945 Q-10.3964 905.339 -4.58628 905.339 Z" fill="#000000" fill-rule="nonzero" fill-opacity="1" /><path clip-path="url(#clip590)" d="M15.5756 934.644 L20.4599 934.644 L20.4599 940.524 L15.5756 940.524 L15.5756 934.644 Z" fill="#000000" fill-rule="nonzero" fill-opacity="1" /><path clip-path="url(#clip590)" d="M34.6728 936.589 L50.9921 936.589 L50.9921 940.524 L29.0478 940.524 L29.0478 936.589 Q31.7098 933.834 36.2931 929.204 Q40.8996 924.552 42.0801 923.209 Q44.3255 920.686 45.2051 918.95 Q46.1079 917.191 46.1079 915.501 Q46.1079 912.746 44.1635 911.01 Q42.2422 909.274 39.1403 909.274 Q36.9413 909.274 34.4876 910.038 Q32.057 910.802 29.2793 912.353 L29.2793 907.63 Q32.1033 906.496 34.557 905.917 Q37.0107 905.339 39.0477 905.339 Q44.4181 905.339 47.6125 908.024 Q50.8069 910.709 50.8069 915.2 Q50.8069 917.329 49.9968 919.251 Q49.2097 921.149 47.1033 923.741 Q46.5246 924.413 43.4227 927.63 Q40.3209 930.825 34.6728 936.589 Z" fill="#000000" fill-rule="nonzero" fill-opacity="1" /><path clip-path="url(#clip590)" d="M-5.53535 630.946 Q-9.14644 630.946 -10.9751 634.511 Q-12.7807 638.052 -12.7807 645.182 Q-12.7807 652.288 -10.9751 655.853 Q-9.14644 659.395 -5.53535 659.395 Q-1.90111 659.395 -0.0955632 655.853 Q1.73313 652.288 1.73313 645.182 Q1.73313 638.052 -0.0955632 634.511 Q-1.90111 630.946 -5.53535 630.946 M-5.53535 627.242 Q0.274805 627.242 3.33034 631.849 Q6.40903 636.432 6.40903 645.182 Q6.40903 653.909 3.33034 658.515 Q0.274805 663.099 -5.53535 663.099 Q-11.3455 663.099 -14.4242 658.515 Q-17.4797 653.909 -17.4797 645.182 Q-17.4797 636.432 -14.4242 631.849 Q-11.3455 627.242 -5.53535 627.242 Z" fill="#000000" fill-rule="nonzero" fill-opacity="1" /><path clip-path="url(#clip590)" d="M14.6266 656.548 L19.5108 656.548 L19.5108 662.427 L14.6266 662.427 L14.6266 656.548 Z" fill="#000000" fill-rule="nonzero" fill-opacity="1" /><path clip-path="url(#clip590)" d="M43.8625 643.793 Q47.219 644.511 49.094 646.779 Q50.9921 649.048 50.9921 652.381 Q50.9921 657.497 47.4736 660.298 Q43.9551 663.099 37.4737 663.099 Q35.2978 663.099 32.983 662.659 Q30.6913 662.242 28.2376 661.386 L28.2376 656.872 Q30.1821 658.006 32.4969 658.585 Q34.8117 659.163 37.3348 659.163 Q41.7329 659.163 44.0246 657.427 Q46.3394 655.691 46.3394 652.381 Q46.3394 649.326 44.1866 647.613 Q42.057 645.876 38.2376 645.876 L34.2098 645.876 L34.2098 642.034 L38.4227 642.034 Q41.8718 642.034 43.7005 640.668 Q45.5292 639.279 45.5292 636.687 Q45.5292 634.025 43.6311 632.613 Q41.7561 631.177 38.2376 631.177 Q36.3163 631.177 34.1172 631.594 Q31.9182 632.011 29.2793 632.89 L29.2793 628.724 Q31.9413 627.983 34.2561 627.613 Q36.5941 627.242 38.6542 627.242 Q43.9783 627.242 47.0801 629.673 Q50.1819 632.08 50.1819 636.201 Q50.1819 639.071 48.5384 641.062 Q46.8949 643.029 43.8625 643.793 Z" fill="#000000" fill-rule="nonzero" fill-opacity="1" /><path clip-path="url(#clip590)" d="M-6.6696 352.85 Q-10.2807 352.85 -12.1094 356.414 Q-13.9149 359.956 -13.9149 367.086 Q-13.9149 374.192 -12.1094 377.757 Q-10.2807 381.298 -6.6696 381.298 Q-3.03536 381.298 -1.22982 377.757 Q0.598877 374.192 0.598877 367.086 Q0.598877 359.956 -1.22982 356.414 Q-3.03536 352.85 -6.6696 352.85 M-6.6696 349.146 Q-0.859448 349.146 2.19609 353.752 Q5.27478 358.336 5.27478 367.086 Q5.27478 375.812 2.19609 380.419 Q-0.859448 385.002 -6.6696 385.002 Q-12.4798 385.002 -15.5584 380.419 Q-18.614 375.812 -18.614 367.086 Q-18.614 358.336 -15.5584 353.752 Q-12.4798 349.146 -6.6696 349.146 Z" fill="#000000" fill-rule="nonzero" fill-opacity="1" /><path clip-path="url(#clip590)" d="M13.4923 378.451 L18.3766 378.451 L18.3766 384.331 L13.4923 384.331 L13.4923 378.451 Z" fill="#000000" fill-rule="nonzero" fill-opacity="1" /><path clip-path="url(#clip590)" d="M41.4088 353.845 L29.6034 372.294 L41.4088 372.294 L41.4088 353.845 M40.182 349.771 L46.0616 349.771 L46.0616 372.294 L50.9921 372.294 L50.9921 376.183 L46.0616 376.183 L46.0616 384.331 L41.4088 384.331 L41.4088 376.183 L25.8071 376.183 L25.8071 371.669 L40.182 349.771 Z" fill="#000000" fill-rule="nonzero" fill-opacity="1" /><path clip-path="url(#clip590)" d="M-5.18813 74.7531 Q-8.79922 74.7531 -10.6279 78.3179 Q-12.4335 81.8595 -12.4335 88.9891 Q-12.4335 96.0956 -10.6279 99.6604 Q-8.79922 103.202 -5.18813 103.202 Q-1.55389 103.202 0.251657 99.6604 Q2.08035 96.0956 2.08035 88.9891 Q2.08035 81.8595 0.251657 78.3179 Q-1.55389 74.7531 -5.18813 74.7531 M-5.18813 71.0494 Q0.622026 71.0494 3.67756 75.6559 Q6.75625 80.2392 6.75625 88.9891 Q6.75625 97.7159 3.67756 102.322 Q0.622026 106.906 -5.18813 106.906 Q-10.9983 106.906 -14.077 102.322 Q-17.1325 97.7159 -17.1325 88.9891 Q-17.1325 80.2392 -14.077 75.6559 Q-10.9983 71.0494 -5.18813 71.0494 Z" fill="#000000" fill-rule="nonzero" fill-opacity="1" /><path clip-path="url(#clip590)" d="M14.9738 100.355 L19.858 100.355 L19.858 106.234 L14.9738 106.234 L14.9738 100.355 Z" fill="#000000" fill-rule="nonzero" fill-opacity="1" /><path clip-path="url(#clip590)" d="M30.0895 71.6744 L48.4458 71.6744 L48.4458 75.6096 L34.3718 75.6096 L34.3718 84.0817 Q35.3904 83.7345 36.4089 83.5725 Q37.4274 83.3873 38.4459 83.3873 Q44.2329 83.3873 47.6125 86.5586 Q50.9921 89.7298 50.9921 95.1465 Q50.9921 100.725 47.5199 103.827 Q44.0477 106.906 37.7283 106.906 Q35.5524 106.906 33.2839 106.535 Q31.0385 106.165 28.6311 105.424 L28.6311 100.725 Q30.7145 101.859 32.9367 102.415 Q35.1589 102.971 37.6357 102.971 Q41.6403 102.971 43.9783 100.864 Q46.3162 98.7576 46.3162 95.1465 Q46.3162 91.5354 43.9783 89.4289 Q41.6403 87.3225 37.6357 87.3225 Q35.7607 87.3225 33.8857 87.7391 Q32.0339 88.1558 30.0895 89.0354 L30.0895 71.6744 Z" fill="#000000" fill-rule="nonzero" fill-opacity="1" /><polyline clip-path="url(#clip592)" style="stroke:#009af9; stroke-linecap:round; stroke-linejoin:round; stroke-width:4; stroke-opacity:1; fill:none" points="151.118,88.9544 154.597,109.644 158.076,130.025 161.555,150.104 165.034,169.883 173.076,214.486 181.119,257.571 189.161,299.187 197.203,339.387 205.245,378.217 213.288,415.724 221.33,451.954 229.372,486.95 237.415,520.755 245.457,553.407 253.499,584.948 261.542,615.414 269.584,644.843 277.626,673.269 285.669,700.727 293.711,727.25 303.377,757.936 313.043,787.369 322.709,815.602 332.376,842.684 342.042,868.66 351.708,893.577 361.374,917.477 371.04,940.402 387.386,977.061 403.731,1011.23 420.076,1043.07 436.422,1072.74 454.177,1102.7 471.933,1130.45 489.688,1156.15 507.444,1179.96 523.813,1200.36 540.182,1219.36 556.551,1237.07 572.92,1253.58 590.469,1270.03 608.019,1285.28 625.568,1299.42 643.117,1312.53 663.45,1326.53 683.783,1339.36 704.115,1351.11 724.448,1361.87 760.586,1378.83 796.725,1393.33 828.415,1404.32 860.105,1413.91 894.656,1422.97 929.207,1430.78 963.963,1437.55 998.719,1443.38 1075.57,1453.54 1148.7,1460.54 1224.73,1465.82 1288.74,1469.1 1366.88,1472.06 1438.46,1474.02 1504.57,1475.36 1571.54,1476.38 1646.6,1477.23 1714.61,1477.79 1792.48,1478.26 1864.58,1478.57 1935.66,1478.8 2004.67,1478.96 2075.42,1479.09 2152.93,1479.19 2265.53,1479.28 2288.63,1479.3 "/>
<path clip-path="url(#clip590)" d="M1965.7 200.05 L2277.23 200.05 L2277.23 96.3696 L1965.7 96.3696  Z" fill="#ffffff" fill-rule="evenodd" fill-opacity="1"/>
<polyline clip-path="url(#clip590)" style="stroke:#000000; stroke-linecap:round; stroke-linejoin:round; stroke-width:4; stroke-opacity:1; fill:none" points="1965.7,200.05 2277.23,200.05 2277.23,96.3696 1965.7,96.3696 1965.7,200.05 "/>
<polyline clip-path="url(#clip590)" style="stroke:#009af9; stroke-linecap:round; stroke-linejoin:round; stroke-width:4; stroke-opacity:1; fill:none" points="1990.88,148.21 2141.93,148.21 "/>
<path clip-path="url(#clip590)" d="M2171.78 134.772 L2171.78 147.758 L2177.66 147.758 Q2180.92 147.758 2182.7 146.068 Q2184.49 144.379 2184.49 141.254 Q2184.49 138.152 2182.7 136.462 Q2180.92 134.772 2177.66 134.772 L2171.78 134.772 M2167.1 130.93 L2177.66 130.93 Q2183.47 130.93 2186.43 133.568 Q2189.42 136.184 2189.42 141.254 Q2189.42 146.369 2186.43 148.985 Q2183.47 151.601 2177.66 151.601 L2171.78 151.601 L2171.78 165.49 L2167.1 165.49 L2167.1 130.93 Z" fill="#000000" fill-rule="nonzero" fill-opacity="1" /><path clip-path="url(#clip590)" d="M2200.37 134.772 L2200.37 161.647 L2206.01 161.647 Q2213.17 161.647 2216.48 158.406 Q2219.81 155.166 2219.81 148.175 Q2219.81 141.23 2216.48 138.013 Q2213.17 134.772 2206.01 134.772 L2200.37 134.772 M2195.69 130.93 L2205.3 130.93 Q2215.34 130.93 2220.04 135.119 Q2224.74 139.286 2224.74 148.175 Q2224.74 157.11 2220.02 161.3 Q2215.3 165.49 2205.3 165.49 L2195.69 165.49 L2195.69 130.93 Z" fill="#000000" fill-rule="nonzero" fill-opacity="1" /><path clip-path="url(#clip590)" d="M2232.19 130.93 L2252.06 130.93 L2252.06 134.865 L2236.87 134.865 L2236.87 145.05 L2250.57 145.05 L2250.57 148.985 L2236.87 148.985 L2236.87 165.49 L2232.19 165.49 L2232.19 130.93 Z" fill="#000000" fill-rule="nonzero" fill-opacity="1" /></svg>
