<?xml version="1.0" encoding="utf-8"?>
<svg xmlns="http://www.w3.org/2000/svg" xmlns:xlink="http://www.w3.org/1999/xlink" width="600" height="400" viewBox="0 0 2400 1600">
<defs>
  <clipPath id="clip170">
    <rect x="0" y="0" width="2400" height="1600"/>
  </clipPath>
</defs>
<path clip-path="url(#clip170)" d="M0 1600 L2400 1600 L2400 0 L0 0  Z" fill="#ffffff" fill-rule="evenodd" fill-opacity="1"/>
<defs>
  <clipPath id="clip171">
    <rect x="480" y="0" width="1681" height="1600"/>
  </clipPath>
</defs>
<path clip-path="url(#clip170)" d="M102.74 1505.26 L2352.76 1505.26 L2352.76 47.2441 L102.74 47.2441  Z" fill="#ffffff" fill-rule="evenodd" fill-opacity="1"/>
<defs>
  <clipPath id="clip172">
    <rect x="102" y="47" width="2251" height="1459"/>
  </clipPath>
</defs>
<polyline clip-path="url(#clip172)" style="stroke:#000000; stroke-linecap:round; stroke-linejoin:round; stroke-width:2; stroke-opacity:0.1; fill:none" points="166.42,1505.26 166.42,47.2441 "/>
<polyline clip-path="url(#clip172)" style="stroke:#000000; stroke-linecap:round; stroke-linejoin:round; stroke-width:2; stroke-opacity:0.1; fill:none" points="378.685,1505.26 378.685,47.2441 "/>
<polyline clip-path="url(#clip172)" style="stroke:#000000; stroke-linecap:round; stroke-linejoin:round; stroke-width:2; stroke-opacity:0.1; fill:none" points="590.951,1505.26 590.951,47.2441 "/>
<polyline clip-path="url(#clip172)" style="stroke:#000000; stroke-linecap:round; stroke-linejoin:round; stroke-width:2; stroke-opacity:0.1; fill:none" points="803.217,1505.26 803.217,47.2441 "/>
<polyline clip-path="url(#clip172)" style="stroke:#000000; stroke-linecap:round; stroke-linejoin:round; stroke-width:2; stroke-opacity:0.1; fill:none" points="1015.48,1505.26 1015.48,47.2441 "/>
<polyline clip-path="url(#clip172)" style="stroke:#000000; stroke-linecap:round; stroke-linejoin:round; stroke-width:2; stroke-opacity:0.1; fill:none" points="1227.75,1505.26 1227.75,47.2441 "/>
<polyline clip-path="url(#clip172)" style="stroke:#000000; stroke-linecap:round; stroke-linejoin:round; stroke-width:2; stroke-opacity:0.1; fill:none" points="1440.01,1505.26 1440.01,47.2441 "/>
<polyline clip-path="url(#clip172)" style="stroke:#000000; stroke-linecap:round; stroke-linejoin:round; stroke-width:2; stroke-opacity:0.1; fill:none" points="1652.28,1505.26 1652.28,47.2441 "/>
<polyline clip-path="url(#clip172)" style="stroke:#000000; stroke-linecap:round; stroke-linejoin:round; stroke-width:2; stroke-opacity:0.1; fill:none" points="1864.54,1505.26 1864.54,47.2441 "/>
<polyline clip-path="url(#clip172)" style="stroke:#000000; stroke-linecap:round; stroke-linejoin:round; stroke-width:2; stroke-opacity:0.1; fill:none" points="2076.81,1505.26 2076.81,47.2441 "/>
<polyline clip-path="url(#clip172)" style="stroke:#000000; stroke-linecap:round; stroke-linejoin:round; stroke-width:2; stroke-opacity:0.1; fill:none" points="2289.08,1505.26 2289.08,47.2441 "/>
<polyline clip-path="url(#clip170)" style="stroke:#000000; stroke-linecap:round; stroke-linejoin:round; stroke-width:4; stroke-opacity:1; fill:none" points="102.74,1505.26 2352.76,1505.26 "/>
<polyline clip-path="url(#clip170)" style="stroke:#000000; stroke-linecap:round; stroke-linejoin:round; stroke-width:4; stroke-opacity:1; fill:none" points="166.42,1505.26 166.42,1486.36 "/>
<polyline clip-path="url(#clip170)" style="stroke:#000000; stroke-linecap:round; stroke-linejoin:round; stroke-width:4; stroke-opacity:1; fill:none" points="378.685,1505.26 378.685,1486.36 "/>
<polyline clip-path="url(#clip170)" style="stroke:#000000; stroke-linecap:round; stroke-linejoin:round; stroke-width:4; stroke-opacity:1; fill:none" points="590.951,1505.26 590.951,1486.36 "/>
<polyline clip-path="url(#clip170)" style="stroke:#000000; stroke-linecap:round; stroke-linejoin:round; stroke-width:4; stroke-opacity:1; fill:none" points="803.217,1505.26 803.217,1486.36 "/>
<polyline clip-path="url(#clip170)" style="stroke:#000000; stroke-linecap:round; stroke-linejoin:round; stroke-width:4; stroke-opacity:1; fill:none" points="1015.48,1505.26 1015.48,1486.36 "/>
<polyline clip-path="url(#clip170)" style="stroke:#000000; stroke-linecap:round; stroke-linejoin:round; stroke-width:4; stroke-opacity:1; fill:none" points="1227.75,1505.26 1227.75,1486.36 "/>
<polyline clip-path="url(#clip170)" style="stroke:#000000; stroke-linecap:round; stroke-linejoin:round; stroke-width:4; stroke-opacity:1; fill:none" points="1440.01,1505.26 1440.01,1486.36 "/>
<polyline clip-path="url(#clip170)" style="stroke:#000000; stroke-linecap:round; stroke-linejoin:round; stroke-width:4; stroke-opacity:1; fill:none" points="1652.28,1505.26 1652.28,1486.36 "/>
<polyline clip-path="url(#clip170)" style="stroke:#000000; stroke-linecap:round; stroke-linejoin:round; stroke-width:4; stroke-opacity:1; fill:none" points="1864.54,1505.26 1864.54,1486.36 "/>
<polyline clip-path="url(#clip170)" style="stroke:#000000; stroke-linecap:round; stroke-linejoin:round; stroke-width:4; stroke-opacity:1; fill:none" points="2076.81,1505.26 2076.81,1486.36 "/>
<polyline clip-path="url(#clip170)" style="stroke:#000000; stroke-linecap:round; stroke-linejoin:round; stroke-width:4; stroke-opacity:1; fill:none" points="2289.08,1505.26 2289.08,1486.36 "/>
<path clip-path="url(#clip170)" d="M166.42 1536.18 Q162.809 1536.18 160.98 1539.74 Q159.175 1543.28 159.175 1550.41 Q159.175 1557.52 160.98 1561.09 Q162.809 1564.63 166.42 1564.63 Q170.054 1564.63 171.86 1561.09 Q173.688 1557.52 173.688 1550.41 Q173.688 1543.28 171.86 1539.74 Q170.054 1536.18 166.42 1536.18 M166.42 1532.47 Q172.23 1532.47 175.286 1537.08 Q178.364 1541.66 178.364 1550.41 Q178.364 1559.14 175.286 1563.75 Q172.23 1568.33 166.42 1568.33 Q160.61 1568.33 157.531 1563.75 Q154.475 1559.14 154.475 1550.41 Q154.475 1541.66 157.531 1537.08 Q160.61 1532.47 166.42 1532.47 Z" fill="#000000" fill-rule="nonzero" fill-opacity="1" /><path clip-path="url(#clip170)" d="M369.067 1563.72 L376.706 1563.72 L376.706 1537.36 L368.396 1539.03 L368.396 1534.77 L376.66 1533.1 L381.336 1533.1 L381.336 1563.72 L388.975 1563.72 L388.975 1567.66 L369.067 1567.66 L369.067 1563.72 Z" fill="#000000" fill-rule="nonzero" fill-opacity="1" /><path clip-path="url(#clip170)" d="M585.604 1563.72 L601.923 1563.72 L601.923 1567.66 L579.979 1567.66 L579.979 1563.72 Q582.641 1560.97 587.224 1556.34 Q591.831 1551.69 593.011 1550.35 Q595.257 1547.82 596.136 1546.09 Q597.039 1544.33 597.039 1542.64 Q597.039 1539.88 595.095 1538.15 Q593.173 1536.41 590.071 1536.41 Q587.872 1536.41 585.419 1537.17 Q582.988 1537.94 580.21 1539.49 L580.21 1534.77 Q583.034 1533.63 585.488 1533.05 Q587.942 1532.47 589.979 1532.47 Q595.349 1532.47 598.544 1535.16 Q601.738 1537.85 601.738 1542.34 Q601.738 1544.47 600.928 1546.39 Q600.141 1548.28 598.034 1550.88 Q597.456 1551.55 594.354 1554.77 Q591.252 1557.96 585.604 1563.72 Z" fill="#000000" fill-rule="nonzero" fill-opacity="1" /><path clip-path="url(#clip170)" d="M807.464 1549.03 Q810.821 1549.74 812.696 1552.01 Q814.594 1554.28 814.594 1557.61 Q814.594 1562.73 811.076 1565.53 Q807.557 1568.33 801.076 1568.33 Q798.9 1568.33 796.585 1567.89 Q794.293 1567.47 791.84 1566.62 L791.84 1562.1 Q793.784 1563.24 796.099 1563.82 Q798.414 1564.4 800.937 1564.4 Q805.335 1564.4 807.626 1562.66 Q809.941 1560.92 809.941 1557.61 Q809.941 1554.56 807.788 1552.85 Q805.659 1551.11 801.839 1551.11 L797.812 1551.11 L797.812 1547.27 L802.025 1547.27 Q805.474 1547.27 807.302 1545.9 Q809.131 1544.51 809.131 1541.92 Q809.131 1539.26 807.233 1537.85 Q805.358 1536.41 801.839 1536.41 Q799.918 1536.41 797.719 1536.83 Q795.52 1537.24 792.881 1538.12 L792.881 1533.96 Q795.543 1533.22 797.858 1532.85 Q800.196 1532.47 802.256 1532.47 Q807.58 1532.47 810.682 1534.91 Q813.784 1537.31 813.784 1541.43 Q813.784 1544.3 812.14 1546.29 Q810.497 1548.26 807.464 1549.03 Z" fill="#000000" fill-rule="nonzero" fill-opacity="1" /><path clip-path="url(#clip170)" d="M1018.49 1537.17 L1006.69 1555.62 L1018.49 1555.62 L1018.49 1537.17 M1017.26 1533.1 L1023.14 1533.1 L1023.14 1555.62 L1028.07 1555.62 L1028.07 1559.51 L1023.14 1559.51 L1023.14 1567.66 L1018.49 1567.66 L1018.49 1559.51 L1002.89 1559.51 L1002.89 1555 L1017.26 1533.1 Z" fill="#000000" fill-rule="nonzero" fill-opacity="1" /><path clip-path="url(#clip170)" d="M1218.03 1533.1 L1236.38 1533.1 L1236.38 1537.04 L1222.31 1537.04 L1222.31 1545.51 Q1223.33 1545.16 1224.35 1545 Q1225.36 1544.81 1226.38 1544.81 Q1232.17 1544.81 1235.55 1547.98 Q1238.93 1551.16 1238.93 1556.57 Q1238.93 1562.15 1235.46 1565.25 Q1231.98 1568.33 1225.66 1568.33 Q1223.49 1568.33 1221.22 1567.96 Q1218.97 1567.59 1216.57 1566.85 L1216.57 1562.15 Q1218.65 1563.28 1220.87 1563.84 Q1223.1 1564.4 1225.57 1564.4 Q1229.58 1564.4 1231.91 1562.29 Q1234.25 1560.18 1234.25 1556.57 Q1234.25 1552.96 1231.91 1550.85 Q1229.58 1548.75 1225.57 1548.75 Q1223.7 1548.75 1221.82 1549.16 Q1219.97 1549.58 1218.03 1550.46 L1218.03 1533.1 Z" fill="#000000" fill-rule="nonzero" fill-opacity="1" /><path clip-path="url(#clip170)" d="M1440.42 1548.52 Q1437.27 1548.52 1435.42 1550.67 Q1433.59 1552.82 1433.59 1556.57 Q1433.59 1560.3 1435.42 1562.47 Q1437.27 1564.63 1440.42 1564.63 Q1443.57 1564.63 1445.4 1562.47 Q1447.25 1560.3 1447.25 1556.57 Q1447.25 1552.82 1445.4 1550.67 Q1443.57 1548.52 1440.42 1548.52 M1449.7 1533.86 L1449.7 1538.12 Q1447.94 1537.29 1446.14 1536.85 Q1444.35 1536.41 1442.59 1536.41 Q1437.97 1536.41 1435.51 1539.53 Q1433.08 1542.66 1432.73 1548.98 Q1434.1 1546.97 1436.16 1545.9 Q1438.22 1544.81 1440.7 1544.81 Q1445.9 1544.81 1448.91 1547.98 Q1451.95 1551.13 1451.95 1556.57 Q1451.95 1561.9 1448.8 1565.11 Q1445.65 1568.33 1440.42 1568.33 Q1434.42 1568.33 1431.25 1563.75 Q1428.08 1559.14 1428.08 1550.41 Q1428.08 1542.22 1431.97 1537.36 Q1435.86 1532.47 1442.41 1532.47 Q1444.17 1532.47 1445.95 1532.82 Q1447.76 1533.17 1449.7 1533.86 Z" fill="#000000" fill-rule="nonzero" fill-opacity="1" /><path clip-path="url(#clip170)" d="M1641.17 1533.1 L1663.39 1533.1 L1663.39 1535.09 L1650.84 1567.66 L1645.96 1567.66 L1657.77 1537.04 L1641.17 1537.04 L1641.17 1533.1 Z" fill="#000000" fill-rule="nonzero" fill-opacity="1" /><path clip-path="url(#clip170)" d="M1864.54 1551.25 Q1861.21 1551.25 1859.29 1553.03 Q1857.39 1554.81 1857.39 1557.94 Q1857.39 1561.06 1859.29 1562.85 Q1861.21 1564.63 1864.54 1564.63 Q1867.88 1564.63 1869.8 1562.85 Q1871.72 1561.04 1871.72 1557.94 Q1871.72 1554.81 1869.8 1553.03 Q1867.9 1551.25 1864.54 1551.25 M1859.87 1549.26 Q1856.86 1548.52 1855.17 1546.46 Q1853.5 1544.4 1853.5 1541.43 Q1853.5 1537.29 1856.44 1534.88 Q1859.41 1532.47 1864.54 1532.47 Q1869.71 1532.47 1872.65 1534.88 Q1875.59 1537.29 1875.59 1541.43 Q1875.59 1544.4 1873.9 1546.46 Q1872.23 1548.52 1869.24 1549.26 Q1872.62 1550.04 1874.5 1552.34 Q1876.4 1554.63 1876.4 1557.94 Q1876.4 1562.96 1873.32 1565.65 Q1870.26 1568.33 1864.54 1568.33 Q1858.83 1568.33 1855.75 1565.65 Q1852.69 1562.96 1852.69 1557.94 Q1852.69 1554.63 1854.59 1552.34 Q1856.49 1550.04 1859.87 1549.26 M1858.16 1541.87 Q1858.16 1544.56 1859.82 1546.06 Q1861.51 1547.57 1864.54 1547.57 Q1867.55 1547.57 1869.24 1546.06 Q1870.96 1544.56 1870.96 1541.87 Q1870.96 1539.19 1869.24 1537.68 Q1867.55 1536.18 1864.54 1536.18 Q1861.51 1536.18 1859.82 1537.68 Q1858.16 1539.19 1858.16 1541.87 Z" fill="#000000" fill-rule="nonzero" fill-opacity="1" /><path clip-path="url(#clip170)" d="M2067.11 1566.94 L2067.11 1562.68 Q2068.87 1563.52 2070.68 1563.96 Q2072.48 1564.4 2074.22 1564.4 Q2078.85 1564.4 2081.28 1561.29 Q2083.73 1558.17 2084.08 1551.83 Q2082.74 1553.82 2080.68 1554.88 Q2078.62 1555.95 2076.12 1555.95 Q2070.93 1555.95 2067.9 1552.82 Q2064.89 1549.67 2064.89 1544.23 Q2064.89 1538.91 2068.04 1535.69 Q2071.19 1532.47 2076.42 1532.47 Q2082.41 1532.47 2085.56 1537.08 Q2088.73 1541.66 2088.73 1550.41 Q2088.73 1558.59 2084.84 1563.47 Q2080.98 1568.33 2074.43 1568.33 Q2072.67 1568.33 2070.86 1567.98 Q2069.06 1567.64 2067.11 1566.94 M2076.42 1552.29 Q2079.57 1552.29 2081.39 1550.14 Q2083.25 1547.98 2083.25 1544.23 Q2083.25 1540.51 2081.39 1538.35 Q2079.57 1536.18 2076.42 1536.18 Q2073.27 1536.18 2071.42 1538.35 Q2069.59 1540.51 2069.59 1544.23 Q2069.59 1547.98 2071.42 1550.14 Q2073.27 1552.29 2076.42 1552.29 Z" fill="#000000" fill-rule="nonzero" fill-opacity="1" /><path clip-path="url(#clip170)" d="M2263.76 1563.72 L2271.4 1563.72 L2271.4 1537.36 L2263.09 1539.03 L2263.09 1534.77 L2271.36 1533.1 L2276.03 1533.1 L2276.03 1563.72 L2283.67 1563.72 L2283.67 1567.66 L2263.76 1567.66 L2263.76 1563.72 Z" fill="#000000" fill-rule="nonzero" fill-opacity="1" /><path clip-path="url(#clip170)" d="M2303.12 1536.18 Q2299.5 1536.18 2297.68 1539.74 Q2295.87 1543.28 2295.87 1550.41 Q2295.87 1557.52 2297.68 1561.09 Q2299.5 1564.63 2303.12 1564.63 Q2306.75 1564.63 2308.56 1561.09 Q2310.38 1557.52 2310.38 1550.41 Q2310.38 1543.28 2308.56 1539.74 Q2306.75 1536.18 2303.12 1536.18 M2303.12 1532.47 Q2308.93 1532.47 2311.98 1537.08 Q2315.06 1541.66 2315.06 1550.41 Q2315.06 1559.14 2311.98 1563.75 Q2308.93 1568.33 2303.12 1568.33 Q2297.31 1568.33 2294.23 1563.75 Q2291.17 1559.14 2291.17 1550.41 Q2291.17 1541.66 2294.23 1537.08 Q2297.31 1532.47 2303.12 1532.47 Z" fill="#000000" fill-rule="nonzero" fill-opacity="1" /><path clip-path="url(#clip170)" d="M1001.57 1628.61 L1001.57 1650.12 L995.718 1650.12 L995.718 1628.8 Q995.718 1623.74 993.745 1621.22 Q991.771 1618.71 987.825 1618.71 Q983.082 1618.71 980.345 1621.73 Q977.608 1624.76 977.608 1629.98 L977.608 1650.12 L971.719 1650.12 L971.719 1614.48 L977.608 1614.48 L977.608 1620.01 Q979.708 1616.8 982.541 1615.21 Q985.406 1613.62 989.13 1613.62 Q995.272 1613.62 998.423 1617.44 Q1001.57 1621.22 1001.57 1628.61 Z" fill="#000000" fill-rule="nonzero" fill-opacity="1" /><path clip-path="url(#clip170)" d="M1012.65 1636.06 L1012.65 1614.48 L1018.51 1614.48 L1018.51 1635.83 Q1018.51 1640.89 1020.48 1643.44 Q1022.45 1645.95 1026.4 1645.95 Q1031.14 1645.95 1033.88 1642.93 Q1036.65 1639.91 1036.65 1634.69 L1036.65 1614.48 L1042.51 1614.48 L1042.51 1650.12 L1036.65 1650.12 L1036.65 1644.65 Q1034.52 1647.9 1031.68 1649.49 Q1028.88 1651.05 1025.16 1651.05 Q1019.02 1651.05 1015.83 1647.23 Q1012.65 1643.41 1012.65 1636.06 M1027.39 1613.62 L1027.39 1613.62 Z" fill="#000000" fill-rule="nonzero" fill-opacity="1" /><path clip-path="url(#clip170)" d="M1082.32 1621.32 Q1084.52 1617.37 1087.58 1615.49 Q1090.63 1613.62 1094.77 1613.62 Q1100.34 1613.62 1103.36 1617.53 Q1106.39 1621.41 1106.39 1628.61 L1106.39 1650.12 L1100.5 1650.12 L1100.5 1628.8 Q1100.5 1623.67 1098.68 1621.19 Q1096.87 1618.71 1093.15 1618.71 Q1088.59 1618.71 1085.95 1621.73 Q1083.31 1624.76 1083.31 1629.98 L1083.31 1650.12 L1077.42 1650.12 L1077.42 1628.8 Q1077.42 1623.64 1075.61 1621.19 Q1073.79 1618.71 1070.01 1618.71 Q1065.52 1618.71 1062.88 1621.76 Q1060.23 1624.79 1060.23 1629.98 L1060.23 1650.12 L1054.35 1650.12 L1054.35 1614.48 L1060.23 1614.48 L1060.23 1620.01 Q1062.24 1616.74 1065.04 1615.18 Q1067.84 1613.62 1071.69 1613.62 Q1075.58 1613.62 1078.28 1615.59 Q1081.02 1617.56 1082.32 1621.32 Z" fill="#000000" fill-rule="nonzero" fill-opacity="1" /><path clip-path="url(#clip170)" d="M1143.66 1632.33 Q1143.66 1625.87 1140.98 1622.21 Q1138.34 1618.52 1133.69 1618.52 Q1129.05 1618.52 1126.37 1622.21 Q1123.73 1625.87 1123.73 1632.33 Q1123.73 1638.79 1126.37 1642.48 Q1129.05 1646.15 1133.69 1646.15 Q1138.34 1646.15 1140.98 1642.48 Q1143.66 1638.79 1143.66 1632.33 M1123.73 1619.89 Q1125.58 1616.7 1128.38 1615.18 Q1131.21 1613.62 1135.13 1613.62 Q1141.62 1613.62 1145.66 1618.77 Q1149.74 1623.93 1149.74 1632.33 Q1149.74 1640.73 1145.66 1645.89 Q1141.62 1651.05 1135.13 1651.05 Q1131.21 1651.05 1128.38 1649.52 Q1125.58 1647.96 1123.73 1644.78 L1123.73 1650.12 L1117.84 1650.12 L1117.84 1600.6 L1123.73 1600.6 L1123.73 1619.89 Z" fill="#000000" fill-rule="nonzero" fill-opacity="1" /><path clip-path="url(#clip170)" d="M1189.94 1630.84 L1189.94 1633.7 L1163.01 1633.7 Q1163.39 1639.75 1166.64 1642.93 Q1169.92 1646.08 1175.74 1646.08 Q1179.11 1646.08 1182.27 1645.25 Q1185.45 1644.43 1188.57 1642.77 L1188.57 1648.31 Q1185.42 1649.65 1182.11 1650.35 Q1178.8 1651.05 1175.39 1651.05 Q1166.86 1651.05 1161.86 1646.08 Q1156.9 1641.12 1156.9 1632.65 Q1156.9 1623.9 1161.61 1618.77 Q1166.35 1613.62 1174.37 1613.62 Q1181.56 1613.62 1185.73 1618.26 Q1189.94 1622.88 1189.94 1630.84 M1184.08 1629.12 Q1184.02 1624.31 1181.37 1621.45 Q1178.76 1618.58 1174.44 1618.58 Q1169.53 1618.58 1166.57 1621.35 Q1163.65 1624.12 1163.2 1629.15 L1184.08 1629.12 Z" fill="#000000" fill-rule="nonzero" fill-opacity="1" /><path clip-path="url(#clip170)" d="M1220.2 1619.95 Q1219.22 1619.38 1218.04 1619.12 Q1216.89 1618.84 1215.49 1618.84 Q1210.53 1618.84 1207.86 1622.08 Q1205.21 1625.3 1205.21 1631.35 L1205.21 1650.12 L1199.33 1650.12 L1199.33 1614.48 L1205.21 1614.48 L1205.21 1620.01 Q1207.06 1616.77 1210.02 1615.21 Q1212.98 1613.62 1217.21 1613.62 Q1217.82 1613.62 1218.55 1613.71 Q1219.28 1613.78 1220.17 1613.93 L1220.2 1619.95 Z" fill="#000000" fill-rule="nonzero" fill-opacity="1" /><path clip-path="url(#clip170)" d="M1260.88 1618.58 Q1256.17 1618.58 1253.43 1622.27 Q1250.7 1625.93 1250.7 1632.33 Q1250.7 1638.73 1253.4 1642.42 Q1256.14 1646.08 1260.88 1646.08 Q1265.56 1646.08 1268.3 1642.39 Q1271.03 1638.7 1271.03 1632.33 Q1271.03 1626 1268.3 1622.31 Q1265.56 1618.58 1260.88 1618.58 M1260.88 1613.62 Q1268.52 1613.62 1272.88 1618.58 Q1277.24 1623.55 1277.24 1632.33 Q1277.24 1641.08 1272.88 1646.08 Q1268.52 1651.05 1260.88 1651.05 Q1253.21 1651.05 1248.85 1646.08 Q1244.52 1641.08 1244.52 1632.33 Q1244.52 1623.55 1248.85 1618.58 Q1253.21 1613.62 1260.88 1613.62 Z" fill="#000000" fill-rule="nonzero" fill-opacity="1" /><path clip-path="url(#clip170)" d="M1305 1600.6 L1305 1605.47 L1299.39 1605.47 Q1296.24 1605.47 1295 1606.74 Q1293.79 1608.01 1293.79 1611.32 L1293.79 1614.48 L1303.44 1614.48 L1303.44 1619.03 L1293.79 1619.03 L1293.79 1650.12 L1287.9 1650.12 L1287.9 1619.03 L1282.3 1619.03 L1282.3 1614.48 L1287.9 1614.48 L1287.9 1611.99 Q1287.9 1606.04 1290.67 1603.34 Q1293.44 1600.6 1299.46 1600.6 L1305 1600.6 Z" fill="#000000" fill-rule="nonzero" fill-opacity="1" /><path clip-path="url(#clip170)" d="M1336.41 1604.35 L1336.41 1614.48 L1348.47 1614.48 L1348.47 1619.03 L1336.41 1619.03 L1336.41 1638.38 Q1336.41 1642.74 1337.59 1643.98 Q1338.8 1645.22 1342.46 1645.22 L1348.47 1645.22 L1348.47 1650.12 L1342.46 1650.12 Q1335.68 1650.12 1333.1 1647.61 Q1330.52 1645.06 1330.52 1638.38 L1330.52 1619.03 L1326.23 1619.03 L1326.23 1614.48 L1330.52 1614.48 L1330.52 1604.35 L1336.41 1604.35 Z" fill="#000000" fill-rule="nonzero" fill-opacity="1" /><path clip-path="url(#clip170)" d="M1376.83 1619.95 Q1375.85 1619.38 1374.67 1619.12 Q1373.52 1618.84 1372.12 1618.84 Q1367.16 1618.84 1364.48 1622.08 Q1361.84 1625.3 1361.84 1631.35 L1361.84 1650.12 L1355.95 1650.12 L1355.95 1614.48 L1361.84 1614.48 L1361.84 1620.01 Q1363.69 1616.77 1366.65 1615.21 Q1369.61 1613.62 1373.84 1613.62 Q1374.45 1613.62 1375.18 1613.71 Q1375.91 1613.78 1376.8 1613.93 L1376.83 1619.95 Z" fill="#000000" fill-rule="nonzero" fill-opacity="1" /><path clip-path="url(#clip170)" d="M1382.98 1614.48 L1388.83 1614.48 L1388.83 1650.12 L1382.98 1650.12 L1382.98 1614.48 M1382.98 1600.6 L1388.83 1600.6 L1388.83 1608.01 L1382.98 1608.01 L1382.98 1600.6 Z" fill="#000000" fill-rule="nonzero" fill-opacity="1" /><path clip-path="url(#clip170)" d="M1417.29 1632.2 Q1410.19 1632.2 1407.45 1633.83 Q1404.71 1635.45 1404.71 1639.37 Q1404.71 1642.48 1406.75 1644.33 Q1408.82 1646.15 1412.35 1646.15 Q1417.22 1646.15 1420.15 1642.71 Q1423.11 1639.24 1423.11 1633.51 L1423.11 1632.2 L1417.29 1632.2 M1428.97 1629.79 L1428.97 1650.12 L1423.11 1650.12 L1423.11 1644.71 Q1421.11 1647.96 1418.11 1649.52 Q1415.12 1651.05 1410.79 1651.05 Q1405.32 1651.05 1402.07 1647.99 Q1398.86 1644.9 1398.86 1639.75 Q1398.86 1633.73 1402.87 1630.68 Q1406.91 1627.62 1414.9 1627.62 L1423.11 1627.62 L1423.11 1627.05 Q1423.11 1623.01 1420.44 1620.81 Q1417.8 1618.58 1412.99 1618.58 Q1409.93 1618.58 1407.04 1619.31 Q1404.14 1620.05 1401.47 1621.51 L1401.47 1616.1 Q1404.68 1614.86 1407.71 1614.25 Q1410.73 1613.62 1413.59 1613.62 Q1421.33 1613.62 1425.15 1617.63 Q1428.97 1621.64 1428.97 1629.79 Z" fill="#000000" fill-rule="nonzero" fill-opacity="1" /><path clip-path="url(#clip170)" d="M1441.03 1600.6 L1446.89 1600.6 L1446.89 1650.12 L1441.03 1650.12 L1441.03 1600.6 Z" fill="#000000" fill-rule="nonzero" fill-opacity="1" /><path clip-path="url(#clip170)" d="M1481.87 1615.53 L1481.87 1621.06 Q1479.38 1619.79 1476.71 1619.15 Q1474.04 1618.52 1471.17 1618.52 Q1466.81 1618.52 1464.62 1619.85 Q1462.45 1621.19 1462.45 1623.87 Q1462.45 1625.9 1464.01 1627.08 Q1465.57 1628.23 1470.28 1629.28 L1472.29 1629.72 Q1478.53 1631.06 1481.13 1633.51 Q1483.78 1635.93 1483.78 1640.29 Q1483.78 1645.25 1479.83 1648.15 Q1475.92 1651.05 1469.04 1651.05 Q1466.18 1651.05 1463.06 1650.47 Q1459.97 1649.93 1456.53 1648.82 L1456.53 1642.77 Q1459.78 1644.46 1462.93 1645.32 Q1466.08 1646.15 1469.17 1646.15 Q1473.31 1646.15 1475.53 1644.74 Q1477.76 1643.31 1477.76 1640.73 Q1477.76 1638.35 1476.14 1637.07 Q1474.55 1635.8 1469.1 1634.62 L1467.07 1634.15 Q1461.62 1633 1459.21 1630.64 Q1456.79 1628.26 1456.79 1624.12 Q1456.79 1619.09 1460.35 1616.35 Q1463.92 1613.62 1470.47 1613.62 Q1473.72 1613.62 1476.58 1614.09 Q1479.45 1614.57 1481.87 1615.53 Z" fill="#000000" fill-rule="nonzero" fill-opacity="1" /><polyline clip-path="url(#clip172)" style="stroke:#000000; stroke-linecap:round; stroke-linejoin:round; stroke-width:2; stroke-opacity:0.1; fill:none" points="102.74,1464 2352.76,1464 "/>
<polyline clip-path="url(#clip172)" style="stroke:#000000; stroke-linecap:round; stroke-linejoin:round; stroke-width:2; stroke-opacity:0.1; fill:none" points="102.74,1189.8 2352.76,1189.8 "/>
<polyline clip-path="url(#clip172)" style="stroke:#000000; stroke-linecap:round; stroke-linejoin:round; stroke-width:2; stroke-opacity:0.1; fill:none" points="102.74,915.605 2352.76,915.605 "/>
<polyline clip-path="url(#clip172)" style="stroke:#000000; stroke-linecap:round; stroke-linejoin:round; stroke-width:2; stroke-opacity:0.1; fill:none" points="102.74,641.41 2352.76,641.41 "/>
<polyline clip-path="url(#clip172)" style="stroke:#000000; stroke-linecap:round; stroke-linejoin:round; stroke-width:2; stroke-opacity:0.1; fill:none" points="102.74,367.215 2352.76,367.215 "/>
<polyline clip-path="url(#clip172)" style="stroke:#000000; stroke-linecap:round; stroke-linejoin:round; stroke-width:2; stroke-opacity:0.1; fill:none" points="102.74,93.0201 2352.76,93.0201 "/>
<polyline clip-path="url(#clip170)" style="stroke:#000000; stroke-linecap:round; stroke-linejoin:round; stroke-width:4; stroke-opacity:1; fill:none" points="102.74,1505.26 102.74,47.2441 "/>
<polyline clip-path="url(#clip170)" style="stroke:#000000; stroke-linecap:round; stroke-linejoin:round; stroke-width:4; stroke-opacity:1; fill:none" points="102.74,1464 121.638,1464 "/>
<polyline clip-path="url(#clip170)" style="stroke:#000000; stroke-linecap:round; stroke-linejoin:round; stroke-width:4; stroke-opacity:1; fill:none" points="102.74,1189.8 121.638,1189.8 "/>
<polyline clip-path="url(#clip170)" style="stroke:#000000; stroke-linecap:round; stroke-linejoin:round; stroke-width:4; stroke-opacity:1; fill:none" points="102.74,915.605 121.638,915.605 "/>
<polyline clip-path="url(#clip170)" style="stroke:#000000; stroke-linecap:round; stroke-linejoin:round; stroke-width:4; stroke-opacity:1; fill:none" points="102.74,641.41 121.638,641.41 "/>
<polyline clip-path="url(#clip170)" style="stroke:#000000; stroke-linecap:round; stroke-linejoin:round; stroke-width:4; stroke-opacity:1; fill:none" points="102.74,367.215 121.638,367.215 "/>
<polyline clip-path="url(#clip170)" style="stroke:#000000; stroke-linecap:round; stroke-linejoin:round; stroke-width:4; stroke-opacity:1; fill:none" points="102.74,93.0201 121.638,93.0201 "/>
<path clip-path="url(#clip170)" d="M-20.5973 1449.79 Q-24.2084 1449.79 -26.0371 1453.36 Q-27.8427 1456.9 -27.8427 1464.03 Q-27.8427 1471.14 -26.0371 1474.7 Q-24.2084 1478.24 -20.5973 1478.24 Q-16.9631 1478.24 -15.1576 1474.7 Q-13.3289 1471.14 -13.3289 1464.03 Q-13.3289 1456.9 -15.1576 1453.36 Q-16.9631 1449.79 -20.5973 1449.79 M-20.5973 1446.09 Q-14.7872 1446.09 -11.7316 1450.7 Q-8.65296 1455.28 -8.65296 1464.03 Q-8.65296 1472.76 -11.7316 1477.36 Q-14.7872 1481.95 -20.5973 1481.95 Q-26.4075 1481.95 -29.4862 1477.36 Q-32.5417 1472.76 -32.5417 1464.03 Q-32.5417 1455.28 -29.4862 1450.7 Q-26.4075 1446.09 -20.5973 1446.09 Z" fill="#000000" fill-rule="nonzero" fill-opacity="1" /><path clip-path="url(#clip170)" d="M-0.435408 1475.4 L4.44882 1475.4 L4.44882 1481.28 L-0.435408 1481.28 L-0.435408 1475.4 Z" fill="#000000" fill-rule="nonzero" fill-opacity="1" /><path clip-path="url(#clip170)" d="M24.6339 1449.79 Q21.0228 1449.79 19.1941 1453.36 Q17.3886 1456.9 17.3886 1464.03 Q17.3886 1471.14 19.1941 1474.7 Q21.0228 1478.24 24.6339 1478.24 Q28.2681 1478.24 30.0737 1474.7 Q31.9024 1471.14 31.9024 1464.03 Q31.9024 1456.9 30.0737 1453.36 Q28.2681 1449.79 24.6339 1449.79 M24.6339 1446.09 Q30.4441 1446.09 33.4996 1450.7 Q36.5783 1455.28 36.5783 1464.03 Q36.5783 1472.76 33.4996 1477.36 Q30.4441 1481.95 24.6339 1481.95 Q18.8237 1481.95 15.7451 1477.36 Q12.6895 1472.76 12.6895 1464.03 Q12.6895 1455.28 15.7451 1450.7 Q18.8237 1446.09 24.6339 1446.09 Z" fill="#000000" fill-rule="nonzero" fill-opacity="1" /><path clip-path="url(#clip170)" d="M54.7958 1449.79 Q51.1847 1449.79 49.356 1453.36 Q47.5504 1456.9 47.5504 1464.03 Q47.5504 1471.14 49.356 1474.7 Q51.1847 1478.24 54.7958 1478.24 Q58.43 1478.24 60.2356 1474.7 Q62.0643 1471.14 62.0643 1464.03 Q62.0643 1456.9 60.2356 1453.36 Q58.43 1449.79 54.7958 1449.79 M54.7958 1446.09 Q60.6059 1446.09 63.6615 1450.7 Q66.7402 1455.28 66.7402 1464.03 Q66.7402 1472.76 63.6615 1477.36 Q60.6059 1481.95 54.7958 1481.95 Q48.9856 1481.95 45.9069 1477.36 Q42.8514 1472.76 42.8514 1464.03 Q42.8514 1455.28 45.9069 1450.7 Q48.9856 1446.09 54.7958 1446.09 Z" fill="#000000" fill-rule="nonzero" fill-opacity="1" /><path clip-path="url(#clip170)" d="M-19.602 1175.6 Q-23.2131 1175.6 -25.0418 1179.16 Q-26.8473 1182.71 -26.8473 1189.83 Q-26.8473 1196.94 -25.0418 1200.51 Q-23.2131 1204.05 -19.602 1204.05 Q-15.9677 1204.05 -14.1622 1200.51 Q-12.3335 1196.94 -12.3335 1189.83 Q-12.3335 1182.71 -14.1622 1179.16 Q-15.9677 1175.6 -19.602 1175.6 M-19.602 1171.9 Q-13.7918 1171.9 -10.7363 1176.5 Q-7.65759 1181.08 -7.65759 1189.83 Q-7.65759 1198.56 -10.7363 1203.17 Q-13.7918 1207.75 -19.602 1207.75 Q-25.4121 1207.75 -28.4908 1203.17 Q-31.5464 1198.56 -31.5464 1189.83 Q-31.5464 1181.08 -28.4908 1176.5 Q-25.4121 1171.9 -19.602 1171.9 Z" fill="#000000" fill-rule="nonzero" fill-opacity="1" /><path clip-path="url(#clip170)" d="M0.559957 1201.2 L5.44419 1201.2 L5.44419 1207.08 L0.559957 1207.08 L0.559957 1201.2 Z" fill="#000000" fill-rule="nonzero" fill-opacity="1" /><path clip-path="url(#clip170)" d="M25.6293 1175.6 Q22.0182 1175.6 20.1895 1179.16 Q18.3839 1182.71 18.3839 1189.83 Q18.3839 1196.94 20.1895 1200.51 Q22.0182 1204.05 25.6293 1204.05 Q29.2635 1204.05 31.0691 1200.51 Q32.8977 1196.94 32.8977 1189.83 Q32.8977 1182.71 31.0691 1179.16 Q29.2635 1175.6 25.6293 1175.6 M25.6293 1171.9 Q31.4394 1171.9 34.495 1176.5 Q37.5736 1181.08 37.5736 1189.83 Q37.5736 1198.56 34.495 1203.17 Q31.4394 1207.75 25.6293 1207.75 Q19.8191 1207.75 16.7404 1203.17 Q13.6849 1198.56 13.6849 1189.83 Q13.6849 1181.08 16.7404 1176.5 Q19.8191 1171.9 25.6293 1171.9 Z" fill="#000000" fill-rule="nonzero" fill-opacity="1" /><path clip-path="url(#clip170)" d="M45.8375 1172.52 L64.1939 1172.52 L64.1939 1176.46 L50.1199 1176.46 L50.1199 1184.93 Q51.1384 1184.58 52.1569 1184.42 Q53.1754 1184.23 54.1939 1184.23 Q59.9809 1184.23 63.3605 1187.4 Q66.7402 1190.58 66.7402 1195.99 Q66.7402 1201.57 63.268 1204.67 Q59.7958 1207.75 53.4763 1207.75 Q51.3004 1207.75 49.0319 1207.38 Q46.7866 1207.01 44.3792 1206.27 L44.3792 1201.57 Q46.4625 1202.71 48.6847 1203.26 Q50.9069 1203.82 53.3837 1203.82 Q57.3884 1203.82 59.7263 1201.71 Q62.0643 1199.6 62.0643 1195.99 Q62.0643 1192.38 59.7263 1190.27 Q57.3884 1188.17 53.3837 1188.17 Q51.5088 1188.17 49.6338 1188.58 Q47.7819 1189 45.8375 1189.88 L45.8375 1172.52 Z" fill="#000000" fill-rule="nonzero" fill-opacity="1" /><path clip-path="url(#clip170)" d="M-20.5973 901.404 Q-24.2084 901.404 -26.0371 904.969 Q-27.8427 908.51 -27.8427 915.64 Q-27.8427 922.746 -26.0371 926.311 Q-24.2084 929.853 -20.5973 929.853 Q-16.9631 929.853 -15.1576 926.311 Q-13.3289 922.746 -13.3289 915.64 Q-13.3289 908.51 -15.1576 904.969 Q-16.9631 901.404 -20.5973 901.404 M-20.5973 897.7 Q-14.7872 897.7 -11.7316 902.307 Q-8.65296 906.89 -8.65296 915.64 Q-8.65296 924.367 -11.7316 928.973 Q-14.7872 933.556 -20.5973 933.556 Q-26.4075 933.556 -29.4862 928.973 Q-32.5417 924.367 -32.5417 915.64 Q-32.5417 906.89 -29.4862 902.307 Q-26.4075 897.7 -20.5973 897.7 Z" fill="#000000" fill-rule="nonzero" fill-opacity="1" /><path clip-path="url(#clip170)" d="M-0.435408 927.006 L4.44882 927.006 L4.44882 932.885 L-0.435408 932.885 L-0.435408 927.006 Z" fill="#000000" fill-rule="nonzero" fill-opacity="1" /><path clip-path="url(#clip170)" d="M15.4441 928.95 L23.083 928.95 L23.083 902.584 L14.7728 904.251 L14.7728 899.992 L23.0367 898.325 L27.7126 898.325 L27.7126 928.95 L35.3514 928.95 L35.3514 932.885 L15.4441 932.885 L15.4441 928.95 Z" fill="#000000" fill-rule="nonzero" fill-opacity="1" /><path clip-path="url(#clip170)" d="M54.7958 901.404 Q51.1847 901.404 49.356 904.969 Q47.5504 908.51 47.5504 915.64 Q47.5504 922.746 49.356 926.311 Q51.1847 929.853 54.7958 929.853 Q58.43 929.853 60.2356 926.311 Q62.0643 922.746 62.0643 915.64 Q62.0643 908.51 60.2356 904.969 Q58.43 901.404 54.7958 901.404 M54.7958 897.7 Q60.6059 897.7 63.6615 902.307 Q66.7402 906.89 66.7402 915.64 Q66.7402 924.367 63.6615 928.973 Q60.6059 933.556 54.7958 933.556 Q48.9856 933.556 45.9069 928.973 Q42.8514 924.367 42.8514 915.64 Q42.8514 906.89 45.9069 902.307 Q48.9856 897.7 54.7958 897.7 Z" fill="#000000" fill-rule="nonzero" fill-opacity="1" /><path clip-path="url(#clip170)" d="M-19.602 627.209 Q-23.2131 627.209 -25.0418 630.774 Q-26.8473 634.315 -26.8473 641.445 Q-26.8473 648.551 -25.0418 652.116 Q-23.2131 655.658 -19.602 655.658 Q-15.9677 655.658 -14.1622 652.116 Q-12.3335 648.551 -12.3335 641.445 Q-12.3335 634.315 -14.1622 630.774 Q-15.9677 627.209 -19.602 627.209 M-19.602 623.505 Q-13.7918 623.505 -10.7363 628.112 Q-7.65759 632.695 -7.65759 641.445 Q-7.65759 650.172 -10.7363 654.778 Q-13.7918 659.361 -19.602 659.361 Q-25.4121 659.361 -28.4908 654.778 Q-31.5464 650.172 -31.5464 641.445 Q-31.5464 632.695 -28.4908 628.112 Q-25.4121 623.505 -19.602 623.505 Z" fill="#000000" fill-rule="nonzero" fill-opacity="1" /><path clip-path="url(#clip170)" d="M0.559957 652.811 L5.44419 652.811 L5.44419 658.69 L0.559957 658.69 L0.559957 652.811 Z" fill="#000000" fill-rule="nonzero" fill-opacity="1" /><path clip-path="url(#clip170)" d="M16.4395 654.755 L24.0783 654.755 L24.0783 628.389 L15.7682 630.056 L15.7682 625.797 L24.0321 624.13 L28.708 624.13 L28.708 654.755 L36.3468 654.755 L36.3468 658.69 L16.4395 658.69 L16.4395 654.755 Z" fill="#000000" fill-rule="nonzero" fill-opacity="1" /><path clip-path="url(#clip170)" d="M45.8375 624.13 L64.1939 624.13 L64.1939 628.065 L50.1199 628.065 L50.1199 636.537 Q51.1384 636.19 52.1569 636.028 Q53.1754 635.843 54.1939 635.843 Q59.9809 635.843 63.3605 639.014 Q66.7402 642.186 66.7402 647.602 Q66.7402 653.181 63.268 656.283 Q59.7958 659.361 53.4763 659.361 Q51.3004 659.361 49.0319 658.991 Q46.7866 658.621 44.3792 657.88 L44.3792 653.181 Q46.4625 654.315 48.6847 654.871 Q50.9069 655.426 53.3837 655.426 Q57.3884 655.426 59.7263 653.32 Q62.0643 651.213 62.0643 647.602 Q62.0643 643.991 59.7263 641.885 Q57.3884 639.778 53.3837 639.778 Q51.5088 639.778 49.6338 640.195 Q47.7819 640.612 45.8375 641.491 L45.8375 624.13 Z" fill="#000000" fill-rule="nonzero" fill-opacity="1" /><path clip-path="url(#clip170)" d="M-20.5973 353.014 Q-24.2084 353.014 -26.0371 356.579 Q-27.8427 360.12 -27.8427 367.25 Q-27.8427 374.356 -26.0371 377.921 Q-24.2084 381.463 -20.5973 381.463 Q-16.9631 381.463 -15.1576 377.921 Q-13.3289 374.356 -13.3289 367.25 Q-13.3289 360.12 -15.1576 356.579 Q-16.9631 353.014 -20.5973 353.014 M-20.5973 349.31 Q-14.7872 349.31 -11.7316 353.917 Q-8.65296 358.5 -8.65296 367.25 Q-8.65296 375.977 -11.7316 380.583 Q-14.7872 385.166 -20.5973 385.166 Q-26.4075 385.166 -29.4862 380.583 Q-32.5417 375.977 -32.5417 367.25 Q-32.5417 358.5 -29.4862 353.917 Q-26.4075 349.31 -20.5973 349.31 Z" fill="#000000" fill-rule="nonzero" fill-opacity="1" /><path clip-path="url(#clip170)" d="M-0.435408 378.615 L4.44882 378.615 L4.44882 384.495 L-0.435408 384.495 L-0.435408 378.615 Z" fill="#000000" fill-rule="nonzero" fill-opacity="1" /><path clip-path="url(#clip170)" d="M18.6617 380.56 L34.9811 380.56 L34.9811 384.495 L13.0367 384.495 L13.0367 380.56 Q15.6988 377.805 20.2821 373.176 Q24.8885 368.523 26.0691 367.18 Q28.3144 364.657 29.1941 362.921 Q30.0968 361.162 30.0968 359.472 Q30.0968 356.717 28.1524 354.981 Q26.2311 353.245 23.1293 353.245 Q20.9302 353.245 18.4765 354.009 Q16.046 354.773 13.2682 356.324 L13.2682 351.602 Q16.0923 350.467 18.546 349.889 Q20.9997 349.31 23.0367 349.31 Q28.407 349.31 31.6015 351.995 Q34.7959 354.68 34.7959 359.171 Q34.7959 361.301 33.9857 363.222 Q33.1987 365.12 31.0922 367.713 Q30.5135 368.384 27.4117 371.602 Q24.3098 374.796 18.6617 380.56 Z" fill="#000000" fill-rule="nonzero" fill-opacity="1" /><path clip-path="url(#clip170)" d="M54.7958 353.014 Q51.1847 353.014 49.356 356.579 Q47.5504 360.12 47.5504 367.25 Q47.5504 374.356 49.356 377.921 Q51.1847 381.463 54.7958 381.463 Q58.43 381.463 60.2356 377.921 Q62.0643 374.356 62.0643 367.25 Q62.0643 360.12 60.2356 356.579 Q58.43 353.014 54.7958 353.014 M54.7958 349.31 Q60.6059 349.31 63.6615 353.917 Q66.7402 358.5 66.7402 367.25 Q66.7402 375.977 63.6615 380.583 Q60.6059 385.166 54.7958 385.166 Q48.9856 385.166 45.9069 380.583 Q42.8514 375.977 42.8514 367.25 Q42.8514 358.5 45.9069 353.917 Q48.9856 349.31 54.7958 349.31 Z" fill="#000000" fill-rule="nonzero" fill-opacity="1" /><path clip-path="url(#clip170)" d="M-19.602 78.8187 Q-23.2131 78.8187 -25.0418 82.3835 Q-26.8473 85.9252 -26.8473 93.0548 Q-26.8473 100.161 -25.0418 103.726 Q-23.2131 107.268 -19.602 107.268 Q-15.9677 107.268 -14.1622 103.726 Q-12.3335 100.161 -12.3335 93.0548 Q-12.3335 85.9252 -14.1622 82.3835 Q-15.9677 78.8187 -19.602 78.8187 M-19.602 75.1151 Q-13.7918 75.1151 -10.7363 79.7215 Q-7.65759 84.3048 -7.65759 93.0548 Q-7.65759 101.782 -10.7363 106.388 Q-13.7918 110.971 -19.602 110.971 Q-25.4121 110.971 -28.4908 106.388 Q-31.5464 101.782 -31.5464 93.0548 Q-31.5464 84.3048 -28.4908 79.7215 Q-25.4121 75.1151 -19.602 75.1151 Z" fill="#000000" fill-rule="nonzero" fill-opacity="1" /><path clip-path="url(#clip170)" d="M0.559957 104.42 L5.44419 104.42 L5.44419 110.3 L0.559957 110.3 L0.559957 104.42 Z" fill="#000000" fill-rule="nonzero" fill-opacity="1" /><path clip-path="url(#clip170)" d="M19.6571 106.365 L35.9764 106.365 L35.9764 110.3 L14.0321 110.3 L14.0321 106.365 Q16.6941 103.61 21.2774 98.9807 Q25.8839 94.3279 27.0644 92.9853 Q29.3098 90.4622 30.1894 88.7261 Q31.0922 86.9668 31.0922 85.277 Q31.0922 82.5224 29.1478 80.7863 Q27.2265 79.0502 24.1246 79.0502 Q21.9256 79.0502 19.4719 79.8141 Q17.0413 80.578 14.2636 82.1289 L14.2636 77.4067 Q17.0876 76.2725 19.5413 75.6938 Q21.995 75.1151 24.0321 75.1151 Q29.4024 75.1151 32.5968 77.8002 Q35.7912 80.4854 35.7912 84.9761 Q35.7912 87.1057 34.9811 89.027 Q34.194 90.9252 32.0876 93.5177 Q31.5089 94.189 28.407 97.4066 Q25.3052 100.601 19.6571 106.365 Z" fill="#000000" fill-rule="nonzero" fill-opacity="1" /><path clip-path="url(#clip170)" d="M45.8375 75.7401 L64.1939 75.7401 L64.1939 79.6752 L50.1199 79.6752 L50.1199 88.1474 Q51.1384 87.8002 52.1569 87.6381 Q53.1754 87.453 54.1939 87.453 Q59.9809 87.453 63.3605 90.6242 Q66.7402 93.7955 66.7402 99.2122 Q66.7402 104.791 63.268 107.893 Q59.7958 110.971 53.4763 110.971 Q51.3004 110.971 49.0319 110.601 Q46.7866 110.231 44.3792 109.49 L44.3792 104.791 Q46.4625 105.925 48.6847 106.481 Q50.9069 107.036 53.3837 107.036 Q57.3884 107.036 59.7263 104.93 Q62.0643 102.823 62.0643 99.2122 Q62.0643 95.6011 59.7263 93.4946 Q57.3884 91.3881 53.3837 91.3881 Q51.5088 91.3881 49.6338 91.8048 Q47.7819 92.2214 45.8375 93.1011 L45.8375 75.7401 Z" fill="#000000" fill-rule="nonzero" fill-opacity="1" /><path clip-path="url(#clip170)" d="M-88.1449 940.328 L-69.2388 940.328 L-69.2388 946.216 L-118.446 946.216 L-118.446 940.328 L-113.035 940.328 Q-116.218 938.482 -117.745 935.681 Q-119.305 932.848 -119.305 928.933 Q-119.305 922.44 -114.149 918.398 Q-108.993 914.324 -100.59 914.324 Q-92.1871 914.324 -87.0309 918.398 Q-81.8747 922.44 -81.8747 928.933 Q-81.8747 932.848 -83.4025 935.681 Q-84.9621 938.482 -88.1449 940.328 M-100.59 920.403 Q-107.051 920.403 -110.711 923.077 Q-114.403 925.719 -114.403 930.366 Q-114.403 935.013 -110.711 937.686 Q-107.051 940.328 -100.59 940.328 Q-94.1287 940.328 -90.4366 937.686 Q-86.7763 935.013 -86.7763 930.366 Q-86.7763 925.719 -90.4366 923.077 Q-94.1287 920.403 -100.59 920.403 Z" fill="#000000" fill-rule="nonzero" fill-opacity="1" /><path clip-path="url(#clip170)" d="M-112.971 883.96 Q-113.544 884.946 -113.799 886.124 Q-114.085 887.27 -114.085 888.67 Q-114.085 893.636 -110.839 896.309 Q-107.624 898.951 -101.577 898.951 L-82.7977 898.951 L-82.7977 904.839 L-118.446 904.839 L-118.446 898.951 L-112.908 898.951 Q-116.154 897.105 -117.714 894.145 Q-119.305 891.185 -119.305 886.952 Q-119.305 886.347 -119.21 885.615 Q-119.146 884.883 -118.987 883.992 L-112.971 883.96 Z" fill="#000000" fill-rule="nonzero" fill-opacity="1" /><path clip-path="url(#clip170)" d="M-114.34 865.436 Q-114.34 870.146 -110.648 872.883 Q-106.987 875.621 -100.59 875.621 Q-94.1923 875.621 -90.5002 872.915 Q-86.8399 870.178 -86.8399 865.436 Q-86.8399 860.757 -90.5321 858.019 Q-94.2242 855.282 -100.59 855.282 Q-106.924 855.282 -110.616 858.019 Q-114.34 860.757 -114.34 865.436 M-119.305 865.436 Q-119.305 857.797 -114.34 853.436 Q-109.375 849.076 -100.59 849.076 Q-91.837 849.076 -86.8399 853.436 Q-81.8747 857.797 -81.8747 865.436 Q-81.8747 873.106 -86.8399 877.467 Q-91.837 881.795 -100.59 881.795 Q-109.375 881.795 -114.34 877.467 Q-119.305 873.106 -119.305 865.436 Z" fill="#000000" fill-rule="nonzero" fill-opacity="1" /><path clip-path="url(#clip170)" d="M-100.59 813.778 Q-107.051 813.778 -110.711 816.451 Q-114.403 819.093 -114.403 823.74 Q-114.403 828.387 -110.711 831.061 Q-107.051 833.702 -100.59 833.702 Q-94.1287 833.702 -90.4366 831.061 Q-86.7763 828.387 -86.7763 823.74 Q-86.7763 819.093 -90.4366 816.451 Q-94.1287 813.778 -100.59 813.778 M-113.035 833.702 Q-116.218 831.856 -117.745 829.056 Q-119.305 826.223 -119.305 822.308 Q-119.305 815.815 -114.149 811.773 Q-108.993 807.699 -100.59 807.699 Q-92.1871 807.699 -87.0309 811.773 Q-81.8747 815.815 -81.8747 822.308 Q-81.8747 826.223 -83.4025 829.056 Q-84.9621 831.856 -88.1449 833.702 L-82.7977 833.702 L-82.7977 839.591 L-132.323 839.591 L-132.323 833.702 L-113.035 833.702 Z" fill="#000000" fill-rule="nonzero" fill-opacity="1" /><path clip-path="url(#clip170)" d="M-100.717 781.79 Q-100.717 788.888 -99.0939 791.625 Q-97.4707 794.362 -93.5558 794.362 Q-90.4366 794.362 -88.5905 792.325 Q-86.7763 790.257 -86.7763 786.724 Q-86.7763 781.854 -90.2138 778.926 Q-93.6831 775.966 -99.4122 775.966 L-100.717 775.966 L-100.717 781.79 M-103.136 770.109 L-82.7977 770.109 L-82.7977 775.966 L-88.2086 775.966 Q-84.9621 777.971 -83.4025 780.963 Q-81.8747 783.954 -81.8747 788.283 Q-81.8747 793.758 -84.9302 797.004 Q-88.0176 800.219 -93.1738 800.219 Q-99.1894 800.219 -102.245 796.208 Q-105.3 792.166 -105.3 784.177 L-105.3 775.966 L-105.873 775.966 Q-109.916 775.966 -112.112 778.639 Q-114.34 781.281 -114.34 786.087 Q-114.34 789.143 -113.608 792.039 Q-112.876 794.935 -111.412 797.609 L-116.822 797.609 Q-118.064 794.394 -118.668 791.371 Q-119.305 788.347 -119.305 785.482 Q-119.305 777.748 -115.295 773.928 Q-111.284 770.109 -103.136 770.109 Z" fill="#000000" fill-rule="nonzero" fill-opacity="1" /><path clip-path="url(#clip170)" d="M-100.59 732.456 Q-107.051 732.456 -110.711 735.13 Q-114.403 737.771 -114.403 742.418 Q-114.403 747.065 -110.711 749.739 Q-107.051 752.381 -100.59 752.381 Q-94.1287 752.381 -90.4366 749.739 Q-86.7763 747.065 -86.7763 742.418 Q-86.7763 737.771 -90.4366 735.13 Q-94.1287 732.456 -100.59 732.456 M-113.035 752.381 Q-116.218 750.535 -117.745 747.734 Q-119.305 744.901 -119.305 740.986 Q-119.305 734.493 -114.149 730.451 Q-108.993 726.377 -100.59 726.377 Q-92.1871 726.377 -87.0309 730.451 Q-81.8747 734.493 -81.8747 740.986 Q-81.8747 744.901 -83.4025 747.734 Q-84.9621 750.535 -88.1449 752.381 L-82.7977 752.381 L-82.7977 758.269 L-132.323 758.269 L-132.323 752.381 L-113.035 752.381 Z" fill="#000000" fill-rule="nonzero" fill-opacity="1" /><path clip-path="url(#clip170)" d="M-118.446 716.669 L-118.446 710.813 L-82.7977 710.813 L-82.7977 716.669 L-118.446 716.669 M-132.323 716.669 L-132.323 710.813 L-124.907 710.813 L-124.907 716.669 L-132.323 716.669 Z" fill="#000000" fill-rule="nonzero" fill-opacity="1" /><path clip-path="url(#clip170)" d="M-132.323 698.559 L-132.323 692.702 L-82.7977 692.702 L-82.7977 698.559 L-132.323 698.559 Z" fill="#000000" fill-rule="nonzero" fill-opacity="1" /><path clip-path="url(#clip170)" d="M-118.446 680.448 L-118.446 674.592 L-82.7977 674.592 L-82.7977 680.448 L-118.446 680.448 M-132.323 680.448 L-132.323 674.592 L-124.907 674.592 L-124.907 680.448 L-132.323 680.448 Z" fill="#000000" fill-rule="nonzero" fill-opacity="1" /><path clip-path="url(#clip170)" d="M-128.567 656.545 L-118.446 656.545 L-118.446 644.482 L-113.894 644.482 L-113.894 656.545 L-94.5424 656.545 Q-90.1819 656.545 -88.9406 655.367 Q-87.6993 654.158 -87.6993 650.497 L-87.6993 644.482 L-82.7977 644.482 L-82.7977 650.497 Q-82.7977 657.277 -85.3122 659.855 Q-87.8585 662.433 -94.5424 662.433 L-113.894 662.433 L-113.894 666.73 L-118.446 666.73 L-118.446 662.433 L-128.567 662.433 L-128.567 656.545 Z" fill="#000000" fill-rule="nonzero" fill-opacity="1" /><path clip-path="url(#clip170)" d="M-79.4876 621.947 Q-73.1218 624.43 -71.1803 626.785 Q-69.2388 629.14 -69.2388 633.087 L-69.2388 637.766 L-74.1404 637.766 L-74.1404 634.329 Q-74.1404 631.91 -75.2862 630.573 Q-76.432 629.236 -80.697 627.613 L-83.3706 626.562 L-118.446 640.981 L-118.446 634.774 L-90.5639 623.634 L-118.446 612.494 L-118.446 606.288 L-79.4876 621.947 Z" fill="#000000" fill-rule="nonzero" fill-opacity="1" /><polyline clip-path="url(#clip172)" style="stroke:#009af9; stroke-linecap:round; stroke-linejoin:round; stroke-width:4; stroke-opacity:1; fill:none" points="166.42,1464 166.42,1463.42 "/>
<polyline clip-path="url(#clip172)" style="stroke:#009af9; stroke-linecap:round; stroke-linejoin:round; stroke-width:4; stroke-opacity:1; fill:none" points="378.685,1464 378.685,1455.37 "/>
<polyline clip-path="url(#clip172)" style="stroke:#009af9; stroke-linecap:round; stroke-linejoin:round; stroke-width:4; stroke-opacity:1; fill:none" points="590.951,1464 590.951,1405.77 "/>
<polyline clip-path="url(#clip172)" style="stroke:#009af9; stroke-linecap:round; stroke-linejoin:round; stroke-width:4; stroke-opacity:1; fill:none" points="803.217,1464 803.217,1231.11 "/>
<polyline clip-path="url(#clip172)" style="stroke:#009af9; stroke-linecap:round; stroke-linejoin:round; stroke-width:4; stroke-opacity:1; fill:none" points="1015.48,1464 1015.48,852.668 "/>
<polyline clip-path="url(#clip172)" style="stroke:#009af9; stroke-linecap:round; stroke-linejoin:round; stroke-width:4; stroke-opacity:1; fill:none" points="1227.75,1464 1227.75,363.606 "/>
<polyline clip-path="url(#clip172)" style="stroke:#009af9; stroke-linecap:round; stroke-linejoin:round; stroke-width:4; stroke-opacity:1; fill:none" points="1440.01,1464 1440.01,88.5087 "/>
<polyline clip-path="url(#clip172)" style="stroke:#009af9; stroke-linecap:round; stroke-linejoin:round; stroke-width:4; stroke-opacity:1; fill:none" points="1652.28,1464 1652.28,285.007 "/>
<polyline clip-path="url(#clip172)" style="stroke:#009af9; stroke-linecap:round; stroke-linejoin:round; stroke-width:4; stroke-opacity:1; fill:none" points="1864.54,1464 1864.54,800.814 "/>
<polyline clip-path="url(#clip172)" style="stroke:#009af9; stroke-linecap:round; stroke-linejoin:round; stroke-width:4; stroke-opacity:1; fill:none" points="2076.81,1464 2076.81,1242.93 "/>
<polyline clip-path="url(#clip172)" style="stroke:#009af9; stroke-linecap:round; stroke-linejoin:round; stroke-width:4; stroke-opacity:1; fill:none" points="2289.08,1464 2289.08,1430.84 "/>
</svg>
