<?xml version="1.0" encoding="utf-8"?>
<svg xmlns="http://www.w3.org/2000/svg" xmlns:xlink="http://www.w3.org/1999/xlink" width="600" height="400" viewBox="0 0 2400 1600">
<defs>
  <clipPath id="clip040">
    <rect x="0" y="0" width="2400" height="1600"/>
  </clipPath>
</defs>
<path clip-path="url(#clip040)" d="M0 1600 L2400 1600 L2400 0 L0 0  Z" fill="#ffffff" fill-rule="evenodd" fill-opacity="1"/>
<defs>
  <clipPath id="clip041">
    <rect x="480" y="0" width="1681" height="1600"/>
  </clipPath>
</defs>
<path clip-path="url(#clip040)" d="M86.9921 1521.01 L2352.76 1521.01 L2352.76 47.2441 L86.9921 47.2441  Z" fill="#ffffff" fill-rule="evenodd" fill-opacity="1"/>
<defs>
  <clipPath id="clip042">
    <rect x="86" y="47" width="2267" height="1475"/>
  </clipPath>
</defs>
<polyline clip-path="url(#clip042)" style="stroke:#000000; stroke-linecap:round; stroke-linejoin:round; stroke-width:2; stroke-opacity:0.1; fill:none" points="144.033,1521.01 144.033,47.2441 "/>
<polyline clip-path="url(#clip042)" style="stroke:#000000; stroke-linecap:round; stroke-linejoin:round; stroke-width:2; stroke-opacity:0.1; fill:none" points="571.372,1521.01 571.372,47.2441 "/>
<polyline clip-path="url(#clip042)" style="stroke:#000000; stroke-linecap:round; stroke-linejoin:round; stroke-width:2; stroke-opacity:0.1; fill:none" points="998.711,1521.01 998.711,47.2441 "/>
<polyline clip-path="url(#clip042)" style="stroke:#000000; stroke-linecap:round; stroke-linejoin:round; stroke-width:2; stroke-opacity:0.1; fill:none" points="1426.05,1521.01 1426.05,47.2441 "/>
<polyline clip-path="url(#clip042)" style="stroke:#000000; stroke-linecap:round; stroke-linejoin:round; stroke-width:2; stroke-opacity:0.1; fill:none" points="1853.39,1521.01 1853.39,47.2441 "/>
<polyline clip-path="url(#clip042)" style="stroke:#000000; stroke-linecap:round; stroke-linejoin:round; stroke-width:2; stroke-opacity:0.1; fill:none" points="2280.73,1521.01 2280.73,47.2441 "/>
<polyline clip-path="url(#clip040)" style="stroke:#000000; stroke-linecap:round; stroke-linejoin:round; stroke-width:4; stroke-opacity:1; fill:none" points="86.9921,1521.01 2352.76,1521.01 "/>
<polyline clip-path="url(#clip040)" style="stroke:#000000; stroke-linecap:round; stroke-linejoin:round; stroke-width:4; stroke-opacity:1; fill:none" points="144.033,1521.01 144.033,1502.11 "/>
<polyline clip-path="url(#clip040)" style="stroke:#000000; stroke-linecap:round; stroke-linejoin:round; stroke-width:4; stroke-opacity:1; fill:none" points="571.372,1521.01 571.372,1502.11 "/>
<polyline clip-path="url(#clip040)" style="stroke:#000000; stroke-linecap:round; stroke-linejoin:round; stroke-width:4; stroke-opacity:1; fill:none" points="998.711,1521.01 998.711,1502.11 "/>
<polyline clip-path="url(#clip040)" style="stroke:#000000; stroke-linecap:round; stroke-linejoin:round; stroke-width:4; stroke-opacity:1; fill:none" points="1426.05,1521.01 1426.05,1502.11 "/>
<polyline clip-path="url(#clip040)" style="stroke:#000000; stroke-linecap:round; stroke-linejoin:round; stroke-width:4; stroke-opacity:1; fill:none" points="1853.39,1521.01 1853.39,1502.11 "/>
<polyline clip-path="url(#clip040)" style="stroke:#000000; stroke-linecap:round; stroke-linejoin:round; stroke-width:4; stroke-opacity:1; fill:none" points="2280.73,1521.01 2280.73,1502.11 "/>
<path clip-path="url(#clip040)" d="M118.733 1548.85 L137.089 1548.85 L137.089 1552.78 L123.015 1552.78 L123.015 1561.26 Q124.034 1560.91 125.052 1560.75 Q126.071 1560.56 127.089 1560.56 Q132.876 1560.56 136.256 1563.73 Q139.635 1566.9 139.635 1572.32 Q139.635 1577.9 136.163 1581 Q132.691 1584.08 126.372 1584.08 Q124.196 1584.08 121.927 1583.71 Q119.682 1583.34 117.274 1582.6 L117.274 1577.9 Q119.358 1579.03 121.58 1579.59 Q123.802 1580.14 126.279 1580.14 Q130.284 1580.14 132.622 1578.04 Q134.959 1575.93 134.959 1572.32 Q134.959 1568.71 132.622 1566.6 Q130.284 1564.5 126.279 1564.5 Q124.404 1564.5 122.529 1564.91 Q120.677 1565.33 118.733 1566.21 L118.733 1548.85 Z" fill="#000000" fill-rule="nonzero" fill-opacity="1" /><path clip-path="url(#clip040)" d="M158.848 1551.93 Q155.237 1551.93 153.408 1555.49 Q151.603 1559.03 151.603 1566.16 Q151.603 1573.27 153.408 1576.83 Q155.237 1580.38 158.848 1580.38 Q162.482 1580.38 164.288 1576.83 Q166.117 1573.27 166.117 1566.16 Q166.117 1559.03 164.288 1555.49 Q162.482 1551.93 158.848 1551.93 M158.848 1548.22 Q164.658 1548.22 167.714 1552.83 Q170.793 1557.41 170.793 1566.16 Q170.793 1574.89 167.714 1579.5 Q164.658 1584.08 158.848 1584.08 Q153.038 1584.08 149.959 1579.5 Q146.904 1574.89 146.904 1566.16 Q146.904 1557.41 149.959 1552.83 Q153.038 1548.22 158.848 1548.22 Z" fill="#000000" fill-rule="nonzero" fill-opacity="1" /><path clip-path="url(#clip040)" d="M530.979 1579.47 L538.618 1579.47 L538.618 1553.11 L530.308 1554.77 L530.308 1550.51 L538.571 1548.85 L543.247 1548.85 L543.247 1579.47 L550.886 1579.47 L550.886 1583.41 L530.979 1583.41 L530.979 1579.47 Z" fill="#000000" fill-rule="nonzero" fill-opacity="1" /><path clip-path="url(#clip040)" d="M570.331 1551.93 Q566.719 1551.93 564.891 1555.49 Q563.085 1559.03 563.085 1566.16 Q563.085 1573.27 564.891 1576.83 Q566.719 1580.38 570.331 1580.38 Q573.965 1580.38 575.77 1576.83 Q577.599 1573.27 577.599 1566.16 Q577.599 1559.03 575.77 1555.49 Q573.965 1551.93 570.331 1551.93 M570.331 1548.22 Q576.141 1548.22 579.196 1552.83 Q582.275 1557.41 582.275 1566.16 Q582.275 1574.89 579.196 1579.5 Q576.141 1584.08 570.331 1584.08 Q564.52 1584.08 561.442 1579.5 Q558.386 1574.89 558.386 1566.16 Q558.386 1557.41 561.442 1552.83 Q564.52 1548.22 570.331 1548.22 Z" fill="#000000" fill-rule="nonzero" fill-opacity="1" /><path clip-path="url(#clip040)" d="M600.492 1551.93 Q596.881 1551.93 595.053 1555.49 Q593.247 1559.03 593.247 1566.16 Q593.247 1573.27 595.053 1576.83 Q596.881 1580.38 600.492 1580.38 Q604.127 1580.38 605.932 1576.83 Q607.761 1573.27 607.761 1566.16 Q607.761 1559.03 605.932 1555.49 Q604.127 1551.93 600.492 1551.93 M600.492 1548.22 Q606.303 1548.22 609.358 1552.83 Q612.437 1557.41 612.437 1566.16 Q612.437 1574.89 609.358 1579.5 Q606.303 1584.08 600.492 1584.08 Q594.682 1584.08 591.604 1579.5 Q588.548 1574.89 588.548 1566.16 Q588.548 1557.41 591.604 1552.83 Q594.682 1548.22 600.492 1548.22 Z" fill="#000000" fill-rule="nonzero" fill-opacity="1" /><path clip-path="url(#clip040)" d="M958.318 1579.47 L965.956 1579.47 L965.956 1553.11 L957.646 1554.77 L957.646 1550.51 L965.91 1548.85 L970.586 1548.85 L970.586 1579.47 L978.225 1579.47 L978.225 1583.41 L958.318 1583.41 L958.318 1579.47 Z" fill="#000000" fill-rule="nonzero" fill-opacity="1" /><path clip-path="url(#clip040)" d="M987.716 1548.85 L1006.07 1548.85 L1006.07 1552.78 L991.998 1552.78 L991.998 1561.26 Q993.016 1560.91 994.035 1560.75 Q995.054 1560.56 996.072 1560.56 Q1001.86 1560.56 1005.24 1563.73 Q1008.62 1566.9 1008.62 1572.32 Q1008.62 1577.9 1005.15 1581 Q1001.67 1584.08 995.354 1584.08 Q993.179 1584.08 990.91 1583.71 Q988.665 1583.34 986.257 1582.6 L986.257 1577.9 Q988.341 1579.03 990.563 1579.59 Q992.785 1580.14 995.262 1580.14 Q999.266 1580.14 1001.6 1578.04 Q1003.94 1575.93 1003.94 1572.32 Q1003.94 1568.71 1001.6 1566.6 Q999.266 1564.5 995.262 1564.5 Q993.387 1564.5 991.512 1564.91 Q989.66 1565.33 987.716 1566.21 L987.716 1548.85 Z" fill="#000000" fill-rule="nonzero" fill-opacity="1" /><path clip-path="url(#clip040)" d="M1027.83 1551.93 Q1024.22 1551.93 1022.39 1555.49 Q1020.59 1559.03 1020.59 1566.16 Q1020.59 1573.27 1022.39 1576.83 Q1024.22 1580.38 1027.83 1580.38 Q1031.47 1580.38 1033.27 1576.83 Q1035.1 1573.27 1035.1 1566.16 Q1035.1 1559.03 1033.27 1555.49 Q1031.47 1551.93 1027.83 1551.93 M1027.83 1548.22 Q1033.64 1548.22 1036.7 1552.83 Q1039.78 1557.41 1039.78 1566.16 Q1039.78 1574.89 1036.7 1579.5 Q1033.64 1584.08 1027.83 1584.08 Q1022.02 1584.08 1018.94 1579.5 Q1015.89 1574.89 1015.89 1566.16 Q1015.89 1557.41 1018.94 1552.83 Q1022.02 1548.22 1027.83 1548.22 Z" fill="#000000" fill-rule="nonzero" fill-opacity="1" /><path clip-path="url(#clip040)" d="M1389.74 1579.47 L1406.06 1579.47 L1406.06 1583.41 L1384.12 1583.41 L1384.12 1579.47 Q1386.78 1576.72 1391.36 1572.09 Q1395.97 1567.44 1397.15 1566.09 Q1399.39 1563.57 1400.27 1561.83 Q1401.18 1560.07 1401.18 1558.38 Q1401.18 1555.63 1399.23 1553.89 Q1397.31 1552.16 1394.21 1552.16 Q1392.01 1552.16 1389.56 1552.92 Q1387.13 1553.69 1384.35 1555.24 L1384.35 1550.51 Q1387.17 1549.38 1389.63 1548.8 Q1392.08 1548.22 1394.12 1548.22 Q1399.49 1548.22 1402.68 1550.91 Q1405.88 1553.59 1405.88 1558.08 Q1405.88 1560.21 1405.07 1562.13 Q1404.28 1564.03 1402.17 1566.63 Q1401.59 1567.3 1398.49 1570.51 Q1395.39 1573.71 1389.74 1579.47 Z" fill="#000000" fill-rule="nonzero" fill-opacity="1" /><path clip-path="url(#clip040)" d="M1425.88 1551.93 Q1422.26 1551.93 1420.44 1555.49 Q1418.63 1559.03 1418.63 1566.16 Q1418.63 1573.27 1420.44 1576.83 Q1422.26 1580.38 1425.88 1580.38 Q1429.51 1580.38 1431.32 1576.83 Q1433.14 1573.27 1433.14 1566.16 Q1433.14 1559.03 1431.32 1555.49 Q1429.51 1551.93 1425.88 1551.93 M1425.88 1548.22 Q1431.69 1548.22 1434.74 1552.83 Q1437.82 1557.41 1437.82 1566.16 Q1437.82 1574.89 1434.74 1579.5 Q1431.69 1584.08 1425.88 1584.08 Q1420.07 1584.08 1416.99 1579.5 Q1413.93 1574.89 1413.93 1566.16 Q1413.93 1557.41 1416.99 1552.83 Q1420.07 1548.22 1425.88 1548.22 Z" fill="#000000" fill-rule="nonzero" fill-opacity="1" /><path clip-path="url(#clip040)" d="M1456.04 1551.93 Q1452.43 1551.93 1450.6 1555.49 Q1448.79 1559.03 1448.79 1566.16 Q1448.79 1573.27 1450.6 1576.83 Q1452.43 1580.38 1456.04 1580.38 Q1459.67 1580.38 1461.48 1576.83 Q1463.31 1573.27 1463.31 1566.16 Q1463.31 1559.03 1461.48 1555.49 Q1459.67 1551.93 1456.04 1551.93 M1456.04 1548.22 Q1461.85 1548.22 1464.9 1552.83 Q1467.98 1557.41 1467.98 1566.16 Q1467.98 1574.89 1464.9 1579.5 Q1461.85 1584.08 1456.04 1584.08 Q1450.23 1584.08 1447.15 1579.5 Q1444.09 1574.89 1444.09 1566.16 Q1444.09 1557.41 1447.15 1552.83 Q1450.23 1548.22 1456.04 1548.22 Z" fill="#000000" fill-rule="nonzero" fill-opacity="1" /><path clip-path="url(#clip040)" d="M1817.08 1579.47 L1833.4 1579.47 L1833.4 1583.41 L1811.46 1583.41 L1811.46 1579.47 Q1814.12 1576.72 1818.7 1572.09 Q1823.31 1567.44 1824.49 1566.09 Q1826.73 1563.57 1827.61 1561.83 Q1828.52 1560.07 1828.52 1558.38 Q1828.52 1555.63 1826.57 1553.89 Q1824.65 1552.16 1821.55 1552.16 Q1819.35 1552.16 1816.9 1552.92 Q1814.46 1553.69 1811.69 1555.24 L1811.69 1550.51 Q1814.51 1549.38 1816.96 1548.8 Q1819.42 1548.22 1821.46 1548.22 Q1826.83 1548.22 1830.02 1550.91 Q1833.21 1553.59 1833.21 1558.08 Q1833.21 1560.21 1832.4 1562.13 Q1831.62 1564.03 1829.51 1566.63 Q1828.93 1567.3 1825.83 1570.51 Q1822.73 1573.71 1817.08 1579.47 Z" fill="#000000" fill-rule="nonzero" fill-opacity="1" /><path clip-path="url(#clip040)" d="M1843.26 1548.85 L1861.62 1548.85 L1861.62 1552.78 L1847.54 1552.78 L1847.54 1561.26 Q1848.56 1560.91 1849.58 1560.75 Q1850.6 1560.56 1851.62 1560.56 Q1857.4 1560.56 1860.78 1563.73 Q1864.16 1566.9 1864.16 1572.32 Q1864.16 1577.9 1860.69 1581 Q1857.22 1584.08 1850.9 1584.08 Q1848.72 1584.08 1846.46 1583.71 Q1844.21 1583.34 1841.8 1582.6 L1841.8 1577.9 Q1843.89 1579.03 1846.11 1579.59 Q1848.33 1580.14 1850.81 1580.14 Q1854.81 1580.14 1857.15 1578.04 Q1859.49 1575.93 1859.49 1572.32 Q1859.49 1568.71 1857.15 1566.6 Q1854.81 1564.5 1850.81 1564.5 Q1848.93 1564.5 1847.06 1564.91 Q1845.21 1565.33 1843.26 1566.21 L1843.26 1548.85 Z" fill="#000000" fill-rule="nonzero" fill-opacity="1" /><path clip-path="url(#clip040)" d="M1883.38 1551.93 Q1879.77 1551.93 1877.94 1555.49 Q1876.13 1559.03 1876.13 1566.16 Q1876.13 1573.27 1877.94 1576.83 Q1879.77 1580.38 1883.38 1580.38 Q1887.01 1580.38 1888.82 1576.83 Q1890.65 1573.27 1890.65 1566.16 Q1890.65 1559.03 1888.82 1555.49 Q1887.01 1551.93 1883.38 1551.93 M1883.38 1548.22 Q1889.19 1548.22 1892.24 1552.83 Q1895.32 1557.41 1895.32 1566.16 Q1895.32 1574.89 1892.24 1579.5 Q1889.19 1584.08 1883.38 1584.08 Q1877.57 1584.08 1874.49 1579.5 Q1871.43 1574.89 1871.43 1566.16 Q1871.43 1557.41 1874.49 1552.83 Q1877.57 1548.22 1883.38 1548.22 Z" fill="#000000" fill-rule="nonzero" fill-opacity="1" /><path clip-path="url(#clip040)" d="M2254.49 1564.77 Q2257.85 1565.49 2259.72 1567.76 Q2261.62 1570.03 2261.62 1573.36 Q2261.62 1578.48 2258.1 1581.28 Q2254.58 1584.08 2248.1 1584.08 Q2245.92 1584.08 2243.61 1583.64 Q2241.32 1583.22 2238.86 1582.37 L2238.86 1577.85 Q2240.81 1578.99 2243.12 1579.57 Q2245.44 1580.14 2247.96 1580.14 Q2252.36 1580.14 2254.65 1578.41 Q2256.97 1576.67 2256.97 1573.36 Q2256.97 1570.31 2254.81 1568.59 Q2252.68 1566.86 2248.86 1566.86 L2244.84 1566.86 L2244.84 1563.01 L2249.05 1563.01 Q2252.5 1563.01 2254.33 1561.65 Q2256.16 1560.26 2256.16 1557.67 Q2256.16 1555.01 2254.26 1553.59 Q2252.38 1552.16 2248.86 1552.16 Q2246.94 1552.16 2244.74 1552.57 Q2242.54 1552.99 2239.91 1553.87 L2239.91 1549.7 Q2242.57 1548.96 2244.88 1548.59 Q2247.22 1548.22 2249.28 1548.22 Q2254.6 1548.22 2257.71 1550.65 Q2260.81 1553.06 2260.81 1557.18 Q2260.81 1560.05 2259.16 1562.04 Q2257.52 1564.01 2254.49 1564.77 Z" fill="#000000" fill-rule="nonzero" fill-opacity="1" /><path clip-path="url(#clip040)" d="M2280.48 1551.93 Q2276.87 1551.93 2275.04 1555.49 Q2273.24 1559.03 2273.24 1566.16 Q2273.24 1573.27 2275.04 1576.83 Q2276.87 1580.38 2280.48 1580.38 Q2284.12 1580.38 2285.92 1576.83 Q2287.75 1573.27 2287.75 1566.16 Q2287.75 1559.03 2285.92 1555.49 Q2284.12 1551.93 2280.48 1551.93 M2280.48 1548.22 Q2286.29 1548.22 2289.35 1552.83 Q2292.43 1557.41 2292.43 1566.16 Q2292.43 1574.89 2289.35 1579.5 Q2286.29 1584.08 2280.48 1584.08 Q2274.67 1584.08 2271.6 1579.5 Q2268.54 1574.89 2268.54 1566.16 Q2268.54 1557.41 2271.6 1552.83 Q2274.67 1548.22 2280.48 1548.22 Z" fill="#000000" fill-rule="nonzero" fill-opacity="1" /><path clip-path="url(#clip040)" d="M2310.65 1551.93 Q2307.03 1551.93 2305.21 1555.49 Q2303.4 1559.03 2303.4 1566.16 Q2303.4 1573.27 2305.21 1576.83 Q2307.03 1580.38 2310.65 1580.38 Q2314.28 1580.38 2316.09 1576.83 Q2317.91 1573.27 2317.91 1566.16 Q2317.91 1559.03 2316.09 1555.49 Q2314.28 1551.93 2310.65 1551.93 M2310.65 1548.22 Q2316.46 1548.22 2319.51 1552.83 Q2322.59 1557.41 2322.59 1566.16 Q2322.59 1574.89 2319.51 1579.5 Q2316.46 1584.08 2310.65 1584.08 Q2304.84 1584.08 2301.76 1579.5 Q2298.7 1574.89 2298.7 1566.16 Q2298.7 1557.41 2301.76 1552.83 Q2304.84 1548.22 2310.65 1548.22 Z" fill="#000000" fill-rule="nonzero" fill-opacity="1" /><polyline clip-path="url(#clip042)" style="stroke:#000000; stroke-linecap:round; stroke-linejoin:round; stroke-width:2; stroke-opacity:0.1; fill:none" points="86.9921,1480.18 2352.76,1480.18 "/>
<polyline clip-path="url(#clip042)" style="stroke:#000000; stroke-linecap:round; stroke-linejoin:round; stroke-width:2; stroke-opacity:0.1; fill:none" points="86.9921,1175.35 2352.76,1175.35 "/>
<polyline clip-path="url(#clip042)" style="stroke:#000000; stroke-linecap:round; stroke-linejoin:round; stroke-width:2; stroke-opacity:0.1; fill:none" points="86.9921,870.517 2352.76,870.517 "/>
<polyline clip-path="url(#clip042)" style="stroke:#000000; stroke-linecap:round; stroke-linejoin:round; stroke-width:2; stroke-opacity:0.1; fill:none" points="86.9921,565.686 2352.76,565.686 "/>
<polyline clip-path="url(#clip042)" style="stroke:#000000; stroke-linecap:round; stroke-linejoin:round; stroke-width:2; stroke-opacity:0.1; fill:none" points="86.9921,260.855 2352.76,260.855 "/>
<polyline clip-path="url(#clip040)" style="stroke:#000000; stroke-linecap:round; stroke-linejoin:round; stroke-width:4; stroke-opacity:1; fill:none" points="86.9921,1521.01 86.9921,47.2441 "/>
<polyline clip-path="url(#clip040)" style="stroke:#000000; stroke-linecap:round; stroke-linejoin:round; stroke-width:4; stroke-opacity:1; fill:none" points="86.9921,1480.18 105.89,1480.18 "/>
<polyline clip-path="url(#clip040)" style="stroke:#000000; stroke-linecap:round; stroke-linejoin:round; stroke-width:4; stroke-opacity:1; fill:none" points="86.9921,1175.35 105.89,1175.35 "/>
<polyline clip-path="url(#clip040)" style="stroke:#000000; stroke-linecap:round; stroke-linejoin:round; stroke-width:4; stroke-opacity:1; fill:none" points="86.9921,870.517 105.89,870.517 "/>
<polyline clip-path="url(#clip040)" style="stroke:#000000; stroke-linecap:round; stroke-linejoin:round; stroke-width:4; stroke-opacity:1; fill:none" points="86.9921,565.686 105.89,565.686 "/>
<polyline clip-path="url(#clip040)" style="stroke:#000000; stroke-linecap:round; stroke-linejoin:round; stroke-width:4; stroke-opacity:1; fill:none" points="86.9921,260.855 105.89,260.855 "/>
<path clip-path="url(#clip040)" d="M10.8708 1517.88 Q10.8708 1521.49 14.4356 1523.32 Q17.9773 1525.12 25.1068 1525.12 Q32.2133 1525.12 35.7781 1523.32 Q39.3197 1521.49 39.3197 1517.88 Q39.3197 1514.24 35.7781 1512.44 Q32.2133 1510.61 25.1068 1510.61 Q17.9773 1510.61 14.4356 1512.44 Q10.8708 1514.24 10.8708 1517.88 M7.16713 1517.88 Q7.16713 1512.07 11.7736 1509.01 Q16.3569 1505.93 25.1068 1505.93 Q33.8337 1505.93 38.4401 1509.01 Q43.0234 1512.07 43.0234 1517.88 Q43.0234 1523.69 38.4401 1526.76 Q33.8337 1529.82 25.1068 1529.82 Q16.3569 1529.82 11.7736 1526.76 Q7.16713 1523.69 7.16713 1517.88 Z" fill="#000000" fill-rule="nonzero" fill-opacity="1" /><path clip-path="url(#clip040)" d="M36.4725 1497.71 L36.4725 1492.83 L42.3521 1492.83 L42.3521 1497.71 L36.4725 1497.71 Z" fill="#000000" fill-rule="nonzero" fill-opacity="1" /><path clip-path="url(#clip040)" d="M10.8708 1472.64 Q10.8708 1476.26 14.4356 1478.08 Q17.9773 1479.89 25.1068 1479.89 Q32.2133 1479.89 35.7781 1478.08 Q39.3197 1476.26 39.3197 1472.64 Q39.3197 1469.01 35.7781 1467.2 Q32.2133 1465.38 25.1068 1465.38 Q17.9773 1465.38 14.4356 1467.2 Q10.8708 1469.01 10.8708 1472.64 M7.16713 1472.64 Q7.16713 1466.83 11.7736 1463.78 Q16.3569 1460.7 25.1068 1460.7 Q33.8337 1460.7 38.4401 1463.78 Q43.0234 1466.83 43.0234 1472.64 Q43.0234 1478.45 38.4401 1481.53 Q33.8337 1484.59 25.1068 1484.59 Q16.3569 1484.59 11.7736 1481.53 Q7.16713 1478.45 7.16713 1472.64 Z" fill="#000000" fill-rule="nonzero" fill-opacity="1" /><path clip-path="url(#clip040)" d="M10.8708 1442.48 Q10.8708 1446.09 14.4356 1447.92 Q17.9773 1449.73 25.1068 1449.73 Q32.2133 1449.73 35.7781 1447.92 Q39.3197 1446.09 39.3197 1442.48 Q39.3197 1438.85 35.7781 1437.04 Q32.2133 1435.21 25.1068 1435.21 Q17.9773 1435.21 14.4356 1437.04 Q10.8708 1438.85 10.8708 1442.48 M7.16713 1442.48 Q7.16713 1436.67 11.7736 1433.62 Q16.3569 1430.54 25.1068 1430.54 Q33.8337 1430.54 38.4401 1433.62 Q43.0234 1436.67 43.0234 1442.48 Q43.0234 1448.29 38.4401 1451.37 Q33.8337 1454.43 25.1068 1454.43 Q16.3569 1454.43 11.7736 1451.37 Q7.16713 1448.29 7.16713 1442.48 Z" fill="#000000" fill-rule="nonzero" fill-opacity="1" /><path clip-path="url(#clip040)" d="M10.8708 1212.43 Q10.8708 1216.04 14.4356 1217.87 Q17.9773 1219.68 25.1068 1219.68 Q32.2133 1219.68 35.7781 1217.87 Q39.3197 1216.04 39.3197 1212.43 Q39.3197 1208.8 35.7781 1206.99 Q32.2133 1205.16 25.1068 1205.16 Q17.9773 1205.16 14.4356 1206.99 Q10.8708 1208.8 10.8708 1212.43 M7.16713 1212.43 Q7.16713 1206.62 11.7736 1203.57 Q16.3569 1200.49 25.1068 1200.49 Q33.8337 1200.49 38.4401 1203.57 Q43.0234 1206.62 43.0234 1212.43 Q43.0234 1218.24 38.4401 1221.32 Q33.8337 1224.38 25.1068 1224.38 Q16.3569 1224.38 11.7736 1221.32 Q7.16713 1218.24 7.16713 1212.43 Z" fill="#000000" fill-rule="nonzero" fill-opacity="1" /><path clip-path="url(#clip040)" d="M36.4725 1192.27 L36.4725 1187.38 L42.3521 1187.38 L42.3521 1192.27 L36.4725 1192.27 Z" fill="#000000" fill-rule="nonzero" fill-opacity="1" /><path clip-path="url(#clip040)" d="M10.8708 1167.2 Q10.8708 1170.81 14.4356 1172.64 Q17.9773 1174.45 25.1068 1174.45 Q32.2133 1174.45 35.7781 1172.64 Q39.3197 1170.81 39.3197 1167.2 Q39.3197 1163.57 35.7781 1161.76 Q32.2133 1159.93 25.1068 1159.93 Q17.9773 1159.93 14.4356 1161.76 Q10.8708 1163.57 10.8708 1167.2 M7.16713 1167.2 Q7.16713 1161.39 11.7736 1158.33 Q16.3569 1155.26 25.1068 1155.26 Q33.8337 1155.26 38.4401 1158.33 Q43.0234 1161.39 43.0234 1167.2 Q43.0234 1173.01 38.4401 1176.09 Q33.8337 1179.14 25.1068 1179.14 Q16.3569 1179.14 11.7736 1176.09 Q7.16713 1173.01 7.16713 1167.2 Z" fill="#000000" fill-rule="nonzero" fill-opacity="1" /><path clip-path="url(#clip040)" d="M38.417 1146.23 L38.417 1138.59 L12.0514 1138.59 L13.718 1146.9 L9.45878 1146.9 L7.79213 1138.64 L7.79213 1133.96 L38.417 1133.96 L38.417 1126.32 L42.3521 1126.32 L42.3521 1146.23 L38.417 1146.23 Z" fill="#000000" fill-rule="nonzero" fill-opacity="1" /><path clip-path="url(#clip040)" d="M10.8708 907.415 Q10.8708 911.026 14.4356 912.855 Q17.9773 914.66 25.1068 914.66 Q32.2133 914.66 35.7781 912.855 Q39.3197 911.026 39.3197 907.415 Q39.3197 903.781 35.7781 901.975 Q32.2133 900.147 25.1068 900.147 Q17.9773 900.147 14.4356 901.975 Q10.8708 903.781 10.8708 907.415 M7.16713 907.415 Q7.16713 901.605 11.7736 898.549 Q16.3569 895.471 25.1068 895.471 Q33.8337 895.471 38.4401 898.549 Q43.0234 901.605 43.0234 907.415 Q43.0234 913.225 38.4401 916.304 Q33.8337 919.359 25.1068 919.359 Q16.3569 919.359 11.7736 916.304 Q7.16713 913.225 7.16713 907.415 Z" fill="#000000" fill-rule="nonzero" fill-opacity="1" /><path clip-path="url(#clip040)" d="M36.4725 887.253 L36.4725 882.369 L42.3521 882.369 L42.3521 887.253 L36.4725 887.253 Z" fill="#000000" fill-rule="nonzero" fill-opacity="1" /><path clip-path="url(#clip040)" d="M10.8708 862.184 Q10.8708 865.795 14.4356 867.624 Q17.9773 869.429 25.1068 869.429 Q32.2133 869.429 35.7781 867.624 Q39.3197 865.795 39.3197 862.184 Q39.3197 858.55 35.7781 856.744 Q32.2133 854.915 25.1068 854.915 Q17.9773 854.915 14.4356 856.744 Q10.8708 858.55 10.8708 862.184 M7.16713 862.184 Q7.16713 856.374 11.7736 853.318 Q16.3569 850.239 25.1068 850.239 Q33.8337 850.239 38.4401 853.318 Q43.0234 856.374 43.0234 862.184 Q43.0234 867.994 38.4401 871.073 Q33.8337 874.128 25.1068 874.128 Q16.3569 874.128 11.7736 871.073 Q7.16713 867.994 7.16713 862.184 Z" fill="#000000" fill-rule="nonzero" fill-opacity="1" /><path clip-path="url(#clip040)" d="M38.417 837.994 L38.417 821.675 L42.3521 821.675 L42.3521 843.619 L38.417 843.619 Q35.6623 840.957 31.0327 836.374 Q26.38 831.767 25.0374 830.587 Q22.5143 828.341 20.7782 827.462 Q19.0189 826.559 17.3291 826.559 Q14.5745 826.559 12.8384 828.503 Q11.1023 830.425 11.1023 833.527 Q11.1023 835.726 11.8662 838.179 Q12.6301 840.61 14.181 843.388 L9.45878 843.388 Q8.32453 840.564 7.74583 838.11 Q7.16713 835.656 7.16713 833.619 Q7.16713 828.249 9.8523 825.054 Q12.5375 821.86 17.0282 821.86 Q19.1578 821.86 21.0791 822.67 Q22.9772 823.457 25.5698 825.564 Q26.2411 826.142 29.4587 829.244 Q32.6531 832.346 38.417 837.994 Z" fill="#000000" fill-rule="nonzero" fill-opacity="1" /><path clip-path="url(#clip040)" d="M10.8708 603.059 Q10.8708 606.67 14.4356 608.498 Q17.9773 610.304 25.1068 610.304 Q32.2133 610.304 35.7781 608.498 Q39.3197 606.67 39.3197 603.059 Q39.3197 599.424 35.7781 597.619 Q32.2133 595.79 25.1068 595.79 Q17.9773 595.79 14.4356 597.619 Q10.8708 599.424 10.8708 603.059 M7.16713 603.059 Q7.16713 597.249 11.7736 594.193 Q16.3569 591.114 25.1068 591.114 Q33.8337 591.114 38.4401 594.193 Q43.0234 597.249 43.0234 603.059 Q43.0234 608.869 38.4401 611.948 Q33.8337 615.003 25.1068 615.003 Q16.3569 615.003 11.7736 611.948 Q7.16713 608.869 7.16713 603.059 Z" fill="#000000" fill-rule="nonzero" fill-opacity="1" /><path clip-path="url(#clip040)" d="M36.4725 582.897 L36.4725 578.013 L42.3521 578.013 L42.3521 582.897 L36.4725 582.897 Z" fill="#000000" fill-rule="nonzero" fill-opacity="1" /><path clip-path="url(#clip040)" d="M10.8708 557.827 Q10.8708 561.439 14.4356 563.267 Q17.9773 565.073 25.1068 565.073 Q32.2133 565.073 35.7781 563.267 Q39.3197 561.439 39.3197 557.827 Q39.3197 554.193 35.7781 552.388 Q32.2133 550.559 25.1068 550.559 Q17.9773 550.559 14.4356 552.388 Q10.8708 554.193 10.8708 557.827 M7.16713 557.827 Q7.16713 552.017 11.7736 548.962 Q16.3569 545.883 25.1068 545.883 Q33.8337 545.883 38.4401 548.962 Q43.0234 552.017 43.0234 557.827 Q43.0234 563.638 38.4401 566.716 Q33.8337 569.772 25.1068 569.772 Q16.3569 569.772 11.7736 566.716 Q7.16713 563.638 7.16713 557.827 Z" fill="#000000" fill-rule="nonzero" fill-opacity="1" /><path clip-path="url(#clip040)" d="M23.718 523.499 Q24.4356 520.142 26.7041 518.267 Q28.9726 516.369 32.3059 516.369 Q37.4216 516.369 40.2225 519.888 Q43.0234 523.406 43.0234 529.888 Q43.0234 532.064 42.5836 534.378 Q42.1669 536.67 41.3105 539.124 L36.7966 539.124 Q37.9309 537.179 38.5096 534.865 Q39.0883 532.55 39.0883 530.027 Q39.0883 525.629 37.3522 523.337 Q35.6161 521.022 32.3059 521.022 Q29.2503 521.022 27.5374 523.175 Q25.8013 525.304 25.8013 529.124 L25.8013 533.152 L21.9587 533.152 L21.9587 528.939 Q21.9587 525.49 20.593 523.661 Q19.2041 521.832 16.6115 521.832 Q13.9495 521.832 12.5375 523.73 Q11.1023 525.605 11.1023 529.124 Q11.1023 531.045 11.519 533.244 Q11.9356 535.443 12.8152 538.082 L8.6486 538.082 Q7.90787 535.42 7.5375 533.105 Q7.16713 530.767 7.16713 528.707 Q7.16713 523.383 9.59767 520.281 Q12.0051 517.179 16.1254 517.179 Q18.9958 517.179 20.9865 518.823 Q22.9541 520.467 23.718 523.499 Z" fill="#000000" fill-rule="nonzero" fill-opacity="1" /><path clip-path="url(#clip040)" d="M10.8708 298.795 Q10.8708 302.406 14.4356 304.235 Q17.9773 306.04 25.1068 306.04 Q32.2133 306.04 35.7781 304.235 Q39.3197 302.406 39.3197 298.795 Q39.3197 295.161 35.7781 293.355 Q32.2133 291.526 25.1068 291.526 Q17.9773 291.526 14.4356 293.355 Q10.8708 295.161 10.8708 298.795 M7.16713 298.795 Q7.16713 292.985 11.7736 289.929 Q16.3569 286.851 25.1068 286.851 Q33.8337 286.851 38.4401 289.929 Q43.0234 292.985 43.0234 298.795 Q43.0234 304.605 38.4401 307.684 Q33.8337 310.739 25.1068 310.739 Q16.3569 310.739 11.7736 307.684 Q7.16713 304.605 7.16713 298.795 Z" fill="#000000" fill-rule="nonzero" fill-opacity="1" /><path clip-path="url(#clip040)" d="M36.4725 278.633 L36.4725 273.749 L42.3521 273.749 L42.3521 278.633 L36.4725 278.633 Z" fill="#000000" fill-rule="nonzero" fill-opacity="1" /><path clip-path="url(#clip040)" d="M10.8708 253.564 Q10.8708 257.175 14.4356 259.003 Q17.9773 260.809 25.1068 260.809 Q32.2133 260.809 35.7781 259.003 Q39.3197 257.175 39.3197 253.564 Q39.3197 249.929 35.7781 248.124 Q32.2133 246.295 25.1068 246.295 Q17.9773 246.295 14.4356 248.124 Q10.8708 249.929 10.8708 253.564 M7.16713 253.564 Q7.16713 247.754 11.7736 244.698 Q16.3569 241.619 25.1068 241.619 Q33.8337 241.619 38.4401 244.698 Q43.0234 247.754 43.0234 253.564 Q43.0234 259.374 38.4401 262.453 Q33.8337 265.508 25.1068 265.508 Q16.3569 265.508 11.7736 262.453 Q7.16713 259.374 7.16713 253.564 Z" fill="#000000" fill-rule="nonzero" fill-opacity="1" /><path clip-path="url(#clip040)" d="M11.8662 220.555 L30.3152 232.36 L30.3152 220.555 L11.8662 220.555 M7.79213 221.781 L7.79213 215.902 L30.3152 215.902 L30.3152 210.971 L34.204 210.971 L34.204 215.902 L42.3521 215.902 L42.3521 220.555 L34.204 220.555 L34.204 236.156 L29.6902 236.156 L7.79213 221.781 Z" fill="#000000" fill-rule="nonzero" fill-opacity="1" /><polyline clip-path="url(#clip042)" style="stroke:#009af9; stroke-linecap:round; stroke-linejoin:round; stroke-width:4; stroke-opacity:1; fill:none" points="151.118,1478.8 152.926,1478.67 154.735,1478.53 171.459,1476.52 188.183,1472.45 198.233,1468.36 208.283,1462.44 216.781,1455.52 225.278,1446.33 229.894,1440.2 234.509,1433.13 239.124,1425.03 243.74,1415.78 247.994,1406.13 252.249,1395.31 256.504,1383.23 260.759,1369.79 265.321,1353.76 269.883,1335.93 274.444,1316.21 279.006,1294.49 284.291,1266.69 289.576,1235.96 294.862,1202.19 300.147,1165.35 304.844,1129.99 309.541,1092.21 314.237,1052.04 318.934,1009.58 323.053,970.555 327.172,929.969 331.29,887.954 335.409,844.666 344.39,746.757 353.371,645.912 362.406,544.223 371.44,445.387 373.937,419.014 376.434,393.184 378.931,367.968 381.429,343.439 383.926,319.666 386.423,296.72 388.92,274.668 391.417,253.576 393.793,234.458 396.169,216.322 398.545,199.219 400.921,183.197 403.297,168.302 405.673,154.578 408.049,142.065 410.425,130.799 412.896,120.445 415.366,111.509 417.837,104.021 420.307,98.0035 422.778,93.4778 425.248,90.4581 427.719,88.9544 430.189,88.9715 432.269,90.1651 434.348,92.4335 436.428,95.7717 438.508,100.172 440.587,105.624 442.667,112.115 444.746,119.63 446.826,128.153 449.365,139.894 451.904,153.068 454.443,167.63 456.982,183.53 459.521,200.717 462.06,219.134 464.599,238.72 467.138,259.414 471.79,299.979 476.441,343.613 478.767,366.441 481.093,389.869 483.419,413.838 485.745,438.291 494.337,531.87 502.93,628.388 511.634,726.385 520.337,822.103 525.215,873.932 530.092,924.054 534.969,972.202 539.847,1018.16 544.266,1057.75 548.686,1095.31 553.106,1130.75 557.525,1164.04 562.585,1199.48 567.646,1232.09 572.706,1261.92 577.766,1289.04 582.451,1311.83 587.137,1332.48 591.822,1351.11 596.507,1367.83 601.126,1382.57 605.745,1395.7 610.364,1407.34 614.984,1417.62 619.468,1426.4 623.953,1434.12 628.438,1440.88 632.923,1446.76 642.118,1456.48 651.313,1463.63 661.387,1469.2 671.461,1473.03 686.095,1476.47 700.73,1478.32 703.732,1478.58 706.734,1478.8 "/>
<polyline clip-path="url(#clip042)" style="stroke:#e26f46; stroke-linecap:round; stroke-linejoin:round; stroke-width:4; stroke-opacity:1; fill:none" points="766.56,1479.15 768.999,1479.06 771.438,1478.95 793.988,1477.46 816.539,1474.45 830.091,1471.42 843.643,1467.02 855.101,1461.89 866.559,1455.08 872.782,1450.53 879.005,1445.29 885.229,1439.28 891.452,1432.42 897.189,1425.26 902.927,1417.24 908.664,1408.28 914.401,1398.31 920.552,1386.42 926.703,1373.2 932.854,1358.58 939.005,1342.47 946.132,1321.85 953.258,1299.06 960.385,1274.02 967.511,1246.69 973.845,1220.47 980.178,1192.45 986.511,1162.66 992.844,1131.17 998.398,1102.23 1003.95,1072.13 1009.51,1040.97 1015.06,1008.87 1027.17,936.259 1039.28,861.47 1051.46,786.056 1063.64,712.757 1067.01,693.198 1070.38,674.042 1073.74,655.341 1077.11,637.15 1080.48,619.52 1083.85,602.502 1087.21,586.148 1090.58,570.506 1093.78,556.328 1096.99,542.878 1100.19,530.193 1103.4,518.311 1106.6,507.265 1109.8,497.087 1113.01,487.807 1116.21,479.452 1119.54,471.773 1122.87,465.146 1126.2,459.592 1129.54,455.13 1132.87,451.774 1136.2,449.534 1139.53,448.419 1142.86,448.432 1145.66,449.317 1148.47,450.999 1151.27,453.475 1154.08,456.738 1156.88,460.782 1159.69,465.596 1162.49,471.169 1165.29,477.489 1168.72,486.197 1172.14,495.967 1175.56,506.766 1178.99,518.558 1182.41,531.305 1185.83,544.963 1189.26,559.489 1192.68,574.835 1198.95,604.919 1205.23,637.279 1208.36,654.209 1211.5,671.583 1214.64,689.359 1217.77,707.494 1229.36,776.894 1240.94,848.474 1252.68,921.151 1264.42,992.137 1270.99,1030.57 1277.57,1067.75 1284.15,1103.45 1290.72,1137.53 1296.68,1166.9 1302.64,1194.75 1308.6,1221.04 1314.56,1245.72 1321.38,1272.01 1328.21,1296.19 1335.03,1318.31 1341.85,1338.43 1348.17,1355.32 1354.49,1370.64 1360.81,1384.46 1367.12,1396.86 1373.35,1407.79 1379.58,1417.53 1385.81,1426.16 1392.04,1433.78 1398.08,1440.3 1404.13,1446.02 1410.18,1451.03 1416.23,1455.39 1428.62,1462.6 1441.02,1467.9 1454.61,1472.04 1468.19,1474.88 1487.92,1477.43 1507.66,1478.8 1511.71,1478.99 1515.75,1479.15 "/>
<polyline clip-path="url(#clip042)" style="stroke:#3da44d; stroke-linecap:round; stroke-linejoin:round; stroke-width:4; stroke-opacity:1; fill:none" points="1418.15,1479.3 1420.98,1479.21 1423.81,1479.12 1450.01,1477.84 1476.22,1475.25 1491.96,1472.64 1507.71,1468.86 1521.02,1464.44 1534.33,1458.57 1541.56,1454.66 1548.8,1450.15 1556.03,1444.98 1563.26,1439.07 1569.92,1432.91 1576.59,1426.01 1583.26,1418.3 1589.92,1409.72 1597.07,1399.49 1604.22,1388.11 1611.36,1375.52 1618.51,1361.65 1626.79,1343.91 1635.07,1324.29 1643.35,1302.75 1651.63,1279.23 1658.99,1256.66 1666.35,1232.54 1673.71,1206.91 1681.06,1179.8 1687.52,1154.89 1693.97,1128.99 1700.42,1102.17 1706.88,1074.54 1720.95,1012.05 1735.02,947.679 1749.17,882.773 1763.32,819.687 1767.24,802.853 1771.15,786.366 1775.06,770.272 1778.97,754.615 1782.89,739.441 1786.8,724.795 1790.71,710.719 1794.62,697.257 1798.35,685.055 1802.07,673.479 1805.79,662.562 1809.51,652.335 1813.24,642.828 1816.96,634.068 1820.68,626.081 1824.4,618.891 1828.27,612.282 1832.14,606.578 1836.01,601.798 1839.89,597.957 1843.76,595.069 1847.63,593.141 1851.5,592.181 1855.37,592.192 1858.63,592.954 1861.88,594.402 1865.14,596.533 1868.4,599.341 1871.66,602.821 1874.92,606.965 1878.17,611.762 1881.43,617.201 1885.41,624.696 1889.39,633.104 1893.37,642.399 1897.34,652.548 1901.32,663.518 1905.3,675.273 1909.28,687.775 1913.25,700.983 1920.54,726.875 1927.83,754.726 1931.47,769.297 1935.12,784.251 1938.76,799.55 1942.41,815.158 1955.87,874.888 1969.33,936.494 1982.97,999.044 1996.6,1060.14 2004.24,1093.22 2011.89,1125.21 2019.53,1155.95 2027.17,1185.28 2034.09,1210.55 2041.02,1234.52 2047.94,1257.14 2054.86,1278.39 2062.79,1301.01 2070.72,1321.83 2078.65,1340.87 2086.58,1358.18 2093.92,1372.72 2101.26,1385.9 2108.6,1397.79 2115.94,1408.47 2123.17,1417.87 2130.41,1426.26 2137.65,1433.69 2144.88,1440.25 2151.91,1445.86 2158.94,1450.78 2165.96,1455.09 2172.99,1458.85 2187.4,1465.05 2201.8,1469.61 2217.58,1473.17 2233.37,1475.61 2256.3,1477.81 2279.22,1478.99 2283.93,1479.16 2288.63,1479.3 "/>
<path clip-path="url(#clip040)" d="M1882.83 303.73 L2277.23 303.73 L2277.23 96.3696 L1882.83 96.3696  Z" fill="#ffffff" fill-rule="evenodd" fill-opacity="1"/>
<polyline clip-path="url(#clip040)" style="stroke:#000000; stroke-linecap:round; stroke-linejoin:round; stroke-width:4; stroke-opacity:1; fill:none" points="1882.83,303.73 2277.23,303.73 2277.23,96.3696 1882.83,96.3696 1882.83,303.73 "/>
<polyline clip-path="url(#clip040)" style="stroke:#009af9; stroke-linecap:round; stroke-linejoin:round; stroke-width:4; stroke-opacity:1; fill:none" points="1908.01,148.21 2059.06,148.21 "/>
<path clip-path="url(#clip040)" d="M2103.49 149.054 L2088.75 149.054 Q2089.09 155.976 2090.69 158.916 Q2092.68 162.527 2096.13 162.527 Q2099.6 162.527 2101.52 158.892 Q2103.21 155.698 2103.49 149.054 M2103.42 145.119 Q2102.77 138.545 2101.52 136.23 Q2099.53 132.573 2096.13 132.573 Q2092.59 132.573 2090.71 136.184 Q2089.23 139.101 2088.79 145.119 L2103.42 145.119 M2096.13 129.101 Q2101.69 129.101 2104.86 134.008 Q2108.03 138.892 2108.03 147.55 Q2108.03 156.184 2104.86 161.091 Q2101.69 166.022 2096.13 166.022 Q2090.55 166.022 2087.4 161.091 Q2084.23 156.184 2084.23 147.55 Q2084.23 138.892 2087.4 134.008 Q2090.55 129.101 2096.13 129.101 Z" fill="#000000" fill-rule="nonzero" fill-opacity="1" /><path clip-path="url(#clip040)" d="M2115.64 143.962 L2145.32 143.962 L2145.32 147.851 L2115.64 147.851 L2115.64 143.962 M2115.64 153.406 L2145.32 153.406 L2145.32 157.341 L2115.64 157.341 L2115.64 153.406 Z" fill="#000000" fill-rule="nonzero" fill-opacity="1" /><path clip-path="url(#clip040)" d="M2156.22 161.554 L2163.86 161.554 L2163.86 135.189 L2155.55 136.855 L2155.55 132.596 L2163.82 130.93 L2168.49 130.93 L2168.49 161.554 L2176.13 161.554 L2176.13 165.49 L2156.22 165.49 L2156.22 161.554 Z" fill="#000000" fill-rule="nonzero" fill-opacity="1" /><path clip-path="url(#clip040)" d="M2192.54 130.93 L2196.48 130.93 L2184.44 169.888 L2180.5 169.888 L2192.54 130.93 Z" fill="#000000" fill-rule="nonzero" fill-opacity="1" /><path clip-path="url(#clip040)" d="M2202.36 161.554 L2210 161.554 L2210 135.189 L2201.69 136.855 L2201.69 132.596 L2209.95 130.93 L2214.62 130.93 L2214.62 161.554 L2222.26 161.554 L2222.26 165.49 L2202.36 165.49 L2202.36 161.554 Z" fill="#000000" fill-rule="nonzero" fill-opacity="1" /><path clip-path="url(#clip040)" d="M2235.74 161.554 L2252.06 161.554 L2252.06 165.49 L2230.11 165.49 L2230.11 161.554 Q2232.77 158.8 2237.36 154.17 Q2241.96 149.517 2243.14 148.175 Q2245.39 145.652 2246.27 143.916 Q2247.17 142.156 2247.17 140.467 Q2247.17 137.712 2245.23 135.976 Q2243.31 134.24 2240.2 134.24 Q2238 134.24 2235.55 135.004 Q2233.12 135.767 2230.34 137.318 L2230.34 132.596 Q2233.17 131.462 2235.62 130.883 Q2238.07 130.305 2240.11 130.305 Q2245.48 130.305 2248.68 132.99 Q2251.87 135.675 2251.87 140.166 Q2251.87 142.295 2251.06 144.217 Q2250.27 146.115 2248.17 148.707 Q2247.59 149.379 2244.49 152.596 Q2241.38 155.791 2235.74 161.554 Z" fill="#000000" fill-rule="nonzero" fill-opacity="1" /><polyline clip-path="url(#clip040)" style="stroke:#e26f46; stroke-linecap:round; stroke-linejoin:round; stroke-width:4; stroke-opacity:1; fill:none" points="1908.01,200.05 2059.06,200.05 "/>
<path clip-path="url(#clip040)" d="M2103.49 200.894 L2088.75 200.894 Q2089.09 207.816 2090.69 210.756 Q2092.68 214.367 2096.13 214.367 Q2099.6 214.367 2101.52 210.732 Q2103.21 207.538 2103.49 200.894 M2103.42 196.959 Q2102.77 190.385 2101.52 188.07 Q2099.53 184.413 2096.13 184.413 Q2092.59 184.413 2090.71 188.024 Q2089.23 190.941 2088.79 196.959 L2103.42 196.959 M2096.13 180.941 Q2101.69 180.941 2104.86 185.848 Q2108.03 190.732 2108.03 199.39 Q2108.03 208.024 2104.86 212.931 Q2101.69 217.862 2096.13 217.862 Q2090.55 217.862 2087.4 212.931 Q2084.23 208.024 2084.23 199.39 Q2084.23 190.732 2087.4 185.848 Q2090.55 180.941 2096.13 180.941 Z" fill="#000000" fill-rule="nonzero" fill-opacity="1" /><path clip-path="url(#clip040)" d="M2115.64 195.802 L2145.32 195.802 L2145.32 199.691 L2115.64 199.691 L2115.64 195.802 M2115.64 205.246 L2145.32 205.246 L2145.32 209.181 L2115.64 209.181 L2115.64 205.246 Z" fill="#000000" fill-rule="nonzero" fill-opacity="1" /><path clip-path="url(#clip040)" d="M2156.22 213.394 L2163.86 213.394 L2163.86 187.029 L2155.55 188.695 L2155.55 184.436 L2163.82 182.77 L2168.49 182.77 L2168.49 213.394 L2176.13 213.394 L2176.13 217.33 L2156.22 217.33 L2156.22 213.394 Z" fill="#000000" fill-rule="nonzero" fill-opacity="1" /><path clip-path="url(#clip040)" d="M2192.54 182.77 L2196.48 182.77 L2184.44 221.728 L2180.5 221.728 L2192.54 182.77 Z" fill="#000000" fill-rule="nonzero" fill-opacity="1" /><path clip-path="url(#clip040)" d="M2212.12 198.186 Q2208.98 198.186 2207.12 200.339 Q2205.3 202.492 2205.3 206.242 Q2205.3 209.968 2207.12 212.144 Q2208.98 214.297 2212.12 214.297 Q2215.27 214.297 2217.1 212.144 Q2218.95 209.968 2218.95 206.242 Q2218.95 202.492 2217.1 200.339 Q2215.27 198.186 2212.12 198.186 M2221.41 183.533 L2221.41 187.793 Q2219.65 186.959 2217.84 186.52 Q2216.06 186.08 2214.3 186.08 Q2209.67 186.08 2207.22 189.205 Q2204.79 192.33 2204.44 198.649 Q2205.81 196.635 2207.87 195.57 Q2209.93 194.482 2212.4 194.482 Q2217.61 194.482 2220.62 197.654 Q2223.65 200.802 2223.65 206.242 Q2223.65 211.566 2220.5 214.783 Q2217.36 218.001 2212.12 218.001 Q2206.13 218.001 2202.96 213.418 Q2199.79 208.811 2199.79 200.084 Q2199.79 191.89 2203.68 187.029 Q2207.56 182.145 2214.12 182.145 Q2215.87 182.145 2217.66 182.492 Q2219.46 182.839 2221.41 183.533 Z" fill="#000000" fill-rule="nonzero" fill-opacity="1" /><polyline clip-path="url(#clip040)" style="stroke:#3da44d; stroke-linecap:round; stroke-linejoin:round; stroke-width:4; stroke-opacity:1; fill:none" points="1908.01,251.89 2059.06,251.89 "/>
<path clip-path="url(#clip040)" d="M2103.49 252.734 L2088.75 252.734 Q2089.09 259.656 2090.69 262.596 Q2092.68 266.207 2096.13 266.207 Q2099.6 266.207 2101.52 262.572 Q2103.21 259.378 2103.49 252.734 M2103.42 248.799 Q2102.77 242.225 2101.52 239.91 Q2099.53 236.253 2096.13 236.253 Q2092.59 236.253 2090.71 239.864 Q2089.23 242.781 2088.79 248.799 L2103.42 248.799 M2096.13 232.781 Q2101.69 232.781 2104.86 237.688 Q2108.03 242.572 2108.03 251.23 Q2108.03 259.864 2104.86 264.771 Q2101.69 269.702 2096.13 269.702 Q2090.55 269.702 2087.4 264.771 Q2084.23 259.864 2084.23 251.23 Q2084.23 242.572 2087.4 237.688 Q2090.55 232.781 2096.13 232.781 Z" fill="#000000" fill-rule="nonzero" fill-opacity="1" /><path clip-path="url(#clip040)" d="M2115.64 247.642 L2145.32 247.642 L2145.32 251.531 L2115.64 251.531 L2115.64 247.642 M2115.64 257.086 L2145.32 257.086 L2145.32 261.021 L2115.64 261.021 L2115.64 257.086 Z" fill="#000000" fill-rule="nonzero" fill-opacity="1" /><path clip-path="url(#clip040)" d="M2156.22 265.234 L2163.86 265.234 L2163.86 238.869 L2155.55 240.535 L2155.55 236.276 L2163.82 234.61 L2168.49 234.61 L2168.49 265.234 L2176.13 265.234 L2176.13 269.17 L2156.22 269.17 L2156.22 265.234 Z" fill="#000000" fill-rule="nonzero" fill-opacity="1" /><path clip-path="url(#clip040)" d="M2192.54 234.61 L2196.48 234.61 L2184.44 273.568 L2180.5 273.568 L2192.54 234.61 Z" fill="#000000" fill-rule="nonzero" fill-opacity="1" /><path clip-path="url(#clip040)" d="M2214.39 238.684 L2202.59 257.133 L2214.39 257.133 L2214.39 238.684 M2213.17 234.61 L2219.05 234.61 L2219.05 257.133 L2223.98 257.133 L2223.98 261.021 L2219.05 261.021 L2219.05 269.17 L2214.39 269.17 L2214.39 261.021 L2198.79 261.021 L2198.79 256.508 L2213.17 234.61 Z" fill="#000000" fill-rule="nonzero" fill-opacity="1" /></svg>
