<?xml version="1.0" encoding="utf-8"?>
<svg xmlns="http://www.w3.org/2000/svg" xmlns:xlink="http://www.w3.org/1999/xlink" width="600" height="400" viewBox="0 0 2400 1600">
<defs>
  <clipPath id="clip350">
    <rect x="0" y="0" width="2400" height="1600"/>
  </clipPath>
</defs>
<path clip-path="url(#clip350)" d="M0 1600 L2400 1600 L2400 0 L0 0  Z" fill="#ffffff" fill-rule="evenodd" fill-opacity="1"/>
<defs>
  <clipPath id="clip351">
    <rect x="480" y="0" width="1681" height="1600"/>
  </clipPath>
</defs>
<path clip-path="url(#clip350)" d="M86.9921 1521.01 L2352.76 1521.01 L2352.76 47.2441 L86.9921 47.2441  Z" fill="#ffffff" fill-rule="evenodd" fill-opacity="1"/>
<defs>
  <clipPath id="clip352">
    <rect x="86" y="47" width="2267" height="1475"/>
  </clipPath>
</defs>
<polyline clip-path="url(#clip352)" style="stroke:#000000; stroke-linecap:round; stroke-linejoin:round; stroke-width:2; stroke-opacity:0.1; fill:none" points="151.118,1521.01 151.118,47.2441 "/>
<polyline clip-path="url(#clip352)" style="stroke:#000000; stroke-linecap:round; stroke-linejoin:round; stroke-width:2; stroke-opacity:0.1; fill:none" points="685.496,1521.01 685.496,47.2441 "/>
<polyline clip-path="url(#clip352)" style="stroke:#000000; stroke-linecap:round; stroke-linejoin:round; stroke-width:2; stroke-opacity:0.1; fill:none" points="1219.87,1521.01 1219.87,47.2441 "/>
<polyline clip-path="url(#clip352)" style="stroke:#000000; stroke-linecap:round; stroke-linejoin:round; stroke-width:2; stroke-opacity:0.1; fill:none" points="1754.25,1521.01 1754.25,47.2441 "/>
<polyline clip-path="url(#clip352)" style="stroke:#000000; stroke-linecap:round; stroke-linejoin:round; stroke-width:2; stroke-opacity:0.1; fill:none" points="2288.63,1521.01 2288.63,47.2441 "/>
<polyline clip-path="url(#clip350)" style="stroke:#000000; stroke-linecap:round; stroke-linejoin:round; stroke-width:4; stroke-opacity:1; fill:none" points="86.9921,1521.01 2352.76,1521.01 "/>
<polyline clip-path="url(#clip350)" style="stroke:#000000; stroke-linecap:round; stroke-linejoin:round; stroke-width:4; stroke-opacity:1; fill:none" points="151.118,1521.01 151.118,1502.11 "/>
<polyline clip-path="url(#clip350)" style="stroke:#000000; stroke-linecap:round; stroke-linejoin:round; stroke-width:4; stroke-opacity:1; fill:none" points="685.496,1521.01 685.496,1502.11 "/>
<polyline clip-path="url(#clip350)" style="stroke:#000000; stroke-linecap:round; stroke-linejoin:round; stroke-width:4; stroke-opacity:1; fill:none" points="1219.87,1521.01 1219.87,1502.11 "/>
<polyline clip-path="url(#clip350)" style="stroke:#000000; stroke-linecap:round; stroke-linejoin:round; stroke-width:4; stroke-opacity:1; fill:none" points="1754.25,1521.01 1754.25,1502.11 "/>
<polyline clip-path="url(#clip350)" style="stroke:#000000; stroke-linecap:round; stroke-linejoin:round; stroke-width:4; stroke-opacity:1; fill:none" points="2288.63,1521.01 2288.63,1502.11 "/>
<path clip-path="url(#clip350)" d="M151.118 1551.93 Q147.506 1551.93 145.678 1555.49 Q143.872 1559.03 143.872 1566.16 Q143.872 1573.27 145.678 1576.83 Q147.506 1580.38 151.118 1580.38 Q154.752 1580.38 156.557 1576.83 Q158.386 1573.27 158.386 1566.16 Q158.386 1559.03 156.557 1555.49 Q154.752 1551.93 151.118 1551.93 M151.118 1548.22 Q156.928 1548.22 159.983 1552.83 Q163.062 1557.41 163.062 1566.16 Q163.062 1574.89 159.983 1579.5 Q156.928 1584.08 151.118 1584.08 Q145.307 1584.08 142.229 1579.5 Q139.173 1574.89 139.173 1566.16 Q139.173 1557.41 142.229 1552.83 Q145.307 1548.22 151.118 1548.22 Z" fill="#000000" fill-rule="nonzero" fill-opacity="1" /><path clip-path="url(#clip350)" d="M645.102 1579.47 L652.741 1579.47 L652.741 1553.11 L644.431 1554.77 L644.431 1550.51 L652.695 1548.85 L657.371 1548.85 L657.371 1579.47 L665.01 1579.47 L665.01 1583.41 L645.102 1583.41 L645.102 1579.47 Z" fill="#000000" fill-rule="nonzero" fill-opacity="1" /><path clip-path="url(#clip350)" d="M684.454 1551.93 Q680.843 1551.93 679.014 1555.49 Q677.209 1559.03 677.209 1566.16 Q677.209 1573.27 679.014 1576.83 Q680.843 1580.38 684.454 1580.38 Q688.088 1580.38 689.894 1576.83 Q691.723 1573.27 691.723 1566.16 Q691.723 1559.03 689.894 1555.49 Q688.088 1551.93 684.454 1551.93 M684.454 1548.22 Q690.264 1548.22 693.32 1552.83 Q696.398 1557.41 696.398 1566.16 Q696.398 1574.89 693.32 1579.5 Q690.264 1584.08 684.454 1584.08 Q678.644 1584.08 675.565 1579.5 Q672.51 1574.89 672.51 1566.16 Q672.51 1557.41 675.565 1552.83 Q678.644 1548.22 684.454 1548.22 Z" fill="#000000" fill-rule="nonzero" fill-opacity="1" /><path clip-path="url(#clip350)" d="M714.616 1551.93 Q711.005 1551.93 709.176 1555.49 Q707.371 1559.03 707.371 1566.16 Q707.371 1573.27 709.176 1576.83 Q711.005 1580.38 714.616 1580.38 Q718.25 1580.38 720.056 1576.83 Q721.884 1573.27 721.884 1566.16 Q721.884 1559.03 720.056 1555.49 Q718.25 1551.93 714.616 1551.93 M714.616 1548.22 Q720.426 1548.22 723.482 1552.83 Q726.56 1557.41 726.56 1566.16 Q726.56 1574.89 723.482 1579.5 Q720.426 1584.08 714.616 1584.08 Q708.806 1584.08 705.727 1579.5 Q702.672 1574.89 702.672 1566.16 Q702.672 1557.41 705.727 1552.83 Q708.806 1548.22 714.616 1548.22 Z" fill="#000000" fill-rule="nonzero" fill-opacity="1" /><path clip-path="url(#clip350)" d="M1183.57 1579.47 L1199.89 1579.47 L1199.89 1583.41 L1177.94 1583.41 L1177.94 1579.47 Q1180.6 1576.72 1185.19 1572.09 Q1189.79 1567.44 1190.97 1566.09 Q1193.22 1563.57 1194.1 1561.83 Q1195 1560.07 1195 1558.38 Q1195 1555.63 1193.06 1553.89 Q1191.14 1552.16 1188.03 1552.16 Q1185.83 1552.16 1183.38 1552.92 Q1180.95 1553.69 1178.17 1555.24 L1178.17 1550.51 Q1181 1549.38 1183.45 1548.8 Q1185.9 1548.22 1187.94 1548.22 Q1193.31 1548.22 1196.51 1550.91 Q1199.7 1553.59 1199.7 1558.08 Q1199.7 1560.21 1198.89 1562.13 Q1198.1 1564.03 1196 1566.63 Q1195.42 1567.3 1192.32 1570.51 Q1189.21 1573.71 1183.57 1579.47 Z" fill="#000000" fill-rule="nonzero" fill-opacity="1" /><path clip-path="url(#clip350)" d="M1219.7 1551.93 Q1216.09 1551.93 1214.26 1555.49 Q1212.46 1559.03 1212.46 1566.16 Q1212.46 1573.27 1214.26 1576.83 Q1216.09 1580.38 1219.7 1580.38 Q1223.33 1580.38 1225.14 1576.83 Q1226.97 1573.27 1226.97 1566.16 Q1226.97 1559.03 1225.14 1555.49 Q1223.33 1551.93 1219.7 1551.93 M1219.7 1548.22 Q1225.51 1548.22 1228.57 1552.83 Q1231.64 1557.41 1231.64 1566.16 Q1231.64 1574.89 1228.57 1579.5 Q1225.51 1584.08 1219.7 1584.08 Q1213.89 1584.08 1210.81 1579.5 Q1207.76 1574.89 1207.76 1566.16 Q1207.76 1557.41 1210.81 1552.83 Q1213.89 1548.22 1219.7 1548.22 Z" fill="#000000" fill-rule="nonzero" fill-opacity="1" /><path clip-path="url(#clip350)" d="M1249.86 1551.93 Q1246.25 1551.93 1244.42 1555.49 Q1242.62 1559.03 1242.62 1566.16 Q1242.62 1573.27 1244.42 1576.83 Q1246.25 1580.38 1249.86 1580.38 Q1253.5 1580.38 1255.3 1576.83 Q1257.13 1573.27 1257.13 1566.16 Q1257.13 1559.03 1255.3 1555.49 Q1253.5 1551.93 1249.86 1551.93 M1249.86 1548.22 Q1255.67 1548.22 1258.73 1552.83 Q1261.81 1557.41 1261.81 1566.16 Q1261.81 1574.89 1258.73 1579.5 Q1255.67 1584.08 1249.86 1584.08 Q1244.05 1584.08 1240.97 1579.5 Q1237.92 1574.89 1237.92 1566.16 Q1237.92 1557.41 1240.97 1552.83 Q1244.05 1548.22 1249.86 1548.22 Z" fill="#000000" fill-rule="nonzero" fill-opacity="1" /><path clip-path="url(#clip350)" d="M1728.01 1564.77 Q1731.37 1565.49 1733.25 1567.76 Q1735.14 1570.03 1735.14 1573.36 Q1735.14 1578.48 1731.63 1581.28 Q1728.11 1584.08 1721.63 1584.08 Q1719.45 1584.08 1717.13 1583.64 Q1714.84 1583.22 1712.39 1582.37 L1712.39 1577.85 Q1714.33 1578.99 1716.65 1579.57 Q1718.96 1580.14 1721.49 1580.14 Q1725.88 1580.14 1728.18 1578.41 Q1730.49 1576.67 1730.49 1573.36 Q1730.49 1570.31 1728.34 1568.59 Q1726.21 1566.86 1722.39 1566.86 L1718.36 1566.86 L1718.36 1563.01 L1722.57 1563.01 Q1726.02 1563.01 1727.85 1561.65 Q1729.68 1560.26 1729.68 1557.67 Q1729.68 1555.01 1727.78 1553.59 Q1725.91 1552.16 1722.39 1552.16 Q1720.47 1552.16 1718.27 1552.57 Q1716.07 1552.99 1713.43 1553.87 L1713.43 1549.7 Q1716.09 1548.96 1718.41 1548.59 Q1720.75 1548.22 1722.81 1548.22 Q1728.13 1548.22 1731.23 1550.65 Q1734.33 1553.06 1734.33 1557.18 Q1734.33 1560.05 1732.69 1562.04 Q1731.05 1564.01 1728.01 1564.77 Z" fill="#000000" fill-rule="nonzero" fill-opacity="1" /><path clip-path="url(#clip350)" d="M1754.01 1551.93 Q1750.4 1551.93 1748.57 1555.49 Q1746.76 1559.03 1746.76 1566.16 Q1746.76 1573.27 1748.57 1576.83 Q1750.4 1580.38 1754.01 1580.38 Q1757.64 1580.38 1759.45 1576.83 Q1761.28 1573.27 1761.28 1566.16 Q1761.28 1559.03 1759.45 1555.49 Q1757.64 1551.93 1754.01 1551.93 M1754.01 1548.22 Q1759.82 1548.22 1762.87 1552.83 Q1765.95 1557.41 1765.95 1566.16 Q1765.95 1574.89 1762.87 1579.5 Q1759.82 1584.08 1754.01 1584.08 Q1748.2 1584.08 1745.12 1579.5 Q1742.06 1574.89 1742.06 1566.16 Q1742.06 1557.41 1745.12 1552.83 Q1748.2 1548.22 1754.01 1548.22 Z" fill="#000000" fill-rule="nonzero" fill-opacity="1" /><path clip-path="url(#clip350)" d="M1784.17 1551.93 Q1780.56 1551.93 1778.73 1555.49 Q1776.93 1559.03 1776.93 1566.16 Q1776.93 1573.27 1778.73 1576.83 Q1780.56 1580.38 1784.17 1580.38 Q1787.81 1580.38 1789.61 1576.83 Q1791.44 1573.27 1791.44 1566.16 Q1791.44 1559.03 1789.61 1555.49 Q1787.81 1551.93 1784.17 1551.93 M1784.17 1548.22 Q1789.98 1548.22 1793.04 1552.83 Q1796.12 1557.41 1796.12 1566.16 Q1796.12 1574.89 1793.04 1579.5 Q1789.98 1584.08 1784.17 1584.08 Q1778.36 1584.08 1775.28 1579.5 Q1772.23 1574.89 1772.23 1566.16 Q1772.23 1557.41 1775.28 1552.83 Q1778.36 1548.22 1784.17 1548.22 Z" fill="#000000" fill-rule="nonzero" fill-opacity="1" /><path clip-path="url(#clip350)" d="M2261.72 1552.92 L2249.92 1571.37 L2261.72 1571.37 L2261.72 1552.92 M2260.49 1548.85 L2266.37 1548.85 L2266.37 1571.37 L2271.3 1571.37 L2271.3 1575.26 L2266.37 1575.26 L2266.37 1583.41 L2261.72 1583.41 L2261.72 1575.26 L2246.12 1575.26 L2246.12 1570.75 L2260.49 1548.85 Z" fill="#000000" fill-rule="nonzero" fill-opacity="1" /><path clip-path="url(#clip350)" d="M2289.04 1551.93 Q2285.42 1551.93 2283.6 1555.49 Q2281.79 1559.03 2281.79 1566.16 Q2281.79 1573.27 2283.6 1576.83 Q2285.42 1580.38 2289.04 1580.38 Q2292.67 1580.38 2294.48 1576.83 Q2296.3 1573.27 2296.3 1566.16 Q2296.3 1559.03 2294.48 1555.49 Q2292.67 1551.93 2289.04 1551.93 M2289.04 1548.22 Q2294.85 1548.22 2297.9 1552.83 Q2300.98 1557.41 2300.98 1566.16 Q2300.98 1574.89 2297.9 1579.5 Q2294.85 1584.08 2289.04 1584.08 Q2283.23 1584.08 2280.15 1579.5 Q2277.09 1574.89 2277.09 1566.16 Q2277.09 1557.41 2280.15 1552.83 Q2283.23 1548.22 2289.04 1548.22 Z" fill="#000000" fill-rule="nonzero" fill-opacity="1" /><path clip-path="url(#clip350)" d="M2319.2 1551.93 Q2315.59 1551.93 2313.76 1555.49 Q2311.95 1559.03 2311.95 1566.16 Q2311.95 1573.27 2313.76 1576.83 Q2315.59 1580.38 2319.2 1580.38 Q2322.83 1580.38 2324.64 1576.83 Q2326.47 1573.27 2326.47 1566.16 Q2326.47 1559.03 2324.64 1555.49 Q2322.83 1551.93 2319.2 1551.93 M2319.2 1548.22 Q2325.01 1548.22 2328.06 1552.83 Q2331.14 1557.41 2331.14 1566.16 Q2331.14 1574.89 2328.06 1579.5 Q2325.01 1584.08 2319.2 1584.08 Q2313.39 1584.08 2310.31 1579.5 Q2307.25 1574.89 2307.25 1566.16 Q2307.25 1557.41 2310.31 1552.83 Q2313.39 1548.22 2319.2 1548.22 Z" fill="#000000" fill-rule="nonzero" fill-opacity="1" /><polyline clip-path="url(#clip352)" style="stroke:#000000; stroke-linecap:round; stroke-linejoin:round; stroke-width:2; stroke-opacity:0.1; fill:none" points="86.9921,1479.3 2352.76,1479.3 "/>
<polyline clip-path="url(#clip352)" style="stroke:#000000; stroke-linecap:round; stroke-linejoin:round; stroke-width:2; stroke-opacity:0.1; fill:none" points="86.9921,1174.66 2352.76,1174.66 "/>
<polyline clip-path="url(#clip352)" style="stroke:#000000; stroke-linecap:round; stroke-linejoin:round; stroke-width:2; stroke-opacity:0.1; fill:none" points="86.9921,870.022 2352.76,870.022 "/>
<polyline clip-path="url(#clip352)" style="stroke:#000000; stroke-linecap:round; stroke-linejoin:round; stroke-width:2; stroke-opacity:0.1; fill:none" points="86.9921,565.384 2352.76,565.384 "/>
<polyline clip-path="url(#clip352)" style="stroke:#000000; stroke-linecap:round; stroke-linejoin:round; stroke-width:2; stroke-opacity:0.1; fill:none" points="86.9921,260.746 2352.76,260.746 "/>
<polyline clip-path="url(#clip350)" style="stroke:#000000; stroke-linecap:round; stroke-linejoin:round; stroke-width:4; stroke-opacity:1; fill:none" points="86.9921,1521.01 86.9921,47.2441 "/>
<polyline clip-path="url(#clip350)" style="stroke:#000000; stroke-linecap:round; stroke-linejoin:round; stroke-width:4; stroke-opacity:1; fill:none" points="86.9921,1479.3 105.89,1479.3 "/>
<polyline clip-path="url(#clip350)" style="stroke:#000000; stroke-linecap:round; stroke-linejoin:round; stroke-width:4; stroke-opacity:1; fill:none" points="86.9921,1174.66 105.89,1174.66 "/>
<polyline clip-path="url(#clip350)" style="stroke:#000000; stroke-linecap:round; stroke-linejoin:round; stroke-width:4; stroke-opacity:1; fill:none" points="86.9921,870.022 105.89,870.022 "/>
<polyline clip-path="url(#clip350)" style="stroke:#000000; stroke-linecap:round; stroke-linejoin:round; stroke-width:4; stroke-opacity:1; fill:none" points="86.9921,565.384 105.89,565.384 "/>
<polyline clip-path="url(#clip350)" style="stroke:#000000; stroke-linecap:round; stroke-linejoin:round; stroke-width:4; stroke-opacity:1; fill:none" points="86.9921,260.746 105.89,260.746 "/>
<path clip-path="url(#clip350)" d="M10.8708 1516.99 Q10.8708 1520.61 14.4356 1522.43 Q17.9773 1524.24 25.1068 1524.24 Q32.2133 1524.24 35.7781 1522.43 Q39.3197 1520.61 39.3197 1516.99 Q39.3197 1513.36 35.7781 1511.55 Q32.2133 1509.73 25.1068 1509.73 Q17.9773 1509.73 14.4356 1511.55 Q10.8708 1513.36 10.8708 1516.99 M7.16713 1516.99 Q7.16713 1511.18 11.7736 1508.13 Q16.3569 1505.05 25.1068 1505.05 Q33.8337 1505.05 38.4401 1508.13 Q43.0234 1511.18 43.0234 1516.99 Q43.0234 1522.8 38.4401 1525.88 Q33.8337 1528.94 25.1068 1528.94 Q16.3569 1528.94 11.7736 1525.88 Q7.16713 1522.8 7.16713 1516.99 Z" fill="#000000" fill-rule="nonzero" fill-opacity="1" /><path clip-path="url(#clip350)" d="M36.4725 1496.83 L36.4725 1491.95 L42.3521 1491.95 L42.3521 1496.83 L36.4725 1496.83 Z" fill="#000000" fill-rule="nonzero" fill-opacity="1" /><path clip-path="url(#clip350)" d="M10.8708 1471.76 Q10.8708 1475.37 14.4356 1477.2 Q17.9773 1479.01 25.1068 1479.01 Q32.2133 1479.01 35.7781 1477.2 Q39.3197 1475.37 39.3197 1471.76 Q39.3197 1468.13 35.7781 1466.32 Q32.2133 1464.49 25.1068 1464.49 Q17.9773 1464.49 14.4356 1466.32 Q10.8708 1468.13 10.8708 1471.76 M7.16713 1471.76 Q7.16713 1465.95 11.7736 1462.9 Q16.3569 1459.82 25.1068 1459.82 Q33.8337 1459.82 38.4401 1462.9 Q43.0234 1465.95 43.0234 1471.76 Q43.0234 1477.57 38.4401 1480.65 Q33.8337 1483.71 25.1068 1483.71 Q16.3569 1483.71 11.7736 1480.65 Q7.16713 1477.57 7.16713 1471.76 Z" fill="#000000" fill-rule="nonzero" fill-opacity="1" /><path clip-path="url(#clip350)" d="M10.8708 1441.6 Q10.8708 1445.21 14.4356 1447.04 Q17.9773 1448.85 25.1068 1448.85 Q32.2133 1448.85 35.7781 1447.04 Q39.3197 1445.21 39.3197 1441.6 Q39.3197 1437.97 35.7781 1436.16 Q32.2133 1434.33 25.1068 1434.33 Q17.9773 1434.33 14.4356 1436.16 Q10.8708 1437.97 10.8708 1441.6 M7.16713 1441.6 Q7.16713 1435.79 11.7736 1432.74 Q16.3569 1429.66 25.1068 1429.66 Q33.8337 1429.66 38.4401 1432.74 Q43.0234 1435.79 43.0234 1441.6 Q43.0234 1447.41 38.4401 1450.49 Q33.8337 1453.55 25.1068 1453.55 Q16.3569 1453.55 11.7736 1450.49 Q7.16713 1447.41 7.16713 1441.6 Z" fill="#000000" fill-rule="nonzero" fill-opacity="1" /><path clip-path="url(#clip350)" d="M10.8708 1211.74 Q10.8708 1215.35 14.4356 1217.18 Q17.9773 1218.99 25.1068 1218.99 Q32.2133 1218.99 35.7781 1217.18 Q39.3197 1215.35 39.3197 1211.74 Q39.3197 1208.11 35.7781 1206.3 Q32.2133 1204.47 25.1068 1204.47 Q17.9773 1204.47 14.4356 1206.3 Q10.8708 1208.11 10.8708 1211.74 M7.16713 1211.74 Q7.16713 1205.93 11.7736 1202.88 Q16.3569 1199.8 25.1068 1199.8 Q33.8337 1199.8 38.4401 1202.88 Q43.0234 1205.93 43.0234 1211.74 Q43.0234 1217.55 38.4401 1220.63 Q33.8337 1223.69 25.1068 1223.69 Q16.3569 1223.69 11.7736 1220.63 Q7.16713 1217.55 7.16713 1211.74 Z" fill="#000000" fill-rule="nonzero" fill-opacity="1" /><path clip-path="url(#clip350)" d="M36.4725 1191.58 L36.4725 1186.7 L42.3521 1186.7 L42.3521 1191.58 L36.4725 1191.58 Z" fill="#000000" fill-rule="nonzero" fill-opacity="1" /><path clip-path="url(#clip350)" d="M10.8708 1166.51 Q10.8708 1170.12 14.4356 1171.95 Q17.9773 1173.76 25.1068 1173.76 Q32.2133 1173.76 35.7781 1171.95 Q39.3197 1170.12 39.3197 1166.51 Q39.3197 1162.88 35.7781 1161.07 Q32.2133 1159.24 25.1068 1159.24 Q17.9773 1159.24 14.4356 1161.07 Q10.8708 1162.88 10.8708 1166.51 M7.16713 1166.51 Q7.16713 1160.7 11.7736 1157.65 Q16.3569 1154.57 25.1068 1154.57 Q33.8337 1154.57 38.4401 1157.65 Q43.0234 1160.7 43.0234 1166.51 Q43.0234 1172.32 38.4401 1175.4 Q33.8337 1178.46 25.1068 1178.46 Q16.3569 1178.46 11.7736 1175.4 Q7.16713 1172.32 7.16713 1166.51 Z" fill="#000000" fill-rule="nonzero" fill-opacity="1" /><path clip-path="url(#clip350)" d="M38.417 1145.54 L38.417 1137.9 L12.0514 1137.9 L13.718 1146.21 L9.45878 1146.21 L7.79213 1137.95 L7.79213 1133.27 L38.417 1133.27 L38.417 1125.63 L42.3521 1125.63 L42.3521 1145.54 L38.417 1145.54 Z" fill="#000000" fill-rule="nonzero" fill-opacity="1" /><path clip-path="url(#clip350)" d="M10.8708 906.92 Q10.8708 910.531 14.4356 912.36 Q17.9773 914.165 25.1068 914.165 Q32.2133 914.165 35.7781 912.36 Q39.3197 910.531 39.3197 906.92 Q39.3197 903.286 35.7781 901.48 Q32.2133 899.651 25.1068 899.651 Q17.9773 899.651 14.4356 901.48 Q10.8708 903.286 10.8708 906.92 M7.16713 906.92 Q7.16713 901.11 11.7736 898.054 Q16.3569 894.976 25.1068 894.976 Q33.8337 894.976 38.4401 898.054 Q43.0234 901.11 43.0234 906.92 Q43.0234 912.73 38.4401 915.809 Q33.8337 918.864 25.1068 918.864 Q16.3569 918.864 11.7736 915.809 Q7.16713 912.73 7.16713 906.92 Z" fill="#000000" fill-rule="nonzero" fill-opacity="1" /><path clip-path="url(#clip350)" d="M36.4725 886.758 L36.4725 881.874 L42.3521 881.874 L42.3521 886.758 L36.4725 886.758 Z" fill="#000000" fill-rule="nonzero" fill-opacity="1" /><path clip-path="url(#clip350)" d="M10.8708 861.689 Q10.8708 865.3 14.4356 867.128 Q17.9773 868.934 25.1068 868.934 Q32.2133 868.934 35.7781 867.128 Q39.3197 865.3 39.3197 861.689 Q39.3197 858.054 35.7781 856.249 Q32.2133 854.42 25.1068 854.42 Q17.9773 854.42 14.4356 856.249 Q10.8708 858.054 10.8708 861.689 M7.16713 861.689 Q7.16713 855.879 11.7736 852.823 Q16.3569 849.744 25.1068 849.744 Q33.8337 849.744 38.4401 852.823 Q43.0234 855.879 43.0234 861.689 Q43.0234 867.499 38.4401 870.578 Q33.8337 873.633 25.1068 873.633 Q16.3569 873.633 11.7736 870.578 Q7.16713 867.499 7.16713 861.689 Z" fill="#000000" fill-rule="nonzero" fill-opacity="1" /><path clip-path="url(#clip350)" d="M38.417 837.499 L38.417 821.18 L42.3521 821.18 L42.3521 843.124 L38.417 843.124 Q35.6623 840.462 31.0327 835.879 Q26.38 831.272 25.0374 830.092 Q22.5143 827.846 20.7782 826.967 Q19.0189 826.064 17.3291 826.064 Q14.5745 826.064 12.8384 828.008 Q11.1023 829.93 11.1023 833.031 Q11.1023 835.231 11.8662 837.684 Q12.6301 840.115 14.181 842.893 L9.45878 842.893 Q8.32453 840.068 7.74583 837.615 Q7.16713 835.161 7.16713 833.124 Q7.16713 827.754 9.8523 824.559 Q12.5375 821.365 17.0282 821.365 Q19.1578 821.365 21.0791 822.175 Q22.9772 822.962 25.5698 825.069 Q26.2411 825.647 29.4587 828.749 Q32.6531 831.851 38.417 837.499 Z" fill="#000000" fill-rule="nonzero" fill-opacity="1" /><path clip-path="url(#clip350)" d="M10.8708 602.757 Q10.8708 606.368 14.4356 608.196 Q17.9773 610.002 25.1068 610.002 Q32.2133 610.002 35.7781 608.196 Q39.3197 606.368 39.3197 602.757 Q39.3197 599.122 35.7781 597.317 Q32.2133 595.488 25.1068 595.488 Q17.9773 595.488 14.4356 597.317 Q10.8708 599.122 10.8708 602.757 M7.16713 602.757 Q7.16713 596.947 11.7736 593.891 Q16.3569 590.812 25.1068 590.812 Q33.8337 590.812 38.4401 593.891 Q43.0234 596.947 43.0234 602.757 Q43.0234 608.567 38.4401 611.646 Q33.8337 614.701 25.1068 614.701 Q16.3569 614.701 11.7736 611.646 Q7.16713 608.567 7.16713 602.757 Z" fill="#000000" fill-rule="nonzero" fill-opacity="1" /><path clip-path="url(#clip350)" d="M36.4725 582.595 L36.4725 577.711 L42.3521 577.711 L42.3521 582.595 L36.4725 582.595 Z" fill="#000000" fill-rule="nonzero" fill-opacity="1" /><path clip-path="url(#clip350)" d="M10.8708 557.525 Q10.8708 561.137 14.4356 562.965 Q17.9773 564.771 25.1068 564.771 Q32.2133 564.771 35.7781 562.965 Q39.3197 561.137 39.3197 557.525 Q39.3197 553.891 35.7781 552.086 Q32.2133 550.257 25.1068 550.257 Q17.9773 550.257 14.4356 552.086 Q10.8708 553.891 10.8708 557.525 M7.16713 557.525 Q7.16713 551.715 11.7736 548.66 Q16.3569 545.581 25.1068 545.581 Q33.8337 545.581 38.4401 548.66 Q43.0234 551.715 43.0234 557.525 Q43.0234 563.336 38.4401 566.414 Q33.8337 569.47 25.1068 569.47 Q16.3569 569.47 11.7736 566.414 Q7.16713 563.336 7.16713 557.525 Z" fill="#000000" fill-rule="nonzero" fill-opacity="1" /><path clip-path="url(#clip350)" d="M23.718 523.197 Q24.4356 519.84 26.7041 517.965 Q28.9726 516.067 32.3059 516.067 Q37.4216 516.067 40.2225 519.586 Q43.0234 523.104 43.0234 529.586 Q43.0234 531.762 42.5836 534.077 Q42.1669 536.368 41.3105 538.822 L36.7966 538.822 Q37.9309 536.877 38.5096 534.563 Q39.0883 532.248 39.0883 529.725 Q39.0883 525.327 37.3522 523.035 Q35.6161 520.72 32.3059 520.72 Q29.2503 520.72 27.5374 522.873 Q25.8013 525.002 25.8013 528.822 L25.8013 532.85 L21.9587 532.85 L21.9587 528.637 Q21.9587 525.188 20.593 523.359 Q19.2041 521.53 16.6115 521.53 Q13.9495 521.53 12.5375 523.428 Q11.1023 525.303 11.1023 528.822 Q11.1023 530.743 11.519 532.942 Q11.9356 535.141 12.8152 537.78 L8.6486 537.78 Q7.90787 535.118 7.5375 532.803 Q7.16713 530.465 7.16713 528.405 Q7.16713 523.081 9.59767 519.979 Q12.0051 516.878 16.1254 516.878 Q18.9958 516.878 20.9865 518.521 Q22.9541 520.165 23.718 523.197 Z" fill="#000000" fill-rule="nonzero" fill-opacity="1" /><path clip-path="url(#clip350)" d="M10.8708 298.686 Q10.8708 302.297 14.4356 304.126 Q17.9773 305.931 25.1068 305.931 Q32.2133 305.931 35.7781 304.126 Q39.3197 302.297 39.3197 298.686 Q39.3197 295.052 35.7781 293.246 Q32.2133 291.418 25.1068 291.418 Q17.9773 291.418 14.4356 293.246 Q10.8708 295.052 10.8708 298.686 M7.16713 298.686 Q7.16713 292.876 11.7736 289.82 Q16.3569 286.742 25.1068 286.742 Q33.8337 286.742 38.4401 289.82 Q43.0234 292.876 43.0234 298.686 Q43.0234 304.496 38.4401 307.575 Q33.8337 310.63 25.1068 310.63 Q16.3569 310.63 11.7736 307.575 Q7.16713 304.496 7.16713 298.686 Z" fill="#000000" fill-rule="nonzero" fill-opacity="1" /><path clip-path="url(#clip350)" d="M36.4725 278.524 L36.4725 273.64 L42.3521 273.64 L42.3521 278.524 L36.4725 278.524 Z" fill="#000000" fill-rule="nonzero" fill-opacity="1" /><path clip-path="url(#clip350)" d="M10.8708 253.455 Q10.8708 257.066 14.4356 258.895 Q17.9773 260.7 25.1068 260.7 Q32.2133 260.7 35.7781 258.895 Q39.3197 257.066 39.3197 253.455 Q39.3197 249.821 35.7781 248.015 Q32.2133 246.186 25.1068 246.186 Q17.9773 246.186 14.4356 248.015 Q10.8708 249.821 10.8708 253.455 M7.16713 253.455 Q7.16713 247.645 11.7736 244.589 Q16.3569 241.51 25.1068 241.51 Q33.8337 241.51 38.4401 244.589 Q43.0234 247.645 43.0234 253.455 Q43.0234 259.265 38.4401 262.344 Q33.8337 265.399 25.1068 265.399 Q16.3569 265.399 11.7736 262.344 Q7.16713 259.265 7.16713 253.455 Z" fill="#000000" fill-rule="nonzero" fill-opacity="1" /><path clip-path="url(#clip350)" d="M11.8662 220.446 L30.3152 232.251 L30.3152 220.446 L11.8662 220.446 M7.79213 221.673 L7.79213 215.793 L30.3152 215.793 L30.3152 210.862 L34.204 210.862 L34.204 215.793 L42.3521 215.793 L42.3521 220.446 L34.204 220.446 L34.204 236.047 L29.6902 236.047 L7.79213 221.673 Z" fill="#000000" fill-rule="nonzero" fill-opacity="1" /><polyline clip-path="url(#clip352)" style="stroke:#009af9; stroke-linecap:round; stroke-linejoin:round; stroke-width:4; stroke-opacity:1; fill:none" points="151.118,1479.3 156.461,1479.3 161.805,1479.3 167.149,1479.3 172.493,1479.3 177.836,1479.3 183.18,1479.3 188.524,1479.3 193.868,1479.3 199.212,1479.3 204.555,1479.3 209.899,1479.3 215.243,1479.3 220.587,1479.3 225.93,1479.3 231.274,1479.3 236.618,1479.3 241.962,1479.3 247.306,1479.3 252.649,1479.3 257.993,1479.3 263.337,1479.3 268.681,1479.3 274.025,1479.3 279.368,1479.3 284.712,1479.3 290.056,1479.3 295.4,1479.3 300.743,1479.3 306.087,1479.3 311.431,1479.3 316.775,1479.3 322.119,1479.3 327.462,1479.3 332.806,1479.3 338.15,1479.3 343.494,1479.3 348.837,1479.3 354.181,1479.3 359.525,1479.3 364.869,1479.3 370.213,1479.29 375.556,1479.29 380.9,1479.29 386.244,1479.28 391.588,1479.27 396.932,1479.26 402.275,1479.24 407.619,1479.2 412.963,1479.14 418.307,1479.06 423.65,1478.93 428.994,1478.73 434.338,1478.46 439.682,1478.05 445.026,1477.48 450.369,1476.68 455.713,1475.58 461.057,1474.09 466.401,1472.09 471.744,1469.45 477.088,1466.02 482.432,1461.62 487.776,1456.08 493.12,1449.2 498.463,1440.78 503.807,1430.65 509.151,1418.66 514.495,1404.69 519.839,1388.7 525.182,1370.72 530.526,1350.85 535.87,1329.33 541.214,1306.48 546.557,1282.74 551.901,1258.64 557.245,1234.82 562.589,1211.94 567.933,1190.72 573.276,1171.87 578.62,1156.05 583.964,1143.84 589.308,1135.69 594.651,1131.92 599.995,1132.68 605.339,1137.93 610.683,1147.48 616.027,1160.95 621.37,1177.85 626.714,1197.56 632.058,1219.41 637.402,1242.69 642.746,1266.68 648.089,1290.72 653.433,1314.22 658.777,1336.67 664.121,1357.67 669.464,1376.93 674.808,1394.26 680.152,1409.57 685.496,1422.87 690.84,1434.23 696.183,1443.77 701.527,1451.65 706.871,1458.07 712.215,1463.2 717.558,1467.26 722.902,1470.41 728.246,1472.82 733.59,1474.63 738.934,1475.98 744.277,1476.97 749.621,1477.68 754.965,1478.19 760.309,1478.54 765.653,1478.77 770.996,1478.93 776.34,1479.02 781.684,1479.06 787.028,1479.07 792.371,1479.04 797.715,1478.98 803.059,1478.89 808.403,1478.75 813.747,1478.56 819.09,1478.3 824.434,1477.96 829.778,1477.51 835.122,1476.93 840.465,1476.18 845.809,1475.22 851.153,1474.01 856.497,1472.48 861.841,1470.58 867.184,1468.23 872.528,1465.35 877.872,1461.84 883.216,1457.6 888.56,1452.54 893.903,1446.52 899.247,1439.44 904.591,1431.17 909.935,1421.61 915.278,1410.65 920.622,1398.19 925.966,1384.16 931.31,1368.49 936.654,1351.18 941.997,1332.22 947.341,1311.67 952.685,1289.61 958.029,1266.2 963.372,1241.61 968.716,1216.08 974.06,1189.91 979.404,1163.41 984.748,1136.97 990.091,1110.97 995.435,1085.84 1000.78,1062.01 1006.12,1039.91 1011.47,1019.97 1016.81,1002.56 1022.15,988.039 1027.5,976.71 1032.84,968.808 1038.19,964.502 1043.53,963.883 1048.87,966.967 1054.22,973.685 1059.56,983.895 1064.9,997.381 1070.25,1013.86 1075.59,1033.01 1080.94,1054.43 1086.28,1077.73 1091.62,1102.48 1096.97,1128.23 1102.31,1154.57 1107.65,1181.1 1113,1207.41 1118.34,1233.19 1123.69,1258.12 1129.03,1281.95 1134.37,1304.47 1139.72,1325.54 1145.06,1345.03 1150.4,1362.9 1155.75,1379.11 1161.09,1393.68 1166.44,1406.65 1171.78,1418.1 1177.12,1428.11 1182.47,1436.78 1187.81,1444.23 1193.16,1450.57 1198.5,1455.92 1203.84,1460.39 1209.19,1464.09 1214.53,1467.12 1219.87,1469.57 1225.22,1471.53 1230.56,1473.06 1235.91,1474.23 1241.25,1475.1 1246.59,1475.7 1251.94,1476.06 1257.28,1476.22 1262.62,1476.19 1267.97,1475.98 1273.31,1475.59 1278.66,1475.02 1284,1474.26 1289.34,1473.31 1294.69,1472.13 1300.03,1470.72 1305.37,1469.05 1310.72,1467.08 1316.06,1464.8 1321.41,1462.16 1326.75,1459.15 1332.09,1455.73 1337.44,1451.86 1342.78,1447.53 1348.12,1442.71 1353.47,1437.39 1358.81,1431.54 1364.16,1425.16 1369.5,1418.26 1374.84,1410.84 1380.19,1402.93 1385.53,1394.56 1390.88,1385.78 1396.22,1376.63 1401.56,1367.18 1406.91,1357.52 1412.25,1347.73 1417.59,1337.91 1422.94,1328.16 1428.28,1318.6 1433.63,1309.35 1438.97,1300.51 1444.31,1292.22 1449.66,1284.59 1455,1277.72 1460.34,1271.72 1465.69,1266.68 1471.03,1262.67 1476.38,1259.76 1481.72,1258 1487.06,1257.41 1492.41,1258 1497.75,1259.76 1503.09,1262.67 1508.44,1266.68 1513.78,1271.72 1519.13,1277.72 1524.47,1284.59 1529.81,1292.22 1535.16,1300.51 1540.5,1309.35 1545.84,1318.6 1551.19,1328.16 1556.53,1337.91 1561.88,1347.73 1567.22,1357.52 1572.56,1367.18 1577.91,1376.63 1583.25,1385.78 1588.6,1394.56 1593.94,1402.93 1599.28,1410.84 1604.63,1418.26 1609.97,1425.16 1615.31,1431.54 1620.66,1437.39 1626,1442.72 1631.35,1447.54 1636.69,1451.87 1642.03,1455.74 1647.38,1459.17 1652.72,1462.19 1658.06,1464.84 1663.41,1467.14 1668.75,1469.13 1674.1,1470.84 1679.44,1472.3 1684.78,1473.53 1690.13,1474.58 1695.47,1475.45 1700.81,1476.18 1706.16,1476.79 1711.5,1477.29 1716.85,1477.7 1722.19,1478.03 1727.53,1478.3 1732.88,1478.51 1738.22,1478.68 1743.56,1478.82 1748.91,1478.93 1754.25,1479.02 1759.6,1479.08 1764.94,1479.13 1770.28,1479.17 1775.63,1479.2 1780.97,1479.23 1786.31,1479.25 1791.66,1479.26 1797,1479.27 1802.35,1479.28 1807.69,1479.28 1813.03,1479.29 1818.38,1479.29 1823.72,1479.29 1829.07,1479.29 1834.41,1479.29 1839.75,1479.3 1845.1,1479.3 1850.44,1479.3 1855.78,1479.3 1861.13,1479.3 1866.47,1479.3 1871.82,1479.3 1877.16,1479.3 1882.5,1479.3 1887.85,1479.3 1893.19,1479.3 1898.53,1479.3 1903.88,1479.3 1909.22,1479.3 1914.57,1479.3 1919.91,1479.3 1925.25,1479.3 1930.6,1479.3 1935.94,1479.3 1941.28,1479.3 1946.63,1479.3 1951.97,1479.3 1957.32,1479.3 1962.66,1479.3 1968,1479.3 1973.35,1479.3 1978.69,1479.3 1984.03,1479.3 1989.38,1479.3 1994.72,1479.3 2000.07,1479.3 2005.41,1479.3 2010.75,1479.3 2016.1,1479.3 2021.44,1479.3 2026.79,1479.3 2032.13,1479.3 2037.47,1479.3 2042.82,1479.3 2048.16,1479.3 2053.5,1479.3 2058.85,1479.3 2064.19,1479.3 2069.54,1479.3 2074.88,1479.3 2080.22,1479.3 2085.57,1479.3 2090.91,1479.3 2096.25,1479.3 2101.6,1479.3 2106.94,1479.3 2112.29,1479.3 2117.63,1479.3 2122.97,1479.3 2128.32,1479.3 2133.66,1479.3 2139,1479.3 2144.35,1479.3 2149.69,1479.3 2155.04,1479.3 2160.38,1479.3 2165.72,1479.3 2171.07,1479.3 2176.41,1479.3 2181.75,1479.3 2187.1,1479.3 2192.44,1479.3 2197.79,1479.3 2203.13,1479.3 2208.47,1479.3 2213.82,1479.3 2219.16,1479.3 2224.51,1479.3 2229.85,1479.3 2235.19,1479.3 2240.54,1479.3 2245.88,1479.3 2251.22,1479.3 2256.57,1479.3 2261.91,1479.3 2267.26,1479.3 2272.6,1479.3 2277.94,1479.3 2283.29,1479.3 2288.63,1479.3 "/>
<polyline clip-path="url(#clip352)" style="stroke:#e26f46; stroke-linecap:round; stroke-linejoin:round; stroke-width:4; stroke-opacity:1; fill:none" points="422.736,1477.92 423.867,1477.79 424.998,1477.65 435.454,1475.64 445.91,1471.58 452.194,1467.49 458.478,1461.57 463.791,1454.65 469.104,1445.47 471.99,1439.34 474.876,1432.28 477.761,1424.18 480.647,1414.94 483.307,1405.3 485.968,1394.49 488.628,1382.41 491.288,1368.98 494.14,1352.95 496.993,1335.14 499.845,1315.43 502.697,1293.72 506.001,1265.94 509.306,1235.23 512.61,1201.49 515.915,1164.66 518.852,1129.33 521.788,1091.57 524.725,1051.43 527.662,1009 530.237,969.997 532.812,929.437 535.387,887.448 537.962,844.187 543.578,746.341 549.193,645.559 554.842,543.935 560.49,445.162 562.051,418.805 563.613,392.991 565.174,367.791 566.735,343.278 568.297,319.52 569.858,296.588 571.419,274.55 572.981,253.472 574.466,234.366 575.952,216.242 577.437,199.149 578.923,183.137 580.409,168.252 581.894,154.536 583.38,142.031 584.865,130.773 586.41,120.425 587.955,111.495 589.499,104.011 591.044,97.9978 592.589,93.4749 594.133,90.4572 595.678,88.9544 597.222,88.9715 598.523,90.1643 599.823,92.4313 601.123,95.7674 602.423,100.165 603.724,105.613 605.024,112.1 606.324,119.611 607.625,128.128 609.212,139.862 610.799,153.028 612.387,167.58 613.974,183.47 615.562,200.646 617.149,219.051 618.737,238.626 620.324,259.306 623.233,299.846 626.141,343.451 627.595,366.265 629.05,389.678 630.504,413.632 631.958,438.07 637.33,531.589 642.703,628.047 648.145,725.982 653.587,821.639 656.636,873.434 659.686,923.525 662.735,971.643 665.785,1017.57 668.548,1057.14 671.311,1094.67 674.075,1130.09 676.838,1163.36 680.002,1198.78 683.166,1231.37 686.33,1261.18 689.493,1288.28 692.423,1311.05 695.352,1331.69 698.282,1350.31 701.211,1367.02 704.099,1381.75 706.987,1394.87 709.875,1406.5 712.763,1416.78 715.567,1425.56 718.372,1433.27 721.176,1440.02 723.98,1445.9 729.729,1455.61 735.478,1462.76 741.777,1468.33 748.075,1472.15 757.225,1475.59 766.375,1477.44 768.252,1477.7 770.13,1477.92 "/>
<polyline clip-path="url(#clip352)" style="stroke:#3da44d; stroke-linecap:round; stroke-linejoin:round; stroke-width:4; stroke-opacity:1; fill:none" points="807.535,1478.27 809.06,1478.18 810.585,1478.07 824.684,1476.58 838.784,1473.57 847.257,1470.54 855.73,1466.15 862.894,1461.02 870.058,1454.21 873.949,1449.66 877.84,1444.43 881.731,1438.42 885.622,1431.57 889.209,1424.42 892.797,1416.4 896.384,1407.45 899.971,1397.48 903.817,1385.6 907.663,1372.39 911.509,1357.77 915.355,1341.67 919.81,1321.07 924.266,1298.29 928.722,1273.27 933.178,1245.96 937.138,1219.76 941.097,1191.75 945.057,1161.98 949.017,1130.51 952.489,1101.59 955.962,1071.51 959.434,1040.37 962.906,1008.29 970.478,935.722 978.05,860.981 985.666,785.614 993.283,712.362 995.388,692.815 997.494,673.671 999.599,654.983 1001.7,636.803 1003.81,619.184 1005.91,602.177 1008.02,585.833 1010.13,570.201 1012.13,556.032 1014.13,542.59 1016.13,529.914 1018.14,518.039 1020.14,507 1022.14,496.828 1024.15,487.554 1026.15,479.205 1028.23,471.531 1030.32,464.908 1032.4,459.358 1034.48,454.898 1036.56,451.544 1038.65,449.306 1040.73,448.191 1042.81,448.204 1044.57,449.089 1046.32,450.77 1048.07,453.244 1049.83,456.505 1051.58,460.546 1053.33,465.357 1055.09,470.927 1056.84,477.243 1058.98,485.946 1061.12,495.709 1063.26,506.502 1065.4,518.286 1067.54,531.024 1069.68,544.674 1071.82,559.191 1073.96,574.528 1077.89,604.593 1081.81,636.931 1083.77,653.851 1085.73,671.214 1087.69,688.979 1089.65,707.102 1096.89,776.458 1104.14,847.993 1111.48,920.624 1118.81,991.565 1122.93,1029.98 1127.04,1067.13 1131.15,1102.81 1135.26,1136.87 1138.99,1166.22 1142.71,1194.05 1146.44,1220.32 1150.17,1244.99 1154.43,1271.26 1158.7,1295.43 1162.96,1317.53 1167.23,1337.63 1171.18,1354.52 1175.13,1369.83 1179.08,1383.64 1183.03,1396.03 1186.93,1406.95 1190.82,1416.68 1194.71,1425.31 1198.61,1432.93 1202.39,1439.44 1206.17,1445.16 1209.95,1450.17 1213.73,1454.53 1221.48,1461.73 1229.24,1467.03 1237.73,1471.16 1246.22,1474 1258.56,1476.55 1270.9,1477.92 1273.43,1478.11 1275.96,1478.27 "/>
<polyline clip-path="url(#clip352)" style="stroke:#c271d2; stroke-linecap:round; stroke-linejoin:round; stroke-width:4; stroke-opacity:1; fill:none" points="1214.93,1478.42 1216.7,1478.33 1218.48,1478.24 1234.86,1476.96 1251.24,1474.37 1261.09,1471.76 1270.93,1467.98 1279.25,1463.57 1287.58,1457.71 1292.1,1453.79 1296.62,1449.29 1301.14,1444.12 1305.66,1438.22 1309.83,1432.06 1314,1425.16 1318.17,1417.46 1322.33,1408.88 1326.8,1398.65 1331.27,1387.29 1335.74,1374.71 1340.21,1360.85 1345.38,1343.12 1350.56,1323.51 1355.74,1301.98 1360.92,1278.47 1365.52,1255.92 1370.12,1231.82 1374.72,1206.2 1379.32,1179.11 1383.35,1154.22 1387.39,1128.33 1391.42,1101.53 1395.46,1073.92 1404.26,1011.46 1413.05,947.135 1421.9,882.27 1430.75,819.224 1433.2,802.401 1435.64,785.925 1438.09,769.84 1440.54,754.193 1442.98,739.029 1445.43,724.392 1447.87,710.326 1450.32,696.872 1452.65,684.677 1454.98,673.108 1457.3,662.198 1459.63,651.978 1461.96,642.477 1464.29,633.723 1466.61,625.741 1468.94,618.555 1471.36,611.95 1473.78,606.25 1476.2,601.473 1478.62,597.635 1481.04,594.748 1483.46,592.822 1485.88,591.863 1488.3,591.874 1490.34,592.635 1492.37,594.082 1494.41,596.211 1496.45,599.018 1498.49,602.496 1500.52,606.636 1502.56,611.43 1504.6,616.867 1507.08,624.356 1509.57,632.76 1512.06,642.048 1514.55,652.191 1517.03,663.154 1519.52,674.902 1522.01,687.396 1524.49,700.596 1529.05,726.471 1533.61,754.304 1535.89,768.866 1538.16,783.81 1540.44,799.1 1542.72,814.698 1551.14,874.39 1559.55,935.957 1568.08,998.468 1576.61,1059.52 1581.38,1092.58 1586.16,1124.56 1590.94,1155.27 1595.72,1184.58 1600.05,1209.84 1604.38,1233.8 1608.7,1256.4 1613.03,1277.64 1617.99,1300.25 1622.95,1321.05 1627.9,1340.07 1632.86,1357.37 1637.45,1371.91 1642.04,1385.08 1646.63,1396.96 1651.22,1407.63 1655.74,1417.03 1660.27,1425.41 1664.79,1432.83 1669.32,1439.39 1673.71,1445 1678.1,1449.92 1682.5,1454.23 1686.89,1457.98 1695.9,1464.18 1704.9,1468.74 1714.77,1472.29 1724.64,1474.74 1738.98,1476.93 1753.31,1478.11 1756.25,1478.28 1759.19,1478.42 "/>
<path clip-path="url(#clip350)" d="M1772.74 355.57 L2277.23 355.57 L2277.23 96.3696 L1772.74 96.3696  Z" fill="#ffffff" fill-rule="evenodd" fill-opacity="1"/>
<polyline clip-path="url(#clip350)" style="stroke:#000000; stroke-linecap:round; stroke-linejoin:round; stroke-width:4; stroke-opacity:1; fill:none" points="1772.74,355.57 2277.23,355.57 2277.23,96.3696 1772.74,96.3696 1772.74,355.57 "/>
<polyline clip-path="url(#clip350)" style="stroke:#009af9; stroke-linecap:round; stroke-linejoin:round; stroke-width:4; stroke-opacity:1; fill:none" points="1797.91,148.21 1948.96,148.21 "/>
<path clip-path="url(#clip350)" d="M1978.42 161.601 L1978.42 175.351 L1974.14 175.351 L1974.14 139.564 L1978.42 139.564 L1978.42 143.499 Q1979.77 141.184 1981.8 140.073 Q1983.86 138.939 1986.71 138.939 Q1991.43 138.939 1994.37 142.689 Q1997.33 146.439 1997.33 152.55 Q1997.33 158.661 1994.37 162.411 Q1991.43 166.161 1986.71 166.161 Q1983.86 166.161 1981.8 165.05 Q1979.77 163.915 1978.42 161.601 M1992.91 152.55 Q1992.91 147.851 1990.97 145.189 Q1989.05 142.504 1985.67 142.504 Q1982.29 142.504 1980.34 145.189 Q1978.42 147.851 1978.42 152.55 Q1978.42 157.249 1980.34 159.934 Q1982.29 162.596 1985.67 162.596 Q1989.05 162.596 1990.97 159.934 Q1992.91 157.249 1992.91 152.55 Z" fill="#000000" fill-rule="nonzero" fill-opacity="1" /><path clip-path="url(#clip350)" d="M2014.63 129.518 Q2011.52 134.842 2010.02 140.05 Q2008.51 145.258 2008.51 150.605 Q2008.51 155.953 2010.02 161.207 Q2011.55 166.439 2014.63 171.74 L2010.92 171.74 Q2007.45 166.3 2005.71 161.045 Q2004 155.791 2004 150.605 Q2004 145.443 2005.71 140.212 Q2007.43 134.98 2010.92 129.518 L2014.63 129.518 Z" fill="#000000" fill-rule="nonzero" fill-opacity="1" /><path clip-path="url(#clip350)" d="M2033.68 167.897 Q2031.87 172.527 2030.16 173.939 Q2028.45 175.351 2025.58 175.351 L2022.17 175.351 L2022.17 171.786 L2024.67 171.786 Q2026.43 171.786 2027.4 170.952 Q2028.38 170.119 2029.56 167.017 L2030.32 165.073 L2019.83 139.564 L2024.35 139.564 L2032.45 159.841 L2040.55 139.564 L2045.07 139.564 L2033.68 167.897 Z" fill="#000000" fill-rule="nonzero" fill-opacity="1" /><path clip-path="url(#clip350)" d="M2050.27 129.518 L2053.98 129.518 Q2057.45 134.98 2059.16 140.212 Q2060.9 145.443 2060.9 150.605 Q2060.9 155.791 2059.16 161.045 Q2057.45 166.3 2053.98 171.74 L2050.27 171.74 Q2053.35 166.439 2054.86 161.207 Q2056.39 155.953 2056.39 150.605 Q2056.39 145.258 2054.86 140.05 Q2053.35 134.842 2050.27 129.518 Z" fill="#000000" fill-rule="nonzero" fill-opacity="1" /><polyline clip-path="url(#clip350)" style="stroke:#e26f46; stroke-linecap:round; stroke-linejoin:round; stroke-width:4; stroke-opacity:1; fill:none" points="1797.91,200.05 1948.96,200.05 "/>
<path clip-path="url(#clip350)" d="M1978.42 213.441 L1978.42 227.191 L1974.14 227.191 L1974.14 191.404 L1978.42 191.404 L1978.42 195.339 Q1979.77 193.024 1981.8 191.913 Q1983.86 190.779 1986.71 190.779 Q1991.43 190.779 1994.37 194.529 Q1997.33 198.279 1997.33 204.39 Q1997.33 210.501 1994.37 214.251 Q1991.43 218.001 1986.71 218.001 Q1983.86 218.001 1981.8 216.89 Q1979.77 215.755 1978.42 213.441 M1992.91 204.39 Q1992.91 199.691 1990.97 197.029 Q1989.05 194.344 1985.67 194.344 Q1982.29 194.344 1980.34 197.029 Q1978.42 199.691 1978.42 204.39 Q1978.42 209.089 1980.34 211.774 Q1982.29 214.436 1985.67 214.436 Q1989.05 214.436 1990.97 211.774 Q1992.91 209.089 1992.91 204.39 Z" fill="#000000" fill-rule="nonzero" fill-opacity="1" /><path clip-path="url(#clip350)" d="M2014.63 181.358 Q2011.52 186.682 2010.02 191.89 Q2008.51 197.098 2008.51 202.445 Q2008.51 207.793 2010.02 213.047 Q2011.55 218.279 2014.63 223.58 L2010.92 223.58 Q2007.45 218.14 2005.71 212.885 Q2004 207.631 2004 202.445 Q2004 197.283 2005.71 192.052 Q2007.43 186.82 2010.92 181.358 L2014.63 181.358 Z" fill="#000000" fill-rule="nonzero" fill-opacity="1" /><path clip-path="url(#clip350)" d="M2033.68 219.737 Q2031.87 224.367 2030.16 225.779 Q2028.45 227.191 2025.58 227.191 L2022.17 227.191 L2022.17 223.626 L2024.67 223.626 Q2026.43 223.626 2027.4 222.792 Q2028.38 221.959 2029.56 218.857 L2030.32 216.913 L2019.83 191.404 L2024.35 191.404 L2032.45 211.681 L2040.55 191.404 L2045.07 191.404 L2033.68 219.737 Z" fill="#000000" fill-rule="nonzero" fill-opacity="1" /><path clip-path="url(#clip350)" d="M2056.43 181.103 L2056.43 228.51 L2052.5 228.51 L2052.5 181.103 L2056.43 181.103 Z" fill="#000000" fill-rule="nonzero" fill-opacity="1" /><path clip-path="url(#clip350)" d="M2084.32 200.894 L2069.58 200.894 Q2069.93 207.816 2071.52 210.756 Q2073.51 214.367 2076.96 214.367 Q2080.44 214.367 2082.36 210.732 Q2084.05 207.538 2084.32 200.894 M2084.26 196.959 Q2083.61 190.385 2082.36 188.07 Q2080.37 184.413 2076.96 184.413 Q2073.42 184.413 2071.55 188.024 Q2070.07 190.941 2069.63 196.959 L2084.26 196.959 M2076.96 180.941 Q2082.52 180.941 2085.69 185.848 Q2088.86 190.732 2088.86 199.39 Q2088.86 208.024 2085.69 212.931 Q2082.52 217.862 2076.96 217.862 Q2071.38 217.862 2068.24 212.931 Q2065.07 208.024 2065.07 199.39 Q2065.07 190.732 2068.24 185.848 Q2071.38 180.941 2076.96 180.941 Z" fill="#000000" fill-rule="nonzero" fill-opacity="1" /><path clip-path="url(#clip350)" d="M2096.48 195.802 L2126.15 195.802 L2126.15 199.691 L2096.48 199.691 L2096.48 195.802 M2096.48 205.246 L2126.15 205.246 L2126.15 209.181 L2096.48 209.181 L2096.48 205.246 Z" fill="#000000" fill-rule="nonzero" fill-opacity="1" /><path clip-path="url(#clip350)" d="M2137.06 213.394 L2144.69 213.394 L2144.69 187.029 L2136.38 188.695 L2136.38 184.436 L2144.65 182.77 L2149.32 182.77 L2149.32 213.394 L2156.96 213.394 L2156.96 217.33 L2137.06 217.33 L2137.06 213.394 Z" fill="#000000" fill-rule="nonzero" fill-opacity="1" /><path clip-path="url(#clip350)" d="M2173.38 182.77 L2177.31 182.77 L2165.27 221.728 L2161.34 221.728 L2173.38 182.77 Z" fill="#000000" fill-rule="nonzero" fill-opacity="1" /><path clip-path="url(#clip350)" d="M2183.19 213.394 L2190.83 213.394 L2190.83 187.029 L2182.52 188.695 L2182.52 184.436 L2190.78 182.77 L2195.46 182.77 L2195.46 213.394 L2203.1 213.394 L2203.1 217.33 L2183.19 217.33 L2183.19 213.394 Z" fill="#000000" fill-rule="nonzero" fill-opacity="1" /><path clip-path="url(#clip350)" d="M2216.57 213.394 L2232.89 213.394 L2232.89 217.33 L2210.94 217.33 L2210.94 213.394 Q2213.61 210.64 2218.19 206.01 Q2222.8 201.357 2223.98 200.015 Q2226.22 197.492 2227.1 195.756 Q2228 193.996 2228 192.307 Q2228 189.552 2226.06 187.816 Q2224.14 186.08 2221.04 186.08 Q2218.84 186.08 2216.38 186.844 Q2213.95 187.607 2211.18 189.158 L2211.18 184.436 Q2214 183.302 2216.45 182.723 Q2218.91 182.145 2220.94 182.145 Q2226.31 182.145 2229.51 184.83 Q2232.7 187.515 2232.7 192.006 Q2232.7 194.135 2231.89 196.057 Q2231.11 197.955 2229 200.547 Q2228.42 201.219 2225.32 204.436 Q2222.22 207.631 2216.57 213.394 Z" fill="#000000" fill-rule="nonzero" fill-opacity="1" /><path clip-path="url(#clip350)" d="M2241.43 181.358 L2245.13 181.358 Q2248.61 186.82 2250.32 192.052 Q2252.06 197.283 2252.06 202.445 Q2252.06 207.631 2250.32 212.885 Q2248.61 218.14 2245.13 223.58 L2241.43 223.58 Q2244.51 218.279 2246.01 213.047 Q2247.54 207.793 2247.54 202.445 Q2247.54 197.098 2246.01 191.89 Q2244.51 186.682 2241.43 181.358 Z" fill="#000000" fill-rule="nonzero" fill-opacity="1" /><polyline clip-path="url(#clip350)" style="stroke:#3da44d; stroke-linecap:round; stroke-linejoin:round; stroke-width:4; stroke-opacity:1; fill:none" points="1797.91,251.89 1948.96,251.89 "/>
<path clip-path="url(#clip350)" d="M1978.42 265.281 L1978.42 279.031 L1974.14 279.031 L1974.14 243.244 L1978.42 243.244 L1978.42 247.179 Q1979.77 244.864 1981.8 243.753 Q1983.86 242.619 1986.71 242.619 Q1991.43 242.619 1994.37 246.369 Q1997.33 250.119 1997.33 256.23 Q1997.33 262.341 1994.37 266.091 Q1991.43 269.841 1986.71 269.841 Q1983.86 269.841 1981.8 268.73 Q1979.77 267.595 1978.42 265.281 M1992.91 256.23 Q1992.91 251.531 1990.97 248.869 Q1989.05 246.184 1985.67 246.184 Q1982.29 246.184 1980.34 248.869 Q1978.42 251.531 1978.42 256.23 Q1978.42 260.929 1980.34 263.614 Q1982.29 266.276 1985.67 266.276 Q1989.05 266.276 1990.97 263.614 Q1992.91 260.929 1992.91 256.23 Z" fill="#000000" fill-rule="nonzero" fill-opacity="1" /><path clip-path="url(#clip350)" d="M2014.63 233.198 Q2011.52 238.522 2010.02 243.73 Q2008.51 248.938 2008.51 254.285 Q2008.51 259.633 2010.02 264.887 Q2011.55 270.119 2014.63 275.42 L2010.92 275.42 Q2007.45 269.98 2005.71 264.725 Q2004 259.471 2004 254.285 Q2004 249.123 2005.71 243.892 Q2007.43 238.66 2010.92 233.198 L2014.63 233.198 Z" fill="#000000" fill-rule="nonzero" fill-opacity="1" /><path clip-path="url(#clip350)" d="M2033.68 271.577 Q2031.87 276.207 2030.16 277.619 Q2028.45 279.031 2025.58 279.031 L2022.17 279.031 L2022.17 275.466 L2024.67 275.466 Q2026.43 275.466 2027.4 274.632 Q2028.38 273.799 2029.56 270.697 L2030.32 268.753 L2019.83 243.244 L2024.35 243.244 L2032.45 263.521 L2040.55 243.244 L2045.07 243.244 L2033.68 271.577 Z" fill="#000000" fill-rule="nonzero" fill-opacity="1" /><path clip-path="url(#clip350)" d="M2056.43 232.943 L2056.43 280.35 L2052.5 280.35 L2052.5 232.943 L2056.43 232.943 Z" fill="#000000" fill-rule="nonzero" fill-opacity="1" /><path clip-path="url(#clip350)" d="M2084.32 252.734 L2069.58 252.734 Q2069.93 259.656 2071.52 262.596 Q2073.51 266.207 2076.96 266.207 Q2080.44 266.207 2082.36 262.572 Q2084.05 259.378 2084.32 252.734 M2084.26 248.799 Q2083.61 242.225 2082.36 239.91 Q2080.37 236.253 2076.96 236.253 Q2073.42 236.253 2071.55 239.864 Q2070.07 242.781 2069.63 248.799 L2084.26 248.799 M2076.96 232.781 Q2082.52 232.781 2085.69 237.688 Q2088.86 242.572 2088.86 251.23 Q2088.86 259.864 2085.69 264.771 Q2082.52 269.702 2076.96 269.702 Q2071.38 269.702 2068.24 264.771 Q2065.07 259.864 2065.07 251.23 Q2065.07 242.572 2068.24 237.688 Q2071.38 232.781 2076.96 232.781 Z" fill="#000000" fill-rule="nonzero" fill-opacity="1" /><path clip-path="url(#clip350)" d="M2096.48 247.642 L2126.15 247.642 L2126.15 251.531 L2096.48 251.531 L2096.48 247.642 M2096.48 257.086 L2126.15 257.086 L2126.15 261.021 L2096.48 261.021 L2096.48 257.086 Z" fill="#000000" fill-rule="nonzero" fill-opacity="1" /><path clip-path="url(#clip350)" d="M2137.06 265.234 L2144.69 265.234 L2144.69 238.869 L2136.38 240.535 L2136.38 236.276 L2144.65 234.61 L2149.32 234.61 L2149.32 265.234 L2156.96 265.234 L2156.96 269.17 L2137.06 269.17 L2137.06 265.234 Z" fill="#000000" fill-rule="nonzero" fill-opacity="1" /><path clip-path="url(#clip350)" d="M2173.38 234.61 L2177.31 234.61 L2165.27 273.568 L2161.34 273.568 L2173.38 234.61 Z" fill="#000000" fill-rule="nonzero" fill-opacity="1" /><path clip-path="url(#clip350)" d="M2192.96 250.026 Q2189.81 250.026 2187.96 252.179 Q2186.13 254.332 2186.13 258.082 Q2186.13 261.808 2187.96 263.984 Q2189.81 266.137 2192.96 266.137 Q2196.11 266.137 2197.94 263.984 Q2199.79 261.808 2199.79 258.082 Q2199.79 254.332 2197.94 252.179 Q2196.11 250.026 2192.96 250.026 M2202.24 235.373 L2202.24 239.633 Q2200.48 238.799 2198.68 238.36 Q2196.89 237.92 2195.13 237.92 Q2190.5 237.92 2188.05 241.045 Q2185.62 244.17 2185.27 250.489 Q2186.64 248.475 2188.7 247.41 Q2190.76 246.322 2193.24 246.322 Q2198.44 246.322 2201.45 249.494 Q2204.49 252.642 2204.49 258.082 Q2204.49 263.406 2201.34 266.623 Q2198.19 269.841 2192.96 269.841 Q2186.96 269.841 2183.79 265.258 Q2180.62 260.651 2180.62 251.924 Q2180.62 243.73 2184.51 238.869 Q2188.4 233.985 2194.95 233.985 Q2196.71 233.985 2198.49 234.332 Q2200.3 234.679 2202.24 235.373 Z" fill="#000000" fill-rule="nonzero" fill-opacity="1" /><path clip-path="url(#clip350)" d="M2211.27 233.198 L2214.97 233.198 Q2218.44 238.66 2220.16 243.892 Q2221.89 249.123 2221.89 254.285 Q2221.89 259.471 2220.16 264.725 Q2218.44 269.98 2214.97 275.42 L2211.27 275.42 Q2214.35 270.119 2215.85 264.887 Q2217.38 259.633 2217.38 254.285 Q2217.38 248.938 2215.85 243.73 Q2214.35 238.522 2211.27 233.198 Z" fill="#000000" fill-rule="nonzero" fill-opacity="1" /><polyline clip-path="url(#clip350)" style="stroke:#c271d2; stroke-linecap:round; stroke-linejoin:round; stroke-width:4; stroke-opacity:1; fill:none" points="1797.91,303.73 1948.96,303.73 "/>
<path clip-path="url(#clip350)" d="M1978.42 317.121 L1978.42 330.871 L1974.14 330.871 L1974.14 295.084 L1978.42 295.084 L1978.42 299.019 Q1979.77 296.704 1981.8 295.593 Q1983.86 294.459 1986.71 294.459 Q1991.43 294.459 1994.37 298.209 Q1997.33 301.959 1997.33 308.07 Q1997.33 314.181 1994.37 317.931 Q1991.43 321.681 1986.71 321.681 Q1983.86 321.681 1981.8 320.57 Q1979.77 319.435 1978.42 317.121 M1992.91 308.07 Q1992.91 303.371 1990.97 300.709 Q1989.05 298.024 1985.67 298.024 Q1982.29 298.024 1980.34 300.709 Q1978.42 303.371 1978.42 308.07 Q1978.42 312.769 1980.34 315.454 Q1982.29 318.116 1985.67 318.116 Q1989.05 318.116 1990.97 315.454 Q1992.91 312.769 1992.91 308.07 Z" fill="#000000" fill-rule="nonzero" fill-opacity="1" /><path clip-path="url(#clip350)" d="M2014.63 285.038 Q2011.52 290.362 2010.02 295.57 Q2008.51 300.778 2008.51 306.125 Q2008.51 311.473 2010.02 316.727 Q2011.55 321.959 2014.63 327.26 L2010.92 327.26 Q2007.45 321.82 2005.71 316.565 Q2004 311.311 2004 306.125 Q2004 300.963 2005.71 295.732 Q2007.43 290.5 2010.92 285.038 L2014.63 285.038 Z" fill="#000000" fill-rule="nonzero" fill-opacity="1" /><path clip-path="url(#clip350)" d="M2033.68 323.417 Q2031.87 328.047 2030.16 329.459 Q2028.45 330.871 2025.58 330.871 L2022.17 330.871 L2022.17 327.306 L2024.67 327.306 Q2026.43 327.306 2027.4 326.472 Q2028.38 325.639 2029.56 322.537 L2030.32 320.593 L2019.83 295.084 L2024.35 295.084 L2032.45 315.361 L2040.55 295.084 L2045.07 295.084 L2033.68 323.417 Z" fill="#000000" fill-rule="nonzero" fill-opacity="1" /><path clip-path="url(#clip350)" d="M2056.43 284.783 L2056.43 332.19 L2052.5 332.19 L2052.5 284.783 L2056.43 284.783 Z" fill="#000000" fill-rule="nonzero" fill-opacity="1" /><path clip-path="url(#clip350)" d="M2084.32 304.574 L2069.58 304.574 Q2069.93 311.496 2071.52 314.436 Q2073.51 318.047 2076.96 318.047 Q2080.44 318.047 2082.36 314.412 Q2084.05 311.218 2084.32 304.574 M2084.26 300.639 Q2083.61 294.065 2082.36 291.75 Q2080.37 288.093 2076.96 288.093 Q2073.42 288.093 2071.55 291.704 Q2070.07 294.621 2069.63 300.639 L2084.26 300.639 M2076.96 284.621 Q2082.52 284.621 2085.69 289.528 Q2088.86 294.412 2088.86 303.07 Q2088.86 311.704 2085.69 316.611 Q2082.52 321.542 2076.96 321.542 Q2071.38 321.542 2068.24 316.611 Q2065.07 311.704 2065.07 303.07 Q2065.07 294.412 2068.24 289.528 Q2071.38 284.621 2076.96 284.621 Z" fill="#000000" fill-rule="nonzero" fill-opacity="1" /><path clip-path="url(#clip350)" d="M2096.48 299.482 L2126.15 299.482 L2126.15 303.371 L2096.48 303.371 L2096.48 299.482 M2096.48 308.926 L2126.15 308.926 L2126.15 312.861 L2096.48 312.861 L2096.48 308.926 Z" fill="#000000" fill-rule="nonzero" fill-opacity="1" /><path clip-path="url(#clip350)" d="M2137.06 317.074 L2144.69 317.074 L2144.69 290.709 L2136.38 292.375 L2136.38 288.116 L2144.65 286.45 L2149.32 286.45 L2149.32 317.074 L2156.96 317.074 L2156.96 321.01 L2137.06 321.01 L2137.06 317.074 Z" fill="#000000" fill-rule="nonzero" fill-opacity="1" /><path clip-path="url(#clip350)" d="M2173.38 286.45 L2177.31 286.45 L2165.27 325.408 L2161.34 325.408 L2173.38 286.45 Z" fill="#000000" fill-rule="nonzero" fill-opacity="1" /><path clip-path="url(#clip350)" d="M2195.23 290.524 L2183.42 308.973 L2195.23 308.973 L2195.23 290.524 M2194 286.45 L2199.88 286.45 L2199.88 308.973 L2204.81 308.973 L2204.81 312.861 L2199.88 312.861 L2199.88 321.01 L2195.23 321.01 L2195.23 312.861 L2179.63 312.861 L2179.63 308.348 L2194 286.45 Z" fill="#000000" fill-rule="nonzero" fill-opacity="1" /><path clip-path="url(#clip350)" d="M2211.27 285.038 L2214.97 285.038 Q2218.44 290.5 2220.16 295.732 Q2221.89 300.963 2221.89 306.125 Q2221.89 311.311 2220.16 316.565 Q2218.44 321.82 2214.97 327.26 L2211.27 327.26 Q2214.35 321.959 2215.85 316.727 Q2217.38 311.473 2217.38 306.125 Q2217.38 300.778 2215.85 295.57 Q2214.35 290.362 2211.27 285.038 Z" fill="#000000" fill-rule="nonzero" fill-opacity="1" /></svg>
