<?xml version="1.0" encoding="utf-8"?>
<svg xmlns="http://www.w3.org/2000/svg" xmlns:xlink="http://www.w3.org/1999/xlink" width="600" height="400" viewBox="0 0 2400 1600">
<defs>
  <clipPath id="clip910">
    <rect x="0" y="0" width="2400" height="1600"/>
  </clipPath>
</defs>
<path clip-path="url(#clip910)" d="M0 1600 L2400 1600 L2400 0 L0 0  Z" fill="#ffffff" fill-rule="evenodd" fill-opacity="1"/>
<defs>
  <clipPath id="clip911">
    <rect x="480" y="0" width="1681" height="1600"/>
  </clipPath>
</defs>
<path clip-path="url(#clip910)" d="M86.9921 1521.01 L2352.76 1521.01 L2352.76 47.2441 L86.9921 47.2441  Z" fill="#ffffff" fill-rule="evenodd" fill-opacity="1"/>
<defs>
  <clipPath id="clip912">
    <rect x="86" y="47" width="2267" height="1475"/>
  </clipPath>
</defs>
<polyline clip-path="url(#clip912)" style="stroke:#000000; stroke-linecap:round; stroke-linejoin:round; stroke-width:2; stroke-opacity:0.1; fill:none" points="107.495,1521.01 107.495,47.2441 "/>
<polyline clip-path="url(#clip912)" style="stroke:#000000; stroke-linecap:round; stroke-linejoin:round; stroke-width:2; stroke-opacity:0.1; fill:none" points="543.722,1521.01 543.722,47.2441 "/>
<polyline clip-path="url(#clip912)" style="stroke:#000000; stroke-linecap:round; stroke-linejoin:round; stroke-width:2; stroke-opacity:0.1; fill:none" points="979.949,1521.01 979.949,47.2441 "/>
<polyline clip-path="url(#clip912)" style="stroke:#000000; stroke-linecap:round; stroke-linejoin:round; stroke-width:2; stroke-opacity:0.1; fill:none" points="1416.18,1521.01 1416.18,47.2441 "/>
<polyline clip-path="url(#clip912)" style="stroke:#000000; stroke-linecap:round; stroke-linejoin:round; stroke-width:2; stroke-opacity:0.1; fill:none" points="1852.4,1521.01 1852.4,47.2441 "/>
<polyline clip-path="url(#clip912)" style="stroke:#000000; stroke-linecap:round; stroke-linejoin:round; stroke-width:2; stroke-opacity:0.1; fill:none" points="2288.63,1521.01 2288.63,47.2441 "/>
<polyline clip-path="url(#clip910)" style="stroke:#000000; stroke-linecap:round; stroke-linejoin:round; stroke-width:4; stroke-opacity:1; fill:none" points="86.9921,1521.01 2352.76,1521.01 "/>
<polyline clip-path="url(#clip910)" style="stroke:#000000; stroke-linecap:round; stroke-linejoin:round; stroke-width:4; stroke-opacity:1; fill:none" points="107.495,1521.01 107.495,1502.11 "/>
<polyline clip-path="url(#clip910)" style="stroke:#000000; stroke-linecap:round; stroke-linejoin:round; stroke-width:4; stroke-opacity:1; fill:none" points="543.722,1521.01 543.722,1502.11 "/>
<polyline clip-path="url(#clip910)" style="stroke:#000000; stroke-linecap:round; stroke-linejoin:round; stroke-width:4; stroke-opacity:1; fill:none" points="979.949,1521.01 979.949,1502.11 "/>
<polyline clip-path="url(#clip910)" style="stroke:#000000; stroke-linecap:round; stroke-linejoin:round; stroke-width:4; stroke-opacity:1; fill:none" points="1416.18,1521.01 1416.18,1502.11 "/>
<polyline clip-path="url(#clip910)" style="stroke:#000000; stroke-linecap:round; stroke-linejoin:round; stroke-width:4; stroke-opacity:1; fill:none" points="1852.4,1521.01 1852.4,1502.11 "/>
<polyline clip-path="url(#clip910)" style="stroke:#000000; stroke-linecap:round; stroke-linejoin:round; stroke-width:4; stroke-opacity:1; fill:none" points="2288.63,1521.01 2288.63,1502.11 "/>
<path clip-path="url(#clip910)" d="M107.495 1551.93 Q103.884 1551.93 102.055 1555.49 Q100.249 1559.03 100.249 1566.16 Q100.249 1573.27 102.055 1576.83 Q103.884 1580.38 107.495 1580.38 Q111.129 1580.38 112.935 1576.83 Q114.763 1573.27 114.763 1566.16 Q114.763 1559.03 112.935 1555.49 Q111.129 1551.93 107.495 1551.93 M107.495 1548.22 Q113.305 1548.22 116.36 1552.83 Q119.439 1557.41 119.439 1566.16 Q119.439 1574.89 116.36 1579.5 Q113.305 1584.08 107.495 1584.08 Q101.685 1584.08 98.606 1579.5 Q95.5504 1574.89 95.5504 1566.16 Q95.5504 1557.41 98.606 1552.83 Q101.685 1548.22 107.495 1548.22 Z" fill="#000000" fill-rule="nonzero" fill-opacity="1" /><path clip-path="url(#clip910)" d="M518.41 1579.47 L526.048 1579.47 L526.048 1553.11 L517.738 1554.77 L517.738 1550.51 L526.002 1548.85 L530.678 1548.85 L530.678 1579.47 L538.317 1579.47 L538.317 1583.41 L518.41 1583.41 L518.41 1579.47 Z" fill="#000000" fill-rule="nonzero" fill-opacity="1" /><path clip-path="url(#clip910)" d="M557.761 1551.93 Q554.15 1551.93 552.321 1555.49 Q550.516 1559.03 550.516 1566.16 Q550.516 1573.27 552.321 1576.83 Q554.15 1580.38 557.761 1580.38 Q561.395 1580.38 563.201 1576.83 Q565.03 1573.27 565.03 1566.16 Q565.03 1559.03 563.201 1555.49 Q561.395 1551.93 557.761 1551.93 M557.761 1548.22 Q563.571 1548.22 566.627 1552.83 Q569.706 1557.41 569.706 1566.16 Q569.706 1574.89 566.627 1579.5 Q563.571 1584.08 557.761 1584.08 Q551.951 1584.08 548.872 1579.5 Q545.817 1574.89 545.817 1566.16 Q545.817 1557.41 548.872 1552.83 Q551.951 1548.22 557.761 1548.22 Z" fill="#000000" fill-rule="nonzero" fill-opacity="1" /><path clip-path="url(#clip910)" d="M958.722 1579.47 L975.042 1579.47 L975.042 1583.41 L953.097 1583.41 L953.097 1579.47 Q955.759 1576.72 960.343 1572.09 Q964.949 1567.44 966.13 1566.09 Q968.375 1563.57 969.255 1561.83 Q970.157 1560.07 970.157 1558.38 Q970.157 1555.63 968.213 1553.89 Q966.292 1552.16 963.19 1552.16 Q960.991 1552.16 958.537 1552.92 Q956.107 1553.69 953.329 1555.24 L953.329 1550.51 Q956.153 1549.38 958.607 1548.8 Q961.06 1548.22 963.097 1548.22 Q968.468 1548.22 971.662 1550.91 Q974.857 1553.59 974.857 1558.08 Q974.857 1560.21 974.046 1562.13 Q973.259 1564.03 971.153 1566.63 Q970.574 1567.3 967.472 1570.51 Q964.37 1573.71 958.722 1579.47 Z" fill="#000000" fill-rule="nonzero" fill-opacity="1" /><path clip-path="url(#clip910)" d="M994.856 1551.93 Q991.245 1551.93 989.417 1555.49 Q987.611 1559.03 987.611 1566.16 Q987.611 1573.27 989.417 1576.83 Q991.245 1580.38 994.856 1580.38 Q998.491 1580.38 1000.3 1576.83 Q1002.12 1573.27 1002.12 1566.16 Q1002.12 1559.03 1000.3 1555.49 Q998.491 1551.93 994.856 1551.93 M994.856 1548.22 Q1000.67 1548.22 1003.72 1552.83 Q1006.8 1557.41 1006.8 1566.16 Q1006.8 1574.89 1003.72 1579.5 Q1000.67 1584.08 994.856 1584.08 Q989.046 1584.08 985.968 1579.5 Q982.912 1574.89 982.912 1566.16 Q982.912 1557.41 985.968 1552.83 Q989.046 1548.22 994.856 1548.22 Z" fill="#000000" fill-rule="nonzero" fill-opacity="1" /><path clip-path="url(#clip910)" d="M1405.02 1564.77 Q1408.38 1565.49 1410.25 1567.76 Q1412.15 1570.03 1412.15 1573.36 Q1412.15 1578.48 1408.63 1581.28 Q1405.11 1584.08 1398.63 1584.08 Q1396.45 1584.08 1394.14 1583.64 Q1391.85 1583.22 1389.39 1582.37 L1389.39 1577.85 Q1391.34 1578.99 1393.65 1579.57 Q1395.97 1580.14 1398.49 1580.14 Q1402.89 1580.14 1405.18 1578.41 Q1407.5 1576.67 1407.5 1573.36 Q1407.5 1570.31 1405.34 1568.59 Q1403.21 1566.86 1399.39 1566.86 L1395.37 1566.86 L1395.37 1563.01 L1399.58 1563.01 Q1403.03 1563.01 1404.86 1561.65 Q1406.69 1560.26 1406.69 1557.67 Q1406.69 1555.01 1404.79 1553.59 Q1402.91 1552.16 1399.39 1552.16 Q1397.47 1552.16 1395.27 1552.57 Q1393.07 1552.99 1390.44 1553.87 L1390.44 1549.7 Q1393.1 1548.96 1395.41 1548.59 Q1397.75 1548.22 1399.81 1548.22 Q1405.13 1548.22 1408.24 1550.65 Q1411.34 1553.06 1411.34 1557.18 Q1411.34 1560.05 1409.69 1562.04 Q1408.05 1564.01 1405.02 1564.77 Z" fill="#000000" fill-rule="nonzero" fill-opacity="1" /><path clip-path="url(#clip910)" d="M1431.01 1551.93 Q1427.4 1551.93 1425.57 1555.49 Q1423.77 1559.03 1423.77 1566.16 Q1423.77 1573.27 1425.57 1576.83 Q1427.4 1580.38 1431.01 1580.38 Q1434.65 1580.38 1436.45 1576.83 Q1438.28 1573.27 1438.28 1566.16 Q1438.28 1559.03 1436.45 1555.49 Q1434.65 1551.93 1431.01 1551.93 M1431.01 1548.22 Q1436.82 1548.22 1439.88 1552.83 Q1442.96 1557.41 1442.96 1566.16 Q1442.96 1574.89 1439.88 1579.5 Q1436.82 1584.08 1431.01 1584.08 Q1425.2 1584.08 1422.13 1579.5 Q1419.07 1574.89 1419.07 1566.16 Q1419.07 1557.41 1422.13 1552.83 Q1425.2 1548.22 1431.01 1548.22 Z" fill="#000000" fill-rule="nonzero" fill-opacity="1" /><path clip-path="url(#clip910)" d="M1840.57 1552.92 L1828.77 1571.37 L1840.57 1571.37 L1840.57 1552.92 M1839.35 1548.85 L1845.23 1548.85 L1845.23 1571.37 L1850.16 1571.37 L1850.16 1575.26 L1845.23 1575.26 L1845.23 1583.41 L1840.57 1583.41 L1840.57 1575.26 L1824.97 1575.26 L1824.97 1570.75 L1839.35 1548.85 Z" fill="#000000" fill-rule="nonzero" fill-opacity="1" /><path clip-path="url(#clip910)" d="M1867.89 1551.93 Q1864.28 1551.93 1862.45 1555.49 Q1860.64 1559.03 1860.64 1566.16 Q1860.64 1573.27 1862.45 1576.83 Q1864.28 1580.38 1867.89 1580.38 Q1871.52 1580.38 1873.33 1576.83 Q1875.16 1573.27 1875.16 1566.16 Q1875.16 1559.03 1873.33 1555.49 Q1871.52 1551.93 1867.89 1551.93 M1867.89 1548.22 Q1873.7 1548.22 1876.76 1552.83 Q1879.83 1557.41 1879.83 1566.16 Q1879.83 1574.89 1876.76 1579.5 Q1873.7 1584.08 1867.89 1584.08 Q1862.08 1584.08 1859 1579.5 Q1855.95 1574.89 1855.95 1566.16 Q1855.95 1557.41 1859 1552.83 Q1862.08 1548.22 1867.89 1548.22 Z" fill="#000000" fill-rule="nonzero" fill-opacity="1" /><path clip-path="url(#clip910)" d="M2263.33 1548.85 L2281.69 1548.85 L2281.69 1552.78 L2267.61 1552.78 L2267.61 1561.26 Q2268.63 1560.91 2269.65 1560.75 Q2270.67 1560.56 2271.69 1560.56 Q2277.47 1560.56 2280.85 1563.73 Q2284.23 1566.9 2284.23 1572.32 Q2284.23 1577.9 2280.76 1581 Q2277.29 1584.08 2270.97 1584.08 Q2268.79 1584.08 2266.52 1583.71 Q2264.28 1583.34 2261.87 1582.6 L2261.87 1577.9 Q2263.95 1579.03 2266.18 1579.59 Q2268.4 1580.14 2270.88 1580.14 Q2274.88 1580.14 2277.22 1578.04 Q2279.56 1575.93 2279.56 1572.32 Q2279.56 1568.71 2277.22 1566.6 Q2274.88 1564.5 2270.88 1564.5 Q2269 1564.5 2267.13 1564.91 Q2265.27 1565.33 2263.33 1566.21 L2263.33 1548.85 Z" fill="#000000" fill-rule="nonzero" fill-opacity="1" /><path clip-path="url(#clip910)" d="M2303.45 1551.93 Q2299.83 1551.93 2298.01 1555.49 Q2296.2 1559.03 2296.2 1566.16 Q2296.2 1573.27 2298.01 1576.83 Q2299.83 1580.38 2303.45 1580.38 Q2307.08 1580.38 2308.89 1576.83 Q2310.71 1573.27 2310.71 1566.16 Q2310.71 1559.03 2308.89 1555.49 Q2307.08 1551.93 2303.45 1551.93 M2303.45 1548.22 Q2309.26 1548.22 2312.31 1552.83 Q2315.39 1557.41 2315.39 1566.16 Q2315.39 1574.89 2312.31 1579.5 Q2309.26 1584.08 2303.45 1584.08 Q2297.64 1584.08 2294.56 1579.5 Q2291.5 1574.89 2291.5 1566.16 Q2291.5 1557.41 2294.56 1552.83 Q2297.64 1548.22 2303.45 1548.22 Z" fill="#000000" fill-rule="nonzero" fill-opacity="1" /><polyline clip-path="url(#clip912)" style="stroke:#000000; stroke-linecap:round; stroke-linejoin:round; stroke-width:2; stroke-opacity:0.1; fill:none" points="86.9921,1514.77 2352.76,1514.77 "/>
<polyline clip-path="url(#clip912)" style="stroke:#000000; stroke-linecap:round; stroke-linejoin:round; stroke-width:2; stroke-opacity:0.1; fill:none" points="86.9921,1277.13 2352.76,1277.13 "/>
<polyline clip-path="url(#clip912)" style="stroke:#000000; stroke-linecap:round; stroke-linejoin:round; stroke-width:2; stroke-opacity:0.1; fill:none" points="86.9921,1039.5 2352.76,1039.5 "/>
<polyline clip-path="url(#clip912)" style="stroke:#000000; stroke-linecap:round; stroke-linejoin:round; stroke-width:2; stroke-opacity:0.1; fill:none" points="86.9921,801.86 2352.76,801.86 "/>
<polyline clip-path="url(#clip912)" style="stroke:#000000; stroke-linecap:round; stroke-linejoin:round; stroke-width:2; stroke-opacity:0.1; fill:none" points="86.9921,564.225 2352.76,564.225 "/>
<polyline clip-path="url(#clip912)" style="stroke:#000000; stroke-linecap:round; stroke-linejoin:round; stroke-width:2; stroke-opacity:0.1; fill:none" points="86.9921,326.59 2352.76,326.59 "/>
<polyline clip-path="url(#clip912)" style="stroke:#000000; stroke-linecap:round; stroke-linejoin:round; stroke-width:2; stroke-opacity:0.1; fill:none" points="86.9921,88.9544 2352.76,88.9544 "/>
<polyline clip-path="url(#clip910)" style="stroke:#000000; stroke-linecap:round; stroke-linejoin:round; stroke-width:4; stroke-opacity:1; fill:none" points="86.9921,1521.01 86.9921,47.2441 "/>
<polyline clip-path="url(#clip910)" style="stroke:#000000; stroke-linecap:round; stroke-linejoin:round; stroke-width:4; stroke-opacity:1; fill:none" points="86.9921,1514.77 105.89,1514.77 "/>
<polyline clip-path="url(#clip910)" style="stroke:#000000; stroke-linecap:round; stroke-linejoin:round; stroke-width:4; stroke-opacity:1; fill:none" points="86.9921,1277.13 105.89,1277.13 "/>
<polyline clip-path="url(#clip910)" style="stroke:#000000; stroke-linecap:round; stroke-linejoin:round; stroke-width:4; stroke-opacity:1; fill:none" points="86.9921,1039.5 105.89,1039.5 "/>
<polyline clip-path="url(#clip910)" style="stroke:#000000; stroke-linecap:round; stroke-linejoin:round; stroke-width:4; stroke-opacity:1; fill:none" points="86.9921,801.86 105.89,801.86 "/>
<polyline clip-path="url(#clip910)" style="stroke:#000000; stroke-linecap:round; stroke-linejoin:round; stroke-width:4; stroke-opacity:1; fill:none" points="86.9921,564.225 105.89,564.225 "/>
<polyline clip-path="url(#clip910)" style="stroke:#000000; stroke-linecap:round; stroke-linejoin:round; stroke-width:4; stroke-opacity:1; fill:none" points="86.9921,326.59 105.89,326.59 "/>
<polyline clip-path="url(#clip910)" style="stroke:#000000; stroke-linecap:round; stroke-linejoin:round; stroke-width:4; stroke-opacity:1; fill:none" points="86.9921,88.9544 105.89,88.9544 "/>
<path clip-path="url(#clip910)" d="M38.417 1555.16 L38.417 1547.52 L12.0514 1547.52 L13.718 1555.83 L9.45878 1555.83 L7.79213 1547.57 L7.79213 1542.89 L38.417 1542.89 L38.417 1535.25 L42.3521 1535.25 L42.3521 1555.16 L38.417 1555.16 Z" fill="#000000" fill-rule="nonzero" fill-opacity="1" /><path clip-path="url(#clip910)" d="M7.79213 1525.76 L7.79213 1507.4 L11.7273 1507.4 L11.7273 1521.48 L20.1995 1521.48 Q19.8522 1520.46 19.6902 1519.44 Q19.505 1518.42 19.505 1517.4 Q19.505 1511.62 22.6763 1508.24 Q25.8476 1504.86 31.2642 1504.86 Q36.8429 1504.86 39.9447 1508.33 Q43.0234 1511.8 43.0234 1518.12 Q43.0234 1520.3 42.6531 1522.57 Q42.2827 1524.81 41.5419 1527.22 L36.8429 1527.22 Q37.9771 1525.14 38.5327 1522.91 Q39.0883 1520.69 39.0883 1518.21 Q39.0883 1514.21 36.9818 1511.87 Q34.8753 1509.53 31.2642 1509.53 Q27.6531 1509.53 25.5467 1511.87 Q23.4402 1514.21 23.4402 1518.21 Q23.4402 1520.09 23.8569 1521.96 Q24.2735 1523.82 25.1531 1525.76 L7.79213 1525.76 Z" fill="#000000" fill-rule="nonzero" fill-opacity="1" /><path clip-path="url(#clip910)" d="M10.8708 1485.65 Q10.8708 1489.26 14.4356 1491.09 Q17.9773 1492.89 25.1068 1492.89 Q32.2133 1492.89 35.7781 1491.09 Q39.3197 1489.26 39.3197 1485.65 Q39.3197 1482.01 35.7781 1480.21 Q32.2133 1478.38 25.1068 1478.38 Q17.9773 1478.38 14.4356 1480.21 Q10.8708 1482.01 10.8708 1485.65 M7.16713 1485.65 Q7.16713 1479.84 11.7736 1476.78 Q16.3569 1473.7 25.1068 1473.7 Q33.8337 1473.7 38.4401 1476.78 Q43.0234 1479.84 43.0234 1485.65 Q43.0234 1491.46 38.4401 1494.53 Q33.8337 1497.59 25.1068 1497.59 Q16.3569 1497.59 11.7736 1494.53 Q7.16713 1491.46 7.16713 1485.65 Z" fill="#000000" fill-rule="nonzero" fill-opacity="1" /><path clip-path="url(#clip910)" d="M38.417 1316.91 L38.417 1309.27 L12.0514 1309.27 L13.718 1317.58 L9.45878 1317.58 L7.79213 1309.32 L7.79213 1304.64 L38.417 1304.64 L38.417 1297 L42.3521 1297 L42.3521 1316.91 L38.417 1316.91 Z" fill="#000000" fill-rule="nonzero" fill-opacity="1" /><path clip-path="url(#clip910)" d="M7.79213 1287.51 L7.79213 1269.16 L11.7273 1269.16 L11.7273 1283.23 L20.1995 1283.23 Q19.8522 1282.21 19.6902 1281.19 Q19.505 1280.17 19.505 1279.16 Q19.505 1273.37 22.6763 1269.99 Q25.8476 1266.61 31.2642 1266.61 Q36.8429 1266.61 39.9447 1270.08 Q43.0234 1273.55 43.0234 1279.87 Q43.0234 1282.05 42.6531 1284.32 Q42.2827 1286.56 41.5419 1288.97 L36.8429 1288.97 Q37.9771 1286.89 38.5327 1284.67 Q39.0883 1282.44 39.0883 1279.97 Q39.0883 1275.96 36.9818 1273.62 Q34.8753 1271.29 31.2642 1271.29 Q27.6531 1271.29 25.5467 1273.62 Q23.4402 1275.96 23.4402 1279.97 Q23.4402 1281.84 23.8569 1283.72 Q24.2735 1285.57 25.1531 1287.51 L7.79213 1287.51 Z" fill="#000000" fill-rule="nonzero" fill-opacity="1" /><path clip-path="url(#clip910)" d="M38.417 1256.59 L38.417 1248.95 L12.0514 1248.95 L13.718 1257.26 L9.45878 1257.26 L7.79213 1248.99 L7.79213 1244.32 L38.417 1244.32 L38.417 1236.68 L42.3521 1236.68 L42.3521 1256.59 L38.417 1256.59 Z" fill="#000000" fill-rule="nonzero" fill-opacity="1" /><path clip-path="url(#clip910)" d="M38.417 1079.09 L38.417 1071.45 L12.0514 1071.45 L13.718 1079.76 L9.45878 1079.76 L7.79213 1071.5 L7.79213 1066.82 L38.417 1066.82 L38.417 1059.18 L42.3521 1059.18 L42.3521 1079.09 L38.417 1079.09 Z" fill="#000000" fill-rule="nonzero" fill-opacity="1" /><path clip-path="url(#clip910)" d="M7.79213 1049.69 L7.79213 1031.34 L11.7273 1031.34 L11.7273 1045.41 L20.1995 1045.41 Q19.8522 1044.39 19.6902 1043.37 Q19.505 1042.35 19.505 1041.34 Q19.505 1035.55 22.6763 1032.17 Q25.8476 1028.79 31.2642 1028.79 Q36.8429 1028.79 39.9447 1032.26 Q43.0234 1035.73 43.0234 1042.05 Q43.0234 1044.23 42.6531 1046.5 Q42.2827 1048.74 41.5419 1051.15 L36.8429 1051.15 Q37.9771 1049.07 38.5327 1046.84 Q39.0883 1044.62 39.0883 1042.15 Q39.0883 1038.14 36.9818 1035.8 Q34.8753 1033.47 31.2642 1033.47 Q27.6531 1033.47 25.5467 1035.8 Q23.4402 1038.14 23.4402 1042.15 Q23.4402 1044.02 23.8569 1045.9 Q24.2735 1047.75 25.1531 1049.69 L7.79213 1049.69 Z" fill="#000000" fill-rule="nonzero" fill-opacity="1" /><path clip-path="url(#clip910)" d="M38.417 1015.55 L38.417 999.229 L42.3521 999.229 L42.3521 1021.17 L38.417 1021.17 Q35.6623 1018.51 31.0327 1013.93 Q26.38 1009.32 25.0374 1008.14 Q22.5143 1005.9 20.7782 1005.02 Q19.0189 1004.11 17.3291 1004.11 Q14.5745 1004.11 12.8384 1006.06 Q11.1023 1007.98 11.1023 1011.08 Q11.1023 1013.28 11.8662 1015.73 Q12.6301 1018.16 14.181 1020.94 L9.45878 1020.94 Q8.32453 1018.12 7.74583 1015.66 Q7.16713 1013.21 7.16713 1011.17 Q7.16713 1005.8 9.8523 1002.61 Q12.5375 999.414 17.0282 999.414 Q19.1578 999.414 21.0791 1000.22 Q22.9772 1001.01 25.5698 1003.12 Q26.2411 1003.7 29.4587 1006.8 Q32.6531 1009.9 38.417 1015.55 Z" fill="#000000" fill-rule="nonzero" fill-opacity="1" /><path clip-path="url(#clip910)" d="M38.417 841.929 L38.417 834.29 L12.0514 834.29 L13.718 842.6 L9.45878 842.6 L7.79213 834.337 L7.79213 829.661 L38.417 829.661 L38.417 822.022 L42.3521 822.022 L42.3521 841.929 L38.417 841.929 Z" fill="#000000" fill-rule="nonzero" fill-opacity="1" /><path clip-path="url(#clip910)" d="M7.79213 812.531 L7.79213 794.175 L11.7273 794.175 L11.7273 808.249 L20.1995 808.249 Q19.8522 807.23 19.6902 806.212 Q19.505 805.193 19.505 804.175 Q19.505 798.388 22.6763 795.008 Q25.8476 791.629 31.2642 791.629 Q36.8429 791.629 39.9447 795.101 Q43.0234 798.573 43.0234 804.892 Q43.0234 807.068 42.6531 809.337 Q42.2827 811.582 41.5419 813.99 L36.8429 813.99 Q37.9771 811.906 38.5327 809.684 Q39.0883 807.462 39.0883 804.985 Q39.0883 800.98 36.9818 798.642 Q34.8753 796.304 31.2642 796.304 Q27.6531 796.304 25.5467 798.642 Q23.4402 800.98 23.4402 804.985 Q23.4402 806.86 23.8569 808.735 Q24.2735 810.587 25.1531 812.531 L7.79213 812.531 Z" fill="#000000" fill-rule="nonzero" fill-opacity="1" /><path clip-path="url(#clip910)" d="M23.718 768.249 Q24.4356 764.893 26.7041 763.018 Q28.9726 761.119 32.3059 761.119 Q37.4216 761.119 40.2225 764.638 Q43.0234 768.156 43.0234 774.638 Q43.0234 776.814 42.5836 779.129 Q42.1669 781.42 41.3105 783.874 L36.7966 783.874 Q37.9309 781.93 38.5096 779.615 Q39.0883 777.3 39.0883 774.777 Q39.0883 770.379 37.3522 768.087 Q35.6161 765.772 32.3059 765.772 Q29.2503 765.772 27.5374 767.925 Q25.8013 770.055 25.8013 773.874 L25.8013 777.902 L21.9587 777.902 L21.9587 773.689 Q21.9587 770.24 20.593 768.411 Q19.2041 766.582 16.6115 766.582 Q13.9495 766.582 12.5375 768.481 Q11.1023 770.355 11.1023 773.874 Q11.1023 775.795 11.519 777.994 Q11.9356 780.193 12.8152 782.832 L8.6486 782.832 Q7.90787 780.17 7.5375 777.855 Q7.16713 775.518 7.16713 773.457 Q7.16713 768.133 9.59767 765.031 Q12.0051 761.93 16.1254 761.93 Q18.9958 761.93 20.9865 763.573 Q22.9541 765.217 23.718 768.249 Z" fill="#000000" fill-rule="nonzero" fill-opacity="1" /><path clip-path="url(#clip910)" d="M38.417 604.861 L38.417 597.222 L12.0514 597.222 L13.718 605.532 L9.45878 605.532 L7.79213 597.269 L7.79213 592.593 L38.417 592.593 L38.417 584.954 L42.3521 584.954 L42.3521 604.861 L38.417 604.861 Z" fill="#000000" fill-rule="nonzero" fill-opacity="1" /><path clip-path="url(#clip910)" d="M7.79213 575.463 L7.79213 557.107 L11.7273 557.107 L11.7273 571.181 L20.1995 571.181 Q19.8522 570.162 19.6902 569.144 Q19.505 568.125 19.505 567.107 Q19.505 561.32 22.6763 557.94 Q25.8476 554.56 31.2642 554.56 Q36.8429 554.56 39.9447 558.033 Q43.0234 561.505 43.0234 567.824 Q43.0234 570 42.6531 572.269 Q42.2827 574.514 41.5419 576.921 L36.8429 576.921 Q37.9771 574.838 38.5327 572.616 Q39.0883 570.394 39.0883 567.917 Q39.0883 563.912 36.9818 561.574 Q34.8753 559.236 31.2642 559.236 Q27.6531 559.236 25.5467 561.574 Q23.4402 563.912 23.4402 567.917 Q23.4402 569.792 23.8569 571.667 Q24.2735 573.519 25.1531 575.463 L7.79213 575.463 Z" fill="#000000" fill-rule="nonzero" fill-opacity="1" /><path clip-path="url(#clip910)" d="M11.8662 532.5 L30.3152 544.306 L30.3152 532.5 L11.8662 532.5 M7.79213 533.727 L7.79213 527.848 L30.3152 527.848 L30.3152 522.917 L34.204 522.917 L34.204 527.848 L42.3521 527.848 L42.3521 532.5 L34.204 532.5 L34.204 548.102 L29.6902 548.102 L7.79213 533.727 Z" fill="#000000" fill-rule="nonzero" fill-opacity="1" /><path clip-path="url(#clip910)" d="M38.417 366.485 L38.417 358.846 L12.0514 358.846 L13.718 367.156 L9.45878 367.156 L7.79213 358.893 L7.79213 354.217 L38.417 354.217 L38.417 346.578 L42.3521 346.578 L42.3521 366.485 L38.417 366.485 Z" fill="#000000" fill-rule="nonzero" fill-opacity="1" /><path clip-path="url(#clip910)" d="M7.79213 337.087 L7.79213 318.731 L11.7273 318.731 L11.7273 332.805 L20.1995 332.805 Q19.8522 331.786 19.6902 330.768 Q19.505 329.749 19.505 328.731 Q19.505 322.944 22.6763 319.564 Q25.8476 316.185 31.2642 316.185 Q36.8429 316.185 39.9447 319.657 Q43.0234 323.129 43.0234 329.448 Q43.0234 331.624 42.6531 333.893 Q42.2827 336.138 41.5419 338.546 L36.8429 338.546 Q37.9771 336.462 38.5327 334.24 Q39.0883 332.018 39.0883 329.541 Q39.0883 325.536 36.9818 323.198 Q34.8753 320.86 31.2642 320.86 Q27.6531 320.86 25.5467 323.198 Q23.4402 325.536 23.4402 329.541 Q23.4402 331.416 23.8569 333.291 Q24.2735 335.143 25.1531 337.087 L7.79213 337.087 Z" fill="#000000" fill-rule="nonzero" fill-opacity="1" /><path clip-path="url(#clip910)" d="M7.79213 306.925 L7.79213 288.569 L11.7273 288.569 L11.7273 302.643 L20.1995 302.643 Q19.8522 301.624 19.6902 300.606 Q19.505 299.587 19.505 298.569 Q19.505 292.782 22.6763 289.402 Q25.8476 286.023 31.2642 286.023 Q36.8429 286.023 39.9447 289.495 Q43.0234 292.967 43.0234 299.286 Q43.0234 301.462 42.6531 303.731 Q42.2827 305.976 41.5419 308.384 L36.8429 308.384 Q37.9771 306.3 38.5327 304.078 Q39.0883 301.856 39.0883 299.379 Q39.0883 295.374 36.9818 293.037 Q34.8753 290.699 31.2642 290.699 Q27.6531 290.699 25.5467 293.037 Q23.4402 295.374 23.4402 299.379 Q23.4402 301.254 23.8569 303.129 Q24.2735 304.981 25.1531 306.925 L7.79213 306.925 Z" fill="#000000" fill-rule="nonzero" fill-opacity="1" /><path clip-path="url(#clip910)" d="M38.417 129.429 L38.417 121.79 L12.0514 121.79 L13.718 130.1 L9.45878 130.1 L7.79213 121.836 L7.79213 117.16 L38.417 117.16 L38.417 109.521 L42.3521 109.521 L42.3521 129.429 L38.417 129.429 Z" fill="#000000" fill-rule="nonzero" fill-opacity="1" /><path clip-path="url(#clip910)" d="M7.79213 100.031 L7.79213 81.6743 L11.7273 81.6743 L11.7273 95.7483 L20.1995 95.7483 Q19.8522 94.7298 19.6902 93.7113 Q19.505 92.6928 19.505 91.6743 Q19.505 85.8873 22.6763 82.5077 Q25.8476 79.1281 31.2642 79.1281 Q36.8429 79.1281 39.9447 82.6003 Q43.0234 86.0725 43.0234 92.3919 Q43.0234 94.5678 42.6531 96.8363 Q42.2827 99.0817 41.5419 101.489 L36.8429 101.489 Q37.9771 99.4057 38.5327 97.1835 Q39.0883 94.9613 39.0883 92.4845 Q39.0883 88.4799 36.9818 86.1419 Q34.8753 83.804 31.2642 83.804 Q27.6531 83.804 25.5467 86.1419 Q23.4402 88.4799 23.4402 92.4845 Q23.4402 94.3595 23.8569 96.2344 Q24.2735 98.0863 25.1531 100.031 L7.79213 100.031 Z" fill="#000000" fill-rule="nonzero" fill-opacity="1" /><path clip-path="url(#clip910)" d="M23.2087 59.3365 Q23.2087 62.4846 25.3615 64.3365 Q27.5142 66.1652 31.2642 66.1652 Q34.9911 66.1652 37.167 64.3365 Q39.3197 62.4846 39.3197 59.3365 Q39.3197 56.1884 37.167 54.3597 Q34.9911 52.5078 31.2642 52.5078 Q27.5142 52.5078 25.3615 54.3597 Q23.2087 56.1884 23.2087 59.3365 M8.55601 50.0541 L12.8152 50.0541 Q11.9819 51.8134 11.5421 53.6189 Q11.1023 55.4013 11.1023 57.1606 Q11.1023 61.7902 14.2273 64.2439 Q17.3523 66.6744 23.6717 67.0216 Q21.6578 65.6559 20.593 63.5957 Q19.505 61.5356 19.505 59.0587 Q19.505 53.8504 22.6763 50.8412 Q25.8244 47.8088 31.2642 47.8088 Q36.5883 47.8088 39.8058 50.9569 Q43.0234 54.105 43.0234 59.3365 Q43.0234 65.3318 38.4401 68.5031 Q33.8337 71.6744 25.1068 71.6744 Q16.9124 71.6744 12.0514 67.7855 Q7.16713 63.8967 7.16713 57.3458 Q7.16713 55.5865 7.51435 53.8041 Q7.86157 51.9986 8.55601 50.0541 Z" fill="#000000" fill-rule="nonzero" fill-opacity="1" /><polyline clip-path="url(#clip912)" style="stroke:#009af9; stroke-linecap:round; stroke-linejoin:round; stroke-width:4; stroke-opacity:1; fill:none" points="151.118,88.9544 194.74,722.648 238.363,966.377 281.986,1095.41 325.608,1175.29 369.231,1229.6 412.854,1268.94 456.477,1298.73 500.099,1322.09 543.722,1340.89 587.345,1356.34 630.967,1369.27 674.59,1380.26 718.213,1389.69 761.836,1397.9 805.458,1405.09 849.081,1411.45 892.704,1417.11 936.326,1422.18 979.949,1426.75 1023.57,1430.89 1067.19,1434.66 1110.82,1438.11 1154.44,1441.27 1198.06,1444.18 1241.69,1446.87 1285.31,1449.36 1328.93,1451.68 1372.55,1453.83 1416.18,1455.85 1459.8,1457.73 1503.42,1459.5 1547.04,1461.16 1590.67,1462.73 1634.29,1464.2 1677.91,1465.6 1721.54,1466.92 1765.16,1468.17 1808.78,1469.36 1852.4,1470.49 1896.03,1471.56 1939.65,1472.58 1983.27,1473.56 2026.89,1474.49 2070.52,1475.38 2114.14,1476.23 2157.76,1477.05 2201.39,1477.83 2245.01,1478.58 2288.63,1479.3 "/>
<path clip-path="url(#clip910)" d="M1942.67 200.05 L2277.23 200.05 L2277.23 96.3696 L1942.67 96.3696  Z" fill="#ffffff" fill-rule="evenodd" fill-opacity="1"/>
<polyline clip-path="url(#clip910)" style="stroke:#000000; stroke-linecap:round; stroke-linejoin:round; stroke-width:4; stroke-opacity:1; fill:none" points="1942.67,200.05 2277.23,200.05 2277.23,96.3696 1942.67,96.3696 1942.67,200.05 "/>
<polyline clip-path="url(#clip910)" style="stroke:#009af9; stroke-linecap:round; stroke-linejoin:round; stroke-width:4; stroke-opacity:1; fill:none" points="1967.84,148.21 2118.89,148.21 "/>
<path clip-path="url(#clip910)" d="M2144.07 175.351 L2144.07 139.564 L2148.33 139.564 L2148.33 155.675 Q2148.33 159.031 2149.93 160.744 Q2151.52 162.457 2154.65 162.457 Q2158.07 162.457 2159.79 160.513 Q2161.52 158.568 2161.52 154.679 L2161.52 139.564 L2165.78 139.564 L2165.78 159.517 Q2165.78 160.906 2166.18 161.578 Q2166.59 162.226 2167.45 162.226 Q2167.66 162.226 2168.03 162.11 Q2168.4 161.971 2169.05 161.693 L2169.05 165.119 Q2168.1 165.652 2167.24 165.906 Q2166.41 166.161 2165.6 166.161 Q2164 166.161 2163.05 165.258 Q2162.1 164.355 2161.75 162.503 Q2160.6 164.332 2158.91 165.258 Q2157.24 166.161 2154.97 166.161 Q2152.61 166.161 2150.94 165.258 Q2149.3 164.355 2148.33 162.55 L2148.33 175.351 L2144.07 175.351 Z" fill="#000000" fill-rule="nonzero" fill-opacity="1" /><path clip-path="url(#clip910)" d="M2186.59 156.716 L2186.59 165.49 L2183.91 165.49 L2183.91 156.809 Q2183.91 154.749 2183 153.73 Q2182.1 152.689 2180.3 152.689 Q2178.12 152.689 2176.87 153.939 Q2175.62 155.166 2175.62 157.295 L2175.62 165.49 L2172.91 165.49 L2172.91 150.976 L2175.62 150.976 L2175.62 153.221 Q2176.57 151.925 2177.87 151.277 Q2179.19 150.629 2180.9 150.629 Q2183.7 150.629 2185.13 152.179 Q2186.59 153.73 2186.59 156.716 Z" fill="#000000" fill-rule="nonzero" fill-opacity="1" /><path clip-path="url(#clip910)" d="M2203.79 129.518 Q2200.69 134.842 2199.19 140.05 Q2197.68 145.258 2197.68 150.605 Q2197.68 155.953 2199.19 161.207 Q2200.71 166.439 2203.79 171.74 L2200.09 171.74 Q2196.62 166.3 2194.88 161.045 Q2193.17 155.791 2193.17 150.605 Q2193.17 145.443 2194.88 140.212 Q2196.59 134.98 2200.09 129.518 L2203.79 129.518 Z" fill="#000000" fill-rule="nonzero" fill-opacity="1" /><path clip-path="url(#clip910)" d="M2233.61 149.841 L2233.61 165.49 L2229.35 165.49 L2229.35 149.98 Q2229.35 146.3 2227.91 144.471 Q2226.48 142.642 2223.61 142.642 Q2220.16 142.642 2218.17 144.842 Q2216.18 147.041 2216.18 150.837 L2216.18 165.49 L2211.89 165.49 L2211.89 139.564 L2216.18 139.564 L2216.18 143.592 Q2217.7 141.254 2219.76 140.096 Q2221.85 138.939 2224.56 138.939 Q2229.02 138.939 2231.31 141.717 Q2233.61 144.471 2233.61 149.841 Z" fill="#000000" fill-rule="nonzero" fill-opacity="1" /><path clip-path="url(#clip910)" d="M2241.43 129.518 L2245.13 129.518 Q2248.61 134.98 2250.32 140.212 Q2252.06 145.443 2252.06 150.605 Q2252.06 155.791 2250.32 161.045 Q2248.61 166.3 2245.13 171.74 L2241.43 171.74 Q2244.51 166.439 2246.01 161.207 Q2247.54 155.953 2247.54 150.605 Q2247.54 145.258 2246.01 140.05 Q2244.51 134.842 2241.43 129.518 Z" fill="#000000" fill-rule="nonzero" fill-opacity="1" /></svg>
