<?xml version="1.0" encoding="utf-8"?>
<svg xmlns="http://www.w3.org/2000/svg" xmlns:xlink="http://www.w3.org/1999/xlink" width="600" height="400" viewBox="0 0 2400 1600">
<defs>
  <clipPath id="clip950">
    <rect x="0" y="0" width="2400" height="1600"/>
  </clipPath>
</defs>
<path clip-path="url(#clip950)" d="M0 1600 L2400 1600 L2400 0 L0 0  Z" fill="#ffffff" fill-rule="evenodd" fill-opacity="1"/>
<defs>
  <clipPath id="clip951">
    <rect x="480" y="0" width="1681" height="1600"/>
  </clipPath>
</defs>
<path clip-path="url(#clip950)" d="M86.9921 1521.01 L2352.76 1521.01 L2352.76 47.2441 L86.9921 47.2441  Z" fill="#ffffff" fill-rule="evenodd" fill-opacity="1"/>
<defs>
  <clipPath id="clip952">
    <rect x="86" y="47" width="2267" height="1475"/>
  </clipPath>
</defs>
<polyline clip-path="url(#clip952)" style="stroke:#000000; stroke-linecap:round; stroke-linejoin:round; stroke-width:2; stroke-opacity:0.1; fill:none" points="86.9921,1521.01 86.9921,47.2441 "/>
<polyline clip-path="url(#clip952)" style="stroke:#000000; stroke-linecap:round; stroke-linejoin:round; stroke-width:2; stroke-opacity:0.1; fill:none" points="842.247,1521.01 842.247,47.2441 "/>
<polyline clip-path="url(#clip952)" style="stroke:#000000; stroke-linecap:round; stroke-linejoin:round; stroke-width:2; stroke-opacity:0.1; fill:none" points="1597.5,1521.01 1597.5,47.2441 "/>
<polyline clip-path="url(#clip952)" style="stroke:#000000; stroke-linecap:round; stroke-linejoin:round; stroke-width:2; stroke-opacity:0.1; fill:none" points="2352.76,1521.01 2352.76,47.2441 "/>
<polyline clip-path="url(#clip950)" style="stroke:#000000; stroke-linecap:round; stroke-linejoin:round; stroke-width:4; stroke-opacity:1; fill:none" points="86.9921,1521.01 2352.76,1521.01 "/>
<polyline clip-path="url(#clip950)" style="stroke:#000000; stroke-linecap:round; stroke-linejoin:round; stroke-width:4; stroke-opacity:1; fill:none" points="86.9921,1521.01 86.9921,1502.11 "/>
<polyline clip-path="url(#clip950)" style="stroke:#000000; stroke-linecap:round; stroke-linejoin:round; stroke-width:4; stroke-opacity:1; fill:none" points="842.247,1521.01 842.247,1502.11 "/>
<polyline clip-path="url(#clip950)" style="stroke:#000000; stroke-linecap:round; stroke-linejoin:round; stroke-width:4; stroke-opacity:1; fill:none" points="1597.5,1521.01 1597.5,1502.11 "/>
<polyline clip-path="url(#clip950)" style="stroke:#000000; stroke-linecap:round; stroke-linejoin:round; stroke-width:4; stroke-opacity:1; fill:none" points="2352.76,1521.01 2352.76,1502.11 "/>
<path clip-path="url(#clip950)" d="M46.5988 1579.47 L54.2377 1579.47 L54.2377 1553.11 L45.9275 1554.77 L45.9275 1550.51 L54.1914 1548.85 L58.8673 1548.85 L58.8673 1579.47 L66.5061 1579.47 L66.5061 1583.41 L46.5988 1583.41 L46.5988 1579.47 Z" fill="#000000" fill-rule="nonzero" fill-opacity="1" /><path clip-path="url(#clip950)" d="M85.9505 1551.93 Q82.3394 1551.93 80.5107 1555.49 Q78.7051 1559.03 78.7051 1566.16 Q78.7051 1573.27 80.5107 1576.83 Q82.3394 1580.38 85.9505 1580.38 Q89.5847 1580.38 91.3903 1576.83 Q93.2189 1573.27 93.2189 1566.16 Q93.2189 1559.03 91.3903 1555.49 Q89.5847 1551.93 85.9505 1551.93 M85.9505 1548.22 Q91.7606 1548.22 94.8162 1552.83 Q97.8948 1557.41 97.8948 1566.16 Q97.8948 1574.89 94.8162 1579.5 Q91.7606 1584.08 85.9505 1584.08 Q80.1403 1584.08 77.0616 1579.5 Q74.0061 1574.89 74.0061 1566.16 Q74.0061 1557.41 77.0616 1552.83 Q80.1403 1548.22 85.9505 1548.22 Z" fill="#000000" fill-rule="nonzero" fill-opacity="1" /><path clip-path="url(#clip950)" d="M116.112 1551.93 Q112.501 1551.93 110.673 1555.49 Q108.867 1559.03 108.867 1566.16 Q108.867 1573.27 110.673 1576.83 Q112.501 1580.38 116.112 1580.38 Q119.747 1580.38 121.552 1576.83 Q123.381 1573.27 123.381 1566.16 Q123.381 1559.03 121.552 1555.49 Q119.747 1551.93 116.112 1551.93 M116.112 1548.22 Q121.922 1548.22 124.978 1552.83 Q128.057 1557.41 128.057 1566.16 Q128.057 1574.89 124.978 1579.5 Q121.922 1584.08 116.112 1584.08 Q110.302 1584.08 107.223 1579.5 Q104.168 1574.89 104.168 1566.16 Q104.168 1557.41 107.223 1552.83 Q110.302 1548.22 116.112 1548.22 Z" fill="#000000" fill-rule="nonzero" fill-opacity="1" /><path clip-path="url(#clip950)" d="M801.853 1579.47 L809.492 1579.47 L809.492 1553.11 L801.182 1554.77 L801.182 1550.51 L809.446 1548.85 L814.122 1548.85 L814.122 1579.47 L821.761 1579.47 L821.761 1583.41 L801.853 1583.41 L801.853 1579.47 Z" fill="#000000" fill-rule="nonzero" fill-opacity="1" /><path clip-path="url(#clip950)" d="M831.251 1548.85 L849.608 1548.85 L849.608 1552.78 L835.534 1552.78 L835.534 1561.26 Q836.552 1560.91 837.571 1560.75 Q838.589 1560.56 839.608 1560.56 Q845.395 1560.56 848.774 1563.73 Q852.154 1566.9 852.154 1572.32 Q852.154 1577.9 848.682 1581 Q845.21 1584.08 838.89 1584.08 Q836.714 1584.08 834.446 1583.71 Q832.2 1583.34 829.793 1582.6 L829.793 1577.9 Q831.876 1579.03 834.099 1579.59 Q836.321 1580.14 838.798 1580.14 Q842.802 1580.14 845.14 1578.04 Q847.478 1575.93 847.478 1572.32 Q847.478 1568.71 845.14 1566.6 Q842.802 1564.5 838.798 1564.5 Q836.923 1564.5 835.048 1564.91 Q833.196 1565.33 831.251 1566.21 L831.251 1548.85 Z" fill="#000000" fill-rule="nonzero" fill-opacity="1" /><path clip-path="url(#clip950)" d="M871.367 1551.93 Q867.756 1551.93 865.927 1555.49 Q864.122 1559.03 864.122 1566.16 Q864.122 1573.27 865.927 1576.83 Q867.756 1580.38 871.367 1580.38 Q875.001 1580.38 876.807 1576.83 Q878.635 1573.27 878.635 1566.16 Q878.635 1559.03 876.807 1555.49 Q875.001 1551.93 871.367 1551.93 M871.367 1548.22 Q877.177 1548.22 880.233 1552.83 Q883.311 1557.41 883.311 1566.16 Q883.311 1574.89 880.233 1579.5 Q877.177 1584.08 871.367 1584.08 Q865.557 1584.08 862.478 1579.5 Q859.423 1574.89 859.423 1566.16 Q859.423 1557.41 862.478 1552.83 Q865.557 1548.22 871.367 1548.22 Z" fill="#000000" fill-rule="nonzero" fill-opacity="1" /><path clip-path="url(#clip950)" d="M1561.19 1579.47 L1577.51 1579.47 L1577.51 1583.41 L1555.57 1583.41 L1555.57 1579.47 Q1558.23 1576.72 1562.81 1572.09 Q1567.42 1567.44 1568.6 1566.09 Q1570.85 1563.57 1571.73 1561.83 Q1572.63 1560.07 1572.63 1558.38 Q1572.63 1555.63 1570.68 1553.89 Q1568.76 1552.16 1565.66 1552.16 Q1563.46 1552.16 1561.01 1552.92 Q1558.58 1553.69 1555.8 1555.24 L1555.8 1550.51 Q1558.62 1549.38 1561.08 1548.8 Q1563.53 1548.22 1565.57 1548.22 Q1570.94 1548.22 1574.13 1550.91 Q1577.33 1553.59 1577.33 1558.08 Q1577.33 1560.21 1576.52 1562.13 Q1575.73 1564.03 1573.62 1566.63 Q1573.05 1567.3 1569.94 1570.51 Q1566.84 1573.71 1561.19 1579.47 Z" fill="#000000" fill-rule="nonzero" fill-opacity="1" /><path clip-path="url(#clip950)" d="M1597.33 1551.93 Q1593.72 1551.93 1591.89 1555.49 Q1590.08 1559.03 1590.08 1566.16 Q1590.08 1573.27 1591.89 1576.83 Q1593.72 1580.38 1597.33 1580.38 Q1600.96 1580.38 1602.77 1576.83 Q1604.6 1573.27 1604.6 1566.16 Q1604.6 1559.03 1602.77 1555.49 Q1600.96 1551.93 1597.33 1551.93 M1597.33 1548.22 Q1603.14 1548.22 1606.19 1552.83 Q1609.27 1557.41 1609.27 1566.16 Q1609.27 1574.89 1606.19 1579.5 Q1603.14 1584.08 1597.33 1584.08 Q1591.52 1584.08 1588.44 1579.5 Q1585.38 1574.89 1585.38 1566.16 Q1585.38 1557.41 1588.44 1552.83 Q1591.52 1548.22 1597.33 1548.22 Z" fill="#000000" fill-rule="nonzero" fill-opacity="1" /><path clip-path="url(#clip950)" d="M1627.49 1551.93 Q1623.88 1551.93 1622.05 1555.49 Q1620.24 1559.03 1620.24 1566.16 Q1620.24 1573.27 1622.05 1576.83 Q1623.88 1580.38 1627.49 1580.38 Q1631.12 1580.38 1632.93 1576.83 Q1634.76 1573.27 1634.76 1566.16 Q1634.76 1559.03 1632.93 1555.49 Q1631.12 1551.93 1627.49 1551.93 M1627.49 1548.22 Q1633.3 1548.22 1636.36 1552.83 Q1639.43 1557.41 1639.43 1566.16 Q1639.43 1574.89 1636.36 1579.5 Q1633.3 1584.08 1627.49 1584.08 Q1621.68 1584.08 1618.6 1579.5 Q1615.55 1574.89 1615.55 1566.16 Q1615.55 1557.41 1618.6 1552.83 Q1621.68 1548.22 1627.49 1548.22 Z" fill="#000000" fill-rule="nonzero" fill-opacity="1" /><path clip-path="url(#clip950)" d="M2316.45 1579.47 L2332.77 1579.47 L2332.77 1583.41 L2310.82 1583.41 L2310.82 1579.47 Q2313.49 1576.72 2318.07 1572.09 Q2322.68 1567.44 2323.86 1566.09 Q2326.1 1563.57 2326.98 1561.83 Q2327.88 1560.07 2327.88 1558.38 Q2327.88 1555.63 2325.94 1553.89 Q2324.02 1552.16 2320.92 1552.16 Q2318.72 1552.16 2316.26 1552.92 Q2313.83 1553.69 2311.05 1555.24 L2311.05 1550.51 Q2313.88 1549.38 2316.33 1548.8 Q2318.79 1548.22 2320.82 1548.22 Q2326.19 1548.22 2329.39 1550.91 Q2332.58 1553.59 2332.58 1558.08 Q2332.58 1560.21 2331.77 1562.13 Q2330.99 1564.03 2328.88 1566.63 Q2328.3 1567.3 2325.2 1570.51 Q2322.1 1573.71 2316.45 1579.47 Z" fill="#000000" fill-rule="nonzero" fill-opacity="1" /><path clip-path="url(#clip950)" d="M2342.63 1548.85 L2360.99 1548.85 L2360.99 1552.78 L2346.91 1552.78 L2346.91 1561.26 Q2347.93 1560.91 2348.95 1560.75 Q2349.97 1560.56 2350.99 1560.56 Q2356.77 1560.56 2360.15 1563.73 Q2363.53 1566.9 2363.53 1572.32 Q2363.53 1577.9 2360.06 1581 Q2356.59 1584.08 2350.27 1584.08 Q2348.09 1584.08 2345.82 1583.71 Q2343.58 1583.34 2341.17 1582.6 L2341.17 1577.9 Q2343.25 1579.03 2345.48 1579.59 Q2347.7 1580.14 2350.17 1580.14 Q2354.18 1580.14 2356.52 1578.04 Q2358.86 1575.93 2358.86 1572.32 Q2358.86 1568.71 2356.52 1566.6 Q2354.18 1564.5 2350.17 1564.5 Q2348.3 1564.5 2346.42 1564.91 Q2344.57 1565.33 2342.63 1566.21 L2342.63 1548.85 Z" fill="#000000" fill-rule="nonzero" fill-opacity="1" /><path clip-path="url(#clip950)" d="M2382.74 1551.93 Q2379.13 1551.93 2377.3 1555.49 Q2375.5 1559.03 2375.5 1566.16 Q2375.5 1573.27 2377.3 1576.83 Q2379.13 1580.38 2382.74 1580.38 Q2386.38 1580.38 2388.18 1576.83 Q2390.01 1573.27 2390.01 1566.16 Q2390.01 1559.03 2388.18 1555.49 Q2386.38 1551.93 2382.74 1551.93 M2382.74 1548.22 Q2388.55 1548.22 2391.61 1552.83 Q2394.69 1557.41 2394.69 1566.16 Q2394.69 1574.89 2391.61 1579.5 Q2388.55 1584.08 2382.74 1584.08 Q2376.93 1584.08 2373.86 1579.5 Q2370.8 1574.89 2370.8 1566.16 Q2370.8 1557.41 2373.86 1552.83 Q2376.93 1548.22 2382.74 1548.22 Z" fill="#000000" fill-rule="nonzero" fill-opacity="1" /><polyline clip-path="url(#clip952)" style="stroke:#000000; stroke-linecap:round; stroke-linejoin:round; stroke-width:2; stroke-opacity:0.1; fill:none" points="86.9921,1479.45 2352.76,1479.45 "/>
<polyline clip-path="url(#clip952)" style="stroke:#000000; stroke-linecap:round; stroke-linejoin:round; stroke-width:2; stroke-opacity:0.1; fill:none" points="86.9921,1169.59 2352.76,1169.59 "/>
<polyline clip-path="url(#clip952)" style="stroke:#000000; stroke-linecap:round; stroke-linejoin:round; stroke-width:2; stroke-opacity:0.1; fill:none" points="86.9921,859.733 2352.76,859.733 "/>
<polyline clip-path="url(#clip952)" style="stroke:#000000; stroke-linecap:round; stroke-linejoin:round; stroke-width:2; stroke-opacity:0.1; fill:none" points="86.9921,549.874 2352.76,549.874 "/>
<polyline clip-path="url(#clip952)" style="stroke:#000000; stroke-linecap:round; stroke-linejoin:round; stroke-width:2; stroke-opacity:0.1; fill:none" points="86.9921,240.015 2352.76,240.015 "/>
<polyline clip-path="url(#clip950)" style="stroke:#000000; stroke-linecap:round; stroke-linejoin:round; stroke-width:4; stroke-opacity:1; fill:none" points="86.9921,1521.01 86.9921,47.2441 "/>
<polyline clip-path="url(#clip950)" style="stroke:#000000; stroke-linecap:round; stroke-linejoin:round; stroke-width:4; stroke-opacity:1; fill:none" points="86.9921,1479.45 105.89,1479.45 "/>
<polyline clip-path="url(#clip950)" style="stroke:#000000; stroke-linecap:round; stroke-linejoin:round; stroke-width:4; stroke-opacity:1; fill:none" points="86.9921,1169.59 105.89,1169.59 "/>
<polyline clip-path="url(#clip950)" style="stroke:#000000; stroke-linecap:round; stroke-linejoin:round; stroke-width:4; stroke-opacity:1; fill:none" points="86.9921,859.733 105.89,859.733 "/>
<polyline clip-path="url(#clip950)" style="stroke:#000000; stroke-linecap:round; stroke-linejoin:round; stroke-width:4; stroke-opacity:1; fill:none" points="86.9921,549.874 105.89,549.874 "/>
<polyline clip-path="url(#clip950)" style="stroke:#000000; stroke-linecap:round; stroke-linejoin:round; stroke-width:4; stroke-opacity:1; fill:none" points="86.9921,240.015 105.89,240.015 "/>
<path clip-path="url(#clip950)" d="M10.8708 1517.15 Q10.8708 1520.76 14.4356 1522.59 Q17.9773 1524.39 25.1068 1524.39 Q32.2133 1524.39 35.7781 1522.59 Q39.3197 1520.76 39.3197 1517.15 Q39.3197 1513.51 35.7781 1511.71 Q32.2133 1509.88 25.1068 1509.88 Q17.9773 1509.88 14.4356 1511.71 Q10.8708 1513.51 10.8708 1517.15 M7.16713 1517.15 Q7.16713 1511.34 11.7736 1508.28 Q16.3569 1505.2 25.1068 1505.2 Q33.8337 1505.2 38.4401 1508.28 Q43.0234 1511.34 43.0234 1517.15 Q43.0234 1522.96 38.4401 1526.04 Q33.8337 1529.09 25.1068 1529.09 Q16.3569 1529.09 11.7736 1526.04 Q7.16713 1522.96 7.16713 1517.15 Z" fill="#000000" fill-rule="nonzero" fill-opacity="1" /><path clip-path="url(#clip950)" d="M36.4725 1496.99 L36.4725 1492.1 L42.3521 1492.1 L42.3521 1496.99 L36.4725 1496.99 Z" fill="#000000" fill-rule="nonzero" fill-opacity="1" /><path clip-path="url(#clip950)" d="M10.8708 1471.92 Q10.8708 1475.53 14.4356 1477.36 Q17.9773 1479.16 25.1068 1479.16 Q32.2133 1479.16 35.7781 1477.36 Q39.3197 1475.53 39.3197 1471.92 Q39.3197 1468.28 35.7781 1466.48 Q32.2133 1464.65 25.1068 1464.65 Q17.9773 1464.65 14.4356 1466.48 Q10.8708 1468.28 10.8708 1471.92 M7.16713 1471.92 Q7.16713 1466.11 11.7736 1463.05 Q16.3569 1459.97 25.1068 1459.97 Q33.8337 1459.97 38.4401 1463.05 Q43.0234 1466.11 43.0234 1471.92 Q43.0234 1477.73 38.4401 1480.81 Q33.8337 1483.86 25.1068 1483.86 Q16.3569 1483.86 11.7736 1480.81 Q7.16713 1477.73 7.16713 1471.92 Z" fill="#000000" fill-rule="nonzero" fill-opacity="1" /><path clip-path="url(#clip950)" d="M10.8708 1441.75 Q10.8708 1445.37 14.4356 1447.19 Q17.9773 1449 25.1068 1449 Q32.2133 1449 35.7781 1447.19 Q39.3197 1445.37 39.3197 1441.75 Q39.3197 1438.12 35.7781 1436.31 Q32.2133 1434.49 25.1068 1434.49 Q17.9773 1434.49 14.4356 1436.31 Q10.8708 1438.12 10.8708 1441.75 M7.16713 1441.75 Q7.16713 1435.94 11.7736 1432.89 Q16.3569 1429.81 25.1068 1429.81 Q33.8337 1429.81 38.4401 1432.89 Q43.0234 1435.94 43.0234 1441.75 Q43.0234 1447.56 38.4401 1450.64 Q33.8337 1453.7 25.1068 1453.7 Q16.3569 1453.7 11.7736 1450.64 Q7.16713 1447.56 7.16713 1441.75 Z" fill="#000000" fill-rule="nonzero" fill-opacity="1" /><path clip-path="url(#clip950)" d="M10.8708 1206.49 Q10.8708 1210.1 14.4356 1211.93 Q17.9773 1213.74 25.1068 1213.74 Q32.2133 1213.74 35.7781 1211.93 Q39.3197 1210.1 39.3197 1206.49 Q39.3197 1202.86 35.7781 1201.05 Q32.2133 1199.22 25.1068 1199.22 Q17.9773 1199.22 14.4356 1201.05 Q10.8708 1202.86 10.8708 1206.49 M7.16713 1206.49 Q7.16713 1200.68 11.7736 1197.62 Q16.3569 1194.55 25.1068 1194.55 Q33.8337 1194.55 38.4401 1197.62 Q43.0234 1200.68 43.0234 1206.49 Q43.0234 1212.3 38.4401 1215.38 Q33.8337 1218.43 25.1068 1218.43 Q16.3569 1218.43 11.7736 1215.38 Q7.16713 1212.3 7.16713 1206.49 Z" fill="#000000" fill-rule="nonzero" fill-opacity="1" /><path clip-path="url(#clip950)" d="M36.4725 1186.33 L36.4725 1181.44 L42.3521 1181.44 L42.3521 1186.33 L36.4725 1186.33 Z" fill="#000000" fill-rule="nonzero" fill-opacity="1" /><path clip-path="url(#clip950)" d="M10.8708 1161.26 Q10.8708 1164.87 14.4356 1166.7 Q17.9773 1168.5 25.1068 1168.5 Q32.2133 1168.5 35.7781 1166.7 Q39.3197 1164.87 39.3197 1161.26 Q39.3197 1157.62 35.7781 1155.82 Q32.2133 1153.99 25.1068 1153.99 Q17.9773 1153.99 14.4356 1155.82 Q10.8708 1157.62 10.8708 1161.26 M7.16713 1161.26 Q7.16713 1155.45 11.7736 1152.39 Q16.3569 1149.31 25.1068 1149.31 Q33.8337 1149.31 38.4401 1152.39 Q43.0234 1155.45 43.0234 1161.26 Q43.0234 1167.07 38.4401 1170.15 Q33.8337 1173.2 25.1068 1173.2 Q16.3569 1173.2 11.7736 1170.15 Q7.16713 1167.07 7.16713 1161.26 Z" fill="#000000" fill-rule="nonzero" fill-opacity="1" /><path clip-path="url(#clip950)" d="M38.417 1137.07 L38.417 1120.75 L42.3521 1120.75 L42.3521 1142.69 L38.417 1142.69 Q35.6623 1140.03 31.0327 1135.45 Q26.38 1130.84 25.0374 1129.66 Q22.5143 1127.42 20.7782 1126.54 Q19.0189 1125.63 17.3291 1125.63 Q14.5745 1125.63 12.8384 1127.58 Q11.1023 1129.5 11.1023 1132.6 Q11.1023 1134.8 11.8662 1137.25 Q12.6301 1139.68 14.181 1142.46 L9.45878 1142.46 Q8.32453 1139.64 7.74583 1137.18 Q7.16713 1134.73 7.16713 1132.69 Q7.16713 1127.32 9.8523 1124.13 Q12.5375 1120.93 17.0282 1120.93 Q19.1578 1120.93 21.0791 1121.74 Q22.9772 1122.53 25.5698 1124.64 Q26.2411 1125.22 29.4587 1128.32 Q32.6531 1131.42 38.417 1137.07 Z" fill="#000000" fill-rule="nonzero" fill-opacity="1" /><path clip-path="url(#clip950)" d="M10.8708 897.673 Q10.8708 901.284 14.4356 903.112 Q17.9773 904.918 25.1068 904.918 Q32.2133 904.918 35.7781 903.112 Q39.3197 901.284 39.3197 897.673 Q39.3197 894.038 35.7781 892.233 Q32.2133 890.404 25.1068 890.404 Q17.9773 890.404 14.4356 892.233 Q10.8708 894.038 10.8708 897.673 M7.16713 897.673 Q7.16713 891.862 11.7736 888.807 Q16.3569 885.728 25.1068 885.728 Q33.8337 885.728 38.4401 888.807 Q43.0234 891.862 43.0234 897.673 Q43.0234 903.483 38.4401 906.561 Q33.8337 909.617 25.1068 909.617 Q16.3569 909.617 11.7736 906.561 Q7.16713 903.483 7.16713 897.673 Z" fill="#000000" fill-rule="nonzero" fill-opacity="1" /><path clip-path="url(#clip950)" d="M36.4725 877.511 L36.4725 872.626 L42.3521 872.626 L42.3521 877.511 L36.4725 877.511 Z" fill="#000000" fill-rule="nonzero" fill-opacity="1" /><path clip-path="url(#clip950)" d="M10.8708 852.441 Q10.8708 856.052 14.4356 857.881 Q17.9773 859.687 25.1068 859.687 Q32.2133 859.687 35.7781 857.881 Q39.3197 856.052 39.3197 852.441 Q39.3197 848.807 35.7781 847.002 Q32.2133 845.173 25.1068 845.173 Q17.9773 845.173 14.4356 847.002 Q10.8708 848.807 10.8708 852.441 M7.16713 852.441 Q7.16713 846.631 11.7736 843.576 Q16.3569 840.497 25.1068 840.497 Q33.8337 840.497 38.4401 843.576 Q43.0234 846.631 43.0234 852.441 Q43.0234 858.252 38.4401 861.33 Q33.8337 864.386 25.1068 864.386 Q16.3569 864.386 11.7736 861.33 Q7.16713 858.252 7.16713 852.441 Z" fill="#000000" fill-rule="nonzero" fill-opacity="1" /><path clip-path="url(#clip950)" d="M11.8662 819.432 L30.3152 831.238 L30.3152 819.432 L11.8662 819.432 M7.79213 820.659 L7.79213 814.78 L30.3152 814.78 L30.3152 809.849 L34.204 809.849 L34.204 814.78 L42.3521 814.78 L42.3521 819.432 L34.204 819.432 L34.204 835.034 L29.6902 835.034 L7.79213 820.659 Z" fill="#000000" fill-rule="nonzero" fill-opacity="1" /><path clip-path="url(#clip950)" d="M10.8708 587.652 Q10.8708 591.263 14.4356 593.091 Q17.9773 594.897 25.1068 594.897 Q32.2133 594.897 35.7781 593.091 Q39.3197 591.263 39.3197 587.652 Q39.3197 584.017 35.7781 582.212 Q32.2133 580.383 25.1068 580.383 Q17.9773 580.383 14.4356 582.212 Q10.8708 584.017 10.8708 587.652 M7.16713 587.652 Q7.16713 581.841 11.7736 578.786 Q16.3569 575.707 25.1068 575.707 Q33.8337 575.707 38.4401 578.786 Q43.0234 581.841 43.0234 587.652 Q43.0234 593.462 38.4401 596.54 Q33.8337 599.596 25.1068 599.596 Q16.3569 599.596 11.7736 596.54 Q7.16713 593.462 7.16713 587.652 Z" fill="#000000" fill-rule="nonzero" fill-opacity="1" /><path clip-path="url(#clip950)" d="M36.4725 567.49 L36.4725 562.605 L42.3521 562.605 L42.3521 567.49 L36.4725 567.49 Z" fill="#000000" fill-rule="nonzero" fill-opacity="1" /><path clip-path="url(#clip950)" d="M10.8708 542.42 Q10.8708 546.031 14.4356 547.86 Q17.9773 549.666 25.1068 549.666 Q32.2133 549.666 35.7781 547.86 Q39.3197 546.031 39.3197 542.42 Q39.3197 538.786 35.7781 536.981 Q32.2133 535.152 25.1068 535.152 Q17.9773 535.152 14.4356 536.981 Q10.8708 538.786 10.8708 542.42 M7.16713 542.42 Q7.16713 536.61 11.7736 533.555 Q16.3569 530.476 25.1068 530.476 Q33.8337 530.476 38.4401 533.555 Q43.0234 536.61 43.0234 542.42 Q43.0234 548.231 38.4401 551.309 Q33.8337 554.365 25.1068 554.365 Q16.3569 554.365 11.7736 551.309 Q7.16713 548.231 7.16713 542.42 Z" fill="#000000" fill-rule="nonzero" fill-opacity="1" /><path clip-path="url(#clip950)" d="M23.2087 511.68 Q23.2087 514.828 25.3615 516.68 Q27.5142 518.508 31.2642 518.508 Q34.9911 518.508 37.167 516.68 Q39.3197 514.828 39.3197 511.68 Q39.3197 508.532 37.167 506.703 Q34.9911 504.851 31.2642 504.851 Q27.5142 504.851 25.3615 506.703 Q23.2087 508.532 23.2087 511.68 M8.55601 502.397 L12.8152 502.397 Q11.9819 504.157 11.5421 505.962 Q11.1023 507.745 11.1023 509.504 Q11.1023 514.133 14.2273 516.587 Q17.3523 519.018 23.6717 519.365 Q21.6578 517.999 20.593 515.939 Q19.505 513.879 19.505 511.402 Q19.505 506.194 22.6763 503.184 Q25.8244 500.152 31.2642 500.152 Q36.5883 500.152 39.8058 503.3 Q43.0234 506.448 43.0234 511.68 Q43.0234 517.675 38.4401 520.846 Q33.8337 524.018 25.1068 524.018 Q16.9124 524.018 12.0514 520.129 Q7.16713 516.24 7.16713 509.689 Q7.16713 507.93 7.51435 506.147 Q7.86157 504.342 8.55601 502.397 Z" fill="#000000" fill-rule="nonzero" fill-opacity="1" /><path clip-path="url(#clip950)" d="M10.8708 277.665 Q10.8708 281.276 14.4356 283.105 Q17.9773 284.911 25.1068 284.911 Q32.2133 284.911 35.7781 283.105 Q39.3197 281.276 39.3197 277.665 Q39.3197 274.031 35.7781 272.226 Q32.2133 270.397 25.1068 270.397 Q17.9773 270.397 14.4356 272.226 Q10.8708 274.031 10.8708 277.665 M7.16713 277.665 Q7.16713 271.855 11.7736 268.8 Q16.3569 265.721 25.1068 265.721 Q33.8337 265.721 38.4401 268.8 Q43.0234 271.855 43.0234 277.665 Q43.0234 283.476 38.4401 286.554 Q33.8337 289.61 25.1068 289.61 Q16.3569 289.61 11.7736 286.554 Q7.16713 283.476 7.16713 277.665 Z" fill="#000000" fill-rule="nonzero" fill-opacity="1" /><path clip-path="url(#clip950)" d="M36.4725 257.503 L36.4725 252.619 L42.3521 252.619 L42.3521 257.503 L36.4725 257.503 Z" fill="#000000" fill-rule="nonzero" fill-opacity="1" /><path clip-path="url(#clip950)" d="M10.8708 232.434 Q10.8708 236.045 14.4356 237.874 Q17.9773 239.679 25.1068 239.679 Q32.2133 239.679 35.7781 237.874 Q39.3197 236.045 39.3197 232.434 Q39.3197 228.8 35.7781 226.994 Q32.2133 225.166 25.1068 225.166 Q17.9773 225.166 14.4356 226.994 Q10.8708 228.8 10.8708 232.434 M7.16713 232.434 Q7.16713 226.624 11.7736 223.568 Q16.3569 220.49 25.1068 220.49 Q33.8337 220.49 38.4401 223.568 Q43.0234 226.624 43.0234 232.434 Q43.0234 238.244 38.4401 241.323 Q33.8337 244.378 25.1068 244.378 Q16.3569 244.378 11.7736 241.323 Q7.16713 238.244 7.16713 232.434 Z" fill="#000000" fill-rule="nonzero" fill-opacity="1" /><path clip-path="url(#clip950)" d="M25.9402 202.272 Q25.9402 205.606 27.7226 207.527 Q29.505 209.425 32.63 209.425 Q35.7549 209.425 37.5373 207.527 Q39.3197 205.606 39.3197 202.272 Q39.3197 198.939 37.5373 197.018 Q35.7318 195.096 32.63 195.096 Q29.505 195.096 27.7226 197.018 Q25.9402 198.916 25.9402 202.272 M23.9494 206.948 Q23.2087 209.957 21.1485 211.647 Q19.0884 213.314 16.1254 213.314 Q11.9819 213.314 9.57452 210.374 Q7.16713 207.411 7.16713 202.272 Q7.16713 197.11 9.57452 194.17 Q11.9819 191.231 16.1254 191.231 Q19.0884 191.231 21.1485 192.92 Q23.2087 194.587 23.9494 197.573 Q24.7365 194.194 27.0281 192.319 Q29.3198 190.42 32.63 190.42 Q37.6531 190.42 40.3382 193.499 Q43.0234 196.555 43.0234 202.272 Q43.0234 207.99 40.3382 211.068 Q37.6531 214.124 32.63 214.124 Q29.3198 214.124 27.0281 212.226 Q24.7365 210.328 23.9494 206.948 M16.5652 208.661 Q19.2504 208.661 20.755 206.994 Q22.2596 205.305 22.2596 202.272 Q22.2596 199.263 20.755 197.573 Q19.2504 195.86 16.5652 195.86 Q13.8801 195.86 12.3754 197.573 Q10.8708 199.263 10.8708 202.272 Q10.8708 205.305 12.3754 206.994 Q13.8801 208.661 16.5652 208.661 Z" fill="#000000" fill-rule="nonzero" fill-opacity="1" /><polyline clip-path="url(#clip952)" style="stroke:#009af9; stroke-linecap:round; stroke-linejoin:round; stroke-width:4; stroke-opacity:1; fill:none" points="-951.644,1479.3 -937.014,1479.28 -922.385,1479.27 -787.114,1479.04 -651.844,1478.59 -570.552,1478.14 -489.26,1477.48 -420.528,1476.71 -351.797,1475.69 -314.466,1475.01 -277.135,1474.23 -239.805,1473.33 -202.474,1472.3 -168.058,1471.23 -133.642,1470.03 -99.2268,1468.68 -64.8111,1467.19 -27.9139,1465.41 8.98337,1463.43 45.8806,1461.24 82.7778,1458.83 125.527,1455.74 168.276,1452.33 211.025,1448.58 253.774,1444.49 291.764,1440.56 329.755,1436.37 367.745,1431.9 405.735,1427.19 439.049,1422.86 472.364,1418.35 505.678,1413.68 538.992,1408.88 611.634,1398 684.277,1386.8 757.351,1375.51 830.426,1364.53 850.624,1361.61 870.822,1358.74 891.02,1355.94 911.219,1353.21 931.417,1350.57 951.615,1348.02 971.813,1345.58 992.012,1343.23 1011.23,1341.11 1030.45,1339.1 1049.67,1337.2 1068.88,1335.42 1088.1,1333.76 1107.32,1332.24 1126.54,1330.85 1145.76,1329.6 1165.74,1328.45 1185.72,1327.46 1205.7,1326.62 1225.69,1325.96 1245.67,1325.45 1265.65,1325.12 1285.63,1324.95 1305.62,1324.95 1322.44,1325.09 1339.26,1325.34 1356.08,1325.71 1372.9,1326.2 1389.72,1326.8 1406.54,1327.52 1423.36,1328.36 1440.18,1329.3 1460.72,1330.61 1481.26,1332.07 1501.79,1333.69 1522.33,1335.45 1542.87,1337.36 1563.4,1339.41 1583.94,1341.58 1604.47,1343.88 1642.1,1348.39 1679.73,1353.23 1698.54,1355.77 1717.35,1358.37 1736.16,1361.03 1754.98,1363.75 1824.48,1374.14 1893.98,1384.86 1964.38,1395.74 2034.78,1406.37 2074.23,1412.13 2113.68,1417.69 2153.13,1423.04 2192.58,1428.14 2228.33,1432.54 2264.07,1436.71 2299.82,1440.65 2335.57,1444.34 2376.5,1448.28 2417.43,1451.9 2458.36,1455.21 2499.29,1458.22 2537.18,1460.75 2575.08,1463.05 2612.98,1465.12 2650.87,1466.97 2688.24,1468.61 2725.6,1470.07 2762.96,1471.36 2800.32,1472.5 2836.6,1473.48 2872.87,1474.34 2909.15,1475.09 2945.42,1475.74 3019.79,1476.82 3094.17,1477.61 3175.65,1478.23 3257.14,1478.66 3375.51,1479.04 3493.88,1479.24 3518.16,1479.27 3542.44,1479.3 "/>
<polyline clip-path="url(#clip952)" style="stroke:#e26f46; stroke-linecap:round; stroke-linejoin:round; stroke-width:4; stroke-opacity:1; fill:none" points="253.887,1478.9 257.944,1478.85 262.002,1478.79 299.519,1477.98 337.037,1476.36 359.583,1474.72 382.129,1472.35 401.192,1469.58 420.255,1465.9 430.608,1463.44 440.962,1460.61 451.316,1457.37 461.669,1453.66 471.215,1449.8 480.76,1445.47 490.305,1440.63 499.85,1435.25 510.084,1428.83 520.317,1421.69 530.55,1413.8 540.784,1405.1 552.64,1393.97 564.497,1381.66 576.353,1368.14 588.21,1353.39 598.746,1339.23 609.283,1324.1 619.82,1308.02 630.356,1291.02 639.596,1275.39 648.836,1259.14 658.075,1242.32 667.315,1224.99 687.462,1185.78 707.61,1145.4 727.877,1104.69 748.144,1065.11 753.746,1054.55 759.348,1044.21 764.95,1034.11 770.552,1024.29 776.154,1014.77 781.756,1005.59 787.358,996.756 792.96,988.31 798.29,980.656 803.62,973.394 808.95,966.545 814.281,960.13 819.611,954.166 824.941,948.671 830.271,943.66 835.601,939.15 841.143,935.004 846.685,931.426 852.228,928.427 857.77,926.018 863.312,924.206 868.854,922.997 874.396,922.395 879.938,922.401 884.603,922.879 889.269,923.788 893.934,925.124 898.599,926.886 903.265,929.069 907.93,931.668 912.595,934.678 917.26,938.09 922.956,942.791 928.652,948.066 934.348,953.897 940.044,960.263 945.739,967.145 951.435,974.519 957.131,982.362 962.827,990.648 973.262,1006.89 983.697,1024.36 988.915,1033.5 994.133,1042.88 999.351,1052.48 1004.57,1062.27 1023.84,1099.74 1043.12,1138.39 1062.65,1177.63 1082.17,1215.95 1093.11,1236.71 1104.05,1256.77 1115,1276.05 1125.94,1294.45 1135.85,1310.31 1145.77,1325.35 1155.68,1339.54 1165.6,1352.87 1176.95,1367.06 1188.3,1380.12 1199.65,1392.06 1211,1402.92 1221.51,1412.04 1232.02,1420.31 1242.53,1427.77 1253.05,1434.46 1263.41,1440.37 1273.77,1445.62 1284.13,1450.29 1294.49,1454.4 1304.56,1457.92 1314.62,1461.01 1324.68,1463.71 1334.74,1466.07 1355.37,1469.96 1375.99,1472.82 1398.59,1475.05 1421.19,1476.59 1454.02,1477.96 1486.85,1478.71 1493.59,1478.81 1500.32,1478.9 "/>
<polyline clip-path="url(#clip952)" style="stroke:#3da44d; stroke-linecap:round; stroke-linejoin:round; stroke-width:4; stroke-opacity:1; fill:none" points="598.17,1478.07 599.795,1477.94 601.421,1477.8 616.451,1475.79 631.481,1471.73 640.513,1467.64 649.546,1461.72 657.183,1454.8 664.819,1445.62 668.967,1439.49 673.115,1432.43 677.263,1424.33 681.411,1415.08 685.235,1405.44 689.059,1394.63 692.883,1382.55 696.707,1369.12 700.806,1353.09 704.906,1335.28 709.006,1315.57 713.105,1293.85 717.855,1266.07 722.605,1235.36 727.355,1201.61 732.105,1164.78 736.326,1129.45 740.547,1091.68 744.768,1051.54 748.99,1009.1 752.691,970.094 756.393,929.529 760.094,887.536 763.796,844.27 771.867,746.413 779.939,645.621 788.058,543.985 796.177,445.201 798.422,418.841 800.666,393.024 802.91,367.822 805.154,343.306 807.399,319.546 809.643,296.611 811.887,274.57 814.131,253.49 816.267,234.382 818.402,216.256 820.537,199.161 822.673,183.147 824.808,168.26 826.944,154.543 829.079,142.037 831.214,130.778 833.434,120.429 835.655,111.497 837.875,104.013 840.095,97.9988 842.316,93.4754 844.536,90.4573 846.756,88.9544 848.976,88.9715 850.845,90.1644 852.714,92.4317 854.583,95.7682 856.452,100.166 858.321,105.615 860.19,112.103 862.059,119.614 863.928,128.132 866.21,139.868 868.492,153.035 870.774,167.588 873.056,183.481 875.337,200.659 877.619,219.066 879.901,238.642 882.183,259.325 886.363,299.869 890.544,343.479 892.634,366.296 894.725,389.712 896.815,413.668 898.905,438.108 906.627,531.638 914.35,628.106 922.172,726.052 929.994,821.72 934.378,873.521 938.761,923.617 943.144,971.74 947.528,1017.67 951.5,1057.25 955.472,1094.78 959.444,1130.21 963.416,1163.47 967.963,1198.9 972.511,1231.49 977.059,1261.31 981.606,1288.41 985.817,1311.19 990.028,1331.83 994.239,1350.45 998.449,1367.16 1002.6,1381.89 1006.75,1395.01 1010.9,1406.65 1015.05,1416.92 1019.09,1425.7 1023.12,1433.42 1027.15,1440.17 1031.18,1446.05 1039.44,1455.76 1047.7,1462.91 1056.76,1468.48 1065.81,1472.3 1078.96,1475.74 1092.12,1477.6 1094.81,1477.85 1097.51,1478.07 "/>
<path clip-path="url(#clip950)" d="M1624.43 303.73 L2277.23 303.73 L2277.23 96.3696 L1624.43 96.3696  Z" fill="#ffffff" fill-rule="evenodd" fill-opacity="1"/>
<polyline clip-path="url(#clip950)" style="stroke:#000000; stroke-linecap:round; stroke-linejoin:round; stroke-width:4; stroke-opacity:1; fill:none" points="1624.43,303.73 2277.23,303.73 2277.23,96.3696 1624.43,96.3696 1624.43,303.73 "/>
<polyline clip-path="url(#clip950)" style="stroke:#009af9; stroke-linecap:round; stroke-linejoin:round; stroke-width:4; stroke-opacity:1; fill:none" points="1649.6,148.21 1800.66,148.21 "/>
<path clip-path="url(#clip950)" d="M1830.11 161.601 L1830.11 175.351 L1825.83 175.351 L1825.83 139.564 L1830.11 139.564 L1830.11 143.499 Q1831.46 141.184 1833.49 140.073 Q1835.55 138.939 1838.4 138.939 Q1843.12 138.939 1846.06 142.689 Q1849.03 146.439 1849.03 152.55 Q1849.03 158.661 1846.06 162.411 Q1843.12 166.161 1838.4 166.161 Q1835.55 166.161 1833.49 165.05 Q1831.46 163.915 1830.11 161.601 M1844.6 152.55 Q1844.6 147.851 1842.66 145.189 Q1840.74 142.504 1837.36 142.504 Q1833.98 142.504 1832.03 145.189 Q1830.11 147.851 1830.11 152.55 Q1830.11 157.249 1832.03 159.934 Q1833.98 162.596 1837.36 162.596 Q1840.74 162.596 1842.66 159.934 Q1844.6 157.249 1844.6 152.55 Z" fill="#000000" fill-rule="nonzero" fill-opacity="1" /><path clip-path="url(#clip950)" d="M1871.11 143.545 Q1870.39 143.129 1869.53 142.943 Q1868.7 142.735 1867.68 142.735 Q1864.07 142.735 1862.13 145.096 Q1860.21 147.434 1860.21 151.832 L1860.21 165.49 L1855.92 165.49 L1855.92 139.564 L1860.21 139.564 L1860.21 143.592 Q1861.55 141.23 1863.7 140.096 Q1865.85 138.939 1868.93 138.939 Q1869.37 138.939 1869.9 139.008 Q1870.44 139.055 1871.09 139.17 L1871.11 143.545 Z" fill="#000000" fill-rule="nonzero" fill-opacity="1" /><path clip-path="url(#clip950)" d="M1875.58 139.564 L1879.84 139.564 L1879.84 165.49 L1875.58 165.49 L1875.58 139.564 M1875.58 129.471 L1879.84 129.471 L1879.84 134.865 L1875.58 134.865 L1875.58 129.471 Z" fill="#000000" fill-rule="nonzero" fill-opacity="1" /><path clip-path="url(#clip950)" d="M1898.79 142.55 Q1895.37 142.55 1893.38 145.235 Q1891.39 147.897 1891.39 152.55 Q1891.39 157.203 1893.35 159.888 Q1895.34 162.55 1898.79 162.55 Q1902.2 162.55 1904.19 159.865 Q1906.18 157.179 1906.18 152.55 Q1906.18 147.943 1904.19 145.258 Q1902.2 142.55 1898.79 142.55 M1898.79 138.939 Q1904.35 138.939 1907.52 142.55 Q1910.69 146.161 1910.69 152.55 Q1910.69 158.916 1907.52 162.55 Q1904.35 166.161 1898.79 166.161 Q1893.21 166.161 1890.04 162.55 Q1886.9 158.916 1886.9 152.55 Q1886.9 146.161 1890.04 142.55 Q1893.21 138.939 1898.79 138.939 Z" fill="#000000" fill-rule="nonzero" fill-opacity="1" /><path clip-path="url(#clip950)" d="M1932.77 143.545 Q1932.06 143.129 1931.2 142.943 Q1930.37 142.735 1929.35 142.735 Q1925.74 142.735 1923.79 145.096 Q1921.87 147.434 1921.87 151.832 L1921.87 165.49 L1917.59 165.49 L1917.59 139.564 L1921.87 139.564 L1921.87 143.592 Q1923.21 141.23 1925.37 140.096 Q1927.52 138.939 1930.6 138.939 Q1931.04 138.939 1931.57 139.008 Q1932.1 139.055 1932.75 139.17 L1932.77 143.545 Z" fill="#000000" fill-rule="nonzero" fill-opacity="1" /><path clip-path="url(#clip950)" d="M1937.5 159.61 L1942.38 159.61 L1942.38 165.49 L1937.5 165.49 L1937.5 159.61 M1937.5 140.976 L1942.38 140.976 L1942.38 146.855 L1937.5 146.855 L1937.5 140.976 Z" fill="#000000" fill-rule="nonzero" fill-opacity="1" /><path clip-path="url(#clip950)" d="M1952.57 130.93 L1958.86 130.93 L1974.19 159.841 L1974.19 130.93 L1978.72 130.93 L1978.72 165.49 L1972.43 165.49 L1957.1 136.578 L1957.1 165.49 L1952.57 165.49 L1952.57 130.93 Z" fill="#000000" fill-rule="nonzero" fill-opacity="1" /><path clip-path="url(#clip950)" d="M1998.08 129.518 Q1994.97 134.842 1993.47 140.05 Q1991.96 145.258 1991.96 150.605 Q1991.96 155.953 1993.47 161.207 Q1995 166.439 1998.08 171.74 L1994.37 171.74 Q1990.9 166.3 1989.16 161.045 Q1987.45 155.791 1987.45 150.605 Q1987.45 145.443 1989.16 140.212 Q1990.88 134.98 1994.37 129.518 L1998.08 129.518 Z" fill="#000000" fill-rule="nonzero" fill-opacity="1" /><path clip-path="url(#clip950)" d="M2007.75 161.554 L2015.39 161.554 L2015.39 135.189 L2007.08 136.855 L2007.08 132.596 L2015.34 130.93 L2020.02 130.93 L2020.02 161.554 L2027.66 161.554 L2027.66 165.49 L2007.75 165.49 L2007.75 161.554 Z" fill="#000000" fill-rule="nonzero" fill-opacity="1" /><path clip-path="url(#clip950)" d="M2047.1 149.078 Q2043.77 149.078 2041.85 150.86 Q2039.95 152.642 2039.95 155.767 Q2039.95 158.892 2041.85 160.675 Q2043.77 162.457 2047.1 162.457 Q2050.44 162.457 2052.36 160.675 Q2054.28 158.869 2054.28 155.767 Q2054.28 152.642 2052.36 150.86 Q2050.46 149.078 2047.1 149.078 M2042.43 147.087 Q2039.42 146.346 2037.73 144.286 Q2036.06 142.226 2036.06 139.263 Q2036.06 135.119 2039 132.712 Q2041.96 130.305 2047.1 130.305 Q2052.26 130.305 2055.2 132.712 Q2058.14 135.119 2058.14 139.263 Q2058.14 142.226 2056.45 144.286 Q2054.79 146.346 2051.8 147.087 Q2055.18 147.874 2057.06 150.166 Q2058.95 152.457 2058.95 155.767 Q2058.95 160.791 2055.88 163.476 Q2052.82 166.161 2047.1 166.161 Q2041.39 166.161 2038.31 163.476 Q2035.25 160.791 2035.25 155.767 Q2035.25 152.457 2037.15 150.166 Q2039.05 147.874 2042.43 147.087 M2040.71 139.703 Q2040.71 142.388 2042.38 143.892 Q2044.07 145.397 2047.1 145.397 Q2050.11 145.397 2051.8 143.892 Q2053.51 142.388 2053.51 139.703 Q2053.51 137.017 2051.8 135.513 Q2050.11 134.008 2047.1 134.008 Q2044.07 134.008 2042.38 135.513 Q2040.71 137.017 2040.71 139.703 Z" fill="#000000" fill-rule="nonzero" fill-opacity="1" /><path clip-path="url(#clip950)" d="M2077.26 134.008 Q2073.65 134.008 2071.82 137.573 Q2070.02 141.115 2070.02 148.244 Q2070.02 155.351 2071.82 158.916 Q2073.65 162.457 2077.26 162.457 Q2080.9 162.457 2082.7 158.916 Q2084.53 155.351 2084.53 148.244 Q2084.53 141.115 2082.7 137.573 Q2080.9 134.008 2077.26 134.008 M2077.26 130.305 Q2083.07 130.305 2086.13 134.911 Q2089.21 139.494 2089.21 148.244 Q2089.21 156.971 2086.13 161.578 Q2083.07 166.161 2077.26 166.161 Q2071.45 166.161 2068.38 161.578 Q2065.32 156.971 2065.32 148.244 Q2065.32 139.494 2068.38 134.911 Q2071.45 130.305 2077.26 130.305 Z" fill="#000000" fill-rule="nonzero" fill-opacity="1" /><path clip-path="url(#clip950)" d="M2097.91 159.61 L2102.8 159.61 L2102.8 163.591 L2099 170.999 L2096.01 170.999 L2097.91 163.591 L2097.91 159.61 Z" fill="#000000" fill-rule="nonzero" fill-opacity="1" /><path clip-path="url(#clip950)" d="M2125.34 135.004 L2113.54 153.453 L2125.34 153.453 L2125.34 135.004 M2124.12 130.93 L2130 130.93 L2130 153.453 L2134.93 153.453 L2134.93 157.341 L2130 157.341 L2130 165.49 L2125.34 165.49 L2125.34 157.341 L2109.74 157.341 L2109.74 152.828 L2124.12 130.93 Z" fill="#000000" fill-rule="nonzero" fill-opacity="1" /><path clip-path="url(#clip950)" d="M2152.66 134.008 Q2149.05 134.008 2147.22 137.573 Q2145.41 141.115 2145.41 148.244 Q2145.41 155.351 2147.22 158.916 Q2149.05 162.457 2152.66 162.457 Q2156.29 162.457 2158.1 158.916 Q2159.93 155.351 2159.93 148.244 Q2159.93 141.115 2158.1 137.573 Q2156.29 134.008 2152.66 134.008 M2152.66 130.305 Q2158.47 130.305 2161.52 134.911 Q2164.6 139.494 2164.6 148.244 Q2164.6 156.971 2161.52 161.578 Q2158.47 166.161 2152.66 166.161 Q2146.85 166.161 2143.77 161.578 Q2140.71 156.971 2140.71 148.244 Q2140.71 139.494 2143.77 134.911 Q2146.85 130.305 2152.66 130.305 Z" fill="#000000" fill-rule="nonzero" fill-opacity="1" /><path clip-path="url(#clip950)" d="M2189.88 130.93 L2202.45 143.823 L2197.8 143.823 L2187.61 134.68 L2177.43 143.823 L2172.77 143.823 L2185.34 130.93 L2189.88 130.93 Z" fill="#000000" fill-rule="nonzero" fill-opacity="1" /><path clip-path="url(#clip950)" d="M2216.57 161.554 L2232.89 161.554 L2232.89 165.49 L2210.94 165.49 L2210.94 161.554 Q2213.61 158.8 2218.19 154.17 Q2222.8 149.517 2223.98 148.175 Q2226.22 145.652 2227.1 143.916 Q2228 142.156 2228 140.467 Q2228 137.712 2226.06 135.976 Q2224.14 134.24 2221.04 134.24 Q2218.84 134.24 2216.38 135.004 Q2213.95 135.767 2211.18 137.318 L2211.18 132.596 Q2214 131.462 2216.45 130.883 Q2218.91 130.305 2220.94 130.305 Q2226.31 130.305 2229.51 132.99 Q2232.7 135.675 2232.7 140.166 Q2232.7 142.295 2231.89 144.217 Q2231.11 146.115 2229 148.707 Q2228.42 149.379 2225.32 152.596 Q2222.22 155.791 2216.57 161.554 Z" fill="#000000" fill-rule="nonzero" fill-opacity="1" /><path clip-path="url(#clip950)" d="M2241.43 129.518 L2245.13 129.518 Q2248.61 134.98 2250.32 140.212 Q2252.06 145.443 2252.06 150.605 Q2252.06 155.791 2250.32 161.045 Q2248.61 166.3 2245.13 171.74 L2241.43 171.74 Q2244.51 166.439 2246.01 161.207 Q2247.54 155.953 2247.54 150.605 Q2247.54 145.258 2246.01 140.05 Q2244.51 134.842 2241.43 129.518 Z" fill="#000000" fill-rule="nonzero" fill-opacity="1" /><polyline clip-path="url(#clip950)" style="stroke:#e26f46; stroke-linecap:round; stroke-linejoin:round; stroke-width:4; stroke-opacity:1; fill:none" points="1649.6,200.05 1800.66,200.05 "/>
<path clip-path="url(#clip950)" d="M1825.83 182.77 L1832.13 182.77 L1847.45 211.681 L1847.45 182.77 L1851.99 182.77 L1851.99 217.33 L1845.69 217.33 L1830.37 188.418 L1830.37 217.33 L1825.83 217.33 L1825.83 182.77 Z" fill="#000000" fill-rule="nonzero" fill-opacity="1" /><path clip-path="url(#clip950)" d="M1871.34 181.358 Q1868.24 186.682 1866.73 191.89 Q1865.23 197.098 1865.23 202.445 Q1865.23 207.793 1866.73 213.047 Q1868.26 218.279 1871.34 223.58 L1867.64 223.58 Q1864.16 218.14 1862.43 212.885 Q1860.71 207.631 1860.71 202.445 Q1860.71 197.283 1862.43 192.052 Q1864.14 186.82 1867.64 181.358 L1871.34 181.358 Z" fill="#000000" fill-rule="nonzero" fill-opacity="1" /><path clip-path="url(#clip950)" d="M1879.16 227.191 L1879.16 191.404 L1883.42 191.404 L1883.42 207.515 Q1883.42 210.871 1885.02 212.584 Q1886.62 214.297 1889.74 214.297 Q1893.17 214.297 1894.88 212.353 Q1896.62 210.408 1896.62 206.519 L1896.62 191.404 L1900.88 191.404 L1900.88 211.357 Q1900.88 212.746 1901.27 213.418 Q1901.69 214.066 1902.54 214.066 Q1902.75 214.066 1903.12 213.95 Q1903.49 213.811 1904.14 213.533 L1904.14 216.959 Q1903.19 217.492 1902.33 217.746 Q1901.5 218.001 1900.69 218.001 Q1899.09 218.001 1898.15 217.098 Q1897.2 216.195 1896.85 214.343 Q1895.69 216.172 1894 217.098 Q1892.33 218.001 1890.07 218.001 Q1887.71 218.001 1886.04 217.098 Q1884.4 216.195 1883.42 214.39 L1883.42 227.191 L1879.16 227.191 Z" fill="#000000" fill-rule="nonzero" fill-opacity="1" /><path clip-path="url(#clip950)" d="M1921.69 208.556 L1921.69 217.33 L1919 217.33 L1919 208.649 Q1919 206.589 1918.1 205.57 Q1917.2 204.529 1915.39 204.529 Q1913.21 204.529 1911.96 205.779 Q1910.71 207.006 1910.71 209.135 L1910.71 217.33 L1908.01 217.33 L1908.01 202.816 L1910.71 202.816 L1910.71 205.061 Q1911.66 203.765 1912.96 203.117 Q1914.28 202.469 1915.99 202.469 Q1918.79 202.469 1920.23 204.019 Q1921.69 205.57 1921.69 208.556 Z" fill="#000000" fill-rule="nonzero" fill-opacity="1" /><path clip-path="url(#clip950)" d="M1938.89 181.358 Q1935.78 186.682 1934.28 191.89 Q1932.77 197.098 1932.77 202.445 Q1932.77 207.793 1934.28 213.047 Q1935.81 218.279 1938.89 223.58 L1935.18 223.58 Q1931.71 218.14 1929.97 212.885 Q1928.26 207.631 1928.26 202.445 Q1928.26 197.283 1929.97 192.052 Q1931.69 186.82 1935.18 181.358 L1938.89 181.358 Z" fill="#000000" fill-rule="nonzero" fill-opacity="1" /><path clip-path="url(#clip950)" d="M1961.92 198.695 Q1965.27 199.413 1967.15 201.681 Q1969.05 203.95 1969.05 207.283 Q1969.05 212.399 1965.53 215.2 Q1962.01 218.001 1955.53 218.001 Q1953.35 218.001 1951.04 217.561 Q1948.75 217.144 1946.29 216.288 L1946.29 211.774 Q1948.24 212.908 1950.55 213.487 Q1952.87 214.066 1955.39 214.066 Q1959.79 214.066 1962.08 212.33 Q1964.39 210.593 1964.39 207.283 Q1964.39 204.228 1962.24 202.515 Q1960.11 200.779 1956.29 200.779 L1952.27 200.779 L1952.27 196.936 L1956.48 196.936 Q1959.93 196.936 1961.76 195.57 Q1963.58 194.182 1963.58 191.589 Q1963.58 188.927 1961.69 187.515 Q1959.81 186.08 1956.29 186.08 Q1954.37 186.08 1952.17 186.496 Q1949.97 186.913 1947.33 187.793 L1947.33 183.626 Q1950 182.885 1952.31 182.515 Q1954.65 182.145 1956.71 182.145 Q1962.03 182.145 1965.14 184.575 Q1968.24 186.982 1968.24 191.103 Q1968.24 193.973 1966.59 195.964 Q1964.95 197.932 1961.92 198.695 Z" fill="#000000" fill-rule="nonzero" fill-opacity="1" /><path clip-path="url(#clip950)" d="M1976.64 181.358 L1980.34 181.358 Q1983.82 186.82 1985.53 192.052 Q1987.27 197.283 1987.27 202.445 Q1987.27 207.631 1985.53 212.885 Q1983.82 218.14 1980.34 223.58 L1976.64 223.58 Q1979.72 218.279 1981.22 213.047 Q1982.75 207.793 1982.75 202.445 Q1982.75 197.098 1981.22 191.89 Q1979.72 186.682 1976.64 181.358 Z" fill="#000000" fill-rule="nonzero" fill-opacity="1" /><path clip-path="url(#clip950)" d="M1996.89 211.45 L2001.78 211.45 L2001.78 215.431 L1997.98 222.839 L1995 222.839 L1996.89 215.431 L1996.89 211.45 Z" fill="#000000" fill-rule="nonzero" fill-opacity="1" /><path clip-path="url(#clip950)" d="M2023.58 212.607 Q2024.42 213.718 2026.92 213.718 L2028.98 213.718 L2028.98 217.33 L2026.41 217.33 Q2022.24 217.33 2020.34 215.107 Q2018.45 212.839 2018.45 207.931 L2018.45 195.663 L2008.72 195.663 L2008.72 191.404 L2032.64 191.404 L2032.64 195.663 L2022.8 195.663 L2022.8 208.186 Q2022.8 211.543 2023.58 212.607 Z" fill="#000000" fill-rule="nonzero" fill-opacity="1" /><path clip-path="url(#clip950)" d="M2051.34 208.556 L2051.34 217.33 L2048.65 217.33 L2048.65 208.649 Q2048.65 206.589 2047.75 205.57 Q2046.85 204.529 2045.04 204.529 Q2042.87 204.529 2041.62 205.779 Q2040.37 207.006 2040.37 209.135 L2040.37 217.33 L2037.66 217.33 L2037.66 202.816 L2040.37 202.816 L2040.37 205.061 Q2041.32 203.765 2042.61 203.117 Q2043.93 202.469 2045.64 202.469 Q2048.45 202.469 2049.88 204.019 Q2051.34 205.57 2051.34 208.556 Z" fill="#000000" fill-rule="nonzero" fill-opacity="1" /><path clip-path="url(#clip950)" d="M2060.04 199.228 L2069.86 199.228 L2069.86 201.867 L2056.01 201.867 L2056.01 199.32 Q2056.8 198.603 2058.26 197.307 Q2066.22 190.246 2066.22 188.07 Q2066.22 186.543 2065.02 185.617 Q2063.82 184.668 2061.85 184.668 Q2060.64 184.668 2059.23 185.084 Q2057.82 185.478 2056.15 186.288 L2056.15 183.441 Q2057.94 182.793 2059.46 182.469 Q2061.01 182.145 2062.33 182.145 Q2065.69 182.145 2067.7 183.672 Q2069.72 185.2 2069.72 187.7 Q2069.72 190.918 2062.06 197.492 Q2060.76 198.603 2060.04 199.228 Z" fill="#000000" fill-rule="nonzero" fill-opacity="1" /><path clip-path="url(#clip950)" d="M2087.54 181.358 Q2084.44 186.682 2082.94 191.89 Q2081.43 197.098 2081.43 202.445 Q2081.43 207.793 2082.94 213.047 Q2084.46 218.279 2087.54 223.58 L2083.84 223.58 Q2080.37 218.14 2078.63 212.885 Q2076.92 207.631 2076.92 202.445 Q2076.92 197.283 2078.63 192.052 Q2080.34 186.82 2083.84 181.358 L2087.54 181.358 Z" fill="#000000" fill-rule="nonzero" fill-opacity="1" /><path clip-path="url(#clip950)" d="M2110.57 198.695 Q2113.93 199.413 2115.81 201.681 Q2117.7 203.95 2117.7 207.283 Q2117.7 212.399 2114.19 215.2 Q2110.67 218.001 2104.19 218.001 Q2102.01 218.001 2099.69 217.561 Q2097.4 217.144 2094.95 216.288 L2094.95 211.774 Q2096.89 212.908 2099.21 213.487 Q2101.52 214.066 2104.05 214.066 Q2108.44 214.066 2110.74 212.33 Q2113.05 210.593 2113.05 207.283 Q2113.05 204.228 2110.9 202.515 Q2108.77 200.779 2104.95 200.779 L2100.92 200.779 L2100.92 196.936 L2105.13 196.936 Q2108.58 196.936 2110.41 195.57 Q2112.24 194.182 2112.24 191.589 Q2112.24 188.927 2110.34 187.515 Q2108.47 186.08 2104.95 186.08 Q2103.03 186.08 2100.83 186.496 Q2098.63 186.913 2095.99 187.793 L2095.99 183.626 Q2098.65 182.885 2100.97 182.515 Q2103.31 182.145 2105.37 182.145 Q2110.69 182.145 2113.79 184.575 Q2116.89 186.982 2116.89 191.103 Q2116.89 193.973 2115.25 195.964 Q2113.61 197.932 2110.57 198.695 Z" fill="#000000" fill-rule="nonzero" fill-opacity="1" /><path clip-path="url(#clip950)" d="M2125.3 181.358 L2129 181.358 Q2132.47 186.82 2134.19 192.052 Q2135.92 197.283 2135.92 202.445 Q2135.92 207.631 2134.19 212.885 Q2132.47 218.14 2129 223.58 L2125.3 223.58 Q2128.38 218.279 2129.88 213.047 Q2131.41 207.793 2131.41 202.445 Q2131.41 197.098 2129.88 191.89 Q2128.38 186.682 2125.3 181.358 Z" fill="#000000" fill-rule="nonzero" fill-opacity="1" /><path clip-path="url(#clip950)" d="M2143.79 181.358 L2147.5 181.358 Q2150.97 186.82 2152.68 192.052 Q2154.42 197.283 2154.42 202.445 Q2154.42 207.631 2152.68 212.885 Q2150.97 218.14 2147.5 223.58 L2143.79 223.58 Q2146.87 218.279 2148.38 213.047 Q2149.9 207.793 2149.9 202.445 Q2149.9 197.098 2148.38 191.89 Q2146.87 186.682 2143.79 181.358 Z" fill="#000000" fill-rule="nonzero" fill-opacity="1" /><polyline clip-path="url(#clip950)" style="stroke:#3da44d; stroke-linecap:round; stroke-linejoin:round; stroke-width:4; stroke-opacity:1; fill:none" points="1649.6,251.89 1800.66,251.89 "/>
<path clip-path="url(#clip950)" d="M1825.83 234.61 L1832.13 234.61 L1847.45 263.521 L1847.45 234.61 L1851.99 234.61 L1851.99 269.17 L1845.69 269.17 L1830.37 240.258 L1830.37 269.17 L1825.83 269.17 L1825.83 234.61 Z" fill="#000000" fill-rule="nonzero" fill-opacity="1" /><path clip-path="url(#clip950)" d="M1871.34 233.198 Q1868.24 238.522 1866.73 243.73 Q1865.23 248.938 1865.23 254.285 Q1865.23 259.633 1866.73 264.887 Q1868.26 270.119 1871.34 275.42 L1867.64 275.42 Q1864.16 269.98 1862.43 264.725 Q1860.71 259.471 1860.71 254.285 Q1860.71 249.123 1862.43 243.892 Q1864.14 238.66 1867.64 233.198 L1871.34 233.198 Z" fill="#000000" fill-rule="nonzero" fill-opacity="1" /><path clip-path="url(#clip950)" d="M1879.16 279.031 L1879.16 243.244 L1883.42 243.244 L1883.42 259.355 Q1883.42 262.711 1885.02 264.424 Q1886.62 266.137 1889.74 266.137 Q1893.17 266.137 1894.88 264.193 Q1896.62 262.248 1896.62 258.359 L1896.62 243.244 L1900.88 243.244 L1900.88 263.197 Q1900.88 264.586 1901.27 265.258 Q1901.69 265.906 1902.54 265.906 Q1902.75 265.906 1903.12 265.79 Q1903.49 265.651 1904.14 265.373 L1904.14 268.799 Q1903.19 269.332 1902.33 269.586 Q1901.5 269.841 1900.69 269.841 Q1899.09 269.841 1898.15 268.938 Q1897.2 268.035 1896.85 266.183 Q1895.69 268.012 1894 268.938 Q1892.33 269.841 1890.07 269.841 Q1887.71 269.841 1886.04 268.938 Q1884.4 268.035 1883.42 266.23 L1883.42 279.031 L1879.16 279.031 Z" fill="#000000" fill-rule="nonzero" fill-opacity="1" /><path clip-path="url(#clip950)" d="M1921.69 260.396 L1921.69 269.17 L1919 269.17 L1919 260.489 Q1919 258.429 1918.1 257.41 Q1917.2 256.369 1915.39 256.369 Q1913.21 256.369 1911.96 257.619 Q1910.71 258.846 1910.71 260.975 L1910.71 269.17 L1908.01 269.17 L1908.01 254.656 L1910.71 254.656 L1910.71 256.901 Q1911.66 255.605 1912.96 254.957 Q1914.28 254.309 1915.99 254.309 Q1918.79 254.309 1920.23 255.859 Q1921.69 257.41 1921.69 260.396 Z" fill="#000000" fill-rule="nonzero" fill-opacity="1" /><path clip-path="url(#clip950)" d="M1938.89 233.198 Q1935.78 238.522 1934.28 243.73 Q1932.77 248.938 1932.77 254.285 Q1932.77 259.633 1934.28 264.887 Q1935.81 270.119 1938.89 275.42 L1935.18 275.42 Q1931.71 269.98 1929.97 264.725 Q1928.26 259.471 1928.26 254.285 Q1928.26 249.123 1929.97 243.892 Q1931.69 238.66 1935.18 233.198 L1938.89 233.198 Z" fill="#000000" fill-rule="nonzero" fill-opacity="1" /><path clip-path="url(#clip950)" d="M1951.78 265.234 L1968.1 265.234 L1968.1 269.17 L1946.15 269.17 L1946.15 265.234 Q1948.82 262.48 1953.4 257.85 Q1958.01 253.197 1959.19 251.855 Q1961.43 249.332 1962.31 247.596 Q1963.21 245.836 1963.21 244.147 Q1963.21 241.392 1961.27 239.656 Q1959.35 237.92 1956.25 237.92 Q1954.05 237.92 1951.59 238.684 Q1949.16 239.447 1946.39 240.998 L1946.39 236.276 Q1949.21 235.142 1951.66 234.563 Q1954.12 233.985 1956.15 233.985 Q1961.52 233.985 1964.72 236.67 Q1967.91 239.355 1967.91 243.846 Q1967.91 245.975 1967.1 247.897 Q1966.32 249.795 1964.21 252.387 Q1963.63 253.059 1960.53 256.276 Q1957.43 259.471 1951.78 265.234 Z" fill="#000000" fill-rule="nonzero" fill-opacity="1" /><path clip-path="url(#clip950)" d="M1987.91 237.688 Q1984.3 237.688 1982.47 241.253 Q1980.67 244.795 1980.67 251.924 Q1980.67 259.031 1982.47 262.596 Q1984.3 266.137 1987.91 266.137 Q1991.55 266.137 1993.35 262.596 Q1995.18 259.031 1995.18 251.924 Q1995.18 244.795 1993.35 241.253 Q1991.55 237.688 1987.91 237.688 M1987.91 233.985 Q1993.72 233.985 1996.78 238.591 Q1999.86 243.174 1999.86 251.924 Q1999.86 260.651 1996.78 265.258 Q1993.72 269.841 1987.91 269.841 Q1982.1 269.841 1979.02 265.258 Q1975.97 260.651 1975.97 251.924 Q1975.97 243.174 1979.02 238.591 Q1982.1 233.985 1987.91 233.985 Z" fill="#000000" fill-rule="nonzero" fill-opacity="1" /><path clip-path="url(#clip950)" d="M2006.8 233.198 L2010.51 233.198 Q2013.98 238.66 2015.69 243.892 Q2017.43 249.123 2017.43 254.285 Q2017.43 259.471 2015.69 264.725 Q2013.98 269.98 2010.51 275.42 L2006.8 275.42 Q2009.88 270.119 2011.39 264.887 Q2012.91 259.633 2012.91 254.285 Q2012.91 248.938 2011.39 243.73 Q2009.88 238.522 2006.8 233.198 Z" fill="#000000" fill-rule="nonzero" fill-opacity="1" /><path clip-path="url(#clip950)" d="M2027.06 263.29 L2031.94 263.29 L2031.94 267.271 L2028.14 274.679 L2025.16 274.679 L2027.06 267.271 L2027.06 263.29 Z" fill="#000000" fill-rule="nonzero" fill-opacity="1" /><path clip-path="url(#clip950)" d="M2053.75 264.447 Q2054.58 265.558 2057.08 265.558 L2059.14 265.558 L2059.14 269.17 L2056.57 269.17 Q2052.4 269.17 2050.51 266.947 Q2048.61 264.679 2048.61 259.771 L2048.61 247.503 L2038.89 247.503 L2038.89 243.244 L2062.8 243.244 L2062.8 247.503 L2052.96 247.503 L2052.96 260.026 Q2052.96 263.383 2053.75 264.447 Z" fill="#000000" fill-rule="nonzero" fill-opacity="1" /><path clip-path="url(#clip950)" d="M2081.5 260.396 L2081.5 269.17 L2078.82 269.17 L2078.82 260.489 Q2078.82 258.429 2077.91 257.41 Q2077.01 256.369 2075.2 256.369 Q2073.03 256.369 2071.78 257.619 Q2070.53 258.846 2070.53 260.975 L2070.53 269.17 L2067.82 269.17 L2067.82 254.656 L2070.53 254.656 L2070.53 256.901 Q2071.48 255.605 2072.77 254.957 Q2074.09 254.309 2075.81 254.309 Q2078.61 254.309 2080.04 255.859 Q2081.5 257.41 2081.5 260.396 Z" fill="#000000" fill-rule="nonzero" fill-opacity="1" /><path clip-path="url(#clip950)" d="M2090.2 251.068 L2100.02 251.068 L2100.02 253.707 L2086.18 253.707 L2086.18 251.16 Q2086.96 250.443 2088.42 249.147 Q2096.38 242.086 2096.38 239.91 Q2096.38 238.383 2095.18 237.457 Q2093.98 236.508 2092.01 236.508 Q2090.81 236.508 2089.39 236.924 Q2087.98 237.318 2086.32 238.128 L2086.32 235.281 Q2088.1 234.633 2089.63 234.309 Q2091.18 233.985 2092.5 233.985 Q2095.85 233.985 2097.87 235.512 Q2099.88 237.04 2099.88 239.54 Q2099.88 242.758 2092.22 249.332 Q2090.92 250.443 2090.2 251.068 Z" fill="#000000" fill-rule="nonzero" fill-opacity="1" /><path clip-path="url(#clip950)" d="M2117.7 233.198 Q2114.6 238.522 2113.1 243.73 Q2111.59 248.938 2111.59 254.285 Q2111.59 259.633 2113.1 264.887 Q2114.63 270.119 2117.7 275.42 L2114 275.42 Q2110.53 269.98 2108.79 264.725 Q2107.08 259.471 2107.08 254.285 Q2107.08 249.123 2108.79 243.892 Q2110.51 238.66 2114 233.198 L2117.7 233.198 Z" fill="#000000" fill-rule="nonzero" fill-opacity="1" /><path clip-path="url(#clip950)" d="M2130.6 265.234 L2146.92 265.234 L2146.92 269.17 L2124.97 269.17 L2124.97 265.234 Q2127.63 262.48 2132.22 257.85 Q2136.82 253.197 2138 251.855 Q2140.25 249.332 2141.13 247.596 Q2142.03 245.836 2142.03 244.147 Q2142.03 241.392 2140.09 239.656 Q2138.17 237.92 2135.07 237.92 Q2132.87 237.92 2130.41 238.684 Q2127.98 239.447 2125.2 240.998 L2125.2 236.276 Q2128.03 235.142 2130.48 234.563 Q2132.94 233.985 2134.97 233.985 Q2140.34 233.985 2143.54 236.67 Q2146.73 239.355 2146.73 243.846 Q2146.73 245.975 2145.92 247.897 Q2145.13 249.795 2143.03 252.387 Q2142.45 253.059 2139.35 256.276 Q2136.25 259.471 2130.6 265.234 Z" fill="#000000" fill-rule="nonzero" fill-opacity="1" /><path clip-path="url(#clip950)" d="M2166.73 237.688 Q2163.12 237.688 2161.29 241.253 Q2159.49 244.795 2159.49 251.924 Q2159.49 259.031 2161.29 262.596 Q2163.12 266.137 2166.73 266.137 Q2170.37 266.137 2172.17 262.596 Q2174 259.031 2174 251.924 Q2174 244.795 2172.17 241.253 Q2170.37 237.688 2166.73 237.688 M2166.73 233.985 Q2172.54 233.985 2175.6 238.591 Q2178.68 243.174 2178.68 251.924 Q2178.68 260.651 2175.6 265.258 Q2172.54 269.841 2166.73 269.841 Q2160.92 269.841 2157.84 265.258 Q2154.79 260.651 2154.79 251.924 Q2154.79 243.174 2157.84 238.591 Q2160.92 233.985 2166.73 233.985 Z" fill="#000000" fill-rule="nonzero" fill-opacity="1" /><path clip-path="url(#clip950)" d="M2185.62 233.198 L2189.32 233.198 Q2192.8 238.66 2194.51 243.892 Q2196.25 249.123 2196.25 254.285 Q2196.25 259.471 2194.51 264.725 Q2192.8 269.98 2189.32 275.42 L2185.62 275.42 Q2188.7 270.119 2190.2 264.887 Q2191.73 259.633 2191.73 254.285 Q2191.73 248.938 2190.2 243.73 Q2188.7 238.522 2185.62 233.198 Z" fill="#000000" fill-rule="nonzero" fill-opacity="1" /><path clip-path="url(#clip950)" d="M2204.12 233.198 L2207.82 233.198 Q2211.29 238.66 2213 243.892 Q2214.74 249.123 2214.74 254.285 Q2214.74 259.471 2213 264.725 Q2211.29 269.98 2207.82 275.42 L2204.12 275.42 Q2207.19 270.119 2208.7 264.887 Q2210.23 259.633 2210.23 254.285 Q2210.23 248.938 2208.7 243.73 Q2207.19 238.522 2204.12 233.198 Z" fill="#000000" fill-rule="nonzero" fill-opacity="1" /></svg>
