<?xml version="1.0" encoding="utf-8"?>
<svg xmlns="http://www.w3.org/2000/svg" xmlns:xlink="http://www.w3.org/1999/xlink" width="600" height="400" viewBox="0 0 2400 1600">
<defs>
  <clipPath id="clip730">
    <rect x="0" y="0" width="2400" height="1600"/>
  </clipPath>
</defs>
<path clip-path="url(#clip730)" d="M0 1600 L2400 1600 L2400 0 L0 0  Z" fill="#ffffff" fill-rule="evenodd" fill-opacity="1"/>
<defs>
  <clipPath id="clip731">
    <rect x="480" y="0" width="1681" height="1600"/>
  </clipPath>
</defs>
<path clip-path="url(#clip730)" d="M86.9921 1521.01 L2352.76 1521.01 L2352.76 47.2441 L86.9921 47.2441  Z" fill="#ffffff" fill-rule="evenodd" fill-opacity="1"/>
<defs>
  <clipPath id="clip732">
    <rect x="86" y="47" width="2267" height="1475"/>
  </clipPath>
</defs>
<polyline clip-path="url(#clip732)" style="stroke:#000000; stroke-linecap:round; stroke-linejoin:round; stroke-width:2; stroke-opacity:0.1; fill:none" points="86.9921,1521.01 86.9921,47.2441 "/>
<polyline clip-path="url(#clip732)" style="stroke:#000000; stroke-linecap:round; stroke-linejoin:round; stroke-width:2; stroke-opacity:0.1; fill:none" points="842.247,1521.01 842.247,47.2441 "/>
<polyline clip-path="url(#clip732)" style="stroke:#000000; stroke-linecap:round; stroke-linejoin:round; stroke-width:2; stroke-opacity:0.1; fill:none" points="1597.5,1521.01 1597.5,47.2441 "/>
<polyline clip-path="url(#clip732)" style="stroke:#000000; stroke-linecap:round; stroke-linejoin:round; stroke-width:2; stroke-opacity:0.1; fill:none" points="2352.76,1521.01 2352.76,47.2441 "/>
<polyline clip-path="url(#clip730)" style="stroke:#000000; stroke-linecap:round; stroke-linejoin:round; stroke-width:4; stroke-opacity:1; fill:none" points="86.9921,1521.01 2352.76,1521.01 "/>
<polyline clip-path="url(#clip730)" style="stroke:#000000; stroke-linecap:round; stroke-linejoin:round; stroke-width:4; stroke-opacity:1; fill:none" points="86.9921,1521.01 86.9921,1502.11 "/>
<polyline clip-path="url(#clip730)" style="stroke:#000000; stroke-linecap:round; stroke-linejoin:round; stroke-width:4; stroke-opacity:1; fill:none" points="842.247,1521.01 842.247,1502.11 "/>
<polyline clip-path="url(#clip730)" style="stroke:#000000; stroke-linecap:round; stroke-linejoin:round; stroke-width:4; stroke-opacity:1; fill:none" points="1597.5,1521.01 1597.5,1502.11 "/>
<polyline clip-path="url(#clip730)" style="stroke:#000000; stroke-linecap:round; stroke-linejoin:round; stroke-width:4; stroke-opacity:1; fill:none" points="2352.76,1521.01 2352.76,1502.11 "/>
<path clip-path="url(#clip730)" d="M46.5988 1579.47 L54.2377 1579.47 L54.2377 1553.11 L45.9275 1554.77 L45.9275 1550.51 L54.1914 1548.85 L58.8673 1548.85 L58.8673 1579.47 L66.5061 1579.47 L66.5061 1583.41 L46.5988 1583.41 L46.5988 1579.47 Z" fill="#000000" fill-rule="nonzero" fill-opacity="1" /><path clip-path="url(#clip730)" d="M85.9505 1551.93 Q82.3394 1551.93 80.5107 1555.49 Q78.7051 1559.03 78.7051 1566.16 Q78.7051 1573.27 80.5107 1576.83 Q82.3394 1580.38 85.9505 1580.38 Q89.5847 1580.38 91.3903 1576.83 Q93.2189 1573.27 93.2189 1566.16 Q93.2189 1559.03 91.3903 1555.49 Q89.5847 1551.93 85.9505 1551.93 M85.9505 1548.22 Q91.7606 1548.22 94.8162 1552.83 Q97.8948 1557.41 97.8948 1566.16 Q97.8948 1574.89 94.8162 1579.5 Q91.7606 1584.08 85.9505 1584.08 Q80.1403 1584.08 77.0616 1579.5 Q74.0061 1574.89 74.0061 1566.16 Q74.0061 1557.41 77.0616 1552.83 Q80.1403 1548.22 85.9505 1548.22 Z" fill="#000000" fill-rule="nonzero" fill-opacity="1" /><path clip-path="url(#clip730)" d="M116.112 1551.93 Q112.501 1551.93 110.673 1555.49 Q108.867 1559.03 108.867 1566.16 Q108.867 1573.27 110.673 1576.83 Q112.501 1580.38 116.112 1580.38 Q119.747 1580.38 121.552 1576.83 Q123.381 1573.27 123.381 1566.16 Q123.381 1559.03 121.552 1555.49 Q119.747 1551.93 116.112 1551.93 M116.112 1548.22 Q121.922 1548.22 124.978 1552.83 Q128.057 1557.41 128.057 1566.16 Q128.057 1574.89 124.978 1579.5 Q121.922 1584.08 116.112 1584.08 Q110.302 1584.08 107.223 1579.5 Q104.168 1574.89 104.168 1566.16 Q104.168 1557.41 107.223 1552.83 Q110.302 1548.22 116.112 1548.22 Z" fill="#000000" fill-rule="nonzero" fill-opacity="1" /><path clip-path="url(#clip730)" d="M801.853 1579.47 L809.492 1579.47 L809.492 1553.11 L801.182 1554.77 L801.182 1550.51 L809.446 1548.85 L814.122 1548.85 L814.122 1579.47 L821.761 1579.47 L821.761 1583.41 L801.853 1583.41 L801.853 1579.47 Z" fill="#000000" fill-rule="nonzero" fill-opacity="1" /><path clip-path="url(#clip730)" d="M831.251 1548.85 L849.608 1548.85 L849.608 1552.78 L835.534 1552.78 L835.534 1561.26 Q836.552 1560.91 837.571 1560.75 Q838.589 1560.56 839.608 1560.56 Q845.395 1560.56 848.774 1563.73 Q852.154 1566.9 852.154 1572.32 Q852.154 1577.9 848.682 1581 Q845.21 1584.08 838.89 1584.08 Q836.714 1584.08 834.446 1583.71 Q832.2 1583.34 829.793 1582.6 L829.793 1577.9 Q831.876 1579.03 834.099 1579.59 Q836.321 1580.14 838.798 1580.14 Q842.802 1580.14 845.14 1578.04 Q847.478 1575.93 847.478 1572.32 Q847.478 1568.71 845.14 1566.6 Q842.802 1564.5 838.798 1564.5 Q836.923 1564.5 835.048 1564.91 Q833.196 1565.33 831.251 1566.21 L831.251 1548.85 Z" fill="#000000" fill-rule="nonzero" fill-opacity="1" /><path clip-path="url(#clip730)" d="M871.367 1551.93 Q867.756 1551.93 865.927 1555.49 Q864.122 1559.03 864.122 1566.16 Q864.122 1573.27 865.927 1576.83 Q867.756 1580.38 871.367 1580.38 Q875.001 1580.38 876.807 1576.83 Q878.635 1573.27 878.635 1566.16 Q878.635 1559.03 876.807 1555.49 Q875.001 1551.93 871.367 1551.93 M871.367 1548.22 Q877.177 1548.22 880.233 1552.83 Q883.311 1557.41 883.311 1566.16 Q883.311 1574.89 880.233 1579.5 Q877.177 1584.08 871.367 1584.08 Q865.557 1584.08 862.478 1579.5 Q859.423 1574.89 859.423 1566.16 Q859.423 1557.41 862.478 1552.83 Q865.557 1548.22 871.367 1548.22 Z" fill="#000000" fill-rule="nonzero" fill-opacity="1" /><path clip-path="url(#clip730)" d="M1561.19 1579.47 L1577.51 1579.47 L1577.51 1583.41 L1555.57 1583.41 L1555.57 1579.47 Q1558.23 1576.72 1562.81 1572.09 Q1567.42 1567.44 1568.6 1566.09 Q1570.85 1563.57 1571.73 1561.83 Q1572.63 1560.07 1572.63 1558.38 Q1572.63 1555.63 1570.68 1553.89 Q1568.76 1552.16 1565.66 1552.16 Q1563.46 1552.16 1561.01 1552.92 Q1558.58 1553.69 1555.8 1555.24 L1555.8 1550.51 Q1558.62 1549.38 1561.08 1548.8 Q1563.53 1548.22 1565.57 1548.22 Q1570.94 1548.22 1574.13 1550.91 Q1577.33 1553.59 1577.33 1558.08 Q1577.33 1560.21 1576.52 1562.13 Q1575.73 1564.03 1573.62 1566.63 Q1573.05 1567.3 1569.94 1570.51 Q1566.84 1573.71 1561.19 1579.47 Z" fill="#000000" fill-rule="nonzero" fill-opacity="1" /><path clip-path="url(#clip730)" d="M1597.33 1551.93 Q1593.72 1551.93 1591.89 1555.49 Q1590.08 1559.03 1590.08 1566.16 Q1590.08 1573.27 1591.89 1576.83 Q1593.72 1580.38 1597.33 1580.38 Q1600.96 1580.38 1602.77 1576.83 Q1604.6 1573.27 1604.6 1566.16 Q1604.6 1559.03 1602.77 1555.49 Q1600.96 1551.93 1597.33 1551.93 M1597.33 1548.22 Q1603.14 1548.22 1606.19 1552.83 Q1609.27 1557.41 1609.27 1566.16 Q1609.27 1574.89 1606.19 1579.5 Q1603.14 1584.08 1597.33 1584.08 Q1591.52 1584.08 1588.44 1579.5 Q1585.38 1574.89 1585.38 1566.16 Q1585.38 1557.41 1588.44 1552.83 Q1591.52 1548.22 1597.33 1548.22 Z" fill="#000000" fill-rule="nonzero" fill-opacity="1" /><path clip-path="url(#clip730)" d="M1627.49 1551.93 Q1623.88 1551.93 1622.05 1555.49 Q1620.24 1559.03 1620.24 1566.16 Q1620.24 1573.27 1622.05 1576.83 Q1623.88 1580.38 1627.49 1580.38 Q1631.12 1580.38 1632.93 1576.83 Q1634.76 1573.27 1634.76 1566.16 Q1634.76 1559.03 1632.93 1555.49 Q1631.12 1551.93 1627.49 1551.93 M1627.49 1548.22 Q1633.3 1548.22 1636.36 1552.83 Q1639.43 1557.41 1639.43 1566.16 Q1639.43 1574.89 1636.36 1579.5 Q1633.3 1584.08 1627.49 1584.08 Q1621.68 1584.08 1618.6 1579.5 Q1615.55 1574.89 1615.55 1566.16 Q1615.55 1557.41 1618.6 1552.83 Q1621.68 1548.22 1627.49 1548.22 Z" fill="#000000" fill-rule="nonzero" fill-opacity="1" /><path clip-path="url(#clip730)" d="M2316.45 1579.47 L2332.77 1579.47 L2332.77 1583.41 L2310.82 1583.41 L2310.82 1579.47 Q2313.49 1576.72 2318.07 1572.09 Q2322.68 1567.44 2323.86 1566.09 Q2326.1 1563.57 2326.98 1561.83 Q2327.88 1560.07 2327.88 1558.38 Q2327.88 1555.63 2325.94 1553.89 Q2324.02 1552.16 2320.92 1552.16 Q2318.72 1552.16 2316.26 1552.92 Q2313.83 1553.69 2311.05 1555.24 L2311.05 1550.51 Q2313.88 1549.38 2316.33 1548.8 Q2318.79 1548.22 2320.82 1548.22 Q2326.19 1548.22 2329.39 1550.91 Q2332.58 1553.59 2332.58 1558.08 Q2332.58 1560.21 2331.77 1562.13 Q2330.99 1564.03 2328.88 1566.63 Q2328.3 1567.3 2325.2 1570.51 Q2322.1 1573.71 2316.45 1579.47 Z" fill="#000000" fill-rule="nonzero" fill-opacity="1" /><path clip-path="url(#clip730)" d="M2342.63 1548.85 L2360.99 1548.85 L2360.99 1552.78 L2346.91 1552.78 L2346.91 1561.26 Q2347.93 1560.91 2348.95 1560.75 Q2349.97 1560.56 2350.99 1560.56 Q2356.77 1560.56 2360.15 1563.73 Q2363.53 1566.9 2363.53 1572.32 Q2363.53 1577.9 2360.06 1581 Q2356.59 1584.08 2350.27 1584.08 Q2348.09 1584.08 2345.82 1583.71 Q2343.58 1583.34 2341.17 1582.6 L2341.17 1577.9 Q2343.25 1579.03 2345.48 1579.59 Q2347.7 1580.14 2350.17 1580.14 Q2354.18 1580.14 2356.52 1578.04 Q2358.86 1575.93 2358.86 1572.32 Q2358.86 1568.71 2356.52 1566.6 Q2354.18 1564.5 2350.17 1564.5 Q2348.3 1564.5 2346.42 1564.91 Q2344.57 1565.33 2342.63 1566.21 L2342.63 1548.85 Z" fill="#000000" fill-rule="nonzero" fill-opacity="1" /><path clip-path="url(#clip730)" d="M2382.74 1551.93 Q2379.13 1551.93 2377.3 1555.49 Q2375.5 1559.03 2375.5 1566.16 Q2375.5 1573.27 2377.3 1576.83 Q2379.13 1580.38 2382.74 1580.38 Q2386.38 1580.38 2388.18 1576.83 Q2390.01 1573.27 2390.01 1566.16 Q2390.01 1559.03 2388.18 1555.49 Q2386.38 1551.93 2382.74 1551.93 M2382.74 1548.22 Q2388.55 1548.22 2391.61 1552.83 Q2394.69 1557.41 2394.69 1566.16 Q2394.69 1574.89 2391.61 1579.5 Q2388.55 1584.08 2382.74 1584.08 Q2376.93 1584.08 2373.86 1579.5 Q2370.8 1574.89 2370.8 1566.16 Q2370.8 1557.41 2373.86 1552.83 Q2376.93 1548.22 2382.74 1548.22 Z" fill="#000000" fill-rule="nonzero" fill-opacity="1" /><polyline clip-path="url(#clip732)" style="stroke:#000000; stroke-linecap:round; stroke-linejoin:round; stroke-width:2; stroke-opacity:0.1; fill:none" points="86.9921,1479.45 2352.76,1479.45 "/>
<polyline clip-path="url(#clip732)" style="stroke:#000000; stroke-linecap:round; stroke-linejoin:round; stroke-width:2; stroke-opacity:0.1; fill:none" points="86.9921,1169.59 2352.76,1169.59 "/>
<polyline clip-path="url(#clip732)" style="stroke:#000000; stroke-linecap:round; stroke-linejoin:round; stroke-width:2; stroke-opacity:0.1; fill:none" points="86.9921,859.733 2352.76,859.733 "/>
<polyline clip-path="url(#clip732)" style="stroke:#000000; stroke-linecap:round; stroke-linejoin:round; stroke-width:2; stroke-opacity:0.1; fill:none" points="86.9921,549.874 2352.76,549.874 "/>
<polyline clip-path="url(#clip732)" style="stroke:#000000; stroke-linecap:round; stroke-linejoin:round; stroke-width:2; stroke-opacity:0.1; fill:none" points="86.9921,240.015 2352.76,240.015 "/>
<polyline clip-path="url(#clip730)" style="stroke:#000000; stroke-linecap:round; stroke-linejoin:round; stroke-width:4; stroke-opacity:1; fill:none" points="86.9921,1521.01 86.9921,47.2441 "/>
<polyline clip-path="url(#clip730)" style="stroke:#000000; stroke-linecap:round; stroke-linejoin:round; stroke-width:4; stroke-opacity:1; fill:none" points="86.9921,1479.45 105.89,1479.45 "/>
<polyline clip-path="url(#clip730)" style="stroke:#000000; stroke-linecap:round; stroke-linejoin:round; stroke-width:4; stroke-opacity:1; fill:none" points="86.9921,1169.59 105.89,1169.59 "/>
<polyline clip-path="url(#clip730)" style="stroke:#000000; stroke-linecap:round; stroke-linejoin:round; stroke-width:4; stroke-opacity:1; fill:none" points="86.9921,859.733 105.89,859.733 "/>
<polyline clip-path="url(#clip730)" style="stroke:#000000; stroke-linecap:round; stroke-linejoin:round; stroke-width:4; stroke-opacity:1; fill:none" points="86.9921,549.874 105.89,549.874 "/>
<polyline clip-path="url(#clip730)" style="stroke:#000000; stroke-linecap:round; stroke-linejoin:round; stroke-width:4; stroke-opacity:1; fill:none" points="86.9921,240.015 105.89,240.015 "/>
<path clip-path="url(#clip730)" d="M10.8708 1517.15 Q10.8708 1520.76 14.4356 1522.59 Q17.9773 1524.39 25.1068 1524.39 Q32.2133 1524.39 35.7781 1522.59 Q39.3197 1520.76 39.3197 1517.15 Q39.3197 1513.51 35.7781 1511.71 Q32.2133 1509.88 25.1068 1509.88 Q17.9773 1509.88 14.4356 1511.71 Q10.8708 1513.51 10.8708 1517.15 M7.16713 1517.15 Q7.16713 1511.34 11.7736 1508.28 Q16.3569 1505.2 25.1068 1505.2 Q33.8337 1505.2 38.4401 1508.28 Q43.0234 1511.34 43.0234 1517.15 Q43.0234 1522.96 38.4401 1526.04 Q33.8337 1529.09 25.1068 1529.09 Q16.3569 1529.09 11.7736 1526.04 Q7.16713 1522.96 7.16713 1517.15 Z" fill="#000000" fill-rule="nonzero" fill-opacity="1" /><path clip-path="url(#clip730)" d="M36.4725 1496.99 L36.4725 1492.1 L42.3521 1492.1 L42.3521 1496.99 L36.4725 1496.99 Z" fill="#000000" fill-rule="nonzero" fill-opacity="1" /><path clip-path="url(#clip730)" d="M10.8708 1471.92 Q10.8708 1475.53 14.4356 1477.36 Q17.9773 1479.16 25.1068 1479.16 Q32.2133 1479.16 35.7781 1477.36 Q39.3197 1475.53 39.3197 1471.92 Q39.3197 1468.28 35.7781 1466.48 Q32.2133 1464.65 25.1068 1464.65 Q17.9773 1464.65 14.4356 1466.48 Q10.8708 1468.28 10.8708 1471.92 M7.16713 1471.92 Q7.16713 1466.11 11.7736 1463.05 Q16.3569 1459.97 25.1068 1459.97 Q33.8337 1459.97 38.4401 1463.05 Q43.0234 1466.11 43.0234 1471.92 Q43.0234 1477.73 38.4401 1480.81 Q33.8337 1483.86 25.1068 1483.86 Q16.3569 1483.86 11.7736 1480.81 Q7.16713 1477.73 7.16713 1471.92 Z" fill="#000000" fill-rule="nonzero" fill-opacity="1" /><path clip-path="url(#clip730)" d="M10.8708 1441.75 Q10.8708 1445.37 14.4356 1447.19 Q17.9773 1449 25.1068 1449 Q32.2133 1449 35.7781 1447.19 Q39.3197 1445.37 39.3197 1441.75 Q39.3197 1438.12 35.7781 1436.31 Q32.2133 1434.49 25.1068 1434.49 Q17.9773 1434.49 14.4356 1436.31 Q10.8708 1438.12 10.8708 1441.75 M7.16713 1441.75 Q7.16713 1435.94 11.7736 1432.89 Q16.3569 1429.81 25.1068 1429.81 Q33.8337 1429.81 38.4401 1432.89 Q43.0234 1435.94 43.0234 1441.75 Q43.0234 1447.56 38.4401 1450.64 Q33.8337 1453.7 25.1068 1453.7 Q16.3569 1453.7 11.7736 1450.64 Q7.16713 1447.56 7.16713 1441.75 Z" fill="#000000" fill-rule="nonzero" fill-opacity="1" /><path clip-path="url(#clip730)" d="M10.8708 1206.49 Q10.8708 1210.1 14.4356 1211.93 Q17.9773 1213.74 25.1068 1213.74 Q32.2133 1213.74 35.7781 1211.93 Q39.3197 1210.1 39.3197 1206.49 Q39.3197 1202.86 35.7781 1201.05 Q32.2133 1199.22 25.1068 1199.22 Q17.9773 1199.22 14.4356 1201.05 Q10.8708 1202.86 10.8708 1206.49 M7.16713 1206.49 Q7.16713 1200.68 11.7736 1197.62 Q16.3569 1194.55 25.1068 1194.55 Q33.8337 1194.55 38.4401 1197.62 Q43.0234 1200.68 43.0234 1206.49 Q43.0234 1212.3 38.4401 1215.38 Q33.8337 1218.43 25.1068 1218.43 Q16.3569 1218.43 11.7736 1215.38 Q7.16713 1212.3 7.16713 1206.49 Z" fill="#000000" fill-rule="nonzero" fill-opacity="1" /><path clip-path="url(#clip730)" d="M36.4725 1186.33 L36.4725 1181.44 L42.3521 1181.44 L42.3521 1186.33 L36.4725 1186.33 Z" fill="#000000" fill-rule="nonzero" fill-opacity="1" /><path clip-path="url(#clip730)" d="M10.8708 1161.26 Q10.8708 1164.87 14.4356 1166.7 Q17.9773 1168.5 25.1068 1168.5 Q32.2133 1168.5 35.7781 1166.7 Q39.3197 1164.87 39.3197 1161.26 Q39.3197 1157.62 35.7781 1155.82 Q32.2133 1153.99 25.1068 1153.99 Q17.9773 1153.99 14.4356 1155.82 Q10.8708 1157.62 10.8708 1161.26 M7.16713 1161.26 Q7.16713 1155.45 11.7736 1152.39 Q16.3569 1149.31 25.1068 1149.31 Q33.8337 1149.31 38.4401 1152.39 Q43.0234 1155.45 43.0234 1161.26 Q43.0234 1167.07 38.4401 1170.15 Q33.8337 1173.2 25.1068 1173.2 Q16.3569 1173.2 11.7736 1170.15 Q7.16713 1167.07 7.16713 1161.26 Z" fill="#000000" fill-rule="nonzero" fill-opacity="1" /><path clip-path="url(#clip730)" d="M38.417 1137.07 L38.417 1120.75 L42.3521 1120.75 L42.3521 1142.69 L38.417 1142.69 Q35.6623 1140.03 31.0327 1135.45 Q26.38 1130.84 25.0374 1129.66 Q22.5143 1127.42 20.7782 1126.54 Q19.0189 1125.63 17.3291 1125.63 Q14.5745 1125.63 12.8384 1127.58 Q11.1023 1129.5 11.1023 1132.6 Q11.1023 1134.8 11.8662 1137.25 Q12.6301 1139.68 14.181 1142.46 L9.45878 1142.46 Q8.32453 1139.64 7.74583 1137.18 Q7.16713 1134.73 7.16713 1132.69 Q7.16713 1127.32 9.8523 1124.13 Q12.5375 1120.93 17.0282 1120.93 Q19.1578 1120.93 21.0791 1121.74 Q22.9772 1122.53 25.5698 1124.64 Q26.2411 1125.22 29.4587 1128.32 Q32.6531 1131.42 38.417 1137.07 Z" fill="#000000" fill-rule="nonzero" fill-opacity="1" /><path clip-path="url(#clip730)" d="M10.8708 897.673 Q10.8708 901.284 14.4356 903.112 Q17.9773 904.918 25.1068 904.918 Q32.2133 904.918 35.7781 903.112 Q39.3197 901.284 39.3197 897.673 Q39.3197 894.038 35.7781 892.233 Q32.2133 890.404 25.1068 890.404 Q17.9773 890.404 14.4356 892.233 Q10.8708 894.038 10.8708 897.673 M7.16713 897.673 Q7.16713 891.862 11.7736 888.807 Q16.3569 885.728 25.1068 885.728 Q33.8337 885.728 38.4401 888.807 Q43.0234 891.862 43.0234 897.673 Q43.0234 903.483 38.4401 906.561 Q33.8337 909.617 25.1068 909.617 Q16.3569 909.617 11.7736 906.561 Q7.16713 903.483 7.16713 897.673 Z" fill="#000000" fill-rule="nonzero" fill-opacity="1" /><path clip-path="url(#clip730)" d="M36.4725 877.511 L36.4725 872.626 L42.3521 872.626 L42.3521 877.511 L36.4725 877.511 Z" fill="#000000" fill-rule="nonzero" fill-opacity="1" /><path clip-path="url(#clip730)" d="M10.8708 852.441 Q10.8708 856.052 14.4356 857.881 Q17.9773 859.687 25.1068 859.687 Q32.2133 859.687 35.7781 857.881 Q39.3197 856.052 39.3197 852.441 Q39.3197 848.807 35.7781 847.002 Q32.2133 845.173 25.1068 845.173 Q17.9773 845.173 14.4356 847.002 Q10.8708 848.807 10.8708 852.441 M7.16713 852.441 Q7.16713 846.631 11.7736 843.576 Q16.3569 840.497 25.1068 840.497 Q33.8337 840.497 38.4401 843.576 Q43.0234 846.631 43.0234 852.441 Q43.0234 858.252 38.4401 861.33 Q33.8337 864.386 25.1068 864.386 Q16.3569 864.386 11.7736 861.33 Q7.16713 858.252 7.16713 852.441 Z" fill="#000000" fill-rule="nonzero" fill-opacity="1" /><path clip-path="url(#clip730)" d="M11.8662 819.432 L30.3152 831.238 L30.3152 819.432 L11.8662 819.432 M7.79213 820.659 L7.79213 814.78 L30.3152 814.78 L30.3152 809.849 L34.204 809.849 L34.204 814.78 L42.3521 814.78 L42.3521 819.432 L34.204 819.432 L34.204 835.034 L29.6902 835.034 L7.79213 820.659 Z" fill="#000000" fill-rule="nonzero" fill-opacity="1" /><path clip-path="url(#clip730)" d="M10.8708 587.652 Q10.8708 591.263 14.4356 593.091 Q17.9773 594.897 25.1068 594.897 Q32.2133 594.897 35.7781 593.091 Q39.3197 591.263 39.3197 587.652 Q39.3197 584.017 35.7781 582.212 Q32.2133 580.383 25.1068 580.383 Q17.9773 580.383 14.4356 582.212 Q10.8708 584.017 10.8708 587.652 M7.16713 587.652 Q7.16713 581.841 11.7736 578.786 Q16.3569 575.707 25.1068 575.707 Q33.8337 575.707 38.4401 578.786 Q43.0234 581.841 43.0234 587.652 Q43.0234 593.462 38.4401 596.54 Q33.8337 599.596 25.1068 599.596 Q16.3569 599.596 11.7736 596.54 Q7.16713 593.462 7.16713 587.652 Z" fill="#000000" fill-rule="nonzero" fill-opacity="1" /><path clip-path="url(#clip730)" d="M36.4725 567.49 L36.4725 562.605 L42.3521 562.605 L42.3521 567.49 L36.4725 567.49 Z" fill="#000000" fill-rule="nonzero" fill-opacity="1" /><path clip-path="url(#clip730)" d="M10.8708 542.42 Q10.8708 546.031 14.4356 547.86 Q17.9773 549.666 25.1068 549.666 Q32.2133 549.666 35.7781 547.86 Q39.3197 546.031 39.3197 542.42 Q39.3197 538.786 35.7781 536.981 Q32.2133 535.152 25.1068 535.152 Q17.9773 535.152 14.4356 536.981 Q10.8708 538.786 10.8708 542.42 M7.16713 542.42 Q7.16713 536.61 11.7736 533.555 Q16.3569 530.476 25.1068 530.476 Q33.8337 530.476 38.4401 533.555 Q43.0234 536.61 43.0234 542.42 Q43.0234 548.231 38.4401 551.309 Q33.8337 554.365 25.1068 554.365 Q16.3569 554.365 11.7736 551.309 Q7.16713 548.231 7.16713 542.42 Z" fill="#000000" fill-rule="nonzero" fill-opacity="1" /><path clip-path="url(#clip730)" d="M23.2087 511.68 Q23.2087 514.828 25.3615 516.68 Q27.5142 518.508 31.2642 518.508 Q34.9911 518.508 37.167 516.68 Q39.3197 514.828 39.3197 511.68 Q39.3197 508.532 37.167 506.703 Q34.9911 504.851 31.2642 504.851 Q27.5142 504.851 25.3615 506.703 Q23.2087 508.532 23.2087 511.68 M8.55601 502.397 L12.8152 502.397 Q11.9819 504.157 11.5421 505.962 Q11.1023 507.745 11.1023 509.504 Q11.1023 514.133 14.2273 516.587 Q17.3523 519.018 23.6717 519.365 Q21.6578 517.999 20.593 515.939 Q19.505 513.879 19.505 511.402 Q19.505 506.194 22.6763 503.184 Q25.8244 500.152 31.2642 500.152 Q36.5883 500.152 39.8058 503.3 Q43.0234 506.448 43.0234 511.68 Q43.0234 517.675 38.4401 520.846 Q33.8337 524.018 25.1068 524.018 Q16.9124 524.018 12.0514 520.129 Q7.16713 516.24 7.16713 509.689 Q7.16713 507.93 7.51435 506.147 Q7.86157 504.342 8.55601 502.397 Z" fill="#000000" fill-rule="nonzero" fill-opacity="1" /><path clip-path="url(#clip730)" d="M10.8708 277.665 Q10.8708 281.276 14.4356 283.105 Q17.9773 284.911 25.1068 284.911 Q32.2133 284.911 35.7781 283.105 Q39.3197 281.276 39.3197 277.665 Q39.3197 274.031 35.7781 272.226 Q32.2133 270.397 25.1068 270.397 Q17.9773 270.397 14.4356 272.226 Q10.8708 274.031 10.8708 277.665 M7.16713 277.665 Q7.16713 271.855 11.7736 268.8 Q16.3569 265.721 25.1068 265.721 Q33.8337 265.721 38.4401 268.8 Q43.0234 271.855 43.0234 277.665 Q43.0234 283.476 38.4401 286.554 Q33.8337 289.61 25.1068 289.61 Q16.3569 289.61 11.7736 286.554 Q7.16713 283.476 7.16713 277.665 Z" fill="#000000" fill-rule="nonzero" fill-opacity="1" /><path clip-path="url(#clip730)" d="M36.4725 257.503 L36.4725 252.619 L42.3521 252.619 L42.3521 257.503 L36.4725 257.503 Z" fill="#000000" fill-rule="nonzero" fill-opacity="1" /><path clip-path="url(#clip730)" d="M10.8708 232.434 Q10.8708 236.045 14.4356 237.874 Q17.9773 239.679 25.1068 239.679 Q32.2133 239.679 35.7781 237.874 Q39.3197 236.045 39.3197 232.434 Q39.3197 228.8 35.7781 226.994 Q32.2133 225.166 25.1068 225.166 Q17.9773 225.166 14.4356 226.994 Q10.8708 228.8 10.8708 232.434 M7.16713 232.434 Q7.16713 226.624 11.7736 223.568 Q16.3569 220.49 25.1068 220.49 Q33.8337 220.49 38.4401 223.568 Q43.0234 226.624 43.0234 232.434 Q43.0234 238.244 38.4401 241.323 Q33.8337 244.378 25.1068 244.378 Q16.3569 244.378 11.7736 241.323 Q7.16713 238.244 7.16713 232.434 Z" fill="#000000" fill-rule="nonzero" fill-opacity="1" /><path clip-path="url(#clip730)" d="M25.9402 202.272 Q25.9402 205.606 27.7226 207.527 Q29.505 209.425 32.63 209.425 Q35.7549 209.425 37.5373 207.527 Q39.3197 205.606 39.3197 202.272 Q39.3197 198.939 37.5373 197.018 Q35.7318 195.096 32.63 195.096 Q29.505 195.096 27.7226 197.018 Q25.9402 198.916 25.9402 202.272 M23.9494 206.948 Q23.2087 209.957 21.1485 211.647 Q19.0884 213.314 16.1254 213.314 Q11.9819 213.314 9.57452 210.374 Q7.16713 207.411 7.16713 202.272 Q7.16713 197.11 9.57452 194.17 Q11.9819 191.231 16.1254 191.231 Q19.0884 191.231 21.1485 192.92 Q23.2087 194.587 23.9494 197.573 Q24.7365 194.194 27.0281 192.319 Q29.3198 190.42 32.63 190.42 Q37.6531 190.42 40.3382 193.499 Q43.0234 196.555 43.0234 202.272 Q43.0234 207.99 40.3382 211.068 Q37.6531 214.124 32.63 214.124 Q29.3198 214.124 27.0281 212.226 Q24.7365 210.328 23.9494 206.948 M16.5652 208.661 Q19.2504 208.661 20.755 206.994 Q22.2596 205.305 22.2596 202.272 Q22.2596 199.263 20.755 197.573 Q19.2504 195.86 16.5652 195.86 Q13.8801 195.86 12.3754 197.573 Q10.8708 199.263 10.8708 202.272 Q10.8708 205.305 12.3754 206.994 Q13.8801 208.661 16.5652 208.661 Z" fill="#000000" fill-rule="nonzero" fill-opacity="1" /><polyline clip-path="url(#clip732)" style="stroke:#009af9; stroke-linecap:round; stroke-linejoin:round; stroke-width:4; stroke-opacity:1; fill:none" points="-951.644,1479.3 -937.014,1479.28 -922.385,1479.27 -787.114,1479.04 -651.844,1478.59 -570.552,1478.14 -489.26,1477.48 -420.528,1476.71 -351.797,1475.69 -314.466,1475.01 -277.135,1474.23 -239.805,1473.33 -202.474,1472.3 -168.058,1471.23 -133.642,1470.03 -99.2268,1468.68 -64.8111,1467.19 -27.9139,1465.41 8.98337,1463.43 45.8806,1461.24 82.7778,1458.83 125.527,1455.74 168.276,1452.33 211.025,1448.58 253.774,1444.49 291.764,1440.56 329.755,1436.37 367.745,1431.9 405.735,1427.19 439.049,1422.86 472.364,1418.35 505.678,1413.68 538.992,1408.88 611.634,1398 684.277,1386.8 757.351,1375.51 830.426,1364.53 850.624,1361.61 870.822,1358.74 891.02,1355.94 911.219,1353.21 931.417,1350.57 951.615,1348.02 971.813,1345.58 992.012,1343.23 1011.23,1341.11 1030.45,1339.1 1049.67,1337.2 1068.88,1335.42 1088.1,1333.76 1107.32,1332.24 1126.54,1330.85 1145.76,1329.6 1165.74,1328.45 1185.72,1327.46 1205.7,1326.62 1225.69,1325.96 1245.67,1325.45 1265.65,1325.12 1285.63,1324.95 1305.62,1324.95 1322.44,1325.09 1339.26,1325.34 1356.08,1325.71 1372.9,1326.2 1389.72,1326.8 1406.54,1327.52 1423.36,1328.36 1440.18,1329.3 1460.72,1330.61 1481.26,1332.07 1501.79,1333.69 1522.33,1335.45 1542.87,1337.36 1563.4,1339.41 1583.94,1341.58 1604.47,1343.88 1642.1,1348.39 1679.73,1353.23 1698.54,1355.77 1717.35,1358.37 1736.16,1361.03 1754.98,1363.75 1824.48,1374.14 1893.98,1384.86 1964.38,1395.74 2034.78,1406.37 2074.23,1412.13 2113.68,1417.69 2153.13,1423.04 2192.58,1428.14 2228.33,1432.54 2264.07,1436.71 2299.82,1440.65 2335.57,1444.34 2376.5,1448.28 2417.43,1451.9 2458.36,1455.21 2499.29,1458.22 2537.18,1460.75 2575.08,1463.05 2612.98,1465.12 2650.87,1466.97 2688.24,1468.61 2725.6,1470.07 2762.96,1471.36 2800.32,1472.5 2836.6,1473.48 2872.87,1474.34 2909.15,1475.09 2945.42,1475.74 3019.79,1476.82 3094.17,1477.61 3175.65,1478.23 3257.14,1478.66 3375.51,1479.04 3493.88,1479.24 3518.16,1479.27 3542.44,1479.3 "/>
<polyline clip-path="url(#clip732)" style="stroke:#e26f46; stroke-linecap:round; stroke-linejoin:round; stroke-width:4; stroke-opacity:1; fill:none" points="253.887,1478.9 257.944,1478.85 262.002,1478.79 299.519,1477.98 337.037,1476.36 359.583,1474.72 382.129,1472.35 401.192,1469.58 420.255,1465.9 430.608,1463.44 440.962,1460.61 451.316,1457.37 461.669,1453.66 471.215,1449.8 480.76,1445.47 490.305,1440.63 499.85,1435.25 510.084,1428.83 520.317,1421.69 530.55,1413.8 540.784,1405.1 552.64,1393.97 564.497,1381.66 576.353,1368.14 588.21,1353.39 598.746,1339.23 609.283,1324.1 619.82,1308.02 630.356,1291.02 639.596,1275.39 648.836,1259.14 658.075,1242.32 667.315,1224.99 687.462,1185.78 707.61,1145.4 727.877,1104.69 748.144,1065.11 753.746,1054.55 759.348,1044.21 764.95,1034.11 770.552,1024.29 776.154,1014.77 781.756,1005.59 787.358,996.756 792.96,988.31 798.29,980.656 803.62,973.394 808.95,966.545 814.281,960.13 819.611,954.166 824.941,948.671 830.271,943.66 835.601,939.15 841.143,935.004 846.685,931.426 852.228,928.427 857.77,926.018 863.312,924.206 868.854,922.997 874.396,922.395 879.938,922.401 884.603,922.879 889.269,923.788 893.934,925.124 898.599,926.886 903.265,929.069 907.93,931.668 912.595,934.678 917.26,938.09 922.956,942.791 928.652,948.066 934.348,953.897 940.044,960.263 945.739,967.145 951.435,974.519 957.131,982.362 962.827,990.648 973.262,1006.89 983.697,1024.36 988.915,1033.5 994.133,1042.88 999.351,1052.48 1004.57,1062.27 1023.84,1099.74 1043.12,1138.39 1062.65,1177.63 1082.17,1215.95 1093.11,1236.71 1104.05,1256.77 1115,1276.05 1125.94,1294.45 1135.85,1310.31 1145.77,1325.35 1155.68,1339.54 1165.6,1352.87 1176.95,1367.06 1188.3,1380.12 1199.65,1392.06 1211,1402.92 1221.51,1412.04 1232.02,1420.31 1242.53,1427.77 1253.05,1434.46 1263.41,1440.37 1273.77,1445.62 1284.13,1450.29 1294.49,1454.4 1304.56,1457.92 1314.62,1461.01 1324.68,1463.71 1334.74,1466.07 1355.37,1469.96 1375.99,1472.82 1398.59,1475.05 1421.19,1476.59 1454.02,1477.96 1486.85,1478.71 1493.59,1478.81 1500.32,1478.9 "/>
<polyline clip-path="url(#clip732)" style="stroke:#3da44d; stroke-linecap:round; stroke-linejoin:round; stroke-width:4; stroke-opacity:1; fill:none" points="598.17,1478.07 599.795,1477.94 601.421,1477.8 616.451,1475.79 631.481,1471.73 640.513,1467.64 649.546,1461.72 657.183,1454.8 664.819,1445.62 668.967,1439.49 673.115,1432.43 677.263,1424.33 681.411,1415.08 685.235,1405.44 689.059,1394.63 692.883,1382.55 696.707,1369.12 700.806,1353.09 704.906,1335.28 709.006,1315.57 713.105,1293.85 717.855,1266.07 722.605,1235.36 727.355,1201.61 732.105,1164.78 736.326,1129.45 740.547,1091.68 744.768,1051.54 748.99,1009.1 752.691,970.094 756.393,929.529 760.094,887.536 763.796,844.27 771.867,746.413 779.939,645.621 788.058,543.985 796.177,445.201 798.422,418.841 800.666,393.024 802.91,367.822 805.154,343.306 807.399,319.546 809.643,296.611 811.887,274.57 814.131,253.49 816.267,234.382 818.402,216.256 820.537,199.161 822.673,183.147 824.808,168.26 826.944,154.543 829.079,142.037 831.214,130.778 833.434,120.429 835.655,111.497 837.875,104.013 840.095,97.9988 842.316,93.4754 844.536,90.4573 846.756,88.9544 848.976,88.9715 850.845,90.1644 852.714,92.4317 854.583,95.7682 856.452,100.166 858.321,105.615 860.19,112.103 862.059,119.614 863.928,128.132 866.21,139.868 868.492,153.035 870.774,167.588 873.056,183.481 875.337,200.659 877.619,219.066 879.901,238.642 882.183,259.325 886.363,299.869 890.544,343.479 892.634,366.296 894.725,389.712 896.815,413.668 898.905,438.108 906.627,531.638 914.35,628.106 922.172,726.052 929.994,821.72 934.378,873.521 938.761,923.617 943.144,971.74 947.528,1017.67 951.5,1057.25 955.472,1094.78 959.444,1130.21 963.416,1163.47 967.963,1198.9 972.511,1231.49 977.059,1261.31 981.606,1288.41 985.817,1311.19 990.028,1331.83 994.239,1350.45 998.449,1367.16 1002.6,1381.89 1006.75,1395.01 1010.9,1406.65 1015.05,1416.92 1019.09,1425.7 1023.12,1433.42 1027.15,1440.17 1031.18,1446.05 1039.44,1455.76 1047.7,1462.91 1056.76,1468.48 1065.81,1472.3 1078.96,1475.74 1092.12,1477.6 1094.81,1477.85 1097.51,1478.07 "/>
<polyline clip-path="url(#clip732)" style="stroke:#c271d2; stroke-linecap:round; stroke-linejoin:round; stroke-width:4; stroke-opacity:1; fill:none" points="-407.692,1479.18 -399.327,1479.16 -390.962,1479.13 -313.618,1478.74 -236.274,1477.95 -189.794,1477.16 -143.313,1476.01 -104.015,1474.66 -64.7159,1472.88 -43.3712,1471.69 -22.0265,1470.31 -0.681855,1468.74 20.6628,1466.94 40.3407,1465.07 60.0187,1462.97 79.6966,1460.62 99.3745,1458.01 120.471,1454.9 141.568,1451.43 162.665,1447.6 183.762,1443.38 208.204,1437.99 232.647,1432.02 257.09,1425.46 281.533,1418.3 303.254,1411.44 324.976,1404.1 346.698,1396.3 368.42,1388.05 387.468,1380.47 406.516,1372.59 425.564,1364.43 444.612,1356.02 486.147,1337 527.682,1317.41 569.464,1297.66 611.246,1278.47 622.794,1273.35 634.343,1268.33 645.892,1263.43 657.441,1258.67 668.99,1254.05 680.538,1249.59 692.087,1245.31 703.636,1241.21 714.624,1237.5 725.613,1233.98 736.601,1230.66 747.59,1227.54 758.578,1224.65 769.566,1221.98 780.555,1219.55 791.543,1217.37 802.968,1215.36 814.394,1213.62 825.819,1212.17 837.245,1211 848.67,1210.12 860.095,1209.53 871.521,1209.24 882.946,1209.24 892.564,1209.47 902.182,1209.91 911.799,1210.56 921.417,1211.42 931.035,1212.48 940.652,1213.74 950.27,1215.2 959.888,1216.85 971.63,1219.13 983.372,1221.69 995.114,1224.52 1006.86,1227.61 1018.6,1230.95 1030.34,1234.52 1042.08,1238.33 1053.83,1242.35 1075.34,1250.23 1096.85,1258.7 1107.61,1263.13 1118.36,1267.68 1129.12,1272.34 1139.88,1277.09 1179.62,1295.26 1219.35,1314.01 1259.61,1333.04 1299.86,1351.64 1322.42,1361.7 1344.97,1371.44 1367.53,1380.79 1390.09,1389.71 1410.53,1397.41 1430.97,1404.7 1451.41,1411.58 1471.85,1418.05 1495.25,1424.93 1518.65,1431.27 1542.05,1437.06 1565.45,1442.33 1587.12,1446.75 1608.79,1450.76 1630.46,1454.38 1652.13,1457.63 1673.49,1460.49 1694.85,1463.04 1716.21,1465.3 1737.58,1467.3 1758.32,1469.01 1779.06,1470.51 1799.8,1471.82 1820.54,1472.96 1863.06,1474.85 1905.59,1476.24 1952.18,1477.32 1998.77,1478.06 2066.45,1478.73 2134.13,1479.09 2148.02,1479.14 2161.9,1479.18 "/>
<polyline clip-path="url(#clip732)" style="stroke:#ac8d18; stroke-linecap:round; stroke-linejoin:round; stroke-width:4; stroke-opacity:1; fill:none" points="-303.088,1479.15 -295.594,1479.12 -288.101,1479.09 -218.816,1478.66 -149.531,1477.78 -107.893,1476.89 -66.2557,1475.6 -31.0517,1474.1 4.15232,1472.11 23.273,1470.78 42.3937,1469.25 61.5144,1467.49 80.6351,1465.49 98.2627,1463.4 115.89,1461.05 133.518,1458.43 151.146,1455.52 170.044,1452.04 188.943,1448.18 207.841,1443.9 226.74,1439.19 248.636,1433.16 270.532,1426.5 292.428,1419.18 314.324,1411.19 333.782,1403.52 353.241,1395.33 372.699,1386.62 392.158,1377.42 409.221,1368.96 426.285,1360.16 443.348,1351.05 460.411,1341.66 497.619,1320.43 534.826,1298.57 572.255,1276.52 609.683,1255.09 620.029,1249.37 630.374,1243.77 640.719,1238.3 651.065,1232.99 661.41,1227.83 671.756,1222.86 682.101,1218.08 692.447,1213.5 702.29,1209.36 712.134,1205.43 721.977,1201.72 731.821,1198.24 741.664,1195.01 751.508,1192.04 761.351,1189.33 771.195,1186.88 781.43,1184.64 791.664,1182.7 801.899,1181.08 812.134,1179.77 822.369,1178.79 832.604,1178.14 842.839,1177.81 853.074,1177.81 861.69,1178.07 870.305,1178.56 878.921,1179.29 887.536,1180.24 896.152,1181.42 904.768,1182.83 913.383,1184.46 921.999,1186.31 932.518,1188.85 943.036,1191.71 953.555,1194.87 964.074,1198.32 974.592,1202.04 985.111,1206.03 995.63,1210.28 1006.15,1214.77 1025.42,1223.56 1044.69,1233.02 1054.33,1237.97 1063.96,1243.05 1073.6,1248.25 1083.23,1253.55 1118.83,1273.84 1154.43,1294.77 1190.49,1316.02 1226.55,1336.77 1246.75,1348.01 1266.96,1358.87 1287.17,1369.31 1307.37,1379.28 1325.68,1387.86 1343.99,1396 1362.3,1403.69 1380.61,1410.91 1401.58,1418.59 1422.54,1425.66 1443.5,1432.13 1464.47,1438.01 1483.88,1442.95 1503.29,1447.43 1522.7,1451.47 1542.11,1455.09 1561.25,1458.29 1580.38,1461.13 1599.52,1463.66 1618.66,1465.89 1637.24,1467.79 1655.82,1469.47 1674.4,1470.93 1692.98,1472.2 1731.07,1474.31 1769.16,1475.86 1810.9,1477.07 1852.64,1477.9 1913.27,1478.65 1973.89,1479.05 1986.33,1479.1 1998.77,1479.15 "/>
<path clip-path="url(#clip730)" d="M1635.17 407.41 L2277.23 407.41 L2277.23 96.3696 L1635.17 96.3696  Z" fill="#ffffff" fill-rule="evenodd" fill-opacity="1"/>
<polyline clip-path="url(#clip730)" style="stroke:#000000; stroke-linecap:round; stroke-linejoin:round; stroke-width:4; stroke-opacity:1; fill:none" points="1635.17,407.41 2277.23,407.41 2277.23,96.3696 1635.17,96.3696 1635.17,407.41 "/>
<polyline clip-path="url(#clip730)" style="stroke:#009af9; stroke-linecap:round; stroke-linejoin:round; stroke-width:4; stroke-opacity:1; fill:none" points="1660.35,148.21 1811.4,148.21 "/>
<path clip-path="url(#clip730)" d="M1840.85 161.601 L1840.85 175.351 L1836.57 175.351 L1836.57 139.564 L1840.85 139.564 L1840.85 143.499 Q1842.2 141.184 1844.23 140.073 Q1846.29 138.939 1849.14 138.939 Q1853.86 138.939 1856.8 142.689 Q1859.77 146.439 1859.77 152.55 Q1859.77 158.661 1856.8 162.411 Q1853.86 166.161 1849.14 166.161 Q1846.29 166.161 1844.23 165.05 Q1842.2 163.915 1840.85 161.601 M1855.34 152.55 Q1855.34 147.851 1853.4 145.189 Q1851.48 142.504 1848.1 142.504 Q1844.72 142.504 1842.78 145.189 Q1840.85 147.851 1840.85 152.55 Q1840.85 157.249 1842.78 159.934 Q1844.72 162.596 1848.1 162.596 Q1851.48 162.596 1853.4 159.934 Q1855.34 157.249 1855.34 152.55 Z" fill="#000000" fill-rule="nonzero" fill-opacity="1" /><path clip-path="url(#clip730)" d="M1881.85 143.545 Q1881.13 143.129 1880.27 142.943 Q1879.44 142.735 1878.42 142.735 Q1874.81 142.735 1872.87 145.096 Q1870.95 147.434 1870.95 151.832 L1870.95 165.49 L1866.66 165.49 L1866.66 139.564 L1870.95 139.564 L1870.95 143.592 Q1872.29 141.23 1874.44 140.096 Q1876.59 138.939 1879.67 138.939 Q1880.11 138.939 1880.65 139.008 Q1881.18 139.055 1881.83 139.17 L1881.85 143.545 Z" fill="#000000" fill-rule="nonzero" fill-opacity="1" /><path clip-path="url(#clip730)" d="M1886.32 139.564 L1890.58 139.564 L1890.58 165.49 L1886.32 165.49 L1886.32 139.564 M1886.32 129.471 L1890.58 129.471 L1890.58 134.865 L1886.32 134.865 L1886.32 129.471 Z" fill="#000000" fill-rule="nonzero" fill-opacity="1" /><path clip-path="url(#clip730)" d="M1909.53 142.55 Q1906.11 142.55 1904.12 145.235 Q1902.13 147.897 1902.13 152.55 Q1902.13 157.203 1904.09 159.888 Q1906.08 162.55 1909.53 162.55 Q1912.94 162.55 1914.93 159.865 Q1916.92 157.179 1916.92 152.55 Q1916.92 147.943 1914.93 145.258 Q1912.94 142.55 1909.53 142.55 M1909.53 138.939 Q1915.09 138.939 1918.26 142.55 Q1921.43 146.161 1921.43 152.55 Q1921.43 158.916 1918.26 162.55 Q1915.09 166.161 1909.53 166.161 Q1903.96 166.161 1900.78 162.55 Q1897.64 158.916 1897.64 152.55 Q1897.64 146.161 1900.78 142.55 Q1903.96 138.939 1909.53 138.939 Z" fill="#000000" fill-rule="nonzero" fill-opacity="1" /><path clip-path="url(#clip730)" d="M1943.52 143.545 Q1942.8 143.129 1941.94 142.943 Q1941.11 142.735 1940.09 142.735 Q1936.48 142.735 1934.53 145.096 Q1932.61 147.434 1932.61 151.832 L1932.61 165.49 L1928.33 165.49 L1928.33 139.564 L1932.61 139.564 L1932.61 143.592 Q1933.96 141.23 1936.11 140.096 Q1938.26 138.939 1941.34 138.939 Q1941.78 138.939 1942.31 139.008 Q1942.84 139.055 1943.49 139.17 L1943.52 143.545 Z" fill="#000000" fill-rule="nonzero" fill-opacity="1" /><path clip-path="url(#clip730)" d="M1958.21 129.518 Q1955.11 134.842 1953.61 140.05 Q1952.1 145.258 1952.1 150.605 Q1952.1 155.953 1953.61 161.207 Q1955.14 166.439 1958.21 171.74 L1954.51 171.74 Q1951.04 166.3 1949.3 161.045 Q1947.59 155.791 1947.59 150.605 Q1947.59 145.443 1949.3 140.212 Q1951.02 134.98 1954.51 129.518 L1958.21 129.518 Z" fill="#000000" fill-rule="nonzero" fill-opacity="1" /><path clip-path="url(#clip730)" d="M1983.89 149.054 L1969.14 149.054 Q1969.49 155.976 1971.08 158.916 Q1973.08 162.527 1976.52 162.527 Q1980 162.527 1981.92 158.892 Q1983.61 155.698 1983.89 149.054 M1983.82 145.119 Q1983.17 138.545 1981.92 136.23 Q1979.93 132.573 1976.52 132.573 Q1972.98 132.573 1971.11 136.184 Q1969.63 139.101 1969.19 145.119 L1983.82 145.119 M1976.52 129.101 Q1982.08 129.101 1985.25 134.008 Q1988.42 138.892 1988.42 147.55 Q1988.42 156.184 1985.25 161.091 Q1982.08 166.022 1976.52 166.022 Q1970.95 166.022 1967.8 161.091 Q1964.63 156.184 1964.63 147.55 Q1964.63 138.892 1967.8 134.008 Q1970.95 129.101 1976.52 129.101 Z" fill="#000000" fill-rule="nonzero" fill-opacity="1" /><path clip-path="url(#clip730)" d="M1994.81 129.518 L1998.51 129.518 Q2001.99 134.98 2003.7 140.212 Q2005.44 145.443 2005.44 150.605 Q2005.44 155.791 2003.7 161.045 Q2001.99 166.3 1998.51 171.74 L1994.81 171.74 Q1997.89 166.439 1999.39 161.207 Q2000.92 155.953 2000.92 150.605 Q2000.92 145.258 1999.39 140.05 Q1997.89 134.842 1994.81 129.518 Z" fill="#000000" fill-rule="nonzero" fill-opacity="1" /><polyline clip-path="url(#clip730)" style="stroke:#e26f46; stroke-linecap:round; stroke-linejoin:round; stroke-width:4; stroke-opacity:1; fill:none" points="1660.35,200.05 1811.4,200.05 "/>
<path clip-path="url(#clip730)" d="M1840.85 213.441 L1840.85 227.191 L1836.57 227.191 L1836.57 191.404 L1840.85 191.404 L1840.85 195.339 Q1842.2 193.024 1844.23 191.913 Q1846.29 190.779 1849.14 190.779 Q1853.86 190.779 1856.8 194.529 Q1859.77 198.279 1859.77 204.39 Q1859.77 210.501 1856.8 214.251 Q1853.86 218.001 1849.14 218.001 Q1846.29 218.001 1844.23 216.89 Q1842.2 215.755 1840.85 213.441 M1855.34 204.39 Q1855.34 199.691 1853.4 197.029 Q1851.48 194.344 1848.1 194.344 Q1844.72 194.344 1842.78 197.029 Q1840.85 199.691 1840.85 204.39 Q1840.85 209.089 1842.78 211.774 Q1844.72 214.436 1848.1 214.436 Q1851.48 214.436 1853.4 211.774 Q1855.34 209.089 1855.34 204.39 Z" fill="#000000" fill-rule="nonzero" fill-opacity="1" /><path clip-path="url(#clip730)" d="M1876.87 194.39 Q1873.45 194.39 1871.46 197.075 Q1869.46 199.737 1869.46 204.39 Q1869.46 209.043 1871.43 211.728 Q1873.42 214.39 1876.87 214.39 Q1880.27 214.39 1882.27 211.705 Q1884.26 209.019 1884.26 204.39 Q1884.26 199.783 1882.27 197.098 Q1880.27 194.39 1876.87 194.39 M1876.87 190.779 Q1882.43 190.779 1885.6 194.39 Q1888.77 198.001 1888.77 204.39 Q1888.77 210.756 1885.6 214.39 Q1882.43 218.001 1876.87 218.001 Q1871.29 218.001 1868.12 214.39 Q1864.97 210.756 1864.97 204.39 Q1864.97 198.001 1868.12 194.39 Q1871.29 190.779 1876.87 190.779 Z" fill="#000000" fill-rule="nonzero" fill-opacity="1" /><path clip-path="url(#clip730)" d="M1912.36 192.168 L1912.36 196.195 Q1910.55 195.269 1908.61 194.807 Q1906.66 194.344 1904.58 194.344 Q1901.41 194.344 1899.81 195.316 Q1898.24 196.288 1898.24 198.232 Q1898.24 199.714 1899.37 200.57 Q1900.51 201.404 1903.93 202.168 L1905.39 202.492 Q1909.93 203.464 1911.83 205.246 Q1913.75 207.006 1913.75 210.177 Q1913.75 213.788 1910.88 215.894 Q1908.03 218.001 1903.03 218.001 Q1900.95 218.001 1898.68 217.584 Q1896.43 217.191 1893.93 216.38 L1893.93 211.982 Q1896.29 213.209 1898.58 213.834 Q1900.88 214.436 1903.12 214.436 Q1906.13 214.436 1907.75 213.418 Q1909.37 212.376 1909.37 210.501 Q1909.37 208.765 1908.19 207.839 Q1907.03 206.913 1903.08 206.056 L1901.59 205.709 Q1897.64 204.876 1895.88 203.163 Q1894.12 201.427 1894.12 198.418 Q1894.12 194.76 1896.71 192.77 Q1899.3 190.779 1904.07 190.779 Q1906.43 190.779 1908.52 191.126 Q1910.6 191.473 1912.36 192.168 Z" fill="#000000" fill-rule="nonzero" fill-opacity="1" /><path clip-path="url(#clip730)" d="M1924.74 184.043 L1924.74 191.404 L1933.52 191.404 L1933.52 194.714 L1924.74 194.714 L1924.74 208.788 Q1924.74 211.959 1925.6 212.862 Q1926.48 213.765 1929.14 213.765 L1933.52 213.765 L1933.52 217.33 L1929.14 217.33 Q1924.21 217.33 1922.33 215.501 Q1920.46 213.649 1920.46 208.788 L1920.46 194.714 L1917.33 194.714 L1917.33 191.404 L1920.46 191.404 L1920.46 184.043 L1924.74 184.043 Z" fill="#000000" fill-rule="nonzero" fill-opacity="1" /><path clip-path="url(#clip730)" d="M1961.29 203.302 L1961.29 205.385 L1941.71 205.385 Q1941.99 209.783 1944.35 212.098 Q1946.73 214.39 1950.97 214.39 Q1953.42 214.39 1955.71 213.788 Q1958.03 213.186 1960.3 211.982 L1960.3 216.01 Q1958.01 216.982 1955.6 217.492 Q1953.19 218.001 1950.71 218.001 Q1944.51 218.001 1940.88 214.39 Q1937.27 210.779 1937.27 204.621 Q1937.27 198.256 1940.69 194.529 Q1944.14 190.779 1949.97 190.779 Q1955.21 190.779 1958.24 194.158 Q1961.29 197.515 1961.29 203.302 M1957.03 202.052 Q1956.99 198.557 1955.07 196.473 Q1953.17 194.39 1950.02 194.39 Q1946.46 194.39 1944.3 196.404 Q1942.17 198.418 1941.85 202.075 L1957.03 202.052 Z" fill="#000000" fill-rule="nonzero" fill-opacity="1" /><path clip-path="url(#clip730)" d="M1983.31 195.385 Q1982.59 194.969 1981.73 194.783 Q1980.9 194.575 1979.88 194.575 Q1976.27 194.575 1974.33 196.936 Q1972.4 199.274 1972.4 203.672 L1972.4 217.33 L1968.12 217.33 L1968.12 191.404 L1972.4 191.404 L1972.4 195.432 Q1973.75 193.07 1975.9 191.936 Q1978.05 190.779 1981.13 190.779 Q1981.57 190.779 1982.1 190.848 Q1982.64 190.895 1983.28 191.01 L1983.31 195.385 Z" fill="#000000" fill-rule="nonzero" fill-opacity="1" /><path clip-path="url(#clip730)" d="M1987.77 191.404 L1992.03 191.404 L1992.03 217.33 L1987.77 217.33 L1987.77 191.404 M1987.77 181.311 L1992.03 181.311 L1992.03 186.705 L1987.77 186.705 L1987.77 181.311 Z" fill="#000000" fill-rule="nonzero" fill-opacity="1" /><path clip-path="url(#clip730)" d="M2010.99 194.39 Q2007.57 194.39 2005.58 197.075 Q2003.58 199.737 2003.58 204.39 Q2003.58 209.043 2005.55 211.728 Q2007.54 214.39 2010.99 214.39 Q2014.39 214.39 2016.39 211.705 Q2018.38 209.019 2018.38 204.39 Q2018.38 199.783 2016.39 197.098 Q2014.39 194.39 2010.99 194.39 M2010.99 190.779 Q2016.55 190.779 2019.72 194.39 Q2022.89 198.001 2022.89 204.39 Q2022.89 210.756 2019.72 214.39 Q2016.55 218.001 2010.99 218.001 Q2005.41 218.001 2002.24 214.39 Q1999.09 210.756 1999.09 204.39 Q1999.09 198.001 2002.24 194.39 Q2005.41 190.779 2010.99 190.779 Z" fill="#000000" fill-rule="nonzero" fill-opacity="1" /><path clip-path="url(#clip730)" d="M2044.97 195.385 Q2044.26 194.969 2043.4 194.783 Q2042.57 194.575 2041.55 194.575 Q2037.94 194.575 2035.99 196.936 Q2034.07 199.274 2034.07 203.672 L2034.07 217.33 L2029.79 217.33 L2029.79 191.404 L2034.07 191.404 L2034.07 195.432 Q2035.41 193.07 2037.57 191.936 Q2039.72 190.779 2042.8 190.779 Q2043.24 190.779 2043.77 190.848 Q2044.3 190.895 2044.95 191.01 L2044.97 195.385 Z" fill="#000000" fill-rule="nonzero" fill-opacity="1" /><path clip-path="url(#clip730)" d="M2059.67 181.358 Q2056.57 186.682 2055.07 191.89 Q2053.56 197.098 2053.56 202.445 Q2053.56 207.793 2055.07 213.047 Q2056.59 218.279 2059.67 223.58 L2055.97 223.58 Q2052.5 218.14 2050.76 212.885 Q2049.05 207.631 2049.05 202.445 Q2049.05 197.283 2050.76 192.052 Q2052.47 186.82 2055.97 181.358 L2059.67 181.358 Z" fill="#000000" fill-rule="nonzero" fill-opacity="1" /><path clip-path="url(#clip730)" d="M2085.34 200.894 L2070.6 200.894 Q2070.95 207.816 2072.54 210.756 Q2074.53 214.367 2077.98 214.367 Q2081.45 214.367 2083.38 210.732 Q2085.07 207.538 2085.34 200.894 M2085.27 196.959 Q2084.63 190.385 2083.38 188.07 Q2081.38 184.413 2077.98 184.413 Q2074.44 184.413 2072.57 188.024 Q2071.08 190.941 2070.64 196.959 L2085.27 196.959 M2077.98 180.941 Q2083.54 180.941 2086.71 185.848 Q2089.88 190.732 2089.88 199.39 Q2089.88 208.024 2086.71 212.931 Q2083.54 217.862 2077.98 217.862 Q2072.4 217.862 2069.26 212.931 Q2066.08 208.024 2066.08 199.39 Q2066.08 190.732 2069.26 185.848 Q2072.4 180.941 2077.98 180.941 Z" fill="#000000" fill-rule="nonzero" fill-opacity="1" /><path clip-path="url(#clip730)" d="M2098.03 211.45 L2102.91 211.45 L2102.91 215.431 L2099.12 222.839 L2096.13 222.839 L2098.03 215.431 L2098.03 211.45 Z" fill="#000000" fill-rule="nonzero" fill-opacity="1" /><path clip-path="url(#clip730)" d="M2133.56 201.681 L2133.56 217.33 L2129.3 217.33 L2129.3 201.82 Q2129.3 198.14 2127.87 196.311 Q2126.43 194.482 2123.56 194.482 Q2120.11 194.482 2118.12 196.682 Q2116.13 198.881 2116.13 202.677 L2116.13 217.33 L2111.85 217.33 L2111.85 191.404 L2116.13 191.404 L2116.13 195.432 Q2117.66 193.094 2119.72 191.936 Q2121.8 190.779 2124.51 190.779 Q2128.98 190.779 2131.27 193.557 Q2133.56 196.311 2133.56 201.681 Z" fill="#000000" fill-rule="nonzero" fill-opacity="1" /><path clip-path="url(#clip730)" d="M2142.61 195.802 L2172.29 195.802 L2172.29 199.691 L2142.61 199.691 L2142.61 195.802 M2142.61 205.246 L2172.29 205.246 L2172.29 209.181 L2142.61 209.181 L2142.61 205.246 Z" fill="#000000" fill-rule="nonzero" fill-opacity="1" /><path clip-path="url(#clip730)" d="M2196.55 198.695 Q2199.9 199.413 2201.78 201.681 Q2203.68 203.95 2203.68 207.283 Q2203.68 212.399 2200.16 215.2 Q2196.64 218.001 2190.16 218.001 Q2187.98 218.001 2185.67 217.561 Q2183.38 217.144 2180.92 216.288 L2180.92 211.774 Q2182.87 212.908 2185.18 213.487 Q2187.5 214.066 2190.02 214.066 Q2194.42 214.066 2196.71 212.33 Q2199.02 210.593 2199.02 207.283 Q2199.02 204.228 2196.87 202.515 Q2194.74 200.779 2190.92 200.779 L2186.89 200.779 L2186.89 196.936 L2191.11 196.936 Q2194.56 196.936 2196.38 195.57 Q2198.21 194.182 2198.21 191.589 Q2198.21 188.927 2196.31 187.515 Q2194.44 186.08 2190.92 186.08 Q2189 186.08 2186.8 186.496 Q2184.6 186.913 2181.96 187.793 L2181.96 183.626 Q2184.63 182.885 2186.94 182.515 Q2189.28 182.145 2191.34 182.145 Q2196.66 182.145 2199.76 184.575 Q2202.87 186.982 2202.87 191.103 Q2202.87 193.973 2201.22 195.964 Q2199.58 197.932 2196.55 198.695 Z" fill="#000000" fill-rule="nonzero" fill-opacity="1" /><path clip-path="url(#clip730)" d="M2211.27 181.358 L2214.97 181.358 Q2218.44 186.82 2220.16 192.052 Q2221.89 197.283 2221.89 202.445 Q2221.89 207.631 2220.16 212.885 Q2218.44 218.14 2214.97 223.58 L2211.27 223.58 Q2214.35 218.279 2215.85 213.047 Q2217.38 207.793 2217.38 202.445 Q2217.38 197.098 2215.85 191.89 Q2214.35 186.682 2211.27 181.358 Z" fill="#000000" fill-rule="nonzero" fill-opacity="1" /><polyline clip-path="url(#clip730)" style="stroke:#3da44d; stroke-linecap:round; stroke-linejoin:round; stroke-width:4; stroke-opacity:1; fill:none" points="1660.35,251.89 1811.4,251.89 "/>
<path clip-path="url(#clip730)" d="M1840.85 265.281 L1840.85 279.031 L1836.57 279.031 L1836.57 243.244 L1840.85 243.244 L1840.85 247.179 Q1842.2 244.864 1844.23 243.753 Q1846.29 242.619 1849.14 242.619 Q1853.86 242.619 1856.8 246.369 Q1859.77 250.119 1859.77 256.23 Q1859.77 262.341 1856.8 266.091 Q1853.86 269.841 1849.14 269.841 Q1846.29 269.841 1844.23 268.73 Q1842.2 267.595 1840.85 265.281 M1855.34 256.23 Q1855.34 251.531 1853.4 248.869 Q1851.48 246.184 1848.1 246.184 Q1844.72 246.184 1842.78 248.869 Q1840.85 251.531 1840.85 256.23 Q1840.85 260.929 1842.78 263.614 Q1844.72 266.276 1848.1 266.276 Q1851.48 266.276 1853.4 263.614 Q1855.34 260.929 1855.34 256.23 Z" fill="#000000" fill-rule="nonzero" fill-opacity="1" /><path clip-path="url(#clip730)" d="M1876.87 246.23 Q1873.45 246.23 1871.46 248.915 Q1869.46 251.577 1869.46 256.23 Q1869.46 260.883 1871.43 263.568 Q1873.42 266.23 1876.87 266.23 Q1880.27 266.23 1882.27 263.545 Q1884.26 260.859 1884.26 256.23 Q1884.26 251.623 1882.27 248.938 Q1880.27 246.23 1876.87 246.23 M1876.87 242.619 Q1882.43 242.619 1885.6 246.23 Q1888.77 249.841 1888.77 256.23 Q1888.77 262.596 1885.6 266.23 Q1882.43 269.841 1876.87 269.841 Q1871.29 269.841 1868.12 266.23 Q1864.97 262.596 1864.97 256.23 Q1864.97 249.841 1868.12 246.23 Q1871.29 242.619 1876.87 242.619 Z" fill="#000000" fill-rule="nonzero" fill-opacity="1" /><path clip-path="url(#clip730)" d="M1912.36 244.008 L1912.36 248.035 Q1910.55 247.109 1908.61 246.647 Q1906.66 246.184 1904.58 246.184 Q1901.41 246.184 1899.81 247.156 Q1898.24 248.128 1898.24 250.072 Q1898.24 251.554 1899.37 252.41 Q1900.51 253.244 1903.93 254.008 L1905.39 254.332 Q1909.93 255.304 1911.83 257.086 Q1913.75 258.846 1913.75 262.017 Q1913.75 265.628 1910.88 267.734 Q1908.03 269.841 1903.03 269.841 Q1900.95 269.841 1898.68 269.424 Q1896.43 269.031 1893.93 268.22 L1893.93 263.822 Q1896.29 265.049 1898.58 265.674 Q1900.88 266.276 1903.12 266.276 Q1906.13 266.276 1907.75 265.258 Q1909.37 264.216 1909.37 262.341 Q1909.37 260.605 1908.19 259.679 Q1907.03 258.753 1903.08 257.896 L1901.59 257.549 Q1897.64 256.716 1895.88 255.003 Q1894.12 253.267 1894.12 250.258 Q1894.12 246.6 1896.71 244.61 Q1899.3 242.619 1904.07 242.619 Q1906.43 242.619 1908.52 242.966 Q1910.6 243.313 1912.36 244.008 Z" fill="#000000" fill-rule="nonzero" fill-opacity="1" /><path clip-path="url(#clip730)" d="M1924.74 235.883 L1924.74 243.244 L1933.52 243.244 L1933.52 246.554 L1924.74 246.554 L1924.74 260.628 Q1924.74 263.799 1925.6 264.702 Q1926.48 265.605 1929.14 265.605 L1933.52 265.605 L1933.52 269.17 L1929.14 269.17 Q1924.21 269.17 1922.33 267.341 Q1920.46 265.489 1920.46 260.628 L1920.46 246.554 L1917.33 246.554 L1917.33 243.244 L1920.46 243.244 L1920.46 235.883 L1924.74 235.883 Z" fill="#000000" fill-rule="nonzero" fill-opacity="1" /><path clip-path="url(#clip730)" d="M1961.29 255.142 L1961.29 257.225 L1941.71 257.225 Q1941.99 261.623 1944.35 263.938 Q1946.73 266.23 1950.97 266.23 Q1953.42 266.23 1955.71 265.628 Q1958.03 265.026 1960.3 263.822 L1960.3 267.85 Q1958.01 268.822 1955.6 269.332 Q1953.19 269.841 1950.71 269.841 Q1944.51 269.841 1940.88 266.23 Q1937.27 262.619 1937.27 256.461 Q1937.27 250.096 1940.69 246.369 Q1944.14 242.619 1949.97 242.619 Q1955.21 242.619 1958.24 245.998 Q1961.29 249.355 1961.29 255.142 M1957.03 253.892 Q1956.99 250.397 1955.07 248.313 Q1953.17 246.23 1950.02 246.23 Q1946.46 246.23 1944.3 248.244 Q1942.17 250.258 1941.85 253.915 L1957.03 253.892 Z" fill="#000000" fill-rule="nonzero" fill-opacity="1" /><path clip-path="url(#clip730)" d="M1983.31 247.225 Q1982.59 246.809 1981.73 246.623 Q1980.9 246.415 1979.88 246.415 Q1976.27 246.415 1974.33 248.776 Q1972.4 251.114 1972.4 255.512 L1972.4 269.17 L1968.12 269.17 L1968.12 243.244 L1972.4 243.244 L1972.4 247.272 Q1973.75 244.91 1975.9 243.776 Q1978.05 242.619 1981.13 242.619 Q1981.57 242.619 1982.1 242.688 Q1982.64 242.735 1983.28 242.85 L1983.31 247.225 Z" fill="#000000" fill-rule="nonzero" fill-opacity="1" /><path clip-path="url(#clip730)" d="M1987.77 243.244 L1992.03 243.244 L1992.03 269.17 L1987.77 269.17 L1987.77 243.244 M1987.77 233.151 L1992.03 233.151 L1992.03 238.545 L1987.77 238.545 L1987.77 233.151 Z" fill="#000000" fill-rule="nonzero" fill-opacity="1" /><path clip-path="url(#clip730)" d="M2010.99 246.23 Q2007.57 246.23 2005.58 248.915 Q2003.58 251.577 2003.58 256.23 Q2003.58 260.883 2005.55 263.568 Q2007.54 266.23 2010.99 266.23 Q2014.39 266.23 2016.39 263.545 Q2018.38 260.859 2018.38 256.23 Q2018.38 251.623 2016.39 248.938 Q2014.39 246.23 2010.99 246.23 M2010.99 242.619 Q2016.55 242.619 2019.72 246.23 Q2022.89 249.841 2022.89 256.23 Q2022.89 262.596 2019.72 266.23 Q2016.55 269.841 2010.99 269.841 Q2005.41 269.841 2002.24 266.23 Q1999.09 262.596 1999.09 256.23 Q1999.09 249.841 2002.24 246.23 Q2005.41 242.619 2010.99 242.619 Z" fill="#000000" fill-rule="nonzero" fill-opacity="1" /><path clip-path="url(#clip730)" d="M2044.97 247.225 Q2044.26 246.809 2043.4 246.623 Q2042.57 246.415 2041.55 246.415 Q2037.94 246.415 2035.99 248.776 Q2034.07 251.114 2034.07 255.512 L2034.07 269.17 L2029.79 269.17 L2029.79 243.244 L2034.07 243.244 L2034.07 247.272 Q2035.41 244.91 2037.57 243.776 Q2039.72 242.619 2042.8 242.619 Q2043.24 242.619 2043.77 242.688 Q2044.3 242.735 2044.95 242.85 L2044.97 247.225 Z" fill="#000000" fill-rule="nonzero" fill-opacity="1" /><path clip-path="url(#clip730)" d="M2059.67 233.198 Q2056.57 238.522 2055.07 243.73 Q2053.56 248.938 2053.56 254.285 Q2053.56 259.633 2055.07 264.887 Q2056.59 270.119 2059.67 275.42 L2055.97 275.42 Q2052.5 269.98 2050.76 264.725 Q2049.05 259.471 2049.05 254.285 Q2049.05 249.123 2050.76 243.892 Q2052.47 238.66 2055.97 233.198 L2059.67 233.198 Z" fill="#000000" fill-rule="nonzero" fill-opacity="1" /><path clip-path="url(#clip730)" d="M2085.34 252.734 L2070.6 252.734 Q2070.95 259.656 2072.54 262.596 Q2074.53 266.207 2077.98 266.207 Q2081.45 266.207 2083.38 262.572 Q2085.07 259.378 2085.34 252.734 M2085.27 248.799 Q2084.63 242.225 2083.38 239.91 Q2081.38 236.253 2077.98 236.253 Q2074.44 236.253 2072.57 239.864 Q2071.08 242.781 2070.64 248.799 L2085.27 248.799 M2077.98 232.781 Q2083.54 232.781 2086.71 237.688 Q2089.88 242.572 2089.88 251.23 Q2089.88 259.864 2086.71 264.771 Q2083.54 269.702 2077.98 269.702 Q2072.4 269.702 2069.26 264.771 Q2066.08 259.864 2066.08 251.23 Q2066.08 242.572 2069.26 237.688 Q2072.4 232.781 2077.98 232.781 Z" fill="#000000" fill-rule="nonzero" fill-opacity="1" /><path clip-path="url(#clip730)" d="M2098.03 263.29 L2102.91 263.29 L2102.91 267.271 L2099.12 274.679 L2096.13 274.679 L2098.03 267.271 L2098.03 263.29 Z" fill="#000000" fill-rule="nonzero" fill-opacity="1" /><path clip-path="url(#clip730)" d="M2133.56 253.521 L2133.56 269.17 L2129.3 269.17 L2129.3 253.66 Q2129.3 249.98 2127.87 248.151 Q2126.43 246.322 2123.56 246.322 Q2120.11 246.322 2118.12 248.522 Q2116.13 250.721 2116.13 254.517 L2116.13 269.17 L2111.85 269.17 L2111.85 243.244 L2116.13 243.244 L2116.13 247.272 Q2117.66 244.934 2119.72 243.776 Q2121.8 242.619 2124.51 242.619 Q2128.98 242.619 2131.27 245.397 Q2133.56 248.151 2133.56 253.521 Z" fill="#000000" fill-rule="nonzero" fill-opacity="1" /><path clip-path="url(#clip730)" d="M2142.61 247.642 L2172.29 247.642 L2172.29 251.531 L2142.61 251.531 L2142.61 247.642 M2142.61 257.086 L2172.29 257.086 L2172.29 261.021 L2142.61 261.021 L2142.61 257.086 Z" fill="#000000" fill-rule="nonzero" fill-opacity="1" /><path clip-path="url(#clip730)" d="M2186.41 265.234 L2202.73 265.234 L2202.73 269.17 L2180.78 269.17 L2180.78 265.234 Q2183.44 262.48 2188.03 257.85 Q2192.63 253.197 2193.81 251.855 Q2196.06 249.332 2196.94 247.596 Q2197.84 245.836 2197.84 244.147 Q2197.84 241.392 2195.9 239.656 Q2193.98 237.92 2190.88 237.92 Q2188.68 237.92 2186.22 238.684 Q2183.79 239.447 2181.01 240.998 L2181.01 236.276 Q2183.84 235.142 2186.29 234.563 Q2188.75 233.985 2190.78 233.985 Q2196.15 233.985 2199.35 236.67 Q2202.54 239.355 2202.54 243.846 Q2202.54 245.975 2201.73 247.897 Q2200.94 249.795 2198.84 252.387 Q2198.26 253.059 2195.16 256.276 Q2192.06 259.471 2186.41 265.234 Z" fill="#000000" fill-rule="nonzero" fill-opacity="1" /><path clip-path="url(#clip730)" d="M2222.54 237.688 Q2218.93 237.688 2217.1 241.253 Q2215.3 244.795 2215.3 251.924 Q2215.3 259.031 2217.1 262.596 Q2218.93 266.137 2222.54 266.137 Q2226.18 266.137 2227.98 262.596 Q2229.81 259.031 2229.81 251.924 Q2229.81 244.795 2227.98 241.253 Q2226.18 237.688 2222.54 237.688 M2222.54 233.985 Q2228.35 233.985 2231.41 238.591 Q2234.49 243.174 2234.49 251.924 Q2234.49 260.651 2231.41 265.258 Q2228.35 269.841 2222.54 269.841 Q2216.73 269.841 2213.65 265.258 Q2210.6 260.651 2210.6 251.924 Q2210.6 243.174 2213.65 238.591 Q2216.73 233.985 2222.54 233.985 Z" fill="#000000" fill-rule="nonzero" fill-opacity="1" /><path clip-path="url(#clip730)" d="M2241.43 233.198 L2245.13 233.198 Q2248.61 238.66 2250.32 243.892 Q2252.06 249.123 2252.06 254.285 Q2252.06 259.471 2250.32 264.725 Q2248.61 269.98 2245.13 275.42 L2241.43 275.42 Q2244.51 270.119 2246.01 264.887 Q2247.54 259.633 2247.54 254.285 Q2247.54 248.938 2246.01 243.73 Q2244.51 238.522 2241.43 233.198 Z" fill="#000000" fill-rule="nonzero" fill-opacity="1" /><polyline clip-path="url(#clip730)" style="stroke:#c271d2; stroke-linecap:round; stroke-linejoin:round; stroke-width:4; stroke-opacity:1; fill:none" points="1660.35,303.73 1811.4,303.73 "/>
<path clip-path="url(#clip730)" d="M1840.85 317.121 L1840.85 330.871 L1836.57 330.871 L1836.57 295.084 L1840.85 295.084 L1840.85 299.019 Q1842.2 296.704 1844.23 295.593 Q1846.29 294.459 1849.14 294.459 Q1853.86 294.459 1856.8 298.209 Q1859.77 301.959 1859.77 308.07 Q1859.77 314.181 1856.8 317.931 Q1853.86 321.681 1849.14 321.681 Q1846.29 321.681 1844.23 320.57 Q1842.2 319.435 1840.85 317.121 M1855.34 308.07 Q1855.34 303.371 1853.4 300.709 Q1851.48 298.024 1848.1 298.024 Q1844.72 298.024 1842.78 300.709 Q1840.85 303.371 1840.85 308.07 Q1840.85 312.769 1842.78 315.454 Q1844.72 318.116 1848.1 318.116 Q1851.48 318.116 1853.4 315.454 Q1855.34 312.769 1855.34 308.07 Z" fill="#000000" fill-rule="nonzero" fill-opacity="1" /><path clip-path="url(#clip730)" d="M1876.87 298.07 Q1873.45 298.07 1871.46 300.755 Q1869.46 303.417 1869.46 308.07 Q1869.46 312.723 1871.43 315.408 Q1873.42 318.07 1876.87 318.07 Q1880.27 318.07 1882.27 315.385 Q1884.26 312.699 1884.26 308.07 Q1884.26 303.463 1882.27 300.778 Q1880.27 298.07 1876.87 298.07 M1876.87 294.459 Q1882.43 294.459 1885.6 298.07 Q1888.77 301.681 1888.77 308.07 Q1888.77 314.436 1885.6 318.07 Q1882.43 321.681 1876.87 321.681 Q1871.29 321.681 1868.12 318.07 Q1864.97 314.436 1864.97 308.07 Q1864.97 301.681 1868.12 298.07 Q1871.29 294.459 1876.87 294.459 Z" fill="#000000" fill-rule="nonzero" fill-opacity="1" /><path clip-path="url(#clip730)" d="M1912.36 295.848 L1912.36 299.875 Q1910.55 298.949 1908.61 298.487 Q1906.66 298.024 1904.58 298.024 Q1901.41 298.024 1899.81 298.996 Q1898.24 299.968 1898.24 301.912 Q1898.24 303.394 1899.37 304.25 Q1900.51 305.084 1903.93 305.848 L1905.39 306.172 Q1909.93 307.144 1911.83 308.926 Q1913.75 310.686 1913.75 313.857 Q1913.75 317.468 1910.88 319.574 Q1908.03 321.681 1903.03 321.681 Q1900.95 321.681 1898.68 321.264 Q1896.43 320.871 1893.93 320.06 L1893.93 315.662 Q1896.29 316.889 1898.58 317.514 Q1900.88 318.116 1903.12 318.116 Q1906.13 318.116 1907.75 317.098 Q1909.37 316.056 1909.37 314.181 Q1909.37 312.445 1908.19 311.519 Q1907.03 310.593 1903.08 309.736 L1901.59 309.389 Q1897.64 308.556 1895.88 306.843 Q1894.12 305.107 1894.12 302.098 Q1894.12 298.44 1896.71 296.45 Q1899.3 294.459 1904.07 294.459 Q1906.43 294.459 1908.52 294.806 Q1910.6 295.153 1912.36 295.848 Z" fill="#000000" fill-rule="nonzero" fill-opacity="1" /><path clip-path="url(#clip730)" d="M1924.74 287.723 L1924.74 295.084 L1933.52 295.084 L1933.52 298.394 L1924.74 298.394 L1924.74 312.468 Q1924.74 315.639 1925.6 316.542 Q1926.48 317.445 1929.14 317.445 L1933.52 317.445 L1933.52 321.01 L1929.14 321.01 Q1924.21 321.01 1922.33 319.181 Q1920.46 317.329 1920.46 312.468 L1920.46 298.394 L1917.33 298.394 L1917.33 295.084 L1920.46 295.084 L1920.46 287.723 L1924.74 287.723 Z" fill="#000000" fill-rule="nonzero" fill-opacity="1" /><path clip-path="url(#clip730)" d="M1961.29 306.982 L1961.29 309.065 L1941.71 309.065 Q1941.99 313.463 1944.35 315.778 Q1946.73 318.07 1950.97 318.07 Q1953.42 318.07 1955.71 317.468 Q1958.03 316.866 1960.3 315.662 L1960.3 319.69 Q1958.01 320.662 1955.6 321.172 Q1953.19 321.681 1950.71 321.681 Q1944.51 321.681 1940.88 318.07 Q1937.27 314.459 1937.27 308.301 Q1937.27 301.936 1940.69 298.209 Q1944.14 294.459 1949.97 294.459 Q1955.21 294.459 1958.24 297.838 Q1961.29 301.195 1961.29 306.982 M1957.03 305.732 Q1956.99 302.237 1955.07 300.153 Q1953.17 298.07 1950.02 298.07 Q1946.46 298.07 1944.3 300.084 Q1942.17 302.098 1941.85 305.755 L1957.03 305.732 Z" fill="#000000" fill-rule="nonzero" fill-opacity="1" /><path clip-path="url(#clip730)" d="M1983.31 299.065 Q1982.59 298.649 1981.73 298.463 Q1980.9 298.255 1979.88 298.255 Q1976.27 298.255 1974.33 300.616 Q1972.4 302.954 1972.4 307.352 L1972.4 321.01 L1968.12 321.01 L1968.12 295.084 L1972.4 295.084 L1972.4 299.112 Q1973.75 296.75 1975.9 295.616 Q1978.05 294.459 1981.13 294.459 Q1981.57 294.459 1982.1 294.528 Q1982.64 294.575 1983.28 294.69 L1983.31 299.065 Z" fill="#000000" fill-rule="nonzero" fill-opacity="1" /><path clip-path="url(#clip730)" d="M1987.77 295.084 L1992.03 295.084 L1992.03 321.01 L1987.77 321.01 L1987.77 295.084 M1987.77 284.991 L1992.03 284.991 L1992.03 290.385 L1987.77 290.385 L1987.77 284.991 Z" fill="#000000" fill-rule="nonzero" fill-opacity="1" /><path clip-path="url(#clip730)" d="M2010.99 298.07 Q2007.57 298.07 2005.58 300.755 Q2003.58 303.417 2003.58 308.07 Q2003.58 312.723 2005.55 315.408 Q2007.54 318.07 2010.99 318.07 Q2014.39 318.07 2016.39 315.385 Q2018.38 312.699 2018.38 308.07 Q2018.38 303.463 2016.39 300.778 Q2014.39 298.07 2010.99 298.07 M2010.99 294.459 Q2016.55 294.459 2019.72 298.07 Q2022.89 301.681 2022.89 308.07 Q2022.89 314.436 2019.72 318.07 Q2016.55 321.681 2010.99 321.681 Q2005.41 321.681 2002.24 318.07 Q1999.09 314.436 1999.09 308.07 Q1999.09 301.681 2002.24 298.07 Q2005.41 294.459 2010.99 294.459 Z" fill="#000000" fill-rule="nonzero" fill-opacity="1" /><path clip-path="url(#clip730)" d="M2044.97 299.065 Q2044.26 298.649 2043.4 298.463 Q2042.57 298.255 2041.55 298.255 Q2037.94 298.255 2035.99 300.616 Q2034.07 302.954 2034.07 307.352 L2034.07 321.01 L2029.79 321.01 L2029.79 295.084 L2034.07 295.084 L2034.07 299.112 Q2035.41 296.75 2037.57 295.616 Q2039.72 294.459 2042.8 294.459 Q2043.24 294.459 2043.77 294.528 Q2044.3 294.575 2044.95 294.69 L2044.97 299.065 Z" fill="#000000" fill-rule="nonzero" fill-opacity="1" /><path clip-path="url(#clip730)" d="M2059.67 285.038 Q2056.57 290.362 2055.07 295.57 Q2053.56 300.778 2053.56 306.125 Q2053.56 311.473 2055.07 316.727 Q2056.59 321.959 2059.67 327.26 L2055.97 327.26 Q2052.5 321.82 2050.76 316.565 Q2049.05 311.311 2049.05 306.125 Q2049.05 300.963 2050.76 295.732 Q2052.47 290.5 2055.97 285.038 L2059.67 285.038 Z" fill="#000000" fill-rule="nonzero" fill-opacity="1" /><path clip-path="url(#clip730)" d="M2078.72 323.417 Q2076.92 328.047 2075.2 329.459 Q2073.49 330.871 2070.62 330.871 L2067.22 330.871 L2067.22 327.306 L2069.72 327.306 Q2071.48 327.306 2072.45 326.472 Q2073.42 325.639 2074.6 322.537 L2075.37 320.593 L2064.88 295.084 L2069.39 295.084 L2077.5 315.361 L2085.6 295.084 L2090.11 295.084 L2078.72 323.417 Z" fill="#000000" fill-rule="nonzero" fill-opacity="1" /><path clip-path="url(#clip730)" d="M2097.08 315.13 L2101.96 315.13 L2101.96 319.111 L2098.17 326.519 L2095.18 326.519 L2097.08 319.111 L2097.08 315.13 Z" fill="#000000" fill-rule="nonzero" fill-opacity="1" /><path clip-path="url(#clip730)" d="M2132.61 305.361 L2132.61 321.01 L2128.35 321.01 L2128.35 305.5 Q2128.35 301.82 2126.92 299.991 Q2125.48 298.162 2122.61 298.162 Q2119.16 298.162 2117.17 300.362 Q2115.18 302.561 2115.18 306.357 L2115.18 321.01 L2110.9 321.01 L2110.9 295.084 L2115.18 295.084 L2115.18 299.112 Q2116.71 296.774 2118.77 295.616 Q2120.85 294.459 2123.56 294.459 Q2128.03 294.459 2130.32 297.237 Q2132.61 299.991 2132.61 305.361 Z" fill="#000000" fill-rule="nonzero" fill-opacity="1" /><path clip-path="url(#clip730)" d="M2141.66 299.482 L2171.34 299.482 L2171.34 303.371 L2141.66 303.371 L2141.66 299.482 M2141.66 308.926 L2171.34 308.926 L2171.34 312.861 L2141.66 312.861 L2141.66 308.926 Z" fill="#000000" fill-rule="nonzero" fill-opacity="1" /><path clip-path="url(#clip730)" d="M2195.6 302.375 Q2198.95 303.093 2200.83 305.361 Q2202.73 307.63 2202.73 310.963 Q2202.73 316.079 2199.21 318.88 Q2195.69 321.681 2189.21 321.681 Q2187.03 321.681 2184.72 321.241 Q2182.43 320.824 2179.97 319.968 L2179.97 315.454 Q2181.92 316.588 2184.23 317.167 Q2186.55 317.746 2189.07 317.746 Q2193.47 317.746 2195.76 316.01 Q2198.07 314.273 2198.07 310.963 Q2198.07 307.908 2195.92 306.195 Q2193.79 304.459 2189.97 304.459 L2185.94 304.459 L2185.94 300.616 L2190.16 300.616 Q2193.61 300.616 2195.44 299.25 Q2197.26 297.862 2197.26 295.269 Q2197.26 292.607 2195.37 291.195 Q2193.49 289.76 2189.97 289.76 Q2188.05 289.76 2185.85 290.176 Q2183.65 290.593 2181.01 291.473 L2181.01 287.306 Q2183.68 286.565 2185.99 286.195 Q2188.33 285.825 2190.39 285.825 Q2195.71 285.825 2198.81 288.255 Q2201.92 290.662 2201.92 294.783 Q2201.92 297.653 2200.27 299.644 Q2198.63 301.612 2195.6 302.375 Z" fill="#000000" fill-rule="nonzero" fill-opacity="1" /><path clip-path="url(#clip730)" d="M2210.32 285.038 L2214.02 285.038 Q2217.5 290.5 2219.21 295.732 Q2220.94 300.963 2220.94 306.125 Q2220.94 311.311 2219.21 316.565 Q2217.5 321.82 2214.02 327.26 L2210.32 327.26 Q2213.4 321.959 2214.9 316.727 Q2216.43 311.473 2216.43 306.125 Q2216.43 300.778 2214.9 295.57 Q2213.4 290.362 2210.32 285.038 Z" fill="#000000" fill-rule="nonzero" fill-opacity="1" /><polyline clip-path="url(#clip730)" style="stroke:#ac8d18; stroke-linecap:round; stroke-linejoin:round; stroke-width:4; stroke-opacity:1; fill:none" points="1660.35,355.57 1811.4,355.57 "/>
<path clip-path="url(#clip730)" d="M1840.85 368.961 L1840.85 382.711 L1836.57 382.711 L1836.57 346.924 L1840.85 346.924 L1840.85 350.859 Q1842.2 348.544 1844.23 347.433 Q1846.29 346.299 1849.14 346.299 Q1853.86 346.299 1856.8 350.049 Q1859.77 353.799 1859.77 359.91 Q1859.77 366.021 1856.8 369.771 Q1853.86 373.521 1849.14 373.521 Q1846.29 373.521 1844.23 372.41 Q1842.2 371.275 1840.85 368.961 M1855.34 359.91 Q1855.34 355.211 1853.4 352.549 Q1851.48 349.864 1848.1 349.864 Q1844.72 349.864 1842.78 352.549 Q1840.85 355.211 1840.85 359.91 Q1840.85 364.609 1842.78 367.294 Q1844.72 369.956 1848.1 369.956 Q1851.48 369.956 1853.4 367.294 Q1855.34 364.609 1855.34 359.91 Z" fill="#000000" fill-rule="nonzero" fill-opacity="1" /><path clip-path="url(#clip730)" d="M1876.87 349.91 Q1873.45 349.91 1871.46 352.595 Q1869.46 355.257 1869.46 359.91 Q1869.46 364.563 1871.43 367.248 Q1873.42 369.91 1876.87 369.91 Q1880.27 369.91 1882.27 367.225 Q1884.26 364.539 1884.26 359.91 Q1884.26 355.303 1882.27 352.618 Q1880.27 349.91 1876.87 349.91 M1876.87 346.299 Q1882.43 346.299 1885.6 349.91 Q1888.77 353.521 1888.77 359.91 Q1888.77 366.276 1885.6 369.91 Q1882.43 373.521 1876.87 373.521 Q1871.29 373.521 1868.12 369.91 Q1864.97 366.276 1864.97 359.91 Q1864.97 353.521 1868.12 349.91 Q1871.29 346.299 1876.87 346.299 Z" fill="#000000" fill-rule="nonzero" fill-opacity="1" /><path clip-path="url(#clip730)" d="M1912.36 347.688 L1912.36 351.715 Q1910.55 350.789 1908.61 350.327 Q1906.66 349.864 1904.58 349.864 Q1901.41 349.864 1899.81 350.836 Q1898.24 351.808 1898.24 353.752 Q1898.24 355.234 1899.37 356.09 Q1900.51 356.924 1903.93 357.688 L1905.39 358.012 Q1909.93 358.984 1911.83 360.766 Q1913.75 362.526 1913.75 365.697 Q1913.75 369.308 1910.88 371.414 Q1908.03 373.521 1903.03 373.521 Q1900.95 373.521 1898.68 373.104 Q1896.43 372.711 1893.93 371.9 L1893.93 367.502 Q1896.29 368.729 1898.58 369.354 Q1900.88 369.956 1903.12 369.956 Q1906.13 369.956 1907.75 368.938 Q1909.37 367.896 1909.37 366.021 Q1909.37 364.285 1908.19 363.359 Q1907.03 362.433 1903.08 361.576 L1901.59 361.229 Q1897.64 360.396 1895.88 358.683 Q1894.12 356.947 1894.12 353.938 Q1894.12 350.28 1896.71 348.29 Q1899.3 346.299 1904.07 346.299 Q1906.43 346.299 1908.52 346.646 Q1910.6 346.993 1912.36 347.688 Z" fill="#000000" fill-rule="nonzero" fill-opacity="1" /><path clip-path="url(#clip730)" d="M1924.74 339.563 L1924.74 346.924 L1933.52 346.924 L1933.52 350.234 L1924.74 350.234 L1924.74 364.308 Q1924.74 367.479 1925.6 368.382 Q1926.48 369.285 1929.14 369.285 L1933.52 369.285 L1933.52 372.85 L1929.14 372.85 Q1924.21 372.85 1922.33 371.021 Q1920.46 369.169 1920.46 364.308 L1920.46 350.234 L1917.33 350.234 L1917.33 346.924 L1920.46 346.924 L1920.46 339.563 L1924.74 339.563 Z" fill="#000000" fill-rule="nonzero" fill-opacity="1" /><path clip-path="url(#clip730)" d="M1961.29 358.822 L1961.29 360.905 L1941.71 360.905 Q1941.99 365.303 1944.35 367.618 Q1946.73 369.91 1950.97 369.91 Q1953.42 369.91 1955.71 369.308 Q1958.03 368.706 1960.3 367.502 L1960.3 371.53 Q1958.01 372.502 1955.6 373.012 Q1953.19 373.521 1950.71 373.521 Q1944.51 373.521 1940.88 369.91 Q1937.27 366.299 1937.27 360.141 Q1937.27 353.776 1940.69 350.049 Q1944.14 346.299 1949.97 346.299 Q1955.21 346.299 1958.24 349.678 Q1961.29 353.035 1961.29 358.822 M1957.03 357.572 Q1956.99 354.077 1955.07 351.993 Q1953.17 349.91 1950.02 349.91 Q1946.46 349.91 1944.3 351.924 Q1942.17 353.938 1941.85 357.595 L1957.03 357.572 Z" fill="#000000" fill-rule="nonzero" fill-opacity="1" /><path clip-path="url(#clip730)" d="M1983.31 350.905 Q1982.59 350.489 1981.73 350.303 Q1980.9 350.095 1979.88 350.095 Q1976.27 350.095 1974.33 352.456 Q1972.4 354.794 1972.4 359.192 L1972.4 372.85 L1968.12 372.85 L1968.12 346.924 L1972.4 346.924 L1972.4 350.952 Q1973.75 348.59 1975.9 347.456 Q1978.05 346.299 1981.13 346.299 Q1981.57 346.299 1982.1 346.368 Q1982.64 346.415 1983.28 346.53 L1983.31 350.905 Z" fill="#000000" fill-rule="nonzero" fill-opacity="1" /><path clip-path="url(#clip730)" d="M1987.77 346.924 L1992.03 346.924 L1992.03 372.85 L1987.77 372.85 L1987.77 346.924 M1987.77 336.831 L1992.03 336.831 L1992.03 342.225 L1987.77 342.225 L1987.77 336.831 Z" fill="#000000" fill-rule="nonzero" fill-opacity="1" /><path clip-path="url(#clip730)" d="M2010.99 349.91 Q2007.57 349.91 2005.58 352.595 Q2003.58 355.257 2003.58 359.91 Q2003.58 364.563 2005.55 367.248 Q2007.54 369.91 2010.99 369.91 Q2014.39 369.91 2016.39 367.225 Q2018.38 364.539 2018.38 359.91 Q2018.38 355.303 2016.39 352.618 Q2014.39 349.91 2010.99 349.91 M2010.99 346.299 Q2016.55 346.299 2019.72 349.91 Q2022.89 353.521 2022.89 359.91 Q2022.89 366.276 2019.72 369.91 Q2016.55 373.521 2010.99 373.521 Q2005.41 373.521 2002.24 369.91 Q1999.09 366.276 1999.09 359.91 Q1999.09 353.521 2002.24 349.91 Q2005.41 346.299 2010.99 346.299 Z" fill="#000000" fill-rule="nonzero" fill-opacity="1" /><path clip-path="url(#clip730)" d="M2044.97 350.905 Q2044.26 350.489 2043.4 350.303 Q2042.57 350.095 2041.55 350.095 Q2037.94 350.095 2035.99 352.456 Q2034.07 354.794 2034.07 359.192 L2034.07 372.85 L2029.79 372.85 L2029.79 346.924 L2034.07 346.924 L2034.07 350.952 Q2035.41 348.59 2037.57 347.456 Q2039.72 346.299 2042.8 346.299 Q2043.24 346.299 2043.77 346.368 Q2044.3 346.415 2044.95 346.53 L2044.97 350.905 Z" fill="#000000" fill-rule="nonzero" fill-opacity="1" /><path clip-path="url(#clip730)" d="M2059.67 336.878 Q2056.57 342.202 2055.07 347.41 Q2053.56 352.618 2053.56 357.965 Q2053.56 363.313 2055.07 368.567 Q2056.59 373.799 2059.67 379.1 L2055.97 379.1 Q2052.5 373.66 2050.76 368.405 Q2049.05 363.151 2049.05 357.965 Q2049.05 352.803 2050.76 347.572 Q2052.47 342.34 2055.97 336.878 L2059.67 336.878 Z" fill="#000000" fill-rule="nonzero" fill-opacity="1" /><path clip-path="url(#clip730)" d="M2078.72 375.257 Q2076.92 379.887 2075.2 381.299 Q2073.49 382.711 2070.62 382.711 L2067.22 382.711 L2067.22 379.146 L2069.72 379.146 Q2071.48 379.146 2072.45 378.312 Q2073.42 377.479 2074.6 374.377 L2075.37 372.433 L2064.88 346.924 L2069.39 346.924 L2077.5 367.201 L2085.6 346.924 L2090.11 346.924 L2078.72 375.257 Z" fill="#000000" fill-rule="nonzero" fill-opacity="1" /><path clip-path="url(#clip730)" d="M2097.08 366.97 L2101.96 366.97 L2101.96 370.951 L2098.17 378.359 L2095.18 378.359 L2097.08 370.951 L2097.08 366.97 Z" fill="#000000" fill-rule="nonzero" fill-opacity="1" /><path clip-path="url(#clip730)" d="M2132.61 357.201 L2132.61 372.85 L2128.35 372.85 L2128.35 357.34 Q2128.35 353.66 2126.92 351.831 Q2125.48 350.002 2122.61 350.002 Q2119.16 350.002 2117.17 352.202 Q2115.18 354.401 2115.18 358.197 L2115.18 372.85 L2110.9 372.85 L2110.9 346.924 L2115.18 346.924 L2115.18 350.952 Q2116.71 348.614 2118.77 347.456 Q2120.85 346.299 2123.56 346.299 Q2128.03 346.299 2130.32 349.077 Q2132.61 351.831 2132.61 357.201 Z" fill="#000000" fill-rule="nonzero" fill-opacity="1" /><path clip-path="url(#clip730)" d="M2141.66 351.322 L2171.34 351.322 L2171.34 355.211 L2141.66 355.211 L2141.66 351.322 M2141.66 360.766 L2171.34 360.766 L2171.34 364.701 L2141.66 364.701 L2141.66 360.766 Z" fill="#000000" fill-rule="nonzero" fill-opacity="1" /><path clip-path="url(#clip730)" d="M2185.46 368.914 L2201.78 368.914 L2201.78 372.85 L2179.83 372.85 L2179.83 368.914 Q2182.5 366.16 2187.08 361.53 Q2191.69 356.877 2192.87 355.535 Q2195.11 353.012 2195.99 351.276 Q2196.89 349.516 2196.89 347.827 Q2196.89 345.072 2194.95 343.336 Q2193.03 341.6 2189.93 341.6 Q2187.73 341.6 2185.27 342.364 Q2182.84 343.127 2180.06 344.678 L2180.06 339.956 Q2182.89 338.822 2185.34 338.243 Q2187.8 337.665 2189.83 337.665 Q2195.2 337.665 2198.4 340.35 Q2201.59 343.035 2201.59 347.526 Q2201.59 349.655 2200.78 351.577 Q2200 353.475 2197.89 356.067 Q2197.31 356.739 2194.21 359.956 Q2191.11 363.151 2185.46 368.914 Z" fill="#000000" fill-rule="nonzero" fill-opacity="1" /><path clip-path="url(#clip730)" d="M2221.59 341.368 Q2217.98 341.368 2216.15 344.933 Q2214.35 348.475 2214.35 355.604 Q2214.35 362.711 2216.15 366.276 Q2217.98 369.817 2221.59 369.817 Q2225.23 369.817 2227.03 366.276 Q2228.86 362.711 2228.86 355.604 Q2228.86 348.475 2227.03 344.933 Q2225.23 341.368 2221.59 341.368 M2221.59 337.665 Q2227.4 337.665 2230.46 342.271 Q2233.54 346.854 2233.54 355.604 Q2233.54 364.331 2230.46 368.938 Q2227.4 373.521 2221.59 373.521 Q2215.78 373.521 2212.7 368.938 Q2209.65 364.331 2209.65 355.604 Q2209.65 346.854 2212.7 342.271 Q2215.78 337.665 2221.59 337.665 Z" fill="#000000" fill-rule="nonzero" fill-opacity="1" /><path clip-path="url(#clip730)" d="M2240.48 336.878 L2244.18 336.878 Q2247.66 342.34 2249.37 347.572 Q2251.11 352.803 2251.11 357.965 Q2251.11 363.151 2249.37 368.405 Q2247.66 373.66 2244.18 379.1 L2240.48 379.1 Q2243.56 373.799 2245.06 368.567 Q2246.59 363.313 2246.59 357.965 Q2246.59 352.618 2245.06 347.41 Q2243.56 342.202 2240.48 336.878 Z" fill="#000000" fill-rule="nonzero" fill-opacity="1" /></svg>
