<?xml version="1.0" encoding="utf-8"?>
<svg xmlns="http://www.w3.org/2000/svg" xmlns:xlink="http://www.w3.org/1999/xlink" width="600" height="400" viewBox="0 0 2400 1600">
<defs>
  <clipPath id="clip220">
    <rect x="0" y="0" width="2400" height="1600"/>
  </clipPath>
</defs>
<path clip-path="url(#clip220)" d="M0 1600 L2400 1600 L2400 0 L0 0  Z" fill="#ffffff" fill-rule="evenodd" fill-opacity="1"/>
<defs>
  <clipPath id="clip221">
    <rect x="480" y="0" width="1681" height="1600"/>
  </clipPath>
</defs>
<path clip-path="url(#clip220)" d="M86.9921 1521.01 L2352.76 1521.01 L2352.76 47.2441 L86.9921 47.2441  Z" fill="#ffffff" fill-rule="evenodd" fill-opacity="1"/>
<defs>
  <clipPath id="clip222">
    <rect x="86" y="47" width="2267" height="1475"/>
  </clipPath>
</defs>
<polyline clip-path="url(#clip222)" style="stroke:#000000; stroke-linecap:round; stroke-linejoin:round; stroke-width:2; stroke-opacity:0.1; fill:none" points="107.495,1521.01 107.495,47.2441 "/>
<polyline clip-path="url(#clip222)" style="stroke:#000000; stroke-linecap:round; stroke-linejoin:round; stroke-width:2; stroke-opacity:0.1; fill:none" points="543.722,1521.01 543.722,47.2441 "/>
<polyline clip-path="url(#clip222)" style="stroke:#000000; stroke-linecap:round; stroke-linejoin:round; stroke-width:2; stroke-opacity:0.1; fill:none" points="979.949,1521.01 979.949,47.2441 "/>
<polyline clip-path="url(#clip222)" style="stroke:#000000; stroke-linecap:round; stroke-linejoin:round; stroke-width:2; stroke-opacity:0.1; fill:none" points="1416.18,1521.01 1416.18,47.2441 "/>
<polyline clip-path="url(#clip222)" style="stroke:#000000; stroke-linecap:round; stroke-linejoin:round; stroke-width:2; stroke-opacity:0.1; fill:none" points="1852.4,1521.01 1852.4,47.2441 "/>
<polyline clip-path="url(#clip222)" style="stroke:#000000; stroke-linecap:round; stroke-linejoin:round; stroke-width:2; stroke-opacity:0.1; fill:none" points="2288.63,1521.01 2288.63,47.2441 "/>
<polyline clip-path="url(#clip220)" style="stroke:#000000; stroke-linecap:round; stroke-linejoin:round; stroke-width:4; stroke-opacity:1; fill:none" points="86.9921,1521.01 2352.76,1521.01 "/>
<polyline clip-path="url(#clip220)" style="stroke:#000000; stroke-linecap:round; stroke-linejoin:round; stroke-width:4; stroke-opacity:1; fill:none" points="107.495,1521.01 107.495,1502.11 "/>
<polyline clip-path="url(#clip220)" style="stroke:#000000; stroke-linecap:round; stroke-linejoin:round; stroke-width:4; stroke-opacity:1; fill:none" points="543.722,1521.01 543.722,1502.11 "/>
<polyline clip-path="url(#clip220)" style="stroke:#000000; stroke-linecap:round; stroke-linejoin:round; stroke-width:4; stroke-opacity:1; fill:none" points="979.949,1521.01 979.949,1502.11 "/>
<polyline clip-path="url(#clip220)" style="stroke:#000000; stroke-linecap:round; stroke-linejoin:round; stroke-width:4; stroke-opacity:1; fill:none" points="1416.18,1521.01 1416.18,1502.11 "/>
<polyline clip-path="url(#clip220)" style="stroke:#000000; stroke-linecap:round; stroke-linejoin:round; stroke-width:4; stroke-opacity:1; fill:none" points="1852.4,1521.01 1852.4,1502.11 "/>
<polyline clip-path="url(#clip220)" style="stroke:#000000; stroke-linecap:round; stroke-linejoin:round; stroke-width:4; stroke-opacity:1; fill:none" points="2288.63,1521.01 2288.63,1502.11 "/>
<path clip-path="url(#clip220)" d="M107.495 1551.93 Q103.884 1551.93 102.055 1555.49 Q100.249 1559.03 100.249 1566.16 Q100.249 1573.27 102.055 1576.83 Q103.884 1580.38 107.495 1580.38 Q111.129 1580.38 112.935 1576.83 Q114.763 1573.27 114.763 1566.16 Q114.763 1559.03 112.935 1555.49 Q111.129 1551.93 107.495 1551.93 M107.495 1548.22 Q113.305 1548.22 116.36 1552.83 Q119.439 1557.41 119.439 1566.16 Q119.439 1574.89 116.36 1579.5 Q113.305 1584.08 107.495 1584.08 Q101.685 1584.08 98.606 1579.5 Q95.5504 1574.89 95.5504 1566.16 Q95.5504 1557.41 98.606 1552.83 Q101.685 1548.22 107.495 1548.22 Z" fill="#000000" fill-rule="nonzero" fill-opacity="1" /><path clip-path="url(#clip220)" d="M518.41 1579.47 L526.048 1579.47 L526.048 1553.11 L517.738 1554.77 L517.738 1550.51 L526.002 1548.85 L530.678 1548.85 L530.678 1579.47 L538.317 1579.47 L538.317 1583.41 L518.41 1583.41 L518.41 1579.47 Z" fill="#000000" fill-rule="nonzero" fill-opacity="1" /><path clip-path="url(#clip220)" d="M557.761 1551.93 Q554.15 1551.93 552.321 1555.49 Q550.516 1559.03 550.516 1566.16 Q550.516 1573.27 552.321 1576.83 Q554.15 1580.38 557.761 1580.38 Q561.395 1580.38 563.201 1576.83 Q565.03 1573.27 565.03 1566.16 Q565.03 1559.03 563.201 1555.49 Q561.395 1551.93 557.761 1551.93 M557.761 1548.22 Q563.571 1548.22 566.627 1552.83 Q569.706 1557.41 569.706 1566.16 Q569.706 1574.89 566.627 1579.5 Q563.571 1584.08 557.761 1584.08 Q551.951 1584.08 548.872 1579.5 Q545.817 1574.89 545.817 1566.16 Q545.817 1557.41 548.872 1552.83 Q551.951 1548.22 557.761 1548.22 Z" fill="#000000" fill-rule="nonzero" fill-opacity="1" /><path clip-path="url(#clip220)" d="M958.722 1579.47 L975.042 1579.47 L975.042 1583.41 L953.097 1583.41 L953.097 1579.47 Q955.759 1576.72 960.343 1572.09 Q964.949 1567.44 966.13 1566.09 Q968.375 1563.57 969.255 1561.83 Q970.157 1560.07 970.157 1558.38 Q970.157 1555.63 968.213 1553.89 Q966.292 1552.16 963.19 1552.16 Q960.991 1552.16 958.537 1552.92 Q956.107 1553.69 953.329 1555.24 L953.329 1550.51 Q956.153 1549.38 958.607 1548.8 Q961.06 1548.22 963.097 1548.22 Q968.468 1548.22 971.662 1550.91 Q974.857 1553.59 974.857 1558.08 Q974.857 1560.21 974.046 1562.13 Q973.259 1564.03 971.153 1566.63 Q970.574 1567.3 967.472 1570.51 Q964.37 1573.71 958.722 1579.47 Z" fill="#000000" fill-rule="nonzero" fill-opacity="1" /><path clip-path="url(#clip220)" d="M994.856 1551.93 Q991.245 1551.93 989.417 1555.49 Q987.611 1559.03 987.611 1566.16 Q987.611 1573.27 989.417 1576.83 Q991.245 1580.38 994.856 1580.38 Q998.491 1580.38 1000.3 1576.83 Q1002.12 1573.27 1002.12 1566.16 Q1002.12 1559.03 1000.3 1555.49 Q998.491 1551.93 994.856 1551.93 M994.856 1548.22 Q1000.67 1548.22 1003.72 1552.83 Q1006.8 1557.41 1006.8 1566.16 Q1006.8 1574.89 1003.72 1579.5 Q1000.67 1584.08 994.856 1584.08 Q989.046 1584.08 985.968 1579.5 Q982.912 1574.89 982.912 1566.16 Q982.912 1557.41 985.968 1552.83 Q989.046 1548.22 994.856 1548.22 Z" fill="#000000" fill-rule="nonzero" fill-opacity="1" /><path clip-path="url(#clip220)" d="M1405.02 1564.77 Q1408.38 1565.49 1410.25 1567.76 Q1412.15 1570.03 1412.15 1573.36 Q1412.15 1578.48 1408.63 1581.28 Q1405.11 1584.08 1398.63 1584.08 Q1396.45 1584.08 1394.14 1583.64 Q1391.85 1583.22 1389.39 1582.37 L1389.39 1577.85 Q1391.34 1578.99 1393.65 1579.57 Q1395.97 1580.14 1398.49 1580.14 Q1402.89 1580.14 1405.18 1578.41 Q1407.5 1576.67 1407.5 1573.36 Q1407.5 1570.31 1405.34 1568.59 Q1403.21 1566.86 1399.39 1566.86 L1395.37 1566.86 L1395.37 1563.01 L1399.58 1563.01 Q1403.03 1563.01 1404.86 1561.65 Q1406.69 1560.26 1406.69 1557.67 Q1406.69 1555.01 1404.79 1553.59 Q1402.91 1552.16 1399.39 1552.16 Q1397.47 1552.16 1395.27 1552.57 Q1393.07 1552.99 1390.44 1553.87 L1390.44 1549.7 Q1393.1 1548.96 1395.41 1548.59 Q1397.75 1548.22 1399.81 1548.22 Q1405.13 1548.22 1408.24 1550.65 Q1411.34 1553.06 1411.34 1557.18 Q1411.34 1560.05 1409.69 1562.04 Q1408.05 1564.01 1405.02 1564.77 Z" fill="#000000" fill-rule="nonzero" fill-opacity="1" /><path clip-path="url(#clip220)" d="M1431.01 1551.93 Q1427.4 1551.93 1425.57 1555.49 Q1423.77 1559.03 1423.77 1566.16 Q1423.77 1573.27 1425.57 1576.83 Q1427.4 1580.38 1431.01 1580.38 Q1434.65 1580.38 1436.45 1576.83 Q1438.28 1573.27 1438.28 1566.16 Q1438.28 1559.03 1436.45 1555.49 Q1434.65 1551.93 1431.01 1551.93 M1431.01 1548.22 Q1436.82 1548.22 1439.88 1552.83 Q1442.96 1557.41 1442.96 1566.16 Q1442.96 1574.89 1439.88 1579.5 Q1436.82 1584.08 1431.01 1584.08 Q1425.2 1584.08 1422.13 1579.5 Q1419.07 1574.89 1419.07 1566.16 Q1419.07 1557.41 1422.13 1552.83 Q1425.2 1548.22 1431.01 1548.22 Z" fill="#000000" fill-rule="nonzero" fill-opacity="1" /><path clip-path="url(#clip220)" d="M1840.57 1552.92 L1828.77 1571.37 L1840.57 1571.37 L1840.57 1552.92 M1839.35 1548.85 L1845.23 1548.85 L1845.23 1571.37 L1850.16 1571.37 L1850.16 1575.26 L1845.23 1575.26 L1845.23 1583.41 L1840.57 1583.41 L1840.57 1575.26 L1824.97 1575.26 L1824.97 1570.75 L1839.35 1548.85 Z" fill="#000000" fill-rule="nonzero" fill-opacity="1" /><path clip-path="url(#clip220)" d="M1867.89 1551.93 Q1864.28 1551.93 1862.45 1555.49 Q1860.64 1559.03 1860.64 1566.16 Q1860.64 1573.27 1862.45 1576.83 Q1864.28 1580.38 1867.89 1580.38 Q1871.52 1580.38 1873.33 1576.83 Q1875.16 1573.27 1875.16 1566.16 Q1875.16 1559.03 1873.33 1555.49 Q1871.52 1551.93 1867.89 1551.93 M1867.89 1548.22 Q1873.7 1548.22 1876.76 1552.83 Q1879.83 1557.41 1879.83 1566.16 Q1879.83 1574.89 1876.76 1579.5 Q1873.7 1584.08 1867.89 1584.08 Q1862.08 1584.08 1859 1579.5 Q1855.95 1574.89 1855.95 1566.16 Q1855.95 1557.41 1859 1552.83 Q1862.08 1548.22 1867.89 1548.22 Z" fill="#000000" fill-rule="nonzero" fill-opacity="1" /><path clip-path="url(#clip220)" d="M2263.33 1548.85 L2281.69 1548.85 L2281.69 1552.78 L2267.61 1552.78 L2267.61 1561.26 Q2268.63 1560.91 2269.65 1560.75 Q2270.67 1560.56 2271.69 1560.56 Q2277.47 1560.56 2280.85 1563.73 Q2284.23 1566.9 2284.23 1572.32 Q2284.23 1577.9 2280.76 1581 Q2277.29 1584.08 2270.97 1584.08 Q2268.79 1584.08 2266.52 1583.71 Q2264.28 1583.34 2261.87 1582.6 L2261.87 1577.9 Q2263.95 1579.03 2266.18 1579.59 Q2268.4 1580.14 2270.88 1580.14 Q2274.88 1580.14 2277.22 1578.04 Q2279.56 1575.93 2279.56 1572.32 Q2279.56 1568.71 2277.22 1566.6 Q2274.88 1564.5 2270.88 1564.5 Q2269 1564.5 2267.13 1564.91 Q2265.27 1565.33 2263.33 1566.21 L2263.33 1548.85 Z" fill="#000000" fill-rule="nonzero" fill-opacity="1" /><path clip-path="url(#clip220)" d="M2303.45 1551.93 Q2299.83 1551.93 2298.01 1555.49 Q2296.2 1559.03 2296.2 1566.16 Q2296.2 1573.27 2298.01 1576.83 Q2299.83 1580.38 2303.45 1580.38 Q2307.08 1580.38 2308.89 1576.83 Q2310.71 1573.27 2310.71 1566.16 Q2310.71 1559.03 2308.89 1555.49 Q2307.08 1551.93 2303.45 1551.93 M2303.45 1548.22 Q2309.26 1548.22 2312.31 1552.83 Q2315.39 1557.41 2315.39 1566.16 Q2315.39 1574.89 2312.31 1579.5 Q2309.26 1584.08 2303.45 1584.08 Q2297.64 1584.08 2294.56 1579.5 Q2291.5 1574.89 2291.5 1566.16 Q2291.5 1557.41 2294.56 1552.83 Q2297.64 1548.22 2303.45 1548.22 Z" fill="#000000" fill-rule="nonzero" fill-opacity="1" /><polyline clip-path="url(#clip222)" style="stroke:#000000; stroke-linecap:round; stroke-linejoin:round; stroke-width:2; stroke-opacity:0.1; fill:none" points="86.9921,1370.54 2352.76,1370.54 "/>
<polyline clip-path="url(#clip222)" style="stroke:#000000; stroke-linecap:round; stroke-linejoin:round; stroke-width:2; stroke-opacity:0.1; fill:none" points="86.9921,1185.99 2352.76,1185.99 "/>
<polyline clip-path="url(#clip222)" style="stroke:#000000; stroke-linecap:round; stroke-linejoin:round; stroke-width:2; stroke-opacity:0.1; fill:none" points="86.9921,1001.43 2352.76,1001.43 "/>
<polyline clip-path="url(#clip222)" style="stroke:#000000; stroke-linecap:round; stroke-linejoin:round; stroke-width:2; stroke-opacity:0.1; fill:none" points="86.9921,816.881 2352.76,816.881 "/>
<polyline clip-path="url(#clip222)" style="stroke:#000000; stroke-linecap:round; stroke-linejoin:round; stroke-width:2; stroke-opacity:0.1; fill:none" points="86.9921,632.328 2352.76,632.328 "/>
<polyline clip-path="url(#clip222)" style="stroke:#000000; stroke-linecap:round; stroke-linejoin:round; stroke-width:2; stroke-opacity:0.1; fill:none" points="86.9921,447.775 2352.76,447.775 "/>
<polyline clip-path="url(#clip222)" style="stroke:#000000; stroke-linecap:round; stroke-linejoin:round; stroke-width:2; stroke-opacity:0.1; fill:none" points="86.9921,263.222 2352.76,263.222 "/>
<polyline clip-path="url(#clip222)" style="stroke:#000000; stroke-linecap:round; stroke-linejoin:round; stroke-width:2; stroke-opacity:0.1; fill:none" points="86.9921,78.6696 2352.76,78.6696 "/>
<polyline clip-path="url(#clip220)" style="stroke:#000000; stroke-linecap:round; stroke-linejoin:round; stroke-width:4; stroke-opacity:1; fill:none" points="86.9921,1521.01 86.9921,47.2441 "/>
<polyline clip-path="url(#clip220)" style="stroke:#000000; stroke-linecap:round; stroke-linejoin:round; stroke-width:4; stroke-opacity:1; fill:none" points="86.9921,1370.54 105.89,1370.54 "/>
<polyline clip-path="url(#clip220)" style="stroke:#000000; stroke-linecap:round; stroke-linejoin:round; stroke-width:4; stroke-opacity:1; fill:none" points="86.9921,1185.99 105.89,1185.99 "/>
<polyline clip-path="url(#clip220)" style="stroke:#000000; stroke-linecap:round; stroke-linejoin:round; stroke-width:4; stroke-opacity:1; fill:none" points="86.9921,1001.43 105.89,1001.43 "/>
<polyline clip-path="url(#clip220)" style="stroke:#000000; stroke-linecap:round; stroke-linejoin:round; stroke-width:4; stroke-opacity:1; fill:none" points="86.9921,816.881 105.89,816.881 "/>
<polyline clip-path="url(#clip220)" style="stroke:#000000; stroke-linecap:round; stroke-linejoin:round; stroke-width:4; stroke-opacity:1; fill:none" points="86.9921,632.328 105.89,632.328 "/>
<polyline clip-path="url(#clip220)" style="stroke:#000000; stroke-linecap:round; stroke-linejoin:round; stroke-width:4; stroke-opacity:1; fill:none" points="86.9921,447.775 105.89,447.775 "/>
<polyline clip-path="url(#clip220)" style="stroke:#000000; stroke-linecap:round; stroke-linejoin:round; stroke-width:4; stroke-opacity:1; fill:none" points="86.9921,263.222 105.89,263.222 "/>
<polyline clip-path="url(#clip220)" style="stroke:#000000; stroke-linecap:round; stroke-linejoin:round; stroke-width:4; stroke-opacity:1; fill:none" points="86.9921,78.6696 105.89,78.6696 "/>
<path clip-path="url(#clip220)" d="M11.8662 1367.53 L30.3152 1379.34 L30.3152 1367.53 L11.8662 1367.53 M7.79213 1368.76 L7.79213 1362.88 L30.3152 1362.88 L30.3152 1357.95 L34.204 1357.95 L34.204 1362.88 L42.3521 1362.88 L42.3521 1367.53 L34.204 1367.53 L34.204 1383.13 L29.6902 1383.13 L7.79213 1368.76 Z" fill="#000000" fill-rule="nonzero" fill-opacity="1" /><path clip-path="url(#clip220)" d="M23.2087 1185.58 Q23.2087 1188.73 25.3615 1190.58 Q27.5142 1192.41 31.2642 1192.41 Q34.9911 1192.41 37.167 1190.58 Q39.3197 1188.73 39.3197 1185.58 Q39.3197 1182.43 37.167 1180.6 Q34.9911 1178.75 31.2642 1178.75 Q27.5142 1178.75 25.3615 1180.6 Q23.2087 1182.43 23.2087 1185.58 M8.55601 1176.3 L12.8152 1176.3 Q11.9819 1178.06 11.5421 1179.86 Q11.1023 1181.65 11.1023 1183.41 Q11.1023 1188.03 14.2273 1190.49 Q17.3523 1192.92 23.6717 1193.27 Q21.6578 1191.9 20.593 1189.84 Q19.505 1187.78 19.505 1185.3 Q19.505 1180.1 22.6763 1177.09 Q25.8244 1174.05 31.2642 1174.05 Q36.5883 1174.05 39.8058 1177.2 Q43.0234 1180.35 43.0234 1185.58 Q43.0234 1191.58 38.4401 1194.75 Q33.8337 1197.92 25.1068 1197.92 Q16.9124 1197.92 12.0514 1194.03 Q7.16713 1190.14 7.16713 1183.59 Q7.16713 1181.83 7.51435 1180.05 Q7.86157 1178.24 8.55601 1176.3 Z" fill="#000000" fill-rule="nonzero" fill-opacity="1" /><path clip-path="url(#clip220)" d="M25.9402 1001.43 Q25.9402 1004.77 27.7226 1006.69 Q29.505 1008.59 32.63 1008.59 Q35.7549 1008.59 37.5373 1006.69 Q39.3197 1004.77 39.3197 1001.43 Q39.3197 998.1 37.5373 996.179 Q35.7318 994.258 32.63 994.258 Q29.505 994.258 27.7226 996.179 Q25.9402 998.077 25.9402 1001.43 M23.9494 1006.11 Q23.2087 1009.12 21.1485 1010.81 Q19.0884 1012.48 16.1254 1012.48 Q11.9819 1012.48 9.57452 1009.54 Q7.16713 1006.57 7.16713 1001.43 Q7.16713 996.271 9.57452 993.332 Q11.9819 990.392 16.1254 990.392 Q19.0884 990.392 21.1485 992.082 Q23.2087 993.748 23.9494 996.734 Q24.7365 993.355 27.0281 991.48 Q29.3198 989.582 32.63 989.582 Q37.6531 989.582 40.3382 992.66 Q43.0234 995.716 43.0234 1001.43 Q43.0234 1007.15 40.3382 1010.23 Q37.6531 1013.29 32.63 1013.29 Q29.3198 1013.29 27.0281 1011.39 Q24.7365 1009.49 23.9494 1006.11 M16.5652 1007.82 Q19.2504 1007.82 20.755 1006.16 Q22.2596 1004.47 22.2596 1001.43 Q22.2596 998.424 20.755 996.734 Q19.2504 995.021 16.5652 995.021 Q13.8801 995.021 12.3754 996.734 Q10.8708 998.424 10.8708 1001.43 Q10.8708 1004.47 12.3754 1006.16 Q13.8801 1007.82 16.5652 1007.82 Z" fill="#000000" fill-rule="nonzero" fill-opacity="1" /><path clip-path="url(#clip220)" d="M38.417 842.193 L38.417 834.554 L12.0514 834.554 L13.718 842.864 L9.45878 842.864 L7.79213 834.601 L7.79213 829.925 L38.417 829.925 L38.417 822.286 L42.3521 822.286 L42.3521 842.193 L38.417 842.193 Z" fill="#000000" fill-rule="nonzero" fill-opacity="1" /><path clip-path="url(#clip220)" d="M10.8708 802.841 Q10.8708 806.453 14.4356 808.281 Q17.9773 810.087 25.1068 810.087 Q32.2133 810.087 35.7781 808.281 Q39.3197 806.453 39.3197 802.841 Q39.3197 799.207 35.7781 797.402 Q32.2133 795.573 25.1068 795.573 Q17.9773 795.573 14.4356 797.402 Q10.8708 799.207 10.8708 802.841 M7.16713 802.841 Q7.16713 797.031 11.7736 793.976 Q16.3569 790.897 25.1068 790.897 Q33.8337 790.897 38.4401 793.976 Q43.0234 797.031 43.0234 802.841 Q43.0234 808.652 38.4401 811.73 Q33.8337 814.786 25.1068 814.786 Q16.3569 814.786 11.7736 811.73 Q7.16713 808.652 7.16713 802.841 Z" fill="#000000" fill-rule="nonzero" fill-opacity="1" /><path clip-path="url(#clip220)" d="M38.417 656.842 L38.417 649.203 L12.0514 649.203 L13.718 657.513 L9.45878 657.513 L7.79213 649.249 L7.79213 644.573 L38.417 644.573 L38.417 636.934 L42.3521 636.934 L42.3521 656.842 L38.417 656.842 Z" fill="#000000" fill-rule="nonzero" fill-opacity="1" /><path clip-path="url(#clip220)" d="M38.417 623.462 L38.417 607.143 L42.3521 607.143 L42.3521 629.087 L38.417 629.087 Q35.6623 626.425 31.0327 621.842 Q26.38 617.235 25.0374 616.055 Q22.5143 613.81 20.7782 612.93 Q19.0189 612.027 17.3291 612.027 Q14.5745 612.027 12.8384 613.972 Q11.1023 615.893 11.1023 618.995 Q11.1023 621.194 11.8662 623.647 Q12.6301 626.078 14.181 628.856 L9.45878 628.856 Q8.32453 626.032 7.74583 623.578 Q7.16713 621.124 7.16713 619.087 Q7.16713 613.717 9.8523 610.522 Q12.5375 607.328 17.0282 607.328 Q19.1578 607.328 21.0791 608.138 Q22.9772 608.925 25.5698 611.032 Q26.2411 611.61 29.4587 614.712 Q32.6531 617.814 38.417 623.462 Z" fill="#000000" fill-rule="nonzero" fill-opacity="1" /><path clip-path="url(#clip220)" d="M38.417 473.331 L38.417 465.692 L12.0514 465.692 L13.718 474.002 L9.45878 474.002 L7.79213 465.738 L7.79213 461.062 L38.417 461.062 L38.417 453.423 L42.3521 453.423 L42.3521 473.331 L38.417 473.331 Z" fill="#000000" fill-rule="nonzero" fill-opacity="1" /><path clip-path="url(#clip220)" d="M11.8662 431.132 L30.3152 442.937 L30.3152 431.132 L11.8662 431.132 M7.79213 432.359 L7.79213 426.479 L30.3152 426.479 L30.3152 421.548 L34.204 421.548 L34.204 426.479 L42.3521 426.479 L42.3521 431.132 L34.204 431.132 L34.204 446.733 L29.6902 446.733 L7.79213 432.359 Z" fill="#000000" fill-rule="nonzero" fill-opacity="1" /><path clip-path="url(#clip220)" d="M38.417 288.616 L38.417 280.977 L12.0514 280.977 L13.718 289.287 L9.45878 289.287 L7.79213 281.023 L7.79213 276.347 L38.417 276.347 L38.417 268.708 L42.3521 268.708 L42.3521 288.616 L38.417 288.616 Z" fill="#000000" fill-rule="nonzero" fill-opacity="1" /><path clip-path="url(#clip220)" d="M23.2087 248.685 Q23.2087 251.834 25.3615 253.685 Q27.5142 255.514 31.2642 255.514 Q34.9911 255.514 37.167 253.685 Q39.3197 251.834 39.3197 248.685 Q39.3197 245.537 37.167 243.709 Q34.9911 241.857 31.2642 241.857 Q27.5142 241.857 25.3615 243.709 Q23.2087 245.537 23.2087 248.685 M8.55601 239.403 L12.8152 239.403 Q11.9819 241.162 11.5421 242.968 Q11.1023 244.75 11.1023 246.51 Q11.1023 251.139 14.2273 253.593 Q17.3523 256.023 23.6717 256.371 Q21.6578 255.005 20.593 252.945 Q19.505 250.884 19.505 248.408 Q19.505 243.199 22.6763 240.19 Q25.8244 237.158 31.2642 237.158 Q36.5883 237.158 39.8058 240.306 Q43.0234 243.454 43.0234 248.685 Q43.0234 254.681 38.4401 257.852 Q33.8337 261.023 25.1068 261.023 Q16.9124 261.023 12.0514 257.134 Q7.16713 253.246 7.16713 246.695 Q7.16713 244.935 7.51435 243.153 Q7.86157 241.348 8.55601 239.403 Z" fill="#000000" fill-rule="nonzero" fill-opacity="1" /><path clip-path="url(#clip220)" d="M38.417 103.936 L38.417 96.2968 L12.0514 96.2968 L13.718 104.607 L9.45878 104.607 L7.79213 96.3431 L7.79213 91.6672 L38.417 91.6672 L38.417 84.0284 L42.3521 84.0284 L42.3521 103.936 L38.417 103.936 Z" fill="#000000" fill-rule="nonzero" fill-opacity="1" /><path clip-path="url(#clip220)" d="M25.9402 64.584 Q25.9402 67.9174 27.7226 69.8386 Q29.505 71.7368 32.63 71.7368 Q35.7549 71.7368 37.5373 69.8386 Q39.3197 67.9174 39.3197 64.584 Q39.3197 61.2507 37.5373 59.3294 Q35.7318 57.4082 32.63 57.4082 Q29.505 57.4082 27.7226 59.3294 Q25.9402 61.2276 25.9402 64.584 M23.9494 69.2599 Q23.2087 72.2692 21.1485 73.959 Q19.0884 75.6257 16.1254 75.6257 Q11.9819 75.6257 9.57452 72.6859 Q7.16713 69.7229 7.16713 64.584 Q7.16713 59.422 9.57452 56.4822 Q11.9819 53.5424 16.1254 53.5424 Q19.0884 53.5424 21.1485 55.2322 Q23.2087 56.8989 23.9494 59.885 Q24.7365 56.5054 27.0281 54.6304 Q29.3198 52.7323 32.63 52.7323 Q37.6531 52.7323 40.3382 55.8109 Q43.0234 58.8665 43.0234 64.584 Q43.0234 70.3016 40.3382 73.3803 Q37.6531 76.4358 32.63 76.4358 Q29.3198 76.4358 27.0281 74.5377 Q24.7365 72.6396 23.9494 69.2599 M16.5652 70.9729 Q19.2504 70.9729 20.755 69.3062 Q22.2596 67.6164 22.2596 64.584 Q22.2596 61.5748 20.755 59.885 Q19.2504 58.172 16.5652 58.172 Q13.8801 58.172 12.3754 59.885 Q10.8708 61.5748 10.8708 64.584 Q10.8708 67.6164 12.3754 69.3062 Q13.8801 70.9729 16.5652 70.9729 Z" fill="#000000" fill-rule="nonzero" fill-opacity="1" /><polyline clip-path="url(#clip222)" style="stroke:#009af9; stroke-linecap:round; stroke-linejoin:round; stroke-width:4; stroke-opacity:1; fill:none" points="151.118,88.9544 194.74,509.293 238.363,715.93 281.986,844.432 325.608,934.19 369.231,1001.43 412.854,1054.23 456.477,1097.11 500.099,1132.84 543.722,1163.2 587.345,1189.41 630.967,1212.35 674.59,1232.64 718.213,1250.75 761.836,1267.05 805.458,1281.83 849.081,1295.29 892.704,1307.64 936.326,1319.01 979.949,1329.53 1023.57,1339.29 1067.19,1348.39 1110.82,1356.9 1154.44,1364.87 1198.06,1372.37 1241.69,1379.43 1285.31,1386.11 1328.93,1392.42 1372.55,1398.41 1416.18,1404.09 1459.8,1409.51 1503.42,1414.67 1547.04,1419.59 1590.67,1424.3 1634.29,1428.8 1677.91,1433.12 1721.54,1437.26 1765.16,1441.24 1808.78,1445.07 1852.4,1448.75 1896.03,1452.3 1939.65,1455.72 1983.27,1459.02 2026.89,1462.21 2070.52,1465.29 2114.14,1468.27 2157.76,1471.16 2201.39,1473.96 2245.01,1476.67 2288.63,1479.3 "/>
<path clip-path="url(#clip220)" d="M1942.58 200.05 L2277.23 200.05 L2277.23 96.3696 L1942.58 96.3696  Z" fill="#ffffff" fill-rule="evenodd" fill-opacity="1"/>
<polyline clip-path="url(#clip220)" style="stroke:#000000; stroke-linecap:round; stroke-linejoin:round; stroke-width:4; stroke-opacity:1; fill:none" points="1942.58,200.05 2277.23,200.05 2277.23,96.3696 1942.58,96.3696 1942.58,200.05 "/>
<polyline clip-path="url(#clip220)" style="stroke:#009af9; stroke-linecap:round; stroke-linejoin:round; stroke-width:4; stroke-opacity:1; fill:none" points="1967.75,148.21 2118.8,148.21 "/>
<path clip-path="url(#clip220)" d="M2158.84 160.767 Q2159.67 161.878 2162.17 161.878 L2164.23 161.878 L2164.23 165.49 L2161.66 165.49 Q2157.5 165.49 2155.6 163.267 Q2153.7 160.999 2153.7 156.091 L2153.7 143.823 L2143.98 143.823 L2143.98 139.564 L2167.89 139.564 L2167.89 143.823 L2158.05 143.823 L2158.05 156.346 Q2158.05 159.703 2158.84 160.767 Z" fill="#000000" fill-rule="nonzero" fill-opacity="1" /><path clip-path="url(#clip220)" d="M2186.59 156.716 L2186.59 165.49 L2183.91 165.49 L2183.91 156.809 Q2183.91 154.749 2183 153.73 Q2182.1 152.689 2180.3 152.689 Q2178.12 152.689 2176.87 153.939 Q2175.62 155.166 2175.62 157.295 L2175.62 165.49 L2172.91 165.49 L2172.91 150.976 L2175.62 150.976 L2175.62 153.221 Q2176.57 151.925 2177.87 151.277 Q2179.19 150.629 2180.9 150.629 Q2183.7 150.629 2185.13 152.179 Q2186.59 153.73 2186.59 156.716 Z" fill="#000000" fill-rule="nonzero" fill-opacity="1" /><path clip-path="url(#clip220)" d="M2203.79 129.518 Q2200.69 134.842 2199.19 140.05 Q2197.68 145.258 2197.68 150.605 Q2197.68 155.953 2199.19 161.207 Q2200.71 166.439 2203.79 171.74 L2200.09 171.74 Q2196.62 166.3 2194.88 161.045 Q2193.17 155.791 2193.17 150.605 Q2193.17 145.443 2194.88 140.212 Q2196.59 134.98 2200.09 129.518 L2203.79 129.518 Z" fill="#000000" fill-rule="nonzero" fill-opacity="1" /><path clip-path="url(#clip220)" d="M2233.61 149.841 L2233.61 165.49 L2229.35 165.49 L2229.35 149.98 Q2229.35 146.3 2227.91 144.471 Q2226.48 142.642 2223.61 142.642 Q2220.16 142.642 2218.17 144.842 Q2216.18 147.041 2216.18 150.837 L2216.18 165.49 L2211.89 165.49 L2211.89 139.564 L2216.18 139.564 L2216.18 143.592 Q2217.7 141.254 2219.76 140.096 Q2221.85 138.939 2224.56 138.939 Q2229.02 138.939 2231.31 141.717 Q2233.61 144.471 2233.61 149.841 Z" fill="#000000" fill-rule="nonzero" fill-opacity="1" /><path clip-path="url(#clip220)" d="M2241.43 129.518 L2245.13 129.518 Q2248.61 134.98 2250.32 140.212 Q2252.06 145.443 2252.06 150.605 Q2252.06 155.791 2250.32 161.045 Q2248.61 166.3 2245.13 171.74 L2241.43 171.74 Q2244.51 166.439 2246.01 161.207 Q2247.54 155.953 2247.54 150.605 Q2247.54 145.258 2246.01 140.05 Q2244.51 134.842 2241.43 129.518 Z" fill="#000000" fill-rule="nonzero" fill-opacity="1" /></svg>
