<?xml version="1.0" encoding="utf-8"?>
<svg xmlns="http://www.w3.org/2000/svg" xmlns:xlink="http://www.w3.org/1999/xlink" width="600" height="400" viewBox="0 0 2400 1600">
<defs>
  <clipPath id="clip690">
    <rect x="0" y="0" width="2400" height="1600"/>
  </clipPath>
</defs>
<path clip-path="url(#clip690)" d="M0 1600 L2400 1600 L2400 0 L0 0  Z" fill="#ffffff" fill-rule="evenodd" fill-opacity="1"/>
<defs>
  <clipPath id="clip691">
    <rect x="480" y="0" width="1681" height="1600"/>
  </clipPath>
</defs>
<path clip-path="url(#clip690)" d="M86.9921 1521.01 L2352.76 1521.01 L2352.76 47.2441 L86.9921 47.2441  Z" fill="#ffffff" fill-rule="evenodd" fill-opacity="1"/>
<defs>
  <clipPath id="clip692">
    <rect x="86" y="47" width="2267" height="1475"/>
  </clipPath>
</defs>
<polyline clip-path="url(#clip692)" style="stroke:#000000; stroke-linecap:round; stroke-linejoin:round; stroke-width:2; stroke-opacity:0.1; fill:none" points="148.978,1521.01 148.978,47.2441 "/>
<polyline clip-path="url(#clip692)" style="stroke:#000000; stroke-linecap:round; stroke-linejoin:round; stroke-width:2; stroke-opacity:0.1; fill:none" points="683.891,1521.01 683.891,47.2441 "/>
<polyline clip-path="url(#clip692)" style="stroke:#000000; stroke-linecap:round; stroke-linejoin:round; stroke-width:2; stroke-opacity:0.1; fill:none" points="1218.8,1521.01 1218.8,47.2441 "/>
<polyline clip-path="url(#clip692)" style="stroke:#000000; stroke-linecap:round; stroke-linejoin:round; stroke-width:2; stroke-opacity:0.1; fill:none" points="1753.72,1521.01 1753.72,47.2441 "/>
<polyline clip-path="url(#clip692)" style="stroke:#000000; stroke-linecap:round; stroke-linejoin:round; stroke-width:2; stroke-opacity:0.1; fill:none" points="2288.63,1521.01 2288.63,47.2441 "/>
<polyline clip-path="url(#clip690)" style="stroke:#000000; stroke-linecap:round; stroke-linejoin:round; stroke-width:4; stroke-opacity:1; fill:none" points="86.9921,1521.01 2352.76,1521.01 "/>
<polyline clip-path="url(#clip690)" style="stroke:#000000; stroke-linecap:round; stroke-linejoin:round; stroke-width:4; stroke-opacity:1; fill:none" points="148.978,1521.01 148.978,1502.11 "/>
<polyline clip-path="url(#clip690)" style="stroke:#000000; stroke-linecap:round; stroke-linejoin:round; stroke-width:4; stroke-opacity:1; fill:none" points="683.891,1521.01 683.891,1502.11 "/>
<polyline clip-path="url(#clip690)" style="stroke:#000000; stroke-linecap:round; stroke-linejoin:round; stroke-width:4; stroke-opacity:1; fill:none" points="1218.8,1521.01 1218.8,1502.11 "/>
<polyline clip-path="url(#clip690)" style="stroke:#000000; stroke-linecap:round; stroke-linejoin:round; stroke-width:4; stroke-opacity:1; fill:none" points="1753.72,1521.01 1753.72,1502.11 "/>
<polyline clip-path="url(#clip690)" style="stroke:#000000; stroke-linecap:round; stroke-linejoin:round; stroke-width:4; stroke-opacity:1; fill:none" points="2288.63,1521.01 2288.63,1502.11 "/>
<path clip-path="url(#clip690)" d="M148.978 1551.93 Q145.367 1551.93 143.538 1555.49 Q141.733 1559.03 141.733 1566.16 Q141.733 1573.27 143.538 1576.83 Q145.367 1580.38 148.978 1580.38 Q152.612 1580.38 154.418 1576.83 Q156.246 1573.27 156.246 1566.16 Q156.246 1559.03 154.418 1555.49 Q152.612 1551.93 148.978 1551.93 M148.978 1548.22 Q154.788 1548.22 157.844 1552.83 Q160.922 1557.41 160.922 1566.16 Q160.922 1574.89 157.844 1579.5 Q154.788 1584.08 148.978 1584.08 Q143.168 1584.08 140.089 1579.5 Q137.033 1574.89 137.033 1566.16 Q137.033 1557.41 140.089 1552.83 Q143.168 1548.22 148.978 1548.22 Z" fill="#000000" fill-rule="nonzero" fill-opacity="1" /><path clip-path="url(#clip690)" d="M647.583 1579.47 L663.903 1579.47 L663.903 1583.41 L641.958 1583.41 L641.958 1579.47 Q644.62 1576.72 649.204 1572.09 Q653.81 1567.44 654.991 1566.09 Q657.236 1563.57 658.116 1561.83 Q659.018 1560.07 659.018 1558.38 Q659.018 1555.63 657.074 1553.89 Q655.153 1552.16 652.051 1552.16 Q649.852 1552.16 647.398 1552.92 Q644.968 1553.69 642.19 1555.24 L642.19 1550.51 Q645.014 1549.38 647.468 1548.8 Q649.921 1548.22 651.958 1548.22 Q657.329 1548.22 660.523 1550.91 Q663.718 1553.59 663.718 1558.08 Q663.718 1560.21 662.907 1562.13 Q662.12 1564.03 660.014 1566.63 Q659.435 1567.3 656.333 1570.51 Q653.231 1573.71 647.583 1579.47 Z" fill="#000000" fill-rule="nonzero" fill-opacity="1" /><path clip-path="url(#clip690)" d="M673.764 1548.85 L692.12 1548.85 L692.12 1552.78 L678.046 1552.78 L678.046 1561.26 Q679.065 1560.91 680.083 1560.75 Q681.102 1560.56 682.12 1560.56 Q687.907 1560.56 691.287 1563.73 Q694.666 1566.9 694.666 1572.32 Q694.666 1577.9 691.194 1581 Q687.722 1584.08 681.403 1584.08 Q679.227 1584.08 676.958 1583.71 Q674.713 1583.34 672.305 1582.6 L672.305 1577.9 Q674.389 1579.03 676.611 1579.59 Q678.833 1580.14 681.31 1580.14 Q685.315 1580.14 687.653 1578.04 Q689.991 1575.93 689.991 1572.32 Q689.991 1568.71 687.653 1566.6 Q685.315 1564.5 681.31 1564.5 Q679.435 1564.5 677.56 1564.91 Q675.708 1565.33 673.764 1566.21 L673.764 1548.85 Z" fill="#000000" fill-rule="nonzero" fill-opacity="1" /><path clip-path="url(#clip690)" d="M713.879 1551.93 Q710.268 1551.93 708.44 1555.49 Q706.634 1559.03 706.634 1566.16 Q706.634 1573.27 708.44 1576.83 Q710.268 1580.38 713.879 1580.38 Q717.514 1580.38 719.319 1576.83 Q721.148 1573.27 721.148 1566.16 Q721.148 1559.03 719.319 1555.49 Q717.514 1551.93 713.879 1551.93 M713.879 1548.22 Q719.689 1548.22 722.745 1552.83 Q725.824 1557.41 725.824 1566.16 Q725.824 1574.89 722.745 1579.5 Q719.689 1584.08 713.879 1584.08 Q708.069 1584.08 704.99 1579.5 Q701.935 1574.89 701.935 1566.16 Q701.935 1557.41 704.99 1552.83 Q708.069 1548.22 713.879 1548.22 Z" fill="#000000" fill-rule="nonzero" fill-opacity="1" /><path clip-path="url(#clip690)" d="M1178.42 1548.85 L1196.78 1548.85 L1196.78 1552.78 L1182.7 1552.78 L1182.7 1561.26 Q1183.72 1560.91 1184.74 1560.75 Q1185.76 1560.56 1186.78 1560.56 Q1192.57 1560.56 1195.95 1563.73 Q1199.33 1566.9 1199.33 1572.32 Q1199.33 1577.9 1195.85 1581 Q1192.38 1584.08 1186.06 1584.08 Q1183.89 1584.08 1181.62 1583.71 Q1179.37 1583.34 1176.96 1582.6 L1176.96 1577.9 Q1179.05 1579.03 1181.27 1579.59 Q1183.49 1580.14 1185.97 1580.14 Q1189.97 1580.14 1192.31 1578.04 Q1194.65 1575.93 1194.65 1572.32 Q1194.65 1568.71 1192.31 1566.6 Q1189.97 1564.5 1185.97 1564.5 Q1184.09 1564.5 1182.22 1564.91 Q1180.37 1565.33 1178.42 1566.21 L1178.42 1548.85 Z" fill="#000000" fill-rule="nonzero" fill-opacity="1" /><path clip-path="url(#clip690)" d="M1218.54 1551.93 Q1214.93 1551.93 1213.1 1555.49 Q1211.29 1559.03 1211.29 1566.16 Q1211.29 1573.27 1213.1 1576.83 Q1214.93 1580.38 1218.54 1580.38 Q1222.17 1580.38 1223.98 1576.83 Q1225.81 1573.27 1225.81 1566.16 Q1225.81 1559.03 1223.98 1555.49 Q1222.17 1551.93 1218.54 1551.93 M1218.54 1548.22 Q1224.35 1548.22 1227.4 1552.83 Q1230.48 1557.41 1230.48 1566.16 Q1230.48 1574.89 1227.4 1579.5 Q1224.35 1584.08 1218.54 1584.08 Q1212.73 1584.08 1209.65 1579.5 Q1206.59 1574.89 1206.59 1566.16 Q1206.59 1557.41 1209.65 1552.83 Q1212.73 1548.22 1218.54 1548.22 Z" fill="#000000" fill-rule="nonzero" fill-opacity="1" /><path clip-path="url(#clip690)" d="M1248.7 1551.93 Q1245.09 1551.93 1243.26 1555.49 Q1241.45 1559.03 1241.45 1566.16 Q1241.45 1573.27 1243.26 1576.83 Q1245.09 1580.38 1248.7 1580.38 Q1252.33 1580.38 1254.14 1576.83 Q1255.97 1573.27 1255.97 1566.16 Q1255.97 1559.03 1254.14 1555.49 Q1252.33 1551.93 1248.7 1551.93 M1248.7 1548.22 Q1254.51 1548.22 1257.57 1552.83 Q1260.64 1557.41 1260.64 1566.16 Q1260.64 1574.89 1257.57 1579.5 Q1254.51 1584.08 1248.7 1584.08 Q1242.89 1584.08 1239.81 1579.5 Q1236.76 1574.89 1236.76 1566.16 Q1236.76 1557.41 1239.81 1552.83 Q1242.89 1548.22 1248.7 1548.22 Z" fill="#000000" fill-rule="nonzero" fill-opacity="1" /><path clip-path="url(#clip690)" d="M1711.99 1548.85 L1734.22 1548.85 L1734.22 1550.84 L1721.67 1583.41 L1716.78 1583.41 L1728.59 1552.78 L1711.99 1552.78 L1711.99 1548.85 Z" fill="#000000" fill-rule="nonzero" fill-opacity="1" /><path clip-path="url(#clip690)" d="M1743.38 1548.85 L1761.74 1548.85 L1761.74 1552.78 L1747.66 1552.78 L1747.66 1561.26 Q1748.68 1560.91 1749.7 1560.75 Q1750.72 1560.56 1751.74 1560.56 Q1757.53 1560.56 1760.9 1563.73 Q1764.28 1566.9 1764.28 1572.32 Q1764.28 1577.9 1760.81 1581 Q1757.34 1584.08 1751.02 1584.08 Q1748.84 1584.08 1746.58 1583.71 Q1744.33 1583.34 1741.92 1582.6 L1741.92 1577.9 Q1744.01 1579.03 1746.23 1579.59 Q1748.45 1580.14 1750.93 1580.14 Q1754.93 1580.14 1757.27 1578.04 Q1759.61 1575.93 1759.61 1572.32 Q1759.61 1568.71 1757.27 1566.6 Q1754.93 1564.5 1750.93 1564.5 Q1749.05 1564.5 1747.18 1564.91 Q1745.33 1565.33 1743.38 1566.21 L1743.38 1548.85 Z" fill="#000000" fill-rule="nonzero" fill-opacity="1" /><path clip-path="url(#clip690)" d="M1783.5 1551.93 Q1779.89 1551.93 1778.06 1555.49 Q1776.25 1559.03 1776.25 1566.16 Q1776.25 1573.27 1778.06 1576.83 Q1779.89 1580.38 1783.5 1580.38 Q1787.13 1580.38 1788.94 1576.83 Q1790.77 1573.27 1790.77 1566.16 Q1790.77 1559.03 1788.94 1555.49 Q1787.13 1551.93 1783.5 1551.93 M1783.5 1548.22 Q1789.31 1548.22 1792.36 1552.83 Q1795.44 1557.41 1795.44 1566.16 Q1795.44 1574.89 1792.36 1579.5 Q1789.31 1584.08 1783.5 1584.08 Q1777.69 1584.08 1774.61 1579.5 Q1771.55 1574.89 1771.55 1566.16 Q1771.55 1557.41 1774.61 1552.83 Q1777.69 1548.22 1783.5 1548.22 Z" fill="#000000" fill-rule="nonzero" fill-opacity="1" /><path clip-path="url(#clip690)" d="M2233.16 1579.47 L2240.8 1579.47 L2240.8 1553.11 L2232.48 1554.77 L2232.48 1550.51 L2240.75 1548.85 L2245.42 1548.85 L2245.42 1579.47 L2253.06 1579.47 L2253.06 1583.41 L2233.16 1583.41 L2233.16 1579.47 Z" fill="#000000" fill-rule="nonzero" fill-opacity="1" /><path clip-path="url(#clip690)" d="M2272.51 1551.93 Q2268.9 1551.93 2267.07 1555.49 Q2265.26 1559.03 2265.26 1566.16 Q2265.26 1573.27 2267.07 1576.83 Q2268.9 1580.38 2272.51 1580.38 Q2276.14 1580.38 2277.95 1576.83 Q2279.78 1573.27 2279.78 1566.16 Q2279.78 1559.03 2277.95 1555.49 Q2276.14 1551.93 2272.51 1551.93 M2272.51 1548.22 Q2278.32 1548.22 2281.37 1552.83 Q2284.45 1557.41 2284.45 1566.16 Q2284.45 1574.89 2281.37 1579.5 Q2278.32 1584.08 2272.51 1584.08 Q2266.7 1584.08 2263.62 1579.5 Q2260.56 1574.89 2260.56 1566.16 Q2260.56 1557.41 2263.62 1552.83 Q2266.7 1548.22 2272.51 1548.22 Z" fill="#000000" fill-rule="nonzero" fill-opacity="1" /><path clip-path="url(#clip690)" d="M2302.67 1551.93 Q2299.06 1551.93 2297.23 1555.49 Q2295.42 1559.03 2295.42 1566.16 Q2295.42 1573.27 2297.23 1576.83 Q2299.06 1580.38 2302.67 1580.38 Q2306.3 1580.38 2308.11 1576.83 Q2309.94 1573.27 2309.94 1566.16 Q2309.94 1559.03 2308.11 1555.49 Q2306.3 1551.93 2302.67 1551.93 M2302.67 1548.22 Q2308.48 1548.22 2311.54 1552.83 Q2314.61 1557.41 2314.61 1566.16 Q2314.61 1574.89 2311.54 1579.5 Q2308.48 1584.08 2302.67 1584.08 Q2296.86 1584.08 2293.78 1579.5 Q2290.73 1574.89 2290.73 1566.16 Q2290.73 1557.41 2293.78 1552.83 Q2296.86 1548.22 2302.67 1548.22 Z" fill="#000000" fill-rule="nonzero" fill-opacity="1" /><path clip-path="url(#clip690)" d="M2332.83 1551.93 Q2329.22 1551.93 2327.39 1555.49 Q2325.59 1559.03 2325.59 1566.16 Q2325.59 1573.27 2327.39 1576.83 Q2329.22 1580.38 2332.83 1580.38 Q2336.47 1580.38 2338.27 1576.83 Q2340.1 1573.27 2340.1 1566.16 Q2340.1 1559.03 2338.27 1555.49 Q2336.47 1551.93 2332.83 1551.93 M2332.83 1548.22 Q2338.64 1548.22 2341.7 1552.83 Q2344.78 1557.41 2344.78 1566.16 Q2344.78 1574.89 2341.7 1579.5 Q2338.64 1584.08 2332.83 1584.08 Q2327.02 1584.08 2323.94 1579.5 Q2320.89 1574.89 2320.89 1566.16 Q2320.89 1557.41 2323.94 1552.83 Q2327.02 1548.22 2332.83 1548.22 Z" fill="#000000" fill-rule="nonzero" fill-opacity="1" /><polyline clip-path="url(#clip692)" style="stroke:#000000; stroke-linecap:round; stroke-linejoin:round; stroke-width:2; stroke-opacity:0.1; fill:none" points="86.9921,1479.3 2352.76,1479.3 "/>
<polyline clip-path="url(#clip692)" style="stroke:#000000; stroke-linecap:round; stroke-linejoin:round; stroke-width:2; stroke-opacity:0.1; fill:none" points="86.9921,1197.06 2352.76,1197.06 "/>
<polyline clip-path="url(#clip692)" style="stroke:#000000; stroke-linecap:round; stroke-linejoin:round; stroke-width:2; stroke-opacity:0.1; fill:none" points="86.9921,914.818 2352.76,914.818 "/>
<polyline clip-path="url(#clip692)" style="stroke:#000000; stroke-linecap:round; stroke-linejoin:round; stroke-width:2; stroke-opacity:0.1; fill:none" points="86.9921,632.579 2352.76,632.579 "/>
<polyline clip-path="url(#clip692)" style="stroke:#000000; stroke-linecap:round; stroke-linejoin:round; stroke-width:2; stroke-opacity:0.1; fill:none" points="86.9921,350.339 2352.76,350.339 "/>
<polyline clip-path="url(#clip692)" style="stroke:#000000; stroke-linecap:round; stroke-linejoin:round; stroke-width:2; stroke-opacity:0.1; fill:none" points="86.9921,68.0992 2352.76,68.0992 "/>
<polyline clip-path="url(#clip690)" style="stroke:#000000; stroke-linecap:round; stroke-linejoin:round; stroke-width:4; stroke-opacity:1; fill:none" points="86.9921,1521.01 86.9921,47.2441 "/>
<polyline clip-path="url(#clip690)" style="stroke:#000000; stroke-linecap:round; stroke-linejoin:round; stroke-width:4; stroke-opacity:1; fill:none" points="86.9921,1479.3 105.89,1479.3 "/>
<polyline clip-path="url(#clip690)" style="stroke:#000000; stroke-linecap:round; stroke-linejoin:round; stroke-width:4; stroke-opacity:1; fill:none" points="86.9921,1197.06 105.89,1197.06 "/>
<polyline clip-path="url(#clip690)" style="stroke:#000000; stroke-linecap:round; stroke-linejoin:round; stroke-width:4; stroke-opacity:1; fill:none" points="86.9921,914.818 105.89,914.818 "/>
<polyline clip-path="url(#clip690)" style="stroke:#000000; stroke-linecap:round; stroke-linejoin:round; stroke-width:4; stroke-opacity:1; fill:none" points="86.9921,632.579 105.89,632.579 "/>
<polyline clip-path="url(#clip690)" style="stroke:#000000; stroke-linecap:round; stroke-linejoin:round; stroke-width:4; stroke-opacity:1; fill:none" points="86.9921,350.339 105.89,350.339 "/>
<polyline clip-path="url(#clip690)" style="stroke:#000000; stroke-linecap:round; stroke-linejoin:round; stroke-width:4; stroke-opacity:1; fill:none" points="86.9921,68.0992 105.89,68.0992 "/>
<path clip-path="url(#clip690)" d="M10.8708 1532.08 Q10.8708 1535.69 14.4356 1537.51 Q17.9773 1539.32 25.1068 1539.32 Q32.2133 1539.32 35.7781 1537.51 Q39.3197 1535.69 39.3197 1532.08 Q39.3197 1528.44 35.7781 1526.64 Q32.2133 1524.81 25.1068 1524.81 Q17.9773 1524.81 14.4356 1526.64 Q10.8708 1528.44 10.8708 1532.08 M7.16713 1532.08 Q7.16713 1526.26 11.7736 1523.21 Q16.3569 1520.13 25.1068 1520.13 Q33.8337 1520.13 38.4401 1523.21 Q43.0234 1526.26 43.0234 1532.08 Q43.0234 1537.89 38.4401 1540.96 Q33.8337 1544.02 25.1068 1544.02 Q16.3569 1544.02 11.7736 1540.96 Q7.16713 1537.89 7.16713 1532.08 Z" fill="#000000" fill-rule="nonzero" fill-opacity="1" /><path clip-path="url(#clip690)" d="M36.4725 1511.91 L36.4725 1507.03 L42.3521 1507.03 L42.3521 1511.91 L36.4725 1511.91 Z" fill="#000000" fill-rule="nonzero" fill-opacity="1" /><path clip-path="url(#clip690)" d="M10.8708 1486.84 Q10.8708 1490.45 14.4356 1492.28 Q17.9773 1494.09 25.1068 1494.09 Q32.2133 1494.09 35.7781 1492.28 Q39.3197 1490.45 39.3197 1486.84 Q39.3197 1483.21 35.7781 1481.4 Q32.2133 1479.58 25.1068 1479.58 Q17.9773 1479.58 14.4356 1481.4 Q10.8708 1483.21 10.8708 1486.84 M7.16713 1486.84 Q7.16713 1481.03 11.7736 1477.98 Q16.3569 1474.9 25.1068 1474.9 Q33.8337 1474.9 38.4401 1477.98 Q43.0234 1481.03 43.0234 1486.84 Q43.0234 1492.65 38.4401 1495.73 Q33.8337 1498.79 25.1068 1498.79 Q16.3569 1498.79 11.7736 1495.73 Q7.16713 1492.65 7.16713 1486.84 Z" fill="#000000" fill-rule="nonzero" fill-opacity="1" /><path clip-path="url(#clip690)" d="M10.8708 1456.68 Q10.8708 1460.29 14.4356 1462.12 Q17.9773 1463.93 25.1068 1463.93 Q32.2133 1463.93 35.7781 1462.12 Q39.3197 1460.29 39.3197 1456.68 Q39.3197 1453.05 35.7781 1451.24 Q32.2133 1449.41 25.1068 1449.41 Q17.9773 1449.41 14.4356 1451.24 Q10.8708 1453.05 10.8708 1456.68 M7.16713 1456.68 Q7.16713 1450.87 11.7736 1447.82 Q16.3569 1444.74 25.1068 1444.74 Q33.8337 1444.74 38.4401 1447.82 Q43.0234 1450.87 43.0234 1456.68 Q43.0234 1462.49 38.4401 1465.57 Q33.8337 1468.63 25.1068 1468.63 Q16.3569 1468.63 11.7736 1465.57 Q7.16713 1462.49 7.16713 1456.68 Z" fill="#000000" fill-rule="nonzero" fill-opacity="1" /><path clip-path="url(#clip690)" d="M10.8708 1426.52 Q10.8708 1430.13 14.4356 1431.96 Q17.9773 1433.77 25.1068 1433.77 Q32.2133 1433.77 35.7781 1431.96 Q39.3197 1430.13 39.3197 1426.52 Q39.3197 1422.89 35.7781 1421.08 Q32.2133 1419.25 25.1068 1419.25 Q17.9773 1419.25 14.4356 1421.08 Q10.8708 1422.89 10.8708 1426.52 M7.16713 1426.52 Q7.16713 1420.71 11.7736 1417.65 Q16.3569 1414.58 25.1068 1414.58 Q33.8337 1414.58 38.4401 1417.65 Q43.0234 1420.71 43.0234 1426.52 Q43.0234 1432.33 38.4401 1435.41 Q33.8337 1438.46 25.1068 1438.46 Q16.3569 1438.46 11.7736 1435.41 Q7.16713 1432.33 7.16713 1426.52 Z" fill="#000000" fill-rule="nonzero" fill-opacity="1" /><path clip-path="url(#clip690)" d="M10.8708 1249.22 Q10.8708 1252.83 14.4356 1254.66 Q17.9773 1256.47 25.1068 1256.47 Q32.2133 1256.47 35.7781 1254.66 Q39.3197 1252.83 39.3197 1249.22 Q39.3197 1245.59 35.7781 1243.78 Q32.2133 1241.95 25.1068 1241.95 Q17.9773 1241.95 14.4356 1243.78 Q10.8708 1245.59 10.8708 1249.22 M7.16713 1249.22 Q7.16713 1243.41 11.7736 1240.36 Q16.3569 1237.28 25.1068 1237.28 Q33.8337 1237.28 38.4401 1240.36 Q43.0234 1243.41 43.0234 1249.22 Q43.0234 1255.03 38.4401 1258.11 Q33.8337 1261.17 25.1068 1261.17 Q16.3569 1261.17 11.7736 1258.11 Q7.16713 1255.03 7.16713 1249.22 Z" fill="#000000" fill-rule="nonzero" fill-opacity="1" /><path clip-path="url(#clip690)" d="M36.4725 1229.06 L36.4725 1224.18 L42.3521 1224.18 L42.3521 1229.06 L36.4725 1229.06 Z" fill="#000000" fill-rule="nonzero" fill-opacity="1" /><path clip-path="url(#clip690)" d="M10.8708 1203.99 Q10.8708 1207.6 14.4356 1209.43 Q17.9773 1211.24 25.1068 1211.24 Q32.2133 1211.24 35.7781 1209.43 Q39.3197 1207.6 39.3197 1203.99 Q39.3197 1200.36 35.7781 1198.55 Q32.2133 1196.72 25.1068 1196.72 Q17.9773 1196.72 14.4356 1198.55 Q10.8708 1200.36 10.8708 1203.99 M7.16713 1203.99 Q7.16713 1198.18 11.7736 1195.13 Q16.3569 1192.05 25.1068 1192.05 Q33.8337 1192.05 38.4401 1195.13 Q43.0234 1198.18 43.0234 1203.99 Q43.0234 1209.8 38.4401 1212.88 Q33.8337 1215.94 25.1068 1215.94 Q16.3569 1215.94 11.7736 1212.88 Q7.16713 1209.8 7.16713 1203.99 Z" fill="#000000" fill-rule="nonzero" fill-opacity="1" /><path clip-path="url(#clip690)" d="M10.8708 1173.83 Q10.8708 1177.44 14.4356 1179.27 Q17.9773 1181.07 25.1068 1181.07 Q32.2133 1181.07 35.7781 1179.27 Q39.3197 1177.44 39.3197 1173.83 Q39.3197 1170.19 35.7781 1168.39 Q32.2133 1166.56 25.1068 1166.56 Q17.9773 1166.56 14.4356 1168.39 Q10.8708 1170.19 10.8708 1173.83 M7.16713 1173.83 Q7.16713 1168.02 11.7736 1164.96 Q16.3569 1161.88 25.1068 1161.88 Q33.8337 1161.88 38.4401 1164.96 Q43.0234 1168.02 43.0234 1173.83 Q43.0234 1179.64 38.4401 1182.72 Q33.8337 1185.77 25.1068 1185.77 Q16.3569 1185.77 11.7736 1182.72 Q7.16713 1179.64 7.16713 1173.83 Z" fill="#000000" fill-rule="nonzero" fill-opacity="1" /><path clip-path="url(#clip690)" d="M38.417 1152.86 L38.417 1145.22 L12.0514 1145.22 L13.718 1153.53 L9.45878 1153.53 L7.79213 1145.26 L7.79213 1140.59 L38.417 1140.59 L38.417 1132.95 L42.3521 1132.95 L42.3521 1152.86 L38.417 1152.86 Z" fill="#000000" fill-rule="nonzero" fill-opacity="1" /><path clip-path="url(#clip690)" d="M10.8708 966.797 Q10.8708 970.408 14.4356 972.237 Q17.9773 974.042 25.1068 974.042 Q32.2133 974.042 35.7781 972.237 Q39.3197 970.408 39.3197 966.797 Q39.3197 963.163 35.7781 961.357 Q32.2133 959.529 25.1068 959.529 Q17.9773 959.529 14.4356 961.357 Q10.8708 963.163 10.8708 966.797 M7.16713 966.797 Q7.16713 960.987 11.7736 957.931 Q16.3569 954.853 25.1068 954.853 Q33.8337 954.853 38.4401 957.931 Q43.0234 960.987 43.0234 966.797 Q43.0234 972.607 38.4401 975.686 Q33.8337 978.742 25.1068 978.742 Q16.3569 978.742 11.7736 975.686 Q7.16713 972.607 7.16713 966.797 Z" fill="#000000" fill-rule="nonzero" fill-opacity="1" /><path clip-path="url(#clip690)" d="M36.4725 946.635 L36.4725 941.751 L42.3521 941.751 L42.3521 946.635 L36.4725 946.635 Z" fill="#000000" fill-rule="nonzero" fill-opacity="1" /><path clip-path="url(#clip690)" d="M10.8708 921.566 Q10.8708 925.177 14.4356 927.006 Q17.9773 928.811 25.1068 928.811 Q32.2133 928.811 35.7781 927.006 Q39.3197 925.177 39.3197 921.566 Q39.3197 917.932 35.7781 916.126 Q32.2133 914.297 25.1068 914.297 Q17.9773 914.297 14.4356 916.126 Q10.8708 917.932 10.8708 921.566 M7.16713 921.566 Q7.16713 915.756 11.7736 912.7 Q16.3569 909.622 25.1068 909.622 Q33.8337 909.622 38.4401 912.7 Q43.0234 915.756 43.0234 921.566 Q43.0234 927.376 38.4401 930.455 Q33.8337 933.51 25.1068 933.51 Q16.3569 933.51 11.7736 930.455 Q7.16713 927.376 7.16713 921.566 Z" fill="#000000" fill-rule="nonzero" fill-opacity="1" /><path clip-path="url(#clip690)" d="M10.8708 891.404 Q10.8708 895.015 14.4356 896.844 Q17.9773 898.649 25.1068 898.649 Q32.2133 898.649 35.7781 896.844 Q39.3197 895.015 39.3197 891.404 Q39.3197 887.77 35.7781 885.964 Q32.2133 884.136 25.1068 884.136 Q17.9773 884.136 14.4356 885.964 Q10.8708 887.77 10.8708 891.404 M7.16713 891.404 Q7.16713 885.594 11.7736 882.538 Q16.3569 879.46 25.1068 879.46 Q33.8337 879.46 38.4401 882.538 Q43.0234 885.594 43.0234 891.404 Q43.0234 897.214 38.4401 900.293 Q33.8337 903.348 25.1068 903.348 Q16.3569 903.348 11.7736 900.293 Q7.16713 897.214 7.16713 891.404 Z" fill="#000000" fill-rule="nonzero" fill-opacity="1" /><path clip-path="url(#clip690)" d="M38.417 867.214 L38.417 850.895 L42.3521 850.895 L42.3521 872.839 L38.417 872.839 Q35.6623 870.177 31.0327 865.594 Q26.38 860.988 25.0374 859.807 Q22.5143 857.562 20.7782 856.682 Q19.0189 855.779 17.3291 855.779 Q14.5745 855.779 12.8384 857.724 Q11.1023 859.645 11.1023 862.747 Q11.1023 864.946 11.8662 867.4 Q12.6301 869.83 14.181 872.608 L9.45878 872.608 Q8.32453 869.784 7.74583 867.33 Q7.16713 864.876 7.16713 862.839 Q7.16713 857.469 9.8523 854.275 Q12.5375 851.08 17.0282 851.08 Q19.1578 851.08 21.0791 851.89 Q22.9772 852.677 25.5698 854.784 Q26.2411 855.363 29.4587 858.464 Q32.6531 861.566 38.417 867.214 Z" fill="#000000" fill-rule="nonzero" fill-opacity="1" /><path clip-path="url(#clip690)" d="M10.8708 685.032 Q10.8708 688.643 14.4356 690.472 Q17.9773 692.277 25.1068 692.277 Q32.2133 692.277 35.7781 690.472 Q39.3197 688.643 39.3197 685.032 Q39.3197 681.398 35.7781 679.592 Q32.2133 677.764 25.1068 677.764 Q17.9773 677.764 14.4356 679.592 Q10.8708 681.398 10.8708 685.032 M7.16713 685.032 Q7.16713 679.222 11.7736 676.166 Q16.3569 673.088 25.1068 673.088 Q33.8337 673.088 38.4401 676.166 Q43.0234 679.222 43.0234 685.032 Q43.0234 690.842 38.4401 693.921 Q33.8337 696.976 25.1068 696.976 Q16.3569 696.976 11.7736 693.921 Q7.16713 690.842 7.16713 685.032 Z" fill="#000000" fill-rule="nonzero" fill-opacity="1" /><path clip-path="url(#clip690)" d="M36.4725 664.87 L36.4725 659.986 L42.3521 659.986 L42.3521 664.87 L36.4725 664.87 Z" fill="#000000" fill-rule="nonzero" fill-opacity="1" /><path clip-path="url(#clip690)" d="M10.8708 639.801 Q10.8708 643.412 14.4356 645.241 Q17.9773 647.046 25.1068 647.046 Q32.2133 647.046 35.7781 645.241 Q39.3197 643.412 39.3197 639.801 Q39.3197 636.167 35.7781 634.361 Q32.2133 632.532 25.1068 632.532 Q17.9773 632.532 14.4356 634.361 Q10.8708 636.167 10.8708 639.801 M7.16713 639.801 Q7.16713 633.991 11.7736 630.935 Q16.3569 627.856 25.1068 627.856 Q33.8337 627.856 38.4401 630.935 Q43.0234 633.991 43.0234 639.801 Q43.0234 645.611 38.4401 648.69 Q33.8337 651.745 25.1068 651.745 Q16.3569 651.745 11.7736 648.69 Q7.16713 645.611 7.16713 639.801 Z" fill="#000000" fill-rule="nonzero" fill-opacity="1" /><path clip-path="url(#clip690)" d="M10.8708 609.639 Q10.8708 613.25 14.4356 615.079 Q17.9773 616.884 25.1068 616.884 Q32.2133 616.884 35.7781 615.079 Q39.3197 613.25 39.3197 609.639 Q39.3197 606.005 35.7781 604.199 Q32.2133 602.37 25.1068 602.37 Q17.9773 602.37 14.4356 604.199 Q10.8708 606.005 10.8708 609.639 M7.16713 609.639 Q7.16713 603.829 11.7736 600.773 Q16.3569 597.695 25.1068 597.695 Q33.8337 597.695 38.4401 600.773 Q43.0234 603.829 43.0234 609.639 Q43.0234 615.449 38.4401 618.528 Q33.8337 621.583 25.1068 621.583 Q16.3569 621.583 11.7736 618.528 Q7.16713 615.449 7.16713 609.639 Z" fill="#000000" fill-rule="nonzero" fill-opacity="1" /><path clip-path="url(#clip690)" d="M23.718 575.31 Q24.4356 571.954 26.7041 570.079 Q28.9726 568.181 32.3059 568.181 Q37.4216 568.181 40.2225 571.699 Q43.0234 575.218 43.0234 581.699 Q43.0234 583.875 42.5836 586.19 Q42.1669 588.482 41.3105 590.935 L36.7966 590.935 Q37.9309 588.991 38.5096 586.676 Q39.0883 584.361 39.0883 581.838 Q39.0883 577.44 37.3522 575.148 Q35.6161 572.834 32.3059 572.834 Q29.2503 572.834 27.5374 574.986 Q25.8013 577.116 25.8013 580.935 L25.8013 584.963 L21.9587 584.963 L21.9587 580.75 Q21.9587 577.301 20.593 575.472 Q19.2041 573.644 16.6115 573.644 Q13.9495 573.644 12.5375 575.542 Q11.1023 577.417 11.1023 580.935 Q11.1023 582.857 11.519 585.056 Q11.9356 587.255 12.8152 589.894 L8.6486 589.894 Q7.90787 587.232 7.5375 584.917 Q7.16713 582.579 7.16713 580.519 Q7.16713 575.195 9.59767 572.093 Q12.0051 568.991 16.1254 568.991 Q18.9958 568.991 20.9865 570.634 Q22.9541 572.278 23.718 575.31 Z" fill="#000000" fill-rule="nonzero" fill-opacity="1" /><path clip-path="url(#clip690)" d="M10.8708 403.359 Q10.8708 406.971 14.4356 408.799 Q17.9773 410.605 25.1068 410.605 Q32.2133 410.605 35.7781 408.799 Q39.3197 406.971 39.3197 403.359 Q39.3197 399.725 35.7781 397.92 Q32.2133 396.091 25.1068 396.091 Q17.9773 396.091 14.4356 397.92 Q10.8708 399.725 10.8708 403.359 M7.16713 403.359 Q7.16713 397.549 11.7736 394.494 Q16.3569 391.415 25.1068 391.415 Q33.8337 391.415 38.4401 394.494 Q43.0234 397.549 43.0234 403.359 Q43.0234 409.17 38.4401 412.248 Q33.8337 415.304 25.1068 415.304 Q16.3569 415.304 11.7736 412.248 Q7.16713 409.17 7.16713 403.359 Z" fill="#000000" fill-rule="nonzero" fill-opacity="1" /><path clip-path="url(#clip690)" d="M36.4725 383.198 L36.4725 378.313 L42.3521 378.313 L42.3521 383.198 L36.4725 383.198 Z" fill="#000000" fill-rule="nonzero" fill-opacity="1" /><path clip-path="url(#clip690)" d="M10.8708 358.128 Q10.8708 361.739 14.4356 363.568 Q17.9773 365.374 25.1068 365.374 Q32.2133 365.374 35.7781 363.568 Q39.3197 361.739 39.3197 358.128 Q39.3197 354.494 35.7781 352.688 Q32.2133 350.86 25.1068 350.86 Q17.9773 350.86 14.4356 352.688 Q10.8708 354.494 10.8708 358.128 M7.16713 358.128 Q7.16713 352.318 11.7736 349.263 Q16.3569 346.184 25.1068 346.184 Q33.8337 346.184 38.4401 349.263 Q43.0234 352.318 43.0234 358.128 Q43.0234 363.938 38.4401 367.017 Q33.8337 370.073 25.1068 370.073 Q16.3569 370.073 11.7736 367.017 Q7.16713 363.938 7.16713 358.128 Z" fill="#000000" fill-rule="nonzero" fill-opacity="1" /><path clip-path="url(#clip690)" d="M10.8708 327.966 Q10.8708 331.577 14.4356 333.406 Q17.9773 335.212 25.1068 335.212 Q32.2133 335.212 35.7781 333.406 Q39.3197 331.577 39.3197 327.966 Q39.3197 324.332 35.7781 322.527 Q32.2133 320.698 25.1068 320.698 Q17.9773 320.698 14.4356 322.527 Q10.8708 324.332 10.8708 327.966 M7.16713 327.966 Q7.16713 322.156 11.7736 319.101 Q16.3569 316.022 25.1068 316.022 Q33.8337 316.022 38.4401 319.101 Q43.0234 322.156 43.0234 327.966 Q43.0234 333.776 38.4401 336.855 Q33.8337 339.911 25.1068 339.911 Q16.3569 339.911 11.7736 336.855 Q7.16713 333.776 7.16713 327.966 Z" fill="#000000" fill-rule="nonzero" fill-opacity="1" /><path clip-path="url(#clip690)" d="M11.8662 294.957 L30.3152 306.763 L30.3152 294.957 L11.8662 294.957 M7.79213 296.184 L7.79213 290.305 L30.3152 290.305 L30.3152 285.374 L34.204 285.374 L34.204 290.305 L42.3521 290.305 L42.3521 294.957 L34.204 294.957 L34.204 310.559 L29.6902 310.559 L7.79213 296.184 Z" fill="#000000" fill-rule="nonzero" fill-opacity="1" /><path clip-path="url(#clip690)" d="M10.8708 120.379 Q10.8708 123.99 14.4356 125.819 Q17.9773 127.624 25.1068 127.624 Q32.2133 127.624 35.7781 125.819 Q39.3197 123.99 39.3197 120.379 Q39.3197 116.745 35.7781 114.939 Q32.2133 113.111 25.1068 113.111 Q17.9773 113.111 14.4356 114.939 Q10.8708 116.745 10.8708 120.379 M7.16713 120.379 Q7.16713 114.569 11.7736 111.513 Q16.3569 108.435 25.1068 108.435 Q33.8337 108.435 38.4401 111.513 Q43.0234 114.569 43.0234 120.379 Q43.0234 126.189 38.4401 129.268 Q33.8337 132.323 25.1068 132.323 Q16.3569 132.323 11.7736 129.268 Q7.16713 126.189 7.16713 120.379 Z" fill="#000000" fill-rule="nonzero" fill-opacity="1" /><path clip-path="url(#clip690)" d="M36.4725 100.217 L36.4725 95.3329 L42.3521 95.3329 L42.3521 100.217 L36.4725 100.217 Z" fill="#000000" fill-rule="nonzero" fill-opacity="1" /><path clip-path="url(#clip690)" d="M10.8708 75.1478 Q10.8708 78.7589 14.4356 80.5876 Q17.9773 82.3931 25.1068 82.3931 Q32.2133 82.3931 35.7781 80.5876 Q39.3197 78.7589 39.3197 75.1478 Q39.3197 71.5136 35.7781 69.708 Q32.2133 67.8793 25.1068 67.8793 Q17.9773 67.8793 14.4356 69.708 Q10.8708 71.5136 10.8708 75.1478 M7.16713 75.1478 Q7.16713 69.3377 11.7736 66.2821 Q16.3569 63.2034 25.1068 63.2034 Q33.8337 63.2034 38.4401 66.2821 Q43.0234 69.3377 43.0234 75.1478 Q43.0234 80.958 38.4401 84.0367 Q33.8337 87.0922 25.1068 87.0922 Q16.3569 87.0922 11.7736 84.0367 Q7.16713 80.958 7.16713 75.1478 Z" fill="#000000" fill-rule="nonzero" fill-opacity="1" /><path clip-path="url(#clip690)" d="M10.8708 44.9859 Q10.8708 48.597 14.4356 50.4257 Q17.9773 52.2313 25.1068 52.2313 Q32.2133 52.2313 35.7781 50.4257 Q39.3197 48.597 39.3197 44.9859 Q39.3197 41.3517 35.7781 39.5462 Q32.2133 37.7175 25.1068 37.7175 Q17.9773 37.7175 14.4356 39.5462 Q10.8708 41.3517 10.8708 44.9859 M7.16713 44.9859 Q7.16713 39.1758 11.7736 36.1202 Q16.3569 33.0416 25.1068 33.0416 Q33.8337 33.0416 38.4401 36.1202 Q43.0234 39.1758 43.0234 44.9859 Q43.0234 50.7961 38.4401 53.8748 Q33.8337 56.9303 25.1068 56.9303 Q16.3569 56.9303 11.7736 53.8748 Q7.16713 50.7961 7.16713 44.9859 Z" fill="#000000" fill-rule="nonzero" fill-opacity="1" /><path clip-path="url(#clip690)" d="M7.79213 24.7777 L7.79213 6.42133 L11.7273 6.42133 L11.7273 20.4953 L20.1995 20.4953 Q19.8522 19.4768 19.6902 18.4583 Q19.505 17.4398 19.505 16.4213 Q19.505 10.6343 22.6763 7.25466 Q25.8476 3.87505 31.2642 3.87505 Q36.8429 3.87505 39.9447 7.34725 Q43.0234 10.8195 43.0234 17.1389 Q43.0234 19.3148 42.6531 21.5833 Q42.2827 23.8286 41.5419 26.236 L36.8429 26.236 Q37.9771 24.1527 38.5327 21.9305 Q39.0883 19.7083 39.0883 17.2315 Q39.0883 13.2269 36.9818 10.8889 Q34.8753 8.55095 31.2642 8.55095 Q27.6531 8.55095 25.5467 10.8889 Q23.4402 13.2269 23.4402 17.2315 Q23.4402 19.1064 23.8569 20.9814 Q24.2735 22.8333 25.1531 24.7777 L7.79213 24.7777 Z" fill="#000000" fill-rule="nonzero" fill-opacity="1" /><polyline clip-path="url(#clip692)" style="stroke:#009af9; stroke-linecap:round; stroke-linejoin:round; stroke-width:4; stroke-opacity:1; fill:none" points="151.118,1479.3 153.257,1479.3 155.397,1479.3 157.536,1479.3 159.676,1479.3 161.816,1479.3 163.955,1479.3 166.095,1479.3 168.235,1479.3 170.374,1479.3 172.514,1479.3 174.654,1479.3 176.793,1479.3 178.933,1479.3 181.073,1479.3 183.212,1479.3 185.352,1479.3 187.492,1479.3 189.631,1479.3 191.771,1479.3 193.911,1479.3 196.05,1479.3 198.19,1479.3 200.33,1479.3 202.469,1479.3 204.609,1479.3 206.748,1479.3 208.888,1479.3 211.028,1479.3 213.167,1479.3 215.307,1479.3 217.447,1479.3 219.586,1479.3 221.726,1479.3 223.866,1479.3 226.005,1479.3 228.145,1479.3 230.285,1479.3 232.424,1479.3 234.564,1479.3 236.704,1479.3 238.843,1479.3 240.983,1479.3 243.123,1479.3 245.262,1479.3 247.402,1479.3 249.542,1479.3 251.681,1479.3 253.821,1479.3 255.96,1479.3 258.1,1479.3 260.24,1479.3 262.379,1479.3 264.519,1479.3 266.659,1479.3 268.798,1479.3 270.938,1479.3 273.078,1479.3 275.217,1479.3 277.357,1479.3 279.497,1479.3 281.636,1479.3 283.776,1479.3 285.916,1479.3 288.055,1479.3 290.195,1479.3 292.335,1479.3 294.474,1479.3 296.614,1479.3 298.754,1479.3 300.893,1479.3 303.033,1479.3 305.173,1479.3 307.312,1479.3 309.452,1479.3 311.591,1479.3 313.731,1479.3 315.871,1479.3 318.01,1479.3 320.15,1479.3 322.29,1479.3 324.429,1479.3 326.569,1479.3 328.709,1479.3 330.848,1479.3 332.988,1479.3 335.128,1479.3 337.267,1479.3 339.407,1479.3 341.547,1479.3 343.686,1479.3 345.826,1479.3 347.966,1479.3 350.105,1479.3 352.245,1479.3 354.385,1479.3 356.524,1479.3 358.664,1479.3 360.803,1479.3 362.943,1479.3 365.083,1479.3 367.222,1479.3 369.362,1479.3 371.502,1479.3 373.641,1479.3 375.781,1479.3 377.921,1479.3 380.06,1479.3 382.2,1479.3 384.34,1479.3 386.479,1479.3 388.619,1479.3 390.759,1479.3 392.898,1479.3 395.038,1479.3 397.178,1479.3 399.317,1479.3 401.457,1479.3 403.597,1479.3 405.736,1479.3 407.876,1479.3 410.015,1479.3 412.155,1479.3 414.295,1479.3 416.434,1479.3 418.574,1479.3 420.714,1479.3 422.853,1479.3 424.993,1479.3 427.133,1479.3 429.272,1479.3 431.412,1479.3 433.552,1479.3 435.691,1479.3 437.831,1479.3 439.971,1479.3 442.11,1479.3 444.25,1479.3 446.39,1479.3 448.529,1479.3 450.669,1479.3 452.809,1479.3 454.948,1479.3 457.088,1479.3 459.227,1479.3 461.367,1479.3 463.507,1479.3 465.646,1479.3 467.786,1479.3 469.926,1479.3 472.065,1479.3 474.205,1479.3 476.345,1479.3 478.484,1479.3 480.624,1479.3 482.764,1479.3 484.903,1479.3 487.043,1479.3 489.183,1479.3 491.322,1479.3 493.462,1479.3 495.602,1479.3 497.741,1479.3 499.881,1479.3 502.021,1479.3 504.16,1479.3 506.3,1479.3 508.44,1479.3 510.579,1479.3 512.719,1479.3 514.858,1479.3 516.998,1479.3 519.138,1479.3 521.277,1479.3 523.417,1479.3 525.557,1479.3 527.696,1479.3 529.836,1479.3 531.976,1479.3 534.115,1479.3 536.255,1479.3 538.395,1479.3 540.534,1479.3 542.674,1479.3 544.814,1479.3 546.953,1479.3 549.093,1479.3 551.233,1479.3 553.372,1479.3 555.512,1479.3 557.652,1479.3 559.791,1479.3 561.931,1479.3 564.07,1479.3 566.21,1479.3 568.35,1479.3 570.489,1479.3 572.629,1479.3 574.769,1479.3 576.908,1479.3 579.048,1479.3 581.188,1479.3 583.327,88.9544 585.467,95.7698 587.607,102.519 589.746,109.202 591.886,115.821 594.026,122.376 596.165,128.869 598.305,135.299 600.445,141.669 602.584,147.978 604.724,154.229 606.864,160.421 609.003,166.555 611.143,172.632 613.282,178.654 615.422,184.62 617.562,190.532 619.701,196.39 621.841,202.195 623.981,207.948 626.12,213.649 628.26,219.299 630.4,224.899 632.539,230.449 634.679,235.951 636.819,241.404 638.958,246.81 641.098,252.169 643.238,257.481 645.377,262.747 647.517,267.969 649.657,273.145 651.796,278.278 653.936,283.367 656.076,288.413 658.215,293.417 660.355,298.378 662.494,303.299 664.634,308.179 666.774,313.018 668.913,317.817 671.053,322.578 673.193,327.299 675.332,331.982 677.472,336.627 679.612,341.234 681.751,345.805 683.891,350.339 686.031,354.837 688.17,359.299 690.31,363.726 692.45,368.118 694.589,372.475 696.729,376.799 698.869,381.089 701.008,385.345 703.148,389.569 705.288,393.76 707.427,397.92 709.567,402.047 711.707,406.143 713.846,410.208 715.986,414.242 718.125,418.246 720.265,422.22 722.405,426.164 724.544,430.079 726.684,433.965 728.824,437.823 730.963,441.652 733.103,445.453 735.243,449.226 737.382,452.972 739.522,456.69 741.662,460.382 743.801,464.047 745.941,467.686 748.081,471.299 750.22,474.886 752.36,478.448 754.5,481.984 756.639,485.496 758.779,488.983 760.919,492.446 763.058,495.884 765.198,499.299 767.337,502.69 769.477,506.057 771.617,509.402 773.756,512.723 775.896,516.022 778.036,519.299 780.175,522.553 782.315,525.785 784.455,528.996 786.594,532.185 788.734,535.352 790.874,538.499 793.013,541.624 795.153,544.729 797.293,547.814 799.432,550.878 801.572,553.922 803.712,556.946 805.851,559.95 807.991,562.935 810.131,565.901 812.27,568.847 814.41,571.775 816.549,574.683 818.689,577.573 820.829,580.445 822.968,583.299 825.108,586.134 827.248,588.952 829.387,591.751 831.527,594.534 833.667,597.299 835.806,600.046 837.946,602.777 840.086,605.491 842.225,608.187 844.365,610.868 846.505,613.532 848.644,616.179 850.784,618.811 852.924,621.426 855.063,624.026 857.203,626.61 859.343,629.178 861.482,631.731 863.622,634.269 865.762,636.791 867.901,639.299 870.041,641.791 872.18,644.269 874.32,646.732 876.46,649.181 878.599,651.615 880.739,654.035 882.879,656.441 885.018,658.833 887.158,661.212 889.298,663.576 891.437,665.927 893.577,668.264 895.717,670.588 897.856,672.899 899.996,675.196 902.136,677.48 904.275,679.752 906.415,682.01 908.555,684.256 910.694,686.49 912.834,688.71 914.974,690.919 917.113,693.115 919.253,695.299 921.392,697.47 923.532,699.63 925.672,701.778 927.811,703.914 929.951,706.038 932.091,708.151 934.23,710.252 936.37,712.342 938.51,714.42 940.649,716.488 942.789,718.544 944.929,720.589 947.068,722.623 949.208,724.646 951.348,726.658 953.487,728.66 955.627,730.651 957.767,732.632 959.906,734.602 962.046,736.562 964.186,738.511 966.325,740.45 968.465,742.379 970.604,744.298 972.744,746.208 974.884,748.107 977.023,749.996 979.163,751.876 981.303,753.746 983.442,755.606 985.582,757.457 987.722,759.298 989.861,761.13 992.001,762.953 994.141,764.767 996.28,766.571 998.42,768.366 1000.56,770.153 1002.7,771.93 1004.84,773.698 1006.98,775.458 1009.12,777.209 1011.26,778.951 1013.4,780.685 1015.54,782.41 1017.68,784.126 1019.82,785.834 1021.96,787.534 1024.1,789.225 1026.24,790.908 1028.38,792.583 1030.51,794.25 1032.65,795.909 1034.79,797.559 1036.93,799.202 1039.07,800.837 1041.21,802.464 1043.35,804.083 1045.49,805.695 1047.63,807.298 1049.77,808.895 1051.91,810.483 1054.05,812.064 1056.19,813.638 1058.33,815.204 1060.47,816.763 1062.61,818.315 1064.75,819.859 1066.89,821.396 1069.03,822.926 1071.17,824.449 1073.31,825.965 1075.45,827.474 1077.59,828.976 1079.73,830.471 1081.87,831.959 1084.01,833.44 1086.15,834.915 1088.29,836.383 1090.43,837.844 1092.56,839.298 1094.7,840.746 1096.84,842.188 1098.98,843.623 1101.12,845.051 1103.26,846.473 1105.4,847.889 1107.54,849.298 1109.68,850.701 1111.82,852.098 1113.96,853.489 1116.1,854.874 1118.24,856.252 1120.38,857.624 1122.52,858.991 1124.66,860.351 1126.8,861.705 1128.94,863.054 1131.08,864.396 1133.22,865.733 1135.36,867.064 1137.5,868.389 1139.64,869.709 1141.78,871.022 1143.92,872.331 1146.06,873.633 1148.2,874.93 1150.34,876.221 1152.47,877.507 1154.61,878.788 1156.75,880.063 1158.89,881.332 1161.03,882.596 1163.17,883.855 1165.31,885.109 1167.45,886.357 1169.59,887.6 1171.73,888.838 1173.87,890.071 1176.01,891.298 1178.15,892.521 1180.29,893.738 1182.43,894.95 1184.57,896.158 1186.71,897.36 1188.85,898.558 1190.99,899.75 1193.13,900.938 1195.27,902.12 1197.41,903.298 1199.55,904.471 1201.69,905.64 1203.83,906.803 1205.97,907.962 1208.11,909.116 1210.25,910.266 1212.39,911.411 1214.52,912.551 1216.66,913.687 1218.8,914.818 1220.94,915.945 1223.08,917.067 1225.22,918.185 1227.36,919.298 1229.5,920.407 1231.64,921.512 1233.78,922.612 1235.92,923.708 1238.06,924.799 1240.2,925.886 1242.34,926.969 1244.48,928.048 1246.62,929.123 1248.76,930.193 1250.9,931.259 1253.04,932.321 1255.18,933.379 1257.32,934.433 1259.46,935.483 1261.6,936.529 1263.74,937.571 1265.88,938.609 1268.02,939.642 1270.16,940.672 1272.3,941.698 1274.44,942.72 1276.57,943.738 1278.71,944.753 1280.85,945.763 1282.99,946.77 1285.13,947.773 1287.27,948.772 1289.41,949.767 1291.55,950.759 1293.69,951.747 1295.83,952.731 1297.97,953.712 1300.11,954.689 1302.25,955.662 1304.39,956.632 1306.53,957.598 1308.67,958.56 1310.81,959.519 1312.95,960.475 1315.09,961.427 1317.23,962.375 1319.37,963.32 1321.51,964.262 1323.65,965.2 1325.79,966.135 1327.93,967.066 1330.07,967.994 1332.21,968.918 1334.35,969.84 1336.49,970.758 1338.62,971.672 1340.76,972.584 1342.9,973.492 1345.04,974.397 1347.18,975.298 1349.32,976.197 1351.46,977.092 1353.6,977.984 1355.74,978.873 1357.88,979.758 1360.02,980.641 1362.16,981.52 1364.3,982.397 1366.44,983.27 1368.58,984.14 1370.72,985.007 1372.86,985.872 1375,986.733 1377.14,987.591 1379.28,988.446 1381.42,989.298 1383.56,990.147 1385.7,990.994 1387.84,991.837 1389.98,992.677 1392.12,993.515 1394.26,994.35 1396.4,995.182 1398.54,996.01 1400.67,996.837 1402.81,997.66 1404.95,998.48 1407.09,999.298 1409.23,1000.11 1411.37,1000.93 1413.51,1001.73 1415.65,1002.54 1417.79,1003.35 1419.93,1004.15 1422.07,1004.95 1424.21,1005.74 1426.35,1006.53 1428.49,1007.32 1430.63,1008.11 1432.77,1008.9 1434.91,1009.68 1437.05,1010.46 1439.19,1011.24 1441.33,1012.01 1443.47,1012.79 1445.61,1013.56 1447.75,1014.32 1449.89,1015.09 1452.03,1015.85 1454.17,1016.61 1456.31,1017.37 1458.45,1018.12 1460.58,1018.87 1462.72,1019.62 1464.86,1020.37 1467,1021.12 1469.14,1021.86 1471.28,1022.6 1473.42,1023.34 1475.56,1024.07 1477.7,1024.81 1479.84,1025.54 1481.98,1026.26 1484.12,1026.99 1486.26,1027.71 1488.4,1028.44 1490.54,1029.15 1492.68,1029.87 1494.82,1030.59 1496.96,1031.3 1499.1,1032.01 1501.24,1032.72 1503.38,1033.42 1505.52,1034.12 1507.66,1034.83 1509.8,1035.52 1511.94,1036.22 1514.08,1036.92 1516.22,1037.61 1518.36,1038.3 1520.5,1038.99 1522.63,1039.67 1524.77,1040.36 1526.91,1041.04 1529.05,1041.72 1531.19,1042.39 1533.33,1043.07 1535.47,1043.74 1537.61,1044.41 1539.75,1045.08 1541.89,1045.75 1544.03,1046.41 1546.17,1047.08 1548.31,1047.74 1550.45,1048.4 1552.59,1049.05 1554.73,1049.71 1556.87,1050.36 1559.01,1051.01 1561.15,1051.66 1563.29,1052.31 1565.43,1052.95 1567.57,1053.6 1569.71,1054.24 1571.85,1054.88 1573.99,1055.51 1576.13,1056.15 1578.27,1056.78 1580.41,1057.41 1582.55,1058.04 1584.68,1058.67 1586.82,1059.3 1588.96,1059.92 1591.1,1060.54 1593.24,1061.16 1595.38,1061.78 1597.52,1062.4 1599.66,1063.01 1601.8,1063.63 1603.94,1064.24 1606.08,1064.85 1608.22,1065.46 1610.36,1066.06 1612.5,1066.67 1614.64,1067.27 1616.78,1067.87 1618.92,1068.47 1621.06,1069.07 1623.2,1069.66 1625.34,1070.25 1627.48,1070.85 1629.62,1071.44 1631.76,1072.03 1633.9,1072.61 1636.04,1073.2 1638.18,1073.78 1640.32,1074.36 1642.46,1074.94 1644.6,1075.52 1646.73,1076.1 1648.87,1076.67 1651.01,1077.25 1653.15,1077.82 1655.29,1078.39 1657.43,1078.96 1659.57,1079.52 1661.71,1080.09 1663.85,1080.65 1665.99,1081.22 1668.13,1081.78 1670.27,1082.34 1672.41,1082.89 1674.55,1083.45 1676.69,1084 1678.83,1084.56 1680.97,1085.11 1683.11,1085.66 1685.25,1086.21 1687.39,1086.75 1689.53,1087.3 1691.67,1087.84 1693.81,1088.38 1695.95,1088.92 1698.09,1089.46 1700.23,1090 1702.37,1090.54 1704.51,1091.07 1706.64,1091.61 1708.78,1092.14 1710.92,1092.67 1713.06,1093.2 1715.2,1093.72 1717.34,1094.25 1719.48,1094.77 1721.62,1095.3 1723.76,1095.82 1725.9,1096.34 1728.04,1096.86 1730.18,1097.38 1732.32,1097.89 1734.46,1098.41 1736.6,1098.92 1738.74,1099.43 1740.88,1099.94 1743.02,1100.45 1745.16,1100.96 1747.3,1101.47 1749.44,1101.97 1751.58,1102.48 1753.72,1102.98 1755.86,1103.48 1758,1103.98 1760.14,1104.48 1762.28,1104.97 1764.42,1105.47 1766.56,1105.96 1768.69,1106.46 1770.83,1106.95 1772.97,1107.44 1775.11,1107.93 1777.25,1108.42 1779.39,1108.9 1781.53,1109.39 1783.67,1109.87 1785.81,1110.36 1787.95,1110.84 1790.09,1111.32 1792.23,1111.8 1794.37,1112.28 1796.51,1112.75 1798.65,1113.23 1800.79,1113.7 1802.93,1114.18 1805.07,1114.65 1807.21,1115.12 1809.35,1115.59 1811.49,1116.05 1813.63,1116.52 1815.77,1116.99 1817.91,1117.45 1820.05,1117.92 1822.19,1118.38 1824.33,1118.84 1826.47,1119.3 1828.61,1119.76 1830.74,1120.21 1832.88,1120.67 1835.02,1121.13 1837.16,1121.58 1839.3,1122.03 1841.44,1122.48 1843.58,1122.93 1845.72,1123.38 1847.86,1123.83 1850,1124.28 1852.14,1124.73 1854.28,1125.17 1856.42,1125.61 1858.56,1126.06 1860.7,1126.5 1862.84,1126.94 1864.98,1127.38 1867.12,1127.82 1869.26,1128.25 1871.4,1128.69 1873.54,1129.12 1875.68,1129.56 1877.82,1129.99 1879.96,1130.42 1882.1,1130.85 1884.24,1131.28 1886.38,1131.71 1888.52,1132.14 1890.66,1132.57 1892.79,1132.99 1894.93,1133.42 1897.07,1133.84 1899.21,1134.26 1901.35,1134.68 1903.49,1135.1 1905.63,1135.52 1907.77,1135.94 1909.91,1136.36 1912.05,1136.77 1914.19,1137.19 1916.33,1137.6 1918.47,1138.02 1920.61,1138.43 1922.75,1138.84 1924.89,1139.25 1927.03,1139.66 1929.17,1140.07 1931.31,1140.47 1933.45,1140.88 1935.59,1141.29 1937.73,1141.69 1939.87,1142.09 1942.01,1142.5 1944.15,1142.9 1946.29,1143.3 1948.43,1143.7 1950.57,1144.1 1952.71,1144.49 1954.84,1144.89 1956.98,1145.29 1959.12,1145.68 1961.26,1146.07 1963.4,1146.47 1965.54,1146.86 1967.68,1147.25 1969.82,1147.64 1971.96,1148.03 1974.1,1148.42 1976.24,1148.81 1978.38,1149.19 1980.52,1149.58 1982.66,1149.96 1984.8,1150.35 1986.94,1150.73 1989.08,1151.11 1991.22,1151.49 1993.36,1151.87 1995.5,1152.25 1997.64,1152.63 1999.78,1153.01 2001.92,1153.39 2004.06,1153.76 2006.2,1154.14 2008.34,1154.51 2010.48,1154.88 2012.62,1155.26 2014.75,1155.63 2016.89,1156 2019.03,1156.37 2021.17,1156.74 2023.31,1157.11 2025.45,1157.47 2027.59,1157.84 2029.73,1158.21 2031.87,1158.57 2034.01,1158.93 2036.15,1159.3 2038.29,1159.66 2040.43,1160.02 2042.57,1160.38 2044.71,1160.74 2046.85,1161.1 2048.99,1161.46 2051.13,1161.82 2053.27,1162.17 2055.41,1162.53 2057.55,1162.89 2059.69,1163.24 2061.83,1163.59 2063.97,1163.95 2066.11,1164.3 2068.25,1164.65 2070.39,1165 2072.53,1165.35 2074.67,1165.7 2076.8,1166.05 2078.94,1166.39 2081.08,1166.74 2083.22,1167.09 2085.36,1167.43 2087.5,1167.77 2089.64,1168.12 2091.78,1168.46 2093.92,1168.8 2096.06,1169.14 2098.2,1169.48 2100.34,1169.82 2102.48,1170.16 2104.62,1170.5 2106.76,1170.84 2108.9,1171.18 2111.04,1171.51 2113.18,1171.85 2115.32,1172.18 2117.46,1172.52 2119.6,1172.85 2121.74,1173.18 2123.88,1173.51 2126.02,1173.84 2128.16,1174.17 2130.3,1174.5 2132.44,1174.83 2134.58,1175.16 2136.72,1175.49 2138.85,1175.81 2140.99,1176.14 2143.13,1176.47 2145.27,1176.79 2147.41,1177.11 2149.55,1177.44 2151.69,1177.76 2153.83,1178.08 2155.97,1178.4 2158.11,1178.72 2160.25,1179.04 2162.39,1179.36 2164.53,1179.68 2166.67,1180 2168.81,1180.31 2170.95,1180.63 2173.09,1180.95 2175.23,1181.26 2177.37,1181.58 2179.51,1181.89 2181.65,1182.2 2183.79,1182.52 2185.93,1182.83 2188.07,1183.14 2190.21,1183.45 2192.35,1183.76 2194.49,1184.07 2196.63,1184.38 2198.77,1184.68 2200.9,1184.99 2203.04,1185.3 2205.18,1185.6 2207.32,1185.91 2209.46,1186.21 2211.6,1186.52 2213.74,1186.82 2215.88,1187.12 2218.02,1187.43 2220.16,1187.73 2222.3,1188.03 2224.44,1188.33 2226.58,1188.63 2228.72,1188.93 2230.86,1189.23 2233,1189.52 2235.14,1189.82 2237.28,1190.12 2239.42,1190.41 2241.56,1190.71 2243.7,1191 2245.84,1191.3 2247.98,1191.59 2250.12,1191.88 2252.26,1192.18 2254.4,1192.47 2256.54,1192.76 2258.68,1193.05 2260.82,1193.34 2262.95,1193.63 2265.09,1193.92 2267.23,1194.21 2269.37,1194.49 2271.51,1194.78 2273.65,1195.07 2275.79,1195.35 2277.93,1195.64 2280.07,1195.92 2282.21,1196.21 2284.35,1196.49 2286.49,1196.78 2288.63,1197.06 "/>
<path clip-path="url(#clip690)" d="M1833.66 200.05 L2277.23 200.05 L2277.23 96.3696 L1833.66 96.3696  Z" fill="#ffffff" fill-rule="evenodd" fill-opacity="1"/>
<polyline clip-path="url(#clip690)" style="stroke:#000000; stroke-linecap:round; stroke-linejoin:round; stroke-width:4; stroke-opacity:1; fill:none" points="1833.66,200.05 2277.23,200.05 2277.23,96.3696 1833.66,96.3696 1833.66,200.05 "/>
<polyline clip-path="url(#clip690)" style="stroke:#009af9; stroke-linecap:round; stroke-linejoin:round; stroke-width:4; stroke-opacity:1; fill:none" points="1858.84,148.21 2009.89,148.21 "/>
<path clip-path="url(#clip690)" d="M2035.07 129.471 L2039.32 129.471 L2039.32 165.49 L2035.07 165.49 L2035.07 129.471 Z" fill="#000000" fill-rule="nonzero" fill-opacity="1" /><path clip-path="url(#clip690)" d="M2048.24 139.564 L2052.5 139.564 L2052.5 165.49 L2048.24 165.49 L2048.24 139.564 M2048.24 129.471 L2052.5 129.471 L2052.5 134.865 L2048.24 134.865 L2048.24 129.471 Z" fill="#000000" fill-rule="nonzero" fill-opacity="1" /><path clip-path="url(#clip690)" d="M2061.25 129.471 L2065.53 129.471 L2065.53 150.744 L2078.24 139.564 L2083.68 139.564 L2069.93 151.693 L2084.26 165.49 L2078.7 165.49 L2065.53 152.828 L2065.53 165.49 L2061.25 165.49 L2061.25 129.471 Z" fill="#000000" fill-rule="nonzero" fill-opacity="1" /><path clip-path="url(#clip690)" d="M2109.35 151.462 L2109.35 153.545 L2089.76 153.545 Q2090.04 157.943 2092.4 160.258 Q2094.79 162.55 2099.02 162.55 Q2101.48 162.55 2103.77 161.948 Q2106.08 161.346 2108.35 160.142 L2108.35 164.17 Q2106.06 165.142 2103.65 165.652 Q2101.25 166.161 2098.77 166.161 Q2092.57 166.161 2088.93 162.55 Q2085.32 158.939 2085.32 152.781 Q2085.32 146.416 2088.75 142.689 Q2092.2 138.939 2098.03 138.939 Q2103.26 138.939 2106.29 142.318 Q2109.35 145.675 2109.35 151.462 M2105.09 150.212 Q2105.04 146.717 2103.12 144.633 Q2101.22 142.55 2098.07 142.55 Q2094.51 142.55 2092.36 144.564 Q2090.23 146.578 2089.9 150.235 L2105.09 150.212 Z" fill="#000000" fill-rule="nonzero" fill-opacity="1" /><path clip-path="url(#clip690)" d="M2116.34 129.471 L2120.6 129.471 L2120.6 165.49 L2116.34 165.49 L2116.34 129.471 Z" fill="#000000" fill-rule="nonzero" fill-opacity="1" /><path clip-path="url(#clip690)" d="M2129.51 139.564 L2133.77 139.564 L2133.77 165.49 L2129.51 165.49 L2129.51 139.564 M2129.51 129.471 L2133.77 129.471 L2133.77 134.865 L2129.51 134.865 L2129.51 129.471 Z" fill="#000000" fill-rule="nonzero" fill-opacity="1" /><path clip-path="url(#clip690)" d="M2164.23 149.841 L2164.23 165.49 L2159.97 165.49 L2159.97 149.98 Q2159.97 146.3 2158.54 144.471 Q2157.1 142.642 2154.23 142.642 Q2150.78 142.642 2148.79 144.842 Q2146.8 147.041 2146.8 150.837 L2146.8 165.49 L2142.52 165.49 L2142.52 129.471 L2146.8 129.471 L2146.8 143.592 Q2148.33 141.254 2150.39 140.096 Q2152.47 138.939 2155.18 138.939 Q2159.65 138.939 2161.94 141.717 Q2164.23 144.471 2164.23 149.841 Z" fill="#000000" fill-rule="nonzero" fill-opacity="1" /><path clip-path="url(#clip690)" d="M2182.77 142.55 Q2179.35 142.55 2177.36 145.235 Q2175.37 147.897 2175.37 152.55 Q2175.37 157.203 2177.33 159.888 Q2179.32 162.55 2182.77 162.55 Q2186.18 162.55 2188.17 159.865 Q2190.16 157.179 2190.16 152.55 Q2190.16 147.943 2188.17 145.258 Q2186.18 142.55 2182.77 142.55 M2182.77 138.939 Q2188.33 138.939 2191.5 142.55 Q2194.67 146.161 2194.67 152.55 Q2194.67 158.916 2191.5 162.55 Q2188.33 166.161 2182.77 166.161 Q2177.19 166.161 2174.02 162.55 Q2170.88 158.916 2170.88 152.55 Q2170.88 146.161 2174.02 142.55 Q2177.19 138.939 2182.77 138.939 Z" fill="#000000" fill-rule="nonzero" fill-opacity="1" /><path clip-path="url(#clip690)" d="M2211.78 142.55 Q2208.35 142.55 2206.36 145.235 Q2204.37 147.897 2204.37 152.55 Q2204.37 157.203 2206.34 159.888 Q2208.33 162.55 2211.78 162.55 Q2215.18 162.55 2217.17 159.865 Q2219.16 157.179 2219.16 152.55 Q2219.16 147.943 2217.17 145.258 Q2215.18 142.55 2211.78 142.55 M2211.78 138.939 Q2217.33 138.939 2220.5 142.55 Q2223.68 146.161 2223.68 152.55 Q2223.68 158.916 2220.5 162.55 Q2217.33 166.161 2211.78 166.161 Q2206.2 166.161 2203.03 162.55 Q2199.88 158.916 2199.88 152.55 Q2199.88 146.161 2203.03 142.55 Q2206.2 138.939 2211.78 138.939 Z" fill="#000000" fill-rule="nonzero" fill-opacity="1" /><path clip-path="url(#clip690)" d="M2247.8 143.499 L2247.8 129.471 L2252.06 129.471 L2252.06 165.49 L2247.8 165.49 L2247.8 161.601 Q2246.45 163.915 2244.39 165.05 Q2242.36 166.161 2239.49 166.161 Q2234.79 166.161 2231.82 162.411 Q2228.88 158.661 2228.88 152.55 Q2228.88 146.439 2231.82 142.689 Q2234.79 138.939 2239.49 138.939 Q2242.36 138.939 2244.39 140.073 Q2246.45 141.184 2247.8 143.499 M2233.28 152.55 Q2233.28 157.249 2235.2 159.934 Q2237.15 162.596 2240.53 162.596 Q2243.91 162.596 2245.85 159.934 Q2247.8 157.249 2247.8 152.55 Q2247.8 147.851 2245.85 145.189 Q2243.91 142.504 2240.53 142.504 Q2237.15 142.504 2235.2 145.189 Q2233.28 147.851 2233.28 152.55 Z" fill="#000000" fill-rule="nonzero" fill-opacity="1" /></svg>
