<?xml version="1.0" encoding="utf-8"?>
<svg xmlns="http://www.w3.org/2000/svg" xmlns:xlink="http://www.w3.org/1999/xlink" width="600" height="400" viewBox="0 0 2400 1600">
<defs>
  <clipPath id="clip510">
    <rect x="0" y="0" width="2400" height="1600"/>
  </clipPath>
</defs>
<path clip-path="url(#clip510)" d="M0 1600 L2400 1600 L2400 0 L0 0  Z" fill="#ffffff" fill-rule="evenodd" fill-opacity="1"/>
<defs>
  <clipPath id="clip511">
    <rect x="480" y="0" width="1681" height="1600"/>
  </clipPath>
</defs>
<path clip-path="url(#clip510)" d="M86.9921 1521.01 L2352.76 1521.01 L2352.76 47.2441 L86.9921 47.2441  Z" fill="#ffffff" fill-rule="evenodd" fill-opacity="1"/>
<defs>
  <clipPath id="clip512">
    <rect x="86" y="47" width="2267" height="1475"/>
  </clipPath>
</defs>
<polyline clip-path="url(#clip512)" style="stroke:#000000; stroke-linecap:round; stroke-linejoin:round; stroke-width:2; stroke-opacity:0.1; fill:none" points="150.048,1521.01 150.048,47.2441 "/>
<polyline clip-path="url(#clip512)" style="stroke:#000000; stroke-linecap:round; stroke-linejoin:round; stroke-width:2; stroke-opacity:0.1; fill:none" points="684.694,1521.01 684.694,47.2441 "/>
<polyline clip-path="url(#clip512)" style="stroke:#000000; stroke-linecap:round; stroke-linejoin:round; stroke-width:2; stroke-opacity:0.1; fill:none" points="1219.34,1521.01 1219.34,47.2441 "/>
<polyline clip-path="url(#clip512)" style="stroke:#000000; stroke-linecap:round; stroke-linejoin:round; stroke-width:2; stroke-opacity:0.1; fill:none" points="1753.98,1521.01 1753.98,47.2441 "/>
<polyline clip-path="url(#clip512)" style="stroke:#000000; stroke-linecap:round; stroke-linejoin:round; stroke-width:2; stroke-opacity:0.1; fill:none" points="2288.63,1521.01 2288.63,47.2441 "/>
<polyline clip-path="url(#clip510)" style="stroke:#000000; stroke-linecap:round; stroke-linejoin:round; stroke-width:4; stroke-opacity:1; fill:none" points="86.9921,1521.01 2352.76,1521.01 "/>
<polyline clip-path="url(#clip510)" style="stroke:#000000; stroke-linecap:round; stroke-linejoin:round; stroke-width:4; stroke-opacity:1; fill:none" points="150.048,1521.01 150.048,1502.11 "/>
<polyline clip-path="url(#clip510)" style="stroke:#000000; stroke-linecap:round; stroke-linejoin:round; stroke-width:4; stroke-opacity:1; fill:none" points="684.694,1521.01 684.694,1502.11 "/>
<polyline clip-path="url(#clip510)" style="stroke:#000000; stroke-linecap:round; stroke-linejoin:round; stroke-width:4; stroke-opacity:1; fill:none" points="1219.34,1521.01 1219.34,1502.11 "/>
<polyline clip-path="url(#clip510)" style="stroke:#000000; stroke-linecap:round; stroke-linejoin:round; stroke-width:4; stroke-opacity:1; fill:none" points="1753.98,1521.01 1753.98,1502.11 "/>
<polyline clip-path="url(#clip510)" style="stroke:#000000; stroke-linecap:round; stroke-linejoin:round; stroke-width:4; stroke-opacity:1; fill:none" points="2288.63,1521.01 2288.63,1502.11 "/>
<path clip-path="url(#clip510)" d="M150.048 1551.93 Q146.437 1551.93 144.608 1555.49 Q142.803 1559.03 142.803 1566.16 Q142.803 1573.27 144.608 1576.83 Q146.437 1580.38 150.048 1580.38 Q153.682 1580.38 155.488 1576.83 Q157.317 1573.27 157.317 1566.16 Q157.317 1559.03 155.488 1555.49 Q153.682 1551.93 150.048 1551.93 M150.048 1548.22 Q155.858 1548.22 158.914 1552.83 Q161.993 1557.41 161.993 1566.16 Q161.993 1574.89 158.914 1579.5 Q155.858 1584.08 150.048 1584.08 Q144.238 1584.08 141.159 1579.5 Q138.104 1574.89 138.104 1566.16 Q138.104 1557.41 141.159 1552.83 Q144.238 1548.22 150.048 1548.22 Z" fill="#000000" fill-rule="nonzero" fill-opacity="1" /><path clip-path="url(#clip510)" d="M644.312 1548.85 L662.668 1548.85 L662.668 1552.78 L648.594 1552.78 L648.594 1561.26 Q649.613 1560.91 650.631 1560.75 Q651.65 1560.56 652.669 1560.56 Q658.456 1560.56 661.835 1563.73 Q665.215 1566.9 665.215 1572.32 Q665.215 1577.9 661.743 1581 Q658.27 1584.08 651.951 1584.08 Q649.775 1584.08 647.506 1583.71 Q645.261 1583.34 642.854 1582.6 L642.854 1577.9 Q644.937 1579.03 647.159 1579.59 Q649.381 1580.14 651.858 1580.14 Q655.863 1580.14 658.201 1578.04 Q660.539 1575.93 660.539 1572.32 Q660.539 1568.71 658.201 1566.6 Q655.863 1564.5 651.858 1564.5 Q649.983 1564.5 648.108 1564.91 Q646.257 1565.33 644.312 1566.21 L644.312 1548.85 Z" fill="#000000" fill-rule="nonzero" fill-opacity="1" /><path clip-path="url(#clip510)" d="M684.428 1551.93 Q680.817 1551.93 678.988 1555.49 Q677.182 1559.03 677.182 1566.16 Q677.182 1573.27 678.988 1576.83 Q680.817 1580.38 684.428 1580.38 Q688.062 1580.38 689.867 1576.83 Q691.696 1573.27 691.696 1566.16 Q691.696 1559.03 689.867 1555.49 Q688.062 1551.93 684.428 1551.93 M684.428 1548.22 Q690.238 1548.22 693.293 1552.83 Q696.372 1557.41 696.372 1566.16 Q696.372 1574.89 693.293 1579.5 Q690.238 1584.08 684.428 1584.08 Q678.617 1584.08 675.539 1579.5 Q672.483 1574.89 672.483 1566.16 Q672.483 1557.41 675.539 1552.83 Q678.617 1548.22 684.428 1548.22 Z" fill="#000000" fill-rule="nonzero" fill-opacity="1" /><path clip-path="url(#clip510)" d="M714.589 1551.93 Q710.978 1551.93 709.15 1555.49 Q707.344 1559.03 707.344 1566.16 Q707.344 1573.27 709.15 1576.83 Q710.978 1580.38 714.589 1580.38 Q718.224 1580.38 720.029 1576.83 Q721.858 1573.27 721.858 1566.16 Q721.858 1559.03 720.029 1555.49 Q718.224 1551.93 714.589 1551.93 M714.589 1548.22 Q720.4 1548.22 723.455 1552.83 Q726.534 1557.41 726.534 1566.16 Q726.534 1574.89 723.455 1579.5 Q720.4 1584.08 714.589 1584.08 Q708.779 1584.08 705.701 1579.5 Q702.645 1574.89 702.645 1566.16 Q702.645 1557.41 705.701 1552.83 Q708.779 1548.22 714.589 1548.22 Z" fill="#000000" fill-rule="nonzero" fill-opacity="1" /><path clip-path="url(#clip510)" d="M1163.87 1579.47 L1171.5 1579.47 L1171.5 1553.11 L1163.19 1554.77 L1163.19 1550.51 L1171.46 1548.85 L1176.13 1548.85 L1176.13 1579.47 L1183.77 1579.47 L1183.77 1583.41 L1163.87 1583.41 L1163.87 1579.47 Z" fill="#000000" fill-rule="nonzero" fill-opacity="1" /><path clip-path="url(#clip510)" d="M1203.22 1551.93 Q1199.61 1551.93 1197.78 1555.49 Q1195.97 1559.03 1195.97 1566.16 Q1195.97 1573.27 1197.78 1576.83 Q1199.61 1580.38 1203.22 1580.38 Q1206.85 1580.38 1208.66 1576.83 Q1210.49 1573.27 1210.49 1566.16 Q1210.49 1559.03 1208.66 1555.49 Q1206.85 1551.93 1203.22 1551.93 M1203.22 1548.22 Q1209.03 1548.22 1212.08 1552.83 Q1215.16 1557.41 1215.16 1566.16 Q1215.16 1574.89 1212.08 1579.5 Q1209.03 1584.08 1203.22 1584.08 Q1197.41 1584.08 1194.33 1579.5 Q1191.27 1574.89 1191.27 1566.16 Q1191.27 1557.41 1194.33 1552.83 Q1197.41 1548.22 1203.22 1548.22 Z" fill="#000000" fill-rule="nonzero" fill-opacity="1" /><path clip-path="url(#clip510)" d="M1233.38 1551.93 Q1229.77 1551.93 1227.94 1555.49 Q1226.13 1559.03 1226.13 1566.16 Q1226.13 1573.27 1227.94 1576.83 Q1229.77 1580.38 1233.38 1580.38 Q1237.01 1580.38 1238.82 1576.83 Q1240.65 1573.27 1240.65 1566.16 Q1240.65 1559.03 1238.82 1555.49 Q1237.01 1551.93 1233.38 1551.93 M1233.38 1548.22 Q1239.19 1548.22 1242.24 1552.83 Q1245.32 1557.41 1245.32 1566.16 Q1245.32 1574.89 1242.24 1579.5 Q1239.19 1584.08 1233.38 1584.08 Q1227.57 1584.08 1224.49 1579.5 Q1221.43 1574.89 1221.43 1566.16 Q1221.43 1557.41 1224.49 1552.83 Q1227.57 1548.22 1233.38 1548.22 Z" fill="#000000" fill-rule="nonzero" fill-opacity="1" /><path clip-path="url(#clip510)" d="M1263.54 1551.93 Q1259.93 1551.93 1258.1 1555.49 Q1256.3 1559.03 1256.3 1566.16 Q1256.3 1573.27 1258.1 1576.83 Q1259.93 1580.38 1263.54 1580.38 Q1267.17 1580.38 1268.98 1576.83 Q1270.81 1573.27 1270.81 1566.16 Q1270.81 1559.03 1268.98 1555.49 Q1267.17 1551.93 1263.54 1551.93 M1263.54 1548.22 Q1269.35 1548.22 1272.41 1552.83 Q1275.48 1557.41 1275.48 1566.16 Q1275.48 1574.89 1272.41 1579.5 Q1269.35 1584.08 1263.54 1584.08 Q1257.73 1584.08 1254.65 1579.5 Q1251.6 1574.89 1251.6 1566.16 Q1251.6 1557.41 1254.65 1552.83 Q1257.73 1548.22 1263.54 1548.22 Z" fill="#000000" fill-rule="nonzero" fill-opacity="1" /><path clip-path="url(#clip510)" d="M1698.51 1579.47 L1706.15 1579.47 L1706.15 1553.11 L1697.84 1554.77 L1697.84 1550.51 L1706.1 1548.85 L1710.78 1548.85 L1710.78 1579.47 L1718.42 1579.47 L1718.42 1583.41 L1698.51 1583.41 L1698.51 1579.47 Z" fill="#000000" fill-rule="nonzero" fill-opacity="1" /><path clip-path="url(#clip510)" d="M1727.91 1548.85 L1746.27 1548.85 L1746.27 1552.78 L1732.19 1552.78 L1732.19 1561.26 Q1733.21 1560.91 1734.23 1560.75 Q1735.25 1560.56 1736.27 1560.56 Q1742.05 1560.56 1745.43 1563.73 Q1748.81 1566.9 1748.81 1572.32 Q1748.81 1577.9 1745.34 1581 Q1741.87 1584.08 1735.55 1584.08 Q1733.37 1584.08 1731.1 1583.71 Q1728.86 1583.34 1726.45 1582.6 L1726.45 1577.9 Q1728.53 1579.03 1730.76 1579.59 Q1732.98 1580.14 1735.45 1580.14 Q1739.46 1580.14 1741.8 1578.04 Q1744.14 1575.93 1744.14 1572.32 Q1744.14 1568.71 1741.8 1566.6 Q1739.46 1564.5 1735.45 1564.5 Q1733.58 1564.5 1731.7 1564.91 Q1729.85 1565.33 1727.91 1566.21 L1727.91 1548.85 Z" fill="#000000" fill-rule="nonzero" fill-opacity="1" /><path clip-path="url(#clip510)" d="M1768.02 1551.93 Q1764.41 1551.93 1762.58 1555.49 Q1760.78 1559.03 1760.78 1566.16 Q1760.78 1573.27 1762.58 1576.83 Q1764.41 1580.38 1768.02 1580.38 Q1771.66 1580.38 1773.46 1576.83 Q1775.29 1573.27 1775.29 1566.16 Q1775.29 1559.03 1773.46 1555.49 Q1771.66 1551.93 1768.02 1551.93 M1768.02 1548.22 Q1773.83 1548.22 1776.89 1552.83 Q1779.97 1557.41 1779.97 1566.16 Q1779.97 1574.89 1776.89 1579.5 Q1773.83 1584.08 1768.02 1584.08 Q1762.21 1584.08 1759.14 1579.5 Q1756.08 1574.89 1756.08 1566.16 Q1756.08 1557.41 1759.14 1552.83 Q1762.21 1548.22 1768.02 1548.22 Z" fill="#000000" fill-rule="nonzero" fill-opacity="1" /><path clip-path="url(#clip510)" d="M1798.19 1551.93 Q1794.58 1551.93 1792.75 1555.49 Q1790.94 1559.03 1790.94 1566.16 Q1790.94 1573.27 1792.75 1576.83 Q1794.58 1580.38 1798.19 1580.38 Q1801.82 1580.38 1803.63 1576.83 Q1805.45 1573.27 1805.45 1566.16 Q1805.45 1559.03 1803.63 1555.49 Q1801.82 1551.93 1798.19 1551.93 M1798.19 1548.22 Q1804 1548.22 1807.05 1552.83 Q1810.13 1557.41 1810.13 1566.16 Q1810.13 1574.89 1807.05 1579.5 Q1804 1584.08 1798.19 1584.08 Q1792.38 1584.08 1789.3 1579.5 Q1786.24 1574.89 1786.24 1566.16 Q1786.24 1557.41 1789.3 1552.83 Q1792.38 1548.22 1798.19 1548.22 Z" fill="#000000" fill-rule="nonzero" fill-opacity="1" /><path clip-path="url(#clip510)" d="M2237.24 1579.47 L2253.56 1579.47 L2253.56 1583.41 L2231.62 1583.41 L2231.62 1579.47 Q2234.28 1576.72 2238.86 1572.09 Q2243.47 1567.44 2244.65 1566.09 Q2246.89 1563.57 2247.77 1561.83 Q2248.68 1560.07 2248.68 1558.38 Q2248.68 1555.63 2246.73 1553.89 Q2244.81 1552.16 2241.71 1552.16 Q2239.51 1552.16 2237.06 1552.92 Q2234.63 1553.69 2231.85 1555.24 L2231.85 1550.51 Q2234.67 1549.38 2237.13 1548.8 Q2239.58 1548.22 2241.62 1548.22 Q2246.99 1548.22 2250.18 1550.91 Q2253.38 1553.59 2253.38 1558.08 Q2253.38 1560.21 2252.57 1562.13 Q2251.78 1564.03 2249.67 1566.63 Q2249.09 1567.3 2245.99 1570.51 Q2242.89 1573.71 2237.24 1579.47 Z" fill="#000000" fill-rule="nonzero" fill-opacity="1" /><path clip-path="url(#clip510)" d="M2273.38 1551.93 Q2269.76 1551.93 2267.94 1555.49 Q2266.13 1559.03 2266.13 1566.16 Q2266.13 1573.27 2267.94 1576.83 Q2269.76 1580.38 2273.38 1580.38 Q2277.01 1580.38 2278.82 1576.83 Q2280.64 1573.27 2280.64 1566.16 Q2280.64 1559.03 2278.82 1555.49 Q2277.01 1551.93 2273.38 1551.93 M2273.38 1548.22 Q2279.19 1548.22 2282.24 1552.83 Q2285.32 1557.41 2285.32 1566.16 Q2285.32 1574.89 2282.24 1579.5 Q2279.19 1584.08 2273.38 1584.08 Q2267.57 1584.08 2264.49 1579.5 Q2261.43 1574.89 2261.43 1566.16 Q2261.43 1557.41 2264.49 1552.83 Q2267.57 1548.22 2273.38 1548.22 Z" fill="#000000" fill-rule="nonzero" fill-opacity="1" /><path clip-path="url(#clip510)" d="M2303.54 1551.93 Q2299.93 1551.93 2298.1 1555.49 Q2296.29 1559.03 2296.29 1566.16 Q2296.29 1573.27 2298.1 1576.83 Q2299.93 1580.38 2303.54 1580.38 Q2307.17 1580.38 2308.98 1576.83 Q2310.81 1573.27 2310.81 1566.16 Q2310.81 1559.03 2308.98 1555.49 Q2307.17 1551.93 2303.54 1551.93 M2303.54 1548.22 Q2309.35 1548.22 2312.4 1552.83 Q2315.48 1557.41 2315.48 1566.16 Q2315.48 1574.89 2312.4 1579.5 Q2309.35 1584.08 2303.54 1584.08 Q2297.73 1584.08 2294.65 1579.5 Q2291.59 1574.89 2291.59 1566.16 Q2291.59 1557.41 2294.65 1552.83 Q2297.73 1548.22 2303.54 1548.22 Z" fill="#000000" fill-rule="nonzero" fill-opacity="1" /><path clip-path="url(#clip510)" d="M2333.7 1551.93 Q2330.09 1551.93 2328.26 1555.49 Q2326.45 1559.03 2326.45 1566.16 Q2326.45 1573.27 2328.26 1576.83 Q2330.09 1580.38 2333.7 1580.38 Q2337.33 1580.38 2339.14 1576.83 Q2340.97 1573.27 2340.97 1566.16 Q2340.97 1559.03 2339.14 1555.49 Q2337.33 1551.93 2333.7 1551.93 M2333.7 1548.22 Q2339.51 1548.22 2342.57 1552.83 Q2345.64 1557.41 2345.64 1566.16 Q2345.64 1574.89 2342.57 1579.5 Q2339.51 1584.08 2333.7 1584.08 Q2327.89 1584.08 2324.81 1579.5 Q2321.76 1574.89 2321.76 1566.16 Q2321.76 1557.41 2324.81 1552.83 Q2327.89 1548.22 2333.7 1548.22 Z" fill="#000000" fill-rule="nonzero" fill-opacity="1" /><polyline clip-path="url(#clip512)" style="stroke:#000000; stroke-linecap:round; stroke-linejoin:round; stroke-width:2; stroke-opacity:0.1; fill:none" points="86.9921,1479.3 2352.76,1479.3 "/>
<polyline clip-path="url(#clip512)" style="stroke:#000000; stroke-linecap:round; stroke-linejoin:round; stroke-width:2; stroke-opacity:0.1; fill:none" points="86.9921,1180.81 2352.76,1180.81 "/>
<polyline clip-path="url(#clip512)" style="stroke:#000000; stroke-linecap:round; stroke-linejoin:round; stroke-width:2; stroke-opacity:0.1; fill:none" points="86.9921,882.332 2352.76,882.332 "/>
<polyline clip-path="url(#clip512)" style="stroke:#000000; stroke-linecap:round; stroke-linejoin:round; stroke-width:2; stroke-opacity:0.1; fill:none" points="86.9921,583.849 2352.76,583.849 "/>
<polyline clip-path="url(#clip512)" style="stroke:#000000; stroke-linecap:round; stroke-linejoin:round; stroke-width:2; stroke-opacity:0.1; fill:none" points="86.9921,285.366 2352.76,285.366 "/>
<polyline clip-path="url(#clip510)" style="stroke:#000000; stroke-linecap:round; stroke-linejoin:round; stroke-width:4; stroke-opacity:1; fill:none" points="86.9921,1521.01 86.9921,47.2441 "/>
<polyline clip-path="url(#clip510)" style="stroke:#000000; stroke-linecap:round; stroke-linejoin:round; stroke-width:4; stroke-opacity:1; fill:none" points="86.9921,1479.3 105.89,1479.3 "/>
<polyline clip-path="url(#clip510)" style="stroke:#000000; stroke-linecap:round; stroke-linejoin:round; stroke-width:4; stroke-opacity:1; fill:none" points="86.9921,1180.81 105.89,1180.81 "/>
<polyline clip-path="url(#clip510)" style="stroke:#000000; stroke-linecap:round; stroke-linejoin:round; stroke-width:4; stroke-opacity:1; fill:none" points="86.9921,882.332 105.89,882.332 "/>
<polyline clip-path="url(#clip510)" style="stroke:#000000; stroke-linecap:round; stroke-linejoin:round; stroke-width:4; stroke-opacity:1; fill:none" points="86.9921,583.849 105.89,583.849 "/>
<polyline clip-path="url(#clip510)" style="stroke:#000000; stroke-linecap:round; stroke-linejoin:round; stroke-width:4; stroke-opacity:1; fill:none" points="86.9921,285.366 105.89,285.366 "/>
<path clip-path="url(#clip510)" d="M10.8708 1547.16 Q10.8708 1550.77 14.4356 1552.6 Q17.9773 1554.4 25.1068 1554.4 Q32.2133 1554.4 35.7781 1552.6 Q39.3197 1550.77 39.3197 1547.16 Q39.3197 1543.52 35.7781 1541.72 Q32.2133 1539.89 25.1068 1539.89 Q17.9773 1539.89 14.4356 1541.72 Q10.8708 1543.52 10.8708 1547.16 M7.16713 1547.16 Q7.16713 1541.35 11.7736 1538.29 Q16.3569 1535.21 25.1068 1535.21 Q33.8337 1535.21 38.4401 1538.29 Q43.0234 1541.35 43.0234 1547.16 Q43.0234 1552.97 38.4401 1556.04 Q33.8337 1559.1 25.1068 1559.1 Q16.3569 1559.1 11.7736 1556.04 Q7.16713 1552.97 7.16713 1547.16 Z" fill="#000000" fill-rule="nonzero" fill-opacity="1" /><path clip-path="url(#clip510)" d="M36.4725 1526.99 L36.4725 1522.11 L42.3521 1522.11 L42.3521 1526.99 L36.4725 1526.99 Z" fill="#000000" fill-rule="nonzero" fill-opacity="1" /><path clip-path="url(#clip510)" d="M10.8708 1501.92 Q10.8708 1505.54 14.4356 1507.36 Q17.9773 1509.17 25.1068 1509.17 Q32.2133 1509.17 35.7781 1507.36 Q39.3197 1505.54 39.3197 1501.92 Q39.3197 1498.29 35.7781 1496.48 Q32.2133 1494.66 25.1068 1494.66 Q17.9773 1494.66 14.4356 1496.48 Q10.8708 1498.29 10.8708 1501.92 M7.16713 1501.92 Q7.16713 1496.11 11.7736 1493.06 Q16.3569 1489.98 25.1068 1489.98 Q33.8337 1489.98 38.4401 1493.06 Q43.0234 1496.11 43.0234 1501.92 Q43.0234 1507.73 38.4401 1510.81 Q33.8337 1513.87 25.1068 1513.87 Q16.3569 1513.87 11.7736 1510.81 Q7.16713 1507.73 7.16713 1501.92 Z" fill="#000000" fill-rule="nonzero" fill-opacity="1" /><path clip-path="url(#clip510)" d="M10.8708 1471.76 Q10.8708 1475.37 14.4356 1477.2 Q17.9773 1479.01 25.1068 1479.01 Q32.2133 1479.01 35.7781 1477.2 Q39.3197 1475.37 39.3197 1471.76 Q39.3197 1468.13 35.7781 1466.32 Q32.2133 1464.49 25.1068 1464.49 Q17.9773 1464.49 14.4356 1466.32 Q10.8708 1468.13 10.8708 1471.76 M7.16713 1471.76 Q7.16713 1465.95 11.7736 1462.9 Q16.3569 1459.82 25.1068 1459.82 Q33.8337 1459.82 38.4401 1462.9 Q43.0234 1465.95 43.0234 1471.76 Q43.0234 1477.57 38.4401 1480.65 Q33.8337 1483.71 25.1068 1483.71 Q16.3569 1483.71 11.7736 1480.65 Q7.16713 1477.57 7.16713 1471.76 Z" fill="#000000" fill-rule="nonzero" fill-opacity="1" /><path clip-path="url(#clip510)" d="M10.8708 1441.6 Q10.8708 1445.21 14.4356 1447.04 Q17.9773 1448.85 25.1068 1448.85 Q32.2133 1448.85 35.7781 1447.04 Q39.3197 1445.21 39.3197 1441.6 Q39.3197 1437.97 35.7781 1436.16 Q32.2133 1434.33 25.1068 1434.33 Q17.9773 1434.33 14.4356 1436.16 Q10.8708 1437.97 10.8708 1441.6 M7.16713 1441.6 Q7.16713 1435.79 11.7736 1432.74 Q16.3569 1429.66 25.1068 1429.66 Q33.8337 1429.66 38.4401 1432.74 Q43.0234 1435.79 43.0234 1441.6 Q43.0234 1447.41 38.4401 1450.49 Q33.8337 1453.55 25.1068 1453.55 Q16.3569 1453.55 11.7736 1450.49 Q7.16713 1447.41 7.16713 1441.6 Z" fill="#000000" fill-rule="nonzero" fill-opacity="1" /><path clip-path="url(#clip510)" d="M10.8708 1411.44 Q10.8708 1415.05 14.4356 1416.88 Q17.9773 1418.68 25.1068 1418.68 Q32.2133 1418.68 35.7781 1416.88 Q39.3197 1415.05 39.3197 1411.44 Q39.3197 1407.8 35.7781 1406 Q32.2133 1404.17 25.1068 1404.17 Q17.9773 1404.17 14.4356 1406 Q10.8708 1407.8 10.8708 1411.44 M7.16713 1411.44 Q7.16713 1405.63 11.7736 1402.57 Q16.3569 1399.49 25.1068 1399.49 Q33.8337 1399.49 38.4401 1402.57 Q43.0234 1405.63 43.0234 1411.44 Q43.0234 1417.25 38.4401 1420.33 Q33.8337 1423.38 25.1068 1423.38 Q16.3569 1423.38 11.7736 1420.33 Q7.16713 1417.25 7.16713 1411.44 Z" fill="#000000" fill-rule="nonzero" fill-opacity="1" /><path clip-path="url(#clip510)" d="M10.8708 1248.06 Q10.8708 1251.67 14.4356 1253.5 Q17.9773 1255.31 25.1068 1255.31 Q32.2133 1255.31 35.7781 1253.5 Q39.3197 1251.67 39.3197 1248.06 Q39.3197 1244.43 35.7781 1242.62 Q32.2133 1240.79 25.1068 1240.79 Q17.9773 1240.79 14.4356 1242.62 Q10.8708 1244.43 10.8708 1248.06 M7.16713 1248.06 Q7.16713 1242.25 11.7736 1239.19 Q16.3569 1236.12 25.1068 1236.12 Q33.8337 1236.12 38.4401 1239.19 Q43.0234 1242.25 43.0234 1248.06 Q43.0234 1253.87 38.4401 1256.95 Q33.8337 1260 25.1068 1260 Q16.3569 1260 11.7736 1256.95 Q7.16713 1253.87 7.16713 1248.06 Z" fill="#000000" fill-rule="nonzero" fill-opacity="1" /><path clip-path="url(#clip510)" d="M36.4725 1227.9 L36.4725 1223.01 L42.3521 1223.01 L42.3521 1227.9 L36.4725 1227.9 Z" fill="#000000" fill-rule="nonzero" fill-opacity="1" /><path clip-path="url(#clip510)" d="M10.8708 1202.83 Q10.8708 1206.44 14.4356 1208.27 Q17.9773 1210.07 25.1068 1210.07 Q32.2133 1210.07 35.7781 1208.27 Q39.3197 1206.44 39.3197 1202.83 Q39.3197 1199.19 35.7781 1197.39 Q32.2133 1195.56 25.1068 1195.56 Q17.9773 1195.56 14.4356 1197.39 Q10.8708 1199.19 10.8708 1202.83 M7.16713 1202.83 Q7.16713 1197.02 11.7736 1193.96 Q16.3569 1190.88 25.1068 1190.88 Q33.8337 1190.88 38.4401 1193.96 Q43.0234 1197.02 43.0234 1202.83 Q43.0234 1208.64 38.4401 1211.72 Q33.8337 1214.77 25.1068 1214.77 Q16.3569 1214.77 11.7736 1211.72 Q7.16713 1208.64 7.16713 1202.83 Z" fill="#000000" fill-rule="nonzero" fill-opacity="1" /><path clip-path="url(#clip510)" d="M10.8708 1172.67 Q10.8708 1176.28 14.4356 1178.11 Q17.9773 1179.91 25.1068 1179.91 Q32.2133 1179.91 35.7781 1178.11 Q39.3197 1176.28 39.3197 1172.67 Q39.3197 1169.03 35.7781 1167.23 Q32.2133 1165.4 25.1068 1165.4 Q17.9773 1165.4 14.4356 1167.23 Q10.8708 1169.03 10.8708 1172.67 M7.16713 1172.67 Q7.16713 1166.86 11.7736 1163.8 Q16.3569 1160.72 25.1068 1160.72 Q33.8337 1160.72 38.4401 1163.8 Q43.0234 1166.86 43.0234 1172.67 Q43.0234 1178.48 38.4401 1181.56 Q33.8337 1184.61 25.1068 1184.61 Q16.3569 1184.61 11.7736 1181.56 Q7.16713 1178.48 7.16713 1172.67 Z" fill="#000000" fill-rule="nonzero" fill-opacity="1" /><path clip-path="url(#clip510)" d="M10.8708 1142.5 Q10.8708 1146.12 14.4356 1147.94 Q17.9773 1149.75 25.1068 1149.75 Q32.2133 1149.75 35.7781 1147.94 Q39.3197 1146.12 39.3197 1142.5 Q39.3197 1138.87 35.7781 1137.06 Q32.2133 1135.24 25.1068 1135.24 Q17.9773 1135.24 14.4356 1137.06 Q10.8708 1138.87 10.8708 1142.5 M7.16713 1142.5 Q7.16713 1136.69 11.7736 1133.64 Q16.3569 1130.56 25.1068 1130.56 Q33.8337 1130.56 38.4401 1133.64 Q43.0234 1136.69 43.0234 1142.5 Q43.0234 1148.31 38.4401 1151.39 Q33.8337 1154.45 25.1068 1154.45 Q16.3569 1154.45 11.7736 1151.39 Q7.16713 1148.31 7.16713 1142.5 Z" fill="#000000" fill-rule="nonzero" fill-opacity="1" /><path clip-path="url(#clip510)" d="M38.417 1121.53 L38.417 1113.89 L12.0514 1113.89 L13.718 1122.2 L9.45878 1122.2 L7.79213 1113.94 L7.79213 1109.26 L38.417 1109.26 L38.417 1101.63 L42.3521 1101.63 L42.3521 1121.53 L38.417 1121.53 Z" fill="#000000" fill-rule="nonzero" fill-opacity="1" /><path clip-path="url(#clip510)" d="M10.8708 949.392 Q10.8708 953.003 14.4356 954.831 Q17.9773 956.637 25.1068 956.637 Q32.2133 956.637 35.7781 954.831 Q39.3197 953.003 39.3197 949.392 Q39.3197 945.757 35.7781 943.952 Q32.2133 942.123 25.1068 942.123 Q17.9773 942.123 14.4356 943.952 Q10.8708 945.757 10.8708 949.392 M7.16713 949.392 Q7.16713 943.581 11.7736 940.526 Q16.3569 937.447 25.1068 937.447 Q33.8337 937.447 38.4401 940.526 Q43.0234 943.581 43.0234 949.392 Q43.0234 955.202 38.4401 958.28 Q33.8337 961.336 25.1068 961.336 Q16.3569 961.336 11.7736 958.28 Q7.16713 955.202 7.16713 949.392 Z" fill="#000000" fill-rule="nonzero" fill-opacity="1" /><path clip-path="url(#clip510)" d="M36.4725 929.23 L36.4725 924.345 L42.3521 924.345 L42.3521 929.23 L36.4725 929.23 Z" fill="#000000" fill-rule="nonzero" fill-opacity="1" /><path clip-path="url(#clip510)" d="M10.8708 904.16 Q10.8708 907.771 14.4356 909.6 Q17.9773 911.406 25.1068 911.406 Q32.2133 911.406 35.7781 909.6 Q39.3197 907.771 39.3197 904.16 Q39.3197 900.526 35.7781 898.721 Q32.2133 896.892 25.1068 896.892 Q17.9773 896.892 14.4356 898.721 Q10.8708 900.526 10.8708 904.16 M7.16713 904.16 Q7.16713 898.35 11.7736 895.295 Q16.3569 892.216 25.1068 892.216 Q33.8337 892.216 38.4401 895.295 Q43.0234 898.35 43.0234 904.16 Q43.0234 909.97 38.4401 913.049 Q33.8337 916.105 25.1068 916.105 Q16.3569 916.105 11.7736 913.049 Q7.16713 909.97 7.16713 904.16 Z" fill="#000000" fill-rule="nonzero" fill-opacity="1" /><path clip-path="url(#clip510)" d="M10.8708 873.998 Q10.8708 877.61 14.4356 879.438 Q17.9773 881.244 25.1068 881.244 Q32.2133 881.244 35.7781 879.438 Q39.3197 877.61 39.3197 873.998 Q39.3197 870.364 35.7781 868.559 Q32.2133 866.73 25.1068 866.73 Q17.9773 866.73 14.4356 868.559 Q10.8708 870.364 10.8708 873.998 M7.16713 873.998 Q7.16713 868.188 11.7736 865.133 Q16.3569 862.054 25.1068 862.054 Q33.8337 862.054 38.4401 865.133 Q43.0234 868.188 43.0234 873.998 Q43.0234 879.809 38.4401 882.887 Q33.8337 885.943 25.1068 885.943 Q16.3569 885.943 11.7736 882.887 Q7.16713 879.809 7.16713 873.998 Z" fill="#000000" fill-rule="nonzero" fill-opacity="1" /><path clip-path="url(#clip510)" d="M10.8708 843.837 Q10.8708 847.448 14.4356 849.276 Q17.9773 851.082 25.1068 851.082 Q32.2133 851.082 35.7781 849.276 Q39.3197 847.448 39.3197 843.837 Q39.3197 840.202 35.7781 838.397 Q32.2133 836.568 25.1068 836.568 Q17.9773 836.568 14.4356 838.397 Q10.8708 840.202 10.8708 843.837 M7.16713 843.837 Q7.16713 838.026 11.7736 834.971 Q16.3569 831.892 25.1068 831.892 Q33.8337 831.892 38.4401 834.971 Q43.0234 838.026 43.0234 843.837 Q43.0234 849.647 38.4401 852.725 Q33.8337 855.781 25.1068 855.781 Q16.3569 855.781 11.7736 852.725 Q7.16713 849.647 7.16713 843.837 Z" fill="#000000" fill-rule="nonzero" fill-opacity="1" /><path clip-path="url(#clip510)" d="M38.417 819.647 L38.417 803.328 L42.3521 803.328 L42.3521 825.272 L38.417 825.272 Q35.6623 822.61 31.0327 818.027 Q26.38 813.42 25.0374 812.24 Q22.5143 809.994 20.7782 809.115 Q19.0189 808.212 17.3291 808.212 Q14.5745 808.212 12.8384 810.156 Q11.1023 812.078 11.1023 815.179 Q11.1023 817.378 11.8662 819.832 Q12.6301 822.263 14.181 825.04 L9.45878 825.04 Q8.32453 822.216 7.74583 819.763 Q7.16713 817.309 7.16713 815.272 Q7.16713 809.902 9.8523 806.707 Q12.5375 803.513 17.0282 803.513 Q19.1578 803.513 21.0791 804.323 Q22.9772 805.11 25.5698 807.216 Q26.2411 807.795 29.4587 810.897 Q32.6531 813.999 38.417 819.647 Z" fill="#000000" fill-rule="nonzero" fill-opacity="1" /><path clip-path="url(#clip510)" d="M10.8708 651.383 Q10.8708 654.994 14.4356 656.823 Q17.9773 658.629 25.1068 658.629 Q32.2133 658.629 35.7781 656.823 Q39.3197 654.994 39.3197 651.383 Q39.3197 647.749 35.7781 645.943 Q32.2133 644.115 25.1068 644.115 Q17.9773 644.115 14.4356 645.943 Q10.8708 647.749 10.8708 651.383 M7.16713 651.383 Q7.16713 645.573 11.7736 642.518 Q16.3569 639.439 25.1068 639.439 Q33.8337 639.439 38.4401 642.518 Q43.0234 645.573 43.0234 651.383 Q43.0234 657.193 38.4401 660.272 Q33.8337 663.328 25.1068 663.328 Q16.3569 663.328 11.7736 660.272 Q7.16713 657.193 7.16713 651.383 Z" fill="#000000" fill-rule="nonzero" fill-opacity="1" /><path clip-path="url(#clip510)" d="M36.4725 631.221 L36.4725 626.337 L42.3521 626.337 L42.3521 631.221 L36.4725 631.221 Z" fill="#000000" fill-rule="nonzero" fill-opacity="1" /><path clip-path="url(#clip510)" d="M10.8708 606.152 Q10.8708 609.763 14.4356 611.592 Q17.9773 613.397 25.1068 613.397 Q32.2133 613.397 35.7781 611.592 Q39.3197 609.763 39.3197 606.152 Q39.3197 602.518 35.7781 600.712 Q32.2133 598.883 25.1068 598.883 Q17.9773 598.883 14.4356 600.712 Q10.8708 602.518 10.8708 606.152 M7.16713 606.152 Q7.16713 600.342 11.7736 597.286 Q16.3569 594.208 25.1068 594.208 Q33.8337 594.208 38.4401 597.286 Q43.0234 600.342 43.0234 606.152 Q43.0234 611.962 38.4401 615.041 Q33.8337 618.096 25.1068 618.096 Q16.3569 618.096 11.7736 615.041 Q7.16713 611.962 7.16713 606.152 Z" fill="#000000" fill-rule="nonzero" fill-opacity="1" /><path clip-path="url(#clip510)" d="M10.8708 575.99 Q10.8708 579.601 14.4356 581.43 Q17.9773 583.235 25.1068 583.235 Q32.2133 583.235 35.7781 581.43 Q39.3197 579.601 39.3197 575.99 Q39.3197 572.356 35.7781 570.55 Q32.2133 568.722 25.1068 568.722 Q17.9773 568.722 14.4356 570.55 Q10.8708 572.356 10.8708 575.99 M7.16713 575.99 Q7.16713 570.18 11.7736 567.124 Q16.3569 564.046 25.1068 564.046 Q33.8337 564.046 38.4401 567.124 Q43.0234 570.18 43.0234 575.99 Q43.0234 581.8 38.4401 584.879 Q33.8337 587.934 25.1068 587.934 Q16.3569 587.934 11.7736 584.879 Q7.16713 581.8 7.16713 575.99 Z" fill="#000000" fill-rule="nonzero" fill-opacity="1" /><path clip-path="url(#clip510)" d="M10.8708 545.828 Q10.8708 549.439 14.4356 551.268 Q17.9773 553.074 25.1068 553.074 Q32.2133 553.074 35.7781 551.268 Q39.3197 549.439 39.3197 545.828 Q39.3197 542.194 35.7781 540.388 Q32.2133 538.56 25.1068 538.56 Q17.9773 538.56 14.4356 540.388 Q10.8708 542.194 10.8708 545.828 M7.16713 545.828 Q7.16713 540.018 11.7736 536.963 Q16.3569 533.884 25.1068 533.884 Q33.8337 533.884 38.4401 536.963 Q43.0234 540.018 43.0234 545.828 Q43.0234 551.638 38.4401 554.717 Q33.8337 557.773 25.1068 557.773 Q16.3569 557.773 11.7736 554.717 Q7.16713 551.638 7.16713 545.828 Z" fill="#000000" fill-rule="nonzero" fill-opacity="1" /><path clip-path="url(#clip510)" d="M23.718 511.5 Q24.4356 508.143 26.7041 506.268 Q28.9726 504.37 32.3059 504.37 Q37.4216 504.37 40.2225 507.889 Q43.0234 511.407 43.0234 517.889 Q43.0234 520.064 42.5836 522.379 Q42.1669 524.671 41.3105 527.125 L36.7966 527.125 Q37.9309 525.18 38.5096 522.865 Q39.0883 520.551 39.0883 518.027 Q39.0883 513.629 37.3522 511.338 Q35.6161 509.023 32.3059 509.023 Q29.2503 509.023 27.5374 511.176 Q25.8013 513.305 25.8013 517.125 L25.8013 521.152 L21.9587 521.152 L21.9587 516.939 Q21.9587 513.49 20.593 511.662 Q19.2041 509.833 16.6115 509.833 Q13.9495 509.833 12.5375 511.731 Q11.1023 513.606 11.1023 517.125 Q11.1023 519.046 11.519 521.245 Q11.9356 523.444 12.8152 526.083 L8.6486 526.083 Q7.90787 523.421 7.5375 521.106 Q7.16713 518.768 7.16713 516.708 Q7.16713 511.384 9.59767 508.282 Q12.0051 505.18 16.1254 505.18 Q18.9958 505.18 20.9865 506.824 Q22.9541 508.467 23.718 511.5 Z" fill="#000000" fill-rule="nonzero" fill-opacity="1" /><path clip-path="url(#clip510)" d="M10.8708 353.467 Q10.8708 357.079 14.4356 358.907 Q17.9773 360.713 25.1068 360.713 Q32.2133 360.713 35.7781 358.907 Q39.3197 357.079 39.3197 353.467 Q39.3197 349.833 35.7781 348.028 Q32.2133 346.199 25.1068 346.199 Q17.9773 346.199 14.4356 348.028 Q10.8708 349.833 10.8708 353.467 M7.16713 353.467 Q7.16713 347.657 11.7736 344.602 Q16.3569 341.523 25.1068 341.523 Q33.8337 341.523 38.4401 344.602 Q43.0234 347.657 43.0234 353.467 Q43.0234 359.278 38.4401 362.356 Q33.8337 365.412 25.1068 365.412 Q16.3569 365.412 11.7736 362.356 Q7.16713 359.278 7.16713 353.467 Z" fill="#000000" fill-rule="nonzero" fill-opacity="1" /><path clip-path="url(#clip510)" d="M36.4725 333.305 L36.4725 328.421 L42.3521 328.421 L42.3521 333.305 L36.4725 333.305 Z" fill="#000000" fill-rule="nonzero" fill-opacity="1" /><path clip-path="url(#clip510)" d="M10.8708 308.236 Q10.8708 311.847 14.4356 313.676 Q17.9773 315.482 25.1068 315.482 Q32.2133 315.482 35.7781 313.676 Q39.3197 311.847 39.3197 308.236 Q39.3197 304.602 35.7781 302.796 Q32.2133 300.968 25.1068 300.968 Q17.9773 300.968 14.4356 302.796 Q10.8708 304.602 10.8708 308.236 M7.16713 308.236 Q7.16713 302.426 11.7736 299.37 Q16.3569 296.292 25.1068 296.292 Q33.8337 296.292 38.4401 299.37 Q43.0234 302.426 43.0234 308.236 Q43.0234 314.046 38.4401 317.125 Q33.8337 320.181 25.1068 320.181 Q16.3569 320.181 11.7736 317.125 Q7.16713 314.046 7.16713 308.236 Z" fill="#000000" fill-rule="nonzero" fill-opacity="1" /><path clip-path="url(#clip510)" d="M10.8708 278.074 Q10.8708 281.685 14.4356 283.514 Q17.9773 285.32 25.1068 285.32 Q32.2133 285.32 35.7781 283.514 Q39.3197 281.685 39.3197 278.074 Q39.3197 274.44 35.7781 272.635 Q32.2133 270.806 25.1068 270.806 Q17.9773 270.806 14.4356 272.635 Q10.8708 274.44 10.8708 278.074 M7.16713 278.074 Q7.16713 272.264 11.7736 269.209 Q16.3569 266.13 25.1068 266.13 Q33.8337 266.13 38.4401 269.209 Q43.0234 272.264 43.0234 278.074 Q43.0234 283.884 38.4401 286.963 Q33.8337 290.019 25.1068 290.019 Q16.3569 290.019 11.7736 286.963 Q7.16713 283.884 7.16713 278.074 Z" fill="#000000" fill-rule="nonzero" fill-opacity="1" /><path clip-path="url(#clip510)" d="M10.8708 247.912 Q10.8708 251.524 14.4356 253.352 Q17.9773 255.158 25.1068 255.158 Q32.2133 255.158 35.7781 253.352 Q39.3197 251.524 39.3197 247.912 Q39.3197 244.278 35.7781 242.473 Q32.2133 240.644 25.1068 240.644 Q17.9773 240.644 14.4356 242.473 Q10.8708 244.278 10.8708 247.912 M7.16713 247.912 Q7.16713 242.102 11.7736 239.047 Q16.3569 235.968 25.1068 235.968 Q33.8337 235.968 38.4401 239.047 Q43.0234 242.102 43.0234 247.912 Q43.0234 253.723 38.4401 256.801 Q33.8337 259.857 25.1068 259.857 Q16.3569 259.857 11.7736 256.801 Q7.16713 253.723 7.16713 247.912 Z" fill="#000000" fill-rule="nonzero" fill-opacity="1" /><path clip-path="url(#clip510)" d="M11.8662 214.903 L30.3152 226.709 L30.3152 214.903 L11.8662 214.903 M7.79213 216.13 L7.79213 210.251 L30.3152 210.251 L30.3152 205.32 L34.204 205.32 L34.204 210.251 L42.3521 210.251 L42.3521 214.903 L34.204 214.903 L34.204 230.505 L29.6902 230.505 L7.79213 216.13 Z" fill="#000000" fill-rule="nonzero" fill-opacity="1" /><polyline clip-path="url(#clip512)" style="stroke:#009af9; stroke-linecap:round; stroke-linejoin:round; stroke-width:4; stroke-opacity:1; fill:none" points="151.118,1479.3 152.187,1479.3 153.256,1479.3 154.325,1479.3 155.395,1479.3 156.464,1479.3 157.533,1479.3 158.603,1479.3 159.672,1479.3 160.741,1479.3 161.81,1479.3 162.88,1479.3 163.949,1479.3 165.018,1479.3 166.088,1479.3 167.157,1479.3 168.226,1479.3 169.295,1479.3 170.365,1479.3 171.434,1479.3 172.503,1479.3 173.573,1479.3 174.642,1479.3 175.711,1479.3 176.781,1479.3 177.85,1479.3 178.919,1479.3 179.988,1479.3 181.058,1479.3 182.127,1479.3 183.196,1479.3 184.266,1479.3 185.335,1479.3 186.404,1479.3 187.473,1479.3 188.543,1479.3 189.612,1479.3 190.681,1479.3 191.751,1479.3 192.82,1479.3 193.889,1479.3 194.958,1479.3 196.028,1479.3 197.097,1479.3 198.166,1479.3 199.236,1479.3 200.305,1479.3 201.374,1479.3 202.443,1479.3 203.513,1479.3 204.582,1479.3 205.651,1479.3 206.721,1479.3 207.79,1479.3 208.859,1479.3 209.929,1479.3 210.998,1479.3 212.067,1479.3 213.136,1479.3 214.206,1479.3 215.275,1479.3 216.344,1479.3 217.414,1479.3 218.483,1479.3 219.552,1479.3 220.621,1479.3 221.691,1479.3 222.76,1479.3 223.829,1479.3 224.899,1479.3 225.968,1479.3 227.037,1479.3 228.106,1479.3 229.176,1479.3 230.245,1479.3 231.314,1479.3 232.384,1479.3 233.453,1479.3 234.522,1479.3 235.592,1479.3 236.661,1479.3 237.73,1479.3 238.799,1479.3 239.869,1479.3 240.938,1479.3 242.007,1479.3 243.077,1479.3 244.146,1479.3 245.215,1479.3 246.284,1479.3 247.354,1479.3 248.423,1479.3 249.492,1479.3 250.562,1479.3 251.631,1479.3 252.7,1479.3 253.769,1479.3 254.839,1479.3 255.908,1479.3 256.977,1479.3 258.047,1479.3 259.116,1479.3 260.185,1479.3 261.255,1479.3 262.324,1479.3 263.393,1479.3 264.462,1479.3 265.532,1479.3 266.601,1479.3 267.67,1479.3 268.74,1479.3 269.809,1479.3 270.878,1479.3 271.947,1479.3 273.017,1479.3 274.086,1479.3 275.155,1479.3 276.225,1479.3 277.294,1479.3 278.363,1479.3 279.432,1479.3 280.502,1479.3 281.571,1479.3 282.64,1479.3 283.71,1479.3 284.779,1479.3 285.848,1479.3 286.917,1479.3 287.987,1479.3 289.056,1479.3 290.125,1479.3 291.195,1479.3 292.264,1479.3 293.333,1479.3 294.403,1479.3 295.472,1479.3 296.541,1479.3 297.61,1479.3 298.68,1479.3 299.749,1479.3 300.818,1479.3 301.888,1479.3 302.957,1479.3 304.026,1479.3 305.095,1479.3 306.165,1479.3 307.234,1479.3 308.303,1479.3 309.373,1479.3 310.442,1479.3 311.511,1479.3 312.58,1479.3 313.65,1479.3 314.719,1479.3 315.788,1479.3 316.858,1479.3 317.927,1479.3 318.996,1479.3 320.066,1479.3 321.135,1479.3 322.204,1479.3 323.273,1479.3 324.343,1479.3 325.412,1479.3 326.481,1479.3 327.551,1479.3 328.62,1479.3 329.689,1479.3 330.758,1479.3 331.828,1479.3 332.897,1479.3 333.966,1479.3 335.036,1479.3 336.105,1479.3 337.174,1479.3 338.243,1479.3 339.313,1479.3 340.382,1479.3 341.451,1479.3 342.521,1479.3 343.59,1479.3 344.659,1479.3 345.729,1479.3 346.798,1479.3 347.867,1479.3 348.936,1479.3 350.006,1479.3 351.075,1479.3 352.144,1479.3 353.214,1479.3 354.283,1479.3 355.352,1479.3 356.421,1479.3 357.491,1479.3 358.56,1479.3 359.629,1479.3 360.699,1479.3 361.768,1479.3 362.837,1479.3 363.906,1479.3 364.976,1479.3 366.045,1479.3 367.114,1460.18 368.184,1441.35 369.253,1422.8 370.322,1404.52 371.391,1386.52 372.461,1368.78 373.53,1351.3 374.599,1334.07 375.669,1317.1 376.738,1300.38 377.807,1283.91 378.877,1267.67 379.946,1251.68 381.015,1235.91 382.084,1220.38 383.154,1205.07 384.223,1189.98 385.292,1175.12 386.362,1160.46 387.431,1146.02 388.5,1131.79 389.569,1117.77 390.639,1103.94 391.708,1090.31 392.777,1076.88 393.847,1063.65 394.916,1050.6 395.985,1037.74 397.054,1025.06 398.124,1012.56 399.193,1000.24 400.262,988.101 401.332,976.13 402.401,964.329 403.47,952.696 404.54,941.227 405.609,929.92 406.678,918.773 407.747,907.784 408.817,896.949 409.886,886.267 410.955,875.734 412.025,865.35 413.094,855.112 414.163,845.016 415.232,835.062 416.302,825.248 417.371,815.57 418.44,806.027 419.51,796.617 420.579,787.338 421.648,778.188 422.717,769.165 423.787,760.267 424.856,751.492 425.925,742.839 426.995,734.305 428.064,725.889 429.133,717.59 430.203,709.404 431.272,701.331 432.341,693.37 433.41,685.517 434.48,677.773 435.549,670.134 436.618,662.6 437.688,655.17 438.757,647.84 439.826,640.611 440.895,633.481 441.965,626.447 443.034,619.51 444.103,612.666 445.173,605.916 446.242,599.257 447.311,592.689 448.38,586.21 449.45,579.818 450.519,573.513 451.588,567.293 452.658,561.156 453.727,555.103 454.796,549.131 455.865,543.24 456.935,537.428 458.004,531.694 459.073,526.037 460.143,520.455 461.212,514.949 462.281,509.516 463.351,504.156 464.42,498.868 465.489,493.65 466.558,488.502 467.628,483.423 468.697,478.411 469.766,473.466 470.836,468.587 471.905,463.772 472.974,459.022 474.043,454.334 475.113,449.709 476.182,445.145 477.251,440.641 478.321,436.197 479.39,431.812 480.459,427.484 481.528,423.214 482.598,419 483.667,414.841 484.736,410.737 485.806,406.687 486.875,402.691 487.944,398.746 489.014,394.854 490.083,391.013 491.152,387.222 492.221,383.48 493.291,379.788 494.36,376.144 495.429,372.547 496.499,368.998 497.568,365.494 498.637,362.037 499.706,358.624 500.776,355.256 501.845,351.932 502.914,348.651 503.984,345.412 505.053,342.216 506.122,339.061 507.191,335.947 508.261,332.873 509.33,329.839 510.399,326.844 511.469,323.888 512.538,320.971 513.607,318.09 514.677,315.248 515.746,312.441 516.815,309.671 517.884,306.937 518.954,304.237 520.023,301.573 521.092,298.943 522.162,296.346 523.231,293.783 524.3,291.253 525.369,288.755 526.439,286.289 527.508,283.855 528.577,281.452 529.647,279.079 530.716,276.737 531.785,274.425 532.854,272.142 533.924,269.889 534.993,267.664 536.062,265.468 537.132,263.299 538.201,261.158 539.27,259.045 540.339,256.958 541.409,254.898 542.478,252.864 543.547,250.855 544.617,248.873 545.686,246.915 546.755,244.982 547.825,243.074 548.894,241.189 549.963,239.329 551.032,237.492 552.102,235.678 553.171,233.888 554.24,232.119 555.31,230.373 556.379,228.65 557.448,226.947 558.517,225.267 559.587,223.607 560.656,221.968 561.725,220.35 562.795,218.752 563.864,217.175 564.933,215.617 566.002,214.078 567.072,212.559 568.141,211.059 569.21,209.578 570.28,208.115 571.349,206.671 572.418,205.245 573.488,203.836 574.557,202.445 575.626,201.072 576.695,199.715 577.765,198.376 578.834,197.053 579.903,195.747 580.973,194.457 582.042,193.183 583.111,191.925 584.18,190.682 585.25,189.455 586.319,188.243 587.388,187.047 588.458,185.865 589.527,184.698 590.596,183.545 591.665,182.406 592.735,181.282 593.804,180.172 594.873,179.075 595.943,177.992 597.012,176.922 598.081,175.866 599.151,174.822 600.22,173.792 601.289,172.774 602.358,171.769 603.428,170.776 604.497,169.796 605.566,168.827 606.636,167.87 607.705,166.926 608.774,165.992 609.843,165.071 610.913,164.16 611.982,163.261 613.051,162.373 614.121,161.496 615.19,160.629 616.259,159.774 617.328,158.928 618.398,158.093 619.467,157.269 620.536,156.454 621.606,155.649 622.675,154.855 623.744,154.07 624.813,153.294 625.883,152.528 626.952,151.771 628.021,151.024 629.091,150.286 630.16,149.557 631.229,148.836 632.299,148.125 633.368,147.422 634.437,146.727 635.506,146.042 636.576,145.364 637.645,144.695 638.714,144.034 639.784,143.381 640.853,142.735 641.922,142.098 642.991,141.469 644.061,140.847 645.13,140.232 646.199,139.625 647.269,139.026 648.338,138.433 649.407,137.848 650.476,137.27 651.546,136.699 652.615,136.135 653.684,135.578 654.754,135.027 655.823,134.484 656.892,133.946 657.962,133.415 659.031,132.891 660.1,132.373 661.169,131.861 662.239,131.355 663.308,130.856 664.377,130.362 665.447,129.875 666.516,129.393 667.585,128.917 668.654,128.447 669.724,127.983 670.793,127.524 671.862,127.07 672.932,126.622 674.001,126.18 675.07,125.743 676.139,125.311 677.209,124.884 678.278,124.462 679.347,124.045 680.417,123.634 681.486,123.227 682.555,122.825 683.625,122.428 684.694,122.036 685.763,121.649 686.832,121.266 687.902,120.887 688.971,120.514 690.04,120.144 691.11,119.779 692.179,119.419 693.248,119.063 694.317,118.711 695.387,118.363 696.456,118.019 697.525,117.68 698.595,117.344 699.664,117.013 700.733,116.685 701.802,116.362 702.872,116.042 703.941,115.726 705.01,115.414 706.08,115.105 707.149,114.8 708.218,114.499 709.287,114.202 710.357,113.908 711.426,113.617 712.495,113.33 713.565,113.046 714.634,112.766 715.703,112.489 716.773,112.215 717.842,111.945 718.911,111.677 719.98,111.413 721.05,111.152 722.119,110.895 723.188,110.64 724.258,110.388 725.327,110.139 726.396,109.893 727.465,109.65 728.535,109.41 729.604,109.173 730.673,108.939 731.743,108.707 732.812,108.478 733.881,108.252 734.95,108.028 736.02,107.807 737.089,107.589 738.158,107.373 739.228,107.16 740.297,106.949 741.366,106.741 742.436,106.535 743.505,106.332 744.574,106.131 745.643,105.933 746.713,105.736 747.782,105.543 748.851,105.351 749.921,105.162 750.99,104.974 752.059,104.789 753.128,104.607 754.198,104.426 755.267,104.248 756.336,104.071 757.406,103.897 758.475,103.725 759.544,103.554 760.613,103.386 761.683,103.22 762.752,103.055 763.821,102.893 764.891,102.733 765.96,102.574 767.029,102.417 768.099,102.262 769.168,102.109 770.237,101.958 771.306,101.808 772.376,101.66 773.445,101.514 774.514,101.37 775.584,101.227 776.653,101.086 777.722,100.947 778.791,100.809 779.861,100.673 780.93,100.539 781.999,100.406 783.069,100.274 784.138,100.144 785.207,100.016 786.276,99.8891 787.346,99.7637 788.415,99.6398 789.484,99.5173 790.554,99.3962 791.623,99.2766 792.692,99.1583 793.761,99.0415 794.831,98.926 795.9,98.8118 796.969,98.699 798.039,98.5874 799.108,98.4772 800.177,98.3683 801.247,98.2606 802.316,98.1541 803.385,98.049 804.454,97.945 805.524,97.8422 806.593,97.7407 807.662,97.6403 808.732,97.541 809.801,97.443 810.87,97.346 811.939,97.2502 813.009,97.1555 814.078,97.0619 815.147,96.9694 816.217,96.878 817.286,96.7876 818.355,96.6982 819.424,96.6099 820.494,96.5227 821.563,96.4364 822.632,96.3511 823.702,96.2668 824.771,96.1835 825.84,96.1012 826.91,96.0198 827.979,95.9393 829.048,95.8598 830.117,95.7812 831.187,95.7035 832.256,95.6267 833.325,95.5508 834.395,95.4758 835.464,95.4016 836.533,95.3283 837.602,95.2558 838.672,95.1842 839.741,95.1134 840.81,95.0434 841.88,94.9742 842.949,94.9058 844.018,94.8382 845.087,94.7714 846.157,94.7054 847.226,94.6401 848.295,94.5755 849.365,94.5117 850.434,94.4487 851.503,94.3864 852.573,94.3247 853.642,94.2638 854.711,94.2036 855.78,94.1441 856.85,94.0853 857.919,94.0271 858.988,93.9697 860.058,93.9128 861.127,93.8567 862.196,93.8011 863.265,93.7463 864.335,93.692 865.404,93.6384 866.473,93.5854 867.543,93.5329 868.612,93.4811 869.681,93.4299 870.75,93.3793 871.82,93.3292 872.889,93.2798 873.958,93.2309 875.028,93.1825 876.097,93.1347 877.166,93.0875 878.235,93.0408 879.305,92.9946 880.374,92.949 881.443,92.9039 882.513,92.8593 883.582,92.8152 884.651,92.7716 885.721,92.7285 886.79,92.6859 887.859,92.6438 888.928,92.6022 889.998,92.561 891.067,92.5203 892.136,92.4801 893.206,92.4404 894.275,92.4011 895.344,92.3622 896.413,92.3238 897.483,92.2858 898.552,92.2483 899.621,92.2112 900.691,92.1745 901.76,92.1382 902.829,92.1024 903.898,92.0669 904.968,92.0319 906.037,91.9973 907.106,91.963 908.176,91.9292 909.245,91.8957 910.314,91.8626 911.384,91.8299 912.453,91.7976 913.522,91.7656 914.591,91.734 915.661,91.7027 916.73,91.6718 917.799,91.6413 918.869,91.6111 919.938,91.5813 921.007,91.5518 922.076,91.5226 923.146,91.4937 924.215,91.4652 925.284,91.437 926.354,91.4092 927.423,91.3816 928.492,91.3544 929.561,91.3274 930.631,91.3008 931.7,91.2745 932.769,91.2485 933.839,91.2227 934.908,91.1973 935.977,91.1722 937.047,91.1473 938.116,91.1227 939.185,91.0984 940.254,91.0744 941.324,91.0506 942.393,91.0271 943.462,91.0039 944.532,90.981 945.601,90.9583 946.67,90.9358 947.739,90.9137 948.809,90.8917 949.878,90.87 950.947,90.8486 952.017,90.8274 953.086,90.8064 954.155,90.7857 955.224,90.7652 956.294,90.745 957.363,90.725 958.432,90.7052 959.502,90.6856 960.571,90.6662 961.64,90.6471 962.709,90.6282 963.779,90.6095 964.848,90.591 965.917,90.5727 966.987,90.5546 968.056,90.5368 969.125,90.5191 970.195,90.5016 971.264,90.4844 972.333,90.4673 973.402,90.4504 974.472,90.4337 975.541,90.4172 976.61,90.4009 977.68,90.3847 978.749,90.3688 979.818,90.353 980.887,90.3374 981.957,90.322 983.026,90.3067 984.095,90.2917 985.165,90.2767 986.234,90.262 987.303,90.2474 988.372,90.233 989.442,90.2188 990.511,90.2047 991.58,90.1908 992.65,90.177 993.719,90.1634 994.788,90.1499 995.858,90.1366 996.927,90.1235 997.996,90.1104 999.065,90.0976 1000.13,90.0849 1001.2,90.0723 1002.27,90.0598 1003.34,90.0475 1004.41,90.0354 1005.48,90.0234 1006.55,90.0115 1007.62,89.9997 1008.69,89.9881 1009.76,89.9766 1010.83,89.9652 1011.9,89.954 1012.97,89.9429 1014.04,89.9319 1015.1,89.9211 1016.17,89.9103 1017.24,89.8997 1018.31,89.8892 1019.38,89.8788 1020.45,89.8686 1021.52,89.8584 1022.59,89.8484 1023.66,89.8385 1024.73,89.8286 1025.8,89.8189 1026.87,89.8093 1027.94,89.7999 1029.01,89.7905 1030.07,89.7812 1031.14,89.772 1032.21,89.763 1033.28,89.754 1034.35,89.7451 1035.42,89.7364 1036.49,89.7277 1037.56,89.7191 1038.63,89.7107 1039.7,89.7023 1040.77,89.694 1041.84,89.6858 1042.91,89.6777 1043.98,89.6697 1045.04,89.6618 1046.11,89.6539 1047.18,89.6462 1048.25,89.6385 1049.32,89.6309 1050.39,89.6235 1051.46,89.616 1052.53,89.6087 1053.6,89.6015 1054.67,89.5943 1055.74,89.5872 1056.81,89.5802 1057.88,89.5733 1058.95,89.5665 1060.01,89.5597 1061.08,89.553 1062.15,89.5464 1063.22,89.5398 1064.29,89.5334 1065.36,89.527 1066.43,89.5206 1067.5,89.5144 1068.57,89.5082 1069.64,89.5021 1070.71,89.496 1071.78,89.49 1072.85,89.4841 1073.92,89.4783 1074.99,89.4725 1076.05,89.4668 1077.12,89.4611 1078.19,89.4555 1079.26,89.45 1080.33,89.4445 1081.4,89.4391 1082.47,89.4338 1083.54,89.4285 1084.61,89.4232 1085.68,89.4181 1086.75,89.413 1087.82,89.4079 1088.89,89.4029 1089.96,89.3979 1091.02,89.3931 1092.09,89.3882 1093.16,89.3834 1094.23,89.3787 1095.3,89.374 1096.37,89.3694 1097.44,89.3648 1098.51,89.3603 1099.58,89.3558 1100.65,89.3514 1101.72,89.347 1102.79,89.3427 1103.86,89.3384 1104.93,89.3342 1105.99,89.33 1107.06,89.3259 1108.13,89.3218 1109.2,89.3178 1110.27,89.3138 1111.34,89.3098 1112.41,89.3059 1113.48,89.302 1114.55,89.2982 1115.62,89.2944 1116.69,89.2907 1117.76,89.287 1118.83,89.2833 1119.9,89.2797 1120.96,89.2761 1122.03,89.2726 1123.1,89.2691 1124.17,89.2656 1125.24,89.2622 1126.31,89.2588 1127.38,89.2555 1128.45,89.2522 1129.52,89.2489 1130.59,89.2456 1131.66,89.2424 1132.73,89.2393 1133.8,89.2362 1134.87,89.2331 1135.93,89.23 1137,89.227 1138.07,89.224 1139.14,89.221 1140.21,89.2181 1141.28,89.2152 1142.35,89.2123 1143.42,89.2095 1144.49,89.2067 1145.56,89.2039 1146.63,89.2012 1147.7,89.1985 1148.77,89.1958 1149.84,89.1932 1150.9,89.1905 1151.97,89.1879 1153.04,89.1854 1154.11,89.1829 1155.18,89.1803 1156.25,89.1779 1157.32,89.1754 1158.39,89.173 1159.46,89.1706 1160.53,89.1682 1161.6,89.1659 1162.67,89.1636 1163.74,89.1613 1164.81,89.159 1165.87,89.1568 1166.94,89.1546 1168.01,89.1524 1169.08,89.1502 1170.15,89.148 1171.22,89.1459 1172.29,89.1438 1173.36,89.1418 1174.43,89.1397 1175.5,89.1377 1176.57,89.1357 1177.64,89.1337 1178.71,89.1317 1179.78,89.1298 1180.84,89.1279 1181.91,89.126 1182.98,89.1241 1184.05,89.1222 1185.12,89.1204 1186.19,89.1186 1187.26,89.1168 1188.33,89.115 1189.4,89.1132 1190.47,89.1115 1191.54,89.1098 1192.61,89.1081 1193.68,89.1064 1194.75,89.1047 1195.81,89.1031 1196.88,89.1015 1197.95,89.0999 1199.02,89.0983 1200.09,89.0967 1201.16,89.0952 1202.23,89.0936 1203.3,89.0921 1204.37,89.0906 1205.44,89.0891 1206.51,89.0876 1207.58,89.0862 1208.65,89.0847 1209.72,89.0833 1210.79,89.0819 1211.85,89.0805 1212.92,89.0791 1213.99,89.0778 1215.06,89.0764 1216.13,89.0751 1217.2,89.0738 1218.27,89.0725 1219.34,89.0712 1220.41,89.0699 1221.48,89.0687 1222.55,89.0674 1223.62,89.0662 1224.69,89.065 1225.76,89.0637 1226.82,89.0626 1227.89,89.0614 1228.96,89.0602 1230.03,89.0591 1231.1,89.0579 1232.17,89.0568 1233.24,89.0557 1234.31,89.0546 1235.38,89.0535 1236.45,89.0524 1237.52,89.0513 1238.59,89.0503 1239.66,89.0492 1240.73,89.0482 1241.79,89.0472 1242.86,89.0462 1243.93,89.0452 1245,89.0442 1246.07,89.0432 1247.14,89.0422 1248.21,89.0413 1249.28,89.0403 1250.35,89.0394 1251.42,89.0385 1252.49,89.0375 1253.56,89.0366 1254.63,89.0357 1255.7,89.0349 1256.76,89.034 1257.83,89.0331 1258.9,89.0323 1259.97,89.0314 1261.04,89.0306 1262.11,89.0297 1263.18,89.0289 1264.25,89.0281 1265.32,89.0273 1266.39,89.0265 1267.46,89.0257 1268.53,89.025 1269.6,89.0242 1270.67,89.0234 1271.73,89.0227 1272.8,89.0219 1273.87,89.0212 1274.94,89.0205 1276.01,89.0198 1277.08,89.0191 1278.15,89.0183 1279.22,89.0177 1280.29,89.017 1281.36,89.0163 1282.43,89.0156 1283.5,89.0149 1284.57,89.0143 1285.64,89.0136 1286.7,89.013 1287.77,89.0124 1288.84,89.0117 1289.91,89.0111 1290.98,89.0105 1292.05,89.0099 1293.12,89.0093 1294.19,89.0087 1295.26,89.0081 1296.33,89.0075 1297.4,89.0069 1298.47,89.0064 1299.54,89.0058 1300.61,89.0052 1301.67,89.0047 1302.74,89.0041 1303.81,89.0036 1304.88,89.0031 1305.95,89.0025 1307.02,89.002 1308.09,89.0015 1309.16,89.001 1310.23,89.0005 1311.3,89 1312.37,88.9995 1313.44,88.999 1314.51,88.9985 1315.58,88.998 1316.64,88.9976 1317.71,88.9971 1318.78,88.9966 1319.85,88.9962 1320.92,88.9957 1321.99,88.9953 1323.06,88.9948 1324.13,88.9944 1325.2,88.994 1326.27,88.9935 1327.34,88.9931 1328.41,88.9927 1329.48,88.9923 1330.55,88.9919 1331.61,88.9915 1332.68,88.9911 1333.75,88.9907 1334.82,88.9903 1335.89,88.9899 1336.96,88.9895 1338.03,88.9891 1339.1,88.9887 1340.17,88.9884 1341.24,88.988 1342.31,88.9876 1343.38,88.9873 1344.45,88.9869 1345.52,88.9866 1346.59,88.9862 1347.65,88.9859 1348.72,88.9855 1349.79,88.9852 1350.86,88.9849 1351.93,88.9845 1353,88.9842 1354.07,88.9839 1355.14,88.9836 1356.21,88.9833 1357.28,88.9829 1358.35,88.9826 1359.42,88.9823 1360.49,88.982 1361.56,88.9817 1362.62,88.9814 1363.69,88.9811 1364.76,88.9808 1365.83,88.9806 1366.9,88.9803 1367.97,88.98 1369.04,88.9797 1370.11,88.9794 1371.18,88.9792 1372.25,88.9789 1373.32,88.9786 1374.39,88.9784 1375.46,88.9781 1376.53,88.9779 1377.59,88.9776 1378.66,88.9774 1379.73,88.9771 1380.8,88.9769 1381.87,88.9766 1382.94,88.9764 1384.01,88.9761 1385.08,88.9759 1386.15,88.9757 1387.22,88.9755 1388.29,88.9752 1389.36,88.975 1390.43,88.9748 1391.5,88.9746 1392.56,88.9743 1393.63,88.9741 1394.7,88.9739 1395.77,88.9737 1396.84,88.9735 1397.91,88.9733 1398.98,88.9731 1400.05,88.9729 1401.12,88.9727 1402.19,88.9725 1403.26,88.9723 1404.33,88.9721 1405.4,88.9719 1406.47,88.9717 1407.53,88.9715 1408.6,88.9713 1409.67,88.9712 1410.74,88.971 1411.81,88.9708 1412.88,88.9706 1413.95,88.9704 1415.02,88.9703 1416.09,88.9701 1417.16,88.9699 1418.23,88.9698 1419.3,88.9696 1420.37,88.9694 1421.44,88.9693 1422.5,88.9691 1423.57,88.969 1424.64,88.9688 1425.71,88.9686 1426.78,88.9685 1427.85,88.9683 1428.92,88.9682 1429.99,88.968 1431.06,88.9679 1432.13,88.9677 1433.2,88.9676 1434.27,88.9675 1435.34,88.9673 1436.41,88.9672 1437.47,88.967 1438.54,88.9669 1439.61,88.9668 1440.68,88.9666 1441.75,88.9665 1442.82,88.9664 1443.89,88.9662 1444.96,88.9661 1446.03,88.966 1447.1,88.9659 1448.17,88.9657 1449.24,88.9656 1450.31,88.9655 1451.38,88.9654 1452.44,88.9653 1453.51,88.9651 1454.58,88.965 1455.65,88.9649 1456.72,88.9648 1457.79,88.9647 1458.86,88.9646 1459.93,88.9645 1461,88.9644 1462.07,88.9643 1463.14,88.9641 1464.21,88.964 1465.28,88.9639 1466.35,88.9638 1467.41,88.9637 1468.48,88.9636 1469.55,88.9635 1470.62,88.9634 1471.69,88.9633 1472.76,88.9632 1473.83,88.9631 1474.9,88.9631 1475.97,88.963 1477.04,88.9629 1478.11,88.9628 1479.18,88.9627 1480.25,88.9626 1481.32,88.9625 1482.38,88.9624 1483.45,88.9623 1484.52,88.9623 1485.59,88.9622 1486.66,88.9621 1487.73,88.962 1488.8,88.9619 1489.87,88.9618 1490.94,88.9618 1492.01,88.9617 1493.08,88.9616 1494.15,88.9615 1495.22,88.9614 1496.29,88.9614 1497.36,88.9613 1498.42,88.9612 1499.49,88.9611 1500.56,88.9611 1501.63,88.961 1502.7,88.9609 1503.77,88.9609 1504.84,88.9608 1505.91,88.9607 1506.98,88.9607 1508.05,88.9606 1509.12,88.9605 1510.19,88.9605 1511.26,88.9604 1512.33,88.9603 1513.39,88.9603 1514.46,88.9602 1515.53,88.9601 1516.6,88.9601 1517.67,88.96 1518.74,88.96 1519.81,88.9599 1520.88,88.9598 1521.95,88.9598 1523.02,88.9597 1524.09,88.9597 1525.16,88.9596 1526.23,88.9596 1527.3,88.9595 1528.36,88.9594 1529.43,88.9594 1530.5,88.9593 1531.57,88.9593 1532.64,88.9592 1533.71,88.9592 1534.78,88.9591 1535.85,88.9591 1536.92,88.959 1537.99,88.959 1539.06,88.9589 1540.13,88.9589 1541.2,88.9588 1542.27,88.9588 1543.33,88.9587 1544.4,88.9587 1545.47,88.9586 1546.54,88.9586 1547.61,88.9586 1548.68,88.9585 1549.75,88.9585 1550.82,88.9584 1551.89,88.9584 1552.96,88.9583 1554.03,88.9583 1555.1,88.9582 1556.17,88.9582 1557.24,88.9582 1558.3,88.9581 1559.37,88.9581 1560.44,88.958 1561.51,88.958 1562.58,88.958 1563.65,88.9579 1564.72,88.9579 1565.79,88.9579 1566.86,88.9578 1567.93,88.9578 1569,88.9577 1570.07,88.9577 1571.14,88.9577 1572.21,88.9576 1573.27,88.9576 1574.34,88.9576 1575.41,88.9575 1576.48,88.9575 1577.55,88.9575 1578.62,88.9574 1579.69,88.9574 1580.76,88.9574 1581.83,88.9573 1582.9,88.9573 1583.97,88.9573 1585.04,88.9572 1586.11,88.9572 1587.18,88.9572 1588.24,88.9572 1589.31,88.9571 1590.38,88.9571 1591.45,88.9571 1592.52,88.957 1593.59,88.957 1594.66,88.957 1595.73,88.957 1596.8,88.9569 1597.87,88.9569 1598.94,88.9569 1600.01,88.9568 1601.08,88.9568 1602.15,88.9568 1603.21,88.9568 1604.28,88.9567 1605.35,88.9567 1606.42,88.9567 1607.49,88.9567 1608.56,88.9566 1609.63,88.9566 1610.7,88.9566 1611.77,88.9566 1612.84,88.9565 1613.91,88.9565 1614.98,88.9565 1616.05,88.9565 1617.12,88.9565 1618.18,88.9564 1619.25,88.9564 1620.32,88.9564 1621.39,88.9564 1622.46,88.9563 1623.53,88.9563 1624.6,88.9563 1625.67,88.9563 1626.74,88.9563 1627.81,88.9562 1628.88,88.9562 1629.95,88.9562 1631.02,88.9562 1632.09,88.9562 1633.16,88.9561 1634.22,88.9561 1635.29,88.9561 1636.36,88.9561 1637.43,88.9561 1638.5,88.9561 1639.57,88.956 1640.64,88.956 1641.71,88.956 1642.78,88.956 1643.85,88.956 1644.92,88.956 1645.99,88.9559 1647.06,88.9559 1648.13,88.9559 1649.19,88.9559 1650.26,88.9559 1651.33,88.9559 1652.4,88.9558 1653.47,88.9558 1654.54,88.9558 1655.61,88.9558 1656.68,88.9558 1657.75,88.9558 1658.82,88.9557 1659.89,88.9557 1660.96,88.9557 1662.03,88.9557 1663.1,88.9557 1664.16,88.9557 1665.23,88.9557 1666.3,88.9557 1667.37,88.9556 1668.44,88.9556 1669.51,88.9556 1670.58,88.9556 1671.65,88.9556 1672.72,88.9556 1673.79,88.9556 1674.86,88.9555 1675.93,88.9555 1677,88.9555 1678.07,88.9555 1679.13,88.9555 1680.2,88.9555 1681.27,88.9555 1682.34,88.9555 1683.41,88.9555 1684.48,88.9554 1685.55,88.9554 1686.62,88.9554 1687.69,88.9554 1688.76,88.9554 1689.83,88.9554 1690.9,88.9554 1691.97,88.9554 1693.04,88.9554 1694.1,88.9553 1695.17,88.9553 1696.24,88.9553 1697.31,88.9553 1698.38,88.9553 1699.45,88.9553 1700.52,88.9553 1701.59,88.9553 1702.66,88.9553 1703.73,88.9553 1704.8,88.9552 1705.87,88.9552 1706.94,88.9552 1708.01,88.9552 1709.07,88.9552 1710.14,88.9552 1711.21,88.9552 1712.28,88.9552 1713.35,88.9552 1714.42,88.9552 1715.49,88.9552 1716.56,88.9552 1717.63,88.9551 1718.7,88.9551 1719.77,88.9551 1720.84,88.9551 1721.91,88.9551 1722.98,88.9551 1724.04,88.9551 1725.11,88.9551 1726.18,88.9551 1727.25,88.9551 1728.32,88.9551 1729.39,88.9551 1730.46,88.9551 1731.53,88.955 1732.6,88.955 1733.67,88.955 1734.74,88.955 1735.81,88.955 1736.88,88.955 1737.95,88.955 1739.01,88.955 1740.08,88.955 1741.15,88.955 1742.22,88.955 1743.29,88.955 1744.36,88.955 1745.43,88.955 1746.5,88.955 1747.57,88.9549 1748.64,88.9549 1749.71,88.9549 1750.78,88.9549 1751.85,88.9549 1752.92,88.9549 1753.98,88.9549 1755.05,88.9549 1756.12,88.9549 1757.19,88.9549 1758.26,88.9549 1759.33,88.9549 1760.4,88.9549 1761.47,88.9549 1762.54,88.9549 1763.61,88.9549 1764.68,88.9549 1765.75,88.9549 1766.82,88.9548 1767.89,88.9548 1768.96,88.9548 1770.02,88.9548 1771.09,88.9548 1772.16,88.9548 1773.23,88.9548 1774.3,88.9548 1775.37,88.9548 1776.44,88.9548 1777.51,88.9548 1778.58,88.9548 1779.65,88.9548 1780.72,88.9548 1781.79,88.9548 1782.86,88.9548 1783.93,88.9548 1784.99,88.9548 1786.06,88.9548 1787.13,88.9548 1788.2,88.9548 1789.27,88.9548 1790.34,88.9548 1791.41,88.9547 1792.48,88.9547 1793.55,88.9547 1794.62,88.9547 1795.69,88.9547 1796.76,88.9547 1797.83,88.9547 1798.9,88.9547 1799.96,88.9547 1801.03,88.9547 1802.1,88.9547 1803.17,88.9547 1804.24,88.9547 1805.31,88.9547 1806.38,88.9547 1807.45,88.9547 1808.52,88.9547 1809.59,88.9547 1810.66,88.9547 1811.73,88.9547 1812.8,88.9547 1813.87,88.9547 1814.93,88.9547 1816,88.9547 1817.07,88.9547 1818.14,88.9547 1819.21,88.9547 1820.28,88.9547 1821.35,88.9547 1822.42,88.9547 1823.49,88.9547 1824.56,88.9546 1825.63,88.9546 1826.7,88.9546 1827.77,88.9546 1828.84,88.9546 1829.9,88.9546 1830.97,88.9546 1832.04,88.9546 1833.11,88.9546 1834.18,88.9546 1835.25,88.9546 1836.32,88.9546 1837.39,88.9546 1838.46,88.9546 1839.53,88.9546 1840.6,88.9546 1841.67,88.9546 1842.74,88.9546 1843.81,88.9546 1844.87,88.9546 1845.94,88.9546 1847.01,88.9546 1848.08,88.9546 1849.15,88.9546 1850.22,88.9546 1851.29,88.9546 1852.36,88.9546 1853.43,88.9546 1854.5,88.9546 1855.57,88.9546 1856.64,88.9546 1857.71,88.9546 1858.78,88.9546 1859.84,88.9546 1860.91,88.9546 1861.98,88.9546 1863.05,88.9546 1864.12,88.9546 1865.19,88.9546 1866.26,88.9546 1867.33,88.9546 1868.4,88.9546 1869.47,88.9546 1870.54,88.9546 1871.61,88.9546 1872.68,88.9545 1873.75,88.9545 1874.81,88.9545 1875.88,88.9545 1876.95,88.9545 1878.02,88.9545 1879.09,88.9545 1880.16,88.9545 1881.23,88.9545 1882.3,88.9545 1883.37,88.9545 1884.44,88.9545 1885.51,88.9545 1886.58,88.9545 1887.65,88.9545 1888.72,88.9545 1889.78,88.9545 1890.85,88.9545 1891.92,88.9545 1892.99,88.9545 1894.06,88.9545 1895.13,88.9545 1896.2,88.9545 1897.27,88.9545 1898.34,88.9545 1899.41,88.9545 1900.48,88.9545 1901.55,88.9545 1902.62,88.9545 1903.69,88.9545 1904.75,88.9545 1905.82,88.9545 1906.89,88.9545 1907.96,88.9545 1909.03,88.9545 1910.1,88.9545 1911.17,88.9545 1912.24,88.9545 1913.31,88.9545 1914.38,88.9545 1915.45,88.9545 1916.52,88.9545 1917.59,88.9545 1918.66,88.9545 1919.73,88.9545 1920.79,88.9545 1921.86,88.9545 1922.93,88.9545 1924,88.9545 1925.07,88.9545 1926.14,88.9545 1927.21,88.9545 1928.28,88.9545 1929.35,88.9545 1930.42,88.9545 1931.49,88.9545 1932.56,88.9545 1933.63,88.9545 1934.7,88.9545 1935.76,88.9545 1936.83,88.9545 1937.9,88.9545 1938.97,88.9545 1940.04,88.9545 1941.11,88.9545 1942.18,88.9545 1943.25,88.9545 1944.32,88.9545 1945.39,88.9545 1946.46,88.9545 1947.53,88.9545 1948.6,88.9545 1949.67,88.9545 1950.73,88.9545 1951.8,88.9545 1952.87,88.9545 1953.94,88.9545 1955.01,88.9545 1956.08,88.9545 1957.15,88.9545 1958.22,88.9545 1959.29,88.9545 1960.36,88.9545 1961.43,88.9545 1962.5,88.9545 1963.57,88.9545 1964.64,88.9545 1965.7,88.9545 1966.77,88.9545 1967.84,88.9545 1968.91,88.9544 1969.98,88.9544 1971.05,88.9544 1972.12,88.9544 1973.19,88.9544 1974.26,88.9544 1975.33,88.9544 1976.4,88.9544 1977.47,88.9544 1978.54,88.9544 1979.61,88.9544 1980.67,88.9544 1981.74,88.9544 1982.81,88.9544 1983.88,88.9544 1984.95,88.9544 1986.02,88.9544 1987.09,88.9544 1988.16,88.9544 1989.23,88.9544 1990.3,88.9544 1991.37,88.9544 1992.44,88.9544 1993.51,88.9544 1994.58,88.9544 1995.64,88.9544 1996.71,88.9544 1997.78,88.9544 1998.85,88.9544 1999.92,88.9544 2000.99,88.9544 2002.06,88.9544 2003.13,88.9544 2004.2,88.9544 2005.27,88.9544 2006.34,88.9544 2007.41,88.9544 2008.48,88.9544 2009.55,88.9544 2010.61,88.9544 2011.68,88.9544 2012.75,88.9544 2013.82,88.9544 2014.89,88.9544 2015.96,88.9544 2017.03,88.9544 2018.1,88.9544 2019.17,88.9544 2020.24,88.9544 2021.31,88.9544 2022.38,88.9544 2023.45,88.9544 2024.52,88.9544 2025.58,88.9544 2026.65,88.9544 2027.72,88.9544 2028.79,88.9544 2029.86,88.9544 2030.93,88.9544 2032,88.9544 2033.07,88.9544 2034.14,88.9544 2035.21,88.9544 2036.28,88.9544 2037.35,88.9544 2038.42,88.9544 2039.49,88.9544 2040.55,88.9544 2041.62,88.9544 2042.69,88.9544 2043.76,88.9544 2044.83,88.9544 2045.9,88.9544 2046.97,88.9544 2048.04,88.9544 2049.11,88.9544 2050.18,88.9544 2051.25,88.9544 2052.32,88.9544 2053.39,88.9544 2054.46,88.9544 2055.53,88.9544 2056.59,88.9544 2057.66,88.9544 2058.73,88.9544 2059.8,88.9544 2060.87,88.9544 2061.94,88.9544 2063.01,88.9544 2064.08,88.9544 2065.15,88.9544 2066.22,88.9544 2067.29,88.9544 2068.36,88.9544 2069.43,88.9544 2070.5,88.9544 2071.56,88.9544 2072.63,88.9544 2073.7,88.9544 2074.77,88.9544 2075.84,88.9544 2076.91,88.9544 2077.98,88.9544 2079.05,88.9544 2080.12,88.9544 2081.19,88.9544 2082.26,88.9544 2083.33,88.9544 2084.4,88.9544 2085.47,88.9544 2086.53,88.9544 2087.6,88.9544 2088.67,88.9544 2089.74,88.9544 2090.81,88.9544 2091.88,88.9544 2092.95,88.9544 2094.02,88.9544 2095.09,88.9544 2096.16,88.9544 2097.23,88.9544 2098.3,88.9544 2099.37,88.9544 2100.44,88.9544 2101.5,88.9544 2102.57,88.9544 2103.64,88.9544 2104.71,88.9544 2105.78,88.9544 2106.85,88.9544 2107.92,88.9544 2108.99,88.9544 2110.06,88.9544 2111.13,88.9544 2112.2,88.9544 2113.27,88.9544 2114.34,88.9544 2115.41,88.9544 2116.47,88.9544 2117.54,88.9544 2118.61,88.9544 2119.68,88.9544 2120.75,88.9544 2121.82,88.9544 2122.89,88.9544 2123.96,88.9544 2125.03,88.9544 2126.1,88.9544 2127.17,88.9544 2128.24,88.9544 2129.31,88.9544 2130.38,88.9544 2131.44,88.9544 2132.51,88.9544 2133.58,88.9544 2134.65,88.9544 2135.72,88.9544 2136.79,88.9544 2137.86,88.9544 2138.93,88.9544 2140,88.9544 2141.07,88.9544 2142.14,88.9544 2143.21,88.9544 2144.28,88.9544 2145.35,88.9544 2146.41,88.9544 2147.48,88.9544 2148.55,88.9544 2149.62,88.9544 2150.69,88.9544 2151.76,88.9544 2152.83,88.9544 2153.9,88.9544 2154.97,88.9544 2156.04,88.9544 2157.11,88.9544 2158.18,88.9544 2159.25,88.9544 2160.32,88.9544 2161.38,88.9544 2162.45,88.9544 2163.52,88.9544 2164.59,88.9544 2165.66,88.9544 2166.73,88.9544 2167.8,88.9544 2168.87,88.9544 2169.94,88.9544 2171.01,88.9544 2172.08,88.9544 2173.15,88.9544 2174.22,88.9544 2175.29,88.9544 2176.35,88.9544 2177.42,88.9544 2178.49,88.9544 2179.56,88.9544 2180.63,88.9544 2181.7,88.9544 2182.77,88.9544 2183.84,88.9544 2184.91,88.9544 2185.98,88.9544 2187.05,88.9544 2188.12,88.9544 2189.19,88.9544 2190.26,88.9544 2191.33,88.9544 2192.39,88.9544 2193.46,88.9544 2194.53,88.9544 2195.6,88.9544 2196.67,88.9544 2197.74,88.9544 2198.81,88.9544 2199.88,88.9544 2200.95,88.9544 2202.02,88.9544 2203.09,88.9544 2204.16,88.9544 2205.23,88.9544 2206.3,88.9544 2207.36,88.9544 2208.43,88.9544 2209.5,88.9544 2210.57,88.9544 2211.64,88.9544 2212.71,88.9544 2213.78,88.9544 2214.85,88.9544 2215.92,88.9544 2216.99,88.9544 2218.06,88.9544 2219.13,88.9544 2220.2,88.9544 2221.27,88.9544 2222.33,88.9544 2223.4,88.9544 2224.47,88.9544 2225.54,88.9544 2226.61,88.9544 2227.68,88.9544 2228.75,88.9544 2229.82,88.9544 2230.89,88.9544 2231.96,88.9544 2233.03,88.9544 2234.1,88.9544 2235.17,88.9544 2236.24,88.9544 2237.3,88.9544 2238.37,88.9544 2239.44,88.9544 2240.51,88.9544 2241.58,88.9544 2242.65,88.9544 2243.72,88.9544 2244.79,88.9544 2245.86,88.9544 2246.93,88.9544 2248,88.9544 2249.07,88.9544 2250.14,88.9544 2251.21,88.9544 2252.27,88.9544 2253.34,88.9544 2254.41,88.9544 2255.48,88.9544 2256.55,88.9544 2257.62,88.9544 2258.69,88.9544 2259.76,88.9544 2260.83,88.9544 2261.9,88.9544 2262.97,88.9544 2264.04,88.9544 2265.11,88.9544 2266.18,88.9544 2267.24,88.9544 2268.31,88.9544 2269.38,88.9544 2270.45,88.9544 2271.52,88.9544 2272.59,88.9544 2273.66,88.9544 2274.73,88.9544 2275.8,88.9544 2276.87,88.9544 2277.94,88.9544 2279.01,88.9544 2280.08,88.9544 2281.15,88.9544 2282.21,88.9544 2283.28,88.9544 2284.35,88.9544 2285.42,88.9544 2286.49,88.9544 2287.56,88.9544 2288.63,88.9544 "/>
<path clip-path="url(#clip510)" d="M1849.98 1471.88 L2277.23 1471.88 L2277.23 1368.2 L1849.98 1368.2  Z" fill="#ffffff" fill-rule="evenodd" fill-opacity="1"/>
<polyline clip-path="url(#clip510)" style="stroke:#000000; stroke-linecap:round; stroke-linejoin:round; stroke-width:4; stroke-opacity:1; fill:none" points="1849.98,1471.88 2277.23,1471.88 2277.23,1368.2 1849.98,1368.2 1849.98,1471.88 "/>
<polyline clip-path="url(#clip510)" style="stroke:#009af9; stroke-linecap:round; stroke-linejoin:round; stroke-width:4; stroke-opacity:1; fill:none" points="1875.16,1420.04 2026.21,1420.04 "/>
<path clip-path="url(#clip510)" d="M2071.73 1416.37 Q2073.33 1413.5 2075.55 1412.14 Q2077.77 1410.77 2080.78 1410.77 Q2084.83 1410.77 2087.03 1413.62 Q2089.23 1416.44 2089.23 1421.67 L2089.23 1437.32 L2084.95 1437.32 L2084.95 1421.81 Q2084.95 1418.09 2083.63 1416.28 Q2082.31 1414.48 2079.6 1414.48 Q2076.29 1414.48 2074.37 1416.67 Q2072.45 1418.87 2072.45 1422.67 L2072.45 1437.32 L2068.17 1437.32 L2068.17 1421.81 Q2068.17 1418.06 2066.85 1416.28 Q2065.53 1414.48 2062.77 1414.48 Q2059.51 1414.48 2057.59 1416.7 Q2055.67 1418.9 2055.67 1422.67 L2055.67 1437.32 L2051.39 1437.32 L2051.39 1411.4 L2055.67 1411.4 L2055.67 1415.42 Q2057.13 1413.04 2059.16 1411.91 Q2061.2 1410.77 2064 1410.77 Q2066.82 1410.77 2068.79 1412.21 Q2070.78 1413.64 2071.73 1416.37 Z" fill="#000000" fill-rule="nonzero" fill-opacity="1" /><path clip-path="url(#clip510)" d="M2109.51 1424.29 Q2104.35 1424.29 2102.36 1425.47 Q2100.37 1426.65 2100.37 1429.5 Q2100.37 1431.77 2101.85 1433.11 Q2103.35 1434.43 2105.92 1434.43 Q2109.46 1434.43 2111.59 1431.93 Q2113.75 1429.41 2113.75 1425.24 L2113.75 1424.29 L2109.51 1424.29 M2118.01 1422.53 L2118.01 1437.32 L2113.75 1437.32 L2113.75 1433.39 Q2112.29 1435.75 2110.11 1436.88 Q2107.94 1437.99 2104.79 1437.99 Q2100.81 1437.99 2098.45 1435.77 Q2096.11 1433.53 2096.11 1429.78 Q2096.11 1425.4 2099.02 1423.18 Q2101.96 1420.96 2107.77 1420.96 L2113.75 1420.96 L2113.75 1420.54 Q2113.75 1417.6 2111.8 1416 Q2109.88 1414.38 2106.38 1414.38 Q2104.16 1414.38 2102.06 1414.92 Q2099.95 1415.45 2098.01 1416.51 L2098.01 1412.58 Q2100.34 1411.67 2102.54 1411.23 Q2104.74 1410.77 2106.82 1410.77 Q2112.45 1410.77 2115.23 1413.69 Q2118.01 1416.6 2118.01 1422.53 Z" fill="#000000" fill-rule="nonzero" fill-opacity="1" /><path clip-path="url(#clip510)" d="M2141.8 1415.38 Q2141.08 1414.96 2140.23 1414.78 Q2139.39 1414.57 2138.38 1414.57 Q2134.76 1414.57 2132.82 1416.93 Q2130.9 1419.27 2130.9 1423.67 L2130.9 1437.32 L2126.62 1437.32 L2126.62 1411.4 L2130.9 1411.4 L2130.9 1415.42 Q2132.24 1413.06 2134.39 1411.93 Q2136.55 1410.77 2139.63 1410.77 Q2140.07 1410.77 2140.6 1410.84 Q2141.13 1410.89 2141.78 1411 L2141.8 1415.38 Z" fill="#000000" fill-rule="nonzero" fill-opacity="1" /><path clip-path="url(#clip510)" d="M2162.5 1424.06 Q2162.5 1419.43 2160.57 1416.88 Q2158.68 1414.34 2155.23 1414.34 Q2151.8 1414.34 2149.88 1416.88 Q2147.98 1419.43 2147.98 1424.06 Q2147.98 1428.67 2149.88 1431.21 Q2151.8 1433.76 2155.23 1433.76 Q2158.68 1433.76 2160.57 1431.21 Q2162.5 1428.67 2162.5 1424.06 M2166.75 1434.1 Q2166.75 1440.73 2163.82 1443.94 Q2160.88 1447.18 2154.81 1447.18 Q2152.57 1447.18 2150.57 1446.84 Q2148.58 1446.51 2146.71 1445.82 L2146.71 1441.67 Q2148.58 1442.69 2150.41 1443.18 Q2152.24 1443.66 2154.14 1443.66 Q2158.33 1443.66 2160.41 1441.47 Q2162.5 1439.29 2162.5 1434.87 L2162.5 1432.76 Q2161.18 1435.05 2159.12 1436.19 Q2157.06 1437.32 2154.19 1437.32 Q2149.42 1437.32 2146.5 1433.69 Q2143.58 1430.05 2143.58 1424.06 Q2143.58 1418.04 2146.5 1414.41 Q2149.42 1410.77 2154.19 1410.77 Q2157.06 1410.77 2159.12 1411.91 Q2161.18 1413.04 2162.5 1415.33 L2162.5 1411.4 L2166.75 1411.4 L2166.75 1434.1 Z" fill="#000000" fill-rule="nonzero" fill-opacity="1" /><path clip-path="url(#clip510)" d="M2175.53 1411.4 L2179.79 1411.4 L2179.79 1437.32 L2175.53 1437.32 L2175.53 1411.4 M2175.53 1401.3 L2179.79 1401.3 L2179.79 1406.7 L2175.53 1406.7 L2175.53 1401.3 Z" fill="#000000" fill-rule="nonzero" fill-opacity="1" /><path clip-path="url(#clip510)" d="M2210.25 1421.67 L2210.25 1437.32 L2205.99 1437.32 L2205.99 1421.81 Q2205.99 1418.13 2204.56 1416.3 Q2203.12 1414.48 2200.25 1414.48 Q2196.8 1414.48 2194.81 1416.67 Q2192.82 1418.87 2192.82 1422.67 L2192.82 1437.32 L2188.54 1437.32 L2188.54 1411.4 L2192.82 1411.4 L2192.82 1415.42 Q2194.35 1413.09 2196.41 1411.93 Q2198.49 1410.77 2201.2 1410.77 Q2205.67 1410.77 2207.96 1413.55 Q2210.25 1416.3 2210.25 1421.67 Z" fill="#000000" fill-rule="nonzero" fill-opacity="1" /><path clip-path="url(#clip510)" d="M2230.53 1424.29 Q2225.37 1424.29 2223.37 1425.47 Q2221.38 1426.65 2221.38 1429.5 Q2221.38 1431.77 2222.87 1433.11 Q2224.37 1434.43 2226.94 1434.43 Q2230.48 1434.43 2232.61 1431.93 Q2234.76 1429.41 2234.76 1425.24 L2234.76 1424.29 L2230.53 1424.29 M2239.02 1422.53 L2239.02 1437.32 L2234.76 1437.32 L2234.76 1433.39 Q2233.31 1435.75 2231.13 1436.88 Q2228.95 1437.99 2225.81 1437.99 Q2221.82 1437.99 2219.46 1435.77 Q2217.12 1433.53 2217.12 1429.78 Q2217.12 1425.4 2220.04 1423.18 Q2222.98 1420.96 2228.79 1420.96 L2234.76 1420.96 L2234.76 1420.54 Q2234.76 1417.6 2232.82 1416 Q2230.9 1414.38 2227.4 1414.38 Q2225.18 1414.38 2223.07 1414.92 Q2220.97 1415.45 2219.02 1416.51 L2219.02 1412.58 Q2221.36 1411.67 2223.56 1411.23 Q2225.76 1410.77 2227.84 1410.77 Q2233.47 1410.77 2236.25 1413.69 Q2239.02 1416.6 2239.02 1422.53 Z" fill="#000000" fill-rule="nonzero" fill-opacity="1" /><path clip-path="url(#clip510)" d="M2247.8 1401.3 L2252.06 1401.3 L2252.06 1437.32 L2247.8 1437.32 L2247.8 1401.3 Z" fill="#000000" fill-rule="nonzero" fill-opacity="1" /></svg>
