<?xml version="1.0" encoding="utf-8"?>
<svg xmlns="http://www.w3.org/2000/svg" xmlns:xlink="http://www.w3.org/1999/xlink" width="600" height="400" viewBox="0 0 2400 1600">
<defs>
  <clipPath id="clip340">
    <rect x="0" y="0" width="2400" height="1600"/>
  </clipPath>
</defs>
<path clip-path="url(#clip340)" d="M0 1600 L2400 1600 L2400 0 L0 0  Z" fill="#ffffff" fill-rule="evenodd" fill-opacity="1"/>
<defs>
  <clipPath id="clip341">
    <rect x="480" y="0" width="1681" height="1600"/>
  </clipPath>
</defs>
<path clip-path="url(#clip340)" d="M86.9921 1521.01 L2352.76 1521.01 L2352.76 47.2441 L86.9921 47.2441  Z" fill="#ffffff" fill-rule="evenodd" fill-opacity="1"/>
<defs>
  <clipPath id="clip342">
    <rect x="86" y="47" width="2267" height="1475"/>
  </clipPath>
</defs>
<polyline clip-path="url(#clip342)" style="stroke:#000000; stroke-linecap:round; stroke-linejoin:round; stroke-width:2; stroke-opacity:0.1; fill:none" points="148.978,1521.01 148.978,47.2441 "/>
<polyline clip-path="url(#clip342)" style="stroke:#000000; stroke-linecap:round; stroke-linejoin:round; stroke-width:2; stroke-opacity:0.1; fill:none" points="683.891,1521.01 683.891,47.2441 "/>
<polyline clip-path="url(#clip342)" style="stroke:#000000; stroke-linecap:round; stroke-linejoin:round; stroke-width:2; stroke-opacity:0.1; fill:none" points="1218.8,1521.01 1218.8,47.2441 "/>
<polyline clip-path="url(#clip342)" style="stroke:#000000; stroke-linecap:round; stroke-linejoin:round; stroke-width:2; stroke-opacity:0.1; fill:none" points="1753.72,1521.01 1753.72,47.2441 "/>
<polyline clip-path="url(#clip342)" style="stroke:#000000; stroke-linecap:round; stroke-linejoin:round; stroke-width:2; stroke-opacity:0.1; fill:none" points="2288.63,1521.01 2288.63,47.2441 "/>
<polyline clip-path="url(#clip340)" style="stroke:#000000; stroke-linecap:round; stroke-linejoin:round; stroke-width:4; stroke-opacity:1; fill:none" points="86.9921,1521.01 2352.76,1521.01 "/>
<polyline clip-path="url(#clip340)" style="stroke:#000000; stroke-linecap:round; stroke-linejoin:round; stroke-width:4; stroke-opacity:1; fill:none" points="148.978,1521.01 148.978,1502.11 "/>
<polyline clip-path="url(#clip340)" style="stroke:#000000; stroke-linecap:round; stroke-linejoin:round; stroke-width:4; stroke-opacity:1; fill:none" points="683.891,1521.01 683.891,1502.11 "/>
<polyline clip-path="url(#clip340)" style="stroke:#000000; stroke-linecap:round; stroke-linejoin:round; stroke-width:4; stroke-opacity:1; fill:none" points="1218.8,1521.01 1218.8,1502.11 "/>
<polyline clip-path="url(#clip340)" style="stroke:#000000; stroke-linecap:round; stroke-linejoin:round; stroke-width:4; stroke-opacity:1; fill:none" points="1753.72,1521.01 1753.72,1502.11 "/>
<polyline clip-path="url(#clip340)" style="stroke:#000000; stroke-linecap:round; stroke-linejoin:round; stroke-width:4; stroke-opacity:1; fill:none" points="2288.63,1521.01 2288.63,1502.11 "/>
<path clip-path="url(#clip340)" d="M148.978 1551.93 Q145.367 1551.93 143.538 1555.49 Q141.733 1559.03 141.733 1566.16 Q141.733 1573.27 143.538 1576.83 Q145.367 1580.38 148.978 1580.38 Q152.612 1580.38 154.418 1576.83 Q156.246 1573.27 156.246 1566.16 Q156.246 1559.03 154.418 1555.49 Q152.612 1551.93 148.978 1551.93 M148.978 1548.22 Q154.788 1548.22 157.844 1552.83 Q160.922 1557.41 160.922 1566.16 Q160.922 1574.89 157.844 1579.5 Q154.788 1584.08 148.978 1584.08 Q143.168 1584.08 140.089 1579.5 Q137.033 1574.89 137.033 1566.16 Q137.033 1557.41 140.089 1552.83 Q143.168 1548.22 148.978 1548.22 Z" fill="#000000" fill-rule="nonzero" fill-opacity="1" /><path clip-path="url(#clip340)" d="M647.583 1579.47 L663.903 1579.47 L663.903 1583.41 L641.958 1583.41 L641.958 1579.47 Q644.62 1576.72 649.204 1572.09 Q653.81 1567.44 654.991 1566.09 Q657.236 1563.57 658.116 1561.83 Q659.018 1560.07 659.018 1558.38 Q659.018 1555.63 657.074 1553.89 Q655.153 1552.16 652.051 1552.16 Q649.852 1552.16 647.398 1552.92 Q644.968 1553.69 642.19 1555.24 L642.19 1550.51 Q645.014 1549.38 647.468 1548.8 Q649.921 1548.22 651.958 1548.22 Q657.329 1548.22 660.523 1550.91 Q663.718 1553.59 663.718 1558.08 Q663.718 1560.21 662.907 1562.13 Q662.12 1564.03 660.014 1566.63 Q659.435 1567.3 656.333 1570.51 Q653.231 1573.71 647.583 1579.47 Z" fill="#000000" fill-rule="nonzero" fill-opacity="1" /><path clip-path="url(#clip340)" d="M673.764 1548.85 L692.12 1548.85 L692.12 1552.78 L678.046 1552.78 L678.046 1561.26 Q679.065 1560.91 680.083 1560.75 Q681.102 1560.56 682.12 1560.56 Q687.907 1560.56 691.287 1563.73 Q694.666 1566.9 694.666 1572.32 Q694.666 1577.9 691.194 1581 Q687.722 1584.08 681.403 1584.08 Q679.227 1584.08 676.958 1583.71 Q674.713 1583.34 672.305 1582.6 L672.305 1577.9 Q674.389 1579.03 676.611 1579.59 Q678.833 1580.14 681.31 1580.14 Q685.315 1580.14 687.653 1578.04 Q689.991 1575.93 689.991 1572.32 Q689.991 1568.71 687.653 1566.6 Q685.315 1564.5 681.31 1564.5 Q679.435 1564.5 677.56 1564.91 Q675.708 1565.33 673.764 1566.21 L673.764 1548.85 Z" fill="#000000" fill-rule="nonzero" fill-opacity="1" /><path clip-path="url(#clip340)" d="M713.879 1551.93 Q710.268 1551.93 708.44 1555.49 Q706.634 1559.03 706.634 1566.16 Q706.634 1573.27 708.44 1576.83 Q710.268 1580.38 713.879 1580.38 Q717.514 1580.38 719.319 1576.83 Q721.148 1573.27 721.148 1566.16 Q721.148 1559.03 719.319 1555.49 Q717.514 1551.93 713.879 1551.93 M713.879 1548.22 Q719.689 1548.22 722.745 1552.83 Q725.824 1557.41 725.824 1566.16 Q725.824 1574.89 722.745 1579.5 Q719.689 1584.08 713.879 1584.08 Q708.069 1584.08 704.99 1579.5 Q701.935 1574.89 701.935 1566.16 Q701.935 1557.41 704.99 1552.83 Q708.069 1548.22 713.879 1548.22 Z" fill="#000000" fill-rule="nonzero" fill-opacity="1" /><path clip-path="url(#clip340)" d="M1178.42 1548.85 L1196.78 1548.85 L1196.78 1552.78 L1182.7 1552.78 L1182.7 1561.26 Q1183.72 1560.91 1184.74 1560.75 Q1185.76 1560.56 1186.78 1560.56 Q1192.57 1560.56 1195.95 1563.73 Q1199.33 1566.9 1199.33 1572.32 Q1199.33 1577.9 1195.85 1581 Q1192.38 1584.08 1186.06 1584.08 Q1183.89 1584.08 1181.62 1583.71 Q1179.37 1583.34 1176.96 1582.6 L1176.96 1577.9 Q1179.05 1579.03 1181.27 1579.59 Q1183.49 1580.14 1185.97 1580.14 Q1189.97 1580.14 1192.31 1578.04 Q1194.65 1575.93 1194.65 1572.32 Q1194.65 1568.71 1192.31 1566.6 Q1189.97 1564.5 1185.97 1564.5 Q1184.09 1564.5 1182.22 1564.91 Q1180.37 1565.33 1178.42 1566.21 L1178.42 1548.85 Z" fill="#000000" fill-rule="nonzero" fill-opacity="1" /><path clip-path="url(#clip340)" d="M1218.54 1551.93 Q1214.93 1551.93 1213.1 1555.49 Q1211.29 1559.03 1211.29 1566.16 Q1211.29 1573.27 1213.1 1576.83 Q1214.93 1580.38 1218.54 1580.38 Q1222.17 1580.38 1223.98 1576.83 Q1225.81 1573.27 1225.81 1566.16 Q1225.81 1559.03 1223.98 1555.49 Q1222.17 1551.93 1218.54 1551.93 M1218.54 1548.22 Q1224.35 1548.22 1227.4 1552.83 Q1230.48 1557.41 1230.48 1566.16 Q1230.48 1574.89 1227.4 1579.5 Q1224.35 1584.08 1218.54 1584.08 Q1212.73 1584.08 1209.65 1579.5 Q1206.59 1574.89 1206.59 1566.16 Q1206.59 1557.41 1209.65 1552.83 Q1212.73 1548.22 1218.54 1548.22 Z" fill="#000000" fill-rule="nonzero" fill-opacity="1" /><path clip-path="url(#clip340)" d="M1248.7 1551.93 Q1245.09 1551.93 1243.26 1555.49 Q1241.45 1559.03 1241.45 1566.16 Q1241.45 1573.27 1243.26 1576.83 Q1245.09 1580.38 1248.7 1580.38 Q1252.33 1580.38 1254.14 1576.83 Q1255.97 1573.27 1255.97 1566.16 Q1255.97 1559.03 1254.14 1555.49 Q1252.33 1551.93 1248.7 1551.93 M1248.7 1548.22 Q1254.51 1548.22 1257.57 1552.83 Q1260.64 1557.41 1260.64 1566.16 Q1260.64 1574.89 1257.57 1579.5 Q1254.51 1584.08 1248.7 1584.08 Q1242.89 1584.08 1239.81 1579.5 Q1236.76 1574.89 1236.76 1566.16 Q1236.76 1557.41 1239.81 1552.83 Q1242.89 1548.22 1248.7 1548.22 Z" fill="#000000" fill-rule="nonzero" fill-opacity="1" /><path clip-path="url(#clip340)" d="M1711.99 1548.85 L1734.22 1548.85 L1734.22 1550.84 L1721.67 1583.41 L1716.78 1583.41 L1728.59 1552.78 L1711.99 1552.78 L1711.99 1548.85 Z" fill="#000000" fill-rule="nonzero" fill-opacity="1" /><path clip-path="url(#clip340)" d="M1743.38 1548.85 L1761.74 1548.85 L1761.74 1552.78 L1747.66 1552.78 L1747.66 1561.26 Q1748.68 1560.91 1749.7 1560.75 Q1750.72 1560.56 1751.74 1560.56 Q1757.53 1560.56 1760.9 1563.73 Q1764.28 1566.9 1764.28 1572.32 Q1764.28 1577.9 1760.81 1581 Q1757.34 1584.08 1751.02 1584.08 Q1748.84 1584.08 1746.58 1583.71 Q1744.33 1583.34 1741.92 1582.6 L1741.92 1577.9 Q1744.01 1579.03 1746.23 1579.59 Q1748.45 1580.14 1750.93 1580.14 Q1754.93 1580.14 1757.27 1578.04 Q1759.61 1575.93 1759.61 1572.32 Q1759.61 1568.71 1757.27 1566.6 Q1754.93 1564.5 1750.93 1564.5 Q1749.05 1564.5 1747.18 1564.91 Q1745.33 1565.33 1743.38 1566.21 L1743.38 1548.85 Z" fill="#000000" fill-rule="nonzero" fill-opacity="1" /><path clip-path="url(#clip340)" d="M1783.5 1551.93 Q1779.89 1551.93 1778.06 1555.49 Q1776.25 1559.03 1776.25 1566.16 Q1776.25 1573.27 1778.06 1576.83 Q1779.89 1580.38 1783.5 1580.38 Q1787.13 1580.38 1788.94 1576.83 Q1790.77 1573.27 1790.77 1566.16 Q1790.77 1559.03 1788.94 1555.49 Q1787.13 1551.93 1783.5 1551.93 M1783.5 1548.22 Q1789.31 1548.22 1792.36 1552.83 Q1795.44 1557.41 1795.44 1566.16 Q1795.44 1574.89 1792.36 1579.5 Q1789.31 1584.08 1783.5 1584.08 Q1777.69 1584.08 1774.61 1579.5 Q1771.55 1574.89 1771.55 1566.16 Q1771.55 1557.41 1774.61 1552.83 Q1777.69 1548.22 1783.5 1548.22 Z" fill="#000000" fill-rule="nonzero" fill-opacity="1" /><path clip-path="url(#clip340)" d="M2233.16 1579.47 L2240.8 1579.47 L2240.8 1553.11 L2232.48 1554.77 L2232.48 1550.51 L2240.75 1548.85 L2245.42 1548.85 L2245.42 1579.47 L2253.06 1579.47 L2253.06 1583.41 L2233.16 1583.41 L2233.16 1579.47 Z" fill="#000000" fill-rule="nonzero" fill-opacity="1" /><path clip-path="url(#clip340)" d="M2272.51 1551.93 Q2268.9 1551.93 2267.07 1555.49 Q2265.26 1559.03 2265.26 1566.16 Q2265.26 1573.27 2267.07 1576.83 Q2268.9 1580.38 2272.51 1580.38 Q2276.14 1580.38 2277.95 1576.83 Q2279.78 1573.27 2279.78 1566.16 Q2279.78 1559.03 2277.95 1555.49 Q2276.14 1551.93 2272.51 1551.93 M2272.51 1548.22 Q2278.32 1548.22 2281.37 1552.83 Q2284.45 1557.41 2284.45 1566.16 Q2284.45 1574.89 2281.37 1579.5 Q2278.32 1584.08 2272.51 1584.08 Q2266.7 1584.08 2263.62 1579.5 Q2260.56 1574.89 2260.56 1566.16 Q2260.56 1557.41 2263.62 1552.83 Q2266.7 1548.22 2272.51 1548.22 Z" fill="#000000" fill-rule="nonzero" fill-opacity="1" /><path clip-path="url(#clip340)" d="M2302.67 1551.93 Q2299.06 1551.93 2297.23 1555.49 Q2295.42 1559.03 2295.42 1566.16 Q2295.42 1573.27 2297.23 1576.83 Q2299.06 1580.38 2302.67 1580.38 Q2306.3 1580.38 2308.11 1576.83 Q2309.94 1573.27 2309.94 1566.16 Q2309.94 1559.03 2308.11 1555.49 Q2306.3 1551.93 2302.67 1551.93 M2302.67 1548.22 Q2308.48 1548.22 2311.54 1552.83 Q2314.61 1557.41 2314.61 1566.16 Q2314.61 1574.89 2311.54 1579.5 Q2308.48 1584.08 2302.67 1584.08 Q2296.86 1584.08 2293.78 1579.5 Q2290.73 1574.89 2290.73 1566.16 Q2290.73 1557.41 2293.78 1552.83 Q2296.86 1548.22 2302.67 1548.22 Z" fill="#000000" fill-rule="nonzero" fill-opacity="1" /><path clip-path="url(#clip340)" d="M2332.83 1551.93 Q2329.22 1551.93 2327.39 1555.49 Q2325.59 1559.03 2325.59 1566.16 Q2325.59 1573.27 2327.39 1576.83 Q2329.22 1580.38 2332.83 1580.38 Q2336.47 1580.38 2338.27 1576.83 Q2340.1 1573.27 2340.1 1566.16 Q2340.1 1559.03 2338.27 1555.49 Q2336.47 1551.93 2332.83 1551.93 M2332.83 1548.22 Q2338.64 1548.22 2341.7 1552.83 Q2344.78 1557.41 2344.78 1566.16 Q2344.78 1574.89 2341.7 1579.5 Q2338.64 1584.08 2332.83 1584.08 Q2327.02 1584.08 2323.94 1579.5 Q2320.89 1574.89 2320.89 1566.16 Q2320.89 1557.41 2323.94 1552.83 Q2327.02 1548.22 2332.83 1548.22 Z" fill="#000000" fill-rule="nonzero" fill-opacity="1" /><polyline clip-path="url(#clip342)" style="stroke:#000000; stroke-linecap:round; stroke-linejoin:round; stroke-width:2; stroke-opacity:0.1; fill:none" points="86.9921,1479.3 2352.76,1479.3 "/>
<polyline clip-path="url(#clip342)" style="stroke:#000000; stroke-linecap:round; stroke-linejoin:round; stroke-width:2; stroke-opacity:0.1; fill:none" points="86.9921,1253.63 2352.76,1253.63 "/>
<polyline clip-path="url(#clip342)" style="stroke:#000000; stroke-linecap:round; stroke-linejoin:round; stroke-width:2; stroke-opacity:0.1; fill:none" points="86.9921,1027.96 2352.76,1027.96 "/>
<polyline clip-path="url(#clip342)" style="stroke:#000000; stroke-linecap:round; stroke-linejoin:round; stroke-width:2; stroke-opacity:0.1; fill:none" points="86.9921,802.288 2352.76,802.288 "/>
<polyline clip-path="url(#clip342)" style="stroke:#000000; stroke-linecap:round; stroke-linejoin:round; stroke-width:2; stroke-opacity:0.1; fill:none" points="86.9921,576.618 2352.76,576.618 "/>
<polyline clip-path="url(#clip342)" style="stroke:#000000; stroke-linecap:round; stroke-linejoin:round; stroke-width:2; stroke-opacity:0.1; fill:none" points="86.9921,350.948 2352.76,350.948 "/>
<polyline clip-path="url(#clip342)" style="stroke:#000000; stroke-linecap:round; stroke-linejoin:round; stroke-width:2; stroke-opacity:0.1; fill:none" points="86.9921,125.278 2352.76,125.278 "/>
<polyline clip-path="url(#clip340)" style="stroke:#000000; stroke-linecap:round; stroke-linejoin:round; stroke-width:4; stroke-opacity:1; fill:none" points="86.9921,1521.01 86.9921,47.2441 "/>
<polyline clip-path="url(#clip340)" style="stroke:#000000; stroke-linecap:round; stroke-linejoin:round; stroke-width:4; stroke-opacity:1; fill:none" points="86.9921,1479.3 105.89,1479.3 "/>
<polyline clip-path="url(#clip340)" style="stroke:#000000; stroke-linecap:round; stroke-linejoin:round; stroke-width:4; stroke-opacity:1; fill:none" points="86.9921,1253.63 105.89,1253.63 "/>
<polyline clip-path="url(#clip340)" style="stroke:#000000; stroke-linecap:round; stroke-linejoin:round; stroke-width:4; stroke-opacity:1; fill:none" points="86.9921,1027.96 105.89,1027.96 "/>
<polyline clip-path="url(#clip340)" style="stroke:#000000; stroke-linecap:round; stroke-linejoin:round; stroke-width:4; stroke-opacity:1; fill:none" points="86.9921,802.288 105.89,802.288 "/>
<polyline clip-path="url(#clip340)" style="stroke:#000000; stroke-linecap:round; stroke-linejoin:round; stroke-width:4; stroke-opacity:1; fill:none" points="86.9921,576.618 105.89,576.618 "/>
<polyline clip-path="url(#clip340)" style="stroke:#000000; stroke-linecap:round; stroke-linejoin:round; stroke-width:4; stroke-opacity:1; fill:none" points="86.9921,350.948 105.89,350.948 "/>
<polyline clip-path="url(#clip340)" style="stroke:#000000; stroke-linecap:round; stroke-linejoin:round; stroke-width:4; stroke-opacity:1; fill:none" points="86.9921,125.278 105.89,125.278 "/>
<path clip-path="url(#clip340)" d="M10.8708 1532.08 Q10.8708 1535.69 14.4356 1537.51 Q17.9773 1539.32 25.1068 1539.32 Q32.2133 1539.32 35.7781 1537.51 Q39.3197 1535.69 39.3197 1532.08 Q39.3197 1528.44 35.7781 1526.64 Q32.2133 1524.81 25.1068 1524.81 Q17.9773 1524.81 14.4356 1526.64 Q10.8708 1528.44 10.8708 1532.08 M7.16713 1532.08 Q7.16713 1526.26 11.7736 1523.21 Q16.3569 1520.13 25.1068 1520.13 Q33.8337 1520.13 38.4401 1523.21 Q43.0234 1526.26 43.0234 1532.08 Q43.0234 1537.89 38.4401 1540.96 Q33.8337 1544.02 25.1068 1544.02 Q16.3569 1544.02 11.7736 1540.96 Q7.16713 1537.89 7.16713 1532.08 Z" fill="#000000" fill-rule="nonzero" fill-opacity="1" /><path clip-path="url(#clip340)" d="M36.4725 1511.91 L36.4725 1507.03 L42.3521 1507.03 L42.3521 1511.91 L36.4725 1511.91 Z" fill="#000000" fill-rule="nonzero" fill-opacity="1" /><path clip-path="url(#clip340)" d="M10.8708 1486.84 Q10.8708 1490.45 14.4356 1492.28 Q17.9773 1494.09 25.1068 1494.09 Q32.2133 1494.09 35.7781 1492.28 Q39.3197 1490.45 39.3197 1486.84 Q39.3197 1483.21 35.7781 1481.4 Q32.2133 1479.58 25.1068 1479.58 Q17.9773 1479.58 14.4356 1481.4 Q10.8708 1483.21 10.8708 1486.84 M7.16713 1486.84 Q7.16713 1481.03 11.7736 1477.98 Q16.3569 1474.9 25.1068 1474.9 Q33.8337 1474.9 38.4401 1477.98 Q43.0234 1481.03 43.0234 1486.84 Q43.0234 1492.65 38.4401 1495.73 Q33.8337 1498.79 25.1068 1498.79 Q16.3569 1498.79 11.7736 1495.73 Q7.16713 1492.65 7.16713 1486.84 Z" fill="#000000" fill-rule="nonzero" fill-opacity="1" /><path clip-path="url(#clip340)" d="M10.8708 1456.68 Q10.8708 1460.29 14.4356 1462.12 Q17.9773 1463.93 25.1068 1463.93 Q32.2133 1463.93 35.7781 1462.12 Q39.3197 1460.29 39.3197 1456.68 Q39.3197 1453.05 35.7781 1451.24 Q32.2133 1449.41 25.1068 1449.41 Q17.9773 1449.41 14.4356 1451.24 Q10.8708 1453.05 10.8708 1456.68 M7.16713 1456.68 Q7.16713 1450.87 11.7736 1447.82 Q16.3569 1444.74 25.1068 1444.74 Q33.8337 1444.74 38.4401 1447.82 Q43.0234 1450.87 43.0234 1456.68 Q43.0234 1462.49 38.4401 1465.57 Q33.8337 1468.63 25.1068 1468.63 Q16.3569 1468.63 11.7736 1465.57 Q7.16713 1462.49 7.16713 1456.68 Z" fill="#000000" fill-rule="nonzero" fill-opacity="1" /><path clip-path="url(#clip340)" d="M10.8708 1426.52 Q10.8708 1430.13 14.4356 1431.96 Q17.9773 1433.77 25.1068 1433.77 Q32.2133 1433.77 35.7781 1431.96 Q39.3197 1430.13 39.3197 1426.52 Q39.3197 1422.89 35.7781 1421.08 Q32.2133 1419.25 25.1068 1419.25 Q17.9773 1419.25 14.4356 1421.08 Q10.8708 1422.89 10.8708 1426.52 M7.16713 1426.52 Q7.16713 1420.71 11.7736 1417.65 Q16.3569 1414.58 25.1068 1414.58 Q33.8337 1414.58 38.4401 1417.65 Q43.0234 1420.71 43.0234 1426.52 Q43.0234 1432.33 38.4401 1435.41 Q33.8337 1438.46 25.1068 1438.46 Q16.3569 1438.46 11.7736 1435.41 Q7.16713 1432.33 7.16713 1426.52 Z" fill="#000000" fill-rule="nonzero" fill-opacity="1" /><path clip-path="url(#clip340)" d="M10.8708 1305.79 Q10.8708 1309.4 14.4356 1311.23 Q17.9773 1313.04 25.1068 1313.04 Q32.2133 1313.04 35.7781 1311.23 Q39.3197 1309.4 39.3197 1305.79 Q39.3197 1302.16 35.7781 1300.35 Q32.2133 1298.52 25.1068 1298.52 Q17.9773 1298.52 14.4356 1300.35 Q10.8708 1302.16 10.8708 1305.79 M7.16713 1305.79 Q7.16713 1299.98 11.7736 1296.93 Q16.3569 1293.85 25.1068 1293.85 Q33.8337 1293.85 38.4401 1296.93 Q43.0234 1299.98 43.0234 1305.79 Q43.0234 1311.6 38.4401 1314.68 Q33.8337 1317.74 25.1068 1317.74 Q16.3569 1317.74 11.7736 1314.68 Q7.16713 1311.6 7.16713 1305.79 Z" fill="#000000" fill-rule="nonzero" fill-opacity="1" /><path clip-path="url(#clip340)" d="M36.4725 1285.63 L36.4725 1280.75 L42.3521 1280.75 L42.3521 1285.63 L36.4725 1285.63 Z" fill="#000000" fill-rule="nonzero" fill-opacity="1" /><path clip-path="url(#clip340)" d="M10.8708 1260.56 Q10.8708 1264.17 14.4356 1266 Q17.9773 1267.81 25.1068 1267.81 Q32.2133 1267.81 35.7781 1266 Q39.3197 1264.17 39.3197 1260.56 Q39.3197 1256.93 35.7781 1255.12 Q32.2133 1253.29 25.1068 1253.29 Q17.9773 1253.29 14.4356 1255.12 Q10.8708 1256.93 10.8708 1260.56 M7.16713 1260.56 Q7.16713 1254.75 11.7736 1251.69 Q16.3569 1248.62 25.1068 1248.62 Q33.8337 1248.62 38.4401 1251.69 Q43.0234 1254.75 43.0234 1260.56 Q43.0234 1266.37 38.4401 1269.45 Q33.8337 1272.5 25.1068 1272.5 Q16.3569 1272.5 11.7736 1269.45 Q7.16713 1266.37 7.16713 1260.56 Z" fill="#000000" fill-rule="nonzero" fill-opacity="1" /><path clip-path="url(#clip340)" d="M10.8708 1230.4 Q10.8708 1234.01 14.4356 1235.84 Q17.9773 1237.64 25.1068 1237.64 Q32.2133 1237.64 35.7781 1235.84 Q39.3197 1234.01 39.3197 1230.4 Q39.3197 1226.76 35.7781 1224.96 Q32.2133 1223.13 25.1068 1223.13 Q17.9773 1223.13 14.4356 1224.96 Q10.8708 1226.76 10.8708 1230.4 M7.16713 1230.4 Q7.16713 1224.59 11.7736 1221.53 Q16.3569 1218.45 25.1068 1218.45 Q33.8337 1218.45 38.4401 1221.53 Q43.0234 1224.59 43.0234 1230.4 Q43.0234 1236.21 38.4401 1239.29 Q33.8337 1242.34 25.1068 1242.34 Q16.3569 1242.34 11.7736 1239.29 Q7.16713 1236.21 7.16713 1230.4 Z" fill="#000000" fill-rule="nonzero" fill-opacity="1" /><path clip-path="url(#clip340)" d="M38.417 1209.43 L38.417 1201.79 L12.0514 1201.79 L13.718 1210.1 L9.45878 1210.1 L7.79213 1201.83 L7.79213 1197.16 L38.417 1197.16 L38.417 1189.52 L42.3521 1189.52 L42.3521 1209.43 L38.417 1209.43 Z" fill="#000000" fill-rule="nonzero" fill-opacity="1" /><path clip-path="url(#clip340)" d="M10.8708 1079.94 Q10.8708 1083.55 14.4356 1085.38 Q17.9773 1087.18 25.1068 1087.18 Q32.2133 1087.18 35.7781 1085.38 Q39.3197 1083.55 39.3197 1079.94 Q39.3197 1076.3 35.7781 1074.5 Q32.2133 1072.67 25.1068 1072.67 Q17.9773 1072.67 14.4356 1074.5 Q10.8708 1076.3 10.8708 1079.94 M7.16713 1079.94 Q7.16713 1074.13 11.7736 1071.07 Q16.3569 1067.99 25.1068 1067.99 Q33.8337 1067.99 38.4401 1071.07 Q43.0234 1074.13 43.0234 1079.94 Q43.0234 1085.75 38.4401 1088.83 Q33.8337 1091.88 25.1068 1091.88 Q16.3569 1091.88 11.7736 1088.83 Q7.16713 1085.75 7.16713 1079.94 Z" fill="#000000" fill-rule="nonzero" fill-opacity="1" /><path clip-path="url(#clip340)" d="M36.4725 1059.77 L36.4725 1054.89 L42.3521 1054.89 L42.3521 1059.77 L36.4725 1059.77 Z" fill="#000000" fill-rule="nonzero" fill-opacity="1" /><path clip-path="url(#clip340)" d="M10.8708 1034.71 Q10.8708 1038.32 14.4356 1040.15 Q17.9773 1041.95 25.1068 1041.95 Q32.2133 1041.95 35.7781 1040.15 Q39.3197 1038.32 39.3197 1034.71 Q39.3197 1031.07 35.7781 1029.27 Q32.2133 1027.44 25.1068 1027.44 Q17.9773 1027.44 14.4356 1029.27 Q10.8708 1031.07 10.8708 1034.71 M7.16713 1034.71 Q7.16713 1028.9 11.7736 1025.84 Q16.3569 1022.76 25.1068 1022.76 Q33.8337 1022.76 38.4401 1025.84 Q43.0234 1028.9 43.0234 1034.71 Q43.0234 1040.52 38.4401 1043.59 Q33.8337 1046.65 25.1068 1046.65 Q16.3569 1046.65 11.7736 1043.59 Q7.16713 1040.52 7.16713 1034.71 Z" fill="#000000" fill-rule="nonzero" fill-opacity="1" /><path clip-path="url(#clip340)" d="M10.8708 1004.54 Q10.8708 1008.15 14.4356 1009.98 Q17.9773 1011.79 25.1068 1011.79 Q32.2133 1011.79 35.7781 1009.98 Q39.3197 1008.15 39.3197 1004.54 Q39.3197 1000.91 35.7781 999.104 Q32.2133 997.275 25.1068 997.275 Q17.9773 997.275 14.4356 999.104 Q10.8708 1000.91 10.8708 1004.54 M7.16713 1004.54 Q7.16713 998.733 11.7736 995.678 Q16.3569 992.599 25.1068 992.599 Q33.8337 992.599 38.4401 995.678 Q43.0234 998.733 43.0234 1004.54 Q43.0234 1010.35 38.4401 1013.43 Q33.8337 1016.49 25.1068 1016.49 Q16.3569 1016.49 11.7736 1013.43 Q7.16713 1010.35 7.16713 1004.54 Z" fill="#000000" fill-rule="nonzero" fill-opacity="1" /><path clip-path="url(#clip340)" d="M38.417 980.354 L38.417 964.034 L42.3521 964.034 L42.3521 985.979 L38.417 985.979 Q35.6623 983.317 31.0327 978.733 Q26.38 974.127 25.0374 972.946 Q22.5143 970.701 20.7782 969.821 Q19.0189 968.919 17.3291 968.919 Q14.5745 968.919 12.8384 970.863 Q11.1023 972.784 11.1023 975.886 Q11.1023 978.085 11.8662 980.539 Q12.6301 982.969 14.181 985.747 L9.45878 985.747 Q8.32453 982.923 7.74583 980.469 Q7.16713 978.016 7.16713 975.979 Q7.16713 970.608 9.8523 967.414 Q12.5375 964.22 17.0282 964.22 Q19.1578 964.22 21.0791 965.03 Q22.9772 965.817 25.5698 967.923 Q26.2411 968.502 29.4587 971.604 Q32.6531 974.706 38.417 980.354 Z" fill="#000000" fill-rule="nonzero" fill-opacity="1" /><path clip-path="url(#clip340)" d="M10.8708 854.741 Q10.8708 858.352 14.4356 860.181 Q17.9773 861.986 25.1068 861.986 Q32.2133 861.986 35.7781 860.181 Q39.3197 858.352 39.3197 854.741 Q39.3197 851.107 35.7781 849.301 Q32.2133 847.473 25.1068 847.473 Q17.9773 847.473 14.4356 849.301 Q10.8708 851.107 10.8708 854.741 M7.16713 854.741 Q7.16713 848.931 11.7736 845.875 Q16.3569 842.797 25.1068 842.797 Q33.8337 842.797 38.4401 845.875 Q43.0234 848.931 43.0234 854.741 Q43.0234 860.551 38.4401 863.63 Q33.8337 866.685 25.1068 866.685 Q16.3569 866.685 11.7736 863.63 Q7.16713 860.551 7.16713 854.741 Z" fill="#000000" fill-rule="nonzero" fill-opacity="1" /><path clip-path="url(#clip340)" d="M36.4725 834.579 L36.4725 829.695 L42.3521 829.695 L42.3521 834.579 L36.4725 834.579 Z" fill="#000000" fill-rule="nonzero" fill-opacity="1" /><path clip-path="url(#clip340)" d="M10.8708 809.51 Q10.8708 813.121 14.4356 814.95 Q17.9773 816.755 25.1068 816.755 Q32.2133 816.755 35.7781 814.95 Q39.3197 813.121 39.3197 809.51 Q39.3197 805.876 35.7781 804.07 Q32.2133 802.241 25.1068 802.241 Q17.9773 802.241 14.4356 804.07 Q10.8708 805.876 10.8708 809.51 M7.16713 809.51 Q7.16713 803.7 11.7736 800.644 Q16.3569 797.565 25.1068 797.565 Q33.8337 797.565 38.4401 800.644 Q43.0234 803.7 43.0234 809.51 Q43.0234 815.32 38.4401 818.399 Q33.8337 821.454 25.1068 821.454 Q16.3569 821.454 11.7736 818.399 Q7.16713 815.32 7.16713 809.51 Z" fill="#000000" fill-rule="nonzero" fill-opacity="1" /><path clip-path="url(#clip340)" d="M10.8708 779.348 Q10.8708 782.959 14.4356 784.788 Q17.9773 786.593 25.1068 786.593 Q32.2133 786.593 35.7781 784.788 Q39.3197 782.959 39.3197 779.348 Q39.3197 775.714 35.7781 773.908 Q32.2133 772.08 25.1068 772.08 Q17.9773 772.08 14.4356 773.908 Q10.8708 775.714 10.8708 779.348 M7.16713 779.348 Q7.16713 773.538 11.7736 770.482 Q16.3569 767.404 25.1068 767.404 Q33.8337 767.404 38.4401 770.482 Q43.0234 773.538 43.0234 779.348 Q43.0234 785.158 38.4401 788.237 Q33.8337 791.292 25.1068 791.292 Q16.3569 791.292 11.7736 788.237 Q7.16713 785.158 7.16713 779.348 Z" fill="#000000" fill-rule="nonzero" fill-opacity="1" /><path clip-path="url(#clip340)" d="M23.718 745.019 Q24.4356 741.663 26.7041 739.788 Q28.9726 737.89 32.3059 737.89 Q37.4216 737.89 40.2225 741.408 Q43.0234 744.927 43.0234 751.408 Q43.0234 753.584 42.5836 755.899 Q42.1669 758.191 41.3105 760.644 L36.7966 760.644 Q37.9309 758.7 38.5096 756.385 Q39.0883 754.07 39.0883 751.547 Q39.0883 747.149 37.3522 744.857 Q35.6161 742.543 32.3059 742.543 Q29.2503 742.543 27.5374 744.695 Q25.8013 746.825 25.8013 750.644 L25.8013 754.672 L21.9587 754.672 L21.9587 750.459 Q21.9587 747.01 20.593 745.182 Q19.2041 743.353 16.6115 743.353 Q13.9495 743.353 12.5375 745.251 Q11.1023 747.126 11.1023 750.644 Q11.1023 752.566 11.519 754.765 Q11.9356 756.964 12.8152 759.603 L8.6486 759.603 Q7.90787 756.941 7.5375 754.626 Q7.16713 752.288 7.16713 750.228 Q7.16713 744.904 9.59767 741.802 Q12.0051 738.7 16.1254 738.7 Q18.9958 738.7 20.9865 740.344 Q22.9541 741.987 23.718 745.019 Z" fill="#000000" fill-rule="nonzero" fill-opacity="1" /><path clip-path="url(#clip340)" d="M10.8708 629.638 Q10.8708 633.249 14.4356 635.078 Q17.9773 636.884 25.1068 636.884 Q32.2133 636.884 35.7781 635.078 Q39.3197 633.249 39.3197 629.638 Q39.3197 626.004 35.7781 624.198 Q32.2133 622.37 25.1068 622.37 Q17.9773 622.37 14.4356 624.198 Q10.8708 626.004 10.8708 629.638 M7.16713 629.638 Q7.16713 623.828 11.7736 620.773 Q16.3569 617.694 25.1068 617.694 Q33.8337 617.694 38.4401 620.773 Q43.0234 623.828 43.0234 629.638 Q43.0234 635.448 38.4401 638.527 Q33.8337 641.583 25.1068 641.583 Q16.3569 641.583 11.7736 638.527 Q7.16713 635.448 7.16713 629.638 Z" fill="#000000" fill-rule="nonzero" fill-opacity="1" /><path clip-path="url(#clip340)" d="M36.4725 609.476 L36.4725 604.592 L42.3521 604.592 L42.3521 609.476 L36.4725 609.476 Z" fill="#000000" fill-rule="nonzero" fill-opacity="1" /><path clip-path="url(#clip340)" d="M10.8708 584.407 Q10.8708 588.018 14.4356 589.847 Q17.9773 591.652 25.1068 591.652 Q32.2133 591.652 35.7781 589.847 Q39.3197 588.018 39.3197 584.407 Q39.3197 580.773 35.7781 578.967 Q32.2133 577.139 25.1068 577.139 Q17.9773 577.139 14.4356 578.967 Q10.8708 580.773 10.8708 584.407 M7.16713 584.407 Q7.16713 578.597 11.7736 575.541 Q16.3569 572.463 25.1068 572.463 Q33.8337 572.463 38.4401 575.541 Q43.0234 578.597 43.0234 584.407 Q43.0234 590.217 38.4401 593.296 Q33.8337 596.351 25.1068 596.351 Q16.3569 596.351 11.7736 593.296 Q7.16713 590.217 7.16713 584.407 Z" fill="#000000" fill-rule="nonzero" fill-opacity="1" /><path clip-path="url(#clip340)" d="M10.8708 554.245 Q10.8708 557.856 14.4356 559.685 Q17.9773 561.49 25.1068 561.49 Q32.2133 561.49 35.7781 559.685 Q39.3197 557.856 39.3197 554.245 Q39.3197 550.611 35.7781 548.805 Q32.2133 546.977 25.1068 546.977 Q17.9773 546.977 14.4356 548.805 Q10.8708 550.611 10.8708 554.245 M7.16713 554.245 Q7.16713 548.435 11.7736 545.379 Q16.3569 542.301 25.1068 542.301 Q33.8337 542.301 38.4401 545.379 Q43.0234 548.435 43.0234 554.245 Q43.0234 560.055 38.4401 563.134 Q33.8337 566.19 25.1068 566.19 Q16.3569 566.19 11.7736 563.134 Q7.16713 560.055 7.16713 554.245 Z" fill="#000000" fill-rule="nonzero" fill-opacity="1" /><path clip-path="url(#clip340)" d="M11.8662 521.236 L30.3152 533.042 L30.3152 521.236 L11.8662 521.236 M7.79213 522.463 L7.79213 516.583 L30.3152 516.583 L30.3152 511.653 L34.204 511.653 L34.204 516.583 L42.3521 516.583 L42.3521 521.236 L34.204 521.236 L34.204 536.838 L29.6902 536.838 L7.79213 522.463 Z" fill="#000000" fill-rule="nonzero" fill-opacity="1" /><path clip-path="url(#clip340)" d="M10.8708 403.228 Q10.8708 406.839 14.4356 408.667 Q17.9773 410.473 25.1068 410.473 Q32.2133 410.473 35.7781 408.667 Q39.3197 406.839 39.3197 403.228 Q39.3197 399.593 35.7781 397.788 Q32.2133 395.959 25.1068 395.959 Q17.9773 395.959 14.4356 397.788 Q10.8708 399.593 10.8708 403.228 M7.16713 403.228 Q7.16713 397.417 11.7736 394.362 Q16.3569 391.283 25.1068 391.283 Q33.8337 391.283 38.4401 394.362 Q43.0234 397.417 43.0234 403.228 Q43.0234 409.038 38.4401 412.116 Q33.8337 415.172 25.1068 415.172 Q16.3569 415.172 11.7736 412.116 Q7.16713 409.038 7.16713 403.228 Z" fill="#000000" fill-rule="nonzero" fill-opacity="1" /><path clip-path="url(#clip340)" d="M36.4725 383.066 L36.4725 378.181 L42.3521 378.181 L42.3521 383.066 L36.4725 383.066 Z" fill="#000000" fill-rule="nonzero" fill-opacity="1" /><path clip-path="url(#clip340)" d="M10.8708 357.996 Q10.8708 361.607 14.4356 363.436 Q17.9773 365.242 25.1068 365.242 Q32.2133 365.242 35.7781 363.436 Q39.3197 361.607 39.3197 357.996 Q39.3197 354.362 35.7781 352.557 Q32.2133 350.728 25.1068 350.728 Q17.9773 350.728 14.4356 352.557 Q10.8708 354.362 10.8708 357.996 M7.16713 357.996 Q7.16713 352.186 11.7736 349.131 Q16.3569 346.052 25.1068 346.052 Q33.8337 346.052 38.4401 349.131 Q43.0234 352.186 43.0234 357.996 Q43.0234 363.806 38.4401 366.885 Q33.8337 369.941 25.1068 369.941 Q16.3569 369.941 11.7736 366.885 Q7.16713 363.806 7.16713 357.996 Z" fill="#000000" fill-rule="nonzero" fill-opacity="1" /><path clip-path="url(#clip340)" d="M10.8708 327.834 Q10.8708 331.446 14.4356 333.274 Q17.9773 335.08 25.1068 335.08 Q32.2133 335.08 35.7781 333.274 Q39.3197 331.446 39.3197 327.834 Q39.3197 324.2 35.7781 322.395 Q32.2133 320.566 25.1068 320.566 Q17.9773 320.566 14.4356 322.395 Q10.8708 324.2 10.8708 327.834 M7.16713 327.834 Q7.16713 322.024 11.7736 318.969 Q16.3569 315.89 25.1068 315.89 Q33.8337 315.89 38.4401 318.969 Q43.0234 322.024 43.0234 327.834 Q43.0234 333.645 38.4401 336.723 Q33.8337 339.779 25.1068 339.779 Q16.3569 339.779 11.7736 336.723 Q7.16713 333.645 7.16713 327.834 Z" fill="#000000" fill-rule="nonzero" fill-opacity="1" /><path clip-path="url(#clip340)" d="M7.79213 307.626 L7.79213 289.27 L11.7273 289.27 L11.7273 303.344 L20.1995 303.344 Q19.8522 302.325 19.6902 301.307 Q19.505 300.288 19.505 299.27 Q19.505 293.483 22.6763 290.103 Q25.8476 286.724 31.2642 286.724 Q36.8429 286.724 39.9447 290.196 Q43.0234 293.668 43.0234 299.987 Q43.0234 302.163 42.6531 304.432 Q42.2827 306.677 41.5419 309.085 L36.8429 309.085 Q37.9771 307.001 38.5327 304.779 Q39.0883 302.557 39.0883 300.08 Q39.0883 296.075 36.9818 293.737 Q34.8753 291.399 31.2642 291.399 Q27.6531 291.399 25.5467 293.737 Q23.4402 296.075 23.4402 300.08 Q23.4402 301.955 23.8569 303.83 Q24.2735 305.682 25.1531 307.626 L7.79213 307.626 Z" fill="#000000" fill-rule="nonzero" fill-opacity="1" /><path clip-path="url(#clip340)" d="M10.8708 178.136 Q10.8708 181.747 14.4356 183.576 Q17.9773 185.382 25.1068 185.382 Q32.2133 185.382 35.7781 183.576 Q39.3197 181.747 39.3197 178.136 Q39.3197 174.502 35.7781 172.697 Q32.2133 170.868 25.1068 170.868 Q17.9773 170.868 14.4356 172.697 Q10.8708 174.502 10.8708 178.136 M7.16713 178.136 Q7.16713 172.326 11.7736 169.271 Q16.3569 166.192 25.1068 166.192 Q33.8337 166.192 38.4401 169.271 Q43.0234 172.326 43.0234 178.136 Q43.0234 183.946 38.4401 187.025 Q33.8337 190.081 25.1068 190.081 Q16.3569 190.081 11.7736 187.025 Q7.16713 183.946 7.16713 178.136 Z" fill="#000000" fill-rule="nonzero" fill-opacity="1" /><path clip-path="url(#clip340)" d="M36.4725 157.974 L36.4725 153.09 L42.3521 153.09 L42.3521 157.974 L36.4725 157.974 Z" fill="#000000" fill-rule="nonzero" fill-opacity="1" /><path clip-path="url(#clip340)" d="M10.8708 132.905 Q10.8708 136.516 14.4356 138.345 Q17.9773 140.15 25.1068 140.15 Q32.2133 140.15 35.7781 138.345 Q39.3197 136.516 39.3197 132.905 Q39.3197 129.271 35.7781 127.465 Q32.2133 125.637 25.1068 125.637 Q17.9773 125.637 14.4356 127.465 Q10.8708 129.271 10.8708 132.905 M7.16713 132.905 Q7.16713 127.095 11.7736 124.039 Q16.3569 120.961 25.1068 120.961 Q33.8337 120.961 38.4401 124.039 Q43.0234 127.095 43.0234 132.905 Q43.0234 138.715 38.4401 141.794 Q33.8337 144.849 25.1068 144.849 Q16.3569 144.849 11.7736 141.794 Q7.16713 138.715 7.16713 132.905 Z" fill="#000000" fill-rule="nonzero" fill-opacity="1" /><path clip-path="url(#clip340)" d="M10.8708 102.743 Q10.8708 106.354 14.4356 108.183 Q17.9773 109.989 25.1068 109.989 Q32.2133 109.989 35.7781 108.183 Q39.3197 106.354 39.3197 102.743 Q39.3197 99.1089 35.7781 97.3034 Q32.2133 95.4747 25.1068 95.4747 Q17.9773 95.4747 14.4356 97.3034 Q10.8708 99.1089 10.8708 102.743 M7.16713 102.743 Q7.16713 96.933 11.7736 93.8775 Q16.3569 90.7988 25.1068 90.7988 Q33.8337 90.7988 38.4401 93.8775 Q43.0234 96.933 43.0234 102.743 Q43.0234 108.553 38.4401 111.632 Q33.8337 114.688 25.1068 114.688 Q16.3569 114.688 11.7736 111.632 Q7.16713 108.553 7.16713 102.743 Z" fill="#000000" fill-rule="nonzero" fill-opacity="1" /><path clip-path="url(#clip340)" d="M23.2087 72.0026 Q23.2087 75.1507 25.3615 77.0026 Q27.5142 78.8313 31.2642 78.8313 Q34.9911 78.8313 37.167 77.0026 Q39.3197 75.1507 39.3197 72.0026 Q39.3197 68.8545 37.167 67.0258 Q34.9911 65.1739 31.2642 65.1739 Q27.5142 65.1739 25.3615 67.0258 Q23.2087 68.8545 23.2087 72.0026 M8.55601 62.7202 L12.8152 62.7202 Q11.9819 64.4795 11.5421 66.285 Q11.1023 68.0674 11.1023 69.8267 Q11.1023 74.4563 14.2273 76.91 Q17.3523 79.3405 23.6717 79.6878 Q21.6578 78.322 20.593 76.2618 Q19.505 74.2017 19.505 71.7248 Q19.505 66.5165 22.6763 63.5073 Q25.8244 60.4749 31.2642 60.4749 Q36.5883 60.4749 39.8058 63.623 Q43.0234 66.7712 43.0234 72.0026 Q43.0234 77.9979 38.4401 81.1692 Q33.8337 84.3405 25.1068 84.3405 Q16.9124 84.3405 12.0514 80.4516 Q7.16713 76.5628 7.16713 70.0119 Q7.16713 68.2526 7.51435 66.4702 Q7.86157 64.6647 8.55601 62.7202 Z" fill="#000000" fill-rule="nonzero" fill-opacity="1" /><polyline clip-path="url(#clip342)" style="stroke:#009af9; stroke-linecap:round; stroke-linejoin:round; stroke-width:4; stroke-opacity:1; fill:none" points="151.118,1479.3 153.257,1479.3 155.397,1479.3 157.536,1479.3 159.676,1479.3 161.816,1479.3 163.955,1479.3 166.095,1479.3 168.235,1479.3 170.374,1479.3 172.514,1479.3 174.654,1479.3 176.793,1479.3 178.933,1479.3 181.073,1479.3 183.212,1479.3 185.352,1479.3 187.492,1479.3 189.631,1479.3 191.771,1479.3 193.911,1479.3 196.05,1479.3 198.19,1479.3 200.33,1479.3 202.469,1479.3 204.609,1479.3 206.748,1479.3 208.888,1479.3 211.028,1479.3 213.167,1479.3 215.307,1479.3 217.447,1479.3 219.586,1479.3 221.726,1479.3 223.866,1479.3 226.005,1479.3 228.145,1479.3 230.285,1479.3 232.424,1479.3 234.564,1479.3 236.704,1479.3 238.843,1479.3 240.983,1479.3 243.123,1479.3 245.262,1479.3 247.402,1479.3 249.542,1479.3 251.681,1479.3 253.821,1479.3 255.96,1479.3 258.1,1479.3 260.24,1479.3 262.379,1479.3 264.519,1479.3 266.659,1479.3 268.798,1479.3 270.938,1479.3 273.078,1479.3 275.217,1479.3 277.357,1479.3 279.497,1479.3 281.636,1479.3 283.776,1479.3 285.916,1479.3 288.055,1479.3 290.195,1479.3 292.335,1479.3 294.474,1479.3 296.614,1479.3 298.754,1479.3 300.893,1479.3 303.033,1479.3 305.173,1479.3 307.312,1479.3 309.452,1479.3 311.591,1479.3 313.731,1479.3 315.871,1479.3 318.01,1479.3 320.15,1479.3 322.29,1479.3 324.429,1479.3 326.569,1479.3 328.709,1479.3 330.848,1479.3 332.988,1479.3 335.128,1479.3 337.267,1479.3 339.407,1479.3 341.547,1479.3 343.686,1479.3 345.826,1479.3 347.966,1479.3 350.105,1479.3 352.245,1479.3 354.385,1479.3 356.524,1479.3 358.664,1479.3 360.803,1479.3 362.943,1479.3 365.083,1479.3 367.222,1479.3 369.362,1479.3 371.502,1479.3 373.641,1479.3 375.781,1479.3 377.921,1479.3 380.06,1479.3 382.2,1479.3 384.34,1479.3 386.479,1479.3 388.619,1479.3 390.759,1479.3 392.898,1479.3 395.038,1479.3 397.178,1479.3 399.317,1479.3 401.457,1479.3 403.597,1479.3 405.736,1479.3 407.876,1479.3 410.015,1479.3 412.155,1479.3 414.295,1479.3 416.434,1479.3 418.574,1479.3 420.714,1479.3 422.853,1479.3 424.993,1479.3 427.133,1479.3 429.272,1479.3 431.412,1479.3 433.552,1479.3 435.691,1479.3 437.831,1479.3 439.971,1479.3 442.11,1479.3 444.25,1479.3 446.39,1479.3 448.529,1479.3 450.669,1479.3 452.809,1479.3 454.948,1479.3 457.088,1479.3 459.227,1479.3 461.367,1479.3 463.507,1479.3 465.646,1479.3 467.786,1479.3 469.926,1479.3 472.065,1479.3 474.205,1479.3 476.345,1479.3 478.484,1479.3 480.624,1479.3 482.764,1479.3 484.903,1479.3 487.043,1479.3 489.183,1479.3 491.322,1479.3 493.462,1479.3 495.602,1479.3 497.741,1479.3 499.881,1479.3 502.021,1479.3 504.16,1479.3 506.3,1479.3 508.44,1479.3 510.579,1479.3 512.719,1479.3 514.858,1479.3 516.998,1479.3 519.138,1479.3 521.277,1479.3 523.417,1479.3 525.557,1479.3 527.696,1479.3 529.836,1479.3 531.976,1479.3 534.115,1479.3 536.255,1479.3 538.395,1479.3 540.534,1479.3 542.674,1479.3 544.814,1479.3 546.953,1479.3 549.093,1479.3 551.233,1479.3 553.372,1479.3 555.512,1479.3 557.652,1479.3 559.791,1479.3 561.931,1479.3 564.07,1479.3 566.21,1479.3 568.35,1479.3 570.489,1479.3 572.629,1479.3 574.769,1479.3 576.908,1479.3 579.048,1479.3 581.188,1479.3 583.327,88.9544 585.467,102.552 587.607,115.951 589.746,129.155 591.886,142.168 594.026,154.994 596.165,167.637 598.305,180.099 600.445,192.385 602.584,204.497 604.724,216.439 606.864,228.213 609.003,239.824 611.143,251.274 613.282,262.566 615.422,273.704 617.562,284.688 619.701,295.524 621.841,306.212 623.981,316.757 626.12,327.16 628.26,337.424 630.4,347.551 632.539,357.545 634.679,367.406 636.819,377.138 638.958,386.743 641.098,396.223 643.238,405.58 645.377,414.816 647.517,423.934 649.657,432.935 651.796,441.821 653.936,450.594 656.076,459.257 658.215,467.811 660.355,476.257 662.494,484.599 664.634,492.836 666.774,500.972 668.913,509.008 671.053,516.945 673.193,524.784 675.332,532.529 677.472,540.18 679.612,547.738 681.751,555.205 683.891,562.583 686.031,569.873 688.17,577.076 690.31,584.195 692.45,591.229 694.589,598.18 696.729,605.051 698.869,611.841 701.008,618.552 703.148,625.186 705.288,631.744 707.427,638.226 709.567,644.634 711.707,650.969 713.846,657.232 715.986,663.425 718.125,669.548 720.265,675.602 722.405,681.589 724.544,687.508 726.684,693.363 728.824,699.152 730.963,704.878 733.103,710.541 735.243,716.142 737.382,721.682 739.522,727.162 741.662,732.583 743.801,737.946 745.941,743.25 748.081,748.498 750.22,753.691 752.36,758.828 754.5,763.91 756.639,768.939 758.779,773.916 760.919,778.84 763.058,783.712 765.198,788.535 767.337,793.307 769.477,798.029 771.617,802.704 773.756,807.33 775.896,811.909 778.036,816.441 780.175,820.928 782.315,825.368 784.455,829.765 786.594,834.117 788.734,838.425 790.874,842.69 793.013,846.913 795.153,851.094 797.293,855.234 799.432,859.333 801.572,863.392 803.712,867.411 805.851,871.39 807.991,875.331 810.131,879.234 812.27,883.099 814.41,886.927 816.549,890.718 818.689,894.473 820.829,898.192 822.968,901.876 825.108,905.525 827.248,909.139 829.387,912.719 831.527,916.266 833.667,919.779 835.806,923.26 837.946,926.708 840.086,930.125 842.225,933.509 844.365,936.863 846.505,940.186 848.644,943.478 850.784,946.74 852.924,949.973 855.063,953.176 857.203,956.35 859.343,959.496 861.482,962.613 863.622,965.702 865.762,968.764 867.901,971.798 870.041,974.806 872.18,977.786 874.32,980.741 876.46,983.669 878.599,986.572 880.739,989.449 882.879,992.301 885.018,995.128 887.158,997.931 889.298,1000.71 891.437,1003.46 893.577,1006.19 895.717,1008.9 897.856,1011.59 899.996,1014.25 902.136,1016.89 904.275,1019.5 906.415,1022.1 908.555,1024.67 910.694,1027.22 912.834,1029.75 914.974,1032.26 917.113,1034.74 919.253,1037.21 921.392,1039.66 923.532,1042.08 925.672,1044.49 927.811,1046.87 929.951,1049.24 932.091,1051.59 934.23,1053.91 936.37,1056.22 938.51,1058.51 940.649,1060.78 942.789,1063.04 944.929,1065.27 947.068,1067.49 949.208,1069.69 951.348,1071.87 953.487,1074.03 955.627,1076.18 957.767,1078.31 959.906,1080.42 962.046,1082.52 964.186,1084.6 966.325,1086.66 968.465,1088.71 970.604,1090.74 972.744,1092.76 974.884,1094.76 977.023,1096.74 979.163,1098.71 981.303,1100.67 983.442,1102.61 985.582,1104.53 987.722,1106.44 989.861,1108.34 992.001,1110.22 994.141,1112.08 996.28,1113.94 998.42,1115.77 1000.56,1117.6 1002.7,1119.41 1004.84,1121.21 1006.98,1122.99 1009.12,1124.76 1011.26,1126.52 1013.4,1128.26 1015.54,1129.99 1017.68,1131.71 1019.82,1133.42 1021.96,1135.11 1024.1,1136.79 1026.24,1138.46 1028.38,1140.12 1030.51,1141.76 1032.65,1143.39 1034.79,1145.02 1036.93,1146.62 1039.07,1148.22 1041.21,1149.81 1043.35,1151.38 1045.49,1152.95 1047.63,1154.5 1049.77,1156.04 1051.91,1157.57 1054.05,1159.09 1056.19,1160.6 1058.33,1162.1 1060.47,1163.58 1062.61,1165.06 1064.75,1166.53 1066.89,1167.98 1069.03,1169.43 1071.17,1170.87 1073.31,1172.29 1075.45,1173.71 1077.59,1175.11 1079.73,1176.51 1081.87,1177.9 1084.01,1179.28 1086.15,1180.65 1088.29,1182 1090.43,1183.35 1092.56,1184.69 1094.7,1186.03 1096.84,1187.35 1098.98,1188.66 1101.12,1189.97 1103.26,1191.26 1105.4,1192.55 1107.54,1193.83 1109.68,1195.1 1111.82,1196.36 1113.96,1197.61 1116.1,1198.86 1118.24,1200.1 1120.38,1201.32 1122.52,1202.55 1124.66,1203.76 1126.8,1204.96 1128.94,1206.16 1131.08,1207.35 1133.22,1208.53 1135.36,1209.7 1137.5,1210.87 1139.64,1212.03 1141.78,1213.18 1143.92,1214.32 1146.06,1215.46 1148.2,1216.59 1150.34,1217.71 1152.47,1218.82 1154.61,1219.93 1156.75,1221.03 1158.89,1222.12 1161.03,1223.21 1163.17,1224.29 1165.31,1225.36 1167.45,1226.43 1169.59,1227.49 1171.73,1228.54 1173.87,1229.58 1176.01,1230.62 1178.15,1231.66 1180.29,1232.68 1182.43,1233.7 1184.57,1234.72 1186.71,1235.72 1188.85,1236.73 1190.99,1237.72 1193.13,1238.71 1195.27,1239.69 1197.41,1240.67 1199.55,1241.64 1201.69,1242.61 1203.83,1243.56 1205.97,1244.52 1208.11,1245.47 1210.25,1246.41 1212.39,1247.34 1214.52,1248.27 1216.66,1249.2 1218.8,1250.12 1220.94,1251.03 1223.08,1251.94 1225.22,1252.84 1227.36,1253.74 1229.5,1254.63 1231.64,1255.52 1233.78,1256.4 1235.92,1257.28 1238.06,1258.15 1240.2,1259.02 1242.34,1259.88 1244.48,1260.74 1246.62,1261.59 1248.76,1262.43 1250.9,1263.27 1253.04,1264.11 1255.18,1264.94 1257.32,1265.77 1259.46,1266.59 1261.6,1267.41 1263.74,1268.22 1265.88,1269.03 1268.02,1269.83 1270.16,1270.63 1272.3,1271.43 1274.44,1272.22 1276.57,1273 1278.71,1273.78 1280.85,1274.56 1282.99,1275.33 1285.13,1276.1 1287.27,1276.86 1289.41,1277.62 1291.55,1278.37 1293.69,1279.12 1295.83,1279.87 1297.97,1280.61 1300.11,1281.35 1302.25,1282.08 1304.39,1282.81 1306.53,1283.54 1308.67,1284.26 1310.81,1284.98 1312.95,1285.69 1315.09,1286.4 1317.23,1287.11 1319.37,1287.81 1321.51,1288.51 1323.65,1289.2 1325.79,1289.89 1327.93,1290.58 1330.07,1291.26 1332.21,1291.94 1334.35,1292.62 1336.49,1293.29 1338.62,1293.96 1340.76,1294.62 1342.9,1295.29 1345.04,1295.94 1347.18,1296.6 1349.32,1297.25 1351.46,1297.9 1353.6,1298.54 1355.74,1299.18 1357.88,1299.82 1360.02,1300.45 1362.16,1301.08 1364.3,1301.71 1366.44,1302.33 1368.58,1302.95 1370.72,1303.57 1372.86,1304.18 1375,1304.79 1377.14,1305.4 1379.28,1306.01 1381.42,1306.61 1383.56,1307.2 1385.7,1307.8 1387.84,1308.39 1389.98,1308.98 1392.12,1309.57 1394.26,1310.15 1396.4,1310.73 1398.54,1311.31 1400.67,1311.88 1402.81,1312.45 1404.95,1313.02 1407.09,1313.58 1409.23,1314.15 1411.37,1314.71 1413.51,1315.26 1415.65,1315.82 1417.79,1316.37 1419.93,1316.91 1422.07,1317.46 1424.21,1318 1426.35,1318.54 1428.49,1319.08 1430.63,1319.61 1432.77,1320.15 1434.91,1320.67 1437.05,1321.2 1439.19,1321.73 1441.33,1322.25 1443.47,1322.77 1445.61,1323.28 1447.75,1323.8 1449.89,1324.31 1452.03,1324.82 1454.17,1325.32 1456.31,1325.82 1458.45,1326.33 1460.58,1326.82 1462.72,1327.32 1464.86,1327.81 1467,1328.31 1469.14,1328.8 1471.28,1329.28 1473.42,1329.77 1475.56,1330.25 1477.7,1330.73 1479.84,1331.2 1481.98,1331.68 1484.12,1332.15 1486.26,1332.62 1488.4,1333.09 1490.54,1333.56 1492.68,1334.02 1494.82,1334.48 1496.96,1334.94 1499.1,1335.4 1501.24,1335.85 1503.38,1336.31 1505.52,1336.76 1507.66,1337.21 1509.8,1337.65 1511.94,1338.1 1514.08,1338.54 1516.22,1338.98 1518.36,1339.42 1520.5,1339.85 1522.63,1340.29 1524.77,1340.72 1526.91,1341.15 1529.05,1341.58 1531.19,1342 1533.33,1342.43 1535.47,1342.85 1537.61,1343.27 1539.75,1343.69 1541.89,1344.11 1544.03,1344.52 1546.17,1344.93 1548.31,1345.34 1550.45,1345.75 1552.59,1346.16 1554.73,1346.56 1556.87,1346.97 1559.01,1347.37 1561.15,1347.77 1563.29,1348.16 1565.43,1348.56 1567.57,1348.95 1569.71,1349.35 1571.85,1349.74 1573.99,1350.13 1576.13,1350.51 1578.27,1350.9 1580.41,1351.28 1582.55,1351.66 1584.68,1352.04 1586.82,1352.42 1588.96,1352.8 1591.1,1353.17 1593.24,1353.55 1595.38,1353.92 1597.52,1354.29 1599.66,1354.66 1601.8,1355.03 1603.94,1355.39 1606.08,1355.75 1608.22,1356.12 1610.36,1356.48 1612.5,1356.84 1614.64,1357.19 1616.78,1357.55 1618.92,1357.9 1621.06,1358.26 1623.2,1358.61 1625.34,1358.96 1627.48,1359.3 1629.62,1359.65 1631.76,1360 1633.9,1360.34 1636.04,1360.68 1638.18,1361.02 1640.32,1361.36 1642.46,1361.7 1644.6,1362.03 1646.73,1362.37 1648.87,1362.7 1651.01,1363.04 1653.15,1363.37 1655.29,1363.69 1657.43,1364.02 1659.57,1364.35 1661.71,1364.67 1663.85,1365 1665.99,1365.32 1668.13,1365.64 1670.27,1365.96 1672.41,1366.28 1674.55,1366.59 1676.69,1366.91 1678.83,1367.22 1680.97,1367.54 1683.11,1367.85 1685.25,1368.16 1687.39,1368.47 1689.53,1368.78 1691.67,1369.08 1693.81,1369.39 1695.95,1369.69 1698.09,1369.99 1700.23,1370.29 1702.37,1370.59 1704.51,1370.89 1706.64,1371.19 1708.78,1371.49 1710.92,1371.78 1713.06,1372.08 1715.2,1372.37 1717.34,1372.66 1719.48,1372.95 1721.62,1373.24 1723.76,1373.53 1725.9,1373.82 1728.04,1374.1 1730.18,1374.39 1732.32,1374.67 1734.46,1374.95 1736.6,1375.23 1738.74,1375.51 1740.88,1375.79 1743.02,1376.07 1745.16,1376.35 1747.3,1376.62 1749.44,1376.89 1751.58,1377.17 1753.72,1377.44 1755.86,1377.71 1758,1377.98 1760.14,1378.25 1762.28,1378.52 1764.42,1378.79 1766.56,1379.05 1768.69,1379.32 1770.83,1379.58 1772.97,1379.84 1775.11,1380.1 1777.25,1380.36 1779.39,1380.62 1781.53,1380.88 1783.67,1381.14 1785.81,1381.4 1787.95,1381.65 1790.09,1381.91 1792.23,1382.16 1794.37,1382.41 1796.51,1382.66 1798.65,1382.91 1800.79,1383.16 1802.93,1383.41 1805.07,1383.66 1807.21,1383.91 1809.35,1384.15 1811.49,1384.4 1813.63,1384.64 1815.77,1384.88 1817.91,1385.12 1820.05,1385.37 1822.19,1385.61 1824.33,1385.85 1826.47,1386.08 1828.61,1386.32 1830.74,1386.56 1832.88,1386.79 1835.02,1387.03 1837.16,1387.26 1839.3,1387.49 1841.44,1387.73 1843.58,1387.96 1845.72,1388.19 1847.86,1388.42 1850,1388.65 1852.14,1388.87 1854.28,1389.1 1856.42,1389.33 1858.56,1389.55 1860.7,1389.77 1862.84,1390 1864.98,1390.22 1867.12,1390.44 1869.26,1390.66 1871.4,1390.88 1873.54,1391.1 1875.68,1391.32 1877.82,1391.54 1879.96,1391.76 1882.1,1391.97 1884.24,1392.19 1886.38,1392.4 1888.52,1392.61 1890.66,1392.83 1892.79,1393.04 1894.93,1393.25 1897.07,1393.46 1899.21,1393.67 1901.35,1393.88 1903.49,1394.09 1905.63,1394.3 1907.77,1394.5 1909.91,1394.71 1912.05,1394.91 1914.19,1395.12 1916.33,1395.32 1918.47,1395.52 1920.61,1395.73 1922.75,1395.93 1924.89,1396.13 1927.03,1396.33 1929.17,1396.53 1931.31,1396.73 1933.45,1396.93 1935.59,1397.12 1937.73,1397.32 1939.87,1397.51 1942.01,1397.71 1944.15,1397.9 1946.29,1398.1 1948.43,1398.29 1950.57,1398.48 1952.71,1398.67 1954.84,1398.87 1956.98,1399.06 1959.12,1399.25 1961.26,1399.43 1963.4,1399.62 1965.54,1399.81 1967.68,1400 1969.82,1400.18 1971.96,1400.37 1974.1,1400.55 1976.24,1400.74 1978.38,1400.92 1980.52,1401.1 1982.66,1401.29 1984.8,1401.47 1986.94,1401.65 1989.08,1401.83 1991.22,1402.01 1993.36,1402.19 1995.5,1402.37 1997.64,1402.55 1999.78,1402.72 2001.92,1402.9 2004.06,1403.08 2006.2,1403.25 2008.34,1403.43 2010.48,1403.6 2012.62,1403.77 2014.75,1403.95 2016.89,1404.12 2019.03,1404.29 2021.17,1404.46 2023.31,1404.63 2025.45,1404.8 2027.59,1404.97 2029.73,1405.14 2031.87,1405.31 2034.01,1405.48 2036.15,1405.65 2038.29,1405.81 2040.43,1405.98 2042.57,1406.15 2044.71,1406.31 2046.85,1406.47 2048.99,1406.64 2051.13,1406.8 2053.27,1406.96 2055.41,1407.13 2057.55,1407.29 2059.69,1407.45 2061.83,1407.61 2063.97,1407.77 2066.11,1407.93 2068.25,1408.09 2070.39,1408.25 2072.53,1408.41 2074.67,1408.56 2076.8,1408.72 2078.94,1408.88 2081.08,1409.03 2083.22,1409.19 2085.36,1409.34 2087.5,1409.5 2089.64,1409.65 2091.78,1409.8 2093.92,1409.96 2096.06,1410.11 2098.2,1410.26 2100.34,1410.41 2102.48,1410.56 2104.62,1410.71 2106.76,1410.86 2108.9,1411.01 2111.04,1411.16 2113.18,1411.31 2115.32,1411.46 2117.46,1411.61 2119.6,1411.75 2121.74,1411.9 2123.88,1412.04 2126.02,1412.19 2128.16,1412.34 2130.3,1412.48 2132.44,1412.62 2134.58,1412.77 2136.72,1412.91 2138.85,1413.05 2140.99,1413.2 2143.13,1413.34 2145.27,1413.48 2147.41,1413.62 2149.55,1413.76 2151.69,1413.9 2153.83,1414.04 2155.97,1414.18 2158.11,1414.32 2160.25,1414.46 2162.39,1414.59 2164.53,1414.73 2166.67,1414.87 2168.81,1415 2170.95,1415.14 2173.09,1415.28 2175.23,1415.41 2177.37,1415.55 2179.51,1415.68 2181.65,1415.81 2183.79,1415.95 2185.93,1416.08 2188.07,1416.21 2190.21,1416.34 2192.35,1416.48 2194.49,1416.61 2196.63,1416.74 2198.77,1416.87 2200.9,1417 2203.04,1417.13 2205.18,1417.26 2207.32,1417.39 2209.46,1417.52 2211.6,1417.64 2213.74,1417.77 2215.88,1417.9 2218.02,1418.03 2220.16,1418.15 2222.3,1418.28 2224.44,1418.4 2226.58,1418.53 2228.72,1418.65 2230.86,1418.78 2233,1418.9 2235.14,1419.03 2237.28,1419.15 2239.42,1419.27 2241.56,1419.4 2243.7,1419.52 2245.84,1419.64 2247.98,1419.76 2250.12,1419.88 2252.26,1420 2254.4,1420.12 2256.54,1420.24 2258.68,1420.36 2260.82,1420.48 2262.95,1420.6 2265.09,1420.72 2267.23,1420.84 2269.37,1420.96 2271.51,1421.08 2273.65,1421.19 2275.79,1421.31 2277.93,1421.43 2280.07,1421.54 2282.21,1421.66 2284.35,1421.77 2286.49,1421.89 2288.63,1422 "/>
<path clip-path="url(#clip340)" d="M1640.54 200.05 L2277.23 200.05 L2277.23 96.3696 L1640.54 96.3696  Z" fill="#ffffff" fill-rule="evenodd" fill-opacity="1"/>
<polyline clip-path="url(#clip340)" style="stroke:#000000; stroke-linecap:round; stroke-linejoin:round; stroke-width:4; stroke-opacity:1; fill:none" points="1640.54,200.05 2277.23,200.05 2277.23,96.3696 1640.54,96.3696 1640.54,200.05 "/>
<polyline clip-path="url(#clip340)" style="stroke:#009af9; stroke-linecap:round; stroke-linejoin:round; stroke-width:4; stroke-opacity:1; fill:none" points="1665.72,148.21 1816.77,148.21 "/>
<path clip-path="url(#clip340)" d="M1863.65 149.841 L1863.65 165.49 L1859.4 165.49 L1859.4 149.98 Q1859.4 146.3 1857.96 144.471 Q1856.53 142.642 1853.65 142.642 Q1850.21 142.642 1848.21 144.842 Q1846.22 147.041 1846.22 150.837 L1846.22 165.49 L1841.94 165.49 L1841.94 139.564 L1846.22 139.564 L1846.22 143.592 Q1847.75 141.254 1849.81 140.096 Q1851.9 138.939 1854.6 138.939 Q1859.07 138.939 1861.36 141.717 Q1863.65 144.471 1863.65 149.841 Z" fill="#000000" fill-rule="nonzero" fill-opacity="1" /><path clip-path="url(#clip340)" d="M1882.2 142.55 Q1878.77 142.55 1876.78 145.235 Q1874.79 147.897 1874.79 152.55 Q1874.79 157.203 1876.76 159.888 Q1878.75 162.55 1882.2 162.55 Q1885.6 162.55 1887.59 159.865 Q1889.58 157.179 1889.58 152.55 Q1889.58 147.943 1887.59 145.258 Q1885.6 142.55 1882.2 142.55 M1882.2 138.939 Q1887.75 138.939 1890.92 142.55 Q1894.09 146.161 1894.09 152.55 Q1894.09 158.916 1890.92 162.55 Q1887.75 166.161 1882.2 166.161 Q1876.62 166.161 1873.45 162.55 Q1870.3 158.916 1870.3 152.55 Q1870.3 146.161 1873.45 142.55 Q1876.62 138.939 1882.2 138.939 Z" fill="#000000" fill-rule="nonzero" fill-opacity="1" /><path clip-path="url(#clip340)" d="M1922.71 149.841 L1922.71 165.49 L1918.45 165.49 L1918.45 149.98 Q1918.45 146.3 1917.01 144.471 Q1915.58 142.642 1912.71 142.642 Q1909.26 142.642 1907.27 144.842 Q1905.27 147.041 1905.27 150.837 L1905.27 165.49 L1900.99 165.49 L1900.99 139.564 L1905.27 139.564 L1905.27 143.592 Q1906.8 141.254 1908.86 140.096 Q1910.95 138.939 1913.65 138.939 Q1918.12 138.939 1920.41 141.717 Q1922.71 144.471 1922.71 149.841 Z" fill="#000000" fill-rule="nonzero" fill-opacity="1" /><path clip-path="url(#clip340)" d="M1931.2 139.564 L1935.46 139.564 L1935.46 165.49 L1931.2 165.49 L1931.2 139.564 M1931.2 129.471 L1935.46 129.471 L1935.46 134.865 L1931.2 134.865 L1931.2 129.471 Z" fill="#000000" fill-rule="nonzero" fill-opacity="1" /><path clip-path="url(#clip340)" d="M1965.92 149.841 L1965.92 165.49 L1961.66 165.49 L1961.66 149.98 Q1961.66 146.3 1960.23 144.471 Q1958.79 142.642 1955.92 142.642 Q1952.47 142.642 1950.48 144.842 Q1948.49 147.041 1948.49 150.837 L1948.49 165.49 L1944.21 165.49 L1944.21 139.564 L1948.49 139.564 L1948.49 143.592 Q1950.02 141.254 1952.08 140.096 Q1954.16 138.939 1956.87 138.939 Q1961.34 138.939 1963.63 141.717 Q1965.92 144.471 1965.92 149.841 Z" fill="#000000" fill-rule="nonzero" fill-opacity="1" /><path clip-path="url(#clip340)" d="M1987.54 129.471 L1987.54 133.013 L1983.47 133.013 Q1981.18 133.013 1980.27 133.939 Q1979.39 134.865 1979.39 137.272 L1979.39 139.564 L1986.41 139.564 L1986.41 142.874 L1979.39 142.874 L1979.39 165.49 L1975.11 165.49 L1975.11 142.874 L1971.04 142.874 L1971.04 139.564 L1975.11 139.564 L1975.11 137.758 Q1975.11 133.43 1977.13 131.462 Q1979.14 129.471 1983.52 129.471 L1987.54 129.471 Z" fill="#000000" fill-rule="nonzero" fill-opacity="1" /><path clip-path="url(#clip340)" d="M2001.15 142.55 Q1997.73 142.55 1995.74 145.235 Q1993.75 147.897 1993.75 152.55 Q1993.75 157.203 1995.71 159.888 Q1997.7 162.55 2001.15 162.55 Q2004.56 162.55 2006.55 159.865 Q2008.54 157.179 2008.54 152.55 Q2008.54 147.943 2006.55 145.258 Q2004.56 142.55 2001.15 142.55 M2001.15 138.939 Q2006.71 138.939 2009.88 142.55 Q2013.05 146.161 2013.05 152.55 Q2013.05 158.916 2009.88 162.55 Q2006.71 166.161 2001.15 166.161 Q1995.58 166.161 1992.4 162.55 Q1989.26 158.916 1989.26 152.55 Q1989.26 146.161 1992.4 142.55 Q1995.58 138.939 2001.15 138.939 Z" fill="#000000" fill-rule="nonzero" fill-opacity="1" /><path clip-path="url(#clip340)" d="M2039.81 173.36 L2039.81 176.67 L2015.18 176.67 L2015.18 173.36 L2039.81 173.36 Z" fill="#000000" fill-rule="nonzero" fill-opacity="1" /><path clip-path="url(#clip340)" d="M2047.94 161.601 L2047.94 175.351 L2043.65 175.351 L2043.65 139.564 L2047.94 139.564 L2047.94 143.499 Q2049.28 141.184 2051.32 140.073 Q2053.38 138.939 2056.22 138.939 Q2060.95 138.939 2063.89 142.689 Q2066.85 146.439 2066.85 152.55 Q2066.85 158.661 2063.89 162.411 Q2060.95 166.161 2056.22 166.161 Q2053.38 166.161 2051.32 165.05 Q2049.28 163.915 2047.94 161.601 M2062.43 152.55 Q2062.43 147.851 2060.48 145.189 Q2058.56 142.504 2055.18 142.504 Q2051.8 142.504 2049.86 145.189 Q2047.94 147.851 2047.94 152.55 Q2047.94 157.249 2049.86 159.934 Q2051.8 162.596 2055.18 162.596 Q2058.56 162.596 2060.48 159.934 Q2062.43 157.249 2062.43 152.55 Z" fill="#000000" fill-rule="nonzero" fill-opacity="1" /><path clip-path="url(#clip340)" d="M2083.95 142.55 Q2080.53 142.55 2078.54 145.235 Q2076.55 147.897 2076.55 152.55 Q2076.55 157.203 2078.51 159.888 Q2080.51 162.55 2083.95 162.55 Q2087.36 162.55 2089.35 159.865 Q2091.34 157.179 2091.34 152.55 Q2091.34 147.943 2089.35 145.258 Q2087.36 142.55 2083.95 142.55 M2083.95 138.939 Q2089.51 138.939 2092.68 142.55 Q2095.85 146.161 2095.85 152.55 Q2095.85 158.916 2092.68 162.55 Q2089.51 166.161 2083.95 166.161 Q2078.38 166.161 2075.2 162.55 Q2072.06 158.916 2072.06 152.55 Q2072.06 146.161 2075.2 142.55 Q2078.38 138.939 2083.95 138.939 Z" fill="#000000" fill-rule="nonzero" fill-opacity="1" /><path clip-path="url(#clip340)" d="M2119.44 140.328 L2119.44 144.355 Q2117.63 143.429 2115.69 142.967 Q2113.75 142.504 2111.66 142.504 Q2108.49 142.504 2106.89 143.476 Q2105.32 144.448 2105.32 146.392 Q2105.32 147.874 2106.45 148.73 Q2107.59 149.564 2111.01 150.328 L2112.47 150.652 Q2117.01 151.624 2118.91 153.406 Q2120.83 155.166 2120.83 158.337 Q2120.83 161.948 2117.96 164.054 Q2115.11 166.161 2110.11 166.161 Q2108.03 166.161 2105.76 165.744 Q2103.51 165.351 2101.01 164.54 L2101.01 160.142 Q2103.38 161.369 2105.67 161.994 Q2107.96 162.596 2110.2 162.596 Q2113.21 162.596 2114.83 161.578 Q2116.45 160.536 2116.45 158.661 Q2116.45 156.925 2115.27 155.999 Q2114.12 155.073 2110.16 154.216 L2108.68 153.869 Q2104.72 153.036 2102.96 151.323 Q2101.2 149.587 2101.2 146.578 Q2101.2 142.92 2103.79 140.93 Q2106.38 138.939 2111.15 138.939 Q2113.51 138.939 2115.6 139.286 Q2117.68 139.633 2119.44 140.328 Z" fill="#000000" fill-rule="nonzero" fill-opacity="1" /><path clip-path="url(#clip340)" d="M2131.82 132.203 L2131.82 139.564 L2140.6 139.564 L2140.6 142.874 L2131.82 142.874 L2131.82 156.948 Q2131.82 160.119 2132.68 161.022 Q2133.56 161.925 2136.22 161.925 L2140.6 161.925 L2140.6 165.49 L2136.22 165.49 Q2131.29 165.49 2129.42 163.661 Q2127.54 161.809 2127.54 156.948 L2127.54 142.874 L2124.42 142.874 L2124.42 139.564 L2127.54 139.564 L2127.54 132.203 L2131.82 132.203 Z" fill="#000000" fill-rule="nonzero" fill-opacity="1" /><path clip-path="url(#clip340)" d="M2168.38 151.462 L2168.38 153.545 L2148.79 153.545 Q2149.07 157.943 2151.43 160.258 Q2153.82 162.55 2158.05 162.55 Q2160.5 162.55 2162.8 161.948 Q2165.11 161.346 2167.38 160.142 L2167.38 164.17 Q2165.09 165.142 2162.68 165.652 Q2160.27 166.161 2157.8 166.161 Q2151.59 166.161 2147.96 162.55 Q2144.35 158.939 2144.35 152.781 Q2144.35 146.416 2147.77 142.689 Q2151.22 138.939 2157.06 138.939 Q2162.29 138.939 2165.32 142.318 Q2168.38 145.675 2168.38 151.462 M2164.12 150.212 Q2164.07 146.717 2162.15 144.633 Q2160.25 142.55 2157.1 142.55 Q2153.54 142.55 2151.38 144.564 Q2149.25 146.578 2148.93 150.235 L2164.12 150.212 Z" fill="#000000" fill-rule="nonzero" fill-opacity="1" /><path clip-path="url(#clip340)" d="M2190.39 143.545 Q2189.67 143.129 2188.81 142.943 Q2187.98 142.735 2186.96 142.735 Q2183.35 142.735 2181.41 145.096 Q2179.49 147.434 2179.49 151.832 L2179.49 165.49 L2175.2 165.49 L2175.2 139.564 L2179.49 139.564 L2179.49 143.592 Q2180.83 141.23 2182.98 140.096 Q2185.13 138.939 2188.21 138.939 Q2188.65 138.939 2189.19 139.008 Q2189.72 139.055 2190.37 139.17 L2190.39 143.545 Z" fill="#000000" fill-rule="nonzero" fill-opacity="1" /><path clip-path="url(#clip340)" d="M2194.86 139.564 L2199.12 139.564 L2199.12 165.49 L2194.86 165.49 L2194.86 139.564 M2194.86 129.471 L2199.12 129.471 L2199.12 134.865 L2194.86 134.865 L2194.86 129.471 Z" fill="#000000" fill-rule="nonzero" fill-opacity="1" /><path clip-path="url(#clip340)" d="M2218.07 142.55 Q2214.65 142.55 2212.66 145.235 Q2210.67 147.897 2210.67 152.55 Q2210.67 157.203 2212.63 159.888 Q2214.62 162.55 2218.07 162.55 Q2221.48 162.55 2223.47 159.865 Q2225.46 157.179 2225.46 152.55 Q2225.46 147.943 2223.47 145.258 Q2221.48 142.55 2218.07 142.55 M2218.07 138.939 Q2223.63 138.939 2226.8 142.55 Q2229.97 146.161 2229.97 152.55 Q2229.97 158.916 2226.8 162.55 Q2223.63 166.161 2218.07 166.161 Q2212.5 166.161 2209.32 162.55 Q2206.18 158.916 2206.18 152.55 Q2206.18 146.161 2209.32 142.55 Q2212.5 138.939 2218.07 138.939 Z" fill="#000000" fill-rule="nonzero" fill-opacity="1" /><path clip-path="url(#clip340)" d="M2252.06 143.545 Q2251.34 143.129 2250.48 142.943 Q2249.65 142.735 2248.63 142.735 Q2245.02 142.735 2243.07 145.096 Q2241.15 147.434 2241.15 151.832 L2241.15 165.49 L2236.87 165.49 L2236.87 139.564 L2241.15 139.564 L2241.15 143.592 Q2242.5 141.23 2244.65 140.096 Q2246.8 138.939 2249.88 138.939 Q2250.32 138.939 2250.85 139.008 Q2251.38 139.055 2252.03 139.17 L2252.06 143.545 Z" fill="#000000" fill-rule="nonzero" fill-opacity="1" /></svg>
