<?xml version="1.0" encoding="utf-8"?>
<svg xmlns="http://www.w3.org/2000/svg" xmlns:xlink="http://www.w3.org/1999/xlink" width="600" height="400" viewBox="0 0 2400 1600">
<defs>
  <clipPath id="clip880">
    <rect x="0" y="0" width="2400" height="1600"/>
  </clipPath>
</defs>
<path clip-path="url(#clip880)" d="M0 1600 L2400 1600 L2400 0 L0 0  Z" fill="#ffffff" fill-rule="evenodd" fill-opacity="1"/>
<defs>
  <clipPath id="clip881">
    <rect x="480" y="0" width="1681" height="1600"/>
  </clipPath>
</defs>
<path clip-path="url(#clip880)" d="M86.9921 1521.01 L2352.76 1521.01 L2352.76 47.2441 L86.9921 47.2441  Z" fill="#ffffff" fill-rule="evenodd" fill-opacity="1"/>
<defs>
  <clipPath id="clip882">
    <rect x="86" y="47" width="2267" height="1475"/>
  </clipPath>
</defs>
<polyline clip-path="url(#clip882)" style="stroke:#000000; stroke-linecap:round; stroke-linejoin:round; stroke-width:2; stroke-opacity:0.1; fill:none" points="148.978,1521.01 148.978,47.2441 "/>
<polyline clip-path="url(#clip882)" style="stroke:#000000; stroke-linecap:round; stroke-linejoin:round; stroke-width:2; stroke-opacity:0.1; fill:none" points="683.891,1521.01 683.891,47.2441 "/>
<polyline clip-path="url(#clip882)" style="stroke:#000000; stroke-linecap:round; stroke-linejoin:round; stroke-width:2; stroke-opacity:0.1; fill:none" points="1218.8,1521.01 1218.8,47.2441 "/>
<polyline clip-path="url(#clip882)" style="stroke:#000000; stroke-linecap:round; stroke-linejoin:round; stroke-width:2; stroke-opacity:0.1; fill:none" points="1753.72,1521.01 1753.72,47.2441 "/>
<polyline clip-path="url(#clip882)" style="stroke:#000000; stroke-linecap:round; stroke-linejoin:round; stroke-width:2; stroke-opacity:0.1; fill:none" points="2288.63,1521.01 2288.63,47.2441 "/>
<polyline clip-path="url(#clip880)" style="stroke:#000000; stroke-linecap:round; stroke-linejoin:round; stroke-width:4; stroke-opacity:1; fill:none" points="86.9921,1521.01 2352.76,1521.01 "/>
<polyline clip-path="url(#clip880)" style="stroke:#000000; stroke-linecap:round; stroke-linejoin:round; stroke-width:4; stroke-opacity:1; fill:none" points="148.978,1521.01 148.978,1502.11 "/>
<polyline clip-path="url(#clip880)" style="stroke:#000000; stroke-linecap:round; stroke-linejoin:round; stroke-width:4; stroke-opacity:1; fill:none" points="683.891,1521.01 683.891,1502.11 "/>
<polyline clip-path="url(#clip880)" style="stroke:#000000; stroke-linecap:round; stroke-linejoin:round; stroke-width:4; stroke-opacity:1; fill:none" points="1218.8,1521.01 1218.8,1502.11 "/>
<polyline clip-path="url(#clip880)" style="stroke:#000000; stroke-linecap:round; stroke-linejoin:round; stroke-width:4; stroke-opacity:1; fill:none" points="1753.72,1521.01 1753.72,1502.11 "/>
<polyline clip-path="url(#clip880)" style="stroke:#000000; stroke-linecap:round; stroke-linejoin:round; stroke-width:4; stroke-opacity:1; fill:none" points="2288.63,1521.01 2288.63,1502.11 "/>
<path clip-path="url(#clip880)" d="M148.978 1551.93 Q145.367 1551.93 143.538 1555.49 Q141.733 1559.03 141.733 1566.16 Q141.733 1573.27 143.538 1576.83 Q145.367 1580.38 148.978 1580.38 Q152.612 1580.38 154.418 1576.83 Q156.246 1573.27 156.246 1566.16 Q156.246 1559.03 154.418 1555.49 Q152.612 1551.93 148.978 1551.93 M148.978 1548.22 Q154.788 1548.22 157.844 1552.83 Q160.922 1557.41 160.922 1566.16 Q160.922 1574.89 157.844 1579.5 Q154.788 1584.08 148.978 1584.08 Q143.168 1584.08 140.089 1579.5 Q137.033 1574.89 137.033 1566.16 Q137.033 1557.41 140.089 1552.83 Q143.168 1548.22 148.978 1548.22 Z" fill="#000000" fill-rule="nonzero" fill-opacity="1" /><path clip-path="url(#clip880)" d="M647.583 1579.47 L663.903 1579.47 L663.903 1583.41 L641.958 1583.41 L641.958 1579.47 Q644.62 1576.72 649.204 1572.09 Q653.81 1567.44 654.991 1566.09 Q657.236 1563.57 658.116 1561.83 Q659.018 1560.07 659.018 1558.38 Q659.018 1555.63 657.074 1553.89 Q655.153 1552.16 652.051 1552.16 Q649.852 1552.16 647.398 1552.92 Q644.968 1553.69 642.19 1555.24 L642.19 1550.51 Q645.014 1549.38 647.468 1548.8 Q649.921 1548.22 651.958 1548.22 Q657.329 1548.22 660.523 1550.91 Q663.718 1553.59 663.718 1558.08 Q663.718 1560.21 662.907 1562.13 Q662.12 1564.03 660.014 1566.63 Q659.435 1567.3 656.333 1570.51 Q653.231 1573.71 647.583 1579.47 Z" fill="#000000" fill-rule="nonzero" fill-opacity="1" /><path clip-path="url(#clip880)" d="M673.764 1548.85 L692.12 1548.85 L692.12 1552.78 L678.046 1552.78 L678.046 1561.26 Q679.065 1560.91 680.083 1560.75 Q681.102 1560.56 682.12 1560.56 Q687.907 1560.56 691.287 1563.73 Q694.666 1566.9 694.666 1572.32 Q694.666 1577.9 691.194 1581 Q687.722 1584.08 681.403 1584.08 Q679.227 1584.08 676.958 1583.71 Q674.713 1583.34 672.305 1582.6 L672.305 1577.9 Q674.389 1579.03 676.611 1579.59 Q678.833 1580.14 681.31 1580.14 Q685.315 1580.14 687.653 1578.04 Q689.991 1575.93 689.991 1572.32 Q689.991 1568.71 687.653 1566.6 Q685.315 1564.5 681.31 1564.5 Q679.435 1564.5 677.56 1564.91 Q675.708 1565.33 673.764 1566.21 L673.764 1548.85 Z" fill="#000000" fill-rule="nonzero" fill-opacity="1" /><path clip-path="url(#clip880)" d="M713.879 1551.93 Q710.268 1551.93 708.44 1555.49 Q706.634 1559.03 706.634 1566.16 Q706.634 1573.27 708.44 1576.83 Q710.268 1580.38 713.879 1580.38 Q717.514 1580.38 719.319 1576.83 Q721.148 1573.27 721.148 1566.16 Q721.148 1559.03 719.319 1555.49 Q717.514 1551.93 713.879 1551.93 M713.879 1548.22 Q719.689 1548.22 722.745 1552.83 Q725.824 1557.41 725.824 1566.16 Q725.824 1574.89 722.745 1579.5 Q719.689 1584.08 713.879 1584.08 Q708.069 1584.08 704.99 1579.5 Q701.935 1574.89 701.935 1566.16 Q701.935 1557.41 704.99 1552.83 Q708.069 1548.22 713.879 1548.22 Z" fill="#000000" fill-rule="nonzero" fill-opacity="1" /><path clip-path="url(#clip880)" d="M1178.42 1548.85 L1196.78 1548.85 L1196.78 1552.78 L1182.7 1552.78 L1182.7 1561.26 Q1183.72 1560.91 1184.74 1560.75 Q1185.76 1560.56 1186.78 1560.56 Q1192.57 1560.56 1195.95 1563.73 Q1199.33 1566.9 1199.33 1572.32 Q1199.33 1577.9 1195.85 1581 Q1192.38 1584.08 1186.06 1584.08 Q1183.89 1584.08 1181.62 1583.71 Q1179.37 1583.34 1176.96 1582.6 L1176.96 1577.9 Q1179.05 1579.03 1181.27 1579.59 Q1183.49 1580.14 1185.97 1580.14 Q1189.97 1580.14 1192.31 1578.04 Q1194.65 1575.93 1194.65 1572.32 Q1194.65 1568.71 1192.31 1566.6 Q1189.97 1564.5 1185.97 1564.5 Q1184.09 1564.5 1182.22 1564.91 Q1180.37 1565.33 1178.42 1566.21 L1178.42 1548.85 Z" fill="#000000" fill-rule="nonzero" fill-opacity="1" /><path clip-path="url(#clip880)" d="M1218.54 1551.93 Q1214.93 1551.93 1213.1 1555.49 Q1211.29 1559.03 1211.29 1566.16 Q1211.29 1573.27 1213.1 1576.83 Q1214.93 1580.38 1218.54 1580.38 Q1222.17 1580.38 1223.98 1576.83 Q1225.81 1573.27 1225.81 1566.16 Q1225.81 1559.03 1223.98 1555.49 Q1222.17 1551.93 1218.54 1551.93 M1218.54 1548.22 Q1224.35 1548.22 1227.4 1552.83 Q1230.48 1557.41 1230.48 1566.16 Q1230.48 1574.89 1227.4 1579.5 Q1224.35 1584.08 1218.54 1584.08 Q1212.73 1584.08 1209.65 1579.5 Q1206.59 1574.89 1206.59 1566.16 Q1206.59 1557.41 1209.65 1552.83 Q1212.73 1548.22 1218.54 1548.22 Z" fill="#000000" fill-rule="nonzero" fill-opacity="1" /><path clip-path="url(#clip880)" d="M1248.7 1551.93 Q1245.09 1551.93 1243.26 1555.49 Q1241.45 1559.03 1241.45 1566.16 Q1241.45 1573.27 1243.26 1576.83 Q1245.09 1580.38 1248.7 1580.38 Q1252.33 1580.38 1254.14 1576.83 Q1255.97 1573.27 1255.97 1566.16 Q1255.97 1559.03 1254.14 1555.49 Q1252.33 1551.93 1248.7 1551.93 M1248.7 1548.22 Q1254.51 1548.22 1257.57 1552.83 Q1260.64 1557.41 1260.64 1566.16 Q1260.64 1574.89 1257.57 1579.5 Q1254.51 1584.08 1248.7 1584.08 Q1242.89 1584.08 1239.81 1579.5 Q1236.76 1574.89 1236.76 1566.16 Q1236.76 1557.41 1239.81 1552.83 Q1242.89 1548.22 1248.7 1548.22 Z" fill="#000000" fill-rule="nonzero" fill-opacity="1" /><path clip-path="url(#clip880)" d="M1711.99 1548.85 L1734.22 1548.85 L1734.22 1550.84 L1721.67 1583.41 L1716.78 1583.41 L1728.59 1552.78 L1711.99 1552.78 L1711.99 1548.85 Z" fill="#000000" fill-rule="nonzero" fill-opacity="1" /><path clip-path="url(#clip880)" d="M1743.38 1548.85 L1761.74 1548.85 L1761.74 1552.78 L1747.66 1552.78 L1747.66 1561.26 Q1748.68 1560.91 1749.7 1560.75 Q1750.72 1560.56 1751.74 1560.56 Q1757.53 1560.56 1760.9 1563.73 Q1764.28 1566.9 1764.28 1572.32 Q1764.28 1577.9 1760.81 1581 Q1757.34 1584.08 1751.02 1584.08 Q1748.84 1584.08 1746.58 1583.71 Q1744.33 1583.34 1741.92 1582.6 L1741.92 1577.9 Q1744.01 1579.03 1746.23 1579.59 Q1748.45 1580.14 1750.93 1580.14 Q1754.93 1580.14 1757.27 1578.04 Q1759.61 1575.93 1759.61 1572.32 Q1759.61 1568.71 1757.27 1566.6 Q1754.93 1564.5 1750.93 1564.5 Q1749.05 1564.5 1747.18 1564.91 Q1745.33 1565.33 1743.38 1566.21 L1743.38 1548.85 Z" fill="#000000" fill-rule="nonzero" fill-opacity="1" /><path clip-path="url(#clip880)" d="M1783.5 1551.93 Q1779.89 1551.93 1778.06 1555.49 Q1776.25 1559.03 1776.25 1566.16 Q1776.25 1573.27 1778.06 1576.83 Q1779.89 1580.38 1783.5 1580.38 Q1787.13 1580.38 1788.94 1576.83 Q1790.77 1573.27 1790.77 1566.16 Q1790.77 1559.03 1788.94 1555.49 Q1787.13 1551.93 1783.5 1551.93 M1783.5 1548.22 Q1789.31 1548.22 1792.36 1552.83 Q1795.44 1557.41 1795.44 1566.16 Q1795.44 1574.89 1792.36 1579.5 Q1789.31 1584.08 1783.5 1584.08 Q1777.69 1584.08 1774.61 1579.5 Q1771.55 1574.89 1771.55 1566.16 Q1771.55 1557.41 1774.61 1552.83 Q1777.69 1548.22 1783.5 1548.22 Z" fill="#000000" fill-rule="nonzero" fill-opacity="1" /><path clip-path="url(#clip880)" d="M2233.16 1579.47 L2240.8 1579.47 L2240.8 1553.11 L2232.48 1554.77 L2232.48 1550.51 L2240.75 1548.85 L2245.42 1548.85 L2245.42 1579.47 L2253.06 1579.47 L2253.06 1583.41 L2233.16 1583.41 L2233.16 1579.47 Z" fill="#000000" fill-rule="nonzero" fill-opacity="1" /><path clip-path="url(#clip880)" d="M2272.51 1551.93 Q2268.9 1551.93 2267.07 1555.49 Q2265.26 1559.03 2265.26 1566.16 Q2265.26 1573.27 2267.07 1576.83 Q2268.9 1580.38 2272.51 1580.38 Q2276.14 1580.38 2277.95 1576.83 Q2279.78 1573.27 2279.78 1566.16 Q2279.78 1559.03 2277.95 1555.49 Q2276.14 1551.93 2272.51 1551.93 M2272.51 1548.22 Q2278.32 1548.22 2281.37 1552.83 Q2284.45 1557.41 2284.45 1566.16 Q2284.45 1574.89 2281.37 1579.5 Q2278.32 1584.08 2272.51 1584.08 Q2266.7 1584.08 2263.62 1579.5 Q2260.56 1574.89 2260.56 1566.16 Q2260.56 1557.41 2263.62 1552.83 Q2266.7 1548.22 2272.51 1548.22 Z" fill="#000000" fill-rule="nonzero" fill-opacity="1" /><path clip-path="url(#clip880)" d="M2302.67 1551.93 Q2299.06 1551.93 2297.23 1555.49 Q2295.42 1559.03 2295.42 1566.16 Q2295.42 1573.27 2297.23 1576.83 Q2299.06 1580.38 2302.67 1580.38 Q2306.3 1580.38 2308.11 1576.83 Q2309.94 1573.27 2309.94 1566.16 Q2309.94 1559.03 2308.11 1555.49 Q2306.3 1551.93 2302.67 1551.93 M2302.67 1548.22 Q2308.48 1548.22 2311.54 1552.83 Q2314.61 1557.41 2314.61 1566.16 Q2314.61 1574.89 2311.54 1579.5 Q2308.48 1584.08 2302.67 1584.08 Q2296.86 1584.08 2293.78 1579.5 Q2290.73 1574.89 2290.73 1566.16 Q2290.73 1557.41 2293.78 1552.83 Q2296.86 1548.22 2302.67 1548.22 Z" fill="#000000" fill-rule="nonzero" fill-opacity="1" /><path clip-path="url(#clip880)" d="M2332.83 1551.93 Q2329.22 1551.93 2327.39 1555.49 Q2325.59 1559.03 2325.59 1566.16 Q2325.59 1573.27 2327.39 1576.83 Q2329.22 1580.38 2332.83 1580.38 Q2336.47 1580.38 2338.27 1576.83 Q2340.1 1573.27 2340.1 1566.16 Q2340.1 1559.03 2338.27 1555.49 Q2336.47 1551.93 2332.83 1551.93 M2332.83 1548.22 Q2338.64 1548.22 2341.7 1552.83 Q2344.78 1557.41 2344.78 1566.16 Q2344.78 1574.89 2341.7 1579.5 Q2338.64 1584.08 2332.83 1584.08 Q2327.02 1584.08 2323.94 1579.5 Q2320.89 1574.89 2320.89 1566.16 Q2320.89 1557.41 2323.94 1552.83 Q2327.02 1548.22 2332.83 1548.22 Z" fill="#000000" fill-rule="nonzero" fill-opacity="1" /><polyline clip-path="url(#clip882)" style="stroke:#000000; stroke-linecap:round; stroke-linejoin:round; stroke-width:2; stroke-opacity:0.1; fill:none" points="86.9921,1479.3 2352.76,1479.3 "/>
<polyline clip-path="url(#clip882)" style="stroke:#000000; stroke-linecap:round; stroke-linejoin:round; stroke-width:2; stroke-opacity:0.1; fill:none" points="86.9921,1226.5 2352.76,1226.5 "/>
<polyline clip-path="url(#clip882)" style="stroke:#000000; stroke-linecap:round; stroke-linejoin:round; stroke-width:2; stroke-opacity:0.1; fill:none" points="86.9921,973.695 2352.76,973.695 "/>
<polyline clip-path="url(#clip882)" style="stroke:#000000; stroke-linecap:round; stroke-linejoin:round; stroke-width:2; stroke-opacity:0.1; fill:none" points="86.9921,720.893 2352.76,720.893 "/>
<polyline clip-path="url(#clip882)" style="stroke:#000000; stroke-linecap:round; stroke-linejoin:round; stroke-width:2; stroke-opacity:0.1; fill:none" points="86.9921,468.092 2352.76,468.092 "/>
<polyline clip-path="url(#clip882)" style="stroke:#000000; stroke-linecap:round; stroke-linejoin:round; stroke-width:2; stroke-opacity:0.1; fill:none" points="86.9921,215.29 2352.76,215.29 "/>
<polyline clip-path="url(#clip880)" style="stroke:#000000; stroke-linecap:round; stroke-linejoin:round; stroke-width:4; stroke-opacity:1; fill:none" points="86.9921,1521.01 86.9921,47.2441 "/>
<polyline clip-path="url(#clip880)" style="stroke:#000000; stroke-linecap:round; stroke-linejoin:round; stroke-width:4; stroke-opacity:1; fill:none" points="86.9921,1479.3 105.89,1479.3 "/>
<polyline clip-path="url(#clip880)" style="stroke:#000000; stroke-linecap:round; stroke-linejoin:round; stroke-width:4; stroke-opacity:1; fill:none" points="86.9921,1226.5 105.89,1226.5 "/>
<polyline clip-path="url(#clip880)" style="stroke:#000000; stroke-linecap:round; stroke-linejoin:round; stroke-width:4; stroke-opacity:1; fill:none" points="86.9921,973.695 105.89,973.695 "/>
<polyline clip-path="url(#clip880)" style="stroke:#000000; stroke-linecap:round; stroke-linejoin:round; stroke-width:4; stroke-opacity:1; fill:none" points="86.9921,720.893 105.89,720.893 "/>
<polyline clip-path="url(#clip880)" style="stroke:#000000; stroke-linecap:round; stroke-linejoin:round; stroke-width:4; stroke-opacity:1; fill:none" points="86.9921,468.092 105.89,468.092 "/>
<polyline clip-path="url(#clip880)" style="stroke:#000000; stroke-linecap:round; stroke-linejoin:round; stroke-width:4; stroke-opacity:1; fill:none" points="86.9921,215.29 105.89,215.29 "/>
<path clip-path="url(#clip880)" d="M10.8708 1547.16 Q10.8708 1550.77 14.4356 1552.6 Q17.9773 1554.4 25.1068 1554.4 Q32.2133 1554.4 35.7781 1552.6 Q39.3197 1550.77 39.3197 1547.16 Q39.3197 1543.52 35.7781 1541.72 Q32.2133 1539.89 25.1068 1539.89 Q17.9773 1539.89 14.4356 1541.72 Q10.8708 1543.52 10.8708 1547.16 M7.16713 1547.16 Q7.16713 1541.35 11.7736 1538.29 Q16.3569 1535.21 25.1068 1535.21 Q33.8337 1535.21 38.4401 1538.29 Q43.0234 1541.35 43.0234 1547.16 Q43.0234 1552.97 38.4401 1556.04 Q33.8337 1559.1 25.1068 1559.1 Q16.3569 1559.1 11.7736 1556.04 Q7.16713 1552.97 7.16713 1547.16 Z" fill="#000000" fill-rule="nonzero" fill-opacity="1" /><path clip-path="url(#clip880)" d="M36.4725 1526.99 L36.4725 1522.11 L42.3521 1522.11 L42.3521 1526.99 L36.4725 1526.99 Z" fill="#000000" fill-rule="nonzero" fill-opacity="1" /><path clip-path="url(#clip880)" d="M10.8708 1501.92 Q10.8708 1505.54 14.4356 1507.36 Q17.9773 1509.17 25.1068 1509.17 Q32.2133 1509.17 35.7781 1507.36 Q39.3197 1505.54 39.3197 1501.92 Q39.3197 1498.29 35.7781 1496.48 Q32.2133 1494.66 25.1068 1494.66 Q17.9773 1494.66 14.4356 1496.48 Q10.8708 1498.29 10.8708 1501.92 M7.16713 1501.92 Q7.16713 1496.11 11.7736 1493.06 Q16.3569 1489.98 25.1068 1489.98 Q33.8337 1489.98 38.4401 1493.06 Q43.0234 1496.11 43.0234 1501.92 Q43.0234 1507.73 38.4401 1510.81 Q33.8337 1513.87 25.1068 1513.87 Q16.3569 1513.87 11.7736 1510.81 Q7.16713 1507.73 7.16713 1501.92 Z" fill="#000000" fill-rule="nonzero" fill-opacity="1" /><path clip-path="url(#clip880)" d="M10.8708 1471.76 Q10.8708 1475.37 14.4356 1477.2 Q17.9773 1479.01 25.1068 1479.01 Q32.2133 1479.01 35.7781 1477.2 Q39.3197 1475.37 39.3197 1471.76 Q39.3197 1468.13 35.7781 1466.32 Q32.2133 1464.49 25.1068 1464.49 Q17.9773 1464.49 14.4356 1466.32 Q10.8708 1468.13 10.8708 1471.76 M7.16713 1471.76 Q7.16713 1465.95 11.7736 1462.9 Q16.3569 1459.82 25.1068 1459.82 Q33.8337 1459.82 38.4401 1462.9 Q43.0234 1465.95 43.0234 1471.76 Q43.0234 1477.57 38.4401 1480.65 Q33.8337 1483.71 25.1068 1483.71 Q16.3569 1483.71 11.7736 1480.65 Q7.16713 1477.57 7.16713 1471.76 Z" fill="#000000" fill-rule="nonzero" fill-opacity="1" /><path clip-path="url(#clip880)" d="M10.8708 1441.6 Q10.8708 1445.21 14.4356 1447.04 Q17.9773 1448.85 25.1068 1448.85 Q32.2133 1448.85 35.7781 1447.04 Q39.3197 1445.21 39.3197 1441.6 Q39.3197 1437.97 35.7781 1436.16 Q32.2133 1434.33 25.1068 1434.33 Q17.9773 1434.33 14.4356 1436.16 Q10.8708 1437.97 10.8708 1441.6 M7.16713 1441.6 Q7.16713 1435.79 11.7736 1432.74 Q16.3569 1429.66 25.1068 1429.66 Q33.8337 1429.66 38.4401 1432.74 Q43.0234 1435.79 43.0234 1441.6 Q43.0234 1447.41 38.4401 1450.49 Q33.8337 1453.55 25.1068 1453.55 Q16.3569 1453.55 11.7736 1450.49 Q7.16713 1447.41 7.16713 1441.6 Z" fill="#000000" fill-rule="nonzero" fill-opacity="1" /><path clip-path="url(#clip880)" d="M10.8708 1411.44 Q10.8708 1415.05 14.4356 1416.88 Q17.9773 1418.68 25.1068 1418.68 Q32.2133 1418.68 35.7781 1416.88 Q39.3197 1415.05 39.3197 1411.44 Q39.3197 1407.8 35.7781 1406 Q32.2133 1404.17 25.1068 1404.17 Q17.9773 1404.17 14.4356 1406 Q10.8708 1407.8 10.8708 1411.44 M7.16713 1411.44 Q7.16713 1405.63 11.7736 1402.57 Q16.3569 1399.49 25.1068 1399.49 Q33.8337 1399.49 38.4401 1402.57 Q43.0234 1405.63 43.0234 1411.44 Q43.0234 1417.25 38.4401 1420.33 Q33.8337 1423.38 25.1068 1423.38 Q16.3569 1423.38 11.7736 1420.33 Q7.16713 1417.25 7.16713 1411.44 Z" fill="#000000" fill-rule="nonzero" fill-opacity="1" /><path clip-path="url(#clip880)" d="M10.8708 1293.86 Q10.8708 1297.47 14.4356 1299.3 Q17.9773 1301.1 25.1068 1301.1 Q32.2133 1301.1 35.7781 1299.3 Q39.3197 1297.47 39.3197 1293.86 Q39.3197 1290.22 35.7781 1288.42 Q32.2133 1286.59 25.1068 1286.59 Q17.9773 1286.59 14.4356 1288.42 Q10.8708 1290.22 10.8708 1293.86 M7.16713 1293.86 Q7.16713 1288.05 11.7736 1284.99 Q16.3569 1281.91 25.1068 1281.91 Q33.8337 1281.91 38.4401 1284.99 Q43.0234 1288.05 43.0234 1293.86 Q43.0234 1299.67 38.4401 1302.75 Q33.8337 1305.8 25.1068 1305.8 Q16.3569 1305.8 11.7736 1302.75 Q7.16713 1299.67 7.16713 1293.86 Z" fill="#000000" fill-rule="nonzero" fill-opacity="1" /><path clip-path="url(#clip880)" d="M36.4725 1273.69 L36.4725 1268.81 L42.3521 1268.81 L42.3521 1273.69 L36.4725 1273.69 Z" fill="#000000" fill-rule="nonzero" fill-opacity="1" /><path clip-path="url(#clip880)" d="M10.8708 1248.63 Q10.8708 1252.24 14.4356 1254.07 Q17.9773 1255.87 25.1068 1255.87 Q32.2133 1255.87 35.7781 1254.07 Q39.3197 1252.24 39.3197 1248.63 Q39.3197 1244.99 35.7781 1243.19 Q32.2133 1241.36 25.1068 1241.36 Q17.9773 1241.36 14.4356 1243.19 Q10.8708 1244.99 10.8708 1248.63 M7.16713 1248.63 Q7.16713 1242.82 11.7736 1239.76 Q16.3569 1236.68 25.1068 1236.68 Q33.8337 1236.68 38.4401 1239.76 Q43.0234 1242.82 43.0234 1248.63 Q43.0234 1254.44 38.4401 1257.51 Q33.8337 1260.57 25.1068 1260.57 Q16.3569 1260.57 11.7736 1257.51 Q7.16713 1254.44 7.16713 1248.63 Z" fill="#000000" fill-rule="nonzero" fill-opacity="1" /><path clip-path="url(#clip880)" d="M10.8708 1218.46 Q10.8708 1222.07 14.4356 1223.9 Q17.9773 1225.71 25.1068 1225.71 Q32.2133 1225.71 35.7781 1223.9 Q39.3197 1222.07 39.3197 1218.46 Q39.3197 1214.83 35.7781 1213.02 Q32.2133 1211.2 25.1068 1211.2 Q17.9773 1211.2 14.4356 1213.02 Q10.8708 1214.83 10.8708 1218.46 M7.16713 1218.46 Q7.16713 1212.65 11.7736 1209.6 Q16.3569 1206.52 25.1068 1206.52 Q33.8337 1206.52 38.4401 1209.6 Q43.0234 1212.65 43.0234 1218.46 Q43.0234 1224.27 38.4401 1227.35 Q33.8337 1230.41 25.1068 1230.41 Q16.3569 1230.41 11.7736 1227.35 Q7.16713 1224.27 7.16713 1218.46 Z" fill="#000000" fill-rule="nonzero" fill-opacity="1" /><path clip-path="url(#clip880)" d="M38.417 1194.27 L38.417 1177.95 L42.3521 1177.95 L42.3521 1199.9 L38.417 1199.9 Q35.6623 1197.24 31.0327 1192.65 Q26.38 1188.05 25.0374 1186.87 Q22.5143 1184.62 20.7782 1183.74 Q19.0189 1182.84 17.3291 1182.84 Q14.5745 1182.84 12.8384 1184.78 Q11.1023 1186.7 11.1023 1189.81 Q11.1023 1192.01 11.8662 1194.46 Q12.6301 1196.89 14.181 1199.67 L9.45878 1199.67 Q8.32453 1196.84 7.74583 1194.39 Q7.16713 1191.94 7.16713 1189.9 Q7.16713 1184.53 9.8523 1181.33 Q12.5375 1178.14 17.0282 1178.14 Q19.1578 1178.14 21.0791 1178.95 Q22.9772 1179.74 25.5698 1181.84 Q26.2411 1182.42 29.4587 1185.52 Q32.6531 1188.63 38.417 1194.27 Z" fill="#000000" fill-rule="nonzero" fill-opacity="1" /><path clip-path="url(#clip880)" d="M7.79213 1168.09 L7.79213 1149.74 L11.7273 1149.74 L11.7273 1163.81 L20.1995 1163.81 Q19.8522 1162.79 19.6902 1161.77 Q19.505 1160.76 19.505 1159.74 Q19.505 1153.95 22.6763 1150.57 Q25.8476 1147.19 31.2642 1147.19 Q36.8429 1147.19 39.9447 1150.66 Q43.0234 1154.14 43.0234 1160.45 Q43.0234 1162.63 42.6531 1164.9 Q42.2827 1167.14 41.5419 1169.55 L36.8429 1169.55 Q37.9771 1167.47 38.5327 1165.25 Q39.0883 1163.02 39.0883 1160.55 Q39.0883 1156.54 36.9818 1154.2 Q34.8753 1151.87 31.2642 1151.87 Q27.6531 1151.87 25.5467 1154.2 Q23.4402 1156.54 23.4402 1160.55 Q23.4402 1162.42 23.8569 1164.3 Q24.2735 1166.15 25.1531 1168.09 L7.79213 1168.09 Z" fill="#000000" fill-rule="nonzero" fill-opacity="1" /><path clip-path="url(#clip880)" d="M10.8708 1041.55 Q10.8708 1045.16 14.4356 1046.99 Q17.9773 1048.8 25.1068 1048.8 Q32.2133 1048.8 35.7781 1046.99 Q39.3197 1045.16 39.3197 1041.55 Q39.3197 1037.92 35.7781 1036.11 Q32.2133 1034.28 25.1068 1034.28 Q17.9773 1034.28 14.4356 1036.11 Q10.8708 1037.92 10.8708 1041.55 M7.16713 1041.55 Q7.16713 1035.74 11.7736 1032.69 Q16.3569 1029.61 25.1068 1029.61 Q33.8337 1029.61 38.4401 1032.69 Q43.0234 1035.74 43.0234 1041.55 Q43.0234 1047.36 38.4401 1050.44 Q33.8337 1053.5 25.1068 1053.5 Q16.3569 1053.5 11.7736 1050.44 Q7.16713 1047.36 7.16713 1041.55 Z" fill="#000000" fill-rule="nonzero" fill-opacity="1" /><path clip-path="url(#clip880)" d="M36.4725 1021.39 L36.4725 1016.51 L42.3521 1016.51 L42.3521 1021.39 L36.4725 1021.39 Z" fill="#000000" fill-rule="nonzero" fill-opacity="1" /><path clip-path="url(#clip880)" d="M10.8708 996.322 Q10.8708 999.933 14.4356 1001.76 Q17.9773 1003.57 25.1068 1003.57 Q32.2133 1003.57 35.7781 1001.76 Q39.3197 999.933 39.3197 996.322 Q39.3197 992.688 35.7781 990.882 Q32.2133 989.053 25.1068 989.053 Q17.9773 989.053 14.4356 990.882 Q10.8708 992.688 10.8708 996.322 M7.16713 996.322 Q7.16713 990.512 11.7736 987.456 Q16.3569 984.377 25.1068 984.377 Q33.8337 984.377 38.4401 987.456 Q43.0234 990.512 43.0234 996.322 Q43.0234 1002.13 38.4401 1005.21 Q33.8337 1008.27 25.1068 1008.27 Q16.3569 1008.27 11.7736 1005.21 Q7.16713 1002.13 7.16713 996.322 Z" fill="#000000" fill-rule="nonzero" fill-opacity="1" /><path clip-path="url(#clip880)" d="M10.8708 966.16 Q10.8708 969.771 14.4356 971.6 Q17.9773 973.405 25.1068 973.405 Q32.2133 973.405 35.7781 971.6 Q39.3197 969.771 39.3197 966.16 Q39.3197 962.526 35.7781 960.72 Q32.2133 958.891 25.1068 958.891 Q17.9773 958.891 14.4356 960.72 Q10.8708 962.526 10.8708 966.16 M7.16713 966.16 Q7.16713 960.35 11.7736 957.294 Q16.3569 954.216 25.1068 954.216 Q33.8337 954.216 38.4401 957.294 Q43.0234 960.35 43.0234 966.16 Q43.0234 971.97 38.4401 975.049 Q33.8337 978.104 25.1068 978.104 Q16.3569 978.104 11.7736 975.049 Q7.16713 971.97 7.16713 966.16 Z" fill="#000000" fill-rule="nonzero" fill-opacity="1" /><path clip-path="url(#clip880)" d="M7.79213 945.952 L7.79213 927.595 L11.7273 927.595 L11.7273 941.669 L20.1995 941.669 Q19.8522 940.651 19.6902 939.632 Q19.505 938.614 19.505 937.595 Q19.505 931.808 22.6763 928.429 Q25.8476 925.049 31.2642 925.049 Q36.8429 925.049 39.9447 928.521 Q43.0234 931.993 43.0234 938.313 Q43.0234 940.489 42.6531 942.757 Q42.2827 945.003 41.5419 947.41 L36.8429 947.41 Q37.9771 945.327 38.5327 943.105 Q39.0883 940.882 39.0883 938.405 Q39.0883 934.401 36.9818 932.063 Q34.8753 929.725 31.2642 929.725 Q27.6531 929.725 25.5467 932.063 Q23.4402 934.401 23.4402 938.405 Q23.4402 940.28 23.8569 942.155 Q24.2735 944.007 25.1531 945.952 L7.79213 945.952 Z" fill="#000000" fill-rule="nonzero" fill-opacity="1" /><path clip-path="url(#clip880)" d="M10.8708 905.836 Q10.8708 909.447 14.4356 911.276 Q17.9773 913.082 25.1068 913.082 Q32.2133 913.082 35.7781 911.276 Q39.3197 909.447 39.3197 905.836 Q39.3197 902.202 35.7781 900.396 Q32.2133 898.568 25.1068 898.568 Q17.9773 898.568 14.4356 900.396 Q10.8708 902.202 10.8708 905.836 M7.16713 905.836 Q7.16713 900.026 11.7736 896.97 Q16.3569 893.892 25.1068 893.892 Q33.8337 893.892 38.4401 896.97 Q43.0234 900.026 43.0234 905.836 Q43.0234 911.646 38.4401 914.725 Q33.8337 917.781 25.1068 917.781 Q16.3569 917.781 11.7736 914.725 Q7.16713 911.646 7.16713 905.836 Z" fill="#000000" fill-rule="nonzero" fill-opacity="1" /><path clip-path="url(#clip880)" d="M10.8708 788.254 Q10.8708 791.865 14.4356 793.694 Q17.9773 795.499 25.1068 795.499 Q32.2133 795.499 35.7781 793.694 Q39.3197 791.865 39.3197 788.254 Q39.3197 784.62 35.7781 782.814 Q32.2133 780.985 25.1068 780.985 Q17.9773 780.985 14.4356 782.814 Q10.8708 784.62 10.8708 788.254 M7.16713 788.254 Q7.16713 782.444 11.7736 779.388 Q16.3569 776.31 25.1068 776.31 Q33.8337 776.31 38.4401 779.388 Q43.0234 782.444 43.0234 788.254 Q43.0234 794.064 38.4401 797.143 Q33.8337 800.198 25.1068 800.198 Q16.3569 800.198 11.7736 797.143 Q7.16713 794.064 7.16713 788.254 Z" fill="#000000" fill-rule="nonzero" fill-opacity="1" /><path clip-path="url(#clip880)" d="M36.4725 768.092 L36.4725 763.208 L42.3521 763.208 L42.3521 768.092 L36.4725 768.092 Z" fill="#000000" fill-rule="nonzero" fill-opacity="1" /><path clip-path="url(#clip880)" d="M10.8708 743.023 Q10.8708 746.634 14.4356 748.462 Q17.9773 750.268 25.1068 750.268 Q32.2133 750.268 35.7781 748.462 Q39.3197 746.634 39.3197 743.023 Q39.3197 739.388 35.7781 737.583 Q32.2133 735.754 25.1068 735.754 Q17.9773 735.754 14.4356 737.583 Q10.8708 739.388 10.8708 743.023 M7.16713 743.023 Q7.16713 737.212 11.7736 734.157 Q16.3569 731.078 25.1068 731.078 Q33.8337 731.078 38.4401 734.157 Q43.0234 737.212 43.0234 743.023 Q43.0234 748.833 38.4401 751.911 Q33.8337 754.967 25.1068 754.967 Q16.3569 754.967 11.7736 751.911 Q7.16713 748.833 7.16713 743.023 Z" fill="#000000" fill-rule="nonzero" fill-opacity="1" /><path clip-path="url(#clip880)" d="M10.8708 712.861 Q10.8708 716.472 14.4356 718.301 Q17.9773 720.106 25.1068 720.106 Q32.2133 720.106 35.7781 718.301 Q39.3197 716.472 39.3197 712.861 Q39.3197 709.227 35.7781 707.421 Q32.2133 705.592 25.1068 705.592 Q17.9773 705.592 14.4356 707.421 Q10.8708 709.227 10.8708 712.861 M7.16713 712.861 Q7.16713 707.051 11.7736 703.995 Q16.3569 700.916 25.1068 700.916 Q33.8337 700.916 38.4401 703.995 Q43.0234 707.051 43.0234 712.861 Q43.0234 718.671 38.4401 721.75 Q33.8337 724.805 25.1068 724.805 Q16.3569 724.805 11.7736 721.75 Q7.16713 718.671 7.16713 712.861 Z" fill="#000000" fill-rule="nonzero" fill-opacity="1" /><path clip-path="url(#clip880)" d="M7.79213 693.879 L7.79213 671.657 L9.78286 671.657 L42.3521 684.204 L42.3521 689.088 L11.7273 677.282 L11.7273 693.879 L7.79213 693.879 Z" fill="#000000" fill-rule="nonzero" fill-opacity="1" /><path clip-path="url(#clip880)" d="M7.79213 662.491 L7.79213 644.134 L11.7273 644.134 L11.7273 658.208 L20.1995 658.208 Q19.8522 657.19 19.6902 656.171 Q19.505 655.153 19.505 654.134 Q19.505 648.347 22.6763 644.968 Q25.8476 641.588 31.2642 641.588 Q36.8429 641.588 39.9447 645.06 Q43.0234 648.532 43.0234 654.852 Q43.0234 657.028 42.6531 659.296 Q42.2827 661.542 41.5419 663.949 L36.8429 663.949 Q37.9771 661.866 38.5327 659.643 Q39.0883 657.421 39.0883 654.944 Q39.0883 650.94 36.9818 648.602 Q34.8753 646.264 31.2642 646.264 Q27.6531 646.264 25.5467 648.602 Q23.4402 650.94 23.4402 654.944 Q23.4402 656.819 23.8569 658.694 Q24.2735 660.546 25.1531 662.491 L7.79213 662.491 Z" fill="#000000" fill-rule="nonzero" fill-opacity="1" /><path clip-path="url(#clip880)" d="M10.8708 535.95 Q10.8708 539.561 14.4356 541.39 Q17.9773 543.195 25.1068 543.195 Q32.2133 543.195 35.7781 541.39 Q39.3197 539.561 39.3197 535.95 Q39.3197 532.316 35.7781 530.51 Q32.2133 528.682 25.1068 528.682 Q17.9773 528.682 14.4356 530.51 Q10.8708 532.316 10.8708 535.95 M7.16713 535.95 Q7.16713 530.14 11.7736 527.084 Q16.3569 524.006 25.1068 524.006 Q33.8337 524.006 38.4401 527.084 Q43.0234 530.14 43.0234 535.95 Q43.0234 541.76 38.4401 544.839 Q33.8337 547.894 25.1068 547.894 Q16.3569 547.894 11.7736 544.839 Q7.16713 541.76 7.16713 535.95 Z" fill="#000000" fill-rule="nonzero" fill-opacity="1" /><path clip-path="url(#clip880)" d="M36.4725 515.788 L36.4725 510.904 L42.3521 510.904 L42.3521 515.788 L36.4725 515.788 Z" fill="#000000" fill-rule="nonzero" fill-opacity="1" /><path clip-path="url(#clip880)" d="M10.8708 490.719 Q10.8708 494.33 14.4356 496.159 Q17.9773 497.964 25.1068 497.964 Q32.2133 497.964 35.7781 496.159 Q39.3197 494.33 39.3197 490.719 Q39.3197 487.085 35.7781 485.279 Q32.2133 483.45 25.1068 483.45 Q17.9773 483.45 14.4356 485.279 Q10.8708 487.085 10.8708 490.719 M7.16713 490.719 Q7.16713 484.909 11.7736 481.853 Q16.3569 478.774 25.1068 478.774 Q33.8337 478.774 38.4401 481.853 Q43.0234 484.909 43.0234 490.719 Q43.0234 496.529 38.4401 499.608 Q33.8337 502.663 25.1068 502.663 Q16.3569 502.663 11.7736 499.608 Q7.16713 496.529 7.16713 490.719 Z" fill="#000000" fill-rule="nonzero" fill-opacity="1" /><path clip-path="url(#clip880)" d="M38.417 469.747 L38.417 462.108 L12.0514 462.108 L13.718 470.418 L9.45878 470.418 L7.79213 462.154 L7.79213 457.478 L38.417 457.478 L38.417 449.839 L42.3521 449.839 L42.3521 469.747 L38.417 469.747 Z" fill="#000000" fill-rule="nonzero" fill-opacity="1" /><path clip-path="url(#clip880)" d="M10.8708 430.395 Q10.8708 434.006 14.4356 435.835 Q17.9773 437.64 25.1068 437.64 Q32.2133 437.64 35.7781 435.835 Q39.3197 434.006 39.3197 430.395 Q39.3197 426.761 35.7781 424.955 Q32.2133 423.127 25.1068 423.127 Q17.9773 423.127 14.4356 424.955 Q10.8708 426.761 10.8708 430.395 M7.16713 430.395 Q7.16713 424.585 11.7736 421.529 Q16.3569 418.451 25.1068 418.451 Q33.8337 418.451 38.4401 421.529 Q43.0234 424.585 43.0234 430.395 Q43.0234 436.205 38.4401 439.284 Q33.8337 442.339 25.1068 442.339 Q16.3569 442.339 11.7736 439.284 Q7.16713 436.205 7.16713 430.395 Z" fill="#000000" fill-rule="nonzero" fill-opacity="1" /><path clip-path="url(#clip880)" d="M10.8708 400.233 Q10.8708 403.844 14.4356 405.673 Q17.9773 407.479 25.1068 407.479 Q32.2133 407.479 35.7781 405.673 Q39.3197 403.844 39.3197 400.233 Q39.3197 396.599 35.7781 394.793 Q32.2133 392.965 25.1068 392.965 Q17.9773 392.965 14.4356 394.793 Q10.8708 396.599 10.8708 400.233 M7.16713 400.233 Q7.16713 394.423 11.7736 391.368 Q16.3569 388.289 25.1068 388.289 Q33.8337 388.289 38.4401 391.368 Q43.0234 394.423 43.0234 400.233 Q43.0234 406.043 38.4401 409.122 Q33.8337 412.178 25.1068 412.178 Q16.3569 412.178 11.7736 409.122 Q7.16713 406.043 7.16713 400.233 Z" fill="#000000" fill-rule="nonzero" fill-opacity="1" /><path clip-path="url(#clip880)" d="M10.8708 282.651 Q10.8708 286.262 14.4356 288.091 Q17.9773 289.896 25.1068 289.896 Q32.2133 289.896 35.7781 288.091 Q39.3197 286.262 39.3197 282.651 Q39.3197 279.017 35.7781 277.211 Q32.2133 275.382 25.1068 275.382 Q17.9773 275.382 14.4356 277.211 Q10.8708 279.017 10.8708 282.651 M7.16713 282.651 Q7.16713 276.841 11.7736 273.785 Q16.3569 270.707 25.1068 270.707 Q33.8337 270.707 38.4401 273.785 Q43.0234 276.841 43.0234 282.651 Q43.0234 288.461 38.4401 291.54 Q33.8337 294.595 25.1068 294.595 Q16.3569 294.595 11.7736 291.54 Q7.16713 288.461 7.16713 282.651 Z" fill="#000000" fill-rule="nonzero" fill-opacity="1" /><path clip-path="url(#clip880)" d="M36.4725 262.489 L36.4725 257.605 L42.3521 257.605 L42.3521 262.489 L36.4725 262.489 Z" fill="#000000" fill-rule="nonzero" fill-opacity="1" /><path clip-path="url(#clip880)" d="M10.8708 237.42 Q10.8708 241.031 14.4356 242.859 Q17.9773 244.665 25.1068 244.665 Q32.2133 244.665 35.7781 242.859 Q39.3197 241.031 39.3197 237.42 Q39.3197 233.785 35.7781 231.98 Q32.2133 230.151 25.1068 230.151 Q17.9773 230.151 14.4356 231.98 Q10.8708 233.785 10.8708 237.42 M7.16713 237.42 Q7.16713 231.61 11.7736 228.554 Q16.3569 225.475 25.1068 225.475 Q33.8337 225.475 38.4401 228.554 Q43.0234 231.61 43.0234 237.42 Q43.0234 243.23 38.4401 246.309 Q33.8337 249.364 25.1068 249.364 Q16.3569 249.364 11.7736 246.309 Q7.16713 243.23 7.16713 237.42 Z" fill="#000000" fill-rule="nonzero" fill-opacity="1" /><path clip-path="url(#clip880)" d="M38.417 216.448 L38.417 208.809 L12.0514 208.809 L13.718 217.119 L9.45878 217.119 L7.79213 208.855 L7.79213 204.179 L38.417 204.179 L38.417 196.54 L42.3521 196.54 L42.3521 216.448 L38.417 216.448 Z" fill="#000000" fill-rule="nonzero" fill-opacity="1" /><path clip-path="url(#clip880)" d="M38.417 183.068 L38.417 166.749 L42.3521 166.749 L42.3521 188.693 L38.417 188.693 Q35.6623 186.031 31.0327 181.448 Q26.38 176.841 25.0374 175.661 Q22.5143 173.415 20.7782 172.536 Q19.0189 171.633 17.3291 171.633 Q14.5745 171.633 12.8384 173.577 Q11.1023 175.499 11.1023 178.601 Q11.1023 180.8 11.8662 183.253 Q12.6301 185.684 14.181 188.462 L9.45878 188.462 Q8.32453 185.638 7.74583 183.184 Q7.16713 180.73 7.16713 178.693 Q7.16713 173.323 9.8523 170.128 Q12.5375 166.934 17.0282 166.934 Q19.1578 166.934 21.0791 167.744 Q22.9772 168.531 25.5698 170.638 Q26.2411 171.216 29.4587 174.318 Q32.6531 177.42 38.417 183.068 Z" fill="#000000" fill-rule="nonzero" fill-opacity="1" /><path clip-path="url(#clip880)" d="M7.79213 156.888 L7.79213 138.531 L11.7273 138.531 L11.7273 152.605 L20.1995 152.605 Q19.8522 151.587 19.6902 150.568 Q19.505 149.55 19.505 148.531 Q19.505 142.744 22.6763 139.365 Q25.8476 135.985 31.2642 135.985 Q36.8429 135.985 39.9447 139.457 Q43.0234 142.929 43.0234 149.249 Q43.0234 151.425 42.6531 153.693 Q42.2827 155.939 41.5419 158.346 L36.8429 158.346 Q37.9771 156.263 38.5327 154.04 Q39.0883 151.818 39.0883 149.341 Q39.0883 145.337 36.9818 142.999 Q34.8753 140.661 31.2642 140.661 Q27.6531 140.661 25.5467 142.999 Q23.4402 145.337 23.4402 149.341 Q23.4402 151.216 23.8569 153.091 Q24.2735 154.943 25.1531 156.888 L7.79213 156.888 Z" fill="#000000" fill-rule="nonzero" fill-opacity="1" /><polyline clip-path="url(#clip882)" style="stroke:#009af9; stroke-linecap:round; stroke-linejoin:round; stroke-width:4; stroke-opacity:1; fill:none" points="151.118,1479.3 153.257,1479.3 155.397,1479.3 157.536,1479.3 159.676,1479.3 161.816,1479.3 163.955,1479.3 166.095,1479.3 168.235,1479.3 170.374,1479.3 172.514,1479.3 174.654,1479.3 176.793,1479.3 178.933,1479.3 181.073,1479.3 183.212,1479.3 185.352,1479.3 187.492,1479.3 189.631,1479.3 191.771,1479.3 193.911,1479.3 196.05,1479.3 198.19,1479.3 200.33,1479.3 202.469,1479.3 204.609,1479.3 206.748,1479.3 208.888,1479.3 211.028,1479.3 213.167,1479.3 215.307,1479.3 217.447,1479.3 219.586,1479.3 221.726,1479.3 223.866,1479.3 226.005,1479.3 228.145,1479.3 230.285,1479.3 232.424,1479.3 234.564,1479.3 236.704,1479.3 238.843,1479.3 240.983,1479.3 243.123,1479.3 245.262,1479.3 247.402,1479.3 249.542,1479.3 251.681,1479.3 253.821,1479.3 255.96,1479.3 258.1,1479.3 260.24,1479.3 262.379,1479.3 264.519,1479.3 266.659,1479.3 268.798,1479.3 270.938,1479.3 273.078,1479.3 275.217,1479.3 277.357,1479.3 279.497,1479.3 281.636,1479.3 283.776,1479.3 285.916,1479.3 288.055,1479.3 290.195,1479.3 292.335,1479.3 294.474,1479.3 296.614,1479.3 298.754,1479.3 300.893,1479.3 303.033,1479.3 305.173,1479.3 307.312,1479.3 309.452,1479.3 311.591,1479.3 313.731,1479.3 315.871,1479.3 318.01,1479.3 320.15,1479.3 322.29,1479.3 324.429,1479.3 326.569,1479.3 328.709,1479.3 330.848,1479.3 332.988,1479.3 335.128,1479.3 337.267,1479.3 339.407,1479.3 341.547,1479.3 343.686,1479.3 345.826,1479.3 347.966,1479.3 350.105,1479.3 352.245,1479.3 354.385,1479.3 356.524,1479.3 358.664,1479.3 360.803,1479.3 362.943,1479.3 365.083,1479.3 367.222,1479.3 369.362,1479.3 371.502,1479.3 373.641,1479.3 375.781,1479.3 377.921,1479.3 380.06,1479.3 382.2,1479.3 384.34,1479.3 386.479,1479.3 388.619,1479.3 390.759,1479.3 392.898,1479.3 395.038,1479.3 397.178,1479.3 399.317,1479.3 401.457,1479.3 403.597,1479.3 405.736,1479.3 407.876,1479.3 410.015,1479.3 412.155,1479.3 414.295,1479.3 416.434,1479.3 418.574,1479.3 420.714,1479.3 422.853,1479.3 424.993,1479.3 427.133,1479.3 429.272,1479.3 431.412,1479.3 433.552,1479.3 435.691,1479.3 437.831,1479.3 439.971,1479.3 442.11,1479.3 444.25,1479.3 446.39,1479.3 448.529,1479.3 450.669,1479.3 452.809,1479.3 454.948,1479.3 457.088,1479.3 459.227,1479.3 461.367,1479.3 463.507,1479.3 465.646,1479.3 467.786,1479.3 469.926,1479.3 472.065,1479.3 474.205,1479.3 476.345,1479.3 478.484,1479.3 480.624,1479.3 482.764,1479.3 484.903,1479.3 487.043,1479.3 489.183,1479.3 491.322,1479.3 493.462,1479.3 495.602,1479.3 497.741,1479.3 499.881,1479.3 502.021,1479.3 504.16,1479.3 506.3,1479.3 508.44,1479.3 510.579,1479.3 512.719,1479.3 514.858,1479.3 516.998,1479.3 519.138,1479.3 521.277,1479.3 523.417,1479.3 525.557,1479.3 527.696,1479.3 529.836,1479.3 531.976,1479.3 534.115,1479.3 536.255,1479.3 538.395,1479.3 540.534,1479.3 542.674,1479.3 544.814,1479.3 546.953,1479.3 549.093,1479.3 551.233,1479.3 553.372,1479.3 555.512,1479.3 557.652,1479.3 559.791,1479.3 561.931,1479.3 564.07,1479.3 566.21,1479.3 568.35,1479.3 570.489,1479.3 572.629,1479.3 574.769,1479.3 576.908,1479.3 579.048,1479.3 581.188,1479.3 583.327,88.9544 585.467,109.605 587.607,129.917 589.746,149.895 591.886,169.547 594.026,188.879 596.165,207.895 598.305,226.603 600.445,245.008 602.584,263.115 604.724,280.929 606.864,298.457 609.003,315.702 611.143,332.671 613.282,349.369 615.422,365.799 617.562,381.968 619.701,397.879 621.841,413.538 623.981,428.948 626.12,444.115 628.26,459.042 630.4,473.733 632.539,488.194 634.679,502.427 636.819,516.438 638.958,530.229 641.098,543.805 643.238,557.169 645.377,570.325 647.517,583.277 649.657,596.028 651.796,608.582 653.936,620.942 656.076,633.111 658.215,645.092 660.355,656.89 662.494,668.506 664.634,679.945 666.774,691.209 668.913,702.3 671.053,713.223 673.193,723.979 675.332,734.572 677.472,745.004 679.612,755.278 681.751,765.397 683.891,775.363 686.031,785.179 688.17,794.847 690.31,804.37 692.45,813.75 694.589,822.989 696.729,832.09 698.869,841.055 701.008,849.887 703.148,858.587 705.288,867.158 707.427,875.601 709.567,883.919 711.707,892.114 713.846,900.188 715.986,908.142 718.125,915.98 720.265,923.701 722.405,931.31 724.544,938.806 726.684,946.193 728.824,953.472 730.963,960.644 733.103,967.711 735.243,974.675 737.382,981.538 739.522,988.301 741.662,994.966 743.801,1001.53 745.941,1008.01 748.081,1014.39 750.22,1020.67 752.36,1026.87 754.5,1032.98 756.639,1039 758.779,1044.93 760.919,1050.78 763.058,1056.54 765.198,1062.22 767.337,1067.82 769.477,1073.34 771.617,1078.78 773.756,1084.14 775.896,1089.43 778.036,1094.64 780.175,1099.78 782.315,1104.84 784.455,1109.84 786.594,1114.76 788.734,1119.61 790.874,1124.39 793.013,1129.11 795.153,1133.76 797.293,1138.34 799.432,1142.86 801.572,1147.32 803.712,1151.71 805.851,1156.05 807.991,1160.32 810.131,1164.53 812.27,1168.68 814.41,1172.78 816.549,1176.82 818.689,1180.8 820.829,1184.72 822.968,1188.59 825.108,1192.41 827.248,1196.18 829.387,1199.89 831.527,1203.55 833.667,1207.16 835.806,1210.72 837.946,1214.23 840.086,1217.7 842.225,1221.11 844.365,1224.48 846.505,1227.8 848.644,1231.08 850.784,1234.31 852.924,1237.5 855.063,1240.64 857.203,1243.74 859.343,1246.8 861.482,1249.82 863.622,1252.79 865.762,1255.72 867.901,1258.62 870.041,1261.47 872.18,1264.29 874.32,1267.07 876.46,1269.81 878.599,1272.51 880.739,1275.18 882.879,1277.81 885.018,1280.4 887.158,1282.96 889.298,1285.49 891.437,1287.98 893.577,1290.44 895.717,1292.86 897.856,1295.25 899.996,1297.61 902.136,1299.94 904.275,1302.24 906.415,1304.5 908.555,1306.74 910.694,1308.94 912.834,1311.12 914.974,1313.27 917.113,1315.38 919.253,1317.47 921.392,1319.54 923.532,1321.57 925.672,1323.58 927.811,1325.56 929.951,1327.51 932.091,1329.44 934.23,1331.34 936.37,1333.22 938.51,1335.07 940.649,1336.9 942.789,1338.71 944.929,1340.49 947.068,1342.24 949.208,1343.98 951.348,1345.69 953.487,1347.38 955.627,1349.04 957.767,1350.68 959.906,1352.31 962.046,1353.91 964.186,1355.49 966.325,1357.05 968.465,1358.58 970.604,1360.1 972.744,1361.6 974.884,1363.08 977.023,1364.54 979.163,1365.98 981.303,1367.4 983.442,1368.8 985.582,1370.19 987.722,1371.56 989.861,1372.9 992.001,1374.24 994.141,1375.55 996.28,1376.85 998.42,1378.13 1000.56,1379.39 1002.7,1380.64 1004.84,1381.87 1006.98,1383.08 1009.12,1384.28 1011.26,1385.47 1013.4,1386.63 1015.54,1387.79 1017.68,1388.93 1019.82,1390.05 1021.96,1391.16 1024.1,1392.25 1026.24,1393.33 1028.38,1394.4 1030.51,1395.45 1032.65,1396.49 1034.79,1397.52 1036.93,1398.53 1039.07,1399.53 1041.21,1400.52 1043.35,1401.49 1045.49,1402.45 1047.63,1403.4 1049.77,1404.34 1051.91,1405.27 1054.05,1406.18 1056.19,1407.08 1058.33,1407.97 1060.47,1408.85 1062.61,1409.72 1064.75,1410.58 1066.89,1411.42 1069.03,1412.26 1071.17,1413.08 1073.31,1413.9 1075.45,1414.7 1077.59,1415.49 1079.73,1416.28 1081.87,1417.05 1084.01,1417.81 1086.15,1418.57 1088.29,1419.31 1090.43,1420.05 1092.56,1420.77 1094.7,1421.49 1096.84,1422.19 1098.98,1422.89 1101.12,1423.58 1103.26,1424.26 1105.4,1424.94 1107.54,1425.6 1109.68,1426.25 1111.82,1426.9 1113.96,1427.54 1116.1,1428.17 1118.24,1428.79 1120.38,1429.41 1122.52,1430.02 1124.66,1430.62 1126.8,1431.21 1128.94,1431.79 1131.08,1432.37 1133.22,1432.94 1135.36,1433.5 1137.5,1434.06 1139.64,1434.61 1141.78,1435.15 1143.92,1435.69 1146.06,1436.22 1148.2,1436.74 1150.34,1437.25 1152.47,1437.76 1154.61,1438.27 1156.75,1438.76 1158.89,1439.25 1161.03,1439.74 1163.17,1440.22 1165.31,1440.69 1167.45,1441.15 1169.59,1441.61 1171.73,1442.07 1173.87,1442.52 1176.01,1442.96 1178.15,1443.4 1180.29,1443.83 1182.43,1444.26 1184.57,1444.68 1186.71,1445.1 1188.85,1445.51 1190.99,1445.92 1193.13,1446.32 1195.27,1446.72 1197.41,1447.11 1199.55,1447.49 1201.69,1447.88 1203.83,1448.25 1205.97,1448.63 1208.11,1448.99 1210.25,1449.36 1212.39,1449.72 1214.52,1450.07 1216.66,1450.42 1218.8,1450.77 1220.94,1451.11 1223.08,1451.45 1225.22,1451.78 1227.36,1452.11 1229.5,1452.43 1231.64,1452.76 1233.78,1453.07 1235.92,1453.39 1238.06,1453.7 1240.2,1454 1242.34,1454.3 1244.48,1454.6 1246.62,1454.9 1248.76,1455.19 1250.9,1455.47 1253.04,1455.76 1255.18,1456.04 1257.32,1456.32 1259.46,1456.59 1261.6,1456.86 1263.74,1457.13 1265.88,1457.39 1268.02,1457.65 1270.16,1457.91 1272.3,1458.16 1274.44,1458.41 1276.57,1458.66 1278.71,1458.91 1280.85,1459.15 1282.99,1459.39 1285.13,1459.62 1287.27,1459.86 1289.41,1460.09 1291.55,1460.32 1293.69,1460.54 1295.83,1460.76 1297.97,1460.98 1300.11,1461.2 1302.25,1461.41 1304.39,1461.63 1306.53,1461.83 1308.67,1462.04 1310.81,1462.25 1312.95,1462.45 1315.09,1462.65 1317.23,1462.84 1319.37,1463.04 1321.51,1463.23 1323.65,1463.42 1325.79,1463.61 1327.93,1463.79 1330.07,1463.97 1332.21,1464.15 1334.35,1464.33 1336.49,1464.51 1338.62,1464.68 1340.76,1464.86 1342.9,1465.03 1345.04,1465.19 1347.18,1465.36 1349.32,1465.52 1351.46,1465.69 1353.6,1465.85 1355.74,1466 1357.88,1466.16 1360.02,1466.31 1362.16,1466.47 1364.3,1466.62 1366.44,1466.77 1368.58,1466.91 1370.72,1467.06 1372.86,1467.2 1375,1467.34 1377.14,1467.48 1379.28,1467.62 1381.42,1467.76 1383.56,1467.89 1385.7,1468.03 1387.84,1468.16 1389.98,1468.29 1392.12,1468.42 1394.26,1468.55 1396.4,1468.67 1398.54,1468.8 1400.67,1468.92 1402.81,1469.04 1404.95,1469.16 1407.09,1469.28 1409.23,1469.4 1411.37,1469.51 1413.51,1469.63 1415.65,1469.74 1417.79,1469.85 1419.93,1469.96 1422.07,1470.07 1424.21,1470.18 1426.35,1470.28 1428.49,1470.39 1430.63,1470.49 1432.77,1470.6 1434.91,1470.7 1437.05,1470.8 1439.19,1470.9 1441.33,1470.99 1443.47,1471.09 1445.61,1471.19 1447.75,1471.28 1449.89,1471.37 1452.03,1471.47 1454.17,1471.56 1456.31,1471.65 1458.45,1471.74 1460.58,1471.82 1462.72,1471.91 1464.86,1472 1467,1472.08 1469.14,1472.16 1471.28,1472.25 1473.42,1472.33 1475.56,1472.41 1477.7,1472.49 1479.84,1472.57 1481.98,1472.65 1484.12,1472.72 1486.26,1472.8 1488.4,1472.87 1490.54,1472.95 1492.68,1473.02 1494.82,1473.1 1496.96,1473.17 1499.1,1473.24 1501.24,1473.31 1503.38,1473.38 1505.52,1473.45 1507.66,1473.51 1509.8,1473.58 1511.94,1473.65 1514.08,1473.71 1516.22,1473.78 1518.36,1473.84 1520.5,1473.9 1522.63,1473.97 1524.77,1474.03 1526.91,1474.09 1529.05,1474.15 1531.19,1474.21 1533.33,1474.27 1535.47,1474.32 1537.61,1474.38 1539.75,1474.44 1541.89,1474.49 1544.03,1474.55 1546.17,1474.6 1548.31,1474.66 1550.45,1474.71 1552.59,1474.76 1554.73,1474.82 1556.87,1474.87 1559.01,1474.92 1561.15,1474.97 1563.29,1475.02 1565.43,1475.07 1567.57,1475.12 1569.71,1475.16 1571.85,1475.21 1573.99,1475.26 1576.13,1475.31 1578.27,1475.35 1580.41,1475.4 1582.55,1475.44 1584.68,1475.49 1586.82,1475.53 1588.96,1475.57 1591.1,1475.62 1593.24,1475.66 1595.38,1475.7 1597.52,1475.74 1599.66,1475.78 1601.8,1475.82 1603.94,1475.86 1606.08,1475.9 1608.22,1475.94 1610.36,1475.98 1612.5,1476.02 1614.64,1476.05 1616.78,1476.09 1618.92,1476.13 1621.06,1476.16 1623.2,1476.2 1625.34,1476.23 1627.48,1476.27 1629.62,1476.3 1631.76,1476.34 1633.9,1476.37 1636.04,1476.41 1638.18,1476.44 1640.32,1476.47 1642.46,1476.5 1644.6,1476.54 1646.73,1476.57 1648.87,1476.6 1651.01,1476.63 1653.15,1476.66 1655.29,1476.69 1657.43,1476.72 1659.57,1476.75 1661.71,1476.78 1663.85,1476.81 1665.99,1476.84 1668.13,1476.86 1670.27,1476.89 1672.41,1476.92 1674.55,1476.95 1676.69,1476.97 1678.83,1477 1680.97,1477.02 1683.11,1477.05 1685.25,1477.08 1687.39,1477.1 1689.53,1477.13 1691.67,1477.15 1693.81,1477.18 1695.95,1477.2 1698.09,1477.22 1700.23,1477.25 1702.37,1477.27 1704.51,1477.29 1706.64,1477.32 1708.78,1477.34 1710.92,1477.36 1713.06,1477.38 1715.2,1477.4 1717.34,1477.43 1719.48,1477.45 1721.62,1477.47 1723.76,1477.49 1725.9,1477.51 1728.04,1477.53 1730.18,1477.55 1732.32,1477.57 1734.46,1477.59 1736.6,1477.61 1738.74,1477.63 1740.88,1477.65 1743.02,1477.67 1745.16,1477.68 1747.3,1477.7 1749.44,1477.72 1751.58,1477.74 1753.72,1477.76 1755.86,1477.77 1758,1477.79 1760.14,1477.81 1762.28,1477.82 1764.42,1477.84 1766.56,1477.86 1768.69,1477.87 1770.83,1477.89 1772.97,1477.91 1775.11,1477.92 1777.25,1477.94 1779.39,1477.95 1781.53,1477.97 1783.67,1477.98 1785.81,1478 1787.95,1478.01 1790.09,1478.03 1792.23,1478.04 1794.37,1478.06 1796.51,1478.07 1798.65,1478.08 1800.79,1478.1 1802.93,1478.11 1805.07,1478.12 1807.21,1478.14 1809.35,1478.15 1811.49,1478.16 1813.63,1478.18 1815.77,1478.19 1817.91,1478.2 1820.05,1478.21 1822.19,1478.23 1824.33,1478.24 1826.47,1478.25 1828.61,1478.26 1830.74,1478.27 1832.88,1478.28 1835.02,1478.3 1837.16,1478.31 1839.3,1478.32 1841.44,1478.33 1843.58,1478.34 1845.72,1478.35 1847.86,1478.36 1850,1478.37 1852.14,1478.38 1854.28,1478.39 1856.42,1478.4 1858.56,1478.41 1860.7,1478.42 1862.84,1478.43 1864.98,1478.44 1867.12,1478.45 1869.26,1478.46 1871.4,1478.47 1873.54,1478.48 1875.68,1478.49 1877.82,1478.5 1879.96,1478.51 1882.1,1478.52 1884.24,1478.53 1886.38,1478.53 1888.52,1478.54 1890.66,1478.55 1892.79,1478.56 1894.93,1478.57 1897.07,1478.58 1899.21,1478.58 1901.35,1478.59 1903.49,1478.6 1905.63,1478.61 1907.77,1478.62 1909.91,1478.62 1912.05,1478.63 1914.19,1478.64 1916.33,1478.65 1918.47,1478.65 1920.61,1478.66 1922.75,1478.67 1924.89,1478.67 1927.03,1478.68 1929.17,1478.69 1931.31,1478.69 1933.45,1478.7 1935.59,1478.71 1937.73,1478.71 1939.87,1478.72 1942.01,1478.73 1944.15,1478.73 1946.29,1478.74 1948.43,1478.75 1950.57,1478.75 1952.71,1478.76 1954.84,1478.76 1956.98,1478.77 1959.12,1478.78 1961.26,1478.78 1963.4,1478.79 1965.54,1478.79 1967.68,1478.8 1969.82,1478.81 1971.96,1478.81 1974.1,1478.82 1976.24,1478.82 1978.38,1478.83 1980.52,1478.83 1982.66,1478.84 1984.8,1478.84 1986.94,1478.85 1989.08,1478.85 1991.22,1478.86 1993.36,1478.86 1995.5,1478.87 1997.64,1478.87 1999.78,1478.88 2001.92,1478.88 2004.06,1478.89 2006.2,1478.89 2008.34,1478.9 2010.48,1478.9 2012.62,1478.9 2014.75,1478.91 2016.89,1478.91 2019.03,1478.92 2021.17,1478.92 2023.31,1478.93 2025.45,1478.93 2027.59,1478.93 2029.73,1478.94 2031.87,1478.94 2034.01,1478.95 2036.15,1478.95 2038.29,1478.95 2040.43,1478.96 2042.57,1478.96 2044.71,1478.96 2046.85,1478.97 2048.99,1478.97 2051.13,1478.98 2053.27,1478.98 2055.41,1478.98 2057.55,1478.99 2059.69,1478.99 2061.83,1478.99 2063.97,1479 2066.11,1479 2068.25,1479 2070.39,1479.01 2072.53,1479.01 2074.67,1479.01 2076.8,1479.02 2078.94,1479.02 2081.08,1479.02 2083.22,1479.03 2085.36,1479.03 2087.5,1479.03 2089.64,1479.03 2091.78,1479.04 2093.92,1479.04 2096.06,1479.04 2098.2,1479.05 2100.34,1479.05 2102.48,1479.05 2104.62,1479.05 2106.76,1479.06 2108.9,1479.06 2111.04,1479.06 2113.18,1479.06 2115.32,1479.07 2117.46,1479.07 2119.6,1479.07 2121.74,1479.07 2123.88,1479.08 2126.02,1479.08 2128.16,1479.08 2130.3,1479.08 2132.44,1479.09 2134.58,1479.09 2136.72,1479.09 2138.85,1479.09 2140.99,1479.1 2143.13,1479.1 2145.27,1479.1 2147.41,1479.1 2149.55,1479.1 2151.69,1479.11 2153.83,1479.11 2155.97,1479.11 2158.11,1479.11 2160.25,1479.12 2162.39,1479.12 2164.53,1479.12 2166.67,1479.12 2168.81,1479.12 2170.95,1479.13 2173.09,1479.13 2175.23,1479.13 2177.37,1479.13 2179.51,1479.13 2181.65,1479.13 2183.79,1479.14 2185.93,1479.14 2188.07,1479.14 2190.21,1479.14 2192.35,1479.14 2194.49,1479.15 2196.63,1479.15 2198.77,1479.15 2200.9,1479.15 2203.04,1479.15 2205.18,1479.15 2207.32,1479.15 2209.46,1479.16 2211.6,1479.16 2213.74,1479.16 2215.88,1479.16 2218.02,1479.16 2220.16,1479.16 2222.3,1479.17 2224.44,1479.17 2226.58,1479.17 2228.72,1479.17 2230.86,1479.17 2233,1479.17 2235.14,1479.17 2237.28,1479.18 2239.42,1479.18 2241.56,1479.18 2243.7,1479.18 2245.84,1479.18 2247.98,1479.18 2250.12,1479.18 2252.26,1479.18 2254.4,1479.19 2256.54,1479.19 2258.68,1479.19 2260.82,1479.19 2262.95,1479.19 2265.09,1479.19 2267.23,1479.19 2269.37,1479.19 2271.51,1479.2 2273.65,1479.2 2275.79,1479.2 2277.93,1479.2 2280.07,1479.2 2282.21,1479.2 2284.35,1479.2 2286.49,1479.2 2288.63,1479.2 "/>
<polyline clip-path="url(#clip882)" style="stroke:#e26f46; stroke-linecap:round; stroke-linejoin:round; stroke-width:4; stroke-opacity:1; fill:none" points="151.118,1479.3 153.257,1479.3 155.397,1479.3 157.536,1479.3 159.676,1479.3 161.816,1479.3 163.955,1479.3 166.095,1479.3 168.235,1479.3 170.374,1479.3 172.514,1479.3 174.654,1479.3 176.793,1479.3 178.933,1479.3 181.073,1479.3 183.212,1479.3 185.352,1479.3 187.492,1479.3 189.631,1479.3 191.771,1479.3 193.911,1479.3 196.05,1479.3 198.19,1479.3 200.33,1479.3 202.469,1479.3 204.609,1479.3 206.748,1479.3 208.888,1479.3 211.028,1479.3 213.167,1479.3 215.307,1479.3 217.447,1479.3 219.586,1479.3 221.726,1479.3 223.866,1479.3 226.005,1479.3 228.145,1479.3 230.285,1479.3 232.424,1479.3 234.564,1479.3 236.704,1479.3 238.843,1479.3 240.983,1479.3 243.123,1479.3 245.262,1479.3 247.402,1479.3 249.542,1479.3 251.681,1479.3 253.821,1479.3 255.96,1479.3 258.1,1479.3 260.24,1479.3 262.379,1479.3 264.519,1479.3 266.659,1479.3 268.798,1479.3 270.938,1479.3 273.078,1479.3 275.217,1479.3 277.357,1479.3 279.497,1479.3 281.636,1479.3 283.776,1479.3 285.916,1479.3 288.055,1479.3 290.195,1479.3 292.335,1479.3 294.474,1479.3 296.614,1479.3 298.754,1479.3 300.893,1479.3 303.033,1479.3 305.173,1479.3 307.312,1479.3 309.452,1479.3 311.591,1479.3 313.731,1479.3 315.871,1479.3 318.01,1479.3 320.15,1479.3 322.29,1479.3 324.429,1479.3 326.569,1479.3 328.709,1479.3 330.848,1479.3 332.988,1479.3 335.128,1479.3 337.267,1479.3 339.407,1479.3 341.547,1479.3 343.686,1479.3 345.826,1479.3 347.966,1479.3 350.105,1479.3 352.245,1479.3 354.385,1479.3 356.524,1479.3 358.664,1479.3 360.803,1479.3 362.943,1479.3 365.083,1479.3 367.222,1479.3 369.362,1479.3 371.502,1479.3 373.641,1479.3 375.781,1479.3 377.921,1479.3 380.06,1479.3 382.2,1479.3 384.34,1479.3 386.479,1479.3 388.619,1479.3 390.759,1479.3 392.898,1479.3 395.038,1479.3 397.178,1479.3 399.317,1479.3 401.457,1479.3 403.597,1479.3 405.736,1479.3 407.876,1479.3 410.015,1479.3 412.155,1479.3 414.295,1479.3 416.434,1479.3 418.574,1479.3 420.714,1479.3 422.853,1479.3 424.993,1479.3 427.133,1479.3 429.272,1479.3 431.412,1479.3 433.552,1479.3 435.691,1479.3 437.831,1479.3 439.971,1479.3 442.11,1479.3 444.25,1479.3 446.39,1479.3 448.529,1479.3 450.669,1479.3 452.809,1479.3 454.948,1479.3 457.088,1479.3 459.227,1479.3 461.367,1479.3 463.507,1479.3 465.646,1479.3 467.786,1479.3 469.926,1479.3 472.065,1479.3 474.205,1479.3 476.345,1479.3 478.484,1479.3 480.624,1479.3 482.764,1479.3 484.903,1479.3 487.043,1479.3 489.183,1479.3 491.322,1479.3 493.462,1479.3 495.602,1479.3 497.741,1479.3 499.881,1479.3 502.021,1479.3 504.16,1479.3 506.3,1479.3 508.44,1479.3 510.579,1479.3 512.719,1479.3 514.858,1479.3 516.998,1479.3 519.138,1479.3 521.277,1479.3 523.417,1479.3 525.557,1479.3 527.696,1479.3 529.836,1479.3 531.976,1479.3 534.115,1479.3 536.255,1479.3 538.395,1479.3 540.534,1479.3 542.674,1479.3 544.814,1479.3 546.953,1479.3 549.093,1479.3 551.233,1479.3 553.372,1479.3 555.512,1479.3 557.652,1479.3 559.791,1479.3 561.931,1479.3 564.07,1479.3 566.21,1479.3 568.35,1479.3 570.489,1479.3 572.629,1479.3 574.769,1479.3 576.908,1479.3 579.048,1479.3 581.188,1479.3 583.327,981.167 585.467,983.608 587.607,986.026 589.746,988.421 591.886,990.792 594.026,993.141 596.165,995.467 598.305,997.771 600.445,1000.05 602.584,1002.31 604.724,1004.55 606.864,1006.77 609.003,1008.97 611.143,1011.15 613.282,1013.3 615.422,1015.44 617.562,1017.56 619.701,1019.66 621.841,1021.74 623.981,1023.8 626.12,1025.84 628.26,1027.87 630.4,1029.87 632.539,1031.86 634.679,1033.83 636.819,1035.79 638.958,1037.72 641.098,1039.64 643.238,1041.55 645.377,1043.43 647.517,1045.3 649.657,1047.16 651.796,1049 653.936,1050.82 656.076,1052.63 658.215,1054.42 660.355,1056.2 662.494,1057.96 664.634,1059.71 666.774,1061.44 668.913,1063.16 671.053,1064.87 673.193,1066.56 675.332,1068.24 677.472,1069.9 679.612,1071.55 681.751,1073.19 683.891,1074.82 686.031,1076.43 688.17,1078.03 690.31,1079.61 692.45,1081.19 694.589,1082.75 696.729,1084.3 698.869,1085.83 701.008,1087.36 703.148,1088.87 705.288,1090.37 707.427,1091.86 709.567,1093.34 711.707,1094.81 713.846,1096.27 715.986,1097.71 718.125,1099.14 720.265,1100.57 722.405,1101.98 724.544,1103.38 726.684,1104.78 728.824,1106.16 730.963,1107.53 733.103,1108.89 735.243,1110.24 737.382,1111.59 739.522,1112.92 741.662,1114.24 743.801,1115.55 745.941,1116.86 748.081,1118.15 750.22,1119.44 752.36,1120.71 754.5,1121.98 756.639,1123.24 758.779,1124.49 760.919,1125.73 763.058,1126.96 765.198,1128.18 767.337,1129.4 769.477,1130.61 771.617,1131.8 773.756,1132.99 775.896,1134.18 778.036,1135.35 780.175,1136.52 782.315,1137.67 784.455,1138.82 786.594,1139.97 788.734,1141.1 790.874,1142.23 793.013,1143.35 795.153,1144.46 797.293,1145.57 799.432,1146.66 801.572,1147.75 803.712,1148.84 805.851,1149.91 807.991,1150.98 810.131,1152.05 812.27,1153.1 814.41,1154.15 816.549,1155.19 818.689,1156.23 820.829,1157.26 822.968,1158.28 825.108,1159.3 827.248,1160.31 829.387,1161.31 831.527,1162.31 833.667,1163.3 835.806,1164.28 837.946,1165.26 840.086,1166.23 842.225,1167.2 844.365,1168.16 846.505,1169.11 848.644,1170.06 850.784,1171 852.924,1171.94 855.063,1172.87 857.203,1173.8 859.343,1174.72 861.482,1175.63 863.622,1176.54 865.762,1177.45 867.901,1178.34 870.041,1179.24 872.18,1180.12 874.32,1181.01 876.46,1181.88 878.599,1182.76 880.739,1183.62 882.879,1184.49 885.018,1185.34 887.158,1186.19 889.298,1187.04 891.437,1187.88 893.577,1188.72 895.717,1189.55 897.856,1190.38 899.996,1191.2 902.136,1192.02 904.275,1192.84 906.415,1193.65 908.555,1194.45 910.694,1195.25 912.834,1196.05 914.974,1196.84 917.113,1197.62 919.253,1198.41 921.392,1199.19 923.532,1199.96 925.672,1200.73 927.811,1201.49 929.951,1202.25 932.091,1203.01 934.23,1203.76 936.37,1204.51 938.51,1205.26 940.649,1206 942.789,1206.74 944.929,1207.47 947.068,1208.2 949.208,1208.92 951.348,1209.64 953.487,1210.36 955.627,1211.07 957.767,1211.78 959.906,1212.49 962.046,1213.19 964.186,1213.89 966.325,1214.58 968.465,1215.28 970.604,1215.96 972.744,1216.65 974.884,1217.33 977.023,1218 979.163,1218.68 981.303,1219.35 983.442,1220.01 985.582,1220.68 987.722,1221.34 989.861,1221.99 992.001,1222.65 994.141,1223.3 996.28,1223.94 998.42,1224.59 1000.56,1225.23 1002.7,1225.86 1004.84,1226.5 1006.98,1227.13 1009.12,1227.75 1011.26,1228.38 1013.4,1229 1015.54,1229.62 1017.68,1230.23 1019.82,1230.84 1021.96,1231.45 1024.1,1232.06 1026.24,1232.66 1028.38,1233.26 1030.51,1233.86 1032.65,1234.45 1034.79,1235.04 1036.93,1235.63 1039.07,1236.22 1041.21,1236.8 1043.35,1237.38 1045.49,1237.96 1047.63,1238.53 1049.77,1239.11 1051.91,1239.68 1054.05,1240.24 1056.19,1240.81 1058.33,1241.37 1060.47,1241.93 1062.61,1242.48 1064.75,1243.03 1066.89,1243.59 1069.03,1244.13 1071.17,1244.68 1073.31,1245.22 1075.45,1245.76 1077.59,1246.3 1079.73,1246.84 1081.87,1247.37 1084.01,1247.9 1086.15,1248.43 1088.29,1248.95 1090.43,1249.48 1092.56,1250 1094.7,1250.52 1096.84,1251.03 1098.98,1251.55 1101.12,1252.06 1103.26,1252.57 1105.4,1253.08 1107.54,1253.58 1109.68,1254.08 1111.82,1254.59 1113.96,1255.08 1116.1,1255.58 1118.24,1256.07 1120.38,1256.56 1122.52,1257.05 1124.66,1257.54 1126.8,1258.03 1128.94,1258.51 1131.08,1258.99 1133.22,1259.47 1135.36,1259.95 1137.5,1260.42 1139.64,1260.89 1141.78,1261.37 1143.92,1261.83 1146.06,1262.3 1148.2,1262.77 1150.34,1263.23 1152.47,1263.69 1154.61,1264.15 1156.75,1264.6 1158.89,1265.06 1161.03,1265.51 1163.17,1265.96 1165.31,1266.41 1167.45,1266.86 1169.59,1267.3 1171.73,1267.75 1173.87,1268.19 1176.01,1268.63 1178.15,1269.07 1180.29,1269.5 1182.43,1269.94 1184.57,1270.37 1186.71,1270.8 1188.85,1271.23 1190.99,1271.66 1193.13,1272.08 1195.27,1272.51 1197.41,1272.93 1199.55,1273.35 1201.69,1273.77 1203.83,1274.18 1205.97,1274.6 1208.11,1275.01 1210.25,1275.43 1212.39,1275.84 1214.52,1276.24 1216.66,1276.65 1218.8,1277.06 1220.94,1277.46 1223.08,1277.86 1225.22,1278.26 1227.36,1278.66 1229.5,1279.06 1231.64,1279.45 1233.78,1279.85 1235.92,1280.24 1238.06,1280.63 1240.2,1281.02 1242.34,1281.41 1244.48,1281.8 1246.62,1282.18 1248.76,1282.56 1250.9,1282.95 1253.04,1283.33 1255.18,1283.71 1257.32,1284.08 1259.46,1284.46 1261.6,1284.83 1263.74,1285.21 1265.88,1285.58 1268.02,1285.95 1270.16,1286.32 1272.3,1286.69 1274.44,1287.05 1276.57,1287.42 1278.71,1287.78 1280.85,1288.14 1282.99,1288.5 1285.13,1288.86 1287.27,1289.22 1289.41,1289.58 1291.55,1289.93 1293.69,1290.29 1295.83,1290.64 1297.97,1290.99 1300.11,1291.34 1302.25,1291.69 1304.39,1292.04 1306.53,1292.38 1308.67,1292.73 1310.81,1293.07 1312.95,1293.41 1315.09,1293.76 1317.23,1294.1 1319.37,1294.43 1321.51,1294.77 1323.65,1295.11 1325.79,1295.44 1327.93,1295.78 1330.07,1296.11 1332.21,1296.44 1334.35,1296.77 1336.49,1297.1 1338.62,1297.43 1340.76,1297.75 1342.9,1298.08 1345.04,1298.4 1347.18,1298.73 1349.32,1299.05 1351.46,1299.37 1353.6,1299.69 1355.74,1300.01 1357.88,1300.32 1360.02,1300.64 1362.16,1300.95 1364.3,1301.27 1366.44,1301.58 1368.58,1301.89 1370.72,1302.2 1372.86,1302.51 1375,1302.82 1377.14,1303.13 1379.28,1303.44 1381.42,1303.74 1383.56,1304.05 1385.7,1304.35 1387.84,1304.65 1389.98,1304.95 1392.12,1305.25 1394.26,1305.55 1396.4,1305.85 1398.54,1306.15 1400.67,1306.44 1402.81,1306.74 1404.95,1307.03 1407.09,1307.32 1409.23,1307.62 1411.37,1307.91 1413.51,1308.2 1415.65,1308.49 1417.79,1308.77 1419.93,1309.06 1422.07,1309.35 1424.21,1309.63 1426.35,1309.92 1428.49,1310.2 1430.63,1310.48 1432.77,1310.76 1434.91,1311.04 1437.05,1311.32 1439.19,1311.6 1441.33,1311.88 1443.47,1312.16 1445.61,1312.43 1447.75,1312.71 1449.89,1312.98 1452.03,1313.25 1454.17,1313.53 1456.31,1313.8 1458.45,1314.07 1460.58,1314.34 1462.72,1314.61 1464.86,1314.87 1467,1315.14 1469.14,1315.41 1471.28,1315.67 1473.42,1315.94 1475.56,1316.2 1477.7,1316.46 1479.84,1316.72 1481.98,1316.99 1484.12,1317.25 1486.26,1317.5 1488.4,1317.76 1490.54,1318.02 1492.68,1318.28 1494.82,1318.53 1496.96,1318.79 1499.1,1319.04 1501.24,1319.3 1503.38,1319.55 1505.52,1319.8 1507.66,1320.05 1509.8,1320.3 1511.94,1320.55 1514.08,1320.8 1516.22,1321.05 1518.36,1321.3 1520.5,1321.54 1522.63,1321.79 1524.77,1322.03 1526.91,1322.28 1529.05,1322.52 1531.19,1322.76 1533.33,1323.01 1535.47,1323.25 1537.61,1323.49 1539.75,1323.73 1541.89,1323.97 1544.03,1324.2 1546.17,1324.44 1548.31,1324.68 1550.45,1324.91 1552.59,1325.15 1554.73,1325.38 1556.87,1325.62 1559.01,1325.85 1561.15,1326.08 1563.29,1326.32 1565.43,1326.55 1567.57,1326.78 1569.71,1327.01 1571.85,1327.24 1573.99,1327.46 1576.13,1327.69 1578.27,1327.92 1580.41,1328.15 1582.55,1328.37 1584.68,1328.6 1586.82,1328.82 1588.96,1329.04 1591.1,1329.27 1593.24,1329.49 1595.38,1329.71 1597.52,1329.93 1599.66,1330.15 1601.8,1330.37 1603.94,1330.59 1606.08,1330.81 1608.22,1331.03 1610.36,1331.24 1612.5,1331.46 1614.64,1331.68 1616.78,1331.89 1618.92,1332.11 1621.06,1332.32 1623.2,1332.53 1625.34,1332.75 1627.48,1332.96 1629.62,1333.17 1631.76,1333.38 1633.9,1333.59 1636.04,1333.8 1638.18,1334.01 1640.32,1334.22 1642.46,1334.43 1644.6,1334.63 1646.73,1334.84 1648.87,1335.05 1651.01,1335.25 1653.15,1335.46 1655.29,1335.66 1657.43,1335.86 1659.57,1336.07 1661.71,1336.27 1663.85,1336.47 1665.99,1336.67 1668.13,1336.87 1670.27,1337.07 1672.41,1337.27 1674.55,1337.47 1676.69,1337.67 1678.83,1337.87 1680.97,1338.07 1683.11,1338.26 1685.25,1338.46 1687.39,1338.66 1689.53,1338.85 1691.67,1339.05 1693.81,1339.24 1695.95,1339.44 1698.09,1339.63 1700.23,1339.82 1702.37,1340.01 1704.51,1340.2 1706.64,1340.4 1708.78,1340.59 1710.92,1340.78 1713.06,1340.97 1715.2,1341.15 1717.34,1341.34 1719.48,1341.53 1721.62,1341.72 1723.76,1341.91 1725.9,1342.09 1728.04,1342.28 1730.18,1342.46 1732.32,1342.65 1734.46,1342.83 1736.6,1343.02 1738.74,1343.2 1740.88,1343.38 1743.02,1343.57 1745.16,1343.75 1747.3,1343.93 1749.44,1344.11 1751.58,1344.29 1753.72,1344.47 1755.86,1344.65 1758,1344.83 1760.14,1345.01 1762.28,1345.19 1764.42,1345.36 1766.56,1345.54 1768.69,1345.72 1770.83,1345.89 1772.97,1346.07 1775.11,1346.24 1777.25,1346.42 1779.39,1346.59 1781.53,1346.77 1783.67,1346.94 1785.81,1347.11 1787.95,1347.29 1790.09,1347.46 1792.23,1347.63 1794.37,1347.8 1796.51,1347.97 1798.65,1348.14 1800.79,1348.31 1802.93,1348.48 1805.07,1348.65 1807.21,1348.82 1809.35,1348.99 1811.49,1349.16 1813.63,1349.32 1815.77,1349.49 1817.91,1349.66 1820.05,1349.82 1822.19,1349.99 1824.33,1350.15 1826.47,1350.32 1828.61,1350.48 1830.74,1350.65 1832.88,1350.81 1835.02,1350.97 1837.16,1351.13 1839.3,1351.3 1841.44,1351.46 1843.58,1351.62 1845.72,1351.78 1847.86,1351.94 1850,1352.1 1852.14,1352.26 1854.28,1352.42 1856.42,1352.58 1858.56,1352.74 1860.7,1352.9 1862.84,1353.05 1864.98,1353.21 1867.12,1353.37 1869.26,1353.53 1871.4,1353.68 1873.54,1353.84 1875.68,1353.99 1877.82,1354.15 1879.96,1354.3 1882.1,1354.46 1884.24,1354.61 1886.38,1354.76 1888.52,1354.92 1890.66,1355.07 1892.79,1355.22 1894.93,1355.38 1897.07,1355.53 1899.21,1355.68 1901.35,1355.83 1903.49,1355.98 1905.63,1356.13 1907.77,1356.28 1909.91,1356.43 1912.05,1356.58 1914.19,1356.73 1916.33,1356.88 1918.47,1357.02 1920.61,1357.17 1922.75,1357.32 1924.89,1357.47 1927.03,1357.61 1929.17,1357.76 1931.31,1357.9 1933.45,1358.05 1935.59,1358.2 1937.73,1358.34 1939.87,1358.48 1942.01,1358.63 1944.15,1358.77 1946.29,1358.92 1948.43,1359.06 1950.57,1359.2 1952.71,1359.34 1954.84,1359.49 1956.98,1359.63 1959.12,1359.77 1961.26,1359.91 1963.4,1360.05 1965.54,1360.19 1967.68,1360.33 1969.82,1360.47 1971.96,1360.61 1974.1,1360.75 1976.24,1360.89 1978.38,1361.03 1980.52,1361.17 1982.66,1361.3 1984.8,1361.44 1986.94,1361.58 1989.08,1361.72 1991.22,1361.85 1993.36,1361.99 1995.5,1362.12 1997.64,1362.26 1999.78,1362.4 2001.92,1362.53 2004.06,1362.66 2006.2,1362.8 2008.34,1362.93 2010.48,1363.07 2012.62,1363.2 2014.75,1363.33 2016.89,1363.47 2019.03,1363.6 2021.17,1363.73 2023.31,1363.86 2025.45,1363.99 2027.59,1364.13 2029.73,1364.26 2031.87,1364.39 2034.01,1364.52 2036.15,1364.65 2038.29,1364.78 2040.43,1364.91 2042.57,1365.04 2044.71,1365.17 2046.85,1365.29 2048.99,1365.42 2051.13,1365.55 2053.27,1365.68 2055.41,1365.81 2057.55,1365.93 2059.69,1366.06 2061.83,1366.19 2063.97,1366.31 2066.11,1366.44 2068.25,1366.57 2070.39,1366.69 2072.53,1366.82 2074.67,1366.94 2076.8,1367.07 2078.94,1367.19 2081.08,1367.31 2083.22,1367.44 2085.36,1367.56 2087.5,1367.69 2089.64,1367.81 2091.78,1367.93 2093.92,1368.05 2096.06,1368.18 2098.2,1368.3 2100.34,1368.42 2102.48,1368.54 2104.62,1368.66 2106.76,1368.78 2108.9,1368.9 2111.04,1369.02 2113.18,1369.14 2115.32,1369.26 2117.46,1369.38 2119.6,1369.5 2121.74,1369.62 2123.88,1369.74 2126.02,1369.86 2128.16,1369.98 2130.3,1370.1 2132.44,1370.21 2134.58,1370.33 2136.72,1370.45 2138.85,1370.57 2140.99,1370.68 2143.13,1370.8 2145.27,1370.92 2147.41,1371.03 2149.55,1371.15 2151.69,1371.26 2153.83,1371.38 2155.97,1371.49 2158.11,1371.61 2160.25,1371.72 2162.39,1371.84 2164.53,1371.95 2166.67,1372.06 2168.81,1372.18 2170.95,1372.29 2173.09,1372.4 2175.23,1372.52 2177.37,1372.63 2179.51,1372.74 2181.65,1372.85 2183.79,1372.97 2185.93,1373.08 2188.07,1373.19 2190.21,1373.3 2192.35,1373.41 2194.49,1373.52 2196.63,1373.63 2198.77,1373.74 2200.9,1373.85 2203.04,1373.96 2205.18,1374.07 2207.32,1374.18 2209.46,1374.29 2211.6,1374.4 2213.74,1374.51 2215.88,1374.62 2218.02,1374.73 2220.16,1374.83 2222.3,1374.94 2224.44,1375.05 2226.58,1375.16 2228.72,1375.26 2230.86,1375.37 2233,1375.48 2235.14,1375.58 2237.28,1375.69 2239.42,1375.8 2241.56,1375.9 2243.7,1376.01 2245.84,1376.11 2247.98,1376.22 2250.12,1376.32 2252.26,1376.43 2254.4,1376.53 2256.54,1376.64 2258.68,1376.74 2260.82,1376.85 2262.95,1376.95 2265.09,1377.05 2267.23,1377.16 2269.37,1377.26 2271.51,1377.36 2273.65,1377.46 2275.79,1377.57 2277.93,1377.67 2280.07,1377.77 2282.21,1377.87 2284.35,1377.97 2286.49,1378.08 2288.63,1378.18 "/>
<path clip-path="url(#clip880)" d="M1833.66 251.89 L2277.23 251.89 L2277.23 96.3696 L1833.66 96.3696  Z" fill="#ffffff" fill-rule="evenodd" fill-opacity="1"/>
<polyline clip-path="url(#clip880)" style="stroke:#000000; stroke-linecap:round; stroke-linejoin:round; stroke-width:4; stroke-opacity:1; fill:none" points="1833.66,251.89 2277.23,251.89 2277.23,96.3696 1833.66,96.3696 1833.66,251.89 "/>
<polyline clip-path="url(#clip880)" style="stroke:#009af9; stroke-linecap:round; stroke-linejoin:round; stroke-width:4; stroke-opacity:1; fill:none" points="1858.84,148.21 2009.89,148.21 "/>
<path clip-path="url(#clip880)" d="M2039.35 161.601 L2039.35 175.351 L2035.07 175.351 L2035.07 139.564 L2039.35 139.564 L2039.35 143.499 Q2040.69 141.184 2042.73 140.073 Q2044.79 138.939 2047.64 138.939 Q2052.36 138.939 2055.3 142.689 Q2058.26 146.439 2058.26 152.55 Q2058.26 158.661 2055.3 162.411 Q2052.36 166.161 2047.64 166.161 Q2044.79 166.161 2042.73 165.05 Q2040.69 163.915 2039.35 161.601 M2053.84 152.55 Q2053.84 147.851 2051.89 145.189 Q2049.97 142.504 2046.59 142.504 Q2043.21 142.504 2041.27 145.189 Q2039.35 147.851 2039.35 152.55 Q2039.35 157.249 2041.27 159.934 Q2043.21 162.596 2046.59 162.596 Q2049.97 162.596 2051.89 159.934 Q2053.84 157.249 2053.84 152.55 Z" fill="#000000" fill-rule="nonzero" fill-opacity="1" /><path clip-path="url(#clip880)" d="M2075.37 142.55 Q2071.94 142.55 2069.95 145.235 Q2067.96 147.897 2067.96 152.55 Q2067.96 157.203 2069.93 159.888 Q2071.92 162.55 2075.37 162.55 Q2078.77 162.55 2080.76 159.865 Q2082.75 157.179 2082.75 152.55 Q2082.75 147.943 2080.76 145.258 Q2078.77 142.55 2075.37 142.55 M2075.37 138.939 Q2080.92 138.939 2084.09 142.55 Q2087.26 146.161 2087.26 152.55 Q2087.26 158.916 2084.09 162.55 Q2080.92 166.161 2075.37 166.161 Q2069.79 166.161 2066.62 162.55 Q2063.47 158.916 2063.47 152.55 Q2063.47 146.161 2066.62 142.55 Q2069.79 138.939 2075.37 138.939 Z" fill="#000000" fill-rule="nonzero" fill-opacity="1" /><path clip-path="url(#clip880)" d="M2110.85 140.328 L2110.85 144.355 Q2109.05 143.429 2107.1 142.967 Q2105.16 142.504 2103.07 142.504 Q2099.9 142.504 2098.31 143.476 Q2096.73 144.448 2096.73 146.392 Q2096.73 147.874 2097.87 148.73 Q2099 149.564 2102.43 150.328 L2103.88 150.652 Q2108.42 151.624 2110.32 153.406 Q2112.24 155.166 2112.24 158.337 Q2112.24 161.948 2109.37 164.054 Q2106.52 166.161 2101.52 166.161 Q2099.44 166.161 2097.17 165.744 Q2094.93 165.351 2092.43 164.54 L2092.43 160.142 Q2094.79 161.369 2097.08 161.994 Q2099.37 162.596 2101.62 162.596 Q2104.63 162.596 2106.25 161.578 Q2107.87 160.536 2107.87 158.661 Q2107.87 156.925 2106.69 155.999 Q2105.53 155.073 2101.57 154.216 L2100.09 153.869 Q2096.13 153.036 2094.37 151.323 Q2092.61 149.587 2092.61 146.578 Q2092.61 142.92 2095.2 140.93 Q2097.8 138.939 2102.57 138.939 Q2104.93 138.939 2107.01 139.286 Q2109.09 139.633 2110.85 140.328 Z" fill="#000000" fill-rule="nonzero" fill-opacity="1" /><path clip-path="url(#clip880)" d="M2123.24 132.203 L2123.24 139.564 L2132.01 139.564 L2132.01 142.874 L2123.24 142.874 L2123.24 156.948 Q2123.24 160.119 2124.09 161.022 Q2124.97 161.925 2127.63 161.925 L2132.01 161.925 L2132.01 165.49 L2127.63 165.49 Q2122.7 165.49 2120.83 163.661 Q2118.95 161.809 2118.95 156.948 L2118.95 142.874 L2115.83 142.874 L2115.83 139.564 L2118.95 139.564 L2118.95 132.203 L2123.24 132.203 Z" fill="#000000" fill-rule="nonzero" fill-opacity="1" /><path clip-path="url(#clip880)" d="M2159.79 151.462 L2159.79 153.545 L2140.2 153.545 Q2140.48 157.943 2142.84 160.258 Q2145.23 162.55 2149.46 162.55 Q2151.92 162.55 2154.21 161.948 Q2156.52 161.346 2158.79 160.142 L2158.79 164.17 Q2156.5 165.142 2154.09 165.652 Q2151.69 166.161 2149.21 166.161 Q2143 166.161 2139.37 162.55 Q2135.76 158.939 2135.76 152.781 Q2135.76 146.416 2139.19 142.689 Q2142.63 138.939 2148.47 138.939 Q2153.7 138.939 2156.73 142.318 Q2159.79 145.675 2159.79 151.462 M2155.53 150.212 Q2155.48 146.717 2153.56 144.633 Q2151.66 142.55 2148.51 142.55 Q2144.95 142.55 2142.8 144.564 Q2140.67 146.578 2140.34 150.235 L2155.53 150.212 Z" fill="#000000" fill-rule="nonzero" fill-opacity="1" /><path clip-path="url(#clip880)" d="M2181.8 143.545 Q2181.08 143.129 2180.23 142.943 Q2179.39 142.735 2178.38 142.735 Q2174.76 142.735 2172.82 145.096 Q2170.9 147.434 2170.9 151.832 L2170.9 165.49 L2166.62 165.49 L2166.62 139.564 L2170.9 139.564 L2170.9 143.592 Q2172.24 141.23 2174.39 140.096 Q2176.55 138.939 2179.63 138.939 Q2180.06 138.939 2180.6 139.008 Q2181.13 139.055 2181.78 139.17 L2181.8 143.545 Z" fill="#000000" fill-rule="nonzero" fill-opacity="1" /><path clip-path="url(#clip880)" d="M2186.27 139.564 L2190.53 139.564 L2190.53 165.49 L2186.27 165.49 L2186.27 139.564 M2186.27 129.471 L2190.53 129.471 L2190.53 134.865 L2186.27 134.865 L2186.27 129.471 Z" fill="#000000" fill-rule="nonzero" fill-opacity="1" /><path clip-path="url(#clip880)" d="M2209.49 142.55 Q2206.06 142.55 2204.07 145.235 Q2202.08 147.897 2202.08 152.55 Q2202.08 157.203 2204.05 159.888 Q2206.04 162.55 2209.49 162.55 Q2212.89 162.55 2214.88 159.865 Q2216.87 157.179 2216.87 152.55 Q2216.87 147.943 2214.88 145.258 Q2212.89 142.55 2209.49 142.55 M2209.49 138.939 Q2215.04 138.939 2218.21 142.55 Q2221.38 146.161 2221.38 152.55 Q2221.38 158.916 2218.21 162.55 Q2215.04 166.161 2209.49 166.161 Q2203.91 166.161 2200.74 162.55 Q2197.59 158.916 2197.59 152.55 Q2197.59 146.161 2200.74 142.55 Q2203.91 138.939 2209.49 138.939 Z" fill="#000000" fill-rule="nonzero" fill-opacity="1" /><path clip-path="url(#clip880)" d="M2243.47 143.545 Q2242.75 143.129 2241.89 142.943 Q2241.06 142.735 2240.04 142.735 Q2236.43 142.735 2234.49 145.096 Q2232.56 147.434 2232.56 151.832 L2232.56 165.49 L2228.28 165.49 L2228.28 139.564 L2232.56 139.564 L2232.56 143.592 Q2233.91 141.23 2236.06 140.096 Q2238.21 138.939 2241.29 138.939 Q2241.73 138.939 2242.26 139.008 Q2242.8 139.055 2243.44 139.17 L2243.47 143.545 Z" fill="#000000" fill-rule="nonzero" fill-opacity="1" /><polyline clip-path="url(#clip880)" style="stroke:#e26f46; stroke-linecap:round; stroke-linejoin:round; stroke-width:4; stroke-opacity:1; fill:none" points="1858.84,200.05 2009.89,200.05 "/>
<path clip-path="url(#clip880)" d="M2035.07 181.311 L2039.32 181.311 L2039.32 217.33 L2035.07 217.33 L2035.07 181.311 Z" fill="#000000" fill-rule="nonzero" fill-opacity="1" /><path clip-path="url(#clip880)" d="M2048.24 191.404 L2052.5 191.404 L2052.5 217.33 L2048.24 217.33 L2048.24 191.404 M2048.24 181.311 L2052.5 181.311 L2052.5 186.705 L2048.24 186.705 L2048.24 181.311 Z" fill="#000000" fill-rule="nonzero" fill-opacity="1" /><path clip-path="url(#clip880)" d="M2061.25 181.311 L2065.53 181.311 L2065.53 202.584 L2078.24 191.404 L2083.68 191.404 L2069.93 203.533 L2084.26 217.33 L2078.7 217.33 L2065.53 204.668 L2065.53 217.33 L2061.25 217.33 L2061.25 181.311 Z" fill="#000000" fill-rule="nonzero" fill-opacity="1" /><path clip-path="url(#clip880)" d="M2109.35 203.302 L2109.35 205.385 L2089.76 205.385 Q2090.04 209.783 2092.4 212.098 Q2094.79 214.39 2099.02 214.39 Q2101.48 214.39 2103.77 213.788 Q2106.08 213.186 2108.35 211.982 L2108.35 216.01 Q2106.06 216.982 2103.65 217.492 Q2101.25 218.001 2098.77 218.001 Q2092.57 218.001 2088.93 214.39 Q2085.32 210.779 2085.32 204.621 Q2085.32 198.256 2088.75 194.529 Q2092.2 190.779 2098.03 190.779 Q2103.26 190.779 2106.29 194.158 Q2109.35 197.515 2109.35 203.302 M2105.09 202.052 Q2105.04 198.557 2103.12 196.473 Q2101.22 194.39 2098.07 194.39 Q2094.51 194.39 2092.36 196.404 Q2090.23 198.418 2089.9 202.075 L2105.09 202.052 Z" fill="#000000" fill-rule="nonzero" fill-opacity="1" /><path clip-path="url(#clip880)" d="M2116.34 181.311 L2120.6 181.311 L2120.6 217.33 L2116.34 217.33 L2116.34 181.311 Z" fill="#000000" fill-rule="nonzero" fill-opacity="1" /><path clip-path="url(#clip880)" d="M2129.51 191.404 L2133.77 191.404 L2133.77 217.33 L2129.51 217.33 L2129.51 191.404 M2129.51 181.311 L2133.77 181.311 L2133.77 186.705 L2129.51 186.705 L2129.51 181.311 Z" fill="#000000" fill-rule="nonzero" fill-opacity="1" /><path clip-path="url(#clip880)" d="M2164.23 201.681 L2164.23 217.33 L2159.97 217.33 L2159.97 201.82 Q2159.97 198.14 2158.54 196.311 Q2157.1 194.482 2154.23 194.482 Q2150.78 194.482 2148.79 196.682 Q2146.8 198.881 2146.8 202.677 L2146.8 217.33 L2142.52 217.33 L2142.52 181.311 L2146.8 181.311 L2146.8 195.432 Q2148.33 193.094 2150.39 191.936 Q2152.47 190.779 2155.18 190.779 Q2159.65 190.779 2161.94 193.557 Q2164.23 196.311 2164.23 201.681 Z" fill="#000000" fill-rule="nonzero" fill-opacity="1" /><path clip-path="url(#clip880)" d="M2182.77 194.39 Q2179.35 194.39 2177.36 197.075 Q2175.37 199.737 2175.37 204.39 Q2175.37 209.043 2177.33 211.728 Q2179.32 214.39 2182.77 214.39 Q2186.18 214.39 2188.17 211.705 Q2190.16 209.019 2190.16 204.39 Q2190.16 199.783 2188.17 197.098 Q2186.18 194.39 2182.77 194.39 M2182.77 190.779 Q2188.33 190.779 2191.5 194.39 Q2194.67 198.001 2194.67 204.39 Q2194.67 210.756 2191.5 214.39 Q2188.33 218.001 2182.77 218.001 Q2177.19 218.001 2174.02 214.39 Q2170.88 210.756 2170.88 204.39 Q2170.88 198.001 2174.02 194.39 Q2177.19 190.779 2182.77 190.779 Z" fill="#000000" fill-rule="nonzero" fill-opacity="1" /><path clip-path="url(#clip880)" d="M2211.78 194.39 Q2208.35 194.39 2206.36 197.075 Q2204.37 199.737 2204.37 204.39 Q2204.37 209.043 2206.34 211.728 Q2208.33 214.39 2211.78 214.39 Q2215.18 214.39 2217.17 211.705 Q2219.16 209.019 2219.16 204.39 Q2219.16 199.783 2217.17 197.098 Q2215.18 194.39 2211.78 194.39 M2211.78 190.779 Q2217.33 190.779 2220.5 194.39 Q2223.68 198.001 2223.68 204.39 Q2223.68 210.756 2220.5 214.39 Q2217.33 218.001 2211.78 218.001 Q2206.2 218.001 2203.03 214.39 Q2199.88 210.756 2199.88 204.39 Q2199.88 198.001 2203.03 194.39 Q2206.2 190.779 2211.78 190.779 Z" fill="#000000" fill-rule="nonzero" fill-opacity="1" /><path clip-path="url(#clip880)" d="M2247.8 195.339 L2247.8 181.311 L2252.06 181.311 L2252.06 217.33 L2247.8 217.33 L2247.8 213.441 Q2246.45 215.755 2244.39 216.89 Q2242.36 218.001 2239.49 218.001 Q2234.79 218.001 2231.82 214.251 Q2228.88 210.501 2228.88 204.39 Q2228.88 198.279 2231.82 194.529 Q2234.79 190.779 2239.49 190.779 Q2242.36 190.779 2244.39 191.913 Q2246.45 193.024 2247.8 195.339 M2233.28 204.39 Q2233.28 209.089 2235.2 211.774 Q2237.15 214.436 2240.53 214.436 Q2243.91 214.436 2245.85 211.774 Q2247.8 209.089 2247.8 204.39 Q2247.8 199.691 2245.85 197.029 Q2243.91 194.344 2240.53 194.344 Q2237.15 194.344 2235.2 197.029 Q2233.28 199.691 2233.28 204.39 Z" fill="#000000" fill-rule="nonzero" fill-opacity="1" /></svg>
