<?xml version="1.0" encoding="utf-8"?>
<svg xmlns="http://www.w3.org/2000/svg" xmlns:xlink="http://www.w3.org/1999/xlink" width="600" height="400" viewBox="0 0 2400 1600">
<defs>
  <clipPath id="clip090">
    <rect x="0" y="0" width="2400" height="1600"/>
  </clipPath>
</defs>
<path clip-path="url(#clip090)" d="M0 1600 L2400 1600 L2400 0 L0 0  Z" fill="#ffffff" fill-rule="evenodd" fill-opacity="1"/>
<defs>
  <clipPath id="clip091">
    <rect x="480" y="0" width="1681" height="1600"/>
  </clipPath>
</defs>
<path clip-path="url(#clip090)" d="M86.9921 1521.01 L2352.76 1521.01 L2352.76 47.2441 L86.9921 47.2441  Z" fill="#ffffff" fill-rule="evenodd" fill-opacity="1"/>
<defs>
  <clipPath id="clip092">
    <rect x="86" y="47" width="2267" height="1475"/>
  </clipPath>
</defs>
<polyline clip-path="url(#clip092)" style="stroke:#000000; stroke-linecap:round; stroke-linejoin:round; stroke-width:2; stroke-opacity:0.1; fill:none" points="151.118,1521.01 151.118,47.2441 "/>
<polyline clip-path="url(#clip092)" style="stroke:#000000; stroke-linecap:round; stroke-linejoin:round; stroke-width:2; stroke-opacity:0.1; fill:none" points="685.496,1521.01 685.496,47.2441 "/>
<polyline clip-path="url(#clip092)" style="stroke:#000000; stroke-linecap:round; stroke-linejoin:round; stroke-width:2; stroke-opacity:0.1; fill:none" points="1219.87,1521.01 1219.87,47.2441 "/>
<polyline clip-path="url(#clip092)" style="stroke:#000000; stroke-linecap:round; stroke-linejoin:round; stroke-width:2; stroke-opacity:0.1; fill:none" points="1754.25,1521.01 1754.25,47.2441 "/>
<polyline clip-path="url(#clip092)" style="stroke:#000000; stroke-linecap:round; stroke-linejoin:round; stroke-width:2; stroke-opacity:0.1; fill:none" points="2288.63,1521.01 2288.63,47.2441 "/>
<polyline clip-path="url(#clip090)" style="stroke:#000000; stroke-linecap:round; stroke-linejoin:round; stroke-width:4; stroke-opacity:1; fill:none" points="86.9921,1521.01 2352.76,1521.01 "/>
<polyline clip-path="url(#clip090)" style="stroke:#000000; stroke-linecap:round; stroke-linejoin:round; stroke-width:4; stroke-opacity:1; fill:none" points="151.118,1521.01 151.118,1502.11 "/>
<polyline clip-path="url(#clip090)" style="stroke:#000000; stroke-linecap:round; stroke-linejoin:round; stroke-width:4; stroke-opacity:1; fill:none" points="685.496,1521.01 685.496,1502.11 "/>
<polyline clip-path="url(#clip090)" style="stroke:#000000; stroke-linecap:round; stroke-linejoin:round; stroke-width:4; stroke-opacity:1; fill:none" points="1219.87,1521.01 1219.87,1502.11 "/>
<polyline clip-path="url(#clip090)" style="stroke:#000000; stroke-linecap:round; stroke-linejoin:round; stroke-width:4; stroke-opacity:1; fill:none" points="1754.25,1521.01 1754.25,1502.11 "/>
<polyline clip-path="url(#clip090)" style="stroke:#000000; stroke-linecap:round; stroke-linejoin:round; stroke-width:4; stroke-opacity:1; fill:none" points="2288.63,1521.01 2288.63,1502.11 "/>
<path clip-path="url(#clip090)" d="M128.502 1551.93 Q124.891 1551.93 123.062 1555.49 Q121.257 1559.03 121.257 1566.16 Q121.257 1573.27 123.062 1576.83 Q124.891 1580.38 128.502 1580.38 Q132.136 1580.38 133.942 1576.83 Q135.77 1573.27 135.77 1566.16 Q135.77 1559.03 133.942 1555.49 Q132.136 1551.93 128.502 1551.93 M128.502 1548.22 Q134.312 1548.22 137.368 1552.83 Q140.446 1557.41 140.446 1566.16 Q140.446 1574.89 137.368 1579.5 Q134.312 1584.08 128.502 1584.08 Q122.692 1584.08 119.613 1579.5 Q116.558 1574.89 116.558 1566.16 Q116.558 1557.41 119.613 1552.83 Q122.692 1548.22 128.502 1548.22 Z" fill="#000000" fill-rule="nonzero" fill-opacity="1" /><path clip-path="url(#clip090)" d="M148.664 1577.53 L153.548 1577.53 L153.548 1583.41 L148.664 1583.41 L148.664 1577.53 Z" fill="#000000" fill-rule="nonzero" fill-opacity="1" /><path clip-path="url(#clip090)" d="M173.733 1551.93 Q170.122 1551.93 168.293 1555.49 Q166.488 1559.03 166.488 1566.16 Q166.488 1573.27 168.293 1576.83 Q170.122 1580.38 173.733 1580.38 Q177.367 1580.38 179.173 1576.83 Q181.002 1573.27 181.002 1566.16 Q181.002 1559.03 179.173 1555.49 Q177.367 1551.93 173.733 1551.93 M173.733 1548.22 Q179.543 1548.22 182.599 1552.83 Q185.678 1557.41 185.678 1566.16 Q185.678 1574.89 182.599 1579.5 Q179.543 1584.08 173.733 1584.08 Q167.923 1584.08 164.844 1579.5 Q161.789 1574.89 161.789 1566.16 Q161.789 1557.41 164.844 1552.83 Q167.923 1548.22 173.733 1548.22 Z" fill="#000000" fill-rule="nonzero" fill-opacity="1" /><path clip-path="url(#clip090)" d="M657.232 1579.47 L673.551 1579.47 L673.551 1583.41 L651.607 1583.41 L651.607 1579.47 Q654.269 1576.72 658.852 1572.09 Q663.459 1567.44 664.639 1566.09 Q666.885 1563.57 667.764 1561.83 Q668.667 1560.07 668.667 1558.38 Q668.667 1555.63 666.723 1553.89 Q664.801 1552.16 661.7 1552.16 Q659.501 1552.16 657.047 1552.92 Q654.616 1553.69 651.839 1555.24 L651.839 1550.51 Q654.663 1549.38 657.116 1548.8 Q659.57 1548.22 661.607 1548.22 Q666.977 1548.22 670.172 1550.91 Q673.366 1553.59 673.366 1558.08 Q673.366 1560.21 672.556 1562.13 Q671.769 1564.03 669.663 1566.63 Q669.084 1567.3 665.982 1570.51 Q662.88 1573.71 657.232 1579.47 Z" fill="#000000" fill-rule="nonzero" fill-opacity="1" /><path clip-path="url(#clip090)" d="M683.366 1577.53 L688.25 1577.53 L688.25 1583.41 L683.366 1583.41 L683.366 1577.53 Z" fill="#000000" fill-rule="nonzero" fill-opacity="1" /><path clip-path="url(#clip090)" d="M698.482 1548.85 L716.838 1548.85 L716.838 1552.78 L702.764 1552.78 L702.764 1561.26 Q703.783 1560.91 704.801 1560.75 Q705.82 1560.56 706.838 1560.56 Q712.625 1560.56 716.005 1563.73 Q719.384 1566.9 719.384 1572.32 Q719.384 1577.9 715.912 1581 Q712.44 1584.08 706.121 1584.08 Q703.945 1584.08 701.676 1583.71 Q699.431 1583.34 697.023 1582.6 L697.023 1577.9 Q699.107 1579.03 701.329 1579.59 Q703.551 1580.14 706.028 1580.14 Q710.033 1580.14 712.371 1578.04 Q714.709 1575.93 714.709 1572.32 Q714.709 1568.71 712.371 1566.6 Q710.033 1564.5 706.028 1564.5 Q704.153 1564.5 702.278 1564.91 Q700.426 1565.33 698.482 1566.21 L698.482 1548.85 Z" fill="#000000" fill-rule="nonzero" fill-opacity="1" /><path clip-path="url(#clip090)" d="M1187.04 1548.85 L1205.39 1548.85 L1205.39 1552.78 L1191.32 1552.78 L1191.32 1561.26 Q1192.34 1560.91 1193.36 1560.75 Q1194.38 1560.56 1195.39 1560.56 Q1201.18 1560.56 1204.56 1563.73 Q1207.94 1566.9 1207.94 1572.32 Q1207.94 1577.9 1204.47 1581 Q1201 1584.08 1194.68 1584.08 Q1192.5 1584.08 1190.23 1583.71 Q1187.99 1583.34 1185.58 1582.6 L1185.58 1577.9 Q1187.66 1579.03 1189.89 1579.59 Q1192.11 1580.14 1194.58 1580.14 Q1198.59 1580.14 1200.93 1578.04 Q1203.27 1575.93 1203.27 1572.32 Q1203.27 1568.71 1200.93 1566.6 Q1198.59 1564.5 1194.58 1564.5 Q1192.71 1564.5 1190.83 1564.91 Q1188.98 1565.33 1187.04 1566.21 L1187.04 1548.85 Z" fill="#000000" fill-rule="nonzero" fill-opacity="1" /><path clip-path="url(#clip090)" d="M1217.15 1577.53 L1222.04 1577.53 L1222.04 1583.41 L1217.15 1583.41 L1217.15 1577.53 Z" fill="#000000" fill-rule="nonzero" fill-opacity="1" /><path clip-path="url(#clip090)" d="M1242.22 1551.93 Q1238.61 1551.93 1236.78 1555.49 Q1234.98 1559.03 1234.98 1566.16 Q1234.98 1573.27 1236.78 1576.83 Q1238.61 1580.38 1242.22 1580.38 Q1245.86 1580.38 1247.66 1576.83 Q1249.49 1573.27 1249.49 1566.16 Q1249.49 1559.03 1247.66 1555.49 Q1245.86 1551.93 1242.22 1551.93 M1242.22 1548.22 Q1248.03 1548.22 1251.09 1552.83 Q1254.17 1557.41 1254.17 1566.16 Q1254.17 1574.89 1251.09 1579.5 Q1248.03 1584.08 1242.22 1584.08 Q1236.41 1584.08 1233.33 1579.5 Q1230.28 1574.89 1230.28 1566.16 Q1230.28 1557.41 1233.33 1552.83 Q1236.41 1548.22 1242.22 1548.22 Z" fill="#000000" fill-rule="nonzero" fill-opacity="1" /><path clip-path="url(#clip090)" d="M1720.57 1548.85 L1742.79 1548.85 L1742.79 1550.84 L1730.25 1583.41 L1725.36 1583.41 L1737.17 1552.78 L1720.57 1552.78 L1720.57 1548.85 Z" fill="#000000" fill-rule="nonzero" fill-opacity="1" /><path clip-path="url(#clip090)" d="M1751.91 1577.53 L1756.8 1577.53 L1756.8 1583.41 L1751.91 1583.41 L1751.91 1577.53 Z" fill="#000000" fill-rule="nonzero" fill-opacity="1" /><path clip-path="url(#clip090)" d="M1767.03 1548.85 L1785.39 1548.85 L1785.39 1552.78 L1771.31 1552.78 L1771.31 1561.26 Q1772.33 1560.91 1773.35 1560.75 Q1774.37 1560.56 1775.39 1560.56 Q1781.17 1560.56 1784.55 1563.73 Q1787.93 1566.9 1787.93 1572.32 Q1787.93 1577.9 1784.46 1581 Q1780.99 1584.08 1774.67 1584.08 Q1772.49 1584.08 1770.22 1583.71 Q1767.98 1583.34 1765.57 1582.6 L1765.57 1577.9 Q1767.65 1579.03 1769.88 1579.59 Q1772.1 1580.14 1774.58 1580.14 Q1778.58 1580.14 1780.92 1578.04 Q1783.26 1575.93 1783.26 1572.32 Q1783.26 1568.71 1780.92 1566.6 Q1778.58 1564.5 1774.58 1564.5 Q1772.7 1564.5 1770.83 1564.91 Q1768.97 1565.33 1767.03 1566.21 L1767.03 1548.85 Z" fill="#000000" fill-rule="nonzero" fill-opacity="1" /><path clip-path="url(#clip090)" d="M2240.7 1579.47 L2248.34 1579.47 L2248.34 1553.11 L2240.03 1554.77 L2240.03 1550.51 L2248.3 1548.85 L2252.97 1548.85 L2252.97 1579.47 L2260.61 1579.47 L2260.61 1583.41 L2240.7 1583.41 L2240.7 1579.47 Z" fill="#000000" fill-rule="nonzero" fill-opacity="1" /><path clip-path="url(#clip090)" d="M2280.05 1551.93 Q2276.44 1551.93 2274.61 1555.49 Q2272.81 1559.03 2272.81 1566.16 Q2272.81 1573.27 2274.61 1576.83 Q2276.44 1580.38 2280.05 1580.38 Q2283.69 1580.38 2285.49 1576.83 Q2287.32 1573.27 2287.32 1566.16 Q2287.32 1559.03 2285.49 1555.49 Q2283.69 1551.93 2280.05 1551.93 M2280.05 1548.22 Q2285.86 1548.22 2288.92 1552.83 Q2292 1557.41 2292 1566.16 Q2292 1574.89 2288.92 1579.5 Q2285.86 1584.08 2280.05 1584.08 Q2274.24 1584.08 2271.17 1579.5 Q2268.11 1574.89 2268.11 1566.16 Q2268.11 1557.41 2271.17 1552.83 Q2274.24 1548.22 2280.05 1548.22 Z" fill="#000000" fill-rule="nonzero" fill-opacity="1" /><path clip-path="url(#clip090)" d="M2300.22 1577.53 L2305.1 1577.53 L2305.1 1583.41 L2300.22 1583.41 L2300.22 1577.53 Z" fill="#000000" fill-rule="nonzero" fill-opacity="1" /><path clip-path="url(#clip090)" d="M2325.29 1551.93 Q2321.67 1551.93 2319.85 1555.49 Q2318.04 1559.03 2318.04 1566.16 Q2318.04 1573.27 2319.85 1576.83 Q2321.67 1580.38 2325.29 1580.38 Q2328.92 1580.38 2330.73 1576.83 Q2332.55 1573.27 2332.55 1566.16 Q2332.55 1559.03 2330.73 1555.49 Q2328.92 1551.93 2325.29 1551.93 M2325.29 1548.22 Q2331.1 1548.22 2334.15 1552.83 Q2337.23 1557.41 2337.23 1566.16 Q2337.23 1574.89 2334.15 1579.5 Q2331.1 1584.08 2325.29 1584.08 Q2319.48 1584.08 2316.4 1579.5 Q2313.34 1574.89 2313.34 1566.16 Q2313.34 1557.41 2316.4 1552.83 Q2319.48 1548.22 2325.29 1548.22 Z" fill="#000000" fill-rule="nonzero" fill-opacity="1" /><polyline clip-path="url(#clip092)" style="stroke:#000000; stroke-linecap:round; stroke-linejoin:round; stroke-width:2; stroke-opacity:0.1; fill:none" points="86.9921,1334.19 2352.76,1334.19 "/>
<polyline clip-path="url(#clip092)" style="stroke:#000000; stroke-linecap:round; stroke-linejoin:round; stroke-width:2; stroke-opacity:0.1; fill:none" points="86.9921,1049.57 2352.76,1049.57 "/>
<polyline clip-path="url(#clip092)" style="stroke:#000000; stroke-linecap:round; stroke-linejoin:round; stroke-width:2; stroke-opacity:0.1; fill:none" points="86.9921,764.944 2352.76,764.944 "/>
<polyline clip-path="url(#clip092)" style="stroke:#000000; stroke-linecap:round; stroke-linejoin:round; stroke-width:2; stroke-opacity:0.1; fill:none" points="86.9921,480.319 2352.76,480.319 "/>
<polyline clip-path="url(#clip092)" style="stroke:#000000; stroke-linecap:round; stroke-linejoin:round; stroke-width:2; stroke-opacity:0.1; fill:none" points="86.9921,195.694 2352.76,195.694 "/>
<polyline clip-path="url(#clip090)" style="stroke:#000000; stroke-linecap:round; stroke-linejoin:round; stroke-width:4; stroke-opacity:1; fill:none" points="86.9921,1521.01 86.9921,47.2441 "/>
<polyline clip-path="url(#clip090)" style="stroke:#000000; stroke-linecap:round; stroke-linejoin:round; stroke-width:4; stroke-opacity:1; fill:none" points="86.9921,1334.19 105.89,1334.19 "/>
<polyline clip-path="url(#clip090)" style="stroke:#000000; stroke-linecap:round; stroke-linejoin:round; stroke-width:4; stroke-opacity:1; fill:none" points="86.9921,1049.57 105.89,1049.57 "/>
<polyline clip-path="url(#clip090)" style="stroke:#000000; stroke-linecap:round; stroke-linejoin:round; stroke-width:4; stroke-opacity:1; fill:none" points="86.9921,764.944 105.89,764.944 "/>
<polyline clip-path="url(#clip090)" style="stroke:#000000; stroke-linecap:round; stroke-linejoin:round; stroke-width:4; stroke-opacity:1; fill:none" points="86.9921,480.319 105.89,480.319 "/>
<polyline clip-path="url(#clip090)" style="stroke:#000000; stroke-linecap:round; stroke-linejoin:round; stroke-width:4; stroke-opacity:1; fill:none" points="86.9921,195.694 105.89,195.694 "/>
<path clip-path="url(#clip090)" d="M10.8708 1371.57 Q10.8708 1375.18 14.4356 1377.01 Q17.9773 1378.81 25.1068 1378.81 Q32.2133 1378.81 35.7781 1377.01 Q39.3197 1375.18 39.3197 1371.57 Q39.3197 1367.93 35.7781 1366.13 Q32.2133 1364.3 25.1068 1364.3 Q17.9773 1364.3 14.4356 1366.13 Q10.8708 1367.93 10.8708 1371.57 M7.16713 1371.57 Q7.16713 1365.76 11.7736 1362.7 Q16.3569 1359.62 25.1068 1359.62 Q33.8337 1359.62 38.4401 1362.7 Q43.0234 1365.76 43.0234 1371.57 Q43.0234 1377.38 38.4401 1380.46 Q33.8337 1383.51 25.1068 1383.51 Q16.3569 1383.51 11.7736 1380.46 Q7.16713 1377.38 7.16713 1371.57 Z" fill="#000000" fill-rule="nonzero" fill-opacity="1" /><path clip-path="url(#clip090)" d="M36.4725 1351.41 L36.4725 1346.52 L42.3521 1346.52 L42.3521 1351.41 L36.4725 1351.41 Z" fill="#000000" fill-rule="nonzero" fill-opacity="1" /><path clip-path="url(#clip090)" d="M10.8708 1326.34 Q10.8708 1329.95 14.4356 1331.78 Q17.9773 1333.58 25.1068 1333.58 Q32.2133 1333.58 35.7781 1331.78 Q39.3197 1329.95 39.3197 1326.34 Q39.3197 1322.7 35.7781 1320.9 Q32.2133 1319.07 25.1068 1319.07 Q17.9773 1319.07 14.4356 1320.9 Q10.8708 1322.7 10.8708 1326.34 M7.16713 1326.34 Q7.16713 1320.53 11.7736 1317.47 Q16.3569 1314.39 25.1068 1314.39 Q33.8337 1314.39 38.4401 1317.47 Q43.0234 1320.53 43.0234 1326.34 Q43.0234 1332.15 38.4401 1335.22 Q33.8337 1338.28 25.1068 1338.28 Q16.3569 1338.28 11.7736 1335.22 Q7.16713 1332.15 7.16713 1326.34 Z" fill="#000000" fill-rule="nonzero" fill-opacity="1" /><path clip-path="url(#clip090)" d="M23.718 1292.01 Q24.4356 1288.65 26.7041 1286.78 Q28.9726 1284.88 32.3059 1284.88 Q37.4216 1284.88 40.2225 1288.4 Q43.0234 1291.91 43.0234 1298.4 Q43.0234 1300.57 42.5836 1302.89 Q42.1669 1305.18 41.3105 1307.63 L36.7966 1307.63 Q37.9309 1305.69 38.5096 1303.37 Q39.0883 1301.06 39.0883 1298.54 Q39.0883 1294.14 37.3522 1291.85 Q35.6161 1289.53 32.3059 1289.53 Q29.2503 1289.53 27.5374 1291.68 Q25.8013 1293.81 25.8013 1297.63 L25.8013 1301.66 L21.9587 1301.66 L21.9587 1297.45 Q21.9587 1294 20.593 1292.17 Q19.2041 1290.34 16.6115 1290.34 Q13.9495 1290.34 12.5375 1292.24 Q11.1023 1294.11 11.1023 1297.63 Q11.1023 1299.55 11.519 1301.75 Q11.9356 1303.95 12.8152 1306.59 L8.6486 1306.59 Q7.90787 1303.93 7.5375 1301.61 Q7.16713 1299.28 7.16713 1297.22 Q7.16713 1291.89 9.59767 1288.79 Q12.0051 1285.69 16.1254 1285.69 Q18.9958 1285.69 20.9865 1287.33 Q22.9541 1288.97 23.718 1292.01 Z" fill="#000000" fill-rule="nonzero" fill-opacity="1" /><path clip-path="url(#clip090)" d="M10.8708 1087.35 Q10.8708 1090.96 14.4356 1092.79 Q17.9773 1094.59 25.1068 1094.59 Q32.2133 1094.59 35.7781 1092.79 Q39.3197 1090.96 39.3197 1087.35 Q39.3197 1083.71 35.7781 1081.91 Q32.2133 1080.08 25.1068 1080.08 Q17.9773 1080.08 14.4356 1081.91 Q10.8708 1083.71 10.8708 1087.35 M7.16713 1087.35 Q7.16713 1081.54 11.7736 1078.48 Q16.3569 1075.4 25.1068 1075.4 Q33.8337 1075.4 38.4401 1078.48 Q43.0234 1081.54 43.0234 1087.35 Q43.0234 1093.16 38.4401 1096.24 Q33.8337 1099.29 25.1068 1099.29 Q16.3569 1099.29 11.7736 1096.24 Q7.16713 1093.16 7.16713 1087.35 Z" fill="#000000" fill-rule="nonzero" fill-opacity="1" /><path clip-path="url(#clip090)" d="M36.4725 1067.18 L36.4725 1062.3 L42.3521 1062.3 L42.3521 1067.18 L36.4725 1067.18 Z" fill="#000000" fill-rule="nonzero" fill-opacity="1" /><path clip-path="url(#clip090)" d="M10.8708 1042.12 Q10.8708 1045.73 14.4356 1047.56 Q17.9773 1049.36 25.1068 1049.36 Q32.2133 1049.36 35.7781 1047.56 Q39.3197 1045.73 39.3197 1042.12 Q39.3197 1038.48 35.7781 1036.68 Q32.2133 1034.85 25.1068 1034.85 Q17.9773 1034.85 14.4356 1036.68 Q10.8708 1038.48 10.8708 1042.12 M7.16713 1042.12 Q7.16713 1036.31 11.7736 1033.25 Q16.3569 1030.17 25.1068 1030.17 Q33.8337 1030.17 38.4401 1033.25 Q43.0234 1036.31 43.0234 1042.12 Q43.0234 1047.93 38.4401 1051 Q33.8337 1054.06 25.1068 1054.06 Q16.3569 1054.06 11.7736 1051 Q7.16713 1047.93 7.16713 1042.12 Z" fill="#000000" fill-rule="nonzero" fill-opacity="1" /><path clip-path="url(#clip090)" d="M23.2087 1011.38 Q23.2087 1014.52 25.3615 1016.38 Q27.5142 1018.2 31.2642 1018.2 Q34.9911 1018.2 37.167 1016.38 Q39.3197 1014.52 39.3197 1011.38 Q39.3197 1008.23 37.167 1006.4 Q34.9911 1004.55 31.2642 1004.55 Q27.5142 1004.55 25.3615 1006.4 Q23.2087 1008.23 23.2087 1011.38 M8.55601 1002.09 L12.8152 1002.09 Q11.9819 1003.85 11.5421 1005.66 Q11.1023 1007.44 11.1023 1009.2 Q11.1023 1013.83 14.2273 1016.28 Q17.3523 1018.71 23.6717 1019.06 Q21.6578 1017.69 20.593 1015.63 Q19.505 1013.57 19.505 1011.1 Q19.505 1005.89 22.6763 1002.88 Q25.8244 999.847 31.2642 999.847 Q36.5883 999.847 39.8058 1003 Q43.0234 1006.14 43.0234 1011.38 Q43.0234 1017.37 38.4401 1020.54 Q33.8337 1023.71 25.1068 1023.71 Q16.9124 1023.71 12.0514 1019.82 Q7.16713 1015.94 7.16713 1009.38 Q7.16713 1007.63 7.51435 1005.84 Q7.86157 1004.04 8.55601 1002.09 Z" fill="#000000" fill-rule="nonzero" fill-opacity="1" /><path clip-path="url(#clip090)" d="M10.8708 802.548 Q10.8708 806.159 14.4356 807.988 Q17.9773 809.793 25.1068 809.793 Q32.2133 809.793 35.7781 807.988 Q39.3197 806.159 39.3197 802.548 Q39.3197 798.914 35.7781 797.108 Q32.2133 795.28 25.1068 795.28 Q17.9773 795.28 14.4356 797.108 Q10.8708 798.914 10.8708 802.548 M7.16713 802.548 Q7.16713 796.738 11.7736 793.682 Q16.3569 790.604 25.1068 790.604 Q33.8337 790.604 38.4401 793.682 Q43.0234 796.738 43.0234 802.548 Q43.0234 808.358 38.4401 811.437 Q33.8337 814.492 25.1068 814.492 Q16.3569 814.492 11.7736 811.437 Q7.16713 808.358 7.16713 802.548 Z" fill="#000000" fill-rule="nonzero" fill-opacity="1" /><path clip-path="url(#clip090)" d="M36.4725 782.386 L36.4725 777.502 L42.3521 777.502 L42.3521 782.386 L36.4725 782.386 Z" fill="#000000" fill-rule="nonzero" fill-opacity="1" /><path clip-path="url(#clip090)" d="M10.8708 757.317 Q10.8708 760.928 14.4356 762.757 Q17.9773 764.562 25.1068 764.562 Q32.2133 764.562 35.7781 762.757 Q39.3197 760.928 39.3197 757.317 Q39.3197 753.683 35.7781 751.877 Q32.2133 750.048 25.1068 750.048 Q17.9773 750.048 14.4356 751.877 Q10.8708 753.683 10.8708 757.317 M7.16713 757.317 Q7.16713 751.507 11.7736 748.451 Q16.3569 745.372 25.1068 745.372 Q33.8337 745.372 38.4401 748.451 Q43.0234 751.507 43.0234 757.317 Q43.0234 763.127 38.4401 766.206 Q33.8337 769.261 25.1068 769.261 Q16.3569 769.261 11.7736 766.206 Q7.16713 763.127 7.16713 757.317 Z" fill="#000000" fill-rule="nonzero" fill-opacity="1" /><path clip-path="url(#clip090)" d="M41.6345 737.016 L37.3753 737.016 Q38.2086 735.257 38.6484 733.451 Q39.0883 731.646 39.0883 729.91 Q39.0883 725.28 35.9864 722.849 Q32.8614 720.396 26.5189 720.049 Q28.5096 721.391 29.5744 723.451 Q30.6392 725.511 30.6392 728.011 Q30.6392 733.197 27.5142 736.229 Q24.3661 739.238 18.9263 739.238 Q13.6023 739.238 10.3847 736.09 Q7.16713 732.942 7.16713 727.711 Q7.16713 721.715 11.7736 718.567 Q16.3569 715.396 25.1068 715.396 Q33.2781 715.396 38.1623 719.285 Q43.0234 723.15 43.0234 729.701 Q43.0234 731.461 42.6762 733.266 Q42.329 735.072 41.6345 737.016 M26.9818 727.711 Q26.9818 724.562 24.8291 722.734 Q22.6763 720.882 18.9263 720.882 Q15.1995 720.882 13.0467 722.734 Q10.8708 724.562 10.8708 727.711 Q10.8708 730.859 13.0467 732.711 Q15.1995 734.539 18.9263 734.539 Q22.6763 734.539 24.8291 732.711 Q26.9818 730.859 26.9818 727.711 Z" fill="#000000" fill-rule="nonzero" fill-opacity="1" /><path clip-path="url(#clip090)" d="M10.8708 517.217 Q10.8708 520.828 14.4356 522.657 Q17.9773 524.462 25.1068 524.462 Q32.2133 524.462 35.7781 522.657 Q39.3197 520.828 39.3197 517.217 Q39.3197 513.583 35.7781 511.777 Q32.2133 509.948 25.1068 509.948 Q17.9773 509.948 14.4356 511.777 Q10.8708 513.583 10.8708 517.217 M7.16713 517.217 Q7.16713 511.407 11.7736 508.351 Q16.3569 505.272 25.1068 505.272 Q33.8337 505.272 38.4401 508.351 Q43.0234 511.407 43.0234 517.217 Q43.0234 523.027 38.4401 526.106 Q33.8337 529.161 25.1068 529.161 Q16.3569 529.161 11.7736 526.106 Q7.16713 523.027 7.16713 517.217 Z" fill="#000000" fill-rule="nonzero" fill-opacity="1" /><path clip-path="url(#clip090)" d="M36.4725 497.055 L36.4725 492.171 L42.3521 492.171 L42.3521 497.055 L36.4725 497.055 Z" fill="#000000" fill-rule="nonzero" fill-opacity="1" /><path clip-path="url(#clip090)" d="M38.417 481.175 L38.417 473.537 L12.0514 473.537 L13.718 481.847 L9.45878 481.847 L7.79213 473.583 L7.79213 468.907 L38.417 468.907 L38.417 461.268 L42.3521 461.268 L42.3521 481.175 L38.417 481.175 Z" fill="#000000" fill-rule="nonzero" fill-opacity="1" /><path clip-path="url(#clip090)" d="M38.417 447.796 L38.417 431.477 L42.3521 431.477 L42.3521 453.421 L38.417 453.421 Q35.6623 450.759 31.0327 446.176 Q26.38 441.569 25.0374 440.389 Q22.5143 438.143 20.7782 437.264 Q19.0189 436.361 17.3291 436.361 Q14.5745 436.361 12.8384 438.305 Q11.1023 440.227 11.1023 443.328 Q11.1023 445.527 11.8662 447.981 Q12.6301 450.412 14.181 453.189 L9.45878 453.189 Q8.32453 450.365 7.74583 447.912 Q7.16713 445.458 7.16713 443.421 Q7.16713 438.051 9.8523 434.856 Q12.5375 431.662 17.0282 431.662 Q19.1578 431.662 21.0791 432.472 Q22.9772 433.259 25.5698 435.365 Q26.2411 435.944 29.4587 439.046 Q32.6531 442.148 38.417 447.796 Z" fill="#000000" fill-rule="nonzero" fill-opacity="1" /><path clip-path="url(#clip090)" d="M10.8708 232.893 Q10.8708 236.504 14.4356 238.332 Q17.9773 240.138 25.1068 240.138 Q32.2133 240.138 35.7781 238.332 Q39.3197 236.504 39.3197 232.893 Q39.3197 229.258 35.7781 227.453 Q32.2133 225.624 25.1068 225.624 Q17.9773 225.624 14.4356 227.453 Q10.8708 229.258 10.8708 232.893 M7.16713 232.893 Q7.16713 227.082 11.7736 224.027 Q16.3569 220.948 25.1068 220.948 Q33.8337 220.948 38.4401 224.027 Q43.0234 227.082 43.0234 232.893 Q43.0234 238.703 38.4401 241.781 Q33.8337 244.837 25.1068 244.837 Q16.3569 244.837 11.7736 241.781 Q7.16713 238.703 7.16713 232.893 Z" fill="#000000" fill-rule="nonzero" fill-opacity="1" /><path clip-path="url(#clip090)" d="M36.4725 212.731 L36.4725 207.846 L42.3521 207.846 L42.3521 212.731 L36.4725 212.731 Z" fill="#000000" fill-rule="nonzero" fill-opacity="1" /><path clip-path="url(#clip090)" d="M38.417 196.851 L38.417 189.212 L12.0514 189.212 L13.718 197.522 L9.45878 197.522 L7.79213 189.259 L7.79213 184.583 L38.417 184.583 L38.417 176.944 L42.3521 176.944 L42.3521 196.851 L38.417 196.851 Z" fill="#000000" fill-rule="nonzero" fill-opacity="1" /><path clip-path="url(#clip090)" d="M7.79213 167.453 L7.79213 149.097 L11.7273 149.097 L11.7273 163.171 L20.1995 163.171 Q19.8522 162.152 19.6902 161.134 Q19.505 160.115 19.505 159.097 Q19.505 153.31 22.6763 149.93 Q25.8476 146.55 31.2642 146.55 Q36.8429 146.55 39.9447 150.023 Q43.0234 153.495 43.0234 159.814 Q43.0234 161.99 42.6531 164.259 Q42.2827 166.504 41.5419 168.911 L36.8429 168.911 Q37.9771 166.828 38.5327 164.606 Q39.0883 162.384 39.0883 159.907 Q39.0883 155.902 36.9818 153.564 Q34.8753 151.226 31.2642 151.226 Q27.6531 151.226 25.5467 153.564 Q23.4402 155.902 23.4402 159.907 Q23.4402 161.782 23.8569 163.657 Q24.2735 165.509 25.1531 167.453 L7.79213 167.453 Z" fill="#000000" fill-rule="nonzero" fill-opacity="1" /><circle clip-path="url(#clip092)" cx="151.118" cy="1479.3" r="14.4" fill="#009af9" fill-rule="evenodd" fill-opacity="1" stroke="#000000" stroke-opacity="1" stroke-width="3.2"/>
<circle clip-path="url(#clip092)" cx="364.869" cy="1189.52" r="14.4" fill="#009af9" fill-rule="evenodd" fill-opacity="1" stroke="#000000" stroke-opacity="1" stroke-width="3.2"/>
<circle clip-path="url(#clip092)" cx="578.62" cy="813.884" r="14.4" fill="#009af9" fill-rule="evenodd" fill-opacity="1" stroke="#000000" stroke-opacity="1" stroke-width="3.2"/>
<circle clip-path="url(#clip092)" cx="792.371" cy="448.004" r="14.4" fill="#009af9" fill-rule="evenodd" fill-opacity="1" stroke="#000000" stroke-opacity="1" stroke-width="3.2"/>
<circle clip-path="url(#clip092)" cx="1006.12" cy="184.571" r="14.4" fill="#009af9" fill-rule="evenodd" fill-opacity="1" stroke="#000000" stroke-opacity="1" stroke-width="3.2"/>
<circle clip-path="url(#clip092)" cx="1219.87" cy="88.9544" r="14.4" fill="#009af9" fill-rule="evenodd" fill-opacity="1" stroke="#000000" stroke-opacity="1" stroke-width="3.2"/>
<circle clip-path="url(#clip092)" cx="1433.63" cy="184.571" r="14.4" fill="#009af9" fill-rule="evenodd" fill-opacity="1" stroke="#000000" stroke-opacity="1" stroke-width="3.2"/>
<circle clip-path="url(#clip092)" cx="1647.38" cy="448.004" r="14.4" fill="#009af9" fill-rule="evenodd" fill-opacity="1" stroke="#000000" stroke-opacity="1" stroke-width="3.2"/>
<circle clip-path="url(#clip092)" cx="1861.13" cy="813.884" r="14.4" fill="#009af9" fill-rule="evenodd" fill-opacity="1" stroke="#000000" stroke-opacity="1" stroke-width="3.2"/>
<circle clip-path="url(#clip092)" cx="2074.88" cy="1189.52" r="14.4" fill="#009af9" fill-rule="evenodd" fill-opacity="1" stroke="#000000" stroke-opacity="1" stroke-width="3.2"/>
<circle clip-path="url(#clip092)" cx="2288.63" cy="1479.3" r="14.4" fill="#009af9" fill-rule="evenodd" fill-opacity="1" stroke="#000000" stroke-opacity="1" stroke-width="3.2"/>
<path clip-path="url(#clip090)" d="M1963.9 200.05 L2277.23 200.05 L2277.23 96.3696 L1963.9 96.3696  Z" fill="#ffffff" fill-rule="evenodd" fill-opacity="1"/>
<polyline clip-path="url(#clip090)" style="stroke:#000000; stroke-linecap:round; stroke-linejoin:round; stroke-width:4; stroke-opacity:1; fill:none" points="1963.9,200.05 2277.23,200.05 2277.23,96.3696 1963.9,96.3696 1963.9,200.05 "/>
<circle clip-path="url(#clip090)" cx="2064.6" cy="148.21" r="20.48" fill="#009af9" fill-rule="evenodd" fill-opacity="1" stroke="#000000" stroke-opacity="1" stroke-width="4.55111"/>
<path clip-path="url(#clip090)" d="M2169.58 161.601 L2169.58 175.351 L2165.3 175.351 L2165.3 139.564 L2169.58 139.564 L2169.58 143.499 Q2170.92 141.184 2172.96 140.073 Q2175.02 138.939 2177.87 138.939 Q2182.59 138.939 2185.53 142.689 Q2188.49 146.439 2188.49 152.55 Q2188.49 158.661 2185.53 162.411 Q2182.59 166.161 2177.87 166.161 Q2175.02 166.161 2172.96 165.05 Q2170.92 163.915 2169.58 161.601 M2184.07 152.55 Q2184.07 147.851 2182.13 145.189 Q2180.2 142.504 2176.82 142.504 Q2173.44 142.504 2171.5 145.189 Q2169.58 147.851 2169.58 152.55 Q2169.58 157.249 2171.5 159.934 Q2173.44 162.596 2176.82 162.596 Q2180.2 162.596 2182.13 159.934 Q2184.07 157.249 2184.07 152.55 Z" fill="#000000" fill-rule="nonzero" fill-opacity="1" /><path clip-path="url(#clip090)" d="M2205.78 129.518 Q2202.68 134.842 2201.18 140.05 Q2199.67 145.258 2199.67 150.605 Q2199.67 155.953 2201.18 161.207 Q2202.7 166.439 2205.78 171.74 L2202.08 171.74 Q2198.61 166.3 2196.87 161.045 Q2195.16 155.791 2195.16 150.605 Q2195.16 145.443 2196.87 140.212 Q2198.58 134.98 2202.08 129.518 L2205.78 129.518 Z" fill="#000000" fill-rule="nonzero" fill-opacity="1" /><path clip-path="url(#clip090)" d="M2224.83 167.897 Q2223.03 172.527 2221.31 173.939 Q2219.6 175.351 2216.73 175.351 L2213.33 175.351 L2213.33 171.786 L2215.83 171.786 Q2217.59 171.786 2218.56 170.952 Q2219.53 170.119 2220.71 167.017 L2221.48 165.073 L2210.99 139.564 L2215.5 139.564 L2223.61 159.841 L2231.71 139.564 L2236.22 139.564 L2224.83 167.897 Z" fill="#000000" fill-rule="nonzero" fill-opacity="1" /><path clip-path="url(#clip090)" d="M2241.43 129.518 L2245.13 129.518 Q2248.61 134.98 2250.32 140.212 Q2252.06 145.443 2252.06 150.605 Q2252.06 155.791 2250.32 161.045 Q2248.61 166.3 2245.13 171.74 L2241.43 171.74 Q2244.51 166.439 2246.01 161.207 Q2247.54 155.953 2247.54 150.605 Q2247.54 145.258 2246.01 140.05 Q2244.51 134.842 2241.43 129.518 Z" fill="#000000" fill-rule="nonzero" fill-opacity="1" /></svg>
