<?xml version="1.0" encoding="utf-8"?>
<svg xmlns="http://www.w3.org/2000/svg" xmlns:xlink="http://www.w3.org/1999/xlink" width="600" height="400" viewBox="0 0 2400 1600">
<defs>
  <clipPath id="clip360">
    <rect x="0" y="0" width="2400" height="1600"/>
  </clipPath>
</defs>
<path clip-path="url(#clip360)" d="M0 1600 L2400 1600 L2400 0 L0 0  Z" fill="#ffffff" fill-rule="evenodd" fill-opacity="1"/>
<defs>
  <clipPath id="clip361">
    <rect x="480" y="0" width="1681" height="1600"/>
  </clipPath>
</defs>
<path clip-path="url(#clip360)" d="M86.9921 1521.01 L2352.76 1521.01 L2352.76 47.2441 L86.9921 47.2441  Z" fill="#ffffff" fill-rule="evenodd" fill-opacity="1"/>
<defs>
  <clipPath id="clip362">
    <rect x="86" y="47" width="2267" height="1475"/>
  </clipPath>
</defs>
<polyline clip-path="url(#clip362)" style="stroke:#000000; stroke-linecap:round; stroke-linejoin:round; stroke-width:2; stroke-opacity:0.1; fill:none" points="151.118,1521.01 151.118,47.2441 "/>
<polyline clip-path="url(#clip362)" style="stroke:#000000; stroke-linecap:round; stroke-linejoin:round; stroke-width:2; stroke-opacity:0.1; fill:none" points="685.496,1521.01 685.496,47.2441 "/>
<polyline clip-path="url(#clip362)" style="stroke:#000000; stroke-linecap:round; stroke-linejoin:round; stroke-width:2; stroke-opacity:0.1; fill:none" points="1219.87,1521.01 1219.87,47.2441 "/>
<polyline clip-path="url(#clip362)" style="stroke:#000000; stroke-linecap:round; stroke-linejoin:round; stroke-width:2; stroke-opacity:0.1; fill:none" points="1754.25,1521.01 1754.25,47.2441 "/>
<polyline clip-path="url(#clip362)" style="stroke:#000000; stroke-linecap:round; stroke-linejoin:round; stroke-width:2; stroke-opacity:0.1; fill:none" points="2288.63,1521.01 2288.63,47.2441 "/>
<polyline clip-path="url(#clip360)" style="stroke:#000000; stroke-linecap:round; stroke-linejoin:round; stroke-width:4; stroke-opacity:1; fill:none" points="86.9921,1521.01 2352.76,1521.01 "/>
<polyline clip-path="url(#clip360)" style="stroke:#000000; stroke-linecap:round; stroke-linejoin:round; stroke-width:4; stroke-opacity:1; fill:none" points="151.118,1521.01 151.118,1502.11 "/>
<polyline clip-path="url(#clip360)" style="stroke:#000000; stroke-linecap:round; stroke-linejoin:round; stroke-width:4; stroke-opacity:1; fill:none" points="685.496,1521.01 685.496,1502.11 "/>
<polyline clip-path="url(#clip360)" style="stroke:#000000; stroke-linecap:round; stroke-linejoin:round; stroke-width:4; stroke-opacity:1; fill:none" points="1219.87,1521.01 1219.87,1502.11 "/>
<polyline clip-path="url(#clip360)" style="stroke:#000000; stroke-linecap:round; stroke-linejoin:round; stroke-width:4; stroke-opacity:1; fill:none" points="1754.25,1521.01 1754.25,1502.11 "/>
<polyline clip-path="url(#clip360)" style="stroke:#000000; stroke-linecap:round; stroke-linejoin:round; stroke-width:4; stroke-opacity:1; fill:none" points="2288.63,1521.01 2288.63,1502.11 "/>
<path clip-path="url(#clip360)" d="M113.421 1551.93 Q109.81 1551.93 107.981 1555.49 Q106.176 1559.03 106.176 1566.16 Q106.176 1573.27 107.981 1576.83 Q109.81 1580.38 113.421 1580.38 Q117.055 1580.38 118.861 1576.83 Q120.689 1573.27 120.689 1566.16 Q120.689 1559.03 118.861 1555.49 Q117.055 1551.93 113.421 1551.93 M113.421 1548.22 Q119.231 1548.22 122.287 1552.83 Q125.365 1557.41 125.365 1566.16 Q125.365 1574.89 122.287 1579.5 Q119.231 1584.08 113.421 1584.08 Q107.611 1584.08 104.532 1579.5 Q101.477 1574.89 101.477 1566.16 Q101.477 1557.41 104.532 1552.83 Q107.611 1548.22 113.421 1548.22 Z" fill="#000000" fill-rule="nonzero" fill-opacity="1" /><path clip-path="url(#clip360)" d="M133.583 1577.53 L138.467 1577.53 L138.467 1583.41 L133.583 1583.41 L133.583 1577.53 Z" fill="#000000" fill-rule="nonzero" fill-opacity="1" /><path clip-path="url(#clip360)" d="M158.652 1551.93 Q155.041 1551.93 153.212 1555.49 Q151.407 1559.03 151.407 1566.16 Q151.407 1573.27 153.212 1576.83 Q155.041 1580.38 158.652 1580.38 Q162.286 1580.38 164.092 1576.83 Q165.921 1573.27 165.921 1566.16 Q165.921 1559.03 164.092 1555.49 Q162.286 1551.93 158.652 1551.93 M158.652 1548.22 Q164.462 1548.22 167.518 1552.83 Q170.597 1557.41 170.597 1566.16 Q170.597 1574.89 167.518 1579.5 Q164.462 1584.08 158.652 1584.08 Q152.842 1584.08 149.763 1579.5 Q146.708 1574.89 146.708 1566.16 Q146.708 1557.41 149.763 1552.83 Q152.842 1548.22 158.652 1548.22 Z" fill="#000000" fill-rule="nonzero" fill-opacity="1" /><path clip-path="url(#clip360)" d="M188.814 1551.93 Q185.203 1551.93 183.374 1555.49 Q181.569 1559.03 181.569 1566.16 Q181.569 1573.27 183.374 1576.83 Q185.203 1580.38 188.814 1580.38 Q192.448 1580.38 194.254 1576.83 Q196.083 1573.27 196.083 1566.16 Q196.083 1559.03 194.254 1555.49 Q192.448 1551.93 188.814 1551.93 M188.814 1548.22 Q194.624 1548.22 197.68 1552.83 Q200.758 1557.41 200.758 1566.16 Q200.758 1574.89 197.68 1579.5 Q194.624 1584.08 188.814 1584.08 Q183.004 1584.08 179.925 1579.5 Q176.87 1574.89 176.87 1566.16 Q176.87 1557.41 179.925 1552.83 Q183.004 1548.22 188.814 1548.22 Z" fill="#000000" fill-rule="nonzero" fill-opacity="1" /><path clip-path="url(#clip360)" d="M648.297 1551.93 Q644.686 1551.93 642.857 1555.49 Q641.052 1559.03 641.052 1566.16 Q641.052 1573.27 642.857 1576.83 Q644.686 1580.38 648.297 1580.38 Q651.931 1580.38 653.737 1576.83 Q655.565 1573.27 655.565 1566.16 Q655.565 1559.03 653.737 1555.49 Q651.931 1551.93 648.297 1551.93 M648.297 1548.22 Q654.107 1548.22 657.163 1552.83 Q660.241 1557.41 660.241 1566.16 Q660.241 1574.89 657.163 1579.5 Q654.107 1584.08 648.297 1584.08 Q642.487 1584.08 639.408 1579.5 Q636.353 1574.89 636.353 1566.16 Q636.353 1557.41 639.408 1552.83 Q642.487 1548.22 648.297 1548.22 Z" fill="#000000" fill-rule="nonzero" fill-opacity="1" /><path clip-path="url(#clip360)" d="M668.459 1577.53 L673.343 1577.53 L673.343 1583.41 L668.459 1583.41 L668.459 1577.53 Z" fill="#000000" fill-rule="nonzero" fill-opacity="1" /><path clip-path="url(#clip360)" d="M687.556 1579.47 L703.875 1579.47 L703.875 1583.41 L681.931 1583.41 L681.931 1579.47 Q684.593 1576.72 689.176 1572.09 Q693.783 1567.44 694.963 1566.09 Q697.209 1563.57 698.088 1561.83 Q698.991 1560.07 698.991 1558.38 Q698.991 1555.63 697.047 1553.89 Q695.125 1552.16 692.024 1552.16 Q689.824 1552.16 687.371 1552.92 Q684.94 1553.69 682.162 1555.24 L682.162 1550.51 Q684.987 1549.38 687.44 1548.8 Q689.894 1548.22 691.931 1548.22 Q697.301 1548.22 700.496 1550.91 Q703.69 1553.59 703.69 1558.08 Q703.69 1560.21 702.88 1562.13 Q702.093 1564.03 699.986 1566.63 Q699.408 1567.3 696.306 1570.51 Q693.204 1573.71 687.556 1579.47 Z" fill="#000000" fill-rule="nonzero" fill-opacity="1" /><path clip-path="url(#clip360)" d="M713.736 1548.85 L732.093 1548.85 L732.093 1552.78 L718.019 1552.78 L718.019 1561.26 Q719.037 1560.91 720.056 1560.75 Q721.074 1560.56 722.093 1560.56 Q727.88 1560.56 731.259 1563.73 Q734.639 1566.9 734.639 1572.32 Q734.639 1577.9 731.167 1581 Q727.695 1584.08 721.375 1584.08 Q719.199 1584.08 716.931 1583.71 Q714.685 1583.34 712.278 1582.6 L712.278 1577.9 Q714.361 1579.03 716.584 1579.59 Q718.806 1580.14 721.283 1580.14 Q725.287 1580.14 727.625 1578.04 Q729.963 1575.93 729.963 1572.32 Q729.963 1568.71 727.625 1566.6 Q725.287 1564.5 721.283 1564.5 Q719.408 1564.5 717.533 1564.91 Q715.681 1565.33 713.736 1566.21 L713.736 1548.85 Z" fill="#000000" fill-rule="nonzero" fill-opacity="1" /><path clip-path="url(#clip360)" d="M1182.18 1551.93 Q1178.57 1551.93 1176.74 1555.49 Q1174.93 1559.03 1174.93 1566.16 Q1174.93 1573.27 1176.74 1576.83 Q1178.57 1580.38 1182.18 1580.38 Q1185.81 1580.38 1187.62 1576.83 Q1189.45 1573.27 1189.45 1566.16 Q1189.45 1559.03 1187.62 1555.49 Q1185.81 1551.93 1182.18 1551.93 M1182.18 1548.22 Q1187.99 1548.22 1191.04 1552.83 Q1194.12 1557.41 1194.12 1566.16 Q1194.12 1574.89 1191.04 1579.5 Q1187.99 1584.08 1182.18 1584.08 Q1176.37 1584.08 1173.29 1579.5 Q1170.23 1574.89 1170.23 1566.16 Q1170.23 1557.41 1173.29 1552.83 Q1176.37 1548.22 1182.18 1548.22 Z" fill="#000000" fill-rule="nonzero" fill-opacity="1" /><path clip-path="url(#clip360)" d="M1202.34 1577.53 L1207.22 1577.53 L1207.22 1583.41 L1202.34 1583.41 L1202.34 1577.53 Z" fill="#000000" fill-rule="nonzero" fill-opacity="1" /><path clip-path="url(#clip360)" d="M1217.46 1548.85 L1235.81 1548.85 L1235.81 1552.78 L1221.74 1552.78 L1221.74 1561.26 Q1222.76 1560.91 1223.77 1560.75 Q1224.79 1560.56 1225.81 1560.56 Q1231.6 1560.56 1234.98 1563.73 Q1238.36 1566.9 1238.36 1572.32 Q1238.36 1577.9 1234.89 1581 Q1231.41 1584.08 1225.09 1584.08 Q1222.92 1584.08 1220.65 1583.71 Q1218.4 1583.34 1216 1582.6 L1216 1577.9 Q1218.08 1579.03 1220.3 1579.59 Q1222.52 1580.14 1225 1580.14 Q1229.01 1580.14 1231.34 1578.04 Q1233.68 1575.93 1233.68 1572.32 Q1233.68 1568.71 1231.34 1566.6 Q1229.01 1564.5 1225 1564.5 Q1223.13 1564.5 1221.25 1564.91 Q1219.4 1565.33 1217.46 1566.21 L1217.46 1548.85 Z" fill="#000000" fill-rule="nonzero" fill-opacity="1" /><path clip-path="url(#clip360)" d="M1257.57 1551.93 Q1253.96 1551.93 1252.13 1555.49 Q1250.33 1559.03 1250.33 1566.16 Q1250.33 1573.27 1252.13 1576.83 Q1253.96 1580.38 1257.57 1580.38 Q1261.2 1580.38 1263.01 1576.83 Q1264.84 1573.27 1264.84 1566.16 Q1264.84 1559.03 1263.01 1555.49 Q1261.2 1551.93 1257.57 1551.93 M1257.57 1548.22 Q1263.38 1548.22 1266.44 1552.83 Q1269.51 1557.41 1269.51 1566.16 Q1269.51 1574.89 1266.44 1579.5 Q1263.38 1584.08 1257.57 1584.08 Q1251.76 1584.08 1248.68 1579.5 Q1245.63 1574.89 1245.63 1566.16 Q1245.63 1557.41 1248.68 1552.83 Q1251.76 1548.22 1257.57 1548.22 Z" fill="#000000" fill-rule="nonzero" fill-opacity="1" /><path clip-path="url(#clip360)" d="M1717.05 1551.93 Q1713.44 1551.93 1711.61 1555.49 Q1709.81 1559.03 1709.81 1566.16 Q1709.81 1573.27 1711.61 1576.83 Q1713.44 1580.38 1717.05 1580.38 Q1720.69 1580.38 1722.49 1576.83 Q1724.32 1573.27 1724.32 1566.16 Q1724.32 1559.03 1722.49 1555.49 Q1720.69 1551.93 1717.05 1551.93 M1717.05 1548.22 Q1722.86 1548.22 1725.92 1552.83 Q1729 1557.41 1729 1566.16 Q1729 1574.89 1725.92 1579.5 Q1722.86 1584.08 1717.05 1584.08 Q1711.24 1584.08 1708.16 1579.5 Q1705.11 1574.89 1705.11 1566.16 Q1705.11 1557.41 1708.16 1552.83 Q1711.24 1548.22 1717.05 1548.22 Z" fill="#000000" fill-rule="nonzero" fill-opacity="1" /><path clip-path="url(#clip360)" d="M1737.22 1577.53 L1742.1 1577.53 L1742.1 1583.41 L1737.22 1583.41 L1737.22 1577.53 Z" fill="#000000" fill-rule="nonzero" fill-opacity="1" /><path clip-path="url(#clip360)" d="M1751.1 1548.85 L1773.33 1548.85 L1773.33 1550.84 L1760.78 1583.41 L1755.9 1583.41 L1767.7 1552.78 L1751.1 1552.78 L1751.1 1548.85 Z" fill="#000000" fill-rule="nonzero" fill-opacity="1" /><path clip-path="url(#clip360)" d="M1782.49 1548.85 L1800.85 1548.85 L1800.85 1552.78 L1786.78 1552.78 L1786.78 1561.26 Q1787.79 1560.91 1788.81 1560.75 Q1789.83 1560.56 1790.85 1560.56 Q1796.64 1560.56 1800.02 1563.73 Q1803.4 1566.9 1803.4 1572.32 Q1803.4 1577.9 1799.92 1581 Q1796.45 1584.08 1790.13 1584.08 Q1787.96 1584.08 1785.69 1583.71 Q1783.44 1583.34 1781.03 1582.6 L1781.03 1577.9 Q1783.12 1579.03 1785.34 1579.59 Q1787.56 1580.14 1790.04 1580.14 Q1794.04 1580.14 1796.38 1578.04 Q1798.72 1575.93 1798.72 1572.32 Q1798.72 1568.71 1796.38 1566.6 Q1794.04 1564.5 1790.04 1564.5 Q1788.16 1564.5 1786.29 1564.91 Q1784.44 1565.33 1782.49 1566.21 L1782.49 1548.85 Z" fill="#000000" fill-rule="nonzero" fill-opacity="1" /><path clip-path="url(#clip360)" d="M2240.7 1579.47 L2248.34 1579.47 L2248.34 1553.11 L2240.03 1554.77 L2240.03 1550.51 L2248.3 1548.85 L2252.97 1548.85 L2252.97 1579.47 L2260.61 1579.47 L2260.61 1583.41 L2240.7 1583.41 L2240.7 1579.47 Z" fill="#000000" fill-rule="nonzero" fill-opacity="1" /><path clip-path="url(#clip360)" d="M2270.05 1577.53 L2274.94 1577.53 L2274.94 1583.41 L2270.05 1583.41 L2270.05 1577.53 Z" fill="#000000" fill-rule="nonzero" fill-opacity="1" /><path clip-path="url(#clip360)" d="M2295.12 1551.93 Q2291.51 1551.93 2289.68 1555.49 Q2287.88 1559.03 2287.88 1566.16 Q2287.88 1573.27 2289.68 1576.83 Q2291.51 1580.38 2295.12 1580.38 Q2298.76 1580.38 2300.56 1576.83 Q2302.39 1573.27 2302.39 1566.16 Q2302.39 1559.03 2300.56 1555.49 Q2298.76 1551.93 2295.12 1551.93 M2295.12 1548.22 Q2300.93 1548.22 2303.99 1552.83 Q2307.07 1557.41 2307.07 1566.16 Q2307.07 1574.89 2303.99 1579.5 Q2300.93 1584.08 2295.12 1584.08 Q2289.31 1584.08 2286.23 1579.5 Q2283.18 1574.89 2283.18 1566.16 Q2283.18 1557.41 2286.23 1552.83 Q2289.31 1548.22 2295.12 1548.22 Z" fill="#000000" fill-rule="nonzero" fill-opacity="1" /><path clip-path="url(#clip360)" d="M2325.29 1551.93 Q2321.67 1551.93 2319.85 1555.49 Q2318.04 1559.03 2318.04 1566.16 Q2318.04 1573.27 2319.85 1576.83 Q2321.67 1580.38 2325.29 1580.38 Q2328.92 1580.38 2330.73 1576.83 Q2332.55 1573.27 2332.55 1566.16 Q2332.55 1559.03 2330.73 1555.49 Q2328.92 1551.93 2325.29 1551.93 M2325.29 1548.22 Q2331.1 1548.22 2334.15 1552.83 Q2337.23 1557.41 2337.23 1566.16 Q2337.23 1574.89 2334.15 1579.5 Q2331.1 1584.08 2325.29 1584.08 Q2319.48 1584.08 2316.4 1579.5 Q2313.34 1574.89 2313.34 1566.16 Q2313.34 1557.41 2316.4 1552.83 Q2319.48 1548.22 2325.29 1548.22 Z" fill="#000000" fill-rule="nonzero" fill-opacity="1" /><polyline clip-path="url(#clip362)" style="stroke:#000000; stroke-linecap:round; stroke-linejoin:round; stroke-width:2; stroke-opacity:0.1; fill:none" points="86.9921,1479.3 2352.76,1479.3 "/>
<polyline clip-path="url(#clip362)" style="stroke:#000000; stroke-linecap:round; stroke-linejoin:round; stroke-width:2; stroke-opacity:0.1; fill:none" points="86.9921,1078.47 2352.76,1078.47 "/>
<polyline clip-path="url(#clip362)" style="stroke:#000000; stroke-linecap:round; stroke-linejoin:round; stroke-width:2; stroke-opacity:0.1; fill:none" points="86.9921,677.646 2352.76,677.646 "/>
<polyline clip-path="url(#clip362)" style="stroke:#000000; stroke-linecap:round; stroke-linejoin:round; stroke-width:2; stroke-opacity:0.1; fill:none" points="86.9921,276.82 2352.76,276.82 "/>
<polyline clip-path="url(#clip360)" style="stroke:#000000; stroke-linecap:round; stroke-linejoin:round; stroke-width:4; stroke-opacity:1; fill:none" points="86.9921,1521.01 86.9921,47.2441 "/>
<polyline clip-path="url(#clip360)" style="stroke:#000000; stroke-linecap:round; stroke-linejoin:round; stroke-width:4; stroke-opacity:1; fill:none" points="86.9921,1479.3 105.89,1479.3 "/>
<polyline clip-path="url(#clip360)" style="stroke:#000000; stroke-linecap:round; stroke-linejoin:round; stroke-width:4; stroke-opacity:1; fill:none" points="86.9921,1078.47 105.89,1078.47 "/>
<polyline clip-path="url(#clip360)" style="stroke:#000000; stroke-linecap:round; stroke-linejoin:round; stroke-width:4; stroke-opacity:1; fill:none" points="86.9921,677.646 105.89,677.646 "/>
<polyline clip-path="url(#clip360)" style="stroke:#000000; stroke-linecap:round; stroke-linejoin:round; stroke-width:4; stroke-opacity:1; fill:none" points="86.9921,276.82 105.89,276.82 "/>
<path clip-path="url(#clip360)" d="M10.8708 1479.3 Q10.8708 1482.91 14.4356 1484.74 Q17.9773 1486.54 25.1068 1486.54 Q32.2133 1486.54 35.7781 1484.74 Q39.3197 1482.91 39.3197 1479.3 Q39.3197 1475.66 35.7781 1473.86 Q32.2133 1472.03 25.1068 1472.03 Q17.9773 1472.03 14.4356 1473.86 Q10.8708 1475.66 10.8708 1479.3 M7.16713 1479.3 Q7.16713 1473.49 11.7736 1470.43 Q16.3569 1467.35 25.1068 1467.35 Q33.8337 1467.35 38.4401 1470.43 Q43.0234 1473.49 43.0234 1479.3 Q43.0234 1485.11 38.4401 1488.19 Q33.8337 1491.24 25.1068 1491.24 Q16.3569 1491.24 11.7736 1488.19 Q7.16713 1485.11 7.16713 1479.3 Z" fill="#000000" fill-rule="nonzero" fill-opacity="1" /><path clip-path="url(#clip360)" d="M38.417 1088.09 L38.417 1080.45 L12.0514 1080.45 L13.718 1088.76 L9.45878 1088.76 L7.79213 1080.5 L7.79213 1075.82 L38.417 1075.82 L38.417 1068.18 L42.3521 1068.18 L42.3521 1088.09 L38.417 1088.09 Z" fill="#000000" fill-rule="nonzero" fill-opacity="1" /><path clip-path="url(#clip360)" d="M38.417 682.993 L38.417 666.674 L42.3521 666.674 L42.3521 688.618 L38.417 688.618 Q35.6623 685.956 31.0327 681.373 Q26.38 676.766 25.0374 675.586 Q22.5143 673.34 20.7782 672.461 Q19.0189 671.558 17.3291 671.558 Q14.5745 671.558 12.8384 673.502 Q11.1023 675.424 11.1023 678.525 Q11.1023 680.724 11.8662 683.178 Q12.6301 685.609 14.181 688.386 L9.45878 688.386 Q8.32453 685.562 7.74583 683.109 Q7.16713 680.655 7.16713 678.618 Q7.16713 673.248 9.8523 670.053 Q12.5375 666.859 17.0282 666.859 Q19.1578 666.859 21.0791 667.669 Q22.9772 668.456 25.5698 670.562 Q26.2411 671.141 29.4587 674.243 Q32.6531 677.345 38.417 682.993 Z" fill="#000000" fill-rule="nonzero" fill-opacity="1" /><path clip-path="url(#clip360)" d="M23.718 272.572 Q24.4356 269.216 26.7041 267.341 Q28.9726 265.443 32.3059 265.443 Q37.4216 265.443 40.2225 268.961 Q43.0234 272.48 43.0234 278.961 Q43.0234 281.137 42.5836 283.452 Q42.1669 285.743 41.3105 288.197 L36.7966 288.197 Q37.9309 286.253 38.5096 283.938 Q39.0883 281.623 39.0883 279.1 Q39.0883 274.702 37.3522 272.41 Q35.6161 270.095 32.3059 270.095 Q29.2503 270.095 27.5374 272.248 Q25.8013 274.378 25.8013 278.197 L25.8013 282.225 L21.9587 282.225 L21.9587 278.012 Q21.9587 274.563 20.593 272.734 Q19.2041 270.905 16.6115 270.905 Q13.9495 270.905 12.5375 272.804 Q11.1023 274.679 11.1023 278.197 Q11.1023 280.118 11.519 282.317 Q11.9356 284.517 12.8152 287.155 L8.6486 287.155 Q7.90787 284.493 7.5375 282.179 Q7.16713 279.841 7.16713 277.78 Q7.16713 272.456 9.59767 269.355 Q12.0051 266.253 16.1254 266.253 Q18.9958 266.253 20.9865 267.896 Q22.9541 269.54 23.718 272.572 Z" fill="#000000" fill-rule="nonzero" fill-opacity="1" /><polyline clip-path="url(#clip362)" style="stroke:#009af9; stroke-linecap:round; stroke-linejoin:round; stroke-width:4; stroke-opacity:1; fill:none" points="151.118,1479.3 154.597,1479.3 158.076,1479.28 161.555,1479.25 165.034,1479.19 181.119,1478.27 197.203,1475.66 213.288,1470.59 229.372,1462.38 237.415,1456.9 245.457,1450.44 253.499,1442.92 261.542,1434.3 269.584,1424.54 277.626,1413.61 285.669,1401.47 293.711,1388.1 303.377,1370.41 313.043,1350.91 322.709,1329.63 332.376,1306.57 342.042,1281.77 351.708,1255.28 361.374,1227.16 371.04,1197.47 387.386,1143.95 403.731,1086.65 420.076,1026.12 436.422,962.94 471.933,819.694 507.444,674.068 523.813,608.126 540.182,543.886 556.551,481.998 572.92,423.076 581.695,392.91 590.469,363.841 599.244,335.943 608.019,309.289 616.793,283.944 625.568,259.97 634.343,237.422 643.117,216.349 653.284,193.838 663.45,173.426 673.616,155.163 683.783,139.088 693.949,125.229 704.115,113.607 714.282,104.23 724.448,97.0973 733.483,92.6357 742.517,89.9274 751.552,88.9544 760.586,89.6939 769.621,92.118 778.656,96.1943 787.69,101.886 796.725,109.152 804.648,116.784 812.57,125.56 820.493,135.445 828.415,146.404 836.338,158.398 844.26,171.388 852.183,185.333 860.105,200.192 868.743,217.383 877.381,235.553 886.019,254.643 894.656,274.594 911.932,316.845 929.207,361.83 946.585,409.358 963.963,458.69 981.341,509.361 998.719,560.919 1037.15,675.985 1075.57,789.173 1093.86,841.338 1112.14,891.982 1130.42,940.841 1148.7,987.695 1167.71,1034.09 1186.72,1077.96 1205.72,1119.2 1224.73,1157.73 1240.73,1188.04 1256.74,1216.41 1272.74,1242.85 1288.74,1267.39 1308.27,1294.84 1327.81,1319.63 1347.34,1341.88 1366.88,1361.72 1384.77,1377.91 1402.67,1392.32 1420.57,1405.08 1438.46,1416.32 1454.99,1425.46 1471.52,1433.5 1488.05,1440.54 1504.57,1446.68 1538.06,1456.68 1571.54,1463.99 1609.07,1469.73 1646.6,1473.53 1680.6,1475.77 1714.61,1477.22 1792.48,1478.77 1864.58,1479.18 1935.66,1479.28 2004.67,1479.3 2075.42,1479.3 2152.93,1479.3 2265.53,1479.3 2288.63,1479.3 "/>
<polyline clip-path="url(#clip362)" style="stroke:#e26f46; stroke-linecap:round; stroke-linejoin:round; stroke-width:4; stroke-opacity:1; fill:none" points="151.118,1479.3 154.597,1479.3 158.076,1479.3 161.555,1479.29 165.034,1479.28 197.203,1478.77 229.372,1476.84 245.457,1475.08 261.542,1472.7 277.626,1469.61 293.711,1465.75 313.043,1460.04 332.376,1453.07 351.708,1444.79 371.04,1435.17 387.386,1425.97 403.731,1415.78 420.076,1404.62 436.422,1392.48 454.177,1378.2 471.933,1362.82 489.688,1346.37 507.444,1328.88 523.813,1311.88 540.182,1294.09 556.551,1275.55 572.92,1256.3 590.469,1234.95 608.019,1212.92 625.568,1190.28 643.117,1167.1 683.783,1111.77 724.448,1054.96 760.586,1004.08 796.725,953.57 828.415,910.155 860.105,868.058 877.381,845.829 894.656,824.2 911.932,803.24 929.207,783.017 946.585,763.483 963.963,744.824 981.341,727.1 998.719,710.368 1017.93,693.089 1037.15,677.156 1056.36,662.632 1075.57,649.573 1093.86,638.556 1112.14,628.95 1130.42,620.79 1148.7,614.105 1167.71,608.743 1186.72,605.02 1205.72,602.952 1224.73,602.545 1240.73,603.493 1256.74,605.616 1272.74,608.91 1288.74,613.366 1308.27,620.363 1327.81,629.046 1347.34,639.379 1366.88,651.321 1384.77,663.632 1402.67,677.211 1420.57,692.011 1438.46,707.984 1454.99,723.73 1471.52,740.383 1488.05,757.895 1504.57,776.215 1521.32,795.54 1538.06,815.581 1554.8,836.277 1571.54,857.566 1609.07,907.101 1646.6,958.528 1680.6,1006.11 1714.61,1053.99 1753.54,1108.41 1792.48,1161.54 1828.53,1208.83 1864.58,1253.6 1882.35,1274.57 1900.12,1294.7 1917.89,1313.95 1935.66,1332.26 1952.91,1349.08 1970.16,1364.92 1987.42,1379.74 2004.67,1393.51 2022.36,1406.52 2040.04,1418.38 2057.73,1429.1 2075.42,1438.66 2094.8,1447.83 2114.17,1455.67 2133.55,1462.2 2152.93,1467.5 2181.08,1473.18 2209.23,1476.73 2237.38,1478.58 2265.53,1479.23 2271.31,1479.27 2277.08,1479.29 2282.86,1479.3 2288.63,1479.3 "/>
<path clip-path="url(#clip360)" d="M1780.33 251.89 L2277.23 251.89 L2277.23 96.3696 L1780.33 96.3696  Z" fill="#ffffff" fill-rule="evenodd" fill-opacity="1"/>
<polyline clip-path="url(#clip360)" style="stroke:#000000; stroke-linecap:round; stroke-linejoin:round; stroke-width:4; stroke-opacity:1; fill:none" points="1780.33,251.89 2277.23,251.89 2277.23,96.3696 1780.33,96.3696 1780.33,251.89 "/>
<polyline clip-path="url(#clip360)" style="stroke:#009af9; stroke-linecap:round; stroke-linejoin:round; stroke-width:4; stroke-opacity:1; fill:none" points="1805.51,148.21 1956.56,148.21 "/>
<path clip-path="url(#clip360)" d="M1986.02 161.601 L1986.02 175.351 L1981.73 175.351 L1981.73 139.564 L1986.02 139.564 L1986.02 143.499 Q1987.36 141.184 1989.39 140.073 Q1991.45 138.939 1994.3 138.939 Q1999.02 138.939 2001.96 142.689 Q2004.93 146.439 2004.93 152.55 Q2004.93 158.661 2001.96 162.411 Q1999.02 166.161 1994.3 166.161 Q1991.45 166.161 1989.39 165.05 Q1987.36 163.915 1986.02 161.601 M2000.51 152.55 Q2000.51 147.851 1998.56 145.189 Q1996.64 142.504 1993.26 142.504 Q1989.88 142.504 1987.94 145.189 Q1986.02 147.851 1986.02 152.55 Q1986.02 157.249 1987.94 159.934 Q1989.88 162.596 1993.26 162.596 Q1996.64 162.596 1998.56 159.934 Q2000.51 157.249 2000.51 152.55 Z" fill="#000000" fill-rule="nonzero" fill-opacity="1" /><path clip-path="url(#clip360)" d="M2022.03 142.55 Q2018.61 142.55 2016.62 145.235 Q2014.63 147.897 2014.63 152.55 Q2014.63 157.203 2016.59 159.888 Q2018.58 162.55 2022.03 162.55 Q2025.44 162.55 2027.43 159.865 Q2029.42 157.179 2029.42 152.55 Q2029.42 147.943 2027.43 145.258 Q2025.44 142.55 2022.03 142.55 M2022.03 138.939 Q2027.59 138.939 2030.76 142.55 Q2033.93 146.161 2033.93 152.55 Q2033.93 158.916 2030.76 162.55 Q2027.59 166.161 2022.03 166.161 Q2016.45 166.161 2013.28 162.55 Q2010.14 158.916 2010.14 152.55 Q2010.14 146.161 2013.28 142.55 Q2016.45 138.939 2022.03 138.939 Z" fill="#000000" fill-rule="nonzero" fill-opacity="1" /><path clip-path="url(#clip360)" d="M2057.52 140.328 L2057.52 144.355 Q2055.71 143.429 2053.77 142.967 Q2051.82 142.504 2049.74 142.504 Q2046.57 142.504 2044.97 143.476 Q2043.4 144.448 2043.4 146.392 Q2043.4 147.874 2044.53 148.73 Q2045.67 149.564 2049.09 150.328 L2050.55 150.652 Q2055.09 151.624 2056.99 153.406 Q2058.91 155.166 2058.91 158.337 Q2058.91 161.948 2056.04 164.054 Q2053.19 166.161 2048.19 166.161 Q2046.11 166.161 2043.84 165.744 Q2041.59 165.351 2039.09 164.54 L2039.09 160.142 Q2041.45 161.369 2043.75 161.994 Q2046.04 162.596 2048.28 162.596 Q2051.29 162.596 2052.91 161.578 Q2054.53 160.536 2054.53 158.661 Q2054.53 156.925 2053.35 155.999 Q2052.2 155.073 2048.24 154.216 L2046.76 153.869 Q2042.8 153.036 2041.04 151.323 Q2039.28 149.587 2039.28 146.578 Q2039.28 142.92 2041.87 140.93 Q2044.46 138.939 2049.23 138.939 Q2051.59 138.939 2053.68 139.286 Q2055.76 139.633 2057.52 140.328 Z" fill="#000000" fill-rule="nonzero" fill-opacity="1" /><path clip-path="url(#clip360)" d="M2069.9 132.203 L2069.9 139.564 L2078.68 139.564 L2078.68 142.874 L2069.9 142.874 L2069.9 156.948 Q2069.9 160.119 2070.76 161.022 Q2071.64 161.925 2074.3 161.925 L2078.68 161.925 L2078.68 165.49 L2074.3 165.49 Q2069.37 165.49 2067.5 163.661 Q2065.62 161.809 2065.62 156.948 L2065.62 142.874 L2062.5 142.874 L2062.5 139.564 L2065.62 139.564 L2065.62 132.203 L2069.9 132.203 Z" fill="#000000" fill-rule="nonzero" fill-opacity="1" /><path clip-path="url(#clip360)" d="M2106.45 151.462 L2106.45 153.545 L2086.87 153.545 Q2087.15 157.943 2089.51 160.258 Q2091.89 162.55 2096.13 162.55 Q2098.58 162.55 2100.88 161.948 Q2103.19 161.346 2105.46 160.142 L2105.46 164.17 Q2103.17 165.142 2100.76 165.652 Q2098.35 166.161 2095.88 166.161 Q2089.67 166.161 2086.04 162.55 Q2082.43 158.939 2082.43 152.781 Q2082.43 146.416 2085.85 142.689 Q2089.3 138.939 2095.13 138.939 Q2100.37 138.939 2103.4 142.318 Q2106.45 145.675 2106.45 151.462 M2102.19 150.212 Q2102.15 146.717 2100.23 144.633 Q2098.33 142.55 2095.18 142.55 Q2091.62 142.55 2089.46 144.564 Q2087.33 146.578 2087.01 150.235 L2102.19 150.212 Z" fill="#000000" fill-rule="nonzero" fill-opacity="1" /><path clip-path="url(#clip360)" d="M2128.47 143.545 Q2127.75 143.129 2126.89 142.943 Q2126.06 142.735 2125.04 142.735 Q2121.43 142.735 2119.49 145.096 Q2117.57 147.434 2117.57 151.832 L2117.57 165.49 L2113.28 165.49 L2113.28 139.564 L2117.57 139.564 L2117.57 143.592 Q2118.91 141.23 2121.06 140.096 Q2123.21 138.939 2126.29 138.939 Q2126.73 138.939 2127.26 139.008 Q2127.8 139.055 2128.44 139.17 L2128.47 143.545 Z" fill="#000000" fill-rule="nonzero" fill-opacity="1" /><path clip-path="url(#clip360)" d="M2132.94 139.564 L2137.19 139.564 L2137.19 165.49 L2132.94 165.49 L2132.94 139.564 M2132.94 129.471 L2137.19 129.471 L2137.19 134.865 L2132.94 134.865 L2132.94 129.471 Z" fill="#000000" fill-rule="nonzero" fill-opacity="1" /><path clip-path="url(#clip360)" d="M2156.15 142.55 Q2152.73 142.55 2150.74 145.235 Q2148.75 147.897 2148.75 152.55 Q2148.75 157.203 2150.71 159.888 Q2152.7 162.55 2156.15 162.55 Q2159.56 162.55 2161.55 159.865 Q2163.54 157.179 2163.54 152.55 Q2163.54 147.943 2161.55 145.258 Q2159.56 142.55 2156.15 142.55 M2156.15 138.939 Q2161.71 138.939 2164.88 142.55 Q2168.05 146.161 2168.05 152.55 Q2168.05 158.916 2164.88 162.55 Q2161.71 166.161 2156.15 166.161 Q2150.57 166.161 2147.4 162.55 Q2144.25 158.916 2144.25 152.55 Q2144.25 146.161 2147.4 142.55 Q2150.57 138.939 2156.15 138.939 Z" fill="#000000" fill-rule="nonzero" fill-opacity="1" /><path clip-path="url(#clip360)" d="M2190.13 143.545 Q2189.42 143.129 2188.56 142.943 Q2187.73 142.735 2186.71 142.735 Q2183.1 142.735 2181.15 145.096 Q2179.23 147.434 2179.23 151.832 L2179.23 165.49 L2174.95 165.49 L2174.95 139.564 L2179.23 139.564 L2179.23 143.592 Q2180.57 141.23 2182.73 140.096 Q2184.88 138.939 2187.96 138.939 Q2188.4 138.939 2188.93 139.008 Q2189.46 139.055 2190.11 139.17 L2190.13 143.545 Z" fill="#000000" fill-rule="nonzero" fill-opacity="1" /><path clip-path="url(#clip360)" d="M2204.83 129.518 Q2201.73 134.842 2200.23 140.05 Q2198.72 145.258 2198.72 150.605 Q2198.72 155.953 2200.23 161.207 Q2201.75 166.439 2204.83 171.74 L2201.13 171.74 Q2197.66 166.3 2195.92 161.045 Q2194.21 155.791 2194.21 150.605 Q2194.21 145.443 2195.92 140.212 Q2197.63 134.98 2201.13 129.518 L2204.83 129.518 Z" fill="#000000" fill-rule="nonzero" fill-opacity="1" /><path clip-path="url(#clip360)" d="M2230.5 149.054 L2215.76 149.054 Q2216.11 155.976 2217.7 158.916 Q2219.69 162.527 2223.14 162.527 Q2226.62 162.527 2228.54 158.892 Q2230.23 155.698 2230.5 149.054 M2230.44 145.119 Q2229.79 138.545 2228.54 136.23 Q2226.55 132.573 2223.14 132.573 Q2219.6 132.573 2217.73 136.184 Q2216.25 139.101 2215.81 145.119 L2230.44 145.119 M2223.14 129.101 Q2228.7 129.101 2231.87 134.008 Q2235.04 138.892 2235.04 147.55 Q2235.04 156.184 2231.87 161.091 Q2228.7 166.022 2223.14 166.022 Q2217.56 166.022 2214.42 161.091 Q2211.25 156.184 2211.25 147.55 Q2211.25 138.892 2214.42 134.008 Q2217.56 129.101 2223.14 129.101 Z" fill="#000000" fill-rule="nonzero" fill-opacity="1" /><path clip-path="url(#clip360)" d="M2241.43 129.518 L2245.13 129.518 Q2248.61 134.98 2250.32 140.212 Q2252.06 145.443 2252.06 150.605 Q2252.06 155.791 2250.32 161.045 Q2248.61 166.3 2245.13 171.74 L2241.43 171.74 Q2244.51 166.439 2246.01 161.207 Q2247.54 155.953 2247.54 150.605 Q2247.54 145.258 2246.01 140.05 Q2244.51 134.842 2241.43 129.518 Z" fill="#000000" fill-rule="nonzero" fill-opacity="1" /><polyline clip-path="url(#clip360)" style="stroke:#e26f46; stroke-linecap:round; stroke-linejoin:round; stroke-width:4; stroke-opacity:1; fill:none" points="1805.51,200.05 1956.56,200.05 "/>
<path clip-path="url(#clip360)" d="M1986.02 213.441 L1986.02 227.191 L1981.73 227.191 L1981.73 191.404 L1986.02 191.404 L1986.02 195.339 Q1987.36 193.024 1989.39 191.913 Q1991.45 190.779 1994.3 190.779 Q1999.02 190.779 2001.96 194.529 Q2004.93 198.279 2004.93 204.39 Q2004.93 210.501 2001.96 214.251 Q1999.02 218.001 1994.3 218.001 Q1991.45 218.001 1989.39 216.89 Q1987.36 215.755 1986.02 213.441 M2000.51 204.39 Q2000.51 199.691 1998.56 197.029 Q1996.64 194.344 1993.26 194.344 Q1989.88 194.344 1987.94 197.029 Q1986.02 199.691 1986.02 204.39 Q1986.02 209.089 1987.94 211.774 Q1989.88 214.436 1993.26 214.436 Q1996.64 214.436 1998.56 211.774 Q2000.51 209.089 2000.51 204.39 Z" fill="#000000" fill-rule="nonzero" fill-opacity="1" /><path clip-path="url(#clip360)" d="M2027.01 195.385 Q2026.29 194.969 2025.44 194.783 Q2024.6 194.575 2023.58 194.575 Q2019.97 194.575 2018.03 196.936 Q2016.11 199.274 2016.11 203.672 L2016.11 217.33 L2011.83 217.33 L2011.83 191.404 L2016.11 191.404 L2016.11 195.432 Q2017.45 193.07 2019.6 191.936 Q2021.76 190.779 2024.83 190.779 Q2025.27 190.779 2025.81 190.848 Q2026.34 190.895 2026.99 191.01 L2027.01 195.385 Z" fill="#000000" fill-rule="nonzero" fill-opacity="1" /><path clip-path="url(#clip360)" d="M2031.48 191.404 L2035.74 191.404 L2035.74 217.33 L2031.48 217.33 L2031.48 191.404 M2031.48 181.311 L2035.74 181.311 L2035.74 186.705 L2031.48 186.705 L2031.48 181.311 Z" fill="#000000" fill-rule="nonzero" fill-opacity="1" /><path clip-path="url(#clip360)" d="M2054.7 194.39 Q2051.27 194.39 2049.28 197.075 Q2047.29 199.737 2047.29 204.39 Q2047.29 209.043 2049.26 211.728 Q2051.25 214.39 2054.7 214.39 Q2058.1 214.39 2060.09 211.705 Q2062.08 209.019 2062.08 204.39 Q2062.08 199.783 2060.09 197.098 Q2058.1 194.39 2054.7 194.39 M2054.7 190.779 Q2060.25 190.779 2063.42 194.39 Q2066.59 198.001 2066.59 204.39 Q2066.59 210.756 2063.42 214.39 Q2060.25 218.001 2054.7 218.001 Q2049.12 218.001 2045.95 214.39 Q2042.8 210.756 2042.8 204.39 Q2042.8 198.001 2045.95 194.39 Q2049.12 190.779 2054.7 190.779 Z" fill="#000000" fill-rule="nonzero" fill-opacity="1" /><path clip-path="url(#clip360)" d="M2088.68 195.385 Q2087.96 194.969 2087.1 194.783 Q2086.27 194.575 2085.25 194.575 Q2081.64 194.575 2079.7 196.936 Q2077.77 199.274 2077.77 203.672 L2077.77 217.33 L2073.49 217.33 L2073.49 191.404 L2077.77 191.404 L2077.77 195.432 Q2079.12 193.07 2081.27 191.936 Q2083.42 190.779 2086.5 190.779 Q2086.94 190.779 2087.47 190.848 Q2088.01 190.895 2088.65 191.01 L2088.68 195.385 Z" fill="#000000" fill-rule="nonzero" fill-opacity="1" /><path clip-path="url(#clip360)" d="M2103.38 181.358 Q2100.27 186.682 2098.77 191.89 Q2097.26 197.098 2097.26 202.445 Q2097.26 207.793 2098.77 213.047 Q2100.3 218.279 2103.38 223.58 L2099.67 223.58 Q2096.2 218.14 2094.46 212.885 Q2092.75 207.631 2092.75 202.445 Q2092.75 197.283 2094.46 192.052 Q2096.18 186.82 2099.67 181.358 L2103.38 181.358 Z" fill="#000000" fill-rule="nonzero" fill-opacity="1" /><path clip-path="url(#clip360)" d="M2129.05 200.894 L2114.3 200.894 Q2114.65 207.816 2116.25 210.756 Q2118.24 214.367 2121.69 214.367 Q2125.16 214.367 2127.08 210.732 Q2128.77 207.538 2129.05 200.894 M2128.98 196.959 Q2128.33 190.385 2127.08 188.07 Q2125.09 184.413 2121.69 184.413 Q2118.14 184.413 2116.27 188.024 Q2114.79 190.941 2114.35 196.959 L2128.98 196.959 M2121.69 180.941 Q2127.24 180.941 2130.41 185.848 Q2133.58 190.732 2133.58 199.39 Q2133.58 208.024 2130.41 212.931 Q2127.24 217.862 2121.69 217.862 Q2116.11 217.862 2112.96 212.931 Q2109.79 208.024 2109.79 199.39 Q2109.79 190.732 2112.96 185.848 Q2116.11 180.941 2121.69 180.941 Z" fill="#000000" fill-rule="nonzero" fill-opacity="1" /><path clip-path="url(#clip360)" d="M2139.97 181.358 L2143.68 181.358 Q2147.15 186.82 2148.86 192.052 Q2150.6 197.283 2150.6 202.445 Q2150.6 207.631 2148.86 212.885 Q2147.15 218.14 2143.68 223.58 L2139.97 223.58 Q2143.05 218.279 2144.56 213.047 Q2146.08 207.793 2146.08 202.445 Q2146.08 197.098 2144.56 191.89 Q2143.05 186.682 2139.97 181.358 Z" fill="#000000" fill-rule="nonzero" fill-opacity="1" /></svg>
