<?xml version="1.0" encoding="utf-8"?>
<svg xmlns="http://www.w3.org/2000/svg" xmlns:xlink="http://www.w3.org/1999/xlink" width="600" height="400" viewBox="0 0 2400 1600">
<defs>
  <clipPath id="clip100">
    <rect x="0" y="0" width="2400" height="1600"/>
  </clipPath>
</defs>
<path clip-path="url(#clip100)" d="M0 1600 L2400 1600 L2400 0 L0 0  Z" fill="#ffffff" fill-rule="evenodd" fill-opacity="1"/>
<defs>
  <clipPath id="clip101">
    <rect x="480" y="0" width="1681" height="1600"/>
  </clipPath>
</defs>
<path clip-path="url(#clip100)" d="M86.9921 1521.01 L2352.76 1521.01 L2352.76 47.2441 L86.9921 47.2441  Z" fill="#ffffff" fill-rule="evenodd" fill-opacity="1"/>
<defs>
  <clipPath id="clip102">
    <rect x="86" y="47" width="2267" height="1475"/>
  </clipPath>
</defs>
<polyline clip-path="url(#clip102)" style="stroke:#000000; stroke-linecap:round; stroke-linejoin:round; stroke-width:2; stroke-opacity:0.1; fill:none" points="151.118,1521.01 151.118,47.2441 "/>
<polyline clip-path="url(#clip102)" style="stroke:#000000; stroke-linecap:round; stroke-linejoin:round; stroke-width:2; stroke-opacity:0.1; fill:none" points="685.496,1521.01 685.496,47.2441 "/>
<polyline clip-path="url(#clip102)" style="stroke:#000000; stroke-linecap:round; stroke-linejoin:round; stroke-width:2; stroke-opacity:0.1; fill:none" points="1219.87,1521.01 1219.87,47.2441 "/>
<polyline clip-path="url(#clip102)" style="stroke:#000000; stroke-linecap:round; stroke-linejoin:round; stroke-width:2; stroke-opacity:0.1; fill:none" points="1754.25,1521.01 1754.25,47.2441 "/>
<polyline clip-path="url(#clip102)" style="stroke:#000000; stroke-linecap:round; stroke-linejoin:round; stroke-width:2; stroke-opacity:0.1; fill:none" points="2288.63,1521.01 2288.63,47.2441 "/>
<polyline clip-path="url(#clip100)" style="stroke:#000000; stroke-linecap:round; stroke-linejoin:round; stroke-width:4; stroke-opacity:1; fill:none" points="86.9921,1521.01 2352.76,1521.01 "/>
<polyline clip-path="url(#clip100)" style="stroke:#000000; stroke-linecap:round; stroke-linejoin:round; stroke-width:4; stroke-opacity:1; fill:none" points="151.118,1521.01 151.118,1502.11 "/>
<polyline clip-path="url(#clip100)" style="stroke:#000000; stroke-linecap:round; stroke-linejoin:round; stroke-width:4; stroke-opacity:1; fill:none" points="685.496,1521.01 685.496,1502.11 "/>
<polyline clip-path="url(#clip100)" style="stroke:#000000; stroke-linecap:round; stroke-linejoin:round; stroke-width:4; stroke-opacity:1; fill:none" points="1219.87,1521.01 1219.87,1502.11 "/>
<polyline clip-path="url(#clip100)" style="stroke:#000000; stroke-linecap:round; stroke-linejoin:round; stroke-width:4; stroke-opacity:1; fill:none" points="1754.25,1521.01 1754.25,1502.11 "/>
<polyline clip-path="url(#clip100)" style="stroke:#000000; stroke-linecap:round; stroke-linejoin:round; stroke-width:4; stroke-opacity:1; fill:none" points="2288.63,1521.01 2288.63,1502.11 "/>
<path clip-path="url(#clip100)" d="M113.421 1551.93 Q109.81 1551.93 107.981 1555.49 Q106.176 1559.03 106.176 1566.16 Q106.176 1573.27 107.981 1576.83 Q109.81 1580.38 113.421 1580.38 Q117.055 1580.38 118.861 1576.83 Q120.689 1573.27 120.689 1566.16 Q120.689 1559.03 118.861 1555.49 Q117.055 1551.93 113.421 1551.93 M113.421 1548.22 Q119.231 1548.22 122.287 1552.83 Q125.365 1557.41 125.365 1566.16 Q125.365 1574.89 122.287 1579.5 Q119.231 1584.08 113.421 1584.08 Q107.611 1584.08 104.532 1579.5 Q101.477 1574.89 101.477 1566.16 Q101.477 1557.41 104.532 1552.83 Q107.611 1548.22 113.421 1548.22 Z" fill="#000000" fill-rule="nonzero" fill-opacity="1" /><path clip-path="url(#clip100)" d="M133.583 1577.53 L138.467 1577.53 L138.467 1583.41 L133.583 1583.41 L133.583 1577.53 Z" fill="#000000" fill-rule="nonzero" fill-opacity="1" /><path clip-path="url(#clip100)" d="M158.652 1551.93 Q155.041 1551.93 153.212 1555.49 Q151.407 1559.03 151.407 1566.16 Q151.407 1573.27 153.212 1576.83 Q155.041 1580.38 158.652 1580.38 Q162.286 1580.38 164.092 1576.83 Q165.921 1573.27 165.921 1566.16 Q165.921 1559.03 164.092 1555.49 Q162.286 1551.93 158.652 1551.93 M158.652 1548.22 Q164.462 1548.22 167.518 1552.83 Q170.597 1557.41 170.597 1566.16 Q170.597 1574.89 167.518 1579.5 Q164.462 1584.08 158.652 1584.08 Q152.842 1584.08 149.763 1579.5 Q146.708 1574.89 146.708 1566.16 Q146.708 1557.41 149.763 1552.83 Q152.842 1548.22 158.652 1548.22 Z" fill="#000000" fill-rule="nonzero" fill-opacity="1" /><path clip-path="url(#clip100)" d="M188.814 1551.93 Q185.203 1551.93 183.374 1555.49 Q181.569 1559.03 181.569 1566.16 Q181.569 1573.27 183.374 1576.83 Q185.203 1580.38 188.814 1580.38 Q192.448 1580.38 194.254 1576.83 Q196.083 1573.27 196.083 1566.16 Q196.083 1559.03 194.254 1555.49 Q192.448 1551.93 188.814 1551.93 M188.814 1548.22 Q194.624 1548.22 197.68 1552.83 Q200.758 1557.41 200.758 1566.16 Q200.758 1574.89 197.68 1579.5 Q194.624 1584.08 188.814 1584.08 Q183.004 1584.08 179.925 1579.5 Q176.87 1574.89 176.87 1566.16 Q176.87 1557.41 179.925 1552.83 Q183.004 1548.22 188.814 1548.22 Z" fill="#000000" fill-rule="nonzero" fill-opacity="1" /><path clip-path="url(#clip100)" d="M648.297 1551.93 Q644.686 1551.93 642.857 1555.49 Q641.052 1559.03 641.052 1566.16 Q641.052 1573.27 642.857 1576.83 Q644.686 1580.38 648.297 1580.38 Q651.931 1580.38 653.737 1576.83 Q655.565 1573.27 655.565 1566.16 Q655.565 1559.03 653.737 1555.49 Q651.931 1551.93 648.297 1551.93 M648.297 1548.22 Q654.107 1548.22 657.163 1552.83 Q660.241 1557.41 660.241 1566.16 Q660.241 1574.89 657.163 1579.5 Q654.107 1584.08 648.297 1584.08 Q642.487 1584.08 639.408 1579.5 Q636.353 1574.89 636.353 1566.16 Q636.353 1557.41 639.408 1552.83 Q642.487 1548.22 648.297 1548.22 Z" fill="#000000" fill-rule="nonzero" fill-opacity="1" /><path clip-path="url(#clip100)" d="M668.459 1577.53 L673.343 1577.53 L673.343 1583.41 L668.459 1583.41 L668.459 1577.53 Z" fill="#000000" fill-rule="nonzero" fill-opacity="1" /><path clip-path="url(#clip100)" d="M687.556 1579.47 L703.875 1579.47 L703.875 1583.41 L681.931 1583.41 L681.931 1579.47 Q684.593 1576.72 689.176 1572.09 Q693.783 1567.44 694.963 1566.09 Q697.209 1563.57 698.088 1561.83 Q698.991 1560.07 698.991 1558.38 Q698.991 1555.63 697.047 1553.89 Q695.125 1552.16 692.024 1552.16 Q689.824 1552.16 687.371 1552.92 Q684.94 1553.69 682.162 1555.24 L682.162 1550.51 Q684.987 1549.38 687.44 1548.8 Q689.894 1548.22 691.931 1548.22 Q697.301 1548.22 700.496 1550.91 Q703.69 1553.59 703.69 1558.08 Q703.69 1560.21 702.88 1562.13 Q702.093 1564.03 699.986 1566.63 Q699.408 1567.3 696.306 1570.51 Q693.204 1573.71 687.556 1579.47 Z" fill="#000000" fill-rule="nonzero" fill-opacity="1" /><path clip-path="url(#clip100)" d="M713.736 1548.85 L732.093 1548.85 L732.093 1552.78 L718.019 1552.78 L718.019 1561.26 Q719.037 1560.91 720.056 1560.75 Q721.074 1560.56 722.093 1560.56 Q727.88 1560.56 731.259 1563.73 Q734.639 1566.9 734.639 1572.32 Q734.639 1577.9 731.167 1581 Q727.695 1584.08 721.375 1584.08 Q719.199 1584.08 716.931 1583.71 Q714.685 1583.34 712.278 1582.6 L712.278 1577.9 Q714.361 1579.03 716.584 1579.59 Q718.806 1580.14 721.283 1580.14 Q725.287 1580.14 727.625 1578.04 Q729.963 1575.93 729.963 1572.32 Q729.963 1568.71 727.625 1566.6 Q725.287 1564.5 721.283 1564.5 Q719.408 1564.5 717.533 1564.91 Q715.681 1565.33 713.736 1566.21 L713.736 1548.85 Z" fill="#000000" fill-rule="nonzero" fill-opacity="1" /><path clip-path="url(#clip100)" d="M1182.18 1551.93 Q1178.57 1551.93 1176.74 1555.49 Q1174.93 1559.03 1174.93 1566.16 Q1174.93 1573.27 1176.74 1576.83 Q1178.57 1580.38 1182.18 1580.38 Q1185.81 1580.38 1187.62 1576.83 Q1189.45 1573.27 1189.45 1566.16 Q1189.45 1559.03 1187.62 1555.49 Q1185.81 1551.93 1182.18 1551.93 M1182.18 1548.22 Q1187.99 1548.22 1191.04 1552.83 Q1194.12 1557.41 1194.12 1566.16 Q1194.12 1574.89 1191.04 1579.5 Q1187.99 1584.08 1182.18 1584.08 Q1176.37 1584.08 1173.29 1579.5 Q1170.23 1574.89 1170.23 1566.16 Q1170.23 1557.41 1173.29 1552.83 Q1176.37 1548.22 1182.18 1548.22 Z" fill="#000000" fill-rule="nonzero" fill-opacity="1" /><path clip-path="url(#clip100)" d="M1202.34 1577.53 L1207.22 1577.53 L1207.22 1583.41 L1202.34 1583.41 L1202.34 1577.53 Z" fill="#000000" fill-rule="nonzero" fill-opacity="1" /><path clip-path="url(#clip100)" d="M1217.46 1548.85 L1235.81 1548.85 L1235.81 1552.78 L1221.74 1552.78 L1221.74 1561.26 Q1222.76 1560.91 1223.77 1560.75 Q1224.79 1560.56 1225.81 1560.56 Q1231.6 1560.56 1234.98 1563.73 Q1238.36 1566.9 1238.36 1572.32 Q1238.36 1577.9 1234.89 1581 Q1231.41 1584.08 1225.09 1584.08 Q1222.92 1584.08 1220.65 1583.71 Q1218.4 1583.34 1216 1582.6 L1216 1577.9 Q1218.08 1579.03 1220.3 1579.59 Q1222.52 1580.14 1225 1580.14 Q1229.01 1580.14 1231.34 1578.04 Q1233.68 1575.93 1233.68 1572.32 Q1233.68 1568.71 1231.34 1566.6 Q1229.01 1564.5 1225 1564.5 Q1223.13 1564.5 1221.25 1564.91 Q1219.4 1565.33 1217.46 1566.21 L1217.46 1548.85 Z" fill="#000000" fill-rule="nonzero" fill-opacity="1" /><path clip-path="url(#clip100)" d="M1257.57 1551.93 Q1253.96 1551.93 1252.13 1555.49 Q1250.33 1559.03 1250.33 1566.16 Q1250.33 1573.27 1252.13 1576.83 Q1253.96 1580.38 1257.57 1580.38 Q1261.2 1580.38 1263.01 1576.83 Q1264.84 1573.27 1264.84 1566.16 Q1264.84 1559.03 1263.01 1555.49 Q1261.2 1551.93 1257.57 1551.93 M1257.57 1548.22 Q1263.38 1548.22 1266.44 1552.83 Q1269.51 1557.41 1269.51 1566.16 Q1269.51 1574.89 1266.44 1579.5 Q1263.38 1584.08 1257.57 1584.08 Q1251.76 1584.08 1248.68 1579.5 Q1245.63 1574.89 1245.63 1566.16 Q1245.63 1557.41 1248.68 1552.83 Q1251.76 1548.22 1257.57 1548.22 Z" fill="#000000" fill-rule="nonzero" fill-opacity="1" /><path clip-path="url(#clip100)" d="M1717.05 1551.93 Q1713.44 1551.93 1711.61 1555.49 Q1709.81 1559.03 1709.81 1566.16 Q1709.81 1573.27 1711.61 1576.83 Q1713.44 1580.38 1717.05 1580.38 Q1720.69 1580.38 1722.49 1576.83 Q1724.32 1573.27 1724.32 1566.16 Q1724.32 1559.03 1722.49 1555.49 Q1720.69 1551.93 1717.05 1551.93 M1717.05 1548.22 Q1722.86 1548.22 1725.92 1552.83 Q1729 1557.41 1729 1566.16 Q1729 1574.89 1725.92 1579.5 Q1722.86 1584.08 1717.05 1584.08 Q1711.24 1584.08 1708.16 1579.5 Q1705.11 1574.89 1705.11 1566.16 Q1705.11 1557.41 1708.16 1552.83 Q1711.24 1548.22 1717.05 1548.22 Z" fill="#000000" fill-rule="nonzero" fill-opacity="1" /><path clip-path="url(#clip100)" d="M1737.22 1577.53 L1742.1 1577.53 L1742.1 1583.41 L1737.22 1583.41 L1737.22 1577.53 Z" fill="#000000" fill-rule="nonzero" fill-opacity="1" /><path clip-path="url(#clip100)" d="M1751.1 1548.85 L1773.33 1548.85 L1773.33 1550.84 L1760.78 1583.41 L1755.9 1583.41 L1767.7 1552.78 L1751.1 1552.78 L1751.1 1548.85 Z" fill="#000000" fill-rule="nonzero" fill-opacity="1" /><path clip-path="url(#clip100)" d="M1782.49 1548.85 L1800.85 1548.85 L1800.85 1552.78 L1786.78 1552.78 L1786.78 1561.26 Q1787.79 1560.91 1788.81 1560.75 Q1789.83 1560.56 1790.85 1560.56 Q1796.64 1560.56 1800.02 1563.73 Q1803.4 1566.9 1803.4 1572.32 Q1803.4 1577.9 1799.92 1581 Q1796.45 1584.08 1790.13 1584.08 Q1787.96 1584.08 1785.69 1583.71 Q1783.44 1583.34 1781.03 1582.6 L1781.03 1577.9 Q1783.12 1579.03 1785.34 1579.59 Q1787.56 1580.14 1790.04 1580.14 Q1794.04 1580.14 1796.38 1578.04 Q1798.72 1575.93 1798.72 1572.32 Q1798.72 1568.71 1796.38 1566.6 Q1794.04 1564.5 1790.04 1564.5 Q1788.16 1564.5 1786.29 1564.91 Q1784.44 1565.33 1782.49 1566.21 L1782.49 1548.85 Z" fill="#000000" fill-rule="nonzero" fill-opacity="1" /><path clip-path="url(#clip100)" d="M2240.7 1579.47 L2248.34 1579.47 L2248.34 1553.11 L2240.03 1554.77 L2240.03 1550.51 L2248.3 1548.85 L2252.97 1548.85 L2252.97 1579.47 L2260.61 1579.47 L2260.61 1583.41 L2240.7 1583.41 L2240.7 1579.47 Z" fill="#000000" fill-rule="nonzero" fill-opacity="1" /><path clip-path="url(#clip100)" d="M2270.05 1577.53 L2274.94 1577.53 L2274.94 1583.41 L2270.05 1583.41 L2270.05 1577.53 Z" fill="#000000" fill-rule="nonzero" fill-opacity="1" /><path clip-path="url(#clip100)" d="M2295.12 1551.93 Q2291.51 1551.93 2289.68 1555.49 Q2287.88 1559.03 2287.88 1566.16 Q2287.88 1573.27 2289.68 1576.83 Q2291.51 1580.38 2295.12 1580.38 Q2298.76 1580.38 2300.56 1576.83 Q2302.39 1573.27 2302.39 1566.16 Q2302.39 1559.03 2300.56 1555.49 Q2298.76 1551.93 2295.12 1551.93 M2295.12 1548.22 Q2300.93 1548.22 2303.99 1552.83 Q2307.07 1557.41 2307.07 1566.16 Q2307.07 1574.89 2303.99 1579.5 Q2300.93 1584.08 2295.12 1584.08 Q2289.31 1584.08 2286.23 1579.5 Q2283.18 1574.89 2283.18 1566.16 Q2283.18 1557.41 2286.23 1552.83 Q2289.31 1548.22 2295.12 1548.22 Z" fill="#000000" fill-rule="nonzero" fill-opacity="1" /><path clip-path="url(#clip100)" d="M2325.29 1551.93 Q2321.67 1551.93 2319.85 1555.49 Q2318.04 1559.03 2318.04 1566.16 Q2318.04 1573.27 2319.85 1576.83 Q2321.67 1580.38 2325.29 1580.38 Q2328.92 1580.38 2330.73 1576.83 Q2332.55 1573.27 2332.55 1566.16 Q2332.55 1559.03 2330.73 1555.49 Q2328.92 1551.93 2325.29 1551.93 M2325.29 1548.22 Q2331.1 1548.22 2334.15 1552.83 Q2337.23 1557.41 2337.23 1566.16 Q2337.23 1574.89 2334.15 1579.5 Q2331.1 1584.08 2325.29 1584.08 Q2319.48 1584.08 2316.4 1579.5 Q2313.34 1574.89 2313.34 1566.16 Q2313.34 1557.41 2316.4 1552.83 Q2319.48 1548.22 2325.29 1548.22 Z" fill="#000000" fill-rule="nonzero" fill-opacity="1" /><polyline clip-path="url(#clip102)" style="stroke:#000000; stroke-linecap:round; stroke-linejoin:round; stroke-width:2; stroke-opacity:0.1; fill:none" points="86.9921,1479.3 2352.76,1479.3 "/>
<polyline clip-path="url(#clip102)" style="stroke:#000000; stroke-linecap:round; stroke-linejoin:round; stroke-width:2; stroke-opacity:0.1; fill:none" points="86.9921,1196.79 2352.76,1196.79 "/>
<polyline clip-path="url(#clip102)" style="stroke:#000000; stroke-linecap:round; stroke-linejoin:round; stroke-width:2; stroke-opacity:0.1; fill:none" points="86.9921,914.286 2352.76,914.286 "/>
<polyline clip-path="url(#clip102)" style="stroke:#000000; stroke-linecap:round; stroke-linejoin:round; stroke-width:2; stroke-opacity:0.1; fill:none" points="86.9921,631.78 2352.76,631.78 "/>
<polyline clip-path="url(#clip102)" style="stroke:#000000; stroke-linecap:round; stroke-linejoin:round; stroke-width:2; stroke-opacity:0.1; fill:none" points="86.9921,349.274 2352.76,349.274 "/>
<polyline clip-path="url(#clip102)" style="stroke:#000000; stroke-linecap:round; stroke-linejoin:round; stroke-width:2; stroke-opacity:0.1; fill:none" points="86.9921,66.7687 2352.76,66.7687 "/>
<polyline clip-path="url(#clip100)" style="stroke:#000000; stroke-linecap:round; stroke-linejoin:round; stroke-width:4; stroke-opacity:1; fill:none" points="86.9921,1521.01 86.9921,47.2441 "/>
<polyline clip-path="url(#clip100)" style="stroke:#000000; stroke-linecap:round; stroke-linejoin:round; stroke-width:4; stroke-opacity:1; fill:none" points="86.9921,1479.3 105.89,1479.3 "/>
<polyline clip-path="url(#clip100)" style="stroke:#000000; stroke-linecap:round; stroke-linejoin:round; stroke-width:4; stroke-opacity:1; fill:none" points="86.9921,1196.79 105.89,1196.79 "/>
<polyline clip-path="url(#clip100)" style="stroke:#000000; stroke-linecap:round; stroke-linejoin:round; stroke-width:4; stroke-opacity:1; fill:none" points="86.9921,914.286 105.89,914.286 "/>
<polyline clip-path="url(#clip100)" style="stroke:#000000; stroke-linecap:round; stroke-linejoin:round; stroke-width:4; stroke-opacity:1; fill:none" points="86.9921,631.78 105.89,631.78 "/>
<polyline clip-path="url(#clip100)" style="stroke:#000000; stroke-linecap:round; stroke-linejoin:round; stroke-width:4; stroke-opacity:1; fill:none" points="86.9921,349.274 105.89,349.274 "/>
<polyline clip-path="url(#clip100)" style="stroke:#000000; stroke-linecap:round; stroke-linejoin:round; stroke-width:4; stroke-opacity:1; fill:none" points="86.9921,66.7687 105.89,66.7687 "/>
<path clip-path="url(#clip100)" d="M10.8708 1501.91 Q10.8708 1505.52 14.4356 1507.35 Q17.9773 1509.16 25.1068 1509.16 Q32.2133 1509.16 35.7781 1507.35 Q39.3197 1505.52 39.3197 1501.91 Q39.3197 1498.28 35.7781 1496.47 Q32.2133 1494.64 25.1068 1494.64 Q17.9773 1494.64 14.4356 1496.47 Q10.8708 1498.28 10.8708 1501.91 M7.16713 1501.91 Q7.16713 1496.1 11.7736 1493.05 Q16.3569 1489.97 25.1068 1489.97 Q33.8337 1489.97 38.4401 1493.05 Q43.0234 1496.1 43.0234 1501.91 Q43.0234 1507.72 38.4401 1510.8 Q33.8337 1513.86 25.1068 1513.86 Q16.3569 1513.86 11.7736 1510.8 Q7.16713 1507.72 7.16713 1501.91 Z" fill="#000000" fill-rule="nonzero" fill-opacity="1" /><path clip-path="url(#clip100)" d="M36.4725 1481.75 L36.4725 1476.87 L42.3521 1476.87 L42.3521 1481.75 L36.4725 1481.75 Z" fill="#000000" fill-rule="nonzero" fill-opacity="1" /><path clip-path="url(#clip100)" d="M10.8708 1456.68 Q10.8708 1460.29 14.4356 1462.12 Q17.9773 1463.93 25.1068 1463.93 Q32.2133 1463.93 35.7781 1462.12 Q39.3197 1460.29 39.3197 1456.68 Q39.3197 1453.05 35.7781 1451.24 Q32.2133 1449.41 25.1068 1449.41 Q17.9773 1449.41 14.4356 1451.24 Q10.8708 1453.05 10.8708 1456.68 M7.16713 1456.68 Q7.16713 1450.87 11.7736 1447.82 Q16.3569 1444.74 25.1068 1444.74 Q33.8337 1444.74 38.4401 1447.82 Q43.0234 1450.87 43.0234 1456.68 Q43.0234 1462.49 38.4401 1465.57 Q33.8337 1468.63 25.1068 1468.63 Q16.3569 1468.63 11.7736 1465.57 Q7.16713 1462.49 7.16713 1456.68 Z" fill="#000000" fill-rule="nonzero" fill-opacity="1" /><path clip-path="url(#clip100)" d="M10.8708 1218.91 Q10.8708 1222.52 14.4356 1224.35 Q17.9773 1226.16 25.1068 1226.16 Q32.2133 1226.16 35.7781 1224.35 Q39.3197 1222.52 39.3197 1218.91 Q39.3197 1215.28 35.7781 1213.47 Q32.2133 1211.64 25.1068 1211.64 Q17.9773 1211.64 14.4356 1213.47 Q10.8708 1215.28 10.8708 1218.91 M7.16713 1218.91 Q7.16713 1213.1 11.7736 1210.04 Q16.3569 1206.97 25.1068 1206.97 Q33.8337 1206.97 38.4401 1210.04 Q43.0234 1213.1 43.0234 1218.91 Q43.0234 1224.72 38.4401 1227.8 Q33.8337 1230.85 25.1068 1230.85 Q16.3569 1230.85 11.7736 1227.8 Q7.16713 1224.72 7.16713 1218.91 Z" fill="#000000" fill-rule="nonzero" fill-opacity="1" /><path clip-path="url(#clip100)" d="M36.4725 1198.75 L36.4725 1193.86 L42.3521 1193.86 L42.3521 1198.75 L36.4725 1198.75 Z" fill="#000000" fill-rule="nonzero" fill-opacity="1" /><path clip-path="url(#clip100)" d="M7.79213 1183.63 L7.79213 1165.28 L11.7273 1165.28 L11.7273 1179.35 L20.1995 1179.35 Q19.8522 1178.33 19.6902 1177.31 Q19.505 1176.29 19.505 1175.28 Q19.505 1169.49 22.6763 1166.11 Q25.8476 1162.73 31.2642 1162.73 Q36.8429 1162.73 39.9447 1166.2 Q43.0234 1169.67 43.0234 1175.99 Q43.0234 1178.17 42.6531 1180.44 Q42.2827 1182.68 41.5419 1185.09 L36.8429 1185.09 Q37.9771 1183.01 38.5327 1180.78 Q39.0883 1178.56 39.0883 1176.09 Q39.0883 1172.08 36.9818 1169.74 Q34.8753 1167.41 31.2642 1167.41 Q27.6531 1167.41 25.5467 1169.74 Q23.4402 1172.08 23.4402 1176.09 Q23.4402 1177.96 23.8569 1179.84 Q24.2735 1181.69 25.1531 1183.63 L7.79213 1183.63 Z" fill="#000000" fill-rule="nonzero" fill-opacity="1" /><path clip-path="url(#clip100)" d="M38.417 947.133 L38.417 939.494 L12.0514 939.494 L13.718 947.804 L9.45878 947.804 L7.79213 939.541 L7.79213 934.865 L38.417 934.865 L38.417 927.226 L42.3521 927.226 L42.3521 947.133 L38.417 947.133 Z" fill="#000000" fill-rule="nonzero" fill-opacity="1" /><path clip-path="url(#clip100)" d="M36.4725 917.781 L36.4725 912.897 L42.3521 912.897 L42.3521 917.781 L36.4725 917.781 Z" fill="#000000" fill-rule="nonzero" fill-opacity="1" /><path clip-path="url(#clip100)" d="M10.8708 892.712 Q10.8708 896.323 14.4356 898.152 Q17.9773 899.957 25.1068 899.957 Q32.2133 899.957 35.7781 898.152 Q39.3197 896.323 39.3197 892.712 Q39.3197 889.078 35.7781 887.272 Q32.2133 885.444 25.1068 885.444 Q17.9773 885.444 14.4356 887.272 Q10.8708 889.078 10.8708 892.712 M7.16713 892.712 Q7.16713 886.902 11.7736 883.846 Q16.3569 880.768 25.1068 880.768 Q33.8337 880.768 38.4401 883.846 Q43.0234 886.902 43.0234 892.712 Q43.0234 898.522 38.4401 901.601 Q33.8337 904.656 25.1068 904.656 Q16.3569 904.656 11.7736 901.601 Q7.16713 898.522 7.16713 892.712 Z" fill="#000000" fill-rule="nonzero" fill-opacity="1" /><path clip-path="url(#clip100)" d="M38.417 664.13 L38.417 656.491 L12.0514 656.491 L13.718 664.801 L9.45878 664.801 L7.79213 656.537 L7.79213 651.861 L38.417 651.861 L38.417 644.222 L42.3521 644.222 L42.3521 664.13 L38.417 664.13 Z" fill="#000000" fill-rule="nonzero" fill-opacity="1" /><path clip-path="url(#clip100)" d="M36.4725 634.778 L36.4725 629.894 L42.3521 629.894 L42.3521 634.778 L36.4725 634.778 Z" fill="#000000" fill-rule="nonzero" fill-opacity="1" /><path clip-path="url(#clip100)" d="M7.79213 619.662 L7.79213 601.306 L11.7273 601.306 L11.7273 615.38 L20.1995 615.38 Q19.8522 614.361 19.6902 613.343 Q19.505 612.324 19.505 611.306 Q19.505 605.519 22.6763 602.139 Q25.8476 598.76 31.2642 598.76 Q36.8429 598.76 39.9447 602.232 Q43.0234 605.704 43.0234 612.023 Q43.0234 614.199 42.6531 616.468 Q42.2827 618.713 41.5419 621.121 L36.8429 621.121 Q37.9771 619.037 38.5327 616.815 Q39.0883 614.593 39.0883 612.116 Q39.0883 608.111 36.9818 605.773 Q34.8753 603.435 31.2642 603.435 Q27.6531 603.435 25.5467 605.773 Q23.4402 608.111 23.4402 612.116 Q23.4402 613.991 23.8569 615.866 Q24.2735 617.718 25.1531 619.662 L7.79213 619.662 Z" fill="#000000" fill-rule="nonzero" fill-opacity="1" /><path clip-path="url(#clip100)" d="M38.417 378.036 L38.417 361.717 L42.3521 361.717 L42.3521 383.661 L38.417 383.661 Q35.6623 380.999 31.0327 376.416 Q26.38 371.809 25.0374 370.628 Q22.5143 368.383 20.7782 367.504 Q19.0189 366.601 17.3291 366.601 Q14.5745 366.601 12.8384 368.545 Q11.1023 370.466 11.1023 373.568 Q11.1023 375.767 11.8662 378.221 Q12.6301 380.652 14.181 383.429 L9.45878 383.429 Q8.32453 380.605 7.74583 378.152 Q7.16713 375.698 7.16713 373.661 Q7.16713 368.291 9.8523 365.096 Q12.5375 361.902 17.0282 361.902 Q19.1578 361.902 21.0791 362.712 Q22.9772 363.499 25.5698 365.605 Q26.2411 366.184 29.4587 369.286 Q32.6531 372.388 38.417 378.036 Z" fill="#000000" fill-rule="nonzero" fill-opacity="1" /><path clip-path="url(#clip100)" d="M36.4725 351.902 L36.4725 347.018 L42.3521 347.018 L42.3521 351.902 L36.4725 351.902 Z" fill="#000000" fill-rule="nonzero" fill-opacity="1" /><path clip-path="url(#clip100)" d="M10.8708 326.832 Q10.8708 330.444 14.4356 332.272 Q17.9773 334.078 25.1068 334.078 Q32.2133 334.078 35.7781 332.272 Q39.3197 330.444 39.3197 326.832 Q39.3197 323.198 35.7781 321.393 Q32.2133 319.564 25.1068 319.564 Q17.9773 319.564 14.4356 321.393 Q10.8708 323.198 10.8708 326.832 M7.16713 326.832 Q7.16713 321.022 11.7736 317.967 Q16.3569 314.888 25.1068 314.888 Q33.8337 314.888 38.4401 317.967 Q43.0234 321.022 43.0234 326.832 Q43.0234 332.643 38.4401 335.721 Q33.8337 338.777 25.1068 338.777 Q16.3569 338.777 11.7736 335.721 Q7.16713 332.643 7.16713 326.832 Z" fill="#000000" fill-rule="nonzero" fill-opacity="1" /><path clip-path="url(#clip100)" d="M38.417 95.0324 L38.417 78.713 L42.3521 78.713 L42.3521 100.657 L38.417 100.657 Q35.6623 97.9953 31.0327 93.412 Q26.38 88.8056 25.0374 87.625 Q22.5143 85.3797 20.7782 84.5 Q19.0189 83.5973 17.3291 83.5973 Q14.5745 83.5973 12.8384 85.5417 Q11.1023 87.463 11.1023 90.5648 Q11.1023 92.7639 11.8662 95.2176 Q12.6301 97.6481 14.181 100.426 L9.45878 100.426 Q8.32453 97.6018 7.74583 95.1481 Q7.16713 92.6944 7.16713 90.6574 Q7.16713 85.2871 9.8523 82.0926 Q12.5375 78.8982 17.0282 78.8982 Q19.1578 78.8982 21.0791 79.7084 Q22.9772 80.4954 25.5698 82.6019 Q26.2411 83.1806 29.4587 86.2824 Q32.6531 89.3843 38.417 95.0324 Z" fill="#000000" fill-rule="nonzero" fill-opacity="1" /><path clip-path="url(#clip100)" d="M36.4725 68.8983 L36.4725 64.014 L42.3521 64.014 L42.3521 68.8983 L36.4725 68.8983 Z" fill="#000000" fill-rule="nonzero" fill-opacity="1" /><path clip-path="url(#clip100)" d="M7.79213 53.7826 L7.79213 35.4262 L11.7273 35.4262 L11.7273 49.5002 L20.1995 49.5002 Q19.8522 48.4817 19.6902 47.4632 Q19.505 46.4447 19.505 45.4262 Q19.505 39.6392 22.6763 36.2596 Q25.8476 32.88 31.2642 32.88 Q36.8429 32.88 39.9447 36.3522 Q43.0234 39.8244 43.0234 46.1438 Q43.0234 48.3197 42.6531 50.5882 Q42.2827 52.8335 41.5419 55.2409 L36.8429 55.2409 Q37.9771 53.1576 38.5327 50.9354 Q39.0883 48.7132 39.0883 46.2364 Q39.0883 42.2318 36.9818 39.8938 Q34.8753 37.5559 31.2642 37.5559 Q27.6531 37.5559 25.5467 39.8938 Q23.4402 42.2318 23.4402 46.2364 Q23.4402 48.1114 23.8569 49.9863 Q24.2735 51.8382 25.1531 53.7826 L7.79213 53.7826 Z" fill="#000000" fill-rule="nonzero" fill-opacity="1" /><polyline clip-path="url(#clip102)" style="stroke:#009af9; stroke-linecap:round; stroke-linejoin:round; stroke-width:4; stroke-opacity:1; fill:none" points="151.118,1479.3 154.597,1479.3 158.076,1479.29 161.555,1479.29 165.034,1479.28 197.203,1478.55 229.372,1475.83 245.457,1473.36 261.542,1470 277.626,1465.64 293.711,1460.21 313.043,1452.15 332.376,1442.32 351.708,1430.66 371.04,1417.09 387.386,1404.12 403.731,1389.77 420.076,1374.03 436.422,1356.91 454.177,1336.79 471.933,1315.11 489.688,1291.91 507.444,1267.26 523.813,1243.31 540.182,1218.23 556.551,1192.09 572.92,1164.96 590.469,1134.86 608.019,1103.8 625.568,1071.89 643.117,1039.22 683.783,961.217 724.448,881.148 760.586,809.42 796.725,738.222 828.415,677.024 860.105,617.683 877.381,586.349 894.656,555.859 911.932,526.314 929.207,497.808 946.585,470.273 963.963,443.97 981.341,418.986 998.719,395.401 1017.93,371.043 1037.15,348.584 1056.36,328.11 1075.57,309.703 1093.86,294.172 1112.14,280.632 1130.42,269.13 1148.7,259.706 1167.71,252.147 1186.72,246.9 1205.72,243.985 1224.73,243.411 1240.73,244.747 1256.74,247.74 1272.74,252.384 1288.74,258.665 1308.27,268.528 1327.81,280.767 1347.34,295.333 1366.88,312.167 1384.77,329.52 1402.67,348.661 1420.57,369.525 1438.46,392.04 1454.99,414.236 1471.52,437.71 1488.05,462.395 1504.57,488.219 1521.32,515.461 1538.06,543.711 1554.8,572.885 1571.54,602.893 1609.07,672.718 1646.6,745.211 1680.6,812.278 1714.61,879.776 1753.54,956.49 1792.48,1031.38 1828.53,1098.04 1864.58,1161.16 1882.35,1190.7 1900.12,1219.09 1917.89,1246.22 1935.66,1272.03 1952.91,1295.74 1970.16,1318.06 1987.42,1338.96 2004.67,1358.37 2022.36,1376.71 2040.04,1393.43 2057.73,1408.54 2075.42,1422.02 2094.8,1434.95 2114.17,1445.99 2133.55,1455.2 2152.93,1462.67 2181.08,1470.67 2209.23,1475.68 2237.38,1478.28 2265.53,1479.2 2271.31,1479.26 2277.08,1479.29 2282.86,1479.3 2288.63,1479.3 "/>
<polyline clip-path="url(#clip102)" style="stroke:#e26f46; stroke-linecap:round; stroke-linejoin:round; stroke-width:4; stroke-opacity:1; fill:none" points="151.118,1479.3 158.076,1479.3 165.034,1479.3 229.372,1478.75 293.711,1473.95 313.043,1470.74 332.376,1466.38 351.708,1460.68 371.04,1453.46 387.386,1446.04 403.731,1437.31 420.076,1427.19 436.422,1415.6 454.177,1401.27 471.933,1385.05 489.688,1366.89 507.444,1346.75 523.813,1326.42 540.182,1304.38 556.551,1280.65 572.92,1255.25 590.469,1226.2 608.019,1195.32 625.568,1162.69 643.117,1128.39 663.45,1086.71 683.783,1043.1 704.115,997.786 724.448,950.977 760.586,864.86 796.725,776.278 828.415,697.825 860.105,619.82 894.656,536.624 929.207,456.793 946.585,418.368 963.963,381.335 981.341,345.866 998.719,312.126 1017.93,277.024 1037.15,244.428 1056.36,214.526 1075.57,187.49 1093.86,164.568 1112.14,144.502 1130.42,127.397 1148.7,113.342 1167.71,102.043 1186.72,94.185 1205.72,89.814 1224.73,88.9544 1240.73,90.957 1256.74,95.4437 1272.74,102.396 1288.74,111.787 1308.27,126.5 1327.81,144.703 1347.34,166.285 1366.88,191.117 1384.77,216.591 1402.67,244.541 1420.57,274.827 1438.46,307.298 1454.99,339.09 1471.52,372.474 1488.05,407.31 1504.57,443.453 1538.06,520.053 1571.54,600.093 1609.07,692.227 1646.6,785.105 1680.6,868.352 1714.61,949.361 1734.08,994.25 1753.54,1037.79 1773.01,1079.78 1792.48,1120.04 1810.5,1155.63 1828.53,1189.49 1846.55,1221.51 1864.58,1251.62 1882.35,1279.37 1900.12,1305.15 1917.89,1328.93 1935.66,1350.71 1952.91,1369.94 1970.16,1387.3 1987.42,1402.84 2004.67,1416.61 2022.36,1428.95 2040.04,1439.59 2057.73,1448.62 2075.42,1456.15 2094.8,1462.84 2114.17,1468.06 2133.55,1472 2152.93,1474.85 2209.23,1478.72 2265.53,1479.29 2277.08,1479.3 2288.63,1479.3 "/>
<path clip-path="url(#clip100)" d="M1837.67 251.89 L2277.23 251.89 L2277.23 96.3696 L1837.67 96.3696  Z" fill="#ffffff" fill-rule="evenodd" fill-opacity="1"/>
<polyline clip-path="url(#clip100)" style="stroke:#000000; stroke-linecap:round; stroke-linejoin:round; stroke-width:4; stroke-opacity:1; fill:none" points="1837.67,251.89 2277.23,251.89 2277.23,96.3696 1837.67,96.3696 1837.67,251.89 "/>
<polyline clip-path="url(#clip100)" style="stroke:#009af9; stroke-linecap:round; stroke-linejoin:round; stroke-width:4; stroke-opacity:1; fill:none" points="1862.84,148.21 2013.9,148.21 "/>
<path clip-path="url(#clip100)" d="M2043.75 148.985 L2043.75 161.647 L2051.25 161.647 Q2055.02 161.647 2056.82 160.096 Q2058.65 158.522 2058.65 155.304 Q2058.65 152.064 2056.82 150.536 Q2055.02 148.985 2051.25 148.985 L2043.75 148.985 M2043.75 134.772 L2043.75 145.189 L2050.67 145.189 Q2054.09 145.189 2055.76 143.916 Q2057.45 142.619 2057.45 139.98 Q2057.45 137.365 2055.76 136.068 Q2054.09 134.772 2050.67 134.772 L2043.75 134.772 M2039.07 130.93 L2051.01 130.93 Q2056.36 130.93 2059.26 133.152 Q2062.15 135.374 2062.15 139.471 Q2062.15 142.642 2060.67 144.517 Q2059.19 146.392 2056.32 146.855 Q2059.76 147.596 2061.66 149.957 Q2063.58 152.295 2063.58 155.814 Q2063.58 160.443 2060.44 162.966 Q2057.29 165.49 2051.48 165.49 L2039.07 165.49 L2039.07 130.93 Z" fill="#000000" fill-rule="nonzero" fill-opacity="1" /><path clip-path="url(#clip100)" d="M2093.58 151.462 L2093.58 153.545 L2074 153.545 Q2074.28 157.943 2076.64 160.258 Q2079.02 162.55 2083.26 162.55 Q2085.71 162.55 2088.01 161.948 Q2090.32 161.346 2092.59 160.142 L2092.59 164.17 Q2090.3 165.142 2087.89 165.652 Q2085.48 166.161 2083.01 166.161 Q2076.8 166.161 2073.17 162.55 Q2069.56 158.939 2069.56 152.781 Q2069.56 146.416 2072.98 142.689 Q2076.43 138.939 2082.26 138.939 Q2087.5 138.939 2090.53 142.318 Q2093.58 145.675 2093.58 151.462 M2089.32 150.212 Q2089.28 146.717 2087.36 144.633 Q2085.46 142.55 2082.31 142.55 Q2078.75 142.55 2076.59 144.564 Q2074.46 146.578 2074.14 150.235 L2089.32 150.212 Z" fill="#000000" fill-rule="nonzero" fill-opacity="1" /><path clip-path="url(#clip100)" d="M2104.79 132.203 L2104.79 139.564 L2113.56 139.564 L2113.56 142.874 L2104.79 142.874 L2104.79 156.948 Q2104.79 160.119 2105.64 161.022 Q2106.52 161.925 2109.19 161.925 L2113.56 161.925 L2113.56 165.49 L2109.19 165.49 Q2104.26 165.49 2102.38 163.661 Q2100.51 161.809 2100.51 156.948 L2100.51 142.874 L2097.38 142.874 L2097.38 139.564 L2100.51 139.564 L2100.51 132.203 L2104.79 132.203 Z" fill="#000000" fill-rule="nonzero" fill-opacity="1" /><path clip-path="url(#clip100)" d="M2130.94 152.457 Q2125.78 152.457 2123.79 153.638 Q2121.8 154.818 2121.8 157.666 Q2121.8 159.934 2123.28 161.277 Q2124.79 162.596 2127.36 162.596 Q2130.9 162.596 2133.03 160.096 Q2135.18 157.573 2135.18 153.406 L2135.18 152.457 L2130.94 152.457 M2139.44 150.698 L2139.44 165.49 L2135.18 165.49 L2135.18 161.554 Q2133.72 163.915 2131.55 165.05 Q2129.37 166.161 2126.22 166.161 Q2122.24 166.161 2119.88 163.939 Q2117.54 161.693 2117.54 157.943 Q2117.54 153.568 2120.46 151.346 Q2123.4 149.124 2129.21 149.124 L2135.18 149.124 L2135.18 148.707 Q2135.18 145.767 2133.24 144.17 Q2131.32 142.55 2127.82 142.55 Q2125.6 142.55 2123.49 143.082 Q2121.38 143.615 2119.44 144.679 L2119.44 140.744 Q2121.78 139.842 2123.98 139.402 Q2126.18 138.939 2128.26 138.939 Q2133.88 138.939 2136.66 141.855 Q2139.44 144.772 2139.44 150.698 Z" fill="#000000" fill-rule="nonzero" fill-opacity="1" /><path clip-path="url(#clip100)" d="M2158.44 129.518 Q2155.34 134.842 2153.84 140.05 Q2152.33 145.258 2152.33 150.605 Q2152.33 155.953 2153.84 161.207 Q2155.37 166.439 2158.44 171.74 L2154.74 171.74 Q2151.27 166.3 2149.53 161.045 Q2147.82 155.791 2147.82 150.605 Q2147.82 145.443 2149.53 140.212 Q2151.25 134.98 2154.74 129.518 L2158.44 129.518 Z" fill="#000000" fill-rule="nonzero" fill-opacity="1" /><path clip-path="url(#clip100)" d="M2180.16 135.004 L2168.35 153.453 L2180.16 153.453 L2180.16 135.004 M2178.93 130.93 L2184.81 130.93 L2184.81 153.453 L2189.74 153.453 L2189.74 157.341 L2184.81 157.341 L2184.81 165.49 L2180.16 165.49 L2180.16 157.341 L2164.56 157.341 L2164.56 152.828 L2178.93 130.93 Z" fill="#000000" fill-rule="nonzero" fill-opacity="1" /><path clip-path="url(#clip100)" d="M2197.96 159.61 L2202.84 159.61 L2202.84 163.591 L2199.05 170.999 L2196.06 170.999 L2197.96 163.591 L2197.96 159.61 Z" fill="#000000" fill-rule="nonzero" fill-opacity="1" /><path clip-path="url(#clip100)" d="M2225.39 135.004 L2213.58 153.453 L2225.39 153.453 L2225.39 135.004 M2224.16 130.93 L2230.04 130.93 L2230.04 153.453 L2234.97 153.453 L2234.97 157.341 L2230.04 157.341 L2230.04 165.49 L2225.39 165.49 L2225.39 157.341 L2209.79 157.341 L2209.79 152.828 L2224.16 130.93 Z" fill="#000000" fill-rule="nonzero" fill-opacity="1" /><path clip-path="url(#clip100)" d="M2241.43 129.518 L2245.13 129.518 Q2248.61 134.98 2250.32 140.212 Q2252.06 145.443 2252.06 150.605 Q2252.06 155.791 2250.32 161.045 Q2248.61 166.3 2245.13 171.74 L2241.43 171.74 Q2244.51 166.439 2246.01 161.207 Q2247.54 155.953 2247.54 150.605 Q2247.54 145.258 2246.01 140.05 Q2244.51 134.842 2241.43 129.518 Z" fill="#000000" fill-rule="nonzero" fill-opacity="1" /><polyline clip-path="url(#clip100)" style="stroke:#e26f46; stroke-linecap:round; stroke-linejoin:round; stroke-width:4; stroke-opacity:1; fill:none" points="1862.84,200.05 2013.9,200.05 "/>
<path clip-path="url(#clip100)" d="M2043.75 200.825 L2043.75 213.487 L2051.25 213.487 Q2055.02 213.487 2056.82 211.936 Q2058.65 210.362 2058.65 207.144 Q2058.65 203.904 2056.82 202.376 Q2055.02 200.825 2051.25 200.825 L2043.75 200.825 M2043.75 186.612 L2043.75 197.029 L2050.67 197.029 Q2054.09 197.029 2055.76 195.756 Q2057.45 194.459 2057.45 191.82 Q2057.45 189.205 2055.76 187.908 Q2054.09 186.612 2050.67 186.612 L2043.75 186.612 M2039.07 182.77 L2051.01 182.77 Q2056.36 182.77 2059.26 184.992 Q2062.15 187.214 2062.15 191.311 Q2062.15 194.482 2060.67 196.357 Q2059.19 198.232 2056.32 198.695 Q2059.76 199.436 2061.66 201.797 Q2063.58 204.135 2063.58 207.654 Q2063.58 212.283 2060.44 214.806 Q2057.29 217.33 2051.48 217.33 L2039.07 217.33 L2039.07 182.77 Z" fill="#000000" fill-rule="nonzero" fill-opacity="1" /><path clip-path="url(#clip100)" d="M2093.58 203.302 L2093.58 205.385 L2074 205.385 Q2074.28 209.783 2076.64 212.098 Q2079.02 214.39 2083.26 214.39 Q2085.71 214.39 2088.01 213.788 Q2090.32 213.186 2092.59 211.982 L2092.59 216.01 Q2090.3 216.982 2087.89 217.492 Q2085.48 218.001 2083.01 218.001 Q2076.8 218.001 2073.17 214.39 Q2069.56 210.779 2069.56 204.621 Q2069.56 198.256 2072.98 194.529 Q2076.43 190.779 2082.26 190.779 Q2087.5 190.779 2090.53 194.158 Q2093.58 197.515 2093.58 203.302 M2089.32 202.052 Q2089.28 198.557 2087.36 196.473 Q2085.46 194.39 2082.31 194.39 Q2078.75 194.39 2076.59 196.404 Q2074.46 198.418 2074.14 202.075 L2089.32 202.052 Z" fill="#000000" fill-rule="nonzero" fill-opacity="1" /><path clip-path="url(#clip100)" d="M2104.79 184.043 L2104.79 191.404 L2113.56 191.404 L2113.56 194.714 L2104.79 194.714 L2104.79 208.788 Q2104.79 211.959 2105.64 212.862 Q2106.52 213.765 2109.19 213.765 L2113.56 213.765 L2113.56 217.33 L2109.19 217.33 Q2104.26 217.33 2102.38 215.501 Q2100.51 213.649 2100.51 208.788 L2100.51 194.714 L2097.38 194.714 L2097.38 191.404 L2100.51 191.404 L2100.51 184.043 L2104.79 184.043 Z" fill="#000000" fill-rule="nonzero" fill-opacity="1" /><path clip-path="url(#clip100)" d="M2130.94 204.297 Q2125.78 204.297 2123.79 205.478 Q2121.8 206.658 2121.8 209.506 Q2121.8 211.774 2123.28 213.117 Q2124.79 214.436 2127.36 214.436 Q2130.9 214.436 2133.03 211.936 Q2135.18 209.413 2135.18 205.246 L2135.18 204.297 L2130.94 204.297 M2139.44 202.538 L2139.44 217.33 L2135.18 217.33 L2135.18 213.394 Q2133.72 215.755 2131.55 216.89 Q2129.37 218.001 2126.22 218.001 Q2122.24 218.001 2119.88 215.779 Q2117.54 213.533 2117.54 209.783 Q2117.54 205.408 2120.46 203.186 Q2123.4 200.964 2129.21 200.964 L2135.18 200.964 L2135.18 200.547 Q2135.18 197.607 2133.24 196.01 Q2131.32 194.39 2127.82 194.39 Q2125.6 194.39 2123.49 194.922 Q2121.38 195.455 2119.44 196.519 L2119.44 192.584 Q2121.78 191.682 2123.98 191.242 Q2126.18 190.779 2128.26 190.779 Q2133.88 190.779 2136.66 193.695 Q2139.44 196.612 2139.44 202.538 Z" fill="#000000" fill-rule="nonzero" fill-opacity="1" /><path clip-path="url(#clip100)" d="M2158.44 181.358 Q2155.34 186.682 2153.84 191.89 Q2152.33 197.098 2152.33 202.445 Q2152.33 207.793 2153.84 213.047 Q2155.37 218.279 2158.44 223.58 L2154.74 223.58 Q2151.27 218.14 2149.53 212.885 Q2147.82 207.631 2147.82 202.445 Q2147.82 197.283 2149.53 192.052 Q2151.25 186.82 2154.74 181.358 L2158.44 181.358 Z" fill="#000000" fill-rule="nonzero" fill-opacity="1" /><path clip-path="url(#clip100)" d="M2167.36 182.77 L2185.71 182.77 L2185.71 186.705 L2171.64 186.705 L2171.64 195.177 Q2172.66 194.83 2173.68 194.668 Q2174.69 194.482 2175.71 194.482 Q2181.5 194.482 2184.88 197.654 Q2188.26 200.825 2188.26 206.242 Q2188.26 211.82 2184.79 214.922 Q2181.31 218.001 2175 218.001 Q2172.82 218.001 2170.55 217.63 Q2168.31 217.26 2165.9 216.519 L2165.9 211.82 Q2167.98 212.955 2170.2 213.51 Q2172.43 214.066 2174.9 214.066 Q2178.91 214.066 2181.25 211.959 Q2183.58 209.853 2183.58 206.242 Q2183.58 202.631 2181.25 200.524 Q2178.91 198.418 2174.9 198.418 Q2173.03 198.418 2171.15 198.834 Q2169.3 199.251 2167.36 200.131 L2167.36 182.77 Z" fill="#000000" fill-rule="nonzero" fill-opacity="1" /><path clip-path="url(#clip100)" d="M2197.96 211.45 L2202.84 211.45 L2202.84 215.431 L2199.05 222.839 L2196.06 222.839 L2197.96 215.431 L2197.96 211.45 Z" fill="#000000" fill-rule="nonzero" fill-opacity="1" /><path clip-path="url(#clip100)" d="M2212.59 182.77 L2230.94 182.77 L2230.94 186.705 L2216.87 186.705 L2216.87 195.177 Q2217.89 194.83 2218.91 194.668 Q2219.93 194.482 2220.94 194.482 Q2226.73 194.482 2230.11 197.654 Q2233.49 200.825 2233.49 206.242 Q2233.49 211.82 2230.02 214.922 Q2226.55 218.001 2220.23 218.001 Q2218.05 218.001 2215.78 217.63 Q2213.54 217.26 2211.13 216.519 L2211.13 211.82 Q2213.21 212.955 2215.44 213.51 Q2217.66 214.066 2220.13 214.066 Q2224.14 214.066 2226.48 211.959 Q2228.81 209.853 2228.81 206.242 Q2228.81 202.631 2226.48 200.524 Q2224.14 198.418 2220.13 198.418 Q2218.26 198.418 2216.38 198.834 Q2214.53 199.251 2212.59 200.131 L2212.59 182.77 Z" fill="#000000" fill-rule="nonzero" fill-opacity="1" /><path clip-path="url(#clip100)" d="M2241.43 181.358 L2245.13 181.358 Q2248.61 186.82 2250.32 192.052 Q2252.06 197.283 2252.06 202.445 Q2252.06 207.631 2250.32 212.885 Q2248.61 218.14 2245.13 223.58 L2241.43 223.58 Q2244.51 218.279 2246.01 213.047 Q2247.54 207.793 2247.54 202.445 Q2247.54 197.098 2246.01 191.89 Q2244.51 186.682 2241.43 181.358 Z" fill="#000000" fill-rule="nonzero" fill-opacity="1" /></svg>
