<?xml version="1.0" encoding="utf-8"?>
<svg xmlns="http://www.w3.org/2000/svg" xmlns:xlink="http://www.w3.org/1999/xlink" width="600" height="400" viewBox="0 0 2400 1600">
<defs>
  <clipPath id="clip880">
    <rect x="0" y="0" width="2400" height="1600"/>
  </clipPath>
</defs>
<path clip-path="url(#clip880)" d="M0 1600 L2400 1600 L2400 0 L0 0  Z" fill="#ffffff" fill-rule="evenodd" fill-opacity="1"/>
<defs>
  <clipPath id="clip881">
    <rect x="480" y="0" width="1681" height="1600"/>
  </clipPath>
</defs>
<path clip-path="url(#clip880)" d="M86.9921 1521.01 L2352.76 1521.01 L2352.76 47.2441 L86.9921 47.2441  Z" fill="#ffffff" fill-rule="evenodd" fill-opacity="1"/>
<defs>
  <clipPath id="clip882">
    <rect x="86" y="47" width="2267" height="1475"/>
  </clipPath>
</defs>
<polyline clip-path="url(#clip882)" style="stroke:#000000; stroke-linecap:round; stroke-linejoin:round; stroke-width:2; stroke-opacity:0.1; fill:none" points="86.9921,1521.01 86.9921,47.2441 "/>
<polyline clip-path="url(#clip882)" style="stroke:#000000; stroke-linecap:round; stroke-linejoin:round; stroke-width:2; stroke-opacity:0.1; fill:none" points="540.145,1521.01 540.145,47.2441 "/>
<polyline clip-path="url(#clip882)" style="stroke:#000000; stroke-linecap:round; stroke-linejoin:round; stroke-width:2; stroke-opacity:0.1; fill:none" points="993.298,1521.01 993.298,47.2441 "/>
<polyline clip-path="url(#clip882)" style="stroke:#000000; stroke-linecap:round; stroke-linejoin:round; stroke-width:2; stroke-opacity:0.1; fill:none" points="1446.45,1521.01 1446.45,47.2441 "/>
<polyline clip-path="url(#clip882)" style="stroke:#000000; stroke-linecap:round; stroke-linejoin:round; stroke-width:2; stroke-opacity:0.1; fill:none" points="1899.6,1521.01 1899.6,47.2441 "/>
<polyline clip-path="url(#clip882)" style="stroke:#000000; stroke-linecap:round; stroke-linejoin:round; stroke-width:2; stroke-opacity:0.1; fill:none" points="2352.76,1521.01 2352.76,47.2441 "/>
<polyline clip-path="url(#clip880)" style="stroke:#000000; stroke-linecap:round; stroke-linejoin:round; stroke-width:4; stroke-opacity:1; fill:none" points="86.9921,1521.01 2352.76,1521.01 "/>
<polyline clip-path="url(#clip880)" style="stroke:#000000; stroke-linecap:round; stroke-linejoin:round; stroke-width:4; stroke-opacity:1; fill:none" points="86.9921,1521.01 86.9921,1502.11 "/>
<polyline clip-path="url(#clip880)" style="stroke:#000000; stroke-linecap:round; stroke-linejoin:round; stroke-width:4; stroke-opacity:1; fill:none" points="540.145,1521.01 540.145,1502.11 "/>
<polyline clip-path="url(#clip880)" style="stroke:#000000; stroke-linecap:round; stroke-linejoin:round; stroke-width:4; stroke-opacity:1; fill:none" points="993.298,1521.01 993.298,1502.11 "/>
<polyline clip-path="url(#clip880)" style="stroke:#000000; stroke-linecap:round; stroke-linejoin:round; stroke-width:4; stroke-opacity:1; fill:none" points="1446.45,1521.01 1446.45,1502.11 "/>
<polyline clip-path="url(#clip880)" style="stroke:#000000; stroke-linecap:round; stroke-linejoin:round; stroke-width:4; stroke-opacity:1; fill:none" points="1899.6,1521.01 1899.6,1502.11 "/>
<polyline clip-path="url(#clip880)" style="stroke:#000000; stroke-linecap:round; stroke-linejoin:round; stroke-width:4; stroke-opacity:1; fill:none" points="2352.76,1521.01 2352.76,1502.11 "/>
<path clip-path="url(#clip880)" d="M64.3765 1551.93 Q60.7654 1551.93 58.9367 1555.49 Q57.1312 1559.03 57.1312 1566.16 Q57.1312 1573.27 58.9367 1576.83 Q60.7654 1580.38 64.3765 1580.38 Q68.0107 1580.38 69.8163 1576.83 Q71.645 1573.27 71.645 1566.16 Q71.645 1559.03 69.8163 1555.49 Q68.0107 1551.93 64.3765 1551.93 M64.3765 1548.22 Q70.1867 1548.22 73.2422 1552.83 Q76.3209 1557.41 76.3209 1566.16 Q76.3209 1574.89 73.2422 1579.5 Q70.1867 1584.08 64.3765 1584.08 Q58.5664 1584.08 55.4877 1579.5 Q52.4321 1574.89 52.4321 1566.16 Q52.4321 1557.41 55.4877 1552.83 Q58.5664 1548.22 64.3765 1548.22 Z" fill="#000000" fill-rule="nonzero" fill-opacity="1" /><path clip-path="url(#clip880)" d="M84.5384 1577.53 L89.4227 1577.53 L89.4227 1583.41 L84.5384 1583.41 L84.5384 1577.53 Z" fill="#000000" fill-rule="nonzero" fill-opacity="1" /><path clip-path="url(#clip880)" d="M109.608 1551.93 Q105.997 1551.93 104.168 1555.49 Q102.362 1559.03 102.362 1566.16 Q102.362 1573.27 104.168 1576.83 Q105.997 1580.38 109.608 1580.38 Q113.242 1580.38 115.048 1576.83 Q116.876 1573.27 116.876 1566.16 Q116.876 1559.03 115.048 1555.49 Q113.242 1551.93 109.608 1551.93 M109.608 1548.22 Q115.418 1548.22 118.473 1552.83 Q121.552 1557.41 121.552 1566.16 Q121.552 1574.89 118.473 1579.5 Q115.418 1584.08 109.608 1584.08 Q103.798 1584.08 100.719 1579.5 Q97.6634 1574.89 97.6634 1566.16 Q97.6634 1557.41 100.719 1552.83 Q103.798 1548.22 109.608 1548.22 Z" fill="#000000" fill-rule="nonzero" fill-opacity="1" /><path clip-path="url(#clip880)" d="M518.328 1551.93 Q514.717 1551.93 512.888 1555.49 Q511.083 1559.03 511.083 1566.16 Q511.083 1573.27 512.888 1576.83 Q514.717 1580.38 518.328 1580.38 Q521.962 1580.38 523.768 1576.83 Q525.596 1573.27 525.596 1566.16 Q525.596 1559.03 523.768 1555.49 Q521.962 1551.93 518.328 1551.93 M518.328 1548.22 Q524.138 1548.22 527.194 1552.83 Q530.272 1557.41 530.272 1566.16 Q530.272 1574.89 527.194 1579.5 Q524.138 1584.08 518.328 1584.08 Q512.518 1584.08 509.439 1579.5 Q506.383 1574.89 506.383 1566.16 Q506.383 1557.41 509.439 1552.83 Q512.518 1548.22 518.328 1548.22 Z" fill="#000000" fill-rule="nonzero" fill-opacity="1" /><path clip-path="url(#clip880)" d="M538.49 1577.53 L543.374 1577.53 L543.374 1583.41 L538.49 1583.41 L538.49 1577.53 Z" fill="#000000" fill-rule="nonzero" fill-opacity="1" /><path clip-path="url(#clip880)" d="M557.587 1579.47 L573.906 1579.47 L573.906 1583.41 L551.962 1583.41 L551.962 1579.47 Q554.624 1576.72 559.207 1572.09 Q563.814 1567.44 564.994 1566.09 Q567.24 1563.57 568.119 1561.83 Q569.022 1560.07 569.022 1558.38 Q569.022 1555.63 567.078 1553.89 Q565.156 1552.16 562.054 1552.16 Q559.855 1552.16 557.402 1552.92 Q554.971 1553.69 552.193 1555.24 L552.193 1550.51 Q555.017 1549.38 557.471 1548.8 Q559.925 1548.22 561.962 1548.22 Q567.332 1548.22 570.527 1550.91 Q573.721 1553.59 573.721 1558.08 Q573.721 1560.21 572.911 1562.13 Q572.124 1564.03 570.017 1566.63 Q569.439 1567.3 566.337 1570.51 Q563.235 1573.71 557.587 1579.47 Z" fill="#000000" fill-rule="nonzero" fill-opacity="1" /><path clip-path="url(#clip880)" d="M970.439 1551.93 Q966.828 1551.93 964.999 1555.49 Q963.194 1559.03 963.194 1566.16 Q963.194 1573.27 964.999 1576.83 Q966.828 1580.38 970.439 1580.38 Q974.073 1580.38 975.879 1576.83 Q977.707 1573.27 977.707 1566.16 Q977.707 1559.03 975.879 1555.49 Q974.073 1551.93 970.439 1551.93 M970.439 1548.22 Q976.249 1548.22 979.305 1552.83 Q982.383 1557.41 982.383 1566.16 Q982.383 1574.89 979.305 1579.5 Q976.249 1584.08 970.439 1584.08 Q964.629 1584.08 961.55 1579.5 Q958.495 1574.89 958.495 1566.16 Q958.495 1557.41 961.55 1552.83 Q964.629 1548.22 970.439 1548.22 Z" fill="#000000" fill-rule="nonzero" fill-opacity="1" /><path clip-path="url(#clip880)" d="M990.601 1577.53 L995.485 1577.53 L995.485 1583.41 L990.601 1583.41 L990.601 1577.53 Z" fill="#000000" fill-rule="nonzero" fill-opacity="1" /><path clip-path="url(#clip880)" d="M1018.52 1552.92 L1006.71 1571.37 L1018.52 1571.37 L1018.52 1552.92 M1017.29 1548.85 L1023.17 1548.85 L1023.17 1571.37 L1028.1 1571.37 L1028.1 1575.26 L1023.17 1575.26 L1023.17 1583.41 L1018.52 1583.41 L1018.52 1575.26 L1002.92 1575.26 L1002.92 1570.75 L1017.29 1548.85 Z" fill="#000000" fill-rule="nonzero" fill-opacity="1" /><path clip-path="url(#clip880)" d="M1423.75 1551.93 Q1420.14 1551.93 1418.31 1555.49 Q1416.51 1559.03 1416.51 1566.16 Q1416.51 1573.27 1418.31 1576.83 Q1420.14 1580.38 1423.75 1580.38 Q1427.39 1580.38 1429.19 1576.83 Q1431.02 1573.27 1431.02 1566.16 Q1431.02 1559.03 1429.19 1555.49 Q1427.39 1551.93 1423.75 1551.93 M1423.75 1548.22 Q1429.56 1548.22 1432.62 1552.83 Q1435.7 1557.41 1435.7 1566.16 Q1435.7 1574.89 1432.62 1579.5 Q1429.56 1584.08 1423.75 1584.08 Q1417.94 1584.08 1414.86 1579.5 Q1411.81 1574.89 1411.81 1566.16 Q1411.81 1557.41 1414.86 1552.83 Q1417.94 1548.22 1423.75 1548.22 Z" fill="#000000" fill-rule="nonzero" fill-opacity="1" /><path clip-path="url(#clip880)" d="M1443.92 1577.53 L1448.8 1577.53 L1448.8 1583.41 L1443.92 1583.41 L1443.92 1577.53 Z" fill="#000000" fill-rule="nonzero" fill-opacity="1" /><path clip-path="url(#clip880)" d="M1469.56 1564.26 Q1466.42 1564.26 1464.56 1566.42 Q1462.74 1568.57 1462.74 1572.32 Q1462.74 1576.05 1464.56 1578.22 Q1466.42 1580.38 1469.56 1580.38 Q1472.71 1580.38 1474.54 1578.22 Q1476.39 1576.05 1476.39 1572.32 Q1476.39 1568.57 1474.54 1566.42 Q1472.71 1564.26 1469.56 1564.26 M1478.85 1549.61 L1478.85 1553.87 Q1477.09 1553.04 1475.28 1552.6 Q1473.5 1552.16 1471.74 1552.16 Q1467.11 1552.16 1464.66 1555.28 Q1462.23 1558.41 1461.88 1564.73 Q1463.24 1562.71 1465.3 1561.65 Q1467.36 1560.56 1469.84 1560.56 Q1475.05 1560.56 1478.06 1563.73 Q1481.09 1566.88 1481.09 1572.32 Q1481.09 1577.64 1477.94 1580.86 Q1474.8 1584.08 1469.56 1584.08 Q1463.57 1584.08 1460.4 1579.5 Q1457.23 1574.89 1457.23 1566.16 Q1457.23 1557.97 1461.11 1553.11 Q1465 1548.22 1471.55 1548.22 Q1473.31 1548.22 1475.1 1548.57 Q1476.9 1548.92 1478.85 1549.61 Z" fill="#000000" fill-rule="nonzero" fill-opacity="1" /><path clip-path="url(#clip880)" d="M1877.03 1551.93 Q1873.42 1551.93 1871.59 1555.49 Q1869.79 1559.03 1869.79 1566.16 Q1869.79 1573.27 1871.59 1576.83 Q1873.42 1580.38 1877.03 1580.38 Q1880.67 1580.38 1882.47 1576.83 Q1884.3 1573.27 1884.3 1566.16 Q1884.3 1559.03 1882.47 1555.49 Q1880.67 1551.93 1877.03 1551.93 M1877.03 1548.22 Q1882.84 1548.22 1885.9 1552.83 Q1888.98 1557.41 1888.98 1566.16 Q1888.98 1574.89 1885.9 1579.5 Q1882.84 1584.08 1877.03 1584.08 Q1871.22 1584.08 1868.14 1579.5 Q1865.09 1574.89 1865.09 1566.16 Q1865.09 1557.41 1868.14 1552.83 Q1871.22 1548.22 1877.03 1548.22 Z" fill="#000000" fill-rule="nonzero" fill-opacity="1" /><path clip-path="url(#clip880)" d="M1897.2 1577.53 L1902.08 1577.53 L1902.08 1583.41 L1897.2 1583.41 L1897.2 1577.53 Z" fill="#000000" fill-rule="nonzero" fill-opacity="1" /><path clip-path="url(#clip880)" d="M1922.27 1567 Q1918.93 1567 1917.01 1568.78 Q1915.11 1570.56 1915.11 1573.69 Q1915.11 1576.81 1917.01 1578.59 Q1918.93 1580.38 1922.27 1580.38 Q1925.6 1580.38 1927.52 1578.59 Q1929.44 1576.79 1929.44 1573.69 Q1929.44 1570.56 1927.52 1568.78 Q1925.62 1567 1922.27 1567 M1917.59 1565.01 Q1914.58 1564.26 1912.89 1562.2 Q1911.22 1560.14 1911.22 1557.18 Q1911.22 1553.04 1914.16 1550.63 Q1917.13 1548.22 1922.27 1548.22 Q1927.43 1548.22 1930.37 1550.63 Q1933.31 1553.04 1933.31 1557.18 Q1933.31 1560.14 1931.62 1562.2 Q1929.95 1564.26 1926.96 1565.01 Q1930.34 1565.79 1932.22 1568.08 Q1934.12 1570.38 1934.12 1573.69 Q1934.12 1578.71 1931.04 1581.39 Q1927.98 1584.08 1922.27 1584.08 Q1916.55 1584.08 1913.47 1581.39 Q1910.41 1578.71 1910.41 1573.69 Q1910.41 1570.38 1912.31 1568.08 Q1914.21 1565.79 1917.59 1565.01 M1915.88 1557.62 Q1915.88 1560.31 1917.54 1561.81 Q1919.23 1563.32 1922.27 1563.32 Q1925.27 1563.32 1926.96 1561.81 Q1928.68 1560.31 1928.68 1557.62 Q1928.68 1554.94 1926.96 1553.43 Q1925.27 1551.93 1922.27 1551.93 Q1919.23 1551.93 1917.54 1553.43 Q1915.88 1554.94 1915.88 1557.62 Z" fill="#000000" fill-rule="nonzero" fill-opacity="1" /><path clip-path="url(#clip880)" d="M2319.91 1579.47 L2327.55 1579.47 L2327.55 1553.11 L2319.24 1554.77 L2319.24 1550.51 L2327.5 1548.85 L2332.18 1548.85 L2332.18 1579.47 L2339.82 1579.47 L2339.82 1583.41 L2319.91 1583.41 L2319.91 1579.47 Z" fill="#000000" fill-rule="nonzero" fill-opacity="1" /><path clip-path="url(#clip880)" d="M2349.26 1577.53 L2354.14 1577.53 L2354.14 1583.41 L2349.26 1583.41 L2349.26 1577.53 Z" fill="#000000" fill-rule="nonzero" fill-opacity="1" /><path clip-path="url(#clip880)" d="M2374.33 1551.93 Q2370.72 1551.93 2368.89 1555.49 Q2367.08 1559.03 2367.08 1566.16 Q2367.08 1573.27 2368.89 1576.83 Q2370.72 1580.38 2374.33 1580.38 Q2377.96 1580.38 2379.77 1576.83 Q2381.6 1573.27 2381.6 1566.16 Q2381.6 1559.03 2379.77 1555.49 Q2377.96 1551.93 2374.33 1551.93 M2374.33 1548.22 Q2380.14 1548.22 2383.2 1552.83 Q2386.27 1557.41 2386.27 1566.16 Q2386.27 1574.89 2383.2 1579.5 Q2380.14 1584.08 2374.33 1584.08 Q2368.52 1584.08 2365.44 1579.5 Q2362.39 1574.89 2362.39 1566.16 Q2362.39 1557.41 2365.44 1552.83 Q2368.52 1548.22 2374.33 1548.22 Z" fill="#000000" fill-rule="nonzero" fill-opacity="1" /><polyline clip-path="url(#clip882)" style="stroke:#000000; stroke-linecap:round; stroke-linejoin:round; stroke-width:2; stroke-opacity:0.1; fill:none" points="86.9921,1521.01 2352.76,1521.01 "/>
<polyline clip-path="url(#clip882)" style="stroke:#000000; stroke-linecap:round; stroke-linejoin:round; stroke-width:2; stroke-opacity:0.1; fill:none" points="86.9921,1140.68 2352.76,1140.68 "/>
<polyline clip-path="url(#clip882)" style="stroke:#000000; stroke-linecap:round; stroke-linejoin:round; stroke-width:2; stroke-opacity:0.1; fill:none" points="86.9921,760.356 2352.76,760.356 "/>
<polyline clip-path="url(#clip882)" style="stroke:#000000; stroke-linecap:round; stroke-linejoin:round; stroke-width:2; stroke-opacity:0.1; fill:none" points="86.9921,380.029 2352.76,380.029 "/>
<polyline clip-path="url(#clip880)" style="stroke:#000000; stroke-linecap:round; stroke-linejoin:round; stroke-width:4; stroke-opacity:1; fill:none" points="86.9921,1521.01 86.9921,47.2441 "/>
<polyline clip-path="url(#clip880)" style="stroke:#000000; stroke-linecap:round; stroke-linejoin:round; stroke-width:4; stroke-opacity:1; fill:none" points="86.9921,1521.01 105.89,1521.01 "/>
<polyline clip-path="url(#clip880)" style="stroke:#000000; stroke-linecap:round; stroke-linejoin:round; stroke-width:4; stroke-opacity:1; fill:none" points="86.9921,1140.68 105.89,1140.68 "/>
<polyline clip-path="url(#clip880)" style="stroke:#000000; stroke-linecap:round; stroke-linejoin:round; stroke-width:4; stroke-opacity:1; fill:none" points="86.9921,760.356 105.89,760.356 "/>
<polyline clip-path="url(#clip880)" style="stroke:#000000; stroke-linecap:round; stroke-linejoin:round; stroke-width:4; stroke-opacity:1; fill:none" points="86.9921,380.029 105.89,380.029 "/>
<path clip-path="url(#clip880)" d="M39.0477 1506.81 Q35.4367 1506.81 33.608 1510.37 Q31.8024 1513.91 31.8024 1521.04 Q31.8024 1528.15 33.608 1531.71 Q35.4367 1535.26 39.0477 1535.26 Q42.682 1535.26 44.4875 1531.71 Q46.3162 1528.15 46.3162 1521.04 Q46.3162 1513.91 44.4875 1510.37 Q42.682 1506.81 39.0477 1506.81 M39.0477 1503.1 Q44.8579 1503.1 47.9134 1507.71 Q50.9921 1512.29 50.9921 1521.04 Q50.9921 1529.77 47.9134 1534.38 Q44.8579 1538.96 39.0477 1538.96 Q33.2376 1538.96 30.1589 1534.38 Q27.1034 1529.77 27.1034 1521.04 Q27.1034 1512.29 30.1589 1507.71 Q33.2376 1503.1 39.0477 1503.1 Z" fill="#000000" fill-rule="nonzero" fill-opacity="1" /><path clip-path="url(#clip880)" d="M34.6728 1154.03 L50.9921 1154.03 L50.9921 1157.96 L29.0478 1157.96 L29.0478 1154.03 Q31.7098 1151.27 36.2931 1146.64 Q40.8996 1141.99 42.0801 1140.65 Q44.3255 1138.12 45.2051 1136.39 Q46.1079 1134.63 46.1079 1132.94 Q46.1079 1130.18 44.1635 1128.45 Q42.2422 1126.71 39.1403 1126.71 Q36.9413 1126.71 34.4876 1127.48 Q32.057 1128.24 29.2793 1129.79 L29.2793 1125.07 Q32.1033 1123.93 34.557 1123.36 Q37.0107 1122.78 39.0477 1122.78 Q44.4181 1122.78 47.6125 1125.46 Q50.8069 1128.15 50.8069 1132.64 Q50.8069 1134.77 49.9968 1136.69 Q49.2097 1138.59 47.1033 1141.18 Q46.5246 1141.85 43.4227 1145.07 Q40.3209 1148.26 34.6728 1154.03 Z" fill="#000000" fill-rule="nonzero" fill-opacity="1" /><path clip-path="url(#clip880)" d="M41.4088 747.15 L29.6034 765.599 L41.4088 765.599 L41.4088 747.15 M40.182 743.076 L46.0616 743.076 L46.0616 765.599 L50.9921 765.599 L50.9921 769.487 L46.0616 769.487 L46.0616 777.636 L41.4088 777.636 L41.4088 769.487 L25.8071 769.487 L25.8071 764.974 L40.182 743.076 Z" fill="#000000" fill-rule="nonzero" fill-opacity="1" /><path clip-path="url(#clip880)" d="M39.4644 378.166 Q36.3163 378.166 34.4644 380.319 Q32.6357 382.472 32.6357 386.222 Q32.6357 389.948 34.4644 392.124 Q36.3163 394.277 39.4644 394.277 Q42.6125 394.277 44.4412 392.124 Q46.2931 389.948 46.2931 386.222 Q46.2931 382.472 44.4412 380.319 Q42.6125 378.166 39.4644 378.166 M48.7468 363.513 L48.7468 367.773 Q46.9875 366.939 45.182 366.499 Q43.3996 366.06 41.6403 366.06 Q37.0107 366.06 34.557 369.185 Q32.1265 372.31 31.7793 378.629 Q33.145 376.615 35.2052 375.55 Q37.2653 374.462 39.7422 374.462 Q44.9505 374.462 47.9597 377.634 Q50.9921 380.782 50.9921 386.222 Q50.9921 391.546 47.844 394.763 Q44.6959 397.981 39.4644 397.981 Q33.4691 397.981 30.2978 393.397 Q27.1265 388.791 27.1265 380.064 Q27.1265 371.87 31.0154 367.009 Q34.9042 362.124 41.4551 362.124 Q43.2144 362.124 44.9968 362.472 Q46.8023 362.819 48.7468 363.513 Z" fill="#000000" fill-rule="nonzero" fill-opacity="1" /><path clip-path="url(#clip882)" d="M177.623 1492.48 L177.623 1521.01 L222.938 1521.01 L222.938 1492.48 L177.623 1492.48 L177.623 1492.48  Z" fill="#009af9" fill-rule="evenodd" fill-opacity="1"/>
<polyline clip-path="url(#clip882)" style="stroke:#000000; stroke-linecap:round; stroke-linejoin:round; stroke-width:4; stroke-opacity:1; fill:none" points="177.623,1492.48 177.623,1521.01 222.938,1521.01 222.938,1492.48 177.623,1492.48 "/>
<path clip-path="url(#clip882)" d="M222.938 1378.39 L222.938 1521.01 L268.253 1521.01 L268.253 1378.39 L222.938 1378.39 L222.938 1378.39  Z" fill="#009af9" fill-rule="evenodd" fill-opacity="1"/>
<polyline clip-path="url(#clip882)" style="stroke:#000000; stroke-linecap:round; stroke-linejoin:round; stroke-width:4; stroke-opacity:1; fill:none" points="222.938,1378.39 222.938,1521.01 268.253,1521.01 268.253,1378.39 222.938,1378.39 "/>
<path clip-path="url(#clip882)" d="M268.253 1026.58 L268.253 1521.01 L313.569 1521.01 L313.569 1026.58 L268.253 1026.58 L268.253 1026.58  Z" fill="#009af9" fill-rule="evenodd" fill-opacity="1"/>
<polyline clip-path="url(#clip882)" style="stroke:#000000; stroke-linecap:round; stroke-linejoin:round; stroke-width:4; stroke-opacity:1; fill:none" points="268.253,1026.58 268.253,1521.01 313.569,1521.01 313.569,1026.58 268.253,1026.58 "/>
<path clip-path="url(#clip882)" d="M313.569 750.847 L313.569 1521.01 L358.884 1521.01 L358.884 750.847 L313.569 750.847 L313.569 750.847  Z" fill="#009af9" fill-rule="evenodd" fill-opacity="1"/>
<polyline clip-path="url(#clip882)" style="stroke:#000000; stroke-linecap:round; stroke-linejoin:round; stroke-width:4; stroke-opacity:1; fill:none" points="313.569,750.847 313.569,1521.01 358.884,1521.01 358.884,750.847 313.569,750.847 "/>
<path clip-path="url(#clip882)" d="M358.884 427.57 L358.884 1521.01 L404.199 1521.01 L404.199 427.57 L358.884 427.57 L358.884 427.57  Z" fill="#009af9" fill-rule="evenodd" fill-opacity="1"/>
<polyline clip-path="url(#clip882)" style="stroke:#000000; stroke-linecap:round; stroke-linejoin:round; stroke-width:4; stroke-opacity:1; fill:none" points="358.884,427.57 358.884,1521.01 404.199,1521.01 404.199,427.57 358.884,427.57 "/>
<path clip-path="url(#clip882)" d="M404.199 85.2767 L404.199 1521.01 L449.514 1521.01 L449.514 85.2767 L404.199 85.2767 L404.199 85.2767  Z" fill="#009af9" fill-rule="evenodd" fill-opacity="1"/>
<polyline clip-path="url(#clip882)" style="stroke:#000000; stroke-linecap:round; stroke-linejoin:round; stroke-width:4; stroke-opacity:1; fill:none" points="404.199,85.2767 404.199,1521.01 449.514,1521.01 449.514,85.2767 404.199,85.2767 "/>
<path clip-path="url(#clip882)" d="M449.514 47.2441 L449.514 1521.01 L494.83 1521.01 L494.83 47.2441 L449.514 47.2441 L449.514 47.2441  Z" fill="#009af9" fill-rule="evenodd" fill-opacity="1"/>
<polyline clip-path="url(#clip882)" style="stroke:#000000; stroke-linecap:round; stroke-linejoin:round; stroke-width:4; stroke-opacity:1; fill:none" points="449.514,47.2441 449.514,1521.01 494.83,1521.01 494.83,47.2441 449.514,47.2441 "/>
<path clip-path="url(#clip882)" d="M494.83 617.733 L494.83 1521.01 L540.145 1521.01 L540.145 617.733 L494.83 617.733 L494.83 617.733  Z" fill="#009af9" fill-rule="evenodd" fill-opacity="1"/>
<polyline clip-path="url(#clip882)" style="stroke:#000000; stroke-linecap:round; stroke-linejoin:round; stroke-width:4; stroke-opacity:1; fill:none" points="494.83,617.733 494.83,1521.01 540.145,1521.01 540.145,617.733 494.83,617.733 "/>
<path clip-path="url(#clip882)" d="M540.145 579.701 L540.145 1521.01 L585.46 1521.01 L585.46 579.701 L540.145 579.701 L540.145 579.701  Z" fill="#009af9" fill-rule="evenodd" fill-opacity="1"/>
<polyline clip-path="url(#clip882)" style="stroke:#000000; stroke-linecap:round; stroke-linejoin:round; stroke-width:4; stroke-opacity:1; fill:none" points="540.145,579.701 540.145,1521.01 585.46,1521.01 585.46,579.701 540.145,579.701 "/>
<path clip-path="url(#clip882)" d="M585.46 845.929 L585.46 1521.01 L630.775 1521.01 L630.775 845.929 L585.46 845.929 L585.46 845.929  Z" fill="#009af9" fill-rule="evenodd" fill-opacity="1"/>
<polyline clip-path="url(#clip882)" style="stroke:#000000; stroke-linecap:round; stroke-linejoin:round; stroke-width:4; stroke-opacity:1; fill:none" points="585.46,845.929 585.46,1521.01 630.775,1521.01 630.775,845.929 585.46,845.929 "/>
<path clip-path="url(#clip882)" d="M630.775 883.962 L630.775 1521.01 L676.091 1521.01 L676.091 883.962 L630.775 883.962 L630.775 883.962  Z" fill="#009af9" fill-rule="evenodd" fill-opacity="1"/>
<polyline clip-path="url(#clip882)" style="stroke:#000000; stroke-linecap:round; stroke-linejoin:round; stroke-width:4; stroke-opacity:1; fill:none" points="630.775,883.962 630.775,1521.01 676.091,1521.01 676.091,883.962 630.775,883.962 "/>
<path clip-path="url(#clip882)" d="M676.091 1178.71 L676.091 1521.01 L721.406 1521.01 L721.406 1178.71 L676.091 1178.71 L676.091 1178.71  Z" fill="#009af9" fill-rule="evenodd" fill-opacity="1"/>
<polyline clip-path="url(#clip882)" style="stroke:#000000; stroke-linecap:round; stroke-linejoin:round; stroke-width:4; stroke-opacity:1; fill:none" points="676.091,1178.71 676.091,1521.01 721.406,1521.01 721.406,1178.71 676.091,1178.71 "/>
<path clip-path="url(#clip882)" d="M721.406 1292.81 L721.406 1521.01 L766.721 1521.01 L766.721 1292.81 L721.406 1292.81 L721.406 1292.81  Z" fill="#009af9" fill-rule="evenodd" fill-opacity="1"/>
<polyline clip-path="url(#clip882)" style="stroke:#000000; stroke-linecap:round; stroke-linejoin:round; stroke-width:4; stroke-opacity:1; fill:none" points="721.406,1292.81 721.406,1521.01 766.721,1521.01 766.721,1292.81 721.406,1292.81 "/>
<path clip-path="url(#clip882)" d="M766.721 1435.43 L766.721 1521.01 L812.037 1521.01 L812.037 1435.43 L766.721 1435.43 L766.721 1435.43  Z" fill="#009af9" fill-rule="evenodd" fill-opacity="1"/>
<polyline clip-path="url(#clip882)" style="stroke:#000000; stroke-linecap:round; stroke-linejoin:round; stroke-width:4; stroke-opacity:1; fill:none" points="766.721,1435.43 766.721,1521.01 812.037,1521.01 812.037,1435.43 766.721,1435.43 "/>
<path clip-path="url(#clip882)" d="M812.037 1359.37 L812.037 1521.01 L857.352 1521.01 L857.352 1359.37 L812.037 1359.37 L812.037 1359.37  Z" fill="#009af9" fill-rule="evenodd" fill-opacity="1"/>
<polyline clip-path="url(#clip882)" style="stroke:#000000; stroke-linecap:round; stroke-linejoin:round; stroke-width:4; stroke-opacity:1; fill:none" points="812.037,1359.37 812.037,1521.01 857.352,1521.01 857.352,1359.37 812.037,1359.37 "/>
<path clip-path="url(#clip882)" d="M857.352 1454.45 L857.352 1521.01 L902.667 1521.01 L902.667 1454.45 L857.352 1454.45 L857.352 1454.45  Z" fill="#009af9" fill-rule="evenodd" fill-opacity="1"/>
<polyline clip-path="url(#clip882)" style="stroke:#000000; stroke-linecap:round; stroke-linejoin:round; stroke-width:4; stroke-opacity:1; fill:none" points="857.352,1454.45 857.352,1521.01 902.667,1521.01 902.667,1454.45 857.352,1454.45 "/>
<path clip-path="url(#clip882)" d="M902.667 1511.5 L902.667 1521.01 L947.982 1521.01 L947.982 1511.5 L902.667 1511.5 L902.667 1511.5  Z" fill="#009af9" fill-rule="evenodd" fill-opacity="1"/>
<polyline clip-path="url(#clip882)" style="stroke:#000000; stroke-linecap:round; stroke-linejoin:round; stroke-width:4; stroke-opacity:1; fill:none" points="902.667,1511.5 902.667,1521.01 947.982,1521.01 947.982,1511.5 902.667,1511.5 "/>
<path clip-path="url(#clip882)" d="M947.982 1511.5 L947.982 1521.01 L993.298 1521.01 L993.298 1511.5 L947.982 1511.5 L947.982 1511.5  Z" fill="#009af9" fill-rule="evenodd" fill-opacity="1"/>
<polyline clip-path="url(#clip882)" style="stroke:#000000; stroke-linecap:round; stroke-linejoin:round; stroke-width:4; stroke-opacity:1; fill:none" points="947.982,1511.5 947.982,1521.01 993.298,1521.01 993.298,1511.5 947.982,1511.5 "/>
<path clip-path="url(#clip882)" d="M993.298 1511.5 L993.298 1521.01 L1038.61 1521.01 L1038.61 1511.5 L993.298 1511.5 L993.298 1511.5  Z" fill="#009af9" fill-rule="evenodd" fill-opacity="1"/>
<polyline clip-path="url(#clip882)" style="stroke:#000000; stroke-linecap:round; stroke-linejoin:round; stroke-width:4; stroke-opacity:1; fill:none" points="993.298,1511.5 993.298,1521.01 1038.61,1521.01 1038.61,1511.5 993.298,1511.5 "/>
<circle clip-path="url(#clip882)" style="fill:#009af9; stroke:none; fill-opacity:0" cx="200.28" cy="1492.48" r="2"/>
<circle clip-path="url(#clip882)" style="fill:#009af9; stroke:none; fill-opacity:0" cx="245.596" cy="1378.39" r="2"/>
<circle clip-path="url(#clip882)" style="fill:#009af9; stroke:none; fill-opacity:0" cx="290.911" cy="1026.58" r="2"/>
<circle clip-path="url(#clip882)" style="fill:#009af9; stroke:none; fill-opacity:0" cx="336.226" cy="750.847" r="2"/>
<circle clip-path="url(#clip882)" style="fill:#009af9; stroke:none; fill-opacity:0" cx="381.541" cy="427.57" r="2"/>
<circle clip-path="url(#clip882)" style="fill:#009af9; stroke:none; fill-opacity:0" cx="426.857" cy="85.2767" r="2"/>
<circle clip-path="url(#clip882)" style="fill:#009af9; stroke:none; fill-opacity:0" cx="472.172" cy="47.2441" r="2"/>
<circle clip-path="url(#clip882)" style="fill:#009af9; stroke:none; fill-opacity:0" cx="517.487" cy="617.733" r="2"/>
<circle clip-path="url(#clip882)" style="fill:#009af9; stroke:none; fill-opacity:0" cx="562.803" cy="579.701" r="2"/>
<circle clip-path="url(#clip882)" style="fill:#009af9; stroke:none; fill-opacity:0" cx="608.118" cy="845.929" r="2"/>
<circle clip-path="url(#clip882)" style="fill:#009af9; stroke:none; fill-opacity:0" cx="653.433" cy="883.962" r="2"/>
<circle clip-path="url(#clip882)" style="fill:#009af9; stroke:none; fill-opacity:0" cx="698.748" cy="1178.71" r="2"/>
<circle clip-path="url(#clip882)" style="fill:#009af9; stroke:none; fill-opacity:0" cx="744.064" cy="1292.81" r="2"/>
<circle clip-path="url(#clip882)" style="fill:#009af9; stroke:none; fill-opacity:0" cx="789.379" cy="1435.43" r="2"/>
<circle clip-path="url(#clip882)" style="fill:#009af9; stroke:none; fill-opacity:0" cx="834.694" cy="1359.37" r="2"/>
<circle clip-path="url(#clip882)" style="fill:#009af9; stroke:none; fill-opacity:0" cx="880.009" cy="1454.45" r="2"/>
<circle clip-path="url(#clip882)" style="fill:#009af9; stroke:none; fill-opacity:0" cx="925.325" cy="1511.5" r="2"/>
<circle clip-path="url(#clip882)" style="fill:#009af9; stroke:none; fill-opacity:0" cx="970.64" cy="1511.5" r="2"/>
<circle clip-path="url(#clip882)" style="fill:#009af9; stroke:none; fill-opacity:0" cx="1015.96" cy="1511.5" r="2"/>
<polyline clip-path="url(#clip882)" style="stroke:#e26f46; stroke-linecap:round; stroke-linejoin:round; stroke-width:4; stroke-opacity:1; fill:none" points="86.9921,1521.01 90.68,1521.01 94.3678,1521 98.0556,1520.99 101.743,1520.96 118.793,1520.52 135.843,1519.28 152.893,1516.88 169.942,1512.98 178.467,1510.38 186.992,1507.32 195.517,1503.75 204.042,1499.66 212.567,1495.03 221.091,1489.84 229.616,1484.08 238.141,1477.74 248.387,1469.35 258.633,1460.1 268.88,1450 279.126,1439.06 289.372,1427.3 299.618,1414.73 309.864,1401.39 320.11,1387.3 337.436,1361.91 354.762,1334.73 372.088,1306.01 389.414,1276.03 427.056,1208.07 464.698,1138.98 482.049,1107.7 499.4,1077.22 516.752,1047.86 534.103,1019.91 543.404,1005.6 552.705,991.804 562.006,978.568 571.307,965.923 580.608,953.899 589.91,942.525 599.211,931.827 608.512,921.83 619.288,911.15 630.065,901.466 640.841,892.801 651.617,885.175 662.393,878.6 673.17,873.086 683.946,868.637 694.722,865.253 704.299,863.137 713.876,861.852 723.452,861.39 733.029,861.741 742.606,862.891 752.183,864.825 761.759,867.525 771.336,870.972 779.734,874.593 788.132,878.757 796.53,883.446 804.928,888.646 813.326,894.336 821.723,900.499 830.121,907.115 838.519,914.164 847.675,922.32 856.831,930.94 865.987,939.997 875.143,949.463 893.455,969.508 911.767,990.85 930.188,1013.4 948.609,1036.8 967.029,1060.84 985.45,1085.3 1026.18,1139.89 1066.92,1193.59 1086.29,1218.34 1105.67,1242.37 1125.05,1265.55 1144.43,1287.78 1164.58,1309.79 1184.73,1330.6 1204.88,1350.17 1225.02,1368.45 1241.99,1382.83 1258.95,1396.29 1275.91,1408.83 1292.87,1420.47 1313.58,1433.5 1334.28,1445.26 1354.99,1455.81 1375.7,1465.22 1394.67,1472.9 1413.64,1479.74 1432.61,1485.8 1451.58,1491.13 1469.1,1495.47 1486.62,1499.28 1504.14,1502.62 1521.66,1505.53 1557.15,1510.28 1592.64,1513.75 1632.42,1516.47 1672.2,1518.27 1708.25,1519.34 1744.29,1520.02 1826.83,1520.76 1903.26,1520.95 1978.6,1521 2051.76,1521.01 2126.75,1521.01 2208.91,1521.01 2328.27,1521.01 2352.76,1521.01 "/>
<path clip-path="url(#clip880)" d="M1780.33 251.89 L2277.23 251.89 L2277.23 96.3696 L1780.33 96.3696  Z" fill="#ffffff" fill-rule="evenodd" fill-opacity="1"/>
<polyline clip-path="url(#clip880)" style="stroke:#000000; stroke-linecap:round; stroke-linejoin:round; stroke-width:4; stroke-opacity:1; fill:none" points="1780.33,251.89 2277.23,251.89 2277.23,96.3696 1780.33,96.3696 1780.33,251.89 "/>
<path clip-path="url(#clip880)" d="M1805.51 168.946 L1956.56 168.946 L1956.56 127.474 L1805.51 127.474 L1805.51 168.946  Z" fill="#009af9" fill-rule="evenodd" fill-opacity="1"/>
<polyline clip-path="url(#clip880)" style="stroke:#000000; stroke-linecap:round; stroke-linejoin:round; stroke-width:4; stroke-opacity:1; fill:none" points="1805.51,168.946 1956.56,168.946 1956.56,127.474 1805.51,127.474 1805.51,168.946 "/>
<path clip-path="url(#clip880)" d="M2000.16 140.328 L2000.16 144.355 Q1998.35 143.429 1996.41 142.967 Q1994.46 142.504 1992.38 142.504 Q1989.21 142.504 1987.61 143.476 Q1986.04 144.448 1986.04 146.392 Q1986.04 147.874 1987.17 148.73 Q1988.31 149.564 1991.73 150.328 L1993.19 150.652 Q1997.73 151.624 1999.63 153.406 Q2001.55 155.166 2001.55 158.337 Q2001.55 161.948 1998.68 164.054 Q1995.83 166.161 1990.83 166.161 Q1988.75 166.161 1986.48 165.744 Q1984.23 165.351 1981.73 164.54 L1981.73 160.142 Q1984.09 161.369 1986.39 161.994 Q1988.68 162.596 1990.92 162.596 Q1993.93 162.596 1995.55 161.578 Q1997.17 160.536 1997.17 158.661 Q1997.17 156.925 1995.99 155.999 Q1994.83 155.073 1990.88 154.216 L1989.39 153.869 Q1985.44 153.036 1983.68 151.323 Q1981.92 149.587 1981.92 146.578 Q1981.92 142.92 1984.51 140.93 Q1987.1 138.939 1991.87 138.939 Q1994.23 138.939 1996.32 139.286 Q1998.4 139.633 2000.16 140.328 Z" fill="#000000" fill-rule="nonzero" fill-opacity="1" /><path clip-path="url(#clip880)" d="M2008.33 139.564 L2012.59 139.564 L2012.59 165.49 L2008.33 165.49 L2008.33 139.564 M2008.33 129.471 L2012.59 129.471 L2012.59 134.865 L2008.33 134.865 L2008.33 129.471 Z" fill="#000000" fill-rule="nonzero" fill-opacity="1" /><path clip-path="url(#clip880)" d="M2041.69 144.541 Q2043.28 141.67 2045.51 140.305 Q2047.73 138.939 2050.74 138.939 Q2054.79 138.939 2056.99 141.786 Q2059.19 144.61 2059.19 149.841 L2059.19 165.49 L2054.9 165.49 L2054.9 149.98 Q2054.9 146.254 2053.58 144.448 Q2052.26 142.642 2049.56 142.642 Q2046.25 142.642 2044.32 144.842 Q2042.4 147.041 2042.4 150.837 L2042.4 165.49 L2038.12 165.49 L2038.12 149.98 Q2038.12 146.23 2036.8 144.448 Q2035.48 142.642 2032.73 142.642 Q2029.46 142.642 2027.54 144.865 Q2025.62 147.064 2025.62 150.837 L2025.62 165.49 L2021.34 165.49 L2021.34 139.564 L2025.62 139.564 L2025.62 143.592 Q2027.08 141.207 2029.12 140.073 Q2031.15 138.939 2033.95 138.939 Q2036.78 138.939 2038.75 140.374 Q2040.74 141.809 2041.69 144.541 Z" fill="#000000" fill-rule="nonzero" fill-opacity="1" /><path clip-path="url(#clip880)" d="M2067.24 155.258 L2067.24 139.564 L2071.5 139.564 L2071.5 155.096 Q2071.5 158.777 2072.94 160.628 Q2074.37 162.457 2077.24 162.457 Q2080.69 162.457 2082.68 160.258 Q2084.7 158.059 2084.7 154.263 L2084.7 139.564 L2088.95 139.564 L2088.95 165.49 L2084.7 165.49 L2084.7 161.508 Q2083.14 163.869 2081.08 165.027 Q2079.05 166.161 2076.34 166.161 Q2071.87 166.161 2069.56 163.383 Q2067.24 160.605 2067.24 155.258 M2077.96 138.939 L2077.96 138.939 Z" fill="#000000" fill-rule="nonzero" fill-opacity="1" /><path clip-path="url(#clip880)" d="M2097.73 129.471 L2101.99 129.471 L2101.99 165.49 L2097.73 165.49 L2097.73 129.471 Z" fill="#000000" fill-rule="nonzero" fill-opacity="1" /><path clip-path="url(#clip880)" d="M2122.68 152.457 Q2117.52 152.457 2115.53 153.638 Q2113.54 154.818 2113.54 157.666 Q2113.54 159.934 2115.02 161.277 Q2116.52 162.596 2119.09 162.596 Q2122.63 162.596 2124.76 160.096 Q2126.92 157.573 2126.92 153.406 L2126.92 152.457 L2122.68 152.457 M2131.18 150.698 L2131.18 165.49 L2126.92 165.49 L2126.92 161.554 Q2125.46 163.915 2123.28 165.05 Q2121.11 166.161 2117.96 166.161 Q2113.98 166.161 2111.62 163.939 Q2109.28 161.693 2109.28 157.943 Q2109.28 153.568 2112.19 151.346 Q2115.13 149.124 2120.94 149.124 L2126.92 149.124 L2126.92 148.707 Q2126.92 145.767 2124.97 144.17 Q2123.05 142.55 2119.56 142.55 Q2117.33 142.55 2115.23 143.082 Q2113.12 143.615 2111.18 144.679 L2111.18 140.744 Q2113.51 139.842 2115.71 139.402 Q2117.91 138.939 2120 138.939 Q2125.62 138.939 2128.4 141.855 Q2131.18 144.772 2131.18 150.698 Z" fill="#000000" fill-rule="nonzero" fill-opacity="1" /><path clip-path="url(#clip880)" d="M2144.16 132.203 L2144.16 139.564 L2152.94 139.564 L2152.94 142.874 L2144.16 142.874 L2144.16 156.948 Q2144.16 160.119 2145.02 161.022 Q2145.9 161.925 2148.56 161.925 L2152.94 161.925 L2152.94 165.49 L2148.56 165.49 Q2143.63 165.49 2141.75 163.661 Q2139.88 161.809 2139.88 156.948 L2139.88 142.874 L2136.75 142.874 L2136.75 139.564 L2139.88 139.564 L2139.88 132.203 L2144.16 132.203 Z" fill="#000000" fill-rule="nonzero" fill-opacity="1" /><path clip-path="url(#clip880)" d="M2158.54 139.564 L2162.8 139.564 L2162.8 165.49 L2158.54 165.49 L2158.54 139.564 M2158.54 129.471 L2162.8 129.471 L2162.8 134.865 L2158.54 134.865 L2158.54 129.471 Z" fill="#000000" fill-rule="nonzero" fill-opacity="1" /><path clip-path="url(#clip880)" d="M2181.75 142.55 Q2178.33 142.55 2176.34 145.235 Q2174.35 147.897 2174.35 152.55 Q2174.35 157.203 2176.31 159.888 Q2178.31 162.55 2181.75 162.55 Q2185.16 162.55 2187.15 159.865 Q2189.14 157.179 2189.14 152.55 Q2189.14 147.943 2187.15 145.258 Q2185.16 142.55 2181.75 142.55 M2181.75 138.939 Q2187.31 138.939 2190.48 142.55 Q2193.65 146.161 2193.65 152.55 Q2193.65 158.916 2190.48 162.55 Q2187.31 166.161 2181.75 166.161 Q2176.18 166.161 2173 162.55 Q2169.86 158.916 2169.86 152.55 Q2169.86 146.161 2173 142.55 Q2176.18 138.939 2181.75 138.939 Z" fill="#000000" fill-rule="nonzero" fill-opacity="1" /><path clip-path="url(#clip880)" d="M2222.26 149.841 L2222.26 165.49 L2218 165.49 L2218 149.98 Q2218 146.3 2216.57 144.471 Q2215.13 142.642 2212.26 142.642 Q2208.81 142.642 2206.82 144.842 Q2204.83 147.041 2204.83 150.837 L2204.83 165.49 L2200.55 165.49 L2200.55 139.564 L2204.83 139.564 L2204.83 143.592 Q2206.36 141.254 2208.42 140.096 Q2210.5 138.939 2213.21 138.939 Q2217.68 138.939 2219.97 141.717 Q2222.26 144.471 2222.26 149.841 Z" fill="#000000" fill-rule="nonzero" fill-opacity="1" /><polyline clip-path="url(#clip880)" style="stroke:#e26f46; stroke-linecap:round; stroke-linejoin:round; stroke-width:4; stroke-opacity:1; fill:none" points="1805.51,200.05 1956.56,200.05 "/>
<path clip-path="url(#clip880)" d="M1986.02 213.441 L1986.02 227.191 L1981.73 227.191 L1981.73 191.404 L1986.02 191.404 L1986.02 195.339 Q1987.36 193.024 1989.39 191.913 Q1991.45 190.779 1994.3 190.779 Q1999.02 190.779 2001.96 194.529 Q2004.93 198.279 2004.93 204.39 Q2004.93 210.501 2001.96 214.251 Q1999.02 218.001 1994.3 218.001 Q1991.45 218.001 1989.39 216.89 Q1987.36 215.755 1986.02 213.441 M2000.51 204.39 Q2000.51 199.691 1998.56 197.029 Q1996.64 194.344 1993.26 194.344 Q1989.88 194.344 1987.94 197.029 Q1986.02 199.691 1986.02 204.39 Q1986.02 209.089 1987.94 211.774 Q1989.88 214.436 1993.26 214.436 Q1996.64 214.436 1998.56 211.774 Q2000.51 209.089 2000.51 204.39 Z" fill="#000000" fill-rule="nonzero" fill-opacity="1" /><path clip-path="url(#clip880)" d="M2022.03 194.39 Q2018.61 194.39 2016.62 197.075 Q2014.63 199.737 2014.63 204.39 Q2014.63 209.043 2016.59 211.728 Q2018.58 214.39 2022.03 214.39 Q2025.44 214.39 2027.43 211.705 Q2029.42 209.019 2029.42 204.39 Q2029.42 199.783 2027.43 197.098 Q2025.44 194.39 2022.03 194.39 M2022.03 190.779 Q2027.59 190.779 2030.76 194.39 Q2033.93 198.001 2033.93 204.39 Q2033.93 210.756 2030.76 214.39 Q2027.59 218.001 2022.03 218.001 Q2016.45 218.001 2013.28 214.39 Q2010.14 210.756 2010.14 204.39 Q2010.14 198.001 2013.28 194.39 Q2016.45 190.779 2022.03 190.779 Z" fill="#000000" fill-rule="nonzero" fill-opacity="1" /><path clip-path="url(#clip880)" d="M2057.52 192.168 L2057.52 196.195 Q2055.71 195.269 2053.77 194.807 Q2051.82 194.344 2049.74 194.344 Q2046.57 194.344 2044.97 195.316 Q2043.4 196.288 2043.4 198.232 Q2043.4 199.714 2044.53 200.57 Q2045.67 201.404 2049.09 202.168 L2050.55 202.492 Q2055.09 203.464 2056.99 205.246 Q2058.91 207.006 2058.91 210.177 Q2058.91 213.788 2056.04 215.894 Q2053.19 218.001 2048.19 218.001 Q2046.11 218.001 2043.84 217.584 Q2041.59 217.191 2039.09 216.38 L2039.09 211.982 Q2041.45 213.209 2043.75 213.834 Q2046.04 214.436 2048.28 214.436 Q2051.29 214.436 2052.91 213.418 Q2054.53 212.376 2054.53 210.501 Q2054.53 208.765 2053.35 207.839 Q2052.2 206.913 2048.24 206.056 L2046.76 205.709 Q2042.8 204.876 2041.04 203.163 Q2039.28 201.427 2039.28 198.418 Q2039.28 194.76 2041.87 192.77 Q2044.46 190.779 2049.23 190.779 Q2051.59 190.779 2053.68 191.126 Q2055.76 191.473 2057.52 192.168 Z" fill="#000000" fill-rule="nonzero" fill-opacity="1" /><path clip-path="url(#clip880)" d="M2069.9 184.043 L2069.9 191.404 L2078.68 191.404 L2078.68 194.714 L2069.9 194.714 L2069.9 208.788 Q2069.9 211.959 2070.76 212.862 Q2071.64 213.765 2074.3 213.765 L2078.68 213.765 L2078.68 217.33 L2074.3 217.33 Q2069.37 217.33 2067.5 215.501 Q2065.62 213.649 2065.62 208.788 L2065.62 194.714 L2062.5 194.714 L2062.5 191.404 L2065.62 191.404 L2065.62 184.043 L2069.9 184.043 Z" fill="#000000" fill-rule="nonzero" fill-opacity="1" /><path clip-path="url(#clip880)" d="M2106.45 203.302 L2106.45 205.385 L2086.87 205.385 Q2087.15 209.783 2089.51 212.098 Q2091.89 214.39 2096.13 214.39 Q2098.58 214.39 2100.88 213.788 Q2103.19 213.186 2105.46 211.982 L2105.46 216.01 Q2103.17 216.982 2100.76 217.492 Q2098.35 218.001 2095.88 218.001 Q2089.67 218.001 2086.04 214.39 Q2082.43 210.779 2082.43 204.621 Q2082.43 198.256 2085.85 194.529 Q2089.3 190.779 2095.13 190.779 Q2100.37 190.779 2103.4 194.158 Q2106.45 197.515 2106.45 203.302 M2102.19 202.052 Q2102.15 198.557 2100.23 196.473 Q2098.33 194.39 2095.18 194.39 Q2091.62 194.39 2089.46 196.404 Q2087.33 198.418 2087.01 202.075 L2102.19 202.052 Z" fill="#000000" fill-rule="nonzero" fill-opacity="1" /><path clip-path="url(#clip880)" d="M2128.47 195.385 Q2127.75 194.969 2126.89 194.783 Q2126.06 194.575 2125.04 194.575 Q2121.43 194.575 2119.49 196.936 Q2117.57 199.274 2117.57 203.672 L2117.57 217.33 L2113.28 217.33 L2113.28 191.404 L2117.57 191.404 L2117.57 195.432 Q2118.91 193.07 2121.06 191.936 Q2123.21 190.779 2126.29 190.779 Q2126.73 190.779 2127.26 190.848 Q2127.8 190.895 2128.44 191.01 L2128.47 195.385 Z" fill="#000000" fill-rule="nonzero" fill-opacity="1" /><path clip-path="url(#clip880)" d="M2132.94 191.404 L2137.19 191.404 L2137.19 217.33 L2132.94 217.33 L2132.94 191.404 M2132.94 181.311 L2137.19 181.311 L2137.19 186.705 L2132.94 186.705 L2132.94 181.311 Z" fill="#000000" fill-rule="nonzero" fill-opacity="1" /><path clip-path="url(#clip880)" d="M2156.15 194.39 Q2152.73 194.39 2150.74 197.075 Q2148.75 199.737 2148.75 204.39 Q2148.75 209.043 2150.71 211.728 Q2152.7 214.39 2156.15 214.39 Q2159.56 214.39 2161.55 211.705 Q2163.54 209.019 2163.54 204.39 Q2163.54 199.783 2161.55 197.098 Q2159.56 194.39 2156.15 194.39 M2156.15 190.779 Q2161.71 190.779 2164.88 194.39 Q2168.05 198.001 2168.05 204.39 Q2168.05 210.756 2164.88 214.39 Q2161.71 218.001 2156.15 218.001 Q2150.57 218.001 2147.4 214.39 Q2144.25 210.756 2144.25 204.39 Q2144.25 198.001 2147.4 194.39 Q2150.57 190.779 2156.15 190.779 Z" fill="#000000" fill-rule="nonzero" fill-opacity="1" /><path clip-path="url(#clip880)" d="M2190.13 195.385 Q2189.42 194.969 2188.56 194.783 Q2187.73 194.575 2186.71 194.575 Q2183.1 194.575 2181.15 196.936 Q2179.23 199.274 2179.23 203.672 L2179.23 217.33 L2174.95 217.33 L2174.95 191.404 L2179.23 191.404 L2179.23 195.432 Q2180.57 193.07 2182.73 191.936 Q2184.88 190.779 2187.96 190.779 Q2188.4 190.779 2188.93 190.848 Q2189.46 190.895 2190.11 191.01 L2190.13 195.385 Z" fill="#000000" fill-rule="nonzero" fill-opacity="1" /><path clip-path="url(#clip880)" d="M2204.83 181.358 Q2201.73 186.682 2200.23 191.89 Q2198.72 197.098 2198.72 202.445 Q2198.72 207.793 2200.23 213.047 Q2201.75 218.279 2204.83 223.58 L2201.13 223.58 Q2197.66 218.14 2195.92 212.885 Q2194.21 207.631 2194.21 202.445 Q2194.21 197.283 2195.92 192.052 Q2197.63 186.82 2201.13 181.358 L2204.83 181.358 Z" fill="#000000" fill-rule="nonzero" fill-opacity="1" /><path clip-path="url(#clip880)" d="M2230.5 200.894 L2215.76 200.894 Q2216.11 207.816 2217.7 210.756 Q2219.69 214.367 2223.14 214.367 Q2226.62 214.367 2228.54 210.732 Q2230.23 207.538 2230.5 200.894 M2230.44 196.959 Q2229.79 190.385 2228.54 188.07 Q2226.55 184.413 2223.14 184.413 Q2219.6 184.413 2217.73 188.024 Q2216.25 190.941 2215.81 196.959 L2230.44 196.959 M2223.14 180.941 Q2228.7 180.941 2231.87 185.848 Q2235.04 190.732 2235.04 199.39 Q2235.04 208.024 2231.87 212.931 Q2228.7 217.862 2223.14 217.862 Q2217.56 217.862 2214.42 212.931 Q2211.25 208.024 2211.25 199.39 Q2211.25 190.732 2214.42 185.848 Q2217.56 180.941 2223.14 180.941 Z" fill="#000000" fill-rule="nonzero" fill-opacity="1" /><path clip-path="url(#clip880)" d="M2241.43 181.358 L2245.13 181.358 Q2248.61 186.82 2250.32 192.052 Q2252.06 197.283 2252.06 202.445 Q2252.06 207.631 2250.32 212.885 Q2248.61 218.14 2245.13 223.58 L2241.43 223.58 Q2244.51 218.279 2246.01 213.047 Q2247.54 207.793 2247.54 202.445 Q2247.54 197.098 2246.01 191.89 Q2244.51 186.682 2241.43 181.358 Z" fill="#000000" fill-rule="nonzero" fill-opacity="1" /></svg>
