<?xml version="1.0" encoding="utf-8"?>
<svg xmlns="http://www.w3.org/2000/svg" xmlns:xlink="http://www.w3.org/1999/xlink" width="600" height="400" viewBox="0 0 2400 1600">
<defs>
  <clipPath id="clip130">
    <rect x="0" y="0" width="2400" height="1600"/>
  </clipPath>
</defs>
<path clip-path="url(#clip130)" d="M0 1600 L2400 1600 L2400 0 L0 0  Z" fill="#ffffff" fill-rule="evenodd" fill-opacity="1"/>
<defs>
  <clipPath id="clip131">
    <rect x="480" y="0" width="1681" height="1600"/>
  </clipPath>
</defs>
<path clip-path="url(#clip130)" d="M86.9921 1521.01 L2352.76 1521.01 L2352.76 47.2441 L86.9921 47.2441  Z" fill="#ffffff" fill-rule="evenodd" fill-opacity="1"/>
<defs>
  <clipPath id="clip132">
    <rect x="86" y="47" width="2267" height="1475"/>
  </clipPath>
</defs>
<polyline clip-path="url(#clip132)" style="stroke:#000000; stroke-linecap:round; stroke-linejoin:round; stroke-width:2; stroke-opacity:0.1; fill:none" points="344.731,1521.01 344.731,47.2441 "/>
<polyline clip-path="url(#clip132)" style="stroke:#000000; stroke-linecap:round; stroke-linejoin:round; stroke-width:2; stroke-opacity:0.1; fill:none" points="681.324,1521.01 681.324,47.2441 "/>
<polyline clip-path="url(#clip132)" style="stroke:#000000; stroke-linecap:round; stroke-linejoin:round; stroke-width:2; stroke-opacity:0.1; fill:none" points="1017.92,1521.01 1017.92,47.2441 "/>
<polyline clip-path="url(#clip132)" style="stroke:#000000; stroke-linecap:round; stroke-linejoin:round; stroke-width:2; stroke-opacity:0.1; fill:none" points="1354.51,1521.01 1354.51,47.2441 "/>
<polyline clip-path="url(#clip132)" style="stroke:#000000; stroke-linecap:round; stroke-linejoin:round; stroke-width:2; stroke-opacity:0.1; fill:none" points="1691.11,1521.01 1691.11,47.2441 "/>
<polyline clip-path="url(#clip132)" style="stroke:#000000; stroke-linecap:round; stroke-linejoin:round; stroke-width:2; stroke-opacity:0.1; fill:none" points="2027.7,1521.01 2027.7,47.2441 "/>
<polyline clip-path="url(#clip130)" style="stroke:#000000; stroke-linecap:round; stroke-linejoin:round; stroke-width:4; stroke-opacity:1; fill:none" points="86.9921,1521.01 2352.76,1521.01 "/>
<polyline clip-path="url(#clip130)" style="stroke:#000000; stroke-linecap:round; stroke-linejoin:round; stroke-width:4; stroke-opacity:1; fill:none" points="344.731,1521.01 344.731,1502.11 "/>
<polyline clip-path="url(#clip130)" style="stroke:#000000; stroke-linecap:round; stroke-linejoin:round; stroke-width:4; stroke-opacity:1; fill:none" points="681.324,1521.01 681.324,1502.11 "/>
<polyline clip-path="url(#clip130)" style="stroke:#000000; stroke-linecap:round; stroke-linejoin:round; stroke-width:4; stroke-opacity:1; fill:none" points="1017.92,1521.01 1017.92,1502.11 "/>
<polyline clip-path="url(#clip130)" style="stroke:#000000; stroke-linecap:round; stroke-linejoin:round; stroke-width:4; stroke-opacity:1; fill:none" points="1354.51,1521.01 1354.51,1502.11 "/>
<polyline clip-path="url(#clip130)" style="stroke:#000000; stroke-linecap:round; stroke-linejoin:round; stroke-width:4; stroke-opacity:1; fill:none" points="1691.11,1521.01 1691.11,1502.11 "/>
<polyline clip-path="url(#clip130)" style="stroke:#000000; stroke-linecap:round; stroke-linejoin:round; stroke-width:4; stroke-opacity:1; fill:none" points="2027.7,1521.01 2027.7,1502.11 "/>
<path clip-path="url(#clip130)" d="M291.259 1566.58 L320.934 1566.58 L320.934 1570.51 L291.259 1570.51 L291.259 1566.58 Z" fill="#000000" fill-rule="nonzero" fill-opacity="1" /><path clip-path="url(#clip130)" d="M331.073 1548.85 L349.43 1548.85 L349.43 1552.78 L335.356 1552.78 L335.356 1561.26 Q336.374 1560.91 337.393 1560.75 Q338.411 1560.56 339.43 1560.56 Q345.217 1560.56 348.596 1563.73 Q351.976 1566.9 351.976 1572.32 Q351.976 1577.9 348.504 1581 Q345.032 1584.08 338.712 1584.08 Q336.536 1584.08 334.268 1583.71 Q332.022 1583.34 329.615 1582.6 L329.615 1577.9 Q331.698 1579.03 333.92 1579.59 Q336.143 1580.14 338.62 1580.14 Q342.624 1580.14 344.962 1578.04 Q347.3 1575.93 347.3 1572.32 Q347.3 1568.71 344.962 1566.6 Q342.624 1564.5 338.62 1564.5 Q336.745 1564.5 334.87 1564.91 Q333.018 1565.33 331.073 1566.21 L331.073 1548.85 Z" fill="#000000" fill-rule="nonzero" fill-opacity="1" /><path clip-path="url(#clip130)" d="M361.189 1577.53 L366.073 1577.53 L366.073 1583.41 L361.189 1583.41 L361.189 1577.53 Z" fill="#000000" fill-rule="nonzero" fill-opacity="1" /><path clip-path="url(#clip130)" d="M386.258 1551.93 Q382.647 1551.93 380.818 1555.49 Q379.013 1559.03 379.013 1566.16 Q379.013 1573.27 380.818 1576.83 Q382.647 1580.38 386.258 1580.38 Q389.892 1580.38 391.698 1576.83 Q393.527 1573.27 393.527 1566.16 Q393.527 1559.03 391.698 1555.49 Q389.892 1551.93 386.258 1551.93 M386.258 1548.22 Q392.068 1548.22 395.124 1552.83 Q398.203 1557.41 398.203 1566.16 Q398.203 1574.89 395.124 1579.5 Q392.068 1584.08 386.258 1584.08 Q380.448 1584.08 377.369 1579.5 Q374.314 1574.89 374.314 1566.16 Q374.314 1557.41 377.369 1552.83 Q380.448 1548.22 386.258 1548.22 Z" fill="#000000" fill-rule="nonzero" fill-opacity="1" /><path clip-path="url(#clip130)" d="M628.35 1566.58 L658.026 1566.58 L658.026 1570.51 L628.35 1570.51 L628.35 1566.58 Z" fill="#000000" fill-rule="nonzero" fill-opacity="1" /><path clip-path="url(#clip130)" d="M672.146 1579.47 L688.465 1579.47 L688.465 1583.41 L666.521 1583.41 L666.521 1579.47 Q669.183 1576.72 673.766 1572.09 Q678.373 1567.44 679.553 1566.09 Q681.799 1563.57 682.678 1561.83 Q683.581 1560.07 683.581 1558.38 Q683.581 1555.63 681.637 1553.89 Q679.715 1552.16 676.614 1552.16 Q674.415 1552.16 671.961 1552.92 Q669.53 1553.69 666.753 1555.24 L666.753 1550.51 Q669.577 1549.38 672.03 1548.8 Q674.484 1548.22 676.521 1548.22 Q681.891 1548.22 685.086 1550.91 Q688.28 1553.59 688.28 1558.08 Q688.28 1560.21 687.47 1562.13 Q686.683 1564.03 684.577 1566.63 Q683.998 1567.3 680.896 1570.51 Q677.794 1573.71 672.146 1579.47 Z" fill="#000000" fill-rule="nonzero" fill-opacity="1" /><path clip-path="url(#clip130)" d="M698.28 1577.53 L703.164 1577.53 L703.164 1583.41 L698.28 1583.41 L698.28 1577.53 Z" fill="#000000" fill-rule="nonzero" fill-opacity="1" /><path clip-path="url(#clip130)" d="M713.396 1548.85 L731.752 1548.85 L731.752 1552.78 L717.678 1552.78 L717.678 1561.26 Q718.697 1560.91 719.715 1560.75 Q720.734 1560.56 721.752 1560.56 Q727.539 1560.56 730.919 1563.73 Q734.298 1566.9 734.298 1572.32 Q734.298 1577.9 730.826 1581 Q727.354 1584.08 721.035 1584.08 Q718.859 1584.08 716.59 1583.71 Q714.345 1583.34 711.937 1582.6 L711.937 1577.9 Q714.021 1579.03 716.243 1579.59 Q718.465 1580.14 720.942 1580.14 Q724.947 1580.14 727.285 1578.04 Q729.623 1575.93 729.623 1572.32 Q729.623 1568.71 727.285 1566.6 Q724.947 1564.5 720.942 1564.5 Q719.067 1564.5 717.192 1564.91 Q715.34 1565.33 713.396 1566.21 L713.396 1548.85 Z" fill="#000000" fill-rule="nonzero" fill-opacity="1" /><path clip-path="url(#clip130)" d="M995.302 1551.93 Q991.691 1551.93 989.862 1555.49 Q988.057 1559.03 988.057 1566.16 Q988.057 1573.27 989.862 1576.83 Q991.691 1580.38 995.302 1580.38 Q998.936 1580.38 1000.74 1576.83 Q1002.57 1573.27 1002.57 1566.16 Q1002.57 1559.03 1000.74 1555.49 Q998.936 1551.93 995.302 1551.93 M995.302 1548.22 Q1001.11 1548.22 1004.17 1552.83 Q1007.25 1557.41 1007.25 1566.16 Q1007.25 1574.89 1004.17 1579.5 Q1001.11 1584.08 995.302 1584.08 Q989.492 1584.08 986.413 1579.5 Q983.358 1574.89 983.358 1566.16 Q983.358 1557.41 986.413 1552.83 Q989.492 1548.22 995.302 1548.22 Z" fill="#000000" fill-rule="nonzero" fill-opacity="1" /><path clip-path="url(#clip130)" d="M1015.46 1577.53 L1020.35 1577.53 L1020.35 1583.41 L1015.46 1583.41 L1015.46 1577.53 Z" fill="#000000" fill-rule="nonzero" fill-opacity="1" /><path clip-path="url(#clip130)" d="M1040.53 1551.93 Q1036.92 1551.93 1035.09 1555.49 Q1033.29 1559.03 1033.29 1566.16 Q1033.29 1573.27 1035.09 1576.83 Q1036.92 1580.38 1040.53 1580.38 Q1044.17 1580.38 1045.97 1576.83 Q1047.8 1573.27 1047.8 1566.16 Q1047.8 1559.03 1045.97 1555.49 Q1044.17 1551.93 1040.53 1551.93 M1040.53 1548.22 Q1046.34 1548.22 1049.4 1552.83 Q1052.48 1557.41 1052.48 1566.16 Q1052.48 1574.89 1049.4 1579.5 Q1046.34 1584.08 1040.53 1584.08 Q1034.72 1584.08 1031.64 1579.5 Q1028.59 1574.89 1028.59 1566.16 Q1028.59 1557.41 1031.64 1552.83 Q1034.72 1548.22 1040.53 1548.22 Z" fill="#000000" fill-rule="nonzero" fill-opacity="1" /><path clip-path="url(#clip130)" d="M1326.25 1579.47 L1342.57 1579.47 L1342.57 1583.41 L1320.62 1583.41 L1320.62 1579.47 Q1323.28 1576.72 1327.87 1572.09 Q1332.47 1567.44 1333.66 1566.09 Q1335.9 1563.57 1336.78 1561.83 Q1337.68 1560.07 1337.68 1558.38 Q1337.68 1555.63 1335.74 1553.89 Q1333.82 1552.16 1330.72 1552.16 Q1328.52 1552.16 1326.06 1552.92 Q1323.63 1553.69 1320.85 1555.24 L1320.85 1550.51 Q1323.68 1549.38 1326.13 1548.8 Q1328.59 1548.22 1330.62 1548.22 Q1335.99 1548.22 1339.19 1550.91 Q1342.38 1553.59 1342.38 1558.08 Q1342.38 1560.21 1341.57 1562.13 Q1340.78 1564.03 1338.68 1566.63 Q1338.1 1567.3 1335 1570.51 Q1331.9 1573.71 1326.25 1579.47 Z" fill="#000000" fill-rule="nonzero" fill-opacity="1" /><path clip-path="url(#clip130)" d="M1352.38 1577.53 L1357.27 1577.53 L1357.27 1583.41 L1352.38 1583.41 L1352.38 1577.53 Z" fill="#000000" fill-rule="nonzero" fill-opacity="1" /><path clip-path="url(#clip130)" d="M1367.5 1548.85 L1385.85 1548.85 L1385.85 1552.78 L1371.78 1552.78 L1371.78 1561.26 Q1372.8 1560.91 1373.82 1560.75 Q1374.84 1560.56 1375.85 1560.56 Q1381.64 1560.56 1385.02 1563.73 Q1388.4 1566.9 1388.4 1572.32 Q1388.4 1577.9 1384.93 1581 Q1381.46 1584.08 1375.14 1584.08 Q1372.96 1584.08 1370.69 1583.71 Q1368.45 1583.34 1366.04 1582.6 L1366.04 1577.9 Q1368.12 1579.03 1370.34 1579.59 Q1372.57 1580.14 1375.04 1580.14 Q1379.05 1580.14 1381.39 1578.04 Q1383.72 1575.93 1383.72 1572.32 Q1383.72 1568.71 1381.39 1566.6 Q1379.05 1564.5 1375.04 1564.5 Q1373.17 1564.5 1371.29 1564.91 Q1369.44 1565.33 1367.5 1566.21 L1367.5 1548.85 Z" fill="#000000" fill-rule="nonzero" fill-opacity="1" /><path clip-path="url(#clip130)" d="M1658.27 1548.85 L1676.63 1548.85 L1676.63 1552.78 L1662.55 1552.78 L1662.55 1561.26 Q1663.57 1560.91 1664.59 1560.75 Q1665.61 1560.56 1666.63 1560.56 Q1672.41 1560.56 1675.79 1563.73 Q1679.17 1566.9 1679.17 1572.32 Q1679.17 1577.9 1675.7 1581 Q1672.23 1584.08 1665.91 1584.08 Q1663.73 1584.08 1661.46 1583.71 Q1659.22 1583.34 1656.81 1582.6 L1656.81 1577.9 Q1658.89 1579.03 1661.12 1579.59 Q1663.34 1580.14 1665.82 1580.14 Q1669.82 1580.14 1672.16 1578.04 Q1674.5 1575.93 1674.5 1572.32 Q1674.5 1568.71 1672.16 1566.6 Q1669.82 1564.5 1665.82 1564.5 Q1663.94 1564.5 1662.07 1564.91 Q1660.21 1565.33 1658.27 1566.21 L1658.27 1548.85 Z" fill="#000000" fill-rule="nonzero" fill-opacity="1" /><path clip-path="url(#clip130)" d="M1688.39 1577.53 L1693.27 1577.53 L1693.27 1583.41 L1688.39 1583.41 L1688.39 1577.53 Z" fill="#000000" fill-rule="nonzero" fill-opacity="1" /><path clip-path="url(#clip130)" d="M1713.45 1551.93 Q1709.84 1551.93 1708.01 1555.49 Q1706.21 1559.03 1706.21 1566.16 Q1706.21 1573.27 1708.01 1576.83 Q1709.84 1580.38 1713.45 1580.38 Q1717.09 1580.38 1718.89 1576.83 Q1720.72 1573.27 1720.72 1566.16 Q1720.72 1559.03 1718.89 1555.49 Q1717.09 1551.93 1713.45 1551.93 M1713.45 1548.22 Q1719.26 1548.22 1722.32 1552.83 Q1725.4 1557.41 1725.4 1566.16 Q1725.4 1574.89 1722.32 1579.5 Q1719.26 1584.08 1713.45 1584.08 Q1707.64 1584.08 1704.57 1579.5 Q1701.51 1574.89 1701.51 1566.16 Q1701.51 1557.41 1704.57 1552.83 Q1707.64 1548.22 1713.45 1548.22 Z" fill="#000000" fill-rule="nonzero" fill-opacity="1" /><path clip-path="url(#clip130)" d="M1994.02 1548.85 L2016.24 1548.85 L2016.24 1550.84 L2003.69 1583.41 L1998.81 1583.41 L2010.62 1552.78 L1994.02 1552.78 L1994.02 1548.85 Z" fill="#000000" fill-rule="nonzero" fill-opacity="1" /><path clip-path="url(#clip130)" d="M2025.36 1577.53 L2030.24 1577.53 L2030.24 1583.41 L2025.36 1583.41 L2025.36 1577.53 Z" fill="#000000" fill-rule="nonzero" fill-opacity="1" /><path clip-path="url(#clip130)" d="M2040.48 1548.85 L2058.83 1548.85 L2058.83 1552.78 L2044.76 1552.78 L2044.76 1561.26 Q2045.78 1560.91 2046.8 1560.75 Q2047.81 1560.56 2048.83 1560.56 Q2054.62 1560.56 2058 1563.73 Q2061.38 1566.9 2061.38 1572.32 Q2061.38 1577.9 2057.91 1581 Q2054.43 1584.08 2048.12 1584.08 Q2045.94 1584.08 2043.67 1583.71 Q2041.43 1583.34 2039.02 1582.6 L2039.02 1577.9 Q2041.1 1579.03 2043.32 1579.59 Q2045.55 1580.14 2048.02 1580.14 Q2052.03 1580.14 2054.37 1578.04 Q2056.7 1575.93 2056.7 1572.32 Q2056.7 1568.71 2054.37 1566.6 Q2052.03 1564.5 2048.02 1564.5 Q2046.15 1564.5 2044.27 1564.91 Q2042.42 1565.33 2040.48 1566.21 L2040.48 1548.85 Z" fill="#000000" fill-rule="nonzero" fill-opacity="1" /><polyline clip-path="url(#clip132)" style="stroke:#000000; stroke-linecap:round; stroke-linejoin:round; stroke-width:2; stroke-opacity:0.1; fill:none" points="86.9921,1480.68 2352.76,1480.68 "/>
<polyline clip-path="url(#clip132)" style="stroke:#000000; stroke-linecap:round; stroke-linejoin:round; stroke-width:2; stroke-opacity:0.1; fill:none" points="86.9921,1131.78 2352.76,1131.78 "/>
<polyline clip-path="url(#clip132)" style="stroke:#000000; stroke-linecap:round; stroke-linejoin:round; stroke-width:2; stroke-opacity:0.1; fill:none" points="86.9921,782.88 2352.76,782.88 "/>
<polyline clip-path="url(#clip132)" style="stroke:#000000; stroke-linecap:round; stroke-linejoin:round; stroke-width:2; stroke-opacity:0.1; fill:none" points="86.9921,433.981 2352.76,433.981 "/>
<polyline clip-path="url(#clip132)" style="stroke:#000000; stroke-linecap:round; stroke-linejoin:round; stroke-width:2; stroke-opacity:0.1; fill:none" points="86.9921,85.0822 2352.76,85.0822 "/>
<polyline clip-path="url(#clip130)" style="stroke:#000000; stroke-linecap:round; stroke-linejoin:round; stroke-width:4; stroke-opacity:1; fill:none" points="86.9921,1521.01 86.9921,47.2441 "/>
<polyline clip-path="url(#clip130)" style="stroke:#000000; stroke-linecap:round; stroke-linejoin:round; stroke-width:4; stroke-opacity:1; fill:none" points="86.9921,1480.68 105.89,1480.68 "/>
<polyline clip-path="url(#clip130)" style="stroke:#000000; stroke-linecap:round; stroke-linejoin:round; stroke-width:4; stroke-opacity:1; fill:none" points="86.9921,1131.78 105.89,1131.78 "/>
<polyline clip-path="url(#clip130)" style="stroke:#000000; stroke-linecap:round; stroke-linejoin:round; stroke-width:4; stroke-opacity:1; fill:none" points="86.9921,782.88 105.89,782.88 "/>
<polyline clip-path="url(#clip130)" style="stroke:#000000; stroke-linecap:round; stroke-linejoin:round; stroke-width:4; stroke-opacity:1; fill:none" points="86.9921,433.981 105.89,433.981 "/>
<polyline clip-path="url(#clip130)" style="stroke:#000000; stroke-linecap:round; stroke-linejoin:round; stroke-width:4; stroke-opacity:1; fill:none" points="86.9921,85.0822 105.89,85.0822 "/>
<path clip-path="url(#clip130)" d="M10.8708 1518.38 Q10.8708 1521.99 14.4356 1523.82 Q17.9773 1525.62 25.1068 1525.62 Q32.2133 1525.62 35.7781 1523.82 Q39.3197 1521.99 39.3197 1518.38 Q39.3197 1514.74 35.7781 1512.94 Q32.2133 1511.11 25.1068 1511.11 Q17.9773 1511.11 14.4356 1512.94 Q10.8708 1514.74 10.8708 1518.38 M7.16713 1518.38 Q7.16713 1512.57 11.7736 1509.51 Q16.3569 1506.43 25.1068 1506.43 Q33.8337 1506.43 38.4401 1509.51 Q43.0234 1512.57 43.0234 1518.38 Q43.0234 1524.19 38.4401 1527.26 Q33.8337 1530.32 25.1068 1530.32 Q16.3569 1530.32 11.7736 1527.26 Q7.16713 1524.19 7.16713 1518.38 Z" fill="#000000" fill-rule="nonzero" fill-opacity="1" /><path clip-path="url(#clip130)" d="M36.4725 1498.21 L36.4725 1493.33 L42.3521 1493.33 L42.3521 1498.21 L36.4725 1498.21 Z" fill="#000000" fill-rule="nonzero" fill-opacity="1" /><path clip-path="url(#clip130)" d="M10.8708 1473.14 Q10.8708 1476.76 14.4356 1478.58 Q17.9773 1480.39 25.1068 1480.39 Q32.2133 1480.39 35.7781 1478.58 Q39.3197 1476.76 39.3197 1473.14 Q39.3197 1469.51 35.7781 1467.7 Q32.2133 1465.88 25.1068 1465.88 Q17.9773 1465.88 14.4356 1467.7 Q10.8708 1469.51 10.8708 1473.14 M7.16713 1473.14 Q7.16713 1467.33 11.7736 1464.28 Q16.3569 1461.2 25.1068 1461.2 Q33.8337 1461.2 38.4401 1464.28 Q43.0234 1467.33 43.0234 1473.14 Q43.0234 1478.95 38.4401 1482.03 Q33.8337 1485.09 25.1068 1485.09 Q16.3569 1485.09 11.7736 1482.03 Q7.16713 1478.95 7.16713 1473.14 Z" fill="#000000" fill-rule="nonzero" fill-opacity="1" /><path clip-path="url(#clip130)" d="M10.8708 1442.98 Q10.8708 1446.59 14.4356 1448.42 Q17.9773 1450.23 25.1068 1450.23 Q32.2133 1450.23 35.7781 1448.42 Q39.3197 1446.59 39.3197 1442.98 Q39.3197 1439.35 35.7781 1437.54 Q32.2133 1435.71 25.1068 1435.71 Q17.9773 1435.71 14.4356 1437.54 Q10.8708 1439.35 10.8708 1442.98 M7.16713 1442.98 Q7.16713 1437.17 11.7736 1434.12 Q16.3569 1431.04 25.1068 1431.04 Q33.8337 1431.04 38.4401 1434.12 Q43.0234 1437.17 43.0234 1442.98 Q43.0234 1448.79 38.4401 1451.87 Q33.8337 1454.93 25.1068 1454.93 Q16.3569 1454.93 11.7736 1451.87 Q7.16713 1448.79 7.16713 1442.98 Z" fill="#000000" fill-rule="nonzero" fill-opacity="1" /><path clip-path="url(#clip130)" d="M10.8708 1168.98 Q10.8708 1172.59 14.4356 1174.42 Q17.9773 1176.22 25.1068 1176.22 Q32.2133 1176.22 35.7781 1174.42 Q39.3197 1172.59 39.3197 1168.98 Q39.3197 1165.34 35.7781 1163.54 Q32.2133 1161.71 25.1068 1161.71 Q17.9773 1161.71 14.4356 1163.54 Q10.8708 1165.34 10.8708 1168.98 M7.16713 1168.98 Q7.16713 1163.17 11.7736 1160.11 Q16.3569 1157.03 25.1068 1157.03 Q33.8337 1157.03 38.4401 1160.11 Q43.0234 1163.17 43.0234 1168.98 Q43.0234 1174.79 38.4401 1177.87 Q33.8337 1180.92 25.1068 1180.92 Q16.3569 1180.92 11.7736 1177.87 Q7.16713 1174.79 7.16713 1168.98 Z" fill="#000000" fill-rule="nonzero" fill-opacity="1" /><path clip-path="url(#clip130)" d="M36.4725 1148.82 L36.4725 1143.93 L42.3521 1143.93 L42.3521 1148.82 L36.4725 1148.82 Z" fill="#000000" fill-rule="nonzero" fill-opacity="1" /><path clip-path="url(#clip130)" d="M10.8708 1123.75 Q10.8708 1127.36 14.4356 1129.19 Q17.9773 1130.99 25.1068 1130.99 Q32.2133 1130.99 35.7781 1129.19 Q39.3197 1127.36 39.3197 1123.75 Q39.3197 1120.11 35.7781 1118.31 Q32.2133 1116.48 25.1068 1116.48 Q17.9773 1116.48 14.4356 1118.31 Q10.8708 1120.11 10.8708 1123.75 M7.16713 1123.75 Q7.16713 1117.94 11.7736 1114.88 Q16.3569 1111.8 25.1068 1111.8 Q33.8337 1111.8 38.4401 1114.88 Q43.0234 1117.94 43.0234 1123.75 Q43.0234 1129.56 38.4401 1132.64 Q33.8337 1135.69 25.1068 1135.69 Q16.3569 1135.69 11.7736 1132.64 Q7.16713 1129.56 7.16713 1123.75 Z" fill="#000000" fill-rule="nonzero" fill-opacity="1" /><path clip-path="url(#clip130)" d="M7.79213 1103.54 L7.79213 1085.18 L11.7273 1085.18 L11.7273 1099.26 L20.1995 1099.26 Q19.8522 1098.24 19.6902 1097.22 Q19.505 1096.2 19.505 1095.18 Q19.505 1089.4 22.6763 1086.02 Q25.8476 1082.64 31.2642 1082.64 Q36.8429 1082.64 39.9447 1086.11 Q43.0234 1089.58 43.0234 1095.9 Q43.0234 1098.08 42.6531 1100.34 Q42.2827 1102.59 41.5419 1105 L36.8429 1105 Q37.9771 1102.91 38.5327 1100.69 Q39.0883 1098.47 39.0883 1095.99 Q39.0883 1091.99 36.9818 1089.65 Q34.8753 1087.31 31.2642 1087.31 Q27.6531 1087.31 25.5467 1089.65 Q23.4402 1091.99 23.4402 1095.99 Q23.4402 1097.87 23.8569 1099.74 Q24.2735 1101.59 25.1531 1103.54 L7.79213 1103.54 Z" fill="#000000" fill-rule="nonzero" fill-opacity="1" /><path clip-path="url(#clip130)" d="M10.8708 820.577 Q10.8708 824.188 14.4356 826.017 Q17.9773 827.822 25.1068 827.822 Q32.2133 827.822 35.7781 826.017 Q39.3197 824.188 39.3197 820.577 Q39.3197 816.943 35.7781 815.137 Q32.2133 813.309 25.1068 813.309 Q17.9773 813.309 14.4356 815.137 Q10.8708 816.943 10.8708 820.577 M7.16713 820.577 Q7.16713 814.767 11.7736 811.711 Q16.3569 808.633 25.1068 808.633 Q33.8337 808.633 38.4401 811.711 Q43.0234 814.767 43.0234 820.577 Q43.0234 826.387 38.4401 829.466 Q33.8337 832.521 25.1068 832.521 Q16.3569 832.521 11.7736 829.466 Q7.16713 826.387 7.16713 820.577 Z" fill="#000000" fill-rule="nonzero" fill-opacity="1" /><path clip-path="url(#clip130)" d="M36.4725 800.415 L36.4725 795.531 L42.3521 795.531 L42.3521 800.415 L36.4725 800.415 Z" fill="#000000" fill-rule="nonzero" fill-opacity="1" /><path clip-path="url(#clip130)" d="M38.417 784.536 L38.417 776.897 L12.0514 776.897 L13.718 785.207 L9.45878 785.207 L7.79213 776.943 L7.79213 772.267 L38.417 772.267 L38.417 764.628 L42.3521 764.628 L42.3521 784.536 L38.417 784.536 Z" fill="#000000" fill-rule="nonzero" fill-opacity="1" /><path clip-path="url(#clip130)" d="M10.8708 745.184 Q10.8708 748.795 14.4356 750.624 Q17.9773 752.429 25.1068 752.429 Q32.2133 752.429 35.7781 750.624 Q39.3197 748.795 39.3197 745.184 Q39.3197 741.55 35.7781 739.744 Q32.2133 737.915 25.1068 737.915 Q17.9773 737.915 14.4356 739.744 Q10.8708 741.55 10.8708 745.184 M7.16713 745.184 Q7.16713 739.374 11.7736 736.318 Q16.3569 733.24 25.1068 733.24 Q33.8337 733.24 38.4401 736.318 Q43.0234 739.374 43.0234 745.184 Q43.0234 750.994 38.4401 754.073 Q33.8337 757.128 25.1068 757.128 Q16.3569 757.128 11.7736 754.073 Q7.16713 750.994 7.16713 745.184 Z" fill="#000000" fill-rule="nonzero" fill-opacity="1" /><path clip-path="url(#clip130)" d="M10.8708 471.18 Q10.8708 474.791 14.4356 476.62 Q17.9773 478.426 25.1068 478.426 Q32.2133 478.426 35.7781 476.62 Q39.3197 474.791 39.3197 471.18 Q39.3197 467.546 35.7781 465.74 Q32.2133 463.912 25.1068 463.912 Q17.9773 463.912 14.4356 465.74 Q10.8708 467.546 10.8708 471.18 M7.16713 471.18 Q7.16713 465.37 11.7736 462.315 Q16.3569 459.236 25.1068 459.236 Q33.8337 459.236 38.4401 462.315 Q43.0234 465.37 43.0234 471.18 Q43.0234 476.99 38.4401 480.069 Q33.8337 483.125 25.1068 483.125 Q16.3569 483.125 11.7736 480.069 Q7.16713 476.99 7.16713 471.18 Z" fill="#000000" fill-rule="nonzero" fill-opacity="1" /><path clip-path="url(#clip130)" d="M36.4725 451.018 L36.4725 446.134 L42.3521 446.134 L42.3521 451.018 L36.4725 451.018 Z" fill="#000000" fill-rule="nonzero" fill-opacity="1" /><path clip-path="url(#clip130)" d="M38.417 435.139 L38.417 427.5 L12.0514 427.5 L13.718 435.81 L9.45878 435.81 L7.79213 427.546 L7.79213 422.87 L38.417 422.87 L38.417 415.231 L42.3521 415.231 L42.3521 435.139 L38.417 435.139 Z" fill="#000000" fill-rule="nonzero" fill-opacity="1" /><path clip-path="url(#clip130)" d="M7.79213 405.741 L7.79213 387.384 L11.7273 387.384 L11.7273 401.458 L20.1995 401.458 Q19.8522 400.44 19.6902 399.421 Q19.505 398.403 19.505 397.384 Q19.505 391.597 22.6763 388.218 Q25.8476 384.838 31.2642 384.838 Q36.8429 384.838 39.9447 388.31 Q43.0234 391.782 43.0234 398.102 Q43.0234 400.278 42.6531 402.546 Q42.2827 404.792 41.5419 407.199 L36.8429 407.199 Q37.9771 405.116 38.5327 402.894 Q39.0883 400.671 39.0883 398.194 Q39.0883 394.19 36.9818 391.852 Q34.8753 389.514 31.2642 389.514 Q27.6531 389.514 25.5467 391.852 Q23.4402 394.19 23.4402 398.194 Q23.4402 400.069 23.8569 401.944 Q24.2735 403.796 25.1531 405.741 L7.79213 405.741 Z" fill="#000000" fill-rule="nonzero" fill-opacity="1" /><path clip-path="url(#clip130)" d="M10.8708 122.779 Q10.8708 126.39 14.4356 128.219 Q17.9773 130.024 25.1068 130.024 Q32.2133 130.024 35.7781 128.219 Q39.3197 126.39 39.3197 122.779 Q39.3197 119.145 35.7781 117.339 Q32.2133 115.51 25.1068 115.51 Q17.9773 115.51 14.4356 117.339 Q10.8708 119.145 10.8708 122.779 M7.16713 122.779 Q7.16713 116.969 11.7736 113.913 Q16.3569 110.834 25.1068 110.834 Q33.8337 110.834 38.4401 113.913 Q43.0234 116.969 43.0234 122.779 Q43.0234 128.589 38.4401 131.668 Q33.8337 134.723 25.1068 134.723 Q16.3569 134.723 11.7736 131.668 Q7.16713 128.589 7.16713 122.779 Z" fill="#000000" fill-rule="nonzero" fill-opacity="1" /><path clip-path="url(#clip130)" d="M36.4725 102.617 L36.4725 97.7326 L42.3521 97.7326 L42.3521 102.617 L36.4725 102.617 Z" fill="#000000" fill-rule="nonzero" fill-opacity="1" /><path clip-path="url(#clip130)" d="M38.417 83.5197 L38.417 67.2004 L42.3521 67.2004 L42.3521 89.1447 L38.417 89.1447 Q35.6623 86.4827 31.0327 81.8994 Q26.38 77.2929 25.0374 76.1123 Q22.5143 73.867 20.7782 72.9874 Q19.0189 72.0846 17.3291 72.0846 Q14.5745 72.0846 12.8384 74.029 Q11.1023 75.9503 11.1023 79.0521 Q11.1023 81.2512 11.8662 83.7049 Q12.6301 86.1354 14.181 88.9132 L9.45878 88.9132 Q8.32453 86.0891 7.74583 83.6355 Q7.16713 81.1818 7.16713 79.1447 Q7.16713 73.7744 9.8523 70.58 Q12.5375 67.3855 17.0282 67.3855 Q19.1578 67.3855 21.0791 68.1957 Q22.9772 68.9828 25.5698 71.0892 Q26.2411 71.6679 29.4587 74.7698 Q32.6531 77.8716 38.417 83.5197 Z" fill="#000000" fill-rule="nonzero" fill-opacity="1" /><path clip-path="url(#clip130)" d="M10.8708 47.3856 Q10.8708 50.9967 14.4356 52.8254 Q17.9773 54.631 25.1068 54.631 Q32.2133 54.631 35.7781 52.8254 Q39.3197 50.9967 39.3197 47.3856 Q39.3197 43.7514 35.7781 41.9459 Q32.2133 40.1172 25.1068 40.1172 Q17.9773 40.1172 14.4356 41.9459 Q10.8708 43.7514 10.8708 47.3856 M7.16713 47.3856 Q7.16713 41.5755 11.7736 38.52 Q16.3569 35.4413 25.1068 35.4413 Q33.8337 35.4413 38.4401 38.52 Q43.0234 41.5755 43.0234 47.3856 Q43.0234 53.1958 38.4401 56.2745 Q33.8337 59.33 25.1068 59.33 Q16.3569 59.33 11.7736 56.2745 Q7.16713 53.1958 7.16713 47.3856 Z" fill="#000000" fill-rule="nonzero" fill-opacity="1" /><polyline clip-path="url(#clip132)" style="stroke:#009af9; stroke-linecap:round; stroke-linejoin:round; stroke-width:4; stroke-opacity:1; fill:none" points="151.118,1479.3 157.637,1479.17 164.157,1479.03 224.443,1477.01 284.729,1472.95 320.959,1468.86 357.188,1462.93 387.819,1456.01 418.451,1446.82 435.088,1440.68 451.725,1433.61 468.362,1425.51 485,1416.25 500.338,1406.6 515.675,1395.78 531.013,1383.7 546.351,1370.25 562.795,1354.21 579.239,1336.38 595.683,1316.65 612.127,1294.92 631.179,1267.11 650.231,1236.37 669.283,1202.59 688.335,1165.73 705.266,1130.37 722.197,1092.57 739.128,1052.39 756.06,1009.91 770.907,970.872 785.754,930.272 800.601,888.241 815.448,844.937 847.822,746.994 880.197,646.112 912.764,544.387 945.331,445.515 954.333,419.132 963.334,393.293 972.336,368.068 981.338,343.53 990.34,319.749 999.341,296.794 1008.34,274.734 1017.34,253.635 1025.91,234.511 1034.47,216.368 1043.04,199.258 1051.6,183.23 1060.17,168.33 1068.73,154.601 1077.3,142.084 1085.86,130.814 1094.77,120.456 1103.68,111.517 1112.58,104.026 1121.49,98.0068 1130.39,93.4794 1139.3,90.4587 1148.2,88.9544 1157.11,88.9715 1164.6,90.1655 1172.1,92.4348 1179.6,95.7742 1187.09,100.176 1194.59,105.63 1202.09,112.123 1209.58,119.641 1217.08,128.167 1226.23,139.913 1235.39,153.091 1244.54,167.658 1253.69,183.564 1262.84,200.757 1272,219.181 1281.15,238.774 1290.3,259.475 1307.07,300.055 1323.84,343.704 1332.22,366.541 1340.61,389.977 1348.99,413.955 1357.37,438.416 1388.35,532.029 1419.32,628.582 1450.7,726.614 1482.07,822.367 1499.66,874.214 1517.24,924.354 1534.82,972.52 1552.4,1018.49 1568.33,1058.1 1584.26,1095.67 1600.2,1131.13 1616.13,1164.42 1634.37,1199.88 1652.61,1232.5 1670.85,1262.34 1689.09,1289.47 1705.98,1312.27 1722.87,1332.92 1739.76,1351.56 1756.65,1368.29 1773.3,1383.03 1789.95,1396.17 1806.6,1407.81 1823.25,1418.09 1839.42,1426.88 1855.59,1434.61 1871.75,1441.36 1887.92,1447.25 1921.06,1456.97 1954.21,1464.12 1990.53,1469.7 2026.84,1473.53 2079.59,1476.96 2132.35,1478.82 2143.17,1479.08 2153.99,1479.3 "/>
<polyline clip-path="url(#clip132)" style="stroke:#e26f46; stroke-linecap:round; stroke-linejoin:round; stroke-width:4; stroke-opacity:1; fill:none" points="285.755,1479.3 292.275,1479.17 298.795,1479.03 359.081,1477.01 419.367,1472.95 455.596,1468.86 491.825,1462.93 522.457,1456.01 553.088,1446.82 569.725,1440.68 586.363,1433.61 603,1425.51 619.637,1416.25 634.975,1406.6 650.313,1395.78 665.651,1383.7 680.989,1370.25 697.433,1354.21 713.877,1336.38 730.321,1316.65 746.765,1294.92 765.817,1267.11 784.869,1236.37 803.921,1202.59 822.973,1165.73 839.904,1130.37 856.835,1092.57 873.766,1052.39 890.697,1009.91 905.544,970.872 920.391,930.272 935.238,888.241 950.085,844.937 982.46,746.994 1014.83,646.112 1047.4,544.387 1079.97,445.515 1088.97,419.132 1097.97,393.293 1106.97,368.068 1115.98,343.53 1124.98,319.749 1133.98,296.794 1142.98,274.734 1151.98,253.635 1160.55,234.511 1169.11,216.368 1177.68,199.258 1186.24,183.23 1194.81,168.33 1203.37,154.601 1211.94,142.084 1220.5,130.814 1229.41,120.456 1238.31,111.517 1247.22,104.026 1256.12,98.0068 1265.03,93.4794 1273.93,90.4587 1282.84,88.9544 1291.75,88.9715 1299.24,90.1655 1306.74,92.4348 1314.24,95.7742 1321.73,100.176 1329.23,105.63 1336.73,112.123 1344.22,119.641 1351.72,128.167 1360.87,139.913 1370.02,153.091 1379.18,167.658 1388.33,183.564 1397.48,200.757 1406.63,219.181 1415.79,238.774 1424.94,259.475 1441.71,300.055 1458.47,343.704 1466.86,366.541 1475.24,389.977 1483.63,413.955 1492.01,438.416 1522.99,532.029 1553.96,628.582 1585.34,726.614 1616.71,822.367 1634.29,874.214 1651.87,924.354 1669.46,972.52 1687.04,1018.49 1702.97,1058.1 1718.9,1095.67 1734.83,1131.13 1750.76,1164.42 1769.01,1199.88 1787.25,1232.5 1805.49,1262.34 1823.73,1289.47 1840.62,1312.27 1857.51,1332.92 1874.4,1351.56 1891.29,1368.29 1907.94,1383.03 1924.59,1396.17 1941.24,1407.81 1957.89,1418.09 1974.06,1426.88 1990.22,1434.61 2006.39,1441.36 2022.56,1447.25 2055.7,1456.97 2088.85,1464.12 2125.16,1469.7 2161.48,1473.53 2214.23,1476.96 2266.99,1478.82 2277.81,1479.08 2288.63,1479.3 "/>
<path clip-path="url(#clip130)" d="M1832.23 251.89 L2277.23 251.89 L2277.23 96.3696 L1832.23 96.3696  Z" fill="#ffffff" fill-rule="evenodd" fill-opacity="1"/>
<polyline clip-path="url(#clip130)" style="stroke:#000000; stroke-linecap:round; stroke-linejoin:round; stroke-width:4; stroke-opacity:1; fill:none" points="1832.23,251.89 2277.23,251.89 2277.23,96.3696 1832.23,96.3696 1832.23,251.89 "/>
<polyline clip-path="url(#clip130)" style="stroke:#009af9; stroke-linecap:round; stroke-linejoin:round; stroke-width:4; stroke-opacity:1; fill:none" points="1857.4,148.21 2008.46,148.21 "/>
<path clip-path="url(#clip130)" d="M2038.31 134.772 L2038.31 147.758 L2044.19 147.758 Q2047.45 147.758 2049.23 146.068 Q2051.01 144.379 2051.01 141.254 Q2051.01 138.152 2049.23 136.462 Q2047.45 134.772 2044.19 134.772 L2038.31 134.772 M2033.63 130.93 L2044.19 130.93 Q2050 130.93 2052.96 133.568 Q2055.95 136.184 2055.95 141.254 Q2055.95 146.369 2052.96 148.985 Q2050 151.601 2044.19 151.601 L2038.31 151.601 L2038.31 165.49 L2033.63 165.49 L2033.63 130.93 Z" fill="#000000" fill-rule="nonzero" fill-opacity="1" /><path clip-path="url(#clip130)" d="M2076.22 143.545 Q2075.51 143.129 2074.65 142.943 Q2073.82 142.735 2072.8 142.735 Q2069.19 142.735 2067.24 145.096 Q2065.32 147.434 2065.32 151.832 L2065.32 165.49 L2061.04 165.49 L2061.04 139.564 L2065.32 139.564 L2065.32 143.592 Q2066.66 141.23 2068.82 140.096 Q2070.97 138.939 2074.05 138.939 Q2074.49 138.939 2075.02 139.008 Q2075.55 139.055 2076.2 139.17 L2076.22 143.545 Z" fill="#000000" fill-rule="nonzero" fill-opacity="1" /><path clip-path="url(#clip130)" d="M2090.92 129.518 Q2087.82 134.842 2086.32 140.05 Q2084.81 145.258 2084.81 150.605 Q2084.81 155.953 2086.32 161.207 Q2087.84 166.439 2090.92 171.74 L2087.22 171.74 Q2083.75 166.3 2082.01 161.045 Q2080.3 155.791 2080.3 150.605 Q2080.3 145.443 2082.01 140.212 Q2083.72 134.98 2087.22 129.518 L2090.92 129.518 Z" fill="#000000" fill-rule="nonzero" fill-opacity="1" /><path clip-path="url(#clip130)" d="M2109.97 167.897 Q2108.17 172.527 2106.45 173.939 Q2104.74 175.351 2101.87 175.351 L2098.47 175.351 L2098.47 171.786 L2100.97 171.786 Q2102.73 171.786 2103.7 170.952 Q2104.67 170.119 2105.85 167.017 L2106.62 165.073 L2096.13 139.564 L2100.64 139.564 L2108.75 159.841 L2116.85 139.564 L2121.36 139.564 L2109.97 167.897 Z" fill="#000000" fill-rule="nonzero" fill-opacity="1" /><path clip-path="url(#clip130)" d="M2132.73 129.263 L2132.73 176.67 L2128.79 176.67 L2128.79 129.263 L2132.73 129.263 Z" fill="#000000" fill-rule="nonzero" fill-opacity="1" /><path clip-path="url(#clip130)" d="M2160.62 149.054 L2145.88 149.054 Q2146.22 155.976 2147.82 158.916 Q2149.81 162.527 2153.26 162.527 Q2156.73 162.527 2158.65 158.892 Q2160.34 155.698 2160.62 149.054 M2160.55 145.119 Q2159.9 138.545 2158.65 136.23 Q2156.66 132.573 2153.26 132.573 Q2149.72 132.573 2147.84 136.184 Q2146.36 139.101 2145.92 145.119 L2160.55 145.119 M2153.26 129.101 Q2158.82 129.101 2161.99 134.008 Q2165.16 138.892 2165.16 147.55 Q2165.16 156.184 2161.99 161.091 Q2158.82 166.022 2153.26 166.022 Q2147.68 166.022 2144.53 161.091 Q2141.36 156.184 2141.36 147.55 Q2141.36 138.892 2144.53 134.008 Q2147.68 129.101 2153.26 129.101 Z" fill="#000000" fill-rule="nonzero" fill-opacity="1" /><path clip-path="url(#clip130)" d="M2172.77 143.962 L2202.45 143.962 L2202.45 147.851 L2172.77 147.851 L2172.77 143.962 M2172.77 153.406 L2202.45 153.406 L2202.45 157.341 L2172.77 157.341 L2172.77 153.406 Z" fill="#000000" fill-rule="nonzero" fill-opacity="1" /><path clip-path="url(#clip130)" d="M2213.35 161.554 L2220.99 161.554 L2220.99 135.189 L2212.68 136.855 L2212.68 132.596 L2220.94 130.93 L2225.62 130.93 L2225.62 161.554 L2233.26 161.554 L2233.26 165.49 L2213.35 165.49 L2213.35 161.554 Z" fill="#000000" fill-rule="nonzero" fill-opacity="1" /><path clip-path="url(#clip130)" d="M2241.43 129.518 L2245.13 129.518 Q2248.61 134.98 2250.32 140.212 Q2252.06 145.443 2252.06 150.605 Q2252.06 155.791 2250.32 161.045 Q2248.61 166.3 2245.13 171.74 L2241.43 171.74 Q2244.51 166.439 2246.01 161.207 Q2247.54 155.953 2247.54 150.605 Q2247.54 145.258 2246.01 140.05 Q2244.51 134.842 2241.43 129.518 Z" fill="#000000" fill-rule="nonzero" fill-opacity="1" /><polyline clip-path="url(#clip130)" style="stroke:#e26f46; stroke-linecap:round; stroke-linejoin:round; stroke-width:4; stroke-opacity:1; fill:none" points="1857.4,200.05 2008.46,200.05 "/>
<path clip-path="url(#clip130)" d="M2038.31 186.612 L2038.31 199.598 L2044.19 199.598 Q2047.45 199.598 2049.23 197.908 Q2051.01 196.219 2051.01 193.094 Q2051.01 189.992 2049.23 188.302 Q2047.45 186.612 2044.19 186.612 L2038.31 186.612 M2033.63 182.77 L2044.19 182.77 Q2050 182.77 2052.96 185.408 Q2055.95 188.024 2055.95 193.094 Q2055.95 198.209 2052.96 200.825 Q2050 203.441 2044.19 203.441 L2038.31 203.441 L2038.31 217.33 L2033.63 217.33 L2033.63 182.77 Z" fill="#000000" fill-rule="nonzero" fill-opacity="1" /><path clip-path="url(#clip130)" d="M2076.22 195.385 Q2075.51 194.969 2074.65 194.783 Q2073.82 194.575 2072.8 194.575 Q2069.19 194.575 2067.24 196.936 Q2065.32 199.274 2065.32 203.672 L2065.32 217.33 L2061.04 217.33 L2061.04 191.404 L2065.32 191.404 L2065.32 195.432 Q2066.66 193.07 2068.82 191.936 Q2070.97 190.779 2074.05 190.779 Q2074.49 190.779 2075.02 190.848 Q2075.55 190.895 2076.2 191.01 L2076.22 195.385 Z" fill="#000000" fill-rule="nonzero" fill-opacity="1" /><path clip-path="url(#clip130)" d="M2090.92 181.358 Q2087.82 186.682 2086.32 191.89 Q2084.81 197.098 2084.81 202.445 Q2084.81 207.793 2086.32 213.047 Q2087.84 218.279 2090.92 223.58 L2087.22 223.58 Q2083.75 218.14 2082.01 212.885 Q2080.3 207.631 2080.3 202.445 Q2080.3 197.283 2082.01 192.052 Q2083.72 186.82 2087.22 181.358 L2090.92 181.358 Z" fill="#000000" fill-rule="nonzero" fill-opacity="1" /><path clip-path="url(#clip130)" d="M2109.97 219.737 Q2108.17 224.367 2106.45 225.779 Q2104.74 227.191 2101.87 227.191 L2098.47 227.191 L2098.47 223.626 L2100.97 223.626 Q2102.73 223.626 2103.7 222.792 Q2104.67 221.959 2105.85 218.857 L2106.62 216.913 L2096.13 191.404 L2100.64 191.404 L2108.75 211.681 L2116.85 191.404 L2121.36 191.404 L2109.97 219.737 Z" fill="#000000" fill-rule="nonzero" fill-opacity="1" /><path clip-path="url(#clip130)" d="M2132.73 181.103 L2132.73 228.51 L2128.79 228.51 L2128.79 181.103 L2132.73 181.103 Z" fill="#000000" fill-rule="nonzero" fill-opacity="1" /><path clip-path="url(#clip130)" d="M2160.62 200.894 L2145.88 200.894 Q2146.22 207.816 2147.82 210.756 Q2149.81 214.367 2153.26 214.367 Q2156.73 214.367 2158.65 210.732 Q2160.34 207.538 2160.62 200.894 M2160.55 196.959 Q2159.9 190.385 2158.65 188.07 Q2156.66 184.413 2153.26 184.413 Q2149.72 184.413 2147.84 188.024 Q2146.36 190.941 2145.92 196.959 L2160.55 196.959 M2153.26 180.941 Q2158.82 180.941 2161.99 185.848 Q2165.16 190.732 2165.16 199.39 Q2165.16 208.024 2161.99 212.931 Q2158.82 217.862 2153.26 217.862 Q2147.68 217.862 2144.53 212.931 Q2141.36 208.024 2141.36 199.39 Q2141.36 190.732 2144.53 185.848 Q2147.68 180.941 2153.26 180.941 Z" fill="#000000" fill-rule="nonzero" fill-opacity="1" /><path clip-path="url(#clip130)" d="M2172.77 195.802 L2202.45 195.802 L2202.45 199.691 L2172.77 199.691 L2172.77 195.802 M2172.77 205.246 L2202.45 205.246 L2202.45 209.181 L2172.77 209.181 L2172.77 205.246 Z" fill="#000000" fill-rule="nonzero" fill-opacity="1" /><path clip-path="url(#clip130)" d="M2216.57 213.394 L2232.89 213.394 L2232.89 217.33 L2210.94 217.33 L2210.94 213.394 Q2213.61 210.64 2218.19 206.01 Q2222.8 201.357 2223.98 200.015 Q2226.22 197.492 2227.1 195.756 Q2228 193.996 2228 192.307 Q2228 189.552 2226.06 187.816 Q2224.14 186.08 2221.04 186.08 Q2218.84 186.08 2216.38 186.844 Q2213.95 187.607 2211.18 189.158 L2211.18 184.436 Q2214 183.302 2216.45 182.723 Q2218.91 182.145 2220.94 182.145 Q2226.31 182.145 2229.51 184.83 Q2232.7 187.515 2232.7 192.006 Q2232.7 194.135 2231.89 196.057 Q2231.11 197.955 2229 200.547 Q2228.42 201.219 2225.32 204.436 Q2222.22 207.631 2216.57 213.394 Z" fill="#000000" fill-rule="nonzero" fill-opacity="1" /><path clip-path="url(#clip130)" d="M2241.43 181.358 L2245.13 181.358 Q2248.61 186.82 2250.32 192.052 Q2252.06 197.283 2252.06 202.445 Q2252.06 207.631 2250.32 212.885 Q2248.61 218.14 2245.13 223.58 L2241.43 223.58 Q2244.51 218.279 2246.01 213.047 Q2247.54 207.793 2247.54 202.445 Q2247.54 197.098 2246.01 191.89 Q2244.51 186.682 2241.43 181.358 Z" fill="#000000" fill-rule="nonzero" fill-opacity="1" /></svg>
