<?xml version="1.0" encoding="utf-8"?>
<svg xmlns="http://www.w3.org/2000/svg" xmlns:xlink="http://www.w3.org/1999/xlink" width="600" height="400" viewBox="0 0 2400 1600">
<defs>
  <clipPath id="clip180">
    <rect x="0" y="0" width="2400" height="1600"/>
  </clipPath>
</defs>
<path clip-path="url(#clip180)" d="M0 1600 L2400 1600 L2400 0 L0 0  Z" fill="#ffffff" fill-rule="evenodd" fill-opacity="1"/>
<defs>
  <clipPath id="clip181">
    <rect x="480" y="0" width="1681" height="1600"/>
  </clipPath>
</defs>
<path clip-path="url(#clip180)" d="M86.9921 1521.01 L2352.76 1521.01 L2352.76 47.2441 L86.9921 47.2441  Z" fill="#ffffff" fill-rule="evenodd" fill-opacity="1"/>
<defs>
  <clipPath id="clip182">
    <rect x="86" y="47" width="2267" height="1475"/>
  </clipPath>
</defs>
<polyline clip-path="url(#clip182)" style="stroke:#000000; stroke-linecap:round; stroke-linejoin:round; stroke-width:2; stroke-opacity:0.1; fill:none" points="413.265,1521.01 413.265,47.2441 "/>
<polyline clip-path="url(#clip182)" style="stroke:#000000; stroke-linecap:round; stroke-linejoin:round; stroke-width:2; stroke-opacity:0.1; fill:none" points="917.396,1521.01 917.396,47.2441 "/>
<polyline clip-path="url(#clip182)" style="stroke:#000000; stroke-linecap:round; stroke-linejoin:round; stroke-width:2; stroke-opacity:0.1; fill:none" points="1421.53,1521.01 1421.53,47.2441 "/>
<polyline clip-path="url(#clip182)" style="stroke:#000000; stroke-linecap:round; stroke-linejoin:round; stroke-width:2; stroke-opacity:0.1; fill:none" points="1925.66,1521.01 1925.66,47.2441 "/>
<polyline clip-path="url(#clip180)" style="stroke:#000000; stroke-linecap:round; stroke-linejoin:round; stroke-width:4; stroke-opacity:1; fill:none" points="86.9921,1521.01 2352.76,1521.01 "/>
<polyline clip-path="url(#clip180)" style="stroke:#000000; stroke-linecap:round; stroke-linejoin:round; stroke-width:4; stroke-opacity:1; fill:none" points="413.265,1521.01 413.265,1502.11 "/>
<polyline clip-path="url(#clip180)" style="stroke:#000000; stroke-linecap:round; stroke-linejoin:round; stroke-width:4; stroke-opacity:1; fill:none" points="917.396,1521.01 917.396,1502.11 "/>
<polyline clip-path="url(#clip180)" style="stroke:#000000; stroke-linecap:round; stroke-linejoin:round; stroke-width:4; stroke-opacity:1; fill:none" points="1421.53,1521.01 1421.53,1502.11 "/>
<polyline clip-path="url(#clip180)" style="stroke:#000000; stroke-linecap:round; stroke-linejoin:round; stroke-width:4; stroke-opacity:1; fill:none" points="1925.66,1521.01 1925.66,1502.11 "/>
<path clip-path="url(#clip180)" d="M344.712 1566.58 L374.388 1566.58 L374.388 1570.51 L344.712 1570.51 L344.712 1566.58 Z" fill="#000000" fill-rule="nonzero" fill-opacity="1" /><path clip-path="url(#clip180)" d="M394.481 1551.93 Q390.87 1551.93 389.041 1555.49 Q387.235 1559.03 387.235 1566.16 Q387.235 1573.27 389.041 1576.83 Q390.87 1580.38 394.481 1580.38 Q398.115 1580.38 399.921 1576.83 Q401.749 1573.27 401.749 1566.16 Q401.749 1559.03 399.921 1555.49 Q398.115 1551.93 394.481 1551.93 M394.481 1548.22 Q400.291 1548.22 403.346 1552.83 Q406.425 1557.41 406.425 1566.16 Q406.425 1574.89 403.346 1579.5 Q400.291 1584.08 394.481 1584.08 Q388.671 1584.08 385.592 1579.5 Q382.536 1574.89 382.536 1566.16 Q382.536 1557.41 385.592 1552.83 Q388.671 1548.22 394.481 1548.22 Z" fill="#000000" fill-rule="nonzero" fill-opacity="1" /><path clip-path="url(#clip180)" d="M414.643 1577.53 L419.527 1577.53 L419.527 1583.41 L414.643 1583.41 L414.643 1577.53 Z" fill="#000000" fill-rule="nonzero" fill-opacity="1" /><path clip-path="url(#clip180)" d="M430.522 1579.47 L438.161 1579.47 L438.161 1553.11 L429.851 1554.77 L429.851 1550.51 L438.115 1548.85 L442.791 1548.85 L442.791 1579.47 L450.429 1579.47 L450.429 1583.41 L430.522 1583.41 L430.522 1579.47 Z" fill="#000000" fill-rule="nonzero" fill-opacity="1" /><path clip-path="url(#clip180)" d="M469.874 1551.93 Q466.263 1551.93 464.434 1555.49 Q462.628 1559.03 462.628 1566.16 Q462.628 1573.27 464.434 1576.83 Q466.263 1580.38 469.874 1580.38 Q473.508 1580.38 475.314 1576.83 Q477.142 1573.27 477.142 1566.16 Q477.142 1559.03 475.314 1555.49 Q473.508 1551.93 469.874 1551.93 M469.874 1548.22 Q475.684 1548.22 478.74 1552.83 Q481.818 1557.41 481.818 1566.16 Q481.818 1574.89 478.74 1579.5 Q475.684 1584.08 469.874 1584.08 Q464.064 1584.08 460.985 1579.5 Q457.929 1574.89 457.929 1566.16 Q457.929 1557.41 460.985 1552.83 Q464.064 1548.22 469.874 1548.22 Z" fill="#000000" fill-rule="nonzero" fill-opacity="1" /><path clip-path="url(#clip180)" d="M849.341 1566.58 L879.016 1566.58 L879.016 1570.51 L849.341 1570.51 L849.341 1566.58 Z" fill="#000000" fill-rule="nonzero" fill-opacity="1" /><path clip-path="url(#clip180)" d="M899.109 1551.93 Q895.498 1551.93 893.669 1555.49 Q891.863 1559.03 891.863 1566.16 Q891.863 1573.27 893.669 1576.83 Q895.498 1580.38 899.109 1580.38 Q902.743 1580.38 904.549 1576.83 Q906.377 1573.27 906.377 1566.16 Q906.377 1559.03 904.549 1555.49 Q902.743 1551.93 899.109 1551.93 M899.109 1548.22 Q904.919 1548.22 907.975 1552.83 Q911.053 1557.41 911.053 1566.16 Q911.053 1574.89 907.975 1579.5 Q904.919 1584.08 899.109 1584.08 Q893.299 1584.08 890.22 1579.5 Q887.164 1574.89 887.164 1566.16 Q887.164 1557.41 890.22 1552.83 Q893.299 1548.22 899.109 1548.22 Z" fill="#000000" fill-rule="nonzero" fill-opacity="1" /><path clip-path="url(#clip180)" d="M919.271 1577.53 L924.155 1577.53 L924.155 1583.41 L919.271 1583.41 L919.271 1577.53 Z" fill="#000000" fill-rule="nonzero" fill-opacity="1" /><path clip-path="url(#clip180)" d="M944.34 1551.93 Q940.729 1551.93 938.9 1555.49 Q937.095 1559.03 937.095 1566.16 Q937.095 1573.27 938.9 1576.83 Q940.729 1580.38 944.34 1580.38 Q947.974 1580.38 949.78 1576.83 Q951.609 1573.27 951.609 1566.16 Q951.609 1559.03 949.78 1555.49 Q947.974 1551.93 944.34 1551.93 M944.34 1548.22 Q950.15 1548.22 953.206 1552.83 Q956.284 1557.41 956.284 1566.16 Q956.284 1574.89 953.206 1579.5 Q950.15 1584.08 944.34 1584.08 Q938.53 1584.08 935.451 1579.5 Q932.396 1574.89 932.396 1566.16 Q932.396 1557.41 935.451 1552.83 Q938.53 1548.22 944.34 1548.22 Z" fill="#000000" fill-rule="nonzero" fill-opacity="1" /><path clip-path="url(#clip180)" d="M964.548 1548.85 L982.905 1548.85 L982.905 1552.78 L968.831 1552.78 L968.831 1561.26 Q969.849 1560.91 970.868 1560.75 Q971.886 1560.56 972.905 1560.56 Q978.692 1560.56 982.071 1563.73 Q985.451 1566.9 985.451 1572.32 Q985.451 1577.9 981.979 1581 Q978.507 1584.08 972.187 1584.08 Q970.011 1584.08 967.743 1583.71 Q965.497 1583.34 963.09 1582.6 L963.09 1577.9 Q965.173 1579.03 967.395 1579.59 Q969.618 1580.14 972.095 1580.14 Q976.099 1580.14 978.437 1578.04 Q980.775 1575.93 980.775 1572.32 Q980.775 1568.71 978.437 1566.6 Q976.099 1564.5 972.095 1564.5 Q970.22 1564.5 968.345 1564.91 Q966.493 1565.33 964.548 1566.21 L964.548 1548.85 Z" fill="#000000" fill-rule="nonzero" fill-opacity="1" /><path clip-path="url(#clip180)" d="M1383.83 1551.93 Q1380.22 1551.93 1378.39 1555.49 Q1376.58 1559.03 1376.58 1566.16 Q1376.58 1573.27 1378.39 1576.83 Q1380.22 1580.38 1383.83 1580.38 Q1387.46 1580.38 1389.27 1576.83 Q1391.1 1573.27 1391.1 1566.16 Q1391.1 1559.03 1389.27 1555.49 Q1387.46 1551.93 1383.83 1551.93 M1383.83 1548.22 Q1389.64 1548.22 1392.7 1552.83 Q1395.77 1557.41 1395.77 1566.16 Q1395.77 1574.89 1392.7 1579.5 Q1389.64 1584.08 1383.83 1584.08 Q1378.02 1584.08 1374.94 1579.5 Q1371.89 1574.89 1371.89 1566.16 Q1371.89 1557.41 1374.94 1552.83 Q1378.02 1548.22 1383.83 1548.22 Z" fill="#000000" fill-rule="nonzero" fill-opacity="1" /><path clip-path="url(#clip180)" d="M1403.99 1577.53 L1408.88 1577.53 L1408.88 1583.41 L1403.99 1583.41 L1403.99 1577.53 Z" fill="#000000" fill-rule="nonzero" fill-opacity="1" /><path clip-path="url(#clip180)" d="M1429.06 1551.93 Q1425.45 1551.93 1423.62 1555.49 Q1421.82 1559.03 1421.82 1566.16 Q1421.82 1573.27 1423.62 1576.83 Q1425.45 1580.38 1429.06 1580.38 Q1432.7 1580.38 1434.5 1576.83 Q1436.33 1573.27 1436.33 1566.16 Q1436.33 1559.03 1434.5 1555.49 Q1432.7 1551.93 1429.06 1551.93 M1429.06 1548.22 Q1434.87 1548.22 1437.93 1552.83 Q1441.01 1557.41 1441.01 1566.16 Q1441.01 1574.89 1437.93 1579.5 Q1434.87 1584.08 1429.06 1584.08 Q1423.25 1584.08 1420.17 1579.5 Q1417.12 1574.89 1417.12 1566.16 Q1417.12 1557.41 1420.17 1552.83 Q1423.25 1548.22 1429.06 1548.22 Z" fill="#000000" fill-rule="nonzero" fill-opacity="1" /><path clip-path="url(#clip180)" d="M1459.22 1551.93 Q1455.61 1551.93 1453.78 1555.49 Q1451.98 1559.03 1451.98 1566.16 Q1451.98 1573.27 1453.78 1576.83 Q1455.61 1580.38 1459.22 1580.38 Q1462.86 1580.38 1464.66 1576.83 Q1466.49 1573.27 1466.49 1566.16 Q1466.49 1559.03 1464.66 1555.49 Q1462.86 1551.93 1459.22 1551.93 M1459.22 1548.22 Q1465.03 1548.22 1468.09 1552.83 Q1471.17 1557.41 1471.17 1566.16 Q1471.17 1574.89 1468.09 1579.5 Q1465.03 1584.08 1459.22 1584.08 Q1453.41 1584.08 1450.33 1579.5 Q1447.28 1574.89 1447.28 1566.16 Q1447.28 1557.41 1450.33 1552.83 Q1453.41 1548.22 1459.22 1548.22 Z" fill="#000000" fill-rule="nonzero" fill-opacity="1" /><path clip-path="url(#clip180)" d="M1888.46 1551.93 Q1884.85 1551.93 1883.02 1555.49 Q1881.21 1559.03 1881.21 1566.16 Q1881.21 1573.27 1883.02 1576.83 Q1884.85 1580.38 1888.46 1580.38 Q1892.09 1580.38 1893.9 1576.83 Q1895.73 1573.27 1895.73 1566.16 Q1895.73 1559.03 1893.9 1555.49 Q1892.09 1551.93 1888.46 1551.93 M1888.46 1548.22 Q1894.27 1548.22 1897.32 1552.83 Q1900.4 1557.41 1900.4 1566.16 Q1900.4 1574.89 1897.32 1579.5 Q1894.27 1584.08 1888.46 1584.08 Q1882.65 1584.08 1879.57 1579.5 Q1876.51 1574.89 1876.51 1566.16 Q1876.51 1557.41 1879.57 1552.83 Q1882.65 1548.22 1888.46 1548.22 Z" fill="#000000" fill-rule="nonzero" fill-opacity="1" /><path clip-path="url(#clip180)" d="M1908.62 1577.53 L1913.5 1577.53 L1913.5 1583.41 L1908.62 1583.41 L1908.62 1577.53 Z" fill="#000000" fill-rule="nonzero" fill-opacity="1" /><path clip-path="url(#clip180)" d="M1933.69 1551.93 Q1930.08 1551.93 1928.25 1555.49 Q1926.44 1559.03 1926.44 1566.16 Q1926.44 1573.27 1928.25 1576.83 Q1930.08 1580.38 1933.69 1580.38 Q1937.32 1580.38 1939.13 1576.83 Q1940.96 1573.27 1940.96 1566.16 Q1940.96 1559.03 1939.13 1555.49 Q1937.32 1551.93 1933.69 1551.93 M1933.69 1548.22 Q1939.5 1548.22 1942.55 1552.83 Q1945.63 1557.41 1945.63 1566.16 Q1945.63 1574.89 1942.55 1579.5 Q1939.5 1584.08 1933.69 1584.08 Q1927.88 1584.08 1924.8 1579.5 Q1921.74 1574.89 1921.74 1566.16 Q1921.74 1557.41 1924.8 1552.83 Q1927.88 1548.22 1933.69 1548.22 Z" fill="#000000" fill-rule="nonzero" fill-opacity="1" /><path clip-path="url(#clip180)" d="M1953.9 1548.85 L1972.25 1548.85 L1972.25 1552.78 L1958.18 1552.78 L1958.18 1561.26 Q1959.2 1560.91 1960.22 1560.75 Q1961.24 1560.56 1962.25 1560.56 Q1968.04 1560.56 1971.42 1563.73 Q1974.8 1566.9 1974.8 1572.32 Q1974.8 1577.9 1971.33 1581 Q1967.86 1584.08 1961.54 1584.08 Q1959.36 1584.08 1957.09 1583.71 Q1954.85 1583.34 1952.44 1582.6 L1952.44 1577.9 Q1954.52 1579.03 1956.74 1579.59 Q1958.97 1580.14 1961.44 1580.14 Q1965.45 1580.14 1967.79 1578.04 Q1970.12 1575.93 1970.12 1572.32 Q1970.12 1568.71 1967.79 1566.6 Q1965.45 1564.5 1961.44 1564.5 Q1959.57 1564.5 1957.69 1564.91 Q1955.84 1565.33 1953.9 1566.21 L1953.9 1548.85 Z" fill="#000000" fill-rule="nonzero" fill-opacity="1" /><polyline clip-path="url(#clip182)" style="stroke:#000000; stroke-linecap:round; stroke-linejoin:round; stroke-width:2; stroke-opacity:0.1; fill:none" points="86.9921,1521.01 2352.76,1521.01 "/>
<polyline clip-path="url(#clip182)" style="stroke:#000000; stroke-linecap:round; stroke-linejoin:round; stroke-width:2; stroke-opacity:0.1; fill:none" points="86.9921,1111.63 2352.76,1111.63 "/>
<polyline clip-path="url(#clip182)" style="stroke:#000000; stroke-linecap:round; stroke-linejoin:round; stroke-width:2; stroke-opacity:0.1; fill:none" points="86.9921,702.25 2352.76,702.25 "/>
<polyline clip-path="url(#clip182)" style="stroke:#000000; stroke-linecap:round; stroke-linejoin:round; stroke-width:2; stroke-opacity:0.1; fill:none" points="86.9921,292.871 2352.76,292.871 "/>
<polyline clip-path="url(#clip180)" style="stroke:#000000; stroke-linecap:round; stroke-linejoin:round; stroke-width:4; stroke-opacity:1; fill:none" points="86.9921,1521.01 86.9921,47.2441 "/>
<polyline clip-path="url(#clip180)" style="stroke:#000000; stroke-linecap:round; stroke-linejoin:round; stroke-width:4; stroke-opacity:1; fill:none" points="86.9921,1521.01 105.89,1521.01 "/>
<polyline clip-path="url(#clip180)" style="stroke:#000000; stroke-linecap:round; stroke-linejoin:round; stroke-width:4; stroke-opacity:1; fill:none" points="86.9921,1111.63 105.89,1111.63 "/>
<polyline clip-path="url(#clip180)" style="stroke:#000000; stroke-linecap:round; stroke-linejoin:round; stroke-width:4; stroke-opacity:1; fill:none" points="86.9921,702.25 105.89,702.25 "/>
<polyline clip-path="url(#clip180)" style="stroke:#000000; stroke-linecap:round; stroke-linejoin:round; stroke-width:4; stroke-opacity:1; fill:none" points="86.9921,292.871 105.89,292.871 "/>
<path clip-path="url(#clip180)" d="M10.8708 1521.01 Q10.8708 1524.62 14.4356 1526.45 Q17.9773 1528.25 25.1068 1528.25 Q32.2133 1528.25 35.7781 1526.45 Q39.3197 1524.62 39.3197 1521.01 Q39.3197 1517.37 35.7781 1515.57 Q32.2133 1513.74 25.1068 1513.74 Q17.9773 1513.74 14.4356 1515.57 Q10.8708 1517.37 10.8708 1521.01 M7.16713 1521.01 Q7.16713 1515.2 11.7736 1512.14 Q16.3569 1509.06 25.1068 1509.06 Q33.8337 1509.06 38.4401 1512.14 Q43.0234 1515.2 43.0234 1521.01 Q43.0234 1526.82 38.4401 1529.9 Q33.8337 1532.95 25.1068 1532.95 Q16.3569 1532.95 11.7736 1529.9 Q7.16713 1526.82 7.16713 1521.01 Z" fill="#000000" fill-rule="nonzero" fill-opacity="1" /><path clip-path="url(#clip180)" d="M38.417 1152.02 L38.417 1144.38 L12.0514 1144.38 L13.718 1152.69 L9.45878 1152.69 L7.79213 1144.43 L7.79213 1139.75 L38.417 1139.75 L38.417 1132.12 L42.3521 1132.12 L42.3521 1152.02 L38.417 1152.02 Z" fill="#000000" fill-rule="nonzero" fill-opacity="1" /><path clip-path="url(#clip180)" d="M10.8708 1112.67 Q10.8708 1116.28 14.4356 1118.11 Q17.9773 1119.92 25.1068 1119.92 Q32.2133 1119.92 35.7781 1118.11 Q39.3197 1116.28 39.3197 1112.67 Q39.3197 1109.04 35.7781 1107.23 Q32.2133 1105.4 25.1068 1105.4 Q17.9773 1105.4 14.4356 1107.23 Q10.8708 1109.04 10.8708 1112.67 M7.16713 1112.67 Q7.16713 1106.86 11.7736 1103.81 Q16.3569 1100.73 25.1068 1100.73 Q33.8337 1100.73 38.4401 1103.81 Q43.0234 1106.86 43.0234 1112.67 Q43.0234 1118.48 38.4401 1121.56 Q33.8337 1124.62 25.1068 1124.62 Q16.3569 1124.62 11.7736 1121.56 Q7.16713 1118.48 7.16713 1112.67 Z" fill="#000000" fill-rule="nonzero" fill-opacity="1" /><path clip-path="url(#clip180)" d="M10.8708 1082.51 Q10.8708 1086.12 14.4356 1087.95 Q17.9773 1089.75 25.1068 1089.75 Q32.2133 1089.75 35.7781 1087.95 Q39.3197 1086.12 39.3197 1082.51 Q39.3197 1078.87 35.7781 1077.07 Q32.2133 1075.24 25.1068 1075.24 Q17.9773 1075.24 14.4356 1077.07 Q10.8708 1078.87 10.8708 1082.51 M7.16713 1082.51 Q7.16713 1076.7 11.7736 1073.64 Q16.3569 1070.56 25.1068 1070.56 Q33.8337 1070.56 38.4401 1073.64 Q43.0234 1076.7 43.0234 1082.51 Q43.0234 1088.32 38.4401 1091.4 Q33.8337 1094.45 25.1068 1094.45 Q16.3569 1094.45 11.7736 1091.4 Q7.16713 1088.32 7.16713 1082.51 Z" fill="#000000" fill-rule="nonzero" fill-opacity="1" /><path clip-path="url(#clip180)" d="M38.417 738.558 L38.417 722.239 L42.3521 722.239 L42.3521 744.183 L38.417 744.183 Q35.6623 741.521 31.0327 736.938 Q26.38 732.331 25.0374 731.151 Q22.5143 728.905 20.7782 728.026 Q19.0189 727.123 17.3291 727.123 Q14.5745 727.123 12.8384 729.067 Q11.1023 730.988 11.1023 734.09 Q11.1023 736.289 11.8662 738.743 Q12.6301 741.174 14.181 743.951 L9.45878 743.951 Q8.32453 741.127 7.74583 738.674 Q7.16713 736.22 7.16713 734.183 Q7.16713 728.813 9.8523 725.618 Q12.5375 722.424 17.0282 722.424 Q19.1578 722.424 21.0791 723.234 Q22.9772 724.021 25.5698 726.127 Q26.2411 726.706 29.4587 729.808 Q32.6531 732.91 38.417 738.558 Z" fill="#000000" fill-rule="nonzero" fill-opacity="1" /><path clip-path="url(#clip180)" d="M10.8708 702.424 Q10.8708 706.035 14.4356 707.864 Q17.9773 709.669 25.1068 709.669 Q32.2133 709.669 35.7781 707.864 Q39.3197 706.035 39.3197 702.424 Q39.3197 698.79 35.7781 696.984 Q32.2133 695.155 25.1068 695.155 Q17.9773 695.155 14.4356 696.984 Q10.8708 698.79 10.8708 702.424 M7.16713 702.424 Q7.16713 696.614 11.7736 693.558 Q16.3569 690.479 25.1068 690.479 Q33.8337 690.479 38.4401 693.558 Q43.0234 696.614 43.0234 702.424 Q43.0234 708.234 38.4401 711.313 Q33.8337 714.368 25.1068 714.368 Q16.3569 714.368 11.7736 711.313 Q7.16713 708.234 7.16713 702.424 Z" fill="#000000" fill-rule="nonzero" fill-opacity="1" /><path clip-path="url(#clip180)" d="M10.8708 672.262 Q10.8708 675.873 14.4356 677.702 Q17.9773 679.507 25.1068 679.507 Q32.2133 679.507 35.7781 677.702 Q39.3197 675.873 39.3197 672.262 Q39.3197 668.628 35.7781 666.822 Q32.2133 664.993 25.1068 664.993 Q17.9773 664.993 14.4356 666.822 Q10.8708 668.628 10.8708 672.262 M7.16713 672.262 Q7.16713 666.452 11.7736 663.396 Q16.3569 660.318 25.1068 660.318 Q33.8337 660.318 38.4401 663.396 Q43.0234 666.452 43.0234 672.262 Q43.0234 678.072 38.4401 681.151 Q33.8337 684.206 25.1068 684.206 Q16.3569 684.206 11.7736 681.151 Q7.16713 678.072 7.16713 672.262 Z" fill="#000000" fill-rule="nonzero" fill-opacity="1" /><path clip-path="url(#clip180)" d="M23.718 319.11 Q24.4356 315.753 26.7041 313.878 Q28.9726 311.98 32.3059 311.98 Q37.4216 311.98 40.2225 315.499 Q43.0234 319.017 43.0234 325.499 Q43.0234 327.674 42.5836 329.989 Q42.1669 332.281 41.3105 334.735 L36.7966 334.735 Q37.9309 332.79 38.5096 330.475 Q39.0883 328.161 39.0883 325.637 Q39.0883 321.239 37.3522 318.948 Q35.6161 316.633 32.3059 316.633 Q29.2503 316.633 27.5374 318.786 Q25.8013 320.915 25.8013 324.735 L25.8013 328.762 L21.9587 328.762 L21.9587 324.549 Q21.9587 321.1 20.593 319.272 Q19.2041 317.443 16.6115 317.443 Q13.9495 317.443 12.5375 319.341 Q11.1023 321.216 11.1023 324.735 Q11.1023 326.656 11.519 328.855 Q11.9356 331.054 12.8152 333.693 L8.6486 333.693 Q7.90787 331.031 7.5375 328.716 Q7.16713 326.378 7.16713 324.318 Q7.16713 318.994 9.59767 315.892 Q12.0051 312.79 16.1254 312.79 Q18.9958 312.79 20.9865 314.434 Q22.9541 316.077 23.718 319.11 Z" fill="#000000" fill-rule="nonzero" fill-opacity="1" /><path clip-path="url(#clip180)" d="M10.8708 293.114 Q10.8708 296.726 14.4356 298.554 Q17.9773 300.36 25.1068 300.36 Q32.2133 300.36 35.7781 298.554 Q39.3197 296.726 39.3197 293.114 Q39.3197 289.48 35.7781 287.675 Q32.2133 285.846 25.1068 285.846 Q17.9773 285.846 14.4356 287.675 Q10.8708 289.48 10.8708 293.114 M7.16713 293.114 Q7.16713 287.304 11.7736 284.249 Q16.3569 281.17 25.1068 281.17 Q33.8337 281.17 38.4401 284.249 Q43.0234 287.304 43.0234 293.114 Q43.0234 298.925 38.4401 302.003 Q33.8337 305.059 25.1068 305.059 Q16.3569 305.059 11.7736 302.003 Q7.16713 298.925 7.16713 293.114 Z" fill="#000000" fill-rule="nonzero" fill-opacity="1" /><path clip-path="url(#clip180)" d="M10.8708 262.953 Q10.8708 266.564 14.4356 268.392 Q17.9773 270.198 25.1068 270.198 Q32.2133 270.198 35.7781 268.392 Q39.3197 266.564 39.3197 262.953 Q39.3197 259.318 35.7781 257.513 Q32.2133 255.684 25.1068 255.684 Q17.9773 255.684 14.4356 257.513 Q10.8708 259.318 10.8708 262.953 M7.16713 262.953 Q7.16713 257.142 11.7736 254.087 Q16.3569 251.008 25.1068 251.008 Q33.8337 251.008 38.4401 254.087 Q43.0234 257.142 43.0234 262.953 Q43.0234 268.763 38.4401 271.841 Q33.8337 274.897 25.1068 274.897 Q16.3569 274.897 11.7736 271.841 Q7.16713 268.763 7.16713 262.953 Z" fill="#000000" fill-rule="nonzero" fill-opacity="1" /><path clip-path="url(#clip182)" d="M211.613 1516.91 L211.613 1521.01 L262.026 1521.01 L262.026 1516.91 L211.613 1516.91 L211.613 1516.91  Z" fill="#009af9" fill-rule="evenodd" fill-opacity="1"/>
<polyline clip-path="url(#clip182)" style="stroke:#000000; stroke-linecap:round; stroke-linejoin:round; stroke-width:4; stroke-opacity:1; fill:none" points="211.613,1516.91 211.613,1521.01 262.026,1521.01 262.026,1516.91 211.613,1516.91 "/>
<path clip-path="url(#clip182)" d="M262.026 1508.73 L262.026 1521.01 L312.439 1521.01 L312.439 1508.73 L262.026 1508.73 L262.026 1508.73  Z" fill="#009af9" fill-rule="evenodd" fill-opacity="1"/>
<polyline clip-path="url(#clip182)" style="stroke:#000000; stroke-linecap:round; stroke-linejoin:round; stroke-width:4; stroke-opacity:1; fill:none" points="262.026,1508.73 262.026,1521.01 312.439,1521.01 312.439,1508.73 262.026,1508.73 "/>
<path clip-path="url(#clip182)" d="M312.439 1504.63 L312.439 1521.01 L362.852 1521.01 L362.852 1504.63 L312.439 1504.63 L312.439 1504.63  Z" fill="#009af9" fill-rule="evenodd" fill-opacity="1"/>
<polyline clip-path="url(#clip182)" style="stroke:#000000; stroke-linecap:round; stroke-linejoin:round; stroke-width:4; stroke-opacity:1; fill:none" points="312.439,1504.63 312.439,1521.01 362.852,1521.01 362.852,1504.63 312.439,1504.63 "/>
<path clip-path="url(#clip182)" d="M362.852 1471.88 L362.852 1521.01 L413.265 1521.01 L413.265 1471.88 L362.852 1471.88 L362.852 1471.88  Z" fill="#009af9" fill-rule="evenodd" fill-opacity="1"/>
<polyline clip-path="url(#clip182)" style="stroke:#000000; stroke-linecap:round; stroke-linejoin:round; stroke-width:4; stroke-opacity:1; fill:none" points="362.852,1471.88 362.852,1521.01 413.265,1521.01 413.265,1471.88 362.852,1471.88 "/>
<path clip-path="url(#clip182)" d="M413.265 1430.94 L413.265 1521.01 L463.678 1521.01 L463.678 1430.94 L413.265 1430.94 L413.265 1430.94  Z" fill="#009af9" fill-rule="evenodd" fill-opacity="1"/>
<polyline clip-path="url(#clip182)" style="stroke:#000000; stroke-linecap:round; stroke-linejoin:round; stroke-width:4; stroke-opacity:1; fill:none" points="413.265,1430.94 413.265,1521.01 463.678,1521.01 463.678,1430.94 413.265,1430.94 "/>
<path clip-path="url(#clip182)" d="M463.678 1418.66 L463.678 1521.01 L514.091 1521.01 L514.091 1418.66 L463.678 1418.66 L463.678 1418.66  Z" fill="#009af9" fill-rule="evenodd" fill-opacity="1"/>
<polyline clip-path="url(#clip182)" style="stroke:#000000; stroke-linecap:round; stroke-linejoin:round; stroke-width:4; stroke-opacity:1; fill:none" points="463.678,1418.66 463.678,1521.01 514.091,1521.01 514.091,1418.66 463.678,1418.66 "/>
<path clip-path="url(#clip182)" d="M514.091 1398.19 L514.091 1521.01 L564.504 1521.01 L564.504 1398.19 L514.091 1398.19 L514.091 1398.19  Z" fill="#009af9" fill-rule="evenodd" fill-opacity="1"/>
<polyline clip-path="url(#clip182)" style="stroke:#000000; stroke-linecap:round; stroke-linejoin:round; stroke-width:4; stroke-opacity:1; fill:none" points="514.091,1398.19 514.091,1521.01 564.504,1521.01 564.504,1398.19 514.091,1398.19 "/>
<path clip-path="url(#clip182)" d="M564.504 1308.13 L564.504 1521.01 L614.918 1521.01 L614.918 1308.13 L564.504 1308.13 L564.504 1308.13  Z" fill="#009af9" fill-rule="evenodd" fill-opacity="1"/>
<polyline clip-path="url(#clip182)" style="stroke:#000000; stroke-linecap:round; stroke-linejoin:round; stroke-width:4; stroke-opacity:1; fill:none" points="564.504,1308.13 564.504,1521.01 614.918,1521.01 614.918,1308.13 564.504,1308.13 "/>
<path clip-path="url(#clip182)" d="M614.918 1242.63 L614.918 1521.01 L665.331 1521.01 L665.331 1242.63 L614.918 1242.63 L614.918 1242.63  Z" fill="#009af9" fill-rule="evenodd" fill-opacity="1"/>
<polyline clip-path="url(#clip182)" style="stroke:#000000; stroke-linecap:round; stroke-linejoin:round; stroke-width:4; stroke-opacity:1; fill:none" points="614.918,1242.63 614.918,1521.01 665.331,1521.01 665.331,1242.63 614.918,1242.63 "/>
<path clip-path="url(#clip182)" d="M665.331 1144.38 L665.331 1521.01 L715.744 1521.01 L715.744 1144.38 L665.331 1144.38 L665.331 1144.38  Z" fill="#009af9" fill-rule="evenodd" fill-opacity="1"/>
<polyline clip-path="url(#clip182)" style="stroke:#000000; stroke-linecap:round; stroke-linejoin:round; stroke-width:4; stroke-opacity:1; fill:none" points="665.331,1144.38 665.331,1521.01 715.744,1521.01 715.744,1144.38 665.331,1144.38 "/>
<path clip-path="url(#clip182)" d="M715.744 1070.69 L715.744 1521.01 L766.157 1521.01 L766.157 1070.69 L715.744 1070.69 L715.744 1070.69  Z" fill="#009af9" fill-rule="evenodd" fill-opacity="1"/>
<polyline clip-path="url(#clip182)" style="stroke:#000000; stroke-linecap:round; stroke-linejoin:round; stroke-width:4; stroke-opacity:1; fill:none" points="715.744,1070.69 715.744,1521.01 766.157,1521.01 766.157,1070.69 715.744,1070.69 "/>
<path clip-path="url(#clip182)" d="M766.157 906.94 L766.157 1521.01 L816.57 1521.01 L816.57 906.94 L766.157 906.94 L766.157 906.94  Z" fill="#009af9" fill-rule="evenodd" fill-opacity="1"/>
<polyline clip-path="url(#clip182)" style="stroke:#000000; stroke-linecap:round; stroke-linejoin:round; stroke-width:4; stroke-opacity:1; fill:none" points="766.157,906.94 766.157,1521.01 816.57,1521.01 816.57,906.94 766.157,906.94 "/>
<path clip-path="url(#clip182)" d="M816.57 833.251 L816.57 1521.01 L866.983 1521.01 L866.983 833.251 L816.57 833.251 L816.57 833.251  Z" fill="#009af9" fill-rule="evenodd" fill-opacity="1"/>
<polyline clip-path="url(#clip182)" style="stroke:#000000; stroke-linecap:round; stroke-linejoin:round; stroke-width:4; stroke-opacity:1; fill:none" points="816.57,833.251 816.57,1521.01 866.983,1521.01 866.983,833.251 816.57,833.251 "/>
<path clip-path="url(#clip182)" d="M866.983 628.562 L866.983 1521.01 L917.396 1521.01 L917.396 628.562 L866.983 628.562 L866.983 628.562  Z" fill="#009af9" fill-rule="evenodd" fill-opacity="1"/>
<polyline clip-path="url(#clip182)" style="stroke:#000000; stroke-linecap:round; stroke-linejoin:round; stroke-width:4; stroke-opacity:1; fill:none" points="866.983,628.562 866.983,1521.01 917.396,1521.01 917.396,628.562 866.983,628.562 "/>
<path clip-path="url(#clip182)" d="M917.396 489.373 L917.396 1521.01 L967.809 1521.01 L967.809 489.373 L917.396 489.373 L917.396 489.373  Z" fill="#009af9" fill-rule="evenodd" fill-opacity="1"/>
<polyline clip-path="url(#clip182)" style="stroke:#000000; stroke-linecap:round; stroke-linejoin:round; stroke-width:4; stroke-opacity:1; fill:none" points="917.396,489.373 917.396,1521.01 967.809,1521.01 967.809,489.373 917.396,489.373 "/>
<path clip-path="url(#clip182)" d="M967.809 464.81 L967.809 1521.01 L1018.22 1521.01 L1018.22 464.81 L967.809 464.81 L967.809 464.81  Z" fill="#009af9" fill-rule="evenodd" fill-opacity="1"/>
<polyline clip-path="url(#clip182)" style="stroke:#000000; stroke-linecap:round; stroke-linejoin:round; stroke-width:4; stroke-opacity:1; fill:none" points="967.809,464.81 967.809,1521.01 1018.22,1521.01 1018.22,464.81 967.809,464.81 "/>
<path clip-path="url(#clip182)" d="M1018.22 120.932 L1018.22 1521.01 L1068.63 1521.01 L1068.63 120.932 L1018.22 120.932 L1018.22 120.932  Z" fill="#009af9" fill-rule="evenodd" fill-opacity="1"/>
<polyline clip-path="url(#clip182)" style="stroke:#000000; stroke-linecap:round; stroke-linejoin:round; stroke-width:4; stroke-opacity:1; fill:none" points="1018.22,120.932 1018.22,1521.01 1068.63,1521.01 1068.63,120.932 1018.22,120.932 "/>
<path clip-path="url(#clip182)" d="M1068.63 92.2758 L1068.63 1521.01 L1119.05 1521.01 L1119.05 92.2758 L1068.63 92.2758 L1068.63 92.2758  Z" fill="#009af9" fill-rule="evenodd" fill-opacity="1"/>
<polyline clip-path="url(#clip182)" style="stroke:#000000; stroke-linecap:round; stroke-linejoin:round; stroke-width:4; stroke-opacity:1; fill:none" points="1068.63,92.2758 1068.63,1521.01 1119.05,1521.01 1119.05,92.2758 1068.63,92.2758 "/>
<path clip-path="url(#clip182)" d="M1119.05 47.2441 L1119.05 1521.01 L1169.46 1521.01 L1169.46 47.2441 L1119.05 47.2441 L1119.05 47.2441  Z" fill="#009af9" fill-rule="evenodd" fill-opacity="1"/>
<polyline clip-path="url(#clip182)" style="stroke:#000000; stroke-linecap:round; stroke-linejoin:round; stroke-width:4; stroke-opacity:1; fill:none" points="1119.05,47.2441 1119.05,1521.01 1169.46,1521.01 1169.46,47.2441 1119.05,47.2441 "/>
<path clip-path="url(#clip182)" d="M1169.46 137.307 L1169.46 1521.01 L1219.87 1521.01 L1219.87 137.307 L1169.46 137.307 L1169.46 137.307  Z" fill="#009af9" fill-rule="evenodd" fill-opacity="1"/>
<polyline clip-path="url(#clip182)" style="stroke:#000000; stroke-linecap:round; stroke-linejoin:round; stroke-width:4; stroke-opacity:1; fill:none" points="1169.46,137.307 1169.46,1521.01 1219.87,1521.01 1219.87,137.307 1169.46,137.307 "/>
<path clip-path="url(#clip182)" d="M1219.87 133.214 L1219.87 1521.01 L1270.29 1521.01 L1270.29 133.214 L1219.87 133.214 L1219.87 133.214  Z" fill="#009af9" fill-rule="evenodd" fill-opacity="1"/>
<polyline clip-path="url(#clip182)" style="stroke:#000000; stroke-linecap:round; stroke-linejoin:round; stroke-width:4; stroke-opacity:1; fill:none" points="1219.87,133.214 1219.87,1521.01 1270.29,1521.01 1270.29,133.214 1219.87,133.214 "/>
<path clip-path="url(#clip182)" d="M1270.29 202.808 L1270.29 1521.01 L1320.7 1521.01 L1320.7 202.808 L1270.29 202.808 L1270.29 202.808  Z" fill="#009af9" fill-rule="evenodd" fill-opacity="1"/>
<polyline clip-path="url(#clip182)" style="stroke:#000000; stroke-linecap:round; stroke-linejoin:round; stroke-width:4; stroke-opacity:1; fill:none" points="1270.29,202.808 1270.29,1521.01 1320.7,1521.01 1320.7,202.808 1270.29,202.808 "/>
<path clip-path="url(#clip182)" d="M1320.7 362.466 L1320.7 1521.01 L1371.11 1521.01 L1371.11 362.466 L1320.7 362.466 L1320.7 362.466  Z" fill="#009af9" fill-rule="evenodd" fill-opacity="1"/>
<polyline clip-path="url(#clip182)" style="stroke:#000000; stroke-linecap:round; stroke-linejoin:round; stroke-width:4; stroke-opacity:1; fill:none" points="1320.7,362.466 1320.7,1521.01 1371.11,1521.01 1371.11,362.466 1320.7,362.466 "/>
<path clip-path="url(#clip182)" d="M1371.11 558.968 L1371.11 1521.01 L1421.53 1521.01 L1421.53 558.968 L1371.11 558.968 L1371.11 558.968  Z" fill="#009af9" fill-rule="evenodd" fill-opacity="1"/>
<polyline clip-path="url(#clip182)" style="stroke:#000000; stroke-linecap:round; stroke-linejoin:round; stroke-width:4; stroke-opacity:1; fill:none" points="1371.11,558.968 1371.11,1521.01 1421.53,1521.01 1421.53,558.968 1371.11,558.968 "/>
<path clip-path="url(#clip182)" d="M1421.53 603.999 L1421.53 1521.01 L1471.94 1521.01 L1471.94 603.999 L1421.53 603.999 L1421.53 603.999  Z" fill="#009af9" fill-rule="evenodd" fill-opacity="1"/>
<polyline clip-path="url(#clip182)" style="stroke:#000000; stroke-linecap:round; stroke-linejoin:round; stroke-width:4; stroke-opacity:1; fill:none" points="1421.53,603.999 1421.53,1521.01 1471.94,1521.01 1471.94,603.999 1421.53,603.999 "/>
<path clip-path="url(#clip182)" d="M1471.94 710.438 L1471.94 1521.01 L1522.35 1521.01 L1522.35 710.438 L1471.94 710.438 L1471.94 710.438  Z" fill="#009af9" fill-rule="evenodd" fill-opacity="1"/>
<polyline clip-path="url(#clip182)" style="stroke:#000000; stroke-linecap:round; stroke-linejoin:round; stroke-width:4; stroke-opacity:1; fill:none" points="1471.94,710.438 1471.94,1521.01 1522.35,1521.01 1522.35,710.438 1471.94,710.438 "/>
<path clip-path="url(#clip182)" d="M1522.35 898.752 L1522.35 1521.01 L1572.77 1521.01 L1572.77 898.752 L1522.35 898.752 L1522.35 898.752  Z" fill="#009af9" fill-rule="evenodd" fill-opacity="1"/>
<polyline clip-path="url(#clip182)" style="stroke:#000000; stroke-linecap:round; stroke-linejoin:round; stroke-width:4; stroke-opacity:1; fill:none" points="1522.35,898.752 1522.35,1521.01 1572.77,1521.01 1572.77,898.752 1522.35,898.752 "/>
<path clip-path="url(#clip182)" d="M1572.77 1050.22 L1572.77 1521.01 L1623.18 1521.01 L1623.18 1050.22 L1572.77 1050.22 L1572.77 1050.22  Z" fill="#009af9" fill-rule="evenodd" fill-opacity="1"/>
<polyline clip-path="url(#clip182)" style="stroke:#000000; stroke-linecap:round; stroke-linejoin:round; stroke-width:4; stroke-opacity:1; fill:none" points="1572.77,1050.22 1572.77,1521.01 1623.18,1521.01 1623.18,1050.22 1572.77,1050.22 "/>
<path clip-path="url(#clip182)" d="M1623.18 1226.26 L1623.18 1521.01 L1673.59 1521.01 L1673.59 1226.26 L1623.18 1226.26 L1623.18 1226.26  Z" fill="#009af9" fill-rule="evenodd" fill-opacity="1"/>
<polyline clip-path="url(#clip182)" style="stroke:#000000; stroke-linecap:round; stroke-linejoin:round; stroke-width:4; stroke-opacity:1; fill:none" points="1623.18,1226.26 1623.18,1521.01 1673.59,1521.01 1673.59,1226.26 1623.18,1226.26 "/>
<path clip-path="url(#clip182)" d="M1673.59 1287.66 L1673.59 1521.01 L1724 1521.01 L1724 1287.66 L1673.59 1287.66 L1673.59 1287.66  Z" fill="#009af9" fill-rule="evenodd" fill-opacity="1"/>
<polyline clip-path="url(#clip182)" style="stroke:#000000; stroke-linecap:round; stroke-linejoin:round; stroke-width:4; stroke-opacity:1; fill:none" points="1673.59,1287.66 1673.59,1521.01 1724,1521.01 1724,1287.66 1673.59,1287.66 "/>
<path clip-path="url(#clip182)" d="M1724 1316.32 L1724 1521.01 L1774.42 1521.01 L1774.42 1316.32 L1724 1316.32 L1724 1316.32  Z" fill="#009af9" fill-rule="evenodd" fill-opacity="1"/>
<polyline clip-path="url(#clip182)" style="stroke:#000000; stroke-linecap:round; stroke-linejoin:round; stroke-width:4; stroke-opacity:1; fill:none" points="1724,1316.32 1724,1521.01 1774.42,1521.01 1774.42,1316.32 1724,1316.32 "/>
<path clip-path="url(#clip182)" d="M1774.42 1369.54 L1774.42 1521.01 L1824.83 1521.01 L1824.83 1369.54 L1774.42 1369.54 L1774.42 1369.54  Z" fill="#009af9" fill-rule="evenodd" fill-opacity="1"/>
<polyline clip-path="url(#clip182)" style="stroke:#000000; stroke-linecap:round; stroke-linejoin:round; stroke-width:4; stroke-opacity:1; fill:none" points="1774.42,1369.54 1774.42,1521.01 1824.83,1521.01 1824.83,1369.54 1774.42,1369.54 "/>
<path clip-path="url(#clip182)" d="M1824.83 1443.23 L1824.83 1521.01 L1875.24 1521.01 L1875.24 1443.23 L1824.83 1443.23 L1824.83 1443.23  Z" fill="#009af9" fill-rule="evenodd" fill-opacity="1"/>
<polyline clip-path="url(#clip182)" style="stroke:#000000; stroke-linecap:round; stroke-linejoin:round; stroke-width:4; stroke-opacity:1; fill:none" points="1824.83,1443.23 1824.83,1521.01 1875.24,1521.01 1875.24,1443.23 1824.83,1443.23 "/>
<path clip-path="url(#clip182)" d="M1875.24 1447.32 L1875.24 1521.01 L1925.66 1521.01 L1925.66 1447.32 L1875.24 1447.32 L1875.24 1447.32  Z" fill="#009af9" fill-rule="evenodd" fill-opacity="1"/>
<polyline clip-path="url(#clip182)" style="stroke:#000000; stroke-linecap:round; stroke-linejoin:round; stroke-width:4; stroke-opacity:1; fill:none" points="1875.24,1447.32 1875.24,1521.01 1925.66,1521.01 1925.66,1447.32 1875.24,1447.32 "/>
<path clip-path="url(#clip182)" d="M1925.66 1475.98 L1925.66 1521.01 L1976.07 1521.01 L1976.07 1475.98 L1925.66 1475.98 L1925.66 1475.98  Z" fill="#009af9" fill-rule="evenodd" fill-opacity="1"/>
<polyline clip-path="url(#clip182)" style="stroke:#000000; stroke-linecap:round; stroke-linejoin:round; stroke-width:4; stroke-opacity:1; fill:none" points="1925.66,1475.98 1925.66,1521.01 1976.07,1521.01 1976.07,1475.98 1925.66,1475.98 "/>
<path clip-path="url(#clip182)" d="M1976.07 1508.73 L1976.07 1521.01 L2026.48 1521.01 L2026.48 1508.73 L1976.07 1508.73 L1976.07 1508.73  Z" fill="#009af9" fill-rule="evenodd" fill-opacity="1"/>
<polyline clip-path="url(#clip182)" style="stroke:#000000; stroke-linecap:round; stroke-linejoin:round; stroke-width:4; stroke-opacity:1; fill:none" points="1976.07,1508.73 1976.07,1521.01 2026.48,1521.01 2026.48,1508.73 1976.07,1508.73 "/>
<path clip-path="url(#clip182)" d="M2026.48 1492.35 L2026.48 1521.01 L2076.9 1521.01 L2076.9 1492.35 L2026.48 1492.35 L2026.48 1492.35  Z" fill="#009af9" fill-rule="evenodd" fill-opacity="1"/>
<polyline clip-path="url(#clip182)" style="stroke:#000000; stroke-linecap:round; stroke-linejoin:round; stroke-width:4; stroke-opacity:1; fill:none" points="2026.48,1492.35 2026.48,1521.01 2076.9,1521.01 2076.9,1492.35 2026.48,1492.35 "/>
<path clip-path="url(#clip182)" d="M2076.9 1508.73 L2076.9 1521.01 L2127.31 1521.01 L2127.31 1508.73 L2076.9 1508.73 L2076.9 1508.73  Z" fill="#009af9" fill-rule="evenodd" fill-opacity="1"/>
<polyline clip-path="url(#clip182)" style="stroke:#000000; stroke-linecap:round; stroke-linejoin:round; stroke-width:4; stroke-opacity:1; fill:none" points="2076.9,1508.73 2076.9,1521.01 2127.31,1521.01 2127.31,1508.73 2076.9,1508.73 "/>
<path clip-path="url(#clip182)" d="M2127.31 1521.01 L2127.31 1521.01 L2177.72 1521.01 L2177.72 1521.01 L2127.31 1521.01 L2127.31 1521.01  Z" fill="#009af9" fill-rule="evenodd" fill-opacity="1"/>
<polyline clip-path="url(#clip182)" style="stroke:#000000; stroke-linecap:round; stroke-linejoin:round; stroke-width:4; stroke-opacity:1; fill:none" points="2127.31,1521.01 2127.31,1521.01 2177.72,1521.01 2127.31,1521.01 "/>
<path clip-path="url(#clip182)" d="M2177.72 1516.91 L2177.72 1521.01 L2228.13 1521.01 L2228.13 1516.91 L2177.72 1516.91 L2177.72 1516.91  Z" fill="#009af9" fill-rule="evenodd" fill-opacity="1"/>
<polyline clip-path="url(#clip182)" style="stroke:#000000; stroke-linecap:round; stroke-linejoin:round; stroke-width:4; stroke-opacity:1; fill:none" points="2177.72,1516.91 2177.72,1521.01 2228.13,1521.01 2228.13,1516.91 2177.72,1516.91 "/>
<circle clip-path="url(#clip182)" style="fill:#009af9; stroke:none; fill-opacity:0" cx="236.82" cy="1516.91" r="2"/>
<circle clip-path="url(#clip182)" style="fill:#009af9; stroke:none; fill-opacity:0" cx="287.233" cy="1508.73" r="2"/>
<circle clip-path="url(#clip182)" style="fill:#009af9; stroke:none; fill-opacity:0" cx="337.646" cy="1504.63" r="2"/>
<circle clip-path="url(#clip182)" style="fill:#009af9; stroke:none; fill-opacity:0" cx="388.059" cy="1471.88" r="2"/>
<circle clip-path="url(#clip182)" style="fill:#009af9; stroke:none; fill-opacity:0" cx="438.472" cy="1430.94" r="2"/>
<circle clip-path="url(#clip182)" style="fill:#009af9; stroke:none; fill-opacity:0" cx="488.885" cy="1418.66" r="2"/>
<circle clip-path="url(#clip182)" style="fill:#009af9; stroke:none; fill-opacity:0" cx="539.298" cy="1398.19" r="2"/>
<circle clip-path="url(#clip182)" style="fill:#009af9; stroke:none; fill-opacity:0" cx="589.711" cy="1308.13" r="2"/>
<circle clip-path="url(#clip182)" style="fill:#009af9; stroke:none; fill-opacity:0" cx="640.124" cy="1242.63" r="2"/>
<circle clip-path="url(#clip182)" style="fill:#009af9; stroke:none; fill-opacity:0" cx="690.537" cy="1144.38" r="2"/>
<circle clip-path="url(#clip182)" style="fill:#009af9; stroke:none; fill-opacity:0" cx="740.95" cy="1070.69" r="2"/>
<circle clip-path="url(#clip182)" style="fill:#009af9; stroke:none; fill-opacity:0" cx="791.363" cy="906.94" r="2"/>
<circle clip-path="url(#clip182)" style="fill:#009af9; stroke:none; fill-opacity:0" cx="841.776" cy="833.251" r="2"/>
<circle clip-path="url(#clip182)" style="fill:#009af9; stroke:none; fill-opacity:0" cx="892.189" cy="628.562" r="2"/>
<circle clip-path="url(#clip182)" style="fill:#009af9; stroke:none; fill-opacity:0" cx="942.602" cy="489.373" r="2"/>
<circle clip-path="url(#clip182)" style="fill:#009af9; stroke:none; fill-opacity:0" cx="993.015" cy="464.81" r="2"/>
<circle clip-path="url(#clip182)" style="fill:#009af9; stroke:none; fill-opacity:0" cx="1043.43" cy="120.932" r="2"/>
<circle clip-path="url(#clip182)" style="fill:#009af9; stroke:none; fill-opacity:0" cx="1093.84" cy="92.2758" r="2"/>
<circle clip-path="url(#clip182)" style="fill:#009af9; stroke:none; fill-opacity:0" cx="1144.25" cy="47.2441" r="2"/>
<circle clip-path="url(#clip182)" style="fill:#009af9; stroke:none; fill-opacity:0" cx="1194.67" cy="137.307" r="2"/>
<circle clip-path="url(#clip182)" style="fill:#009af9; stroke:none; fill-opacity:0" cx="1245.08" cy="133.214" r="2"/>
<circle clip-path="url(#clip182)" style="fill:#009af9; stroke:none; fill-opacity:0" cx="1295.49" cy="202.808" r="2"/>
<circle clip-path="url(#clip182)" style="fill:#009af9; stroke:none; fill-opacity:0" cx="1345.91" cy="362.466" r="2"/>
<circle clip-path="url(#clip182)" style="fill:#009af9; stroke:none; fill-opacity:0" cx="1396.32" cy="558.968" r="2"/>
<circle clip-path="url(#clip182)" style="fill:#009af9; stroke:none; fill-opacity:0" cx="1446.73" cy="603.999" r="2"/>
<circle clip-path="url(#clip182)" style="fill:#009af9; stroke:none; fill-opacity:0" cx="1497.15" cy="710.438" r="2"/>
<circle clip-path="url(#clip182)" style="fill:#009af9; stroke:none; fill-opacity:0" cx="1547.56" cy="898.752" r="2"/>
<circle clip-path="url(#clip182)" style="fill:#009af9; stroke:none; fill-opacity:0" cx="1597.97" cy="1050.22" r="2"/>
<circle clip-path="url(#clip182)" style="fill:#009af9; stroke:none; fill-opacity:0" cx="1648.38" cy="1226.26" r="2"/>
<circle clip-path="url(#clip182)" style="fill:#009af9; stroke:none; fill-opacity:0" cx="1698.8" cy="1287.66" r="2"/>
<circle clip-path="url(#clip182)" style="fill:#009af9; stroke:none; fill-opacity:0" cx="1749.21" cy="1316.32" r="2"/>
<circle clip-path="url(#clip182)" style="fill:#009af9; stroke:none; fill-opacity:0" cx="1799.62" cy="1369.54" r="2"/>
<circle clip-path="url(#clip182)" style="fill:#009af9; stroke:none; fill-opacity:0" cx="1850.04" cy="1443.23" r="2"/>
<circle clip-path="url(#clip182)" style="fill:#009af9; stroke:none; fill-opacity:0" cx="1900.45" cy="1447.32" r="2"/>
<circle clip-path="url(#clip182)" style="fill:#009af9; stroke:none; fill-opacity:0" cx="1950.86" cy="1475.98" r="2"/>
<circle clip-path="url(#clip182)" style="fill:#009af9; stroke:none; fill-opacity:0" cx="2001.28" cy="1508.73" r="2"/>
<circle clip-path="url(#clip182)" style="fill:#009af9; stroke:none; fill-opacity:0" cx="2051.69" cy="1492.35" r="2"/>
<circle clip-path="url(#clip182)" style="fill:#009af9; stroke:none; fill-opacity:0" cx="2102.1" cy="1508.73" r="2"/>
<circle clip-path="url(#clip182)" style="fill:#009af9; stroke:none; fill-opacity:0" cx="2152.52" cy="1521.01" r="2"/>
<circle clip-path="url(#clip182)" style="fill:#009af9; stroke:none; fill-opacity:0" cx="2202.93" cy="1516.91" r="2"/>
<path clip-path="url(#clip180)" d="M1887.58 200.05 L2277.23 200.05 L2277.23 96.3696 L1887.58 96.3696  Z" fill="#ffffff" fill-rule="evenodd" fill-opacity="1"/>
<polyline clip-path="url(#clip180)" style="stroke:#000000; stroke-linecap:round; stroke-linejoin:round; stroke-width:4; stroke-opacity:1; fill:none" points="1887.58,200.05 2277.23,200.05 2277.23,96.3696 1887.58,96.3696 1887.58,200.05 "/>
<path clip-path="url(#clip180)" d="M1912.75 168.946 L2063.8 168.946 L2063.8 127.474 L1912.75 127.474 L1912.75 168.946  Z" fill="#009af9" fill-rule="evenodd" fill-opacity="1"/>
<polyline clip-path="url(#clip180)" style="stroke:#000000; stroke-linecap:round; stroke-linejoin:round; stroke-width:4; stroke-opacity:1; fill:none" points="1912.75,168.946 2063.8,168.946 2063.8,127.474 1912.75,127.474 1912.75,168.946 "/>
<path clip-path="url(#clip180)" d="M2105.94 153.429 L2104.93 148.082 Q2103.88 142.596 2099.76 142.596 Q2096.66 142.596 2095.25 145.142 Q2093.47 148.337 2093.47 152.55 Q2093.47 157.642 2095.2 160.073 Q2096.96 162.55 2099.76 162.55 Q2102.87 162.55 2104.53 157.619 L2105.94 153.429 M2108.33 146.346 L2110.62 139.564 L2114.42 139.564 L2109.67 153.615 L2110.6 158.684 Q2110.81 159.818 2111.62 160.767 Q2112.57 161.878 2113.31 161.878 L2115.34 161.878 L2115.34 165.49 L2112.8 165.49 Q2110.62 165.49 2108.68 163.545 Q2107.73 162.573 2107.33 160.536 Q2106.27 163.105 2104.09 165.119 Q2103.07 166.068 2099.76 166.068 Q2094.32 166.068 2091.69 162.55 Q2088.98 158.916 2088.98 152.55 Q2088.98 145.744 2091.92 142.55 Q2095.18 138.985 2099.76 138.985 Q2106.96 138.985 2108.33 146.346 Z" fill="#000000" fill-rule="nonzero" fill-opacity="1" /><path clip-path="url(#clip180)" d="M2126.71 161.554 L2143.03 161.554 L2143.03 165.49 L2121.08 165.49 L2121.08 161.554 Q2123.75 158.8 2128.33 154.17 Q2132.94 149.517 2134.12 148.175 Q2136.36 145.652 2137.24 143.916 Q2138.14 142.156 2138.14 140.467 Q2138.14 137.712 2136.2 135.976 Q2134.28 134.24 2131.18 134.24 Q2128.98 134.24 2126.52 135.004 Q2124.09 135.767 2121.32 137.318 L2121.32 132.596 Q2124.14 131.462 2126.59 130.883 Q2129.05 130.305 2131.08 130.305 Q2136.45 130.305 2139.65 132.99 Q2142.84 135.675 2142.84 140.166 Q2142.84 142.295 2142.03 144.217 Q2141.25 146.115 2139.14 148.707 Q2138.56 149.379 2135.46 152.596 Q2132.36 155.791 2126.71 161.554 Z" fill="#000000" fill-rule="nonzero" fill-opacity="1" /><path clip-path="url(#clip180)" d="M2165.16 150.605 L2177.63 150.605 L2177.63 154.402 L2165.16 154.402 L2165.16 150.605 Z" fill="#000000" fill-rule="nonzero" fill-opacity="1" /><path clip-path="url(#clip180)" d="M2214.6 153.429 L2213.58 148.082 Q2212.54 142.596 2208.42 142.596 Q2205.32 142.596 2203.91 145.142 Q2202.13 148.337 2202.13 152.55 Q2202.13 157.642 2203.86 160.073 Q2205.62 162.55 2208.42 162.55 Q2211.52 162.55 2213.19 157.619 L2214.6 153.429 M2216.99 146.346 L2219.28 139.564 L2223.07 139.564 L2218.33 153.615 L2219.25 158.684 Q2219.46 159.818 2220.27 160.767 Q2221.22 161.878 2221.96 161.878 L2224 161.878 L2224 165.49 L2221.45 165.49 Q2219.28 165.49 2217.33 163.545 Q2216.38 162.573 2215.99 160.536 Q2214.93 163.105 2212.75 165.119 Q2211.73 166.068 2208.42 166.068 Q2202.98 166.068 2200.34 162.55 Q2197.63 158.916 2197.63 152.55 Q2197.63 145.744 2200.57 142.55 Q2203.84 138.985 2208.42 138.985 Q2215.62 138.985 2216.99 146.346 Z" fill="#000000" fill-rule="nonzero" fill-opacity="1" /><path clip-path="url(#clip180)" d="M2232.15 161.554 L2239.79 161.554 L2239.79 135.189 L2231.48 136.855 L2231.48 132.596 L2239.74 130.93 L2244.42 130.93 L2244.42 161.554 L2252.06 161.554 L2252.06 165.49 L2232.15 165.49 L2232.15 161.554 Z" fill="#000000" fill-rule="nonzero" fill-opacity="1" /></svg>
