<?xml version="1.0" encoding="utf-8"?>
<svg xmlns="http://www.w3.org/2000/svg" xmlns:xlink="http://www.w3.org/1999/xlink" width="600" height="400" viewBox="0 0 2400 1600">
<defs>
  <clipPath id="clip550">
    <rect x="0" y="0" width="2400" height="1600"/>
  </clipPath>
</defs>
<path clip-path="url(#clip550)" d="M0 1600 L2400 1600 L2400 0 L0 0  Z" fill="#ffffff" fill-rule="evenodd" fill-opacity="1"/>
<defs>
  <clipPath id="clip551">
    <rect x="480" y="0" width="1681" height="1600"/>
  </clipPath>
</defs>
<path clip-path="url(#clip550)" d="M86.9921 1521.01 L2352.76 1521.01 L2352.76 47.2441 L86.9921 47.2441  Z" fill="#ffffff" fill-rule="evenodd" fill-opacity="1"/>
<defs>
  <clipPath id="clip552">
    <rect x="86" y="47" width="2267" height="1475"/>
  </clipPath>
</defs>
<polyline clip-path="url(#clip552)" style="stroke:#000000; stroke-linecap:round; stroke-linejoin:round; stroke-width:2; stroke-opacity:0.1; fill:none" points="457.53,1521.01 457.53,47.2441 "/>
<polyline clip-path="url(#clip552)" style="stroke:#000000; stroke-linecap:round; stroke-linejoin:round; stroke-width:2; stroke-opacity:0.1; fill:none" points="949.365,1521.01 949.365,47.2441 "/>
<polyline clip-path="url(#clip552)" style="stroke:#000000; stroke-linecap:round; stroke-linejoin:round; stroke-width:2; stroke-opacity:0.1; fill:none" points="1441.2,1521.01 1441.2,47.2441 "/>
<polyline clip-path="url(#clip552)" style="stroke:#000000; stroke-linecap:round; stroke-linejoin:round; stroke-width:2; stroke-opacity:0.1; fill:none" points="1933.03,1521.01 1933.03,47.2441 "/>
<polyline clip-path="url(#clip550)" style="stroke:#000000; stroke-linecap:round; stroke-linejoin:round; stroke-width:4; stroke-opacity:1; fill:none" points="86.9921,1521.01 2352.76,1521.01 "/>
<polyline clip-path="url(#clip550)" style="stroke:#000000; stroke-linecap:round; stroke-linejoin:round; stroke-width:4; stroke-opacity:1; fill:none" points="457.53,1521.01 457.53,1502.11 "/>
<polyline clip-path="url(#clip550)" style="stroke:#000000; stroke-linecap:round; stroke-linejoin:round; stroke-width:4; stroke-opacity:1; fill:none" points="949.365,1521.01 949.365,1502.11 "/>
<polyline clip-path="url(#clip550)" style="stroke:#000000; stroke-linecap:round; stroke-linejoin:round; stroke-width:4; stroke-opacity:1; fill:none" points="1441.2,1521.01 1441.2,1502.11 "/>
<polyline clip-path="url(#clip550)" style="stroke:#000000; stroke-linecap:round; stroke-linejoin:round; stroke-width:4; stroke-opacity:1; fill:none" points="1933.03,1521.01 1933.03,1502.11 "/>
<path clip-path="url(#clip550)" d="M388.978 1566.58 L418.653 1566.58 L418.653 1570.51 L388.978 1570.51 L388.978 1566.58 Z" fill="#000000" fill-rule="nonzero" fill-opacity="1" /><path clip-path="url(#clip550)" d="M438.746 1551.93 Q435.135 1551.93 433.306 1555.49 Q431.5 1559.03 431.5 1566.16 Q431.5 1573.27 433.306 1576.83 Q435.135 1580.38 438.746 1580.38 Q442.38 1580.38 444.186 1576.83 Q446.014 1573.27 446.014 1566.16 Q446.014 1559.03 444.186 1555.49 Q442.38 1551.93 438.746 1551.93 M438.746 1548.22 Q444.556 1548.22 447.612 1552.83 Q450.69 1557.41 450.69 1566.16 Q450.69 1574.89 447.612 1579.5 Q444.556 1584.08 438.746 1584.08 Q432.936 1584.08 429.857 1579.5 Q426.801 1574.89 426.801 1566.16 Q426.801 1557.41 429.857 1552.83 Q432.936 1548.22 438.746 1548.22 Z" fill="#000000" fill-rule="nonzero" fill-opacity="1" /><path clip-path="url(#clip550)" d="M458.908 1577.53 L463.792 1577.53 L463.792 1583.41 L458.908 1583.41 L458.908 1577.53 Z" fill="#000000" fill-rule="nonzero" fill-opacity="1" /><path clip-path="url(#clip550)" d="M474.787 1579.47 L482.426 1579.47 L482.426 1553.11 L474.116 1554.77 L474.116 1550.51 L482.38 1548.85 L487.056 1548.85 L487.056 1579.47 L494.695 1579.47 L494.695 1583.41 L474.787 1583.41 L474.787 1579.47 Z" fill="#000000" fill-rule="nonzero" fill-opacity="1" /><path clip-path="url(#clip550)" d="M514.139 1551.93 Q510.528 1551.93 508.699 1555.49 Q506.894 1559.03 506.894 1566.16 Q506.894 1573.27 508.699 1576.83 Q510.528 1580.38 514.139 1580.38 Q517.773 1580.38 519.579 1576.83 Q521.407 1573.27 521.407 1566.16 Q521.407 1559.03 519.579 1555.49 Q517.773 1551.93 514.139 1551.93 M514.139 1548.22 Q519.949 1548.22 523.005 1552.83 Q526.083 1557.41 526.083 1566.16 Q526.083 1574.89 523.005 1579.5 Q519.949 1584.08 514.139 1584.08 Q508.329 1584.08 505.25 1579.5 Q502.195 1574.89 502.195 1566.16 Q502.195 1557.41 505.25 1552.83 Q508.329 1548.22 514.139 1548.22 Z" fill="#000000" fill-rule="nonzero" fill-opacity="1" /><path clip-path="url(#clip550)" d="M881.31 1566.58 L910.986 1566.58 L910.986 1570.51 L881.31 1570.51 L881.31 1566.58 Z" fill="#000000" fill-rule="nonzero" fill-opacity="1" /><path clip-path="url(#clip550)" d="M931.078 1551.93 Q927.467 1551.93 925.638 1555.49 Q923.833 1559.03 923.833 1566.16 Q923.833 1573.27 925.638 1576.83 Q927.467 1580.38 931.078 1580.38 Q934.712 1580.38 936.518 1576.83 Q938.347 1573.27 938.347 1566.16 Q938.347 1559.03 936.518 1555.49 Q934.712 1551.93 931.078 1551.93 M931.078 1548.22 Q936.888 1548.22 939.944 1552.83 Q943.022 1557.41 943.022 1566.16 Q943.022 1574.89 939.944 1579.5 Q936.888 1584.08 931.078 1584.08 Q925.268 1584.08 922.189 1579.5 Q919.134 1574.89 919.134 1566.16 Q919.134 1557.41 922.189 1552.83 Q925.268 1548.22 931.078 1548.22 Z" fill="#000000" fill-rule="nonzero" fill-opacity="1" /><path clip-path="url(#clip550)" d="M951.24 1577.53 L956.124 1577.53 L956.124 1583.41 L951.24 1583.41 L951.24 1577.53 Z" fill="#000000" fill-rule="nonzero" fill-opacity="1" /><path clip-path="url(#clip550)" d="M976.309 1551.93 Q972.698 1551.93 970.87 1555.49 Q969.064 1559.03 969.064 1566.16 Q969.064 1573.27 970.87 1576.83 Q972.698 1580.38 976.309 1580.38 Q979.944 1580.38 981.749 1576.83 Q983.578 1573.27 983.578 1566.16 Q983.578 1559.03 981.749 1555.49 Q979.944 1551.93 976.309 1551.93 M976.309 1548.22 Q982.119 1548.22 985.175 1552.83 Q988.254 1557.41 988.254 1566.16 Q988.254 1574.89 985.175 1579.5 Q982.119 1584.08 976.309 1584.08 Q970.499 1584.08 967.42 1579.5 Q964.365 1574.89 964.365 1566.16 Q964.365 1557.41 967.42 1552.83 Q970.499 1548.22 976.309 1548.22 Z" fill="#000000" fill-rule="nonzero" fill-opacity="1" /><path clip-path="url(#clip550)" d="M996.518 1548.85 L1014.87 1548.85 L1014.87 1552.78 L1000.8 1552.78 L1000.8 1561.26 Q1001.82 1560.91 1002.84 1560.75 Q1003.86 1560.56 1004.87 1560.56 Q1010.66 1560.56 1014.04 1563.73 Q1017.42 1566.9 1017.42 1572.32 Q1017.42 1577.9 1013.95 1581 Q1010.48 1584.08 1004.16 1584.08 Q1001.98 1584.08 999.712 1583.71 Q997.467 1583.34 995.059 1582.6 L995.059 1577.9 Q997.143 1579.03 999.365 1579.59 Q1001.59 1580.14 1004.06 1580.14 Q1008.07 1580.14 1010.41 1578.04 Q1012.74 1575.93 1012.74 1572.32 Q1012.74 1568.71 1010.41 1566.6 Q1008.07 1564.5 1004.06 1564.5 Q1002.19 1564.5 1000.31 1564.91 Q998.462 1565.33 996.518 1566.21 L996.518 1548.85 Z" fill="#000000" fill-rule="nonzero" fill-opacity="1" /><path clip-path="url(#clip550)" d="M1403.5 1551.93 Q1399.89 1551.93 1398.06 1555.49 Q1396.26 1559.03 1396.26 1566.16 Q1396.26 1573.27 1398.06 1576.83 Q1399.89 1580.38 1403.5 1580.38 Q1407.14 1580.38 1408.94 1576.83 Q1410.77 1573.27 1410.77 1566.16 Q1410.77 1559.03 1408.94 1555.49 Q1407.14 1551.93 1403.5 1551.93 M1403.5 1548.22 Q1409.31 1548.22 1412.37 1552.83 Q1415.45 1557.41 1415.45 1566.16 Q1415.45 1574.89 1412.37 1579.5 Q1409.31 1584.08 1403.5 1584.08 Q1397.69 1584.08 1394.61 1579.5 Q1391.56 1574.89 1391.56 1566.16 Q1391.56 1557.41 1394.61 1552.83 Q1397.69 1548.22 1403.5 1548.22 Z" fill="#000000" fill-rule="nonzero" fill-opacity="1" /><path clip-path="url(#clip550)" d="M1423.66 1577.53 L1428.55 1577.53 L1428.55 1583.41 L1423.66 1583.41 L1423.66 1577.53 Z" fill="#000000" fill-rule="nonzero" fill-opacity="1" /><path clip-path="url(#clip550)" d="M1448.73 1551.93 Q1445.12 1551.93 1443.29 1555.49 Q1441.49 1559.03 1441.49 1566.16 Q1441.49 1573.27 1443.29 1576.83 Q1445.12 1580.38 1448.73 1580.38 Q1452.37 1580.38 1454.17 1576.83 Q1456 1573.27 1456 1566.16 Q1456 1559.03 1454.17 1555.49 Q1452.37 1551.93 1448.73 1551.93 M1448.73 1548.22 Q1454.54 1548.22 1457.6 1552.83 Q1460.68 1557.41 1460.68 1566.16 Q1460.68 1574.89 1457.6 1579.5 Q1454.54 1584.08 1448.73 1584.08 Q1442.92 1584.08 1439.85 1579.5 Q1436.79 1574.89 1436.79 1566.16 Q1436.79 1557.41 1439.85 1552.83 Q1442.92 1548.22 1448.73 1548.22 Z" fill="#000000" fill-rule="nonzero" fill-opacity="1" /><path clip-path="url(#clip550)" d="M1478.9 1551.93 Q1475.29 1551.93 1473.46 1555.49 Q1471.65 1559.03 1471.65 1566.16 Q1471.65 1573.27 1473.46 1576.83 Q1475.29 1580.38 1478.9 1580.38 Q1482.53 1580.38 1484.34 1576.83 Q1486.16 1573.27 1486.16 1566.16 Q1486.16 1559.03 1484.34 1555.49 Q1482.53 1551.93 1478.9 1551.93 M1478.9 1548.22 Q1484.71 1548.22 1487.76 1552.83 Q1490.84 1557.41 1490.84 1566.16 Q1490.84 1574.89 1487.76 1579.5 Q1484.71 1584.08 1478.9 1584.08 Q1473.09 1584.08 1470.01 1579.5 Q1466.95 1574.89 1466.95 1566.16 Q1466.95 1557.41 1470.01 1552.83 Q1473.09 1548.22 1478.9 1548.22 Z" fill="#000000" fill-rule="nonzero" fill-opacity="1" /><path clip-path="url(#clip550)" d="M1895.84 1551.93 Q1892.22 1551.93 1890.4 1555.49 Q1888.59 1559.03 1888.59 1566.16 Q1888.59 1573.27 1890.4 1576.83 Q1892.22 1580.38 1895.84 1580.38 Q1899.47 1580.38 1901.28 1576.83 Q1903.1 1573.27 1903.1 1566.16 Q1903.1 1559.03 1901.28 1555.49 Q1899.47 1551.93 1895.84 1551.93 M1895.84 1548.22 Q1901.65 1548.22 1904.7 1552.83 Q1907.78 1557.41 1907.78 1566.16 Q1907.78 1574.89 1904.7 1579.5 Q1901.65 1584.08 1895.84 1584.08 Q1890.03 1584.08 1886.95 1579.5 Q1883.89 1574.89 1883.89 1566.16 Q1883.89 1557.41 1886.95 1552.83 Q1890.03 1548.22 1895.84 1548.22 Z" fill="#000000" fill-rule="nonzero" fill-opacity="1" /><path clip-path="url(#clip550)" d="M1916 1577.53 L1920.88 1577.53 L1920.88 1583.41 L1916 1583.41 L1916 1577.53 Z" fill="#000000" fill-rule="nonzero" fill-opacity="1" /><path clip-path="url(#clip550)" d="M1941.07 1551.93 Q1937.46 1551.93 1935.63 1555.49 Q1933.82 1559.03 1933.82 1566.16 Q1933.82 1573.27 1935.63 1576.83 Q1937.46 1580.38 1941.07 1580.38 Q1944.7 1580.38 1946.51 1576.83 Q1948.33 1573.27 1948.33 1566.16 Q1948.33 1559.03 1946.51 1555.49 Q1944.7 1551.93 1941.07 1551.93 M1941.07 1548.22 Q1946.88 1548.22 1949.93 1552.83 Q1953.01 1557.41 1953.01 1566.16 Q1953.01 1574.89 1949.93 1579.5 Q1946.88 1584.08 1941.07 1584.08 Q1935.26 1584.08 1932.18 1579.5 Q1929.12 1574.89 1929.12 1566.16 Q1929.12 1557.41 1932.18 1552.83 Q1935.26 1548.22 1941.07 1548.22 Z" fill="#000000" fill-rule="nonzero" fill-opacity="1" /><path clip-path="url(#clip550)" d="M1961.27 1548.85 L1979.63 1548.85 L1979.63 1552.78 L1965.56 1552.78 L1965.56 1561.26 Q1966.58 1560.91 1967.59 1560.75 Q1968.61 1560.56 1969.63 1560.56 Q1975.42 1560.56 1978.8 1563.73 Q1982.18 1566.9 1982.18 1572.32 Q1982.18 1577.9 1978.71 1581 Q1975.23 1584.08 1968.91 1584.08 Q1966.74 1584.08 1964.47 1583.71 Q1962.22 1583.34 1959.82 1582.6 L1959.82 1577.9 Q1961.9 1579.03 1964.12 1579.59 Q1966.34 1580.14 1968.82 1580.14 Q1972.83 1580.14 1975.16 1578.04 Q1977.5 1575.93 1977.5 1572.32 Q1977.5 1568.71 1975.16 1566.6 Q1972.83 1564.5 1968.82 1564.5 Q1966.95 1564.5 1965.07 1564.91 Q1963.22 1565.33 1961.27 1566.21 L1961.27 1548.85 Z" fill="#000000" fill-rule="nonzero" fill-opacity="1" /><polyline clip-path="url(#clip552)" style="stroke:#000000; stroke-linecap:round; stroke-linejoin:round; stroke-width:2; stroke-opacity:0.1; fill:none" points="86.9921,1521.01 2352.76,1521.01 "/>
<polyline clip-path="url(#clip552)" style="stroke:#000000; stroke-linecap:round; stroke-linejoin:round; stroke-width:2; stroke-opacity:0.1; fill:none" points="86.9921,1122.69 2352.76,1122.69 "/>
<polyline clip-path="url(#clip552)" style="stroke:#000000; stroke-linecap:round; stroke-linejoin:round; stroke-width:2; stroke-opacity:0.1; fill:none" points="86.9921,724.379 2352.76,724.379 "/>
<polyline clip-path="url(#clip552)" style="stroke:#000000; stroke-linecap:round; stroke-linejoin:round; stroke-width:2; stroke-opacity:0.1; fill:none" points="86.9921,326.064 2352.76,326.064 "/>
<polyline clip-path="url(#clip550)" style="stroke:#000000; stroke-linecap:round; stroke-linejoin:round; stroke-width:4; stroke-opacity:1; fill:none" points="86.9921,1521.01 86.9921,47.2441 "/>
<polyline clip-path="url(#clip550)" style="stroke:#000000; stroke-linecap:round; stroke-linejoin:round; stroke-width:4; stroke-opacity:1; fill:none" points="86.9921,1521.01 105.89,1521.01 "/>
<polyline clip-path="url(#clip550)" style="stroke:#000000; stroke-linecap:round; stroke-linejoin:round; stroke-width:4; stroke-opacity:1; fill:none" points="86.9921,1122.69 105.89,1122.69 "/>
<polyline clip-path="url(#clip550)" style="stroke:#000000; stroke-linecap:round; stroke-linejoin:round; stroke-width:4; stroke-opacity:1; fill:none" points="86.9921,724.379 105.89,724.379 "/>
<polyline clip-path="url(#clip550)" style="stroke:#000000; stroke-linecap:round; stroke-linejoin:round; stroke-width:4; stroke-opacity:1; fill:none" points="86.9921,326.064 105.89,326.064 "/>
<path clip-path="url(#clip550)" d="M10.8708 1521.01 Q10.8708 1524.62 14.4356 1526.45 Q17.9773 1528.25 25.1068 1528.25 Q32.2133 1528.25 35.7781 1526.45 Q39.3197 1524.62 39.3197 1521.01 Q39.3197 1517.37 35.7781 1515.57 Q32.2133 1513.74 25.1068 1513.74 Q17.9773 1513.74 14.4356 1515.57 Q10.8708 1517.37 10.8708 1521.01 M7.16713 1521.01 Q7.16713 1515.2 11.7736 1512.14 Q16.3569 1509.06 25.1068 1509.06 Q33.8337 1509.06 38.4401 1512.14 Q43.0234 1515.2 43.0234 1521.01 Q43.0234 1526.82 38.4401 1529.9 Q33.8337 1532.95 25.1068 1532.95 Q16.3569 1532.95 11.7736 1529.9 Q7.16713 1526.82 7.16713 1521.01 Z" fill="#000000" fill-rule="nonzero" fill-opacity="1" /><path clip-path="url(#clip550)" d="M38.417 1163.09 L38.417 1155.45 L12.0514 1155.45 L13.718 1163.76 L9.45878 1163.76 L7.79213 1155.49 L7.79213 1150.82 L38.417 1150.82 L38.417 1143.18 L42.3521 1143.18 L42.3521 1163.09 L38.417 1163.09 Z" fill="#000000" fill-rule="nonzero" fill-opacity="1" /><path clip-path="url(#clip550)" d="M10.8708 1123.74 Q10.8708 1127.35 14.4356 1129.17 Q17.9773 1130.98 25.1068 1130.98 Q32.2133 1130.98 35.7781 1129.17 Q39.3197 1127.35 39.3197 1123.74 Q39.3197 1120.1 35.7781 1118.3 Q32.2133 1116.47 25.1068 1116.47 Q17.9773 1116.47 14.4356 1118.3 Q10.8708 1120.1 10.8708 1123.74 M7.16713 1123.74 Q7.16713 1117.92 11.7736 1114.87 Q16.3569 1111.79 25.1068 1111.79 Q33.8337 1111.79 38.4401 1114.87 Q43.0234 1117.92 43.0234 1123.74 Q43.0234 1129.55 38.4401 1132.62 Q33.8337 1135.68 25.1068 1135.68 Q16.3569 1135.68 11.7736 1132.62 Q7.16713 1129.55 7.16713 1123.74 Z" fill="#000000" fill-rule="nonzero" fill-opacity="1" /><path clip-path="url(#clip550)" d="M10.8708 1093.57 Q10.8708 1097.18 14.4356 1099.01 Q17.9773 1100.82 25.1068 1100.82 Q32.2133 1100.82 35.7781 1099.01 Q39.3197 1097.18 39.3197 1093.57 Q39.3197 1089.94 35.7781 1088.13 Q32.2133 1086.3 25.1068 1086.3 Q17.9773 1086.3 14.4356 1088.13 Q10.8708 1089.94 10.8708 1093.57 M7.16713 1093.57 Q7.16713 1087.76 11.7736 1084.71 Q16.3569 1081.63 25.1068 1081.63 Q33.8337 1081.63 38.4401 1084.71 Q43.0234 1087.76 43.0234 1093.57 Q43.0234 1099.38 38.4401 1102.46 Q33.8337 1105.52 25.1068 1105.52 Q16.3569 1105.52 11.7736 1102.46 Q7.16713 1099.38 7.16713 1093.57 Z" fill="#000000" fill-rule="nonzero" fill-opacity="1" /><path clip-path="url(#clip550)" d="M38.417 760.686 L38.417 744.367 L42.3521 744.367 L42.3521 766.311 L38.417 766.311 Q35.6623 763.649 31.0327 759.066 Q26.38 754.46 25.0374 753.279 Q22.5143 751.034 20.7782 750.154 Q19.0189 749.251 17.3291 749.251 Q14.5745 749.251 12.8384 751.196 Q11.1023 753.117 11.1023 756.219 Q11.1023 758.418 11.8662 760.872 Q12.6301 763.302 14.181 766.08 L9.45878 766.08 Q8.32453 763.256 7.74583 760.802 Q7.16713 758.349 7.16713 756.312 Q7.16713 750.941 9.8523 747.747 Q12.5375 744.552 17.0282 744.552 Q19.1578 744.552 21.0791 745.362 Q22.9772 746.15 25.5698 748.256 Q26.2411 748.835 29.4587 751.937 Q32.6531 755.038 38.417 760.686 Z" fill="#000000" fill-rule="nonzero" fill-opacity="1" /><path clip-path="url(#clip550)" d="M10.8708 724.552 Q10.8708 728.164 14.4356 729.992 Q17.9773 731.798 25.1068 731.798 Q32.2133 731.798 35.7781 729.992 Q39.3197 728.164 39.3197 724.552 Q39.3197 720.918 35.7781 719.113 Q32.2133 717.284 25.1068 717.284 Q17.9773 717.284 14.4356 719.113 Q10.8708 720.918 10.8708 724.552 M7.16713 724.552 Q7.16713 718.742 11.7736 715.687 Q16.3569 712.608 25.1068 712.608 Q33.8337 712.608 38.4401 715.687 Q43.0234 718.742 43.0234 724.552 Q43.0234 730.363 38.4401 733.441 Q33.8337 736.497 25.1068 736.497 Q16.3569 736.497 11.7736 733.441 Q7.16713 730.363 7.16713 724.552 Z" fill="#000000" fill-rule="nonzero" fill-opacity="1" /><path clip-path="url(#clip550)" d="M10.8708 694.391 Q10.8708 698.002 14.4356 699.83 Q17.9773 701.636 25.1068 701.636 Q32.2133 701.636 35.7781 699.83 Q39.3197 698.002 39.3197 694.391 Q39.3197 690.756 35.7781 688.951 Q32.2133 687.122 25.1068 687.122 Q17.9773 687.122 14.4356 688.951 Q10.8708 690.756 10.8708 694.391 M7.16713 694.391 Q7.16713 688.58 11.7736 685.525 Q16.3569 682.446 25.1068 682.446 Q33.8337 682.446 38.4401 685.525 Q43.0234 688.58 43.0234 694.391 Q43.0234 700.201 38.4401 703.279 Q33.8337 706.335 25.1068 706.335 Q16.3569 706.335 11.7736 703.279 Q7.16713 700.201 7.16713 694.391 Z" fill="#000000" fill-rule="nonzero" fill-opacity="1" /><path clip-path="url(#clip550)" d="M23.718 352.303 Q24.4356 348.946 26.7041 347.071 Q28.9726 345.173 32.3059 345.173 Q37.4216 345.173 40.2225 348.691 Q43.0234 352.21 43.0234 358.691 Q43.0234 360.867 42.5836 363.182 Q42.1669 365.474 41.3105 367.927 L36.7966 367.927 Q37.9309 365.983 38.5096 363.668 Q39.0883 361.353 39.0883 358.83 Q39.0883 354.432 37.3522 352.141 Q35.6161 349.826 32.3059 349.826 Q29.2503 349.826 27.5374 351.978 Q25.8013 354.108 25.8013 357.928 L25.8013 361.955 L21.9587 361.955 L21.9587 357.742 Q21.9587 354.293 20.593 352.465 Q19.2041 350.636 16.6115 350.636 Q13.9495 350.636 12.5375 352.534 Q11.1023 354.409 11.1023 357.928 Q11.1023 359.849 11.519 362.048 Q11.9356 364.247 12.8152 366.886 L8.6486 366.886 Q7.90787 364.224 7.5375 361.909 Q7.16713 359.571 7.16713 357.511 Q7.16713 352.187 9.59767 349.085 Q12.0051 345.983 16.1254 345.983 Q18.9958 345.983 20.9865 347.627 Q22.9541 349.27 23.718 352.303 Z" fill="#000000" fill-rule="nonzero" fill-opacity="1" /><path clip-path="url(#clip550)" d="M10.8708 326.307 Q10.8708 329.918 14.4356 331.747 Q17.9773 333.553 25.1068 333.553 Q32.2133 333.553 35.7781 331.747 Q39.3197 329.918 39.3197 326.307 Q39.3197 322.673 35.7781 320.868 Q32.2133 319.039 25.1068 319.039 Q17.9773 319.039 14.4356 320.868 Q10.8708 322.673 10.8708 326.307 M7.16713 326.307 Q7.16713 320.497 11.7736 317.442 Q16.3569 314.363 25.1068 314.363 Q33.8337 314.363 38.4401 317.442 Q43.0234 320.497 43.0234 326.307 Q43.0234 332.117 38.4401 335.196 Q33.8337 338.252 25.1068 338.252 Q16.3569 338.252 11.7736 335.196 Q7.16713 332.117 7.16713 326.307 Z" fill="#000000" fill-rule="nonzero" fill-opacity="1" /><path clip-path="url(#clip550)" d="M10.8708 296.145 Q10.8708 299.757 14.4356 301.585 Q17.9773 303.391 25.1068 303.391 Q32.2133 303.391 35.7781 301.585 Q39.3197 299.757 39.3197 296.145 Q39.3197 292.511 35.7781 290.706 Q32.2133 288.877 25.1068 288.877 Q17.9773 288.877 14.4356 290.706 Q10.8708 292.511 10.8708 296.145 M7.16713 296.145 Q7.16713 290.335 11.7736 287.28 Q16.3569 284.201 25.1068 284.201 Q33.8337 284.201 38.4401 287.28 Q43.0234 290.335 43.0234 296.145 Q43.0234 301.956 38.4401 305.034 Q33.8337 308.09 25.1068 308.09 Q16.3569 308.09 11.7736 305.034 Q7.16713 301.956 7.16713 296.145 Z" fill="#000000" fill-rule="nonzero" fill-opacity="1" /><path clip-path="url(#clip552)" d="M211.613 1517.02 L211.613 1521.01 L260.797 1521.01 L260.797 1517.02 L211.613 1517.02 L211.613 1517.02  Z" fill="#009af9" fill-rule="evenodd" fill-opacity="1"/>
<polyline clip-path="url(#clip552)" style="stroke:#000000; stroke-linecap:round; stroke-linejoin:round; stroke-width:4; stroke-opacity:1; fill:none" points="211.613,1517.02 211.613,1521.01 260.797,1521.01 260.797,1517.02 211.613,1517.02 "/>
<path clip-path="url(#clip552)" d="M260.797 1517.02 L260.797 1521.01 L309.98 1521.01 L309.98 1517.02 L260.797 1517.02 L260.797 1517.02  Z" fill="#009af9" fill-rule="evenodd" fill-opacity="1"/>
<polyline clip-path="url(#clip552)" style="stroke:#000000; stroke-linecap:round; stroke-linejoin:round; stroke-width:4; stroke-opacity:1; fill:none" points="260.797,1517.02 260.797,1521.01 309.98,1521.01 309.98,1517.02 260.797,1517.02 "/>
<path clip-path="url(#clip552)" d="M309.98 1509.06 L309.98 1521.01 L359.164 1521.01 L359.164 1509.06 L309.98 1509.06 L309.98 1509.06  Z" fill="#009af9" fill-rule="evenodd" fill-opacity="1"/>
<polyline clip-path="url(#clip552)" style="stroke:#000000; stroke-linecap:round; stroke-linejoin:round; stroke-width:4; stroke-opacity:1; fill:none" points="309.98,1509.06 309.98,1521.01 359.164,1521.01 359.164,1509.06 309.98,1509.06 "/>
<path clip-path="url(#clip552)" d="M359.164 1505.08 L359.164 1521.01 L408.347 1521.01 L408.347 1505.08 L359.164 1505.08 L359.164 1505.08  Z" fill="#009af9" fill-rule="evenodd" fill-opacity="1"/>
<polyline clip-path="url(#clip552)" style="stroke:#000000; stroke-linecap:round; stroke-linejoin:round; stroke-width:4; stroke-opacity:1; fill:none" points="359.164,1505.08 359.164,1521.01 408.347,1521.01 408.347,1505.08 359.164,1505.08 "/>
<path clip-path="url(#clip552)" d="M408.347 1477.19 L408.347 1521.01 L457.53 1521.01 L457.53 1477.19 L408.347 1477.19 L408.347 1477.19  Z" fill="#009af9" fill-rule="evenodd" fill-opacity="1"/>
<polyline clip-path="url(#clip552)" style="stroke:#000000; stroke-linecap:round; stroke-linejoin:round; stroke-width:4; stroke-opacity:1; fill:none" points="408.347,1477.19 408.347,1521.01 457.53,1521.01 457.53,1477.19 408.347,1477.19 "/>
<path clip-path="url(#clip552)" d="M457.53 1433.38 L457.53 1521.01 L506.714 1521.01 L506.714 1433.38 L457.53 1433.38 L457.53 1433.38  Z" fill="#009af9" fill-rule="evenodd" fill-opacity="1"/>
<polyline clip-path="url(#clip552)" style="stroke:#000000; stroke-linecap:round; stroke-linejoin:round; stroke-width:4; stroke-opacity:1; fill:none" points="457.53,1433.38 457.53,1521.01 506.714,1521.01 506.714,1433.38 457.53,1433.38 "/>
<path clip-path="url(#clip552)" d="M506.714 1417.45 L506.714 1521.01 L555.897 1521.01 L555.897 1417.45 L506.714 1417.45 L506.714 1417.45  Z" fill="#009af9" fill-rule="evenodd" fill-opacity="1"/>
<polyline clip-path="url(#clip552)" style="stroke:#000000; stroke-linecap:round; stroke-linejoin:round; stroke-width:4; stroke-opacity:1; fill:none" points="506.714,1417.45 506.714,1521.01 555.897,1521.01 555.897,1417.45 506.714,1417.45 "/>
<path clip-path="url(#clip552)" d="M555.897 1389.56 L555.897 1521.01 L605.081 1521.01 L605.081 1389.56 L555.897 1389.56 L555.897 1389.56  Z" fill="#009af9" fill-rule="evenodd" fill-opacity="1"/>
<polyline clip-path="url(#clip552)" style="stroke:#000000; stroke-linecap:round; stroke-linejoin:round; stroke-width:4; stroke-opacity:1; fill:none" points="555.897,1389.56 555.897,1521.01 605.081,1521.01 605.081,1389.56 555.897,1389.56 "/>
<path clip-path="url(#clip552)" d="M605.081 1321.85 L605.081 1521.01 L654.264 1521.01 L654.264 1321.85 L605.081 1321.85 L605.081 1321.85  Z" fill="#009af9" fill-rule="evenodd" fill-opacity="1"/>
<polyline clip-path="url(#clip552)" style="stroke:#000000; stroke-linecap:round; stroke-linejoin:round; stroke-width:4; stroke-opacity:1; fill:none" points="605.081,1321.85 605.081,1521.01 654.264,1521.01 654.264,1321.85 605.081,1321.85 "/>
<path clip-path="url(#clip552)" d="M654.264 1262.1 L654.264 1521.01 L703.448 1521.01 L703.448 1262.1 L654.264 1262.1 L654.264 1262.1  Z" fill="#009af9" fill-rule="evenodd" fill-opacity="1"/>
<polyline clip-path="url(#clip552)" style="stroke:#000000; stroke-linecap:round; stroke-linejoin:round; stroke-width:4; stroke-opacity:1; fill:none" points="654.264,1262.1 654.264,1521.01 703.448,1521.01 703.448,1262.1 654.264,1262.1 "/>
<path clip-path="url(#clip552)" d="M703.448 1154.56 L703.448 1521.01 L752.631 1521.01 L752.631 1154.56 L703.448 1154.56 L703.448 1154.56  Z" fill="#009af9" fill-rule="evenodd" fill-opacity="1"/>
<polyline clip-path="url(#clip552)" style="stroke:#000000; stroke-linecap:round; stroke-linejoin:round; stroke-width:4; stroke-opacity:1; fill:none" points="703.448,1154.56 703.448,1521.01 752.631,1521.01 752.631,1154.56 703.448,1154.56 "/>
<path clip-path="url(#clip552)" d="M752.631 1082.86 L752.631 1521.01 L801.815 1521.01 L801.815 1082.86 L752.631 1082.86 L752.631 1082.86  Z" fill="#009af9" fill-rule="evenodd" fill-opacity="1"/>
<polyline clip-path="url(#clip552)" style="stroke:#000000; stroke-linecap:round; stroke-linejoin:round; stroke-width:4; stroke-opacity:1; fill:none" points="752.631,1082.86 752.631,1521.01 801.815,1521.01 801.815,1082.86 752.631,1082.86 "/>
<path clip-path="url(#clip552)" d="M801.815 915.57 L801.815 1521.01 L850.998 1521.01 L850.998 915.57 L801.815 915.57 L801.815 915.57  Z" fill="#009af9" fill-rule="evenodd" fill-opacity="1"/>
<polyline clip-path="url(#clip552)" style="stroke:#000000; stroke-linecap:round; stroke-linejoin:round; stroke-width:4; stroke-opacity:1; fill:none" points="801.815,915.57 801.815,1521.01 850.998,1521.01 850.998,915.57 801.815,915.57 "/>
<path clip-path="url(#clip552)" d="M850.998 859.806 L850.998 1521.01 L900.182 1521.01 L900.182 859.806 L850.998 859.806 L850.998 859.806  Z" fill="#009af9" fill-rule="evenodd" fill-opacity="1"/>
<polyline clip-path="url(#clip552)" style="stroke:#000000; stroke-linecap:round; stroke-linejoin:round; stroke-width:4; stroke-opacity:1; fill:none" points="850.998,859.806 850.998,1521.01 900.182,1521.01 900.182,859.806 850.998,859.806 "/>
<path clip-path="url(#clip552)" d="M900.182 656.665 L900.182 1521.01 L949.365 1521.01 L949.365 656.665 L900.182 656.665 L900.182 656.665  Z" fill="#009af9" fill-rule="evenodd" fill-opacity="1"/>
<polyline clip-path="url(#clip552)" style="stroke:#000000; stroke-linecap:round; stroke-linejoin:round; stroke-width:4; stroke-opacity:1; fill:none" points="900.182,656.665 900.182,1521.01 949.365,1521.01 949.365,656.665 900.182,656.665 "/>
<path clip-path="url(#clip552)" d="M949.365 513.272 L949.365 1521.01 L998.548 1521.01 L998.548 513.272 L949.365 513.272 L949.365 513.272  Z" fill="#009af9" fill-rule="evenodd" fill-opacity="1"/>
<polyline clip-path="url(#clip552)" style="stroke:#000000; stroke-linecap:round; stroke-linejoin:round; stroke-width:4; stroke-opacity:1; fill:none" points="949.365,513.272 949.365,1521.01 998.548,1521.01 998.548,513.272 949.365,513.272 "/>
<path clip-path="url(#clip552)" d="M998.548 501.323 L998.548 1521.01 L1047.73 1521.01 L1047.73 501.323 L998.548 501.323 L998.548 501.323  Z" fill="#009af9" fill-rule="evenodd" fill-opacity="1"/>
<polyline clip-path="url(#clip552)" style="stroke:#000000; stroke-linecap:round; stroke-linejoin:round; stroke-width:4; stroke-opacity:1; fill:none" points="998.548,501.323 998.548,1521.01 1047.73,1521.01 1047.73,501.323 998.548,501.323 "/>
<path clip-path="url(#clip552)" d="M1047.73 122.924 L1047.73 1521.01 L1096.92 1521.01 L1096.92 122.924 L1047.73 122.924 L1047.73 122.924  Z" fill="#009af9" fill-rule="evenodd" fill-opacity="1"/>
<polyline clip-path="url(#clip552)" style="stroke:#000000; stroke-linecap:round; stroke-linejoin:round; stroke-width:4; stroke-opacity:1; fill:none" points="1047.73,122.924 1047.73,1521.01 1096.92,1521.01 1096.92,122.924 1047.73,122.924 "/>
<path clip-path="url(#clip552)" d="M1096.92 142.84 L1096.92 1521.01 L1146.1 1521.01 L1146.1 142.84 L1096.92 142.84 L1096.92 142.84  Z" fill="#009af9" fill-rule="evenodd" fill-opacity="1"/>
<polyline clip-path="url(#clip552)" style="stroke:#000000; stroke-linecap:round; stroke-linejoin:round; stroke-width:4; stroke-opacity:1; fill:none" points="1096.92,142.84 1096.92,1521.01 1146.1,1521.01 1146.1,142.84 1096.92,142.84 "/>
<path clip-path="url(#clip552)" d="M1146.1 47.2441 L1146.1 1521.01 L1195.28 1521.01 L1195.28 47.2441 L1146.1 47.2441 L1146.1 47.2441  Z" fill="#009af9" fill-rule="evenodd" fill-opacity="1"/>
<polyline clip-path="url(#clip552)" style="stroke:#000000; stroke-linecap:round; stroke-linejoin:round; stroke-width:4; stroke-opacity:1; fill:none" points="1146.1,47.2441 1146.1,1521.01 1195.28,1521.01 1195.28,47.2441 1146.1,47.2441 "/>
<path clip-path="url(#clip552)" d="M1195.28 170.722 L1195.28 1521.01 L1244.47 1521.01 L1244.47 170.722 L1195.28 170.722 L1195.28 170.722  Z" fill="#009af9" fill-rule="evenodd" fill-opacity="1"/>
<polyline clip-path="url(#clip552)" style="stroke:#000000; stroke-linecap:round; stroke-linejoin:round; stroke-width:4; stroke-opacity:1; fill:none" points="1195.28,170.722 1195.28,1521.01 1244.47,1521.01 1244.47,170.722 1195.28,170.722 "/>
<path clip-path="url(#clip552)" d="M1244.47 206.57 L1244.47 1521.01 L1293.65 1521.01 L1293.65 206.57 L1244.47 206.57 L1244.47 206.57  Z" fill="#009af9" fill-rule="evenodd" fill-opacity="1"/>
<polyline clip-path="url(#clip552)" style="stroke:#000000; stroke-linecap:round; stroke-linejoin:round; stroke-width:4; stroke-opacity:1; fill:none" points="1244.47,206.57 1244.47,1521.01 1293.65,1521.01 1293.65,206.57 1244.47,206.57 "/>
<path clip-path="url(#clip552)" d="M1293.65 246.401 L1293.65 1521.01 L1342.83 1521.01 L1342.83 246.401 L1293.65 246.401 L1293.65 246.401  Z" fill="#009af9" fill-rule="evenodd" fill-opacity="1"/>
<polyline clip-path="url(#clip552)" style="stroke:#000000; stroke-linecap:round; stroke-linejoin:round; stroke-width:4; stroke-opacity:1; fill:none" points="1293.65,246.401 1293.65,1521.01 1342.83,1521.01 1342.83,246.401 1293.65,246.401 "/>
<path clip-path="url(#clip552)" d="M1342.83 393.778 L1342.83 1521.01 L1392.02 1521.01 L1392.02 393.778 L1342.83 393.778 L1342.83 393.778  Z" fill="#009af9" fill-rule="evenodd" fill-opacity="1"/>
<polyline clip-path="url(#clip552)" style="stroke:#000000; stroke-linecap:round; stroke-linejoin:round; stroke-width:4; stroke-opacity:1; fill:none" points="1342.83,393.778 1342.83,1521.01 1392.02,1521.01 1392.02,393.778 1342.83,393.778 "/>
<path clip-path="url(#clip552)" d="M1392.02 584.969 L1392.02 1521.01 L1441.2 1521.01 L1441.2 584.969 L1392.02 584.969 L1392.02 584.969  Z" fill="#009af9" fill-rule="evenodd" fill-opacity="1"/>
<polyline clip-path="url(#clip552)" style="stroke:#000000; stroke-linecap:round; stroke-linejoin:round; stroke-width:4; stroke-opacity:1; fill:none" points="1392.02,584.969 1392.02,1521.01 1441.2,1521.01 1441.2,584.969 1392.02,584.969 "/>
<path clip-path="url(#clip552)" d="M1441.2 648.699 L1441.2 1521.01 L1490.38 1521.01 L1490.38 648.699 L1441.2 648.699 L1441.2 648.699  Z" fill="#009af9" fill-rule="evenodd" fill-opacity="1"/>
<polyline clip-path="url(#clip552)" style="stroke:#000000; stroke-linecap:round; stroke-linejoin:round; stroke-width:4; stroke-opacity:1; fill:none" points="1441.2,648.699 1441.2,1521.01 1490.38,1521.01 1490.38,648.699 1441.2,648.699 "/>
<path clip-path="url(#clip552)" d="M1490.38 736.328 L1490.38 1521.01 L1539.57 1521.01 L1539.57 736.328 L1490.38 736.328 L1490.38 736.328  Z" fill="#009af9" fill-rule="evenodd" fill-opacity="1"/>
<polyline clip-path="url(#clip552)" style="stroke:#000000; stroke-linecap:round; stroke-linejoin:round; stroke-width:4; stroke-opacity:1; fill:none" points="1490.38,736.328 1490.38,1521.01 1539.57,1521.01 1539.57,736.328 1490.38,736.328 "/>
<path clip-path="url(#clip552)" d="M1539.57 915.57 L1539.57 1521.01 L1588.75 1521.01 L1588.75 915.57 L1539.57 915.57 L1539.57 915.57  Z" fill="#009af9" fill-rule="evenodd" fill-opacity="1"/>
<polyline clip-path="url(#clip552)" style="stroke:#000000; stroke-linecap:round; stroke-linejoin:round; stroke-width:4; stroke-opacity:1; fill:none" points="1539.57,915.57 1539.57,1521.01 1588.75,1521.01 1588.75,915.57 1539.57,915.57 "/>
<path clip-path="url(#clip552)" d="M1588.75 1051 L1588.75 1521.01 L1637.93 1521.01 L1637.93 1051 L1588.75 1051 L1588.75 1051  Z" fill="#009af9" fill-rule="evenodd" fill-opacity="1"/>
<polyline clip-path="url(#clip552)" style="stroke:#000000; stroke-linecap:round; stroke-linejoin:round; stroke-width:4; stroke-opacity:1; fill:none" points="1588.75,1051 1588.75,1521.01 1637.93,1521.01 1637.93,1051 1588.75,1051 "/>
<path clip-path="url(#clip552)" d="M1637.93 1230.24 L1637.93 1521.01 L1687.12 1521.01 L1687.12 1230.24 L1637.93 1230.24 L1637.93 1230.24  Z" fill="#009af9" fill-rule="evenodd" fill-opacity="1"/>
<polyline clip-path="url(#clip552)" style="stroke:#000000; stroke-linecap:round; stroke-linejoin:round; stroke-width:4; stroke-opacity:1; fill:none" points="1637.93,1230.24 1637.93,1521.01 1687.12,1521.01 1687.12,1230.24 1637.93,1230.24 "/>
<path clip-path="url(#clip552)" d="M1687.12 1313.88 L1687.12 1521.01 L1736.3 1521.01 L1736.3 1313.88 L1687.12 1313.88 L1687.12 1313.88  Z" fill="#009af9" fill-rule="evenodd" fill-opacity="1"/>
<polyline clip-path="url(#clip552)" style="stroke:#000000; stroke-linecap:round; stroke-linejoin:round; stroke-width:4; stroke-opacity:1; fill:none" points="1687.12,1313.88 1687.12,1521.01 1736.3,1521.01 1736.3,1313.88 1687.12,1313.88 "/>
<path clip-path="url(#clip552)" d="M1736.3 1317.87 L1736.3 1521.01 L1785.48 1521.01 L1785.48 1317.87 L1736.3 1317.87 L1736.3 1317.87  Z" fill="#009af9" fill-rule="evenodd" fill-opacity="1"/>
<polyline clip-path="url(#clip552)" style="stroke:#000000; stroke-linecap:round; stroke-linejoin:round; stroke-width:4; stroke-opacity:1; fill:none" points="1736.3,1317.87 1736.3,1521.01 1785.48,1521.01 1785.48,1317.87 1736.3,1317.87 "/>
<path clip-path="url(#clip552)" d="M1785.48 1373.63 L1785.48 1521.01 L1834.67 1521.01 L1834.67 1373.63 L1785.48 1373.63 L1785.48 1373.63  Z" fill="#009af9" fill-rule="evenodd" fill-opacity="1"/>
<polyline clip-path="url(#clip552)" style="stroke:#000000; stroke-linecap:round; stroke-linejoin:round; stroke-width:4; stroke-opacity:1; fill:none" points="1785.48,1373.63 1785.48,1521.01 1834.67,1521.01 1834.67,1373.63 1785.48,1373.63 "/>
<path clip-path="url(#clip552)" d="M1834.67 1441.34 L1834.67 1521.01 L1883.85 1521.01 L1883.85 1441.34 L1834.67 1441.34 L1834.67 1441.34  Z" fill="#009af9" fill-rule="evenodd" fill-opacity="1"/>
<polyline clip-path="url(#clip552)" style="stroke:#000000; stroke-linecap:round; stroke-linejoin:round; stroke-width:4; stroke-opacity:1; fill:none" points="1834.67,1441.34 1834.67,1521.01 1883.85,1521.01 1883.85,1441.34 1834.67,1441.34 "/>
<path clip-path="url(#clip552)" d="M1883.85 1445.33 L1883.85 1521.01 L1933.03 1521.01 L1933.03 1445.33 L1883.85 1445.33 L1883.85 1445.33  Z" fill="#009af9" fill-rule="evenodd" fill-opacity="1"/>
<polyline clip-path="url(#clip552)" style="stroke:#000000; stroke-linecap:round; stroke-linejoin:round; stroke-width:4; stroke-opacity:1; fill:none" points="1883.85,1445.33 1883.85,1521.01 1933.03,1521.01 1933.03,1445.33 1883.85,1445.33 "/>
<path clip-path="url(#clip552)" d="M1933.03 1473.21 L1933.03 1521.01 L1982.22 1521.01 L1982.22 1473.21 L1933.03 1473.21 L1933.03 1473.21  Z" fill="#009af9" fill-rule="evenodd" fill-opacity="1"/>
<polyline clip-path="url(#clip552)" style="stroke:#000000; stroke-linecap:round; stroke-linejoin:round; stroke-width:4; stroke-opacity:1; fill:none" points="1933.03,1473.21 1933.03,1521.01 1982.22,1521.01 1982.22,1473.21 1933.03,1473.21 "/>
<path clip-path="url(#clip552)" d="M1982.22 1509.06 L1982.22 1521.01 L2031.4 1521.01 L2031.4 1509.06 L1982.22 1509.06 L1982.22 1509.06  Z" fill="#009af9" fill-rule="evenodd" fill-opacity="1"/>
<polyline clip-path="url(#clip552)" style="stroke:#000000; stroke-linecap:round; stroke-linejoin:round; stroke-width:4; stroke-opacity:1; fill:none" points="1982.22,1509.06 1982.22,1521.01 2031.4,1521.01 2031.4,1509.06 1982.22,1509.06 "/>
<path clip-path="url(#clip552)" d="M2031.4 1497.11 L2031.4 1521.01 L2080.58 1521.01 L2080.58 1497.11 L2031.4 1497.11 L2031.4 1497.11  Z" fill="#009af9" fill-rule="evenodd" fill-opacity="1"/>
<polyline clip-path="url(#clip552)" style="stroke:#000000; stroke-linecap:round; stroke-linejoin:round; stroke-width:4; stroke-opacity:1; fill:none" points="2031.4,1497.11 2031.4,1521.01 2080.58,1521.01 2080.58,1497.11 2031.4,1497.11 "/>
<path clip-path="url(#clip552)" d="M2080.58 1509.06 L2080.58 1521.01 L2129.77 1521.01 L2129.77 1509.06 L2080.58 1509.06 L2080.58 1509.06  Z" fill="#009af9" fill-rule="evenodd" fill-opacity="1"/>
<polyline clip-path="url(#clip552)" style="stroke:#000000; stroke-linecap:round; stroke-linejoin:round; stroke-width:4; stroke-opacity:1; fill:none" points="2080.58,1509.06 2080.58,1521.01 2129.77,1521.01 2129.77,1509.06 2080.58,1509.06 "/>
<path clip-path="url(#clip552)" d="M2129.77 1517.02 L2129.77 1521.01 L2178.95 1521.01 L2178.95 1517.02 L2129.77 1517.02 L2129.77 1517.02  Z" fill="#009af9" fill-rule="evenodd" fill-opacity="1"/>
<polyline clip-path="url(#clip552)" style="stroke:#000000; stroke-linecap:round; stroke-linejoin:round; stroke-width:4; stroke-opacity:1; fill:none" points="2129.77,1517.02 2129.77,1521.01 2178.95,1521.01 2178.95,1517.02 2129.77,1517.02 "/>
<path clip-path="url(#clip552)" d="M2178.95 1517.02 L2178.95 1521.01 L2228.13 1521.01 L2228.13 1517.02 L2178.95 1517.02 L2178.95 1517.02  Z" fill="#009af9" fill-rule="evenodd" fill-opacity="1"/>
<polyline clip-path="url(#clip552)" style="stroke:#000000; stroke-linecap:round; stroke-linejoin:round; stroke-width:4; stroke-opacity:1; fill:none" points="2178.95,1517.02 2178.95,1521.01 2228.13,1521.01 2228.13,1517.02 2178.95,1517.02 "/>
<circle clip-path="url(#clip552)" style="fill:#009af9; stroke:none; fill-opacity:0" cx="236.205" cy="1517.02" r="2"/>
<circle clip-path="url(#clip552)" style="fill:#009af9; stroke:none; fill-opacity:0" cx="285.388" cy="1517.02" r="2"/>
<circle clip-path="url(#clip552)" style="fill:#009af9; stroke:none; fill-opacity:0" cx="334.572" cy="1509.06" r="2"/>
<circle clip-path="url(#clip552)" style="fill:#009af9; stroke:none; fill-opacity:0" cx="383.755" cy="1505.08" r="2"/>
<circle clip-path="url(#clip552)" style="fill:#009af9; stroke:none; fill-opacity:0" cx="432.939" cy="1477.19" r="2"/>
<circle clip-path="url(#clip552)" style="fill:#009af9; stroke:none; fill-opacity:0" cx="482.122" cy="1433.38" r="2"/>
<circle clip-path="url(#clip552)" style="fill:#009af9; stroke:none; fill-opacity:0" cx="531.306" cy="1417.45" r="2"/>
<circle clip-path="url(#clip552)" style="fill:#009af9; stroke:none; fill-opacity:0" cx="580.489" cy="1389.56" r="2"/>
<circle clip-path="url(#clip552)" style="fill:#009af9; stroke:none; fill-opacity:0" cx="629.673" cy="1321.85" r="2"/>
<circle clip-path="url(#clip552)" style="fill:#009af9; stroke:none; fill-opacity:0" cx="678.856" cy="1262.1" r="2"/>
<circle clip-path="url(#clip552)" style="fill:#009af9; stroke:none; fill-opacity:0" cx="728.039" cy="1154.56" r="2"/>
<circle clip-path="url(#clip552)" style="fill:#009af9; stroke:none; fill-opacity:0" cx="777.223" cy="1082.86" r="2"/>
<circle clip-path="url(#clip552)" style="fill:#009af9; stroke:none; fill-opacity:0" cx="826.406" cy="915.57" r="2"/>
<circle clip-path="url(#clip552)" style="fill:#009af9; stroke:none; fill-opacity:0" cx="875.59" cy="859.806" r="2"/>
<circle clip-path="url(#clip552)" style="fill:#009af9; stroke:none; fill-opacity:0" cx="924.773" cy="656.665" r="2"/>
<circle clip-path="url(#clip552)" style="fill:#009af9; stroke:none; fill-opacity:0" cx="973.957" cy="513.272" r="2"/>
<circle clip-path="url(#clip552)" style="fill:#009af9; stroke:none; fill-opacity:0" cx="1023.14" cy="501.323" r="2"/>
<circle clip-path="url(#clip552)" style="fill:#009af9; stroke:none; fill-opacity:0" cx="1072.32" cy="122.924" r="2"/>
<circle clip-path="url(#clip552)" style="fill:#009af9; stroke:none; fill-opacity:0" cx="1121.51" cy="142.84" r="2"/>
<circle clip-path="url(#clip552)" style="fill:#009af9; stroke:none; fill-opacity:0" cx="1170.69" cy="47.2441" r="2"/>
<circle clip-path="url(#clip552)" style="fill:#009af9; stroke:none; fill-opacity:0" cx="1219.87" cy="170.722" r="2"/>
<circle clip-path="url(#clip552)" style="fill:#009af9; stroke:none; fill-opacity:0" cx="1269.06" cy="206.57" r="2"/>
<circle clip-path="url(#clip552)" style="fill:#009af9; stroke:none; fill-opacity:0" cx="1318.24" cy="246.401" r="2"/>
<circle clip-path="url(#clip552)" style="fill:#009af9; stroke:none; fill-opacity:0" cx="1367.42" cy="393.778" r="2"/>
<circle clip-path="url(#clip552)" style="fill:#009af9; stroke:none; fill-opacity:0" cx="1416.61" cy="584.969" r="2"/>
<circle clip-path="url(#clip552)" style="fill:#009af9; stroke:none; fill-opacity:0" cx="1465.79" cy="648.699" r="2"/>
<circle clip-path="url(#clip552)" style="fill:#009af9; stroke:none; fill-opacity:0" cx="1514.97" cy="736.328" r="2"/>
<circle clip-path="url(#clip552)" style="fill:#009af9; stroke:none; fill-opacity:0" cx="1564.16" cy="915.57" r="2"/>
<circle clip-path="url(#clip552)" style="fill:#009af9; stroke:none; fill-opacity:0" cx="1613.34" cy="1051" r="2"/>
<circle clip-path="url(#clip552)" style="fill:#009af9; stroke:none; fill-opacity:0" cx="1662.53" cy="1230.24" r="2"/>
<circle clip-path="url(#clip552)" style="fill:#009af9; stroke:none; fill-opacity:0" cx="1711.71" cy="1313.88" r="2"/>
<circle clip-path="url(#clip552)" style="fill:#009af9; stroke:none; fill-opacity:0" cx="1760.89" cy="1317.87" r="2"/>
<circle clip-path="url(#clip552)" style="fill:#009af9; stroke:none; fill-opacity:0" cx="1810.08" cy="1373.63" r="2"/>
<circle clip-path="url(#clip552)" style="fill:#009af9; stroke:none; fill-opacity:0" cx="1859.26" cy="1441.34" r="2"/>
<circle clip-path="url(#clip552)" style="fill:#009af9; stroke:none; fill-opacity:0" cx="1908.44" cy="1445.33" r="2"/>
<circle clip-path="url(#clip552)" style="fill:#009af9; stroke:none; fill-opacity:0" cx="1957.63" cy="1473.21" r="2"/>
<circle clip-path="url(#clip552)" style="fill:#009af9; stroke:none; fill-opacity:0" cx="2006.81" cy="1509.06" r="2"/>
<circle clip-path="url(#clip552)" style="fill:#009af9; stroke:none; fill-opacity:0" cx="2055.99" cy="1497.11" r="2"/>
<circle clip-path="url(#clip552)" style="fill:#009af9; stroke:none; fill-opacity:0" cx="2105.18" cy="1509.06" r="2"/>
<circle clip-path="url(#clip552)" style="fill:#009af9; stroke:none; fill-opacity:0" cx="2154.36" cy="1517.02" r="2"/>
<circle clip-path="url(#clip552)" style="fill:#009af9; stroke:none; fill-opacity:0" cx="2203.54" cy="1517.02" r="2"/>
<path clip-path="url(#clip550)" d="M1887.58 200.05 L2277.23 200.05 L2277.23 96.3696 L1887.58 96.3696  Z" fill="#ffffff" fill-rule="evenodd" fill-opacity="1"/>
<polyline clip-path="url(#clip550)" style="stroke:#000000; stroke-linecap:round; stroke-linejoin:round; stroke-width:4; stroke-opacity:1; fill:none" points="1887.58,200.05 2277.23,200.05 2277.23,96.3696 1887.58,96.3696 1887.58,200.05 "/>
<path clip-path="url(#clip550)" d="M1912.75 168.946 L2063.8 168.946 L2063.8 127.474 L1912.75 127.474 L1912.75 168.946  Z" fill="#009af9" fill-rule="evenodd" fill-opacity="1"/>
<polyline clip-path="url(#clip550)" style="stroke:#000000; stroke-linecap:round; stroke-linejoin:round; stroke-width:4; stroke-opacity:1; fill:none" points="1912.75,168.946 2063.8,168.946 2063.8,127.474 1912.75,127.474 1912.75,168.946 "/>
<path clip-path="url(#clip550)" d="M2105.94 153.429 L2104.93 148.082 Q2103.88 142.596 2099.76 142.596 Q2096.66 142.596 2095.25 145.142 Q2093.47 148.337 2093.47 152.55 Q2093.47 157.642 2095.2 160.073 Q2096.96 162.55 2099.76 162.55 Q2102.87 162.55 2104.53 157.619 L2105.94 153.429 M2108.33 146.346 L2110.62 139.564 L2114.42 139.564 L2109.67 153.615 L2110.6 158.684 Q2110.81 159.818 2111.62 160.767 Q2112.57 161.878 2113.31 161.878 L2115.34 161.878 L2115.34 165.49 L2112.8 165.49 Q2110.62 165.49 2108.68 163.545 Q2107.73 162.573 2107.33 160.536 Q2106.27 163.105 2104.09 165.119 Q2103.07 166.068 2099.76 166.068 Q2094.32 166.068 2091.69 162.55 Q2088.98 158.916 2088.98 152.55 Q2088.98 145.744 2091.92 142.55 Q2095.18 138.985 2099.76 138.985 Q2106.96 138.985 2108.33 146.346 Z" fill="#000000" fill-rule="nonzero" fill-opacity="1" /><path clip-path="url(#clip550)" d="M2126.71 161.554 L2143.03 161.554 L2143.03 165.49 L2121.08 165.49 L2121.08 161.554 Q2123.75 158.8 2128.33 154.17 Q2132.94 149.517 2134.12 148.175 Q2136.36 145.652 2137.24 143.916 Q2138.14 142.156 2138.14 140.467 Q2138.14 137.712 2136.2 135.976 Q2134.28 134.24 2131.18 134.24 Q2128.98 134.24 2126.52 135.004 Q2124.09 135.767 2121.32 137.318 L2121.32 132.596 Q2124.14 131.462 2126.59 130.883 Q2129.05 130.305 2131.08 130.305 Q2136.45 130.305 2139.65 132.99 Q2142.84 135.675 2142.84 140.166 Q2142.84 142.295 2142.03 144.217 Q2141.25 146.115 2139.14 148.707 Q2138.56 149.379 2135.46 152.596 Q2132.36 155.791 2126.71 161.554 Z" fill="#000000" fill-rule="nonzero" fill-opacity="1" /><path clip-path="url(#clip550)" d="M2165.16 150.605 L2177.63 150.605 L2177.63 154.402 L2165.16 154.402 L2165.16 150.605 Z" fill="#000000" fill-rule="nonzero" fill-opacity="1" /><path clip-path="url(#clip550)" d="M2214.6 153.429 L2213.58 148.082 Q2212.54 142.596 2208.42 142.596 Q2205.32 142.596 2203.91 145.142 Q2202.13 148.337 2202.13 152.55 Q2202.13 157.642 2203.86 160.073 Q2205.62 162.55 2208.42 162.55 Q2211.52 162.55 2213.19 157.619 L2214.6 153.429 M2216.99 146.346 L2219.28 139.564 L2223.07 139.564 L2218.33 153.615 L2219.25 158.684 Q2219.46 159.818 2220.27 160.767 Q2221.22 161.878 2221.96 161.878 L2224 161.878 L2224 165.49 L2221.45 165.49 Q2219.28 165.49 2217.33 163.545 Q2216.38 162.573 2215.99 160.536 Q2214.93 163.105 2212.75 165.119 Q2211.73 166.068 2208.42 166.068 Q2202.98 166.068 2200.34 162.55 Q2197.63 158.916 2197.63 152.55 Q2197.63 145.744 2200.57 142.55 Q2203.84 138.985 2208.42 138.985 Q2215.62 138.985 2216.99 146.346 Z" fill="#000000" fill-rule="nonzero" fill-opacity="1" /><path clip-path="url(#clip550)" d="M2232.15 161.554 L2239.79 161.554 L2239.79 135.189 L2231.48 136.855 L2231.48 132.596 L2239.74 130.93 L2244.42 130.93 L2244.42 161.554 L2252.06 161.554 L2252.06 165.49 L2232.15 165.49 L2232.15 161.554 Z" fill="#000000" fill-rule="nonzero" fill-opacity="1" /></svg>
