<?xml version="1.0" encoding="utf-8"?>
<svg xmlns="http://www.w3.org/2000/svg" xmlns:xlink="http://www.w3.org/1999/xlink" width="600" height="400" viewBox="0 0 2400 1600">
<defs>
  <clipPath id="clip950">
    <rect x="0" y="0" width="2400" height="1600"/>
  </clipPath>
</defs>
<path clip-path="url(#clip950)" d="M0 1600 L2400 1600 L2400 0 L0 0  Z" fill="#ffffff" fill-rule="evenodd" fill-opacity="1"/>
<defs>
  <clipPath id="clip951">
    <rect x="480" y="0" width="1681" height="1600"/>
  </clipPath>
</defs>
<path clip-path="url(#clip950)" d="M86.9921 1521.01 L2352.76 1521.01 L2352.76 47.2441 L86.9921 47.2441  Z" fill="#ffffff" fill-rule="evenodd" fill-opacity="1"/>
<defs>
  <clipPath id="clip952">
    <rect x="86" y="47" width="2267" height="1475"/>
  </clipPath>
</defs>
<polyline clip-path="url(#clip952)" style="stroke:#000000; stroke-linecap:round; stroke-linejoin:round; stroke-width:2; stroke-opacity:0.1; fill:none" points="370.213,1521.01 370.213,47.2441 "/>
<polyline clip-path="url(#clip952)" style="stroke:#000000; stroke-linecap:round; stroke-linejoin:round; stroke-width:2; stroke-opacity:0.1; fill:none" points="795.043,1521.01 795.043,47.2441 "/>
<polyline clip-path="url(#clip952)" style="stroke:#000000; stroke-linecap:round; stroke-linejoin:round; stroke-width:2; stroke-opacity:0.1; fill:none" points="1219.87,1521.01 1219.87,47.2441 "/>
<polyline clip-path="url(#clip952)" style="stroke:#000000; stroke-linecap:round; stroke-linejoin:round; stroke-width:2; stroke-opacity:0.1; fill:none" points="1644.7,1521.01 1644.7,47.2441 "/>
<polyline clip-path="url(#clip952)" style="stroke:#000000; stroke-linecap:round; stroke-linejoin:round; stroke-width:2; stroke-opacity:0.1; fill:none" points="2069.54,1521.01 2069.54,47.2441 "/>
<polyline clip-path="url(#clip950)" style="stroke:#000000; stroke-linecap:round; stroke-linejoin:round; stroke-width:4; stroke-opacity:1; fill:none" points="86.9921,1521.01 2352.76,1521.01 "/>
<polyline clip-path="url(#clip950)" style="stroke:#000000; stroke-linecap:round; stroke-linejoin:round; stroke-width:4; stroke-opacity:1; fill:none" points="370.213,1521.01 370.213,1502.11 "/>
<polyline clip-path="url(#clip950)" style="stroke:#000000; stroke-linecap:round; stroke-linejoin:round; stroke-width:4; stroke-opacity:1; fill:none" points="795.043,1521.01 795.043,1502.11 "/>
<polyline clip-path="url(#clip950)" style="stroke:#000000; stroke-linecap:round; stroke-linejoin:round; stroke-width:4; stroke-opacity:1; fill:none" points="1219.87,1521.01 1219.87,1502.11 "/>
<polyline clip-path="url(#clip950)" style="stroke:#000000; stroke-linecap:round; stroke-linejoin:round; stroke-width:4; stroke-opacity:1; fill:none" points="1644.7,1521.01 1644.7,1502.11 "/>
<polyline clip-path="url(#clip950)" style="stroke:#000000; stroke-linecap:round; stroke-linejoin:round; stroke-width:4; stroke-opacity:1; fill:none" points="2069.54,1521.01 2069.54,1502.11 "/>
<path clip-path="url(#clip950)" d="M333.905 1579.47 L350.224 1579.47 L350.224 1583.41 L328.28 1583.41 L328.28 1579.47 Q330.942 1576.72 335.525 1572.09 Q340.132 1567.44 341.312 1566.09 Q343.558 1563.57 344.437 1561.83 Q345.34 1560.07 345.34 1558.38 Q345.34 1555.63 343.396 1553.89 Q341.474 1552.16 338.372 1552.16 Q336.173 1552.16 333.72 1552.92 Q331.289 1553.69 328.511 1555.24 L328.511 1550.51 Q331.335 1549.38 333.789 1548.8 Q336.243 1548.22 338.28 1548.22 Q343.65 1548.22 346.845 1550.91 Q350.039 1553.59 350.039 1558.08 Q350.039 1560.21 349.229 1562.13 Q348.442 1564.03 346.335 1566.63 Q345.757 1567.3 342.655 1570.51 Q339.553 1573.71 333.905 1579.47 Z" fill="#000000" fill-rule="nonzero" fill-opacity="1" /><path clip-path="url(#clip950)" d="M372.886 1552.92 L361.081 1571.37 L372.886 1571.37 L372.886 1552.92 M371.659 1548.85 L377.539 1548.85 L377.539 1571.37 L382.469 1571.37 L382.469 1575.26 L377.539 1575.26 L377.539 1583.41 L372.886 1583.41 L372.886 1575.26 L357.284 1575.26 L357.284 1570.75 L371.659 1548.85 Z" fill="#000000" fill-rule="nonzero" fill-opacity="1" /><path clip-path="url(#clip950)" d="M400.201 1551.93 Q396.59 1551.93 394.761 1555.49 Q392.956 1559.03 392.956 1566.16 Q392.956 1573.27 394.761 1576.83 Q396.59 1580.38 400.201 1580.38 Q403.835 1580.38 405.641 1576.83 Q407.469 1573.27 407.469 1566.16 Q407.469 1559.03 405.641 1555.49 Q403.835 1551.93 400.201 1551.93 M400.201 1548.22 Q406.011 1548.22 409.067 1552.83 Q412.145 1557.41 412.145 1566.16 Q412.145 1574.89 409.067 1579.5 Q406.011 1584.08 400.201 1584.08 Q394.391 1584.08 391.312 1579.5 Q388.256 1574.89 388.256 1566.16 Q388.256 1557.41 391.312 1552.83 Q394.391 1548.22 400.201 1548.22 Z" fill="#000000" fill-rule="nonzero" fill-opacity="1" /><path clip-path="url(#clip950)" d="M758.736 1579.47 L775.055 1579.47 L775.055 1583.41 L753.111 1583.41 L753.111 1579.47 Q755.773 1576.72 760.356 1572.09 Q764.962 1567.44 766.143 1566.09 Q768.388 1563.57 769.268 1561.83 Q770.171 1560.07 770.171 1558.38 Q770.171 1555.63 768.226 1553.89 Q766.305 1552.16 763.203 1552.16 Q761.004 1552.16 758.55 1552.92 Q756.12 1553.69 753.342 1555.24 L753.342 1550.51 Q756.166 1549.38 758.62 1548.8 Q761.074 1548.22 763.111 1548.22 Q768.481 1548.22 771.675 1550.91 Q774.87 1553.59 774.87 1558.08 Q774.87 1560.21 774.06 1562.13 Q773.273 1564.03 771.166 1566.63 Q770.587 1567.3 767.486 1570.51 Q764.384 1573.71 758.736 1579.47 Z" fill="#000000" fill-rule="nonzero" fill-opacity="1" /><path clip-path="url(#clip950)" d="M783.689 1548.85 L805.911 1548.85 L805.911 1550.84 L793.365 1583.41 L788.481 1583.41 L800.286 1552.78 L783.689 1552.78 L783.689 1548.85 Z" fill="#000000" fill-rule="nonzero" fill-opacity="1" /><path clip-path="url(#clip950)" d="M825.032 1551.93 Q821.42 1551.93 819.592 1555.49 Q817.786 1559.03 817.786 1566.16 Q817.786 1573.27 819.592 1576.83 Q821.42 1580.38 825.032 1580.38 Q828.666 1580.38 830.471 1576.83 Q832.3 1573.27 832.3 1566.16 Q832.3 1559.03 830.471 1555.49 Q828.666 1551.93 825.032 1551.93 M825.032 1548.22 Q830.842 1548.22 833.897 1552.83 Q836.976 1557.41 836.976 1566.16 Q836.976 1574.89 833.897 1579.5 Q830.842 1584.08 825.032 1584.08 Q819.221 1584.08 816.143 1579.5 Q813.087 1574.89 813.087 1566.16 Q813.087 1557.41 816.143 1552.83 Q819.221 1548.22 825.032 1548.22 Z" fill="#000000" fill-rule="nonzero" fill-opacity="1" /><path clip-path="url(#clip950)" d="M1193.64 1564.77 Q1196.99 1565.49 1198.87 1567.76 Q1200.77 1570.03 1200.77 1573.36 Q1200.77 1578.48 1197.25 1581.28 Q1193.73 1584.08 1187.25 1584.08 Q1185.07 1584.08 1182.76 1583.64 Q1180.46 1583.22 1178.01 1582.37 L1178.01 1577.85 Q1179.96 1578.99 1182.27 1579.57 Q1184.58 1580.14 1187.11 1580.14 Q1191.51 1580.14 1193.8 1578.41 Q1196.11 1576.67 1196.11 1573.36 Q1196.11 1570.31 1193.96 1568.59 Q1191.83 1566.86 1188.01 1566.86 L1183.98 1566.86 L1183.98 1563.01 L1188.2 1563.01 Q1191.65 1563.01 1193.47 1561.65 Q1195.3 1560.26 1195.3 1557.67 Q1195.3 1555.01 1193.4 1553.59 Q1191.53 1552.16 1188.01 1552.16 Q1186.09 1552.16 1183.89 1552.57 Q1181.69 1552.99 1179.05 1553.87 L1179.05 1549.7 Q1181.71 1548.96 1184.03 1548.59 Q1186.37 1548.22 1188.43 1548.22 Q1193.75 1548.22 1196.85 1550.65 Q1199.96 1553.06 1199.96 1557.18 Q1199.96 1560.05 1198.31 1562.04 Q1196.67 1564.01 1193.64 1564.77 Z" fill="#000000" fill-rule="nonzero" fill-opacity="1" /><path clip-path="url(#clip950)" d="M1219.63 1551.93 Q1216.02 1551.93 1214.19 1555.49 Q1212.39 1559.03 1212.39 1566.16 Q1212.39 1573.27 1214.19 1576.83 Q1216.02 1580.38 1219.63 1580.38 Q1223.27 1580.38 1225.07 1576.83 Q1226.9 1573.27 1226.9 1566.16 Q1226.9 1559.03 1225.07 1555.49 Q1223.27 1551.93 1219.63 1551.93 M1219.63 1548.22 Q1225.44 1548.22 1228.5 1552.83 Q1231.58 1557.41 1231.58 1566.16 Q1231.58 1574.89 1228.5 1579.5 Q1225.44 1584.08 1219.63 1584.08 Q1213.82 1584.08 1210.74 1579.5 Q1207.69 1574.89 1207.69 1566.16 Q1207.69 1557.41 1210.74 1552.83 Q1213.82 1548.22 1219.63 1548.22 Z" fill="#000000" fill-rule="nonzero" fill-opacity="1" /><path clip-path="url(#clip950)" d="M1249.79 1551.93 Q1246.18 1551.93 1244.35 1555.49 Q1242.55 1559.03 1242.55 1566.16 Q1242.55 1573.27 1244.35 1576.83 Q1246.18 1580.38 1249.79 1580.38 Q1253.43 1580.38 1255.23 1576.83 Q1257.06 1573.27 1257.06 1566.16 Q1257.06 1559.03 1255.23 1555.49 Q1253.43 1551.93 1249.79 1551.93 M1249.79 1548.22 Q1255.6 1548.22 1258.66 1552.83 Q1261.74 1557.41 1261.74 1566.16 Q1261.74 1574.89 1258.66 1579.5 Q1255.6 1584.08 1249.79 1584.08 Q1243.98 1584.08 1240.9 1579.5 Q1237.85 1574.89 1237.85 1566.16 Q1237.85 1557.41 1240.9 1552.83 Q1243.98 1548.22 1249.79 1548.22 Z" fill="#000000" fill-rule="nonzero" fill-opacity="1" /><path clip-path="url(#clip950)" d="M1618.47 1564.77 Q1621.82 1565.49 1623.7 1567.76 Q1625.6 1570.03 1625.6 1573.36 Q1625.6 1578.48 1622.08 1581.28 Q1618.56 1584.08 1612.08 1584.08 Q1609.9 1584.08 1607.59 1583.64 Q1605.3 1583.22 1602.84 1582.37 L1602.84 1577.85 Q1604.79 1578.99 1607.1 1579.57 Q1609.42 1580.14 1611.94 1580.14 Q1616.34 1580.14 1618.63 1578.41 Q1620.94 1576.67 1620.94 1573.36 Q1620.94 1570.31 1618.79 1568.59 Q1616.66 1566.86 1612.84 1566.86 L1608.81 1566.86 L1608.81 1563.01 L1613.03 1563.01 Q1616.48 1563.01 1618.3 1561.65 Q1620.13 1560.26 1620.13 1557.67 Q1620.13 1555.01 1618.23 1553.59 Q1616.36 1552.16 1612.84 1552.16 Q1610.92 1552.16 1608.72 1552.57 Q1606.52 1552.99 1603.88 1553.87 L1603.88 1549.7 Q1606.55 1548.96 1608.86 1548.59 Q1611.2 1548.22 1613.26 1548.22 Q1618.58 1548.22 1621.68 1550.65 Q1624.79 1553.06 1624.79 1557.18 Q1624.79 1560.05 1623.14 1562.04 Q1621.5 1564.01 1618.47 1564.77 Z" fill="#000000" fill-rule="nonzero" fill-opacity="1" /><path clip-path="url(#clip950)" d="M1648.63 1564.77 Q1651.98 1565.49 1653.86 1567.76 Q1655.76 1570.03 1655.76 1573.36 Q1655.76 1578.48 1652.24 1581.28 Q1648.72 1584.08 1642.24 1584.08 Q1640.06 1584.08 1637.75 1583.64 Q1635.46 1583.22 1633 1582.37 L1633 1577.85 Q1634.95 1578.99 1637.26 1579.57 Q1639.58 1580.14 1642.1 1580.14 Q1646.5 1580.14 1648.79 1578.41 Q1651.11 1576.67 1651.11 1573.36 Q1651.11 1570.31 1648.95 1568.59 Q1646.82 1566.86 1643 1566.86 L1638.98 1566.86 L1638.98 1563.01 L1643.19 1563.01 Q1646.64 1563.01 1648.47 1561.65 Q1650.29 1560.26 1650.29 1557.67 Q1650.29 1555.01 1648.4 1553.59 Q1646.52 1552.16 1643 1552.16 Q1641.08 1552.16 1638.88 1552.57 Q1636.68 1552.99 1634.05 1553.87 L1634.05 1549.7 Q1636.71 1548.96 1639.02 1548.59 Q1641.36 1548.22 1643.42 1548.22 Q1648.74 1548.22 1651.85 1550.65 Q1654.95 1553.06 1654.95 1557.18 Q1654.95 1560.05 1653.3 1562.04 Q1651.66 1564.01 1648.63 1564.77 Z" fill="#000000" fill-rule="nonzero" fill-opacity="1" /><path clip-path="url(#clip950)" d="M1674.62 1551.93 Q1671.01 1551.93 1669.18 1555.49 Q1667.38 1559.03 1667.38 1566.16 Q1667.38 1573.27 1669.18 1576.83 Q1671.01 1580.38 1674.62 1580.38 Q1678.26 1580.38 1680.06 1576.83 Q1681.89 1573.27 1681.89 1566.16 Q1681.89 1559.03 1680.06 1555.49 Q1678.26 1551.93 1674.62 1551.93 M1674.62 1548.22 Q1680.43 1548.22 1683.49 1552.83 Q1686.57 1557.41 1686.57 1566.16 Q1686.57 1574.89 1683.49 1579.5 Q1680.43 1584.08 1674.62 1584.08 Q1668.81 1584.08 1665.73 1579.5 Q1662.68 1574.89 1662.68 1566.16 Q1662.68 1557.41 1665.73 1552.83 Q1668.81 1548.22 1674.62 1548.22 Z" fill="#000000" fill-rule="nonzero" fill-opacity="1" /><path clip-path="url(#clip950)" d="M2043.3 1564.77 Q2046.65 1565.49 2048.53 1567.76 Q2050.43 1570.03 2050.43 1573.36 Q2050.43 1578.48 2046.91 1581.28 Q2043.39 1584.08 2036.91 1584.08 Q2034.73 1584.08 2032.42 1583.64 Q2030.13 1583.22 2027.67 1582.37 L2027.67 1577.85 Q2029.62 1578.99 2031.93 1579.57 Q2034.25 1580.14 2036.77 1580.14 Q2041.17 1580.14 2043.46 1578.41 Q2045.77 1576.67 2045.77 1573.36 Q2045.77 1570.31 2043.62 1568.59 Q2041.49 1566.86 2037.67 1566.86 L2033.64 1566.86 L2033.64 1563.01 L2037.86 1563.01 Q2041.31 1563.01 2043.14 1561.65 Q2044.96 1560.26 2044.96 1557.67 Q2044.96 1555.01 2043.07 1553.59 Q2041.19 1552.16 2037.67 1552.16 Q2035.75 1552.16 2033.55 1552.57 Q2031.35 1552.99 2028.71 1553.87 L2028.71 1549.7 Q2031.38 1548.96 2033.69 1548.59 Q2036.03 1548.22 2038.09 1548.22 Q2043.41 1548.22 2046.51 1550.65 Q2049.62 1553.06 2049.62 1557.18 Q2049.62 1560.05 2047.97 1562.04 Q2046.33 1564.01 2043.3 1564.77 Z" fill="#000000" fill-rule="nonzero" fill-opacity="1" /><path clip-path="url(#clip950)" d="M2069.87 1564.26 Q2066.72 1564.26 2064.87 1566.42 Q2063.04 1568.57 2063.04 1572.32 Q2063.04 1576.05 2064.87 1578.22 Q2066.72 1580.38 2069.87 1580.38 Q2073.02 1580.38 2074.85 1578.22 Q2076.7 1576.05 2076.7 1572.32 Q2076.7 1568.57 2074.85 1566.42 Q2073.02 1564.26 2069.87 1564.26 M2079.15 1549.61 L2079.15 1553.87 Q2077.39 1553.04 2075.59 1552.6 Q2073.81 1552.16 2072.05 1552.16 Q2067.42 1552.16 2064.96 1555.28 Q2062.53 1558.41 2062.19 1564.73 Q2063.55 1562.71 2065.61 1561.65 Q2067.67 1560.56 2070.15 1560.56 Q2075.36 1560.56 2078.37 1563.73 Q2081.4 1566.88 2081.4 1572.32 Q2081.4 1577.64 2078.25 1580.86 Q2075.1 1584.08 2069.87 1584.08 Q2063.88 1584.08 2060.7 1579.5 Q2057.53 1574.89 2057.53 1566.16 Q2057.53 1557.97 2061.42 1553.11 Q2065.31 1548.22 2071.86 1548.22 Q2073.62 1548.22 2075.4 1548.57 Q2077.21 1548.92 2079.15 1549.61 Z" fill="#000000" fill-rule="nonzero" fill-opacity="1" /><path clip-path="url(#clip950)" d="M2099.45 1551.93 Q2095.84 1551.93 2094.01 1555.49 Q2092.21 1559.03 2092.21 1566.16 Q2092.21 1573.27 2094.01 1576.83 Q2095.84 1580.38 2099.45 1580.38 Q2103.09 1580.38 2104.89 1576.83 Q2106.72 1573.27 2106.72 1566.16 Q2106.72 1559.03 2104.89 1555.49 Q2103.09 1551.93 2099.45 1551.93 M2099.45 1548.22 Q2105.26 1548.22 2108.32 1552.83 Q2111.4 1557.41 2111.4 1566.16 Q2111.4 1574.89 2108.32 1579.5 Q2105.26 1584.08 2099.45 1584.08 Q2093.64 1584.08 2090.57 1579.5 Q2087.51 1574.89 2087.51 1566.16 Q2087.51 1557.41 2090.57 1552.83 Q2093.64 1548.22 2099.45 1548.22 Z" fill="#000000" fill-rule="nonzero" fill-opacity="1" /><polyline clip-path="url(#clip952)" style="stroke:#000000; stroke-linecap:round; stroke-linejoin:round; stroke-width:2; stroke-opacity:0.1; fill:none" points="86.9921,1479.3 2352.76,1479.3 "/>
<polyline clip-path="url(#clip952)" style="stroke:#000000; stroke-linecap:round; stroke-linejoin:round; stroke-width:2; stroke-opacity:0.1; fill:none" points="86.9921,1226.05 2352.76,1226.05 "/>
<polyline clip-path="url(#clip952)" style="stroke:#000000; stroke-linecap:round; stroke-linejoin:round; stroke-width:2; stroke-opacity:0.1; fill:none" points="86.9921,972.797 2352.76,972.797 "/>
<polyline clip-path="url(#clip952)" style="stroke:#000000; stroke-linecap:round; stroke-linejoin:round; stroke-width:2; stroke-opacity:0.1; fill:none" points="86.9921,719.547 2352.76,719.547 "/>
<polyline clip-path="url(#clip952)" style="stroke:#000000; stroke-linecap:round; stroke-linejoin:round; stroke-width:2; stroke-opacity:0.1; fill:none" points="86.9921,466.297 2352.76,466.297 "/>
<polyline clip-path="url(#clip952)" style="stroke:#000000; stroke-linecap:round; stroke-linejoin:round; stroke-width:2; stroke-opacity:0.1; fill:none" points="86.9921,213.047 2352.76,213.047 "/>
<polyline clip-path="url(#clip950)" style="stroke:#000000; stroke-linecap:round; stroke-linejoin:round; stroke-width:4; stroke-opacity:1; fill:none" points="86.9921,1521.01 86.9921,47.2441 "/>
<polyline clip-path="url(#clip950)" style="stroke:#000000; stroke-linecap:round; stroke-linejoin:round; stroke-width:4; stroke-opacity:1; fill:none" points="86.9921,1479.3 105.89,1479.3 "/>
<polyline clip-path="url(#clip950)" style="stroke:#000000; stroke-linecap:round; stroke-linejoin:round; stroke-width:4; stroke-opacity:1; fill:none" points="86.9921,1226.05 105.89,1226.05 "/>
<polyline clip-path="url(#clip950)" style="stroke:#000000; stroke-linecap:round; stroke-linejoin:round; stroke-width:4; stroke-opacity:1; fill:none" points="86.9921,972.797 105.89,972.797 "/>
<polyline clip-path="url(#clip950)" style="stroke:#000000; stroke-linecap:round; stroke-linejoin:round; stroke-width:4; stroke-opacity:1; fill:none" points="86.9921,719.547 105.89,719.547 "/>
<polyline clip-path="url(#clip950)" style="stroke:#000000; stroke-linecap:round; stroke-linejoin:round; stroke-width:4; stroke-opacity:1; fill:none" points="86.9921,466.297 105.89,466.297 "/>
<polyline clip-path="url(#clip950)" style="stroke:#000000; stroke-linecap:round; stroke-linejoin:round; stroke-width:4; stroke-opacity:1; fill:none" points="86.9921,213.047 105.89,213.047 "/>
<path clip-path="url(#clip950)" d="M10.8708 1479.3 Q10.8708 1482.91 14.4356 1484.74 Q17.9773 1486.54 25.1068 1486.54 Q32.2133 1486.54 35.7781 1484.74 Q39.3197 1482.91 39.3197 1479.3 Q39.3197 1475.66 35.7781 1473.86 Q32.2133 1472.03 25.1068 1472.03 Q17.9773 1472.03 14.4356 1473.86 Q10.8708 1475.66 10.8708 1479.3 M7.16713 1479.3 Q7.16713 1473.49 11.7736 1470.43 Q16.3569 1467.35 25.1068 1467.35 Q33.8337 1467.35 38.4401 1470.43 Q43.0234 1473.49 43.0234 1479.3 Q43.0234 1485.11 38.4401 1488.19 Q33.8337 1491.24 25.1068 1491.24 Q16.3569 1491.24 11.7736 1488.19 Q7.16713 1485.11 7.16713 1479.3 Z" fill="#000000" fill-rule="nonzero" fill-opacity="1" /><path clip-path="url(#clip950)" d="M38.417 1266.44 L38.417 1258.8 L12.0514 1258.8 L13.718 1267.11 L9.45878 1267.11 L7.79213 1258.85 L7.79213 1254.17 L38.417 1254.17 L38.417 1246.53 L42.3521 1246.53 L42.3521 1266.44 L38.417 1266.44 Z" fill="#000000" fill-rule="nonzero" fill-opacity="1" /><path clip-path="url(#clip950)" d="M10.8708 1227.09 Q10.8708 1230.7 14.4356 1232.53 Q17.9773 1234.33 25.1068 1234.33 Q32.2133 1234.33 35.7781 1232.53 Q39.3197 1230.7 39.3197 1227.09 Q39.3197 1223.45 35.7781 1221.65 Q32.2133 1219.82 25.1068 1219.82 Q17.9773 1219.82 14.4356 1221.65 Q10.8708 1223.45 10.8708 1227.09 M7.16713 1227.09 Q7.16713 1221.28 11.7736 1218.22 Q16.3569 1215.14 25.1068 1215.14 Q33.8337 1215.14 38.4401 1218.22 Q43.0234 1221.28 43.0234 1227.09 Q43.0234 1232.9 38.4401 1235.98 Q33.8337 1239.03 25.1068 1239.03 Q16.3569 1239.03 11.7736 1235.98 Q7.16713 1232.9 7.16713 1227.09 Z" fill="#000000" fill-rule="nonzero" fill-opacity="1" /><path clip-path="url(#clip950)" d="M10.8708 1196.93 Q10.8708 1200.54 14.4356 1202.37 Q17.9773 1204.17 25.1068 1204.17 Q32.2133 1204.17 35.7781 1202.37 Q39.3197 1200.54 39.3197 1196.93 Q39.3197 1193.29 35.7781 1191.49 Q32.2133 1189.66 25.1068 1189.66 Q17.9773 1189.66 14.4356 1191.49 Q10.8708 1193.29 10.8708 1196.93 M7.16713 1196.93 Q7.16713 1191.12 11.7736 1188.06 Q16.3569 1184.98 25.1068 1184.98 Q33.8337 1184.98 38.4401 1188.06 Q43.0234 1191.12 43.0234 1196.93 Q43.0234 1202.74 38.4401 1205.82 Q33.8337 1208.87 25.1068 1208.87 Q16.3569 1208.87 11.7736 1205.82 Q7.16713 1202.74 7.16713 1196.93 Z" fill="#000000" fill-rule="nonzero" fill-opacity="1" /><path clip-path="url(#clip950)" d="M38.417 1009.11 L38.417 992.786 L42.3521 992.786 L42.3521 1014.73 L38.417 1014.73 Q35.6623 1012.07 31.0327 1007.48 Q26.38 1002.88 25.0374 1001.7 Q22.5143 999.452 20.7782 998.573 Q19.0189 997.67 17.3291 997.67 Q14.5745 997.67 12.8384 999.614 Q11.1023 1001.54 11.1023 1004.64 Q11.1023 1006.84 11.8662 1009.29 Q12.6301 1011.72 14.181 1014.5 L9.45878 1014.5 Q8.32453 1011.67 7.74583 1009.22 Q7.16713 1006.77 7.16713 1004.73 Q7.16713 999.36 9.8523 996.165 Q12.5375 992.971 17.0282 992.971 Q19.1578 992.971 21.0791 993.781 Q22.9772 994.568 25.5698 996.675 Q26.2411 997.253 29.4587 1000.36 Q32.6531 1003.46 38.417 1009.11 Z" fill="#000000" fill-rule="nonzero" fill-opacity="1" /><path clip-path="url(#clip950)" d="M10.8708 972.971 Q10.8708 976.582 14.4356 978.411 Q17.9773 980.216 25.1068 980.216 Q32.2133 980.216 35.7781 978.411 Q39.3197 976.582 39.3197 972.971 Q39.3197 969.337 35.7781 967.531 Q32.2133 965.702 25.1068 965.702 Q17.9773 965.702 14.4356 967.531 Q10.8708 969.337 10.8708 972.971 M7.16713 972.971 Q7.16713 967.161 11.7736 964.105 Q16.3569 961.027 25.1068 961.027 Q33.8337 961.027 38.4401 964.105 Q43.0234 967.161 43.0234 972.971 Q43.0234 978.781 38.4401 981.86 Q33.8337 984.915 25.1068 984.915 Q16.3569 984.915 11.7736 981.86 Q7.16713 978.781 7.16713 972.971 Z" fill="#000000" fill-rule="nonzero" fill-opacity="1" /><path clip-path="url(#clip950)" d="M10.8708 942.809 Q10.8708 946.42 14.4356 948.249 Q17.9773 950.054 25.1068 950.054 Q32.2133 950.054 35.7781 948.249 Q39.3197 946.42 39.3197 942.809 Q39.3197 939.175 35.7781 937.369 Q32.2133 935.541 25.1068 935.541 Q17.9773 935.541 14.4356 937.369 Q10.8708 939.175 10.8708 942.809 M7.16713 942.809 Q7.16713 936.999 11.7736 933.943 Q16.3569 930.865 25.1068 930.865 Q33.8337 930.865 38.4401 933.943 Q43.0234 936.999 43.0234 942.809 Q43.0234 948.619 38.4401 951.698 Q33.8337 954.753 25.1068 954.753 Q16.3569 954.753 11.7736 951.698 Q7.16713 948.619 7.16713 942.809 Z" fill="#000000" fill-rule="nonzero" fill-opacity="1" /><path clip-path="url(#clip950)" d="M23.718 745.785 Q24.4356 742.429 26.7041 740.554 Q28.9726 738.656 32.3059 738.656 Q37.4216 738.656 40.2225 742.174 Q43.0234 745.693 43.0234 752.174 Q43.0234 754.35 42.5836 756.665 Q42.1669 758.957 41.3105 761.41 L36.7966 761.41 Q37.9309 759.466 38.5096 757.151 Q39.0883 754.836 39.0883 752.313 Q39.0883 747.915 37.3522 745.623 Q35.6161 743.309 32.3059 743.309 Q29.2503 743.309 27.5374 745.461 Q25.8013 747.591 25.8013 751.41 L25.8013 755.438 L21.9587 755.438 L21.9587 751.225 Q21.9587 747.776 20.593 745.948 Q19.2041 744.119 16.6115 744.119 Q13.9495 744.119 12.5375 746.017 Q11.1023 747.892 11.1023 751.41 Q11.1023 753.332 11.519 755.531 Q11.9356 757.73 12.8152 760.369 L8.6486 760.369 Q7.90787 757.707 7.5375 755.392 Q7.16713 753.054 7.16713 750.994 Q7.16713 745.67 9.59767 742.568 Q12.0051 739.466 16.1254 739.466 Q18.9958 739.466 20.9865 741.11 Q22.9541 742.753 23.718 745.785 Z" fill="#000000" fill-rule="nonzero" fill-opacity="1" /><path clip-path="url(#clip950)" d="M10.8708 719.79 Q10.8708 723.401 14.4356 725.23 Q17.9773 727.036 25.1068 727.036 Q32.2133 727.036 35.7781 725.23 Q39.3197 723.401 39.3197 719.79 Q39.3197 716.156 35.7781 714.35 Q32.2133 712.522 25.1068 712.522 Q17.9773 712.522 14.4356 714.35 Q10.8708 716.156 10.8708 719.79 M7.16713 719.79 Q7.16713 713.98 11.7736 710.925 Q16.3569 707.846 25.1068 707.846 Q33.8337 707.846 38.4401 710.925 Q43.0234 713.98 43.0234 719.79 Q43.0234 725.6 38.4401 728.679 Q33.8337 731.735 25.1068 731.735 Q16.3569 731.735 11.7736 728.679 Q7.16713 725.6 7.16713 719.79 Z" fill="#000000" fill-rule="nonzero" fill-opacity="1" /><path clip-path="url(#clip950)" d="M10.8708 689.628 Q10.8708 693.239 14.4356 695.068 Q17.9773 696.874 25.1068 696.874 Q32.2133 696.874 35.7781 695.068 Q39.3197 693.239 39.3197 689.628 Q39.3197 685.994 35.7781 684.189 Q32.2133 682.36 25.1068 682.36 Q17.9773 682.36 14.4356 684.189 Q10.8708 685.994 10.8708 689.628 M7.16713 689.628 Q7.16713 683.818 11.7736 680.763 Q16.3569 677.684 25.1068 677.684 Q33.8337 677.684 38.4401 680.763 Q43.0234 683.818 43.0234 689.628 Q43.0234 695.439 38.4401 698.517 Q33.8337 701.573 25.1068 701.573 Q16.3569 701.573 11.7736 698.517 Q7.16713 695.439 7.16713 689.628 Z" fill="#000000" fill-rule="nonzero" fill-opacity="1" /><path clip-path="url(#clip950)" d="M11.8662 493.207 L30.3152 505.012 L30.3152 493.207 L11.8662 493.207 M7.79213 494.434 L7.79213 488.554 L30.3152 488.554 L30.3152 483.623 L34.204 483.623 L34.204 488.554 L42.3521 488.554 L42.3521 493.207 L34.204 493.207 L34.204 508.808 L29.6902 508.808 L7.79213 494.434 Z" fill="#000000" fill-rule="nonzero" fill-opacity="1" /><path clip-path="url(#clip950)" d="M10.8708 465.892 Q10.8708 469.503 14.4356 471.332 Q17.9773 473.137 25.1068 473.137 Q32.2133 473.137 35.7781 471.332 Q39.3197 469.503 39.3197 465.892 Q39.3197 462.258 35.7781 460.452 Q32.2133 458.624 25.1068 458.624 Q17.9773 458.624 14.4356 460.452 Q10.8708 462.258 10.8708 465.892 M7.16713 465.892 Q7.16713 460.082 11.7736 457.026 Q16.3569 453.948 25.1068 453.948 Q33.8337 453.948 38.4401 457.026 Q43.0234 460.082 43.0234 465.892 Q43.0234 471.702 38.4401 474.781 Q33.8337 477.836 25.1068 477.836 Q16.3569 477.836 11.7736 474.781 Q7.16713 471.702 7.16713 465.892 Z" fill="#000000" fill-rule="nonzero" fill-opacity="1" /><path clip-path="url(#clip950)" d="M10.8708 435.73 Q10.8708 439.341 14.4356 441.17 Q17.9773 442.975 25.1068 442.975 Q32.2133 442.975 35.7781 441.17 Q39.3197 439.341 39.3197 435.73 Q39.3197 432.096 35.7781 430.29 Q32.2133 428.462 25.1068 428.462 Q17.9773 428.462 14.4356 430.29 Q10.8708 432.096 10.8708 435.73 M7.16713 435.73 Q7.16713 429.92 11.7736 426.864 Q16.3569 423.786 25.1068 423.786 Q33.8337 423.786 38.4401 426.864 Q43.0234 429.92 43.0234 435.73 Q43.0234 441.54 38.4401 444.619 Q33.8337 447.674 25.1068 447.674 Q16.3569 447.674 11.7736 444.619 Q7.16713 441.54 7.16713 435.73 Z" fill="#000000" fill-rule="nonzero" fill-opacity="1" /><path clip-path="url(#clip950)" d="M7.79213 253.429 L7.79213 235.072 L11.7273 235.072 L11.7273 249.146 L20.1995 249.146 Q19.8522 248.128 19.6902 247.109 Q19.505 246.091 19.505 245.072 Q19.505 239.285 22.6763 235.906 Q25.8476 232.526 31.2642 232.526 Q36.8429 232.526 39.9447 235.998 Q43.0234 239.47 43.0234 245.79 Q43.0234 247.966 42.6531 250.234 Q42.2827 252.48 41.5419 254.887 L36.8429 254.887 Q37.9771 252.804 38.5327 250.581 Q39.0883 248.359 39.0883 245.882 Q39.0883 241.878 36.9818 239.54 Q34.8753 237.202 31.2642 237.202 Q27.6531 237.202 25.5467 239.54 Q23.4402 241.878 23.4402 245.882 Q23.4402 247.757 23.8569 249.632 Q24.2735 251.484 25.1531 253.429 L7.79213 253.429 Z" fill="#000000" fill-rule="nonzero" fill-opacity="1" /><path clip-path="url(#clip950)" d="M10.8708 213.313 Q10.8708 216.924 14.4356 218.753 Q17.9773 220.558 25.1068 220.558 Q32.2133 220.558 35.7781 218.753 Q39.3197 216.924 39.3197 213.313 Q39.3197 209.679 35.7781 207.873 Q32.2133 206.045 25.1068 206.045 Q17.9773 206.045 14.4356 207.873 Q10.8708 209.679 10.8708 213.313 M7.16713 213.313 Q7.16713 207.503 11.7736 204.447 Q16.3569 201.369 25.1068 201.369 Q33.8337 201.369 38.4401 204.447 Q43.0234 207.503 43.0234 213.313 Q43.0234 219.123 38.4401 222.202 Q33.8337 225.258 25.1068 225.258 Q16.3569 225.258 11.7736 222.202 Q7.16713 219.123 7.16713 213.313 Z" fill="#000000" fill-rule="nonzero" fill-opacity="1" /><path clip-path="url(#clip950)" d="M10.8708 183.151 Q10.8708 186.762 14.4356 188.591 Q17.9773 190.397 25.1068 190.397 Q32.2133 190.397 35.7781 188.591 Q39.3197 186.762 39.3197 183.151 Q39.3197 179.517 35.7781 177.711 Q32.2133 175.883 25.1068 175.883 Q17.9773 175.883 14.4356 177.711 Q10.8708 179.517 10.8708 183.151 M7.16713 183.151 Q7.16713 177.341 11.7736 174.286 Q16.3569 171.207 25.1068 171.207 Q33.8337 171.207 38.4401 174.286 Q43.0234 177.341 43.0234 183.151 Q43.0234 188.961 38.4401 192.04 Q33.8337 195.096 25.1068 195.096 Q16.3569 195.096 11.7736 192.04 Q7.16713 188.961 7.16713 183.151 Z" fill="#000000" fill-rule="nonzero" fill-opacity="1" /><polyline clip-path="url(#clip952)" style="stroke:#009af9; stroke-linecap:round; stroke-linejoin:round; stroke-width:4; stroke-opacity:1; fill:none" points="299.407,1479.3 299.407,1471.7 370.213,1471.7 370.213,1464.1 441.018,1464.1 441.018,1431.18 511.823,1431.18 511.823,1380.53 582.628,1380.53 582.628,1296.96 653.433,1296.96 653.433,1175.4 724.238,1175.4 724.238,1041.17 795.043,1041.17 795.043,803.12 865.848,803.12 865.848,547.337 936.654,547.337 936.654,291.554 1007.46,291.554 1007.46,205.449 1078.26,205.449 1078.26,111.747 1149.07,111.747 1149.07,99.0844 1219.87,99.0844 1219.87,263.697 1290.68,263.697 1290.68,443.505 1361.48,443.505 1361.48,597.987 1432.29,597.987 1432.29,800.587 1503.09,800.587 1503.09,1099.42 1573.9,1099.42 1573.9,1226.05 1644.7,1226.05 1644.7,1360.27 1715.51,1360.27 1715.51,1370.4 1786.31,1370.4 1786.31,1433.71 1857.12,1433.71 1857.12,1456.51 1927.93,1456.51 1927.93,1471.7 1998.73,1471.7 1998.73,1476.77 2069.54,1476.77 2069.54,1479.3 "/>
<polyline clip-path="url(#clip952)" style="stroke:#e26f46; stroke-linecap:round; stroke-linejoin:round; stroke-width:4; stroke-opacity:1; fill:none" points="370.213,1479.3 370.213,1474.23 441.018,1474.23 441.018,1476.77 511.823,1476.77 511.823,1459.04 582.628,1459.04 582.628,1441.31 653.433,1441.31 653.433,1395.73 724.238,1395.73 724.238,1362.8 795.043,1362.8 795.043,1296.96 865.848,1296.96 865.848,1132.34 936.654,1132.34 936.654,909.485 1007.46,909.485 1007.46,679.027 1078.26,679.027 1078.26,476.427 1149.07,476.427 1149.07,182.657 1219.87,182.657 1219.87,88.9544 1290.68,88.9544 1290.68,116.812 1361.48,116.812 1361.48,245.969 1432.29,245.969 1432.29,286.489 1503.09,286.489 1503.09,522.012 1573.9,522.012 1573.9,719.547 1644.7,719.547 1644.7,919.615 1715.51,919.615 1715.51,1167.8 1786.31,1167.8 1786.31,1241.24 1857.12,1241.24 1857.12,1395.73 1927.93,1395.73 1927.93,1413.45 1998.73,1413.45 1998.73,1453.97 2069.54,1453.97 2069.54,1466.64 2140.34,1466.64 2140.34,1474.23 2211.15,1474.23 2211.15,1479.3 "/>
<path clip-path="url(#clip950)" d="M1593.69 251.89 L2277.23 251.89 L2277.23 96.3696 L1593.69 96.3696  Z" fill="#ffffff" fill-rule="evenodd" fill-opacity="1"/>
<polyline clip-path="url(#clip950)" style="stroke:#000000; stroke-linecap:round; stroke-linejoin:round; stroke-width:4; stroke-opacity:1; fill:none" points="1593.69,251.89 2277.23,251.89 2277.23,96.3696 1593.69,96.3696 1593.69,251.89 "/>
<polyline clip-path="url(#clip950)" style="stroke:#009af9; stroke-linecap:round; stroke-linejoin:round; stroke-width:4; stroke-opacity:1; fill:none" points="1618.86,148.21 1769.91,148.21 "/>
<path clip-path="url(#clip950)" d="M1799.37 161.601 L1799.37 175.351 L1795.09 175.351 L1795.09 139.564 L1799.37 139.564 L1799.37 143.499 Q1800.72 141.184 1802.75 140.073 Q1804.81 138.939 1807.66 138.939 Q1812.38 138.939 1815.32 142.689 Q1818.28 146.439 1818.28 152.55 Q1818.28 158.661 1815.32 162.411 Q1812.38 166.161 1807.66 166.161 Q1804.81 166.161 1802.75 165.05 Q1800.72 163.915 1799.37 161.601 M1813.86 152.55 Q1813.86 147.851 1811.92 145.189 Q1810 142.504 1806.62 142.504 Q1803.24 142.504 1801.29 145.189 Q1799.37 147.851 1799.37 152.55 Q1799.37 157.249 1801.29 159.934 Q1803.24 162.596 1806.62 162.596 Q1810 162.596 1811.92 159.934 Q1813.86 157.249 1813.86 152.55 Z" fill="#000000" fill-rule="nonzero" fill-opacity="1" /><path clip-path="url(#clip950)" d="M1840.37 143.545 Q1839.65 143.129 1838.79 142.943 Q1837.96 142.735 1836.94 142.735 Q1833.33 142.735 1831.39 145.096 Q1829.46 147.434 1829.46 151.832 L1829.46 165.49 L1825.18 165.49 L1825.18 139.564 L1829.46 139.564 L1829.46 143.592 Q1830.81 141.23 1832.96 140.096 Q1835.11 138.939 1838.19 138.939 Q1838.63 138.939 1839.16 139.008 Q1839.7 139.055 1840.34 139.17 L1840.37 143.545 Z" fill="#000000" fill-rule="nonzero" fill-opacity="1" /><path clip-path="url(#clip950)" d="M1865.97 151.462 L1865.97 153.545 L1846.39 153.545 Q1846.66 157.943 1849.03 160.258 Q1851.41 162.55 1855.65 162.55 Q1858.1 162.55 1860.39 161.948 Q1862.71 161.346 1864.97 160.142 L1864.97 164.17 Q1862.68 165.142 1860.27 165.652 Q1857.87 166.161 1855.39 166.161 Q1849.19 166.161 1845.55 162.55 Q1841.94 158.939 1841.94 152.781 Q1841.94 146.416 1845.37 142.689 Q1848.82 138.939 1854.65 138.939 Q1859.88 138.939 1862.91 142.318 Q1865.97 145.675 1865.97 151.462 M1861.71 150.212 Q1861.66 146.717 1859.74 144.633 Q1857.84 142.55 1854.7 142.55 Q1851.13 142.55 1848.98 144.564 Q1846.85 146.578 1846.53 150.235 L1861.71 150.212 Z" fill="#000000" fill-rule="nonzero" fill-opacity="1" /><path clip-path="url(#clip950)" d="M1870.81 150.605 L1883.28 150.605 L1883.28 154.402 L1870.81 154.402 L1870.81 150.605 Z" fill="#000000" fill-rule="nonzero" fill-opacity="1" /><path clip-path="url(#clip950)" d="M1907.13 143.499 L1907.13 129.471 L1911.39 129.471 L1911.39 165.49 L1907.13 165.49 L1907.13 161.601 Q1905.78 163.915 1903.72 165.05 Q1901.69 166.161 1898.82 166.161 Q1894.12 166.161 1891.15 162.411 Q1888.21 158.661 1888.21 152.55 Q1888.21 146.439 1891.15 142.689 Q1894.12 138.939 1898.82 138.939 Q1901.69 138.939 1903.72 140.073 Q1905.78 141.184 1907.13 143.499 M1892.61 152.55 Q1892.61 157.249 1894.53 159.934 Q1896.48 162.596 1899.86 162.596 Q1903.24 162.596 1905.18 159.934 Q1907.13 157.249 1907.13 152.55 Q1907.13 147.851 1905.18 145.189 Q1903.24 142.504 1899.86 142.504 Q1896.48 142.504 1894.53 145.189 Q1892.61 147.851 1892.61 152.55 Z" fill="#000000" fill-rule="nonzero" fill-opacity="1" /><path clip-path="url(#clip950)" d="M1942.33 151.462 L1942.33 153.545 L1922.75 153.545 Q1923.03 157.943 1925.39 160.258 Q1927.77 162.55 1932.01 162.55 Q1934.46 162.55 1936.76 161.948 Q1939.07 161.346 1941.34 160.142 L1941.34 164.17 Q1939.05 165.142 1936.64 165.652 Q1934.23 166.161 1931.76 166.161 Q1925.55 166.161 1921.92 162.55 Q1918.31 158.939 1918.31 152.781 Q1918.31 146.416 1921.73 142.689 Q1925.18 138.939 1931.02 138.939 Q1936.25 138.939 1939.28 142.318 Q1942.33 145.675 1942.33 151.462 M1938.08 150.212 Q1938.03 146.717 1936.11 144.633 Q1934.21 142.55 1931.06 142.55 Q1927.5 142.55 1925.34 144.564 Q1923.21 146.578 1922.89 150.235 L1938.08 150.212 Z" fill="#000000" fill-rule="nonzero" fill-opacity="1" /><path clip-path="url(#clip950)" d="M1967.94 152.55 Q1967.94 147.851 1965.99 145.189 Q1964.07 142.504 1960.69 142.504 Q1957.31 142.504 1955.37 145.189 Q1953.45 147.851 1953.45 152.55 Q1953.45 157.249 1955.37 159.934 Q1957.31 162.596 1960.69 162.596 Q1964.07 162.596 1965.99 159.934 Q1967.94 157.249 1967.94 152.55 M1953.45 143.499 Q1954.79 141.184 1956.83 140.073 Q1958.89 138.939 1961.73 138.939 Q1966.45 138.939 1969.39 142.689 Q1972.36 146.439 1972.36 152.55 Q1972.36 158.661 1969.39 162.411 Q1966.45 166.161 1961.73 166.161 Q1958.89 166.161 1956.83 165.05 Q1954.79 163.915 1953.45 161.601 L1953.45 165.49 L1949.16 165.49 L1949.16 129.471 L1953.45 129.471 L1953.45 143.499 Z" fill="#000000" fill-rule="nonzero" fill-opacity="1" /><path clip-path="url(#clip950)" d="M1991.2 152.457 Q1986.04 152.457 1984.05 153.638 Q1982.06 154.818 1982.06 157.666 Q1982.06 159.934 1983.54 161.277 Q1985.04 162.596 1987.61 162.596 Q1991.15 162.596 1993.28 160.096 Q1995.44 157.573 1995.44 153.406 L1995.44 152.457 L1991.2 152.457 M1999.7 150.698 L1999.7 165.49 L1995.44 165.49 L1995.44 161.554 Q1993.98 163.915 1991.8 165.05 Q1989.63 166.161 1986.48 166.161 Q1982.5 166.161 1980.14 163.939 Q1977.8 161.693 1977.8 157.943 Q1977.8 153.568 1980.71 151.346 Q1983.65 149.124 1989.46 149.124 L1995.44 149.124 L1995.44 148.707 Q1995.44 145.767 1993.49 144.17 Q1991.57 142.55 1988.08 142.55 Q1985.85 142.55 1983.75 143.082 Q1981.64 143.615 1979.7 144.679 L1979.7 140.744 Q1982.03 139.842 1984.23 139.402 Q1986.43 138.939 1988.52 138.939 Q1994.14 138.939 1996.92 141.855 Q1999.7 144.772 1999.7 150.698 Z" fill="#000000" fill-rule="nonzero" fill-opacity="1" /><path clip-path="url(#clip950)" d="M2012.68 132.203 L2012.68 139.564 L2021.45 139.564 L2021.45 142.874 L2012.68 142.874 L2012.68 156.948 Q2012.68 160.119 2013.54 161.022 Q2014.42 161.925 2017.08 161.925 L2021.45 161.925 L2021.45 165.49 L2017.08 165.49 Q2012.15 165.49 2010.27 163.661 Q2008.4 161.809 2008.4 156.948 L2008.4 142.874 L2005.27 142.874 L2005.27 139.564 L2008.4 139.564 L2008.4 132.203 L2012.68 132.203 Z" fill="#000000" fill-rule="nonzero" fill-opacity="1" /><path clip-path="url(#clip950)" d="M2049.23 151.462 L2049.23 153.545 L2029.65 153.545 Q2029.93 157.943 2032.29 160.258 Q2034.67 162.55 2038.91 162.55 Q2041.36 162.55 2043.65 161.948 Q2045.97 161.346 2048.24 160.142 L2048.24 164.17 Q2045.95 165.142 2043.54 165.652 Q2041.13 166.161 2038.65 166.161 Q2032.45 166.161 2028.82 162.55 Q2025.2 158.939 2025.2 152.781 Q2025.2 146.416 2028.63 142.689 Q2032.08 138.939 2037.91 138.939 Q2043.14 138.939 2046.18 142.318 Q2049.23 145.675 2049.23 151.462 M2044.97 150.212 Q2044.93 146.717 2043.01 144.633 Q2041.11 142.55 2037.96 142.55 Q2034.39 142.55 2032.24 144.564 Q2030.11 146.578 2029.79 150.235 L2044.97 150.212 Z" fill="#000000" fill-rule="nonzero" fill-opacity="1" /><path clip-path="url(#clip950)" d="M2076.15 148.985 L2076.15 161.647 L2083.65 161.647 Q2087.43 161.647 2089.23 160.096 Q2091.06 158.522 2091.06 155.304 Q2091.06 152.064 2089.23 150.536 Q2087.43 148.985 2083.65 148.985 L2076.15 148.985 M2076.15 134.772 L2076.15 145.189 L2083.07 145.189 Q2086.5 145.189 2088.17 143.916 Q2089.86 142.619 2089.86 139.98 Q2089.86 137.365 2088.17 136.068 Q2086.5 134.772 2083.07 134.772 L2076.15 134.772 M2071.48 130.93 L2083.42 130.93 Q2088.77 130.93 2091.66 133.152 Q2094.56 135.374 2094.56 139.471 Q2094.56 142.642 2093.07 144.517 Q2091.59 146.392 2088.72 146.855 Q2092.17 147.596 2094.07 149.957 Q2095.99 152.295 2095.99 155.814 Q2095.99 160.443 2092.84 162.966 Q2089.7 165.49 2083.88 165.49 L2071.48 165.49 L2071.48 130.93 Z" fill="#000000" fill-rule="nonzero" fill-opacity="1" /><path clip-path="url(#clip950)" d="M2103.38 155.258 L2103.38 139.564 L2107.63 139.564 L2107.63 155.096 Q2107.63 158.777 2109.07 160.628 Q2110.51 162.457 2113.38 162.457 Q2116.82 162.457 2118.82 160.258 Q2120.83 158.059 2120.83 154.263 L2120.83 139.564 L2125.09 139.564 L2125.09 165.49 L2120.83 165.49 L2120.83 161.508 Q2119.28 163.869 2117.22 165.027 Q2115.18 166.161 2112.47 166.161 Q2108.01 166.161 2105.69 163.383 Q2103.38 160.605 2103.38 155.258 M2114.09 138.939 L2114.09 138.939 Z" fill="#000000" fill-rule="nonzero" fill-opacity="1" /><path clip-path="url(#clip950)" d="M2150.39 140.328 L2150.39 144.355 Q2148.58 143.429 2146.64 142.967 Q2144.69 142.504 2142.61 142.504 Q2139.44 142.504 2137.84 143.476 Q2136.27 144.448 2136.27 146.392 Q2136.27 147.874 2137.4 148.73 Q2138.54 149.564 2141.96 150.328 L2143.42 150.652 Q2147.96 151.624 2149.86 153.406 Q2151.78 155.166 2151.78 158.337 Q2151.78 161.948 2148.91 164.054 Q2146.06 166.161 2141.06 166.161 Q2138.98 166.161 2136.71 165.744 Q2134.46 165.351 2131.96 164.54 L2131.96 160.142 Q2134.32 161.369 2136.62 161.994 Q2138.91 162.596 2141.15 162.596 Q2144.16 162.596 2145.78 161.578 Q2147.4 160.536 2147.4 158.661 Q2147.4 156.925 2146.22 155.999 Q2145.07 155.073 2141.11 154.216 L2139.63 153.869 Q2135.67 153.036 2133.91 151.323 Q2132.15 149.587 2132.15 146.578 Q2132.15 142.92 2134.74 140.93 Q2137.33 138.939 2142.1 138.939 Q2144.46 138.939 2146.55 139.286 Q2148.63 139.633 2150.39 140.328 Z" fill="#000000" fill-rule="nonzero" fill-opacity="1" /><path clip-path="url(#clip950)" d="M2180.11 149.841 L2180.11 165.49 L2175.85 165.49 L2175.85 149.98 Q2175.85 146.3 2174.42 144.471 Q2172.98 142.642 2170.11 142.642 Q2166.66 142.642 2164.67 144.842 Q2162.68 147.041 2162.68 150.837 L2162.68 165.49 L2158.4 165.49 L2158.4 129.471 L2162.68 129.471 L2162.68 143.592 Q2164.21 141.254 2166.27 140.096 Q2168.35 138.939 2171.06 138.939 Q2175.53 138.939 2177.82 141.717 Q2180.11 144.471 2180.11 149.841 Z" fill="#000000" fill-rule="nonzero" fill-opacity="1" /><polyline clip-path="url(#clip950)" style="stroke:#e26f46; stroke-linecap:round; stroke-linejoin:round; stroke-width:4; stroke-opacity:1; fill:none" points="1618.86,200.05 1769.91,200.05 "/>
<path clip-path="url(#clip950)" d="M1799.37 213.441 L1799.37 227.191 L1795.09 227.191 L1795.09 191.404 L1799.37 191.404 L1799.37 195.339 Q1800.72 193.024 1802.75 191.913 Q1804.81 190.779 1807.66 190.779 Q1812.38 190.779 1815.32 194.529 Q1818.28 198.279 1818.28 204.39 Q1818.28 210.501 1815.32 214.251 Q1812.38 218.001 1807.66 218.001 Q1804.81 218.001 1802.75 216.89 Q1800.72 215.755 1799.37 213.441 M1813.86 204.39 Q1813.86 199.691 1811.92 197.029 Q1810 194.344 1806.62 194.344 Q1803.24 194.344 1801.29 197.029 Q1799.37 199.691 1799.37 204.39 Q1799.37 209.089 1801.29 211.774 Q1803.24 214.436 1806.62 214.436 Q1810 214.436 1811.92 211.774 Q1813.86 209.089 1813.86 204.39 Z" fill="#000000" fill-rule="nonzero" fill-opacity="1" /><path clip-path="url(#clip950)" d="M1840.37 195.385 Q1839.65 194.969 1838.79 194.783 Q1837.96 194.575 1836.94 194.575 Q1833.33 194.575 1831.39 196.936 Q1829.46 199.274 1829.46 203.672 L1829.46 217.33 L1825.18 217.33 L1825.18 191.404 L1829.46 191.404 L1829.46 195.432 Q1830.81 193.07 1832.96 191.936 Q1835.11 190.779 1838.19 190.779 Q1838.63 190.779 1839.16 190.848 Q1839.7 190.895 1840.34 191.01 L1840.37 195.385 Z" fill="#000000" fill-rule="nonzero" fill-opacity="1" /><path clip-path="url(#clip950)" d="M1865.97 203.302 L1865.97 205.385 L1846.39 205.385 Q1846.66 209.783 1849.03 212.098 Q1851.41 214.39 1855.65 214.39 Q1858.1 214.39 1860.39 213.788 Q1862.71 213.186 1864.97 211.982 L1864.97 216.01 Q1862.68 216.982 1860.27 217.492 Q1857.87 218.001 1855.39 218.001 Q1849.19 218.001 1845.55 214.39 Q1841.94 210.779 1841.94 204.621 Q1841.94 198.256 1845.37 194.529 Q1848.82 190.779 1854.65 190.779 Q1859.88 190.779 1862.91 194.158 Q1865.97 197.515 1865.97 203.302 M1861.71 202.052 Q1861.66 198.557 1859.74 196.473 Q1857.84 194.39 1854.7 194.39 Q1851.13 194.39 1848.98 196.404 Q1846.85 198.418 1846.53 202.075 L1861.71 202.052 Z" fill="#000000" fill-rule="nonzero" fill-opacity="1" /><path clip-path="url(#clip950)" d="M1870.81 202.445 L1883.28 202.445 L1883.28 206.242 L1870.81 206.242 L1870.81 202.445 Z" fill="#000000" fill-rule="nonzero" fill-opacity="1" /><path clip-path="url(#clip950)" d="M1907.13 195.339 L1907.13 181.311 L1911.39 181.311 L1911.39 217.33 L1907.13 217.33 L1907.13 213.441 Q1905.78 215.755 1903.72 216.89 Q1901.69 218.001 1898.82 218.001 Q1894.12 218.001 1891.15 214.251 Q1888.21 210.501 1888.21 204.39 Q1888.21 198.279 1891.15 194.529 Q1894.12 190.779 1898.82 190.779 Q1901.69 190.779 1903.72 191.913 Q1905.78 193.024 1907.13 195.339 M1892.61 204.39 Q1892.61 209.089 1894.53 211.774 Q1896.48 214.436 1899.86 214.436 Q1903.24 214.436 1905.18 211.774 Q1907.13 209.089 1907.13 204.39 Q1907.13 199.691 1905.18 197.029 Q1903.24 194.344 1899.86 194.344 Q1896.48 194.344 1894.53 197.029 Q1892.61 199.691 1892.61 204.39 Z" fill="#000000" fill-rule="nonzero" fill-opacity="1" /><path clip-path="url(#clip950)" d="M1942.33 203.302 L1942.33 205.385 L1922.75 205.385 Q1923.03 209.783 1925.39 212.098 Q1927.77 214.39 1932.01 214.39 Q1934.46 214.39 1936.76 213.788 Q1939.07 213.186 1941.34 211.982 L1941.34 216.01 Q1939.05 216.982 1936.64 217.492 Q1934.23 218.001 1931.76 218.001 Q1925.55 218.001 1921.92 214.39 Q1918.31 210.779 1918.31 204.621 Q1918.31 198.256 1921.73 194.529 Q1925.18 190.779 1931.02 190.779 Q1936.25 190.779 1939.28 194.158 Q1942.33 197.515 1942.33 203.302 M1938.08 202.052 Q1938.03 198.557 1936.11 196.473 Q1934.21 194.39 1931.06 194.39 Q1927.5 194.39 1925.34 196.404 Q1923.21 198.418 1922.89 202.075 L1938.08 202.052 Z" fill="#000000" fill-rule="nonzero" fill-opacity="1" /><path clip-path="url(#clip950)" d="M1967.94 204.39 Q1967.94 199.691 1965.99 197.029 Q1964.07 194.344 1960.69 194.344 Q1957.31 194.344 1955.37 197.029 Q1953.45 199.691 1953.45 204.39 Q1953.45 209.089 1955.37 211.774 Q1957.31 214.436 1960.69 214.436 Q1964.07 214.436 1965.99 211.774 Q1967.94 209.089 1967.94 204.39 M1953.45 195.339 Q1954.79 193.024 1956.83 191.913 Q1958.89 190.779 1961.73 190.779 Q1966.45 190.779 1969.39 194.529 Q1972.36 198.279 1972.36 204.39 Q1972.36 210.501 1969.39 214.251 Q1966.45 218.001 1961.73 218.001 Q1958.89 218.001 1956.83 216.89 Q1954.79 215.755 1953.45 213.441 L1953.45 217.33 L1949.16 217.33 L1949.16 181.311 L1953.45 181.311 L1953.45 195.339 Z" fill="#000000" fill-rule="nonzero" fill-opacity="1" /><path clip-path="url(#clip950)" d="M1991.2 204.297 Q1986.04 204.297 1984.05 205.478 Q1982.06 206.658 1982.06 209.506 Q1982.06 211.774 1983.54 213.117 Q1985.04 214.436 1987.61 214.436 Q1991.15 214.436 1993.28 211.936 Q1995.44 209.413 1995.44 205.246 L1995.44 204.297 L1991.2 204.297 M1999.7 202.538 L1999.7 217.33 L1995.44 217.33 L1995.44 213.394 Q1993.98 215.755 1991.8 216.89 Q1989.63 218.001 1986.48 218.001 Q1982.5 218.001 1980.14 215.779 Q1977.8 213.533 1977.8 209.783 Q1977.8 205.408 1980.71 203.186 Q1983.65 200.964 1989.46 200.964 L1995.44 200.964 L1995.44 200.547 Q1995.44 197.607 1993.49 196.01 Q1991.57 194.39 1988.08 194.39 Q1985.85 194.39 1983.75 194.922 Q1981.64 195.455 1979.7 196.519 L1979.7 192.584 Q1982.03 191.682 1984.23 191.242 Q1986.43 190.779 1988.52 190.779 Q1994.14 190.779 1996.92 193.695 Q1999.7 196.612 1999.7 202.538 Z" fill="#000000" fill-rule="nonzero" fill-opacity="1" /><path clip-path="url(#clip950)" d="M2012.68 184.043 L2012.68 191.404 L2021.45 191.404 L2021.45 194.714 L2012.68 194.714 L2012.68 208.788 Q2012.68 211.959 2013.54 212.862 Q2014.42 213.765 2017.08 213.765 L2021.45 213.765 L2021.45 217.33 L2017.08 217.33 Q2012.15 217.33 2010.27 215.501 Q2008.4 213.649 2008.4 208.788 L2008.4 194.714 L2005.27 194.714 L2005.27 191.404 L2008.4 191.404 L2008.4 184.043 L2012.68 184.043 Z" fill="#000000" fill-rule="nonzero" fill-opacity="1" /><path clip-path="url(#clip950)" d="M2049.23 203.302 L2049.23 205.385 L2029.65 205.385 Q2029.93 209.783 2032.29 212.098 Q2034.67 214.39 2038.91 214.39 Q2041.36 214.39 2043.65 213.788 Q2045.97 213.186 2048.24 211.982 L2048.24 216.01 Q2045.95 216.982 2043.54 217.492 Q2041.13 218.001 2038.65 218.001 Q2032.45 218.001 2028.82 214.39 Q2025.2 210.779 2025.2 204.621 Q2025.2 198.256 2028.63 194.529 Q2032.08 190.779 2037.91 190.779 Q2043.14 190.779 2046.18 194.158 Q2049.23 197.515 2049.23 203.302 M2044.97 202.052 Q2044.93 198.557 2043.01 196.473 Q2041.11 194.39 2037.96 194.39 Q2034.39 194.39 2032.24 196.404 Q2030.11 198.418 2029.79 202.075 L2044.97 202.052 Z" fill="#000000" fill-rule="nonzero" fill-opacity="1" /><path clip-path="url(#clip950)" d="M2076.15 186.612 L2076.15 213.487 L2081.8 213.487 Q2088.95 213.487 2092.26 210.246 Q2095.6 207.006 2095.6 200.015 Q2095.6 193.07 2092.26 189.853 Q2088.95 186.612 2081.8 186.612 L2076.15 186.612 M2071.48 182.77 L2081.08 182.77 Q2091.13 182.77 2095.83 186.959 Q2100.53 191.126 2100.53 200.015 Q2100.53 208.95 2095.81 213.14 Q2091.08 217.33 2081.08 217.33 L2071.48 217.33 L2071.48 182.77 Z" fill="#000000" fill-rule="nonzero" fill-opacity="1" /><path clip-path="url(#clip950)" d="M2107.36 207.098 L2107.36 191.404 L2111.62 191.404 L2111.62 206.936 Q2111.62 210.617 2113.05 212.468 Q2114.49 214.297 2117.36 214.297 Q2120.81 214.297 2122.8 212.098 Q2124.81 209.899 2124.81 206.103 L2124.81 191.404 L2129.07 191.404 L2129.07 217.33 L2124.81 217.33 L2124.81 213.348 Q2123.26 215.709 2121.2 216.867 Q2119.16 218.001 2116.45 218.001 Q2111.99 218.001 2109.67 215.223 Q2107.36 212.445 2107.36 207.098 M2118.07 190.779 L2118.07 190.779 Z" fill="#000000" fill-rule="nonzero" fill-opacity="1" /><path clip-path="url(#clip950)" d="M2137.68 181.311 L2141.96 181.311 L2141.96 202.584 L2154.67 191.404 L2160.11 191.404 L2146.36 203.533 L2160.69 217.33 L2155.13 217.33 L2141.96 204.668 L2141.96 217.33 L2137.68 217.33 L2137.68 181.311 Z" fill="#000000" fill-rule="nonzero" fill-opacity="1" /><path clip-path="url(#clip950)" d="M2176.25 204.297 Q2171.08 204.297 2169.09 205.478 Q2167.1 206.658 2167.1 209.506 Q2167.1 211.774 2168.58 213.117 Q2170.09 214.436 2172.66 214.436 Q2176.2 214.436 2178.33 211.936 Q2180.48 209.413 2180.48 205.246 L2180.48 204.297 L2176.25 204.297 M2184.74 202.538 L2184.74 217.33 L2180.48 217.33 L2180.48 213.394 Q2179.02 215.755 2176.85 216.89 Q2174.67 218.001 2171.52 218.001 Q2167.54 218.001 2165.18 215.779 Q2162.84 213.533 2162.84 209.783 Q2162.84 205.408 2165.76 203.186 Q2168.7 200.964 2174.51 200.964 L2180.48 200.964 L2180.48 200.547 Q2180.48 197.607 2178.54 196.01 Q2176.62 194.39 2173.12 194.39 Q2170.9 194.39 2168.79 194.922 Q2166.69 195.455 2164.74 196.519 L2164.74 192.584 Q2167.08 191.682 2169.28 191.242 Q2171.48 190.779 2173.56 190.779 Q2179.19 190.779 2181.96 193.695 Q2184.74 196.612 2184.74 202.538 Z" fill="#000000" fill-rule="nonzero" fill-opacity="1" /><path clip-path="url(#clip950)" d="M2193.35 181.311 L2197.63 181.311 L2197.63 202.584 L2210.34 191.404 L2215.78 191.404 L2202.03 203.533 L2216.36 217.33 L2210.81 217.33 L2197.63 204.668 L2197.63 217.33 L2193.35 217.33 L2193.35 181.311 Z" fill="#000000" fill-rule="nonzero" fill-opacity="1" /><path clip-path="url(#clip950)" d="M2220.97 191.404 L2225.23 191.404 L2225.23 217.33 L2220.97 217.33 L2220.97 191.404 M2220.97 181.311 L2225.23 181.311 L2225.23 186.705 L2220.97 186.705 L2220.97 181.311 Z" fill="#000000" fill-rule="nonzero" fill-opacity="1" /><path clip-path="url(#clip950)" d="M2250.67 192.168 L2250.67 196.195 Q2248.86 195.269 2246.92 194.807 Q2244.97 194.344 2242.89 194.344 Q2239.72 194.344 2238.12 195.316 Q2236.55 196.288 2236.55 198.232 Q2236.55 199.714 2237.68 200.57 Q2238.81 201.404 2242.24 202.168 L2243.7 202.492 Q2248.24 203.464 2250.13 205.246 Q2252.06 207.006 2252.06 210.177 Q2252.06 213.788 2249.18 215.894 Q2246.34 218.001 2241.34 218.001 Q2239.25 218.001 2236.99 217.584 Q2234.74 217.191 2232.24 216.38 L2232.24 211.982 Q2234.6 213.209 2236.89 213.834 Q2239.18 214.436 2241.43 214.436 Q2244.44 214.436 2246.06 213.418 Q2247.68 212.376 2247.68 210.501 Q2247.68 208.765 2246.5 207.839 Q2245.34 206.913 2241.38 206.056 L2239.9 205.709 Q2235.94 204.876 2234.19 203.163 Q2232.43 201.427 2232.43 198.418 Q2232.43 194.76 2235.02 192.77 Q2237.61 190.779 2242.38 190.779 Q2244.74 190.779 2246.82 191.126 Q2248.91 191.473 2250.67 192.168 Z" fill="#000000" fill-rule="nonzero" fill-opacity="1" /></svg>
