<?xml version="1.0" encoding="utf-8"?>
<svg xmlns="http://www.w3.org/2000/svg" xmlns:xlink="http://www.w3.org/1999/xlink" width="600" height="400" viewBox="0 0 2400 1600">
<defs>
  <clipPath id="clip120">
    <rect x="0" y="0" width="2400" height="1600"/>
  </clipPath>
</defs>
<path clip-path="url(#clip120)" d="M0 1600 L2400 1600 L2400 0 L0 0  Z" fill="#ffffff" fill-rule="evenodd" fill-opacity="1"/>
<defs>
  <clipPath id="clip121">
    <rect x="480" y="0" width="1681" height="1600"/>
  </clipPath>
</defs>
<path clip-path="url(#clip120)" d="M86.9921 1521.01 L2352.76 1521.01 L2352.76 47.2441 L86.9921 47.2441  Z" fill="#ffffff" fill-rule="evenodd" fill-opacity="1"/>
<defs>
  <clipPath id="clip122">
    <rect x="86" y="47" width="2267" height="1475"/>
  </clipPath>
</defs>
<polyline clip-path="url(#clip122)" style="stroke:#000000; stroke-linecap:round; stroke-linejoin:round; stroke-width:2; stroke-opacity:0.1; fill:none" points="370.213,1521.01 370.213,47.2441 "/>
<polyline clip-path="url(#clip122)" style="stroke:#000000; stroke-linecap:round; stroke-linejoin:round; stroke-width:2; stroke-opacity:0.1; fill:none" points="795.043,1521.01 795.043,47.2441 "/>
<polyline clip-path="url(#clip122)" style="stroke:#000000; stroke-linecap:round; stroke-linejoin:round; stroke-width:2; stroke-opacity:0.1; fill:none" points="1219.87,1521.01 1219.87,47.2441 "/>
<polyline clip-path="url(#clip122)" style="stroke:#000000; stroke-linecap:round; stroke-linejoin:round; stroke-width:2; stroke-opacity:0.1; fill:none" points="1644.7,1521.01 1644.7,47.2441 "/>
<polyline clip-path="url(#clip122)" style="stroke:#000000; stroke-linecap:round; stroke-linejoin:round; stroke-width:2; stroke-opacity:0.1; fill:none" points="2069.54,1521.01 2069.54,47.2441 "/>
<polyline clip-path="url(#clip120)" style="stroke:#000000; stroke-linecap:round; stroke-linejoin:round; stroke-width:4; stroke-opacity:1; fill:none" points="86.9921,1521.01 2352.76,1521.01 "/>
<polyline clip-path="url(#clip120)" style="stroke:#000000; stroke-linecap:round; stroke-linejoin:round; stroke-width:4; stroke-opacity:1; fill:none" points="370.213,1521.01 370.213,1502.11 "/>
<polyline clip-path="url(#clip120)" style="stroke:#000000; stroke-linecap:round; stroke-linejoin:round; stroke-width:4; stroke-opacity:1; fill:none" points="795.043,1521.01 795.043,1502.11 "/>
<polyline clip-path="url(#clip120)" style="stroke:#000000; stroke-linecap:round; stroke-linejoin:round; stroke-width:4; stroke-opacity:1; fill:none" points="1219.87,1521.01 1219.87,1502.11 "/>
<polyline clip-path="url(#clip120)" style="stroke:#000000; stroke-linecap:round; stroke-linejoin:round; stroke-width:4; stroke-opacity:1; fill:none" points="1644.7,1521.01 1644.7,1502.11 "/>
<polyline clip-path="url(#clip120)" style="stroke:#000000; stroke-linecap:round; stroke-linejoin:round; stroke-width:4; stroke-opacity:1; fill:none" points="2069.54,1521.01 2069.54,1502.11 "/>
<path clip-path="url(#clip120)" d="M333.905 1579.47 L350.224 1579.47 L350.224 1583.41 L328.28 1583.41 L328.28 1579.47 Q330.942 1576.72 335.525 1572.09 Q340.132 1567.44 341.312 1566.09 Q343.558 1563.57 344.437 1561.83 Q345.34 1560.07 345.34 1558.38 Q345.34 1555.63 343.396 1553.89 Q341.474 1552.16 338.372 1552.16 Q336.173 1552.16 333.72 1552.92 Q331.289 1553.69 328.511 1555.24 L328.511 1550.51 Q331.335 1549.38 333.789 1548.8 Q336.243 1548.22 338.28 1548.22 Q343.65 1548.22 346.845 1550.91 Q350.039 1553.59 350.039 1558.08 Q350.039 1560.21 349.229 1562.13 Q348.442 1564.03 346.335 1566.63 Q345.757 1567.3 342.655 1570.51 Q339.553 1573.71 333.905 1579.47 Z" fill="#000000" fill-rule="nonzero" fill-opacity="1" /><path clip-path="url(#clip120)" d="M372.886 1552.92 L361.081 1571.37 L372.886 1571.37 L372.886 1552.92 M371.659 1548.85 L377.539 1548.85 L377.539 1571.37 L382.469 1571.37 L382.469 1575.26 L377.539 1575.26 L377.539 1583.41 L372.886 1583.41 L372.886 1575.26 L357.284 1575.26 L357.284 1570.75 L371.659 1548.85 Z" fill="#000000" fill-rule="nonzero" fill-opacity="1" /><path clip-path="url(#clip120)" d="M400.201 1551.93 Q396.59 1551.93 394.761 1555.49 Q392.956 1559.03 392.956 1566.16 Q392.956 1573.27 394.761 1576.83 Q396.59 1580.38 400.201 1580.38 Q403.835 1580.38 405.641 1576.83 Q407.469 1573.27 407.469 1566.16 Q407.469 1559.03 405.641 1555.49 Q403.835 1551.93 400.201 1551.93 M400.201 1548.22 Q406.011 1548.22 409.067 1552.83 Q412.145 1557.41 412.145 1566.16 Q412.145 1574.89 409.067 1579.5 Q406.011 1584.08 400.201 1584.08 Q394.391 1584.08 391.312 1579.5 Q388.256 1574.89 388.256 1566.16 Q388.256 1557.41 391.312 1552.83 Q394.391 1548.22 400.201 1548.22 Z" fill="#000000" fill-rule="nonzero" fill-opacity="1" /><path clip-path="url(#clip120)" d="M758.736 1579.47 L775.055 1579.47 L775.055 1583.41 L753.111 1583.41 L753.111 1579.47 Q755.773 1576.72 760.356 1572.09 Q764.962 1567.44 766.143 1566.09 Q768.388 1563.57 769.268 1561.83 Q770.171 1560.07 770.171 1558.38 Q770.171 1555.63 768.226 1553.89 Q766.305 1552.16 763.203 1552.16 Q761.004 1552.16 758.55 1552.92 Q756.12 1553.69 753.342 1555.24 L753.342 1550.51 Q756.166 1549.38 758.62 1548.8 Q761.074 1548.22 763.111 1548.22 Q768.481 1548.22 771.675 1550.91 Q774.87 1553.59 774.87 1558.08 Q774.87 1560.21 774.06 1562.13 Q773.273 1564.03 771.166 1566.63 Q770.587 1567.3 767.486 1570.51 Q764.384 1573.71 758.736 1579.47 Z" fill="#000000" fill-rule="nonzero" fill-opacity="1" /><path clip-path="url(#clip120)" d="M783.689 1548.85 L805.911 1548.85 L805.911 1550.84 L793.365 1583.41 L788.481 1583.41 L800.286 1552.78 L783.689 1552.78 L783.689 1548.85 Z" fill="#000000" fill-rule="nonzero" fill-opacity="1" /><path clip-path="url(#clip120)" d="M825.032 1551.93 Q821.42 1551.93 819.592 1555.49 Q817.786 1559.03 817.786 1566.16 Q817.786 1573.27 819.592 1576.83 Q821.42 1580.38 825.032 1580.38 Q828.666 1580.38 830.471 1576.83 Q832.3 1573.27 832.3 1566.16 Q832.3 1559.03 830.471 1555.49 Q828.666 1551.93 825.032 1551.93 M825.032 1548.22 Q830.842 1548.22 833.897 1552.83 Q836.976 1557.41 836.976 1566.16 Q836.976 1574.89 833.897 1579.5 Q830.842 1584.08 825.032 1584.08 Q819.221 1584.08 816.143 1579.5 Q813.087 1574.89 813.087 1566.16 Q813.087 1557.41 816.143 1552.83 Q819.221 1548.22 825.032 1548.22 Z" fill="#000000" fill-rule="nonzero" fill-opacity="1" /><path clip-path="url(#clip120)" d="M1193.64 1564.77 Q1196.99 1565.49 1198.87 1567.76 Q1200.77 1570.03 1200.77 1573.36 Q1200.77 1578.48 1197.25 1581.28 Q1193.73 1584.08 1187.25 1584.08 Q1185.07 1584.08 1182.76 1583.64 Q1180.46 1583.22 1178.01 1582.37 L1178.01 1577.85 Q1179.96 1578.99 1182.27 1579.57 Q1184.58 1580.14 1187.11 1580.14 Q1191.51 1580.14 1193.8 1578.41 Q1196.11 1576.67 1196.11 1573.36 Q1196.11 1570.31 1193.96 1568.59 Q1191.83 1566.86 1188.01 1566.86 L1183.98 1566.86 L1183.98 1563.01 L1188.2 1563.01 Q1191.65 1563.01 1193.47 1561.65 Q1195.3 1560.26 1195.3 1557.67 Q1195.3 1555.01 1193.4 1553.59 Q1191.53 1552.16 1188.01 1552.16 Q1186.09 1552.16 1183.89 1552.57 Q1181.69 1552.99 1179.05 1553.87 L1179.05 1549.7 Q1181.71 1548.96 1184.03 1548.59 Q1186.37 1548.22 1188.43 1548.22 Q1193.75 1548.22 1196.85 1550.65 Q1199.96 1553.06 1199.96 1557.18 Q1199.96 1560.05 1198.31 1562.04 Q1196.67 1564.01 1193.64 1564.77 Z" fill="#000000" fill-rule="nonzero" fill-opacity="1" /><path clip-path="url(#clip120)" d="M1219.63 1551.93 Q1216.02 1551.93 1214.19 1555.49 Q1212.39 1559.03 1212.39 1566.16 Q1212.39 1573.27 1214.19 1576.83 Q1216.02 1580.38 1219.63 1580.38 Q1223.27 1580.38 1225.07 1576.83 Q1226.9 1573.27 1226.9 1566.16 Q1226.9 1559.03 1225.07 1555.49 Q1223.27 1551.93 1219.63 1551.93 M1219.63 1548.22 Q1225.44 1548.22 1228.5 1552.83 Q1231.58 1557.41 1231.58 1566.16 Q1231.58 1574.89 1228.5 1579.5 Q1225.44 1584.08 1219.63 1584.08 Q1213.82 1584.08 1210.74 1579.5 Q1207.69 1574.89 1207.69 1566.16 Q1207.69 1557.41 1210.74 1552.83 Q1213.82 1548.22 1219.63 1548.22 Z" fill="#000000" fill-rule="nonzero" fill-opacity="1" /><path clip-path="url(#clip120)" d="M1249.79 1551.93 Q1246.18 1551.93 1244.35 1555.49 Q1242.55 1559.03 1242.55 1566.16 Q1242.55 1573.27 1244.35 1576.83 Q1246.18 1580.38 1249.79 1580.38 Q1253.43 1580.38 1255.23 1576.83 Q1257.06 1573.27 1257.06 1566.16 Q1257.06 1559.03 1255.23 1555.49 Q1253.43 1551.93 1249.79 1551.93 M1249.79 1548.22 Q1255.6 1548.22 1258.66 1552.83 Q1261.74 1557.41 1261.74 1566.16 Q1261.74 1574.89 1258.66 1579.5 Q1255.6 1584.08 1249.79 1584.08 Q1243.98 1584.08 1240.9 1579.5 Q1237.85 1574.89 1237.85 1566.16 Q1237.85 1557.41 1240.9 1552.83 Q1243.98 1548.22 1249.79 1548.22 Z" fill="#000000" fill-rule="nonzero" fill-opacity="1" /><path clip-path="url(#clip120)" d="M1618.47 1564.77 Q1621.82 1565.49 1623.7 1567.76 Q1625.6 1570.03 1625.6 1573.36 Q1625.6 1578.48 1622.08 1581.28 Q1618.56 1584.08 1612.08 1584.08 Q1609.9 1584.08 1607.59 1583.64 Q1605.3 1583.22 1602.84 1582.37 L1602.84 1577.85 Q1604.79 1578.99 1607.1 1579.57 Q1609.42 1580.14 1611.94 1580.14 Q1616.34 1580.14 1618.63 1578.41 Q1620.94 1576.67 1620.94 1573.36 Q1620.94 1570.31 1618.79 1568.59 Q1616.66 1566.86 1612.84 1566.86 L1608.81 1566.86 L1608.81 1563.01 L1613.03 1563.01 Q1616.48 1563.01 1618.3 1561.65 Q1620.13 1560.26 1620.13 1557.67 Q1620.13 1555.01 1618.23 1553.59 Q1616.36 1552.16 1612.84 1552.16 Q1610.92 1552.16 1608.72 1552.57 Q1606.52 1552.99 1603.88 1553.87 L1603.88 1549.7 Q1606.55 1548.96 1608.86 1548.59 Q1611.2 1548.22 1613.26 1548.22 Q1618.58 1548.22 1621.68 1550.65 Q1624.79 1553.06 1624.79 1557.18 Q1624.79 1560.05 1623.14 1562.04 Q1621.5 1564.01 1618.47 1564.77 Z" fill="#000000" fill-rule="nonzero" fill-opacity="1" /><path clip-path="url(#clip120)" d="M1648.63 1564.77 Q1651.98 1565.49 1653.86 1567.76 Q1655.76 1570.03 1655.76 1573.36 Q1655.76 1578.48 1652.24 1581.28 Q1648.72 1584.08 1642.24 1584.08 Q1640.06 1584.08 1637.75 1583.64 Q1635.46 1583.22 1633 1582.37 L1633 1577.85 Q1634.95 1578.99 1637.26 1579.57 Q1639.58 1580.14 1642.1 1580.14 Q1646.5 1580.14 1648.79 1578.41 Q1651.11 1576.67 1651.11 1573.36 Q1651.11 1570.31 1648.95 1568.59 Q1646.82 1566.86 1643 1566.86 L1638.98 1566.86 L1638.98 1563.01 L1643.19 1563.01 Q1646.64 1563.01 1648.47 1561.65 Q1650.29 1560.26 1650.29 1557.67 Q1650.29 1555.01 1648.4 1553.59 Q1646.52 1552.16 1643 1552.16 Q1641.08 1552.16 1638.88 1552.57 Q1636.68 1552.99 1634.05 1553.87 L1634.05 1549.7 Q1636.71 1548.96 1639.02 1548.59 Q1641.36 1548.22 1643.42 1548.22 Q1648.74 1548.22 1651.85 1550.65 Q1654.95 1553.06 1654.95 1557.18 Q1654.95 1560.05 1653.3 1562.04 Q1651.66 1564.01 1648.63 1564.77 Z" fill="#000000" fill-rule="nonzero" fill-opacity="1" /><path clip-path="url(#clip120)" d="M1674.62 1551.93 Q1671.01 1551.93 1669.18 1555.49 Q1667.38 1559.03 1667.38 1566.16 Q1667.38 1573.27 1669.18 1576.83 Q1671.01 1580.38 1674.62 1580.38 Q1678.26 1580.38 1680.06 1576.83 Q1681.89 1573.27 1681.89 1566.16 Q1681.89 1559.03 1680.06 1555.49 Q1678.26 1551.93 1674.62 1551.93 M1674.62 1548.22 Q1680.43 1548.22 1683.49 1552.83 Q1686.57 1557.41 1686.57 1566.16 Q1686.57 1574.89 1683.49 1579.5 Q1680.43 1584.08 1674.62 1584.08 Q1668.81 1584.08 1665.73 1579.5 Q1662.68 1574.89 1662.68 1566.16 Q1662.68 1557.41 1665.73 1552.83 Q1668.81 1548.22 1674.62 1548.22 Z" fill="#000000" fill-rule="nonzero" fill-opacity="1" /><path clip-path="url(#clip120)" d="M2043.3 1564.77 Q2046.65 1565.49 2048.53 1567.76 Q2050.43 1570.03 2050.43 1573.36 Q2050.43 1578.48 2046.91 1581.28 Q2043.39 1584.08 2036.91 1584.08 Q2034.73 1584.08 2032.42 1583.64 Q2030.13 1583.22 2027.67 1582.37 L2027.67 1577.85 Q2029.62 1578.99 2031.93 1579.57 Q2034.25 1580.14 2036.77 1580.14 Q2041.17 1580.14 2043.46 1578.41 Q2045.77 1576.67 2045.77 1573.36 Q2045.77 1570.31 2043.62 1568.59 Q2041.49 1566.86 2037.67 1566.86 L2033.64 1566.86 L2033.64 1563.01 L2037.86 1563.01 Q2041.31 1563.01 2043.14 1561.65 Q2044.96 1560.26 2044.96 1557.67 Q2044.96 1555.01 2043.07 1553.59 Q2041.19 1552.16 2037.67 1552.16 Q2035.75 1552.16 2033.55 1552.57 Q2031.35 1552.99 2028.71 1553.87 L2028.71 1549.7 Q2031.38 1548.96 2033.69 1548.59 Q2036.03 1548.22 2038.09 1548.22 Q2043.41 1548.22 2046.51 1550.65 Q2049.62 1553.06 2049.62 1557.18 Q2049.62 1560.05 2047.97 1562.04 Q2046.33 1564.01 2043.3 1564.77 Z" fill="#000000" fill-rule="nonzero" fill-opacity="1" /><path clip-path="url(#clip120)" d="M2069.87 1564.26 Q2066.72 1564.26 2064.87 1566.42 Q2063.04 1568.57 2063.04 1572.32 Q2063.04 1576.05 2064.87 1578.22 Q2066.72 1580.38 2069.87 1580.38 Q2073.02 1580.38 2074.85 1578.22 Q2076.7 1576.05 2076.7 1572.32 Q2076.7 1568.57 2074.85 1566.42 Q2073.02 1564.26 2069.87 1564.26 M2079.15 1549.61 L2079.15 1553.87 Q2077.39 1553.04 2075.59 1552.6 Q2073.81 1552.16 2072.05 1552.16 Q2067.42 1552.16 2064.96 1555.28 Q2062.53 1558.41 2062.19 1564.73 Q2063.55 1562.71 2065.61 1561.65 Q2067.67 1560.56 2070.15 1560.56 Q2075.36 1560.56 2078.37 1563.73 Q2081.4 1566.88 2081.4 1572.32 Q2081.4 1577.64 2078.25 1580.86 Q2075.1 1584.08 2069.87 1584.08 Q2063.88 1584.08 2060.7 1579.5 Q2057.53 1574.89 2057.53 1566.16 Q2057.53 1557.97 2061.42 1553.11 Q2065.31 1548.22 2071.86 1548.22 Q2073.62 1548.22 2075.4 1548.57 Q2077.21 1548.92 2079.15 1549.61 Z" fill="#000000" fill-rule="nonzero" fill-opacity="1" /><path clip-path="url(#clip120)" d="M2099.45 1551.93 Q2095.84 1551.93 2094.01 1555.49 Q2092.21 1559.03 2092.21 1566.16 Q2092.21 1573.27 2094.01 1576.83 Q2095.84 1580.38 2099.45 1580.38 Q2103.09 1580.38 2104.89 1576.83 Q2106.72 1573.27 2106.72 1566.16 Q2106.72 1559.03 2104.89 1555.49 Q2103.09 1551.93 2099.45 1551.93 M2099.45 1548.22 Q2105.26 1548.22 2108.32 1552.83 Q2111.4 1557.41 2111.4 1566.16 Q2111.4 1574.89 2108.32 1579.5 Q2105.26 1584.08 2099.45 1584.08 Q2093.64 1584.08 2090.57 1579.5 Q2087.51 1574.89 2087.51 1566.16 Q2087.51 1557.41 2090.57 1552.83 Q2093.64 1548.22 2099.45 1548.22 Z" fill="#000000" fill-rule="nonzero" fill-opacity="1" /><polyline clip-path="url(#clip122)" style="stroke:#000000; stroke-linecap:round; stroke-linejoin:round; stroke-width:2; stroke-opacity:0.1; fill:none" points="86.9921,1479.3 2352.76,1479.3 "/>
<polyline clip-path="url(#clip122)" style="stroke:#000000; stroke-linecap:round; stroke-linejoin:round; stroke-width:2; stroke-opacity:0.1; fill:none" points="86.9921,1229.24 2352.76,1229.24 "/>
<polyline clip-path="url(#clip122)" style="stroke:#000000; stroke-linecap:round; stroke-linejoin:round; stroke-width:2; stroke-opacity:0.1; fill:none" points="86.9921,979.174 2352.76,979.174 "/>
<polyline clip-path="url(#clip122)" style="stroke:#000000; stroke-linecap:round; stroke-linejoin:round; stroke-width:2; stroke-opacity:0.1; fill:none" points="86.9921,729.112 2352.76,729.112 "/>
<polyline clip-path="url(#clip122)" style="stroke:#000000; stroke-linecap:round; stroke-linejoin:round; stroke-width:2; stroke-opacity:0.1; fill:none" points="86.9921,479.051 2352.76,479.051 "/>
<polyline clip-path="url(#clip122)" style="stroke:#000000; stroke-linecap:round; stroke-linejoin:round; stroke-width:2; stroke-opacity:0.1; fill:none" points="86.9921,228.989 2352.76,228.989 "/>
<polyline clip-path="url(#clip120)" style="stroke:#000000; stroke-linecap:round; stroke-linejoin:round; stroke-width:4; stroke-opacity:1; fill:none" points="86.9921,1521.01 86.9921,47.2441 "/>
<polyline clip-path="url(#clip120)" style="stroke:#000000; stroke-linecap:round; stroke-linejoin:round; stroke-width:4; stroke-opacity:1; fill:none" points="86.9921,1479.3 105.89,1479.3 "/>
<polyline clip-path="url(#clip120)" style="stroke:#000000; stroke-linecap:round; stroke-linejoin:round; stroke-width:4; stroke-opacity:1; fill:none" points="86.9921,1229.24 105.89,1229.24 "/>
<polyline clip-path="url(#clip120)" style="stroke:#000000; stroke-linecap:round; stroke-linejoin:round; stroke-width:4; stroke-opacity:1; fill:none" points="86.9921,979.174 105.89,979.174 "/>
<polyline clip-path="url(#clip120)" style="stroke:#000000; stroke-linecap:round; stroke-linejoin:round; stroke-width:4; stroke-opacity:1; fill:none" points="86.9921,729.112 105.89,729.112 "/>
<polyline clip-path="url(#clip120)" style="stroke:#000000; stroke-linecap:round; stroke-linejoin:round; stroke-width:4; stroke-opacity:1; fill:none" points="86.9921,479.051 105.89,479.051 "/>
<polyline clip-path="url(#clip120)" style="stroke:#000000; stroke-linecap:round; stroke-linejoin:round; stroke-width:4; stroke-opacity:1; fill:none" points="86.9921,228.989 105.89,228.989 "/>
<path clip-path="url(#clip120)" d="M10.8708 1479.3 Q10.8708 1482.91 14.4356 1484.74 Q17.9773 1486.54 25.1068 1486.54 Q32.2133 1486.54 35.7781 1484.74 Q39.3197 1482.91 39.3197 1479.3 Q39.3197 1475.66 35.7781 1473.86 Q32.2133 1472.03 25.1068 1472.03 Q17.9773 1472.03 14.4356 1473.86 Q10.8708 1475.66 10.8708 1479.3 M7.16713 1479.3 Q7.16713 1473.49 11.7736 1470.43 Q16.3569 1467.35 25.1068 1467.35 Q33.8337 1467.35 38.4401 1470.43 Q43.0234 1473.49 43.0234 1479.3 Q43.0234 1485.11 38.4401 1488.19 Q33.8337 1491.24 25.1068 1491.24 Q16.3569 1491.24 11.7736 1488.19 Q7.16713 1485.11 7.16713 1479.3 Z" fill="#000000" fill-rule="nonzero" fill-opacity="1" /><path clip-path="url(#clip120)" d="M38.417 1269.63 L38.417 1261.99 L12.0514 1261.99 L13.718 1270.3 L9.45878 1270.3 L7.79213 1262.04 L7.79213 1257.36 L38.417 1257.36 L38.417 1249.72 L42.3521 1249.72 L42.3521 1269.63 L38.417 1269.63 Z" fill="#000000" fill-rule="nonzero" fill-opacity="1" /><path clip-path="url(#clip120)" d="M10.8708 1230.28 Q10.8708 1233.89 14.4356 1235.72 Q17.9773 1237.52 25.1068 1237.52 Q32.2133 1237.52 35.7781 1235.72 Q39.3197 1233.89 39.3197 1230.28 Q39.3197 1226.64 35.7781 1224.84 Q32.2133 1223.01 25.1068 1223.01 Q17.9773 1223.01 14.4356 1224.84 Q10.8708 1226.64 10.8708 1230.28 M7.16713 1230.28 Q7.16713 1224.47 11.7736 1221.41 Q16.3569 1218.33 25.1068 1218.33 Q33.8337 1218.33 38.4401 1221.41 Q43.0234 1224.47 43.0234 1230.28 Q43.0234 1236.09 38.4401 1239.17 Q33.8337 1242.22 25.1068 1242.22 Q16.3569 1242.22 11.7736 1239.17 Q7.16713 1236.09 7.16713 1230.28 Z" fill="#000000" fill-rule="nonzero" fill-opacity="1" /><path clip-path="url(#clip120)" d="M10.8708 1200.12 Q10.8708 1203.73 14.4356 1205.56 Q17.9773 1207.36 25.1068 1207.36 Q32.2133 1207.36 35.7781 1205.56 Q39.3197 1203.73 39.3197 1200.12 Q39.3197 1196.48 35.7781 1194.68 Q32.2133 1192.85 25.1068 1192.85 Q17.9773 1192.85 14.4356 1194.68 Q10.8708 1196.48 10.8708 1200.12 M7.16713 1200.12 Q7.16713 1194.31 11.7736 1191.25 Q16.3569 1188.17 25.1068 1188.17 Q33.8337 1188.17 38.4401 1191.25 Q43.0234 1194.31 43.0234 1200.12 Q43.0234 1205.93 38.4401 1209 Q33.8337 1212.06 25.1068 1212.06 Q16.3569 1212.06 11.7736 1209 Q7.16713 1205.93 7.16713 1200.12 Z" fill="#000000" fill-rule="nonzero" fill-opacity="1" /><path clip-path="url(#clip120)" d="M38.417 1015.48 L38.417 999.162 L42.3521 999.162 L42.3521 1021.11 L38.417 1021.11 Q35.6623 1018.44 31.0327 1013.86 Q26.38 1009.25 25.0374 1008.07 Q22.5143 1005.83 20.7782 1004.95 Q19.0189 1004.05 17.3291 1004.05 Q14.5745 1004.05 12.8384 1005.99 Q11.1023 1007.91 11.1023 1011.01 Q11.1023 1013.21 11.8662 1015.67 Q12.6301 1018.1 14.181 1020.88 L9.45878 1020.88 Q8.32453 1018.05 7.74583 1015.6 Q7.16713 1013.14 7.16713 1011.11 Q7.16713 1005.74 9.8523 1002.54 Q12.5375 999.348 17.0282 999.348 Q19.1578 999.348 21.0791 1000.16 Q22.9772 1000.94 25.5698 1003.05 Q26.2411 1003.63 29.4587 1006.73 Q32.6531 1009.83 38.417 1015.48 Z" fill="#000000" fill-rule="nonzero" fill-opacity="1" /><path clip-path="url(#clip120)" d="M10.8708 979.348 Q10.8708 982.959 14.4356 984.788 Q17.9773 986.593 25.1068 986.593 Q32.2133 986.593 35.7781 984.788 Q39.3197 982.959 39.3197 979.348 Q39.3197 975.713 35.7781 973.908 Q32.2133 972.079 25.1068 972.079 Q17.9773 972.079 14.4356 973.908 Q10.8708 975.713 10.8708 979.348 M7.16713 979.348 Q7.16713 973.538 11.7736 970.482 Q16.3569 967.403 25.1068 967.403 Q33.8337 967.403 38.4401 970.482 Q43.0234 973.538 43.0234 979.348 Q43.0234 985.158 38.4401 988.237 Q33.8337 991.292 25.1068 991.292 Q16.3569 991.292 11.7736 988.237 Q7.16713 985.158 7.16713 979.348 Z" fill="#000000" fill-rule="nonzero" fill-opacity="1" /><path clip-path="url(#clip120)" d="M10.8708 949.186 Q10.8708 952.797 14.4356 954.626 Q17.9773 956.431 25.1068 956.431 Q32.2133 956.431 35.7781 954.626 Q39.3197 952.797 39.3197 949.186 Q39.3197 945.552 35.7781 943.746 Q32.2133 941.917 25.1068 941.917 Q17.9773 941.917 14.4356 943.746 Q10.8708 945.552 10.8708 949.186 M7.16713 949.186 Q7.16713 943.376 11.7736 940.32 Q16.3569 937.241 25.1068 937.241 Q33.8337 937.241 38.4401 940.32 Q43.0234 943.376 43.0234 949.186 Q43.0234 954.996 38.4401 958.075 Q33.8337 961.13 25.1068 961.13 Q16.3569 961.13 11.7736 958.075 Q7.16713 954.996 7.16713 949.186 Z" fill="#000000" fill-rule="nonzero" fill-opacity="1" /><path clip-path="url(#clip120)" d="M23.718 755.351 Q24.4356 751.994 26.7041 750.119 Q28.9726 748.221 32.3059 748.221 Q37.4216 748.221 40.2225 751.74 Q43.0234 755.258 43.0234 761.74 Q43.0234 763.915 42.5836 766.23 Q42.1669 768.522 41.3105 770.976 L36.7966 770.976 Q37.9309 769.031 38.5096 766.716 Q39.0883 764.402 39.0883 761.878 Q39.0883 757.48 37.3522 755.189 Q35.6161 752.874 32.3059 752.874 Q29.2503 752.874 27.5374 755.027 Q25.8013 757.156 25.8013 760.976 L25.8013 765.003 L21.9587 765.003 L21.9587 760.79 Q21.9587 757.341 20.593 755.513 Q19.2041 753.684 16.6115 753.684 Q13.9495 753.684 12.5375 755.582 Q11.1023 757.457 11.1023 760.976 Q11.1023 762.897 11.519 765.096 Q11.9356 767.295 12.8152 769.934 L8.6486 769.934 Q7.90787 767.272 7.5375 764.957 Q7.16713 762.619 7.16713 760.559 Q7.16713 755.235 9.59767 752.133 Q12.0051 749.031 16.1254 749.031 Q18.9958 749.031 20.9865 750.675 Q22.9541 752.318 23.718 755.351 Z" fill="#000000" fill-rule="nonzero" fill-opacity="1" /><path clip-path="url(#clip120)" d="M10.8708 729.355 Q10.8708 732.967 14.4356 734.795 Q17.9773 736.601 25.1068 736.601 Q32.2133 736.601 35.7781 734.795 Q39.3197 732.967 39.3197 729.355 Q39.3197 725.721 35.7781 723.916 Q32.2133 722.087 25.1068 722.087 Q17.9773 722.087 14.4356 723.916 Q10.8708 725.721 10.8708 729.355 M7.16713 729.355 Q7.16713 723.545 11.7736 720.49 Q16.3569 717.411 25.1068 717.411 Q33.8337 717.411 38.4401 720.49 Q43.0234 723.545 43.0234 729.355 Q43.0234 735.166 38.4401 738.244 Q33.8337 741.3 25.1068 741.3 Q16.3569 741.3 11.7736 738.244 Q7.16713 735.166 7.16713 729.355 Z" fill="#000000" fill-rule="nonzero" fill-opacity="1" /><path clip-path="url(#clip120)" d="M10.8708 699.194 Q10.8708 702.805 14.4356 704.633 Q17.9773 706.439 25.1068 706.439 Q32.2133 706.439 35.7781 704.633 Q39.3197 702.805 39.3197 699.194 Q39.3197 695.559 35.7781 693.754 Q32.2133 691.925 25.1068 691.925 Q17.9773 691.925 14.4356 693.754 Q10.8708 695.559 10.8708 699.194 M7.16713 699.194 Q7.16713 693.383 11.7736 690.328 Q16.3569 687.249 25.1068 687.249 Q33.8337 687.249 38.4401 690.328 Q43.0234 693.383 43.0234 699.194 Q43.0234 705.004 38.4401 708.082 Q33.8337 711.138 25.1068 711.138 Q16.3569 711.138 11.7736 708.082 Q7.16713 705.004 7.16713 699.194 Z" fill="#000000" fill-rule="nonzero" fill-opacity="1" /><path clip-path="url(#clip120)" d="M11.8662 505.96 L30.3152 517.766 L30.3152 505.96 L11.8662 505.96 M7.79213 507.187 L7.79213 501.308 L30.3152 501.308 L30.3152 496.377 L34.204 496.377 L34.204 501.308 L42.3521 501.308 L42.3521 505.96 L34.204 505.96 L34.204 521.562 L29.6902 521.562 L7.79213 507.187 Z" fill="#000000" fill-rule="nonzero" fill-opacity="1" /><path clip-path="url(#clip120)" d="M10.8708 478.646 Q10.8708 482.257 14.4356 484.085 Q17.9773 485.891 25.1068 485.891 Q32.2133 485.891 35.7781 484.085 Q39.3197 482.257 39.3197 478.646 Q39.3197 475.011 35.7781 473.206 Q32.2133 471.377 25.1068 471.377 Q17.9773 471.377 14.4356 473.206 Q10.8708 475.011 10.8708 478.646 M7.16713 478.646 Q7.16713 472.835 11.7736 469.78 Q16.3569 466.701 25.1068 466.701 Q33.8337 466.701 38.4401 469.78 Q43.0234 472.835 43.0234 478.646 Q43.0234 484.456 38.4401 487.534 Q33.8337 490.59 25.1068 490.59 Q16.3569 490.59 11.7736 487.534 Q7.16713 484.456 7.16713 478.646 Z" fill="#000000" fill-rule="nonzero" fill-opacity="1" /><path clip-path="url(#clip120)" d="M10.8708 448.484 Q10.8708 452.095 14.4356 453.924 Q17.9773 455.729 25.1068 455.729 Q32.2133 455.729 35.7781 453.924 Q39.3197 452.095 39.3197 448.484 Q39.3197 444.849 35.7781 443.044 Q32.2133 441.215 25.1068 441.215 Q17.9773 441.215 14.4356 443.044 Q10.8708 444.849 10.8708 448.484 M7.16713 448.484 Q7.16713 442.674 11.7736 439.618 Q16.3569 436.539 25.1068 436.539 Q33.8337 436.539 38.4401 439.618 Q43.0234 442.674 43.0234 448.484 Q43.0234 454.294 38.4401 457.373 Q33.8337 460.428 25.1068 460.428 Q16.3569 460.428 11.7736 457.373 Q7.16713 454.294 7.16713 448.484 Z" fill="#000000" fill-rule="nonzero" fill-opacity="1" /><path clip-path="url(#clip120)" d="M7.79213 269.371 L7.79213 251.014 L11.7273 251.014 L11.7273 265.088 L20.1995 265.088 Q19.8522 264.07 19.6902 263.051 Q19.505 262.033 19.505 261.014 Q19.505 255.227 22.6763 251.848 Q25.8476 248.468 31.2642 248.468 Q36.8429 248.468 39.9447 251.94 Q43.0234 255.412 43.0234 261.732 Q43.0234 263.908 42.6531 266.176 Q42.2827 268.422 41.5419 270.829 L36.8429 270.829 Q37.9771 268.746 38.5327 266.523 Q39.0883 264.301 39.0883 261.824 Q39.0883 257.82 36.9818 255.482 Q34.8753 253.144 31.2642 253.144 Q27.6531 253.144 25.5467 255.482 Q23.4402 257.82 23.4402 261.824 Q23.4402 263.699 23.8569 265.574 Q24.2735 267.426 25.1531 269.371 L7.79213 269.371 Z" fill="#000000" fill-rule="nonzero" fill-opacity="1" /><path clip-path="url(#clip120)" d="M10.8708 229.255 Q10.8708 232.866 14.4356 234.695 Q17.9773 236.5 25.1068 236.5 Q32.2133 236.5 35.7781 234.695 Q39.3197 232.866 39.3197 229.255 Q39.3197 225.621 35.7781 223.815 Q32.2133 221.987 25.1068 221.987 Q17.9773 221.987 14.4356 223.815 Q10.8708 225.621 10.8708 229.255 M7.16713 229.255 Q7.16713 223.445 11.7736 220.389 Q16.3569 217.311 25.1068 217.311 Q33.8337 217.311 38.4401 220.389 Q43.0234 223.445 43.0234 229.255 Q43.0234 235.065 38.4401 238.144 Q33.8337 241.2 25.1068 241.2 Q16.3569 241.2 11.7736 238.144 Q7.16713 235.065 7.16713 229.255 Z" fill="#000000" fill-rule="nonzero" fill-opacity="1" /><path clip-path="url(#clip120)" d="M10.8708 199.093 Q10.8708 202.704 14.4356 204.533 Q17.9773 206.339 25.1068 206.339 Q32.2133 206.339 35.7781 204.533 Q39.3197 202.704 39.3197 199.093 Q39.3197 195.459 35.7781 193.653 Q32.2133 191.825 25.1068 191.825 Q17.9773 191.825 14.4356 193.653 Q10.8708 195.459 10.8708 199.093 M7.16713 199.093 Q7.16713 193.283 11.7736 190.228 Q16.3569 187.149 25.1068 187.149 Q33.8337 187.149 38.4401 190.228 Q43.0234 193.283 43.0234 199.093 Q43.0234 204.903 38.4401 207.982 Q33.8337 211.038 25.1068 211.038 Q16.3569 211.038 11.7736 207.982 Q7.16713 204.903 7.16713 199.093 Z" fill="#000000" fill-rule="nonzero" fill-opacity="1" /><polyline clip-path="url(#clip122)" style="stroke:#009af9; stroke-linecap:round; stroke-linejoin:round; stroke-width:4; stroke-opacity:1; fill:none" points="16.187,1479.3 16.187,1476.8 86.9921,1476.8 157.797,1476.8 157.797,1479.3 228.602,1479.3 228.602,1466.79 299.407,1466.79 299.407,1456.79 370.213,1456.79 370.213,1429.29 441.018,1429.29 441.018,1376.77 511.823,1376.77 511.823,1329.26 582.628,1329.26 582.628,1154.22 653.433,1154.22 653.433,966.671 724.238,966.671 724.238,779.125 795.043,779.125 795.043,421.536 865.848,421.536 865.848,364.022 936.654,364.022 936.654,146.469 1007.46,146.469 1007.46,88.9544 1078.26,88.9544 1078.26,151.47 1149.07,151.47 1149.07,281.502 1219.87,281.502 1219.87,431.539 1290.68,431.539 1290.68,719.11 1361.48,719.11 1361.48,939.164 1432.29,939.164 1432.29,1109.21 1503.09,1109.21 1503.09,1286.75 1573.9,1286.75 1573.9,1311.76 1644.7,1311.76 1644.7,1414.28 1715.51,1414.28 1715.51,1451.79 1786.31,1451.79 1786.31,1464.29 1857.12,1464.29 1927.93,1464.29 1927.93,1479.3 "/>
<polyline clip-path="url(#clip122)" style="stroke:#e26f46; stroke-linecap:round; stroke-linejoin:round; stroke-width:4; stroke-opacity:1; fill:none" points="724.238,1479.3 724.238,1476.8 795.043,1476.8 795.043,1471.8 865.848,1471.8 865.848,1461.79 936.654,1461.79 936.654,1446.79 1007.46,1446.79 1007.46,1414.28 1078.26,1414.28 1078.26,1349.27 1149.07,1349.27 1149.07,1246.74 1219.87,1246.74 1219.87,1114.21 1290.68,1114.21 1290.68,901.655 1361.48,901.655 1361.48,684.101 1432.29,684.101 1432.29,474.049 1503.09,474.049 1503.09,299.006 1573.9,299.006 1573.9,126.464 1644.7,126.464 1644.7,128.964 1715.51,128.964 1715.51,113.961 1786.31,113.961 1786.31,411.534 1857.12,411.534 1857.12,494.054 1927.93,494.054 1927.93,744.116 1998.73,744.116 1998.73,994.178 2069.54,994.178 2069.54,1146.72 2140.34,1146.72 2140.34,1259.24 2211.15,1259.24 2211.15,1364.27 2281.95,1364.27 2281.95,1429.29 2352.76,1429.29 2352.76,1464.29 2423.56,1464.29 2423.56,1469.3 2494.37,1469.3 2494.37,1474.3 2565.17,1474.3 2565.17,1476.8 2635.98,1476.8 2635.98,1479.3 "/>
<path clip-path="url(#clip120)" d="M162.518 251.89 L870.735 251.89 L870.735 96.3696 L162.518 96.3696  Z" fill="#ffffff" fill-rule="evenodd" fill-opacity="1"/>
<polyline clip-path="url(#clip120)" style="stroke:#000000; stroke-linecap:round; stroke-linejoin:round; stroke-width:4; stroke-opacity:1; fill:none" points="162.518,251.89 870.735,251.89 870.735,96.3696 162.518,96.3696 162.518,251.89 "/>
<polyline clip-path="url(#clip120)" style="stroke:#009af9; stroke-linecap:round; stroke-linejoin:round; stroke-width:4; stroke-opacity:1; fill:none" points="187.693,148.21 338.744,148.21 "/>
<path clip-path="url(#clip120)" d="M368.201 161.601 L368.201 175.351 L363.919 175.351 L363.919 139.564 L368.201 139.564 L368.201 143.499 Q369.544 141.184 371.581 140.073 Q373.641 138.939 376.488 138.939 Q381.21 138.939 384.15 142.689 Q387.113 146.439 387.113 152.55 Q387.113 158.661 384.15 162.411 Q381.21 166.161 376.488 166.161 Q373.641 166.161 371.581 165.05 Q369.544 163.915 368.201 161.601 M382.692 152.55 Q382.692 147.851 380.747 145.189 Q378.826 142.504 375.447 142.504 Q372.067 142.504 370.122 145.189 Q368.201 147.851 368.201 152.55 Q368.201 157.249 370.122 159.934 Q372.067 162.596 375.447 162.596 Q378.826 162.596 380.747 159.934 Q382.692 157.249 382.692 152.55 Z" fill="#000000" fill-rule="nonzero" fill-opacity="1" /><path clip-path="url(#clip120)" d="M404.22 142.55 Q400.794 142.55 398.803 145.235 Q396.812 147.897 396.812 152.55 Q396.812 157.203 398.78 159.888 Q400.77 162.55 404.22 162.55 Q407.622 162.55 409.613 159.865 Q411.604 157.179 411.604 152.55 Q411.604 147.943 409.613 145.258 Q407.622 142.55 404.22 142.55 M404.22 138.939 Q409.775 138.939 412.946 142.55 Q416.118 146.161 416.118 152.55 Q416.118 158.916 412.946 162.55 Q409.775 166.161 404.22 166.161 Q398.641 166.161 395.47 162.55 Q392.321 158.916 392.321 152.55 Q392.321 146.161 395.47 142.55 Q398.641 138.939 404.22 138.939 Z" fill="#000000" fill-rule="nonzero" fill-opacity="1" /><path clip-path="url(#clip120)" d="M439.705 140.328 L439.705 144.355 Q437.9 143.429 435.955 142.967 Q434.011 142.504 431.928 142.504 Q428.756 142.504 427.159 143.476 Q425.585 144.448 425.585 146.392 Q425.585 147.874 426.719 148.73 Q427.854 149.564 431.28 150.328 L432.738 150.652 Q437.275 151.624 439.173 153.406 Q441.094 155.166 441.094 158.337 Q441.094 161.948 438.224 164.054 Q435.377 166.161 430.377 166.161 Q428.293 166.161 426.025 165.744 Q423.78 165.351 421.28 164.54 L421.28 160.142 Q423.641 161.369 425.932 161.994 Q428.224 162.596 430.469 162.596 Q433.479 162.596 435.099 161.578 Q436.719 160.536 436.719 158.661 Q436.719 156.925 435.539 155.999 Q434.381 155.073 430.423 154.216 L428.942 153.869 Q424.983 153.036 423.224 151.323 Q421.465 149.587 421.465 146.578 Q421.465 142.92 424.057 140.93 Q426.65 138.939 431.418 138.939 Q433.78 138.939 435.863 139.286 Q437.946 139.633 439.705 140.328 Z" fill="#000000" fill-rule="nonzero" fill-opacity="1" /><path clip-path="url(#clip120)" d="M452.09 132.203 L452.09 139.564 L460.863 139.564 L460.863 142.874 L452.09 142.874 L452.09 156.948 Q452.09 160.119 452.946 161.022 Q453.826 161.925 456.488 161.925 L460.863 161.925 L460.863 165.49 L456.488 165.49 Q451.557 165.49 449.682 163.661 Q447.807 161.809 447.807 156.948 L447.807 142.874 L444.682 142.874 L444.682 139.564 L447.807 139.564 L447.807 132.203 L452.09 132.203 Z" fill="#000000" fill-rule="nonzero" fill-opacity="1" /><path clip-path="url(#clip120)" d="M464.312 150.605 L476.789 150.605 L476.789 154.402 L464.312 154.402 L464.312 150.605 Z" fill="#000000" fill-rule="nonzero" fill-opacity="1" /><path clip-path="url(#clip120)" d="M500.631 143.499 L500.631 129.471 L504.89 129.471 L504.89 165.49 L500.631 165.49 L500.631 161.601 Q499.288 163.915 497.228 165.05 Q495.191 166.161 492.321 166.161 Q487.622 166.161 484.659 162.411 Q481.719 158.661 481.719 152.55 Q481.719 146.439 484.659 142.689 Q487.622 138.939 492.321 138.939 Q495.191 138.939 497.228 140.073 Q499.288 141.184 500.631 143.499 M486.117 152.55 Q486.117 157.249 488.039 159.934 Q489.983 162.596 493.363 162.596 Q496.742 162.596 498.687 159.934 Q500.631 157.249 500.631 152.55 Q500.631 147.851 498.687 145.189 Q496.742 142.504 493.363 142.504 Q489.983 142.504 488.039 145.189 Q486.117 147.851 486.117 152.55 Z" fill="#000000" fill-rule="nonzero" fill-opacity="1" /><path clip-path="url(#clip120)" d="M535.839 151.462 L535.839 153.545 L516.256 153.545 Q516.534 157.943 518.895 160.258 Q521.279 162.55 525.515 162.55 Q527.969 162.55 530.261 161.948 Q532.575 161.346 534.844 160.142 L534.844 164.17 Q532.552 165.142 530.145 165.652 Q527.737 166.161 525.261 166.161 Q519.057 166.161 515.423 162.55 Q511.812 158.939 511.812 152.781 Q511.812 146.416 515.237 142.689 Q518.686 138.939 524.52 138.939 Q529.751 138.939 532.784 142.318 Q535.839 145.675 535.839 151.462 M531.58 150.212 Q531.534 146.717 529.612 144.633 Q527.714 142.55 524.566 142.55 Q521.001 142.55 518.849 144.564 Q516.719 146.578 516.395 150.235 L531.58 150.212 Z" fill="#000000" fill-rule="nonzero" fill-opacity="1" /><path clip-path="url(#clip120)" d="M561.441 152.55 Q561.441 147.851 559.496 145.189 Q557.575 142.504 554.196 142.504 Q550.816 142.504 548.872 145.189 Q546.95 147.851 546.95 152.55 Q546.95 157.249 548.872 159.934 Q550.816 162.596 554.196 162.596 Q557.575 162.596 559.496 159.934 Q561.441 157.249 561.441 152.55 M546.95 143.499 Q548.293 141.184 550.33 140.073 Q552.39 138.939 555.237 138.939 Q559.959 138.939 562.899 142.689 Q565.862 146.439 565.862 152.55 Q565.862 158.661 562.899 162.411 Q559.959 166.161 555.237 166.161 Q552.39 166.161 550.33 165.05 Q548.293 163.915 546.95 161.601 L546.95 165.49 L542.668 165.49 L542.668 129.471 L546.95 129.471 L546.95 143.499 Z" fill="#000000" fill-rule="nonzero" fill-opacity="1" /><path clip-path="url(#clip120)" d="M584.705 152.457 Q579.543 152.457 577.552 153.638 Q575.561 154.818 575.561 157.666 Q575.561 159.934 577.043 161.277 Q578.547 162.596 581.117 162.596 Q584.658 162.596 586.788 160.096 Q588.941 157.573 588.941 153.406 L588.941 152.457 L584.705 152.457 M593.2 150.698 L593.2 165.49 L588.941 165.49 L588.941 161.554 Q587.482 163.915 585.307 165.05 Q583.131 166.161 579.982 166.161 Q576.001 166.161 573.64 163.939 Q571.302 161.693 571.302 157.943 Q571.302 153.568 574.219 151.346 Q577.158 149.124 582.969 149.124 L588.941 149.124 L588.941 148.707 Q588.941 145.767 586.996 144.17 Q585.075 142.55 581.58 142.55 Q579.357 142.55 577.251 143.082 Q575.145 143.615 573.2 144.679 L573.2 140.744 Q575.538 139.842 577.737 139.402 Q579.936 138.939 582.019 138.939 Q587.644 138.939 590.422 141.855 Q593.2 144.772 593.2 150.698 Z" fill="#000000" fill-rule="nonzero" fill-opacity="1" /><path clip-path="url(#clip120)" d="M606.186 132.203 L606.186 139.564 L614.959 139.564 L614.959 142.874 L606.186 142.874 L606.186 156.948 Q606.186 160.119 607.043 161.022 Q607.922 161.925 610.584 161.925 L614.959 161.925 L614.959 165.49 L610.584 165.49 Q605.654 165.49 603.779 163.661 Q601.904 161.809 601.904 156.948 L601.904 142.874 L598.779 142.874 L598.779 139.564 L601.904 139.564 L601.904 132.203 L606.186 132.203 Z" fill="#000000" fill-rule="nonzero" fill-opacity="1" /><path clip-path="url(#clip120)" d="M642.737 151.462 L642.737 153.545 L623.154 153.545 Q623.431 157.943 625.792 160.258 Q628.177 162.55 632.413 162.55 Q634.866 162.55 637.158 161.948 Q639.473 161.346 641.741 160.142 L641.741 164.17 Q639.45 165.142 637.042 165.652 Q634.635 166.161 632.158 166.161 Q625.954 166.161 622.32 162.55 Q618.709 158.939 618.709 152.781 Q618.709 146.416 622.135 142.689 Q625.584 138.939 631.417 138.939 Q636.649 138.939 639.681 142.318 Q642.737 145.675 642.737 151.462 M638.478 150.212 Q638.431 146.717 636.51 144.633 Q634.612 142.55 631.464 142.55 Q627.899 142.55 625.746 144.564 Q623.616 146.578 623.292 150.235 L638.478 150.212 Z" fill="#000000" fill-rule="nonzero" fill-opacity="1" /><path clip-path="url(#clip120)" d="M669.658 148.985 L669.658 161.647 L677.158 161.647 Q680.931 161.647 682.737 160.096 Q684.565 158.522 684.565 155.304 Q684.565 152.064 682.737 150.536 Q680.931 148.985 677.158 148.985 L669.658 148.985 M669.658 134.772 L669.658 145.189 L676.579 145.189 Q680.005 145.189 681.672 143.916 Q683.362 142.619 683.362 139.98 Q683.362 137.365 681.672 136.068 Q680.005 134.772 676.579 134.772 L669.658 134.772 M664.982 130.93 L676.926 130.93 Q682.274 130.93 685.167 133.152 Q688.061 135.374 688.061 139.471 Q688.061 142.642 686.579 144.517 Q685.098 146.392 682.227 146.855 Q685.676 147.596 687.574 149.957 Q689.496 152.295 689.496 155.814 Q689.496 160.443 686.348 162.966 Q683.2 165.49 677.389 165.49 L664.982 165.49 L664.982 130.93 Z" fill="#000000" fill-rule="nonzero" fill-opacity="1" /><path clip-path="url(#clip120)" d="M696.88 155.258 L696.88 139.564 L701.139 139.564 L701.139 155.096 Q701.139 158.777 702.574 160.628 Q704.01 162.457 706.88 162.457 Q710.329 162.457 712.32 160.258 Q714.334 158.059 714.334 154.263 L714.334 139.564 L718.593 139.564 L718.593 165.49 L714.334 165.49 L714.334 161.508 Q712.783 163.869 710.723 165.027 Q708.685 166.161 705.977 166.161 Q701.51 166.161 699.195 163.383 Q696.88 160.605 696.88 155.258 M707.598 138.939 L707.598 138.939 Z" fill="#000000" fill-rule="nonzero" fill-opacity="1" /><path clip-path="url(#clip120)" d="M743.894 140.328 L743.894 144.355 Q742.088 143.429 740.144 142.967 Q738.199 142.504 736.116 142.504 Q732.945 142.504 731.347 143.476 Q729.773 144.448 729.773 146.392 Q729.773 147.874 730.908 148.73 Q732.042 149.564 735.468 150.328 L736.926 150.652 Q741.463 151.624 743.361 153.406 Q745.283 155.166 745.283 158.337 Q745.283 161.948 742.412 164.054 Q739.565 166.161 734.565 166.161 Q732.482 166.161 730.213 165.744 Q727.968 165.351 725.468 164.54 L725.468 160.142 Q727.829 161.369 730.121 161.994 Q732.412 162.596 734.658 162.596 Q737.667 162.596 739.287 161.578 Q740.908 160.536 740.908 158.661 Q740.908 156.925 739.727 155.999 Q738.57 155.073 734.611 154.216 L733.13 153.869 Q729.171 153.036 727.412 151.323 Q725.653 149.587 725.653 146.578 Q725.653 142.92 728.246 140.93 Q730.838 138.939 735.607 138.939 Q737.968 138.939 740.051 139.286 Q742.134 139.633 743.894 140.328 Z" fill="#000000" fill-rule="nonzero" fill-opacity="1" /><path clip-path="url(#clip120)" d="M773.616 149.841 L773.616 165.49 L769.356 165.49 L769.356 149.98 Q769.356 146.3 767.921 144.471 Q766.486 142.642 763.616 142.642 Q760.167 142.642 758.176 144.842 Q756.185 147.041 756.185 150.837 L756.185 165.49 L751.903 165.49 L751.903 129.471 L756.185 129.471 L756.185 143.592 Q757.713 141.254 759.773 140.096 Q761.856 138.939 764.565 138.939 Q769.032 138.939 771.324 141.717 Q773.616 144.471 773.616 149.841 Z" fill="#000000" fill-rule="nonzero" fill-opacity="1" /><polyline clip-path="url(#clip120)" style="stroke:#e26f46; stroke-linecap:round; stroke-linejoin:round; stroke-width:4; stroke-opacity:1; fill:none" points="187.693,200.05 338.744,200.05 "/>
<path clip-path="url(#clip120)" d="M368.201 213.441 L368.201 227.191 L363.919 227.191 L363.919 191.404 L368.201 191.404 L368.201 195.339 Q369.544 193.024 371.581 191.913 Q373.641 190.779 376.488 190.779 Q381.21 190.779 384.15 194.529 Q387.113 198.279 387.113 204.39 Q387.113 210.501 384.15 214.251 Q381.21 218.001 376.488 218.001 Q373.641 218.001 371.581 216.89 Q369.544 215.755 368.201 213.441 M382.692 204.39 Q382.692 199.691 380.747 197.029 Q378.826 194.344 375.447 194.344 Q372.067 194.344 370.122 197.029 Q368.201 199.691 368.201 204.39 Q368.201 209.089 370.122 211.774 Q372.067 214.436 375.447 214.436 Q378.826 214.436 380.747 211.774 Q382.692 209.089 382.692 204.39 Z" fill="#000000" fill-rule="nonzero" fill-opacity="1" /><path clip-path="url(#clip120)" d="M404.22 194.39 Q400.794 194.39 398.803 197.075 Q396.812 199.737 396.812 204.39 Q396.812 209.043 398.78 211.728 Q400.77 214.39 404.22 214.39 Q407.622 214.39 409.613 211.705 Q411.604 209.019 411.604 204.39 Q411.604 199.783 409.613 197.098 Q407.622 194.39 404.22 194.39 M404.22 190.779 Q409.775 190.779 412.946 194.39 Q416.118 198.001 416.118 204.39 Q416.118 210.756 412.946 214.39 Q409.775 218.001 404.22 218.001 Q398.641 218.001 395.47 214.39 Q392.321 210.756 392.321 204.39 Q392.321 198.001 395.47 194.39 Q398.641 190.779 404.22 190.779 Z" fill="#000000" fill-rule="nonzero" fill-opacity="1" /><path clip-path="url(#clip120)" d="M439.705 192.168 L439.705 196.195 Q437.9 195.269 435.955 194.807 Q434.011 194.344 431.928 194.344 Q428.756 194.344 427.159 195.316 Q425.585 196.288 425.585 198.232 Q425.585 199.714 426.719 200.57 Q427.854 201.404 431.28 202.168 L432.738 202.492 Q437.275 203.464 439.173 205.246 Q441.094 207.006 441.094 210.177 Q441.094 213.788 438.224 215.894 Q435.377 218.001 430.377 218.001 Q428.293 218.001 426.025 217.584 Q423.78 217.191 421.28 216.38 L421.28 211.982 Q423.641 213.209 425.932 213.834 Q428.224 214.436 430.469 214.436 Q433.479 214.436 435.099 213.418 Q436.719 212.376 436.719 210.501 Q436.719 208.765 435.539 207.839 Q434.381 206.913 430.423 206.056 L428.942 205.709 Q424.983 204.876 423.224 203.163 Q421.465 201.427 421.465 198.418 Q421.465 194.76 424.057 192.77 Q426.65 190.779 431.418 190.779 Q433.78 190.779 435.863 191.126 Q437.946 191.473 439.705 192.168 Z" fill="#000000" fill-rule="nonzero" fill-opacity="1" /><path clip-path="url(#clip120)" d="M452.09 184.043 L452.09 191.404 L460.863 191.404 L460.863 194.714 L452.09 194.714 L452.09 208.788 Q452.09 211.959 452.946 212.862 Q453.826 213.765 456.488 213.765 L460.863 213.765 L460.863 217.33 L456.488 217.33 Q451.557 217.33 449.682 215.501 Q447.807 213.649 447.807 208.788 L447.807 194.714 L444.682 194.714 L444.682 191.404 L447.807 191.404 L447.807 184.043 L452.09 184.043 Z" fill="#000000" fill-rule="nonzero" fill-opacity="1" /><path clip-path="url(#clip120)" d="M464.312 202.445 L476.789 202.445 L476.789 206.242 L464.312 206.242 L464.312 202.445 Z" fill="#000000" fill-rule="nonzero" fill-opacity="1" /><path clip-path="url(#clip120)" d="M500.631 195.339 L500.631 181.311 L504.89 181.311 L504.89 217.33 L500.631 217.33 L500.631 213.441 Q499.288 215.755 497.228 216.89 Q495.191 218.001 492.321 218.001 Q487.622 218.001 484.659 214.251 Q481.719 210.501 481.719 204.39 Q481.719 198.279 484.659 194.529 Q487.622 190.779 492.321 190.779 Q495.191 190.779 497.228 191.913 Q499.288 193.024 500.631 195.339 M486.117 204.39 Q486.117 209.089 488.039 211.774 Q489.983 214.436 493.363 214.436 Q496.742 214.436 498.687 211.774 Q500.631 209.089 500.631 204.39 Q500.631 199.691 498.687 197.029 Q496.742 194.344 493.363 194.344 Q489.983 194.344 488.039 197.029 Q486.117 199.691 486.117 204.39 Z" fill="#000000" fill-rule="nonzero" fill-opacity="1" /><path clip-path="url(#clip120)" d="M535.839 203.302 L535.839 205.385 L516.256 205.385 Q516.534 209.783 518.895 212.098 Q521.279 214.39 525.515 214.39 Q527.969 214.39 530.261 213.788 Q532.575 213.186 534.844 211.982 L534.844 216.01 Q532.552 216.982 530.145 217.492 Q527.737 218.001 525.261 218.001 Q519.057 218.001 515.423 214.39 Q511.812 210.779 511.812 204.621 Q511.812 198.256 515.237 194.529 Q518.686 190.779 524.52 190.779 Q529.751 190.779 532.784 194.158 Q535.839 197.515 535.839 203.302 M531.58 202.052 Q531.534 198.557 529.612 196.473 Q527.714 194.39 524.566 194.39 Q521.001 194.39 518.849 196.404 Q516.719 198.418 516.395 202.075 L531.58 202.052 Z" fill="#000000" fill-rule="nonzero" fill-opacity="1" /><path clip-path="url(#clip120)" d="M561.441 204.39 Q561.441 199.691 559.496 197.029 Q557.575 194.344 554.196 194.344 Q550.816 194.344 548.872 197.029 Q546.95 199.691 546.95 204.39 Q546.95 209.089 548.872 211.774 Q550.816 214.436 554.196 214.436 Q557.575 214.436 559.496 211.774 Q561.441 209.089 561.441 204.39 M546.95 195.339 Q548.293 193.024 550.33 191.913 Q552.39 190.779 555.237 190.779 Q559.959 190.779 562.899 194.529 Q565.862 198.279 565.862 204.39 Q565.862 210.501 562.899 214.251 Q559.959 218.001 555.237 218.001 Q552.39 218.001 550.33 216.89 Q548.293 215.755 546.95 213.441 L546.95 217.33 L542.668 217.33 L542.668 181.311 L546.95 181.311 L546.95 195.339 Z" fill="#000000" fill-rule="nonzero" fill-opacity="1" /><path clip-path="url(#clip120)" d="M584.705 204.297 Q579.543 204.297 577.552 205.478 Q575.561 206.658 575.561 209.506 Q575.561 211.774 577.043 213.117 Q578.547 214.436 581.117 214.436 Q584.658 214.436 586.788 211.936 Q588.941 209.413 588.941 205.246 L588.941 204.297 L584.705 204.297 M593.2 202.538 L593.2 217.33 L588.941 217.33 L588.941 213.394 Q587.482 215.755 585.307 216.89 Q583.131 218.001 579.982 218.001 Q576.001 218.001 573.64 215.779 Q571.302 213.533 571.302 209.783 Q571.302 205.408 574.219 203.186 Q577.158 200.964 582.969 200.964 L588.941 200.964 L588.941 200.547 Q588.941 197.607 586.996 196.01 Q585.075 194.39 581.58 194.39 Q579.357 194.39 577.251 194.922 Q575.145 195.455 573.2 196.519 L573.2 192.584 Q575.538 191.682 577.737 191.242 Q579.936 190.779 582.019 190.779 Q587.644 190.779 590.422 193.695 Q593.2 196.612 593.2 202.538 Z" fill="#000000" fill-rule="nonzero" fill-opacity="1" /><path clip-path="url(#clip120)" d="M606.186 184.043 L606.186 191.404 L614.959 191.404 L614.959 194.714 L606.186 194.714 L606.186 208.788 Q606.186 211.959 607.043 212.862 Q607.922 213.765 610.584 213.765 L614.959 213.765 L614.959 217.33 L610.584 217.33 Q605.654 217.33 603.779 215.501 Q601.904 213.649 601.904 208.788 L601.904 194.714 L598.779 194.714 L598.779 191.404 L601.904 191.404 L601.904 184.043 L606.186 184.043 Z" fill="#000000" fill-rule="nonzero" fill-opacity="1" /><path clip-path="url(#clip120)" d="M642.737 203.302 L642.737 205.385 L623.154 205.385 Q623.431 209.783 625.792 212.098 Q628.177 214.39 632.413 214.39 Q634.866 214.39 637.158 213.788 Q639.473 213.186 641.741 211.982 L641.741 216.01 Q639.45 216.982 637.042 217.492 Q634.635 218.001 632.158 218.001 Q625.954 218.001 622.32 214.39 Q618.709 210.779 618.709 204.621 Q618.709 198.256 622.135 194.529 Q625.584 190.779 631.417 190.779 Q636.649 190.779 639.681 194.158 Q642.737 197.515 642.737 203.302 M638.478 202.052 Q638.431 198.557 636.51 196.473 Q634.612 194.39 631.464 194.39 Q627.899 194.39 625.746 196.404 Q623.616 198.418 623.292 202.075 L638.478 202.052 Z" fill="#000000" fill-rule="nonzero" fill-opacity="1" /><path clip-path="url(#clip120)" d="M669.658 186.612 L669.658 213.487 L675.306 213.487 Q682.459 213.487 685.769 210.246 Q689.102 207.006 689.102 200.015 Q689.102 193.07 685.769 189.853 Q682.459 186.612 675.306 186.612 L669.658 186.612 M664.982 182.77 L674.588 182.77 Q684.635 182.77 689.334 186.959 Q694.033 191.126 694.033 200.015 Q694.033 208.95 689.311 213.14 Q684.588 217.33 674.588 217.33 L664.982 217.33 L664.982 182.77 Z" fill="#000000" fill-rule="nonzero" fill-opacity="1" /><path clip-path="url(#clip120)" d="M700.861 207.098 L700.861 191.404 L705.121 191.404 L705.121 206.936 Q705.121 210.617 706.556 212.468 Q707.991 214.297 710.861 214.297 Q714.31 214.297 716.301 212.098 Q718.315 209.899 718.315 206.103 L718.315 191.404 L722.574 191.404 L722.574 217.33 L718.315 217.33 L718.315 213.348 Q716.764 215.709 714.704 216.867 Q712.667 218.001 709.959 218.001 Q705.491 218.001 703.176 215.223 Q700.861 212.445 700.861 207.098 M711.579 190.779 L711.579 190.779 Z" fill="#000000" fill-rule="nonzero" fill-opacity="1" /><path clip-path="url(#clip120)" d="M731.185 181.311 L735.468 181.311 L735.468 202.584 L748.176 191.404 L753.616 191.404 L739.866 203.533 L754.194 217.33 L748.639 217.33 L735.468 204.668 L735.468 217.33 L731.185 217.33 L731.185 181.311 Z" fill="#000000" fill-rule="nonzero" fill-opacity="1" /><path clip-path="url(#clip120)" d="M769.75 204.297 Q764.588 204.297 762.597 205.478 Q760.606 206.658 760.606 209.506 Q760.606 211.774 762.088 213.117 Q763.593 214.436 766.162 214.436 Q769.704 214.436 771.833 211.936 Q773.986 209.413 773.986 205.246 L773.986 204.297 L769.75 204.297 M778.245 202.538 L778.245 217.33 L773.986 217.33 L773.986 213.394 Q772.528 215.755 770.352 216.89 Q768.176 218.001 765.028 218.001 Q761.046 218.001 758.685 215.779 Q756.347 213.533 756.347 209.783 Q756.347 205.408 759.264 203.186 Q762.204 200.964 768.014 200.964 L773.986 200.964 L773.986 200.547 Q773.986 197.607 772.042 196.01 Q770.12 194.39 766.625 194.39 Q764.403 194.39 762.296 194.922 Q760.19 195.455 758.245 196.519 L758.245 192.584 Q760.583 191.682 762.782 191.242 Q764.981 190.779 767.065 190.779 Q772.69 190.779 775.468 193.695 Q778.245 196.612 778.245 202.538 Z" fill="#000000" fill-rule="nonzero" fill-opacity="1" /><path clip-path="url(#clip120)" d="M786.856 181.311 L791.139 181.311 L791.139 202.584 L803.847 191.404 L809.287 191.404 L795.537 203.533 L809.865 217.33 L804.31 217.33 L791.139 204.668 L791.139 217.33 L786.856 217.33 L786.856 181.311 Z" fill="#000000" fill-rule="nonzero" fill-opacity="1" /><path clip-path="url(#clip120)" d="M814.472 191.404 L818.731 191.404 L818.731 217.33 L814.472 217.33 L814.472 191.404 M814.472 181.311 L818.731 181.311 L818.731 186.705 L814.472 186.705 L814.472 181.311 Z" fill="#000000" fill-rule="nonzero" fill-opacity="1" /><path clip-path="url(#clip120)" d="M844.171 192.168 L844.171 196.195 Q842.365 195.269 840.421 194.807 Q838.476 194.344 836.393 194.344 Q833.222 194.344 831.625 195.316 Q830.051 196.288 830.051 198.232 Q830.051 199.714 831.185 200.57 Q832.319 201.404 835.745 202.168 L837.203 202.492 Q841.74 203.464 843.638 205.246 Q845.56 207.006 845.56 210.177 Q845.56 213.788 842.689 215.894 Q839.842 218.001 834.842 218.001 Q832.759 218.001 830.49 217.584 Q828.245 217.191 825.745 216.38 L825.745 211.982 Q828.106 213.209 830.398 213.834 Q832.689 214.436 834.935 214.436 Q837.944 214.436 839.564 213.418 Q841.185 212.376 841.185 210.501 Q841.185 208.765 840.004 207.839 Q838.847 206.913 834.889 206.056 L833.407 205.709 Q829.449 204.876 827.689 203.163 Q825.93 201.427 825.93 198.418 Q825.93 194.76 828.523 192.77 Q831.115 190.779 835.884 190.779 Q838.245 190.779 840.328 191.126 Q842.412 191.473 844.171 192.168 Z" fill="#000000" fill-rule="nonzero" fill-opacity="1" /></svg>
