<?xml version="1.0" encoding="utf-8"?>
<svg xmlns="http://www.w3.org/2000/svg" xmlns:xlink="http://www.w3.org/1999/xlink" width="600" height="400" viewBox="0 0 2400 1600">
<defs>
  <clipPath id="clip540">
    <rect x="0" y="0" width="2400" height="1600"/>
  </clipPath>
</defs>
<path clip-path="url(#clip540)" d="M0 1600 L2400 1600 L2400 0 L0 0  Z" fill="#ffffff" fill-rule="evenodd" fill-opacity="1"/>
<defs>
  <clipPath id="clip541">
    <rect x="480" y="0" width="1681" height="1600"/>
  </clipPath>
</defs>
<path clip-path="url(#clip540)" d="M86.9921 1521.01 L2352.76 1521.01 L2352.76 47.2441 L86.9921 47.2441  Z" fill="#ffffff" fill-rule="evenodd" fill-opacity="1"/>
<defs>
  <clipPath id="clip542">
    <rect x="86" y="47" width="2267" height="1475"/>
  </clipPath>
</defs>
<polyline clip-path="url(#clip542)" style="stroke:#000000; stroke-linecap:round; stroke-linejoin:round; stroke-width:2; stroke-opacity:0.1; fill:none" points="370.213,1521.01 370.213,47.2441 "/>
<polyline clip-path="url(#clip542)" style="stroke:#000000; stroke-linecap:round; stroke-linejoin:round; stroke-width:2; stroke-opacity:0.1; fill:none" points="795.043,1521.01 795.043,47.2441 "/>
<polyline clip-path="url(#clip542)" style="stroke:#000000; stroke-linecap:round; stroke-linejoin:round; stroke-width:2; stroke-opacity:0.1; fill:none" points="1219.87,1521.01 1219.87,47.2441 "/>
<polyline clip-path="url(#clip542)" style="stroke:#000000; stroke-linecap:round; stroke-linejoin:round; stroke-width:2; stroke-opacity:0.1; fill:none" points="1644.7,1521.01 1644.7,47.2441 "/>
<polyline clip-path="url(#clip542)" style="stroke:#000000; stroke-linecap:round; stroke-linejoin:round; stroke-width:2; stroke-opacity:0.1; fill:none" points="2069.54,1521.01 2069.54,47.2441 "/>
<polyline clip-path="url(#clip540)" style="stroke:#000000; stroke-linecap:round; stroke-linejoin:round; stroke-width:4; stroke-opacity:1; fill:none" points="86.9921,1521.01 2352.76,1521.01 "/>
<polyline clip-path="url(#clip540)" style="stroke:#000000; stroke-linecap:round; stroke-linejoin:round; stroke-width:4; stroke-opacity:1; fill:none" points="370.213,1521.01 370.213,1502.11 "/>
<polyline clip-path="url(#clip540)" style="stroke:#000000; stroke-linecap:round; stroke-linejoin:round; stroke-width:4; stroke-opacity:1; fill:none" points="795.043,1521.01 795.043,1502.11 "/>
<polyline clip-path="url(#clip540)" style="stroke:#000000; stroke-linecap:round; stroke-linejoin:round; stroke-width:4; stroke-opacity:1; fill:none" points="1219.87,1521.01 1219.87,1502.11 "/>
<polyline clip-path="url(#clip540)" style="stroke:#000000; stroke-linecap:round; stroke-linejoin:round; stroke-width:4; stroke-opacity:1; fill:none" points="1644.7,1521.01 1644.7,1502.11 "/>
<polyline clip-path="url(#clip540)" style="stroke:#000000; stroke-linecap:round; stroke-linejoin:round; stroke-width:4; stroke-opacity:1; fill:none" points="2069.54,1521.01 2069.54,1502.11 "/>
<path clip-path="url(#clip540)" d="M333.905 1579.47 L350.224 1579.47 L350.224 1583.41 L328.28 1583.41 L328.28 1579.47 Q330.942 1576.72 335.525 1572.09 Q340.132 1567.44 341.312 1566.09 Q343.558 1563.57 344.437 1561.83 Q345.34 1560.07 345.34 1558.38 Q345.34 1555.63 343.396 1553.89 Q341.474 1552.16 338.372 1552.16 Q336.173 1552.16 333.72 1552.92 Q331.289 1553.69 328.511 1555.24 L328.511 1550.51 Q331.335 1549.38 333.789 1548.8 Q336.243 1548.22 338.28 1548.22 Q343.65 1548.22 346.845 1550.91 Q350.039 1553.59 350.039 1558.08 Q350.039 1560.21 349.229 1562.13 Q348.442 1564.03 346.335 1566.63 Q345.757 1567.3 342.655 1570.51 Q339.553 1573.71 333.905 1579.47 Z" fill="#000000" fill-rule="nonzero" fill-opacity="1" /><path clip-path="url(#clip540)" d="M372.886 1552.92 L361.081 1571.37 L372.886 1571.37 L372.886 1552.92 M371.659 1548.85 L377.539 1548.85 L377.539 1571.37 L382.469 1571.37 L382.469 1575.26 L377.539 1575.26 L377.539 1583.41 L372.886 1583.41 L372.886 1575.26 L357.284 1575.26 L357.284 1570.75 L371.659 1548.85 Z" fill="#000000" fill-rule="nonzero" fill-opacity="1" /><path clip-path="url(#clip540)" d="M400.201 1551.93 Q396.59 1551.93 394.761 1555.49 Q392.956 1559.03 392.956 1566.16 Q392.956 1573.27 394.761 1576.83 Q396.59 1580.38 400.201 1580.38 Q403.835 1580.38 405.641 1576.83 Q407.469 1573.27 407.469 1566.16 Q407.469 1559.03 405.641 1555.49 Q403.835 1551.93 400.201 1551.93 M400.201 1548.22 Q406.011 1548.22 409.067 1552.83 Q412.145 1557.41 412.145 1566.16 Q412.145 1574.89 409.067 1579.5 Q406.011 1584.08 400.201 1584.08 Q394.391 1584.08 391.312 1579.5 Q388.256 1574.89 388.256 1566.16 Q388.256 1557.41 391.312 1552.83 Q394.391 1548.22 400.201 1548.22 Z" fill="#000000" fill-rule="nonzero" fill-opacity="1" /><path clip-path="url(#clip540)" d="M758.736 1579.47 L775.055 1579.47 L775.055 1583.41 L753.111 1583.41 L753.111 1579.47 Q755.773 1576.72 760.356 1572.09 Q764.962 1567.44 766.143 1566.09 Q768.388 1563.57 769.268 1561.83 Q770.171 1560.07 770.171 1558.38 Q770.171 1555.63 768.226 1553.89 Q766.305 1552.16 763.203 1552.16 Q761.004 1552.16 758.55 1552.92 Q756.12 1553.69 753.342 1555.24 L753.342 1550.51 Q756.166 1549.38 758.62 1548.8 Q761.074 1548.22 763.111 1548.22 Q768.481 1548.22 771.675 1550.91 Q774.87 1553.59 774.87 1558.08 Q774.87 1560.21 774.06 1562.13 Q773.273 1564.03 771.166 1566.63 Q770.587 1567.3 767.486 1570.51 Q764.384 1573.71 758.736 1579.47 Z" fill="#000000" fill-rule="nonzero" fill-opacity="1" /><path clip-path="url(#clip540)" d="M783.689 1548.85 L805.911 1548.85 L805.911 1550.84 L793.365 1583.41 L788.481 1583.41 L800.286 1552.78 L783.689 1552.78 L783.689 1548.85 Z" fill="#000000" fill-rule="nonzero" fill-opacity="1" /><path clip-path="url(#clip540)" d="M825.032 1551.93 Q821.42 1551.93 819.592 1555.49 Q817.786 1559.03 817.786 1566.16 Q817.786 1573.27 819.592 1576.83 Q821.42 1580.38 825.032 1580.38 Q828.666 1580.38 830.471 1576.83 Q832.3 1573.27 832.3 1566.16 Q832.3 1559.03 830.471 1555.49 Q828.666 1551.93 825.032 1551.93 M825.032 1548.22 Q830.842 1548.22 833.897 1552.83 Q836.976 1557.41 836.976 1566.16 Q836.976 1574.89 833.897 1579.5 Q830.842 1584.08 825.032 1584.08 Q819.221 1584.08 816.143 1579.5 Q813.087 1574.89 813.087 1566.16 Q813.087 1557.41 816.143 1552.83 Q819.221 1548.22 825.032 1548.22 Z" fill="#000000" fill-rule="nonzero" fill-opacity="1" /><path clip-path="url(#clip540)" d="M1193.64 1564.77 Q1196.99 1565.49 1198.87 1567.76 Q1200.77 1570.03 1200.77 1573.36 Q1200.77 1578.48 1197.25 1581.28 Q1193.73 1584.08 1187.25 1584.08 Q1185.07 1584.08 1182.76 1583.64 Q1180.46 1583.22 1178.01 1582.37 L1178.01 1577.85 Q1179.96 1578.99 1182.27 1579.57 Q1184.58 1580.14 1187.11 1580.14 Q1191.51 1580.14 1193.8 1578.41 Q1196.11 1576.67 1196.11 1573.36 Q1196.11 1570.31 1193.96 1568.59 Q1191.83 1566.86 1188.01 1566.86 L1183.98 1566.86 L1183.98 1563.01 L1188.2 1563.01 Q1191.65 1563.01 1193.47 1561.65 Q1195.3 1560.26 1195.3 1557.67 Q1195.3 1555.01 1193.4 1553.59 Q1191.53 1552.16 1188.01 1552.16 Q1186.09 1552.16 1183.89 1552.57 Q1181.69 1552.99 1179.05 1553.87 L1179.05 1549.7 Q1181.71 1548.96 1184.03 1548.59 Q1186.37 1548.22 1188.43 1548.22 Q1193.75 1548.22 1196.85 1550.65 Q1199.96 1553.06 1199.96 1557.18 Q1199.96 1560.05 1198.31 1562.04 Q1196.67 1564.01 1193.64 1564.77 Z" fill="#000000" fill-rule="nonzero" fill-opacity="1" /><path clip-path="url(#clip540)" d="M1219.63 1551.93 Q1216.02 1551.93 1214.19 1555.49 Q1212.39 1559.03 1212.39 1566.16 Q1212.39 1573.27 1214.19 1576.83 Q1216.02 1580.38 1219.63 1580.38 Q1223.27 1580.38 1225.07 1576.83 Q1226.9 1573.27 1226.9 1566.16 Q1226.9 1559.03 1225.07 1555.49 Q1223.27 1551.93 1219.63 1551.93 M1219.63 1548.22 Q1225.44 1548.22 1228.5 1552.83 Q1231.58 1557.41 1231.58 1566.16 Q1231.58 1574.89 1228.5 1579.5 Q1225.44 1584.08 1219.63 1584.08 Q1213.82 1584.08 1210.74 1579.5 Q1207.69 1574.89 1207.69 1566.16 Q1207.69 1557.41 1210.74 1552.83 Q1213.82 1548.22 1219.63 1548.22 Z" fill="#000000" fill-rule="nonzero" fill-opacity="1" /><path clip-path="url(#clip540)" d="M1249.79 1551.93 Q1246.18 1551.93 1244.35 1555.49 Q1242.55 1559.03 1242.55 1566.16 Q1242.55 1573.27 1244.35 1576.83 Q1246.18 1580.38 1249.79 1580.38 Q1253.43 1580.38 1255.23 1576.83 Q1257.06 1573.27 1257.06 1566.16 Q1257.06 1559.03 1255.23 1555.49 Q1253.43 1551.93 1249.79 1551.93 M1249.79 1548.22 Q1255.6 1548.22 1258.66 1552.83 Q1261.74 1557.41 1261.74 1566.16 Q1261.74 1574.89 1258.66 1579.5 Q1255.6 1584.08 1249.79 1584.08 Q1243.98 1584.08 1240.9 1579.5 Q1237.85 1574.89 1237.85 1566.16 Q1237.85 1557.41 1240.9 1552.83 Q1243.98 1548.22 1249.79 1548.22 Z" fill="#000000" fill-rule="nonzero" fill-opacity="1" /><path clip-path="url(#clip540)" d="M1618.47 1564.77 Q1621.82 1565.49 1623.7 1567.76 Q1625.6 1570.03 1625.6 1573.36 Q1625.6 1578.48 1622.08 1581.28 Q1618.56 1584.08 1612.08 1584.08 Q1609.9 1584.08 1607.59 1583.64 Q1605.3 1583.22 1602.84 1582.37 L1602.84 1577.85 Q1604.79 1578.99 1607.1 1579.57 Q1609.42 1580.14 1611.94 1580.14 Q1616.34 1580.14 1618.63 1578.41 Q1620.94 1576.67 1620.94 1573.36 Q1620.94 1570.31 1618.79 1568.59 Q1616.66 1566.86 1612.84 1566.86 L1608.81 1566.86 L1608.81 1563.01 L1613.03 1563.01 Q1616.48 1563.01 1618.3 1561.65 Q1620.13 1560.26 1620.13 1557.67 Q1620.13 1555.01 1618.23 1553.59 Q1616.36 1552.16 1612.84 1552.16 Q1610.92 1552.16 1608.72 1552.57 Q1606.52 1552.99 1603.88 1553.87 L1603.88 1549.7 Q1606.55 1548.96 1608.86 1548.59 Q1611.2 1548.22 1613.26 1548.22 Q1618.58 1548.22 1621.68 1550.65 Q1624.79 1553.06 1624.79 1557.18 Q1624.79 1560.05 1623.14 1562.04 Q1621.5 1564.01 1618.47 1564.77 Z" fill="#000000" fill-rule="nonzero" fill-opacity="1" /><path clip-path="url(#clip540)" d="M1648.63 1564.77 Q1651.98 1565.49 1653.86 1567.76 Q1655.76 1570.03 1655.76 1573.36 Q1655.76 1578.48 1652.24 1581.28 Q1648.72 1584.08 1642.24 1584.08 Q1640.06 1584.08 1637.75 1583.64 Q1635.46 1583.22 1633 1582.37 L1633 1577.85 Q1634.95 1578.99 1637.26 1579.57 Q1639.58 1580.14 1642.1 1580.14 Q1646.5 1580.14 1648.79 1578.41 Q1651.11 1576.67 1651.11 1573.36 Q1651.11 1570.31 1648.95 1568.59 Q1646.82 1566.86 1643 1566.86 L1638.98 1566.86 L1638.98 1563.01 L1643.19 1563.01 Q1646.64 1563.01 1648.47 1561.65 Q1650.29 1560.26 1650.29 1557.67 Q1650.29 1555.01 1648.4 1553.59 Q1646.52 1552.16 1643 1552.16 Q1641.08 1552.16 1638.88 1552.57 Q1636.68 1552.99 1634.05 1553.87 L1634.05 1549.7 Q1636.71 1548.96 1639.02 1548.59 Q1641.36 1548.22 1643.42 1548.22 Q1648.74 1548.22 1651.85 1550.65 Q1654.95 1553.06 1654.95 1557.18 Q1654.95 1560.05 1653.3 1562.04 Q1651.66 1564.01 1648.63 1564.77 Z" fill="#000000" fill-rule="nonzero" fill-opacity="1" /><path clip-path="url(#clip540)" d="M1674.62 1551.93 Q1671.01 1551.93 1669.18 1555.49 Q1667.38 1559.03 1667.38 1566.16 Q1667.38 1573.27 1669.18 1576.83 Q1671.01 1580.38 1674.62 1580.38 Q1678.26 1580.38 1680.06 1576.83 Q1681.89 1573.27 1681.89 1566.16 Q1681.89 1559.03 1680.06 1555.49 Q1678.26 1551.93 1674.62 1551.93 M1674.62 1548.22 Q1680.43 1548.22 1683.49 1552.83 Q1686.57 1557.41 1686.57 1566.16 Q1686.57 1574.89 1683.49 1579.5 Q1680.43 1584.08 1674.62 1584.08 Q1668.81 1584.08 1665.73 1579.5 Q1662.68 1574.89 1662.68 1566.16 Q1662.68 1557.41 1665.73 1552.83 Q1668.81 1548.22 1674.62 1548.22 Z" fill="#000000" fill-rule="nonzero" fill-opacity="1" /><path clip-path="url(#clip540)" d="M2043.3 1564.77 Q2046.65 1565.49 2048.53 1567.76 Q2050.43 1570.03 2050.43 1573.36 Q2050.43 1578.48 2046.91 1581.28 Q2043.39 1584.08 2036.91 1584.08 Q2034.73 1584.08 2032.42 1583.64 Q2030.13 1583.22 2027.67 1582.37 L2027.67 1577.85 Q2029.62 1578.99 2031.93 1579.57 Q2034.25 1580.14 2036.77 1580.14 Q2041.17 1580.14 2043.46 1578.41 Q2045.77 1576.67 2045.77 1573.36 Q2045.77 1570.31 2043.62 1568.59 Q2041.49 1566.86 2037.67 1566.86 L2033.64 1566.86 L2033.64 1563.01 L2037.86 1563.01 Q2041.31 1563.01 2043.14 1561.65 Q2044.96 1560.26 2044.96 1557.67 Q2044.96 1555.01 2043.07 1553.59 Q2041.19 1552.16 2037.67 1552.16 Q2035.75 1552.16 2033.55 1552.57 Q2031.35 1552.99 2028.71 1553.87 L2028.71 1549.7 Q2031.38 1548.96 2033.69 1548.59 Q2036.03 1548.22 2038.09 1548.22 Q2043.41 1548.22 2046.51 1550.65 Q2049.62 1553.06 2049.62 1557.18 Q2049.62 1560.05 2047.97 1562.04 Q2046.33 1564.01 2043.3 1564.77 Z" fill="#000000" fill-rule="nonzero" fill-opacity="1" /><path clip-path="url(#clip540)" d="M2069.87 1564.26 Q2066.72 1564.26 2064.87 1566.42 Q2063.04 1568.57 2063.04 1572.32 Q2063.04 1576.05 2064.87 1578.22 Q2066.72 1580.38 2069.87 1580.38 Q2073.02 1580.38 2074.85 1578.22 Q2076.7 1576.05 2076.7 1572.32 Q2076.7 1568.57 2074.85 1566.42 Q2073.02 1564.26 2069.87 1564.26 M2079.15 1549.61 L2079.15 1553.87 Q2077.39 1553.04 2075.59 1552.6 Q2073.81 1552.16 2072.05 1552.16 Q2067.42 1552.16 2064.96 1555.28 Q2062.53 1558.41 2062.19 1564.73 Q2063.55 1562.71 2065.61 1561.65 Q2067.67 1560.56 2070.15 1560.56 Q2075.36 1560.56 2078.37 1563.73 Q2081.4 1566.88 2081.4 1572.32 Q2081.4 1577.64 2078.25 1580.86 Q2075.1 1584.08 2069.87 1584.08 Q2063.88 1584.08 2060.7 1579.5 Q2057.53 1574.89 2057.53 1566.16 Q2057.53 1557.97 2061.42 1553.11 Q2065.31 1548.22 2071.86 1548.22 Q2073.62 1548.22 2075.4 1548.57 Q2077.21 1548.92 2079.15 1549.61 Z" fill="#000000" fill-rule="nonzero" fill-opacity="1" /><path clip-path="url(#clip540)" d="M2099.45 1551.93 Q2095.84 1551.93 2094.01 1555.49 Q2092.21 1559.03 2092.21 1566.16 Q2092.21 1573.27 2094.01 1576.83 Q2095.84 1580.38 2099.45 1580.38 Q2103.09 1580.38 2104.89 1576.83 Q2106.72 1573.27 2106.72 1566.16 Q2106.72 1559.03 2104.89 1555.49 Q2103.09 1551.93 2099.45 1551.93 M2099.45 1548.22 Q2105.26 1548.22 2108.32 1552.83 Q2111.4 1557.41 2111.4 1566.16 Q2111.4 1574.89 2108.32 1579.5 Q2105.26 1584.08 2099.45 1584.08 Q2093.64 1584.08 2090.57 1579.5 Q2087.51 1574.89 2087.51 1566.16 Q2087.51 1557.41 2090.57 1552.83 Q2093.64 1548.22 2099.45 1548.22 Z" fill="#000000" fill-rule="nonzero" fill-opacity="1" /><polyline clip-path="url(#clip542)" style="stroke:#000000; stroke-linecap:round; stroke-linejoin:round; stroke-width:2; stroke-opacity:0.1; fill:none" points="86.9921,1479.3 2352.76,1479.3 "/>
<polyline clip-path="url(#clip542)" style="stroke:#000000; stroke-linecap:round; stroke-linejoin:round; stroke-width:2; stroke-opacity:0.1; fill:none" points="86.9921,1226.51 2352.76,1226.51 "/>
<polyline clip-path="url(#clip542)" style="stroke:#000000; stroke-linecap:round; stroke-linejoin:round; stroke-width:2; stroke-opacity:0.1; fill:none" points="86.9921,973.718 2352.76,973.718 "/>
<polyline clip-path="url(#clip542)" style="stroke:#000000; stroke-linecap:round; stroke-linejoin:round; stroke-width:2; stroke-opacity:0.1; fill:none" points="86.9921,720.929 2352.76,720.929 "/>
<polyline clip-path="url(#clip542)" style="stroke:#000000; stroke-linecap:round; stroke-linejoin:round; stroke-width:2; stroke-opacity:0.1; fill:none" points="86.9921,468.139 2352.76,468.139 "/>
<polyline clip-path="url(#clip542)" style="stroke:#000000; stroke-linecap:round; stroke-linejoin:round; stroke-width:2; stroke-opacity:0.1; fill:none" points="86.9921,215.349 2352.76,215.349 "/>
<polyline clip-path="url(#clip540)" style="stroke:#000000; stroke-linecap:round; stroke-linejoin:round; stroke-width:4; stroke-opacity:1; fill:none" points="86.9921,1521.01 86.9921,47.2441 "/>
<polyline clip-path="url(#clip540)" style="stroke:#000000; stroke-linecap:round; stroke-linejoin:round; stroke-width:4; stroke-opacity:1; fill:none" points="86.9921,1479.3 105.89,1479.3 "/>
<polyline clip-path="url(#clip540)" style="stroke:#000000; stroke-linecap:round; stroke-linejoin:round; stroke-width:4; stroke-opacity:1; fill:none" points="86.9921,1226.51 105.89,1226.51 "/>
<polyline clip-path="url(#clip540)" style="stroke:#000000; stroke-linecap:round; stroke-linejoin:round; stroke-width:4; stroke-opacity:1; fill:none" points="86.9921,973.718 105.89,973.718 "/>
<polyline clip-path="url(#clip540)" style="stroke:#000000; stroke-linecap:round; stroke-linejoin:round; stroke-width:4; stroke-opacity:1; fill:none" points="86.9921,720.929 105.89,720.929 "/>
<polyline clip-path="url(#clip540)" style="stroke:#000000; stroke-linecap:round; stroke-linejoin:round; stroke-width:4; stroke-opacity:1; fill:none" points="86.9921,468.139 105.89,468.139 "/>
<polyline clip-path="url(#clip540)" style="stroke:#000000; stroke-linecap:round; stroke-linejoin:round; stroke-width:4; stroke-opacity:1; fill:none" points="86.9921,215.349 105.89,215.349 "/>
<path clip-path="url(#clip540)" d="M10.8708 1479.3 Q10.8708 1482.91 14.4356 1484.74 Q17.9773 1486.54 25.1068 1486.54 Q32.2133 1486.54 35.7781 1484.74 Q39.3197 1482.91 39.3197 1479.3 Q39.3197 1475.66 35.7781 1473.86 Q32.2133 1472.03 25.1068 1472.03 Q17.9773 1472.03 14.4356 1473.86 Q10.8708 1475.66 10.8708 1479.3 M7.16713 1479.3 Q7.16713 1473.49 11.7736 1470.43 Q16.3569 1467.35 25.1068 1467.35 Q33.8337 1467.35 38.4401 1470.43 Q43.0234 1473.49 43.0234 1479.3 Q43.0234 1485.11 38.4401 1488.19 Q33.8337 1491.24 25.1068 1491.24 Q16.3569 1491.24 11.7736 1488.19 Q7.16713 1485.11 7.16713 1479.3 Z" fill="#000000" fill-rule="nonzero" fill-opacity="1" /><path clip-path="url(#clip540)" d="M38.417 1266.9 L38.417 1259.26 L12.0514 1259.26 L13.718 1267.57 L9.45878 1267.57 L7.79213 1259.31 L7.79213 1254.63 L38.417 1254.63 L38.417 1246.99 L42.3521 1246.99 L42.3521 1266.9 L38.417 1266.9 Z" fill="#000000" fill-rule="nonzero" fill-opacity="1" /><path clip-path="url(#clip540)" d="M10.8708 1227.55 Q10.8708 1231.16 14.4356 1232.99 Q17.9773 1234.79 25.1068 1234.79 Q32.2133 1234.79 35.7781 1232.99 Q39.3197 1231.16 39.3197 1227.55 Q39.3197 1223.92 35.7781 1222.11 Q32.2133 1220.28 25.1068 1220.28 Q17.9773 1220.28 14.4356 1222.11 Q10.8708 1223.92 10.8708 1227.55 M7.16713 1227.55 Q7.16713 1221.74 11.7736 1218.68 Q16.3569 1215.61 25.1068 1215.61 Q33.8337 1215.61 38.4401 1218.68 Q43.0234 1221.74 43.0234 1227.55 Q43.0234 1233.36 38.4401 1236.44 Q33.8337 1239.49 25.1068 1239.49 Q16.3569 1239.49 11.7736 1236.44 Q7.16713 1233.36 7.16713 1227.55 Z" fill="#000000" fill-rule="nonzero" fill-opacity="1" /><path clip-path="url(#clip540)" d="M10.8708 1197.39 Q10.8708 1201 14.4356 1202.83 Q17.9773 1204.63 25.1068 1204.63 Q32.2133 1204.63 35.7781 1202.83 Q39.3197 1201 39.3197 1197.39 Q39.3197 1193.75 35.7781 1191.95 Q32.2133 1190.12 25.1068 1190.12 Q17.9773 1190.12 14.4356 1191.95 Q10.8708 1193.75 10.8708 1197.39 M7.16713 1197.39 Q7.16713 1191.58 11.7736 1188.52 Q16.3569 1185.44 25.1068 1185.44 Q33.8337 1185.44 38.4401 1188.52 Q43.0234 1191.58 43.0234 1197.39 Q43.0234 1203.2 38.4401 1206.28 Q33.8337 1209.33 25.1068 1209.33 Q16.3569 1209.33 11.7736 1206.28 Q7.16713 1203.2 7.16713 1197.39 Z" fill="#000000" fill-rule="nonzero" fill-opacity="1" /><path clip-path="url(#clip540)" d="M38.417 1010.03 L38.417 993.707 L42.3521 993.707 L42.3521 1015.65 L38.417 1015.65 Q35.6623 1012.99 31.0327 1008.41 Q26.38 1003.8 25.0374 1002.62 Q22.5143 1000.37 20.7782 999.494 Q19.0189 998.591 17.3291 998.591 Q14.5745 998.591 12.8384 1000.54 Q11.1023 1002.46 11.1023 1005.56 Q11.1023 1007.76 11.8662 1010.21 Q12.6301 1012.64 14.181 1015.42 L9.45878 1015.42 Q8.32453 1012.6 7.74583 1010.14 Q7.16713 1007.69 7.16713 1005.65 Q7.16713 1000.28 9.8523 997.086 Q12.5375 993.892 17.0282 993.892 Q19.1578 993.892 21.0791 994.702 Q22.9772 995.489 25.5698 997.595 Q26.2411 998.174 29.4587 1001.28 Q32.6531 1004.38 38.417 1010.03 Z" fill="#000000" fill-rule="nonzero" fill-opacity="1" /><path clip-path="url(#clip540)" d="M10.8708 973.892 Q10.8708 977.503 14.4356 979.332 Q17.9773 981.137 25.1068 981.137 Q32.2133 981.137 35.7781 979.332 Q39.3197 977.503 39.3197 973.892 Q39.3197 970.258 35.7781 968.452 Q32.2133 966.623 25.1068 966.623 Q17.9773 966.623 14.4356 968.452 Q10.8708 970.258 10.8708 973.892 M7.16713 973.892 Q7.16713 968.082 11.7736 965.026 Q16.3569 961.947 25.1068 961.947 Q33.8337 961.947 38.4401 965.026 Q43.0234 968.082 43.0234 973.892 Q43.0234 979.702 38.4401 982.781 Q33.8337 985.836 25.1068 985.836 Q16.3569 985.836 11.7736 982.781 Q7.16713 979.702 7.16713 973.892 Z" fill="#000000" fill-rule="nonzero" fill-opacity="1" /><path clip-path="url(#clip540)" d="M10.8708 943.73 Q10.8708 947.341 14.4356 949.17 Q17.9773 950.975 25.1068 950.975 Q32.2133 950.975 35.7781 949.17 Q39.3197 947.341 39.3197 943.73 Q39.3197 940.096 35.7781 938.29 Q32.2133 936.461 25.1068 936.461 Q17.9773 936.461 14.4356 938.29 Q10.8708 940.096 10.8708 943.73 M7.16713 943.73 Q7.16713 937.92 11.7736 934.864 Q16.3569 931.786 25.1068 931.786 Q33.8337 931.786 38.4401 934.864 Q43.0234 937.92 43.0234 943.73 Q43.0234 949.54 38.4401 952.619 Q33.8337 955.674 25.1068 955.674 Q16.3569 955.674 11.7736 952.619 Q7.16713 949.54 7.16713 943.73 Z" fill="#000000" fill-rule="nonzero" fill-opacity="1" /><path clip-path="url(#clip540)" d="M23.718 747.167 Q24.4356 743.81 26.7041 741.935 Q28.9726 740.037 32.3059 740.037 Q37.4216 740.037 40.2225 743.556 Q43.0234 747.074 43.0234 753.556 Q43.0234 755.732 42.5836 758.046 Q42.1669 760.338 41.3105 762.792 L36.7966 762.792 Q37.9309 760.847 38.5096 758.533 Q39.0883 756.218 39.0883 753.695 Q39.0883 749.296 37.3522 747.005 Q35.6161 744.69 32.3059 744.69 Q29.2503 744.69 27.5374 746.843 Q25.8013 748.972 25.8013 752.792 L25.8013 756.82 L21.9587 756.82 L21.9587 752.607 Q21.9587 749.158 20.593 747.329 Q19.2041 745.5 16.6115 745.5 Q13.9495 745.5 12.5375 747.398 Q11.1023 749.273 11.1023 752.792 Q11.1023 754.713 11.519 756.912 Q11.9356 759.111 12.8152 761.75 L8.6486 761.75 Q7.90787 759.088 7.5375 756.773 Q7.16713 754.435 7.16713 752.375 Q7.16713 747.051 9.59767 743.949 Q12.0051 740.847 16.1254 740.847 Q18.9958 740.847 20.9865 742.491 Q22.9541 744.134 23.718 747.167 Z" fill="#000000" fill-rule="nonzero" fill-opacity="1" /><path clip-path="url(#clip540)" d="M10.8708 721.172 Q10.8708 724.783 14.4356 726.611 Q17.9773 728.417 25.1068 728.417 Q32.2133 728.417 35.7781 726.611 Q39.3197 724.783 39.3197 721.172 Q39.3197 717.537 35.7781 715.732 Q32.2133 713.903 25.1068 713.903 Q17.9773 713.903 14.4356 715.732 Q10.8708 717.537 10.8708 721.172 M7.16713 721.172 Q7.16713 715.361 11.7736 712.306 Q16.3569 709.227 25.1068 709.227 Q33.8337 709.227 38.4401 712.306 Q43.0234 715.361 43.0234 721.172 Q43.0234 726.982 38.4401 730.06 Q33.8337 733.116 25.1068 733.116 Q16.3569 733.116 11.7736 730.06 Q7.16713 726.982 7.16713 721.172 Z" fill="#000000" fill-rule="nonzero" fill-opacity="1" /><path clip-path="url(#clip540)" d="M10.8708 691.01 Q10.8708 694.621 14.4356 696.45 Q17.9773 698.255 25.1068 698.255 Q32.2133 698.255 35.7781 696.45 Q39.3197 694.621 39.3197 691.01 Q39.3197 687.376 35.7781 685.57 Q32.2133 683.741 25.1068 683.741 Q17.9773 683.741 14.4356 685.57 Q10.8708 687.376 10.8708 691.01 M7.16713 691.01 Q7.16713 685.2 11.7736 682.144 Q16.3569 679.065 25.1068 679.065 Q33.8337 679.065 38.4401 682.144 Q43.0234 685.2 43.0234 691.01 Q43.0234 696.82 38.4401 699.899 Q33.8337 702.954 25.1068 702.954 Q16.3569 702.954 11.7736 699.899 Q7.16713 696.82 7.16713 691.01 Z" fill="#000000" fill-rule="nonzero" fill-opacity="1" /><path clip-path="url(#clip540)" d="M11.8662 495.048 L30.3152 506.854 L30.3152 495.048 L11.8662 495.048 M7.79213 496.275 L7.79213 490.396 L30.3152 490.396 L30.3152 485.465 L34.204 485.465 L34.204 490.396 L42.3521 490.396 L42.3521 495.048 L34.204 495.048 L34.204 510.65 L29.6902 510.65 L7.79213 496.275 Z" fill="#000000" fill-rule="nonzero" fill-opacity="1" /><path clip-path="url(#clip540)" d="M10.8708 467.734 Q10.8708 471.345 14.4356 473.174 Q17.9773 474.979 25.1068 474.979 Q32.2133 474.979 35.7781 473.174 Q39.3197 471.345 39.3197 467.734 Q39.3197 464.1 35.7781 462.294 Q32.2133 460.465 25.1068 460.465 Q17.9773 460.465 14.4356 462.294 Q10.8708 464.1 10.8708 467.734 M7.16713 467.734 Q7.16713 461.924 11.7736 458.868 Q16.3569 455.789 25.1068 455.789 Q33.8337 455.789 38.4401 458.868 Q43.0234 461.924 43.0234 467.734 Q43.0234 473.544 38.4401 476.623 Q33.8337 479.678 25.1068 479.678 Q16.3569 479.678 11.7736 476.623 Q7.16713 473.544 7.16713 467.734 Z" fill="#000000" fill-rule="nonzero" fill-opacity="1" /><path clip-path="url(#clip540)" d="M10.8708 437.572 Q10.8708 441.183 14.4356 443.012 Q17.9773 444.817 25.1068 444.817 Q32.2133 444.817 35.7781 443.012 Q39.3197 441.183 39.3197 437.572 Q39.3197 433.938 35.7781 432.132 Q32.2133 430.303 25.1068 430.303 Q17.9773 430.303 14.4356 432.132 Q10.8708 433.938 10.8708 437.572 M7.16713 437.572 Q7.16713 431.762 11.7736 428.706 Q16.3569 425.628 25.1068 425.628 Q33.8337 425.628 38.4401 428.706 Q43.0234 431.762 43.0234 437.572 Q43.0234 443.382 38.4401 446.461 Q33.8337 449.516 25.1068 449.516 Q16.3569 449.516 11.7736 446.461 Q7.16713 443.382 7.16713 437.572 Z" fill="#000000" fill-rule="nonzero" fill-opacity="1" /><path clip-path="url(#clip540)" d="M7.79213 255.731 L7.79213 237.375 L11.7273 237.375 L11.7273 251.449 L20.1995 251.449 Q19.8522 250.43 19.6902 249.412 Q19.505 248.393 19.505 247.375 Q19.505 241.588 22.6763 238.208 Q25.8476 234.828 31.2642 234.828 Q36.8429 234.828 39.9447 238.3 Q43.0234 241.773 43.0234 248.092 Q43.0234 250.268 42.6531 252.537 Q42.2827 254.782 41.5419 257.189 L36.8429 257.189 Q37.9771 255.106 38.5327 252.884 Q39.0883 250.662 39.0883 248.185 Q39.0883 244.18 36.9818 241.842 Q34.8753 239.504 31.2642 239.504 Q27.6531 239.504 25.5467 241.842 Q23.4402 244.18 23.4402 248.185 Q23.4402 250.06 23.8569 251.935 Q24.2735 253.787 25.1531 255.731 L7.79213 255.731 Z" fill="#000000" fill-rule="nonzero" fill-opacity="1" /><path clip-path="url(#clip540)" d="M10.8708 215.615 Q10.8708 219.227 14.4356 221.055 Q17.9773 222.861 25.1068 222.861 Q32.2133 222.861 35.7781 221.055 Q39.3197 219.227 39.3197 215.615 Q39.3197 211.981 35.7781 210.176 Q32.2133 208.347 25.1068 208.347 Q17.9773 208.347 14.4356 210.176 Q10.8708 211.981 10.8708 215.615 M7.16713 215.615 Q7.16713 209.805 11.7736 206.75 Q16.3569 203.671 25.1068 203.671 Q33.8337 203.671 38.4401 206.75 Q43.0234 209.805 43.0234 215.615 Q43.0234 221.426 38.4401 224.504 Q33.8337 227.56 25.1068 227.56 Q16.3569 227.56 11.7736 224.504 Q7.16713 221.426 7.16713 215.615 Z" fill="#000000" fill-rule="nonzero" fill-opacity="1" /><path clip-path="url(#clip540)" d="M10.8708 185.454 Q10.8708 189.065 14.4356 190.893 Q17.9773 192.699 25.1068 192.699 Q32.2133 192.699 35.7781 190.893 Q39.3197 189.065 39.3197 185.454 Q39.3197 181.819 35.7781 180.014 Q32.2133 178.185 25.1068 178.185 Q17.9773 178.185 14.4356 180.014 Q10.8708 181.819 10.8708 185.454 M7.16713 185.454 Q7.16713 179.643 11.7736 176.588 Q16.3569 173.509 25.1068 173.509 Q33.8337 173.509 38.4401 176.588 Q43.0234 179.643 43.0234 185.454 Q43.0234 191.264 38.4401 194.342 Q33.8337 197.398 25.1068 197.398 Q16.3569 197.398 11.7736 194.342 Q7.16713 191.264 7.16713 185.454 Z" fill="#000000" fill-rule="nonzero" fill-opacity="1" /><polyline clip-path="url(#clip542)" style="stroke:#009af9; stroke-linecap:round; stroke-linejoin:round; stroke-width:4; stroke-opacity:1; fill:none" points="228.602,1479.3 228.602,1476.77 299.407,1476.77 299.407,1471.71 370.213,1471.71 370.213,1464.13 441.018,1464.13 441.018,1428.74 511.823,1428.74 511.823,1380.71 582.628,1380.71 582.628,1302.34 653.433,1302.34 653.433,1181.01 724.238,1181.01 724.238,1034.39 795.043,1034.39 795.043,824.572 865.848,824.572 865.848,536.392 936.654,536.392 936.654,286.13 1007.46,286.13 1007.46,200.182 1078.26,200.182 1078.26,119.289 1149.07,119.289 1149.07,88.9544 1219.87,88.9544 1219.87,270.963 1290.68,270.963 1290.68,450.444 1361.48,450.444 1361.48,602.117 1432.29,602.117 1432.29,814.461 1503.09,814.461 1503.09,1095.06 1573.9,1095.06 1573.9,1229.04 1644.7,1229.04 1644.7,1357.96 1715.51,1357.96 1715.51,1370.6 1786.31,1370.6 1786.31,1433.8 1857.12,1433.8 1857.12,1454.02 1927.93,1454.02 1927.93,1471.71 1998.73,1471.71 1998.73,1476.77 2069.54,1476.77 2069.54,1479.3 "/>
<polyline clip-path="url(#clip542)" style="stroke:#e26f46; stroke-linecap:round; stroke-linejoin:round; stroke-width:4; stroke-opacity:1; fill:none" points="370.213,1479.3 370.213,1474.24 441.018,1474.24 441.018,1476.77 511.823,1476.77 511.823,1459.07 582.628,1459.07 582.628,1441.38 653.433,1441.38 653.433,1393.35 724.238,1393.35 724.238,1360.49 795.043,1360.49 795.043,1302.34 865.848,1302.34 865.848,1135.5 936.654,1135.5 936.654,905.465 1007.46,905.465 1007.46,690.594 1078.26,690.594 1078.26,478.25 1149.07,478.25 1149.07,197.654 1219.87,197.654 1219.87,99.066 1290.68,99.066 1290.68,111.705 1361.48,111.705 1361.48,233.045 1432.29,233.045 1432.29,278.547 1503.09,278.547 1503.09,523.753 1573.9,523.753 1573.9,728.512 1644.7,728.512 1644.7,920.632 1715.51,920.632 1715.51,1165.84 1786.31,1165.84 1786.31,1241.68 1857.12,1241.68 1857.12,1395.88 1927.93,1395.88 1927.93,1416.1 1998.73,1416.1 1998.73,1454.02 2069.54,1454.02 2069.54,1466.66 2140.34,1466.66 2140.34,1474.24 2211.15,1474.24 2211.15,1479.3 2281.95,1479.3 2352.76,1479.3 2352.76,1476.77 2423.56,1476.77 2423.56,1479.3 "/>
<path clip-path="url(#clip540)" d="M1593.69 251.89 L2277.23 251.89 L2277.23 96.3696 L1593.69 96.3696  Z" fill="#ffffff" fill-rule="evenodd" fill-opacity="1"/>
<polyline clip-path="url(#clip540)" style="stroke:#000000; stroke-linecap:round; stroke-linejoin:round; stroke-width:4; stroke-opacity:1; fill:none" points="1593.69,251.89 2277.23,251.89 2277.23,96.3696 1593.69,96.3696 1593.69,251.89 "/>
<polyline clip-path="url(#clip540)" style="stroke:#009af9; stroke-linecap:round; stroke-linejoin:round; stroke-width:4; stroke-opacity:1; fill:none" points="1618.86,148.21 1769.91,148.21 "/>
<path clip-path="url(#clip540)" d="M1799.37 161.601 L1799.37 175.351 L1795.09 175.351 L1795.09 139.564 L1799.37 139.564 L1799.37 143.499 Q1800.72 141.184 1802.75 140.073 Q1804.81 138.939 1807.66 138.939 Q1812.38 138.939 1815.32 142.689 Q1818.28 146.439 1818.28 152.55 Q1818.28 158.661 1815.32 162.411 Q1812.38 166.161 1807.66 166.161 Q1804.81 166.161 1802.75 165.05 Q1800.72 163.915 1799.37 161.601 M1813.86 152.55 Q1813.86 147.851 1811.92 145.189 Q1810 142.504 1806.62 142.504 Q1803.24 142.504 1801.29 145.189 Q1799.37 147.851 1799.37 152.55 Q1799.37 157.249 1801.29 159.934 Q1803.24 162.596 1806.62 162.596 Q1810 162.596 1811.92 159.934 Q1813.86 157.249 1813.86 152.55 Z" fill="#000000" fill-rule="nonzero" fill-opacity="1" /><path clip-path="url(#clip540)" d="M1840.37 143.545 Q1839.65 143.129 1838.79 142.943 Q1837.96 142.735 1836.94 142.735 Q1833.33 142.735 1831.39 145.096 Q1829.46 147.434 1829.46 151.832 L1829.46 165.49 L1825.18 165.49 L1825.18 139.564 L1829.46 139.564 L1829.46 143.592 Q1830.81 141.23 1832.96 140.096 Q1835.11 138.939 1838.19 138.939 Q1838.63 138.939 1839.16 139.008 Q1839.7 139.055 1840.34 139.17 L1840.37 143.545 Z" fill="#000000" fill-rule="nonzero" fill-opacity="1" /><path clip-path="url(#clip540)" d="M1865.97 151.462 L1865.97 153.545 L1846.39 153.545 Q1846.66 157.943 1849.03 160.258 Q1851.41 162.55 1855.65 162.55 Q1858.1 162.55 1860.39 161.948 Q1862.71 161.346 1864.97 160.142 L1864.97 164.17 Q1862.68 165.142 1860.27 165.652 Q1857.87 166.161 1855.39 166.161 Q1849.19 166.161 1845.55 162.55 Q1841.94 158.939 1841.94 152.781 Q1841.94 146.416 1845.37 142.689 Q1848.82 138.939 1854.65 138.939 Q1859.88 138.939 1862.91 142.318 Q1865.97 145.675 1865.97 151.462 M1861.71 150.212 Q1861.66 146.717 1859.74 144.633 Q1857.84 142.55 1854.7 142.55 Q1851.13 142.55 1848.98 144.564 Q1846.85 146.578 1846.53 150.235 L1861.71 150.212 Z" fill="#000000" fill-rule="nonzero" fill-opacity="1" /><path clip-path="url(#clip540)" d="M1870.81 150.605 L1883.28 150.605 L1883.28 154.402 L1870.81 154.402 L1870.81 150.605 Z" fill="#000000" fill-rule="nonzero" fill-opacity="1" /><path clip-path="url(#clip540)" d="M1907.13 143.499 L1907.13 129.471 L1911.39 129.471 L1911.39 165.49 L1907.13 165.49 L1907.13 161.601 Q1905.78 163.915 1903.72 165.05 Q1901.69 166.161 1898.82 166.161 Q1894.12 166.161 1891.15 162.411 Q1888.21 158.661 1888.21 152.55 Q1888.21 146.439 1891.15 142.689 Q1894.12 138.939 1898.82 138.939 Q1901.69 138.939 1903.72 140.073 Q1905.78 141.184 1907.13 143.499 M1892.61 152.55 Q1892.61 157.249 1894.53 159.934 Q1896.48 162.596 1899.86 162.596 Q1903.24 162.596 1905.18 159.934 Q1907.13 157.249 1907.13 152.55 Q1907.13 147.851 1905.18 145.189 Q1903.24 142.504 1899.86 142.504 Q1896.48 142.504 1894.53 145.189 Q1892.61 147.851 1892.61 152.55 Z" fill="#000000" fill-rule="nonzero" fill-opacity="1" /><path clip-path="url(#clip540)" d="M1942.33 151.462 L1942.33 153.545 L1922.75 153.545 Q1923.03 157.943 1925.39 160.258 Q1927.77 162.55 1932.01 162.55 Q1934.46 162.55 1936.76 161.948 Q1939.07 161.346 1941.34 160.142 L1941.34 164.17 Q1939.05 165.142 1936.64 165.652 Q1934.23 166.161 1931.76 166.161 Q1925.55 166.161 1921.92 162.55 Q1918.31 158.939 1918.31 152.781 Q1918.31 146.416 1921.73 142.689 Q1925.18 138.939 1931.02 138.939 Q1936.25 138.939 1939.28 142.318 Q1942.33 145.675 1942.33 151.462 M1938.08 150.212 Q1938.03 146.717 1936.11 144.633 Q1934.21 142.55 1931.06 142.55 Q1927.5 142.55 1925.34 144.564 Q1923.21 146.578 1922.89 150.235 L1938.08 150.212 Z" fill="#000000" fill-rule="nonzero" fill-opacity="1" /><path clip-path="url(#clip540)" d="M1967.94 152.55 Q1967.94 147.851 1965.99 145.189 Q1964.07 142.504 1960.69 142.504 Q1957.31 142.504 1955.37 145.189 Q1953.45 147.851 1953.45 152.55 Q1953.45 157.249 1955.37 159.934 Q1957.31 162.596 1960.69 162.596 Q1964.07 162.596 1965.99 159.934 Q1967.94 157.249 1967.94 152.55 M1953.45 143.499 Q1954.79 141.184 1956.83 140.073 Q1958.89 138.939 1961.73 138.939 Q1966.45 138.939 1969.39 142.689 Q1972.36 146.439 1972.36 152.55 Q1972.36 158.661 1969.39 162.411 Q1966.45 166.161 1961.73 166.161 Q1958.89 166.161 1956.83 165.05 Q1954.79 163.915 1953.45 161.601 L1953.45 165.49 L1949.16 165.49 L1949.16 129.471 L1953.45 129.471 L1953.45 143.499 Z" fill="#000000" fill-rule="nonzero" fill-opacity="1" /><path clip-path="url(#clip540)" d="M1991.2 152.457 Q1986.04 152.457 1984.05 153.638 Q1982.06 154.818 1982.06 157.666 Q1982.06 159.934 1983.54 161.277 Q1985.04 162.596 1987.61 162.596 Q1991.15 162.596 1993.28 160.096 Q1995.44 157.573 1995.44 153.406 L1995.44 152.457 L1991.2 152.457 M1999.7 150.698 L1999.7 165.49 L1995.44 165.49 L1995.44 161.554 Q1993.98 163.915 1991.8 165.05 Q1989.63 166.161 1986.48 166.161 Q1982.5 166.161 1980.14 163.939 Q1977.8 161.693 1977.8 157.943 Q1977.8 153.568 1980.71 151.346 Q1983.65 149.124 1989.46 149.124 L1995.44 149.124 L1995.44 148.707 Q1995.44 145.767 1993.49 144.17 Q1991.57 142.55 1988.08 142.55 Q1985.85 142.55 1983.75 143.082 Q1981.64 143.615 1979.7 144.679 L1979.7 140.744 Q1982.03 139.842 1984.23 139.402 Q1986.43 138.939 1988.52 138.939 Q1994.14 138.939 1996.92 141.855 Q1999.7 144.772 1999.7 150.698 Z" fill="#000000" fill-rule="nonzero" fill-opacity="1" /><path clip-path="url(#clip540)" d="M2012.68 132.203 L2012.68 139.564 L2021.45 139.564 L2021.45 142.874 L2012.68 142.874 L2012.68 156.948 Q2012.68 160.119 2013.54 161.022 Q2014.42 161.925 2017.08 161.925 L2021.45 161.925 L2021.45 165.49 L2017.08 165.49 Q2012.15 165.49 2010.27 163.661 Q2008.4 161.809 2008.4 156.948 L2008.4 142.874 L2005.27 142.874 L2005.27 139.564 L2008.4 139.564 L2008.4 132.203 L2012.68 132.203 Z" fill="#000000" fill-rule="nonzero" fill-opacity="1" /><path clip-path="url(#clip540)" d="M2049.23 151.462 L2049.23 153.545 L2029.65 153.545 Q2029.93 157.943 2032.29 160.258 Q2034.67 162.55 2038.91 162.55 Q2041.36 162.55 2043.65 161.948 Q2045.97 161.346 2048.24 160.142 L2048.24 164.17 Q2045.95 165.142 2043.54 165.652 Q2041.13 166.161 2038.65 166.161 Q2032.45 166.161 2028.82 162.55 Q2025.2 158.939 2025.2 152.781 Q2025.2 146.416 2028.63 142.689 Q2032.08 138.939 2037.91 138.939 Q2043.14 138.939 2046.18 142.318 Q2049.23 145.675 2049.23 151.462 M2044.97 150.212 Q2044.93 146.717 2043.01 144.633 Q2041.11 142.55 2037.96 142.55 Q2034.39 142.55 2032.24 144.564 Q2030.11 146.578 2029.79 150.235 L2044.97 150.212 Z" fill="#000000" fill-rule="nonzero" fill-opacity="1" /><path clip-path="url(#clip540)" d="M2076.15 148.985 L2076.15 161.647 L2083.65 161.647 Q2087.43 161.647 2089.23 160.096 Q2091.06 158.522 2091.06 155.304 Q2091.06 152.064 2089.23 150.536 Q2087.43 148.985 2083.65 148.985 L2076.15 148.985 M2076.15 134.772 L2076.15 145.189 L2083.07 145.189 Q2086.5 145.189 2088.17 143.916 Q2089.86 142.619 2089.86 139.98 Q2089.86 137.365 2088.17 136.068 Q2086.5 134.772 2083.07 134.772 L2076.15 134.772 M2071.48 130.93 L2083.42 130.93 Q2088.77 130.93 2091.66 133.152 Q2094.56 135.374 2094.56 139.471 Q2094.56 142.642 2093.07 144.517 Q2091.59 146.392 2088.72 146.855 Q2092.17 147.596 2094.07 149.957 Q2095.99 152.295 2095.99 155.814 Q2095.99 160.443 2092.84 162.966 Q2089.7 165.49 2083.88 165.49 L2071.48 165.49 L2071.48 130.93 Z" fill="#000000" fill-rule="nonzero" fill-opacity="1" /><path clip-path="url(#clip540)" d="M2103.38 155.258 L2103.38 139.564 L2107.63 139.564 L2107.63 155.096 Q2107.63 158.777 2109.07 160.628 Q2110.51 162.457 2113.38 162.457 Q2116.82 162.457 2118.82 160.258 Q2120.83 158.059 2120.83 154.263 L2120.83 139.564 L2125.09 139.564 L2125.09 165.49 L2120.83 165.49 L2120.83 161.508 Q2119.28 163.869 2117.22 165.027 Q2115.18 166.161 2112.47 166.161 Q2108.01 166.161 2105.69 163.383 Q2103.38 160.605 2103.38 155.258 M2114.09 138.939 L2114.09 138.939 Z" fill="#000000" fill-rule="nonzero" fill-opacity="1" /><path clip-path="url(#clip540)" d="M2150.39 140.328 L2150.39 144.355 Q2148.58 143.429 2146.64 142.967 Q2144.69 142.504 2142.61 142.504 Q2139.44 142.504 2137.84 143.476 Q2136.27 144.448 2136.27 146.392 Q2136.27 147.874 2137.4 148.73 Q2138.54 149.564 2141.96 150.328 L2143.42 150.652 Q2147.96 151.624 2149.86 153.406 Q2151.78 155.166 2151.78 158.337 Q2151.78 161.948 2148.91 164.054 Q2146.06 166.161 2141.06 166.161 Q2138.98 166.161 2136.71 165.744 Q2134.46 165.351 2131.96 164.54 L2131.96 160.142 Q2134.32 161.369 2136.62 161.994 Q2138.91 162.596 2141.15 162.596 Q2144.16 162.596 2145.78 161.578 Q2147.4 160.536 2147.4 158.661 Q2147.4 156.925 2146.22 155.999 Q2145.07 155.073 2141.11 154.216 L2139.63 153.869 Q2135.67 153.036 2133.91 151.323 Q2132.15 149.587 2132.15 146.578 Q2132.15 142.92 2134.74 140.93 Q2137.33 138.939 2142.1 138.939 Q2144.46 138.939 2146.55 139.286 Q2148.63 139.633 2150.39 140.328 Z" fill="#000000" fill-rule="nonzero" fill-opacity="1" /><path clip-path="url(#clip540)" d="M2180.11 149.841 L2180.11 165.49 L2175.85 165.49 L2175.85 149.98 Q2175.85 146.3 2174.42 144.471 Q2172.98 142.642 2170.11 142.642 Q2166.66 142.642 2164.67 144.842 Q2162.68 147.041 2162.68 150.837 L2162.68 165.49 L2158.4 165.49 L2158.4 129.471 L2162.68 129.471 L2162.68 143.592 Q2164.21 141.254 2166.27 140.096 Q2168.35 138.939 2171.06 138.939 Q2175.53 138.939 2177.82 141.717 Q2180.11 144.471 2180.11 149.841 Z" fill="#000000" fill-rule="nonzero" fill-opacity="1" /><polyline clip-path="url(#clip540)" style="stroke:#e26f46; stroke-linecap:round; stroke-linejoin:round; stroke-width:4; stroke-opacity:1; fill:none" points="1618.86,200.05 1769.91,200.05 "/>
<path clip-path="url(#clip540)" d="M1799.37 213.441 L1799.37 227.191 L1795.09 227.191 L1795.09 191.404 L1799.37 191.404 L1799.37 195.339 Q1800.72 193.024 1802.75 191.913 Q1804.81 190.779 1807.66 190.779 Q1812.38 190.779 1815.32 194.529 Q1818.28 198.279 1818.28 204.39 Q1818.28 210.501 1815.32 214.251 Q1812.38 218.001 1807.66 218.001 Q1804.81 218.001 1802.75 216.89 Q1800.72 215.755 1799.37 213.441 M1813.86 204.39 Q1813.86 199.691 1811.92 197.029 Q1810 194.344 1806.62 194.344 Q1803.24 194.344 1801.29 197.029 Q1799.37 199.691 1799.37 204.39 Q1799.37 209.089 1801.29 211.774 Q1803.24 214.436 1806.62 214.436 Q1810 214.436 1811.92 211.774 Q1813.86 209.089 1813.86 204.39 Z" fill="#000000" fill-rule="nonzero" fill-opacity="1" /><path clip-path="url(#clip540)" d="M1840.37 195.385 Q1839.65 194.969 1838.79 194.783 Q1837.96 194.575 1836.94 194.575 Q1833.33 194.575 1831.39 196.936 Q1829.46 199.274 1829.46 203.672 L1829.46 217.33 L1825.18 217.33 L1825.18 191.404 L1829.46 191.404 L1829.46 195.432 Q1830.81 193.07 1832.96 191.936 Q1835.11 190.779 1838.19 190.779 Q1838.63 190.779 1839.16 190.848 Q1839.7 190.895 1840.34 191.01 L1840.37 195.385 Z" fill="#000000" fill-rule="nonzero" fill-opacity="1" /><path clip-path="url(#clip540)" d="M1865.97 203.302 L1865.97 205.385 L1846.39 205.385 Q1846.66 209.783 1849.03 212.098 Q1851.41 214.39 1855.65 214.39 Q1858.1 214.39 1860.39 213.788 Q1862.71 213.186 1864.97 211.982 L1864.97 216.01 Q1862.68 216.982 1860.27 217.492 Q1857.87 218.001 1855.39 218.001 Q1849.19 218.001 1845.55 214.39 Q1841.94 210.779 1841.94 204.621 Q1841.94 198.256 1845.37 194.529 Q1848.82 190.779 1854.65 190.779 Q1859.88 190.779 1862.91 194.158 Q1865.97 197.515 1865.97 203.302 M1861.71 202.052 Q1861.66 198.557 1859.74 196.473 Q1857.84 194.39 1854.7 194.39 Q1851.13 194.39 1848.98 196.404 Q1846.85 198.418 1846.53 202.075 L1861.71 202.052 Z" fill="#000000" fill-rule="nonzero" fill-opacity="1" /><path clip-path="url(#clip540)" d="M1870.81 202.445 L1883.28 202.445 L1883.28 206.242 L1870.81 206.242 L1870.81 202.445 Z" fill="#000000" fill-rule="nonzero" fill-opacity="1" /><path clip-path="url(#clip540)" d="M1907.13 195.339 L1907.13 181.311 L1911.39 181.311 L1911.39 217.33 L1907.13 217.33 L1907.13 213.441 Q1905.78 215.755 1903.72 216.89 Q1901.69 218.001 1898.82 218.001 Q1894.12 218.001 1891.15 214.251 Q1888.21 210.501 1888.21 204.39 Q1888.21 198.279 1891.15 194.529 Q1894.12 190.779 1898.82 190.779 Q1901.69 190.779 1903.72 191.913 Q1905.78 193.024 1907.13 195.339 M1892.61 204.39 Q1892.61 209.089 1894.53 211.774 Q1896.48 214.436 1899.86 214.436 Q1903.24 214.436 1905.18 211.774 Q1907.13 209.089 1907.13 204.39 Q1907.13 199.691 1905.18 197.029 Q1903.24 194.344 1899.86 194.344 Q1896.48 194.344 1894.53 197.029 Q1892.61 199.691 1892.61 204.39 Z" fill="#000000" fill-rule="nonzero" fill-opacity="1" /><path clip-path="url(#clip540)" d="M1942.33 203.302 L1942.33 205.385 L1922.75 205.385 Q1923.03 209.783 1925.39 212.098 Q1927.77 214.39 1932.01 214.39 Q1934.46 214.39 1936.76 213.788 Q1939.07 213.186 1941.34 211.982 L1941.34 216.01 Q1939.05 216.982 1936.64 217.492 Q1934.23 218.001 1931.76 218.001 Q1925.55 218.001 1921.92 214.39 Q1918.31 210.779 1918.31 204.621 Q1918.31 198.256 1921.73 194.529 Q1925.18 190.779 1931.02 190.779 Q1936.25 190.779 1939.28 194.158 Q1942.33 197.515 1942.33 203.302 M1938.08 202.052 Q1938.03 198.557 1936.11 196.473 Q1934.21 194.39 1931.06 194.39 Q1927.5 194.39 1925.34 196.404 Q1923.21 198.418 1922.89 202.075 L1938.08 202.052 Z" fill="#000000" fill-rule="nonzero" fill-opacity="1" /><path clip-path="url(#clip540)" d="M1967.94 204.39 Q1967.94 199.691 1965.99 197.029 Q1964.07 194.344 1960.69 194.344 Q1957.31 194.344 1955.37 197.029 Q1953.45 199.691 1953.45 204.39 Q1953.45 209.089 1955.37 211.774 Q1957.31 214.436 1960.69 214.436 Q1964.07 214.436 1965.99 211.774 Q1967.94 209.089 1967.94 204.39 M1953.45 195.339 Q1954.79 193.024 1956.83 191.913 Q1958.89 190.779 1961.73 190.779 Q1966.45 190.779 1969.39 194.529 Q1972.36 198.279 1972.36 204.39 Q1972.36 210.501 1969.39 214.251 Q1966.45 218.001 1961.73 218.001 Q1958.89 218.001 1956.83 216.89 Q1954.79 215.755 1953.45 213.441 L1953.45 217.33 L1949.16 217.33 L1949.16 181.311 L1953.45 181.311 L1953.45 195.339 Z" fill="#000000" fill-rule="nonzero" fill-opacity="1" /><path clip-path="url(#clip540)" d="M1991.2 204.297 Q1986.04 204.297 1984.05 205.478 Q1982.06 206.658 1982.06 209.506 Q1982.06 211.774 1983.54 213.117 Q1985.04 214.436 1987.61 214.436 Q1991.15 214.436 1993.28 211.936 Q1995.44 209.413 1995.44 205.246 L1995.44 204.297 L1991.2 204.297 M1999.7 202.538 L1999.7 217.33 L1995.44 217.33 L1995.44 213.394 Q1993.98 215.755 1991.8 216.89 Q1989.63 218.001 1986.48 218.001 Q1982.5 218.001 1980.14 215.779 Q1977.8 213.533 1977.8 209.783 Q1977.8 205.408 1980.71 203.186 Q1983.65 200.964 1989.46 200.964 L1995.44 200.964 L1995.44 200.547 Q1995.44 197.607 1993.49 196.01 Q1991.57 194.39 1988.08 194.39 Q1985.85 194.39 1983.75 194.922 Q1981.64 195.455 1979.7 196.519 L1979.7 192.584 Q1982.03 191.682 1984.23 191.242 Q1986.43 190.779 1988.52 190.779 Q1994.14 190.779 1996.92 193.695 Q1999.7 196.612 1999.7 202.538 Z" fill="#000000" fill-rule="nonzero" fill-opacity="1" /><path clip-path="url(#clip540)" d="M2012.68 184.043 L2012.68 191.404 L2021.45 191.404 L2021.45 194.714 L2012.68 194.714 L2012.68 208.788 Q2012.68 211.959 2013.54 212.862 Q2014.42 213.765 2017.08 213.765 L2021.45 213.765 L2021.45 217.33 L2017.08 217.33 Q2012.15 217.33 2010.27 215.501 Q2008.4 213.649 2008.4 208.788 L2008.4 194.714 L2005.27 194.714 L2005.27 191.404 L2008.4 191.404 L2008.4 184.043 L2012.68 184.043 Z" fill="#000000" fill-rule="nonzero" fill-opacity="1" /><path clip-path="url(#clip540)" d="M2049.23 203.302 L2049.23 205.385 L2029.65 205.385 Q2029.93 209.783 2032.29 212.098 Q2034.67 214.39 2038.91 214.39 Q2041.36 214.39 2043.65 213.788 Q2045.97 213.186 2048.24 211.982 L2048.24 216.01 Q2045.95 216.982 2043.54 217.492 Q2041.13 218.001 2038.65 218.001 Q2032.45 218.001 2028.82 214.39 Q2025.2 210.779 2025.2 204.621 Q2025.2 198.256 2028.63 194.529 Q2032.08 190.779 2037.91 190.779 Q2043.14 190.779 2046.18 194.158 Q2049.23 197.515 2049.23 203.302 M2044.97 202.052 Q2044.93 198.557 2043.01 196.473 Q2041.11 194.39 2037.96 194.39 Q2034.39 194.39 2032.24 196.404 Q2030.11 198.418 2029.79 202.075 L2044.97 202.052 Z" fill="#000000" fill-rule="nonzero" fill-opacity="1" /><path clip-path="url(#clip540)" d="M2076.15 186.612 L2076.15 213.487 L2081.8 213.487 Q2088.95 213.487 2092.26 210.246 Q2095.6 207.006 2095.6 200.015 Q2095.6 193.07 2092.26 189.853 Q2088.95 186.612 2081.8 186.612 L2076.15 186.612 M2071.48 182.77 L2081.08 182.77 Q2091.13 182.77 2095.83 186.959 Q2100.53 191.126 2100.53 200.015 Q2100.53 208.95 2095.81 213.14 Q2091.08 217.33 2081.08 217.33 L2071.48 217.33 L2071.48 182.77 Z" fill="#000000" fill-rule="nonzero" fill-opacity="1" /><path clip-path="url(#clip540)" d="M2107.36 207.098 L2107.36 191.404 L2111.62 191.404 L2111.62 206.936 Q2111.62 210.617 2113.05 212.468 Q2114.49 214.297 2117.36 214.297 Q2120.81 214.297 2122.8 212.098 Q2124.81 209.899 2124.81 206.103 L2124.81 191.404 L2129.07 191.404 L2129.07 217.33 L2124.81 217.33 L2124.81 213.348 Q2123.26 215.709 2121.2 216.867 Q2119.16 218.001 2116.45 218.001 Q2111.99 218.001 2109.67 215.223 Q2107.36 212.445 2107.36 207.098 M2118.07 190.779 L2118.07 190.779 Z" fill="#000000" fill-rule="nonzero" fill-opacity="1" /><path clip-path="url(#clip540)" d="M2137.68 181.311 L2141.96 181.311 L2141.96 202.584 L2154.67 191.404 L2160.11 191.404 L2146.36 203.533 L2160.69 217.33 L2155.13 217.33 L2141.96 204.668 L2141.96 217.33 L2137.68 217.33 L2137.68 181.311 Z" fill="#000000" fill-rule="nonzero" fill-opacity="1" /><path clip-path="url(#clip540)" d="M2176.25 204.297 Q2171.08 204.297 2169.09 205.478 Q2167.1 206.658 2167.1 209.506 Q2167.1 211.774 2168.58 213.117 Q2170.09 214.436 2172.66 214.436 Q2176.2 214.436 2178.33 211.936 Q2180.48 209.413 2180.48 205.246 L2180.48 204.297 L2176.25 204.297 M2184.74 202.538 L2184.74 217.33 L2180.48 217.33 L2180.48 213.394 Q2179.02 215.755 2176.85 216.89 Q2174.67 218.001 2171.52 218.001 Q2167.54 218.001 2165.18 215.779 Q2162.84 213.533 2162.84 209.783 Q2162.84 205.408 2165.76 203.186 Q2168.7 200.964 2174.51 200.964 L2180.48 200.964 L2180.48 200.547 Q2180.48 197.607 2178.54 196.01 Q2176.62 194.39 2173.12 194.39 Q2170.9 194.39 2168.79 194.922 Q2166.69 195.455 2164.74 196.519 L2164.74 192.584 Q2167.08 191.682 2169.28 191.242 Q2171.48 190.779 2173.56 190.779 Q2179.19 190.779 2181.96 193.695 Q2184.74 196.612 2184.74 202.538 Z" fill="#000000" fill-rule="nonzero" fill-opacity="1" /><path clip-path="url(#clip540)" d="M2193.35 181.311 L2197.63 181.311 L2197.63 202.584 L2210.34 191.404 L2215.78 191.404 L2202.03 203.533 L2216.36 217.33 L2210.81 217.33 L2197.63 204.668 L2197.63 217.33 L2193.35 217.33 L2193.35 181.311 Z" fill="#000000" fill-rule="nonzero" fill-opacity="1" /><path clip-path="url(#clip540)" d="M2220.97 191.404 L2225.23 191.404 L2225.23 217.33 L2220.97 217.33 L2220.97 191.404 M2220.97 181.311 L2225.23 181.311 L2225.23 186.705 L2220.97 186.705 L2220.97 181.311 Z" fill="#000000" fill-rule="nonzero" fill-opacity="1" /><path clip-path="url(#clip540)" d="M2250.67 192.168 L2250.67 196.195 Q2248.86 195.269 2246.92 194.807 Q2244.97 194.344 2242.89 194.344 Q2239.72 194.344 2238.12 195.316 Q2236.55 196.288 2236.55 198.232 Q2236.55 199.714 2237.68 200.57 Q2238.81 201.404 2242.24 202.168 L2243.7 202.492 Q2248.24 203.464 2250.13 205.246 Q2252.06 207.006 2252.06 210.177 Q2252.06 213.788 2249.18 215.894 Q2246.34 218.001 2241.34 218.001 Q2239.25 218.001 2236.99 217.584 Q2234.74 217.191 2232.24 216.38 L2232.24 211.982 Q2234.6 213.209 2236.89 213.834 Q2239.18 214.436 2241.43 214.436 Q2244.44 214.436 2246.06 213.418 Q2247.68 212.376 2247.68 210.501 Q2247.68 208.765 2246.5 207.839 Q2245.34 206.913 2241.38 206.056 L2239.9 205.709 Q2235.94 204.876 2234.19 203.163 Q2232.43 201.427 2232.43 198.418 Q2232.43 194.76 2235.02 192.77 Q2237.61 190.779 2242.38 190.779 Q2244.74 190.779 2246.82 191.126 Q2248.91 191.473 2250.67 192.168 Z" fill="#000000" fill-rule="nonzero" fill-opacity="1" /></svg>
