<?xml version="1.0" encoding="utf-8"?>
<svg xmlns="http://www.w3.org/2000/svg" xmlns:xlink="http://www.w3.org/1999/xlink" width="600" height="400" viewBox="0 0 2400 1600">
<defs>
  <clipPath id="clip010">
    <rect x="0" y="0" width="2400" height="1600"/>
  </clipPath>
</defs>
<path clip-path="url(#clip010)" d="M0 1600 L2400 1600 L2400 0 L0 0  Z" fill="#ffffff" fill-rule="evenodd" fill-opacity="1"/>
<defs>
  <clipPath id="clip011">
    <rect x="480" y="0" width="1681" height="1600"/>
  </clipPath>
</defs>
<path clip-path="url(#clip010)" d="M86.9921 1521.01 L2352.76 1521.01 L2352.76 47.2441 L86.9921 47.2441  Z" fill="#ffffff" fill-rule="evenodd" fill-opacity="1"/>
<defs>
  <clipPath id="clip012">
    <rect x="86" y="47" width="2267" height="1475"/>
  </clipPath>
</defs>
<polyline clip-path="url(#clip012)" style="stroke:#000000; stroke-linecap:round; stroke-linejoin:round; stroke-width:2; stroke-opacity:0.1; fill:none" points="151.118,1521.01 151.118,47.2441 "/>
<polyline clip-path="url(#clip012)" style="stroke:#000000; stroke-linecap:round; stroke-linejoin:round; stroke-width:2; stroke-opacity:0.1; fill:none" points="685.496,1521.01 685.496,47.2441 "/>
<polyline clip-path="url(#clip012)" style="stroke:#000000; stroke-linecap:round; stroke-linejoin:round; stroke-width:2; stroke-opacity:0.1; fill:none" points="1219.87,1521.01 1219.87,47.2441 "/>
<polyline clip-path="url(#clip012)" style="stroke:#000000; stroke-linecap:round; stroke-linejoin:round; stroke-width:2; stroke-opacity:0.1; fill:none" points="1754.25,1521.01 1754.25,47.2441 "/>
<polyline clip-path="url(#clip012)" style="stroke:#000000; stroke-linecap:round; stroke-linejoin:round; stroke-width:2; stroke-opacity:0.1; fill:none" points="2288.63,1521.01 2288.63,47.2441 "/>
<polyline clip-path="url(#clip010)" style="stroke:#000000; stroke-linecap:round; stroke-linejoin:round; stroke-width:4; stroke-opacity:1; fill:none" points="86.9921,1521.01 2352.76,1521.01 "/>
<polyline clip-path="url(#clip010)" style="stroke:#000000; stroke-linecap:round; stroke-linejoin:round; stroke-width:4; stroke-opacity:1; fill:none" points="151.118,1521.01 151.118,1502.11 "/>
<polyline clip-path="url(#clip010)" style="stroke:#000000; stroke-linecap:round; stroke-linejoin:round; stroke-width:4; stroke-opacity:1; fill:none" points="685.496,1521.01 685.496,1502.11 "/>
<polyline clip-path="url(#clip010)" style="stroke:#000000; stroke-linecap:round; stroke-linejoin:round; stroke-width:4; stroke-opacity:1; fill:none" points="1219.87,1521.01 1219.87,1502.11 "/>
<polyline clip-path="url(#clip010)" style="stroke:#000000; stroke-linecap:round; stroke-linejoin:round; stroke-width:4; stroke-opacity:1; fill:none" points="1754.25,1521.01 1754.25,1502.11 "/>
<polyline clip-path="url(#clip010)" style="stroke:#000000; stroke-linecap:round; stroke-linejoin:round; stroke-width:4; stroke-opacity:1; fill:none" points="2288.63,1521.01 2288.63,1502.11 "/>
<path clip-path="url(#clip010)" d="M113.421 1551.93 Q109.81 1551.93 107.981 1555.49 Q106.176 1559.03 106.176 1566.16 Q106.176 1573.27 107.981 1576.83 Q109.81 1580.38 113.421 1580.38 Q117.055 1580.38 118.861 1576.83 Q120.689 1573.27 120.689 1566.16 Q120.689 1559.03 118.861 1555.49 Q117.055 1551.93 113.421 1551.93 M113.421 1548.22 Q119.231 1548.22 122.287 1552.83 Q125.365 1557.41 125.365 1566.16 Q125.365 1574.89 122.287 1579.5 Q119.231 1584.08 113.421 1584.08 Q107.611 1584.08 104.532 1579.5 Q101.477 1574.89 101.477 1566.16 Q101.477 1557.41 104.532 1552.83 Q107.611 1548.22 113.421 1548.22 Z" fill="#000000" fill-rule="nonzero" fill-opacity="1" /><path clip-path="url(#clip010)" d="M133.583 1577.53 L138.467 1577.53 L138.467 1583.41 L133.583 1583.41 L133.583 1577.53 Z" fill="#000000" fill-rule="nonzero" fill-opacity="1" /><path clip-path="url(#clip010)" d="M158.652 1551.93 Q155.041 1551.93 153.212 1555.49 Q151.407 1559.03 151.407 1566.16 Q151.407 1573.27 153.212 1576.83 Q155.041 1580.38 158.652 1580.38 Q162.286 1580.38 164.092 1576.83 Q165.921 1573.27 165.921 1566.16 Q165.921 1559.03 164.092 1555.49 Q162.286 1551.93 158.652 1551.93 M158.652 1548.22 Q164.462 1548.22 167.518 1552.83 Q170.597 1557.41 170.597 1566.16 Q170.597 1574.89 167.518 1579.5 Q164.462 1584.08 158.652 1584.08 Q152.842 1584.08 149.763 1579.5 Q146.708 1574.89 146.708 1566.16 Q146.708 1557.41 149.763 1552.83 Q152.842 1548.22 158.652 1548.22 Z" fill="#000000" fill-rule="nonzero" fill-opacity="1" /><path clip-path="url(#clip010)" d="M188.814 1551.93 Q185.203 1551.93 183.374 1555.49 Q181.569 1559.03 181.569 1566.16 Q181.569 1573.27 183.374 1576.83 Q185.203 1580.38 188.814 1580.38 Q192.448 1580.38 194.254 1576.83 Q196.083 1573.27 196.083 1566.16 Q196.083 1559.03 194.254 1555.49 Q192.448 1551.93 188.814 1551.93 M188.814 1548.22 Q194.624 1548.22 197.68 1552.83 Q200.758 1557.41 200.758 1566.16 Q200.758 1574.89 197.68 1579.5 Q194.624 1584.08 188.814 1584.08 Q183.004 1584.08 179.925 1579.5 Q176.87 1574.89 176.87 1566.16 Q176.87 1557.41 179.925 1552.83 Q183.004 1548.22 188.814 1548.22 Z" fill="#000000" fill-rule="nonzero" fill-opacity="1" /><path clip-path="url(#clip010)" d="M648.297 1551.93 Q644.686 1551.93 642.857 1555.49 Q641.052 1559.03 641.052 1566.16 Q641.052 1573.27 642.857 1576.83 Q644.686 1580.38 648.297 1580.38 Q651.931 1580.38 653.737 1576.83 Q655.565 1573.27 655.565 1566.16 Q655.565 1559.03 653.737 1555.49 Q651.931 1551.93 648.297 1551.93 M648.297 1548.22 Q654.107 1548.22 657.163 1552.83 Q660.241 1557.41 660.241 1566.16 Q660.241 1574.89 657.163 1579.5 Q654.107 1584.08 648.297 1584.08 Q642.487 1584.08 639.408 1579.5 Q636.353 1574.89 636.353 1566.16 Q636.353 1557.41 639.408 1552.83 Q642.487 1548.22 648.297 1548.22 Z" fill="#000000" fill-rule="nonzero" fill-opacity="1" /><path clip-path="url(#clip010)" d="M668.459 1577.53 L673.343 1577.53 L673.343 1583.41 L668.459 1583.41 L668.459 1577.53 Z" fill="#000000" fill-rule="nonzero" fill-opacity="1" /><path clip-path="url(#clip010)" d="M687.556 1579.47 L703.875 1579.47 L703.875 1583.41 L681.931 1583.41 L681.931 1579.47 Q684.593 1576.72 689.176 1572.09 Q693.783 1567.44 694.963 1566.09 Q697.209 1563.57 698.088 1561.83 Q698.991 1560.07 698.991 1558.38 Q698.991 1555.63 697.047 1553.89 Q695.125 1552.16 692.024 1552.16 Q689.824 1552.16 687.371 1552.92 Q684.94 1553.69 682.162 1555.24 L682.162 1550.51 Q684.987 1549.38 687.44 1548.8 Q689.894 1548.22 691.931 1548.22 Q697.301 1548.22 700.496 1550.91 Q703.69 1553.59 703.69 1558.08 Q703.69 1560.21 702.88 1562.13 Q702.093 1564.03 699.986 1566.63 Q699.408 1567.3 696.306 1570.51 Q693.204 1573.71 687.556 1579.47 Z" fill="#000000" fill-rule="nonzero" fill-opacity="1" /><path clip-path="url(#clip010)" d="M713.736 1548.85 L732.093 1548.85 L732.093 1552.78 L718.019 1552.78 L718.019 1561.26 Q719.037 1560.91 720.056 1560.75 Q721.074 1560.56 722.093 1560.56 Q727.88 1560.56 731.259 1563.73 Q734.639 1566.9 734.639 1572.32 Q734.639 1577.9 731.167 1581 Q727.695 1584.08 721.375 1584.08 Q719.199 1584.08 716.931 1583.71 Q714.685 1583.34 712.278 1582.6 L712.278 1577.9 Q714.361 1579.03 716.584 1579.59 Q718.806 1580.14 721.283 1580.14 Q725.287 1580.14 727.625 1578.04 Q729.963 1575.93 729.963 1572.32 Q729.963 1568.71 727.625 1566.6 Q725.287 1564.5 721.283 1564.5 Q719.408 1564.5 717.533 1564.91 Q715.681 1565.33 713.736 1566.21 L713.736 1548.85 Z" fill="#000000" fill-rule="nonzero" fill-opacity="1" /><path clip-path="url(#clip010)" d="M1182.18 1551.93 Q1178.57 1551.93 1176.74 1555.49 Q1174.93 1559.03 1174.93 1566.16 Q1174.93 1573.27 1176.74 1576.83 Q1178.57 1580.38 1182.18 1580.38 Q1185.81 1580.38 1187.62 1576.83 Q1189.45 1573.27 1189.45 1566.16 Q1189.45 1559.03 1187.62 1555.49 Q1185.81 1551.93 1182.18 1551.93 M1182.18 1548.22 Q1187.99 1548.22 1191.04 1552.83 Q1194.12 1557.41 1194.12 1566.16 Q1194.12 1574.89 1191.04 1579.5 Q1187.99 1584.08 1182.18 1584.08 Q1176.37 1584.08 1173.29 1579.5 Q1170.23 1574.89 1170.23 1566.16 Q1170.23 1557.41 1173.29 1552.83 Q1176.37 1548.22 1182.18 1548.22 Z" fill="#000000" fill-rule="nonzero" fill-opacity="1" /><path clip-path="url(#clip010)" d="M1202.34 1577.53 L1207.22 1577.53 L1207.22 1583.41 L1202.34 1583.41 L1202.34 1577.53 Z" fill="#000000" fill-rule="nonzero" fill-opacity="1" /><path clip-path="url(#clip010)" d="M1217.46 1548.85 L1235.81 1548.85 L1235.81 1552.78 L1221.74 1552.78 L1221.74 1561.26 Q1222.76 1560.91 1223.77 1560.75 Q1224.79 1560.56 1225.81 1560.56 Q1231.6 1560.56 1234.98 1563.73 Q1238.36 1566.9 1238.36 1572.32 Q1238.36 1577.9 1234.89 1581 Q1231.41 1584.08 1225.09 1584.08 Q1222.92 1584.08 1220.65 1583.71 Q1218.4 1583.34 1216 1582.6 L1216 1577.9 Q1218.08 1579.03 1220.3 1579.59 Q1222.52 1580.14 1225 1580.14 Q1229.01 1580.14 1231.34 1578.04 Q1233.68 1575.93 1233.68 1572.32 Q1233.68 1568.71 1231.34 1566.6 Q1229.01 1564.5 1225 1564.5 Q1223.13 1564.5 1221.25 1564.91 Q1219.4 1565.33 1217.46 1566.21 L1217.46 1548.85 Z" fill="#000000" fill-rule="nonzero" fill-opacity="1" /><path clip-path="url(#clip010)" d="M1257.57 1551.93 Q1253.96 1551.93 1252.13 1555.49 Q1250.33 1559.03 1250.33 1566.16 Q1250.33 1573.27 1252.13 1576.83 Q1253.96 1580.38 1257.57 1580.38 Q1261.2 1580.38 1263.01 1576.83 Q1264.84 1573.27 1264.84 1566.16 Q1264.84 1559.03 1263.01 1555.49 Q1261.2 1551.93 1257.57 1551.93 M1257.57 1548.22 Q1263.38 1548.22 1266.44 1552.83 Q1269.51 1557.41 1269.51 1566.16 Q1269.51 1574.89 1266.44 1579.5 Q1263.38 1584.08 1257.57 1584.08 Q1251.76 1584.08 1248.68 1579.5 Q1245.63 1574.89 1245.63 1566.16 Q1245.63 1557.41 1248.68 1552.83 Q1251.76 1548.22 1257.57 1548.22 Z" fill="#000000" fill-rule="nonzero" fill-opacity="1" /><path clip-path="url(#clip010)" d="M1717.05 1551.93 Q1713.44 1551.93 1711.61 1555.49 Q1709.81 1559.03 1709.81 1566.16 Q1709.81 1573.27 1711.61 1576.83 Q1713.44 1580.38 1717.05 1580.38 Q1720.69 1580.38 1722.49 1576.83 Q1724.32 1573.27 1724.32 1566.16 Q1724.32 1559.03 1722.49 1555.49 Q1720.69 1551.93 1717.05 1551.93 M1717.05 1548.22 Q1722.86 1548.22 1725.92 1552.83 Q1729 1557.41 1729 1566.16 Q1729 1574.89 1725.92 1579.5 Q1722.86 1584.08 1717.05 1584.08 Q1711.24 1584.08 1708.16 1579.5 Q1705.11 1574.89 1705.11 1566.16 Q1705.11 1557.41 1708.16 1552.83 Q1711.24 1548.22 1717.05 1548.22 Z" fill="#000000" fill-rule="nonzero" fill-opacity="1" /><path clip-path="url(#clip010)" d="M1737.22 1577.53 L1742.1 1577.53 L1742.1 1583.41 L1737.22 1583.41 L1737.22 1577.53 Z" fill="#000000" fill-rule="nonzero" fill-opacity="1" /><path clip-path="url(#clip010)" d="M1751.1 1548.85 L1773.33 1548.85 L1773.33 1550.84 L1760.78 1583.41 L1755.9 1583.41 L1767.7 1552.78 L1751.1 1552.78 L1751.1 1548.85 Z" fill="#000000" fill-rule="nonzero" fill-opacity="1" /><path clip-path="url(#clip010)" d="M1782.49 1548.85 L1800.85 1548.85 L1800.85 1552.78 L1786.78 1552.78 L1786.78 1561.26 Q1787.79 1560.91 1788.81 1560.75 Q1789.83 1560.56 1790.85 1560.56 Q1796.64 1560.56 1800.02 1563.73 Q1803.4 1566.9 1803.4 1572.32 Q1803.4 1577.9 1799.92 1581 Q1796.45 1584.08 1790.13 1584.08 Q1787.96 1584.08 1785.69 1583.71 Q1783.44 1583.34 1781.03 1582.6 L1781.03 1577.9 Q1783.12 1579.03 1785.34 1579.59 Q1787.56 1580.14 1790.04 1580.14 Q1794.04 1580.14 1796.38 1578.04 Q1798.72 1575.93 1798.72 1572.32 Q1798.72 1568.71 1796.38 1566.6 Q1794.04 1564.5 1790.04 1564.5 Q1788.16 1564.5 1786.29 1564.91 Q1784.44 1565.33 1782.49 1566.21 L1782.49 1548.85 Z" fill="#000000" fill-rule="nonzero" fill-opacity="1" /><path clip-path="url(#clip010)" d="M2240.7 1579.47 L2248.34 1579.47 L2248.34 1553.11 L2240.03 1554.77 L2240.03 1550.51 L2248.3 1548.85 L2252.97 1548.85 L2252.97 1579.47 L2260.61 1579.47 L2260.61 1583.41 L2240.7 1583.41 L2240.7 1579.47 Z" fill="#000000" fill-rule="nonzero" fill-opacity="1" /><path clip-path="url(#clip010)" d="M2270.05 1577.53 L2274.94 1577.53 L2274.94 1583.41 L2270.05 1583.41 L2270.05 1577.53 Z" fill="#000000" fill-rule="nonzero" fill-opacity="1" /><path clip-path="url(#clip010)" d="M2295.12 1551.93 Q2291.51 1551.93 2289.68 1555.49 Q2287.88 1559.03 2287.88 1566.16 Q2287.88 1573.27 2289.68 1576.83 Q2291.51 1580.38 2295.12 1580.38 Q2298.76 1580.38 2300.56 1576.83 Q2302.39 1573.27 2302.39 1566.16 Q2302.39 1559.03 2300.56 1555.49 Q2298.76 1551.93 2295.12 1551.93 M2295.12 1548.22 Q2300.93 1548.22 2303.99 1552.83 Q2307.07 1557.41 2307.07 1566.16 Q2307.07 1574.89 2303.99 1579.5 Q2300.93 1584.08 2295.12 1584.08 Q2289.31 1584.08 2286.23 1579.5 Q2283.18 1574.89 2283.18 1566.16 Q2283.18 1557.41 2286.23 1552.83 Q2289.31 1548.22 2295.12 1548.22 Z" fill="#000000" fill-rule="nonzero" fill-opacity="1" /><path clip-path="url(#clip010)" d="M2325.29 1551.93 Q2321.67 1551.93 2319.85 1555.49 Q2318.04 1559.03 2318.04 1566.16 Q2318.04 1573.27 2319.85 1576.83 Q2321.67 1580.38 2325.29 1580.38 Q2328.92 1580.38 2330.73 1576.83 Q2332.55 1573.27 2332.55 1566.16 Q2332.55 1559.03 2330.73 1555.49 Q2328.92 1551.93 2325.29 1551.93 M2325.29 1548.22 Q2331.1 1548.22 2334.15 1552.83 Q2337.23 1557.41 2337.23 1566.16 Q2337.23 1574.89 2334.15 1579.5 Q2331.1 1584.08 2325.29 1584.08 Q2319.48 1584.08 2316.4 1579.5 Q2313.34 1574.89 2313.34 1566.16 Q2313.34 1557.41 2316.4 1552.83 Q2319.48 1548.22 2325.29 1548.22 Z" fill="#000000" fill-rule="nonzero" fill-opacity="1" /><polyline clip-path="url(#clip012)" style="stroke:#000000; stroke-linecap:round; stroke-linejoin:round; stroke-width:2; stroke-opacity:0.1; fill:none" points="86.9921,1479.3 2352.76,1479.3 "/>
<polyline clip-path="url(#clip012)" style="stroke:#000000; stroke-linecap:round; stroke-linejoin:round; stroke-width:2; stroke-opacity:0.1; fill:none" points="86.9921,1130.69 2352.76,1130.69 "/>
<polyline clip-path="url(#clip012)" style="stroke:#000000; stroke-linecap:round; stroke-linejoin:round; stroke-width:2; stroke-opacity:0.1; fill:none" points="86.9921,782.082 2352.76,782.082 "/>
<polyline clip-path="url(#clip012)" style="stroke:#000000; stroke-linecap:round; stroke-linejoin:round; stroke-width:2; stroke-opacity:0.1; fill:none" points="86.9921,433.474 2352.76,433.474 "/>
<polyline clip-path="url(#clip012)" style="stroke:#000000; stroke-linecap:round; stroke-linejoin:round; stroke-width:2; stroke-opacity:0.1; fill:none" points="86.9921,84.8656 2352.76,84.8656 "/>
<polyline clip-path="url(#clip010)" style="stroke:#000000; stroke-linecap:round; stroke-linejoin:round; stroke-width:4; stroke-opacity:1; fill:none" points="86.9921,1521.01 86.9921,47.2441 "/>
<polyline clip-path="url(#clip010)" style="stroke:#000000; stroke-linecap:round; stroke-linejoin:round; stroke-width:4; stroke-opacity:1; fill:none" points="86.9921,1479.3 105.89,1479.3 "/>
<polyline clip-path="url(#clip010)" style="stroke:#000000; stroke-linecap:round; stroke-linejoin:round; stroke-width:4; stroke-opacity:1; fill:none" points="86.9921,1130.69 105.89,1130.69 "/>
<polyline clip-path="url(#clip010)" style="stroke:#000000; stroke-linecap:round; stroke-linejoin:round; stroke-width:4; stroke-opacity:1; fill:none" points="86.9921,782.082 105.89,782.082 "/>
<polyline clip-path="url(#clip010)" style="stroke:#000000; stroke-linecap:round; stroke-linejoin:round; stroke-width:4; stroke-opacity:1; fill:none" points="86.9921,433.474 105.89,433.474 "/>
<polyline clip-path="url(#clip010)" style="stroke:#000000; stroke-linecap:round; stroke-linejoin:round; stroke-width:4; stroke-opacity:1; fill:none" points="86.9921,84.8656 105.89,84.8656 "/>
<path clip-path="url(#clip010)" d="M10.8708 1479.3 Q10.8708 1482.91 14.4356 1484.74 Q17.9773 1486.54 25.1068 1486.54 Q32.2133 1486.54 35.7781 1484.74 Q39.3197 1482.91 39.3197 1479.3 Q39.3197 1475.66 35.7781 1473.86 Q32.2133 1472.03 25.1068 1472.03 Q17.9773 1472.03 14.4356 1473.86 Q10.8708 1475.66 10.8708 1479.3 M7.16713 1479.3 Q7.16713 1473.49 11.7736 1470.43 Q16.3569 1467.35 25.1068 1467.35 Q33.8337 1467.35 38.4401 1470.43 Q43.0234 1473.49 43.0234 1479.3 Q43.0234 1485.11 38.4401 1488.19 Q33.8337 1491.24 25.1068 1491.24 Q16.3569 1491.24 11.7736 1488.19 Q7.16713 1485.11 7.16713 1479.3 Z" fill="#000000" fill-rule="nonzero" fill-opacity="1" /><path clip-path="url(#clip010)" d="M7.79213 1140.41 L7.79213 1122.06 L11.7273 1122.06 L11.7273 1136.13 L20.1995 1136.13 Q19.8522 1135.11 19.6902 1134.09 Q19.505 1133.07 19.505 1132.06 Q19.505 1126.27 22.6763 1122.89 Q25.8476 1119.51 31.2642 1119.51 Q36.8429 1119.51 39.9447 1122.98 Q43.0234 1126.45 43.0234 1132.77 Q43.0234 1134.95 42.6531 1137.22 Q42.2827 1139.46 41.5419 1141.87 L36.8429 1141.87 Q37.9771 1139.79 38.5327 1137.56 Q39.0883 1135.34 39.0883 1132.87 Q39.0883 1128.86 36.9818 1126.52 Q34.8753 1124.18 31.2642 1124.18 Q27.6531 1124.18 25.5467 1126.52 Q23.4402 1128.86 23.4402 1132.87 Q23.4402 1134.74 23.8569 1136.62 Q24.2735 1138.47 25.1531 1140.41 L7.79213 1140.41 Z" fill="#000000" fill-rule="nonzero" fill-opacity="1" /><path clip-path="url(#clip010)" d="M38.417 807.394 L38.417 799.755 L12.0514 799.755 L13.718 808.065 L9.45878 808.065 L7.79213 799.801 L7.79213 795.126 L38.417 795.126 L38.417 787.487 L42.3521 787.487 L42.3521 807.394 L38.417 807.394 Z" fill="#000000" fill-rule="nonzero" fill-opacity="1" /><path clip-path="url(#clip010)" d="M10.8708 768.042 Q10.8708 771.653 14.4356 773.482 Q17.9773 775.288 25.1068 775.288 Q32.2133 775.288 35.7781 773.482 Q39.3197 771.653 39.3197 768.042 Q39.3197 764.408 35.7781 762.603 Q32.2133 760.774 25.1068 760.774 Q17.9773 760.774 14.4356 762.603 Q10.8708 764.408 10.8708 768.042 M7.16713 768.042 Q7.16713 762.232 11.7736 759.177 Q16.3569 756.098 25.1068 756.098 Q33.8337 756.098 38.4401 759.177 Q43.0234 762.232 43.0234 768.042 Q43.0234 773.852 38.4401 776.931 Q33.8337 779.987 25.1068 779.987 Q16.3569 779.987 11.7736 776.931 Q7.16713 773.852 7.16713 768.042 Z" fill="#000000" fill-rule="nonzero" fill-opacity="1" /><path clip-path="url(#clip010)" d="M38.417 458.288 L38.417 450.649 L12.0514 450.649 L13.718 458.96 L9.45878 458.96 L7.79213 450.696 L7.79213 446.02 L38.417 446.02 L38.417 438.381 L42.3521 438.381 L42.3521 458.288 L38.417 458.288 Z" fill="#000000" fill-rule="nonzero" fill-opacity="1" /><path clip-path="url(#clip010)" d="M7.79213 428.89 L7.79213 410.534 L11.7273 410.534 L11.7273 424.608 L20.1995 424.608 Q19.8522 423.589 19.6902 422.571 Q19.505 421.552 19.505 420.534 Q19.505 414.747 22.6763 411.367 Q25.8476 407.988 31.2642 407.988 Q36.8429 407.988 39.9447 411.46 Q43.0234 414.932 43.0234 421.251 Q43.0234 423.427 42.6531 425.696 Q42.2827 427.941 41.5419 430.349 L36.8429 430.349 Q37.9771 428.265 38.5327 426.043 Q39.0883 423.821 39.0883 421.344 Q39.0883 417.339 36.9818 415.001 Q34.8753 412.664 31.2642 412.664 Q27.6531 412.664 25.5467 415.001 Q23.4402 417.339 23.4402 421.344 Q23.4402 423.219 23.8569 425.094 Q24.2735 426.946 25.1531 428.89 L7.79213 428.89 Z" fill="#000000" fill-rule="nonzero" fill-opacity="1" /><path clip-path="url(#clip010)" d="M38.417 106.092 L38.417 89.773 L42.3521 89.773 L42.3521 111.717 L38.417 111.717 Q35.6623 109.055 31.0327 104.472 Q26.38 99.8655 25.0374 98.685 Q22.5143 96.4396 20.7782 95.56 Q19.0189 94.6572 17.3291 94.6572 Q14.5745 94.6572 12.8384 96.6017 Q11.1023 98.5229 11.1023 101.625 Q11.1023 103.824 11.8662 106.278 Q12.6301 108.708 14.181 111.486 L9.45878 111.486 Q8.32453 108.662 7.74583 106.208 Q7.16713 103.754 7.16713 101.717 Q7.16713 96.347 9.8523 93.1526 Q12.5375 89.9582 17.0282 89.9582 Q19.1578 89.9582 21.0791 90.7684 Q22.9772 91.5554 25.5698 93.6619 Q26.2411 94.2406 29.4587 97.3424 Q32.6531 100.444 38.417 106.092 Z" fill="#000000" fill-rule="nonzero" fill-opacity="1" /><path clip-path="url(#clip010)" d="M10.8708 69.9583 Q10.8708 73.5694 14.4356 75.3981 Q17.9773 77.2036 25.1068 77.2036 Q32.2133 77.2036 35.7781 75.3981 Q39.3197 73.5694 39.3197 69.9583 Q39.3197 66.324 35.7781 64.5185 Q32.2133 62.6898 25.1068 62.6898 Q17.9773 62.6898 14.4356 64.5185 Q10.8708 66.324 10.8708 69.9583 M7.16713 69.9583 Q7.16713 64.1481 11.7736 61.0926 Q16.3569 58.0139 25.1068 58.0139 Q33.8337 58.0139 38.4401 61.0926 Q43.0234 64.1481 43.0234 69.9583 Q43.0234 75.7684 38.4401 78.8471 Q33.8337 81.9027 25.1068 81.9027 Q16.3569 81.9027 11.7736 78.8471 Q7.16713 75.7684 7.16713 69.9583 Z" fill="#000000" fill-rule="nonzero" fill-opacity="1" /><polyline clip-path="url(#clip012)" style="stroke:#009af9; stroke-linecap:round; stroke-linejoin:round; stroke-width:4; stroke-opacity:1; fill:none" points="151.118,1479.3 165.034,1479.3 293.711,1479.3 371.04,1479.3 436.422,1479.3 507.444,1479.3 572.92,1479.3 643.117,1479.3 724.448,1479.3 796.725,1479.3 860.105,1479.3 894.656,1479.3 929.207,1479.3 963.963,1479.3 998.719,1479.26 1017.93,1479.04 1037.15,1477.79 1046.75,1475.93 1056.36,1472.16 1061.16,1469.09 1065.97,1464.9 1070.77,1459.25 1075.57,1451.74 1080.14,1442.43 1084.71,1430.53 1087,1423.46 1089.29,1415.54 1091.57,1406.71 1093.86,1396.89 1096.14,1386 1098.43,1373.98 1100.71,1360.75 1103,1346.23 1105.28,1330.36 1107.57,1313.07 1109.85,1294.29 1112.14,1273.98 1114.42,1252.07 1116.71,1228.53 1118.99,1203.34 1121.28,1176.46 1123.56,1147.9 1125.85,1117.66 1128.13,1085.76 1130.42,1052.25 1132.7,1017.18 1134.99,980.622 1137.27,942.673 1139.56,903.443 1144.13,821.688 1148.7,736.633 1153.45,646.378 1158.2,556.286 1160.58,512.002 1162.96,468.621 1165.33,426.446 1167.71,385.783 1170.08,346.935 1172.46,310.2 1174.84,275.868 1177.21,244.215 1179.59,215.501 1181.96,189.965 1183.15,178.457 1184.34,167.823 1185.53,158.085 1186.72,149.265 1187.9,141.382 1189.09,134.452 1190.28,128.491 1191.47,123.512 1192.66,119.525 1193.84,116.541 1195.03,114.564 1196.22,113.599 1197.41,113.649 1198.6,114.714 1199.78,116.789 1200.97,119.872 1202.16,123.955 1203.35,129.029 1204.54,135.083 1205.72,142.102 1206.91,150.073 1208.1,158.977 1209.29,168.794 1210.48,179.505 1212.85,203.508 1215.23,230.782 1217.61,261.096 1219.98,294.2 1222.36,329.823 1224.73,367.683 1226.73,401.071 1228.73,435.656 1230.73,471.258 1232.73,507.693 1236.73,582.349 1240.73,658.22 1244.73,733.988 1248.73,808.451 1252.73,880.555 1256.74,949.407 1258.74,982.384 1260.74,1014.29 1262.74,1045.08 1264.74,1074.68 1266.74,1103.06 1268.74,1130.19 1270.74,1156.05 1272.74,1180.64 1274.74,1203.93 1276.74,1225.95 1278.74,1246.71 1280.74,1266.22 1282.74,1284.5 1284.74,1301.6 1286.74,1317.54 1288.74,1332.37 1291.18,1349.02 1293.62,1364.15 1296.06,1377.85 1298.5,1390.2 1300.95,1401.3 1303.39,1411.23 1305.83,1420.09 1308.27,1427.97 1313.16,1441.08 1318.04,1451.21 1322.92,1458.91 1327.81,1464.7 1332.69,1468.98 1337.58,1472.09 1342.46,1474.34 1347.34,1475.93 1357.11,1477.8 1366.88,1478.67 1384.77,1479.18 1402.67,1479.28 1420.57,1479.3 1438.46,1479.3 1504.57,1479.3 1571.54,1479.3 1646.6,1479.3 1714.61,1479.3 1792.48,1479.3 1864.58,1479.3 1935.66,1479.3 2004.67,1479.3 2075.42,1479.3 2152.93,1479.3 2265.53,1479.3 2288.63,1479.3 "/>
<polyline clip-path="url(#clip012)" style="stroke:#e26f46; stroke-linecap:round; stroke-linejoin:round; stroke-width:4; stroke-opacity:1; fill:none" points="151.118,1479.3 165.034,1479.3 293.711,1479.3 371.04,1479.3 436.422,1479.3 507.444,1479.3 572.92,1479.3 643.117,1479.3 724.448,1479.3 796.725,1479.3 860.105,1479.3 894.656,1479.3 929.207,1479.29 946.585,1479.27 963.963,1479.15 972.652,1478.93 981.341,1478.46 990.03,1477.46 998.719,1475.45 1003.52,1473.63 1008.33,1471.05 1013.13,1467.45 1017.93,1462.53 1022.74,1455.87 1027.54,1447.02 1032.34,1435.41 1037.15,1420.43 1039.55,1411.46 1041.95,1401.38 1044.35,1390.1 1046.75,1377.52 1049.16,1363.56 1051.56,1348.12 1053.96,1331.1 1056.36,1312.43 1058.76,1292.02 1061.16,1269.8 1063.57,1245.72 1065.97,1219.72 1068.37,1191.76 1070.77,1161.83 1073.17,1129.92 1075.57,1096.06 1077.86,1062.05 1080.14,1026.36 1082.43,989.053 1084.71,950.222 1087,909.982 1089.29,868.465 1091.57,825.829 1093.86,782.248 1098.43,693.055 1103,602.677 1107.57,513.156 1112.14,426.719 1114.42,385.381 1116.71,345.687 1118.99,307.926 1121.28,272.379 1123.56,239.317 1125.85,208.998 1128.13,181.661 1130.42,157.524 1131.56,146.719 1132.7,136.785 1133.85,127.743 1134.99,119.613 1136.13,112.409 1137.27,106.148 1138.42,100.842 1139.56,96.5028 1140.7,93.1385 1141.84,90.7561 1142.99,89.3605 1144.13,88.9544 1145.27,89.5382 1146.41,91.1105 1147.56,93.6676 1148.7,97.2038 1149.89,101.911 1151.08,107.656 1152.26,114.427 1153.45,122.208 1154.64,130.981 1155.83,140.725 1157.02,151.42 1158.2,163.039 1160.58,188.948 1162.96,218.223 1165.33,250.608 1167.71,285.826 1170.08,323.582 1172.46,363.568 1174.84,405.465 1177.21,448.949 1181.96,539.378 1186.72,632.303 1191.47,725.325 1196.22,816.295 1198.6,860.424 1200.97,903.38 1203.35,944.991 1205.72,985.111 1208.1,1023.61 1210.48,1060.4 1212.85,1095.4 1215.23,1128.54 1217.61,1159.81 1219.98,1189.18 1222.36,1216.65 1224.73,1242.25 1226.73,1262.38 1228.73,1281.22 1230.73,1298.82 1232.73,1315.22 1234.73,1330.44 1236.73,1344.55 1238.73,1357.59 1240.73,1369.61 1244.73,1390.78 1248.73,1408.48 1252.73,1423.14 1256.74,1435.15 1260.74,1444.89 1264.74,1452.72 1268.74,1458.95 1272.74,1463.85 1280.74,1470.63 1288.74,1474.6 1298.5,1477.18 1308.27,1478.39 1318.04,1478.93 1327.81,1479.16 1347.34,1479.28 1366.88,1479.3 1402.67,1479.3 1438.46,1479.3 1504.57,1479.3 1571.54,1479.3 1646.6,1479.3 1714.61,1479.3 1792.48,1479.3 1864.58,1479.3 1935.66,1479.3 2004.67,1479.3 2075.42,1479.3 2152.93,1479.3 2265.53,1479.3 2288.63,1479.3 "/>
<path clip-path="url(#clip010)" d="M1640.96 251.89 L2277.23 251.89 L2277.23 96.3696 L1640.96 96.3696  Z" fill="#ffffff" fill-rule="evenodd" fill-opacity="1"/>
<polyline clip-path="url(#clip010)" style="stroke:#000000; stroke-linecap:round; stroke-linejoin:round; stroke-width:4; stroke-opacity:1; fill:none" points="1640.96,251.89 2277.23,251.89 2277.23,96.3696 1640.96,96.3696 1640.96,251.89 "/>
<polyline clip-path="url(#clip010)" style="stroke:#009af9; stroke-linecap:round; stroke-linejoin:round; stroke-width:4; stroke-opacity:1; fill:none" points="1666.13,148.21 1817.18,148.21 "/>
<path clip-path="url(#clip010)" d="M1846.64 161.601 L1846.64 175.351 L1842.36 175.351 L1842.36 139.564 L1846.64 139.564 L1846.64 143.499 Q1847.98 141.184 1850.02 140.073 Q1852.08 138.939 1854.93 138.939 Q1859.65 138.939 1862.59 142.689 Q1865.55 146.439 1865.55 152.55 Q1865.55 158.661 1862.59 162.411 Q1859.65 166.161 1854.93 166.161 Q1852.08 166.161 1850.02 165.05 Q1847.98 163.915 1846.64 161.601 M1861.13 152.55 Q1861.13 147.851 1859.19 145.189 Q1857.27 142.504 1853.89 142.504 Q1850.51 142.504 1848.56 145.189 Q1846.64 147.851 1846.64 152.55 Q1846.64 157.249 1848.56 159.934 Q1850.51 162.596 1853.89 162.596 Q1857.27 162.596 1859.19 159.934 Q1861.13 157.249 1861.13 152.55 Z" fill="#000000" fill-rule="nonzero" fill-opacity="1" /><path clip-path="url(#clip010)" d="M1887.64 143.545 Q1886.92 143.129 1886.06 142.943 Q1885.23 142.735 1884.21 142.735 Q1880.6 142.735 1878.65 145.096 Q1876.73 147.434 1876.73 151.832 L1876.73 165.49 L1872.45 165.49 L1872.45 139.564 L1876.73 139.564 L1876.73 143.592 Q1878.08 141.23 1880.23 140.096 Q1882.38 138.939 1885.46 138.939 Q1885.9 138.939 1886.43 139.008 Q1886.96 139.055 1887.61 139.17 L1887.64 143.545 Z" fill="#000000" fill-rule="nonzero" fill-opacity="1" /><path clip-path="url(#clip010)" d="M1913.24 151.462 L1913.24 153.545 L1893.65 153.545 Q1893.93 157.943 1896.29 160.258 Q1898.68 162.55 1902.91 162.55 Q1905.37 162.55 1907.66 161.948 Q1909.97 161.346 1912.24 160.142 L1912.24 164.17 Q1909.95 165.142 1907.54 165.652 Q1905.14 166.161 1902.66 166.161 Q1896.46 166.161 1892.82 162.55 Q1889.21 158.939 1889.21 152.781 Q1889.21 146.416 1892.64 142.689 Q1896.08 138.939 1901.92 138.939 Q1907.15 138.939 1910.18 142.318 Q1913.24 145.675 1913.24 151.462 M1908.98 150.212 Q1908.93 146.717 1907.01 144.633 Q1905.11 142.55 1901.96 142.55 Q1898.4 142.55 1896.25 144.564 Q1894.12 146.578 1893.79 150.235 L1908.98 150.212 Z" fill="#000000" fill-rule="nonzero" fill-opacity="1" /><path clip-path="url(#clip010)" d="M1918.08 150.605 L1930.55 150.605 L1930.55 154.402 L1918.08 154.402 L1918.08 150.605 Z" fill="#000000" fill-rule="nonzero" fill-opacity="1" /><path clip-path="url(#clip010)" d="M1954.39 143.499 L1954.39 129.471 L1958.65 129.471 L1958.65 165.49 L1954.39 165.49 L1954.39 161.601 Q1953.05 163.915 1950.99 165.05 Q1948.96 166.161 1946.08 166.161 Q1941.39 166.161 1938.42 162.411 Q1935.48 158.661 1935.48 152.55 Q1935.48 146.439 1938.42 142.689 Q1941.39 138.939 1946.08 138.939 Q1948.96 138.939 1950.99 140.073 Q1953.05 141.184 1954.39 143.499 M1939.88 152.55 Q1939.88 157.249 1941.8 159.934 Q1943.75 162.596 1947.13 162.596 Q1950.51 162.596 1952.45 159.934 Q1954.39 157.249 1954.39 152.55 Q1954.39 147.851 1952.45 145.189 Q1950.51 142.504 1947.13 142.504 Q1943.75 142.504 1941.8 145.189 Q1939.88 147.851 1939.88 152.55 Z" fill="#000000" fill-rule="nonzero" fill-opacity="1" /><path clip-path="url(#clip010)" d="M1989.6 151.462 L1989.6 153.545 L1970.02 153.545 Q1970.3 157.943 1972.66 160.258 Q1975.04 162.55 1979.28 162.55 Q1981.73 162.55 1984.02 161.948 Q1986.34 161.346 1988.61 160.142 L1988.61 164.17 Q1986.32 165.142 1983.91 165.652 Q1981.5 166.161 1979.02 166.161 Q1972.82 166.161 1969.19 162.55 Q1965.58 158.939 1965.58 152.781 Q1965.58 146.416 1969 142.689 Q1972.45 138.939 1978.28 138.939 Q1983.52 138.939 1986.55 142.318 Q1989.6 145.675 1989.6 151.462 M1985.34 150.212 Q1985.3 146.717 1983.38 144.633 Q1981.48 142.55 1978.33 142.55 Q1974.77 142.55 1972.61 144.564 Q1970.48 146.578 1970.16 150.235 L1985.34 150.212 Z" fill="#000000" fill-rule="nonzero" fill-opacity="1" /><path clip-path="url(#clip010)" d="M2015.2 152.55 Q2015.2 147.851 2013.26 145.189 Q2011.34 142.504 2007.96 142.504 Q2004.58 142.504 2002.64 145.189 Q2000.71 147.851 2000.71 152.55 Q2000.71 157.249 2002.64 159.934 Q2004.58 162.596 2007.96 162.596 Q2011.34 162.596 2013.26 159.934 Q2015.2 157.249 2015.2 152.55 M2000.71 143.499 Q2002.06 141.184 2004.09 140.073 Q2006.15 138.939 2009 138.939 Q2013.72 138.939 2016.66 142.689 Q2019.63 146.439 2019.63 152.55 Q2019.63 158.661 2016.66 162.411 Q2013.72 166.161 2009 166.161 Q2006.15 166.161 2004.09 165.05 Q2002.06 163.915 2000.71 161.601 L2000.71 165.49 L1996.43 165.49 L1996.43 129.471 L2000.71 129.471 L2000.71 143.499 Z" fill="#000000" fill-rule="nonzero" fill-opacity="1" /><path clip-path="url(#clip010)" d="M2038.47 152.457 Q2033.31 152.457 2031.32 153.638 Q2029.33 154.818 2029.33 157.666 Q2029.33 159.934 2030.81 161.277 Q2032.31 162.596 2034.88 162.596 Q2038.42 162.596 2040.55 160.096 Q2042.7 157.573 2042.7 153.406 L2042.7 152.457 L2038.47 152.457 M2046.96 150.698 L2046.96 165.49 L2042.7 165.49 L2042.7 161.554 Q2041.25 163.915 2039.07 165.05 Q2036.89 166.161 2033.75 166.161 Q2029.76 166.161 2027.4 163.939 Q2025.07 161.693 2025.07 157.943 Q2025.07 153.568 2027.98 151.346 Q2030.92 149.124 2036.73 149.124 L2042.7 149.124 L2042.7 148.707 Q2042.7 145.767 2040.76 144.17 Q2038.84 142.55 2035.34 142.55 Q2033.12 142.55 2031.01 143.082 Q2028.91 143.615 2026.96 144.679 L2026.96 140.744 Q2029.3 139.842 2031.5 139.402 Q2033.7 138.939 2035.78 138.939 Q2041.41 138.939 2044.19 141.855 Q2046.96 144.772 2046.96 150.698 Z" fill="#000000" fill-rule="nonzero" fill-opacity="1" /><path clip-path="url(#clip010)" d="M2059.95 132.203 L2059.95 139.564 L2068.72 139.564 L2068.72 142.874 L2059.95 142.874 L2059.95 156.948 Q2059.95 160.119 2060.81 161.022 Q2061.69 161.925 2064.35 161.925 L2068.72 161.925 L2068.72 165.49 L2064.35 165.49 Q2059.42 165.49 2057.54 163.661 Q2055.67 161.809 2055.67 156.948 L2055.67 142.874 L2052.54 142.874 L2052.54 139.564 L2055.67 139.564 L2055.67 132.203 L2059.95 132.203 Z" fill="#000000" fill-rule="nonzero" fill-opacity="1" /><path clip-path="url(#clip010)" d="M2096.5 151.462 L2096.5 153.545 L2076.92 153.545 Q2077.2 157.943 2079.56 160.258 Q2081.94 162.55 2086.18 162.55 Q2088.63 162.55 2090.92 161.948 Q2093.24 161.346 2095.51 160.142 L2095.51 164.17 Q2093.21 165.142 2090.81 165.652 Q2088.4 166.161 2085.92 166.161 Q2079.72 166.161 2076.08 162.55 Q2072.47 158.939 2072.47 152.781 Q2072.47 146.416 2075.9 142.689 Q2079.35 138.939 2085.18 138.939 Q2090.41 138.939 2093.45 142.318 Q2096.5 145.675 2096.5 151.462 M2092.24 150.212 Q2092.2 146.717 2090.27 144.633 Q2088.38 142.55 2085.23 142.55 Q2081.66 142.55 2079.51 144.564 Q2077.38 146.578 2077.06 150.235 L2092.24 150.212 Z" fill="#000000" fill-rule="nonzero" fill-opacity="1" /><path clip-path="url(#clip010)" d="M2123.42 148.985 L2123.42 161.647 L2130.92 161.647 Q2134.69 161.647 2136.5 160.096 Q2138.33 158.522 2138.33 155.304 Q2138.33 152.064 2136.5 150.536 Q2134.69 148.985 2130.92 148.985 L2123.42 148.985 M2123.42 134.772 L2123.42 145.189 L2130.34 145.189 Q2133.77 145.189 2135.44 143.916 Q2137.13 142.619 2137.13 139.98 Q2137.13 137.365 2135.44 136.068 Q2133.77 134.772 2130.34 134.772 L2123.42 134.772 M2118.75 130.93 L2130.69 130.93 Q2136.04 130.93 2138.93 133.152 Q2141.82 135.374 2141.82 139.471 Q2141.82 142.642 2140.34 144.517 Q2138.86 146.392 2135.99 146.855 Q2139.44 147.596 2141.34 149.957 Q2143.26 152.295 2143.26 155.814 Q2143.26 160.443 2140.11 162.966 Q2136.96 165.49 2131.15 165.49 L2118.75 165.49 L2118.75 130.93 Z" fill="#000000" fill-rule="nonzero" fill-opacity="1" /><path clip-path="url(#clip010)" d="M2150.64 155.258 L2150.64 139.564 L2154.9 139.564 L2154.9 155.096 Q2154.9 158.777 2156.34 160.628 Q2157.77 162.457 2160.64 162.457 Q2164.09 162.457 2166.08 160.258 Q2168.1 158.059 2168.1 154.263 L2168.1 139.564 L2172.36 139.564 L2172.36 165.49 L2168.1 165.49 L2168.1 161.508 Q2166.55 163.869 2164.49 165.027 Q2162.45 166.161 2159.74 166.161 Q2155.27 166.161 2152.96 163.383 Q2150.64 160.605 2150.64 155.258 M2161.36 138.939 L2161.36 138.939 Z" fill="#000000" fill-rule="nonzero" fill-opacity="1" /><path clip-path="url(#clip010)" d="M2197.66 140.328 L2197.66 144.355 Q2195.85 143.429 2193.91 142.967 Q2191.96 142.504 2189.88 142.504 Q2186.71 142.504 2185.11 143.476 Q2183.54 144.448 2183.54 146.392 Q2183.54 147.874 2184.67 148.73 Q2185.81 149.564 2189.23 150.328 L2190.69 150.652 Q2195.23 151.624 2197.13 153.406 Q2199.05 155.166 2199.05 158.337 Q2199.05 161.948 2196.18 164.054 Q2193.33 166.161 2188.33 166.161 Q2186.25 166.161 2183.98 165.744 Q2181.73 165.351 2179.23 164.54 L2179.23 160.142 Q2181.59 161.369 2183.88 161.994 Q2186.18 162.596 2188.42 162.596 Q2191.43 162.596 2193.05 161.578 Q2194.67 160.536 2194.67 158.661 Q2194.67 156.925 2193.49 155.999 Q2192.33 155.073 2188.38 154.216 L2186.89 153.869 Q2182.94 153.036 2181.18 151.323 Q2179.42 149.587 2179.42 146.578 Q2179.42 142.92 2182.01 140.93 Q2184.6 138.939 2189.37 138.939 Q2191.73 138.939 2193.81 139.286 Q2195.9 139.633 2197.66 140.328 Z" fill="#000000" fill-rule="nonzero" fill-opacity="1" /><path clip-path="url(#clip010)" d="M2227.38 149.841 L2227.38 165.49 L2223.12 165.49 L2223.12 149.98 Q2223.12 146.3 2221.69 144.471 Q2220.25 142.642 2217.38 142.642 Q2213.93 142.642 2211.94 144.842 Q2209.95 147.041 2209.95 150.837 L2209.95 165.49 L2205.67 165.49 L2205.67 129.471 L2209.95 129.471 L2209.95 143.592 Q2211.48 141.254 2213.54 140.096 Q2215.62 138.939 2218.33 138.939 Q2222.8 138.939 2225.09 141.717 Q2227.38 144.471 2227.38 149.841 Z" fill="#000000" fill-rule="nonzero" fill-opacity="1" /><polyline clip-path="url(#clip010)" style="stroke:#e26f46; stroke-linecap:round; stroke-linejoin:round; stroke-width:4; stroke-opacity:1; fill:none" points="1666.13,200.05 1817.18,200.05 "/>
<path clip-path="url(#clip010)" d="M1846.64 213.441 L1846.64 227.191 L1842.36 227.191 L1842.36 191.404 L1846.64 191.404 L1846.64 195.339 Q1847.98 193.024 1850.02 191.913 Q1852.08 190.779 1854.93 190.779 Q1859.65 190.779 1862.59 194.529 Q1865.55 198.279 1865.55 204.39 Q1865.55 210.501 1862.59 214.251 Q1859.65 218.001 1854.93 218.001 Q1852.08 218.001 1850.02 216.89 Q1847.98 215.755 1846.64 213.441 M1861.13 204.39 Q1861.13 199.691 1859.19 197.029 Q1857.27 194.344 1853.89 194.344 Q1850.51 194.344 1848.56 197.029 Q1846.64 199.691 1846.64 204.39 Q1846.64 209.089 1848.56 211.774 Q1850.51 214.436 1853.89 214.436 Q1857.27 214.436 1859.19 211.774 Q1861.13 209.089 1861.13 204.39 Z" fill="#000000" fill-rule="nonzero" fill-opacity="1" /><path clip-path="url(#clip010)" d="M1882.66 194.39 Q1879.23 194.39 1877.24 197.075 Q1875.25 199.737 1875.25 204.39 Q1875.25 209.043 1877.22 211.728 Q1879.21 214.39 1882.66 214.39 Q1886.06 214.39 1888.05 211.705 Q1890.04 209.019 1890.04 204.39 Q1890.04 199.783 1888.05 197.098 Q1886.06 194.39 1882.66 194.39 M1882.66 190.779 Q1888.21 190.779 1891.39 194.39 Q1894.56 198.001 1894.56 204.39 Q1894.56 210.756 1891.39 214.39 Q1888.21 218.001 1882.66 218.001 Q1877.08 218.001 1873.91 214.39 Q1870.76 210.756 1870.76 204.39 Q1870.76 198.001 1873.91 194.39 Q1877.08 190.779 1882.66 190.779 Z" fill="#000000" fill-rule="nonzero" fill-opacity="1" /><path clip-path="url(#clip010)" d="M1918.15 192.168 L1918.15 196.195 Q1916.34 195.269 1914.4 194.807 Q1912.45 194.344 1910.37 194.344 Q1907.2 194.344 1905.6 195.316 Q1904.02 196.288 1904.02 198.232 Q1904.02 199.714 1905.16 200.57 Q1906.29 201.404 1909.72 202.168 L1911.18 202.492 Q1915.71 203.464 1917.61 205.246 Q1919.53 207.006 1919.53 210.177 Q1919.53 213.788 1916.66 215.894 Q1913.82 218.001 1908.82 218.001 Q1906.73 218.001 1904.46 217.584 Q1902.22 217.191 1899.72 216.38 L1899.72 211.982 Q1902.08 213.209 1904.37 213.834 Q1906.66 214.436 1908.91 214.436 Q1911.92 214.436 1913.54 213.418 Q1915.16 212.376 1915.16 210.501 Q1915.16 208.765 1913.98 207.839 Q1912.82 206.913 1908.86 206.056 L1907.38 205.709 Q1903.42 204.876 1901.66 203.163 Q1899.9 201.427 1899.9 198.418 Q1899.9 194.76 1902.5 192.77 Q1905.09 190.779 1909.86 190.779 Q1912.22 190.779 1914.3 191.126 Q1916.39 191.473 1918.15 192.168 Z" fill="#000000" fill-rule="nonzero" fill-opacity="1" /><path clip-path="url(#clip010)" d="M1930.53 184.043 L1930.53 191.404 L1939.3 191.404 L1939.3 194.714 L1930.53 194.714 L1930.53 208.788 Q1930.53 211.959 1931.39 212.862 Q1932.27 213.765 1934.93 213.765 L1939.3 213.765 L1939.3 217.33 L1934.93 217.33 Q1930 217.33 1928.12 215.501 Q1926.25 213.649 1926.25 208.788 L1926.25 194.714 L1923.12 194.714 L1923.12 191.404 L1926.25 191.404 L1926.25 184.043 L1930.53 184.043 Z" fill="#000000" fill-rule="nonzero" fill-opacity="1" /><path clip-path="url(#clip010)" d="M1942.75 202.445 L1955.23 202.445 L1955.23 206.242 L1942.75 206.242 L1942.75 202.445 Z" fill="#000000" fill-rule="nonzero" fill-opacity="1" /><path clip-path="url(#clip010)" d="M1979.07 195.339 L1979.07 181.311 L1983.33 181.311 L1983.33 217.33 L1979.07 217.33 L1979.07 213.441 Q1977.73 215.755 1975.67 216.89 Q1973.63 218.001 1970.76 218.001 Q1966.06 218.001 1963.1 214.251 Q1960.16 210.501 1960.16 204.39 Q1960.16 198.279 1963.1 194.529 Q1966.06 190.779 1970.76 190.779 Q1973.63 190.779 1975.67 191.913 Q1977.73 193.024 1979.07 195.339 M1964.56 204.39 Q1964.56 209.089 1966.48 211.774 Q1968.42 214.436 1971.8 214.436 Q1975.18 214.436 1977.13 211.774 Q1979.07 209.089 1979.07 204.39 Q1979.07 199.691 1977.13 197.029 Q1975.18 194.344 1971.8 194.344 Q1968.42 194.344 1966.48 197.029 Q1964.56 199.691 1964.56 204.39 Z" fill="#000000" fill-rule="nonzero" fill-opacity="1" /><path clip-path="url(#clip010)" d="M2014.28 203.302 L2014.28 205.385 L1994.7 205.385 Q1994.97 209.783 1997.33 212.098 Q1999.72 214.39 2003.95 214.39 Q2006.41 214.39 2008.7 213.788 Q2011.01 213.186 2013.28 211.982 L2013.28 216.01 Q2010.99 216.982 2008.58 217.492 Q2006.18 218.001 2003.7 218.001 Q1997.5 218.001 1993.86 214.39 Q1990.25 210.779 1990.25 204.621 Q1990.25 198.256 1993.68 194.529 Q1997.13 190.779 2002.96 190.779 Q2008.19 190.779 2011.22 194.158 Q2014.28 197.515 2014.28 203.302 M2010.02 202.052 Q2009.97 198.557 2008.05 196.473 Q2006.15 194.39 2003.01 194.39 Q1999.44 194.39 1997.29 196.404 Q1995.16 198.418 1994.83 202.075 L2010.02 202.052 Z" fill="#000000" fill-rule="nonzero" fill-opacity="1" /><path clip-path="url(#clip010)" d="M2039.88 204.39 Q2039.88 199.691 2037.94 197.029 Q2036.01 194.344 2032.64 194.344 Q2029.26 194.344 2027.31 197.029 Q2025.39 199.691 2025.39 204.39 Q2025.39 209.089 2027.31 211.774 Q2029.26 214.436 2032.64 214.436 Q2036.01 214.436 2037.94 211.774 Q2039.88 209.089 2039.88 204.39 M2025.39 195.339 Q2026.73 193.024 2028.77 191.913 Q2030.83 190.779 2033.68 190.779 Q2038.4 190.779 2041.34 194.529 Q2044.3 198.279 2044.3 204.39 Q2044.3 210.501 2041.34 214.251 Q2038.4 218.001 2033.68 218.001 Q2030.83 218.001 2028.77 216.89 Q2026.73 215.755 2025.39 213.441 L2025.39 217.33 L2021.11 217.33 L2021.11 181.311 L2025.39 181.311 L2025.39 195.339 Z" fill="#000000" fill-rule="nonzero" fill-opacity="1" /><path clip-path="url(#clip010)" d="M2063.14 204.297 Q2057.98 204.297 2055.99 205.478 Q2054 206.658 2054 209.506 Q2054 211.774 2055.48 213.117 Q2056.99 214.436 2059.56 214.436 Q2063.1 214.436 2065.23 211.936 Q2067.38 209.413 2067.38 205.246 L2067.38 204.297 L2063.14 204.297 M2071.64 202.538 L2071.64 217.33 L2067.38 217.33 L2067.38 213.394 Q2065.92 215.755 2063.75 216.89 Q2061.57 218.001 2058.42 218.001 Q2054.44 218.001 2052.08 215.779 Q2049.74 213.533 2049.74 209.783 Q2049.74 205.408 2052.66 203.186 Q2055.6 200.964 2061.41 200.964 L2067.38 200.964 L2067.38 200.547 Q2067.38 197.607 2065.44 196.01 Q2063.51 194.39 2060.02 194.39 Q2057.8 194.39 2055.69 194.922 Q2053.58 195.455 2051.64 196.519 L2051.64 192.584 Q2053.98 191.682 2056.18 191.242 Q2058.38 190.779 2060.46 190.779 Q2066.08 190.779 2068.86 193.695 Q2071.64 196.612 2071.64 202.538 Z" fill="#000000" fill-rule="nonzero" fill-opacity="1" /><path clip-path="url(#clip010)" d="M2084.63 184.043 L2084.63 191.404 L2093.4 191.404 L2093.4 194.714 L2084.63 194.714 L2084.63 208.788 Q2084.63 211.959 2085.48 212.862 Q2086.36 213.765 2089.02 213.765 L2093.4 213.765 L2093.4 217.33 L2089.02 217.33 Q2084.09 217.33 2082.22 215.501 Q2080.34 213.649 2080.34 208.788 L2080.34 194.714 L2077.22 194.714 L2077.22 191.404 L2080.34 191.404 L2080.34 184.043 L2084.63 184.043 Z" fill="#000000" fill-rule="nonzero" fill-opacity="1" /><path clip-path="url(#clip010)" d="M2121.18 203.302 L2121.18 205.385 L2101.59 205.385 Q2101.87 209.783 2104.23 212.098 Q2106.62 214.39 2110.85 214.39 Q2113.31 214.39 2115.6 213.788 Q2117.91 213.186 2120.18 211.982 L2120.18 216.01 Q2117.89 216.982 2115.48 217.492 Q2113.07 218.001 2110.6 218.001 Q2104.39 218.001 2100.76 214.39 Q2097.15 210.779 2097.15 204.621 Q2097.15 198.256 2100.57 194.529 Q2104.02 190.779 2109.86 190.779 Q2115.09 190.779 2118.12 194.158 Q2121.18 197.515 2121.18 203.302 M2116.92 202.052 Q2116.87 198.557 2114.95 196.473 Q2113.05 194.39 2109.9 194.39 Q2106.34 194.39 2104.19 196.404 Q2102.06 198.418 2101.73 202.075 L2116.92 202.052 Z" fill="#000000" fill-rule="nonzero" fill-opacity="1" /><path clip-path="url(#clip010)" d="M2148.1 200.825 L2148.1 213.487 L2155.6 213.487 Q2159.37 213.487 2161.18 211.936 Q2163 210.362 2163 207.144 Q2163 203.904 2161.18 202.376 Q2159.37 200.825 2155.6 200.825 L2148.1 200.825 M2148.1 186.612 L2148.1 197.029 L2155.02 197.029 Q2158.44 197.029 2160.11 195.756 Q2161.8 194.459 2161.8 191.82 Q2161.8 189.205 2160.11 187.908 Q2158.44 186.612 2155.02 186.612 L2148.1 186.612 M2143.42 182.77 L2155.37 182.77 Q2160.71 182.77 2163.61 184.992 Q2166.5 187.214 2166.5 191.311 Q2166.5 194.482 2165.02 196.357 Q2163.54 198.232 2160.67 198.695 Q2164.12 199.436 2166.01 201.797 Q2167.94 204.135 2167.94 207.654 Q2167.94 212.283 2164.79 214.806 Q2161.64 217.33 2155.83 217.33 L2143.42 217.33 L2143.42 182.77 Z" fill="#000000" fill-rule="nonzero" fill-opacity="1" /><path clip-path="url(#clip010)" d="M2175.32 207.098 L2175.32 191.404 L2179.58 191.404 L2179.58 206.936 Q2179.58 210.617 2181.01 212.468 Q2182.45 214.297 2185.32 214.297 Q2188.77 214.297 2190.76 212.098 Q2192.77 209.899 2192.77 206.103 L2192.77 191.404 L2197.03 191.404 L2197.03 217.33 L2192.77 217.33 L2192.77 213.348 Q2191.22 215.709 2189.16 216.867 Q2187.13 218.001 2184.42 218.001 Q2179.95 218.001 2177.63 215.223 Q2175.32 212.445 2175.32 207.098 M2186.04 190.779 L2186.04 190.779 Z" fill="#000000" fill-rule="nonzero" fill-opacity="1" /><path clip-path="url(#clip010)" d="M2222.33 192.168 L2222.33 196.195 Q2220.53 195.269 2218.58 194.807 Q2216.64 194.344 2214.56 194.344 Q2211.38 194.344 2209.79 195.316 Q2208.21 196.288 2208.21 198.232 Q2208.21 199.714 2209.35 200.57 Q2210.48 201.404 2213.91 202.168 L2215.37 202.492 Q2219.9 203.464 2221.8 205.246 Q2223.72 207.006 2223.72 210.177 Q2223.72 213.788 2220.85 215.894 Q2218 218.001 2213 218.001 Q2210.92 218.001 2208.65 217.584 Q2206.41 217.191 2203.91 216.38 L2203.91 211.982 Q2206.27 213.209 2208.56 213.834 Q2210.85 214.436 2213.1 214.436 Q2216.11 214.436 2217.73 213.418 Q2219.35 212.376 2219.35 210.501 Q2219.35 208.765 2218.17 207.839 Q2217.01 206.913 2213.05 206.056 L2211.57 205.709 Q2207.61 204.876 2205.85 203.163 Q2204.09 201.427 2204.09 198.418 Q2204.09 194.76 2206.69 192.77 Q2209.28 190.779 2214.05 190.779 Q2216.41 190.779 2218.49 191.126 Q2220.57 191.473 2222.33 192.168 Z" fill="#000000" fill-rule="nonzero" fill-opacity="1" /><path clip-path="url(#clip010)" d="M2252.06 201.681 L2252.06 217.33 L2247.8 217.33 L2247.8 201.82 Q2247.8 198.14 2246.36 196.311 Q2244.93 194.482 2242.06 194.482 Q2238.61 194.482 2236.62 196.682 Q2234.62 198.881 2234.62 202.677 L2234.62 217.33 L2230.34 217.33 L2230.34 181.311 L2234.62 181.311 L2234.62 195.432 Q2236.15 193.094 2238.21 191.936 Q2240.3 190.779 2243 190.779 Q2247.47 190.779 2249.76 193.557 Q2252.06 196.311 2252.06 201.681 Z" fill="#000000" fill-rule="nonzero" fill-opacity="1" /></svg>
