<?xml version="1.0" encoding="utf-8"?>
<svg xmlns="http://www.w3.org/2000/svg" xmlns:xlink="http://www.w3.org/1999/xlink" width="600" height="400" viewBox="0 0 2400 1600">
<defs>
  <clipPath id="clip090">
    <rect x="0" y="0" width="2400" height="1600"/>
  </clipPath>
</defs>
<path clip-path="url(#clip090)" d="M0 1600 L2400 1600 L2400 0 L0 0  Z" fill="#ffffff" fill-rule="evenodd" fill-opacity="1"/>
<defs>
  <clipPath id="clip091">
    <rect x="480" y="0" width="1681" height="1600"/>
  </clipPath>
</defs>
<path clip-path="url(#clip090)" d="M102.74 1521.01 L2352.76 1521.01 L2352.76 47.2441 L102.74 47.2441  Z" fill="#ffffff" fill-rule="evenodd" fill-opacity="1"/>
<defs>
  <clipPath id="clip092">
    <rect x="102" y="47" width="2251" height="1475"/>
  </clipPath>
</defs>
<polyline clip-path="url(#clip092)" style="stroke:#000000; stroke-linecap:round; stroke-linejoin:round; stroke-width:2; stroke-opacity:0.1; fill:none" points="166.42,1521.01 166.42,47.2441 "/>
<polyline clip-path="url(#clip092)" style="stroke:#000000; stroke-linecap:round; stroke-linejoin:round; stroke-width:2; stroke-opacity:0.1; fill:none" points="697.084,1521.01 697.084,47.2441 "/>
<polyline clip-path="url(#clip092)" style="stroke:#000000; stroke-linecap:round; stroke-linejoin:round; stroke-width:2; stroke-opacity:0.1; fill:none" points="1227.75,1521.01 1227.75,47.2441 "/>
<polyline clip-path="url(#clip092)" style="stroke:#000000; stroke-linecap:round; stroke-linejoin:round; stroke-width:2; stroke-opacity:0.1; fill:none" points="1758.41,1521.01 1758.41,47.2441 "/>
<polyline clip-path="url(#clip092)" style="stroke:#000000; stroke-linecap:round; stroke-linejoin:round; stroke-width:2; stroke-opacity:0.1; fill:none" points="2289.08,1521.01 2289.08,47.2441 "/>
<polyline clip-path="url(#clip090)" style="stroke:#000000; stroke-linecap:round; stroke-linejoin:round; stroke-width:4; stroke-opacity:1; fill:none" points="102.74,1521.01 2352.76,1521.01 "/>
<polyline clip-path="url(#clip090)" style="stroke:#000000; stroke-linecap:round; stroke-linejoin:round; stroke-width:4; stroke-opacity:1; fill:none" points="166.42,1521.01 166.42,1502.11 "/>
<polyline clip-path="url(#clip090)" style="stroke:#000000; stroke-linecap:round; stroke-linejoin:round; stroke-width:4; stroke-opacity:1; fill:none" points="697.084,1521.01 697.084,1502.11 "/>
<polyline clip-path="url(#clip090)" style="stroke:#000000; stroke-linecap:round; stroke-linejoin:round; stroke-width:4; stroke-opacity:1; fill:none" points="1227.75,1521.01 1227.75,1502.11 "/>
<polyline clip-path="url(#clip090)" style="stroke:#000000; stroke-linecap:round; stroke-linejoin:round; stroke-width:4; stroke-opacity:1; fill:none" points="1758.41,1521.01 1758.41,1502.11 "/>
<polyline clip-path="url(#clip090)" style="stroke:#000000; stroke-linecap:round; stroke-linejoin:round; stroke-width:4; stroke-opacity:1; fill:none" points="2289.08,1521.01 2289.08,1502.11 "/>
<path clip-path="url(#clip090)" d="M128.723 1551.93 Q125.112 1551.93 123.284 1555.49 Q121.478 1559.03 121.478 1566.16 Q121.478 1573.27 123.284 1576.83 Q125.112 1580.38 128.723 1580.38 Q132.358 1580.38 134.163 1576.83 Q135.992 1573.27 135.992 1566.16 Q135.992 1559.03 134.163 1555.49 Q132.358 1551.93 128.723 1551.93 M128.723 1548.22 Q134.533 1548.22 137.589 1552.83 Q140.668 1557.41 140.668 1566.16 Q140.668 1574.89 137.589 1579.5 Q134.533 1584.08 128.723 1584.08 Q122.913 1584.08 119.834 1579.5 Q116.779 1574.89 116.779 1566.16 Q116.779 1557.41 119.834 1552.83 Q122.913 1548.22 128.723 1548.22 Z" fill="#000000" fill-rule="nonzero" fill-opacity="1" /><path clip-path="url(#clip090)" d="M148.885 1577.53 L153.769 1577.53 L153.769 1583.41 L148.885 1583.41 L148.885 1577.53 Z" fill="#000000" fill-rule="nonzero" fill-opacity="1" /><path clip-path="url(#clip090)" d="M173.955 1551.93 Q170.343 1551.93 168.515 1555.49 Q166.709 1559.03 166.709 1566.16 Q166.709 1573.27 168.515 1576.83 Q170.343 1580.38 173.955 1580.38 Q177.589 1580.38 179.394 1576.83 Q181.223 1573.27 181.223 1566.16 Q181.223 1559.03 179.394 1555.49 Q177.589 1551.93 173.955 1551.93 M173.955 1548.22 Q179.765 1548.22 182.82 1552.83 Q185.899 1557.41 185.899 1566.16 Q185.899 1574.89 182.82 1579.5 Q179.765 1584.08 173.955 1584.08 Q168.144 1584.08 165.066 1579.5 Q162.01 1574.89 162.01 1566.16 Q162.01 1557.41 165.066 1552.83 Q168.144 1548.22 173.955 1548.22 Z" fill="#000000" fill-rule="nonzero" fill-opacity="1" /><path clip-path="url(#clip090)" d="M204.116 1551.93 Q200.505 1551.93 198.677 1555.49 Q196.871 1559.03 196.871 1566.16 Q196.871 1573.27 198.677 1576.83 Q200.505 1580.38 204.116 1580.38 Q207.751 1580.38 209.556 1576.83 Q211.385 1573.27 211.385 1566.16 Q211.385 1559.03 209.556 1555.49 Q207.751 1551.93 204.116 1551.93 M204.116 1548.22 Q209.927 1548.22 212.982 1552.83 Q216.061 1557.41 216.061 1566.16 Q216.061 1574.89 212.982 1579.5 Q209.927 1584.08 204.116 1584.08 Q198.306 1584.08 195.228 1579.5 Q192.172 1574.89 192.172 1566.16 Q192.172 1557.41 195.228 1552.83 Q198.306 1548.22 204.116 1548.22 Z" fill="#000000" fill-rule="nonzero" fill-opacity="1" /><path clip-path="url(#clip090)" d="M659.885 1551.93 Q656.274 1551.93 654.445 1555.49 Q652.64 1559.03 652.64 1566.16 Q652.64 1573.27 654.445 1576.83 Q656.274 1580.38 659.885 1580.38 Q663.519 1580.38 665.325 1576.83 Q667.154 1573.27 667.154 1566.16 Q667.154 1559.03 665.325 1555.49 Q663.519 1551.93 659.885 1551.93 M659.885 1548.22 Q665.695 1548.22 668.751 1552.83 Q671.829 1557.41 671.829 1566.16 Q671.829 1574.89 668.751 1579.5 Q665.695 1584.08 659.885 1584.08 Q654.075 1584.08 650.996 1579.5 Q647.941 1574.89 647.941 1566.16 Q647.941 1557.41 650.996 1552.83 Q654.075 1548.22 659.885 1548.22 Z" fill="#000000" fill-rule="nonzero" fill-opacity="1" /><path clip-path="url(#clip090)" d="M680.047 1577.53 L684.931 1577.53 L684.931 1583.41 L680.047 1583.41 L680.047 1577.53 Z" fill="#000000" fill-rule="nonzero" fill-opacity="1" /><path clip-path="url(#clip090)" d="M699.144 1579.47 L715.463 1579.47 L715.463 1583.41 L693.519 1583.41 L693.519 1579.47 Q696.181 1576.72 700.764 1572.09 Q705.371 1567.44 706.551 1566.09 Q708.797 1563.57 709.676 1561.83 Q710.579 1560.07 710.579 1558.38 Q710.579 1555.63 708.635 1553.89 Q706.714 1552.16 703.612 1552.16 Q701.413 1552.16 698.959 1552.92 Q696.528 1553.69 693.751 1555.24 L693.751 1550.51 Q696.575 1549.38 699.028 1548.8 Q701.482 1548.22 703.519 1548.22 Q708.889 1548.22 712.084 1550.91 Q715.278 1553.59 715.278 1558.08 Q715.278 1560.21 714.468 1562.13 Q713.681 1564.03 711.575 1566.63 Q710.996 1567.3 707.894 1570.51 Q704.792 1573.71 699.144 1579.47 Z" fill="#000000" fill-rule="nonzero" fill-opacity="1" /><path clip-path="url(#clip090)" d="M725.325 1548.85 L743.681 1548.85 L743.681 1552.78 L729.607 1552.78 L729.607 1561.26 Q730.625 1560.91 731.644 1560.75 Q732.662 1560.56 733.681 1560.56 Q739.468 1560.56 742.848 1563.73 Q746.227 1566.9 746.227 1572.32 Q746.227 1577.9 742.755 1581 Q739.283 1584.08 732.963 1584.08 Q730.787 1584.08 728.519 1583.71 Q726.274 1583.34 723.866 1582.6 L723.866 1577.9 Q725.95 1579.03 728.172 1579.59 Q730.394 1580.14 732.871 1580.14 Q736.875 1580.14 739.213 1578.04 Q741.551 1575.93 741.551 1572.32 Q741.551 1568.71 739.213 1566.6 Q736.875 1564.5 732.871 1564.5 Q730.996 1564.5 729.121 1564.91 Q727.269 1565.33 725.325 1566.21 L725.325 1548.85 Z" fill="#000000" fill-rule="nonzero" fill-opacity="1" /><path clip-path="url(#clip090)" d="M1190.05 1551.93 Q1186.44 1551.93 1184.61 1555.49 Q1182.81 1559.03 1182.81 1566.16 Q1182.81 1573.27 1184.61 1576.83 Q1186.44 1580.38 1190.05 1580.38 Q1193.69 1580.38 1195.49 1576.83 Q1197.32 1573.27 1197.32 1566.16 Q1197.32 1559.03 1195.49 1555.49 Q1193.69 1551.93 1190.05 1551.93 M1190.05 1548.22 Q1195.86 1548.22 1198.92 1552.83 Q1202 1557.41 1202 1566.16 Q1202 1574.89 1198.92 1579.5 Q1195.86 1584.08 1190.05 1584.08 Q1184.24 1584.08 1181.16 1579.5 Q1178.11 1574.89 1178.11 1566.16 Q1178.11 1557.41 1181.16 1552.83 Q1184.24 1548.22 1190.05 1548.22 Z" fill="#000000" fill-rule="nonzero" fill-opacity="1" /><path clip-path="url(#clip090)" d="M1210.21 1577.53 L1215.1 1577.53 L1215.1 1583.41 L1210.21 1583.41 L1210.21 1577.53 Z" fill="#000000" fill-rule="nonzero" fill-opacity="1" /><path clip-path="url(#clip090)" d="M1225.33 1548.85 L1243.69 1548.85 L1243.69 1552.78 L1229.61 1552.78 L1229.61 1561.26 Q1230.63 1560.91 1231.65 1560.75 Q1232.67 1560.56 1233.69 1560.56 Q1239.47 1560.56 1242.85 1563.73 Q1246.23 1566.9 1246.23 1572.32 Q1246.23 1577.9 1242.76 1581 Q1239.29 1584.08 1232.97 1584.08 Q1230.79 1584.08 1228.52 1583.71 Q1226.28 1583.34 1223.87 1582.6 L1223.87 1577.9 Q1225.95 1579.03 1228.18 1579.59 Q1230.4 1580.14 1232.88 1580.14 Q1236.88 1580.14 1239.22 1578.04 Q1241.56 1575.93 1241.56 1572.32 Q1241.56 1568.71 1239.22 1566.6 Q1236.88 1564.5 1232.88 1564.5 Q1231 1564.5 1229.13 1564.91 Q1227.27 1565.33 1225.33 1566.21 L1225.33 1548.85 Z" fill="#000000" fill-rule="nonzero" fill-opacity="1" /><path clip-path="url(#clip090)" d="M1265.44 1551.93 Q1261.83 1551.93 1260 1555.49 Q1258.2 1559.03 1258.2 1566.16 Q1258.2 1573.27 1260 1576.83 Q1261.83 1580.38 1265.44 1580.38 Q1269.08 1580.38 1270.88 1576.83 Q1272.71 1573.27 1272.71 1566.16 Q1272.71 1559.03 1270.88 1555.49 Q1269.08 1551.93 1265.44 1551.93 M1265.44 1548.22 Q1271.25 1548.22 1274.31 1552.83 Q1277.39 1557.41 1277.39 1566.16 Q1277.39 1574.89 1274.31 1579.5 Q1271.25 1584.08 1265.44 1584.08 Q1259.63 1584.08 1256.56 1579.5 Q1253.5 1574.89 1253.5 1566.16 Q1253.5 1557.41 1256.56 1552.83 Q1259.63 1548.22 1265.44 1548.22 Z" fill="#000000" fill-rule="nonzero" fill-opacity="1" /><path clip-path="url(#clip090)" d="M1721.21 1551.93 Q1717.6 1551.93 1715.77 1555.49 Q1713.97 1559.03 1713.97 1566.16 Q1713.97 1573.27 1715.77 1576.83 Q1717.6 1580.38 1721.21 1580.38 Q1724.85 1580.38 1726.65 1576.83 Q1728.48 1573.27 1728.48 1566.16 Q1728.48 1559.03 1726.65 1555.49 Q1724.85 1551.93 1721.21 1551.93 M1721.21 1548.22 Q1727.02 1548.22 1730.08 1552.83 Q1733.16 1557.41 1733.16 1566.16 Q1733.16 1574.89 1730.08 1579.5 Q1727.02 1584.08 1721.21 1584.08 Q1715.4 1584.08 1712.32 1579.5 Q1709.27 1574.89 1709.27 1566.16 Q1709.27 1557.41 1712.32 1552.83 Q1715.4 1548.22 1721.21 1548.22 Z" fill="#000000" fill-rule="nonzero" fill-opacity="1" /><path clip-path="url(#clip090)" d="M1741.38 1577.53 L1746.26 1577.53 L1746.26 1583.41 L1741.38 1583.41 L1741.38 1577.53 Z" fill="#000000" fill-rule="nonzero" fill-opacity="1" /><path clip-path="url(#clip090)" d="M1755.26 1548.85 L1777.49 1548.85 L1777.49 1550.84 L1764.94 1583.41 L1760.06 1583.41 L1771.86 1552.78 L1755.26 1552.78 L1755.26 1548.85 Z" fill="#000000" fill-rule="nonzero" fill-opacity="1" /><path clip-path="url(#clip090)" d="M1786.65 1548.85 L1805.01 1548.85 L1805.01 1552.78 L1790.94 1552.78 L1790.94 1561.26 Q1791.95 1560.91 1792.97 1560.75 Q1793.99 1560.56 1795.01 1560.56 Q1800.8 1560.56 1804.18 1563.73 Q1807.56 1566.9 1807.56 1572.32 Q1807.56 1577.9 1804.08 1581 Q1800.61 1584.08 1794.29 1584.08 Q1792.12 1584.08 1789.85 1583.71 Q1787.6 1583.34 1785.19 1582.6 L1785.19 1577.9 Q1787.28 1579.03 1789.5 1579.59 Q1791.72 1580.14 1794.2 1580.14 Q1798.2 1580.14 1800.54 1578.04 Q1802.88 1575.93 1802.88 1572.32 Q1802.88 1568.71 1800.54 1566.6 Q1798.2 1564.5 1794.2 1564.5 Q1792.32 1564.5 1790.45 1564.91 Q1788.6 1565.33 1786.65 1566.21 L1786.65 1548.85 Z" fill="#000000" fill-rule="nonzero" fill-opacity="1" /><path clip-path="url(#clip090)" d="M2241.15 1579.47 L2248.79 1579.47 L2248.79 1553.11 L2240.48 1554.77 L2240.48 1550.51 L2248.74 1548.85 L2253.42 1548.85 L2253.42 1579.47 L2261.06 1579.47 L2261.06 1583.41 L2241.15 1583.41 L2241.15 1579.47 Z" fill="#000000" fill-rule="nonzero" fill-opacity="1" /><path clip-path="url(#clip090)" d="M2270.5 1577.53 L2275.38 1577.53 L2275.38 1583.41 L2270.5 1583.41 L2270.5 1577.53 Z" fill="#000000" fill-rule="nonzero" fill-opacity="1" /><path clip-path="url(#clip090)" d="M2295.57 1551.93 Q2291.96 1551.93 2290.13 1555.49 Q2288.32 1559.03 2288.32 1566.16 Q2288.32 1573.27 2290.13 1576.83 Q2291.96 1580.38 2295.57 1580.38 Q2299.2 1580.38 2301.01 1576.83 Q2302.84 1573.27 2302.84 1566.16 Q2302.84 1559.03 2301.01 1555.49 Q2299.2 1551.93 2295.57 1551.93 M2295.57 1548.22 Q2301.38 1548.22 2304.43 1552.83 Q2307.51 1557.41 2307.51 1566.16 Q2307.51 1574.89 2304.43 1579.5 Q2301.38 1584.08 2295.57 1584.08 Q2289.76 1584.08 2286.68 1579.5 Q2283.62 1574.89 2283.62 1566.16 Q2283.62 1557.41 2286.68 1552.83 Q2289.76 1548.22 2295.57 1548.22 Z" fill="#000000" fill-rule="nonzero" fill-opacity="1" /><path clip-path="url(#clip090)" d="M2325.73 1551.93 Q2322.12 1551.93 2320.29 1555.49 Q2318.49 1559.03 2318.49 1566.16 Q2318.49 1573.27 2320.29 1576.83 Q2322.12 1580.38 2325.73 1580.38 Q2329.37 1580.38 2331.17 1576.83 Q2333 1573.27 2333 1566.16 Q2333 1559.03 2331.17 1555.49 Q2329.37 1551.93 2325.73 1551.93 M2325.73 1548.22 Q2331.54 1548.22 2334.6 1552.83 Q2337.68 1557.41 2337.68 1566.16 Q2337.68 1574.89 2334.6 1579.5 Q2331.54 1584.08 2325.73 1584.08 Q2319.92 1584.08 2316.84 1579.5 Q2313.79 1574.89 2313.79 1566.16 Q2313.79 1557.41 2316.84 1552.83 Q2319.92 1548.22 2325.73 1548.22 Z" fill="#000000" fill-rule="nonzero" fill-opacity="1" /><polyline clip-path="url(#clip092)" style="stroke:#000000; stroke-linecap:round; stroke-linejoin:round; stroke-width:2; stroke-opacity:0.1; fill:none" points="102.74,1479.3 2352.76,1479.3 "/>
<polyline clip-path="url(#clip092)" style="stroke:#000000; stroke-linecap:round; stroke-linejoin:round; stroke-width:2; stroke-opacity:0.1; fill:none" points="102.74,1218.77 2352.76,1218.77 "/>
<polyline clip-path="url(#clip092)" style="stroke:#000000; stroke-linecap:round; stroke-linejoin:round; stroke-width:2; stroke-opacity:0.1; fill:none" points="102.74,958.234 2352.76,958.234 "/>
<polyline clip-path="url(#clip092)" style="stroke:#000000; stroke-linecap:round; stroke-linejoin:round; stroke-width:2; stroke-opacity:0.1; fill:none" points="102.74,697.702 2352.76,697.702 "/>
<polyline clip-path="url(#clip092)" style="stroke:#000000; stroke-linecap:round; stroke-linejoin:round; stroke-width:2; stroke-opacity:0.1; fill:none" points="102.74,437.17 2352.76,437.17 "/>
<polyline clip-path="url(#clip092)" style="stroke:#000000; stroke-linecap:round; stroke-linejoin:round; stroke-width:2; stroke-opacity:0.1; fill:none" points="102.74,176.639 2352.76,176.639 "/>
<polyline clip-path="url(#clip090)" style="stroke:#000000; stroke-linecap:round; stroke-linejoin:round; stroke-width:4; stroke-opacity:1; fill:none" points="102.74,1521.01 102.74,47.2441 "/>
<polyline clip-path="url(#clip090)" style="stroke:#000000; stroke-linecap:round; stroke-linejoin:round; stroke-width:4; stroke-opacity:1; fill:none" points="102.74,1479.3 121.638,1479.3 "/>
<polyline clip-path="url(#clip090)" style="stroke:#000000; stroke-linecap:round; stroke-linejoin:round; stroke-width:4; stroke-opacity:1; fill:none" points="102.74,1218.77 121.638,1218.77 "/>
<polyline clip-path="url(#clip090)" style="stroke:#000000; stroke-linecap:round; stroke-linejoin:round; stroke-width:4; stroke-opacity:1; fill:none" points="102.74,958.234 121.638,958.234 "/>
<polyline clip-path="url(#clip090)" style="stroke:#000000; stroke-linecap:round; stroke-linejoin:round; stroke-width:4; stroke-opacity:1; fill:none" points="102.74,697.702 121.638,697.702 "/>
<polyline clip-path="url(#clip090)" style="stroke:#000000; stroke-linecap:round; stroke-linejoin:round; stroke-width:4; stroke-opacity:1; fill:none" points="102.74,437.17 121.638,437.17 "/>
<polyline clip-path="url(#clip090)" style="stroke:#000000; stroke-linecap:round; stroke-linejoin:round; stroke-width:4; stroke-opacity:1; fill:none" points="102.74,176.639 121.638,176.639 "/>
<path clip-path="url(#clip090)" d="M-20.5973 1465.1 Q-24.2084 1465.1 -26.0371 1468.66 Q-27.8427 1472.2 -27.8427 1479.33 Q-27.8427 1486.44 -26.0371 1490 Q-24.2084 1493.55 -20.5973 1493.55 Q-16.9631 1493.55 -15.1576 1490 Q-13.3289 1486.44 -13.3289 1479.33 Q-13.3289 1472.2 -15.1576 1468.66 Q-16.9631 1465.1 -20.5973 1465.1 M-20.5973 1461.39 Q-14.7872 1461.39 -11.7316 1466 Q-8.65296 1470.58 -8.65296 1479.33 Q-8.65296 1488.06 -11.7316 1492.67 Q-14.7872 1497.25 -20.5973 1497.25 Q-26.4075 1497.25 -29.4862 1492.67 Q-32.5417 1488.06 -32.5417 1479.33 Q-32.5417 1470.58 -29.4862 1466 Q-26.4075 1461.39 -20.5973 1461.39 Z" fill="#000000" fill-rule="nonzero" fill-opacity="1" /><path clip-path="url(#clip090)" d="M-0.435408 1490.7 L4.44882 1490.7 L4.44882 1496.58 L-0.435408 1496.58 L-0.435408 1490.7 Z" fill="#000000" fill-rule="nonzero" fill-opacity="1" /><path clip-path="url(#clip090)" d="M24.6339 1465.1 Q21.0228 1465.1 19.1941 1468.66 Q17.3886 1472.2 17.3886 1479.33 Q17.3886 1486.44 19.1941 1490 Q21.0228 1493.55 24.6339 1493.55 Q28.2681 1493.55 30.0737 1490 Q31.9024 1486.44 31.9024 1479.33 Q31.9024 1472.2 30.0737 1468.66 Q28.2681 1465.1 24.6339 1465.1 M24.6339 1461.39 Q30.4441 1461.39 33.4996 1466 Q36.5783 1470.58 36.5783 1479.33 Q36.5783 1488.06 33.4996 1492.67 Q30.4441 1497.25 24.6339 1497.25 Q18.8237 1497.25 15.7451 1492.67 Q12.6895 1488.06 12.6895 1479.33 Q12.6895 1470.58 15.7451 1466 Q18.8237 1461.39 24.6339 1461.39 Z" fill="#000000" fill-rule="nonzero" fill-opacity="1" /><path clip-path="url(#clip090)" d="M54.7958 1465.1 Q51.1847 1465.1 49.356 1468.66 Q47.5504 1472.2 47.5504 1479.33 Q47.5504 1486.44 49.356 1490 Q51.1847 1493.55 54.7958 1493.55 Q58.43 1493.55 60.2356 1490 Q62.0643 1486.44 62.0643 1479.33 Q62.0643 1472.2 60.2356 1468.66 Q58.43 1465.1 54.7958 1465.1 M54.7958 1461.39 Q60.6059 1461.39 63.6615 1466 Q66.7402 1470.58 66.7402 1479.33 Q66.7402 1488.06 63.6615 1492.67 Q60.6059 1497.25 54.7958 1497.25 Q48.9856 1497.25 45.9069 1492.67 Q42.8514 1488.06 42.8514 1479.33 Q42.8514 1470.58 45.9069 1466 Q48.9856 1461.39 54.7958 1461.39 Z" fill="#000000" fill-rule="nonzero" fill-opacity="1" /><path clip-path="url(#clip090)" d="M-19.602 1204.56 Q-23.2131 1204.56 -25.0418 1208.13 Q-26.8473 1211.67 -26.8473 1218.8 Q-26.8473 1225.91 -25.0418 1229.47 Q-23.2131 1233.01 -19.602 1233.01 Q-15.9677 1233.01 -14.1622 1229.47 Q-12.3335 1225.91 -12.3335 1218.8 Q-12.3335 1211.67 -14.1622 1208.13 Q-15.9677 1204.56 -19.602 1204.56 M-19.602 1200.86 Q-13.7918 1200.86 -10.7363 1205.47 Q-7.65759 1210.05 -7.65759 1218.8 Q-7.65759 1227.53 -10.7363 1232.13 Q-13.7918 1236.72 -19.602 1236.72 Q-25.4121 1236.72 -28.4908 1232.13 Q-31.5464 1227.53 -31.5464 1218.8 Q-31.5464 1210.05 -28.4908 1205.47 Q-25.4121 1200.86 -19.602 1200.86 Z" fill="#000000" fill-rule="nonzero" fill-opacity="1" /><path clip-path="url(#clip090)" d="M0.559957 1230.17 L5.44419 1230.17 L5.44419 1236.05 L0.559957 1236.05 L0.559957 1230.17 Z" fill="#000000" fill-rule="nonzero" fill-opacity="1" /><path clip-path="url(#clip090)" d="M25.6293 1204.56 Q22.0182 1204.56 20.1895 1208.13 Q18.3839 1211.67 18.3839 1218.8 Q18.3839 1225.91 20.1895 1229.47 Q22.0182 1233.01 25.6293 1233.01 Q29.2635 1233.01 31.0691 1229.47 Q32.8977 1225.91 32.8977 1218.8 Q32.8977 1211.67 31.0691 1208.13 Q29.2635 1204.56 25.6293 1204.56 M25.6293 1200.86 Q31.4394 1200.86 34.495 1205.47 Q37.5736 1210.05 37.5736 1218.8 Q37.5736 1227.53 34.495 1232.13 Q31.4394 1236.72 25.6293 1236.72 Q19.8191 1236.72 16.7404 1232.13 Q13.6849 1227.53 13.6849 1218.8 Q13.6849 1210.05 16.7404 1205.47 Q19.8191 1200.86 25.6293 1200.86 Z" fill="#000000" fill-rule="nonzero" fill-opacity="1" /><path clip-path="url(#clip090)" d="M45.8375 1201.49 L64.1939 1201.49 L64.1939 1205.42 L50.1199 1205.42 L50.1199 1213.89 Q51.1384 1213.55 52.1569 1213.38 Q53.1754 1213.2 54.1939 1213.2 Q59.9809 1213.2 63.3605 1216.37 Q66.7402 1219.54 66.7402 1224.96 Q66.7402 1230.54 63.268 1233.64 Q59.7958 1236.72 53.4763 1236.72 Q51.3004 1236.72 49.0319 1236.35 Q46.7866 1235.98 44.3792 1235.24 L44.3792 1230.54 Q46.4625 1231.67 48.6847 1232.23 Q50.9069 1232.78 53.3837 1232.78 Q57.3884 1232.78 59.7263 1230.68 Q62.0643 1228.57 62.0643 1224.96 Q62.0643 1221.35 59.7263 1219.24 Q57.3884 1217.13 53.3837 1217.13 Q51.5088 1217.13 49.6338 1217.55 Q47.7819 1217.97 45.8375 1218.85 L45.8375 1201.49 Z" fill="#000000" fill-rule="nonzero" fill-opacity="1" /><path clip-path="url(#clip090)" d="M-20.5973 944.033 Q-24.2084 944.033 -26.0371 947.597 Q-27.8427 951.139 -27.8427 958.269 Q-27.8427 965.375 -26.0371 968.94 Q-24.2084 972.482 -20.5973 972.482 Q-16.9631 972.482 -15.1576 968.94 Q-13.3289 965.375 -13.3289 958.269 Q-13.3289 951.139 -15.1576 947.597 Q-16.9631 944.033 -20.5973 944.033 M-20.5973 940.329 Q-14.7872 940.329 -11.7316 944.935 Q-8.65296 949.519 -8.65296 958.269 Q-8.65296 966.996 -11.7316 971.602 Q-14.7872 976.185 -20.5973 976.185 Q-26.4075 976.185 -29.4862 971.602 Q-32.5417 966.996 -32.5417 958.269 Q-32.5417 949.519 -29.4862 944.935 Q-26.4075 940.329 -20.5973 940.329 Z" fill="#000000" fill-rule="nonzero" fill-opacity="1" /><path clip-path="url(#clip090)" d="M-0.435408 969.634 L4.44882 969.634 L4.44882 975.514 L-0.435408 975.514 L-0.435408 969.634 Z" fill="#000000" fill-rule="nonzero" fill-opacity="1" /><path clip-path="url(#clip090)" d="M15.4441 971.579 L23.083 971.579 L23.083 945.213 L14.7728 946.88 L14.7728 942.621 L23.0367 940.954 L27.7126 940.954 L27.7126 971.579 L35.3514 971.579 L35.3514 975.514 L15.4441 975.514 L15.4441 971.579 Z" fill="#000000" fill-rule="nonzero" fill-opacity="1" /><path clip-path="url(#clip090)" d="M54.7958 944.033 Q51.1847 944.033 49.356 947.597 Q47.5504 951.139 47.5504 958.269 Q47.5504 965.375 49.356 968.94 Q51.1847 972.482 54.7958 972.482 Q58.43 972.482 60.2356 968.94 Q62.0643 965.375 62.0643 958.269 Q62.0643 951.139 60.2356 947.597 Q58.43 944.033 54.7958 944.033 M54.7958 940.329 Q60.6059 940.329 63.6615 944.935 Q66.7402 949.519 66.7402 958.269 Q66.7402 966.996 63.6615 971.602 Q60.6059 976.185 54.7958 976.185 Q48.9856 976.185 45.9069 971.602 Q42.8514 966.996 42.8514 958.269 Q42.8514 949.519 45.9069 944.935 Q48.9856 940.329 54.7958 940.329 Z" fill="#000000" fill-rule="nonzero" fill-opacity="1" /><path clip-path="url(#clip090)" d="M-19.602 683.501 Q-23.2131 683.501 -25.0418 687.066 Q-26.8473 690.607 -26.8473 697.737 Q-26.8473 704.843 -25.0418 708.408 Q-23.2131 711.95 -19.602 711.95 Q-15.9677 711.95 -14.1622 708.408 Q-12.3335 704.843 -12.3335 697.737 Q-12.3335 690.607 -14.1622 687.066 Q-15.9677 683.501 -19.602 683.501 M-19.602 679.797 Q-13.7918 679.797 -10.7363 684.404 Q-7.65759 688.987 -7.65759 697.737 Q-7.65759 706.464 -10.7363 711.07 Q-13.7918 715.653 -19.602 715.653 Q-25.4121 715.653 -28.4908 711.07 Q-31.5464 706.464 -31.5464 697.737 Q-31.5464 688.987 -28.4908 684.404 Q-25.4121 679.797 -19.602 679.797 Z" fill="#000000" fill-rule="nonzero" fill-opacity="1" /><path clip-path="url(#clip090)" d="M0.559957 709.103 L5.44419 709.103 L5.44419 714.982 L0.559957 714.982 L0.559957 709.103 Z" fill="#000000" fill-rule="nonzero" fill-opacity="1" /><path clip-path="url(#clip090)" d="M16.4395 711.047 L24.0783 711.047 L24.0783 684.681 L15.7682 686.348 L15.7682 682.089 L24.0321 680.422 L28.708 680.422 L28.708 711.047 L36.3468 711.047 L36.3468 714.982 L16.4395 714.982 L16.4395 711.047 Z" fill="#000000" fill-rule="nonzero" fill-opacity="1" /><path clip-path="url(#clip090)" d="M45.8375 680.422 L64.1939 680.422 L64.1939 684.357 L50.1199 684.357 L50.1199 692.83 Q51.1384 692.482 52.1569 692.32 Q53.1754 692.135 54.1939 692.135 Q59.9809 692.135 63.3605 695.306 Q66.7402 698.478 66.7402 703.894 Q66.7402 709.473 63.268 712.575 Q59.7958 715.653 53.4763 715.653 Q51.3004 715.653 49.0319 715.283 Q46.7866 714.913 44.3792 714.172 L44.3792 709.473 Q46.4625 710.607 48.6847 711.163 Q50.9069 711.718 53.3837 711.718 Q57.3884 711.718 59.7263 709.612 Q62.0643 707.505 62.0643 703.894 Q62.0643 700.283 59.7263 698.177 Q57.3884 696.07 53.3837 696.07 Q51.5088 696.07 49.6338 696.487 Q47.7819 696.904 45.8375 697.783 L45.8375 680.422 Z" fill="#000000" fill-rule="nonzero" fill-opacity="1" /><path clip-path="url(#clip090)" d="M-20.5973 422.969 Q-24.2084 422.969 -26.0371 426.534 Q-27.8427 430.076 -27.8427 437.205 Q-27.8427 444.312 -26.0371 447.876 Q-24.2084 451.418 -20.5973 451.418 Q-16.9631 451.418 -15.1576 447.876 Q-13.3289 444.312 -13.3289 437.205 Q-13.3289 430.076 -15.1576 426.534 Q-16.9631 422.969 -20.5973 422.969 M-20.5973 419.265 Q-14.7872 419.265 -11.7316 423.872 Q-8.65296 428.455 -8.65296 437.205 Q-8.65296 445.932 -11.7316 450.538 Q-14.7872 455.122 -20.5973 455.122 Q-26.4075 455.122 -29.4862 450.538 Q-32.5417 445.932 -32.5417 437.205 Q-32.5417 428.455 -29.4862 423.872 Q-26.4075 419.265 -20.5973 419.265 Z" fill="#000000" fill-rule="nonzero" fill-opacity="1" /><path clip-path="url(#clip090)" d="M-0.435408 448.571 L4.44882 448.571 L4.44882 454.45 L-0.435408 454.45 L-0.435408 448.571 Z" fill="#000000" fill-rule="nonzero" fill-opacity="1" /><path clip-path="url(#clip090)" d="M18.6617 450.515 L34.9811 450.515 L34.9811 454.45 L13.0367 454.45 L13.0367 450.515 Q15.6988 447.761 20.2821 443.131 Q24.8885 438.478 26.0691 437.136 Q28.3144 434.613 29.1941 432.876 Q30.0968 431.117 30.0968 429.427 Q30.0968 426.673 28.1524 424.937 Q26.2311 423.201 23.1293 423.201 Q20.9302 423.201 18.4765 423.964 Q16.046 424.728 13.2682 426.279 L13.2682 421.557 Q16.0923 420.423 18.546 419.844 Q20.9997 419.265 23.0367 419.265 Q28.407 419.265 31.6015 421.951 Q34.7959 424.636 34.7959 429.126 Q34.7959 431.256 33.9857 433.177 Q33.1987 435.076 31.0922 437.668 Q30.5135 438.339 27.4117 441.557 Q24.3098 444.751 18.6617 450.515 Z" fill="#000000" fill-rule="nonzero" fill-opacity="1" /><path clip-path="url(#clip090)" d="M54.7958 422.969 Q51.1847 422.969 49.356 426.534 Q47.5504 430.076 47.5504 437.205 Q47.5504 444.312 49.356 447.876 Q51.1847 451.418 54.7958 451.418 Q58.43 451.418 60.2356 447.876 Q62.0643 444.312 62.0643 437.205 Q62.0643 430.076 60.2356 426.534 Q58.43 422.969 54.7958 422.969 M54.7958 419.265 Q60.6059 419.265 63.6615 423.872 Q66.7402 428.455 66.7402 437.205 Q66.7402 445.932 63.6615 450.538 Q60.6059 455.122 54.7958 455.122 Q48.9856 455.122 45.9069 450.538 Q42.8514 445.932 42.8514 437.205 Q42.8514 428.455 45.9069 423.872 Q48.9856 419.265 54.7958 419.265 Z" fill="#000000" fill-rule="nonzero" fill-opacity="1" /><path clip-path="url(#clip090)" d="M-19.602 162.437 Q-23.2131 162.437 -25.0418 166.002 Q-26.8473 169.544 -26.8473 176.673 Q-26.8473 183.78 -25.0418 187.345 Q-23.2131 190.886 -19.602 190.886 Q-15.9677 190.886 -14.1622 187.345 Q-12.3335 183.78 -12.3335 176.673 Q-12.3335 169.544 -14.1622 166.002 Q-15.9677 162.437 -19.602 162.437 M-19.602 158.734 Q-13.7918 158.734 -10.7363 163.34 Q-7.65759 167.923 -7.65759 176.673 Q-7.65759 185.4 -10.7363 190.007 Q-13.7918 194.59 -19.602 194.59 Q-25.4121 194.59 -28.4908 190.007 Q-31.5464 185.4 -31.5464 176.673 Q-31.5464 167.923 -28.4908 163.34 Q-25.4121 158.734 -19.602 158.734 Z" fill="#000000" fill-rule="nonzero" fill-opacity="1" /><path clip-path="url(#clip090)" d="M0.559957 188.039 L5.44419 188.039 L5.44419 193.919 L0.559957 193.919 L0.559957 188.039 Z" fill="#000000" fill-rule="nonzero" fill-opacity="1" /><path clip-path="url(#clip090)" d="M19.6571 189.983 L35.9764 189.983 L35.9764 193.919 L14.0321 193.919 L14.0321 189.983 Q16.6941 187.229 21.2774 182.599 Q25.8839 177.946 27.0644 176.604 Q29.3098 174.081 30.1894 172.345 Q31.0922 170.585 31.0922 168.896 Q31.0922 166.141 29.1478 164.405 Q27.2265 162.669 24.1246 162.669 Q21.9256 162.669 19.4719 163.433 Q17.0413 164.197 14.2636 165.747 L14.2636 161.025 Q17.0876 159.891 19.5413 159.312 Q21.995 158.734 24.0321 158.734 Q29.4024 158.734 32.5968 161.419 Q35.7912 164.104 35.7912 168.595 Q35.7912 170.724 34.9811 172.646 Q34.194 174.544 32.0876 177.136 Q31.5089 177.808 28.407 181.025 Q25.3052 184.22 19.6571 189.983 Z" fill="#000000" fill-rule="nonzero" fill-opacity="1" /><path clip-path="url(#clip090)" d="M45.8375 159.359 L64.1939 159.359 L64.1939 163.294 L50.1199 163.294 L50.1199 171.766 Q51.1384 171.419 52.1569 171.257 Q53.1754 171.072 54.1939 171.072 Q59.9809 171.072 63.3605 174.243 Q66.7402 177.414 66.7402 182.831 Q66.7402 188.409 63.268 191.511 Q59.7958 194.59 53.4763 194.59 Q51.3004 194.59 49.0319 194.22 Q46.7866 193.849 44.3792 193.108 L44.3792 188.409 Q46.4625 189.544 48.6847 190.099 Q50.9069 190.655 53.3837 190.655 Q57.3884 190.655 59.7263 188.548 Q62.0643 186.442 62.0643 182.831 Q62.0643 179.22 59.7263 177.113 Q57.3884 175.007 53.3837 175.007 Q51.5088 175.007 49.6338 175.423 Q47.7819 175.84 45.8375 176.72 L45.8375 159.359 Z" fill="#000000" fill-rule="nonzero" fill-opacity="1" /><path clip-path="url(#clip090)" d="M-111.475 778.126 L-111.475 787.388 L-100.844 790.062 L-100.844 780.736 L-111.475 778.126 M-129.586 782.901 L-116.377 786.211 L-116.377 776.917 L-129.586 773.575 L-129.586 768.482 L-116.377 771.761 L-116.377 761.83 L-111.475 761.83 L-111.475 773.002 L-100.844 775.612 L-100.844 765.49 L-95.9747 765.49 L-95.9747 776.853 L-82.7977 780.163 L-82.7977 785.256 L-95.9747 781.978 L-95.9747 791.303 L-82.7977 794.582 L-82.7977 799.706 L-95.9747 796.396 L-95.9747 806.422 L-100.844 806.422 L-100.844 795.218 L-111.475 792.545 L-111.475 802.793 L-116.377 802.793 L-116.377 791.303 L-129.586 788.057 L-129.586 782.901 Z" fill="#000000" fill-rule="nonzero" fill-opacity="1" /><polyline clip-path="url(#clip092)" style="stroke:#009af9; stroke-linecap:round; stroke-linejoin:round; stroke-width:4; stroke-opacity:1; fill:none" points="166.42,1479.3 187.646,1478.71 208.873,1474.96 230.1,1465.66 251.326,1449.23 272.553,1424.72 293.779,1391.71 315.006,1350.25 336.232,1300.71 357.459,1243.74 378.685,1180.23 399.912,1111.19 421.139,1037.73 442.365,961.051 463.592,882.338 484.818,802.781 506.045,723.532 527.271,645.683 548.498,570.25 569.725,498.165 590.951,430.258 612.178,367.26 633.404,309.792 654.631,258.368 675.857,213.393 697.084,175.168 718.311,143.889 739.537,119.66 760.764,102.489 781.99,92.3041 803.217,88.9544 824.443,92.2202 845.67,101.821 866.896,117.422 888.123,138.645 909.35,165.073 930.576,196.26 951.803,231.739 973.029,271.026 994.256,313.63 1015.48,359.059 1036.71,406.821 1057.94,456.439 1079.16,507.443 1100.39,559.386 1121.62,611.84 1142.84,664.402 1164.07,716.698 1185.29,768.38 1206.52,819.134 1227.75,868.676 1248.97,916.755 1270.2,963.154 1291.43,1007.69 1312.65,1050.2 1333.88,1090.57 1355.11,1128.7 1376.33,1164.54 1397.56,1198.04 1418.79,1229.2 1440.01,1258.02 1461.24,1284.53 1482.47,1308.79 1503.69,1330.87 1524.92,1350.85 1546.15,1368.82 1567.37,1384.88 1588.6,1399.15 1609.83,1411.74 1631.05,1422.78 1652.28,1432.39 1673.51,1440.69 1694.73,1447.81 1715.96,1453.85 1737.19,1458.95 1758.41,1463.2 1779.64,1466.71 1800.87,1469.58 1822.09,1471.9 1843.32,1473.75 1864.54,1475.2 1885.77,1476.33 1907,1477.19 1928.22,1477.83 1949.45,1478.3 1970.68,1478.64 1991.9,1478.88 2013.13,1479.04 2034.36,1479.14 2055.58,1479.21 2076.81,1479.25 2098.04,1479.28 2119.26,1479.29 2140.49,1479.29 2161.72,1479.3 2182.94,1479.3 2204.17,1479.3 2225.4,1479.3 2246.62,1479.3 2267.85,1479.3 2289.08,1479.3 "/>
<path clip-path="url(#clip090)" d="M1967.8 200.05 L2277.76 200.05 L2277.76 96.3696 L1967.8 96.3696  Z" fill="#ffffff" fill-rule="evenodd" fill-opacity="1"/>
<polyline clip-path="url(#clip090)" style="stroke:#000000; stroke-linecap:round; stroke-linejoin:round; stroke-width:4; stroke-opacity:1; fill:none" points="1967.8,200.05 2277.76,200.05 2277.76,96.3696 1967.8,96.3696 1967.8,200.05 "/>
<polyline clip-path="url(#clip090)" style="stroke:#009af9; stroke-linecap:round; stroke-linejoin:round; stroke-width:4; stroke-opacity:1; fill:none" points="1992.8,148.21 2142.8,148.21 "/>
<path clip-path="url(#clip090)" d="M2172.48 134.772 L2172.48 147.758 L2178.36 147.758 Q2181.62 147.758 2183.4 146.068 Q2185.19 144.379 2185.19 141.254 Q2185.19 138.152 2183.4 136.462 Q2181.62 134.772 2178.36 134.772 L2172.48 134.772 M2167.8 130.93 L2178.36 130.93 Q2184.17 130.93 2187.13 133.568 Q2190.12 136.184 2190.12 141.254 Q2190.12 146.369 2187.13 148.985 Q2184.17 151.601 2178.36 151.601 L2172.48 151.601 L2172.48 165.49 L2167.8 165.49 L2167.8 130.93 Z" fill="#000000" fill-rule="nonzero" fill-opacity="1" /><path clip-path="url(#clip090)" d="M2201.07 134.772 L2201.07 161.647 L2206.71 161.647 Q2213.87 161.647 2217.18 158.406 Q2220.51 155.166 2220.51 148.175 Q2220.51 141.23 2217.18 138.013 Q2213.87 134.772 2206.71 134.772 L2201.07 134.772 M2196.39 130.93 L2206 130.93 Q2216.04 130.93 2220.74 135.119 Q2225.44 139.286 2225.44 148.175 Q2225.44 157.11 2220.72 161.3 Q2216 165.49 2206 165.49 L2196.39 165.49 L2196.39 130.93 Z" fill="#000000" fill-rule="nonzero" fill-opacity="1" /><path clip-path="url(#clip090)" d="M2232.89 130.93 L2252.76 130.93 L2252.76 134.865 L2237.57 134.865 L2237.57 145.05 L2251.27 145.05 L2251.27 148.985 L2237.57 148.985 L2237.57 165.49 L2232.89 165.49 L2232.89 130.93 Z" fill="#000000" fill-rule="nonzero" fill-opacity="1" /></svg>
