<?xml version="1.0" encoding="utf-8"?>
<svg xmlns="http://www.w3.org/2000/svg" xmlns:xlink="http://www.w3.org/1999/xlink" width="600" height="400" viewBox="0 0 2400 1600">
<defs>
  <clipPath id="clip400">
    <rect x="0" y="0" width="2400" height="1600"/>
  </clipPath>
</defs>
<path clip-path="url(#clip400)" d="M0 1600 L2400 1600 L2400 0 L0 0  Z" fill="#ffffff" fill-rule="evenodd" fill-opacity="1"/>
<defs>
  <clipPath id="clip401">
    <rect x="480" y="0" width="1681" height="1600"/>
  </clipPath>
</defs>
<path clip-path="url(#clip400)" d="M102.74 1521.01 L2352.76 1521.01 L2352.76 47.2441 L102.74 47.2441  Z" fill="#ffffff" fill-rule="evenodd" fill-opacity="1"/>
<defs>
  <clipPath id="clip402">
    <rect x="102" y="47" width="2251" height="1475"/>
  </clipPath>
</defs>
<polyline clip-path="url(#clip402)" style="stroke:#000000; stroke-linecap:round; stroke-linejoin:round; stroke-width:2; stroke-opacity:0.1; fill:none" points="166.42,1521.01 166.42,47.2441 "/>
<polyline clip-path="url(#clip402)" style="stroke:#000000; stroke-linecap:round; stroke-linejoin:round; stroke-width:2; stroke-opacity:0.1; fill:none" points="697.084,1521.01 697.084,47.2441 "/>
<polyline clip-path="url(#clip402)" style="stroke:#000000; stroke-linecap:round; stroke-linejoin:round; stroke-width:2; stroke-opacity:0.1; fill:none" points="1227.75,1521.01 1227.75,47.2441 "/>
<polyline clip-path="url(#clip402)" style="stroke:#000000; stroke-linecap:round; stroke-linejoin:round; stroke-width:2; stroke-opacity:0.1; fill:none" points="1758.41,1521.01 1758.41,47.2441 "/>
<polyline clip-path="url(#clip402)" style="stroke:#000000; stroke-linecap:round; stroke-linejoin:round; stroke-width:2; stroke-opacity:0.1; fill:none" points="2289.08,1521.01 2289.08,47.2441 "/>
<polyline clip-path="url(#clip400)" style="stroke:#000000; stroke-linecap:round; stroke-linejoin:round; stroke-width:4; stroke-opacity:1; fill:none" points="102.74,1521.01 2352.76,1521.01 "/>
<polyline clip-path="url(#clip400)" style="stroke:#000000; stroke-linecap:round; stroke-linejoin:round; stroke-width:4; stroke-opacity:1; fill:none" points="166.42,1521.01 166.42,1502.11 "/>
<polyline clip-path="url(#clip400)" style="stroke:#000000; stroke-linecap:round; stroke-linejoin:round; stroke-width:4; stroke-opacity:1; fill:none" points="697.084,1521.01 697.084,1502.11 "/>
<polyline clip-path="url(#clip400)" style="stroke:#000000; stroke-linecap:round; stroke-linejoin:round; stroke-width:4; stroke-opacity:1; fill:none" points="1227.75,1521.01 1227.75,1502.11 "/>
<polyline clip-path="url(#clip400)" style="stroke:#000000; stroke-linecap:round; stroke-linejoin:round; stroke-width:4; stroke-opacity:1; fill:none" points="1758.41,1521.01 1758.41,1502.11 "/>
<polyline clip-path="url(#clip400)" style="stroke:#000000; stroke-linecap:round; stroke-linejoin:round; stroke-width:4; stroke-opacity:1; fill:none" points="2289.08,1521.01 2289.08,1502.11 "/>
<path clip-path="url(#clip400)" d="M128.723 1551.93 Q125.112 1551.93 123.284 1555.49 Q121.478 1559.03 121.478 1566.16 Q121.478 1573.27 123.284 1576.83 Q125.112 1580.38 128.723 1580.38 Q132.358 1580.38 134.163 1576.83 Q135.992 1573.27 135.992 1566.16 Q135.992 1559.03 134.163 1555.49 Q132.358 1551.93 128.723 1551.93 M128.723 1548.22 Q134.533 1548.22 137.589 1552.83 Q140.668 1557.41 140.668 1566.16 Q140.668 1574.89 137.589 1579.5 Q134.533 1584.08 128.723 1584.08 Q122.913 1584.08 119.834 1579.5 Q116.779 1574.89 116.779 1566.16 Q116.779 1557.41 119.834 1552.83 Q122.913 1548.22 128.723 1548.22 Z" fill="#000000" fill-rule="nonzero" fill-opacity="1" /><path clip-path="url(#clip400)" d="M148.885 1577.53 L153.769 1577.53 L153.769 1583.41 L148.885 1583.41 L148.885 1577.53 Z" fill="#000000" fill-rule="nonzero" fill-opacity="1" /><path clip-path="url(#clip400)" d="M173.955 1551.93 Q170.343 1551.93 168.515 1555.49 Q166.709 1559.03 166.709 1566.16 Q166.709 1573.27 168.515 1576.83 Q170.343 1580.38 173.955 1580.38 Q177.589 1580.38 179.394 1576.83 Q181.223 1573.27 181.223 1566.16 Q181.223 1559.03 179.394 1555.49 Q177.589 1551.93 173.955 1551.93 M173.955 1548.22 Q179.765 1548.22 182.82 1552.83 Q185.899 1557.41 185.899 1566.16 Q185.899 1574.89 182.82 1579.5 Q179.765 1584.08 173.955 1584.08 Q168.144 1584.08 165.066 1579.5 Q162.01 1574.89 162.01 1566.16 Q162.01 1557.41 165.066 1552.83 Q168.144 1548.22 173.955 1548.22 Z" fill="#000000" fill-rule="nonzero" fill-opacity="1" /><path clip-path="url(#clip400)" d="M204.116 1551.93 Q200.505 1551.93 198.677 1555.49 Q196.871 1559.03 196.871 1566.16 Q196.871 1573.27 198.677 1576.83 Q200.505 1580.38 204.116 1580.38 Q207.751 1580.38 209.556 1576.83 Q211.385 1573.27 211.385 1566.16 Q211.385 1559.03 209.556 1555.49 Q207.751 1551.93 204.116 1551.93 M204.116 1548.22 Q209.927 1548.22 212.982 1552.83 Q216.061 1557.41 216.061 1566.16 Q216.061 1574.89 212.982 1579.5 Q209.927 1584.08 204.116 1584.08 Q198.306 1584.08 195.228 1579.5 Q192.172 1574.89 192.172 1566.16 Q192.172 1557.41 195.228 1552.83 Q198.306 1548.22 204.116 1548.22 Z" fill="#000000" fill-rule="nonzero" fill-opacity="1" /><path clip-path="url(#clip400)" d="M659.885 1551.93 Q656.274 1551.93 654.445 1555.49 Q652.64 1559.03 652.64 1566.16 Q652.64 1573.27 654.445 1576.83 Q656.274 1580.38 659.885 1580.38 Q663.519 1580.38 665.325 1576.83 Q667.154 1573.27 667.154 1566.16 Q667.154 1559.03 665.325 1555.49 Q663.519 1551.93 659.885 1551.93 M659.885 1548.22 Q665.695 1548.22 668.751 1552.83 Q671.829 1557.41 671.829 1566.16 Q671.829 1574.89 668.751 1579.5 Q665.695 1584.08 659.885 1584.08 Q654.075 1584.08 650.996 1579.5 Q647.941 1574.89 647.941 1566.16 Q647.941 1557.41 650.996 1552.83 Q654.075 1548.22 659.885 1548.22 Z" fill="#000000" fill-rule="nonzero" fill-opacity="1" /><path clip-path="url(#clip400)" d="M680.047 1577.53 L684.931 1577.53 L684.931 1583.41 L680.047 1583.41 L680.047 1577.53 Z" fill="#000000" fill-rule="nonzero" fill-opacity="1" /><path clip-path="url(#clip400)" d="M699.144 1579.47 L715.463 1579.47 L715.463 1583.41 L693.519 1583.41 L693.519 1579.47 Q696.181 1576.72 700.764 1572.09 Q705.371 1567.44 706.551 1566.09 Q708.797 1563.57 709.676 1561.83 Q710.579 1560.07 710.579 1558.38 Q710.579 1555.63 708.635 1553.89 Q706.714 1552.16 703.612 1552.16 Q701.413 1552.16 698.959 1552.92 Q696.528 1553.69 693.751 1555.24 L693.751 1550.51 Q696.575 1549.38 699.028 1548.8 Q701.482 1548.22 703.519 1548.22 Q708.889 1548.22 712.084 1550.91 Q715.278 1553.59 715.278 1558.08 Q715.278 1560.21 714.468 1562.13 Q713.681 1564.03 711.575 1566.63 Q710.996 1567.3 707.894 1570.51 Q704.792 1573.71 699.144 1579.47 Z" fill="#000000" fill-rule="nonzero" fill-opacity="1" /><path clip-path="url(#clip400)" d="M725.325 1548.85 L743.681 1548.85 L743.681 1552.78 L729.607 1552.78 L729.607 1561.26 Q730.625 1560.91 731.644 1560.75 Q732.662 1560.56 733.681 1560.56 Q739.468 1560.56 742.848 1563.73 Q746.227 1566.9 746.227 1572.32 Q746.227 1577.9 742.755 1581 Q739.283 1584.08 732.963 1584.08 Q730.787 1584.08 728.519 1583.71 Q726.274 1583.34 723.866 1582.6 L723.866 1577.9 Q725.95 1579.03 728.172 1579.59 Q730.394 1580.14 732.871 1580.14 Q736.875 1580.14 739.213 1578.04 Q741.551 1575.93 741.551 1572.32 Q741.551 1568.71 739.213 1566.6 Q736.875 1564.5 732.871 1564.5 Q730.996 1564.5 729.121 1564.91 Q727.269 1565.33 725.325 1566.21 L725.325 1548.85 Z" fill="#000000" fill-rule="nonzero" fill-opacity="1" /><path clip-path="url(#clip400)" d="M1190.05 1551.93 Q1186.44 1551.93 1184.61 1555.49 Q1182.81 1559.03 1182.81 1566.16 Q1182.81 1573.27 1184.61 1576.83 Q1186.44 1580.38 1190.05 1580.38 Q1193.69 1580.38 1195.49 1576.83 Q1197.32 1573.27 1197.32 1566.16 Q1197.32 1559.03 1195.49 1555.49 Q1193.69 1551.93 1190.05 1551.93 M1190.05 1548.22 Q1195.86 1548.22 1198.92 1552.83 Q1202 1557.41 1202 1566.16 Q1202 1574.89 1198.92 1579.5 Q1195.86 1584.08 1190.05 1584.08 Q1184.24 1584.08 1181.16 1579.5 Q1178.11 1574.89 1178.11 1566.16 Q1178.11 1557.41 1181.16 1552.83 Q1184.24 1548.22 1190.05 1548.22 Z" fill="#000000" fill-rule="nonzero" fill-opacity="1" /><path clip-path="url(#clip400)" d="M1210.21 1577.53 L1215.1 1577.53 L1215.1 1583.41 L1210.21 1583.41 L1210.21 1577.53 Z" fill="#000000" fill-rule="nonzero" fill-opacity="1" /><path clip-path="url(#clip400)" d="M1225.33 1548.85 L1243.69 1548.85 L1243.69 1552.78 L1229.61 1552.78 L1229.61 1561.26 Q1230.63 1560.91 1231.65 1560.75 Q1232.67 1560.56 1233.69 1560.56 Q1239.47 1560.56 1242.85 1563.73 Q1246.23 1566.9 1246.23 1572.32 Q1246.23 1577.9 1242.76 1581 Q1239.29 1584.08 1232.97 1584.08 Q1230.79 1584.08 1228.52 1583.71 Q1226.28 1583.34 1223.87 1582.6 L1223.87 1577.9 Q1225.95 1579.03 1228.18 1579.59 Q1230.4 1580.14 1232.88 1580.14 Q1236.88 1580.14 1239.22 1578.04 Q1241.56 1575.93 1241.56 1572.32 Q1241.56 1568.71 1239.22 1566.6 Q1236.88 1564.5 1232.88 1564.5 Q1231 1564.5 1229.13 1564.91 Q1227.27 1565.33 1225.33 1566.21 L1225.33 1548.85 Z" fill="#000000" fill-rule="nonzero" fill-opacity="1" /><path clip-path="url(#clip400)" d="M1265.44 1551.93 Q1261.83 1551.93 1260 1555.49 Q1258.2 1559.03 1258.2 1566.16 Q1258.2 1573.27 1260 1576.83 Q1261.83 1580.38 1265.44 1580.38 Q1269.08 1580.38 1270.88 1576.83 Q1272.71 1573.27 1272.71 1566.16 Q1272.71 1559.03 1270.88 1555.49 Q1269.08 1551.93 1265.44 1551.93 M1265.44 1548.22 Q1271.25 1548.22 1274.31 1552.83 Q1277.39 1557.41 1277.39 1566.16 Q1277.39 1574.89 1274.31 1579.5 Q1271.25 1584.08 1265.44 1584.08 Q1259.63 1584.08 1256.56 1579.5 Q1253.5 1574.89 1253.5 1566.16 Q1253.5 1557.41 1256.56 1552.83 Q1259.63 1548.22 1265.44 1548.22 Z" fill="#000000" fill-rule="nonzero" fill-opacity="1" /><path clip-path="url(#clip400)" d="M1721.21 1551.93 Q1717.6 1551.93 1715.77 1555.49 Q1713.97 1559.03 1713.97 1566.16 Q1713.97 1573.27 1715.77 1576.83 Q1717.6 1580.38 1721.21 1580.38 Q1724.85 1580.38 1726.65 1576.83 Q1728.48 1573.27 1728.48 1566.16 Q1728.48 1559.03 1726.65 1555.49 Q1724.85 1551.93 1721.21 1551.93 M1721.21 1548.22 Q1727.02 1548.22 1730.08 1552.83 Q1733.16 1557.41 1733.16 1566.16 Q1733.16 1574.89 1730.08 1579.5 Q1727.02 1584.08 1721.21 1584.08 Q1715.4 1584.08 1712.32 1579.5 Q1709.27 1574.89 1709.27 1566.16 Q1709.27 1557.41 1712.32 1552.83 Q1715.4 1548.22 1721.21 1548.22 Z" fill="#000000" fill-rule="nonzero" fill-opacity="1" /><path clip-path="url(#clip400)" d="M1741.38 1577.53 L1746.26 1577.53 L1746.26 1583.41 L1741.38 1583.41 L1741.38 1577.53 Z" fill="#000000" fill-rule="nonzero" fill-opacity="1" /><path clip-path="url(#clip400)" d="M1755.26 1548.85 L1777.49 1548.85 L1777.49 1550.84 L1764.94 1583.41 L1760.06 1583.41 L1771.86 1552.78 L1755.26 1552.78 L1755.26 1548.85 Z" fill="#000000" fill-rule="nonzero" fill-opacity="1" /><path clip-path="url(#clip400)" d="M1786.65 1548.85 L1805.01 1548.85 L1805.01 1552.78 L1790.94 1552.78 L1790.94 1561.26 Q1791.95 1560.91 1792.97 1560.75 Q1793.99 1560.56 1795.01 1560.56 Q1800.8 1560.56 1804.18 1563.73 Q1807.56 1566.9 1807.56 1572.32 Q1807.56 1577.9 1804.08 1581 Q1800.61 1584.08 1794.29 1584.08 Q1792.12 1584.08 1789.85 1583.71 Q1787.6 1583.34 1785.19 1582.6 L1785.19 1577.9 Q1787.28 1579.03 1789.5 1579.59 Q1791.72 1580.14 1794.2 1580.14 Q1798.2 1580.14 1800.54 1578.04 Q1802.88 1575.93 1802.88 1572.32 Q1802.88 1568.71 1800.54 1566.6 Q1798.2 1564.5 1794.2 1564.5 Q1792.32 1564.5 1790.45 1564.91 Q1788.6 1565.33 1786.65 1566.21 L1786.65 1548.85 Z" fill="#000000" fill-rule="nonzero" fill-opacity="1" /><path clip-path="url(#clip400)" d="M2241.15 1579.47 L2248.79 1579.47 L2248.79 1553.11 L2240.48 1554.77 L2240.48 1550.51 L2248.74 1548.85 L2253.42 1548.85 L2253.42 1579.47 L2261.06 1579.47 L2261.06 1583.41 L2241.15 1583.41 L2241.15 1579.47 Z" fill="#000000" fill-rule="nonzero" fill-opacity="1" /><path clip-path="url(#clip400)" d="M2270.5 1577.53 L2275.38 1577.53 L2275.38 1583.41 L2270.5 1583.41 L2270.5 1577.53 Z" fill="#000000" fill-rule="nonzero" fill-opacity="1" /><path clip-path="url(#clip400)" d="M2295.57 1551.93 Q2291.96 1551.93 2290.13 1555.49 Q2288.32 1559.03 2288.32 1566.16 Q2288.32 1573.27 2290.13 1576.83 Q2291.96 1580.38 2295.57 1580.38 Q2299.2 1580.38 2301.01 1576.83 Q2302.84 1573.27 2302.84 1566.16 Q2302.84 1559.03 2301.01 1555.49 Q2299.2 1551.93 2295.57 1551.93 M2295.57 1548.22 Q2301.38 1548.22 2304.43 1552.83 Q2307.51 1557.41 2307.51 1566.16 Q2307.51 1574.89 2304.43 1579.5 Q2301.38 1584.08 2295.57 1584.08 Q2289.76 1584.08 2286.68 1579.5 Q2283.62 1574.89 2283.62 1566.16 Q2283.62 1557.41 2286.68 1552.83 Q2289.76 1548.22 2295.57 1548.22 Z" fill="#000000" fill-rule="nonzero" fill-opacity="1" /><path clip-path="url(#clip400)" d="M2325.73 1551.93 Q2322.12 1551.93 2320.29 1555.49 Q2318.49 1559.03 2318.49 1566.16 Q2318.49 1573.27 2320.29 1576.83 Q2322.12 1580.38 2325.73 1580.38 Q2329.37 1580.38 2331.17 1576.83 Q2333 1573.27 2333 1566.16 Q2333 1559.03 2331.17 1555.49 Q2329.37 1551.93 2325.73 1551.93 M2325.73 1548.22 Q2331.54 1548.22 2334.6 1552.83 Q2337.68 1557.41 2337.68 1566.16 Q2337.68 1574.89 2334.6 1579.5 Q2331.54 1584.08 2325.73 1584.08 Q2319.92 1584.08 2316.84 1579.5 Q2313.79 1574.89 2313.79 1566.16 Q2313.79 1557.41 2316.84 1552.83 Q2319.92 1548.22 2325.73 1548.22 Z" fill="#000000" fill-rule="nonzero" fill-opacity="1" /><polyline clip-path="url(#clip402)" style="stroke:#000000; stroke-linecap:round; stroke-linejoin:round; stroke-width:2; stroke-opacity:0.1; fill:none" points="102.74,1479.3 2352.76,1479.3 "/>
<polyline clip-path="url(#clip402)" style="stroke:#000000; stroke-linecap:round; stroke-linejoin:round; stroke-width:2; stroke-opacity:0.1; fill:none" points="102.74,1005.6 2352.76,1005.6 "/>
<polyline clip-path="url(#clip402)" style="stroke:#000000; stroke-linecap:round; stroke-linejoin:round; stroke-width:2; stroke-opacity:0.1; fill:none" points="102.74,531.909 2352.76,531.909 "/>
<polyline clip-path="url(#clip402)" style="stroke:#000000; stroke-linecap:round; stroke-linejoin:round; stroke-width:2; stroke-opacity:0.1; fill:none" points="102.74,58.2149 2352.76,58.2149 "/>
<polyline clip-path="url(#clip400)" style="stroke:#000000; stroke-linecap:round; stroke-linejoin:round; stroke-width:4; stroke-opacity:1; fill:none" points="102.74,1521.01 102.74,47.2441 "/>
<polyline clip-path="url(#clip400)" style="stroke:#000000; stroke-linecap:round; stroke-linejoin:round; stroke-width:4; stroke-opacity:1; fill:none" points="102.74,1479.3 121.638,1479.3 "/>
<polyline clip-path="url(#clip400)" style="stroke:#000000; stroke-linecap:round; stroke-linejoin:round; stroke-width:4; stroke-opacity:1; fill:none" points="102.74,1005.6 121.638,1005.6 "/>
<polyline clip-path="url(#clip400)" style="stroke:#000000; stroke-linecap:round; stroke-linejoin:round; stroke-width:4; stroke-opacity:1; fill:none" points="102.74,531.909 121.638,531.909 "/>
<polyline clip-path="url(#clip400)" style="stroke:#000000; stroke-linecap:round; stroke-linejoin:round; stroke-width:4; stroke-opacity:1; fill:none" points="102.74,58.2149 121.638,58.2149 "/>
<path clip-path="url(#clip400)" d="M54.7958 1465.1 Q51.1847 1465.1 49.356 1468.66 Q47.5504 1472.2 47.5504 1479.33 Q47.5504 1486.44 49.356 1490 Q51.1847 1493.55 54.7958 1493.55 Q58.43 1493.55 60.2356 1490 Q62.0643 1486.44 62.0643 1479.33 Q62.0643 1472.2 60.2356 1468.66 Q58.43 1465.1 54.7958 1465.1 M54.7958 1461.39 Q60.6059 1461.39 63.6615 1466 Q66.7402 1470.58 66.7402 1479.33 Q66.7402 1488.06 63.6615 1492.67 Q60.6059 1497.25 54.7958 1497.25 Q48.9856 1497.25 45.9069 1492.67 Q42.8514 1488.06 42.8514 1479.33 Q42.8514 1470.58 45.9069 1466 Q48.9856 1461.39 54.7958 1461.39 Z" fill="#000000" fill-rule="nonzero" fill-opacity="1" /><path clip-path="url(#clip400)" d="M46.8329 1018.95 L54.4717 1018.95 L54.4717 992.583 L46.1616 994.249 L46.1616 989.99 L54.4254 988.323 L59.1013 988.323 L59.1013 1018.95 L66.7402 1018.95 L66.7402 1022.88 L46.8329 1022.88 L46.8329 1018.95 Z" fill="#000000" fill-rule="nonzero" fill-opacity="1" /><path clip-path="url(#clip400)" d="M50.4208 545.254 L66.7402 545.254 L66.7402 549.189 L44.7958 549.189 L44.7958 545.254 Q47.4579 542.499 52.0412 537.87 Q56.6476 533.217 57.8282 531.874 Q60.0735 529.351 60.9532 527.615 Q61.8559 525.856 61.8559 524.166 Q61.8559 521.412 59.9115 519.675 Q57.9902 517.939 54.8884 517.939 Q52.6893 517.939 50.2356 518.703 Q47.8051 519.467 45.0273 521.018 L45.0273 516.296 Q47.8514 515.162 50.3051 514.583 Q52.7588 514.004 54.7958 514.004 Q60.1661 514.004 63.3605 516.689 Q66.555 519.374 66.555 523.865 Q66.555 525.995 65.7448 527.916 Q64.9578 529.814 62.8513 532.407 Q62.2726 533.078 59.1708 536.296 Q56.0689 539.49 50.4208 545.254 Z" fill="#000000" fill-rule="nonzero" fill-opacity="1" /><path clip-path="url(#clip400)" d="M59.6106 56.8608 Q62.967 57.5783 64.842 59.8469 Q66.7402 62.1154 66.7402 65.4487 Q66.7402 70.5644 63.2217 73.3653 Q59.7032 76.1662 53.2217 76.1662 Q51.0458 76.1662 48.731 75.7264 Q46.4393 75.3097 43.9856 74.4533 L43.9856 69.9394 Q45.9301 71.0736 48.2449 71.6523 Q50.5597 72.231 53.0828 72.231 Q57.4809 72.231 59.7726 70.4949 Q62.0874 68.7588 62.0874 65.4487 Q62.0874 62.3931 59.9346 60.6802 Q57.805 58.9441 53.9856 58.9441 L49.9578 58.9441 L49.9578 55.1015 L54.1708 55.1015 Q57.6198 55.1015 59.4485 53.7358 Q61.2772 52.3469 61.2772 49.7543 Q61.2772 47.0923 59.3791 45.6803 Q57.5041 44.2451 53.9856 44.2451 Q52.0643 44.2451 49.8652 44.6617 Q47.6662 45.0784 45.0273 45.958 L45.0273 41.7914 Q47.6893 41.0507 50.0041 40.6803 Q52.3421 40.3099 54.4023 40.3099 Q59.7263 40.3099 62.8281 42.7405 Q65.93 45.1479 65.93 49.2682 Q65.93 52.1386 64.2865 54.1293 Q62.643 56.0969 59.6106 56.8608 Z" fill="#000000" fill-rule="nonzero" fill-opacity="1" /><path clip-path="url(#clip400)" d="M-36.0821 778.126 L-36.0821 787.388 L-25.4514 790.062 L-25.4514 780.736 L-36.0821 778.126 M-54.1925 782.901 L-40.9837 786.211 L-40.9837 776.917 L-54.1925 773.575 L-54.1925 768.482 L-40.9837 771.761 L-40.9837 761.83 L-36.0821 761.83 L-36.0821 773.002 L-25.4514 775.612 L-25.4514 765.49 L-20.5816 765.49 L-20.5816 776.853 L-7.4046 780.163 L-7.4046 785.256 L-20.5816 781.978 L-20.5816 791.303 L-7.4046 794.582 L-7.4046 799.706 L-20.5816 796.396 L-20.5816 806.422 L-25.4514 806.422 L-25.4514 795.218 L-36.0821 792.545 L-36.0821 802.793 L-40.9837 802.793 L-40.9837 791.303 L-54.1925 788.057 L-54.1925 782.901 Z" fill="#000000" fill-rule="nonzero" fill-opacity="1" /><polyline clip-path="url(#clip402)" style="stroke:#009af9; stroke-linecap:round; stroke-linejoin:round; stroke-width:4; stroke-opacity:1; fill:none" points="166.42,1479.3 187.646,1478.71 208.873,1474.96 230.1,1465.66 251.326,1449.23 272.553,1424.72 293.779,1391.71 315.006,1350.25 336.232,1300.71 357.459,1243.74 378.685,1180.23 399.912,1111.19 421.139,1037.73 442.365,961.051 463.592,882.338 484.818,802.781 506.045,723.532 527.271,645.683 548.498,570.25 569.725,498.165 590.951,430.258 612.178,367.26 633.404,309.792 654.631,258.368 675.857,213.393 697.084,175.168 718.311,143.889 739.537,119.66 760.764,102.489 781.99,92.3041 803.217,88.9544 824.443,92.2202 845.67,101.821 866.896,117.422 888.123,138.645 909.35,165.073 930.576,196.26 951.803,231.739 973.029,271.026 994.256,313.63 1015.48,359.059 1036.71,406.821 1057.94,456.439 1079.16,507.443 1100.39,559.386 1121.62,611.84 1142.84,664.402 1164.07,716.698 1185.29,768.38 1206.52,819.134 1227.75,868.676 1248.97,916.755 1270.2,963.154 1291.43,1007.69 1312.65,1050.2 1333.88,1090.57 1355.11,1128.7 1376.33,1164.54 1397.56,1198.04 1418.79,1229.2 1440.01,1258.02 1461.24,1284.53 1482.47,1308.79 1503.69,1330.87 1524.92,1350.85 1546.15,1368.82 1567.37,1384.88 1588.6,1399.15 1609.83,1411.74 1631.05,1422.78 1652.28,1432.39 1673.51,1440.69 1694.73,1447.81 1715.96,1453.85 1737.19,1458.95 1758.41,1463.2 1779.64,1466.71 1800.87,1469.58 1822.09,1471.9 1843.32,1473.75 1864.54,1475.2 1885.77,1476.33 1907,1477.19 1928.22,1477.83 1949.45,1478.3 1970.68,1478.64 1991.9,1478.88 2013.13,1479.04 2034.36,1479.14 2055.58,1479.21 2076.81,1479.25 2098.04,1479.28 2119.26,1479.29 2140.49,1479.29 2161.72,1479.3 2182.94,1479.3 2204.17,1479.3 2225.4,1479.3 2246.62,1479.3 2267.85,1479.3 2289.08,1479.3 "/>
<path clip-path="url(#clip400)" d="M1967.8 200.05 L2277.76 200.05 L2277.76 96.3696 L1967.8 96.3696  Z" fill="#ffffff" fill-rule="evenodd" fill-opacity="1"/>
<polyline clip-path="url(#clip400)" style="stroke:#000000; stroke-linecap:round; stroke-linejoin:round; stroke-width:4; stroke-opacity:1; fill:none" points="1967.8,200.05 2277.76,200.05 2277.76,96.3696 1967.8,96.3696 1967.8,200.05 "/>
<polyline clip-path="url(#clip400)" style="stroke:#009af9; stroke-linecap:round; stroke-linejoin:round; stroke-width:4; stroke-opacity:1; fill:none" points="1992.8,148.21 2142.8,148.21 "/>
<path clip-path="url(#clip400)" d="M2172.48 134.772 L2172.48 147.758 L2178.36 147.758 Q2181.62 147.758 2183.4 146.068 Q2185.19 144.379 2185.19 141.254 Q2185.19 138.152 2183.4 136.462 Q2181.62 134.772 2178.36 134.772 L2172.48 134.772 M2167.8 130.93 L2178.36 130.93 Q2184.17 130.93 2187.13 133.568 Q2190.12 136.184 2190.12 141.254 Q2190.12 146.369 2187.13 148.985 Q2184.17 151.601 2178.36 151.601 L2172.48 151.601 L2172.48 165.49 L2167.8 165.49 L2167.8 130.93 Z" fill="#000000" fill-rule="nonzero" fill-opacity="1" /><path clip-path="url(#clip400)" d="M2201.07 134.772 L2201.07 161.647 L2206.71 161.647 Q2213.87 161.647 2217.18 158.406 Q2220.51 155.166 2220.51 148.175 Q2220.51 141.23 2217.18 138.013 Q2213.87 134.772 2206.71 134.772 L2201.07 134.772 M2196.39 130.93 L2206 130.93 Q2216.04 130.93 2220.74 135.119 Q2225.44 139.286 2225.44 148.175 Q2225.44 157.11 2220.72 161.3 Q2216 165.49 2206 165.49 L2196.39 165.49 L2196.39 130.93 Z" fill="#000000" fill-rule="nonzero" fill-opacity="1" /><path clip-path="url(#clip400)" d="M2232.89 130.93 L2252.76 130.93 L2252.76 134.865 L2237.57 134.865 L2237.57 145.05 L2251.27 145.05 L2251.27 148.985 L2237.57 148.985 L2237.57 165.49 L2232.89 165.49 L2232.89 130.93 Z" fill="#000000" fill-rule="nonzero" fill-opacity="1" /></svg>
