<?xml version="1.0" encoding="utf-8"?>
<svg xmlns="http://www.w3.org/2000/svg" xmlns:xlink="http://www.w3.org/1999/xlink" width="600" height="400" viewBox="0 0 2400 1600">
<defs>
  <clipPath id="clip360">
    <rect x="0" y="0" width="2400" height="1600"/>
  </clipPath>
</defs>
<path clip-path="url(#clip360)" d="M0 1600 L2400 1600 L2400 0 L0 0  Z" fill="#ffffff" fill-rule="evenodd" fill-opacity="1"/>
<defs>
  <clipPath id="clip361">
    <rect x="480" y="0" width="1681" height="1600"/>
  </clipPath>
</defs>
<path clip-path="url(#clip360)" d="M102.74 1521.01 L2352.76 1521.01 L2352.76 47.2441 L102.74 47.2441  Z" fill="#ffffff" fill-rule="evenodd" fill-opacity="1"/>
<defs>
  <clipPath id="clip362">
    <rect x="102" y="47" width="2251" height="1475"/>
  </clipPath>
</defs>
<polyline clip-path="url(#clip362)" style="stroke:#000000; stroke-linecap:round; stroke-linejoin:round; stroke-width:2; stroke-opacity:0.1; fill:none" points="290.241,1521.01 290.241,47.2441 "/>
<polyline clip-path="url(#clip362)" style="stroke:#000000; stroke-linecap:round; stroke-linejoin:round; stroke-width:2; stroke-opacity:0.1; fill:none" points="758.995,1521.01 758.995,47.2441 "/>
<polyline clip-path="url(#clip362)" style="stroke:#000000; stroke-linecap:round; stroke-linejoin:round; stroke-width:2; stroke-opacity:0.1; fill:none" points="1227.75,1521.01 1227.75,47.2441 "/>
<polyline clip-path="url(#clip362)" style="stroke:#000000; stroke-linecap:round; stroke-linejoin:round; stroke-width:2; stroke-opacity:0.1; fill:none" points="1696.5,1521.01 1696.5,47.2441 "/>
<polyline clip-path="url(#clip362)" style="stroke:#000000; stroke-linecap:round; stroke-linejoin:round; stroke-width:2; stroke-opacity:0.1; fill:none" points="2165.25,1521.01 2165.25,47.2441 "/>
<polyline clip-path="url(#clip360)" style="stroke:#000000; stroke-linecap:round; stroke-linejoin:round; stroke-width:4; stroke-opacity:1; fill:none" points="102.74,1521.01 2352.76,1521.01 "/>
<polyline clip-path="url(#clip360)" style="stroke:#000000; stroke-linecap:round; stroke-linejoin:round; stroke-width:4; stroke-opacity:1; fill:none" points="290.241,1521.01 290.241,1502.11 "/>
<polyline clip-path="url(#clip360)" style="stroke:#000000; stroke-linecap:round; stroke-linejoin:round; stroke-width:4; stroke-opacity:1; fill:none" points="758.995,1521.01 758.995,1502.11 "/>
<polyline clip-path="url(#clip360)" style="stroke:#000000; stroke-linecap:round; stroke-linejoin:round; stroke-width:4; stroke-opacity:1; fill:none" points="1227.75,1521.01 1227.75,1502.11 "/>
<polyline clip-path="url(#clip360)" style="stroke:#000000; stroke-linecap:round; stroke-linejoin:round; stroke-width:4; stroke-opacity:1; fill:none" points="1696.5,1521.01 1696.5,1502.11 "/>
<polyline clip-path="url(#clip360)" style="stroke:#000000; stroke-linecap:round; stroke-linejoin:round; stroke-width:4; stroke-opacity:1; fill:none" points="2165.25,1521.01 2165.25,1502.11 "/>
<path clip-path="url(#clip360)" d="M252.545 1551.93 Q248.934 1551.93 247.105 1555.49 Q245.3 1559.03 245.3 1566.16 Q245.3 1573.27 247.105 1576.83 Q248.934 1580.38 252.545 1580.38 Q256.179 1580.38 257.985 1576.83 Q259.813 1573.27 259.813 1566.16 Q259.813 1559.03 257.985 1555.49 Q256.179 1551.93 252.545 1551.93 M252.545 1548.22 Q258.355 1548.22 261.411 1552.83 Q264.489 1557.41 264.489 1566.16 Q264.489 1574.89 261.411 1579.5 Q258.355 1584.08 252.545 1584.08 Q246.735 1584.08 243.656 1579.5 Q240.601 1574.89 240.601 1566.16 Q240.601 1557.41 243.656 1552.83 Q246.735 1548.22 252.545 1548.22 Z" fill="#000000" fill-rule="nonzero" fill-opacity="1" /><path clip-path="url(#clip360)" d="M272.707 1577.53 L277.591 1577.53 L277.591 1583.41 L272.707 1583.41 L272.707 1577.53 Z" fill="#000000" fill-rule="nonzero" fill-opacity="1" /><path clip-path="url(#clip360)" d="M297.776 1551.93 Q294.165 1551.93 292.336 1555.49 Q290.531 1559.03 290.531 1566.16 Q290.531 1573.27 292.336 1576.83 Q294.165 1580.38 297.776 1580.38 Q301.41 1580.38 303.216 1576.83 Q305.045 1573.27 305.045 1566.16 Q305.045 1559.03 303.216 1555.49 Q301.41 1551.93 297.776 1551.93 M297.776 1548.22 Q303.586 1548.22 306.642 1552.83 Q309.721 1557.41 309.721 1566.16 Q309.721 1574.89 306.642 1579.5 Q303.586 1584.08 297.776 1584.08 Q291.966 1584.08 288.887 1579.5 Q285.832 1574.89 285.832 1566.16 Q285.832 1557.41 288.887 1552.83 Q291.966 1548.22 297.776 1548.22 Z" fill="#000000" fill-rule="nonzero" fill-opacity="1" /><path clip-path="url(#clip360)" d="M327.938 1551.93 Q324.327 1551.93 322.498 1555.49 Q320.693 1559.03 320.693 1566.16 Q320.693 1573.27 322.498 1576.83 Q324.327 1580.38 327.938 1580.38 Q331.572 1580.38 333.378 1576.83 Q335.207 1573.27 335.207 1566.16 Q335.207 1559.03 333.378 1555.49 Q331.572 1551.93 327.938 1551.93 M327.938 1548.22 Q333.748 1548.22 336.804 1552.83 Q339.882 1557.41 339.882 1566.16 Q339.882 1574.89 336.804 1579.5 Q333.748 1584.08 327.938 1584.08 Q322.128 1584.08 319.049 1579.5 Q315.994 1574.89 315.994 1566.16 Q315.994 1557.41 319.049 1552.83 Q322.128 1548.22 327.938 1548.22 Z" fill="#000000" fill-rule="nonzero" fill-opacity="1" /><path clip-path="url(#clip360)" d="M721.796 1551.93 Q718.185 1551.93 716.356 1555.49 Q714.551 1559.03 714.551 1566.16 Q714.551 1573.27 716.356 1576.83 Q718.185 1580.38 721.796 1580.38 Q725.43 1580.38 727.236 1576.83 Q729.064 1573.27 729.064 1566.16 Q729.064 1559.03 727.236 1555.49 Q725.43 1551.93 721.796 1551.93 M721.796 1548.22 Q727.606 1548.22 730.662 1552.83 Q733.74 1557.41 733.74 1566.16 Q733.74 1574.89 730.662 1579.5 Q727.606 1584.08 721.796 1584.08 Q715.986 1584.08 712.907 1579.5 Q709.851 1574.89 709.851 1566.16 Q709.851 1557.41 712.907 1552.83 Q715.986 1548.22 721.796 1548.22 Z" fill="#000000" fill-rule="nonzero" fill-opacity="1" /><path clip-path="url(#clip360)" d="M741.958 1577.53 L746.842 1577.53 L746.842 1583.41 L741.958 1583.41 L741.958 1577.53 Z" fill="#000000" fill-rule="nonzero" fill-opacity="1" /><path clip-path="url(#clip360)" d="M761.055 1579.47 L777.374 1579.47 L777.374 1583.41 L755.43 1583.41 L755.43 1579.47 Q758.092 1576.72 762.675 1572.09 Q767.282 1567.44 768.462 1566.09 Q770.708 1563.57 771.587 1561.83 Q772.49 1560.07 772.49 1558.38 Q772.49 1555.63 770.546 1553.89 Q768.624 1552.16 765.522 1552.16 Q763.323 1552.16 760.87 1552.92 Q758.439 1553.69 755.661 1555.24 L755.661 1550.51 Q758.485 1549.38 760.939 1548.8 Q763.393 1548.22 765.43 1548.22 Q770.8 1548.22 773.995 1550.91 Q777.189 1553.59 777.189 1558.08 Q777.189 1560.21 776.379 1562.13 Q775.592 1564.03 773.485 1566.63 Q772.907 1567.3 769.805 1570.51 Q766.703 1573.71 761.055 1579.47 Z" fill="#000000" fill-rule="nonzero" fill-opacity="1" /><path clip-path="url(#clip360)" d="M787.235 1548.85 L805.592 1548.85 L805.592 1552.78 L791.518 1552.78 L791.518 1561.26 Q792.536 1560.91 793.555 1560.75 Q794.573 1560.56 795.592 1560.56 Q801.379 1560.56 804.758 1563.73 Q808.138 1566.9 808.138 1572.32 Q808.138 1577.9 804.666 1581 Q801.194 1584.08 794.874 1584.08 Q792.698 1584.08 790.43 1583.71 Q788.184 1583.34 785.777 1582.6 L785.777 1577.9 Q787.86 1579.03 790.083 1579.59 Q792.305 1580.14 794.782 1580.14 Q798.786 1580.14 801.124 1578.04 Q803.462 1575.93 803.462 1572.32 Q803.462 1568.71 801.124 1566.6 Q798.786 1564.5 794.782 1564.5 Q792.907 1564.5 791.032 1564.91 Q789.18 1565.33 787.235 1566.21 L787.235 1548.85 Z" fill="#000000" fill-rule="nonzero" fill-opacity="1" /><path clip-path="url(#clip360)" d="M1190.05 1551.93 Q1186.44 1551.93 1184.61 1555.49 Q1182.81 1559.03 1182.81 1566.16 Q1182.81 1573.27 1184.61 1576.83 Q1186.44 1580.38 1190.05 1580.38 Q1193.69 1580.38 1195.49 1576.83 Q1197.32 1573.27 1197.32 1566.16 Q1197.32 1559.03 1195.49 1555.49 Q1193.69 1551.93 1190.05 1551.93 M1190.05 1548.22 Q1195.86 1548.22 1198.92 1552.83 Q1202 1557.41 1202 1566.16 Q1202 1574.89 1198.92 1579.5 Q1195.86 1584.08 1190.05 1584.08 Q1184.24 1584.08 1181.16 1579.5 Q1178.11 1574.89 1178.11 1566.16 Q1178.11 1557.41 1181.16 1552.83 Q1184.24 1548.22 1190.05 1548.22 Z" fill="#000000" fill-rule="nonzero" fill-opacity="1" /><path clip-path="url(#clip360)" d="M1210.21 1577.53 L1215.1 1577.53 L1215.1 1583.41 L1210.21 1583.41 L1210.21 1577.53 Z" fill="#000000" fill-rule="nonzero" fill-opacity="1" /><path clip-path="url(#clip360)" d="M1225.33 1548.85 L1243.69 1548.85 L1243.69 1552.78 L1229.61 1552.78 L1229.61 1561.26 Q1230.63 1560.91 1231.65 1560.75 Q1232.67 1560.56 1233.69 1560.56 Q1239.47 1560.56 1242.85 1563.73 Q1246.23 1566.9 1246.23 1572.32 Q1246.23 1577.9 1242.76 1581 Q1239.29 1584.08 1232.97 1584.08 Q1230.79 1584.08 1228.52 1583.71 Q1226.28 1583.34 1223.87 1582.6 L1223.87 1577.9 Q1225.95 1579.03 1228.18 1579.59 Q1230.4 1580.14 1232.88 1580.14 Q1236.88 1580.14 1239.22 1578.04 Q1241.56 1575.93 1241.56 1572.32 Q1241.56 1568.71 1239.22 1566.6 Q1236.88 1564.5 1232.88 1564.5 Q1231 1564.5 1229.13 1564.91 Q1227.27 1565.33 1225.33 1566.21 L1225.33 1548.85 Z" fill="#000000" fill-rule="nonzero" fill-opacity="1" /><path clip-path="url(#clip360)" d="M1265.44 1551.93 Q1261.83 1551.93 1260 1555.49 Q1258.2 1559.03 1258.2 1566.16 Q1258.2 1573.27 1260 1576.83 Q1261.83 1580.38 1265.44 1580.38 Q1269.08 1580.38 1270.88 1576.83 Q1272.71 1573.27 1272.71 1566.16 Q1272.71 1559.03 1270.88 1555.49 Q1269.08 1551.93 1265.44 1551.93 M1265.44 1548.22 Q1271.25 1548.22 1274.31 1552.83 Q1277.39 1557.41 1277.39 1566.16 Q1277.39 1574.89 1274.31 1579.5 Q1271.25 1584.08 1265.44 1584.08 Q1259.63 1584.08 1256.56 1579.5 Q1253.5 1574.89 1253.5 1566.16 Q1253.5 1557.41 1256.56 1552.83 Q1259.63 1548.22 1265.44 1548.22 Z" fill="#000000" fill-rule="nonzero" fill-opacity="1" /><path clip-path="url(#clip360)" d="M1659.3 1551.93 Q1655.69 1551.93 1653.86 1555.49 Q1652.06 1559.03 1652.06 1566.16 Q1652.06 1573.27 1653.86 1576.83 Q1655.69 1580.38 1659.3 1580.38 Q1662.94 1580.38 1664.74 1576.83 Q1666.57 1573.27 1666.57 1566.16 Q1666.57 1559.03 1664.74 1555.49 Q1662.94 1551.93 1659.3 1551.93 M1659.3 1548.22 Q1665.11 1548.22 1668.17 1552.83 Q1671.25 1557.41 1671.25 1566.16 Q1671.25 1574.89 1668.17 1579.5 Q1665.11 1584.08 1659.3 1584.08 Q1653.49 1584.08 1650.41 1579.5 Q1647.36 1574.89 1647.36 1566.16 Q1647.36 1557.41 1650.41 1552.83 Q1653.49 1548.22 1659.3 1548.22 Z" fill="#000000" fill-rule="nonzero" fill-opacity="1" /><path clip-path="url(#clip360)" d="M1679.46 1577.53 L1684.35 1577.53 L1684.35 1583.41 L1679.46 1583.41 L1679.46 1577.53 Z" fill="#000000" fill-rule="nonzero" fill-opacity="1" /><path clip-path="url(#clip360)" d="M1693.35 1548.85 L1715.58 1548.85 L1715.58 1550.84 L1703.03 1583.41 L1698.14 1583.41 L1709.95 1552.78 L1693.35 1552.78 L1693.35 1548.85 Z" fill="#000000" fill-rule="nonzero" fill-opacity="1" /><path clip-path="url(#clip360)" d="M1724.74 1548.85 L1743.1 1548.85 L1743.1 1552.78 L1729.02 1552.78 L1729.02 1561.26 Q1730.04 1560.91 1731.06 1560.75 Q1732.08 1560.56 1733.1 1560.56 Q1738.89 1560.56 1742.26 1563.73 Q1745.64 1566.9 1745.64 1572.32 Q1745.64 1577.9 1742.17 1581 Q1738.7 1584.08 1732.38 1584.08 Q1730.2 1584.08 1727.94 1583.71 Q1725.69 1583.34 1723.28 1582.6 L1723.28 1577.9 Q1725.37 1579.03 1727.59 1579.59 Q1729.81 1580.14 1732.29 1580.14 Q1736.29 1580.14 1738.63 1578.04 Q1740.97 1575.93 1740.97 1572.32 Q1740.97 1568.71 1738.63 1566.6 Q1736.29 1564.5 1732.29 1564.5 Q1730.41 1564.5 1728.54 1564.91 Q1726.69 1565.33 1724.74 1566.21 L1724.74 1548.85 Z" fill="#000000" fill-rule="nonzero" fill-opacity="1" /><path clip-path="url(#clip360)" d="M2117.33 1579.47 L2124.97 1579.47 L2124.97 1553.11 L2116.66 1554.77 L2116.66 1550.51 L2124.92 1548.85 L2129.6 1548.85 L2129.6 1579.47 L2137.23 1579.47 L2137.23 1583.41 L2117.33 1583.41 L2117.33 1579.47 Z" fill="#000000" fill-rule="nonzero" fill-opacity="1" /><path clip-path="url(#clip360)" d="M2146.68 1577.53 L2151.56 1577.53 L2151.56 1583.41 L2146.68 1583.41 L2146.68 1577.53 Z" fill="#000000" fill-rule="nonzero" fill-opacity="1" /><path clip-path="url(#clip360)" d="M2171.75 1551.93 Q2168.14 1551.93 2166.31 1555.49 Q2164.5 1559.03 2164.5 1566.16 Q2164.5 1573.27 2166.31 1576.83 Q2168.14 1580.38 2171.75 1580.38 Q2175.38 1580.38 2177.19 1576.83 Q2179.02 1573.27 2179.02 1566.16 Q2179.02 1559.03 2177.19 1555.49 Q2175.38 1551.93 2171.75 1551.93 M2171.75 1548.22 Q2177.56 1548.22 2180.61 1552.83 Q2183.69 1557.41 2183.69 1566.16 Q2183.69 1574.89 2180.61 1579.5 Q2177.56 1584.08 2171.75 1584.08 Q2165.94 1584.08 2162.86 1579.5 Q2159.8 1574.89 2159.8 1566.16 Q2159.8 1557.41 2162.86 1552.83 Q2165.94 1548.22 2171.75 1548.22 Z" fill="#000000" fill-rule="nonzero" fill-opacity="1" /><path clip-path="url(#clip360)" d="M2201.91 1551.93 Q2198.3 1551.93 2196.47 1555.49 Q2194.66 1559.03 2194.66 1566.16 Q2194.66 1573.27 2196.47 1576.83 Q2198.3 1580.38 2201.91 1580.38 Q2205.54 1580.38 2207.35 1576.83 Q2209.18 1573.27 2209.18 1566.16 Q2209.18 1559.03 2207.35 1555.49 Q2205.54 1551.93 2201.91 1551.93 M2201.91 1548.22 Q2207.72 1548.22 2210.78 1552.83 Q2213.85 1557.41 2213.85 1566.16 Q2213.85 1574.89 2210.78 1579.5 Q2207.72 1584.08 2201.91 1584.08 Q2196.1 1584.08 2193.02 1579.5 Q2189.97 1574.89 2189.97 1566.16 Q2189.97 1557.41 2193.02 1552.83 Q2196.1 1548.22 2201.91 1548.22 Z" fill="#000000" fill-rule="nonzero" fill-opacity="1" /><polyline clip-path="url(#clip362)" style="stroke:#000000; stroke-linecap:round; stroke-linejoin:round; stroke-width:2; stroke-opacity:0.1; fill:none" points="102.74,1521.01 2352.76,1521.01 "/>
<polyline clip-path="url(#clip362)" style="stroke:#000000; stroke-linecap:round; stroke-linejoin:round; stroke-width:2; stroke-opacity:0.1; fill:none" points="102.74,1029.75 2352.76,1029.75 "/>
<polyline clip-path="url(#clip362)" style="stroke:#000000; stroke-linecap:round; stroke-linejoin:round; stroke-width:2; stroke-opacity:0.1; fill:none" points="102.74,538.499 2352.76,538.499 "/>
<polyline clip-path="url(#clip362)" style="stroke:#000000; stroke-linecap:round; stroke-linejoin:round; stroke-width:2; stroke-opacity:0.1; fill:none" points="102.74,47.2441 2352.76,47.2441 "/>
<polyline clip-path="url(#clip360)" style="stroke:#000000; stroke-linecap:round; stroke-linejoin:round; stroke-width:4; stroke-opacity:1; fill:none" points="102.74,1521.01 102.74,47.2441 "/>
<polyline clip-path="url(#clip360)" style="stroke:#000000; stroke-linecap:round; stroke-linejoin:round; stroke-width:4; stroke-opacity:1; fill:none" points="102.74,1521.01 121.638,1521.01 "/>
<polyline clip-path="url(#clip360)" style="stroke:#000000; stroke-linecap:round; stroke-linejoin:round; stroke-width:4; stroke-opacity:1; fill:none" points="102.74,1029.75 121.638,1029.75 "/>
<polyline clip-path="url(#clip360)" style="stroke:#000000; stroke-linecap:round; stroke-linejoin:round; stroke-width:4; stroke-opacity:1; fill:none" points="102.74,538.499 121.638,538.499 "/>
<polyline clip-path="url(#clip360)" style="stroke:#000000; stroke-linecap:round; stroke-linejoin:round; stroke-width:4; stroke-opacity:1; fill:none" points="102.74,47.2441 121.638,47.2441 "/>
<path clip-path="url(#clip360)" d="M9.56454 1506.81 Q5.95345 1506.81 4.12475 1510.37 Q2.31921 1513.91 2.31921 1521.04 Q2.31921 1528.15 4.12475 1531.71 Q5.95345 1535.26 9.56454 1535.26 Q13.1988 1535.26 15.0043 1531.71 Q16.833 1528.15 16.833 1521.04 Q16.833 1513.91 15.0043 1510.37 Q13.1988 1506.81 9.56454 1506.81 M9.56454 1503.1 Q15.3747 1503.1 18.4302 1507.71 Q21.5089 1512.29 21.5089 1521.04 Q21.5089 1529.77 18.4302 1534.38 Q15.3747 1538.96 9.56454 1538.96 Q3.75438 1538.96 0.675697 1534.38 Q-2.37984 1529.77 -2.37984 1521.04 Q-2.37984 1512.29 0.675697 1507.71 Q3.75438 1503.1 9.56454 1503.1 Z" fill="#000000" fill-rule="nonzero" fill-opacity="1" /><path clip-path="url(#clip360)" d="M29.7265 1532.41 L34.6107 1532.41 L34.6107 1538.29 L29.7265 1538.29 L29.7265 1532.41 Z" fill="#000000" fill-rule="nonzero" fill-opacity="1" /><path clip-path="url(#clip360)" d="M54.7958 1506.81 Q51.1847 1506.81 49.356 1510.37 Q47.5504 1513.91 47.5504 1521.04 Q47.5504 1528.15 49.356 1531.71 Q51.1847 1535.26 54.7958 1535.26 Q58.43 1535.26 60.2356 1531.71 Q62.0643 1528.15 62.0643 1521.04 Q62.0643 1513.91 60.2356 1510.37 Q58.43 1506.81 54.7958 1506.81 M54.7958 1503.1 Q60.6059 1503.1 63.6615 1507.71 Q66.7402 1512.29 66.7402 1521.04 Q66.7402 1529.77 63.6615 1534.38 Q60.6059 1538.96 54.7958 1538.96 Q48.9856 1538.96 45.9069 1534.38 Q42.8514 1529.77 42.8514 1521.04 Q42.8514 1512.29 45.9069 1507.71 Q48.9856 1503.1 54.7958 1503.1 Z" fill="#000000" fill-rule="nonzero" fill-opacity="1" /><path clip-path="url(#clip360)" d="M10.5599 1015.55 Q6.94881 1015.55 5.12012 1019.12 Q3.31457 1022.66 3.31457 1029.79 Q3.31457 1036.89 5.12012 1040.46 Q6.94881 1044 10.5599 1044 Q14.1941 1044 15.9997 1040.46 Q17.8284 1036.89 17.8284 1029.79 Q17.8284 1022.66 15.9997 1019.12 Q14.1941 1015.55 10.5599 1015.55 M10.5599 1011.85 Q16.3701 1011.85 19.4256 1016.45 Q22.5043 1021.04 22.5043 1029.79 Q22.5043 1038.51 19.4256 1043.12 Q16.3701 1047.7 10.5599 1047.7 Q4.74975 1047.7 1.67106 1043.12 Q-1.38448 1038.51 -1.38448 1029.79 Q-1.38448 1021.04 1.67106 1016.45 Q4.74975 1011.85 10.5599 1011.85 Z" fill="#000000" fill-rule="nonzero" fill-opacity="1" /><path clip-path="url(#clip360)" d="M30.7218 1041.15 L35.6061 1041.15 L35.6061 1047.03 L30.7218 1047.03 L30.7218 1041.15 Z" fill="#000000" fill-rule="nonzero" fill-opacity="1" /><path clip-path="url(#clip360)" d="M45.8375 1012.47 L64.1939 1012.47 L64.1939 1016.41 L50.1199 1016.41 L50.1199 1024.88 Q51.1384 1024.53 52.1569 1024.37 Q53.1754 1024.19 54.1939 1024.19 Q59.9809 1024.19 63.3605 1027.36 Q66.7402 1030.53 66.7402 1035.95 Q66.7402 1041.52 63.268 1044.63 Q59.7958 1047.7 53.4763 1047.7 Q51.3004 1047.7 49.0319 1047.33 Q46.7866 1046.96 44.3792 1046.22 L44.3792 1041.52 Q46.4625 1042.66 48.6847 1043.21 Q50.9069 1043.77 53.3837 1043.77 Q57.3884 1043.77 59.7263 1041.66 Q62.0643 1039.56 62.0643 1035.95 Q62.0643 1032.33 59.7263 1030.23 Q57.3884 1028.12 53.3837 1028.12 Q51.5088 1028.12 49.6338 1028.54 Q47.7819 1028.95 45.8375 1029.83 L45.8375 1012.47 Z" fill="#000000" fill-rule="nonzero" fill-opacity="1" /><path clip-path="url(#clip360)" d="M0.374772 551.844 L8.01362 551.844 L8.01362 525.478 L-0.29652 527.145 L-0.29652 522.885 L7.96732 521.219 L12.6432 521.219 L12.6432 551.844 L20.2821 551.844 L20.2821 555.779 L0.374772 555.779 L0.374772 551.844 Z" fill="#000000" fill-rule="nonzero" fill-opacity="1" /><path clip-path="url(#clip360)" d="M29.7265 549.899 L34.6107 549.899 L34.6107 555.779 L29.7265 555.779 L29.7265 549.899 Z" fill="#000000" fill-rule="nonzero" fill-opacity="1" /><path clip-path="url(#clip360)" d="M54.7958 524.297 Q51.1847 524.297 49.356 527.862 Q47.5504 531.404 47.5504 538.533 Q47.5504 545.64 49.356 549.205 Q51.1847 552.746 54.7958 552.746 Q58.43 552.746 60.2356 549.205 Q62.0643 545.64 62.0643 538.533 Q62.0643 531.404 60.2356 527.862 Q58.43 524.297 54.7958 524.297 M54.7958 520.594 Q60.6059 520.594 63.6615 525.2 Q66.7402 529.783 66.7402 538.533 Q66.7402 547.26 63.6615 551.867 Q60.6059 556.45 54.7958 556.45 Q48.9856 556.45 45.9069 551.867 Q42.8514 547.26 42.8514 538.533 Q42.8514 529.783 45.9069 525.2 Q48.9856 520.594 54.7958 520.594 Z" fill="#000000" fill-rule="nonzero" fill-opacity="1" /><path clip-path="url(#clip360)" d="M1.37014 60.5889 L9.00899 60.5889 L9.00899 34.2233 L0.698845 35.89 L0.698845 31.6308 L8.96269 29.9641 L13.6386 29.9641 L13.6386 60.5889 L21.2774 60.5889 L21.2774 64.5241 L1.37014 64.5241 L1.37014 60.5889 Z" fill="#000000" fill-rule="nonzero" fill-opacity="1" /><path clip-path="url(#clip360)" d="M30.7218 58.6445 L35.6061 58.6445 L35.6061 64.5241 L30.7218 64.5241 L30.7218 58.6445 Z" fill="#000000" fill-rule="nonzero" fill-opacity="1" /><path clip-path="url(#clip360)" d="M45.8375 29.9641 L64.1939 29.9641 L64.1939 33.8993 L50.1199 33.8993 L50.1199 42.3714 Q51.1384 42.0242 52.1569 41.8622 Q53.1754 41.677 54.1939 41.677 Q59.9809 41.677 63.3605 44.8483 Q66.7402 48.0196 66.7402 53.4362 Q66.7402 59.0149 63.268 62.1167 Q59.7958 65.1954 53.4763 65.1954 Q51.3004 65.1954 49.0319 64.825 Q46.7866 64.4547 44.3792 63.7139 L44.3792 59.0149 Q46.4625 60.1491 48.6847 60.7047 Q50.9069 61.2602 53.3837 61.2602 Q57.3884 61.2602 59.7263 59.1538 Q62.0643 57.0473 62.0643 53.4362 Q62.0643 49.8251 59.7263 47.7186 Q57.3884 45.6122 53.3837 45.6122 Q51.5088 45.6122 49.6338 46.0288 Q47.7819 46.4455 45.8375 47.3251 L45.8375 29.9641 Z" fill="#000000" fill-rule="nonzero" fill-opacity="1" /><path clip-path="url(#clip360)" d="M-81.3134 778.126 L-81.3134 787.388 L-70.6826 790.062 L-70.6826 780.736 L-81.3134 778.126 M-99.4238 782.901 L-86.2149 786.211 L-86.2149 776.917 L-99.4238 773.575 L-99.4238 768.482 L-86.2149 771.761 L-86.2149 761.83 L-81.3134 761.83 L-81.3134 773.002 L-70.6826 775.612 L-70.6826 765.49 L-65.8129 765.49 L-65.8129 776.853 L-52.6358 780.163 L-52.6358 785.256 L-65.8129 781.978 L-65.8129 791.303 L-52.6358 794.582 L-52.6358 799.706 L-65.8129 796.396 L-65.8129 806.422 L-70.6826 806.422 L-70.6826 795.218 L-81.3134 792.545 L-81.3134 802.793 L-86.2149 802.793 L-86.2149 791.303 L-99.4238 788.057 L-99.4238 782.901 Z" fill="#000000" fill-rule="nonzero" fill-opacity="1" /><polyline clip-path="url(#clip362)" style="stroke:#009af9; stroke-linecap:round; stroke-linejoin:round; stroke-width:4; stroke-opacity:1; fill:none" points="290.241,538.499 302.449,538.499 415.323,538.499 483.156,538.499 540.508,538.499 602.809,538.499 660.244,538.499 721.821,538.499 793.163,538.499 856.564,538.499 912.161,538.499 972.777,538.499 1033.75,538.499 1101.17,538.499 1165.31,538.499 1232.01,538.499 1288.15,538.499 1356.7,538.499 1419.49,538.499 1477.48,538.499 1536.23,538.499 1602.07,538.499 1661.73,538.499 1730.03,538.499 1793.28,538.499 1855.63,538.499 1916.17,538.499 1978.23,538.499 2046.22,538.499 2144.99,538.499 2165.25,538.499 "/>
<path clip-path="url(#clip360)" d="M1967.8 200.05 L2277.76 200.05 L2277.76 96.3696 L1967.8 96.3696  Z" fill="#ffffff" fill-rule="evenodd" fill-opacity="1"/>
<polyline clip-path="url(#clip360)" style="stroke:#000000; stroke-linecap:round; stroke-linejoin:round; stroke-width:4; stroke-opacity:1; fill:none" points="1967.8,200.05 2277.76,200.05 2277.76,96.3696 1967.8,96.3696 1967.8,200.05 "/>
<polyline clip-path="url(#clip360)" style="stroke:#009af9; stroke-linecap:round; stroke-linejoin:round; stroke-width:4; stroke-opacity:1; fill:none" points="1992.8,148.21 2142.8,148.21 "/>
<path clip-path="url(#clip360)" d="M2172.48 134.772 L2172.48 147.758 L2178.36 147.758 Q2181.62 147.758 2183.4 146.068 Q2185.19 144.379 2185.19 141.254 Q2185.19 138.152 2183.4 136.462 Q2181.62 134.772 2178.36 134.772 L2172.48 134.772 M2167.8 130.93 L2178.36 130.93 Q2184.17 130.93 2187.13 133.568 Q2190.12 136.184 2190.12 141.254 Q2190.12 146.369 2187.13 148.985 Q2184.17 151.601 2178.36 151.601 L2172.48 151.601 L2172.48 165.49 L2167.8 165.49 L2167.8 130.93 Z" fill="#000000" fill-rule="nonzero" fill-opacity="1" /><path clip-path="url(#clip360)" d="M2201.07 134.772 L2201.07 161.647 L2206.71 161.647 Q2213.87 161.647 2217.18 158.406 Q2220.51 155.166 2220.51 148.175 Q2220.51 141.23 2217.18 138.013 Q2213.87 134.772 2206.71 134.772 L2201.07 134.772 M2196.39 130.93 L2206 130.93 Q2216.04 130.93 2220.74 135.119 Q2225.44 139.286 2225.44 148.175 Q2225.44 157.11 2220.72 161.3 Q2216 165.49 2206 165.49 L2196.39 165.49 L2196.39 130.93 Z" fill="#000000" fill-rule="nonzero" fill-opacity="1" /><path clip-path="url(#clip360)" d="M2232.89 130.93 L2252.76 130.93 L2252.76 134.865 L2237.57 134.865 L2237.57 145.05 L2251.27 145.05 L2251.27 148.985 L2237.57 148.985 L2237.57 165.49 L2232.89 165.49 L2232.89 130.93 Z" fill="#000000" fill-rule="nonzero" fill-opacity="1" /></svg>
