<?xml version="1.0" encoding="utf-8"?>
<svg xmlns="http://www.w3.org/2000/svg" xmlns:xlink="http://www.w3.org/1999/xlink" width="600" height="400" viewBox="0 0 2400 1600">
<defs>
  <clipPath id="clip190">
    <rect x="0" y="0" width="2400" height="1600"/>
  </clipPath>
</defs>
<path clip-path="url(#clip190)" d="M0 1600 L2400 1600 L2400 0 L0 0  Z" fill="#ffffff" fill-rule="evenodd" fill-opacity="1"/>
<defs>
  <clipPath id="clip191">
    <rect x="480" y="0" width="1681" height="1600"/>
  </clipPath>
</defs>
<path clip-path="url(#clip190)" d="M102.74 1521.01 L2352.76 1521.01 L2352.76 47.2441 L102.74 47.2441  Z" fill="#ffffff" fill-rule="evenodd" fill-opacity="1"/>
<defs>
  <clipPath id="clip192">
    <rect x="102" y="47" width="2251" height="1475"/>
  </clipPath>
</defs>
<polyline clip-path="url(#clip192)" style="stroke:#000000; stroke-linecap:round; stroke-linejoin:round; stroke-width:2; stroke-opacity:0.1; fill:none" points="166.42,1521.01 166.42,47.2441 "/>
<polyline clip-path="url(#clip192)" style="stroke:#000000; stroke-linecap:round; stroke-linejoin:round; stroke-width:2; stroke-opacity:0.1; fill:none" points="378.685,1521.01 378.685,47.2441 "/>
<polyline clip-path="url(#clip192)" style="stroke:#000000; stroke-linecap:round; stroke-linejoin:round; stroke-width:2; stroke-opacity:0.1; fill:none" points="590.951,1521.01 590.951,47.2441 "/>
<polyline clip-path="url(#clip192)" style="stroke:#000000; stroke-linecap:round; stroke-linejoin:round; stroke-width:2; stroke-opacity:0.1; fill:none" points="803.217,1521.01 803.217,47.2441 "/>
<polyline clip-path="url(#clip192)" style="stroke:#000000; stroke-linecap:round; stroke-linejoin:round; stroke-width:2; stroke-opacity:0.1; fill:none" points="1015.48,1521.01 1015.48,47.2441 "/>
<polyline clip-path="url(#clip192)" style="stroke:#000000; stroke-linecap:round; stroke-linejoin:round; stroke-width:2; stroke-opacity:0.1; fill:none" points="1227.75,1521.01 1227.75,47.2441 "/>
<polyline clip-path="url(#clip192)" style="stroke:#000000; stroke-linecap:round; stroke-linejoin:round; stroke-width:2; stroke-opacity:0.1; fill:none" points="1440.01,1521.01 1440.01,47.2441 "/>
<polyline clip-path="url(#clip192)" style="stroke:#000000; stroke-linecap:round; stroke-linejoin:round; stroke-width:2; stroke-opacity:0.1; fill:none" points="1652.28,1521.01 1652.28,47.2441 "/>
<polyline clip-path="url(#clip192)" style="stroke:#000000; stroke-linecap:round; stroke-linejoin:round; stroke-width:2; stroke-opacity:0.1; fill:none" points="1864.54,1521.01 1864.54,47.2441 "/>
<polyline clip-path="url(#clip192)" style="stroke:#000000; stroke-linecap:round; stroke-linejoin:round; stroke-width:2; stroke-opacity:0.1; fill:none" points="2076.81,1521.01 2076.81,47.2441 "/>
<polyline clip-path="url(#clip192)" style="stroke:#000000; stroke-linecap:round; stroke-linejoin:round; stroke-width:2; stroke-opacity:0.1; fill:none" points="2289.08,1521.01 2289.08,47.2441 "/>
<polyline clip-path="url(#clip190)" style="stroke:#000000; stroke-linecap:round; stroke-linejoin:round; stroke-width:4; stroke-opacity:1; fill:none" points="102.74,1521.01 2352.76,1521.01 "/>
<polyline clip-path="url(#clip190)" style="stroke:#000000; stroke-linecap:round; stroke-linejoin:round; stroke-width:4; stroke-opacity:1; fill:none" points="166.42,1521.01 166.42,1502.11 "/>
<polyline clip-path="url(#clip190)" style="stroke:#000000; stroke-linecap:round; stroke-linejoin:round; stroke-width:4; stroke-opacity:1; fill:none" points="378.685,1521.01 378.685,1502.11 "/>
<polyline clip-path="url(#clip190)" style="stroke:#000000; stroke-linecap:round; stroke-linejoin:round; stroke-width:4; stroke-opacity:1; fill:none" points="590.951,1521.01 590.951,1502.11 "/>
<polyline clip-path="url(#clip190)" style="stroke:#000000; stroke-linecap:round; stroke-linejoin:round; stroke-width:4; stroke-opacity:1; fill:none" points="803.217,1521.01 803.217,1502.11 "/>
<polyline clip-path="url(#clip190)" style="stroke:#000000; stroke-linecap:round; stroke-linejoin:round; stroke-width:4; stroke-opacity:1; fill:none" points="1015.48,1521.01 1015.48,1502.11 "/>
<polyline clip-path="url(#clip190)" style="stroke:#000000; stroke-linecap:round; stroke-linejoin:round; stroke-width:4; stroke-opacity:1; fill:none" points="1227.75,1521.01 1227.75,1502.11 "/>
<polyline clip-path="url(#clip190)" style="stroke:#000000; stroke-linecap:round; stroke-linejoin:round; stroke-width:4; stroke-opacity:1; fill:none" points="1440.01,1521.01 1440.01,1502.11 "/>
<polyline clip-path="url(#clip190)" style="stroke:#000000; stroke-linecap:round; stroke-linejoin:round; stroke-width:4; stroke-opacity:1; fill:none" points="1652.28,1521.01 1652.28,1502.11 "/>
<polyline clip-path="url(#clip190)" style="stroke:#000000; stroke-linecap:round; stroke-linejoin:round; stroke-width:4; stroke-opacity:1; fill:none" points="1864.54,1521.01 1864.54,1502.11 "/>
<polyline clip-path="url(#clip190)" style="stroke:#000000; stroke-linecap:round; stroke-linejoin:round; stroke-width:4; stroke-opacity:1; fill:none" points="2076.81,1521.01 2076.81,1502.11 "/>
<polyline clip-path="url(#clip190)" style="stroke:#000000; stroke-linecap:round; stroke-linejoin:round; stroke-width:4; stroke-opacity:1; fill:none" points="2289.08,1521.01 2289.08,1502.11 "/>
<path clip-path="url(#clip190)" d="M166.42 1551.93 Q162.809 1551.93 160.98 1555.49 Q159.175 1559.03 159.175 1566.16 Q159.175 1573.27 160.98 1576.83 Q162.809 1580.38 166.42 1580.38 Q170.054 1580.38 171.86 1576.83 Q173.688 1573.27 173.688 1566.16 Q173.688 1559.03 171.86 1555.49 Q170.054 1551.93 166.42 1551.93 M166.42 1548.22 Q172.23 1548.22 175.286 1552.83 Q178.364 1557.41 178.364 1566.16 Q178.364 1574.89 175.286 1579.5 Q172.23 1584.08 166.42 1584.08 Q160.61 1584.08 157.531 1579.5 Q154.475 1574.89 154.475 1566.16 Q154.475 1557.41 157.531 1552.83 Q160.61 1548.22 166.42 1548.22 Z" fill="#000000" fill-rule="nonzero" fill-opacity="1" /><path clip-path="url(#clip190)" d="M369.067 1579.47 L376.706 1579.47 L376.706 1553.11 L368.396 1554.77 L368.396 1550.51 L376.66 1548.85 L381.336 1548.85 L381.336 1579.47 L388.975 1579.47 L388.975 1583.41 L369.067 1583.41 L369.067 1579.47 Z" fill="#000000" fill-rule="nonzero" fill-opacity="1" /><path clip-path="url(#clip190)" d="M585.604 1579.47 L601.923 1579.47 L601.923 1583.41 L579.979 1583.41 L579.979 1579.47 Q582.641 1576.72 587.224 1572.09 Q591.831 1567.44 593.011 1566.09 Q595.257 1563.57 596.136 1561.83 Q597.039 1560.07 597.039 1558.38 Q597.039 1555.63 595.095 1553.89 Q593.173 1552.16 590.071 1552.16 Q587.872 1552.16 585.419 1552.92 Q582.988 1553.69 580.21 1555.24 L580.21 1550.51 Q583.034 1549.38 585.488 1548.8 Q587.942 1548.22 589.979 1548.22 Q595.349 1548.22 598.544 1550.91 Q601.738 1553.59 601.738 1558.08 Q601.738 1560.21 600.928 1562.13 Q600.141 1564.03 598.034 1566.63 Q597.456 1567.3 594.354 1570.51 Q591.252 1573.71 585.604 1579.47 Z" fill="#000000" fill-rule="nonzero" fill-opacity="1" /><path clip-path="url(#clip190)" d="M807.464 1564.77 Q810.821 1565.49 812.696 1567.76 Q814.594 1570.03 814.594 1573.36 Q814.594 1578.48 811.076 1581.28 Q807.557 1584.08 801.076 1584.08 Q798.9 1584.08 796.585 1583.64 Q794.293 1583.22 791.84 1582.37 L791.84 1577.85 Q793.784 1578.99 796.099 1579.57 Q798.414 1580.14 800.937 1580.14 Q805.335 1580.14 807.626 1578.41 Q809.941 1576.67 809.941 1573.36 Q809.941 1570.31 807.788 1568.59 Q805.659 1566.86 801.839 1566.86 L797.812 1566.86 L797.812 1563.01 L802.025 1563.01 Q805.474 1563.01 807.302 1561.65 Q809.131 1560.26 809.131 1557.67 Q809.131 1555.01 807.233 1553.59 Q805.358 1552.16 801.839 1552.16 Q799.918 1552.16 797.719 1552.57 Q795.52 1552.99 792.881 1553.87 L792.881 1549.7 Q795.543 1548.96 797.858 1548.59 Q800.196 1548.22 802.256 1548.22 Q807.58 1548.22 810.682 1550.65 Q813.784 1553.06 813.784 1557.18 Q813.784 1560.05 812.14 1562.04 Q810.497 1564.01 807.464 1564.77 Z" fill="#000000" fill-rule="nonzero" fill-opacity="1" /><path clip-path="url(#clip190)" d="M1018.49 1552.92 L1006.69 1571.37 L1018.49 1571.37 L1018.49 1552.92 M1017.26 1548.85 L1023.14 1548.85 L1023.14 1571.37 L1028.07 1571.37 L1028.07 1575.26 L1023.14 1575.26 L1023.14 1583.41 L1018.49 1583.41 L1018.49 1575.26 L1002.89 1575.26 L1002.89 1570.75 L1017.26 1548.85 Z" fill="#000000" fill-rule="nonzero" fill-opacity="1" /><path clip-path="url(#clip190)" d="M1218.03 1548.85 L1236.38 1548.85 L1236.38 1552.78 L1222.31 1552.78 L1222.31 1561.26 Q1223.33 1560.91 1224.35 1560.75 Q1225.36 1560.56 1226.38 1560.56 Q1232.17 1560.56 1235.55 1563.73 Q1238.93 1566.9 1238.93 1572.32 Q1238.93 1577.9 1235.46 1581 Q1231.98 1584.08 1225.66 1584.08 Q1223.49 1584.08 1221.22 1583.71 Q1218.97 1583.34 1216.57 1582.6 L1216.57 1577.9 Q1218.65 1579.03 1220.87 1579.59 Q1223.1 1580.14 1225.57 1580.14 Q1229.58 1580.14 1231.91 1578.04 Q1234.25 1575.93 1234.25 1572.32 Q1234.25 1568.71 1231.91 1566.6 Q1229.58 1564.5 1225.57 1564.5 Q1223.7 1564.5 1221.82 1564.91 Q1219.97 1565.33 1218.03 1566.21 L1218.03 1548.85 Z" fill="#000000" fill-rule="nonzero" fill-opacity="1" /><path clip-path="url(#clip190)" d="M1440.42 1564.26 Q1437.27 1564.26 1435.42 1566.42 Q1433.59 1568.57 1433.59 1572.32 Q1433.59 1576.05 1435.42 1578.22 Q1437.27 1580.38 1440.42 1580.38 Q1443.57 1580.38 1445.4 1578.22 Q1447.25 1576.05 1447.25 1572.32 Q1447.25 1568.57 1445.4 1566.42 Q1443.57 1564.26 1440.42 1564.26 M1449.7 1549.61 L1449.7 1553.87 Q1447.94 1553.04 1446.14 1552.6 Q1444.35 1552.16 1442.59 1552.16 Q1437.97 1552.16 1435.51 1555.28 Q1433.08 1558.41 1432.73 1564.73 Q1434.1 1562.71 1436.16 1561.65 Q1438.22 1560.56 1440.7 1560.56 Q1445.9 1560.56 1448.91 1563.73 Q1451.95 1566.88 1451.95 1572.32 Q1451.95 1577.64 1448.8 1580.86 Q1445.65 1584.08 1440.42 1584.08 Q1434.42 1584.08 1431.25 1579.5 Q1428.08 1574.89 1428.08 1566.16 Q1428.08 1557.97 1431.97 1553.11 Q1435.86 1548.22 1442.41 1548.22 Q1444.17 1548.22 1445.95 1548.57 Q1447.76 1548.92 1449.7 1549.61 Z" fill="#000000" fill-rule="nonzero" fill-opacity="1" /><path clip-path="url(#clip190)" d="M1641.17 1548.85 L1663.39 1548.85 L1663.39 1550.84 L1650.84 1583.41 L1645.96 1583.41 L1657.77 1552.78 L1641.17 1552.78 L1641.17 1548.85 Z" fill="#000000" fill-rule="nonzero" fill-opacity="1" /><path clip-path="url(#clip190)" d="M1864.54 1567 Q1861.21 1567 1859.29 1568.78 Q1857.39 1570.56 1857.39 1573.69 Q1857.39 1576.81 1859.29 1578.59 Q1861.21 1580.38 1864.54 1580.38 Q1867.88 1580.38 1869.8 1578.59 Q1871.72 1576.79 1871.72 1573.69 Q1871.72 1570.56 1869.8 1568.78 Q1867.9 1567 1864.54 1567 M1859.87 1565.01 Q1856.86 1564.26 1855.17 1562.2 Q1853.5 1560.14 1853.5 1557.18 Q1853.5 1553.04 1856.44 1550.63 Q1859.41 1548.22 1864.54 1548.22 Q1869.71 1548.22 1872.65 1550.63 Q1875.59 1553.04 1875.59 1557.18 Q1875.59 1560.14 1873.9 1562.2 Q1872.23 1564.26 1869.24 1565.01 Q1872.62 1565.79 1874.5 1568.08 Q1876.4 1570.38 1876.4 1573.69 Q1876.4 1578.71 1873.32 1581.39 Q1870.26 1584.08 1864.54 1584.08 Q1858.83 1584.08 1855.75 1581.39 Q1852.69 1578.71 1852.69 1573.69 Q1852.69 1570.38 1854.59 1568.08 Q1856.49 1565.79 1859.87 1565.01 M1858.16 1557.62 Q1858.16 1560.31 1859.82 1561.81 Q1861.51 1563.32 1864.54 1563.32 Q1867.55 1563.32 1869.24 1561.81 Q1870.96 1560.31 1870.96 1557.62 Q1870.96 1554.94 1869.24 1553.43 Q1867.55 1551.93 1864.54 1551.93 Q1861.51 1551.93 1859.82 1553.43 Q1858.16 1554.94 1858.16 1557.62 Z" fill="#000000" fill-rule="nonzero" fill-opacity="1" /><path clip-path="url(#clip190)" d="M2067.11 1582.69 L2067.11 1578.43 Q2068.87 1579.26 2070.68 1579.7 Q2072.48 1580.14 2074.22 1580.14 Q2078.85 1580.14 2081.28 1577.04 Q2083.73 1573.92 2084.08 1567.57 Q2082.74 1569.57 2080.68 1570.63 Q2078.62 1571.69 2076.12 1571.69 Q2070.93 1571.69 2067.9 1568.57 Q2064.89 1565.42 2064.89 1559.98 Q2064.89 1554.66 2068.04 1551.44 Q2071.19 1548.22 2076.42 1548.22 Q2082.41 1548.22 2085.56 1552.83 Q2088.73 1557.41 2088.73 1566.16 Q2088.73 1574.33 2084.84 1579.22 Q2080.98 1584.08 2074.43 1584.08 Q2072.67 1584.08 2070.86 1583.73 Q2069.06 1583.38 2067.11 1582.69 M2076.42 1568.04 Q2079.57 1568.04 2081.39 1565.88 Q2083.25 1563.73 2083.25 1559.98 Q2083.25 1556.26 2081.39 1554.1 Q2079.57 1551.93 2076.42 1551.93 Q2073.27 1551.93 2071.42 1554.1 Q2069.59 1556.26 2069.59 1559.98 Q2069.59 1563.73 2071.42 1565.88 Q2073.27 1568.04 2076.42 1568.04 Z" fill="#000000" fill-rule="nonzero" fill-opacity="1" /><path clip-path="url(#clip190)" d="M2263.76 1579.47 L2271.4 1579.47 L2271.4 1553.11 L2263.09 1554.77 L2263.09 1550.51 L2271.36 1548.85 L2276.03 1548.85 L2276.03 1579.47 L2283.67 1579.47 L2283.67 1583.41 L2263.76 1583.41 L2263.76 1579.47 Z" fill="#000000" fill-rule="nonzero" fill-opacity="1" /><path clip-path="url(#clip190)" d="M2303.12 1551.93 Q2299.5 1551.93 2297.68 1555.49 Q2295.87 1559.03 2295.87 1566.16 Q2295.87 1573.27 2297.68 1576.83 Q2299.5 1580.38 2303.12 1580.38 Q2306.75 1580.38 2308.56 1576.83 Q2310.38 1573.27 2310.38 1566.16 Q2310.38 1559.03 2308.56 1555.49 Q2306.75 1551.93 2303.12 1551.93 M2303.12 1548.22 Q2308.93 1548.22 2311.98 1552.83 Q2315.06 1557.41 2315.06 1566.16 Q2315.06 1574.89 2311.98 1579.5 Q2308.93 1584.08 2303.12 1584.08 Q2297.31 1584.08 2294.23 1579.5 Q2291.17 1574.89 2291.17 1566.16 Q2291.17 1557.41 2294.23 1552.83 Q2297.31 1548.22 2303.12 1548.22 Z" fill="#000000" fill-rule="nonzero" fill-opacity="1" /><polyline clip-path="url(#clip192)" style="stroke:#000000; stroke-linecap:round; stroke-linejoin:round; stroke-width:2; stroke-opacity:0.1; fill:none" points="102.74,1479.3 2352.76,1479.3 "/>
<polyline clip-path="url(#clip192)" style="stroke:#000000; stroke-linecap:round; stroke-linejoin:round; stroke-width:2; stroke-opacity:0.1; fill:none" points="102.74,1120.43 2352.76,1120.43 "/>
<polyline clip-path="url(#clip192)" style="stroke:#000000; stroke-linecap:round; stroke-linejoin:round; stroke-width:2; stroke-opacity:0.1; fill:none" points="102.74,761.554 2352.76,761.554 "/>
<polyline clip-path="url(#clip192)" style="stroke:#000000; stroke-linecap:round; stroke-linejoin:round; stroke-width:2; stroke-opacity:0.1; fill:none" points="102.74,402.682 2352.76,402.682 "/>
<polyline clip-path="url(#clip190)" style="stroke:#000000; stroke-linecap:round; stroke-linejoin:round; stroke-width:4; stroke-opacity:1; fill:none" points="102.74,1521.01 102.74,47.2441 "/>
<polyline clip-path="url(#clip190)" style="stroke:#000000; stroke-linecap:round; stroke-linejoin:round; stroke-width:4; stroke-opacity:1; fill:none" points="102.74,1479.3 121.638,1479.3 "/>
<polyline clip-path="url(#clip190)" style="stroke:#000000; stroke-linecap:round; stroke-linejoin:round; stroke-width:4; stroke-opacity:1; fill:none" points="102.74,1120.43 121.638,1120.43 "/>
<polyline clip-path="url(#clip190)" style="stroke:#000000; stroke-linecap:round; stroke-linejoin:round; stroke-width:4; stroke-opacity:1; fill:none" points="102.74,761.554 121.638,761.554 "/>
<polyline clip-path="url(#clip190)" style="stroke:#000000; stroke-linecap:round; stroke-linejoin:round; stroke-width:4; stroke-opacity:1; fill:none" points="102.74,402.682 121.638,402.682 "/>
<path clip-path="url(#clip190)" d="M9.56454 1465.1 Q5.95345 1465.1 4.12475 1468.66 Q2.31921 1472.2 2.31921 1479.33 Q2.31921 1486.44 4.12475 1490 Q5.95345 1493.55 9.56454 1493.55 Q13.1988 1493.55 15.0043 1490 Q16.833 1486.44 16.833 1479.33 Q16.833 1472.2 15.0043 1468.66 Q13.1988 1465.1 9.56454 1465.1 M9.56454 1461.39 Q15.3747 1461.39 18.4302 1466 Q21.5089 1470.58 21.5089 1479.33 Q21.5089 1488.06 18.4302 1492.67 Q15.3747 1497.25 9.56454 1497.25 Q3.75438 1497.25 0.675697 1492.67 Q-2.37984 1488.06 -2.37984 1479.33 Q-2.37984 1470.58 0.675697 1466 Q3.75438 1461.39 9.56454 1461.39 Z" fill="#000000" fill-rule="nonzero" fill-opacity="1" /><path clip-path="url(#clip190)" d="M29.7265 1490.7 L34.6107 1490.7 L34.6107 1496.58 L29.7265 1496.58 L29.7265 1490.7 Z" fill="#000000" fill-rule="nonzero" fill-opacity="1" /><path clip-path="url(#clip190)" d="M54.7958 1465.1 Q51.1847 1465.1 49.356 1468.66 Q47.5504 1472.2 47.5504 1479.33 Q47.5504 1486.44 49.356 1490 Q51.1847 1493.55 54.7958 1493.55 Q58.43 1493.55 60.2356 1490 Q62.0643 1486.44 62.0643 1479.33 Q62.0643 1472.2 60.2356 1468.66 Q58.43 1465.1 54.7958 1465.1 M54.7958 1461.39 Q60.6059 1461.39 63.6615 1466 Q66.7402 1470.58 66.7402 1479.33 Q66.7402 1488.06 63.6615 1492.67 Q60.6059 1497.25 54.7958 1497.25 Q48.9856 1497.25 45.9069 1492.67 Q42.8514 1488.06 42.8514 1479.33 Q42.8514 1470.58 45.9069 1466 Q48.9856 1461.39 54.7958 1461.39 Z" fill="#000000" fill-rule="nonzero" fill-opacity="1" /><path clip-path="url(#clip190)" d="M10.7914 1106.22 Q7.18029 1106.22 5.3516 1109.79 Q3.54605 1113.33 3.54605 1120.46 Q3.54605 1127.57 5.3516 1131.13 Q7.18029 1134.67 10.7914 1134.67 Q14.4256 1134.67 16.2312 1131.13 Q18.0599 1127.57 18.0599 1120.46 Q18.0599 1113.33 16.2312 1109.79 Q14.4256 1106.22 10.7914 1106.22 M10.7914 1102.52 Q16.6015 1102.52 19.6571 1107.13 Q22.7358 1111.71 22.7358 1120.46 Q22.7358 1129.19 19.6571 1133.79 Q16.6015 1138.38 10.7914 1138.38 Q4.98123 1138.38 1.90254 1133.79 Q-1.153 1129.19 -1.153 1120.46 Q-1.153 1111.71 1.90254 1107.13 Q4.98123 1102.52 10.7914 1102.52 Z" fill="#000000" fill-rule="nonzero" fill-opacity="1" /><path clip-path="url(#clip190)" d="M30.9533 1131.83 L35.8375 1131.83 L35.8375 1137.71 L30.9533 1137.71 L30.9533 1131.83 Z" fill="#000000" fill-rule="nonzero" fill-opacity="1" /><path clip-path="url(#clip190)" d="M46.8329 1133.77 L54.4717 1133.77 L54.4717 1107.4 L46.1616 1109.07 L46.1616 1104.81 L54.4254 1103.15 L59.1013 1103.15 L59.1013 1133.77 L66.7402 1133.77 L66.7402 1137.71 L46.8329 1137.71 L46.8329 1133.77 Z" fill="#000000" fill-rule="nonzero" fill-opacity="1" /><path clip-path="url(#clip190)" d="M11.1618 747.353 Q7.55066 747.353 5.72197 750.917 Q3.91642 754.459 3.91642 761.589 Q3.91642 768.695 5.72197 772.26 Q7.55066 775.801 11.1618 775.801 Q14.796 775.801 16.6015 772.26 Q18.4302 768.695 18.4302 761.589 Q18.4302 754.459 16.6015 750.917 Q14.796 747.353 11.1618 747.353 M11.1618 743.649 Q16.9719 743.649 20.0274 748.255 Q23.1061 752.839 23.1061 761.589 Q23.1061 770.315 20.0274 774.922 Q16.9719 779.505 11.1618 779.505 Q5.3516 779.505 2.27291 774.922 Q-0.782629 770.315 -0.782629 761.589 Q-0.782629 752.839 2.27291 748.255 Q5.3516 743.649 11.1618 743.649 Z" fill="#000000" fill-rule="nonzero" fill-opacity="1" /><path clip-path="url(#clip190)" d="M31.3237 772.954 L36.2079 772.954 L36.2079 778.834 L31.3237 778.834 L31.3237 772.954 Z" fill="#000000" fill-rule="nonzero" fill-opacity="1" /><path clip-path="url(#clip190)" d="M50.4208 774.899 L66.7402 774.899 L66.7402 778.834 L44.7958 778.834 L44.7958 774.899 Q47.4579 772.144 52.0412 767.514 Q56.6476 762.862 57.8282 761.519 Q60.0735 758.996 60.9532 757.26 Q61.8559 755.501 61.8559 753.811 Q61.8559 751.056 59.9115 749.32 Q57.9902 747.584 54.8884 747.584 Q52.6893 747.584 50.2356 748.348 Q47.8051 749.112 45.0273 750.663 L45.0273 745.94 Q47.8514 744.806 50.3051 744.228 Q52.7588 743.649 54.7958 743.649 Q60.1661 743.649 63.3605 746.334 Q66.555 749.019 66.555 753.51 Q66.555 755.64 65.7448 757.561 Q64.9578 759.459 62.8513 762.052 Q62.2726 762.723 59.1708 765.94 Q56.0689 769.135 50.4208 774.899 Z" fill="#000000" fill-rule="nonzero" fill-opacity="1" /><path clip-path="url(#clip190)" d="M10.2127 388.481 Q6.60159 388.481 4.7729 392.045 Q2.96735 395.587 2.96735 402.717 Q2.96735 409.823 4.7729 413.388 Q6.60159 416.93 10.2127 416.93 Q13.8469 416.93 15.6525 413.388 Q17.4812 409.823 17.4812 402.717 Q17.4812 395.587 15.6525 392.045 Q13.8469 388.481 10.2127 388.481 M10.2127 384.777 Q16.0228 384.777 19.0784 389.383 Q22.1571 393.967 22.1571 402.717 Q22.1571 411.443 19.0784 416.05 Q16.0228 420.633 10.2127 420.633 Q4.40253 420.633 1.32384 416.05 Q-1.7317 411.443 -1.7317 402.717 Q-1.7317 393.967 1.32384 389.383 Q4.40253 384.777 10.2127 384.777 Z" fill="#000000" fill-rule="nonzero" fill-opacity="1" /><path clip-path="url(#clip190)" d="M30.3746 414.082 L35.2588 414.082 L35.2588 419.962 L30.3746 419.962 L30.3746 414.082 Z" fill="#000000" fill-rule="nonzero" fill-opacity="1" /><path clip-path="url(#clip190)" d="M59.6106 401.328 Q62.967 402.045 64.842 404.314 Q66.7402 406.582 66.7402 409.916 Q66.7402 415.031 63.2217 417.832 Q59.7032 420.633 53.2217 420.633 Q51.0458 420.633 48.731 420.193 Q46.4393 419.777 43.9856 418.92 L43.9856 414.406 Q45.9301 415.541 48.2449 416.119 Q50.5597 416.698 53.0828 416.698 Q57.4809 416.698 59.7726 414.962 Q62.0874 413.226 62.0874 409.916 Q62.0874 406.86 59.9346 405.147 Q57.805 403.411 53.9856 403.411 L49.9578 403.411 L49.9578 399.569 L54.1708 399.569 Q57.6198 399.569 59.4485 398.203 Q61.2772 396.814 61.2772 394.221 Q61.2772 391.559 59.3791 390.147 Q57.5041 388.712 53.9856 388.712 Q52.0643 388.712 49.8652 389.129 Q47.6662 389.545 45.0273 390.425 L45.0273 386.258 Q47.6893 385.518 50.0041 385.147 Q52.3421 384.777 54.4023 384.777 Q59.7263 384.777 62.8281 387.207 Q65.93 389.615 65.93 393.735 Q65.93 396.606 64.2865 398.596 Q62.643 400.564 59.6106 401.328 Z" fill="#000000" fill-rule="nonzero" fill-opacity="1" /><path clip-path="url(#clip190)" d="M-81.3134 778.126 L-81.3134 787.388 L-70.6826 790.062 L-70.6826 780.736 L-81.3134 778.126 M-99.4238 782.901 L-86.2149 786.211 L-86.2149 776.917 L-99.4238 773.575 L-99.4238 768.482 L-86.2149 771.761 L-86.2149 761.83 L-81.3134 761.83 L-81.3134 773.002 L-70.6826 775.612 L-70.6826 765.49 L-65.8129 765.49 L-65.8129 776.853 L-52.6358 780.163 L-52.6358 785.256 L-65.8129 781.978 L-65.8129 791.303 L-52.6358 794.582 L-52.6358 799.706 L-65.8129 796.396 L-65.8129 806.422 L-70.6826 806.422 L-70.6826 795.218 L-81.3134 792.545 L-81.3134 802.793 L-86.2149 802.793 L-86.2149 791.303 L-99.4238 788.057 L-99.4238 782.901 Z" fill="#000000" fill-rule="nonzero" fill-opacity="1" /><polyline clip-path="url(#clip192)" style="stroke:#009af9; stroke-linecap:round; stroke-linejoin:round; stroke-width:4; stroke-opacity:1; fill:none" points="166.42,1479.3 166.42,227.989 "/>
<polyline clip-path="url(#clip192)" style="stroke:#009af9; stroke-linecap:round; stroke-linejoin:round; stroke-width:4; stroke-opacity:1; fill:none" points="378.685,1479.3 378.685,88.9544 "/>
<polyline clip-path="url(#clip192)" style="stroke:#009af9; stroke-linecap:round; stroke-linejoin:round; stroke-width:4; stroke-opacity:1; fill:none" points="590.951,1479.3 590.951,784.126 "/>
<polyline clip-path="url(#clip192)" style="stroke:#009af9; stroke-linecap:round; stroke-linejoin:round; stroke-width:4; stroke-opacity:1; fill:none" points="803.217,1479.3 803.217,1273.32 "/>
<polyline clip-path="url(#clip192)" style="stroke:#009af9; stroke-linecap:round; stroke-linejoin:round; stroke-width:4; stroke-opacity:1; fill:none" points="1015.48,1479.3 1015.48,1439.25 "/>
<polyline clip-path="url(#clip192)" style="stroke:#009af9; stroke-linecap:round; stroke-linejoin:round; stroke-width:4; stroke-opacity:1; fill:none" points="1227.75,1479.3 1227.75,1473.96 "/>
<polyline clip-path="url(#clip192)" style="stroke:#009af9; stroke-linecap:round; stroke-linejoin:round; stroke-width:4; stroke-opacity:1; fill:none" points="1440.01,1479.3 1440.01,1478.8 "/>
<polyline clip-path="url(#clip192)" style="stroke:#009af9; stroke-linecap:round; stroke-linejoin:round; stroke-width:4; stroke-opacity:1; fill:none" points="1652.28,1479.3 1652.28,1479.27 "/>
<polyline clip-path="url(#clip192)" style="stroke:#009af9; stroke-linecap:round; stroke-linejoin:round; stroke-width:4; stroke-opacity:1; fill:none" points="1864.54,1479.3 1864.54,1479.3 "/>
<polyline clip-path="url(#clip192)" style="stroke:#009af9; stroke-linecap:round; stroke-linejoin:round; stroke-width:4; stroke-opacity:1; fill:none" points="2076.81,1479.3 2076.81,1479.3 "/>
<polyline clip-path="url(#clip192)" style="stroke:#009af9; stroke-linecap:round; stroke-linejoin:round; stroke-width:4; stroke-opacity:1; fill:none" points="2289.08,1479.3 2289.08,1479.3 "/>
<path clip-path="url(#clip190)" d="M1963.4 200.05 L2277.76 200.05 L2277.76 96.3696 L1963.4 96.3696  Z" fill="#ffffff" fill-rule="evenodd" fill-opacity="1"/>
<polyline clip-path="url(#clip190)" style="stroke:#000000; stroke-linecap:round; stroke-linejoin:round; stroke-width:4; stroke-opacity:1; fill:none" points="1963.4,200.05 2277.76,200.05 2277.76,96.3696 1963.4,96.3696 1963.4,200.05 "/>
<polyline clip-path="url(#clip190)" style="stroke:#009af9; stroke-linecap:round; stroke-linejoin:round; stroke-width:4; stroke-opacity:1; fill:none" points="1988.4,148.21 2138.4,148.21 "/>
<path clip-path="url(#clip190)" d="M2168.08 134.772 L2168.08 147.758 L2173.96 147.758 Q2177.22 147.758 2179.01 146.068 Q2180.79 144.379 2180.79 141.254 Q2180.79 138.152 2179.01 136.462 Q2177.22 134.772 2173.96 134.772 L2168.08 134.772 M2163.4 130.93 L2173.96 130.93 Q2179.77 130.93 2182.73 133.568 Q2185.72 136.184 2185.72 141.254 Q2185.72 146.369 2182.73 148.985 Q2179.77 151.601 2173.96 151.601 L2168.08 151.601 L2168.08 165.49 L2163.4 165.49 L2163.4 130.93 Z" fill="#000000" fill-rule="nonzero" fill-opacity="1" /><path clip-path="url(#clip190)" d="M2191.99 130.93 L2198.96 130.93 L2207.78 154.448 L2216.64 130.93 L2223.61 130.93 L2223.61 165.49 L2219.05 165.49 L2219.05 135.142 L2210.14 158.846 L2205.44 158.846 L2196.53 135.142 L2196.53 165.49 L2191.99 165.49 L2191.99 130.93 Z" fill="#000000" fill-rule="nonzero" fill-opacity="1" /><path clip-path="url(#clip190)" d="M2232.89 130.93 L2252.76 130.93 L2252.76 134.865 L2237.57 134.865 L2237.57 145.05 L2251.27 145.05 L2251.27 148.985 L2237.57 148.985 L2237.57 165.49 L2232.89 165.49 L2232.89 130.93 Z" fill="#000000" fill-rule="nonzero" fill-opacity="1" /></svg>
