<?xml version="1.0" encoding="utf-8"?>
<svg xmlns="http://www.w3.org/2000/svg" xmlns:xlink="http://www.w3.org/1999/xlink" width="600" height="400" viewBox="0 0 2400 1600">
<defs>
  <clipPath id="clip160">
    <rect x="0" y="0" width="2400" height="1600"/>
  </clipPath>
</defs>
<path clip-path="url(#clip160)" d="M0 1600 L2400 1600 L2400 0 L0 0  Z" fill="#ffffff" fill-rule="evenodd" fill-opacity="1"/>
<defs>
  <clipPath id="clip161">
    <rect x="480" y="0" width="1681" height="1600"/>
  </clipPath>
</defs>
<path clip-path="url(#clip160)" d="M86.9921 1521.01 L2352.76 1521.01 L2352.76 47.2441 L86.9921 47.2441  Z" fill="#ffffff" fill-rule="evenodd" fill-opacity="1"/>
<defs>
  <clipPath id="clip162">
    <rect x="86" y="47" width="2267" height="1475"/>
  </clipPath>
</defs>
<polyline clip-path="url(#clip162)" style="stroke:#000000; stroke-linecap:round; stroke-linejoin:round; stroke-width:2; stroke-opacity:0.1; fill:none" points="86.9921,1521.01 86.9921,47.2441 "/>
<polyline clip-path="url(#clip162)" style="stroke:#000000; stroke-linecap:round; stroke-linejoin:round; stroke-width:2; stroke-opacity:0.1; fill:none" points="653.433,1521.01 653.433,47.2441 "/>
<polyline clip-path="url(#clip162)" style="stroke:#000000; stroke-linecap:round; stroke-linejoin:round; stroke-width:2; stroke-opacity:0.1; fill:none" points="1219.87,1521.01 1219.87,47.2441 "/>
<polyline clip-path="url(#clip162)" style="stroke:#000000; stroke-linecap:round; stroke-linejoin:round; stroke-width:2; stroke-opacity:0.1; fill:none" points="1786.31,1521.01 1786.31,47.2441 "/>
<polyline clip-path="url(#clip162)" style="stroke:#000000; stroke-linecap:round; stroke-linejoin:round; stroke-width:2; stroke-opacity:0.1; fill:none" points="2352.76,1521.01 2352.76,47.2441 "/>
<polyline clip-path="url(#clip160)" style="stroke:#000000; stroke-linecap:round; stroke-linejoin:round; stroke-width:4; stroke-opacity:1; fill:none" points="86.9921,1521.01 2352.76,1521.01 "/>
<polyline clip-path="url(#clip160)" style="stroke:#000000; stroke-linecap:round; stroke-linejoin:round; stroke-width:4; stroke-opacity:1; fill:none" points="86.9921,1521.01 86.9921,1502.11 "/>
<polyline clip-path="url(#clip160)" style="stroke:#000000; stroke-linecap:round; stroke-linejoin:round; stroke-width:4; stroke-opacity:1; fill:none" points="653.433,1521.01 653.433,1502.11 "/>
<polyline clip-path="url(#clip160)" style="stroke:#000000; stroke-linecap:round; stroke-linejoin:round; stroke-width:4; stroke-opacity:1; fill:none" points="1219.87,1521.01 1219.87,1502.11 "/>
<polyline clip-path="url(#clip160)" style="stroke:#000000; stroke-linecap:round; stroke-linejoin:round; stroke-width:4; stroke-opacity:1; fill:none" points="1786.31,1521.01 1786.31,1502.11 "/>
<polyline clip-path="url(#clip160)" style="stroke:#000000; stroke-linecap:round; stroke-linejoin:round; stroke-width:4; stroke-opacity:1; fill:none" points="2352.76,1521.01 2352.76,1502.11 "/>
<path clip-path="url(#clip160)" d="M86.9921 1551.93 Q83.381 1551.93 81.5523 1555.49 Q79.7468 1559.03 79.7468 1566.16 Q79.7468 1573.27 81.5523 1576.83 Q83.381 1580.38 86.9921 1580.38 Q90.6264 1580.38 92.4319 1576.83 Q94.2606 1573.27 94.2606 1566.16 Q94.2606 1559.03 92.4319 1555.49 Q90.6264 1551.93 86.9921 1551.93 M86.9921 1548.22 Q92.8023 1548.22 95.8578 1552.83 Q98.9365 1557.41 98.9365 1566.16 Q98.9365 1574.89 95.8578 1579.5 Q92.8023 1584.08 86.9921 1584.08 Q81.182 1584.08 78.1033 1579.5 Q75.0477 1574.89 75.0477 1566.16 Q75.0477 1557.41 78.1033 1552.83 Q81.182 1548.22 86.9921 1548.22 Z" fill="#000000" fill-rule="nonzero" fill-opacity="1" /><path clip-path="url(#clip160)" d="M643.815 1579.47 L651.454 1579.47 L651.454 1553.11 L643.144 1554.77 L643.144 1550.51 L651.408 1548.85 L656.084 1548.85 L656.084 1579.47 L663.722 1579.47 L663.722 1583.41 L643.815 1583.41 L643.815 1579.47 Z" fill="#000000" fill-rule="nonzero" fill-opacity="1" /><path clip-path="url(#clip160)" d="M1214.53 1579.47 L1230.85 1579.47 L1230.85 1583.41 L1208.9 1583.41 L1208.9 1579.47 Q1211.56 1576.72 1216.15 1572.09 Q1220.75 1567.44 1221.93 1566.09 Q1224.18 1563.57 1225.06 1561.83 Q1225.96 1560.07 1225.96 1558.38 Q1225.96 1555.63 1224.02 1553.89 Q1222.1 1552.16 1218.99 1552.16 Q1216.8 1552.16 1214.34 1552.92 Q1211.91 1553.69 1209.13 1555.24 L1209.13 1550.51 Q1211.96 1549.38 1214.41 1548.8 Q1216.86 1548.22 1218.9 1548.22 Q1224.27 1548.22 1227.47 1550.91 Q1230.66 1553.59 1230.66 1558.08 Q1230.66 1560.21 1229.85 1562.13 Q1229.06 1564.03 1226.96 1566.63 Q1226.38 1567.3 1223.28 1570.51 Q1220.17 1573.71 1214.53 1579.47 Z" fill="#000000" fill-rule="nonzero" fill-opacity="1" /><path clip-path="url(#clip160)" d="M1790.56 1564.77 Q1793.92 1565.49 1795.79 1567.76 Q1797.69 1570.03 1797.69 1573.36 Q1797.69 1578.48 1794.17 1581.28 Q1790.66 1584.08 1784.17 1584.08 Q1782 1584.08 1779.68 1583.64 Q1777.39 1583.22 1774.94 1582.37 L1774.94 1577.85 Q1776.88 1578.99 1779.2 1579.57 Q1781.51 1580.14 1784.03 1580.14 Q1788.43 1580.14 1790.72 1578.41 Q1793.04 1576.67 1793.04 1573.36 Q1793.04 1570.31 1790.89 1568.59 Q1788.76 1566.86 1784.94 1566.86 L1780.91 1566.86 L1780.91 1563.01 L1785.12 1563.01 Q1788.57 1563.01 1790.4 1561.65 Q1792.23 1560.26 1792.23 1557.67 Q1792.23 1555.01 1790.33 1553.59 Q1788.46 1552.16 1784.94 1552.16 Q1783.02 1552.16 1780.82 1552.57 Q1778.62 1552.99 1775.98 1553.87 L1775.98 1549.7 Q1778.64 1548.96 1780.96 1548.59 Q1783.29 1548.22 1785.35 1548.22 Q1790.68 1548.22 1793.78 1550.65 Q1796.88 1553.06 1796.88 1557.18 Q1796.88 1560.05 1795.24 1562.04 Q1793.6 1564.01 1790.56 1564.77 Z" fill="#000000" fill-rule="nonzero" fill-opacity="1" /><path clip-path="url(#clip160)" d="M2355.77 1552.92 L2343.96 1571.37 L2355.77 1571.37 L2355.77 1552.92 M2354.54 1548.85 L2360.42 1548.85 L2360.42 1571.37 L2365.35 1571.37 L2365.35 1575.26 L2360.42 1575.26 L2360.42 1583.41 L2355.77 1583.41 L2355.77 1575.26 L2340.16 1575.26 L2340.16 1570.75 L2354.54 1548.85 Z" fill="#000000" fill-rule="nonzero" fill-opacity="1" /><polyline clip-path="url(#clip162)" style="stroke:#000000; stroke-linecap:round; stroke-linejoin:round; stroke-width:2; stroke-opacity:0.1; fill:none" points="86.9921,1521.01 2352.76,1521.01 "/>
<polyline clip-path="url(#clip162)" style="stroke:#000000; stroke-linecap:round; stroke-linejoin:round; stroke-width:2; stroke-opacity:0.1; fill:none" points="86.9921,1226.26 2352.76,1226.26 "/>
<polyline clip-path="url(#clip162)" style="stroke:#000000; stroke-linecap:round; stroke-linejoin:round; stroke-width:2; stroke-opacity:0.1; fill:none" points="86.9921,931.502 2352.76,931.502 "/>
<polyline clip-path="url(#clip162)" style="stroke:#000000; stroke-linecap:round; stroke-linejoin:round; stroke-width:2; stroke-opacity:0.1; fill:none" points="86.9921,636.75 2352.76,636.75 "/>
<polyline clip-path="url(#clip162)" style="stroke:#000000; stroke-linecap:round; stroke-linejoin:round; stroke-width:2; stroke-opacity:0.1; fill:none" points="86.9921,341.997 2352.76,341.997 "/>
<polyline clip-path="url(#clip162)" style="stroke:#000000; stroke-linecap:round; stroke-linejoin:round; stroke-width:2; stroke-opacity:0.1; fill:none" points="86.9921,47.2441 2352.76,47.2441 "/>
<polyline clip-path="url(#clip160)" style="stroke:#000000; stroke-linecap:round; stroke-linejoin:round; stroke-width:4; stroke-opacity:1; fill:none" points="86.9921,1521.01 86.9921,47.2441 "/>
<polyline clip-path="url(#clip160)" style="stroke:#000000; stroke-linecap:round; stroke-linejoin:round; stroke-width:4; stroke-opacity:1; fill:none" points="86.9921,1521.01 105.89,1521.01 "/>
<polyline clip-path="url(#clip160)" style="stroke:#000000; stroke-linecap:round; stroke-linejoin:round; stroke-width:4; stroke-opacity:1; fill:none" points="86.9921,1226.26 105.89,1226.26 "/>
<polyline clip-path="url(#clip160)" style="stroke:#000000; stroke-linecap:round; stroke-linejoin:round; stroke-width:4; stroke-opacity:1; fill:none" points="86.9921,931.502 105.89,931.502 "/>
<polyline clip-path="url(#clip160)" style="stroke:#000000; stroke-linecap:round; stroke-linejoin:round; stroke-width:4; stroke-opacity:1; fill:none" points="86.9921,636.75 105.89,636.75 "/>
<polyline clip-path="url(#clip160)" style="stroke:#000000; stroke-linecap:round; stroke-linejoin:round; stroke-width:4; stroke-opacity:1; fill:none" points="86.9921,341.997 105.89,341.997 "/>
<polyline clip-path="url(#clip160)" style="stroke:#000000; stroke-linecap:round; stroke-linejoin:round; stroke-width:4; stroke-opacity:1; fill:none" points="86.9921,47.2441 105.89,47.2441 "/>
<path clip-path="url(#clip160)" d="M-6.18349 1506.81 Q-9.79459 1506.81 -11.6233 1510.37 Q-13.4288 1513.91 -13.4288 1521.04 Q-13.4288 1528.15 -11.6233 1531.71 Q-9.79459 1535.26 -6.18349 1535.26 Q-2.54925 1535.26 -0.743708 1531.71 Q1.08499 1528.15 1.08499 1521.04 Q1.08499 1513.91 -0.743708 1510.37 Q-2.54925 1506.81 -6.18349 1506.81 M-6.18349 1503.1 Q-0.37334 1503.1 2.6822 1507.71 Q5.76089 1512.29 5.76089 1521.04 Q5.76089 1529.77 2.6822 1534.38 Q-0.37334 1538.96 -6.18349 1538.96 Q-11.9936 1538.96 -15.0723 1534.38 Q-18.1279 1529.77 -18.1279 1521.04 Q-18.1279 1512.29 -15.0723 1507.71 Q-11.9936 1503.1 -6.18349 1503.1 Z" fill="#000000" fill-rule="nonzero" fill-opacity="1" /><path clip-path="url(#clip160)" d="M13.9784 1532.41 L18.8627 1532.41 L18.8627 1538.29 L13.9784 1538.29 L13.9784 1532.41 Z" fill="#000000" fill-rule="nonzero" fill-opacity="1" /><path clip-path="url(#clip160)" d="M39.0477 1506.81 Q35.4367 1506.81 33.608 1510.37 Q31.8024 1513.91 31.8024 1521.04 Q31.8024 1528.15 33.608 1531.71 Q35.4367 1535.26 39.0477 1535.26 Q42.682 1535.26 44.4875 1531.71 Q46.3162 1528.15 46.3162 1521.04 Q46.3162 1513.91 44.4875 1510.37 Q42.682 1506.81 39.0477 1506.81 M39.0477 1503.1 Q44.8579 1503.1 47.9134 1507.71 Q50.9921 1512.29 50.9921 1521.04 Q50.9921 1529.77 47.9134 1534.38 Q44.8579 1538.96 39.0477 1538.96 Q33.2376 1538.96 30.1589 1534.38 Q27.1034 1529.77 27.1034 1521.04 Q27.1034 1512.29 30.1589 1507.71 Q33.2376 1503.1 39.0477 1503.1 Z" fill="#000000" fill-rule="nonzero" fill-opacity="1" /><path clip-path="url(#clip160)" d="M-4.58628 1212.05 Q-8.19737 1212.05 -10.0261 1215.62 Q-11.8316 1219.16 -11.8316 1226.29 Q-11.8316 1233.4 -10.0261 1236.96 Q-8.19737 1240.5 -4.58628 1240.5 Q-0.95204 1240.5 0.853506 1236.96 Q2.6822 1233.4 2.6822 1226.29 Q2.6822 1219.16 0.853506 1215.62 Q-0.95204 1212.05 -4.58628 1212.05 M-4.58628 1208.35 Q1.22387 1208.35 4.27941 1212.96 Q7.3581 1217.54 7.3581 1226.29 Q7.3581 1235.02 4.27941 1239.62 Q1.22387 1244.21 -4.58628 1244.21 Q-10.3964 1244.21 -13.4751 1239.62 Q-16.5307 1235.02 -16.5307 1226.29 Q-16.5307 1217.54 -13.4751 1212.96 Q-10.3964 1208.35 -4.58628 1208.35 Z" fill="#000000" fill-rule="nonzero" fill-opacity="1" /><path clip-path="url(#clip160)" d="M15.5756 1237.66 L20.4599 1237.66 L20.4599 1243.54 L15.5756 1243.54 L15.5756 1237.66 Z" fill="#000000" fill-rule="nonzero" fill-opacity="1" /><path clip-path="url(#clip160)" d="M34.6728 1239.6 L50.9921 1239.6 L50.9921 1243.54 L29.0478 1243.54 L29.0478 1239.6 Q31.7098 1236.85 36.2931 1232.22 Q40.8996 1227.56 42.0801 1226.22 Q44.3255 1223.7 45.2051 1221.96 Q46.1079 1220.2 46.1079 1218.51 Q46.1079 1215.76 44.1635 1214.02 Q42.2422 1212.29 39.1403 1212.29 Q36.9413 1212.29 34.4876 1213.05 Q32.057 1213.81 29.2793 1215.36 L29.2793 1210.64 Q32.1033 1209.51 34.557 1208.93 Q37.0107 1208.35 39.0477 1208.35 Q44.4181 1208.35 47.6125 1211.04 Q50.8069 1213.72 50.8069 1218.21 Q50.8069 1220.34 49.9968 1222.26 Q49.2097 1224.16 47.1033 1226.75 Q46.5246 1227.42 43.4227 1230.64 Q40.3209 1233.84 34.6728 1239.6 Z" fill="#000000" fill-rule="nonzero" fill-opacity="1" /><path clip-path="url(#clip160)" d="M-6.6696 917.301 Q-10.2807 917.301 -12.1094 920.866 Q-13.9149 924.407 -13.9149 931.537 Q-13.9149 938.644 -12.1094 942.208 Q-10.2807 945.75 -6.6696 945.75 Q-3.03536 945.75 -1.22982 942.208 Q0.598877 938.644 0.598877 931.537 Q0.598877 924.407 -1.22982 920.866 Q-3.03536 917.301 -6.6696 917.301 M-6.6696 913.597 Q-0.859448 913.597 2.19609 918.204 Q5.27478 922.787 5.27478 931.537 Q5.27478 940.264 2.19609 944.87 Q-0.859448 949.454 -6.6696 949.454 Q-12.4798 949.454 -15.5584 944.87 Q-18.614 940.264 -18.614 931.537 Q-18.614 922.787 -15.5584 918.204 Q-12.4798 913.597 -6.6696 913.597 Z" fill="#000000" fill-rule="nonzero" fill-opacity="1" /><path clip-path="url(#clip160)" d="M13.4923 942.903 L18.3766 942.903 L18.3766 948.782 L13.4923 948.782 L13.4923 942.903 Z" fill="#000000" fill-rule="nonzero" fill-opacity="1" /><path clip-path="url(#clip160)" d="M41.4088 918.296 L29.6034 936.745 L41.4088 936.745 L41.4088 918.296 M40.182 914.222 L46.0616 914.222 L46.0616 936.745 L50.9921 936.745 L50.9921 940.634 L46.0616 940.634 L46.0616 948.782 L41.4088 948.782 L41.4088 940.634 L25.8071 940.634 L25.8071 936.12 L40.182 914.222 Z" fill="#000000" fill-rule="nonzero" fill-opacity="1" /><path clip-path="url(#clip160)" d="M-6.34553 622.548 Q-9.95662 622.548 -11.7853 626.113 Q-13.5909 629.655 -13.5909 636.784 Q-13.5909 643.891 -11.7853 647.456 Q-9.95662 650.997 -6.34553 650.997 Q-2.71129 650.997 -0.905744 647.456 Q0.92295 643.891 0.92295 636.784 Q0.92295 629.655 -0.905744 626.113 Q-2.71129 622.548 -6.34553 622.548 M-6.34553 618.845 Q-0.535376 618.845 2.52016 623.451 Q5.59885 628.034 5.59885 636.784 Q5.59885 645.511 2.52016 650.118 Q-0.535376 654.701 -6.34553 654.701 Q-12.1557 654.701 -15.2344 650.118 Q-18.2899 645.511 -18.2899 636.784 Q-18.2899 628.034 -15.2344 623.451 Q-12.1557 618.845 -6.34553 618.845 Z" fill="#000000" fill-rule="nonzero" fill-opacity="1" /><path clip-path="url(#clip160)" d="M13.8164 648.15 L18.7006 648.15 L18.7006 654.03 L13.8164 654.03 L13.8164 648.15 Z" fill="#000000" fill-rule="nonzero" fill-opacity="1" /><path clip-path="url(#clip160)" d="M39.4644 634.886 Q36.3163 634.886 34.4644 637.039 Q32.6357 639.192 32.6357 642.942 Q32.6357 646.669 34.4644 648.844 Q36.3163 650.997 39.4644 650.997 Q42.6125 650.997 44.4412 648.844 Q46.2931 646.669 46.2931 642.942 Q46.2931 639.192 44.4412 637.039 Q42.6125 634.886 39.4644 634.886 M48.7468 620.233 L48.7468 624.493 Q46.9875 623.659 45.182 623.22 Q43.3996 622.78 41.6403 622.78 Q37.0107 622.78 34.557 625.905 Q32.1265 629.03 31.7793 635.349 Q33.145 633.335 35.2052 632.27 Q37.2653 631.183 39.7422 631.183 Q44.9505 631.183 47.9597 634.354 Q50.9921 637.502 50.9921 642.942 Q50.9921 648.266 47.844 651.483 Q44.6959 654.701 39.4644 654.701 Q33.4691 654.701 30.2978 650.118 Q27.1265 645.511 27.1265 636.784 Q27.1265 628.59 31.0154 623.729 Q34.9042 618.845 41.4551 618.845 Q43.2144 618.845 44.9968 619.192 Q46.8023 619.539 48.7468 620.233 Z" fill="#000000" fill-rule="nonzero" fill-opacity="1" /><path clip-path="url(#clip160)" d="M-6.0909 327.796 Q-9.70199 327.796 -11.5307 331.36 Q-13.3362 334.902 -13.3362 342.032 Q-13.3362 349.138 -11.5307 352.703 Q-9.70199 356.244 -6.0909 356.244 Q-2.45666 356.244 -0.651116 352.703 Q1.17758 349.138 1.17758 342.032 Q1.17758 334.902 -0.651116 331.36 Q-2.45666 327.796 -6.0909 327.796 M-6.0909 324.092 Q-0.280747 324.092 2.77479 328.698 Q5.85348 333.282 5.85348 342.032 Q5.85348 350.758 2.77479 355.365 Q-0.280747 359.948 -6.0909 359.948 Q-11.9011 359.948 -14.9797 355.365 Q-18.0353 350.758 -18.0353 342.032 Q-18.0353 333.282 -14.9797 328.698 Q-11.9011 324.092 -6.0909 324.092 Z" fill="#000000" fill-rule="nonzero" fill-opacity="1" /><path clip-path="url(#clip160)" d="M14.071 353.397 L18.9553 353.397 L18.9553 359.277 L14.071 359.277 L14.071 353.397 Z" fill="#000000" fill-rule="nonzero" fill-opacity="1" /><path clip-path="url(#clip160)" d="M39.1403 342.865 Q35.807 342.865 33.8857 344.647 Q31.9876 346.43 31.9876 349.555 Q31.9876 352.68 33.8857 354.462 Q35.807 356.244 39.1403 356.244 Q42.4737 356.244 44.3949 354.462 Q46.3162 352.657 46.3162 349.555 Q46.3162 346.43 44.3949 344.647 Q42.4968 342.865 39.1403 342.865 M34.4644 340.874 Q31.4552 340.133 29.7654 338.073 Q28.0987 336.013 28.0987 333.05 Q28.0987 328.907 31.0385 326.499 Q34.0015 324.092 39.1403 324.092 Q44.3023 324.092 47.2421 326.499 Q50.1819 328.907 50.1819 333.05 Q50.1819 336.013 48.4921 338.073 Q46.8255 340.133 43.8394 340.874 Q47.219 341.661 49.094 343.953 Q50.9921 346.245 50.9921 349.555 Q50.9921 354.578 47.9134 357.263 Q44.8579 359.948 39.1403 359.948 Q33.4228 359.948 30.3441 357.263 Q27.2885 354.578 27.2885 349.555 Q27.2885 346.245 29.1867 343.953 Q31.0848 341.661 34.4644 340.874 M32.7515 333.49 Q32.7515 336.175 34.4181 337.68 Q36.1079 339.184 39.1403 339.184 Q42.1496 339.184 43.8394 337.68 Q45.5523 336.175 45.5523 333.49 Q45.5523 330.805 43.8394 329.3 Q42.1496 327.796 39.1403 327.796 Q36.1079 327.796 34.4181 329.3 Q32.7515 330.805 32.7515 333.49 Z" fill="#000000" fill-rule="nonzero" fill-opacity="1" /><path clip-path="url(#clip160)" d="M-15.3733 60.5889 L-7.73441 60.5889 L-7.73441 34.2233 L-16.0446 35.89 L-16.0446 31.6308 L-7.78071 29.9641 L-3.10481 29.9641 L-3.10481 60.5889 L4.53404 60.5889 L4.53404 64.5241 L-15.3733 64.5241 L-15.3733 60.5889 Z" fill="#000000" fill-rule="nonzero" fill-opacity="1" /><path clip-path="url(#clip160)" d="M13.9784 58.6445 L18.8627 58.6445 L18.8627 64.5241 L13.9784 64.5241 L13.9784 58.6445 Z" fill="#000000" fill-rule="nonzero" fill-opacity="1" /><path clip-path="url(#clip160)" d="M39.0477 33.0428 Q35.4367 33.0428 33.608 36.6076 Q31.8024 40.1492 31.8024 47.2788 Q31.8024 54.3853 33.608 57.9501 Q35.4367 61.4917 39.0477 61.4917 Q42.682 61.4917 44.4875 57.9501 Q46.3162 54.3853 46.3162 47.2788 Q46.3162 40.1492 44.4875 36.6076 Q42.682 33.0428 39.0477 33.0428 M39.0477 29.3391 Q44.8579 29.3391 47.9134 33.9456 Q50.9921 38.5289 50.9921 47.2788 Q50.9921 56.0056 47.9134 60.6121 Q44.8579 65.1954 39.0477 65.1954 Q33.2376 65.1954 30.1589 60.6121 Q27.1034 56.0056 27.1034 47.2788 Q27.1034 38.5289 30.1589 33.9456 Q33.2376 29.3391 39.0477 29.3391 Z" fill="#000000" fill-rule="nonzero" fill-opacity="1" /><polyline clip-path="url(#clip162)" style="stroke:#009af9; stroke-linecap:round; stroke-linejoin:round; stroke-width:4; stroke-opacity:1; fill:none" points="653.433,784.126 660.809,784.126 729.008,784.126 769.992,784.126 804.644,784.126 842.286,784.126 876.988,784.126 914.193,784.126 957.298,784.126 995.605,784.126 1029.2,784.126 1065.82,784.126 1102.66,784.126 1143.4,784.126 1182.15,784.126 1222.45,784.126 1256.37,784.126 1297.79,784.126 1335.73,784.126 1370.76,784.126 1406.26,784.126 1446.04,784.126 1482.08,784.126 1523.35,784.126 1561.57,784.126 1599.24,784.126 1635.82,784.126 1673.31,784.126 1714.39,784.126 1774.07,784.126 1786.31,784.126 "/>
<path clip-path="url(#clip160)" d="M1965.7 200.05 L2277.23 200.05 L2277.23 96.3696 L1965.7 96.3696  Z" fill="#ffffff" fill-rule="evenodd" fill-opacity="1"/>
<polyline clip-path="url(#clip160)" style="stroke:#000000; stroke-linecap:round; stroke-linejoin:round; stroke-width:4; stroke-opacity:1; fill:none" points="1965.7,200.05 2277.23,200.05 2277.23,96.3696 1965.7,96.3696 1965.7,200.05 "/>
<polyline clip-path="url(#clip160)" style="stroke:#009af9; stroke-linecap:round; stroke-linejoin:round; stroke-width:4; stroke-opacity:1; fill:none" points="1990.88,148.21 2141.93,148.21 "/>
<path clip-path="url(#clip160)" d="M2171.78 134.772 L2171.78 147.758 L2177.66 147.758 Q2180.92 147.758 2182.7 146.068 Q2184.49 144.379 2184.49 141.254 Q2184.49 138.152 2182.7 136.462 Q2180.92 134.772 2177.66 134.772 L2171.78 134.772 M2167.1 130.93 L2177.66 130.93 Q2183.47 130.93 2186.43 133.568 Q2189.42 136.184 2189.42 141.254 Q2189.42 146.369 2186.43 148.985 Q2183.47 151.601 2177.66 151.601 L2171.78 151.601 L2171.78 165.49 L2167.1 165.49 L2167.1 130.93 Z" fill="#000000" fill-rule="nonzero" fill-opacity="1" /><path clip-path="url(#clip160)" d="M2200.37 134.772 L2200.37 161.647 L2206.01 161.647 Q2213.17 161.647 2216.48 158.406 Q2219.81 155.166 2219.81 148.175 Q2219.81 141.23 2216.48 138.013 Q2213.17 134.772 2206.01 134.772 L2200.37 134.772 M2195.69 130.93 L2205.3 130.93 Q2215.34 130.93 2220.04 135.119 Q2224.74 139.286 2224.74 148.175 Q2224.74 157.11 2220.02 161.3 Q2215.3 165.49 2205.3 165.49 L2195.69 165.49 L2195.69 130.93 Z" fill="#000000" fill-rule="nonzero" fill-opacity="1" /><path clip-path="url(#clip160)" d="M2232.19 130.93 L2252.06 130.93 L2252.06 134.865 L2236.87 134.865 L2236.87 145.05 L2250.57 145.05 L2250.57 148.985 L2236.87 148.985 L2236.87 165.49 L2232.19 165.49 L2232.19 130.93 Z" fill="#000000" fill-rule="nonzero" fill-opacity="1" /></svg>
