<?xml version="1.0" encoding="utf-8"?>
<svg xmlns="http://www.w3.org/2000/svg" xmlns:xlink="http://www.w3.org/1999/xlink" width="600" height="400" viewBox="0 0 2400 1600">
<defs>
  <clipPath id="clip630">
    <rect x="0" y="0" width="2400" height="1600"/>
  </clipPath>
</defs>
<path clip-path="url(#clip630)" d="M0 1600 L2400 1600 L2400 0 L0 0  Z" fill="#ffffff" fill-rule="evenodd" fill-opacity="1"/>
<defs>
  <clipPath id="clip631">
    <rect x="480" y="0" width="1681" height="1600"/>
  </clipPath>
</defs>
<path clip-path="url(#clip630)" d="M86.9921 1521.01 L2352.76 1521.01 L2352.76 47.2441 L86.9921 47.2441  Z" fill="#ffffff" fill-rule="evenodd" fill-opacity="1"/>
<defs>
  <clipPath id="clip632">
    <rect x="86" y="47" width="2267" height="1475"/>
  </clipPath>
</defs>
<polyline clip-path="url(#clip632)" style="stroke:#000000; stroke-linecap:round; stroke-linejoin:round; stroke-width:2; stroke-opacity:0.1; fill:none" points="151.118,1521.01 151.118,47.2441 "/>
<polyline clip-path="url(#clip632)" style="stroke:#000000; stroke-linecap:round; stroke-linejoin:round; stroke-width:2; stroke-opacity:0.1; fill:none" points="685.496,1521.01 685.496,47.2441 "/>
<polyline clip-path="url(#clip632)" style="stroke:#000000; stroke-linecap:round; stroke-linejoin:round; stroke-width:2; stroke-opacity:0.1; fill:none" points="1219.87,1521.01 1219.87,47.2441 "/>
<polyline clip-path="url(#clip632)" style="stroke:#000000; stroke-linecap:round; stroke-linejoin:round; stroke-width:2; stroke-opacity:0.1; fill:none" points="1754.25,1521.01 1754.25,47.2441 "/>
<polyline clip-path="url(#clip632)" style="stroke:#000000; stroke-linecap:round; stroke-linejoin:round; stroke-width:2; stroke-opacity:0.1; fill:none" points="2288.63,1521.01 2288.63,47.2441 "/>
<polyline clip-path="url(#clip630)" style="stroke:#000000; stroke-linecap:round; stroke-linejoin:round; stroke-width:4; stroke-opacity:1; fill:none" points="86.9921,1521.01 2352.76,1521.01 "/>
<polyline clip-path="url(#clip630)" style="stroke:#000000; stroke-linecap:round; stroke-linejoin:round; stroke-width:4; stroke-opacity:1; fill:none" points="151.118,1521.01 151.118,1502.11 "/>
<polyline clip-path="url(#clip630)" style="stroke:#000000; stroke-linecap:round; stroke-linejoin:round; stroke-width:4; stroke-opacity:1; fill:none" points="685.496,1521.01 685.496,1502.11 "/>
<polyline clip-path="url(#clip630)" style="stroke:#000000; stroke-linecap:round; stroke-linejoin:round; stroke-width:4; stroke-opacity:1; fill:none" points="1219.87,1521.01 1219.87,1502.11 "/>
<polyline clip-path="url(#clip630)" style="stroke:#000000; stroke-linecap:round; stroke-linejoin:round; stroke-width:4; stroke-opacity:1; fill:none" points="1754.25,1521.01 1754.25,1502.11 "/>
<polyline clip-path="url(#clip630)" style="stroke:#000000; stroke-linecap:round; stroke-linejoin:round; stroke-width:4; stroke-opacity:1; fill:none" points="2288.63,1521.01 2288.63,1502.11 "/>
<path clip-path="url(#clip630)" d="M118.27 1579.47 L125.909 1579.47 L125.909 1553.11 L117.599 1554.77 L117.599 1550.51 L125.863 1548.85 L130.539 1548.85 L130.539 1579.47 L138.178 1579.47 L138.178 1583.41 L118.27 1583.41 L118.27 1579.47 Z" fill="#000000" fill-rule="nonzero" fill-opacity="1" /><path clip-path="url(#clip630)" d="M147.622 1577.53 L152.506 1577.53 L152.506 1583.41 L147.622 1583.41 L147.622 1577.53 Z" fill="#000000" fill-rule="nonzero" fill-opacity="1" /><path clip-path="url(#clip630)" d="M172.691 1551.93 Q169.08 1551.93 167.252 1555.49 Q165.446 1559.03 165.446 1566.16 Q165.446 1573.27 167.252 1576.83 Q169.08 1580.38 172.691 1580.38 Q176.326 1580.38 178.131 1576.83 Q179.96 1573.27 179.96 1566.16 Q179.96 1559.03 178.131 1555.49 Q176.326 1551.93 172.691 1551.93 M172.691 1548.22 Q178.502 1548.22 181.557 1552.83 Q184.636 1557.41 184.636 1566.16 Q184.636 1574.89 181.557 1579.5 Q178.502 1584.08 172.691 1584.08 Q166.881 1584.08 163.803 1579.5 Q160.747 1574.89 160.747 1566.16 Q160.747 1557.41 163.803 1552.83 Q166.881 1548.22 172.691 1548.22 Z" fill="#000000" fill-rule="nonzero" fill-opacity="1" /><path clip-path="url(#clip630)" d="M653.146 1579.47 L660.785 1579.47 L660.785 1553.11 L652.475 1554.77 L652.475 1550.51 L660.739 1548.85 L665.415 1548.85 L665.415 1579.47 L673.054 1579.47 L673.054 1583.41 L653.146 1583.41 L653.146 1579.47 Z" fill="#000000" fill-rule="nonzero" fill-opacity="1" /><path clip-path="url(#clip630)" d="M682.498 1577.53 L687.382 1577.53 L687.382 1583.41 L682.498 1583.41 L682.498 1577.53 Z" fill="#000000" fill-rule="nonzero" fill-opacity="1" /><path clip-path="url(#clip630)" d="M697.614 1548.85 L715.97 1548.85 L715.97 1552.78 L701.896 1552.78 L701.896 1561.26 Q702.915 1560.91 703.933 1560.75 Q704.952 1560.56 705.97 1560.56 Q711.757 1560.56 715.137 1563.73 Q718.516 1566.9 718.516 1572.32 Q718.516 1577.9 715.044 1581 Q711.572 1584.08 705.253 1584.08 Q703.077 1584.08 700.808 1583.71 Q698.563 1583.34 696.155 1582.6 L696.155 1577.9 Q698.239 1579.03 700.461 1579.59 Q702.683 1580.14 705.16 1580.14 Q709.165 1580.14 711.503 1578.04 Q713.841 1575.93 713.841 1572.32 Q713.841 1568.71 711.503 1566.6 Q709.165 1564.5 705.16 1564.5 Q703.285 1564.5 701.41 1564.91 Q699.558 1565.33 697.614 1566.21 L697.614 1548.85 Z" fill="#000000" fill-rule="nonzero" fill-opacity="1" /><path clip-path="url(#clip630)" d="M1191.11 1579.47 L1207.43 1579.47 L1207.43 1583.41 L1185.49 1583.41 L1185.49 1579.47 Q1188.15 1576.72 1192.73 1572.09 Q1197.34 1567.44 1198.52 1566.09 Q1200.77 1563.57 1201.64 1561.83 Q1202.55 1560.07 1202.55 1558.38 Q1202.55 1555.63 1200.6 1553.89 Q1198.68 1552.16 1195.58 1552.16 Q1193.38 1552.16 1190.93 1552.92 Q1188.5 1553.69 1185.72 1555.24 L1185.72 1550.51 Q1188.54 1549.38 1191 1548.8 Q1193.45 1548.22 1195.49 1548.22 Q1200.86 1548.22 1204.05 1550.91 Q1207.25 1553.59 1207.25 1558.08 Q1207.25 1560.21 1206.44 1562.13 Q1205.65 1564.03 1203.54 1566.63 Q1202.96 1567.3 1199.86 1570.51 Q1196.76 1573.71 1191.11 1579.47 Z" fill="#000000" fill-rule="nonzero" fill-opacity="1" /><path clip-path="url(#clip630)" d="M1217.25 1577.53 L1222.13 1577.53 L1222.13 1583.41 L1217.25 1583.41 L1217.25 1577.53 Z" fill="#000000" fill-rule="nonzero" fill-opacity="1" /><path clip-path="url(#clip630)" d="M1242.32 1551.93 Q1238.7 1551.93 1236.88 1555.49 Q1235.07 1559.03 1235.07 1566.16 Q1235.07 1573.27 1236.88 1576.83 Q1238.7 1580.38 1242.32 1580.38 Q1245.95 1580.38 1247.76 1576.83 Q1249.58 1573.27 1249.58 1566.16 Q1249.58 1559.03 1247.76 1555.49 Q1245.95 1551.93 1242.32 1551.93 M1242.32 1548.22 Q1248.13 1548.22 1251.18 1552.83 Q1254.26 1557.41 1254.26 1566.16 Q1254.26 1574.89 1251.18 1579.5 Q1248.13 1584.08 1242.32 1584.08 Q1236.51 1584.08 1233.43 1579.5 Q1230.37 1574.89 1230.37 1566.16 Q1230.37 1557.41 1233.43 1552.83 Q1236.51 1548.22 1242.32 1548.22 Z" fill="#000000" fill-rule="nonzero" fill-opacity="1" /><path clip-path="url(#clip630)" d="M1725.99 1579.47 L1742.31 1579.47 L1742.31 1583.41 L1720.36 1583.41 L1720.36 1579.47 Q1723.03 1576.72 1727.61 1572.09 Q1732.22 1567.44 1733.4 1566.09 Q1735.64 1563.57 1736.52 1561.83 Q1737.42 1560.07 1737.42 1558.38 Q1737.42 1555.63 1735.48 1553.89 Q1733.56 1552.16 1730.46 1552.16 Q1728.26 1552.16 1725.8 1552.92 Q1723.37 1553.69 1720.6 1555.24 L1720.6 1550.51 Q1723.42 1549.38 1725.87 1548.8 Q1728.33 1548.22 1730.36 1548.22 Q1735.73 1548.22 1738.93 1550.91 Q1742.12 1553.59 1742.12 1558.08 Q1742.12 1560.21 1741.31 1562.13 Q1740.53 1564.03 1738.42 1566.63 Q1737.84 1567.3 1734.74 1570.51 Q1731.64 1573.71 1725.99 1579.47 Z" fill="#000000" fill-rule="nonzero" fill-opacity="1" /><path clip-path="url(#clip630)" d="M1752.12 1577.53 L1757.01 1577.53 L1757.01 1583.41 L1752.12 1583.41 L1752.12 1577.53 Z" fill="#000000" fill-rule="nonzero" fill-opacity="1" /><path clip-path="url(#clip630)" d="M1767.24 1548.85 L1785.59 1548.85 L1785.59 1552.78 L1771.52 1552.78 L1771.52 1561.26 Q1772.54 1560.91 1773.56 1560.75 Q1774.58 1560.56 1775.59 1560.56 Q1781.38 1560.56 1784.76 1563.73 Q1788.14 1566.9 1788.14 1572.32 Q1788.14 1577.9 1784.67 1581 Q1781.2 1584.08 1774.88 1584.08 Q1772.7 1584.08 1770.43 1583.71 Q1768.19 1583.34 1765.78 1582.6 L1765.78 1577.9 Q1767.86 1579.03 1770.09 1579.59 Q1772.31 1580.14 1774.78 1580.14 Q1778.79 1580.14 1781.13 1578.04 Q1783.47 1575.93 1783.47 1572.32 Q1783.47 1568.71 1781.13 1566.6 Q1778.79 1564.5 1774.78 1564.5 Q1772.91 1564.5 1771.03 1564.91 Q1769.18 1565.33 1767.24 1566.21 L1767.24 1548.85 Z" fill="#000000" fill-rule="nonzero" fill-opacity="1" /><path clip-path="url(#clip630)" d="M2269.94 1564.77 Q2273.29 1565.49 2275.17 1567.76 Q2277.07 1570.03 2277.07 1573.36 Q2277.07 1578.48 2273.55 1581.28 Q2270.03 1584.08 2263.55 1584.08 Q2261.37 1584.08 2259.06 1583.64 Q2256.77 1583.22 2254.31 1582.37 L2254.31 1577.85 Q2256.26 1578.99 2258.57 1579.57 Q2260.89 1580.14 2263.41 1580.14 Q2267.81 1580.14 2270.1 1578.41 Q2272.42 1576.67 2272.42 1573.36 Q2272.42 1570.31 2270.26 1568.59 Q2268.13 1566.86 2264.31 1566.86 L2260.29 1566.86 L2260.29 1563.01 L2264.5 1563.01 Q2267.95 1563.01 2269.78 1561.65 Q2271.61 1560.26 2271.61 1557.67 Q2271.61 1555.01 2269.71 1553.59 Q2267.83 1552.16 2264.31 1552.16 Q2262.39 1552.16 2260.19 1552.57 Q2257.99 1552.99 2255.36 1553.87 L2255.36 1549.7 Q2258.02 1548.96 2260.33 1548.59 Q2262.67 1548.22 2264.73 1548.22 Q2270.05 1548.22 2273.16 1550.65 Q2276.26 1553.06 2276.26 1557.18 Q2276.26 1560.05 2274.61 1562.04 Q2272.97 1564.01 2269.94 1564.77 Z" fill="#000000" fill-rule="nonzero" fill-opacity="1" /><path clip-path="url(#clip630)" d="M2285.93 1577.53 L2290.82 1577.53 L2290.82 1583.41 L2285.93 1583.41 L2285.93 1577.53 Z" fill="#000000" fill-rule="nonzero" fill-opacity="1" /><path clip-path="url(#clip630)" d="M2311 1551.93 Q2307.39 1551.93 2305.56 1555.49 Q2303.76 1559.03 2303.76 1566.16 Q2303.76 1573.27 2305.56 1576.83 Q2307.39 1580.38 2311 1580.38 Q2314.64 1580.38 2316.44 1576.83 Q2318.27 1573.27 2318.27 1566.16 Q2318.27 1559.03 2316.44 1555.49 Q2314.64 1551.93 2311 1551.93 M2311 1548.22 Q2316.81 1548.22 2319.87 1552.83 Q2322.95 1557.41 2322.95 1566.16 Q2322.95 1574.89 2319.87 1579.5 Q2316.81 1584.08 2311 1584.08 Q2305.19 1584.08 2302.11 1579.5 Q2299.06 1574.89 2299.06 1566.16 Q2299.06 1557.41 2302.11 1552.83 Q2305.19 1548.22 2311 1548.22 Z" fill="#000000" fill-rule="nonzero" fill-opacity="1" /><polyline clip-path="url(#clip632)" style="stroke:#000000; stroke-linecap:round; stroke-linejoin:round; stroke-width:2; stroke-opacity:0.1; fill:none" points="86.9921,1340.26 2352.76,1340.26 "/>
<polyline clip-path="url(#clip632)" style="stroke:#000000; stroke-linecap:round; stroke-linejoin:round; stroke-width:2; stroke-opacity:0.1; fill:none" points="86.9921,1062.19 2352.76,1062.19 "/>
<polyline clip-path="url(#clip632)" style="stroke:#000000; stroke-linecap:round; stroke-linejoin:round; stroke-width:2; stroke-opacity:0.1; fill:none" points="86.9921,784.126 2352.76,784.126 "/>
<polyline clip-path="url(#clip632)" style="stroke:#000000; stroke-linecap:round; stroke-linejoin:round; stroke-width:2; stroke-opacity:0.1; fill:none" points="86.9921,506.057 2352.76,506.057 "/>
<polyline clip-path="url(#clip632)" style="stroke:#000000; stroke-linecap:round; stroke-linejoin:round; stroke-width:2; stroke-opacity:0.1; fill:none" points="86.9921,227.989 2352.76,227.989 "/>
<polyline clip-path="url(#clip630)" style="stroke:#000000; stroke-linecap:round; stroke-linejoin:round; stroke-width:4; stroke-opacity:1; fill:none" points="86.9921,1521.01 86.9921,47.2441 "/>
<polyline clip-path="url(#clip630)" style="stroke:#000000; stroke-linecap:round; stroke-linejoin:round; stroke-width:4; stroke-opacity:1; fill:none" points="86.9921,1340.26 105.89,1340.26 "/>
<polyline clip-path="url(#clip630)" style="stroke:#000000; stroke-linecap:round; stroke-linejoin:round; stroke-width:4; stroke-opacity:1; fill:none" points="86.9921,1062.19 105.89,1062.19 "/>
<polyline clip-path="url(#clip630)" style="stroke:#000000; stroke-linecap:round; stroke-linejoin:round; stroke-width:4; stroke-opacity:1; fill:none" points="86.9921,784.126 105.89,784.126 "/>
<polyline clip-path="url(#clip630)" style="stroke:#000000; stroke-linecap:round; stroke-linejoin:round; stroke-width:4; stroke-opacity:1; fill:none" points="86.9921,506.057 105.89,506.057 "/>
<polyline clip-path="url(#clip630)" style="stroke:#000000; stroke-linecap:round; stroke-linejoin:round; stroke-width:4; stroke-opacity:1; fill:none" points="86.9921,227.989 105.89,227.989 "/>
<path clip-path="url(#clip630)" d="M-6.34553 1326.06 Q-9.95662 1326.06 -11.7853 1329.63 Q-13.5909 1333.17 -13.5909 1340.3 Q-13.5909 1347.4 -11.7853 1350.97 Q-9.95662 1354.51 -6.34553 1354.51 Q-2.71129 1354.51 -0.905744 1350.97 Q0.92295 1347.4 0.92295 1340.3 Q0.92295 1333.17 -0.905744 1329.63 Q-2.71129 1326.06 -6.34553 1326.06 M-6.34553 1322.36 Q-0.535376 1322.36 2.52016 1326.96 Q5.59885 1331.55 5.59885 1340.3 Q5.59885 1349.02 2.52016 1353.63 Q-0.535376 1358.21 -6.34553 1358.21 Q-12.1557 1358.21 -15.2344 1353.63 Q-18.2899 1349.02 -18.2899 1340.3 Q-18.2899 1331.55 -15.2344 1326.96 Q-12.1557 1322.36 -6.34553 1322.36 Z" fill="#000000" fill-rule="nonzero" fill-opacity="1" /><path clip-path="url(#clip630)" d="M13.8164 1351.66 L18.7006 1351.66 L18.7006 1357.54 L13.8164 1357.54 L13.8164 1351.66 Z" fill="#000000" fill-rule="nonzero" fill-opacity="1" /><path clip-path="url(#clip630)" d="M39.4644 1338.4 Q36.3163 1338.4 34.4644 1340.55 Q32.6357 1342.71 32.6357 1346.46 Q32.6357 1350.18 34.4644 1352.36 Q36.3163 1354.51 39.4644 1354.51 Q42.6125 1354.51 44.4412 1352.36 Q46.2931 1350.18 46.2931 1346.46 Q46.2931 1342.71 44.4412 1340.55 Q42.6125 1338.4 39.4644 1338.4 M48.7468 1323.75 L48.7468 1328.01 Q46.9875 1327.17 45.182 1326.73 Q43.3996 1326.29 41.6403 1326.29 Q37.0107 1326.29 34.557 1329.42 Q32.1265 1332.54 31.7793 1338.86 Q33.145 1336.85 35.2052 1335.78 Q37.2653 1334.7 39.7422 1334.7 Q44.9505 1334.7 47.9597 1337.87 Q50.9921 1341.02 50.9921 1346.46 Q50.9921 1351.78 47.844 1355 Q44.6959 1358.21 39.4644 1358.21 Q33.4691 1358.21 30.2978 1353.63 Q27.1265 1349.02 27.1265 1340.3 Q27.1265 1332.1 31.0154 1327.24 Q34.9042 1322.36 41.4551 1322.36 Q43.2144 1322.36 44.9968 1322.71 Q46.8023 1323.05 48.7468 1323.75 Z" fill="#000000" fill-rule="nonzero" fill-opacity="1" /><path clip-path="url(#clip630)" d="M-6.0909 1047.99 Q-9.70199 1047.99 -11.5307 1051.56 Q-13.3362 1055.1 -13.3362 1062.23 Q-13.3362 1069.34 -11.5307 1072.9 Q-9.70199 1076.44 -6.0909 1076.44 Q-2.45666 1076.44 -0.651116 1072.9 Q1.17758 1069.34 1.17758 1062.23 Q1.17758 1055.1 -0.651116 1051.56 Q-2.45666 1047.99 -6.0909 1047.99 M-6.0909 1044.29 Q-0.280747 1044.29 2.77479 1048.9 Q5.85348 1053.48 5.85348 1062.23 Q5.85348 1070.96 2.77479 1075.56 Q-0.280747 1080.15 -6.0909 1080.15 Q-11.9011 1080.15 -14.9797 1075.56 Q-18.0353 1070.96 -18.0353 1062.23 Q-18.0353 1053.48 -14.9797 1048.9 Q-11.9011 1044.29 -6.0909 1044.29 Z" fill="#000000" fill-rule="nonzero" fill-opacity="1" /><path clip-path="url(#clip630)" d="M14.071 1073.6 L18.9553 1073.6 L18.9553 1079.47 L14.071 1079.47 L14.071 1073.6 Z" fill="#000000" fill-rule="nonzero" fill-opacity="1" /><path clip-path="url(#clip630)" d="M39.1403 1063.06 Q35.807 1063.06 33.8857 1064.85 Q31.9876 1066.63 31.9876 1069.75 Q31.9876 1072.88 33.8857 1074.66 Q35.807 1076.44 39.1403 1076.44 Q42.4737 1076.44 44.3949 1074.66 Q46.3162 1072.85 46.3162 1069.75 Q46.3162 1066.63 44.3949 1064.85 Q42.4968 1063.06 39.1403 1063.06 M34.4644 1061.07 Q31.4552 1060.33 29.7654 1058.27 Q28.0987 1056.21 28.0987 1053.25 Q28.0987 1049.1 31.0385 1046.7 Q34.0015 1044.29 39.1403 1044.29 Q44.3023 1044.29 47.2421 1046.7 Q50.1819 1049.1 50.1819 1053.25 Q50.1819 1056.21 48.4921 1058.27 Q46.8255 1060.33 43.8394 1061.07 Q47.219 1061.86 49.094 1064.15 Q50.9921 1066.44 50.9921 1069.75 Q50.9921 1074.78 47.9134 1077.46 Q44.8579 1080.15 39.1403 1080.15 Q33.4228 1080.15 30.3441 1077.46 Q27.2885 1074.78 27.2885 1069.75 Q27.2885 1066.44 29.1867 1064.15 Q31.0848 1061.86 34.4644 1061.07 M32.7515 1053.69 Q32.7515 1056.37 34.4181 1057.88 Q36.1079 1059.38 39.1403 1059.38 Q42.1496 1059.38 43.8394 1057.88 Q45.5523 1056.37 45.5523 1053.69 Q45.5523 1051 43.8394 1049.5 Q42.1496 1047.99 39.1403 1047.99 Q36.1079 1047.99 34.4181 1049.5 Q32.7515 1051 32.7515 1053.69 Z" fill="#000000" fill-rule="nonzero" fill-opacity="1" /><path clip-path="url(#clip630)" d="M-15.3733 797.471 L-7.73441 797.471 L-7.73441 771.105 L-16.0446 772.772 L-16.0446 768.513 L-7.78071 766.846 L-3.10481 766.846 L-3.10481 797.471 L4.53404 797.471 L4.53404 801.406 L-15.3733 801.406 L-15.3733 797.471 Z" fill="#000000" fill-rule="nonzero" fill-opacity="1" /><path clip-path="url(#clip630)" d="M13.9784 795.526 L18.8627 795.526 L18.8627 801.406 L13.9784 801.406 L13.9784 795.526 Z" fill="#000000" fill-rule="nonzero" fill-opacity="1" /><path clip-path="url(#clip630)" d="M39.0477 769.925 Q35.4367 769.925 33.608 773.489 Q31.8024 777.031 31.8024 784.161 Q31.8024 791.267 33.608 794.832 Q35.4367 798.374 39.0477 798.374 Q42.682 798.374 44.4875 794.832 Q46.3162 791.267 46.3162 784.161 Q46.3162 777.031 44.4875 773.489 Q42.682 769.925 39.0477 769.925 M39.0477 766.221 Q44.8579 766.221 47.9134 770.827 Q50.9921 775.411 50.9921 784.161 Q50.9921 792.888 47.9134 797.494 Q44.8579 802.077 39.0477 802.077 Q33.2376 802.077 30.1589 797.494 Q27.1034 792.888 27.1034 784.161 Q27.1034 775.411 30.1589 770.827 Q33.2376 766.221 39.0477 766.221 Z" fill="#000000" fill-rule="nonzero" fill-opacity="1" /><path clip-path="url(#clip630)" d="M-13.776 519.402 L-6.1372 519.402 L-6.1372 493.037 L-14.4473 494.703 L-14.4473 490.444 L-6.18349 488.777 L-1.50759 488.777 L-1.50759 519.402 L6.13126 519.402 L6.13126 523.337 L-13.776 523.337 L-13.776 519.402 Z" fill="#000000" fill-rule="nonzero" fill-opacity="1" /><path clip-path="url(#clip630)" d="M15.5756 517.458 L20.4599 517.458 L20.4599 523.337 L15.5756 523.337 L15.5756 517.458 Z" fill="#000000" fill-rule="nonzero" fill-opacity="1" /><path clip-path="url(#clip630)" d="M34.6728 519.402 L50.9921 519.402 L50.9921 523.337 L29.0478 523.337 L29.0478 519.402 Q31.7098 516.648 36.2931 512.018 Q40.8996 507.365 42.0801 506.023 Q44.3255 503.499 45.2051 501.763 Q46.1079 500.004 46.1079 498.314 Q46.1079 495.56 44.1635 493.824 Q42.2422 492.088 39.1403 492.088 Q36.9413 492.088 34.4876 492.851 Q32.057 493.615 29.2793 495.166 L29.2793 490.444 Q32.1033 489.31 34.557 488.731 Q37.0107 488.152 39.0477 488.152 Q44.4181 488.152 47.6125 490.838 Q50.8069 493.523 50.8069 498.013 Q50.8069 500.143 49.9968 502.064 Q49.2097 503.962 47.1033 506.555 Q46.5246 507.226 43.4227 510.444 Q40.3209 513.638 34.6728 519.402 Z" fill="#000000" fill-rule="nonzero" fill-opacity="1" /><path clip-path="url(#clip630)" d="M-15.8594 241.334 L-8.22052 241.334 L-8.22052 214.968 L-16.5307 216.635 L-16.5307 212.375 L-8.26682 210.709 L-3.59091 210.709 L-3.59091 241.334 L4.04793 241.334 L4.04793 245.269 L-15.8594 245.269 L-15.8594 241.334 Z" fill="#000000" fill-rule="nonzero" fill-opacity="1" /><path clip-path="url(#clip630)" d="M13.4923 239.389 L18.3766 239.389 L18.3766 245.269 L13.4923 245.269 L13.4923 239.389 Z" fill="#000000" fill-rule="nonzero" fill-opacity="1" /><path clip-path="url(#clip630)" d="M41.4088 214.783 L29.6034 233.232 L41.4088 233.232 L41.4088 214.783 M40.182 210.709 L46.0616 210.709 L46.0616 233.232 L50.9921 233.232 L50.9921 237.121 L46.0616 237.121 L46.0616 245.269 L41.4088 245.269 L41.4088 237.121 L25.8071 237.121 L25.8071 232.607 L40.182 210.709 Z" fill="#000000" fill-rule="nonzero" fill-opacity="1" /><polyline clip-path="url(#clip632)" style="stroke:#009af9; stroke-linecap:round; stroke-linejoin:round; stroke-width:4; stroke-opacity:1; fill:none" points="151.118,1479.3 165.034,1479.3 293.711,1479.3 371.04,1479.3 436.422,1479.3 507.444,1479.3 572.92,1479.3 643.117,1479.3 724.448,1479.3 796.725,1479.3 860.105,1479.3 929.207,1479.3 998.719,1479.3 1075.57,1479.3 1148.7,1479.3 1224.73,1479.3 1288.74,1479.3 1366.88,1479.3 1438.46,1479.3 1504.57,1479.3 1571.54,1479.3 1646.6,1479.3 1714.61,1479.3 1792.48,1479.3 1864.58,1479.3 1935.66,1479.3 2004.67,1479.3 2075.42,1479.3 2152.93,1479.3 2265.53,1479.3 2288.63,1479.3 "/>
<path clip-path="url(#clip630)" d="M1965.7 200.05 L2277.23 200.05 L2277.23 96.3696 L1965.7 96.3696  Z" fill="#ffffff" fill-rule="evenodd" fill-opacity="1"/>
<polyline clip-path="url(#clip630)" style="stroke:#000000; stroke-linecap:round; stroke-linejoin:round; stroke-width:4; stroke-opacity:1; fill:none" points="1965.7,200.05 2277.23,200.05 2277.23,96.3696 1965.7,96.3696 1965.7,200.05 "/>
<polyline clip-path="url(#clip630)" style="stroke:#009af9; stroke-linecap:round; stroke-linejoin:round; stroke-width:4; stroke-opacity:1; fill:none" points="1990.88,148.21 2141.93,148.21 "/>
<path clip-path="url(#clip630)" d="M2171.78 134.772 L2171.78 147.758 L2177.66 147.758 Q2180.92 147.758 2182.7 146.068 Q2184.49 144.379 2184.49 141.254 Q2184.49 138.152 2182.7 136.462 Q2180.92 134.772 2177.66 134.772 L2171.78 134.772 M2167.1 130.93 L2177.66 130.93 Q2183.47 130.93 2186.43 133.568 Q2189.42 136.184 2189.42 141.254 Q2189.42 146.369 2186.43 148.985 Q2183.47 151.601 2177.66 151.601 L2171.78 151.601 L2171.78 165.49 L2167.1 165.49 L2167.1 130.93 Z" fill="#000000" fill-rule="nonzero" fill-opacity="1" /><path clip-path="url(#clip630)" d="M2200.37 134.772 L2200.37 161.647 L2206.01 161.647 Q2213.17 161.647 2216.48 158.406 Q2219.81 155.166 2219.81 148.175 Q2219.81 141.23 2216.48 138.013 Q2213.17 134.772 2206.01 134.772 L2200.37 134.772 M2195.69 130.93 L2205.3 130.93 Q2215.34 130.93 2220.04 135.119 Q2224.74 139.286 2224.74 148.175 Q2224.74 157.11 2220.02 161.3 Q2215.3 165.49 2205.3 165.49 L2195.69 165.49 L2195.69 130.93 Z" fill="#000000" fill-rule="nonzero" fill-opacity="1" /><path clip-path="url(#clip630)" d="M2232.19 130.93 L2252.06 130.93 L2252.06 134.865 L2236.87 134.865 L2236.87 145.05 L2250.57 145.05 L2250.57 148.985 L2236.87 148.985 L2236.87 165.49 L2232.19 165.49 L2232.19 130.93 Z" fill="#000000" fill-rule="nonzero" fill-opacity="1" /></svg>
