<?xml version="1.0" encoding="utf-8"?>
<svg xmlns="http://www.w3.org/2000/svg" xmlns:xlink="http://www.w3.org/1999/xlink" width="600" height="400" viewBox="0 0 2400 1600">
<defs>
  <clipPath id="clip190">
    <rect x="0" y="0" width="2400" height="1600"/>
  </clipPath>
</defs>
<path clip-path="url(#clip190)" d="M0 1600 L2400 1600 L2400 0 L0 0  Z" fill="#ffffff" fill-rule="evenodd" fill-opacity="1"/>
<defs>
  <clipPath id="clip191">
    <rect x="480" y="0" width="1681" height="1600"/>
  </clipPath>
</defs>
<path clip-path="url(#clip190)" d="M86.9921 1521.01 L2352.76 1521.01 L2352.76 47.2441 L86.9921 47.2441  Z" fill="#ffffff" fill-rule="evenodd" fill-opacity="1"/>
<defs>
  <clipPath id="clip192">
    <rect x="86" y="47" width="2267" height="1475"/>
  </clipPath>
</defs>
<polyline clip-path="url(#clip192)" style="stroke:#000000; stroke-linecap:round; stroke-linejoin:round; stroke-width:2; stroke-opacity:0.1; fill:none" points="211.613,1521.01 211.613,47.2441 "/>
<polyline clip-path="url(#clip192)" style="stroke:#000000; stroke-linecap:round; stroke-linejoin:round; stroke-width:2; stroke-opacity:0.1; fill:none" points="691.737,1521.01 691.737,47.2441 "/>
<polyline clip-path="url(#clip192)" style="stroke:#000000; stroke-linecap:round; stroke-linejoin:round; stroke-width:2; stroke-opacity:0.1; fill:none" points="1171.86,1521.01 1171.86,47.2441 "/>
<polyline clip-path="url(#clip192)" style="stroke:#000000; stroke-linecap:round; stroke-linejoin:round; stroke-width:2; stroke-opacity:0.1; fill:none" points="1651.99,1521.01 1651.99,47.2441 "/>
<polyline clip-path="url(#clip192)" style="stroke:#000000; stroke-linecap:round; stroke-linejoin:round; stroke-width:2; stroke-opacity:0.1; fill:none" points="2132.11,1521.01 2132.11,47.2441 "/>
<polyline clip-path="url(#clip190)" style="stroke:#000000; stroke-linecap:round; stroke-linejoin:round; stroke-width:4; stroke-opacity:1; fill:none" points="86.9921,1521.01 2352.76,1521.01 "/>
<polyline clip-path="url(#clip190)" style="stroke:#000000; stroke-linecap:round; stroke-linejoin:round; stroke-width:4; stroke-opacity:1; fill:none" points="211.613,1521.01 211.613,1502.11 "/>
<polyline clip-path="url(#clip190)" style="stroke:#000000; stroke-linecap:round; stroke-linejoin:round; stroke-width:4; stroke-opacity:1; fill:none" points="691.737,1521.01 691.737,1502.11 "/>
<polyline clip-path="url(#clip190)" style="stroke:#000000; stroke-linecap:round; stroke-linejoin:round; stroke-width:4; stroke-opacity:1; fill:none" points="1171.86,1521.01 1171.86,1502.11 "/>
<polyline clip-path="url(#clip190)" style="stroke:#000000; stroke-linecap:round; stroke-linejoin:round; stroke-width:4; stroke-opacity:1; fill:none" points="1651.99,1521.01 1651.99,1502.11 "/>
<polyline clip-path="url(#clip190)" style="stroke:#000000; stroke-linecap:round; stroke-linejoin:round; stroke-width:4; stroke-opacity:1; fill:none" points="2132.11,1521.01 2132.11,1502.11 "/>
<path clip-path="url(#clip190)" d="M165.676 1566.58 L195.352 1566.58 L195.352 1570.51 L165.676 1570.51 L165.676 1566.58 Z" fill="#000000" fill-rule="nonzero" fill-opacity="1" /><path clip-path="url(#clip190)" d="M205.491 1548.85 L223.847 1548.85 L223.847 1552.78 L209.773 1552.78 L209.773 1561.26 Q210.791 1560.91 211.81 1560.75 Q212.828 1560.56 213.847 1560.56 Q219.634 1560.56 223.014 1563.73 Q226.393 1566.9 226.393 1572.32 Q226.393 1577.9 222.921 1581 Q219.449 1584.08 213.129 1584.08 Q210.953 1584.08 208.685 1583.71 Q206.44 1583.34 204.032 1582.6 L204.032 1577.9 Q206.116 1579.03 208.338 1579.59 Q210.56 1580.14 213.037 1580.14 Q217.041 1580.14 219.379 1578.04 Q221.717 1575.93 221.717 1572.32 Q221.717 1568.71 219.379 1566.6 Q217.041 1564.5 213.037 1564.5 Q211.162 1564.5 209.287 1564.91 Q207.435 1565.33 205.491 1566.21 L205.491 1548.85 Z" fill="#000000" fill-rule="nonzero" fill-opacity="1" /><path clip-path="url(#clip190)" d="M245.606 1551.93 Q241.995 1551.93 240.166 1555.49 Q238.361 1559.03 238.361 1566.16 Q238.361 1573.27 240.166 1576.83 Q241.995 1580.38 245.606 1580.38 Q249.24 1580.38 251.046 1576.83 Q252.875 1573.27 252.875 1566.16 Q252.875 1559.03 251.046 1555.49 Q249.24 1551.93 245.606 1551.93 M245.606 1548.22 Q251.416 1548.22 254.472 1552.83 Q257.55 1557.41 257.55 1566.16 Q257.55 1574.89 254.472 1579.5 Q251.416 1584.08 245.606 1584.08 Q239.796 1584.08 236.717 1579.5 Q233.662 1574.89 233.662 1566.16 Q233.662 1557.41 236.717 1552.83 Q239.796 1548.22 245.606 1548.22 Z" fill="#000000" fill-rule="nonzero" fill-opacity="1" /><path clip-path="url(#clip190)" d="M646.298 1566.58 L675.974 1566.58 L675.974 1570.51 L646.298 1570.51 L646.298 1566.58 Z" fill="#000000" fill-rule="nonzero" fill-opacity="1" /><path clip-path="url(#clip190)" d="M690.094 1579.47 L706.413 1579.47 L706.413 1583.41 L684.469 1583.41 L684.469 1579.47 Q687.131 1576.72 691.714 1572.09 Q696.321 1567.44 697.501 1566.09 Q699.747 1563.57 700.626 1561.83 Q701.529 1560.07 701.529 1558.38 Q701.529 1555.63 699.585 1553.89 Q697.663 1552.16 694.561 1552.16 Q692.362 1552.16 689.909 1552.92 Q687.478 1553.69 684.7 1555.24 L684.7 1550.51 Q687.524 1549.38 689.978 1548.8 Q692.432 1548.22 694.469 1548.22 Q699.839 1548.22 703.034 1550.91 Q706.228 1553.59 706.228 1558.08 Q706.228 1560.21 705.418 1562.13 Q704.631 1564.03 702.524 1566.63 Q701.946 1567.3 698.844 1570.51 Q695.742 1573.71 690.094 1579.47 Z" fill="#000000" fill-rule="nonzero" fill-opacity="1" /><path clip-path="url(#clip190)" d="M716.274 1548.85 L734.631 1548.85 L734.631 1552.78 L720.557 1552.78 L720.557 1561.26 Q721.575 1560.91 722.594 1560.75 Q723.612 1560.56 724.631 1560.56 Q730.418 1560.56 733.797 1563.73 Q737.177 1566.9 737.177 1572.32 Q737.177 1577.9 733.705 1581 Q730.233 1584.08 723.913 1584.08 Q721.737 1584.08 719.469 1583.71 Q717.223 1583.34 714.816 1582.6 L714.816 1577.9 Q716.899 1579.03 719.121 1579.59 Q721.344 1580.14 723.821 1580.14 Q727.825 1580.14 730.163 1578.04 Q732.501 1575.93 732.501 1572.32 Q732.501 1568.71 730.163 1566.6 Q727.825 1564.5 723.821 1564.5 Q721.946 1564.5 720.071 1564.91 Q718.219 1565.33 716.274 1566.21 L716.274 1548.85 Z" fill="#000000" fill-rule="nonzero" fill-opacity="1" /><path clip-path="url(#clip190)" d="M1171.86 1551.93 Q1168.25 1551.93 1166.42 1555.49 Q1164.62 1559.03 1164.62 1566.16 Q1164.62 1573.27 1166.42 1576.83 Q1168.25 1580.38 1171.86 1580.38 Q1175.5 1580.38 1177.3 1576.83 Q1179.13 1573.27 1179.13 1566.16 Q1179.13 1559.03 1177.3 1555.49 Q1175.5 1551.93 1171.86 1551.93 M1171.86 1548.22 Q1177.67 1548.22 1180.73 1552.83 Q1183.81 1557.41 1183.81 1566.16 Q1183.81 1574.89 1180.73 1579.5 Q1177.67 1584.08 1171.86 1584.08 Q1166.05 1584.08 1162.97 1579.5 Q1159.92 1574.89 1159.92 1566.16 Q1159.92 1557.41 1162.97 1552.83 Q1166.05 1548.22 1171.86 1548.22 Z" fill="#000000" fill-rule="nonzero" fill-opacity="1" /><path clip-path="url(#clip190)" d="M1631.26 1579.47 L1647.58 1579.47 L1647.58 1583.41 L1625.63 1583.41 L1625.63 1579.47 Q1628.29 1576.72 1632.88 1572.09 Q1637.48 1567.44 1638.66 1566.09 Q1640.91 1563.57 1641.79 1561.83 Q1642.69 1560.07 1642.69 1558.38 Q1642.69 1555.63 1640.75 1553.89 Q1638.83 1552.16 1635.72 1552.16 Q1633.53 1552.16 1631.07 1552.92 Q1628.64 1553.69 1625.86 1555.24 L1625.86 1550.51 Q1628.69 1549.38 1631.14 1548.8 Q1633.59 1548.22 1635.63 1548.22 Q1641 1548.22 1644.2 1550.91 Q1647.39 1553.59 1647.39 1558.08 Q1647.39 1560.21 1646.58 1562.13 Q1645.79 1564.03 1643.69 1566.63 Q1643.11 1567.3 1640.01 1570.51 Q1636.9 1573.71 1631.26 1579.47 Z" fill="#000000" fill-rule="nonzero" fill-opacity="1" /><path clip-path="url(#clip190)" d="M1657.44 1548.85 L1675.79 1548.85 L1675.79 1552.78 L1661.72 1552.78 L1661.72 1561.26 Q1662.74 1560.91 1663.76 1560.75 Q1664.78 1560.56 1665.79 1560.56 Q1671.58 1560.56 1674.96 1563.73 Q1678.34 1566.9 1678.34 1572.32 Q1678.34 1577.9 1674.87 1581 Q1671.4 1584.08 1665.08 1584.08 Q1662.9 1584.08 1660.63 1583.71 Q1658.39 1583.34 1655.98 1582.6 L1655.98 1577.9 Q1658.06 1579.03 1660.28 1579.59 Q1662.51 1580.14 1664.98 1580.14 Q1668.99 1580.14 1671.33 1578.04 Q1673.66 1575.93 1673.66 1572.32 Q1673.66 1568.71 1671.33 1566.6 Q1668.99 1564.5 1664.98 1564.5 Q1663.11 1564.5 1661.23 1564.91 Q1659.38 1565.33 1657.44 1566.21 L1657.44 1548.85 Z" fill="#000000" fill-rule="nonzero" fill-opacity="1" /><path clip-path="url(#clip190)" d="M2106.81 1548.85 L2125.17 1548.85 L2125.17 1552.78 L2111.09 1552.78 L2111.09 1561.26 Q2112.11 1560.91 2113.13 1560.75 Q2114.15 1560.56 2115.17 1560.56 Q2120.95 1560.56 2124.33 1563.73 Q2127.71 1566.9 2127.71 1572.32 Q2127.71 1577.9 2124.24 1581 Q2120.77 1584.08 2114.45 1584.08 Q2112.27 1584.08 2110 1583.71 Q2107.76 1583.34 2105.35 1582.6 L2105.35 1577.9 Q2107.43 1579.03 2109.66 1579.59 Q2111.88 1580.14 2114.36 1580.14 Q2118.36 1580.14 2120.7 1578.04 Q2123.04 1575.93 2123.04 1572.32 Q2123.04 1568.71 2120.7 1566.6 Q2118.36 1564.5 2114.36 1564.5 Q2112.48 1564.5 2110.61 1564.91 Q2108.75 1565.33 2106.81 1566.21 L2106.81 1548.85 Z" fill="#000000" fill-rule="nonzero" fill-opacity="1" /><path clip-path="url(#clip190)" d="M2146.92 1551.93 Q2143.31 1551.93 2141.48 1555.49 Q2139.68 1559.03 2139.68 1566.16 Q2139.68 1573.27 2141.48 1576.83 Q2143.31 1580.38 2146.92 1580.38 Q2150.56 1580.38 2152.36 1576.83 Q2154.19 1573.27 2154.19 1566.16 Q2154.19 1559.03 2152.36 1555.49 Q2150.56 1551.93 2146.92 1551.93 M2146.92 1548.22 Q2152.73 1548.22 2155.79 1552.83 Q2158.87 1557.41 2158.87 1566.16 Q2158.87 1574.89 2155.79 1579.5 Q2152.73 1584.08 2146.92 1584.08 Q2141.11 1584.08 2138.04 1579.5 Q2134.98 1574.89 2134.98 1566.16 Q2134.98 1557.41 2138.04 1552.83 Q2141.11 1548.22 2146.92 1548.22 Z" fill="#000000" fill-rule="nonzero" fill-opacity="1" /><polyline clip-path="url(#clip192)" style="stroke:#000000; stroke-linecap:round; stroke-linejoin:round; stroke-width:2; stroke-opacity:0.1; fill:none" points="86.9921,1521.01 2352.76,1521.01 "/>
<polyline clip-path="url(#clip192)" style="stroke:#000000; stroke-linecap:round; stroke-linejoin:round; stroke-width:2; stroke-opacity:0.1; fill:none" points="86.9921,1111.63 2352.76,1111.63 "/>
<polyline clip-path="url(#clip192)" style="stroke:#000000; stroke-linecap:round; stroke-linejoin:round; stroke-width:2; stroke-opacity:0.1; fill:none" points="86.9921,702.25 2352.76,702.25 "/>
<polyline clip-path="url(#clip192)" style="stroke:#000000; stroke-linecap:round; stroke-linejoin:round; stroke-width:2; stroke-opacity:0.1; fill:none" points="86.9921,292.871 2352.76,292.871 "/>
<polyline clip-path="url(#clip190)" style="stroke:#000000; stroke-linecap:round; stroke-linejoin:round; stroke-width:4; stroke-opacity:1; fill:none" points="86.9921,1521.01 86.9921,47.2441 "/>
<polyline clip-path="url(#clip190)" style="stroke:#000000; stroke-linecap:round; stroke-linejoin:round; stroke-width:4; stroke-opacity:1; fill:none" points="86.9921,1521.01 105.89,1521.01 "/>
<polyline clip-path="url(#clip190)" style="stroke:#000000; stroke-linecap:round; stroke-linejoin:round; stroke-width:4; stroke-opacity:1; fill:none" points="86.9921,1111.63 105.89,1111.63 "/>
<polyline clip-path="url(#clip190)" style="stroke:#000000; stroke-linecap:round; stroke-linejoin:round; stroke-width:4; stroke-opacity:1; fill:none" points="86.9921,702.25 105.89,702.25 "/>
<polyline clip-path="url(#clip190)" style="stroke:#000000; stroke-linecap:round; stroke-linejoin:round; stroke-width:4; stroke-opacity:1; fill:none" points="86.9921,292.871 105.89,292.871 "/>
<path clip-path="url(#clip190)" d="M10.8708 1521.01 Q10.8708 1524.62 14.4356 1526.45 Q17.9773 1528.25 25.1068 1528.25 Q32.2133 1528.25 35.7781 1526.45 Q39.3197 1524.62 39.3197 1521.01 Q39.3197 1517.37 35.7781 1515.57 Q32.2133 1513.74 25.1068 1513.74 Q17.9773 1513.74 14.4356 1515.57 Q10.8708 1517.37 10.8708 1521.01 M7.16713 1521.01 Q7.16713 1515.2 11.7736 1512.14 Q16.3569 1509.06 25.1068 1509.06 Q33.8337 1509.06 38.4401 1512.14 Q43.0234 1515.2 43.0234 1521.01 Q43.0234 1526.82 38.4401 1529.9 Q33.8337 1532.95 25.1068 1532.95 Q16.3569 1532.95 11.7736 1529.9 Q7.16713 1526.82 7.16713 1521.01 Z" fill="#000000" fill-rule="nonzero" fill-opacity="1" /><path clip-path="url(#clip190)" d="M38.417 1152.02 L38.417 1144.38 L12.0514 1144.38 L13.718 1152.69 L9.45878 1152.69 L7.79213 1144.43 L7.79213 1139.75 L38.417 1139.75 L38.417 1132.12 L42.3521 1132.12 L42.3521 1152.02 L38.417 1152.02 Z" fill="#000000" fill-rule="nonzero" fill-opacity="1" /><path clip-path="url(#clip190)" d="M10.8708 1112.67 Q10.8708 1116.28 14.4356 1118.11 Q17.9773 1119.92 25.1068 1119.92 Q32.2133 1119.92 35.7781 1118.11 Q39.3197 1116.28 39.3197 1112.67 Q39.3197 1109.04 35.7781 1107.23 Q32.2133 1105.4 25.1068 1105.4 Q17.9773 1105.4 14.4356 1107.23 Q10.8708 1109.04 10.8708 1112.67 M7.16713 1112.67 Q7.16713 1106.86 11.7736 1103.81 Q16.3569 1100.73 25.1068 1100.73 Q33.8337 1100.73 38.4401 1103.81 Q43.0234 1106.86 43.0234 1112.67 Q43.0234 1118.48 38.4401 1121.56 Q33.8337 1124.62 25.1068 1124.62 Q16.3569 1124.62 11.7736 1121.56 Q7.16713 1118.48 7.16713 1112.67 Z" fill="#000000" fill-rule="nonzero" fill-opacity="1" /><path clip-path="url(#clip190)" d="M10.8708 1082.51 Q10.8708 1086.12 14.4356 1087.95 Q17.9773 1089.75 25.1068 1089.75 Q32.2133 1089.75 35.7781 1087.95 Q39.3197 1086.12 39.3197 1082.51 Q39.3197 1078.87 35.7781 1077.07 Q32.2133 1075.24 25.1068 1075.24 Q17.9773 1075.24 14.4356 1077.07 Q10.8708 1078.87 10.8708 1082.51 M7.16713 1082.51 Q7.16713 1076.7 11.7736 1073.64 Q16.3569 1070.56 25.1068 1070.56 Q33.8337 1070.56 38.4401 1073.64 Q43.0234 1076.7 43.0234 1082.51 Q43.0234 1088.32 38.4401 1091.4 Q33.8337 1094.45 25.1068 1094.45 Q16.3569 1094.45 11.7736 1091.4 Q7.16713 1088.32 7.16713 1082.51 Z" fill="#000000" fill-rule="nonzero" fill-opacity="1" /><path clip-path="url(#clip190)" d="M38.417 738.558 L38.417 722.239 L42.3521 722.239 L42.3521 744.183 L38.417 744.183 Q35.6623 741.521 31.0327 736.938 Q26.38 732.331 25.0374 731.151 Q22.5143 728.905 20.7782 728.026 Q19.0189 727.123 17.3291 727.123 Q14.5745 727.123 12.8384 729.067 Q11.1023 730.988 11.1023 734.09 Q11.1023 736.289 11.8662 738.743 Q12.6301 741.174 14.181 743.951 L9.45878 743.951 Q8.32453 741.127 7.74583 738.674 Q7.16713 736.22 7.16713 734.183 Q7.16713 728.813 9.8523 725.618 Q12.5375 722.424 17.0282 722.424 Q19.1578 722.424 21.0791 723.234 Q22.9772 724.021 25.5698 726.127 Q26.2411 726.706 29.4587 729.808 Q32.6531 732.91 38.417 738.558 Z" fill="#000000" fill-rule="nonzero" fill-opacity="1" /><path clip-path="url(#clip190)" d="M10.8708 702.424 Q10.8708 706.035 14.4356 707.864 Q17.9773 709.669 25.1068 709.669 Q32.2133 709.669 35.7781 707.864 Q39.3197 706.035 39.3197 702.424 Q39.3197 698.79 35.7781 696.984 Q32.2133 695.155 25.1068 695.155 Q17.9773 695.155 14.4356 696.984 Q10.8708 698.79 10.8708 702.424 M7.16713 702.424 Q7.16713 696.614 11.7736 693.558 Q16.3569 690.479 25.1068 690.479 Q33.8337 690.479 38.4401 693.558 Q43.0234 696.614 43.0234 702.424 Q43.0234 708.234 38.4401 711.313 Q33.8337 714.368 25.1068 714.368 Q16.3569 714.368 11.7736 711.313 Q7.16713 708.234 7.16713 702.424 Z" fill="#000000" fill-rule="nonzero" fill-opacity="1" /><path clip-path="url(#clip190)" d="M10.8708 672.262 Q10.8708 675.873 14.4356 677.702 Q17.9773 679.507 25.1068 679.507 Q32.2133 679.507 35.7781 677.702 Q39.3197 675.873 39.3197 672.262 Q39.3197 668.628 35.7781 666.822 Q32.2133 664.993 25.1068 664.993 Q17.9773 664.993 14.4356 666.822 Q10.8708 668.628 10.8708 672.262 M7.16713 672.262 Q7.16713 666.452 11.7736 663.396 Q16.3569 660.318 25.1068 660.318 Q33.8337 660.318 38.4401 663.396 Q43.0234 666.452 43.0234 672.262 Q43.0234 678.072 38.4401 681.151 Q33.8337 684.206 25.1068 684.206 Q16.3569 684.206 11.7736 681.151 Q7.16713 678.072 7.16713 672.262 Z" fill="#000000" fill-rule="nonzero" fill-opacity="1" /><path clip-path="url(#clip190)" d="M23.718 319.11 Q24.4356 315.753 26.7041 313.878 Q28.9726 311.98 32.3059 311.98 Q37.4216 311.98 40.2225 315.499 Q43.0234 319.017 43.0234 325.499 Q43.0234 327.674 42.5836 329.989 Q42.1669 332.281 41.3105 334.735 L36.7966 334.735 Q37.9309 332.79 38.5096 330.475 Q39.0883 328.161 39.0883 325.637 Q39.0883 321.239 37.3522 318.948 Q35.6161 316.633 32.3059 316.633 Q29.2503 316.633 27.5374 318.786 Q25.8013 320.915 25.8013 324.735 L25.8013 328.762 L21.9587 328.762 L21.9587 324.549 Q21.9587 321.1 20.593 319.272 Q19.2041 317.443 16.6115 317.443 Q13.9495 317.443 12.5375 319.341 Q11.1023 321.216 11.1023 324.735 Q11.1023 326.656 11.519 328.855 Q11.9356 331.054 12.8152 333.693 L8.6486 333.693 Q7.90787 331.031 7.5375 328.716 Q7.16713 326.378 7.16713 324.318 Q7.16713 318.994 9.59767 315.892 Q12.0051 312.79 16.1254 312.79 Q18.9958 312.79 20.9865 314.434 Q22.9541 316.077 23.718 319.11 Z" fill="#000000" fill-rule="nonzero" fill-opacity="1" /><path clip-path="url(#clip190)" d="M10.8708 293.114 Q10.8708 296.726 14.4356 298.554 Q17.9773 300.36 25.1068 300.36 Q32.2133 300.36 35.7781 298.554 Q39.3197 296.726 39.3197 293.114 Q39.3197 289.48 35.7781 287.675 Q32.2133 285.846 25.1068 285.846 Q17.9773 285.846 14.4356 287.675 Q10.8708 289.48 10.8708 293.114 M7.16713 293.114 Q7.16713 287.304 11.7736 284.249 Q16.3569 281.17 25.1068 281.17 Q33.8337 281.17 38.4401 284.249 Q43.0234 287.304 43.0234 293.114 Q43.0234 298.925 38.4401 302.003 Q33.8337 305.059 25.1068 305.059 Q16.3569 305.059 11.7736 302.003 Q7.16713 298.925 7.16713 293.114 Z" fill="#000000" fill-rule="nonzero" fill-opacity="1" /><path clip-path="url(#clip190)" d="M10.8708 262.953 Q10.8708 266.564 14.4356 268.392 Q17.9773 270.198 25.1068 270.198 Q32.2133 270.198 35.7781 268.392 Q39.3197 266.564 39.3197 262.953 Q39.3197 259.318 35.7781 257.513 Q32.2133 255.684 25.1068 255.684 Q17.9773 255.684 14.4356 257.513 Q10.8708 259.318 10.8708 262.953 M7.16713 262.953 Q7.16713 257.142 11.7736 254.087 Q16.3569 251.008 25.1068 251.008 Q33.8337 251.008 38.4401 254.087 Q43.0234 257.142 43.0234 262.953 Q43.0234 268.763 38.4401 271.841 Q33.8337 274.897 25.1068 274.897 Q16.3569 274.897 11.7736 271.841 Q7.16713 268.763 7.16713 262.953 Z" fill="#000000" fill-rule="nonzero" fill-opacity="1" /><path clip-path="url(#clip192)" d="M211.613 1516.91 L211.613 1521.01 L307.638 1521.01 L307.638 1516.91 L211.613 1516.91 L211.613 1516.91  Z" fill="#009af9" fill-rule="evenodd" fill-opacity="1"/>
<polyline clip-path="url(#clip192)" style="stroke:#000000; stroke-linecap:round; stroke-linejoin:round; stroke-width:4; stroke-opacity:1; fill:none" points="211.613,1516.91 211.613,1521.01 307.638,1521.01 307.638,1516.91 211.613,1516.91 "/>
<path clip-path="url(#clip192)" d="M307.638 1504.63 L307.638 1521.01 L403.663 1521.01 L403.663 1504.63 L307.638 1504.63 L307.638 1504.63  Z" fill="#009af9" fill-rule="evenodd" fill-opacity="1"/>
<polyline clip-path="url(#clip192)" style="stroke:#000000; stroke-linecap:round; stroke-linejoin:round; stroke-width:4; stroke-opacity:1; fill:none" points="307.638,1504.63 307.638,1521.01 403.663,1521.01 403.663,1504.63 307.638,1504.63 "/>
<path clip-path="url(#clip192)" d="M403.663 1492.35 L403.663 1521.01 L499.688 1521.01 L499.688 1492.35 L403.663 1492.35 L403.663 1492.35  Z" fill="#009af9" fill-rule="evenodd" fill-opacity="1"/>
<polyline clip-path="url(#clip192)" style="stroke:#000000; stroke-linecap:round; stroke-linejoin:round; stroke-width:4; stroke-opacity:1; fill:none" points="403.663,1492.35 403.663,1521.01 499.688,1521.01 499.688,1492.35 403.663,1492.35 "/>
<path clip-path="url(#clip192)" d="M499.688 1443.23 L499.688 1521.01 L595.713 1521.01 L595.713 1443.23 L499.688 1443.23 L499.688 1443.23  Z" fill="#009af9" fill-rule="evenodd" fill-opacity="1"/>
<polyline clip-path="url(#clip192)" style="stroke:#000000; stroke-linecap:round; stroke-linejoin:round; stroke-width:4; stroke-opacity:1; fill:none" points="499.688,1443.23 499.688,1521.01 595.713,1521.01 595.713,1443.23 499.688,1443.23 "/>
<path clip-path="url(#clip192)" d="M595.713 1336.79 L595.713 1521.01 L691.737 1521.01 L691.737 1336.79 L595.713 1336.79 L595.713 1336.79  Z" fill="#009af9" fill-rule="evenodd" fill-opacity="1"/>
<polyline clip-path="url(#clip192)" style="stroke:#000000; stroke-linecap:round; stroke-linejoin:round; stroke-width:4; stroke-opacity:1; fill:none" points="595.713,1336.79 595.713,1521.01 691.737,1521.01 691.737,1336.79 595.713,1336.79 "/>
<path clip-path="url(#clip192)" d="M691.737 1173.04 L691.737 1521.01 L787.762 1521.01 L787.762 1173.04 L691.737 1173.04 L691.737 1173.04  Z" fill="#009af9" fill-rule="evenodd" fill-opacity="1"/>
<polyline clip-path="url(#clip192)" style="stroke:#000000; stroke-linecap:round; stroke-linejoin:round; stroke-width:4; stroke-opacity:1; fill:none" points="691.737,1173.04 691.737,1521.01 787.762,1521.01 787.762,1173.04 691.737,1173.04 "/>
<path clip-path="url(#clip192)" d="M787.762 1074.78 L787.762 1521.01 L883.787 1521.01 L883.787 1074.78 L787.762 1074.78 L787.762 1074.78  Z" fill="#009af9" fill-rule="evenodd" fill-opacity="1"/>
<polyline clip-path="url(#clip192)" style="stroke:#000000; stroke-linecap:round; stroke-linejoin:round; stroke-width:4; stroke-opacity:1; fill:none" points="787.762,1074.78 787.762,1521.01 883.787,1521.01 883.787,1074.78 787.762,1074.78 "/>
<path clip-path="url(#clip192)" d="M883.787 804.595 L883.787 1521.01 L979.812 1521.01 L979.812 804.595 L883.787 804.595 L883.787 804.595  Z" fill="#009af9" fill-rule="evenodd" fill-opacity="1"/>
<polyline clip-path="url(#clip192)" style="stroke:#000000; stroke-linecap:round; stroke-linejoin:round; stroke-width:4; stroke-opacity:1; fill:none" points="883.787,804.595 883.787,1521.01 979.812,1521.01 979.812,804.595 883.787,804.595 "/>
<path clip-path="url(#clip192)" d="M979.812 276.496 L979.812 1521.01 L1075.84 1521.01 L1075.84 276.496 L979.812 276.496 L979.812 276.496  Z" fill="#009af9" fill-rule="evenodd" fill-opacity="1"/>
<polyline clip-path="url(#clip192)" style="stroke:#000000; stroke-linecap:round; stroke-linejoin:round; stroke-width:4; stroke-opacity:1; fill:none" points="979.812,276.496 979.812,1521.01 1075.84,1521.01 1075.84,276.496 979.812,276.496 "/>
<path clip-path="url(#clip192)" d="M1075.84 47.2441 L1075.84 1521.01 L1171.86 1521.01 L1171.86 47.2441 L1075.84 47.2441 L1075.84 47.2441  Z" fill="#009af9" fill-rule="evenodd" fill-opacity="1"/>
<polyline clip-path="url(#clip192)" style="stroke:#000000; stroke-linecap:round; stroke-linejoin:round; stroke-width:4; stroke-opacity:1; fill:none" points="1075.84,47.2441 1075.84,1521.01 1171.86,1521.01 1171.86,47.2441 1075.84,47.2441 "/>
<path clip-path="url(#clip192)" d="M1171.86 96.3696 L1171.86 1521.01 L1267.89 1521.01 L1267.89 96.3696 L1171.86 96.3696 L1171.86 96.3696  Z" fill="#009af9" fill-rule="evenodd" fill-opacity="1"/>
<polyline clip-path="url(#clip192)" style="stroke:#000000; stroke-linecap:round; stroke-linejoin:round; stroke-width:4; stroke-opacity:1; fill:none" points="1171.86,96.3696 1171.86,1521.01 1267.89,1521.01 1267.89,96.3696 1171.86,96.3696 "/>
<path clip-path="url(#clip192)" d="M1267.89 489.373 L1267.89 1521.01 L1363.91 1521.01 L1363.91 489.373 L1267.89 489.373 L1267.89 489.373  Z" fill="#009af9" fill-rule="evenodd" fill-opacity="1"/>
<polyline clip-path="url(#clip192)" style="stroke:#000000; stroke-linecap:round; stroke-linejoin:round; stroke-width:4; stroke-opacity:1; fill:none" points="1267.89,489.373 1267.89,1521.01 1363.91,1521.01 1363.91,489.373 1267.89,489.373 "/>
<path clip-path="url(#clip192)" d="M1363.91 653.125 L1363.91 1521.01 L1459.94 1521.01 L1459.94 653.125 L1363.91 653.125 L1363.91 653.125  Z" fill="#009af9" fill-rule="evenodd" fill-opacity="1"/>
<polyline clip-path="url(#clip192)" style="stroke:#000000; stroke-linecap:round; stroke-linejoin:round; stroke-width:4; stroke-opacity:1; fill:none" points="1363.91,653.125 1363.91,1521.01 1459.94,1521.01 1459.94,653.125 1363.91,653.125 "/>
<path clip-path="url(#clip192)" d="M1459.94 1042.03 L1459.94 1521.01 L1555.96 1521.01 L1555.96 1042.03 L1459.94 1042.03 L1459.94 1042.03  Z" fill="#009af9" fill-rule="evenodd" fill-opacity="1"/>
<polyline clip-path="url(#clip192)" style="stroke:#000000; stroke-linecap:round; stroke-linejoin:round; stroke-width:4; stroke-opacity:1; fill:none" points="1459.94,1042.03 1459.94,1521.01 1555.96,1521.01 1555.96,1042.03 1459.94,1042.03 "/>
<path clip-path="url(#clip192)" d="M1555.96 1082.97 L1555.96 1521.01 L1651.99 1521.01 L1651.99 1082.97 L1555.96 1082.97 L1555.96 1082.97  Z" fill="#009af9" fill-rule="evenodd" fill-opacity="1"/>
<polyline clip-path="url(#clip192)" style="stroke:#000000; stroke-linecap:round; stroke-linejoin:round; stroke-width:4; stroke-opacity:1; fill:none" points="1555.96,1082.97 1555.96,1521.01 1651.99,1521.01 1651.99,1082.97 1555.96,1082.97 "/>
<path clip-path="url(#clip192)" d="M1651.99 1263.1 L1651.99 1521.01 L1748.01 1521.01 L1748.01 1263.1 L1651.99 1263.1 L1651.99 1263.1  Z" fill="#009af9" fill-rule="evenodd" fill-opacity="1"/>
<polyline clip-path="url(#clip192)" style="stroke:#000000; stroke-linecap:round; stroke-linejoin:round; stroke-width:4; stroke-opacity:1; fill:none" points="1651.99,1263.1 1651.99,1521.01 1748.01,1521.01 1748.01,1263.1 1651.99,1263.1 "/>
<path clip-path="url(#clip192)" d="M1748.01 1447.32 L1748.01 1521.01 L1844.04 1521.01 L1844.04 1447.32 L1748.01 1447.32 L1748.01 1447.32  Z" fill="#009af9" fill-rule="evenodd" fill-opacity="1"/>
<polyline clip-path="url(#clip192)" style="stroke:#000000; stroke-linecap:round; stroke-linejoin:round; stroke-width:4; stroke-opacity:1; fill:none" points="1748.01,1447.32 1748.01,1521.01 1844.04,1521.01 1844.04,1447.32 1748.01,1447.32 "/>
<path clip-path="url(#clip192)" d="M1844.04 1475.98 L1844.04 1521.01 L1940.06 1521.01 L1940.06 1475.98 L1844.04 1475.98 L1844.04 1475.98  Z" fill="#009af9" fill-rule="evenodd" fill-opacity="1"/>
<polyline clip-path="url(#clip192)" style="stroke:#000000; stroke-linecap:round; stroke-linejoin:round; stroke-width:4; stroke-opacity:1; fill:none" points="1844.04,1475.98 1844.04,1521.01 1940.06,1521.01 1940.06,1475.98 1844.04,1475.98 "/>
<path clip-path="url(#clip192)" d="M1940.06 1516.91 L1940.06 1521.01 L2036.09 1521.01 L2036.09 1516.91 L1940.06 1516.91 L1940.06 1516.91  Z" fill="#009af9" fill-rule="evenodd" fill-opacity="1"/>
<polyline clip-path="url(#clip192)" style="stroke:#000000; stroke-linecap:round; stroke-linejoin:round; stroke-width:4; stroke-opacity:1; fill:none" points="1940.06,1516.91 1940.06,1521.01 2036.09,1521.01 2036.09,1516.91 1940.06,1516.91 "/>
<path clip-path="url(#clip192)" d="M2036.09 1516.91 L2036.09 1521.01 L2132.11 1521.01 L2132.11 1516.91 L2036.09 1516.91 L2036.09 1516.91  Z" fill="#009af9" fill-rule="evenodd" fill-opacity="1"/>
<polyline clip-path="url(#clip192)" style="stroke:#000000; stroke-linecap:round; stroke-linejoin:round; stroke-width:4; stroke-opacity:1; fill:none" points="2036.09,1516.91 2036.09,1521.01 2132.11,1521.01 2132.11,1516.91 2036.09,1516.91 "/>
<path clip-path="url(#clip192)" d="M2132.11 1516.91 L2132.11 1521.01 L2228.13 1521.01 L2228.13 1516.91 L2132.11 1516.91 L2132.11 1516.91  Z" fill="#009af9" fill-rule="evenodd" fill-opacity="1"/>
<polyline clip-path="url(#clip192)" style="stroke:#000000; stroke-linecap:round; stroke-linejoin:round; stroke-width:4; stroke-opacity:1; fill:none" points="2132.11,1516.91 2132.11,1521.01 2228.13,1521.01 2228.13,1516.91 2132.11,1516.91 "/>
<circle clip-path="url(#clip192)" style="fill:#009af9; stroke:none; fill-opacity:0" cx="259.626" cy="1516.91" r="2"/>
<circle clip-path="url(#clip192)" style="fill:#009af9; stroke:none; fill-opacity:0" cx="355.65" cy="1504.63" r="2"/>
<circle clip-path="url(#clip192)" style="fill:#009af9; stroke:none; fill-opacity:0" cx="451.675" cy="1492.35" r="2"/>
<circle clip-path="url(#clip192)" style="fill:#009af9; stroke:none; fill-opacity:0" cx="547.7" cy="1443.23" r="2"/>
<circle clip-path="url(#clip192)" style="fill:#009af9; stroke:none; fill-opacity:0" cx="643.725" cy="1336.79" r="2"/>
<circle clip-path="url(#clip192)" style="fill:#009af9; stroke:none; fill-opacity:0" cx="739.75" cy="1173.04" r="2"/>
<circle clip-path="url(#clip192)" style="fill:#009af9; stroke:none; fill-opacity:0" cx="835.775" cy="1074.78" r="2"/>
<circle clip-path="url(#clip192)" style="fill:#009af9; stroke:none; fill-opacity:0" cx="931.799" cy="804.595" r="2"/>
<circle clip-path="url(#clip192)" style="fill:#009af9; stroke:none; fill-opacity:0" cx="1027.82" cy="276.496" r="2"/>
<circle clip-path="url(#clip192)" style="fill:#009af9; stroke:none; fill-opacity:0" cx="1123.85" cy="47.2441" r="2"/>
<circle clip-path="url(#clip192)" style="fill:#009af9; stroke:none; fill-opacity:0" cx="1219.87" cy="96.3696" r="2"/>
<circle clip-path="url(#clip192)" style="fill:#009af9; stroke:none; fill-opacity:0" cx="1315.9" cy="489.373" r="2"/>
<circle clip-path="url(#clip192)" style="fill:#009af9; stroke:none; fill-opacity:0" cx="1411.92" cy="653.125" r="2"/>
<circle clip-path="url(#clip192)" style="fill:#009af9; stroke:none; fill-opacity:0" cx="1507.95" cy="1042.03" r="2"/>
<circle clip-path="url(#clip192)" style="fill:#009af9; stroke:none; fill-opacity:0" cx="1603.97" cy="1082.97" r="2"/>
<circle clip-path="url(#clip192)" style="fill:#009af9; stroke:none; fill-opacity:0" cx="1700" cy="1263.1" r="2"/>
<circle clip-path="url(#clip192)" style="fill:#009af9; stroke:none; fill-opacity:0" cx="1796.02" cy="1447.32" r="2"/>
<circle clip-path="url(#clip192)" style="fill:#009af9; stroke:none; fill-opacity:0" cx="1892.05" cy="1475.98" r="2"/>
<circle clip-path="url(#clip192)" style="fill:#009af9; stroke:none; fill-opacity:0" cx="1988.07" cy="1516.91" r="2"/>
<circle clip-path="url(#clip192)" style="fill:#009af9; stroke:none; fill-opacity:0" cx="2084.1" cy="1516.91" r="2"/>
<circle clip-path="url(#clip192)" style="fill:#009af9; stroke:none; fill-opacity:0" cx="2180.12" cy="1516.91" r="2"/>
<path clip-path="url(#clip190)" d="M1504.75 200.05 L2277.23 200.05 L2277.23 96.3696 L1504.75 96.3696  Z" fill="#ffffff" fill-rule="evenodd" fill-opacity="1"/>
<polyline clip-path="url(#clip190)" style="stroke:#000000; stroke-linecap:round; stroke-linejoin:round; stroke-width:4; stroke-opacity:1; fill:none" points="1504.75,200.05 2277.23,200.05 2277.23,96.3696 1504.75,96.3696 1504.75,200.05 "/>
<path clip-path="url(#clip190)" d="M1529.93 168.946 L1680.98 168.946 L1680.98 127.474 L1529.93 127.474 L1529.93 168.946  Z" fill="#009af9" fill-rule="evenodd" fill-opacity="1"/>
<polyline clip-path="url(#clip190)" style="stroke:#000000; stroke-linecap:round; stroke-linejoin:round; stroke-width:4; stroke-opacity:1; fill:none" points="1529.93,168.946 1680.98,168.946 1680.98,127.474 1529.93,127.474 1529.93,168.946 "/>
<path clip-path="url(#clip190)" d="M1718.05 142.55 Q1714.63 142.55 1712.64 145.235 Q1710.65 147.897 1710.65 152.55 Q1710.65 157.203 1712.61 159.888 Q1714.6 162.55 1718.05 162.55 Q1721.46 162.55 1723.45 159.865 Q1725.44 157.179 1725.44 152.55 Q1725.44 147.943 1723.45 145.258 Q1721.46 142.55 1718.05 142.55 M1718.05 138.939 Q1723.61 138.939 1726.78 142.55 Q1729.95 146.161 1729.95 152.55 Q1729.95 158.916 1726.78 162.55 Q1723.61 166.161 1718.05 166.161 Q1712.47 166.161 1709.3 162.55 Q1706.16 158.916 1706.16 152.55 Q1706.16 146.161 1709.3 142.55 Q1712.47 138.939 1718.05 138.939 Z" fill="#000000" fill-rule="nonzero" fill-opacity="1" /><path clip-path="url(#clip190)" d="M1736.57 155.258 L1736.57 139.564 L1740.83 139.564 L1740.83 155.096 Q1740.83 158.777 1742.27 160.628 Q1743.7 162.457 1746.57 162.457 Q1750.02 162.457 1752.01 160.258 Q1754.03 158.059 1754.03 154.263 L1754.03 139.564 L1758.28 139.564 L1758.28 165.49 L1754.03 165.49 L1754.03 161.508 Q1752.47 163.869 1750.41 165.027 Q1748.38 166.161 1745.67 166.161 Q1741.2 166.161 1738.89 163.383 Q1736.57 160.605 1736.57 155.258 M1747.29 138.939 L1747.29 138.939 Z" fill="#000000" fill-rule="nonzero" fill-opacity="1" /><path clip-path="url(#clip190)" d="M1771.27 132.203 L1771.27 139.564 L1780.04 139.564 L1780.04 142.874 L1771.27 142.874 L1771.27 156.948 Q1771.27 160.119 1772.13 161.022 Q1773.01 161.925 1775.67 161.925 L1780.04 161.925 L1780.04 165.49 L1775.67 165.49 Q1770.74 165.49 1768.86 163.661 Q1766.99 161.809 1766.99 156.948 L1766.99 142.874 L1763.86 142.874 L1763.86 139.564 L1766.99 139.564 L1766.99 132.203 L1771.27 132.203 Z" fill="#000000" fill-rule="nonzero" fill-opacity="1" /><path clip-path="url(#clip190)" d="M1804.3 140.559 L1804.3 144.541 Q1802.5 143.545 1800.67 143.059 Q1798.86 142.55 1797.01 142.55 Q1792.87 142.55 1790.58 145.189 Q1788.28 147.804 1788.28 152.55 Q1788.28 157.295 1790.58 159.934 Q1792.87 162.55 1797.01 162.55 Q1798.86 162.55 1800.67 162.064 Q1802.5 161.554 1804.3 160.559 L1804.3 164.494 Q1802.52 165.328 1800.6 165.744 Q1798.7 166.161 1796.55 166.161 Q1790.69 166.161 1787.24 162.48 Q1783.79 158.8 1783.79 152.55 Q1783.79 146.207 1787.27 142.573 Q1790.76 138.939 1796.83 138.939 Q1798.79 138.939 1800.67 139.355 Q1802.54 139.749 1804.3 140.559 Z" fill="#000000" fill-rule="nonzero" fill-opacity="1" /><path clip-path="url(#clip190)" d="M1821.76 142.55 Q1818.33 142.55 1816.34 145.235 Q1814.35 147.897 1814.35 152.55 Q1814.35 157.203 1816.32 159.888 Q1818.31 162.55 1821.76 162.55 Q1825.16 162.55 1827.15 159.865 Q1829.14 157.179 1829.14 152.55 Q1829.14 147.943 1827.15 145.258 Q1825.16 142.55 1821.76 142.55 M1821.76 138.939 Q1827.31 138.939 1830.48 142.55 Q1833.65 146.161 1833.65 152.55 Q1833.65 158.916 1830.48 162.55 Q1827.31 166.161 1821.76 166.161 Q1816.18 166.161 1813.01 162.55 Q1809.86 158.916 1809.86 152.55 Q1809.86 146.161 1813.01 142.55 Q1816.18 138.939 1821.76 138.939 Z" fill="#000000" fill-rule="nonzero" fill-opacity="1" /><path clip-path="url(#clip190)" d="M1860.9 144.541 Q1862.5 141.67 1864.72 140.305 Q1866.94 138.939 1869.95 138.939 Q1874 138.939 1876.2 141.786 Q1878.4 144.61 1878.4 149.841 L1878.4 165.49 L1874.12 165.49 L1874.12 149.98 Q1874.12 146.254 1872.8 144.448 Q1871.48 142.642 1868.77 142.642 Q1865.46 142.642 1863.54 144.842 Q1861.62 147.041 1861.62 150.837 L1861.62 165.49 L1857.34 165.49 L1857.34 149.98 Q1857.34 146.23 1856.02 144.448 Q1854.7 142.642 1851.94 142.642 Q1848.68 142.642 1846.76 144.865 Q1844.84 147.064 1844.84 150.837 L1844.84 165.49 L1840.55 165.49 L1840.55 139.564 L1844.84 139.564 L1844.84 143.592 Q1846.29 141.207 1848.33 140.073 Q1850.37 138.939 1853.17 138.939 Q1855.99 138.939 1857.96 140.374 Q1859.95 141.809 1860.9 144.541 Z" fill="#000000" fill-rule="nonzero" fill-opacity="1" /><path clip-path="url(#clip190)" d="M1909.07 151.462 L1909.07 153.545 L1889.49 153.545 Q1889.77 157.943 1892.13 160.258 Q1894.51 162.55 1898.75 162.55 Q1901.2 162.55 1903.49 161.948 Q1905.81 161.346 1908.08 160.142 L1908.08 164.17 Q1905.78 165.142 1903.38 165.652 Q1900.97 166.161 1898.49 166.161 Q1892.29 166.161 1888.65 162.55 Q1885.04 158.939 1885.04 152.781 Q1885.04 146.416 1888.47 142.689 Q1891.92 138.939 1897.75 138.939 Q1902.98 138.939 1906.02 142.318 Q1909.07 145.675 1909.07 151.462 M1904.81 150.212 Q1904.77 146.717 1902.84 144.633 Q1900.95 142.55 1897.8 142.55 Q1894.23 142.55 1892.08 144.564 Q1889.95 146.578 1889.63 150.235 L1904.81 150.212 Z" fill="#000000" fill-rule="nonzero" fill-opacity="1" /><path clip-path="url(#clip190)" d="M1928.98 150.605 L1941.46 150.605 L1941.46 154.402 L1928.98 154.402 L1928.98 150.605 Z" fill="#000000" fill-rule="nonzero" fill-opacity="1" /><path clip-path="url(#clip190)" d="M1967.43 161.601 L1967.43 175.351 L1963.14 175.351 L1963.14 139.564 L1967.43 139.564 L1967.43 143.499 Q1968.77 141.184 1970.81 140.073 Q1972.87 138.939 1975.71 138.939 Q1980.44 138.939 1983.38 142.689 Q1986.34 146.439 1986.34 152.55 Q1986.34 158.661 1983.38 162.411 Q1980.44 166.161 1975.71 166.161 Q1972.87 166.161 1970.81 165.05 Q1968.77 163.915 1967.43 161.601 M1981.92 152.55 Q1981.92 147.851 1979.97 145.189 Q1978.05 142.504 1974.67 142.504 Q1971.29 142.504 1969.35 145.189 Q1967.43 147.851 1967.43 152.55 Q1967.43 157.249 1969.35 159.934 Q1971.29 162.596 1974.67 162.596 Q1978.05 162.596 1979.97 159.934 Q1981.92 157.249 1981.92 152.55 Z" fill="#000000" fill-rule="nonzero" fill-opacity="1" /><path clip-path="url(#clip190)" d="M2003.45 142.55 Q2000.02 142.55 1998.03 145.235 Q1996.04 147.897 1996.04 152.55 Q1996.04 157.203 1998.01 159.888 Q2000 162.55 2003.45 162.55 Q2006.85 162.55 2008.84 159.865 Q2010.83 157.179 2010.83 152.55 Q2010.83 147.943 2008.84 145.258 Q2006.85 142.55 2003.45 142.55 M2003.45 138.939 Q2009 138.939 2012.17 142.55 Q2015.34 146.161 2015.34 152.55 Q2015.34 158.916 2012.17 162.55 Q2009 166.161 2003.45 166.161 Q1997.87 166.161 1994.7 162.55 Q1991.55 158.916 1991.55 152.55 Q1991.55 146.161 1994.7 142.55 Q1997.87 138.939 2003.45 138.939 Z" fill="#000000" fill-rule="nonzero" fill-opacity="1" /><path clip-path="url(#clip190)" d="M2022.4 139.564 L2026.66 139.564 L2026.66 165.49 L2022.4 165.49 L2022.4 139.564 M2022.4 129.471 L2026.66 129.471 L2026.66 134.865 L2022.4 134.865 L2022.4 129.471 Z" fill="#000000" fill-rule="nonzero" fill-opacity="1" /><path clip-path="url(#clip190)" d="M2057.13 149.841 L2057.13 165.49 L2052.87 165.49 L2052.87 149.98 Q2052.87 146.3 2051.43 144.471 Q2050 142.642 2047.13 142.642 Q2043.68 142.642 2041.69 144.842 Q2039.7 147.041 2039.7 150.837 L2039.7 165.49 L2035.41 165.49 L2035.41 139.564 L2039.7 139.564 L2039.7 143.592 Q2041.22 141.254 2043.28 140.096 Q2045.37 138.939 2048.07 138.939 Q2052.54 138.939 2054.83 141.717 Q2057.13 144.471 2057.13 149.841 Z" fill="#000000" fill-rule="nonzero" fill-opacity="1" /><path clip-path="url(#clip190)" d="M2069.83 132.203 L2069.83 139.564 L2078.61 139.564 L2078.61 142.874 L2069.83 142.874 L2069.83 156.948 Q2069.83 160.119 2070.69 161.022 Q2071.57 161.925 2074.23 161.925 L2078.61 161.925 L2078.61 165.49 L2074.23 165.49 Q2069.3 165.49 2067.43 163.661 Q2065.55 161.809 2065.55 156.948 L2065.55 142.874 L2062.43 142.874 L2062.43 139.564 L2065.55 139.564 L2065.55 132.203 L2069.83 132.203 Z" fill="#000000" fill-rule="nonzero" fill-opacity="1" /><path clip-path="url(#clip190)" d="M2115.81 140.328 L2115.81 144.355 Q2114 143.429 2112.06 142.967 Q2110.11 142.504 2108.03 142.504 Q2104.86 142.504 2103.26 143.476 Q2101.69 144.448 2101.69 146.392 Q2101.69 147.874 2102.82 148.73 Q2103.95 149.564 2107.38 150.328 L2108.84 150.652 Q2113.38 151.624 2115.27 153.406 Q2117.19 155.166 2117.19 158.337 Q2117.19 161.948 2114.32 164.054 Q2111.48 166.161 2106.48 166.161 Q2104.39 166.161 2102.13 165.744 Q2099.88 165.351 2097.38 164.54 L2097.38 160.142 Q2099.74 161.369 2102.03 161.994 Q2104.32 162.596 2106.57 162.596 Q2109.58 162.596 2111.2 161.578 Q2112.82 160.536 2112.82 158.661 Q2112.82 156.925 2111.64 155.999 Q2110.48 155.073 2106.52 154.216 L2105.04 153.869 Q2101.08 153.036 2099.32 151.323 Q2097.57 149.587 2097.57 146.578 Q2097.57 142.92 2100.16 140.93 Q2102.75 138.939 2107.52 138.939 Q2109.88 138.939 2111.96 139.286 Q2114.05 139.633 2115.81 140.328 Z" fill="#000000" fill-rule="nonzero" fill-opacity="1" /><path clip-path="url(#clip190)" d="M2128.1 161.601 L2128.1 175.351 L2123.82 175.351 L2123.82 139.564 L2128.1 139.564 L2128.1 143.499 Q2129.44 141.184 2131.48 140.073 Q2133.54 138.939 2136.38 138.939 Q2141.11 138.939 2144.05 142.689 Q2147.01 146.439 2147.01 152.55 Q2147.01 158.661 2144.05 162.411 Q2141.11 166.161 2136.38 166.161 Q2133.54 166.161 2131.48 165.05 Q2129.44 163.915 2128.1 161.601 M2142.59 152.55 Q2142.59 147.851 2140.64 145.189 Q2138.72 142.504 2135.34 142.504 Q2131.96 142.504 2130.02 145.189 Q2128.1 147.851 2128.1 152.55 Q2128.1 157.249 2130.02 159.934 Q2131.96 162.596 2135.34 162.596 Q2138.72 162.596 2140.64 159.934 Q2142.59 157.249 2142.59 152.55 Z" fill="#000000" fill-rule="nonzero" fill-opacity="1" /><path clip-path="url(#clip190)" d="M2169.09 143.545 Q2168.38 143.129 2167.52 142.943 Q2166.69 142.735 2165.67 142.735 Q2162.06 142.735 2160.11 145.096 Q2158.19 147.434 2158.19 151.832 L2158.19 165.49 L2153.91 165.49 L2153.91 139.564 L2158.19 139.564 L2158.19 143.592 Q2159.53 141.23 2161.69 140.096 Q2163.84 138.939 2166.92 138.939 Q2167.36 138.939 2167.89 139.008 Q2168.42 139.055 2169.07 139.17 L2169.09 143.545 Z" fill="#000000" fill-rule="nonzero" fill-opacity="1" /><path clip-path="url(#clip190)" d="M2194.69 151.462 L2194.69 153.545 L2175.11 153.545 Q2175.39 157.943 2177.75 160.258 Q2180.13 162.55 2184.37 162.55 Q2186.82 162.55 2189.12 161.948 Q2191.43 161.346 2193.7 160.142 L2193.7 164.17 Q2191.41 165.142 2189 165.652 Q2186.59 166.161 2184.12 166.161 Q2177.91 166.161 2174.28 162.55 Q2170.67 158.939 2170.67 152.781 Q2170.67 146.416 2174.09 142.689 Q2177.54 138.939 2183.38 138.939 Q2188.61 138.939 2191.64 142.318 Q2194.69 145.675 2194.69 151.462 M2190.44 150.212 Q2190.39 146.717 2188.47 144.633 Q2186.57 142.55 2183.42 142.55 Q2179.86 142.55 2177.7 144.564 Q2175.57 146.578 2175.25 150.235 L2190.44 150.212 Z" fill="#000000" fill-rule="nonzero" fill-opacity="1" /><path clip-path="url(#clip190)" d="M2213.47 152.457 Q2208.31 152.457 2206.31 153.638 Q2204.32 154.818 2204.32 157.666 Q2204.32 159.934 2205.81 161.277 Q2207.31 162.596 2209.88 162.596 Q2213.42 162.596 2215.55 160.096 Q2217.7 157.573 2217.7 153.406 L2217.7 152.457 L2213.47 152.457 M2221.96 150.698 L2221.96 165.49 L2217.7 165.49 L2217.7 161.554 Q2216.25 163.915 2214.07 165.05 Q2211.89 166.161 2208.75 166.161 Q2204.76 166.161 2202.4 163.939 Q2200.06 161.693 2200.06 157.943 Q2200.06 153.568 2202.98 151.346 Q2205.92 149.124 2211.73 149.124 L2217.7 149.124 L2217.7 148.707 Q2217.7 145.767 2215.76 144.17 Q2213.84 142.55 2210.34 142.55 Q2208.12 142.55 2206.01 143.082 Q2203.91 143.615 2201.96 144.679 L2201.96 140.744 Q2204.3 139.842 2206.5 139.402 Q2208.7 138.939 2210.78 138.939 Q2216.41 138.939 2219.19 141.855 Q2221.96 144.772 2221.96 150.698 Z" fill="#000000" fill-rule="nonzero" fill-opacity="1" /><path clip-path="url(#clip190)" d="M2247.8 143.499 L2247.8 129.471 L2252.06 129.471 L2252.06 165.49 L2247.8 165.49 L2247.8 161.601 Q2246.45 163.915 2244.39 165.05 Q2242.36 166.161 2239.49 166.161 Q2234.79 166.161 2231.82 162.411 Q2228.88 158.661 2228.88 152.55 Q2228.88 146.439 2231.82 142.689 Q2234.79 138.939 2239.49 138.939 Q2242.36 138.939 2244.39 140.073 Q2246.45 141.184 2247.8 143.499 M2233.28 152.55 Q2233.28 157.249 2235.2 159.934 Q2237.15 162.596 2240.53 162.596 Q2243.91 162.596 2245.85 159.934 Q2247.8 157.249 2247.8 152.55 Q2247.8 147.851 2245.85 145.189 Q2243.91 142.504 2240.53 142.504 Q2237.15 142.504 2235.2 145.189 Q2233.28 147.851 2233.28 152.55 Z" fill="#000000" fill-rule="nonzero" fill-opacity="1" /></svg>
