<?xml version="1.0" encoding="utf-8"?>
<svg xmlns="http://www.w3.org/2000/svg" xmlns:xlink="http://www.w3.org/1999/xlink" width="600" height="400" viewBox="0 0 2400 1600">
<defs>
  <clipPath id="clip870">
    <rect x="0" y="0" width="2400" height="1600"/>
  </clipPath>
</defs>
<path clip-path="url(#clip870)" d="M0 1600 L2400 1600 L2400 0 L0 0  Z" fill="#ffffff" fill-rule="evenodd" fill-opacity="1"/>
<defs>
  <clipPath id="clip871">
    <rect x="480" y="0" width="1681" height="1600"/>
  </clipPath>
</defs>
<path clip-path="url(#clip870)" d="M86.9921 1521.01 L2352.76 1521.01 L2352.76 47.2441 L86.9921 47.2441  Z" fill="#ffffff" fill-rule="evenodd" fill-opacity="1"/>
<defs>
  <clipPath id="clip872">
    <rect x="86" y="47" width="2267" height="1475"/>
  </clipPath>
</defs>
<polyline clip-path="url(#clip872)" style="stroke:#000000; stroke-linecap:round; stroke-linejoin:round; stroke-width:2; stroke-opacity:0.1; fill:none" points="211.613,1521.01 211.613,47.2441 "/>
<polyline clip-path="url(#clip872)" style="stroke:#000000; stroke-linecap:round; stroke-linejoin:round; stroke-width:2; stroke-opacity:0.1; fill:none" points="691.737,1521.01 691.737,47.2441 "/>
<polyline clip-path="url(#clip872)" style="stroke:#000000; stroke-linecap:round; stroke-linejoin:round; stroke-width:2; stroke-opacity:0.1; fill:none" points="1171.86,1521.01 1171.86,47.2441 "/>
<polyline clip-path="url(#clip872)" style="stroke:#000000; stroke-linecap:round; stroke-linejoin:round; stroke-width:2; stroke-opacity:0.1; fill:none" points="1651.99,1521.01 1651.99,47.2441 "/>
<polyline clip-path="url(#clip872)" style="stroke:#000000; stroke-linecap:round; stroke-linejoin:round; stroke-width:2; stroke-opacity:0.1; fill:none" points="2132.11,1521.01 2132.11,47.2441 "/>
<polyline clip-path="url(#clip870)" style="stroke:#000000; stroke-linecap:round; stroke-linejoin:round; stroke-width:4; stroke-opacity:1; fill:none" points="86.9921,1521.01 2352.76,1521.01 "/>
<polyline clip-path="url(#clip870)" style="stroke:#000000; stroke-linecap:round; stroke-linejoin:round; stroke-width:4; stroke-opacity:1; fill:none" points="211.613,1521.01 211.613,1502.11 "/>
<polyline clip-path="url(#clip870)" style="stroke:#000000; stroke-linecap:round; stroke-linejoin:round; stroke-width:4; stroke-opacity:1; fill:none" points="691.737,1521.01 691.737,1502.11 "/>
<polyline clip-path="url(#clip870)" style="stroke:#000000; stroke-linecap:round; stroke-linejoin:round; stroke-width:4; stroke-opacity:1; fill:none" points="1171.86,1521.01 1171.86,1502.11 "/>
<polyline clip-path="url(#clip870)" style="stroke:#000000; stroke-linecap:round; stroke-linejoin:round; stroke-width:4; stroke-opacity:1; fill:none" points="1651.99,1521.01 1651.99,1502.11 "/>
<polyline clip-path="url(#clip870)" style="stroke:#000000; stroke-linecap:round; stroke-linejoin:round; stroke-width:4; stroke-opacity:1; fill:none" points="2132.11,1521.01 2132.11,1502.11 "/>
<path clip-path="url(#clip870)" d="M165.676 1566.58 L195.352 1566.58 L195.352 1570.51 L165.676 1570.51 L165.676 1566.58 Z" fill="#000000" fill-rule="nonzero" fill-opacity="1" /><path clip-path="url(#clip870)" d="M205.491 1548.85 L223.847 1548.85 L223.847 1552.78 L209.773 1552.78 L209.773 1561.26 Q210.791 1560.91 211.81 1560.75 Q212.828 1560.56 213.847 1560.56 Q219.634 1560.56 223.014 1563.73 Q226.393 1566.9 226.393 1572.32 Q226.393 1577.9 222.921 1581 Q219.449 1584.08 213.129 1584.08 Q210.953 1584.08 208.685 1583.71 Q206.44 1583.34 204.032 1582.6 L204.032 1577.9 Q206.116 1579.03 208.338 1579.59 Q210.56 1580.14 213.037 1580.14 Q217.041 1580.14 219.379 1578.04 Q221.717 1575.93 221.717 1572.32 Q221.717 1568.71 219.379 1566.6 Q217.041 1564.5 213.037 1564.5 Q211.162 1564.5 209.287 1564.91 Q207.435 1565.33 205.491 1566.21 L205.491 1548.85 Z" fill="#000000" fill-rule="nonzero" fill-opacity="1" /><path clip-path="url(#clip870)" d="M245.606 1551.93 Q241.995 1551.93 240.166 1555.49 Q238.361 1559.03 238.361 1566.16 Q238.361 1573.27 240.166 1576.83 Q241.995 1580.38 245.606 1580.38 Q249.24 1580.38 251.046 1576.83 Q252.875 1573.27 252.875 1566.16 Q252.875 1559.03 251.046 1555.49 Q249.24 1551.93 245.606 1551.93 M245.606 1548.22 Q251.416 1548.22 254.472 1552.83 Q257.55 1557.41 257.55 1566.16 Q257.55 1574.89 254.472 1579.5 Q251.416 1584.08 245.606 1584.08 Q239.796 1584.08 236.717 1579.5 Q233.662 1574.89 233.662 1566.16 Q233.662 1557.41 236.717 1552.83 Q239.796 1548.22 245.606 1548.22 Z" fill="#000000" fill-rule="nonzero" fill-opacity="1" /><path clip-path="url(#clip870)" d="M646.298 1566.58 L675.974 1566.58 L675.974 1570.51 L646.298 1570.51 L646.298 1566.58 Z" fill="#000000" fill-rule="nonzero" fill-opacity="1" /><path clip-path="url(#clip870)" d="M690.094 1579.47 L706.413 1579.47 L706.413 1583.41 L684.469 1583.41 L684.469 1579.47 Q687.131 1576.72 691.714 1572.09 Q696.321 1567.44 697.501 1566.09 Q699.747 1563.57 700.626 1561.83 Q701.529 1560.07 701.529 1558.38 Q701.529 1555.63 699.585 1553.89 Q697.663 1552.16 694.561 1552.16 Q692.362 1552.16 689.909 1552.92 Q687.478 1553.69 684.7 1555.24 L684.7 1550.51 Q687.524 1549.38 689.978 1548.8 Q692.432 1548.22 694.469 1548.22 Q699.839 1548.22 703.034 1550.91 Q706.228 1553.59 706.228 1558.08 Q706.228 1560.21 705.418 1562.13 Q704.631 1564.03 702.524 1566.63 Q701.946 1567.3 698.844 1570.51 Q695.742 1573.71 690.094 1579.47 Z" fill="#000000" fill-rule="nonzero" fill-opacity="1" /><path clip-path="url(#clip870)" d="M716.274 1548.85 L734.631 1548.85 L734.631 1552.78 L720.557 1552.78 L720.557 1561.26 Q721.575 1560.91 722.594 1560.75 Q723.612 1560.56 724.631 1560.56 Q730.418 1560.56 733.797 1563.73 Q737.177 1566.9 737.177 1572.32 Q737.177 1577.9 733.705 1581 Q730.233 1584.08 723.913 1584.08 Q721.737 1584.08 719.469 1583.71 Q717.223 1583.34 714.816 1582.6 L714.816 1577.9 Q716.899 1579.03 719.121 1579.59 Q721.344 1580.14 723.821 1580.14 Q727.825 1580.14 730.163 1578.04 Q732.501 1575.93 732.501 1572.32 Q732.501 1568.71 730.163 1566.6 Q727.825 1564.5 723.821 1564.5 Q721.946 1564.5 720.071 1564.91 Q718.219 1565.33 716.274 1566.21 L716.274 1548.85 Z" fill="#000000" fill-rule="nonzero" fill-opacity="1" /><path clip-path="url(#clip870)" d="M1171.86 1551.93 Q1168.25 1551.93 1166.42 1555.49 Q1164.62 1559.03 1164.62 1566.16 Q1164.62 1573.27 1166.42 1576.83 Q1168.25 1580.38 1171.86 1580.38 Q1175.5 1580.38 1177.3 1576.83 Q1179.13 1573.27 1179.13 1566.16 Q1179.13 1559.03 1177.3 1555.49 Q1175.5 1551.93 1171.86 1551.93 M1171.86 1548.22 Q1177.67 1548.22 1180.73 1552.83 Q1183.81 1557.41 1183.81 1566.16 Q1183.81 1574.89 1180.73 1579.5 Q1177.67 1584.08 1171.86 1584.08 Q1166.05 1584.08 1162.97 1579.5 Q1159.92 1574.89 1159.92 1566.16 Q1159.92 1557.41 1162.97 1552.83 Q1166.05 1548.22 1171.86 1548.22 Z" fill="#000000" fill-rule="nonzero" fill-opacity="1" /><path clip-path="url(#clip870)" d="M1631.26 1579.47 L1647.58 1579.47 L1647.58 1583.41 L1625.63 1583.41 L1625.63 1579.47 Q1628.29 1576.72 1632.88 1572.09 Q1637.48 1567.44 1638.66 1566.09 Q1640.91 1563.57 1641.79 1561.83 Q1642.69 1560.07 1642.69 1558.38 Q1642.69 1555.63 1640.75 1553.89 Q1638.83 1552.16 1635.72 1552.16 Q1633.53 1552.16 1631.07 1552.92 Q1628.64 1553.69 1625.86 1555.24 L1625.86 1550.51 Q1628.69 1549.38 1631.14 1548.8 Q1633.59 1548.22 1635.63 1548.22 Q1641 1548.22 1644.2 1550.91 Q1647.39 1553.59 1647.39 1558.08 Q1647.39 1560.21 1646.58 1562.13 Q1645.79 1564.03 1643.69 1566.63 Q1643.11 1567.3 1640.01 1570.51 Q1636.9 1573.71 1631.26 1579.47 Z" fill="#000000" fill-rule="nonzero" fill-opacity="1" /><path clip-path="url(#clip870)" d="M1657.44 1548.85 L1675.79 1548.85 L1675.79 1552.78 L1661.72 1552.78 L1661.72 1561.26 Q1662.74 1560.91 1663.76 1560.75 Q1664.78 1560.56 1665.79 1560.56 Q1671.58 1560.56 1674.96 1563.73 Q1678.34 1566.9 1678.34 1572.32 Q1678.34 1577.9 1674.87 1581 Q1671.4 1584.08 1665.08 1584.08 Q1662.9 1584.08 1660.63 1583.71 Q1658.39 1583.34 1655.98 1582.6 L1655.98 1577.9 Q1658.06 1579.03 1660.28 1579.59 Q1662.51 1580.14 1664.98 1580.14 Q1668.99 1580.14 1671.33 1578.04 Q1673.66 1575.93 1673.66 1572.32 Q1673.66 1568.71 1671.33 1566.6 Q1668.99 1564.5 1664.98 1564.5 Q1663.11 1564.5 1661.23 1564.91 Q1659.38 1565.33 1657.44 1566.21 L1657.44 1548.85 Z" fill="#000000" fill-rule="nonzero" fill-opacity="1" /><path clip-path="url(#clip870)" d="M2106.81 1548.85 L2125.17 1548.85 L2125.17 1552.78 L2111.09 1552.78 L2111.09 1561.26 Q2112.11 1560.91 2113.13 1560.75 Q2114.15 1560.56 2115.17 1560.56 Q2120.95 1560.56 2124.33 1563.73 Q2127.71 1566.9 2127.71 1572.32 Q2127.71 1577.9 2124.24 1581 Q2120.77 1584.08 2114.45 1584.08 Q2112.27 1584.08 2110 1583.71 Q2107.76 1583.34 2105.35 1582.6 L2105.35 1577.9 Q2107.43 1579.03 2109.66 1579.59 Q2111.88 1580.14 2114.36 1580.14 Q2118.36 1580.14 2120.7 1578.04 Q2123.04 1575.93 2123.04 1572.32 Q2123.04 1568.71 2120.7 1566.6 Q2118.36 1564.5 2114.36 1564.5 Q2112.48 1564.5 2110.61 1564.91 Q2108.75 1565.33 2106.81 1566.21 L2106.81 1548.85 Z" fill="#000000" fill-rule="nonzero" fill-opacity="1" /><path clip-path="url(#clip870)" d="M2146.92 1551.93 Q2143.31 1551.93 2141.48 1555.49 Q2139.68 1559.03 2139.68 1566.16 Q2139.68 1573.27 2141.48 1576.83 Q2143.31 1580.38 2146.92 1580.38 Q2150.56 1580.38 2152.36 1576.83 Q2154.19 1573.27 2154.19 1566.16 Q2154.19 1559.03 2152.36 1555.49 Q2150.56 1551.93 2146.92 1551.93 M2146.92 1548.22 Q2152.73 1548.22 2155.79 1552.83 Q2158.87 1557.41 2158.87 1566.16 Q2158.87 1574.89 2155.79 1579.5 Q2152.73 1584.08 2146.92 1584.08 Q2141.11 1584.08 2138.04 1579.5 Q2134.98 1574.89 2134.98 1566.16 Q2134.98 1557.41 2138.04 1552.83 Q2141.11 1548.22 2146.92 1548.22 Z" fill="#000000" fill-rule="nonzero" fill-opacity="1" /><polyline clip-path="url(#clip872)" style="stroke:#000000; stroke-linecap:round; stroke-linejoin:round; stroke-width:2; stroke-opacity:0.1; fill:none" points="86.9921,1521.01 2352.76,1521.01 "/>
<polyline clip-path="url(#clip872)" style="stroke:#000000; stroke-linecap:round; stroke-linejoin:round; stroke-width:2; stroke-opacity:0.1; fill:none" points="86.9921,1111.63 2352.76,1111.63 "/>
<polyline clip-path="url(#clip872)" style="stroke:#000000; stroke-linecap:round; stroke-linejoin:round; stroke-width:2; stroke-opacity:0.1; fill:none" points="86.9921,702.25 2352.76,702.25 "/>
<polyline clip-path="url(#clip872)" style="stroke:#000000; stroke-linecap:round; stroke-linejoin:round; stroke-width:2; stroke-opacity:0.1; fill:none" points="86.9921,292.871 2352.76,292.871 "/>
<polyline clip-path="url(#clip870)" style="stroke:#000000; stroke-linecap:round; stroke-linejoin:round; stroke-width:4; stroke-opacity:1; fill:none" points="86.9921,1521.01 86.9921,47.2441 "/>
<polyline clip-path="url(#clip870)" style="stroke:#000000; stroke-linecap:round; stroke-linejoin:round; stroke-width:4; stroke-opacity:1; fill:none" points="86.9921,1521.01 105.89,1521.01 "/>
<polyline clip-path="url(#clip870)" style="stroke:#000000; stroke-linecap:round; stroke-linejoin:round; stroke-width:4; stroke-opacity:1; fill:none" points="86.9921,1111.63 105.89,1111.63 "/>
<polyline clip-path="url(#clip870)" style="stroke:#000000; stroke-linecap:round; stroke-linejoin:round; stroke-width:4; stroke-opacity:1; fill:none" points="86.9921,702.25 105.89,702.25 "/>
<polyline clip-path="url(#clip870)" style="stroke:#000000; stroke-linecap:round; stroke-linejoin:round; stroke-width:4; stroke-opacity:1; fill:none" points="86.9921,292.871 105.89,292.871 "/>
<path clip-path="url(#clip870)" d="M39.0477 1506.81 Q35.4367 1506.81 33.608 1510.37 Q31.8024 1513.91 31.8024 1521.04 Q31.8024 1528.15 33.608 1531.71 Q35.4367 1535.26 39.0477 1535.26 Q42.682 1535.26 44.4875 1531.71 Q46.3162 1528.15 46.3162 1521.04 Q46.3162 1513.91 44.4875 1510.37 Q42.682 1506.81 39.0477 1506.81 M39.0477 1503.1 Q44.8579 1503.1 47.9134 1507.71 Q50.9921 1512.29 50.9921 1521.04 Q50.9921 1529.77 47.9134 1534.38 Q44.8579 1538.96 39.0477 1538.96 Q33.2376 1538.96 30.1589 1534.38 Q27.1034 1529.77 27.1034 1521.04 Q27.1034 1512.29 30.1589 1507.71 Q33.2376 1503.1 39.0477 1503.1 Z" fill="#000000" fill-rule="nonzero" fill-opacity="1" /><path clip-path="url(#clip870)" d="M-30.4658 1124.97 L-22.8269 1124.97 L-22.8269 1098.61 L-31.1371 1100.27 L-31.1371 1096.02 L-22.8732 1094.35 L-18.1973 1094.35 L-18.1973 1124.97 L-10.5585 1124.97 L-10.5585 1128.91 L-30.4658 1128.91 L-30.4658 1124.97 Z" fill="#000000" fill-rule="nonzero" fill-opacity="1" /><path clip-path="url(#clip870)" d="M8.88587 1097.43 Q5.27478 1097.43 3.44608 1100.99 Q1.64054 1104.53 1.64054 1111.66 Q1.64054 1118.77 3.44608 1122.34 Q5.27478 1125.88 8.88587 1125.88 Q12.5201 1125.88 14.3257 1122.34 Q16.1543 1118.77 16.1543 1111.66 Q16.1543 1104.53 14.3257 1100.99 Q12.5201 1097.43 8.88587 1097.43 M8.88587 1093.72 Q14.696 1093.72 17.7516 1098.33 Q20.8303 1102.91 20.8303 1111.66 Q20.8303 1120.39 17.7516 1125 Q14.696 1129.58 8.88587 1129.58 Q3.07572 1129.58 -0.00297114 1125 Q-3.05851 1120.39 -3.05851 1111.66 Q-3.05851 1102.91 -0.00297114 1098.33 Q3.07572 1093.72 8.88587 1093.72 Z" fill="#000000" fill-rule="nonzero" fill-opacity="1" /><path clip-path="url(#clip870)" d="M39.0477 1097.43 Q35.4367 1097.43 33.608 1100.99 Q31.8024 1104.53 31.8024 1111.66 Q31.8024 1118.77 33.608 1122.34 Q35.4367 1125.88 39.0477 1125.88 Q42.682 1125.88 44.4875 1122.34 Q46.3162 1118.77 46.3162 1111.66 Q46.3162 1104.53 44.4875 1100.99 Q42.682 1097.43 39.0477 1097.43 M39.0477 1093.72 Q44.8579 1093.72 47.9134 1098.33 Q50.9921 1102.91 50.9921 1111.66 Q50.9921 1120.39 47.9134 1125 Q44.8579 1129.58 39.0477 1129.58 Q33.2376 1129.58 30.1589 1125 Q27.1034 1120.39 27.1034 1111.66 Q27.1034 1102.91 30.1589 1098.33 Q33.2376 1093.72 39.0477 1093.72 Z" fill="#000000" fill-rule="nonzero" fill-opacity="1" /><path clip-path="url(#clip870)" d="M-27.2482 715.595 L-10.9288 715.595 L-10.9288 719.53 L-32.8732 719.53 L-32.8732 715.595 Q-30.2111 712.84 -25.6278 708.211 Q-21.0214 703.558 -19.8408 702.215 Q-17.5955 699.692 -16.7158 697.956 Q-15.8131 696.197 -15.8131 694.507 Q-15.8131 691.753 -17.7575 690.016 Q-19.6788 688.28 -22.7806 688.28 Q-24.9797 688.28 -27.4334 689.044 Q-29.8639 689.808 -32.6417 691.359 L-32.6417 686.637 Q-29.8176 685.503 -27.3639 684.924 Q-24.9102 684.345 -22.8732 684.345 Q-17.5029 684.345 -14.3085 687.03 Q-11.114 689.716 -11.114 694.206 Q-11.114 696.336 -11.9242 698.257 Q-12.7112 700.155 -14.8177 702.748 Q-15.3964 703.419 -18.4982 706.637 Q-21.6001 709.831 -27.2482 715.595 Z" fill="#000000" fill-rule="nonzero" fill-opacity="1" /><path clip-path="url(#clip870)" d="M8.88587 688.049 Q5.27478 688.049 3.44608 691.614 Q1.64054 695.155 1.64054 702.285 Q1.64054 709.391 3.44608 712.956 Q5.27478 716.498 8.88587 716.498 Q12.5201 716.498 14.3257 712.956 Q16.1543 709.391 16.1543 702.285 Q16.1543 695.155 14.3257 691.614 Q12.5201 688.049 8.88587 688.049 M8.88587 684.345 Q14.696 684.345 17.7516 688.952 Q20.8303 693.535 20.8303 702.285 Q20.8303 711.012 17.7516 715.618 Q14.696 720.202 8.88587 720.202 Q3.07572 720.202 -0.00297114 715.618 Q-3.05851 711.012 -3.05851 702.285 Q-3.05851 693.535 -0.00297114 688.952 Q3.07572 684.345 8.88587 684.345 Z" fill="#000000" fill-rule="nonzero" fill-opacity="1" /><path clip-path="url(#clip870)" d="M39.0477 688.049 Q35.4367 688.049 33.608 691.614 Q31.8024 695.155 31.8024 702.285 Q31.8024 709.391 33.608 712.956 Q35.4367 716.498 39.0477 716.498 Q42.682 716.498 44.4875 712.956 Q46.3162 709.391 46.3162 702.285 Q46.3162 695.155 44.4875 691.614 Q42.682 688.049 39.0477 688.049 M39.0477 684.345 Q44.8579 684.345 47.9134 688.952 Q50.9921 693.535 50.9921 702.285 Q50.9921 711.012 47.9134 715.618 Q44.8579 720.202 39.0477 720.202 Q33.2376 720.202 30.1589 715.618 Q27.1034 711.012 27.1034 702.285 Q27.1034 693.535 30.1589 688.952 Q33.2376 684.345 39.0477 684.345 Z" fill="#000000" fill-rule="nonzero" fill-opacity="1" /><path clip-path="url(#clip870)" d="M-17.1094 291.517 Q-13.7529 292.235 -11.8779 294.503 Q-9.97977 296.772 -9.97977 300.105 Q-9.97977 305.221 -13.4983 308.022 Q-17.0168 310.823 -23.4982 310.823 Q-25.6741 310.823 -27.9889 310.383 Q-30.2806 309.966 -32.7343 309.11 L-32.7343 304.596 Q-30.7898 305.73 -28.475 306.309 Q-26.1602 306.888 -23.6371 306.888 Q-19.239 306.888 -16.9473 305.151 Q-14.6325 303.415 -14.6325 300.105 Q-14.6325 297.05 -16.7853 295.337 Q-18.9149 293.601 -22.7343 293.601 L-26.7621 293.601 L-26.7621 289.758 L-22.5491 289.758 Q-19.1001 289.758 -17.2714 288.392 Q-15.4427 287.003 -15.4427 284.411 Q-15.4427 281.749 -17.3408 280.337 Q-19.2158 278.902 -22.7343 278.902 Q-24.6556 278.902 -26.8547 279.318 Q-29.0537 279.735 -31.6926 280.615 L-31.6926 276.448 Q-29.0306 275.707 -26.7158 275.337 Q-24.3778 274.966 -22.3177 274.966 Q-16.9936 274.966 -13.8918 277.397 Q-10.79 279.804 -10.79 283.925 Q-10.79 286.795 -12.4335 288.786 Q-14.077 290.753 -17.1094 291.517 Z" fill="#000000" fill-rule="nonzero" fill-opacity="1" /><path clip-path="url(#clip870)" d="M8.88587 278.67 Q5.27478 278.67 3.44608 282.235 Q1.64054 285.777 1.64054 292.906 Q1.64054 300.013 3.44608 303.577 Q5.27478 307.119 8.88587 307.119 Q12.5201 307.119 14.3257 303.577 Q16.1543 300.013 16.1543 292.906 Q16.1543 285.777 14.3257 282.235 Q12.5201 278.67 8.88587 278.67 M8.88587 274.966 Q14.696 274.966 17.7516 279.573 Q20.8303 284.156 20.8303 292.906 Q20.8303 301.633 17.7516 306.239 Q14.696 310.823 8.88587 310.823 Q3.07572 310.823 -0.00297114 306.239 Q-3.05851 301.633 -3.05851 292.906 Q-3.05851 284.156 -0.00297114 279.573 Q3.07572 274.966 8.88587 274.966 Z" fill="#000000" fill-rule="nonzero" fill-opacity="1" /><path clip-path="url(#clip870)" d="M39.0477 278.67 Q35.4367 278.67 33.608 282.235 Q31.8024 285.777 31.8024 292.906 Q31.8024 300.013 33.608 303.577 Q35.4367 307.119 39.0477 307.119 Q42.682 307.119 44.4875 303.577 Q46.3162 300.013 46.3162 292.906 Q46.3162 285.777 44.4875 282.235 Q42.682 278.67 39.0477 278.67 M39.0477 274.966 Q44.8579 274.966 47.9134 279.573 Q50.9921 284.156 50.9921 292.906 Q50.9921 301.633 47.9134 306.239 Q44.8579 310.823 39.0477 310.823 Q33.2376 310.823 30.1589 306.239 Q27.1034 301.633 27.1034 292.906 Q27.1034 284.156 30.1589 279.573 Q33.2376 274.966 39.0477 274.966 Z" fill="#000000" fill-rule="nonzero" fill-opacity="1" /><path clip-path="url(#clip872)" d="M211.613 1516.91 L211.613 1521.01 L307.638 1521.01 L307.638 1516.91 L211.613 1516.91 L211.613 1516.91  Z" fill="#009af9" fill-rule="evenodd" fill-opacity="1"/>
<polyline clip-path="url(#clip872)" style="stroke:#000000; stroke-linecap:round; stroke-linejoin:round; stroke-width:4; stroke-opacity:1; fill:none" points="211.613,1516.91 211.613,1521.01 307.638,1521.01 307.638,1516.91 211.613,1516.91 "/>
<path clip-path="url(#clip872)" d="M307.638 1504.63 L307.638 1521.01 L403.663 1521.01 L403.663 1504.63 L307.638 1504.63 L307.638 1504.63  Z" fill="#009af9" fill-rule="evenodd" fill-opacity="1"/>
<polyline clip-path="url(#clip872)" style="stroke:#000000; stroke-linecap:round; stroke-linejoin:round; stroke-width:4; stroke-opacity:1; fill:none" points="307.638,1504.63 307.638,1521.01 403.663,1521.01 403.663,1504.63 307.638,1504.63 "/>
<path clip-path="url(#clip872)" d="M403.663 1492.35 L403.663 1521.01 L499.688 1521.01 L499.688 1492.35 L403.663 1492.35 L403.663 1492.35  Z" fill="#009af9" fill-rule="evenodd" fill-opacity="1"/>
<polyline clip-path="url(#clip872)" style="stroke:#000000; stroke-linecap:round; stroke-linejoin:round; stroke-width:4; stroke-opacity:1; fill:none" points="403.663,1492.35 403.663,1521.01 499.688,1521.01 499.688,1492.35 403.663,1492.35 "/>
<path clip-path="url(#clip872)" d="M499.688 1443.23 L499.688 1521.01 L595.713 1521.01 L595.713 1443.23 L499.688 1443.23 L499.688 1443.23  Z" fill="#009af9" fill-rule="evenodd" fill-opacity="1"/>
<polyline clip-path="url(#clip872)" style="stroke:#000000; stroke-linecap:round; stroke-linejoin:round; stroke-width:4; stroke-opacity:1; fill:none" points="499.688,1443.23 499.688,1521.01 595.713,1521.01 595.713,1443.23 499.688,1443.23 "/>
<path clip-path="url(#clip872)" d="M595.713 1336.79 L595.713 1521.01 L691.737 1521.01 L691.737 1336.79 L595.713 1336.79 L595.713 1336.79  Z" fill="#009af9" fill-rule="evenodd" fill-opacity="1"/>
<polyline clip-path="url(#clip872)" style="stroke:#000000; stroke-linecap:round; stroke-linejoin:round; stroke-width:4; stroke-opacity:1; fill:none" points="595.713,1336.79 595.713,1521.01 691.737,1521.01 691.737,1336.79 595.713,1336.79 "/>
<path clip-path="url(#clip872)" d="M691.737 1173.04 L691.737 1521.01 L787.762 1521.01 L787.762 1173.04 L691.737 1173.04 L691.737 1173.04  Z" fill="#009af9" fill-rule="evenodd" fill-opacity="1"/>
<polyline clip-path="url(#clip872)" style="stroke:#000000; stroke-linecap:round; stroke-linejoin:round; stroke-width:4; stroke-opacity:1; fill:none" points="691.737,1173.04 691.737,1521.01 787.762,1521.01 787.762,1173.04 691.737,1173.04 "/>
<path clip-path="url(#clip872)" d="M787.762 1074.78 L787.762 1521.01 L883.787 1521.01 L883.787 1074.78 L787.762 1074.78 L787.762 1074.78  Z" fill="#009af9" fill-rule="evenodd" fill-opacity="1"/>
<polyline clip-path="url(#clip872)" style="stroke:#000000; stroke-linecap:round; stroke-linejoin:round; stroke-width:4; stroke-opacity:1; fill:none" points="787.762,1074.78 787.762,1521.01 883.787,1521.01 883.787,1074.78 787.762,1074.78 "/>
<path clip-path="url(#clip872)" d="M883.787 804.595 L883.787 1521.01 L979.812 1521.01 L979.812 804.595 L883.787 804.595 L883.787 804.595  Z" fill="#009af9" fill-rule="evenodd" fill-opacity="1"/>
<polyline clip-path="url(#clip872)" style="stroke:#000000; stroke-linecap:round; stroke-linejoin:round; stroke-width:4; stroke-opacity:1; fill:none" points="883.787,804.595 883.787,1521.01 979.812,1521.01 979.812,804.595 883.787,804.595 "/>
<path clip-path="url(#clip872)" d="M979.812 276.496 L979.812 1521.01 L1075.84 1521.01 L1075.84 276.496 L979.812 276.496 L979.812 276.496  Z" fill="#009af9" fill-rule="evenodd" fill-opacity="1"/>
<polyline clip-path="url(#clip872)" style="stroke:#000000; stroke-linecap:round; stroke-linejoin:round; stroke-width:4; stroke-opacity:1; fill:none" points="979.812,276.496 979.812,1521.01 1075.84,1521.01 1075.84,276.496 979.812,276.496 "/>
<path clip-path="url(#clip872)" d="M1075.84 47.2441 L1075.84 1521.01 L1171.86 1521.01 L1171.86 47.2441 L1075.84 47.2441 L1075.84 47.2441  Z" fill="#009af9" fill-rule="evenodd" fill-opacity="1"/>
<polyline clip-path="url(#clip872)" style="stroke:#000000; stroke-linecap:round; stroke-linejoin:round; stroke-width:4; stroke-opacity:1; fill:none" points="1075.84,47.2441 1075.84,1521.01 1171.86,1521.01 1171.86,47.2441 1075.84,47.2441 "/>
<path clip-path="url(#clip872)" d="M1171.86 96.3696 L1171.86 1521.01 L1267.89 1521.01 L1267.89 96.3696 L1171.86 96.3696 L1171.86 96.3696  Z" fill="#009af9" fill-rule="evenodd" fill-opacity="1"/>
<polyline clip-path="url(#clip872)" style="stroke:#000000; stroke-linecap:round; stroke-linejoin:round; stroke-width:4; stroke-opacity:1; fill:none" points="1171.86,96.3696 1171.86,1521.01 1267.89,1521.01 1267.89,96.3696 1171.86,96.3696 "/>
<path clip-path="url(#clip872)" d="M1267.89 489.373 L1267.89 1521.01 L1363.91 1521.01 L1363.91 489.373 L1267.89 489.373 L1267.89 489.373  Z" fill="#009af9" fill-rule="evenodd" fill-opacity="1"/>
<polyline clip-path="url(#clip872)" style="stroke:#000000; stroke-linecap:round; stroke-linejoin:round; stroke-width:4; stroke-opacity:1; fill:none" points="1267.89,489.373 1267.89,1521.01 1363.91,1521.01 1363.91,489.373 1267.89,489.373 "/>
<path clip-path="url(#clip872)" d="M1363.91 653.125 L1363.91 1521.01 L1459.94 1521.01 L1459.94 653.125 L1363.91 653.125 L1363.91 653.125  Z" fill="#009af9" fill-rule="evenodd" fill-opacity="1"/>
<polyline clip-path="url(#clip872)" style="stroke:#000000; stroke-linecap:round; stroke-linejoin:round; stroke-width:4; stroke-opacity:1; fill:none" points="1363.91,653.125 1363.91,1521.01 1459.94,1521.01 1459.94,653.125 1363.91,653.125 "/>
<path clip-path="url(#clip872)" d="M1459.94 1042.03 L1459.94 1521.01 L1555.96 1521.01 L1555.96 1042.03 L1459.94 1042.03 L1459.94 1042.03  Z" fill="#009af9" fill-rule="evenodd" fill-opacity="1"/>
<polyline clip-path="url(#clip872)" style="stroke:#000000; stroke-linecap:round; stroke-linejoin:round; stroke-width:4; stroke-opacity:1; fill:none" points="1459.94,1042.03 1459.94,1521.01 1555.96,1521.01 1555.96,1042.03 1459.94,1042.03 "/>
<path clip-path="url(#clip872)" d="M1555.96 1082.97 L1555.96 1521.01 L1651.99 1521.01 L1651.99 1082.97 L1555.96 1082.97 L1555.96 1082.97  Z" fill="#009af9" fill-rule="evenodd" fill-opacity="1"/>
<polyline clip-path="url(#clip872)" style="stroke:#000000; stroke-linecap:round; stroke-linejoin:round; stroke-width:4; stroke-opacity:1; fill:none" points="1555.96,1082.97 1555.96,1521.01 1651.99,1521.01 1651.99,1082.97 1555.96,1082.97 "/>
<path clip-path="url(#clip872)" d="M1651.99 1263.1 L1651.99 1521.01 L1748.01 1521.01 L1748.01 1263.1 L1651.99 1263.1 L1651.99 1263.1  Z" fill="#009af9" fill-rule="evenodd" fill-opacity="1"/>
<polyline clip-path="url(#clip872)" style="stroke:#000000; stroke-linecap:round; stroke-linejoin:round; stroke-width:4; stroke-opacity:1; fill:none" points="1651.99,1263.1 1651.99,1521.01 1748.01,1521.01 1748.01,1263.1 1651.99,1263.1 "/>
<path clip-path="url(#clip872)" d="M1748.01 1447.32 L1748.01 1521.01 L1844.04 1521.01 L1844.04 1447.32 L1748.01 1447.32 L1748.01 1447.32  Z" fill="#009af9" fill-rule="evenodd" fill-opacity="1"/>
<polyline clip-path="url(#clip872)" style="stroke:#000000; stroke-linecap:round; stroke-linejoin:round; stroke-width:4; stroke-opacity:1; fill:none" points="1748.01,1447.32 1748.01,1521.01 1844.04,1521.01 1844.04,1447.32 1748.01,1447.32 "/>
<path clip-path="url(#clip872)" d="M1844.04 1475.98 L1844.04 1521.01 L1940.06 1521.01 L1940.06 1475.98 L1844.04 1475.98 L1844.04 1475.98  Z" fill="#009af9" fill-rule="evenodd" fill-opacity="1"/>
<polyline clip-path="url(#clip872)" style="stroke:#000000; stroke-linecap:round; stroke-linejoin:round; stroke-width:4; stroke-opacity:1; fill:none" points="1844.04,1475.98 1844.04,1521.01 1940.06,1521.01 1940.06,1475.98 1844.04,1475.98 "/>
<path clip-path="url(#clip872)" d="M1940.06 1516.91 L1940.06 1521.01 L2036.09 1521.01 L2036.09 1516.91 L1940.06 1516.91 L1940.06 1516.91  Z" fill="#009af9" fill-rule="evenodd" fill-opacity="1"/>
<polyline clip-path="url(#clip872)" style="stroke:#000000; stroke-linecap:round; stroke-linejoin:round; stroke-width:4; stroke-opacity:1; fill:none" points="1940.06,1516.91 1940.06,1521.01 2036.09,1521.01 2036.09,1516.91 1940.06,1516.91 "/>
<path clip-path="url(#clip872)" d="M2036.09 1516.91 L2036.09 1521.01 L2132.11 1521.01 L2132.11 1516.91 L2036.09 1516.91 L2036.09 1516.91  Z" fill="#009af9" fill-rule="evenodd" fill-opacity="1"/>
<polyline clip-path="url(#clip872)" style="stroke:#000000; stroke-linecap:round; stroke-linejoin:round; stroke-width:4; stroke-opacity:1; fill:none" points="2036.09,1516.91 2036.09,1521.01 2132.11,1521.01 2132.11,1516.91 2036.09,1516.91 "/>
<path clip-path="url(#clip872)" d="M2132.11 1516.91 L2132.11 1521.01 L2228.13 1521.01 L2228.13 1516.91 L2132.11 1516.91 L2132.11 1516.91  Z" fill="#009af9" fill-rule="evenodd" fill-opacity="1"/>
<polyline clip-path="url(#clip872)" style="stroke:#000000; stroke-linecap:round; stroke-linejoin:round; stroke-width:4; stroke-opacity:1; fill:none" points="2132.11,1516.91 2132.11,1521.01 2228.13,1521.01 2228.13,1516.91 2132.11,1516.91 "/>
<circle clip-path="url(#clip872)" style="fill:#009af9; stroke:none; fill-opacity:0" cx="259.626" cy="1516.91" r="2"/>
<circle clip-path="url(#clip872)" style="fill:#009af9; stroke:none; fill-opacity:0" cx="355.65" cy="1504.63" r="2"/>
<circle clip-path="url(#clip872)" style="fill:#009af9; stroke:none; fill-opacity:0" cx="451.675" cy="1492.35" r="2"/>
<circle clip-path="url(#clip872)" style="fill:#009af9; stroke:none; fill-opacity:0" cx="547.7" cy="1443.23" r="2"/>
<circle clip-path="url(#clip872)" style="fill:#009af9; stroke:none; fill-opacity:0" cx="643.725" cy="1336.79" r="2"/>
<circle clip-path="url(#clip872)" style="fill:#009af9; stroke:none; fill-opacity:0" cx="739.75" cy="1173.04" r="2"/>
<circle clip-path="url(#clip872)" style="fill:#009af9; stroke:none; fill-opacity:0" cx="835.775" cy="1074.78" r="2"/>
<circle clip-path="url(#clip872)" style="fill:#009af9; stroke:none; fill-opacity:0" cx="931.799" cy="804.595" r="2"/>
<circle clip-path="url(#clip872)" style="fill:#009af9; stroke:none; fill-opacity:0" cx="1027.82" cy="276.496" r="2"/>
<circle clip-path="url(#clip872)" style="fill:#009af9; stroke:none; fill-opacity:0" cx="1123.85" cy="47.2441" r="2"/>
<circle clip-path="url(#clip872)" style="fill:#009af9; stroke:none; fill-opacity:0" cx="1219.87" cy="96.3696" r="2"/>
<circle clip-path="url(#clip872)" style="fill:#009af9; stroke:none; fill-opacity:0" cx="1315.9" cy="489.373" r="2"/>
<circle clip-path="url(#clip872)" style="fill:#009af9; stroke:none; fill-opacity:0" cx="1411.92" cy="653.125" r="2"/>
<circle clip-path="url(#clip872)" style="fill:#009af9; stroke:none; fill-opacity:0" cx="1507.95" cy="1042.03" r="2"/>
<circle clip-path="url(#clip872)" style="fill:#009af9; stroke:none; fill-opacity:0" cx="1603.97" cy="1082.97" r="2"/>
<circle clip-path="url(#clip872)" style="fill:#009af9; stroke:none; fill-opacity:0" cx="1700" cy="1263.1" r="2"/>
<circle clip-path="url(#clip872)" style="fill:#009af9; stroke:none; fill-opacity:0" cx="1796.02" cy="1447.32" r="2"/>
<circle clip-path="url(#clip872)" style="fill:#009af9; stroke:none; fill-opacity:0" cx="1892.05" cy="1475.98" r="2"/>
<circle clip-path="url(#clip872)" style="fill:#009af9; stroke:none; fill-opacity:0" cx="1988.07" cy="1516.91" r="2"/>
<circle clip-path="url(#clip872)" style="fill:#009af9; stroke:none; fill-opacity:0" cx="2084.1" cy="1516.91" r="2"/>
<circle clip-path="url(#clip872)" style="fill:#009af9; stroke:none; fill-opacity:0" cx="2180.12" cy="1516.91" r="2"/>
<path clip-path="url(#clip870)" d="M1504.75 200.05 L2277.23 200.05 L2277.23 96.3696 L1504.75 96.3696  Z" fill="#ffffff" fill-rule="evenodd" fill-opacity="1"/>
<polyline clip-path="url(#clip870)" style="stroke:#000000; stroke-linecap:round; stroke-linejoin:round; stroke-width:4; stroke-opacity:1; fill:none" points="1504.75,200.05 2277.23,200.05 2277.23,96.3696 1504.75,96.3696 1504.75,200.05 "/>
<path clip-path="url(#clip870)" d="M1529.93 168.946 L1680.98 168.946 L1680.98 127.474 L1529.93 127.474 L1529.93 168.946  Z" fill="#009af9" fill-rule="evenodd" fill-opacity="1"/>
<polyline clip-path="url(#clip870)" style="stroke:#000000; stroke-linecap:round; stroke-linejoin:round; stroke-width:4; stroke-opacity:1; fill:none" points="1529.93,168.946 1680.98,168.946 1680.98,127.474 1529.93,127.474 1529.93,168.946 "/>
<path clip-path="url(#clip870)" d="M1718.05 142.55 Q1714.63 142.55 1712.64 145.235 Q1710.65 147.897 1710.65 152.55 Q1710.65 157.203 1712.61 159.888 Q1714.6 162.55 1718.05 162.55 Q1721.46 162.55 1723.45 159.865 Q1725.44 157.179 1725.44 152.55 Q1725.44 147.943 1723.45 145.258 Q1721.46 142.55 1718.05 142.55 M1718.05 138.939 Q1723.61 138.939 1726.78 142.55 Q1729.95 146.161 1729.95 152.55 Q1729.95 158.916 1726.78 162.55 Q1723.61 166.161 1718.05 166.161 Q1712.47 166.161 1709.3 162.55 Q1706.16 158.916 1706.16 152.55 Q1706.16 146.161 1709.3 142.55 Q1712.47 138.939 1718.05 138.939 Z" fill="#000000" fill-rule="nonzero" fill-opacity="1" /><path clip-path="url(#clip870)" d="M1736.57 155.258 L1736.57 139.564 L1740.83 139.564 L1740.83 155.096 Q1740.83 158.777 1742.27 160.628 Q1743.7 162.457 1746.57 162.457 Q1750.02 162.457 1752.01 160.258 Q1754.03 158.059 1754.03 154.263 L1754.03 139.564 L1758.28 139.564 L1758.28 165.49 L1754.03 165.49 L1754.03 161.508 Q1752.47 163.869 1750.41 165.027 Q1748.38 166.161 1745.67 166.161 Q1741.2 166.161 1738.89 163.383 Q1736.57 160.605 1736.57 155.258 M1747.29 138.939 L1747.29 138.939 Z" fill="#000000" fill-rule="nonzero" fill-opacity="1" /><path clip-path="url(#clip870)" d="M1771.27 132.203 L1771.27 139.564 L1780.04 139.564 L1780.04 142.874 L1771.27 142.874 L1771.27 156.948 Q1771.27 160.119 1772.13 161.022 Q1773.01 161.925 1775.67 161.925 L1780.04 161.925 L1780.04 165.49 L1775.67 165.49 Q1770.74 165.49 1768.86 163.661 Q1766.99 161.809 1766.99 156.948 L1766.99 142.874 L1763.86 142.874 L1763.86 139.564 L1766.99 139.564 L1766.99 132.203 L1771.27 132.203 Z" fill="#000000" fill-rule="nonzero" fill-opacity="1" /><path clip-path="url(#clip870)" d="M1804.3 140.559 L1804.3 144.541 Q1802.5 143.545 1800.67 143.059 Q1798.86 142.55 1797.01 142.55 Q1792.87 142.55 1790.58 145.189 Q1788.28 147.804 1788.28 152.55 Q1788.28 157.295 1790.58 159.934 Q1792.87 162.55 1797.01 162.55 Q1798.86 162.55 1800.67 162.064 Q1802.5 161.554 1804.3 160.559 L1804.3 164.494 Q1802.52 165.328 1800.6 165.744 Q1798.7 166.161 1796.55 166.161 Q1790.69 166.161 1787.24 162.48 Q1783.79 158.8 1783.79 152.55 Q1783.79 146.207 1787.27 142.573 Q1790.76 138.939 1796.83 138.939 Q1798.79 138.939 1800.67 139.355 Q1802.54 139.749 1804.3 140.559 Z" fill="#000000" fill-rule="nonzero" fill-opacity="1" /><path clip-path="url(#clip870)" d="M1821.76 142.55 Q1818.33 142.55 1816.34 145.235 Q1814.35 147.897 1814.35 152.55 Q1814.35 157.203 1816.32 159.888 Q1818.31 162.55 1821.76 162.55 Q1825.16 162.55 1827.15 159.865 Q1829.14 157.179 1829.14 152.55 Q1829.14 147.943 1827.15 145.258 Q1825.16 142.55 1821.76 142.55 M1821.76 138.939 Q1827.31 138.939 1830.48 142.55 Q1833.65 146.161 1833.65 152.55 Q1833.65 158.916 1830.48 162.55 Q1827.31 166.161 1821.76 166.161 Q1816.18 166.161 1813.01 162.55 Q1809.86 158.916 1809.86 152.55 Q1809.86 146.161 1813.01 142.55 Q1816.18 138.939 1821.76 138.939 Z" fill="#000000" fill-rule="nonzero" fill-opacity="1" /><path clip-path="url(#clip870)" d="M1860.9 144.541 Q1862.5 141.67 1864.72 140.305 Q1866.94 138.939 1869.95 138.939 Q1874 138.939 1876.2 141.786 Q1878.4 144.61 1878.4 149.841 L1878.4 165.49 L1874.12 165.49 L1874.12 149.98 Q1874.12 146.254 1872.8 144.448 Q1871.48 142.642 1868.77 142.642 Q1865.46 142.642 1863.54 144.842 Q1861.62 147.041 1861.62 150.837 L1861.62 165.49 L1857.34 165.49 L1857.34 149.98 Q1857.34 146.23 1856.02 144.448 Q1854.7 142.642 1851.94 142.642 Q1848.68 142.642 1846.76 144.865 Q1844.84 147.064 1844.84 150.837 L1844.84 165.49 L1840.55 165.49 L1840.55 139.564 L1844.84 139.564 L1844.84 143.592 Q1846.29 141.207 1848.33 140.073 Q1850.37 138.939 1853.17 138.939 Q1855.99 138.939 1857.96 140.374 Q1859.95 141.809 1860.9 144.541 Z" fill="#000000" fill-rule="nonzero" fill-opacity="1" /><path clip-path="url(#clip870)" d="M1909.07 151.462 L1909.07 153.545 L1889.49 153.545 Q1889.77 157.943 1892.13 160.258 Q1894.51 162.55 1898.75 162.55 Q1901.2 162.55 1903.49 161.948 Q1905.81 161.346 1908.08 160.142 L1908.08 164.17 Q1905.78 165.142 1903.38 165.652 Q1900.97 166.161 1898.49 166.161 Q1892.29 166.161 1888.65 162.55 Q1885.04 158.939 1885.04 152.781 Q1885.04 146.416 1888.47 142.689 Q1891.92 138.939 1897.75 138.939 Q1902.98 138.939 1906.02 142.318 Q1909.07 145.675 1909.07 151.462 M1904.81 150.212 Q1904.77 146.717 1902.84 144.633 Q1900.95 142.55 1897.8 142.55 Q1894.23 142.55 1892.08 144.564 Q1889.95 146.578 1889.63 150.235 L1904.81 150.212 Z" fill="#000000" fill-rule="nonzero" fill-opacity="1" /><path clip-path="url(#clip870)" d="M1928.98 150.605 L1941.46 150.605 L1941.46 154.402 L1928.98 154.402 L1928.98 150.605 Z" fill="#000000" fill-rule="nonzero" fill-opacity="1" /><path clip-path="url(#clip870)" d="M1967.43 161.601 L1967.43 175.351 L1963.14 175.351 L1963.14 139.564 L1967.43 139.564 L1967.43 143.499 Q1968.77 141.184 1970.81 140.073 Q1972.87 138.939 1975.71 138.939 Q1980.44 138.939 1983.38 142.689 Q1986.34 146.439 1986.34 152.55 Q1986.34 158.661 1983.38 162.411 Q1980.44 166.161 1975.71 166.161 Q1972.87 166.161 1970.81 165.05 Q1968.77 163.915 1967.43 161.601 M1981.92 152.55 Q1981.92 147.851 1979.97 145.189 Q1978.05 142.504 1974.67 142.504 Q1971.29 142.504 1969.35 145.189 Q1967.43 147.851 1967.43 152.55 Q1967.43 157.249 1969.35 159.934 Q1971.29 162.596 1974.67 162.596 Q1978.05 162.596 1979.97 159.934 Q1981.92 157.249 1981.92 152.55 Z" fill="#000000" fill-rule="nonzero" fill-opacity="1" /><path clip-path="url(#clip870)" d="M2003.45 142.55 Q2000.02 142.55 1998.03 145.235 Q1996.04 147.897 1996.04 152.55 Q1996.04 157.203 1998.01 159.888 Q2000 162.55 2003.45 162.55 Q2006.85 162.55 2008.84 159.865 Q2010.83 157.179 2010.83 152.55 Q2010.83 147.943 2008.84 145.258 Q2006.85 142.55 2003.45 142.55 M2003.45 138.939 Q2009 138.939 2012.17 142.55 Q2015.34 146.161 2015.34 152.55 Q2015.34 158.916 2012.17 162.55 Q2009 166.161 2003.45 166.161 Q1997.87 166.161 1994.7 162.55 Q1991.55 158.916 1991.55 152.55 Q1991.55 146.161 1994.7 142.55 Q1997.87 138.939 2003.45 138.939 Z" fill="#000000" fill-rule="nonzero" fill-opacity="1" /><path clip-path="url(#clip870)" d="M2022.4 139.564 L2026.66 139.564 L2026.66 165.49 L2022.4 165.49 L2022.4 139.564 M2022.4 129.471 L2026.66 129.471 L2026.66 134.865 L2022.4 134.865 L2022.4 129.471 Z" fill="#000000" fill-rule="nonzero" fill-opacity="1" /><path clip-path="url(#clip870)" d="M2057.13 149.841 L2057.13 165.49 L2052.87 165.49 L2052.87 149.98 Q2052.87 146.3 2051.43 144.471 Q2050 142.642 2047.13 142.642 Q2043.68 142.642 2041.69 144.842 Q2039.7 147.041 2039.7 150.837 L2039.7 165.49 L2035.41 165.49 L2035.41 139.564 L2039.7 139.564 L2039.7 143.592 Q2041.22 141.254 2043.28 140.096 Q2045.37 138.939 2048.07 138.939 Q2052.54 138.939 2054.83 141.717 Q2057.13 144.471 2057.13 149.841 Z" fill="#000000" fill-rule="nonzero" fill-opacity="1" /><path clip-path="url(#clip870)" d="M2069.83 132.203 L2069.83 139.564 L2078.61 139.564 L2078.61 142.874 L2069.83 142.874 L2069.83 156.948 Q2069.83 160.119 2070.69 161.022 Q2071.57 161.925 2074.23 161.925 L2078.61 161.925 L2078.61 165.49 L2074.23 165.49 Q2069.3 165.49 2067.43 163.661 Q2065.55 161.809 2065.55 156.948 L2065.55 142.874 L2062.43 142.874 L2062.43 139.564 L2065.55 139.564 L2065.55 132.203 L2069.83 132.203 Z" fill="#000000" fill-rule="nonzero" fill-opacity="1" /><path clip-path="url(#clip870)" d="M2115.81 140.328 L2115.81 144.355 Q2114 143.429 2112.06 142.967 Q2110.11 142.504 2108.03 142.504 Q2104.86 142.504 2103.26 143.476 Q2101.69 144.448 2101.69 146.392 Q2101.69 147.874 2102.82 148.73 Q2103.95 149.564 2107.38 150.328 L2108.84 150.652 Q2113.38 151.624 2115.27 153.406 Q2117.19 155.166 2117.19 158.337 Q2117.19 161.948 2114.32 164.054 Q2111.48 166.161 2106.48 166.161 Q2104.39 166.161 2102.13 165.744 Q2099.88 165.351 2097.38 164.54 L2097.38 160.142 Q2099.74 161.369 2102.03 161.994 Q2104.32 162.596 2106.57 162.596 Q2109.58 162.596 2111.2 161.578 Q2112.82 160.536 2112.82 158.661 Q2112.82 156.925 2111.64 155.999 Q2110.48 155.073 2106.52 154.216 L2105.04 153.869 Q2101.08 153.036 2099.32 151.323 Q2097.57 149.587 2097.57 146.578 Q2097.57 142.92 2100.16 140.93 Q2102.75 138.939 2107.52 138.939 Q2109.88 138.939 2111.96 139.286 Q2114.05 139.633 2115.81 140.328 Z" fill="#000000" fill-rule="nonzero" fill-opacity="1" /><path clip-path="url(#clip870)" d="M2128.1 161.601 L2128.1 175.351 L2123.82 175.351 L2123.82 139.564 L2128.1 139.564 L2128.1 143.499 Q2129.44 141.184 2131.48 140.073 Q2133.54 138.939 2136.38 138.939 Q2141.11 138.939 2144.05 142.689 Q2147.01 146.439 2147.01 152.55 Q2147.01 158.661 2144.05 162.411 Q2141.11 166.161 2136.38 166.161 Q2133.54 166.161 2131.48 165.05 Q2129.44 163.915 2128.1 161.601 M2142.59 152.55 Q2142.59 147.851 2140.64 145.189 Q2138.72 142.504 2135.34 142.504 Q2131.96 142.504 2130.02 145.189 Q2128.1 147.851 2128.1 152.55 Q2128.1 157.249 2130.02 159.934 Q2131.96 162.596 2135.34 162.596 Q2138.72 162.596 2140.64 159.934 Q2142.59 157.249 2142.59 152.55 Z" fill="#000000" fill-rule="nonzero" fill-opacity="1" /><path clip-path="url(#clip870)" d="M2169.09 143.545 Q2168.38 143.129 2167.52 142.943 Q2166.69 142.735 2165.67 142.735 Q2162.06 142.735 2160.11 145.096 Q2158.19 147.434 2158.19 151.832 L2158.19 165.49 L2153.91 165.49 L2153.91 139.564 L2158.19 139.564 L2158.19 143.592 Q2159.53 141.23 2161.69 140.096 Q2163.84 138.939 2166.92 138.939 Q2167.36 138.939 2167.89 139.008 Q2168.42 139.055 2169.07 139.17 L2169.09 143.545 Z" fill="#000000" fill-rule="nonzero" fill-opacity="1" /><path clip-path="url(#clip870)" d="M2194.69 151.462 L2194.69 153.545 L2175.11 153.545 Q2175.39 157.943 2177.75 160.258 Q2180.13 162.55 2184.37 162.55 Q2186.82 162.55 2189.12 161.948 Q2191.43 161.346 2193.7 160.142 L2193.7 164.17 Q2191.41 165.142 2189 165.652 Q2186.59 166.161 2184.12 166.161 Q2177.91 166.161 2174.28 162.55 Q2170.67 158.939 2170.67 152.781 Q2170.67 146.416 2174.09 142.689 Q2177.54 138.939 2183.38 138.939 Q2188.61 138.939 2191.64 142.318 Q2194.69 145.675 2194.69 151.462 M2190.44 150.212 Q2190.39 146.717 2188.47 144.633 Q2186.57 142.55 2183.42 142.55 Q2179.86 142.55 2177.7 144.564 Q2175.57 146.578 2175.25 150.235 L2190.44 150.212 Z" fill="#000000" fill-rule="nonzero" fill-opacity="1" /><path clip-path="url(#clip870)" d="M2213.47 152.457 Q2208.31 152.457 2206.31 153.638 Q2204.32 154.818 2204.32 157.666 Q2204.32 159.934 2205.81 161.277 Q2207.31 162.596 2209.88 162.596 Q2213.42 162.596 2215.55 160.096 Q2217.7 157.573 2217.7 153.406 L2217.7 152.457 L2213.47 152.457 M2221.96 150.698 L2221.96 165.49 L2217.7 165.49 L2217.7 161.554 Q2216.25 163.915 2214.07 165.05 Q2211.89 166.161 2208.75 166.161 Q2204.76 166.161 2202.4 163.939 Q2200.06 161.693 2200.06 157.943 Q2200.06 153.568 2202.98 151.346 Q2205.92 149.124 2211.73 149.124 L2217.7 149.124 L2217.7 148.707 Q2217.7 145.767 2215.76 144.17 Q2213.84 142.55 2210.34 142.55 Q2208.12 142.55 2206.01 143.082 Q2203.91 143.615 2201.96 144.679 L2201.96 140.744 Q2204.3 139.842 2206.5 139.402 Q2208.7 138.939 2210.78 138.939 Q2216.41 138.939 2219.19 141.855 Q2221.96 144.772 2221.96 150.698 Z" fill="#000000" fill-rule="nonzero" fill-opacity="1" /><path clip-path="url(#clip870)" d="M2247.8 143.499 L2247.8 129.471 L2252.06 129.471 L2252.06 165.49 L2247.8 165.49 L2247.8 161.601 Q2246.45 163.915 2244.39 165.05 Q2242.36 166.161 2239.49 166.161 Q2234.79 166.161 2231.82 162.411 Q2228.88 158.661 2228.88 152.55 Q2228.88 146.439 2231.82 142.689 Q2234.79 138.939 2239.49 138.939 Q2242.36 138.939 2244.39 140.073 Q2246.45 141.184 2247.8 143.499 M2233.28 152.55 Q2233.28 157.249 2235.2 159.934 Q2237.15 162.596 2240.53 162.596 Q2243.91 162.596 2245.85 159.934 Q2247.8 157.249 2247.8 152.55 Q2247.8 147.851 2245.85 145.189 Q2243.91 142.504 2240.53 142.504 Q2237.15 142.504 2235.2 145.189 Q2233.28 147.851 2233.28 152.55 Z" fill="#000000" fill-rule="nonzero" fill-opacity="1" /></svg>
