<?xml version="1.0" encoding="utf-8"?>
<svg xmlns="http://www.w3.org/2000/svg" xmlns:xlink="http://www.w3.org/1999/xlink" width="600" height="400" viewBox="0 0 2400 1600">
<defs>
  <clipPath id="clip980">
    <rect x="0" y="0" width="2400" height="1600"/>
  </clipPath>
</defs>
<path clip-path="url(#clip980)" d="M0 1600 L2400 1600 L2400 0 L0 0  Z" fill="#ffffff" fill-rule="evenodd" fill-opacity="1"/>
<defs>
  <clipPath id="clip981">
    <rect x="480" y="0" width="1681" height="1600"/>
  </clipPath>
</defs>
<path clip-path="url(#clip980)" d="M102.74 1521.01 L2352.76 1521.01 L2352.76 47.2441 L102.74 47.2441  Z" fill="#ffffff" fill-rule="evenodd" fill-opacity="1"/>
<defs>
  <clipPath id="clip982">
    <rect x="102" y="47" width="2251" height="1475"/>
  </clipPath>
</defs>
<polyline clip-path="url(#clip982)" style="stroke:#000000; stroke-linecap:round; stroke-linejoin:round; stroke-width:2; stroke-opacity:0.1; fill:none" points="226.495,1521.01 226.495,47.2441 "/>
<polyline clip-path="url(#clip982)" style="stroke:#000000; stroke-linecap:round; stroke-linejoin:round; stroke-width:2; stroke-opacity:0.1; fill:none" points="703.282,1521.01 703.282,47.2441 "/>
<polyline clip-path="url(#clip982)" style="stroke:#000000; stroke-linecap:round; stroke-linejoin:round; stroke-width:2; stroke-opacity:0.1; fill:none" points="1180.07,1521.01 1180.07,47.2441 "/>
<polyline clip-path="url(#clip982)" style="stroke:#000000; stroke-linecap:round; stroke-linejoin:round; stroke-width:2; stroke-opacity:0.1; fill:none" points="1656.86,1521.01 1656.86,47.2441 "/>
<polyline clip-path="url(#clip982)" style="stroke:#000000; stroke-linecap:round; stroke-linejoin:round; stroke-width:2; stroke-opacity:0.1; fill:none" points="2133.64,1521.01 2133.64,47.2441 "/>
<polyline clip-path="url(#clip980)" style="stroke:#000000; stroke-linecap:round; stroke-linejoin:round; stroke-width:4; stroke-opacity:1; fill:none" points="102.74,1521.01 2352.76,1521.01 "/>
<polyline clip-path="url(#clip980)" style="stroke:#000000; stroke-linecap:round; stroke-linejoin:round; stroke-width:4; stroke-opacity:1; fill:none" points="226.495,1521.01 226.495,1502.11 "/>
<polyline clip-path="url(#clip980)" style="stroke:#000000; stroke-linecap:round; stroke-linejoin:round; stroke-width:4; stroke-opacity:1; fill:none" points="703.282,1521.01 703.282,1502.11 "/>
<polyline clip-path="url(#clip980)" style="stroke:#000000; stroke-linecap:round; stroke-linejoin:round; stroke-width:4; stroke-opacity:1; fill:none" points="1180.07,1521.01 1180.07,1502.11 "/>
<polyline clip-path="url(#clip980)" style="stroke:#000000; stroke-linecap:round; stroke-linejoin:round; stroke-width:4; stroke-opacity:1; fill:none" points="1656.86,1521.01 1656.86,1502.11 "/>
<polyline clip-path="url(#clip980)" style="stroke:#000000; stroke-linecap:round; stroke-linejoin:round; stroke-width:4; stroke-opacity:1; fill:none" points="2133.64,1521.01 2133.64,1502.11 "/>
<path clip-path="url(#clip980)" d="M180.558 1566.58 L210.234 1566.58 L210.234 1570.51 L180.558 1570.51 L180.558 1566.58 Z" fill="#000000" fill-rule="nonzero" fill-opacity="1" /><path clip-path="url(#clip980)" d="M220.372 1548.85 L238.729 1548.85 L238.729 1552.78 L224.655 1552.78 L224.655 1561.26 Q225.673 1560.91 226.692 1560.75 Q227.71 1560.56 228.729 1560.56 Q234.516 1560.56 237.895 1563.73 Q241.275 1566.9 241.275 1572.32 Q241.275 1577.9 237.803 1581 Q234.331 1584.08 228.011 1584.08 Q225.835 1584.08 223.567 1583.71 Q221.321 1583.34 218.914 1582.6 L218.914 1577.9 Q220.997 1579.03 223.22 1579.59 Q225.442 1580.14 227.919 1580.14 Q231.923 1580.14 234.261 1578.04 Q236.599 1575.93 236.599 1572.32 Q236.599 1568.71 234.261 1566.6 Q231.923 1564.5 227.919 1564.5 Q226.044 1564.5 224.169 1564.91 Q222.317 1565.33 220.372 1566.21 L220.372 1548.85 Z" fill="#000000" fill-rule="nonzero" fill-opacity="1" /><path clip-path="url(#clip980)" d="M260.488 1551.93 Q256.877 1551.93 255.048 1555.49 Q253.243 1559.03 253.243 1566.16 Q253.243 1573.27 255.048 1576.83 Q256.877 1580.38 260.488 1580.38 Q264.122 1580.38 265.928 1576.83 Q267.756 1573.27 267.756 1566.16 Q267.756 1559.03 265.928 1555.49 Q264.122 1551.93 260.488 1551.93 M260.488 1548.22 Q266.298 1548.22 269.354 1552.83 Q272.432 1557.41 272.432 1566.16 Q272.432 1574.89 269.354 1579.5 Q266.298 1584.08 260.488 1584.08 Q254.678 1584.08 251.599 1579.5 Q248.544 1574.89 248.544 1566.16 Q248.544 1557.41 251.599 1552.83 Q254.678 1548.22 260.488 1548.22 Z" fill="#000000" fill-rule="nonzero" fill-opacity="1" /><path clip-path="url(#clip980)" d="M657.843 1566.58 L687.518 1566.58 L687.518 1570.51 L657.843 1570.51 L657.843 1566.58 Z" fill="#000000" fill-rule="nonzero" fill-opacity="1" /><path clip-path="url(#clip980)" d="M701.639 1579.47 L717.958 1579.47 L717.958 1583.41 L696.014 1583.41 L696.014 1579.47 Q698.676 1576.72 703.259 1572.09 Q707.865 1567.44 709.046 1566.09 Q711.291 1563.57 712.171 1561.83 Q713.074 1560.07 713.074 1558.38 Q713.074 1555.63 711.129 1553.89 Q709.208 1552.16 706.106 1552.16 Q703.907 1552.16 701.453 1552.92 Q699.023 1553.69 696.245 1555.24 L696.245 1550.51 Q699.069 1549.38 701.523 1548.8 Q703.977 1548.22 706.014 1548.22 Q711.384 1548.22 714.578 1550.91 Q717.773 1553.59 717.773 1558.08 Q717.773 1560.21 716.963 1562.13 Q716.176 1564.03 714.069 1566.63 Q713.49 1567.3 710.389 1570.51 Q707.287 1573.71 701.639 1579.47 Z" fill="#000000" fill-rule="nonzero" fill-opacity="1" /><path clip-path="url(#clip980)" d="M727.819 1548.85 L746.175 1548.85 L746.175 1552.78 L732.101 1552.78 L732.101 1561.26 Q733.12 1560.91 734.138 1560.75 Q735.157 1560.56 736.176 1560.56 Q741.963 1560.56 745.342 1563.73 Q748.722 1566.9 748.722 1572.32 Q748.722 1577.9 745.25 1581 Q741.777 1584.08 735.458 1584.08 Q733.282 1584.08 731.014 1583.71 Q728.768 1583.34 726.361 1582.6 L726.361 1577.9 Q728.444 1579.03 730.666 1579.59 Q732.888 1580.14 735.365 1580.14 Q739.37 1580.14 741.708 1578.04 Q744.046 1575.93 744.046 1572.32 Q744.046 1568.71 741.708 1566.6 Q739.37 1564.5 735.365 1564.5 Q733.49 1564.5 731.615 1564.91 Q729.764 1565.33 727.819 1566.21 L727.819 1548.85 Z" fill="#000000" fill-rule="nonzero" fill-opacity="1" /><path clip-path="url(#clip980)" d="M1180.07 1551.93 Q1176.46 1551.93 1174.63 1555.49 Q1172.82 1559.03 1172.82 1566.16 Q1172.82 1573.27 1174.63 1576.83 Q1176.46 1580.38 1180.07 1580.38 Q1183.7 1580.38 1185.51 1576.83 Q1187.34 1573.27 1187.34 1566.16 Q1187.34 1559.03 1185.51 1555.49 Q1183.7 1551.93 1180.07 1551.93 M1180.07 1548.22 Q1185.88 1548.22 1188.94 1552.83 Q1192.01 1557.41 1192.01 1566.16 Q1192.01 1574.89 1188.94 1579.5 Q1185.88 1584.08 1180.07 1584.08 Q1174.26 1584.08 1171.18 1579.5 Q1168.12 1574.89 1168.12 1566.16 Q1168.12 1557.41 1171.18 1552.83 Q1174.26 1548.22 1180.07 1548.22 Z" fill="#000000" fill-rule="nonzero" fill-opacity="1" /><path clip-path="url(#clip980)" d="M1636.13 1579.47 L1652.45 1579.47 L1652.45 1583.41 L1630.5 1583.41 L1630.5 1579.47 Q1633.16 1576.72 1637.75 1572.09 Q1642.35 1567.44 1643.53 1566.09 Q1645.78 1563.57 1646.66 1561.83 Q1647.56 1560.07 1647.56 1558.38 Q1647.56 1555.63 1645.62 1553.89 Q1643.7 1552.16 1640.59 1552.16 Q1638.4 1552.16 1635.94 1552.92 Q1633.51 1553.69 1630.73 1555.24 L1630.73 1550.51 Q1633.56 1549.38 1636.01 1548.8 Q1638.47 1548.22 1640.5 1548.22 Q1645.87 1548.22 1649.07 1550.91 Q1652.26 1553.59 1652.26 1558.08 Q1652.26 1560.21 1651.45 1562.13 Q1650.66 1564.03 1648.56 1566.63 Q1647.98 1567.3 1644.88 1570.51 Q1641.78 1573.71 1636.13 1579.47 Z" fill="#000000" fill-rule="nonzero" fill-opacity="1" /><path clip-path="url(#clip980)" d="M1662.31 1548.85 L1680.66 1548.85 L1680.66 1552.78 L1666.59 1552.78 L1666.59 1561.26 Q1667.61 1560.91 1668.63 1560.75 Q1669.65 1560.56 1670.66 1560.56 Q1676.45 1560.56 1679.83 1563.73 Q1683.21 1566.9 1683.21 1572.32 Q1683.21 1577.9 1679.74 1581 Q1676.27 1584.08 1669.95 1584.08 Q1667.77 1584.08 1665.5 1583.71 Q1663.26 1583.34 1660.85 1582.6 L1660.85 1577.9 Q1662.93 1579.03 1665.16 1579.59 Q1667.38 1580.14 1669.85 1580.14 Q1673.86 1580.14 1676.2 1578.04 Q1678.53 1575.93 1678.53 1572.32 Q1678.53 1568.71 1676.2 1566.6 Q1673.86 1564.5 1669.85 1564.5 Q1667.98 1564.5 1666.1 1564.91 Q1664.25 1565.33 1662.31 1566.21 L1662.31 1548.85 Z" fill="#000000" fill-rule="nonzero" fill-opacity="1" /><path clip-path="url(#clip980)" d="M2108.34 1548.85 L2126.7 1548.85 L2126.7 1552.78 L2112.63 1552.78 L2112.63 1561.26 Q2113.64 1560.91 2114.66 1560.75 Q2115.68 1560.56 2116.7 1560.56 Q2122.49 1560.56 2125.87 1563.73 Q2129.25 1566.9 2129.25 1572.32 Q2129.25 1577.9 2125.77 1581 Q2122.3 1584.08 2115.98 1584.08 Q2113.81 1584.08 2111.54 1583.71 Q2109.29 1583.34 2106.88 1582.6 L2106.88 1577.9 Q2108.97 1579.03 2111.19 1579.59 Q2113.41 1580.14 2115.89 1580.14 Q2119.89 1580.14 2122.23 1578.04 Q2124.57 1575.93 2124.57 1572.32 Q2124.57 1568.71 2122.23 1566.6 Q2119.89 1564.5 2115.89 1564.5 Q2114.01 1564.5 2112.14 1564.91 Q2110.29 1565.33 2108.34 1566.21 L2108.34 1548.85 Z" fill="#000000" fill-rule="nonzero" fill-opacity="1" /><path clip-path="url(#clip980)" d="M2148.46 1551.93 Q2144.85 1551.93 2143.02 1555.49 Q2141.21 1559.03 2141.21 1566.16 Q2141.21 1573.27 2143.02 1576.83 Q2144.85 1580.38 2148.46 1580.38 Q2152.09 1580.38 2153.9 1576.83 Q2155.73 1573.27 2155.73 1566.16 Q2155.73 1559.03 2153.9 1555.49 Q2152.09 1551.93 2148.46 1551.93 M2148.46 1548.22 Q2154.27 1548.22 2157.32 1552.83 Q2160.4 1557.41 2160.4 1566.16 Q2160.4 1574.89 2157.32 1579.5 Q2154.27 1584.08 2148.46 1584.08 Q2142.65 1584.08 2139.57 1579.5 Q2136.51 1574.89 2136.51 1566.16 Q2136.51 1557.41 2139.57 1552.83 Q2142.65 1548.22 2148.46 1548.22 Z" fill="#000000" fill-rule="nonzero" fill-opacity="1" /><polyline clip-path="url(#clip982)" style="stroke:#000000; stroke-linecap:round; stroke-linejoin:round; stroke-width:2; stroke-opacity:0.1; fill:none" points="102.74,1521.01 2352.76,1521.01 "/>
<polyline clip-path="url(#clip982)" style="stroke:#000000; stroke-linecap:round; stroke-linejoin:round; stroke-width:2; stroke-opacity:0.1; fill:none" points="102.74,1062.5 2352.76,1062.5 "/>
<polyline clip-path="url(#clip982)" style="stroke:#000000; stroke-linecap:round; stroke-linejoin:round; stroke-width:2; stroke-opacity:0.1; fill:none" points="102.74,603.999 2352.76,603.999 "/>
<polyline clip-path="url(#clip982)" style="stroke:#000000; stroke-linecap:round; stroke-linejoin:round; stroke-width:2; stroke-opacity:0.1; fill:none" points="102.74,145.495 2352.76,145.495 "/>
<polyline clip-path="url(#clip980)" style="stroke:#000000; stroke-linecap:round; stroke-linejoin:round; stroke-width:4; stroke-opacity:1; fill:none" points="102.74,1521.01 102.74,47.2441 "/>
<polyline clip-path="url(#clip980)" style="stroke:#000000; stroke-linecap:round; stroke-linejoin:round; stroke-width:4; stroke-opacity:1; fill:none" points="102.74,1521.01 121.638,1521.01 "/>
<polyline clip-path="url(#clip980)" style="stroke:#000000; stroke-linecap:round; stroke-linejoin:round; stroke-width:4; stroke-opacity:1; fill:none" points="102.74,1062.5 121.638,1062.5 "/>
<polyline clip-path="url(#clip980)" style="stroke:#000000; stroke-linecap:round; stroke-linejoin:round; stroke-width:4; stroke-opacity:1; fill:none" points="102.74,603.999 121.638,603.999 "/>
<polyline clip-path="url(#clip980)" style="stroke:#000000; stroke-linecap:round; stroke-linejoin:round; stroke-width:4; stroke-opacity:1; fill:none" points="102.74,145.495 121.638,145.495 "/>
<path clip-path="url(#clip980)" d="M-20.5973 1506.81 Q-24.2084 1506.81 -26.0371 1510.37 Q-27.8427 1513.91 -27.8427 1521.04 Q-27.8427 1528.15 -26.0371 1531.71 Q-24.2084 1535.26 -20.5973 1535.26 Q-16.9631 1535.26 -15.1576 1531.71 Q-13.3289 1528.15 -13.3289 1521.04 Q-13.3289 1513.91 -15.1576 1510.37 Q-16.9631 1506.81 -20.5973 1506.81 M-20.5973 1503.1 Q-14.7872 1503.1 -11.7316 1507.71 Q-8.65296 1512.29 -8.65296 1521.04 Q-8.65296 1529.77 -11.7316 1534.38 Q-14.7872 1538.96 -20.5973 1538.96 Q-26.4075 1538.96 -29.4862 1534.38 Q-32.5417 1529.77 -32.5417 1521.04 Q-32.5417 1512.29 -29.4862 1507.71 Q-26.4075 1503.1 -20.5973 1503.1 Z" fill="#000000" fill-rule="nonzero" fill-opacity="1" /><path clip-path="url(#clip980)" d="M-0.435408 1532.41 L4.44882 1532.41 L4.44882 1538.29 L-0.435408 1538.29 L-0.435408 1532.41 Z" fill="#000000" fill-rule="nonzero" fill-opacity="1" /><path clip-path="url(#clip980)" d="M24.6339 1506.81 Q21.0228 1506.81 19.1941 1510.37 Q17.3886 1513.91 17.3886 1521.04 Q17.3886 1528.15 19.1941 1531.71 Q21.0228 1535.26 24.6339 1535.26 Q28.2681 1535.26 30.0737 1531.71 Q31.9024 1528.15 31.9024 1521.04 Q31.9024 1513.91 30.0737 1510.37 Q28.2681 1506.81 24.6339 1506.81 M24.6339 1503.1 Q30.4441 1503.1 33.4996 1507.71 Q36.5783 1512.29 36.5783 1521.04 Q36.5783 1529.77 33.4996 1534.38 Q30.4441 1538.96 24.6339 1538.96 Q18.8237 1538.96 15.7451 1534.38 Q12.6895 1529.77 12.6895 1521.04 Q12.6895 1512.29 15.7451 1507.71 Q18.8237 1503.1 24.6339 1503.1 Z" fill="#000000" fill-rule="nonzero" fill-opacity="1" /><path clip-path="url(#clip980)" d="M54.7958 1506.81 Q51.1847 1506.81 49.356 1510.37 Q47.5504 1513.91 47.5504 1521.04 Q47.5504 1528.15 49.356 1531.71 Q51.1847 1535.26 54.7958 1535.26 Q58.43 1535.26 60.2356 1531.71 Q62.0643 1528.15 62.0643 1521.04 Q62.0643 1513.91 60.2356 1510.37 Q58.43 1506.81 54.7958 1506.81 M54.7958 1503.1 Q60.6059 1503.1 63.6615 1507.71 Q66.7402 1512.29 66.7402 1521.04 Q66.7402 1529.77 63.6615 1534.38 Q60.6059 1538.96 54.7958 1538.96 Q48.9856 1538.96 45.9069 1534.38 Q42.8514 1529.77 42.8514 1521.04 Q42.8514 1512.29 45.9069 1507.71 Q48.9856 1503.1 54.7958 1503.1 Z" fill="#000000" fill-rule="nonzero" fill-opacity="1" /><path clip-path="url(#clip980)" d="M-19.3705 1048.3 Q-22.9816 1048.3 -24.8103 1051.87 Q-26.6158 1055.41 -26.6158 1062.54 Q-26.6158 1069.64 -24.8103 1073.21 Q-22.9816 1076.75 -19.3705 1076.75 Q-15.7363 1076.75 -13.9307 1073.21 Q-12.102 1069.64 -12.102 1062.54 Q-12.102 1055.41 -13.9307 1051.87 Q-15.7363 1048.3 -19.3705 1048.3 M-19.3705 1044.6 Q-13.5603 1044.6 -10.5048 1049.21 Q-7.42611 1053.79 -7.42611 1062.54 Q-7.42611 1071.27 -10.5048 1075.87 Q-13.5603 1080.45 -19.3705 1080.45 Q-25.1806 1080.45 -28.2593 1075.87 Q-31.3149 1071.27 -31.3149 1062.54 Q-31.3149 1053.79 -28.2593 1049.21 Q-25.1806 1044.6 -19.3705 1044.6 Z" fill="#000000" fill-rule="nonzero" fill-opacity="1" /><path clip-path="url(#clip980)" d="M0.791437 1073.9 L5.67567 1073.9 L5.67567 1079.78 L0.791437 1079.78 L0.791437 1073.9 Z" fill="#000000" fill-rule="nonzero" fill-opacity="1" /><path clip-path="url(#clip980)" d="M25.8607 1048.3 Q22.2497 1048.3 20.421 1051.87 Q18.6154 1055.41 18.6154 1062.54 Q18.6154 1069.64 20.421 1073.21 Q22.2497 1076.75 25.8607 1076.75 Q29.495 1076.75 31.3005 1073.21 Q33.1292 1069.64 33.1292 1062.54 Q33.1292 1055.41 31.3005 1051.87 Q29.495 1048.3 25.8607 1048.3 M25.8607 1044.6 Q31.6709 1044.6 34.7264 1049.21 Q37.8051 1053.79 37.8051 1062.54 Q37.8051 1071.27 34.7264 1075.87 Q31.6709 1080.45 25.8607 1080.45 Q20.0506 1080.45 16.9719 1075.87 Q13.9164 1071.27 13.9164 1062.54 Q13.9164 1053.79 16.9719 1049.21 Q20.0506 1044.6 25.8607 1044.6 Z" fill="#000000" fill-rule="nonzero" fill-opacity="1" /><path clip-path="url(#clip980)" d="M46.8329 1075.85 L54.4717 1075.85 L54.4717 1049.48 L46.1616 1051.15 L46.1616 1046.89 L54.4254 1045.22 L59.1013 1045.22 L59.1013 1075.85 L66.7402 1075.85 L66.7402 1079.78 L46.8329 1079.78 L46.8329 1075.85 Z" fill="#000000" fill-rule="nonzero" fill-opacity="1" /><path clip-path="url(#clip980)" d="M-19.0001 589.798 Q-22.6112 589.798 -24.4399 593.363 Q-26.2455 596.904 -26.2455 604.034 Q-26.2455 611.14 -24.4399 614.705 Q-22.6112 618.247 -19.0001 618.247 Q-15.3659 618.247 -13.5603 614.705 Q-11.7316 611.14 -11.7316 604.034 Q-11.7316 596.904 -13.5603 593.363 Q-15.3659 589.798 -19.0001 589.798 M-19.0001 586.094 Q-13.19 586.094 -10.1344 590.701 Q-7.05574 595.284 -7.05574 604.034 Q-7.05574 612.761 -10.1344 617.367 Q-13.19 621.951 -19.0001 621.951 Q-24.8103 621.951 -27.889 617.367 Q-30.9445 612.761 -30.9445 604.034 Q-30.9445 595.284 -27.889 590.701 Q-24.8103 586.094 -19.0001 586.094 Z" fill="#000000" fill-rule="nonzero" fill-opacity="1" /><path clip-path="url(#clip980)" d="M1.16181 615.4 L6.04604 615.4 L6.04604 621.279 L1.16181 621.279 L1.16181 615.4 Z" fill="#000000" fill-rule="nonzero" fill-opacity="1" /><path clip-path="url(#clip980)" d="M26.2311 589.798 Q22.62 589.798 20.7913 593.363 Q18.9858 596.904 18.9858 604.034 Q18.9858 611.14 20.7913 614.705 Q22.62 618.247 26.2311 618.247 Q29.8654 618.247 31.6709 614.705 Q33.4996 611.14 33.4996 604.034 Q33.4996 596.904 31.6709 593.363 Q29.8654 589.798 26.2311 589.798 M26.2311 586.094 Q32.0413 586.094 35.0968 590.701 Q38.1755 595.284 38.1755 604.034 Q38.1755 612.761 35.0968 617.367 Q32.0413 621.951 26.2311 621.951 Q20.421 621.951 17.3423 617.367 Q14.2867 612.761 14.2867 604.034 Q14.2867 595.284 17.3423 590.701 Q20.421 586.094 26.2311 586.094 Z" fill="#000000" fill-rule="nonzero" fill-opacity="1" /><path clip-path="url(#clip980)" d="M50.4208 617.344 L66.7402 617.344 L66.7402 621.279 L44.7958 621.279 L44.7958 617.344 Q47.4579 614.59 52.0412 609.96 Q56.6476 605.307 57.8282 603.965 Q60.0735 601.441 60.9532 599.705 Q61.8559 597.946 61.8559 596.256 Q61.8559 593.502 59.9115 591.766 Q57.9902 590.029 54.8884 590.029 Q52.6893 590.029 50.2356 590.793 Q47.8051 591.557 45.0273 593.108 L45.0273 588.386 Q47.8514 587.252 50.3051 586.673 Q52.7588 586.094 54.7958 586.094 Q60.1661 586.094 63.3605 588.779 Q66.555 591.465 66.555 595.955 Q66.555 598.085 65.7448 600.006 Q64.9578 601.904 62.8513 604.497 Q62.2726 605.168 59.1708 608.386 Q56.0689 611.58 50.4208 617.344 Z" fill="#000000" fill-rule="nonzero" fill-opacity="1" /><path clip-path="url(#clip980)" d="M-19.9492 131.294 Q-23.5603 131.294 -25.389 134.858 Q-27.1945 138.4 -27.1945 145.53 Q-27.1945 152.636 -25.389 156.201 Q-23.5603 159.743 -19.9492 159.743 Q-16.315 159.743 -14.5094 156.201 Q-12.6807 152.636 -12.6807 145.53 Q-12.6807 138.4 -14.5094 134.858 Q-16.315 131.294 -19.9492 131.294 M-19.9492 127.59 Q-14.139 127.59 -11.0835 132.196 Q-8.00481 136.78 -8.00481 145.53 Q-8.00481 154.257 -11.0835 158.863 Q-14.139 163.446 -19.9492 163.446 Q-25.7593 163.446 -28.838 158.863 Q-31.8936 154.257 -31.8936 145.53 Q-31.8936 136.78 -28.838 132.196 Q-25.7593 127.59 -19.9492 127.59 Z" fill="#000000" fill-rule="nonzero" fill-opacity="1" /><path clip-path="url(#clip980)" d="M0.212736 156.895 L5.09697 156.895 L5.09697 162.775 L0.212736 162.775 L0.212736 156.895 Z" fill="#000000" fill-rule="nonzero" fill-opacity="1" /><path clip-path="url(#clip980)" d="M25.282 131.294 Q21.671 131.294 19.8423 134.858 Q18.0367 138.4 18.0367 145.53 Q18.0367 152.636 19.8423 156.201 Q21.671 159.743 25.282 159.743 Q28.9163 159.743 30.7218 156.201 Q32.5505 152.636 32.5505 145.53 Q32.5505 138.4 30.7218 134.858 Q28.9163 131.294 25.282 131.294 M25.282 127.59 Q31.0922 127.59 34.1477 132.196 Q37.2264 136.78 37.2264 145.53 Q37.2264 154.257 34.1477 158.863 Q31.0922 163.446 25.282 163.446 Q19.4719 163.446 16.3932 158.863 Q13.3377 154.257 13.3377 145.53 Q13.3377 136.78 16.3932 132.196 Q19.4719 127.59 25.282 127.59 Z" fill="#000000" fill-rule="nonzero" fill-opacity="1" /><path clip-path="url(#clip980)" d="M59.6106 144.141 Q62.967 144.858 64.842 147.127 Q66.7402 149.395 66.7402 152.729 Q66.7402 157.844 63.2217 160.645 Q59.7032 163.446 53.2217 163.446 Q51.0458 163.446 48.731 163.006 Q46.4393 162.59 43.9856 161.733 L43.9856 157.219 Q45.9301 158.354 48.2449 158.932 Q50.5597 159.511 53.0828 159.511 Q57.4809 159.511 59.7726 157.775 Q62.0874 156.039 62.0874 152.729 Q62.0874 149.673 59.9346 147.96 Q57.805 146.224 53.9856 146.224 L49.9578 146.224 L49.9578 142.382 L54.1708 142.382 Q57.6198 142.382 59.4485 141.016 Q61.2772 139.627 61.2772 137.034 Q61.2772 134.372 59.3791 132.96 Q57.5041 131.525 53.9856 131.525 Q52.0643 131.525 49.8652 131.942 Q47.6662 132.359 45.0273 133.238 L45.0273 129.071 Q47.6893 128.331 50.0041 127.96 Q52.3421 127.59 54.4023 127.59 Q59.7263 127.59 62.8281 130.021 Q65.93 132.428 65.93 136.548 Q65.93 139.419 64.2865 141.409 Q62.643 143.377 59.6106 144.141 Z" fill="#000000" fill-rule="nonzero" fill-opacity="1" /><path clip-path="url(#clip980)" d="M-111.475 778.126 L-111.475 787.388 L-100.844 790.062 L-100.844 780.736 L-111.475 778.126 M-129.586 782.901 L-116.377 786.211 L-116.377 776.917 L-129.586 773.575 L-129.586 768.482 L-116.377 771.761 L-116.377 761.83 L-111.475 761.83 L-111.475 773.002 L-100.844 775.612 L-100.844 765.49 L-95.9747 765.49 L-95.9747 776.853 L-82.7977 780.163 L-82.7977 785.256 L-95.9747 781.978 L-95.9747 791.303 L-82.7977 794.582 L-82.7977 799.706 L-95.9747 796.396 L-95.9747 806.422 L-100.844 806.422 L-100.844 795.218 L-111.475 792.545 L-111.475 802.793 L-116.377 802.793 L-116.377 791.303 L-129.586 788.057 L-129.586 782.901 Z" fill="#000000" fill-rule="nonzero" fill-opacity="1" /><path clip-path="url(#clip982)" d="M226.495 1516.91 L226.495 1521.01 L321.852 1521.01 L321.852 1516.91 L226.495 1516.91 L226.495 1516.91  Z" fill="#009af9" fill-rule="evenodd" fill-opacity="1"/>
<polyline clip-path="url(#clip982)" style="stroke:#000000; stroke-linecap:round; stroke-linejoin:round; stroke-width:4; stroke-opacity:1; fill:none" points="226.495,1516.91 226.495,1521.01 321.852,1521.01 321.852,1516.91 226.495,1516.91 "/>
<path clip-path="url(#clip982)" d="M321.852 1504.63 L321.852 1521.01 L417.21 1521.01 L417.21 1504.63 L321.852 1504.63 L321.852 1504.63  Z" fill="#009af9" fill-rule="evenodd" fill-opacity="1"/>
<polyline clip-path="url(#clip982)" style="stroke:#000000; stroke-linecap:round; stroke-linejoin:round; stroke-width:4; stroke-opacity:1; fill:none" points="321.852,1504.63 321.852,1521.01 417.21,1521.01 417.21,1504.63 321.852,1504.63 "/>
<path clip-path="url(#clip982)" d="M417.21 1492.35 L417.21 1521.01 L512.567 1521.01 L512.567 1492.35 L417.21 1492.35 L417.21 1492.35  Z" fill="#009af9" fill-rule="evenodd" fill-opacity="1"/>
<polyline clip-path="url(#clip982)" style="stroke:#000000; stroke-linecap:round; stroke-linejoin:round; stroke-width:4; stroke-opacity:1; fill:none" points="417.21,1492.35 417.21,1521.01 512.567,1521.01 512.567,1492.35 417.21,1492.35 "/>
<path clip-path="url(#clip982)" d="M512.567 1443.23 L512.567 1521.01 L607.925 1521.01 L607.925 1443.23 L512.567 1443.23 L512.567 1443.23  Z" fill="#009af9" fill-rule="evenodd" fill-opacity="1"/>
<polyline clip-path="url(#clip982)" style="stroke:#000000; stroke-linecap:round; stroke-linejoin:round; stroke-width:4; stroke-opacity:1; fill:none" points="512.567,1443.23 512.567,1521.01 607.925,1521.01 607.925,1443.23 512.567,1443.23 "/>
<path clip-path="url(#clip982)" d="M607.925 1336.79 L607.925 1521.01 L703.282 1521.01 L703.282 1336.79 L607.925 1336.79 L607.925 1336.79  Z" fill="#009af9" fill-rule="evenodd" fill-opacity="1"/>
<polyline clip-path="url(#clip982)" style="stroke:#000000; stroke-linecap:round; stroke-linejoin:round; stroke-width:4; stroke-opacity:1; fill:none" points="607.925,1336.79 607.925,1521.01 703.282,1521.01 703.282,1336.79 607.925,1336.79 "/>
<path clip-path="url(#clip982)" d="M703.282 1173.04 L703.282 1521.01 L798.64 1521.01 L798.64 1173.04 L703.282 1173.04 L703.282 1173.04  Z" fill="#009af9" fill-rule="evenodd" fill-opacity="1"/>
<polyline clip-path="url(#clip982)" style="stroke:#000000; stroke-linecap:round; stroke-linejoin:round; stroke-width:4; stroke-opacity:1; fill:none" points="703.282,1173.04 703.282,1521.01 798.64,1521.01 798.64,1173.04 703.282,1173.04 "/>
<path clip-path="url(#clip982)" d="M798.64 1074.78 L798.64 1521.01 L893.997 1521.01 L893.997 1074.78 L798.64 1074.78 L798.64 1074.78  Z" fill="#009af9" fill-rule="evenodd" fill-opacity="1"/>
<polyline clip-path="url(#clip982)" style="stroke:#000000; stroke-linecap:round; stroke-linejoin:round; stroke-width:4; stroke-opacity:1; fill:none" points="798.64,1074.78 798.64,1521.01 893.997,1521.01 893.997,1074.78 798.64,1074.78 "/>
<path clip-path="url(#clip982)" d="M893.997 804.595 L893.997 1521.01 L989.354 1521.01 L989.354 804.595 L893.997 804.595 L893.997 804.595  Z" fill="#009af9" fill-rule="evenodd" fill-opacity="1"/>
<polyline clip-path="url(#clip982)" style="stroke:#000000; stroke-linecap:round; stroke-linejoin:round; stroke-width:4; stroke-opacity:1; fill:none" points="893.997,804.595 893.997,1521.01 989.354,1521.01 989.354,804.595 893.997,804.595 "/>
<path clip-path="url(#clip982)" d="M989.354 276.496 L989.354 1521.01 L1084.71 1521.01 L1084.71 276.496 L989.354 276.496 L989.354 276.496  Z" fill="#009af9" fill-rule="evenodd" fill-opacity="1"/>
<polyline clip-path="url(#clip982)" style="stroke:#000000; stroke-linecap:round; stroke-linejoin:round; stroke-width:4; stroke-opacity:1; fill:none" points="989.354,276.496 989.354,1521.01 1084.71,1521.01 1084.71,276.496 989.354,276.496 "/>
<path clip-path="url(#clip982)" d="M1084.71 47.2441 L1084.71 1521.01 L1180.07 1521.01 L1180.07 47.2441 L1084.71 47.2441 L1084.71 47.2441  Z" fill="#009af9" fill-rule="evenodd" fill-opacity="1"/>
<polyline clip-path="url(#clip982)" style="stroke:#000000; stroke-linecap:round; stroke-linejoin:round; stroke-width:4; stroke-opacity:1; fill:none" points="1084.71,47.2441 1084.71,1521.01 1180.07,1521.01 1180.07,47.2441 1084.71,47.2441 "/>
<path clip-path="url(#clip982)" d="M1180.07 96.3696 L1180.07 1521.01 L1275.43 1521.01 L1275.43 96.3696 L1180.07 96.3696 L1180.07 96.3696  Z" fill="#009af9" fill-rule="evenodd" fill-opacity="1"/>
<polyline clip-path="url(#clip982)" style="stroke:#000000; stroke-linecap:round; stroke-linejoin:round; stroke-width:4; stroke-opacity:1; fill:none" points="1180.07,96.3696 1180.07,1521.01 1275.43,1521.01 1275.43,96.3696 1180.07,96.3696 "/>
<path clip-path="url(#clip982)" d="M1275.43 489.373 L1275.43 1521.01 L1370.78 1521.01 L1370.78 489.373 L1275.43 489.373 L1275.43 489.373  Z" fill="#009af9" fill-rule="evenodd" fill-opacity="1"/>
<polyline clip-path="url(#clip982)" style="stroke:#000000; stroke-linecap:round; stroke-linejoin:round; stroke-width:4; stroke-opacity:1; fill:none" points="1275.43,489.373 1275.43,1521.01 1370.78,1521.01 1370.78,489.373 1275.43,489.373 "/>
<path clip-path="url(#clip982)" d="M1370.78 653.125 L1370.78 1521.01 L1466.14 1521.01 L1466.14 653.125 L1370.78 653.125 L1370.78 653.125  Z" fill="#009af9" fill-rule="evenodd" fill-opacity="1"/>
<polyline clip-path="url(#clip982)" style="stroke:#000000; stroke-linecap:round; stroke-linejoin:round; stroke-width:4; stroke-opacity:1; fill:none" points="1370.78,653.125 1370.78,1521.01 1466.14,1521.01 1466.14,653.125 1370.78,653.125 "/>
<path clip-path="url(#clip982)" d="M1466.14 1042.03 L1466.14 1521.01 L1561.5 1521.01 L1561.5 1042.03 L1466.14 1042.03 L1466.14 1042.03  Z" fill="#009af9" fill-rule="evenodd" fill-opacity="1"/>
<polyline clip-path="url(#clip982)" style="stroke:#000000; stroke-linecap:round; stroke-linejoin:round; stroke-width:4; stroke-opacity:1; fill:none" points="1466.14,1042.03 1466.14,1521.01 1561.5,1521.01 1561.5,1042.03 1466.14,1042.03 "/>
<path clip-path="url(#clip982)" d="M1561.5 1082.97 L1561.5 1521.01 L1656.86 1521.01 L1656.86 1082.97 L1561.5 1082.97 L1561.5 1082.97  Z" fill="#009af9" fill-rule="evenodd" fill-opacity="1"/>
<polyline clip-path="url(#clip982)" style="stroke:#000000; stroke-linecap:round; stroke-linejoin:round; stroke-width:4; stroke-opacity:1; fill:none" points="1561.5,1082.97 1561.5,1521.01 1656.86,1521.01 1656.86,1082.97 1561.5,1082.97 "/>
<path clip-path="url(#clip982)" d="M1656.86 1263.1 L1656.86 1521.01 L1752.21 1521.01 L1752.21 1263.1 L1656.86 1263.1 L1656.86 1263.1  Z" fill="#009af9" fill-rule="evenodd" fill-opacity="1"/>
<polyline clip-path="url(#clip982)" style="stroke:#000000; stroke-linecap:round; stroke-linejoin:round; stroke-width:4; stroke-opacity:1; fill:none" points="1656.86,1263.1 1656.86,1521.01 1752.21,1521.01 1752.21,1263.1 1656.86,1263.1 "/>
<path clip-path="url(#clip982)" d="M1752.21 1447.32 L1752.21 1521.01 L1847.57 1521.01 L1847.57 1447.32 L1752.21 1447.32 L1752.21 1447.32  Z" fill="#009af9" fill-rule="evenodd" fill-opacity="1"/>
<polyline clip-path="url(#clip982)" style="stroke:#000000; stroke-linecap:round; stroke-linejoin:round; stroke-width:4; stroke-opacity:1; fill:none" points="1752.21,1447.32 1752.21,1521.01 1847.57,1521.01 1847.57,1447.32 1752.21,1447.32 "/>
<path clip-path="url(#clip982)" d="M1847.57 1475.98 L1847.57 1521.01 L1942.93 1521.01 L1942.93 1475.98 L1847.57 1475.98 L1847.57 1475.98  Z" fill="#009af9" fill-rule="evenodd" fill-opacity="1"/>
<polyline clip-path="url(#clip982)" style="stroke:#000000; stroke-linecap:round; stroke-linejoin:round; stroke-width:4; stroke-opacity:1; fill:none" points="1847.57,1475.98 1847.57,1521.01 1942.93,1521.01 1942.93,1475.98 1847.57,1475.98 "/>
<path clip-path="url(#clip982)" d="M1942.93 1516.91 L1942.93 1521.01 L2038.29 1521.01 L2038.29 1516.91 L1942.93 1516.91 L1942.93 1516.91  Z" fill="#009af9" fill-rule="evenodd" fill-opacity="1"/>
<polyline clip-path="url(#clip982)" style="stroke:#000000; stroke-linecap:round; stroke-linejoin:round; stroke-width:4; stroke-opacity:1; fill:none" points="1942.93,1516.91 1942.93,1521.01 2038.29,1521.01 2038.29,1516.91 1942.93,1516.91 "/>
<path clip-path="url(#clip982)" d="M2038.29 1516.91 L2038.29 1521.01 L2133.64 1521.01 L2133.64 1516.91 L2038.29 1516.91 L2038.29 1516.91  Z" fill="#009af9" fill-rule="evenodd" fill-opacity="1"/>
<polyline clip-path="url(#clip982)" style="stroke:#000000; stroke-linecap:round; stroke-linejoin:round; stroke-width:4; stroke-opacity:1; fill:none" points="2038.29,1516.91 2038.29,1521.01 2133.64,1521.01 2133.64,1516.91 2038.29,1516.91 "/>
<path clip-path="url(#clip982)" d="M2133.64 1516.91 L2133.64 1521.01 L2229 1521.01 L2229 1516.91 L2133.64 1516.91 L2133.64 1516.91  Z" fill="#009af9" fill-rule="evenodd" fill-opacity="1"/>
<polyline clip-path="url(#clip982)" style="stroke:#000000; stroke-linecap:round; stroke-linejoin:round; stroke-width:4; stroke-opacity:1; fill:none" points="2133.64,1516.91 2133.64,1521.01 2229,1521.01 2229,1516.91 2133.64,1516.91 "/>
<circle clip-path="url(#clip982)" style="fill:#009af9; stroke:none; fill-opacity:0" cx="274.174" cy="1516.91" r="2"/>
<circle clip-path="url(#clip982)" style="fill:#009af9; stroke:none; fill-opacity:0" cx="369.531" cy="1504.63" r="2"/>
<circle clip-path="url(#clip982)" style="fill:#009af9; stroke:none; fill-opacity:0" cx="464.889" cy="1492.35" r="2"/>
<circle clip-path="url(#clip982)" style="fill:#009af9; stroke:none; fill-opacity:0" cx="560.246" cy="1443.23" r="2"/>
<circle clip-path="url(#clip982)" style="fill:#009af9; stroke:none; fill-opacity:0" cx="655.603" cy="1336.79" r="2"/>
<circle clip-path="url(#clip982)" style="fill:#009af9; stroke:none; fill-opacity:0" cx="750.961" cy="1173.04" r="2"/>
<circle clip-path="url(#clip982)" style="fill:#009af9; stroke:none; fill-opacity:0" cx="846.318" cy="1074.78" r="2"/>
<circle clip-path="url(#clip982)" style="fill:#009af9; stroke:none; fill-opacity:0" cx="941.676" cy="804.595" r="2"/>
<circle clip-path="url(#clip982)" style="fill:#009af9; stroke:none; fill-opacity:0" cx="1037.03" cy="276.496" r="2"/>
<circle clip-path="url(#clip982)" style="fill:#009af9; stroke:none; fill-opacity:0" cx="1132.39" cy="47.2441" r="2"/>
<circle clip-path="url(#clip982)" style="fill:#009af9; stroke:none; fill-opacity:0" cx="1227.75" cy="96.3696" r="2"/>
<circle clip-path="url(#clip982)" style="fill:#009af9; stroke:none; fill-opacity:0" cx="1323.11" cy="489.373" r="2"/>
<circle clip-path="url(#clip982)" style="fill:#009af9; stroke:none; fill-opacity:0" cx="1418.46" cy="653.125" r="2"/>
<circle clip-path="url(#clip982)" style="fill:#009af9; stroke:none; fill-opacity:0" cx="1513.82" cy="1042.03" r="2"/>
<circle clip-path="url(#clip982)" style="fill:#009af9; stroke:none; fill-opacity:0" cx="1609.18" cy="1082.97" r="2"/>
<circle clip-path="url(#clip982)" style="fill:#009af9; stroke:none; fill-opacity:0" cx="1704.54" cy="1263.1" r="2"/>
<circle clip-path="url(#clip982)" style="fill:#009af9; stroke:none; fill-opacity:0" cx="1799.89" cy="1447.32" r="2"/>
<circle clip-path="url(#clip982)" style="fill:#009af9; stroke:none; fill-opacity:0" cx="1895.25" cy="1475.98" r="2"/>
<circle clip-path="url(#clip982)" style="fill:#009af9; stroke:none; fill-opacity:0" cx="1990.61" cy="1516.91" r="2"/>
<circle clip-path="url(#clip982)" style="fill:#009af9; stroke:none; fill-opacity:0" cx="2085.96" cy="1516.91" r="2"/>
<circle clip-path="url(#clip982)" style="fill:#009af9; stroke:none; fill-opacity:0" cx="2181.32" cy="1516.91" r="2"/>
<polyline clip-path="url(#clip982)" style="stroke:#e26f46; stroke-linecap:round; stroke-linejoin:round; stroke-width:4; stroke-opacity:1; fill:none" points="213.587,1519.68 219.908,1519.56 226.228,1519.42 284.669,1517.49 343.11,1513.59 378.231,1509.66 413.351,1503.97 443.045,1497.32 472.739,1488.5 488.867,1482.61 504.995,1475.82 521.123,1468.04 537.251,1459.15 552.12,1449.89 566.988,1439.5 581.857,1427.89 596.726,1414.98 612.666,1399.58 628.607,1382.46 644.548,1363.52 660.489,1342.65 678.957,1315.96 697.426,1286.44 715.895,1254.01 734.364,1218.62 750.777,1184.66 767.19,1148.37 783.603,1109.79 800.016,1069.01 814.409,1031.53 828.801,992.545 843.194,952.19 857.587,910.612 888.97,816.574 920.354,719.714 951.924,622.044 983.495,527.115 992.221,501.784 1000.95,476.974 1009.67,452.756 1018.4,429.196 1027.13,406.363 1035.85,384.323 1044.58,363.142 1053.3,342.884 1061.61,324.523 1069.91,307.103 1078.21,290.676 1086.52,275.287 1094.82,260.981 1103.12,247.799 1111.42,235.781 1119.73,224.96 1128.36,215.015 1136.99,206.433 1145.63,199.24 1154.26,193.461 1162.89,189.114 1171.53,186.214 1180.16,184.769 1188.79,184.786 1196.06,185.932 1203.33,188.111 1210.59,191.317 1217.86,195.543 1225.13,200.78 1232.39,207.014 1239.66,214.233 1246.93,222.418 1255.8,233.696 1264.67,246.349 1273.55,260.335 1282.42,275.607 1291.29,292.115 1300.16,309.803 1309.03,328.616 1317.91,348.492 1334.16,387.454 1350.42,429.362 1358.55,451.289 1366.67,473.791 1374.8,496.813 1382.93,520.299 1412.95,610.179 1442.98,702.883 1473.4,797.007 1503.81,888.942 1520.85,938.722 1537.9,986.863 1554.94,1033.11 1571.99,1077.25 1587.43,1115.28 1602.87,1151.35 1618.32,1185.39 1633.76,1217.36 1651.45,1251.4 1669.13,1282.73 1686.81,1311.37 1704.49,1337.42 1720.87,1359.31 1737.24,1379.14 1753.61,1397.04 1769.98,1413.1 1786.12,1427.25 1802.27,1439.86 1818.41,1451.05 1834.55,1460.92 1850.22,1469.36 1865.89,1476.77 1881.56,1483.26 1897.24,1488.91 1929.37,1498.25 1961.5,1505.11 1996.7,1510.46 2031.91,1514.14 2083.05,1517.44 2134.18,1519.23 2144.68,1519.47 2155.17,1519.68 "/>
<path clip-path="url(#clip980)" d="M1506.85 251.89 L2277.76 251.89 L2277.76 96.3696 L1506.85 96.3696  Z" fill="#ffffff" fill-rule="evenodd" fill-opacity="1"/>
<polyline clip-path="url(#clip980)" style="stroke:#000000; stroke-linecap:round; stroke-linejoin:round; stroke-width:4; stroke-opacity:1; fill:none" points="1506.85,251.89 2277.76,251.89 2277.76,96.3696 1506.85,96.3696 1506.85,251.89 "/>
<path clip-path="url(#clip980)" d="M1531.85 168.946 L1681.86 168.946 L1681.86 127.474 L1531.85 127.474 L1531.85 168.946  Z" fill="#009af9" fill-rule="evenodd" fill-opacity="1"/>
<polyline clip-path="url(#clip980)" style="stroke:#000000; stroke-linecap:round; stroke-linejoin:round; stroke-width:4; stroke-opacity:1; fill:none" points="1531.85,168.946 1681.86,168.946 1681.86,127.474 1531.85,127.474 1531.85,168.946 "/>
<path clip-path="url(#clip980)" d="M1718.75 142.55 Q1715.33 142.55 1713.34 145.235 Q1711.35 147.897 1711.35 152.55 Q1711.35 157.203 1713.31 159.888 Q1715.3 162.55 1718.75 162.55 Q1722.16 162.55 1724.15 159.865 Q1726.14 157.179 1726.14 152.55 Q1726.14 147.943 1724.15 145.258 Q1722.16 142.55 1718.75 142.55 M1718.75 138.939 Q1724.31 138.939 1727.48 142.55 Q1730.65 146.161 1730.65 152.55 Q1730.65 158.916 1727.48 162.55 Q1724.31 166.161 1718.75 166.161 Q1713.17 166.161 1710 162.55 Q1706.86 158.916 1706.86 152.55 Q1706.86 146.161 1710 142.55 Q1713.17 138.939 1718.75 138.939 Z" fill="#000000" fill-rule="nonzero" fill-opacity="1" /><path clip-path="url(#clip980)" d="M1737.27 155.258 L1737.27 139.564 L1741.53 139.564 L1741.53 155.096 Q1741.53 158.777 1742.97 160.628 Q1744.4 162.457 1747.27 162.457 Q1750.72 162.457 1752.71 160.258 Q1754.73 158.059 1754.73 154.263 L1754.73 139.564 L1758.98 139.564 L1758.98 165.49 L1754.73 165.49 L1754.73 161.508 Q1753.17 163.869 1751.11 165.027 Q1749.08 166.161 1746.37 166.161 Q1741.9 166.161 1739.59 163.383 Q1737.27 160.605 1737.27 155.258 M1747.99 138.939 L1747.99 138.939 Z" fill="#000000" fill-rule="nonzero" fill-opacity="1" /><path clip-path="url(#clip980)" d="M1771.97 132.203 L1771.97 139.564 L1780.74 139.564 L1780.74 142.874 L1771.97 142.874 L1771.97 156.948 Q1771.97 160.119 1772.83 161.022 Q1773.71 161.925 1776.37 161.925 L1780.74 161.925 L1780.74 165.49 L1776.37 165.49 Q1771.44 165.49 1769.56 163.661 Q1767.69 161.809 1767.69 156.948 L1767.69 142.874 L1764.56 142.874 L1764.56 139.564 L1767.69 139.564 L1767.69 132.203 L1771.97 132.203 Z" fill="#000000" fill-rule="nonzero" fill-opacity="1" /><path clip-path="url(#clip980)" d="M1805 140.559 L1805 144.541 Q1803.2 143.545 1801.37 143.059 Q1799.56 142.55 1797.71 142.55 Q1793.57 142.55 1791.28 145.189 Q1788.98 147.804 1788.98 152.55 Q1788.98 157.295 1791.28 159.934 Q1793.57 162.55 1797.71 162.55 Q1799.56 162.55 1801.37 162.064 Q1803.2 161.554 1805 160.559 L1805 164.494 Q1803.22 165.328 1801.3 165.744 Q1799.4 166.161 1797.25 166.161 Q1791.39 166.161 1787.94 162.48 Q1784.49 158.8 1784.49 152.55 Q1784.49 146.207 1787.97 142.573 Q1791.46 138.939 1797.53 138.939 Q1799.49 138.939 1801.37 139.355 Q1803.24 139.749 1805 140.559 Z" fill="#000000" fill-rule="nonzero" fill-opacity="1" /><path clip-path="url(#clip980)" d="M1822.46 142.55 Q1819.03 142.55 1817.04 145.235 Q1815.05 147.897 1815.05 152.55 Q1815.05 157.203 1817.02 159.888 Q1819.01 162.55 1822.46 162.55 Q1825.86 162.55 1827.85 159.865 Q1829.84 157.179 1829.84 152.55 Q1829.84 147.943 1827.85 145.258 Q1825.86 142.55 1822.46 142.55 M1822.46 138.939 Q1828.01 138.939 1831.18 142.55 Q1834.35 146.161 1834.35 152.55 Q1834.35 158.916 1831.18 162.55 Q1828.01 166.161 1822.46 166.161 Q1816.88 166.161 1813.71 162.55 Q1810.56 158.916 1810.56 152.55 Q1810.56 146.161 1813.71 142.55 Q1816.88 138.939 1822.46 138.939 Z" fill="#000000" fill-rule="nonzero" fill-opacity="1" /><path clip-path="url(#clip980)" d="M1861.6 144.541 Q1863.2 141.67 1865.42 140.305 Q1867.64 138.939 1870.65 138.939 Q1874.7 138.939 1876.9 141.786 Q1879.1 144.61 1879.1 149.841 L1879.1 165.49 L1874.82 165.49 L1874.82 149.98 Q1874.82 146.254 1873.5 144.448 Q1872.18 142.642 1869.47 142.642 Q1866.16 142.642 1864.24 144.842 Q1862.32 147.041 1862.32 150.837 L1862.32 165.49 L1858.04 165.49 L1858.04 149.98 Q1858.04 146.23 1856.72 144.448 Q1855.4 142.642 1852.64 142.642 Q1849.38 142.642 1847.46 144.865 Q1845.54 147.064 1845.54 150.837 L1845.54 165.49 L1841.25 165.49 L1841.25 139.564 L1845.54 139.564 L1845.54 143.592 Q1846.99 141.207 1849.03 140.073 Q1851.07 138.939 1853.87 138.939 Q1856.69 138.939 1858.66 140.374 Q1860.65 141.809 1861.6 144.541 Z" fill="#000000" fill-rule="nonzero" fill-opacity="1" /><path clip-path="url(#clip980)" d="M1909.77 151.462 L1909.77 153.545 L1890.19 153.545 Q1890.47 157.943 1892.83 160.258 Q1895.21 162.55 1899.45 162.55 Q1901.9 162.55 1904.19 161.948 Q1906.51 161.346 1908.78 160.142 L1908.78 164.17 Q1906.48 165.142 1904.08 165.652 Q1901.67 166.161 1899.19 166.161 Q1892.99 166.161 1889.35 162.55 Q1885.74 158.939 1885.74 152.781 Q1885.74 146.416 1889.17 142.689 Q1892.62 138.939 1898.45 138.939 Q1903.68 138.939 1906.72 142.318 Q1909.77 145.675 1909.77 151.462 M1905.51 150.212 Q1905.47 146.717 1903.54 144.633 Q1901.65 142.55 1898.5 142.55 Q1894.93 142.55 1892.78 144.564 Q1890.65 146.578 1890.33 150.235 L1905.51 150.212 Z" fill="#000000" fill-rule="nonzero" fill-opacity="1" /><path clip-path="url(#clip980)" d="M1929.68 150.605 L1942.16 150.605 L1942.16 154.402 L1929.68 154.402 L1929.68 150.605 Z" fill="#000000" fill-rule="nonzero" fill-opacity="1" /><path clip-path="url(#clip980)" d="M1968.13 161.601 L1968.13 175.351 L1963.84 175.351 L1963.84 139.564 L1968.13 139.564 L1968.13 143.499 Q1969.47 141.184 1971.51 140.073 Q1973.57 138.939 1976.41 138.939 Q1981.14 138.939 1984.08 142.689 Q1987.04 146.439 1987.04 152.55 Q1987.04 158.661 1984.08 162.411 Q1981.14 166.161 1976.41 166.161 Q1973.57 166.161 1971.51 165.05 Q1969.47 163.915 1968.13 161.601 M1982.62 152.55 Q1982.62 147.851 1980.67 145.189 Q1978.75 142.504 1975.37 142.504 Q1971.99 142.504 1970.05 145.189 Q1968.13 147.851 1968.13 152.55 Q1968.13 157.249 1970.05 159.934 Q1971.99 162.596 1975.37 162.596 Q1978.75 162.596 1980.67 159.934 Q1982.62 157.249 1982.62 152.55 Z" fill="#000000" fill-rule="nonzero" fill-opacity="1" /><path clip-path="url(#clip980)" d="M2004.15 142.55 Q2000.72 142.55 1998.73 145.235 Q1996.74 147.897 1996.74 152.55 Q1996.74 157.203 1998.71 159.888 Q2000.7 162.55 2004.15 162.55 Q2007.55 162.55 2009.54 159.865 Q2011.53 157.179 2011.53 152.55 Q2011.53 147.943 2009.54 145.258 Q2007.55 142.55 2004.15 142.55 M2004.15 138.939 Q2009.7 138.939 2012.87 142.55 Q2016.04 146.161 2016.04 152.55 Q2016.04 158.916 2012.87 162.55 Q2009.7 166.161 2004.15 166.161 Q1998.57 166.161 1995.4 162.55 Q1992.25 158.916 1992.25 152.55 Q1992.25 146.161 1995.4 142.55 Q1998.57 138.939 2004.15 138.939 Z" fill="#000000" fill-rule="nonzero" fill-opacity="1" /><path clip-path="url(#clip980)" d="M2023.1 139.564 L2027.36 139.564 L2027.36 165.49 L2023.1 165.49 L2023.1 139.564 M2023.1 129.471 L2027.36 129.471 L2027.36 134.865 L2023.1 134.865 L2023.1 129.471 Z" fill="#000000" fill-rule="nonzero" fill-opacity="1" /><path clip-path="url(#clip980)" d="M2057.83 149.841 L2057.83 165.49 L2053.57 165.49 L2053.57 149.98 Q2053.57 146.3 2052.13 144.471 Q2050.7 142.642 2047.83 142.642 Q2044.38 142.642 2042.39 144.842 Q2040.4 147.041 2040.4 150.837 L2040.4 165.49 L2036.11 165.49 L2036.11 139.564 L2040.4 139.564 L2040.4 143.592 Q2041.92 141.254 2043.98 140.096 Q2046.07 138.939 2048.77 138.939 Q2053.24 138.939 2055.53 141.717 Q2057.83 144.471 2057.83 149.841 Z" fill="#000000" fill-rule="nonzero" fill-opacity="1" /><path clip-path="url(#clip980)" d="M2070.53 132.203 L2070.53 139.564 L2079.31 139.564 L2079.31 142.874 L2070.53 142.874 L2070.53 156.948 Q2070.53 160.119 2071.39 161.022 Q2072.27 161.925 2074.93 161.925 L2079.31 161.925 L2079.31 165.49 L2074.93 165.49 Q2070 165.49 2068.13 163.661 Q2066.25 161.809 2066.25 156.948 L2066.25 142.874 L2063.13 142.874 L2063.13 139.564 L2066.25 139.564 L2066.25 132.203 L2070.53 132.203 Z" fill="#000000" fill-rule="nonzero" fill-opacity="1" /><path clip-path="url(#clip980)" d="M2116.51 140.328 L2116.51 144.355 Q2114.7 143.429 2112.76 142.967 Q2110.81 142.504 2108.73 142.504 Q2105.56 142.504 2103.96 143.476 Q2102.39 144.448 2102.39 146.392 Q2102.39 147.874 2103.52 148.73 Q2104.65 149.564 2108.08 150.328 L2109.54 150.652 Q2114.08 151.624 2115.97 153.406 Q2117.89 155.166 2117.89 158.337 Q2117.89 161.948 2115.02 164.054 Q2112.18 166.161 2107.18 166.161 Q2105.09 166.161 2102.83 165.744 Q2100.58 165.351 2098.08 164.54 L2098.08 160.142 Q2100.44 161.369 2102.73 161.994 Q2105.02 162.596 2107.27 162.596 Q2110.28 162.596 2111.9 161.578 Q2113.52 160.536 2113.52 158.661 Q2113.52 156.925 2112.34 155.999 Q2111.18 155.073 2107.22 154.216 L2105.74 153.869 Q2101.78 153.036 2100.02 151.323 Q2098.27 149.587 2098.27 146.578 Q2098.27 142.92 2100.86 140.93 Q2103.45 138.939 2108.22 138.939 Q2110.58 138.939 2112.66 139.286 Q2114.75 139.633 2116.51 140.328 Z" fill="#000000" fill-rule="nonzero" fill-opacity="1" /><path clip-path="url(#clip980)" d="M2128.8 161.601 L2128.8 175.351 L2124.52 175.351 L2124.52 139.564 L2128.8 139.564 L2128.8 143.499 Q2130.14 141.184 2132.18 140.073 Q2134.24 138.939 2137.08 138.939 Q2141.81 138.939 2144.75 142.689 Q2147.71 146.439 2147.71 152.55 Q2147.71 158.661 2144.75 162.411 Q2141.81 166.161 2137.08 166.161 Q2134.24 166.161 2132.18 165.05 Q2130.14 163.915 2128.8 161.601 M2143.29 152.55 Q2143.29 147.851 2141.34 145.189 Q2139.42 142.504 2136.04 142.504 Q2132.66 142.504 2130.72 145.189 Q2128.8 147.851 2128.8 152.55 Q2128.8 157.249 2130.72 159.934 Q2132.66 162.596 2136.04 162.596 Q2139.42 162.596 2141.34 159.934 Q2143.29 157.249 2143.29 152.55 Z" fill="#000000" fill-rule="nonzero" fill-opacity="1" /><path clip-path="url(#clip980)" d="M2169.79 143.545 Q2169.08 143.129 2168.22 142.943 Q2167.39 142.735 2166.37 142.735 Q2162.76 142.735 2160.81 145.096 Q2158.89 147.434 2158.89 151.832 L2158.89 165.49 L2154.61 165.49 L2154.61 139.564 L2158.89 139.564 L2158.89 143.592 Q2160.23 141.23 2162.39 140.096 Q2164.54 138.939 2167.62 138.939 Q2168.06 138.939 2168.59 139.008 Q2169.12 139.055 2169.77 139.17 L2169.79 143.545 Z" fill="#000000" fill-rule="nonzero" fill-opacity="1" /><path clip-path="url(#clip980)" d="M2195.39 151.462 L2195.39 153.545 L2175.81 153.545 Q2176.09 157.943 2178.45 160.258 Q2180.83 162.55 2185.07 162.55 Q2187.52 162.55 2189.82 161.948 Q2192.13 161.346 2194.4 160.142 L2194.4 164.17 Q2192.11 165.142 2189.7 165.652 Q2187.29 166.161 2184.82 166.161 Q2178.61 166.161 2174.98 162.55 Q2171.37 158.939 2171.37 152.781 Q2171.37 146.416 2174.79 142.689 Q2178.24 138.939 2184.08 138.939 Q2189.31 138.939 2192.34 142.318 Q2195.39 145.675 2195.39 151.462 M2191.14 150.212 Q2191.09 146.717 2189.17 144.633 Q2187.27 142.55 2184.12 142.55 Q2180.56 142.55 2178.4 144.564 Q2176.27 146.578 2175.95 150.235 L2191.14 150.212 Z" fill="#000000" fill-rule="nonzero" fill-opacity="1" /><path clip-path="url(#clip980)" d="M2214.17 152.457 Q2209.01 152.457 2207.01 153.638 Q2205.02 154.818 2205.02 157.666 Q2205.02 159.934 2206.51 161.277 Q2208.01 162.596 2210.58 162.596 Q2214.12 162.596 2216.25 160.096 Q2218.4 157.573 2218.4 153.406 L2218.4 152.457 L2214.17 152.457 M2222.66 150.698 L2222.66 165.49 L2218.4 165.49 L2218.4 161.554 Q2216.95 163.915 2214.77 165.05 Q2212.59 166.161 2209.45 166.161 Q2205.46 166.161 2203.1 163.939 Q2200.76 161.693 2200.76 157.943 Q2200.76 153.568 2203.68 151.346 Q2206.62 149.124 2212.43 149.124 L2218.4 149.124 L2218.4 148.707 Q2218.4 145.767 2216.46 144.17 Q2214.54 142.55 2211.04 142.55 Q2208.82 142.55 2206.71 143.082 Q2204.61 143.615 2202.66 144.679 L2202.66 140.744 Q2205 139.842 2207.2 139.402 Q2209.4 138.939 2211.48 138.939 Q2217.11 138.939 2219.89 141.855 Q2222.66 144.772 2222.66 150.698 Z" fill="#000000" fill-rule="nonzero" fill-opacity="1" /><path clip-path="url(#clip980)" d="M2248.5 143.499 L2248.5 129.471 L2252.76 129.471 L2252.76 165.49 L2248.5 165.49 L2248.5 161.601 Q2247.15 163.915 2245.09 165.05 Q2243.06 166.161 2240.19 166.161 Q2235.49 166.161 2232.52 162.411 Q2229.58 158.661 2229.58 152.55 Q2229.58 146.439 2232.52 142.689 Q2235.49 138.939 2240.19 138.939 Q2243.06 138.939 2245.09 140.073 Q2247.15 141.184 2248.5 143.499 M2233.98 152.55 Q2233.98 157.249 2235.9 159.934 Q2237.85 162.596 2241.23 162.596 Q2244.61 162.596 2246.55 159.934 Q2248.5 157.249 2248.5 152.55 Q2248.5 147.851 2246.55 145.189 Q2244.61 142.504 2241.23 142.504 Q2237.85 142.504 2235.9 145.189 Q2233.98 147.851 2233.98 152.55 Z" fill="#000000" fill-rule="nonzero" fill-opacity="1" /><polyline clip-path="url(#clip980)" style="stroke:#e26f46; stroke-linecap:round; stroke-linejoin:round; stroke-width:4; stroke-opacity:1; fill:none" points="1531.85,200.05 1681.86,200.05 "/>
<path clip-path="url(#clip980)" d="M1706.86 182.77 L1713.15 182.77 L1728.48 211.681 L1728.48 182.77 L1733.01 182.77 L1733.01 217.33 L1726.72 217.33 L1711.39 188.418 L1711.39 217.33 L1706.86 217.33 L1706.86 182.77 Z" fill="#000000" fill-rule="nonzero" fill-opacity="1" /><path clip-path="url(#clip980)" d="M1752.18 194.39 Q1748.75 194.39 1746.76 197.075 Q1744.77 199.737 1744.77 204.39 Q1744.77 209.043 1746.74 211.728 Q1748.73 214.39 1752.18 214.39 Q1755.58 214.39 1757.57 211.705 Q1759.56 209.019 1759.56 204.39 Q1759.56 199.783 1757.57 197.098 Q1755.58 194.39 1752.18 194.39 M1752.18 190.779 Q1757.73 190.779 1760.91 194.39 Q1764.08 198.001 1764.08 204.39 Q1764.08 210.756 1760.91 214.39 Q1757.73 218.001 1752.18 218.001 Q1746.6 218.001 1743.43 214.39 Q1740.28 210.756 1740.28 204.39 Q1740.28 198.001 1743.43 194.39 Q1746.6 190.779 1752.18 190.779 Z" fill="#000000" fill-rule="nonzero" fill-opacity="1" /><path clip-path="url(#clip980)" d="M1786.16 195.385 Q1785.44 194.969 1784.59 194.783 Q1783.75 194.575 1782.73 194.575 Q1779.12 194.575 1777.18 196.936 Q1775.26 199.274 1775.26 203.672 L1775.26 217.33 L1770.98 217.33 L1770.98 191.404 L1775.26 191.404 L1775.26 195.432 Q1776.6 193.07 1778.75 191.936 Q1780.91 190.779 1783.98 190.779 Q1784.42 190.779 1784.96 190.848 Q1785.49 190.895 1786.14 191.01 L1786.16 195.385 Z" fill="#000000" fill-rule="nonzero" fill-opacity="1" /><path clip-path="url(#clip980)" d="M1809.98 196.381 Q1811.58 193.51 1813.8 192.145 Q1816.02 190.779 1819.03 190.779 Q1823.08 190.779 1825.28 193.626 Q1827.48 196.45 1827.48 201.681 L1827.48 217.33 L1823.2 217.33 L1823.2 201.82 Q1823.2 198.094 1821.88 196.288 Q1820.56 194.482 1817.85 194.482 Q1814.54 194.482 1812.62 196.682 Q1810.7 198.881 1810.7 202.677 L1810.7 217.33 L1806.42 217.33 L1806.42 201.82 Q1806.42 198.07 1805.1 196.288 Q1803.78 194.482 1801.02 194.482 Q1797.76 194.482 1795.84 196.705 Q1793.92 198.904 1793.92 202.677 L1793.92 217.33 L1789.63 217.33 L1789.63 191.404 L1793.92 191.404 L1793.92 195.432 Q1795.37 193.047 1797.41 191.913 Q1799.45 190.779 1802.25 190.779 Q1805.07 190.779 1807.04 192.214 Q1809.03 193.649 1809.98 196.381 Z" fill="#000000" fill-rule="nonzero" fill-opacity="1" /><path clip-path="url(#clip980)" d="M1847.76 204.297 Q1842.6 204.297 1840.6 205.478 Q1838.61 206.658 1838.61 209.506 Q1838.61 211.774 1840.1 213.117 Q1841.6 214.436 1844.17 214.436 Q1847.71 214.436 1849.84 211.936 Q1851.99 209.413 1851.99 205.246 L1851.99 204.297 L1847.76 204.297 M1856.25 202.538 L1856.25 217.33 L1851.99 217.33 L1851.99 213.394 Q1850.54 215.755 1848.36 216.89 Q1846.18 218.001 1843.04 218.001 Q1839.05 218.001 1836.69 215.779 Q1834.35 213.533 1834.35 209.783 Q1834.35 205.408 1837.27 203.186 Q1840.21 200.964 1846.02 200.964 L1851.99 200.964 L1851.99 200.547 Q1851.99 197.607 1850.05 196.01 Q1848.13 194.39 1844.63 194.39 Q1842.41 194.39 1840.3 194.922 Q1838.2 195.455 1836.25 196.519 L1836.25 192.584 Q1838.59 191.682 1840.79 191.242 Q1842.99 190.779 1845.07 190.779 Q1850.7 190.779 1853.47 193.695 Q1856.25 196.612 1856.25 202.538 Z" fill="#000000" fill-rule="nonzero" fill-opacity="1" /><path clip-path="url(#clip980)" d="M1865.03 181.311 L1869.29 181.311 L1869.29 217.33 L1865.03 217.33 L1865.03 181.311 Z" fill="#000000" fill-rule="nonzero" fill-opacity="1" /><path clip-path="url(#clip980)" d="M1898.13 186.612 L1898.13 199.598 L1904.01 199.598 Q1907.27 199.598 1909.05 197.908 Q1910.84 196.219 1910.84 193.094 Q1910.84 189.992 1909.05 188.302 Q1907.27 186.612 1904.01 186.612 L1898.13 186.612 M1893.45 182.77 L1904.01 182.77 Q1909.82 182.77 1912.78 185.408 Q1915.77 188.024 1915.77 193.094 Q1915.77 198.209 1912.78 200.825 Q1909.82 203.441 1904.01 203.441 L1898.13 203.441 L1898.13 217.33 L1893.45 217.33 L1893.45 182.77 Z" fill="#000000" fill-rule="nonzero" fill-opacity="1" /><path clip-path="url(#clip980)" d="M1926.72 186.612 L1926.72 213.487 L1932.36 213.487 Q1939.52 213.487 1942.83 210.246 Q1946.16 207.006 1946.16 200.015 Q1946.16 193.07 1942.83 189.853 Q1939.52 186.612 1932.36 186.612 L1926.72 186.612 M1922.04 182.77 L1931.65 182.77 Q1941.69 182.77 1946.39 186.959 Q1951.09 191.126 1951.09 200.015 Q1951.09 208.95 1946.37 213.14 Q1941.65 217.33 1931.65 217.33 L1922.04 217.33 L1922.04 182.77 Z" fill="#000000" fill-rule="nonzero" fill-opacity="1" /><path clip-path="url(#clip980)" d="M1958.54 182.77 L1978.4 182.77 L1978.4 186.705 L1963.22 186.705 L1963.22 196.89 L1976.92 196.89 L1976.92 200.825 L1963.22 200.825 L1963.22 217.33 L1958.54 217.33 L1958.54 182.77 Z" fill="#000000" fill-rule="nonzero" fill-opacity="1" /></svg>
