<?xml version="1.0" encoding="utf-8"?>
<svg xmlns="http://www.w3.org/2000/svg" xmlns:xlink="http://www.w3.org/1999/xlink" width="600" height="400" viewBox="0 0 2400 1600">
<defs>
  <clipPath id="clip120">
    <rect x="0" y="0" width="2400" height="1600"/>
  </clipPath>
</defs>
<path clip-path="url(#clip120)" d="M0 1600 L2400 1600 L2400 0 L0 0  Z" fill="#ffffff" fill-rule="evenodd" fill-opacity="1"/>
<defs>
  <clipPath id="clip121">
    <rect x="480" y="0" width="1681" height="1600"/>
  </clipPath>
</defs>
<path clip-path="url(#clip120)" d="M102.74 1521.01 L2352.76 1521.01 L2352.76 47.2441 L102.74 47.2441  Z" fill="#ffffff" fill-rule="evenodd" fill-opacity="1"/>
<defs>
  <clipPath id="clip122">
    <rect x="102" y="47" width="2251" height="1475"/>
  </clipPath>
</defs>
<polyline clip-path="url(#clip122)" style="stroke:#000000; stroke-linecap:round; stroke-linejoin:round; stroke-width:2; stroke-opacity:0.1; fill:none" points="226.495,1521.01 226.495,47.2441 "/>
<polyline clip-path="url(#clip122)" style="stroke:#000000; stroke-linecap:round; stroke-linejoin:round; stroke-width:2; stroke-opacity:0.1; fill:none" points="703.282,1521.01 703.282,47.2441 "/>
<polyline clip-path="url(#clip122)" style="stroke:#000000; stroke-linecap:round; stroke-linejoin:round; stroke-width:2; stroke-opacity:0.1; fill:none" points="1180.07,1521.01 1180.07,47.2441 "/>
<polyline clip-path="url(#clip122)" style="stroke:#000000; stroke-linecap:round; stroke-linejoin:round; stroke-width:2; stroke-opacity:0.1; fill:none" points="1656.86,1521.01 1656.86,47.2441 "/>
<polyline clip-path="url(#clip122)" style="stroke:#000000; stroke-linecap:round; stroke-linejoin:round; stroke-width:2; stroke-opacity:0.1; fill:none" points="2133.64,1521.01 2133.64,47.2441 "/>
<polyline clip-path="url(#clip120)" style="stroke:#000000; stroke-linecap:round; stroke-linejoin:round; stroke-width:4; stroke-opacity:1; fill:none" points="102.74,1521.01 2352.76,1521.01 "/>
<polyline clip-path="url(#clip120)" style="stroke:#000000; stroke-linecap:round; stroke-linejoin:round; stroke-width:4; stroke-opacity:1; fill:none" points="226.495,1521.01 226.495,1502.11 "/>
<polyline clip-path="url(#clip120)" style="stroke:#000000; stroke-linecap:round; stroke-linejoin:round; stroke-width:4; stroke-opacity:1; fill:none" points="703.282,1521.01 703.282,1502.11 "/>
<polyline clip-path="url(#clip120)" style="stroke:#000000; stroke-linecap:round; stroke-linejoin:round; stroke-width:4; stroke-opacity:1; fill:none" points="1180.07,1521.01 1180.07,1502.11 "/>
<polyline clip-path="url(#clip120)" style="stroke:#000000; stroke-linecap:round; stroke-linejoin:round; stroke-width:4; stroke-opacity:1; fill:none" points="1656.86,1521.01 1656.86,1502.11 "/>
<polyline clip-path="url(#clip120)" style="stroke:#000000; stroke-linecap:round; stroke-linejoin:round; stroke-width:4; stroke-opacity:1; fill:none" points="2133.64,1521.01 2133.64,1502.11 "/>
<path clip-path="url(#clip120)" d="M180.558 1566.58 L210.234 1566.58 L210.234 1570.51 L180.558 1570.51 L180.558 1566.58 Z" fill="#000000" fill-rule="nonzero" fill-opacity="1" /><path clip-path="url(#clip120)" d="M220.372 1548.85 L238.729 1548.85 L238.729 1552.78 L224.655 1552.78 L224.655 1561.26 Q225.673 1560.91 226.692 1560.75 Q227.71 1560.56 228.729 1560.56 Q234.516 1560.56 237.895 1563.73 Q241.275 1566.9 241.275 1572.32 Q241.275 1577.9 237.803 1581 Q234.331 1584.08 228.011 1584.08 Q225.835 1584.08 223.567 1583.71 Q221.321 1583.34 218.914 1582.6 L218.914 1577.9 Q220.997 1579.03 223.22 1579.59 Q225.442 1580.14 227.919 1580.14 Q231.923 1580.14 234.261 1578.04 Q236.599 1575.93 236.599 1572.32 Q236.599 1568.71 234.261 1566.6 Q231.923 1564.5 227.919 1564.5 Q226.044 1564.5 224.169 1564.91 Q222.317 1565.33 220.372 1566.21 L220.372 1548.85 Z" fill="#000000" fill-rule="nonzero" fill-opacity="1" /><path clip-path="url(#clip120)" d="M260.488 1551.93 Q256.877 1551.93 255.048 1555.49 Q253.243 1559.03 253.243 1566.16 Q253.243 1573.27 255.048 1576.83 Q256.877 1580.38 260.488 1580.38 Q264.122 1580.38 265.928 1576.83 Q267.756 1573.27 267.756 1566.16 Q267.756 1559.03 265.928 1555.49 Q264.122 1551.93 260.488 1551.93 M260.488 1548.22 Q266.298 1548.22 269.354 1552.83 Q272.432 1557.41 272.432 1566.16 Q272.432 1574.89 269.354 1579.5 Q266.298 1584.08 260.488 1584.08 Q254.678 1584.08 251.599 1579.5 Q248.544 1574.89 248.544 1566.16 Q248.544 1557.41 251.599 1552.83 Q254.678 1548.22 260.488 1548.22 Z" fill="#000000" fill-rule="nonzero" fill-opacity="1" /><path clip-path="url(#clip120)" d="M657.843 1566.58 L687.518 1566.58 L687.518 1570.51 L657.843 1570.51 L657.843 1566.58 Z" fill="#000000" fill-rule="nonzero" fill-opacity="1" /><path clip-path="url(#clip120)" d="M701.639 1579.47 L717.958 1579.47 L717.958 1583.41 L696.014 1583.41 L696.014 1579.47 Q698.676 1576.72 703.259 1572.09 Q707.865 1567.44 709.046 1566.09 Q711.291 1563.57 712.171 1561.83 Q713.074 1560.07 713.074 1558.38 Q713.074 1555.63 711.129 1553.89 Q709.208 1552.16 706.106 1552.16 Q703.907 1552.16 701.453 1552.92 Q699.023 1553.69 696.245 1555.24 L696.245 1550.51 Q699.069 1549.38 701.523 1548.8 Q703.977 1548.22 706.014 1548.22 Q711.384 1548.22 714.578 1550.91 Q717.773 1553.59 717.773 1558.08 Q717.773 1560.21 716.963 1562.13 Q716.176 1564.03 714.069 1566.63 Q713.49 1567.3 710.389 1570.51 Q707.287 1573.71 701.639 1579.47 Z" fill="#000000" fill-rule="nonzero" fill-opacity="1" /><path clip-path="url(#clip120)" d="M727.819 1548.85 L746.175 1548.85 L746.175 1552.78 L732.101 1552.78 L732.101 1561.26 Q733.12 1560.91 734.138 1560.75 Q735.157 1560.56 736.176 1560.56 Q741.963 1560.56 745.342 1563.73 Q748.722 1566.9 748.722 1572.32 Q748.722 1577.9 745.25 1581 Q741.777 1584.08 735.458 1584.08 Q733.282 1584.08 731.014 1583.71 Q728.768 1583.34 726.361 1582.6 L726.361 1577.9 Q728.444 1579.03 730.666 1579.59 Q732.888 1580.14 735.365 1580.14 Q739.37 1580.14 741.708 1578.04 Q744.046 1575.93 744.046 1572.32 Q744.046 1568.71 741.708 1566.6 Q739.37 1564.5 735.365 1564.5 Q733.49 1564.5 731.615 1564.91 Q729.764 1565.33 727.819 1566.21 L727.819 1548.85 Z" fill="#000000" fill-rule="nonzero" fill-opacity="1" /><path clip-path="url(#clip120)" d="M1180.07 1551.93 Q1176.46 1551.93 1174.63 1555.49 Q1172.82 1559.03 1172.82 1566.16 Q1172.82 1573.27 1174.63 1576.83 Q1176.46 1580.38 1180.07 1580.38 Q1183.7 1580.38 1185.51 1576.83 Q1187.34 1573.27 1187.34 1566.16 Q1187.34 1559.03 1185.51 1555.49 Q1183.7 1551.93 1180.07 1551.93 M1180.07 1548.22 Q1185.88 1548.22 1188.94 1552.83 Q1192.01 1557.41 1192.01 1566.16 Q1192.01 1574.89 1188.94 1579.5 Q1185.88 1584.08 1180.07 1584.08 Q1174.26 1584.08 1171.18 1579.5 Q1168.12 1574.89 1168.12 1566.16 Q1168.12 1557.41 1171.18 1552.83 Q1174.26 1548.22 1180.07 1548.22 Z" fill="#000000" fill-rule="nonzero" fill-opacity="1" /><path clip-path="url(#clip120)" d="M1636.13 1579.47 L1652.45 1579.47 L1652.45 1583.41 L1630.5 1583.41 L1630.5 1579.47 Q1633.16 1576.72 1637.75 1572.09 Q1642.35 1567.44 1643.53 1566.09 Q1645.78 1563.57 1646.66 1561.83 Q1647.56 1560.07 1647.56 1558.38 Q1647.56 1555.63 1645.62 1553.89 Q1643.7 1552.16 1640.59 1552.16 Q1638.4 1552.16 1635.94 1552.92 Q1633.51 1553.69 1630.73 1555.24 L1630.73 1550.51 Q1633.56 1549.38 1636.01 1548.8 Q1638.47 1548.22 1640.5 1548.22 Q1645.87 1548.22 1649.07 1550.91 Q1652.26 1553.59 1652.26 1558.08 Q1652.26 1560.21 1651.45 1562.13 Q1650.66 1564.03 1648.56 1566.63 Q1647.98 1567.3 1644.88 1570.51 Q1641.78 1573.71 1636.13 1579.47 Z" fill="#000000" fill-rule="nonzero" fill-opacity="1" /><path clip-path="url(#clip120)" d="M1662.31 1548.85 L1680.66 1548.85 L1680.66 1552.78 L1666.59 1552.78 L1666.59 1561.26 Q1667.61 1560.91 1668.63 1560.75 Q1669.65 1560.56 1670.66 1560.56 Q1676.45 1560.56 1679.83 1563.73 Q1683.21 1566.9 1683.21 1572.32 Q1683.21 1577.9 1679.74 1581 Q1676.27 1584.08 1669.95 1584.08 Q1667.77 1584.08 1665.5 1583.71 Q1663.26 1583.34 1660.85 1582.6 L1660.85 1577.9 Q1662.93 1579.03 1665.16 1579.59 Q1667.38 1580.14 1669.85 1580.14 Q1673.86 1580.14 1676.2 1578.04 Q1678.53 1575.93 1678.53 1572.32 Q1678.53 1568.71 1676.2 1566.6 Q1673.86 1564.5 1669.85 1564.5 Q1667.98 1564.5 1666.1 1564.91 Q1664.25 1565.33 1662.31 1566.21 L1662.31 1548.85 Z" fill="#000000" fill-rule="nonzero" fill-opacity="1" /><path clip-path="url(#clip120)" d="M2108.34 1548.85 L2126.7 1548.85 L2126.7 1552.78 L2112.63 1552.78 L2112.63 1561.26 Q2113.64 1560.91 2114.66 1560.75 Q2115.68 1560.56 2116.7 1560.56 Q2122.49 1560.56 2125.87 1563.73 Q2129.25 1566.9 2129.25 1572.32 Q2129.25 1577.9 2125.77 1581 Q2122.3 1584.08 2115.98 1584.08 Q2113.81 1584.08 2111.54 1583.71 Q2109.29 1583.34 2106.88 1582.6 L2106.88 1577.9 Q2108.97 1579.03 2111.19 1579.59 Q2113.41 1580.14 2115.89 1580.14 Q2119.89 1580.14 2122.23 1578.04 Q2124.57 1575.93 2124.57 1572.32 Q2124.57 1568.71 2122.23 1566.6 Q2119.89 1564.5 2115.89 1564.5 Q2114.01 1564.5 2112.14 1564.91 Q2110.29 1565.33 2108.34 1566.21 L2108.34 1548.85 Z" fill="#000000" fill-rule="nonzero" fill-opacity="1" /><path clip-path="url(#clip120)" d="M2148.46 1551.93 Q2144.85 1551.93 2143.02 1555.49 Q2141.21 1559.03 2141.21 1566.16 Q2141.21 1573.27 2143.02 1576.83 Q2144.85 1580.38 2148.46 1580.38 Q2152.09 1580.38 2153.9 1576.83 Q2155.73 1573.27 2155.73 1566.16 Q2155.73 1559.03 2153.9 1555.49 Q2152.09 1551.93 2148.46 1551.93 M2148.46 1548.22 Q2154.27 1548.22 2157.32 1552.83 Q2160.4 1557.41 2160.4 1566.16 Q2160.4 1574.89 2157.32 1579.5 Q2154.27 1584.08 2148.46 1584.08 Q2142.65 1584.08 2139.57 1579.5 Q2136.51 1574.89 2136.51 1566.16 Q2136.51 1557.41 2139.57 1552.83 Q2142.65 1548.22 2148.46 1548.22 Z" fill="#000000" fill-rule="nonzero" fill-opacity="1" /><polyline clip-path="url(#clip122)" style="stroke:#000000; stroke-linecap:round; stroke-linejoin:round; stroke-width:2; stroke-opacity:0.1; fill:none" points="102.74,1521.01 2352.76,1521.01 "/>
<polyline clip-path="url(#clip122)" style="stroke:#000000; stroke-linecap:round; stroke-linejoin:round; stroke-width:2; stroke-opacity:0.1; fill:none" points="102.74,1111.63 2352.76,1111.63 "/>
<polyline clip-path="url(#clip122)" style="stroke:#000000; stroke-linecap:round; stroke-linejoin:round; stroke-width:2; stroke-opacity:0.1; fill:none" points="102.74,702.25 2352.76,702.25 "/>
<polyline clip-path="url(#clip122)" style="stroke:#000000; stroke-linecap:round; stroke-linejoin:round; stroke-width:2; stroke-opacity:0.1; fill:none" points="102.74,292.871 2352.76,292.871 "/>
<polyline clip-path="url(#clip120)" style="stroke:#000000; stroke-linecap:round; stroke-linejoin:round; stroke-width:4; stroke-opacity:1; fill:none" points="102.74,1521.01 102.74,47.2441 "/>
<polyline clip-path="url(#clip120)" style="stroke:#000000; stroke-linecap:round; stroke-linejoin:round; stroke-width:4; stroke-opacity:1; fill:none" points="102.74,1521.01 121.638,1521.01 "/>
<polyline clip-path="url(#clip120)" style="stroke:#000000; stroke-linecap:round; stroke-linejoin:round; stroke-width:4; stroke-opacity:1; fill:none" points="102.74,1111.63 121.638,1111.63 "/>
<polyline clip-path="url(#clip120)" style="stroke:#000000; stroke-linecap:round; stroke-linejoin:round; stroke-width:4; stroke-opacity:1; fill:none" points="102.74,702.25 121.638,702.25 "/>
<polyline clip-path="url(#clip120)" style="stroke:#000000; stroke-linecap:round; stroke-linejoin:round; stroke-width:4; stroke-opacity:1; fill:none" points="102.74,292.871 121.638,292.871 "/>
<path clip-path="url(#clip120)" d="M54.7958 1506.81 Q51.1847 1506.81 49.356 1510.37 Q47.5504 1513.91 47.5504 1521.04 Q47.5504 1528.15 49.356 1531.71 Q51.1847 1535.26 54.7958 1535.26 Q58.43 1535.26 60.2356 1531.71 Q62.0643 1528.15 62.0643 1521.04 Q62.0643 1513.91 60.2356 1510.37 Q58.43 1506.81 54.7958 1506.81 M54.7958 1503.1 Q60.6059 1503.1 63.6615 1507.71 Q66.7402 1512.29 66.7402 1521.04 Q66.7402 1529.77 63.6615 1534.38 Q60.6059 1538.96 54.7958 1538.96 Q48.9856 1538.96 45.9069 1534.38 Q42.8514 1529.77 42.8514 1521.04 Q42.8514 1512.29 45.9069 1507.71 Q48.9856 1503.1 54.7958 1503.1 Z" fill="#000000" fill-rule="nonzero" fill-opacity="1" /><path clip-path="url(#clip120)" d="M-14.7177 1124.97 L-7.07889 1124.97 L-7.07889 1098.61 L-15.389 1100.27 L-15.389 1096.02 L-7.12519 1094.35 L-2.44929 1094.35 L-2.44929 1124.97 L5.18956 1124.97 L5.18956 1128.91 L-14.7177 1128.91 L-14.7177 1124.97 Z" fill="#000000" fill-rule="nonzero" fill-opacity="1" /><path clip-path="url(#clip120)" d="M24.6339 1097.43 Q21.0228 1097.43 19.1941 1100.99 Q17.3886 1104.53 17.3886 1111.66 Q17.3886 1118.77 19.1941 1122.34 Q21.0228 1125.88 24.6339 1125.88 Q28.2681 1125.88 30.0737 1122.34 Q31.9024 1118.77 31.9024 1111.66 Q31.9024 1104.53 30.0737 1100.99 Q28.2681 1097.43 24.6339 1097.43 M24.6339 1093.72 Q30.4441 1093.72 33.4996 1098.33 Q36.5783 1102.91 36.5783 1111.66 Q36.5783 1120.39 33.4996 1125 Q30.4441 1129.58 24.6339 1129.58 Q18.8237 1129.58 15.7451 1125 Q12.6895 1120.39 12.6895 1111.66 Q12.6895 1102.91 15.7451 1098.33 Q18.8237 1093.72 24.6339 1093.72 Z" fill="#000000" fill-rule="nonzero" fill-opacity="1" /><path clip-path="url(#clip120)" d="M54.7958 1097.43 Q51.1847 1097.43 49.356 1100.99 Q47.5504 1104.53 47.5504 1111.66 Q47.5504 1118.77 49.356 1122.34 Q51.1847 1125.88 54.7958 1125.88 Q58.43 1125.88 60.2356 1122.34 Q62.0643 1118.77 62.0643 1111.66 Q62.0643 1104.53 60.2356 1100.99 Q58.43 1097.43 54.7958 1097.43 M54.7958 1093.72 Q60.6059 1093.72 63.6615 1098.33 Q66.7402 1102.91 66.7402 1111.66 Q66.7402 1120.39 63.6615 1125 Q60.6059 1129.58 54.7958 1129.58 Q48.9856 1129.58 45.9069 1125 Q42.8514 1120.39 42.8514 1111.66 Q42.8514 1102.91 45.9069 1098.33 Q48.9856 1093.72 54.7958 1093.72 Z" fill="#000000" fill-rule="nonzero" fill-opacity="1" /><path clip-path="url(#clip120)" d="M-11.5002 715.595 L4.81919 715.595 L4.81919 719.53 L-17.1251 719.53 L-17.1251 715.595 Q-14.4631 712.84 -9.8798 708.211 Q-5.27335 703.558 -4.0928 702.215 Q-1.84744 699.692 -0.967813 697.956 Q-0.0650401 696.197 -0.0650401 694.507 Q-0.0650401 691.753 -2.00947 690.016 Q-3.93076 688.28 -7.0326 688.28 Q-9.23166 688.28 -11.6853 689.044 Q-14.1159 689.808 -16.8937 691.359 L-16.8937 686.637 Q-14.0696 685.503 -11.6159 684.924 Q-9.16221 684.345 -7.12519 684.345 Q-1.75485 684.345 1.43958 687.03 Q4.63401 689.716 4.63401 694.206 Q4.63401 696.336 3.82383 698.257 Q3.0368 700.155 0.930325 702.748 Q0.351624 703.419 -2.75021 706.637 Q-5.85205 709.831 -11.5002 715.595 Z" fill="#000000" fill-rule="nonzero" fill-opacity="1" /><path clip-path="url(#clip120)" d="M24.6339 688.049 Q21.0228 688.049 19.1941 691.614 Q17.3886 695.155 17.3886 702.285 Q17.3886 709.391 19.1941 712.956 Q21.0228 716.498 24.6339 716.498 Q28.2681 716.498 30.0737 712.956 Q31.9024 709.391 31.9024 702.285 Q31.9024 695.155 30.0737 691.614 Q28.2681 688.049 24.6339 688.049 M24.6339 684.345 Q30.4441 684.345 33.4996 688.952 Q36.5783 693.535 36.5783 702.285 Q36.5783 711.012 33.4996 715.618 Q30.4441 720.202 24.6339 720.202 Q18.8237 720.202 15.7451 715.618 Q12.6895 711.012 12.6895 702.285 Q12.6895 693.535 15.7451 688.952 Q18.8237 684.345 24.6339 684.345 Z" fill="#000000" fill-rule="nonzero" fill-opacity="1" /><path clip-path="url(#clip120)" d="M54.7958 688.049 Q51.1847 688.049 49.356 691.614 Q47.5504 695.155 47.5504 702.285 Q47.5504 709.391 49.356 712.956 Q51.1847 716.498 54.7958 716.498 Q58.43 716.498 60.2356 712.956 Q62.0643 709.391 62.0643 702.285 Q62.0643 695.155 60.2356 691.614 Q58.43 688.049 54.7958 688.049 M54.7958 684.345 Q60.6059 684.345 63.6615 688.952 Q66.7402 693.535 66.7402 702.285 Q66.7402 711.012 63.6615 715.618 Q60.6059 720.202 54.7958 720.202 Q48.9856 720.202 45.9069 715.618 Q42.8514 711.012 42.8514 702.285 Q42.8514 693.535 45.9069 688.952 Q48.9856 684.345 54.7958 684.345 Z" fill="#000000" fill-rule="nonzero" fill-opacity="1" /><path clip-path="url(#clip120)" d="M-1.36133 291.517 Q1.99513 292.235 3.87012 294.503 Q5.76826 296.772 5.76826 300.105 Q5.76826 305.221 2.24976 308.022 Q-1.26874 310.823 -7.75018 310.823 Q-9.9261 310.823 -12.2409 310.383 Q-14.5326 309.966 -16.9862 309.11 L-16.9862 304.596 Q-15.0418 305.73 -12.727 306.309 Q-10.4122 306.888 -7.88907 306.888 Q-3.49095 306.888 -1.19929 305.151 Q1.11551 303.415 1.11551 300.105 Q1.11551 297.05 -1.03726 295.337 Q-3.16688 293.601 -6.9863 293.601 L-11.0141 293.601 L-11.0141 289.758 L-6.80112 289.758 Q-3.35206 289.758 -1.52337 288.392 Q0.305328 287.003 0.305328 284.411 Q0.305328 281.749 -1.59281 280.337 Q-3.4678 278.902 -6.9863 278.902 Q-8.90759 278.902 -11.1066 279.318 Q-13.3057 279.735 -15.9446 280.615 L-15.9446 276.448 Q-13.2826 275.707 -10.9678 275.337 Q-8.62981 274.966 -6.56963 274.966 Q-1.24559 274.966 1.85625 277.397 Q4.95808 279.804 4.95808 283.925 Q4.95808 286.795 3.31457 288.786 Q1.67106 290.753 -1.36133 291.517 Z" fill="#000000" fill-rule="nonzero" fill-opacity="1" /><path clip-path="url(#clip120)" d="M24.6339 278.67 Q21.0228 278.67 19.1941 282.235 Q17.3886 285.777 17.3886 292.906 Q17.3886 300.013 19.1941 303.577 Q21.0228 307.119 24.6339 307.119 Q28.2681 307.119 30.0737 303.577 Q31.9024 300.013 31.9024 292.906 Q31.9024 285.777 30.0737 282.235 Q28.2681 278.67 24.6339 278.67 M24.6339 274.966 Q30.4441 274.966 33.4996 279.573 Q36.5783 284.156 36.5783 292.906 Q36.5783 301.633 33.4996 306.239 Q30.4441 310.823 24.6339 310.823 Q18.8237 310.823 15.7451 306.239 Q12.6895 301.633 12.6895 292.906 Q12.6895 284.156 15.7451 279.573 Q18.8237 274.966 24.6339 274.966 Z" fill="#000000" fill-rule="nonzero" fill-opacity="1" /><path clip-path="url(#clip120)" d="M54.7958 278.67 Q51.1847 278.67 49.356 282.235 Q47.5504 285.777 47.5504 292.906 Q47.5504 300.013 49.356 303.577 Q51.1847 307.119 54.7958 307.119 Q58.43 307.119 60.2356 303.577 Q62.0643 300.013 62.0643 292.906 Q62.0643 285.777 60.2356 282.235 Q58.43 278.67 54.7958 278.67 M54.7958 274.966 Q60.6059 274.966 63.6615 279.573 Q66.7402 284.156 66.7402 292.906 Q66.7402 301.633 63.6615 306.239 Q60.6059 310.823 54.7958 310.823 Q48.9856 310.823 45.9069 306.239 Q42.8514 301.633 42.8514 292.906 Q42.8514 284.156 45.9069 279.573 Q48.9856 274.966 54.7958 274.966 Z" fill="#000000" fill-rule="nonzero" fill-opacity="1" /><path clip-path="url(#clip120)" d="M-131.186 773.217 L-131.186 790.058 L-111.857 794.919 L-111.857 777.963 L-131.186 773.217 M-164.114 781.898 L-140.098 787.916 L-140.098 771.018 L-164.114 764.942 L-164.114 755.683 L-140.098 761.643 L-140.098 743.588 L-131.186 743.588 L-131.186 763.9 L-111.857 768.646 L-111.857 750.243 L-103.003 750.243 L-103.003 770.903 L-79.0451 776.921 L-79.0451 786.18 L-103.003 780.22 L-103.003 797.176 L-79.0451 803.136 L-79.0451 812.453 L-103.003 806.435 L-103.003 824.664 L-111.857 824.664 L-111.857 804.294 L-131.186 799.433 L-131.186 818.067 L-140.098 818.067 L-140.098 797.176 L-164.114 791.273 L-164.114 781.898 Z" fill="#000000" fill-rule="nonzero" fill-opacity="1" /><path clip-path="url(#clip122)" d="M226.495 1516.91 L226.495 1521.01 L321.852 1521.01 L321.852 1516.91 L226.495 1516.91 L226.495 1516.91  Z" fill="#009af9" fill-rule="evenodd" fill-opacity="1"/>
<polyline clip-path="url(#clip122)" style="stroke:#000000; stroke-linecap:round; stroke-linejoin:round; stroke-width:4; stroke-opacity:1; fill:none" points="226.495,1516.91 226.495,1521.01 321.852,1521.01 321.852,1516.91 226.495,1516.91 "/>
<path clip-path="url(#clip122)" d="M321.852 1504.63 L321.852 1521.01 L417.21 1521.01 L417.21 1504.63 L321.852 1504.63 L321.852 1504.63  Z" fill="#009af9" fill-rule="evenodd" fill-opacity="1"/>
<polyline clip-path="url(#clip122)" style="stroke:#000000; stroke-linecap:round; stroke-linejoin:round; stroke-width:4; stroke-opacity:1; fill:none" points="321.852,1504.63 321.852,1521.01 417.21,1521.01 417.21,1504.63 321.852,1504.63 "/>
<path clip-path="url(#clip122)" d="M417.21 1492.35 L417.21 1521.01 L512.567 1521.01 L512.567 1492.35 L417.21 1492.35 L417.21 1492.35  Z" fill="#009af9" fill-rule="evenodd" fill-opacity="1"/>
<polyline clip-path="url(#clip122)" style="stroke:#000000; stroke-linecap:round; stroke-linejoin:round; stroke-width:4; stroke-opacity:1; fill:none" points="417.21,1492.35 417.21,1521.01 512.567,1521.01 512.567,1492.35 417.21,1492.35 "/>
<path clip-path="url(#clip122)" d="M512.567 1443.23 L512.567 1521.01 L607.925 1521.01 L607.925 1443.23 L512.567 1443.23 L512.567 1443.23  Z" fill="#009af9" fill-rule="evenodd" fill-opacity="1"/>
<polyline clip-path="url(#clip122)" style="stroke:#000000; stroke-linecap:round; stroke-linejoin:round; stroke-width:4; stroke-opacity:1; fill:none" points="512.567,1443.23 512.567,1521.01 607.925,1521.01 607.925,1443.23 512.567,1443.23 "/>
<path clip-path="url(#clip122)" d="M607.925 1336.79 L607.925 1521.01 L703.282 1521.01 L703.282 1336.79 L607.925 1336.79 L607.925 1336.79  Z" fill="#009af9" fill-rule="evenodd" fill-opacity="1"/>
<polyline clip-path="url(#clip122)" style="stroke:#000000; stroke-linecap:round; stroke-linejoin:round; stroke-width:4; stroke-opacity:1; fill:none" points="607.925,1336.79 607.925,1521.01 703.282,1521.01 703.282,1336.79 607.925,1336.79 "/>
<path clip-path="url(#clip122)" d="M703.282 1173.04 L703.282 1521.01 L798.64 1521.01 L798.64 1173.04 L703.282 1173.04 L703.282 1173.04  Z" fill="#009af9" fill-rule="evenodd" fill-opacity="1"/>
<polyline clip-path="url(#clip122)" style="stroke:#000000; stroke-linecap:round; stroke-linejoin:round; stroke-width:4; stroke-opacity:1; fill:none" points="703.282,1173.04 703.282,1521.01 798.64,1521.01 798.64,1173.04 703.282,1173.04 "/>
<path clip-path="url(#clip122)" d="M798.64 1074.78 L798.64 1521.01 L893.997 1521.01 L893.997 1074.78 L798.64 1074.78 L798.64 1074.78  Z" fill="#009af9" fill-rule="evenodd" fill-opacity="1"/>
<polyline clip-path="url(#clip122)" style="stroke:#000000; stroke-linecap:round; stroke-linejoin:round; stroke-width:4; stroke-opacity:1; fill:none" points="798.64,1074.78 798.64,1521.01 893.997,1521.01 893.997,1074.78 798.64,1074.78 "/>
<path clip-path="url(#clip122)" d="M893.997 804.595 L893.997 1521.01 L989.354 1521.01 L989.354 804.595 L893.997 804.595 L893.997 804.595  Z" fill="#009af9" fill-rule="evenodd" fill-opacity="1"/>
<polyline clip-path="url(#clip122)" style="stroke:#000000; stroke-linecap:round; stroke-linejoin:round; stroke-width:4; stroke-opacity:1; fill:none" points="893.997,804.595 893.997,1521.01 989.354,1521.01 989.354,804.595 893.997,804.595 "/>
<path clip-path="url(#clip122)" d="M989.354 276.496 L989.354 1521.01 L1084.71 1521.01 L1084.71 276.496 L989.354 276.496 L989.354 276.496  Z" fill="#009af9" fill-rule="evenodd" fill-opacity="1"/>
<polyline clip-path="url(#clip122)" style="stroke:#000000; stroke-linecap:round; stroke-linejoin:round; stroke-width:4; stroke-opacity:1; fill:none" points="989.354,276.496 989.354,1521.01 1084.71,1521.01 1084.71,276.496 989.354,276.496 "/>
<path clip-path="url(#clip122)" d="M1084.71 47.2441 L1084.71 1521.01 L1180.07 1521.01 L1180.07 47.2441 L1084.71 47.2441 L1084.71 47.2441  Z" fill="#009af9" fill-rule="evenodd" fill-opacity="1"/>
<polyline clip-path="url(#clip122)" style="stroke:#000000; stroke-linecap:round; stroke-linejoin:round; stroke-width:4; stroke-opacity:1; fill:none" points="1084.71,47.2441 1084.71,1521.01 1180.07,1521.01 1180.07,47.2441 1084.71,47.2441 "/>
<path clip-path="url(#clip122)" d="M1180.07 96.3696 L1180.07 1521.01 L1275.43 1521.01 L1275.43 96.3696 L1180.07 96.3696 L1180.07 96.3696  Z" fill="#009af9" fill-rule="evenodd" fill-opacity="1"/>
<polyline clip-path="url(#clip122)" style="stroke:#000000; stroke-linecap:round; stroke-linejoin:round; stroke-width:4; stroke-opacity:1; fill:none" points="1180.07,96.3696 1180.07,1521.01 1275.43,1521.01 1275.43,96.3696 1180.07,96.3696 "/>
<path clip-path="url(#clip122)" d="M1275.43 489.373 L1275.43 1521.01 L1370.78 1521.01 L1370.78 489.373 L1275.43 489.373 L1275.43 489.373  Z" fill="#009af9" fill-rule="evenodd" fill-opacity="1"/>
<polyline clip-path="url(#clip122)" style="stroke:#000000; stroke-linecap:round; stroke-linejoin:round; stroke-width:4; stroke-opacity:1; fill:none" points="1275.43,489.373 1275.43,1521.01 1370.78,1521.01 1370.78,489.373 1275.43,489.373 "/>
<path clip-path="url(#clip122)" d="M1370.78 653.125 L1370.78 1521.01 L1466.14 1521.01 L1466.14 653.125 L1370.78 653.125 L1370.78 653.125  Z" fill="#009af9" fill-rule="evenodd" fill-opacity="1"/>
<polyline clip-path="url(#clip122)" style="stroke:#000000; stroke-linecap:round; stroke-linejoin:round; stroke-width:4; stroke-opacity:1; fill:none" points="1370.78,653.125 1370.78,1521.01 1466.14,1521.01 1466.14,653.125 1370.78,653.125 "/>
<path clip-path="url(#clip122)" d="M1466.14 1042.03 L1466.14 1521.01 L1561.5 1521.01 L1561.5 1042.03 L1466.14 1042.03 L1466.14 1042.03  Z" fill="#009af9" fill-rule="evenodd" fill-opacity="1"/>
<polyline clip-path="url(#clip122)" style="stroke:#000000; stroke-linecap:round; stroke-linejoin:round; stroke-width:4; stroke-opacity:1; fill:none" points="1466.14,1042.03 1466.14,1521.01 1561.5,1521.01 1561.5,1042.03 1466.14,1042.03 "/>
<path clip-path="url(#clip122)" d="M1561.5 1082.97 L1561.5 1521.01 L1656.86 1521.01 L1656.86 1082.97 L1561.5 1082.97 L1561.5 1082.97  Z" fill="#009af9" fill-rule="evenodd" fill-opacity="1"/>
<polyline clip-path="url(#clip122)" style="stroke:#000000; stroke-linecap:round; stroke-linejoin:round; stroke-width:4; stroke-opacity:1; fill:none" points="1561.5,1082.97 1561.5,1521.01 1656.86,1521.01 1656.86,1082.97 1561.5,1082.97 "/>
<path clip-path="url(#clip122)" d="M1656.86 1263.1 L1656.86 1521.01 L1752.21 1521.01 L1752.21 1263.1 L1656.86 1263.1 L1656.86 1263.1  Z" fill="#009af9" fill-rule="evenodd" fill-opacity="1"/>
<polyline clip-path="url(#clip122)" style="stroke:#000000; stroke-linecap:round; stroke-linejoin:round; stroke-width:4; stroke-opacity:1; fill:none" points="1656.86,1263.1 1656.86,1521.01 1752.21,1521.01 1752.21,1263.1 1656.86,1263.1 "/>
<path clip-path="url(#clip122)" d="M1752.21 1447.32 L1752.21 1521.01 L1847.57 1521.01 L1847.57 1447.32 L1752.21 1447.32 L1752.21 1447.32  Z" fill="#009af9" fill-rule="evenodd" fill-opacity="1"/>
<polyline clip-path="url(#clip122)" style="stroke:#000000; stroke-linecap:round; stroke-linejoin:round; stroke-width:4; stroke-opacity:1; fill:none" points="1752.21,1447.32 1752.21,1521.01 1847.57,1521.01 1847.57,1447.32 1752.21,1447.32 "/>
<path clip-path="url(#clip122)" d="M1847.57 1475.98 L1847.57 1521.01 L1942.93 1521.01 L1942.93 1475.98 L1847.57 1475.98 L1847.57 1475.98  Z" fill="#009af9" fill-rule="evenodd" fill-opacity="1"/>
<polyline clip-path="url(#clip122)" style="stroke:#000000; stroke-linecap:round; stroke-linejoin:round; stroke-width:4; stroke-opacity:1; fill:none" points="1847.57,1475.98 1847.57,1521.01 1942.93,1521.01 1942.93,1475.98 1847.57,1475.98 "/>
<path clip-path="url(#clip122)" d="M1942.93 1516.91 L1942.93 1521.01 L2038.29 1521.01 L2038.29 1516.91 L1942.93 1516.91 L1942.93 1516.91  Z" fill="#009af9" fill-rule="evenodd" fill-opacity="1"/>
<polyline clip-path="url(#clip122)" style="stroke:#000000; stroke-linecap:round; stroke-linejoin:round; stroke-width:4; stroke-opacity:1; fill:none" points="1942.93,1516.91 1942.93,1521.01 2038.29,1521.01 2038.29,1516.91 1942.93,1516.91 "/>
<path clip-path="url(#clip122)" d="M2038.29 1516.91 L2038.29 1521.01 L2133.64 1521.01 L2133.64 1516.91 L2038.29 1516.91 L2038.29 1516.91  Z" fill="#009af9" fill-rule="evenodd" fill-opacity="1"/>
<polyline clip-path="url(#clip122)" style="stroke:#000000; stroke-linecap:round; stroke-linejoin:round; stroke-width:4; stroke-opacity:1; fill:none" points="2038.29,1516.91 2038.29,1521.01 2133.64,1521.01 2133.64,1516.91 2038.29,1516.91 "/>
<path clip-path="url(#clip122)" d="M2133.64 1516.91 L2133.64 1521.01 L2229 1521.01 L2229 1516.91 L2133.64 1516.91 L2133.64 1516.91  Z" fill="#009af9" fill-rule="evenodd" fill-opacity="1"/>
<polyline clip-path="url(#clip122)" style="stroke:#000000; stroke-linecap:round; stroke-linejoin:round; stroke-width:4; stroke-opacity:1; fill:none" points="2133.64,1516.91 2133.64,1521.01 2229,1521.01 2229,1516.91 2133.64,1516.91 "/>
<circle clip-path="url(#clip122)" style="fill:#009af9; stroke:none; fill-opacity:0" cx="274.174" cy="1516.91" r="2"/>
<circle clip-path="url(#clip122)" style="fill:#009af9; stroke:none; fill-opacity:0" cx="369.531" cy="1504.63" r="2"/>
<circle clip-path="url(#clip122)" style="fill:#009af9; stroke:none; fill-opacity:0" cx="464.889" cy="1492.35" r="2"/>
<circle clip-path="url(#clip122)" style="fill:#009af9; stroke:none; fill-opacity:0" cx="560.246" cy="1443.23" r="2"/>
<circle clip-path="url(#clip122)" style="fill:#009af9; stroke:none; fill-opacity:0" cx="655.603" cy="1336.79" r="2"/>
<circle clip-path="url(#clip122)" style="fill:#009af9; stroke:none; fill-opacity:0" cx="750.961" cy="1173.04" r="2"/>
<circle clip-path="url(#clip122)" style="fill:#009af9; stroke:none; fill-opacity:0" cx="846.318" cy="1074.78" r="2"/>
<circle clip-path="url(#clip122)" style="fill:#009af9; stroke:none; fill-opacity:0" cx="941.676" cy="804.595" r="2"/>
<circle clip-path="url(#clip122)" style="fill:#009af9; stroke:none; fill-opacity:0" cx="1037.03" cy="276.496" r="2"/>
<circle clip-path="url(#clip122)" style="fill:#009af9; stroke:none; fill-opacity:0" cx="1132.39" cy="47.2441" r="2"/>
<circle clip-path="url(#clip122)" style="fill:#009af9; stroke:none; fill-opacity:0" cx="1227.75" cy="96.3696" r="2"/>
<circle clip-path="url(#clip122)" style="fill:#009af9; stroke:none; fill-opacity:0" cx="1323.11" cy="489.373" r="2"/>
<circle clip-path="url(#clip122)" style="fill:#009af9; stroke:none; fill-opacity:0" cx="1418.46" cy="653.125" r="2"/>
<circle clip-path="url(#clip122)" style="fill:#009af9; stroke:none; fill-opacity:0" cx="1513.82" cy="1042.03" r="2"/>
<circle clip-path="url(#clip122)" style="fill:#009af9; stroke:none; fill-opacity:0" cx="1609.18" cy="1082.97" r="2"/>
<circle clip-path="url(#clip122)" style="fill:#009af9; stroke:none; fill-opacity:0" cx="1704.54" cy="1263.1" r="2"/>
<circle clip-path="url(#clip122)" style="fill:#009af9; stroke:none; fill-opacity:0" cx="1799.89" cy="1447.32" r="2"/>
<circle clip-path="url(#clip122)" style="fill:#009af9; stroke:none; fill-opacity:0" cx="1895.25" cy="1475.98" r="2"/>
<circle clip-path="url(#clip122)" style="fill:#009af9; stroke:none; fill-opacity:0" cx="1990.61" cy="1516.91" r="2"/>
<circle clip-path="url(#clip122)" style="fill:#009af9; stroke:none; fill-opacity:0" cx="2085.96" cy="1516.91" r="2"/>
<circle clip-path="url(#clip122)" style="fill:#009af9; stroke:none; fill-opacity:0" cx="2181.32" cy="1516.91" r="2"/>
<path clip-path="url(#clip120)" d="M1506.85 200.05 L2277.76 200.05 L2277.76 96.3696 L1506.85 96.3696  Z" fill="#ffffff" fill-rule="evenodd" fill-opacity="1"/>
<polyline clip-path="url(#clip120)" style="stroke:#000000; stroke-linecap:round; stroke-linejoin:round; stroke-width:4; stroke-opacity:1; fill:none" points="1506.85,200.05 2277.76,200.05 2277.76,96.3696 1506.85,96.3696 1506.85,200.05 "/>
<path clip-path="url(#clip120)" d="M1531.85 168.946 L1681.86 168.946 L1681.86 127.474 L1531.85 127.474 L1531.85 168.946  Z" fill="#009af9" fill-rule="evenodd" fill-opacity="1"/>
<polyline clip-path="url(#clip120)" style="stroke:#000000; stroke-linecap:round; stroke-linejoin:round; stroke-width:4; stroke-opacity:1; fill:none" points="1531.85,168.946 1681.86,168.946 1681.86,127.474 1531.85,127.474 1531.85,168.946 "/>
<path clip-path="url(#clip120)" d="M1718.75 142.55 Q1715.33 142.55 1713.34 145.235 Q1711.35 147.897 1711.35 152.55 Q1711.35 157.203 1713.31 159.888 Q1715.3 162.55 1718.75 162.55 Q1722.16 162.55 1724.15 159.865 Q1726.14 157.179 1726.14 152.55 Q1726.14 147.943 1724.15 145.258 Q1722.16 142.55 1718.75 142.55 M1718.75 138.939 Q1724.31 138.939 1727.48 142.55 Q1730.65 146.161 1730.65 152.55 Q1730.65 158.916 1727.48 162.55 Q1724.31 166.161 1718.75 166.161 Q1713.17 166.161 1710 162.55 Q1706.86 158.916 1706.86 152.55 Q1706.86 146.161 1710 142.55 Q1713.17 138.939 1718.75 138.939 Z" fill="#000000" fill-rule="nonzero" fill-opacity="1" /><path clip-path="url(#clip120)" d="M1737.27 155.258 L1737.27 139.564 L1741.53 139.564 L1741.53 155.096 Q1741.53 158.777 1742.97 160.628 Q1744.4 162.457 1747.27 162.457 Q1750.72 162.457 1752.71 160.258 Q1754.73 158.059 1754.73 154.263 L1754.73 139.564 L1758.98 139.564 L1758.98 165.49 L1754.73 165.49 L1754.73 161.508 Q1753.17 163.869 1751.11 165.027 Q1749.08 166.161 1746.37 166.161 Q1741.9 166.161 1739.59 163.383 Q1737.27 160.605 1737.27 155.258 M1747.99 138.939 L1747.99 138.939 Z" fill="#000000" fill-rule="nonzero" fill-opacity="1" /><path clip-path="url(#clip120)" d="M1771.97 132.203 L1771.97 139.564 L1780.74 139.564 L1780.74 142.874 L1771.97 142.874 L1771.97 156.948 Q1771.97 160.119 1772.83 161.022 Q1773.71 161.925 1776.37 161.925 L1780.74 161.925 L1780.74 165.49 L1776.37 165.49 Q1771.44 165.49 1769.56 163.661 Q1767.69 161.809 1767.69 156.948 L1767.69 142.874 L1764.56 142.874 L1764.56 139.564 L1767.69 139.564 L1767.69 132.203 L1771.97 132.203 Z" fill="#000000" fill-rule="nonzero" fill-opacity="1" /><path clip-path="url(#clip120)" d="M1805 140.559 L1805 144.541 Q1803.2 143.545 1801.37 143.059 Q1799.56 142.55 1797.71 142.55 Q1793.57 142.55 1791.28 145.189 Q1788.98 147.804 1788.98 152.55 Q1788.98 157.295 1791.28 159.934 Q1793.57 162.55 1797.71 162.55 Q1799.56 162.55 1801.37 162.064 Q1803.2 161.554 1805 160.559 L1805 164.494 Q1803.22 165.328 1801.3 165.744 Q1799.4 166.161 1797.25 166.161 Q1791.39 166.161 1787.94 162.48 Q1784.49 158.8 1784.49 152.55 Q1784.49 146.207 1787.97 142.573 Q1791.46 138.939 1797.53 138.939 Q1799.49 138.939 1801.37 139.355 Q1803.24 139.749 1805 140.559 Z" fill="#000000" fill-rule="nonzero" fill-opacity="1" /><path clip-path="url(#clip120)" d="M1822.46 142.55 Q1819.03 142.55 1817.04 145.235 Q1815.05 147.897 1815.05 152.55 Q1815.05 157.203 1817.02 159.888 Q1819.01 162.55 1822.46 162.55 Q1825.86 162.55 1827.85 159.865 Q1829.84 157.179 1829.84 152.55 Q1829.84 147.943 1827.85 145.258 Q1825.86 142.55 1822.46 142.55 M1822.46 138.939 Q1828.01 138.939 1831.18 142.55 Q1834.35 146.161 1834.35 152.55 Q1834.35 158.916 1831.18 162.55 Q1828.01 166.161 1822.46 166.161 Q1816.88 166.161 1813.71 162.55 Q1810.56 158.916 1810.56 152.55 Q1810.56 146.161 1813.71 142.55 Q1816.88 138.939 1822.46 138.939 Z" fill="#000000" fill-rule="nonzero" fill-opacity="1" /><path clip-path="url(#clip120)" d="M1861.6 144.541 Q1863.2 141.67 1865.42 140.305 Q1867.64 138.939 1870.65 138.939 Q1874.7 138.939 1876.9 141.786 Q1879.1 144.61 1879.1 149.841 L1879.1 165.49 L1874.82 165.49 L1874.82 149.98 Q1874.82 146.254 1873.5 144.448 Q1872.18 142.642 1869.47 142.642 Q1866.16 142.642 1864.24 144.842 Q1862.32 147.041 1862.32 150.837 L1862.32 165.49 L1858.04 165.49 L1858.04 149.98 Q1858.04 146.23 1856.72 144.448 Q1855.4 142.642 1852.64 142.642 Q1849.38 142.642 1847.46 144.865 Q1845.54 147.064 1845.54 150.837 L1845.54 165.49 L1841.25 165.49 L1841.25 139.564 L1845.54 139.564 L1845.54 143.592 Q1846.99 141.207 1849.03 140.073 Q1851.07 138.939 1853.87 138.939 Q1856.69 138.939 1858.66 140.374 Q1860.65 141.809 1861.6 144.541 Z" fill="#000000" fill-rule="nonzero" fill-opacity="1" /><path clip-path="url(#clip120)" d="M1909.77 151.462 L1909.77 153.545 L1890.19 153.545 Q1890.47 157.943 1892.83 160.258 Q1895.21 162.55 1899.45 162.55 Q1901.9 162.55 1904.19 161.948 Q1906.51 161.346 1908.78 160.142 L1908.78 164.17 Q1906.48 165.142 1904.08 165.652 Q1901.67 166.161 1899.19 166.161 Q1892.99 166.161 1889.35 162.55 Q1885.74 158.939 1885.74 152.781 Q1885.74 146.416 1889.17 142.689 Q1892.62 138.939 1898.45 138.939 Q1903.68 138.939 1906.72 142.318 Q1909.77 145.675 1909.77 151.462 M1905.51 150.212 Q1905.47 146.717 1903.54 144.633 Q1901.65 142.55 1898.5 142.55 Q1894.93 142.55 1892.78 144.564 Q1890.65 146.578 1890.33 150.235 L1905.51 150.212 Z" fill="#000000" fill-rule="nonzero" fill-opacity="1" /><path clip-path="url(#clip120)" d="M1929.68 150.605 L1942.16 150.605 L1942.16 154.402 L1929.68 154.402 L1929.68 150.605 Z" fill="#000000" fill-rule="nonzero" fill-opacity="1" /><path clip-path="url(#clip120)" d="M1968.13 161.601 L1968.13 175.351 L1963.84 175.351 L1963.84 139.564 L1968.13 139.564 L1968.13 143.499 Q1969.47 141.184 1971.51 140.073 Q1973.57 138.939 1976.41 138.939 Q1981.14 138.939 1984.08 142.689 Q1987.04 146.439 1987.04 152.55 Q1987.04 158.661 1984.08 162.411 Q1981.14 166.161 1976.41 166.161 Q1973.57 166.161 1971.51 165.05 Q1969.47 163.915 1968.13 161.601 M1982.62 152.55 Q1982.62 147.851 1980.67 145.189 Q1978.75 142.504 1975.37 142.504 Q1971.99 142.504 1970.05 145.189 Q1968.13 147.851 1968.13 152.55 Q1968.13 157.249 1970.05 159.934 Q1971.99 162.596 1975.37 162.596 Q1978.75 162.596 1980.67 159.934 Q1982.62 157.249 1982.62 152.55 Z" fill="#000000" fill-rule="nonzero" fill-opacity="1" /><path clip-path="url(#clip120)" d="M2004.15 142.55 Q2000.72 142.55 1998.73 145.235 Q1996.74 147.897 1996.74 152.55 Q1996.74 157.203 1998.71 159.888 Q2000.7 162.55 2004.15 162.55 Q2007.55 162.55 2009.54 159.865 Q2011.53 157.179 2011.53 152.55 Q2011.53 147.943 2009.54 145.258 Q2007.55 142.55 2004.15 142.55 M2004.15 138.939 Q2009.7 138.939 2012.87 142.55 Q2016.04 146.161 2016.04 152.55 Q2016.04 158.916 2012.87 162.55 Q2009.7 166.161 2004.15 166.161 Q1998.57 166.161 1995.4 162.55 Q1992.25 158.916 1992.25 152.55 Q1992.25 146.161 1995.4 142.55 Q1998.57 138.939 2004.15 138.939 Z" fill="#000000" fill-rule="nonzero" fill-opacity="1" /><path clip-path="url(#clip120)" d="M2023.1 139.564 L2027.36 139.564 L2027.36 165.49 L2023.1 165.49 L2023.1 139.564 M2023.1 129.471 L2027.36 129.471 L2027.36 134.865 L2023.1 134.865 L2023.1 129.471 Z" fill="#000000" fill-rule="nonzero" fill-opacity="1" /><path clip-path="url(#clip120)" d="M2057.83 149.841 L2057.83 165.49 L2053.57 165.49 L2053.57 149.98 Q2053.57 146.3 2052.13 144.471 Q2050.7 142.642 2047.83 142.642 Q2044.38 142.642 2042.39 144.842 Q2040.4 147.041 2040.4 150.837 L2040.4 165.49 L2036.11 165.49 L2036.11 139.564 L2040.4 139.564 L2040.4 143.592 Q2041.92 141.254 2043.98 140.096 Q2046.07 138.939 2048.77 138.939 Q2053.24 138.939 2055.53 141.717 Q2057.83 144.471 2057.83 149.841 Z" fill="#000000" fill-rule="nonzero" fill-opacity="1" /><path clip-path="url(#clip120)" d="M2070.53 132.203 L2070.53 139.564 L2079.31 139.564 L2079.31 142.874 L2070.53 142.874 L2070.53 156.948 Q2070.53 160.119 2071.39 161.022 Q2072.27 161.925 2074.93 161.925 L2079.31 161.925 L2079.31 165.49 L2074.93 165.49 Q2070 165.49 2068.13 163.661 Q2066.25 161.809 2066.25 156.948 L2066.25 142.874 L2063.13 142.874 L2063.13 139.564 L2066.25 139.564 L2066.25 132.203 L2070.53 132.203 Z" fill="#000000" fill-rule="nonzero" fill-opacity="1" /><path clip-path="url(#clip120)" d="M2116.51 140.328 L2116.51 144.355 Q2114.7 143.429 2112.76 142.967 Q2110.81 142.504 2108.73 142.504 Q2105.56 142.504 2103.96 143.476 Q2102.39 144.448 2102.39 146.392 Q2102.39 147.874 2103.52 148.73 Q2104.65 149.564 2108.08 150.328 L2109.54 150.652 Q2114.08 151.624 2115.97 153.406 Q2117.89 155.166 2117.89 158.337 Q2117.89 161.948 2115.02 164.054 Q2112.18 166.161 2107.18 166.161 Q2105.09 166.161 2102.83 165.744 Q2100.58 165.351 2098.08 164.54 L2098.08 160.142 Q2100.44 161.369 2102.73 161.994 Q2105.02 162.596 2107.27 162.596 Q2110.28 162.596 2111.9 161.578 Q2113.52 160.536 2113.52 158.661 Q2113.52 156.925 2112.34 155.999 Q2111.18 155.073 2107.22 154.216 L2105.74 153.869 Q2101.78 153.036 2100.02 151.323 Q2098.27 149.587 2098.27 146.578 Q2098.27 142.92 2100.86 140.93 Q2103.45 138.939 2108.22 138.939 Q2110.58 138.939 2112.66 139.286 Q2114.75 139.633 2116.51 140.328 Z" fill="#000000" fill-rule="nonzero" fill-opacity="1" /><path clip-path="url(#clip120)" d="M2128.8 161.601 L2128.8 175.351 L2124.52 175.351 L2124.52 139.564 L2128.8 139.564 L2128.8 143.499 Q2130.14 141.184 2132.18 140.073 Q2134.24 138.939 2137.08 138.939 Q2141.81 138.939 2144.75 142.689 Q2147.71 146.439 2147.71 152.55 Q2147.71 158.661 2144.75 162.411 Q2141.81 166.161 2137.08 166.161 Q2134.24 166.161 2132.18 165.05 Q2130.14 163.915 2128.8 161.601 M2143.29 152.55 Q2143.29 147.851 2141.34 145.189 Q2139.42 142.504 2136.04 142.504 Q2132.66 142.504 2130.72 145.189 Q2128.8 147.851 2128.8 152.55 Q2128.8 157.249 2130.72 159.934 Q2132.66 162.596 2136.04 162.596 Q2139.42 162.596 2141.34 159.934 Q2143.29 157.249 2143.29 152.55 Z" fill="#000000" fill-rule="nonzero" fill-opacity="1" /><path clip-path="url(#clip120)" d="M2169.79 143.545 Q2169.08 143.129 2168.22 142.943 Q2167.39 142.735 2166.37 142.735 Q2162.76 142.735 2160.81 145.096 Q2158.89 147.434 2158.89 151.832 L2158.89 165.49 L2154.61 165.49 L2154.61 139.564 L2158.89 139.564 L2158.89 143.592 Q2160.23 141.23 2162.39 140.096 Q2164.54 138.939 2167.62 138.939 Q2168.06 138.939 2168.59 139.008 Q2169.12 139.055 2169.77 139.17 L2169.79 143.545 Z" fill="#000000" fill-rule="nonzero" fill-opacity="1" /><path clip-path="url(#clip120)" d="M2195.39 151.462 L2195.39 153.545 L2175.81 153.545 Q2176.09 157.943 2178.45 160.258 Q2180.83 162.55 2185.07 162.55 Q2187.52 162.55 2189.82 161.948 Q2192.13 161.346 2194.4 160.142 L2194.4 164.17 Q2192.11 165.142 2189.7 165.652 Q2187.29 166.161 2184.82 166.161 Q2178.61 166.161 2174.98 162.55 Q2171.37 158.939 2171.37 152.781 Q2171.37 146.416 2174.79 142.689 Q2178.24 138.939 2184.08 138.939 Q2189.31 138.939 2192.34 142.318 Q2195.39 145.675 2195.39 151.462 M2191.14 150.212 Q2191.09 146.717 2189.17 144.633 Q2187.27 142.55 2184.12 142.55 Q2180.56 142.55 2178.4 144.564 Q2176.27 146.578 2175.95 150.235 L2191.14 150.212 Z" fill="#000000" fill-rule="nonzero" fill-opacity="1" /><path clip-path="url(#clip120)" d="M2214.17 152.457 Q2209.01 152.457 2207.01 153.638 Q2205.02 154.818 2205.02 157.666 Q2205.02 159.934 2206.51 161.277 Q2208.01 162.596 2210.58 162.596 Q2214.12 162.596 2216.25 160.096 Q2218.4 157.573 2218.4 153.406 L2218.4 152.457 L2214.17 152.457 M2222.66 150.698 L2222.66 165.49 L2218.4 165.49 L2218.4 161.554 Q2216.95 163.915 2214.77 165.05 Q2212.59 166.161 2209.45 166.161 Q2205.46 166.161 2203.1 163.939 Q2200.76 161.693 2200.76 157.943 Q2200.76 153.568 2203.68 151.346 Q2206.62 149.124 2212.43 149.124 L2218.4 149.124 L2218.4 148.707 Q2218.4 145.767 2216.46 144.17 Q2214.54 142.55 2211.04 142.55 Q2208.82 142.55 2206.71 143.082 Q2204.61 143.615 2202.66 144.679 L2202.66 140.744 Q2205 139.842 2207.2 139.402 Q2209.4 138.939 2211.48 138.939 Q2217.11 138.939 2219.89 141.855 Q2222.66 144.772 2222.66 150.698 Z" fill="#000000" fill-rule="nonzero" fill-opacity="1" /><path clip-path="url(#clip120)" d="M2248.5 143.499 L2248.5 129.471 L2252.76 129.471 L2252.76 165.49 L2248.5 165.49 L2248.5 161.601 Q2247.15 163.915 2245.09 165.05 Q2243.06 166.161 2240.19 166.161 Q2235.49 166.161 2232.52 162.411 Q2229.58 158.661 2229.58 152.55 Q2229.58 146.439 2232.52 142.689 Q2235.49 138.939 2240.19 138.939 Q2243.06 138.939 2245.09 140.073 Q2247.15 141.184 2248.5 143.499 M2233.98 152.55 Q2233.98 157.249 2235.9 159.934 Q2237.85 162.596 2241.23 162.596 Q2244.61 162.596 2246.55 159.934 Q2248.5 157.249 2248.5 152.55 Q2248.5 147.851 2246.55 145.189 Q2244.61 142.504 2241.23 142.504 Q2237.85 142.504 2235.9 145.189 Q2233.98 147.851 2233.98 152.55 Z" fill="#000000" fill-rule="nonzero" fill-opacity="1" /></svg>
