<?xml version="1.0" encoding="utf-8"?>
<svg xmlns="http://www.w3.org/2000/svg" xmlns:xlink="http://www.w3.org/1999/xlink" width="600" height="400" viewBox="0 0 2400 1600">
<defs>
  <clipPath id="clip940">
    <rect x="0" y="0" width="2400" height="1600"/>
  </clipPath>
</defs>
<path clip-path="url(#clip940)" d="M0 1600 L2400 1600 L2400 0 L0 0  Z" fill="#ffffff" fill-rule="evenodd" fill-opacity="1"/>
<defs>
  <clipPath id="clip941">
    <rect x="480" y="0" width="1681" height="1600"/>
  </clipPath>
</defs>
<path clip-path="url(#clip940)" d="M86.9921 1521.01 L2352.76 1521.01 L2352.76 47.2441 L86.9921 47.2441  Z" fill="#ffffff" fill-rule="evenodd" fill-opacity="1"/>
<defs>
  <clipPath id="clip942">
    <rect x="86" y="47" width="2267" height="1475"/>
  </clipPath>
</defs>
<polyline clip-path="url(#clip942)" style="stroke:#000000; stroke-linecap:round; stroke-linejoin:round; stroke-width:2; stroke-opacity:0.1; fill:none" points="211.613,1521.01 211.613,47.2441 "/>
<polyline clip-path="url(#clip942)" style="stroke:#000000; stroke-linecap:round; stroke-linejoin:round; stroke-width:2; stroke-opacity:0.1; fill:none" points="691.737,1521.01 691.737,47.2441 "/>
<polyline clip-path="url(#clip942)" style="stroke:#000000; stroke-linecap:round; stroke-linejoin:round; stroke-width:2; stroke-opacity:0.1; fill:none" points="1171.86,1521.01 1171.86,47.2441 "/>
<polyline clip-path="url(#clip942)" style="stroke:#000000; stroke-linecap:round; stroke-linejoin:round; stroke-width:2; stroke-opacity:0.1; fill:none" points="1651.99,1521.01 1651.99,47.2441 "/>
<polyline clip-path="url(#clip942)" style="stroke:#000000; stroke-linecap:round; stroke-linejoin:round; stroke-width:2; stroke-opacity:0.1; fill:none" points="2132.11,1521.01 2132.11,47.2441 "/>
<polyline clip-path="url(#clip940)" style="stroke:#000000; stroke-linecap:round; stroke-linejoin:round; stroke-width:4; stroke-opacity:1; fill:none" points="86.9921,1521.01 2352.76,1521.01 "/>
<polyline clip-path="url(#clip940)" style="stroke:#000000; stroke-linecap:round; stroke-linejoin:round; stroke-width:4; stroke-opacity:1; fill:none" points="211.613,1521.01 211.613,1502.11 "/>
<polyline clip-path="url(#clip940)" style="stroke:#000000; stroke-linecap:round; stroke-linejoin:round; stroke-width:4; stroke-opacity:1; fill:none" points="691.737,1521.01 691.737,1502.11 "/>
<polyline clip-path="url(#clip940)" style="stroke:#000000; stroke-linecap:round; stroke-linejoin:round; stroke-width:4; stroke-opacity:1; fill:none" points="1171.86,1521.01 1171.86,1502.11 "/>
<polyline clip-path="url(#clip940)" style="stroke:#000000; stroke-linecap:round; stroke-linejoin:round; stroke-width:4; stroke-opacity:1; fill:none" points="1651.99,1521.01 1651.99,1502.11 "/>
<polyline clip-path="url(#clip940)" style="stroke:#000000; stroke-linecap:round; stroke-linejoin:round; stroke-width:4; stroke-opacity:1; fill:none" points="2132.11,1521.01 2132.11,1502.11 "/>
<path clip-path="url(#clip940)" d="M165.676 1566.58 L195.352 1566.58 L195.352 1570.51 L165.676 1570.51 L165.676 1566.58 Z" fill="#000000" fill-rule="nonzero" fill-opacity="1" /><path clip-path="url(#clip940)" d="M205.491 1548.85 L223.847 1548.85 L223.847 1552.78 L209.773 1552.78 L209.773 1561.26 Q210.791 1560.91 211.81 1560.75 Q212.828 1560.56 213.847 1560.56 Q219.634 1560.56 223.014 1563.73 Q226.393 1566.9 226.393 1572.32 Q226.393 1577.9 222.921 1581 Q219.449 1584.08 213.129 1584.08 Q210.953 1584.08 208.685 1583.71 Q206.44 1583.34 204.032 1582.6 L204.032 1577.9 Q206.116 1579.03 208.338 1579.59 Q210.56 1580.14 213.037 1580.14 Q217.041 1580.14 219.379 1578.04 Q221.717 1575.93 221.717 1572.32 Q221.717 1568.71 219.379 1566.6 Q217.041 1564.5 213.037 1564.5 Q211.162 1564.5 209.287 1564.91 Q207.435 1565.33 205.491 1566.21 L205.491 1548.85 Z" fill="#000000" fill-rule="nonzero" fill-opacity="1" /><path clip-path="url(#clip940)" d="M245.606 1551.93 Q241.995 1551.93 240.166 1555.49 Q238.361 1559.03 238.361 1566.16 Q238.361 1573.27 240.166 1576.83 Q241.995 1580.38 245.606 1580.38 Q249.24 1580.38 251.046 1576.83 Q252.875 1573.27 252.875 1566.16 Q252.875 1559.03 251.046 1555.49 Q249.24 1551.93 245.606 1551.93 M245.606 1548.22 Q251.416 1548.22 254.472 1552.83 Q257.55 1557.41 257.55 1566.16 Q257.55 1574.89 254.472 1579.5 Q251.416 1584.08 245.606 1584.08 Q239.796 1584.08 236.717 1579.5 Q233.662 1574.89 233.662 1566.16 Q233.662 1557.41 236.717 1552.83 Q239.796 1548.22 245.606 1548.22 Z" fill="#000000" fill-rule="nonzero" fill-opacity="1" /><path clip-path="url(#clip940)" d="M646.298 1566.58 L675.974 1566.58 L675.974 1570.51 L646.298 1570.51 L646.298 1566.58 Z" fill="#000000" fill-rule="nonzero" fill-opacity="1" /><path clip-path="url(#clip940)" d="M690.094 1579.47 L706.413 1579.47 L706.413 1583.41 L684.469 1583.41 L684.469 1579.47 Q687.131 1576.72 691.714 1572.09 Q696.321 1567.44 697.501 1566.09 Q699.747 1563.57 700.626 1561.83 Q701.529 1560.07 701.529 1558.38 Q701.529 1555.63 699.585 1553.89 Q697.663 1552.16 694.561 1552.16 Q692.362 1552.16 689.909 1552.92 Q687.478 1553.69 684.7 1555.24 L684.7 1550.51 Q687.524 1549.38 689.978 1548.8 Q692.432 1548.22 694.469 1548.22 Q699.839 1548.22 703.034 1550.91 Q706.228 1553.59 706.228 1558.08 Q706.228 1560.21 705.418 1562.13 Q704.631 1564.03 702.524 1566.63 Q701.946 1567.3 698.844 1570.51 Q695.742 1573.71 690.094 1579.47 Z" fill="#000000" fill-rule="nonzero" fill-opacity="1" /><path clip-path="url(#clip940)" d="M716.274 1548.85 L734.631 1548.85 L734.631 1552.78 L720.557 1552.78 L720.557 1561.26 Q721.575 1560.91 722.594 1560.75 Q723.612 1560.56 724.631 1560.56 Q730.418 1560.56 733.797 1563.73 Q737.177 1566.9 737.177 1572.32 Q737.177 1577.9 733.705 1581 Q730.233 1584.08 723.913 1584.08 Q721.737 1584.08 719.469 1583.71 Q717.223 1583.34 714.816 1582.6 L714.816 1577.9 Q716.899 1579.03 719.121 1579.59 Q721.344 1580.14 723.821 1580.14 Q727.825 1580.14 730.163 1578.04 Q732.501 1575.93 732.501 1572.32 Q732.501 1568.71 730.163 1566.6 Q727.825 1564.5 723.821 1564.5 Q721.946 1564.5 720.071 1564.91 Q718.219 1565.33 716.274 1566.21 L716.274 1548.85 Z" fill="#000000" fill-rule="nonzero" fill-opacity="1" /><path clip-path="url(#clip940)" d="M1171.86 1551.93 Q1168.25 1551.93 1166.42 1555.49 Q1164.62 1559.03 1164.62 1566.16 Q1164.62 1573.27 1166.42 1576.83 Q1168.25 1580.38 1171.86 1580.38 Q1175.5 1580.38 1177.3 1576.83 Q1179.13 1573.27 1179.13 1566.16 Q1179.13 1559.03 1177.3 1555.49 Q1175.5 1551.93 1171.86 1551.93 M1171.86 1548.22 Q1177.67 1548.22 1180.73 1552.83 Q1183.81 1557.41 1183.81 1566.16 Q1183.81 1574.89 1180.73 1579.5 Q1177.67 1584.08 1171.86 1584.08 Q1166.05 1584.08 1162.97 1579.5 Q1159.92 1574.89 1159.92 1566.16 Q1159.92 1557.41 1162.97 1552.83 Q1166.05 1548.22 1171.86 1548.22 Z" fill="#000000" fill-rule="nonzero" fill-opacity="1" /><path clip-path="url(#clip940)" d="M1631.26 1579.47 L1647.58 1579.47 L1647.58 1583.41 L1625.63 1583.41 L1625.63 1579.47 Q1628.29 1576.72 1632.88 1572.09 Q1637.48 1567.44 1638.66 1566.09 Q1640.91 1563.57 1641.79 1561.83 Q1642.69 1560.07 1642.69 1558.38 Q1642.69 1555.63 1640.75 1553.89 Q1638.83 1552.16 1635.72 1552.16 Q1633.53 1552.16 1631.07 1552.92 Q1628.64 1553.69 1625.86 1555.24 L1625.86 1550.51 Q1628.69 1549.38 1631.14 1548.8 Q1633.59 1548.22 1635.63 1548.22 Q1641 1548.22 1644.2 1550.91 Q1647.39 1553.59 1647.39 1558.08 Q1647.39 1560.21 1646.58 1562.13 Q1645.79 1564.03 1643.69 1566.63 Q1643.11 1567.3 1640.01 1570.51 Q1636.9 1573.71 1631.26 1579.47 Z" fill="#000000" fill-rule="nonzero" fill-opacity="1" /><path clip-path="url(#clip940)" d="M1657.44 1548.85 L1675.79 1548.85 L1675.79 1552.78 L1661.72 1552.78 L1661.72 1561.26 Q1662.74 1560.91 1663.76 1560.75 Q1664.78 1560.56 1665.79 1560.56 Q1671.58 1560.56 1674.96 1563.73 Q1678.34 1566.9 1678.34 1572.32 Q1678.34 1577.9 1674.87 1581 Q1671.4 1584.08 1665.08 1584.08 Q1662.9 1584.08 1660.63 1583.71 Q1658.39 1583.34 1655.98 1582.6 L1655.98 1577.9 Q1658.06 1579.03 1660.28 1579.59 Q1662.51 1580.14 1664.98 1580.14 Q1668.99 1580.14 1671.33 1578.04 Q1673.66 1575.93 1673.66 1572.32 Q1673.66 1568.71 1671.33 1566.6 Q1668.99 1564.5 1664.98 1564.5 Q1663.11 1564.5 1661.23 1564.91 Q1659.38 1565.33 1657.44 1566.21 L1657.44 1548.85 Z" fill="#000000" fill-rule="nonzero" fill-opacity="1" /><path clip-path="url(#clip940)" d="M2106.81 1548.85 L2125.17 1548.85 L2125.17 1552.78 L2111.09 1552.78 L2111.09 1561.26 Q2112.11 1560.91 2113.13 1560.75 Q2114.15 1560.56 2115.17 1560.56 Q2120.95 1560.56 2124.33 1563.73 Q2127.71 1566.9 2127.71 1572.32 Q2127.71 1577.9 2124.24 1581 Q2120.77 1584.08 2114.45 1584.08 Q2112.27 1584.08 2110 1583.71 Q2107.76 1583.34 2105.35 1582.6 L2105.35 1577.9 Q2107.43 1579.03 2109.66 1579.59 Q2111.88 1580.14 2114.36 1580.14 Q2118.36 1580.14 2120.7 1578.04 Q2123.04 1575.93 2123.04 1572.32 Q2123.04 1568.71 2120.7 1566.6 Q2118.36 1564.5 2114.36 1564.5 Q2112.48 1564.5 2110.61 1564.91 Q2108.75 1565.33 2106.81 1566.21 L2106.81 1548.85 Z" fill="#000000" fill-rule="nonzero" fill-opacity="1" /><path clip-path="url(#clip940)" d="M2146.92 1551.93 Q2143.31 1551.93 2141.48 1555.49 Q2139.68 1559.03 2139.68 1566.16 Q2139.68 1573.27 2141.48 1576.83 Q2143.31 1580.38 2146.92 1580.38 Q2150.56 1580.38 2152.36 1576.83 Q2154.19 1573.27 2154.19 1566.16 Q2154.19 1559.03 2152.36 1555.49 Q2150.56 1551.93 2146.92 1551.93 M2146.92 1548.22 Q2152.73 1548.22 2155.79 1552.83 Q2158.87 1557.41 2158.87 1566.16 Q2158.87 1574.89 2155.79 1579.5 Q2152.73 1584.08 2146.92 1584.08 Q2141.11 1584.08 2138.04 1579.5 Q2134.98 1574.89 2134.98 1566.16 Q2134.98 1557.41 2138.04 1552.83 Q2141.11 1548.22 2146.92 1548.22 Z" fill="#000000" fill-rule="nonzero" fill-opacity="1" /><polyline clip-path="url(#clip942)" style="stroke:#000000; stroke-linecap:round; stroke-linejoin:round; stroke-width:2; stroke-opacity:0.1; fill:none" points="86.9921,1521.01 2352.76,1521.01 "/>
<polyline clip-path="url(#clip942)" style="stroke:#000000; stroke-linecap:round; stroke-linejoin:round; stroke-width:2; stroke-opacity:0.1; fill:none" points="86.9921,1062.5 2352.76,1062.5 "/>
<polyline clip-path="url(#clip942)" style="stroke:#000000; stroke-linecap:round; stroke-linejoin:round; stroke-width:2; stroke-opacity:0.1; fill:none" points="86.9921,603.999 2352.76,603.999 "/>
<polyline clip-path="url(#clip942)" style="stroke:#000000; stroke-linecap:round; stroke-linejoin:round; stroke-width:2; stroke-opacity:0.1; fill:none" points="86.9921,145.495 2352.76,145.495 "/>
<polyline clip-path="url(#clip940)" style="stroke:#000000; stroke-linecap:round; stroke-linejoin:round; stroke-width:4; stroke-opacity:1; fill:none" points="86.9921,1521.01 86.9921,47.2441 "/>
<polyline clip-path="url(#clip940)" style="stroke:#000000; stroke-linecap:round; stroke-linejoin:round; stroke-width:4; stroke-opacity:1; fill:none" points="86.9921,1521.01 105.89,1521.01 "/>
<polyline clip-path="url(#clip940)" style="stroke:#000000; stroke-linecap:round; stroke-linejoin:round; stroke-width:4; stroke-opacity:1; fill:none" points="86.9921,1062.5 105.89,1062.5 "/>
<polyline clip-path="url(#clip940)" style="stroke:#000000; stroke-linecap:round; stroke-linejoin:round; stroke-width:4; stroke-opacity:1; fill:none" points="86.9921,603.999 105.89,603.999 "/>
<polyline clip-path="url(#clip940)" style="stroke:#000000; stroke-linecap:round; stroke-linejoin:round; stroke-width:4; stroke-opacity:1; fill:none" points="86.9921,145.495 105.89,145.495 "/>
<path clip-path="url(#clip940)" d="M10.8708 1558.7 Q10.8708 1562.32 14.4356 1564.14 Q17.9773 1565.95 25.1068 1565.95 Q32.2133 1565.95 35.7781 1564.14 Q39.3197 1562.32 39.3197 1558.7 Q39.3197 1555.07 35.7781 1553.26 Q32.2133 1551.44 25.1068 1551.44 Q17.9773 1551.44 14.4356 1553.26 Q10.8708 1555.07 10.8708 1558.7 M7.16713 1558.7 Q7.16713 1552.89 11.7736 1549.84 Q16.3569 1546.76 25.1068 1546.76 Q33.8337 1546.76 38.4401 1549.84 Q43.0234 1552.89 43.0234 1558.7 Q43.0234 1564.51 38.4401 1567.59 Q33.8337 1570.65 25.1068 1570.65 Q16.3569 1570.65 11.7736 1567.59 Q7.16713 1564.51 7.16713 1558.7 Z" fill="#000000" fill-rule="nonzero" fill-opacity="1" /><path clip-path="url(#clip940)" d="M36.4725 1538.54 L36.4725 1533.66 L42.3521 1533.66 L42.3521 1538.54 L36.4725 1538.54 Z" fill="#000000" fill-rule="nonzero" fill-opacity="1" /><path clip-path="url(#clip940)" d="M10.8708 1513.47 Q10.8708 1517.08 14.4356 1518.91 Q17.9773 1520.72 25.1068 1520.72 Q32.2133 1520.72 35.7781 1518.91 Q39.3197 1517.08 39.3197 1513.47 Q39.3197 1509.84 35.7781 1508.03 Q32.2133 1506.2 25.1068 1506.2 Q17.9773 1506.2 14.4356 1508.03 Q10.8708 1509.84 10.8708 1513.47 M7.16713 1513.47 Q7.16713 1507.66 11.7736 1504.61 Q16.3569 1501.53 25.1068 1501.53 Q33.8337 1501.53 38.4401 1504.61 Q43.0234 1507.66 43.0234 1513.47 Q43.0234 1519.28 38.4401 1522.36 Q33.8337 1525.42 25.1068 1525.42 Q16.3569 1525.42 11.7736 1522.36 Q7.16713 1519.28 7.16713 1513.47 Z" fill="#000000" fill-rule="nonzero" fill-opacity="1" /><path clip-path="url(#clip940)" d="M10.8708 1483.31 Q10.8708 1486.92 14.4356 1488.75 Q17.9773 1490.56 25.1068 1490.56 Q32.2133 1490.56 35.7781 1488.75 Q39.3197 1486.92 39.3197 1483.31 Q39.3197 1479.68 35.7781 1477.87 Q32.2133 1476.04 25.1068 1476.04 Q17.9773 1476.04 14.4356 1477.87 Q10.8708 1479.68 10.8708 1483.31 M7.16713 1483.31 Q7.16713 1477.5 11.7736 1474.45 Q16.3569 1471.37 25.1068 1471.37 Q33.8337 1471.37 38.4401 1474.45 Q43.0234 1477.5 43.0234 1483.31 Q43.0234 1489.12 38.4401 1492.2 Q33.8337 1495.26 25.1068 1495.26 Q16.3569 1495.26 11.7736 1492.2 Q7.16713 1489.12 7.16713 1483.31 Z" fill="#000000" fill-rule="nonzero" fill-opacity="1" /><path clip-path="url(#clip940)" d="M10.8708 1099.59 Q10.8708 1103.2 14.4356 1105.03 Q17.9773 1106.83 25.1068 1106.83 Q32.2133 1106.83 35.7781 1105.03 Q39.3197 1103.2 39.3197 1099.59 Q39.3197 1095.95 35.7781 1094.15 Q32.2133 1092.32 25.1068 1092.32 Q17.9773 1092.32 14.4356 1094.15 Q10.8708 1095.95 10.8708 1099.59 M7.16713 1099.59 Q7.16713 1093.78 11.7736 1090.72 Q16.3569 1087.64 25.1068 1087.64 Q33.8337 1087.64 38.4401 1090.72 Q43.0234 1093.78 43.0234 1099.59 Q43.0234 1105.4 38.4401 1108.48 Q33.8337 1111.53 25.1068 1111.53 Q16.3569 1111.53 11.7736 1108.48 Q7.16713 1105.4 7.16713 1099.59 Z" fill="#000000" fill-rule="nonzero" fill-opacity="1" /><path clip-path="url(#clip940)" d="M36.4725 1079.42 L36.4725 1074.54 L42.3521 1074.54 L42.3521 1079.42 L36.4725 1079.42 Z" fill="#000000" fill-rule="nonzero" fill-opacity="1" /><path clip-path="url(#clip940)" d="M10.8708 1054.36 Q10.8708 1057.97 14.4356 1059.8 Q17.9773 1061.6 25.1068 1061.6 Q32.2133 1061.6 35.7781 1059.8 Q39.3197 1057.97 39.3197 1054.36 Q39.3197 1050.72 35.7781 1048.92 Q32.2133 1047.09 25.1068 1047.09 Q17.9773 1047.09 14.4356 1048.92 Q10.8708 1050.72 10.8708 1054.36 M7.16713 1054.36 Q7.16713 1048.55 11.7736 1045.49 Q16.3569 1042.41 25.1068 1042.41 Q33.8337 1042.41 38.4401 1045.49 Q43.0234 1048.55 43.0234 1054.36 Q43.0234 1060.17 38.4401 1063.24 Q33.8337 1066.3 25.1068 1066.3 Q16.3569 1066.3 11.7736 1063.24 Q7.16713 1060.17 7.16713 1054.36 Z" fill="#000000" fill-rule="nonzero" fill-opacity="1" /><path clip-path="url(#clip940)" d="M38.417 1033.38 L38.417 1025.74 L12.0514 1025.74 L13.718 1034.05 L9.45878 1034.05 L7.79213 1025.79 L7.79213 1021.11 L38.417 1021.11 L38.417 1013.48 L42.3521 1013.48 L42.3521 1033.38 L38.417 1033.38 Z" fill="#000000" fill-rule="nonzero" fill-opacity="1" /><path clip-path="url(#clip940)" d="M10.8708 640.897 Q10.8708 644.508 14.4356 646.337 Q17.9773 648.143 25.1068 648.143 Q32.2133 648.143 35.7781 646.337 Q39.3197 644.508 39.3197 640.897 Q39.3197 637.263 35.7781 635.457 Q32.2133 633.629 25.1068 633.629 Q17.9773 633.629 14.4356 635.457 Q10.8708 637.263 10.8708 640.897 M7.16713 640.897 Q7.16713 635.087 11.7736 632.032 Q16.3569 628.953 25.1068 628.953 Q33.8337 628.953 38.4401 632.032 Q43.0234 635.087 43.0234 640.897 Q43.0234 646.707 38.4401 649.786 Q33.8337 652.842 25.1068 652.842 Q16.3569 652.842 11.7736 649.786 Q7.16713 646.707 7.16713 640.897 Z" fill="#000000" fill-rule="nonzero" fill-opacity="1" /><path clip-path="url(#clip940)" d="M36.4725 620.735 L36.4725 615.851 L42.3521 615.851 L42.3521 620.735 L36.4725 620.735 Z" fill="#000000" fill-rule="nonzero" fill-opacity="1" /><path clip-path="url(#clip940)" d="M10.8708 595.666 Q10.8708 599.277 14.4356 601.106 Q17.9773 602.911 25.1068 602.911 Q32.2133 602.911 35.7781 601.106 Q39.3197 599.277 39.3197 595.666 Q39.3197 592.032 35.7781 590.226 Q32.2133 588.398 25.1068 588.398 Q17.9773 588.398 14.4356 590.226 Q10.8708 592.032 10.8708 595.666 M7.16713 595.666 Q7.16713 589.856 11.7736 586.8 Q16.3569 583.722 25.1068 583.722 Q33.8337 583.722 38.4401 586.8 Q43.0234 589.856 43.0234 595.666 Q43.0234 601.476 38.4401 604.555 Q33.8337 607.61 25.1068 607.61 Q16.3569 607.61 11.7736 604.555 Q7.16713 601.476 7.16713 595.666 Z" fill="#000000" fill-rule="nonzero" fill-opacity="1" /><path clip-path="url(#clip940)" d="M38.417 571.476 L38.417 555.157 L42.3521 555.157 L42.3521 577.101 L38.417 577.101 Q35.6623 574.439 31.0327 569.856 Q26.38 565.25 25.0374 564.069 Q22.5143 561.824 20.7782 560.944 Q19.0189 560.041 17.3291 560.041 Q14.5745 560.041 12.8384 561.986 Q11.1023 563.907 11.1023 567.009 Q11.1023 569.208 11.8662 571.662 Q12.6301 574.092 14.181 576.87 L9.45878 576.87 Q8.32453 574.046 7.74583 571.592 Q7.16713 569.138 7.16713 567.101 Q7.16713 561.731 9.8523 558.537 Q12.5375 555.342 17.0282 555.342 Q19.1578 555.342 21.0791 556.152 Q22.9772 556.939 25.5698 559.046 Q26.2411 559.625 29.4587 562.726 Q32.6531 565.828 38.417 571.476 Z" fill="#000000" fill-rule="nonzero" fill-opacity="1" /><path clip-path="url(#clip940)" d="M10.8708 182.867 Q10.8708 186.479 14.4356 188.307 Q17.9773 190.113 25.1068 190.113 Q32.2133 190.113 35.7781 188.307 Q39.3197 186.479 39.3197 182.867 Q39.3197 179.233 35.7781 177.428 Q32.2133 175.599 25.1068 175.599 Q17.9773 175.599 14.4356 177.428 Q10.8708 179.233 10.8708 182.867 M7.16713 182.867 Q7.16713 177.057 11.7736 174.002 Q16.3569 170.923 25.1068 170.923 Q33.8337 170.923 38.4401 174.002 Q43.0234 177.057 43.0234 182.867 Q43.0234 188.678 38.4401 191.756 Q33.8337 194.812 25.1068 194.812 Q16.3569 194.812 11.7736 191.756 Q7.16713 188.678 7.16713 182.867 Z" fill="#000000" fill-rule="nonzero" fill-opacity="1" /><path clip-path="url(#clip940)" d="M36.4725 162.706 L36.4725 157.821 L42.3521 157.821 L42.3521 162.706 L36.4725 162.706 Z" fill="#000000" fill-rule="nonzero" fill-opacity="1" /><path clip-path="url(#clip940)" d="M10.8708 137.636 Q10.8708 141.247 14.4356 143.076 Q17.9773 144.882 25.1068 144.882 Q32.2133 144.882 35.7781 143.076 Q39.3197 141.247 39.3197 137.636 Q39.3197 134.002 35.7781 132.196 Q32.2133 130.368 25.1068 130.368 Q17.9773 130.368 14.4356 132.196 Q10.8708 134.002 10.8708 137.636 M7.16713 137.636 Q7.16713 131.826 11.7736 128.771 Q16.3569 125.692 25.1068 125.692 Q33.8337 125.692 38.4401 128.771 Q43.0234 131.826 43.0234 137.636 Q43.0234 143.446 38.4401 146.525 Q33.8337 149.581 25.1068 149.581 Q16.3569 149.581 11.7736 146.525 Q7.16713 143.446 7.16713 137.636 Z" fill="#000000" fill-rule="nonzero" fill-opacity="1" /><path clip-path="url(#clip940)" d="M23.718 103.308 Q24.4356 99.9513 26.7041 98.0763 Q28.9726 96.1781 32.3059 96.1781 Q37.4216 96.1781 40.2225 99.6966 Q43.0234 103.215 43.0234 109.697 Q43.0234 111.873 42.5836 114.187 Q42.1669 116.479 41.3105 118.933 L36.7966 118.933 Q37.9309 116.988 38.5096 114.673 Q39.0883 112.359 39.0883 109.835 Q39.0883 105.437 37.3522 103.146 Q35.6161 100.831 32.3059 100.831 Q29.2503 100.831 27.5374 102.984 Q25.8013 105.113 25.8013 108.933 L25.8013 112.96 L21.9587 112.96 L21.9587 108.748 Q21.9587 105.298 20.593 103.47 Q19.2041 101.641 16.6115 101.641 Q13.9495 101.641 12.5375 103.539 Q11.1023 105.414 11.1023 108.933 Q11.1023 110.854 11.519 113.053 Q11.9356 115.252 12.8152 117.891 L8.6486 117.891 Q7.90787 115.229 7.5375 112.914 Q7.16713 110.576 7.16713 108.516 Q7.16713 103.192 9.59767 100.09 Q12.0051 96.9883 16.1254 96.9883 Q18.9958 96.9883 20.9865 98.6318 Q22.9541 100.275 23.718 103.308 Z" fill="#000000" fill-rule="nonzero" fill-opacity="1" /><path clip-path="url(#clip942)" d="M211.613 1516.91 L211.613 1521.01 L307.638 1521.01 L307.638 1516.91 L211.613 1516.91 L211.613 1516.91  Z" fill="#009af9" fill-rule="evenodd" fill-opacity="1"/>
<polyline clip-path="url(#clip942)" style="stroke:#000000; stroke-linecap:round; stroke-linejoin:round; stroke-width:4; stroke-opacity:1; fill:none" points="211.613,1516.91 211.613,1521.01 307.638,1521.01 307.638,1516.91 211.613,1516.91 "/>
<path clip-path="url(#clip942)" d="M307.638 1504.63 L307.638 1521.01 L403.663 1521.01 L403.663 1504.63 L307.638 1504.63 L307.638 1504.63  Z" fill="#009af9" fill-rule="evenodd" fill-opacity="1"/>
<polyline clip-path="url(#clip942)" style="stroke:#000000; stroke-linecap:round; stroke-linejoin:round; stroke-width:4; stroke-opacity:1; fill:none" points="307.638,1504.63 307.638,1521.01 403.663,1521.01 403.663,1504.63 307.638,1504.63 "/>
<path clip-path="url(#clip942)" d="M403.663 1492.35 L403.663 1521.01 L499.688 1521.01 L499.688 1492.35 L403.663 1492.35 L403.663 1492.35  Z" fill="#009af9" fill-rule="evenodd" fill-opacity="1"/>
<polyline clip-path="url(#clip942)" style="stroke:#000000; stroke-linecap:round; stroke-linejoin:round; stroke-width:4; stroke-opacity:1; fill:none" points="403.663,1492.35 403.663,1521.01 499.688,1521.01 499.688,1492.35 403.663,1492.35 "/>
<path clip-path="url(#clip942)" d="M499.688 1443.23 L499.688 1521.01 L595.713 1521.01 L595.713 1443.23 L499.688 1443.23 L499.688 1443.23  Z" fill="#009af9" fill-rule="evenodd" fill-opacity="1"/>
<polyline clip-path="url(#clip942)" style="stroke:#000000; stroke-linecap:round; stroke-linejoin:round; stroke-width:4; stroke-opacity:1; fill:none" points="499.688,1443.23 499.688,1521.01 595.713,1521.01 595.713,1443.23 499.688,1443.23 "/>
<path clip-path="url(#clip942)" d="M595.713 1336.79 L595.713 1521.01 L691.737 1521.01 L691.737 1336.79 L595.713 1336.79 L595.713 1336.79  Z" fill="#009af9" fill-rule="evenodd" fill-opacity="1"/>
<polyline clip-path="url(#clip942)" style="stroke:#000000; stroke-linecap:round; stroke-linejoin:round; stroke-width:4; stroke-opacity:1; fill:none" points="595.713,1336.79 595.713,1521.01 691.737,1521.01 691.737,1336.79 595.713,1336.79 "/>
<path clip-path="url(#clip942)" d="M691.737 1173.04 L691.737 1521.01 L787.762 1521.01 L787.762 1173.04 L691.737 1173.04 L691.737 1173.04  Z" fill="#009af9" fill-rule="evenodd" fill-opacity="1"/>
<polyline clip-path="url(#clip942)" style="stroke:#000000; stroke-linecap:round; stroke-linejoin:round; stroke-width:4; stroke-opacity:1; fill:none" points="691.737,1173.04 691.737,1521.01 787.762,1521.01 787.762,1173.04 691.737,1173.04 "/>
<path clip-path="url(#clip942)" d="M787.762 1074.78 L787.762 1521.01 L883.787 1521.01 L883.787 1074.78 L787.762 1074.78 L787.762 1074.78  Z" fill="#009af9" fill-rule="evenodd" fill-opacity="1"/>
<polyline clip-path="url(#clip942)" style="stroke:#000000; stroke-linecap:round; stroke-linejoin:round; stroke-width:4; stroke-opacity:1; fill:none" points="787.762,1074.78 787.762,1521.01 883.787,1521.01 883.787,1074.78 787.762,1074.78 "/>
<path clip-path="url(#clip942)" d="M883.787 804.595 L883.787 1521.01 L979.812 1521.01 L979.812 804.595 L883.787 804.595 L883.787 804.595  Z" fill="#009af9" fill-rule="evenodd" fill-opacity="1"/>
<polyline clip-path="url(#clip942)" style="stroke:#000000; stroke-linecap:round; stroke-linejoin:round; stroke-width:4; stroke-opacity:1; fill:none" points="883.787,804.595 883.787,1521.01 979.812,1521.01 979.812,804.595 883.787,804.595 "/>
<path clip-path="url(#clip942)" d="M979.812 276.496 L979.812 1521.01 L1075.84 1521.01 L1075.84 276.496 L979.812 276.496 L979.812 276.496  Z" fill="#009af9" fill-rule="evenodd" fill-opacity="1"/>
<polyline clip-path="url(#clip942)" style="stroke:#000000; stroke-linecap:round; stroke-linejoin:round; stroke-width:4; stroke-opacity:1; fill:none" points="979.812,276.496 979.812,1521.01 1075.84,1521.01 1075.84,276.496 979.812,276.496 "/>
<path clip-path="url(#clip942)" d="M1075.84 47.2441 L1075.84 1521.01 L1171.86 1521.01 L1171.86 47.2441 L1075.84 47.2441 L1075.84 47.2441  Z" fill="#009af9" fill-rule="evenodd" fill-opacity="1"/>
<polyline clip-path="url(#clip942)" style="stroke:#000000; stroke-linecap:round; stroke-linejoin:round; stroke-width:4; stroke-opacity:1; fill:none" points="1075.84,47.2441 1075.84,1521.01 1171.86,1521.01 1171.86,47.2441 1075.84,47.2441 "/>
<path clip-path="url(#clip942)" d="M1171.86 96.3696 L1171.86 1521.01 L1267.89 1521.01 L1267.89 96.3696 L1171.86 96.3696 L1171.86 96.3696  Z" fill="#009af9" fill-rule="evenodd" fill-opacity="1"/>
<polyline clip-path="url(#clip942)" style="stroke:#000000; stroke-linecap:round; stroke-linejoin:round; stroke-width:4; stroke-opacity:1; fill:none" points="1171.86,96.3696 1171.86,1521.01 1267.89,1521.01 1267.89,96.3696 1171.86,96.3696 "/>
<path clip-path="url(#clip942)" d="M1267.89 489.373 L1267.89 1521.01 L1363.91 1521.01 L1363.91 489.373 L1267.89 489.373 L1267.89 489.373  Z" fill="#009af9" fill-rule="evenodd" fill-opacity="1"/>
<polyline clip-path="url(#clip942)" style="stroke:#000000; stroke-linecap:round; stroke-linejoin:round; stroke-width:4; stroke-opacity:1; fill:none" points="1267.89,489.373 1267.89,1521.01 1363.91,1521.01 1363.91,489.373 1267.89,489.373 "/>
<path clip-path="url(#clip942)" d="M1363.91 653.125 L1363.91 1521.01 L1459.94 1521.01 L1459.94 653.125 L1363.91 653.125 L1363.91 653.125  Z" fill="#009af9" fill-rule="evenodd" fill-opacity="1"/>
<polyline clip-path="url(#clip942)" style="stroke:#000000; stroke-linecap:round; stroke-linejoin:round; stroke-width:4; stroke-opacity:1; fill:none" points="1363.91,653.125 1363.91,1521.01 1459.94,1521.01 1459.94,653.125 1363.91,653.125 "/>
<path clip-path="url(#clip942)" d="M1459.94 1042.03 L1459.94 1521.01 L1555.96 1521.01 L1555.96 1042.03 L1459.94 1042.03 L1459.94 1042.03  Z" fill="#009af9" fill-rule="evenodd" fill-opacity="1"/>
<polyline clip-path="url(#clip942)" style="stroke:#000000; stroke-linecap:round; stroke-linejoin:round; stroke-width:4; stroke-opacity:1; fill:none" points="1459.94,1042.03 1459.94,1521.01 1555.96,1521.01 1555.96,1042.03 1459.94,1042.03 "/>
<path clip-path="url(#clip942)" d="M1555.96 1082.97 L1555.96 1521.01 L1651.99 1521.01 L1651.99 1082.97 L1555.96 1082.97 L1555.96 1082.97  Z" fill="#009af9" fill-rule="evenodd" fill-opacity="1"/>
<polyline clip-path="url(#clip942)" style="stroke:#000000; stroke-linecap:round; stroke-linejoin:round; stroke-width:4; stroke-opacity:1; fill:none" points="1555.96,1082.97 1555.96,1521.01 1651.99,1521.01 1651.99,1082.97 1555.96,1082.97 "/>
<path clip-path="url(#clip942)" d="M1651.99 1263.1 L1651.99 1521.01 L1748.01 1521.01 L1748.01 1263.1 L1651.99 1263.1 L1651.99 1263.1  Z" fill="#009af9" fill-rule="evenodd" fill-opacity="1"/>
<polyline clip-path="url(#clip942)" style="stroke:#000000; stroke-linecap:round; stroke-linejoin:round; stroke-width:4; stroke-opacity:1; fill:none" points="1651.99,1263.1 1651.99,1521.01 1748.01,1521.01 1748.01,1263.1 1651.99,1263.1 "/>
<path clip-path="url(#clip942)" d="M1748.01 1447.32 L1748.01 1521.01 L1844.04 1521.01 L1844.04 1447.32 L1748.01 1447.32 L1748.01 1447.32  Z" fill="#009af9" fill-rule="evenodd" fill-opacity="1"/>
<polyline clip-path="url(#clip942)" style="stroke:#000000; stroke-linecap:round; stroke-linejoin:round; stroke-width:4; stroke-opacity:1; fill:none" points="1748.01,1447.32 1748.01,1521.01 1844.04,1521.01 1844.04,1447.32 1748.01,1447.32 "/>
<path clip-path="url(#clip942)" d="M1844.04 1475.98 L1844.04 1521.01 L1940.06 1521.01 L1940.06 1475.98 L1844.04 1475.98 L1844.04 1475.98  Z" fill="#009af9" fill-rule="evenodd" fill-opacity="1"/>
<polyline clip-path="url(#clip942)" style="stroke:#000000; stroke-linecap:round; stroke-linejoin:round; stroke-width:4; stroke-opacity:1; fill:none" points="1844.04,1475.98 1844.04,1521.01 1940.06,1521.01 1940.06,1475.98 1844.04,1475.98 "/>
<path clip-path="url(#clip942)" d="M1940.06 1516.91 L1940.06 1521.01 L2036.09 1521.01 L2036.09 1516.91 L1940.06 1516.91 L1940.06 1516.91  Z" fill="#009af9" fill-rule="evenodd" fill-opacity="1"/>
<polyline clip-path="url(#clip942)" style="stroke:#000000; stroke-linecap:round; stroke-linejoin:round; stroke-width:4; stroke-opacity:1; fill:none" points="1940.06,1516.91 1940.06,1521.01 2036.09,1521.01 2036.09,1516.91 1940.06,1516.91 "/>
<path clip-path="url(#clip942)" d="M2036.09 1516.91 L2036.09 1521.01 L2132.11 1521.01 L2132.11 1516.91 L2036.09 1516.91 L2036.09 1516.91  Z" fill="#009af9" fill-rule="evenodd" fill-opacity="1"/>
<polyline clip-path="url(#clip942)" style="stroke:#000000; stroke-linecap:round; stroke-linejoin:round; stroke-width:4; stroke-opacity:1; fill:none" points="2036.09,1516.91 2036.09,1521.01 2132.11,1521.01 2132.11,1516.91 2036.09,1516.91 "/>
<path clip-path="url(#clip942)" d="M2132.11 1516.91 L2132.11 1521.01 L2228.13 1521.01 L2228.13 1516.91 L2132.11 1516.91 L2132.11 1516.91  Z" fill="#009af9" fill-rule="evenodd" fill-opacity="1"/>
<polyline clip-path="url(#clip942)" style="stroke:#000000; stroke-linecap:round; stroke-linejoin:round; stroke-width:4; stroke-opacity:1; fill:none" points="2132.11,1516.91 2132.11,1521.01 2228.13,1521.01 2228.13,1516.91 2132.11,1516.91 "/>
<circle clip-path="url(#clip942)" style="fill:#009af9; stroke:none; fill-opacity:0" cx="259.626" cy="1516.91" r="2"/>
<circle clip-path="url(#clip942)" style="fill:#009af9; stroke:none; fill-opacity:0" cx="355.65" cy="1504.63" r="2"/>
<circle clip-path="url(#clip942)" style="fill:#009af9; stroke:none; fill-opacity:0" cx="451.675" cy="1492.35" r="2"/>
<circle clip-path="url(#clip942)" style="fill:#009af9; stroke:none; fill-opacity:0" cx="547.7" cy="1443.23" r="2"/>
<circle clip-path="url(#clip942)" style="fill:#009af9; stroke:none; fill-opacity:0" cx="643.725" cy="1336.79" r="2"/>
<circle clip-path="url(#clip942)" style="fill:#009af9; stroke:none; fill-opacity:0" cx="739.75" cy="1173.04" r="2"/>
<circle clip-path="url(#clip942)" style="fill:#009af9; stroke:none; fill-opacity:0" cx="835.775" cy="1074.78" r="2"/>
<circle clip-path="url(#clip942)" style="fill:#009af9; stroke:none; fill-opacity:0" cx="931.799" cy="804.595" r="2"/>
<circle clip-path="url(#clip942)" style="fill:#009af9; stroke:none; fill-opacity:0" cx="1027.82" cy="276.496" r="2"/>
<circle clip-path="url(#clip942)" style="fill:#009af9; stroke:none; fill-opacity:0" cx="1123.85" cy="47.2441" r="2"/>
<circle clip-path="url(#clip942)" style="fill:#009af9; stroke:none; fill-opacity:0" cx="1219.87" cy="96.3696" r="2"/>
<circle clip-path="url(#clip942)" style="fill:#009af9; stroke:none; fill-opacity:0" cx="1315.9" cy="489.373" r="2"/>
<circle clip-path="url(#clip942)" style="fill:#009af9; stroke:none; fill-opacity:0" cx="1411.92" cy="653.125" r="2"/>
<circle clip-path="url(#clip942)" style="fill:#009af9; stroke:none; fill-opacity:0" cx="1507.95" cy="1042.03" r="2"/>
<circle clip-path="url(#clip942)" style="fill:#009af9; stroke:none; fill-opacity:0" cx="1603.97" cy="1082.97" r="2"/>
<circle clip-path="url(#clip942)" style="fill:#009af9; stroke:none; fill-opacity:0" cx="1700" cy="1263.1" r="2"/>
<circle clip-path="url(#clip942)" style="fill:#009af9; stroke:none; fill-opacity:0" cx="1796.02" cy="1447.32" r="2"/>
<circle clip-path="url(#clip942)" style="fill:#009af9; stroke:none; fill-opacity:0" cx="1892.05" cy="1475.98" r="2"/>
<circle clip-path="url(#clip942)" style="fill:#009af9; stroke:none; fill-opacity:0" cx="1988.07" cy="1516.91" r="2"/>
<circle clip-path="url(#clip942)" style="fill:#009af9; stroke:none; fill-opacity:0" cx="2084.1" cy="1516.91" r="2"/>
<circle clip-path="url(#clip942)" style="fill:#009af9; stroke:none; fill-opacity:0" cx="2180.12" cy="1516.91" r="2"/>
<polyline clip-path="url(#clip942)" style="stroke:#e26f46; stroke-linecap:round; stroke-linejoin:round; stroke-width:4; stroke-opacity:1; fill:none" points="198.615,1519.68 204.98,1519.56 211.344,1519.42 270.194,1517.49 329.044,1513.59 364.411,1509.66 399.777,1503.97 429.679,1497.32 459.581,1488.5 475.822,1482.61 492.063,1475.82 508.304,1468.04 524.544,1459.15 539.517,1449.89 554.49,1439.5 569.462,1427.89 584.435,1414.98 600.487,1399.58 616.54,1382.46 632.592,1363.52 648.644,1342.65 667.242,1315.96 685.84,1286.44 704.439,1254.01 723.037,1218.62 739.565,1184.66 756.092,1148.37 772.62,1109.79 789.148,1069.01 803.642,1031.53 818.135,992.545 832.628,952.19 847.122,910.612 878.725,816.574 910.329,719.714 942.12,622.044 973.911,527.115 982.699,501.784 991.486,476.974 1000.27,452.756 1009.06,429.196 1017.85,406.363 1026.64,384.323 1035.42,363.142 1044.21,342.884 1052.57,324.523 1060.93,307.103 1069.29,290.676 1077.65,275.287 1086.01,260.981 1094.38,247.799 1102.74,235.781 1111.1,224.96 1119.79,215.015 1128.48,206.433 1137.18,199.24 1145.87,193.461 1154.56,189.114 1163.26,186.214 1171.95,184.769 1180.64,184.786 1187.96,185.932 1195.28,188.111 1202.6,191.317 1209.92,195.543 1217.23,200.78 1224.55,207.014 1231.87,214.233 1239.19,222.418 1248.12,233.696 1257.06,246.349 1265.99,260.335 1274.93,275.607 1283.86,292.115 1292.8,309.803 1301.73,328.616 1310.66,348.492 1327.03,387.454 1343.4,429.362 1351.59,451.289 1359.77,473.791 1367.96,496.813 1376.14,520.299 1406.38,610.179 1436.61,702.883 1467.24,797.007 1497.87,888.942 1515.03,938.722 1532.2,986.863 1549.36,1033.11 1566.52,1077.25 1582.07,1115.28 1597.63,1151.35 1613.18,1185.39 1628.73,1217.36 1646.54,1251.4 1664.34,1282.73 1682.15,1311.37 1699.96,1337.42 1716.44,1359.31 1732.93,1379.14 1749.42,1397.04 1765.9,1413.1 1782.16,1427.25 1798.41,1439.86 1814.67,1451.05 1830.92,1460.92 1846.7,1469.36 1862.48,1476.77 1878.27,1483.26 1894.05,1488.91 1926.4,1498.25 1958.76,1505.11 1994.21,1510.46 2029.66,1514.14 2081.16,1517.44 2132.66,1519.23 2143.22,1519.47 2153.78,1519.68 "/>
<path clip-path="url(#clip940)" d="M1504.75 251.89 L2277.23 251.89 L2277.23 96.3696 L1504.75 96.3696  Z" fill="#ffffff" fill-rule="evenodd" fill-opacity="1"/>
<polyline clip-path="url(#clip940)" style="stroke:#000000; stroke-linecap:round; stroke-linejoin:round; stroke-width:4; stroke-opacity:1; fill:none" points="1504.75,251.89 2277.23,251.89 2277.23,96.3696 1504.75,96.3696 1504.75,251.89 "/>
<path clip-path="url(#clip940)" d="M1529.93 168.946 L1680.98 168.946 L1680.98 127.474 L1529.93 127.474 L1529.93 168.946  Z" fill="#009af9" fill-rule="evenodd" fill-opacity="1"/>
<polyline clip-path="url(#clip940)" style="stroke:#000000; stroke-linecap:round; stroke-linejoin:round; stroke-width:4; stroke-opacity:1; fill:none" points="1529.93,168.946 1680.98,168.946 1680.98,127.474 1529.93,127.474 1529.93,168.946 "/>
<path clip-path="url(#clip940)" d="M1718.05 142.55 Q1714.63 142.55 1712.64 145.235 Q1710.65 147.897 1710.65 152.55 Q1710.65 157.203 1712.61 159.888 Q1714.6 162.55 1718.05 162.55 Q1721.46 162.55 1723.45 159.865 Q1725.44 157.179 1725.44 152.55 Q1725.44 147.943 1723.45 145.258 Q1721.46 142.55 1718.05 142.55 M1718.05 138.939 Q1723.61 138.939 1726.78 142.55 Q1729.95 146.161 1729.95 152.55 Q1729.95 158.916 1726.78 162.55 Q1723.61 166.161 1718.05 166.161 Q1712.47 166.161 1709.3 162.55 Q1706.16 158.916 1706.16 152.55 Q1706.16 146.161 1709.3 142.55 Q1712.47 138.939 1718.05 138.939 Z" fill="#000000" fill-rule="nonzero" fill-opacity="1" /><path clip-path="url(#clip940)" d="M1736.57 155.258 L1736.57 139.564 L1740.83 139.564 L1740.83 155.096 Q1740.83 158.777 1742.27 160.628 Q1743.7 162.457 1746.57 162.457 Q1750.02 162.457 1752.01 160.258 Q1754.03 158.059 1754.03 154.263 L1754.03 139.564 L1758.28 139.564 L1758.28 165.49 L1754.03 165.49 L1754.03 161.508 Q1752.47 163.869 1750.41 165.027 Q1748.38 166.161 1745.67 166.161 Q1741.2 166.161 1738.89 163.383 Q1736.57 160.605 1736.57 155.258 M1747.29 138.939 L1747.29 138.939 Z" fill="#000000" fill-rule="nonzero" fill-opacity="1" /><path clip-path="url(#clip940)" d="M1771.27 132.203 L1771.27 139.564 L1780.04 139.564 L1780.04 142.874 L1771.27 142.874 L1771.27 156.948 Q1771.27 160.119 1772.13 161.022 Q1773.01 161.925 1775.67 161.925 L1780.04 161.925 L1780.04 165.49 L1775.67 165.49 Q1770.74 165.49 1768.86 163.661 Q1766.99 161.809 1766.99 156.948 L1766.99 142.874 L1763.86 142.874 L1763.86 139.564 L1766.99 139.564 L1766.99 132.203 L1771.27 132.203 Z" fill="#000000" fill-rule="nonzero" fill-opacity="1" /><path clip-path="url(#clip940)" d="M1804.3 140.559 L1804.3 144.541 Q1802.5 143.545 1800.67 143.059 Q1798.86 142.55 1797.01 142.55 Q1792.87 142.55 1790.58 145.189 Q1788.28 147.804 1788.28 152.55 Q1788.28 157.295 1790.58 159.934 Q1792.87 162.55 1797.01 162.55 Q1798.86 162.55 1800.67 162.064 Q1802.5 161.554 1804.3 160.559 L1804.3 164.494 Q1802.52 165.328 1800.6 165.744 Q1798.7 166.161 1796.55 166.161 Q1790.69 166.161 1787.24 162.48 Q1783.79 158.8 1783.79 152.55 Q1783.79 146.207 1787.27 142.573 Q1790.76 138.939 1796.83 138.939 Q1798.79 138.939 1800.67 139.355 Q1802.54 139.749 1804.3 140.559 Z" fill="#000000" fill-rule="nonzero" fill-opacity="1" /><path clip-path="url(#clip940)" d="M1821.76 142.55 Q1818.33 142.55 1816.34 145.235 Q1814.35 147.897 1814.35 152.55 Q1814.35 157.203 1816.32 159.888 Q1818.31 162.55 1821.76 162.55 Q1825.16 162.55 1827.15 159.865 Q1829.14 157.179 1829.14 152.55 Q1829.14 147.943 1827.15 145.258 Q1825.16 142.55 1821.76 142.55 M1821.76 138.939 Q1827.31 138.939 1830.48 142.55 Q1833.65 146.161 1833.65 152.55 Q1833.65 158.916 1830.48 162.55 Q1827.31 166.161 1821.76 166.161 Q1816.18 166.161 1813.01 162.55 Q1809.86 158.916 1809.86 152.55 Q1809.86 146.161 1813.01 142.55 Q1816.18 138.939 1821.76 138.939 Z" fill="#000000" fill-rule="nonzero" fill-opacity="1" /><path clip-path="url(#clip940)" d="M1860.9 144.541 Q1862.5 141.67 1864.72 140.305 Q1866.94 138.939 1869.95 138.939 Q1874 138.939 1876.2 141.786 Q1878.4 144.61 1878.4 149.841 L1878.4 165.49 L1874.12 165.49 L1874.12 149.98 Q1874.12 146.254 1872.8 144.448 Q1871.48 142.642 1868.77 142.642 Q1865.46 142.642 1863.54 144.842 Q1861.62 147.041 1861.62 150.837 L1861.62 165.49 L1857.34 165.49 L1857.34 149.98 Q1857.34 146.23 1856.02 144.448 Q1854.7 142.642 1851.94 142.642 Q1848.68 142.642 1846.76 144.865 Q1844.84 147.064 1844.84 150.837 L1844.84 165.49 L1840.55 165.49 L1840.55 139.564 L1844.84 139.564 L1844.84 143.592 Q1846.29 141.207 1848.33 140.073 Q1850.37 138.939 1853.17 138.939 Q1855.99 138.939 1857.96 140.374 Q1859.95 141.809 1860.9 144.541 Z" fill="#000000" fill-rule="nonzero" fill-opacity="1" /><path clip-path="url(#clip940)" d="M1909.07 151.462 L1909.07 153.545 L1889.49 153.545 Q1889.77 157.943 1892.13 160.258 Q1894.51 162.55 1898.75 162.55 Q1901.2 162.55 1903.49 161.948 Q1905.81 161.346 1908.08 160.142 L1908.08 164.17 Q1905.78 165.142 1903.38 165.652 Q1900.97 166.161 1898.49 166.161 Q1892.29 166.161 1888.65 162.55 Q1885.04 158.939 1885.04 152.781 Q1885.04 146.416 1888.47 142.689 Q1891.92 138.939 1897.75 138.939 Q1902.98 138.939 1906.02 142.318 Q1909.07 145.675 1909.07 151.462 M1904.81 150.212 Q1904.77 146.717 1902.84 144.633 Q1900.95 142.55 1897.8 142.55 Q1894.23 142.55 1892.08 144.564 Q1889.95 146.578 1889.63 150.235 L1904.81 150.212 Z" fill="#000000" fill-rule="nonzero" fill-opacity="1" /><path clip-path="url(#clip940)" d="M1928.98 150.605 L1941.46 150.605 L1941.46 154.402 L1928.98 154.402 L1928.98 150.605 Z" fill="#000000" fill-rule="nonzero" fill-opacity="1" /><path clip-path="url(#clip940)" d="M1967.43 161.601 L1967.43 175.351 L1963.14 175.351 L1963.14 139.564 L1967.43 139.564 L1967.43 143.499 Q1968.77 141.184 1970.81 140.073 Q1972.87 138.939 1975.71 138.939 Q1980.44 138.939 1983.38 142.689 Q1986.34 146.439 1986.34 152.55 Q1986.34 158.661 1983.38 162.411 Q1980.44 166.161 1975.71 166.161 Q1972.87 166.161 1970.81 165.05 Q1968.77 163.915 1967.43 161.601 M1981.92 152.55 Q1981.92 147.851 1979.97 145.189 Q1978.05 142.504 1974.67 142.504 Q1971.29 142.504 1969.35 145.189 Q1967.43 147.851 1967.43 152.55 Q1967.43 157.249 1969.35 159.934 Q1971.29 162.596 1974.67 162.596 Q1978.05 162.596 1979.97 159.934 Q1981.92 157.249 1981.92 152.55 Z" fill="#000000" fill-rule="nonzero" fill-opacity="1" /><path clip-path="url(#clip940)" d="M2003.45 142.55 Q2000.02 142.55 1998.03 145.235 Q1996.04 147.897 1996.04 152.55 Q1996.04 157.203 1998.01 159.888 Q2000 162.55 2003.45 162.55 Q2006.85 162.55 2008.84 159.865 Q2010.83 157.179 2010.83 152.55 Q2010.83 147.943 2008.84 145.258 Q2006.85 142.55 2003.45 142.55 M2003.45 138.939 Q2009 138.939 2012.17 142.55 Q2015.34 146.161 2015.34 152.55 Q2015.34 158.916 2012.17 162.55 Q2009 166.161 2003.45 166.161 Q1997.87 166.161 1994.7 162.55 Q1991.55 158.916 1991.55 152.55 Q1991.55 146.161 1994.7 142.55 Q1997.87 138.939 2003.45 138.939 Z" fill="#000000" fill-rule="nonzero" fill-opacity="1" /><path clip-path="url(#clip940)" d="M2022.4 139.564 L2026.66 139.564 L2026.66 165.49 L2022.4 165.49 L2022.4 139.564 M2022.4 129.471 L2026.66 129.471 L2026.66 134.865 L2022.4 134.865 L2022.4 129.471 Z" fill="#000000" fill-rule="nonzero" fill-opacity="1" /><path clip-path="url(#clip940)" d="M2057.13 149.841 L2057.13 165.49 L2052.87 165.49 L2052.87 149.98 Q2052.87 146.3 2051.43 144.471 Q2050 142.642 2047.13 142.642 Q2043.68 142.642 2041.69 144.842 Q2039.7 147.041 2039.7 150.837 L2039.7 165.49 L2035.41 165.49 L2035.41 139.564 L2039.7 139.564 L2039.7 143.592 Q2041.22 141.254 2043.28 140.096 Q2045.37 138.939 2048.07 138.939 Q2052.54 138.939 2054.83 141.717 Q2057.13 144.471 2057.13 149.841 Z" fill="#000000" fill-rule="nonzero" fill-opacity="1" /><path clip-path="url(#clip940)" d="M2069.83 132.203 L2069.83 139.564 L2078.61 139.564 L2078.61 142.874 L2069.83 142.874 L2069.83 156.948 Q2069.83 160.119 2070.69 161.022 Q2071.57 161.925 2074.23 161.925 L2078.61 161.925 L2078.61 165.49 L2074.23 165.49 Q2069.3 165.49 2067.43 163.661 Q2065.55 161.809 2065.55 156.948 L2065.55 142.874 L2062.43 142.874 L2062.43 139.564 L2065.55 139.564 L2065.55 132.203 L2069.83 132.203 Z" fill="#000000" fill-rule="nonzero" fill-opacity="1" /><path clip-path="url(#clip940)" d="M2115.81 140.328 L2115.81 144.355 Q2114 143.429 2112.06 142.967 Q2110.11 142.504 2108.03 142.504 Q2104.86 142.504 2103.26 143.476 Q2101.69 144.448 2101.69 146.392 Q2101.69 147.874 2102.82 148.73 Q2103.95 149.564 2107.38 150.328 L2108.84 150.652 Q2113.38 151.624 2115.27 153.406 Q2117.19 155.166 2117.19 158.337 Q2117.19 161.948 2114.32 164.054 Q2111.48 166.161 2106.48 166.161 Q2104.39 166.161 2102.13 165.744 Q2099.88 165.351 2097.38 164.54 L2097.38 160.142 Q2099.74 161.369 2102.03 161.994 Q2104.32 162.596 2106.57 162.596 Q2109.58 162.596 2111.2 161.578 Q2112.82 160.536 2112.82 158.661 Q2112.82 156.925 2111.64 155.999 Q2110.48 155.073 2106.52 154.216 L2105.04 153.869 Q2101.08 153.036 2099.32 151.323 Q2097.57 149.587 2097.57 146.578 Q2097.57 142.92 2100.16 140.93 Q2102.75 138.939 2107.52 138.939 Q2109.88 138.939 2111.96 139.286 Q2114.05 139.633 2115.81 140.328 Z" fill="#000000" fill-rule="nonzero" fill-opacity="1" /><path clip-path="url(#clip940)" d="M2128.1 161.601 L2128.1 175.351 L2123.82 175.351 L2123.82 139.564 L2128.1 139.564 L2128.1 143.499 Q2129.44 141.184 2131.48 140.073 Q2133.54 138.939 2136.38 138.939 Q2141.11 138.939 2144.05 142.689 Q2147.01 146.439 2147.01 152.55 Q2147.01 158.661 2144.05 162.411 Q2141.11 166.161 2136.38 166.161 Q2133.54 166.161 2131.48 165.05 Q2129.44 163.915 2128.1 161.601 M2142.59 152.55 Q2142.59 147.851 2140.64 145.189 Q2138.72 142.504 2135.34 142.504 Q2131.96 142.504 2130.02 145.189 Q2128.1 147.851 2128.1 152.55 Q2128.1 157.249 2130.02 159.934 Q2131.96 162.596 2135.34 162.596 Q2138.72 162.596 2140.64 159.934 Q2142.59 157.249 2142.59 152.55 Z" fill="#000000" fill-rule="nonzero" fill-opacity="1" /><path clip-path="url(#clip940)" d="M2169.09 143.545 Q2168.38 143.129 2167.52 142.943 Q2166.69 142.735 2165.67 142.735 Q2162.06 142.735 2160.11 145.096 Q2158.19 147.434 2158.19 151.832 L2158.19 165.49 L2153.91 165.49 L2153.91 139.564 L2158.19 139.564 L2158.19 143.592 Q2159.53 141.23 2161.69 140.096 Q2163.84 138.939 2166.92 138.939 Q2167.36 138.939 2167.89 139.008 Q2168.42 139.055 2169.07 139.17 L2169.09 143.545 Z" fill="#000000" fill-rule="nonzero" fill-opacity="1" /><path clip-path="url(#clip940)" d="M2194.69 151.462 L2194.69 153.545 L2175.11 153.545 Q2175.39 157.943 2177.75 160.258 Q2180.13 162.55 2184.37 162.55 Q2186.82 162.55 2189.12 161.948 Q2191.43 161.346 2193.7 160.142 L2193.7 164.17 Q2191.41 165.142 2189 165.652 Q2186.59 166.161 2184.12 166.161 Q2177.91 166.161 2174.28 162.55 Q2170.67 158.939 2170.67 152.781 Q2170.67 146.416 2174.09 142.689 Q2177.54 138.939 2183.38 138.939 Q2188.61 138.939 2191.64 142.318 Q2194.69 145.675 2194.69 151.462 M2190.44 150.212 Q2190.39 146.717 2188.47 144.633 Q2186.57 142.55 2183.42 142.55 Q2179.86 142.55 2177.7 144.564 Q2175.57 146.578 2175.25 150.235 L2190.44 150.212 Z" fill="#000000" fill-rule="nonzero" fill-opacity="1" /><path clip-path="url(#clip940)" d="M2213.47 152.457 Q2208.31 152.457 2206.31 153.638 Q2204.32 154.818 2204.32 157.666 Q2204.32 159.934 2205.81 161.277 Q2207.31 162.596 2209.88 162.596 Q2213.42 162.596 2215.55 160.096 Q2217.7 157.573 2217.7 153.406 L2217.7 152.457 L2213.47 152.457 M2221.96 150.698 L2221.96 165.49 L2217.7 165.49 L2217.7 161.554 Q2216.25 163.915 2214.07 165.05 Q2211.89 166.161 2208.75 166.161 Q2204.76 166.161 2202.4 163.939 Q2200.06 161.693 2200.06 157.943 Q2200.06 153.568 2202.98 151.346 Q2205.92 149.124 2211.73 149.124 L2217.7 149.124 L2217.7 148.707 Q2217.7 145.767 2215.76 144.17 Q2213.84 142.55 2210.34 142.55 Q2208.12 142.55 2206.01 143.082 Q2203.91 143.615 2201.96 144.679 L2201.96 140.744 Q2204.3 139.842 2206.5 139.402 Q2208.7 138.939 2210.78 138.939 Q2216.41 138.939 2219.19 141.855 Q2221.96 144.772 2221.96 150.698 Z" fill="#000000" fill-rule="nonzero" fill-opacity="1" /><path clip-path="url(#clip940)" d="M2247.8 143.499 L2247.8 129.471 L2252.06 129.471 L2252.06 165.49 L2247.8 165.49 L2247.8 161.601 Q2246.45 163.915 2244.39 165.05 Q2242.36 166.161 2239.49 166.161 Q2234.79 166.161 2231.82 162.411 Q2228.88 158.661 2228.88 152.55 Q2228.88 146.439 2231.82 142.689 Q2234.79 138.939 2239.49 138.939 Q2242.36 138.939 2244.39 140.073 Q2246.45 141.184 2247.8 143.499 M2233.28 152.55 Q2233.28 157.249 2235.2 159.934 Q2237.15 162.596 2240.53 162.596 Q2243.91 162.596 2245.85 159.934 Q2247.8 157.249 2247.8 152.55 Q2247.8 147.851 2245.85 145.189 Q2243.91 142.504 2240.53 142.504 Q2237.15 142.504 2235.2 145.189 Q2233.28 147.851 2233.28 152.55 Z" fill="#000000" fill-rule="nonzero" fill-opacity="1" /><polyline clip-path="url(#clip940)" style="stroke:#e26f46; stroke-linecap:round; stroke-linejoin:round; stroke-width:4; stroke-opacity:1; fill:none" points="1529.93,200.05 1680.98,200.05 "/>
<path clip-path="url(#clip940)" d="M1706.16 182.77 L1712.45 182.77 L1727.78 211.681 L1727.78 182.77 L1732.31 182.77 L1732.31 217.33 L1726.02 217.33 L1710.69 188.418 L1710.69 217.33 L1706.16 217.33 L1706.16 182.77 Z" fill="#000000" fill-rule="nonzero" fill-opacity="1" /><path clip-path="url(#clip940)" d="M1751.48 194.39 Q1748.05 194.39 1746.06 197.075 Q1744.07 199.737 1744.07 204.39 Q1744.07 209.043 1746.04 211.728 Q1748.03 214.39 1751.48 214.39 Q1754.88 214.39 1756.87 211.705 Q1758.86 209.019 1758.86 204.39 Q1758.86 199.783 1756.87 197.098 Q1754.88 194.39 1751.48 194.39 M1751.48 190.779 Q1757.03 190.779 1760.21 194.39 Q1763.38 198.001 1763.38 204.39 Q1763.38 210.756 1760.21 214.39 Q1757.03 218.001 1751.48 218.001 Q1745.9 218.001 1742.73 214.39 Q1739.58 210.756 1739.58 204.39 Q1739.58 198.001 1742.73 194.39 Q1745.9 190.779 1751.48 190.779 Z" fill="#000000" fill-rule="nonzero" fill-opacity="1" /><path clip-path="url(#clip940)" d="M1785.46 195.385 Q1784.74 194.969 1783.89 194.783 Q1783.05 194.575 1782.03 194.575 Q1778.42 194.575 1776.48 196.936 Q1774.56 199.274 1774.56 203.672 L1774.56 217.33 L1770.28 217.33 L1770.28 191.404 L1774.56 191.404 L1774.56 195.432 Q1775.9 193.07 1778.05 191.936 Q1780.21 190.779 1783.28 190.779 Q1783.72 190.779 1784.26 190.848 Q1784.79 190.895 1785.44 191.01 L1785.46 195.385 Z" fill="#000000" fill-rule="nonzero" fill-opacity="1" /><path clip-path="url(#clip940)" d="M1809.28 196.381 Q1810.88 193.51 1813.1 192.145 Q1815.32 190.779 1818.33 190.779 Q1822.38 190.779 1824.58 193.626 Q1826.78 196.45 1826.78 201.681 L1826.78 217.33 L1822.5 217.33 L1822.5 201.82 Q1822.5 198.094 1821.18 196.288 Q1819.86 194.482 1817.15 194.482 Q1813.84 194.482 1811.92 196.682 Q1810 198.881 1810 202.677 L1810 217.33 L1805.72 217.33 L1805.72 201.82 Q1805.72 198.07 1804.4 196.288 Q1803.08 194.482 1800.32 194.482 Q1797.06 194.482 1795.14 196.705 Q1793.22 198.904 1793.22 202.677 L1793.22 217.33 L1788.93 217.33 L1788.93 191.404 L1793.22 191.404 L1793.22 195.432 Q1794.67 193.047 1796.71 191.913 Q1798.75 190.779 1801.55 190.779 Q1804.37 190.779 1806.34 192.214 Q1808.33 193.649 1809.28 196.381 Z" fill="#000000" fill-rule="nonzero" fill-opacity="1" /><path clip-path="url(#clip940)" d="M1847.06 204.297 Q1841.9 204.297 1839.9 205.478 Q1837.91 206.658 1837.91 209.506 Q1837.91 211.774 1839.4 213.117 Q1840.9 214.436 1843.47 214.436 Q1847.01 214.436 1849.14 211.936 Q1851.29 209.413 1851.29 205.246 L1851.29 204.297 L1847.06 204.297 M1855.55 202.538 L1855.55 217.33 L1851.29 217.33 L1851.29 213.394 Q1849.84 215.755 1847.66 216.89 Q1845.48 218.001 1842.34 218.001 Q1838.35 218.001 1835.99 215.779 Q1833.65 213.533 1833.65 209.783 Q1833.65 205.408 1836.57 203.186 Q1839.51 200.964 1845.32 200.964 L1851.29 200.964 L1851.29 200.547 Q1851.29 197.607 1849.35 196.01 Q1847.43 194.39 1843.93 194.39 Q1841.71 194.39 1839.6 194.922 Q1837.5 195.455 1835.55 196.519 L1835.55 192.584 Q1837.89 191.682 1840.09 191.242 Q1842.29 190.779 1844.37 190.779 Q1850 190.779 1852.78 193.695 Q1855.55 196.612 1855.55 202.538 Z" fill="#000000" fill-rule="nonzero" fill-opacity="1" /><path clip-path="url(#clip940)" d="M1864.33 181.311 L1868.59 181.311 L1868.59 217.33 L1864.33 217.33 L1864.33 181.311 Z" fill="#000000" fill-rule="nonzero" fill-opacity="1" /><path clip-path="url(#clip940)" d="M1897.43 186.612 L1897.43 199.598 L1903.31 199.598 Q1906.57 199.598 1908.35 197.908 Q1910.14 196.219 1910.14 193.094 Q1910.14 189.992 1908.35 188.302 Q1906.57 186.612 1903.31 186.612 L1897.43 186.612 M1892.75 182.77 L1903.31 182.77 Q1909.12 182.77 1912.08 185.408 Q1915.07 188.024 1915.07 193.094 Q1915.07 198.209 1912.08 200.825 Q1909.12 203.441 1903.31 203.441 L1897.43 203.441 L1897.43 217.33 L1892.75 217.33 L1892.75 182.77 Z" fill="#000000" fill-rule="nonzero" fill-opacity="1" /><path clip-path="url(#clip940)" d="M1926.02 186.612 L1926.02 213.487 L1931.66 213.487 Q1938.82 213.487 1942.13 210.246 Q1945.46 207.006 1945.46 200.015 Q1945.46 193.07 1942.13 189.853 Q1938.82 186.612 1931.66 186.612 L1926.02 186.612 M1921.34 182.77 L1930.95 182.77 Q1940.99 182.77 1945.69 186.959 Q1950.39 191.126 1950.39 200.015 Q1950.39 208.95 1945.67 213.14 Q1940.95 217.33 1930.95 217.33 L1921.34 217.33 L1921.34 182.77 Z" fill="#000000" fill-rule="nonzero" fill-opacity="1" /><path clip-path="url(#clip940)" d="M1957.84 182.77 L1977.7 182.77 L1977.7 186.705 L1962.52 186.705 L1962.52 196.89 L1976.22 196.89 L1976.22 200.825 L1962.52 200.825 L1962.52 217.33 L1957.84 217.33 L1957.84 182.77 Z" fill="#000000" fill-rule="nonzero" fill-opacity="1" /></svg>
