<?xml version="1.0" encoding="utf-8"?>
<svg xmlns="http://www.w3.org/2000/svg" xmlns:xlink="http://www.w3.org/1999/xlink" width="600" height="400" viewBox="0 0 2400 1600">
<defs>
  <clipPath id="clip930">
    <rect x="0" y="0" width="2400" height="1600"/>
  </clipPath>
</defs>
<path clip-path="url(#clip930)" d="M0 1600 L2400 1600 L2400 0 L0 0  Z" fill="#ffffff" fill-rule="evenodd" fill-opacity="1"/>
<defs>
  <clipPath id="clip931">
    <rect x="480" y="0" width="1681" height="1600"/>
  </clipPath>
</defs>
<path clip-path="url(#clip930)" d="M86.9921 1521.01 L2352.76 1521.01 L2352.76 47.2441 L86.9921 47.2441  Z" fill="#ffffff" fill-rule="evenodd" fill-opacity="1"/>
<defs>
  <clipPath id="clip932">
    <rect x="86" y="47" width="2267" height="1475"/>
  </clipPath>
</defs>
<polyline clip-path="url(#clip932)" style="stroke:#000000; stroke-linecap:round; stroke-linejoin:round; stroke-width:2; stroke-opacity:0.1; fill:none" points="405.977,1521.01 405.977,47.2441 "/>
<polyline clip-path="url(#clip932)" style="stroke:#000000; stroke-linecap:round; stroke-linejoin:round; stroke-width:2; stroke-opacity:0.1; fill:none" points="1013.36,1521.01 1013.36,47.2441 "/>
<polyline clip-path="url(#clip932)" style="stroke:#000000; stroke-linecap:round; stroke-linejoin:round; stroke-width:2; stroke-opacity:0.1; fill:none" points="1620.75,1521.01 1620.75,47.2441 "/>
<polyline clip-path="url(#clip932)" style="stroke:#000000; stroke-linecap:round; stroke-linejoin:round; stroke-width:2; stroke-opacity:0.1; fill:none" points="2228.13,1521.01 2228.13,47.2441 "/>
<polyline clip-path="url(#clip930)" style="stroke:#000000; stroke-linecap:round; stroke-linejoin:round; stroke-width:4; stroke-opacity:1; fill:none" points="86.9921,1521.01 2352.76,1521.01 "/>
<polyline clip-path="url(#clip930)" style="stroke:#000000; stroke-linecap:round; stroke-linejoin:round; stroke-width:4; stroke-opacity:1; fill:none" points="405.977,1521.01 405.977,1502.11 "/>
<polyline clip-path="url(#clip930)" style="stroke:#000000; stroke-linecap:round; stroke-linejoin:round; stroke-width:4; stroke-opacity:1; fill:none" points="1013.36,1521.01 1013.36,1502.11 "/>
<polyline clip-path="url(#clip930)" style="stroke:#000000; stroke-linecap:round; stroke-linejoin:round; stroke-width:4; stroke-opacity:1; fill:none" points="1620.75,1521.01 1620.75,1502.11 "/>
<polyline clip-path="url(#clip930)" style="stroke:#000000; stroke-linecap:round; stroke-linejoin:round; stroke-width:4; stroke-opacity:1; fill:none" points="2228.13,1521.01 2228.13,1502.11 "/>
<path clip-path="url(#clip930)" d="M353.002 1566.58 L382.678 1566.58 L382.678 1570.51 L353.002 1570.51 L353.002 1566.58 Z" fill="#000000" fill-rule="nonzero" fill-opacity="1" /><path clip-path="url(#clip930)" d="M402.771 1551.93 Q399.16 1551.93 397.331 1555.49 Q395.525 1559.03 395.525 1566.16 Q395.525 1573.27 397.331 1576.83 Q399.16 1580.38 402.771 1580.38 Q406.405 1580.38 408.21 1576.83 Q410.039 1573.27 410.039 1566.16 Q410.039 1559.03 408.21 1555.49 Q406.405 1551.93 402.771 1551.93 M402.771 1548.22 Q408.581 1548.22 411.636 1552.83 Q414.715 1557.41 414.715 1566.16 Q414.715 1574.89 411.636 1579.5 Q408.581 1584.08 402.771 1584.08 Q396.961 1584.08 393.882 1579.5 Q390.826 1574.89 390.826 1566.16 Q390.826 1557.41 393.882 1552.83 Q396.961 1548.22 402.771 1548.22 Z" fill="#000000" fill-rule="nonzero" fill-opacity="1" /><path clip-path="url(#clip930)" d="M422.933 1577.53 L427.817 1577.53 L427.817 1583.41 L422.933 1583.41 L422.933 1577.53 Z" fill="#000000" fill-rule="nonzero" fill-opacity="1" /><path clip-path="url(#clip930)" d="M438.048 1548.85 L456.405 1548.85 L456.405 1552.78 L442.331 1552.78 L442.331 1561.26 Q443.349 1560.91 444.368 1560.75 Q445.386 1560.56 446.405 1560.56 Q452.192 1560.56 455.571 1563.73 Q458.951 1566.9 458.951 1572.32 Q458.951 1577.9 455.479 1581 Q452.007 1584.08 445.687 1584.08 Q443.511 1584.08 441.243 1583.71 Q438.997 1583.34 436.59 1582.6 L436.59 1577.9 Q438.673 1579.03 440.895 1579.59 Q443.118 1580.14 445.595 1580.14 Q449.599 1580.14 451.937 1578.04 Q454.275 1575.93 454.275 1572.32 Q454.275 1568.71 451.937 1566.6 Q449.599 1564.5 445.595 1564.5 Q443.72 1564.5 441.845 1564.91 Q439.993 1565.33 438.048 1566.21 L438.048 1548.85 Z" fill="#000000" fill-rule="nonzero" fill-opacity="1" /><path clip-path="url(#clip930)" d="M990.747 1551.93 Q987.136 1551.93 985.307 1555.49 Q983.502 1559.03 983.502 1566.16 Q983.502 1573.27 985.307 1576.83 Q987.136 1580.38 990.747 1580.38 Q994.381 1580.38 996.187 1576.83 Q998.016 1573.27 998.016 1566.16 Q998.016 1559.03 996.187 1555.49 Q994.381 1551.93 990.747 1551.93 M990.747 1548.22 Q996.557 1548.22 999.613 1552.83 Q1002.69 1557.41 1002.69 1566.16 Q1002.69 1574.89 999.613 1579.5 Q996.557 1584.08 990.747 1584.08 Q984.937 1584.08 981.858 1579.5 Q978.803 1574.89 978.803 1566.16 Q978.803 1557.41 981.858 1552.83 Q984.937 1548.22 990.747 1548.22 Z" fill="#000000" fill-rule="nonzero" fill-opacity="1" /><path clip-path="url(#clip930)" d="M1010.91 1577.53 L1015.79 1577.53 L1015.79 1583.41 L1010.91 1583.41 L1010.91 1577.53 Z" fill="#000000" fill-rule="nonzero" fill-opacity="1" /><path clip-path="url(#clip930)" d="M1035.98 1551.93 Q1032.37 1551.93 1030.54 1555.49 Q1028.73 1559.03 1028.73 1566.16 Q1028.73 1573.27 1030.54 1576.83 Q1032.37 1580.38 1035.98 1580.38 Q1039.61 1580.38 1041.42 1576.83 Q1043.25 1573.27 1043.25 1566.16 Q1043.25 1559.03 1041.42 1555.49 Q1039.61 1551.93 1035.98 1551.93 M1035.98 1548.22 Q1041.79 1548.22 1044.84 1552.83 Q1047.92 1557.41 1047.92 1566.16 Q1047.92 1574.89 1044.84 1579.5 Q1041.79 1584.08 1035.98 1584.08 Q1030.17 1584.08 1027.09 1579.5 Q1024.03 1574.89 1024.03 1566.16 Q1024.03 1557.41 1027.09 1552.83 Q1030.17 1548.22 1035.98 1548.22 Z" fill="#000000" fill-rule="nonzero" fill-opacity="1" /><path clip-path="url(#clip930)" d="M1598.63 1551.93 Q1595.02 1551.93 1593.19 1555.49 Q1591.39 1559.03 1591.39 1566.16 Q1591.39 1573.27 1593.19 1576.83 Q1595.02 1580.38 1598.63 1580.38 Q1602.27 1580.38 1604.07 1576.83 Q1605.9 1573.27 1605.9 1566.16 Q1605.9 1559.03 1604.07 1555.49 Q1602.27 1551.93 1598.63 1551.93 M1598.63 1548.22 Q1604.44 1548.22 1607.5 1552.83 Q1610.58 1557.41 1610.58 1566.16 Q1610.58 1574.89 1607.5 1579.5 Q1604.44 1584.08 1598.63 1584.08 Q1592.82 1584.08 1589.74 1579.5 Q1586.69 1574.89 1586.69 1566.16 Q1586.69 1557.41 1589.74 1552.83 Q1592.82 1548.22 1598.63 1548.22 Z" fill="#000000" fill-rule="nonzero" fill-opacity="1" /><path clip-path="url(#clip930)" d="M1618.79 1577.53 L1623.68 1577.53 L1623.68 1583.41 L1618.79 1583.41 L1618.79 1577.53 Z" fill="#000000" fill-rule="nonzero" fill-opacity="1" /><path clip-path="url(#clip930)" d="M1633.91 1548.85 L1652.26 1548.85 L1652.26 1552.78 L1638.19 1552.78 L1638.19 1561.26 Q1639.21 1560.91 1640.23 1560.75 Q1641.25 1560.56 1642.26 1560.56 Q1648.05 1560.56 1651.43 1563.73 Q1654.81 1566.9 1654.81 1572.32 Q1654.81 1577.9 1651.34 1581 Q1647.87 1584.08 1641.55 1584.08 Q1639.37 1584.08 1637.1 1583.71 Q1634.86 1583.34 1632.45 1582.6 L1632.45 1577.9 Q1634.53 1579.03 1636.76 1579.59 Q1638.98 1580.14 1641.45 1580.14 Q1645.46 1580.14 1647.8 1578.04 Q1650.14 1575.93 1650.14 1572.32 Q1650.14 1568.71 1647.8 1566.6 Q1645.46 1564.5 1641.45 1564.5 Q1639.58 1564.5 1637.7 1564.91 Q1635.85 1565.33 1633.91 1566.21 L1633.91 1548.85 Z" fill="#000000" fill-rule="nonzero" fill-opacity="1" /><path clip-path="url(#clip930)" d="M2195.29 1579.47 L2202.93 1579.47 L2202.93 1553.11 L2194.62 1554.77 L2194.62 1550.51 L2202.88 1548.85 L2207.56 1548.85 L2207.56 1579.47 L2215.2 1579.47 L2215.2 1583.41 L2195.29 1583.41 L2195.29 1579.47 Z" fill="#000000" fill-rule="nonzero" fill-opacity="1" /><path clip-path="url(#clip930)" d="M2224.64 1577.53 L2229.52 1577.53 L2229.52 1583.41 L2224.64 1583.41 L2224.64 1577.53 Z" fill="#000000" fill-rule="nonzero" fill-opacity="1" /><path clip-path="url(#clip930)" d="M2249.71 1551.93 Q2246.1 1551.93 2244.27 1555.49 Q2242.46 1559.03 2242.46 1566.16 Q2242.46 1573.27 2244.27 1576.83 Q2246.1 1580.38 2249.71 1580.38 Q2253.34 1580.38 2255.15 1576.83 Q2256.98 1573.27 2256.98 1566.16 Q2256.98 1559.03 2255.15 1555.49 Q2253.34 1551.93 2249.71 1551.93 M2249.71 1548.22 Q2255.52 1548.22 2258.57 1552.83 Q2261.65 1557.41 2261.65 1566.16 Q2261.65 1574.89 2258.57 1579.5 Q2255.52 1584.08 2249.71 1584.08 Q2243.9 1584.08 2240.82 1579.5 Q2237.76 1574.89 2237.76 1566.16 Q2237.76 1557.41 2240.82 1552.83 Q2243.9 1548.22 2249.71 1548.22 Z" fill="#000000" fill-rule="nonzero" fill-opacity="1" /><polyline clip-path="url(#clip932)" style="stroke:#000000; stroke-linecap:round; stroke-linejoin:round; stroke-width:2; stroke-opacity:0.1; fill:none" points="86.9921,1521.01 2352.76,1521.01 "/>
<polyline clip-path="url(#clip932)" style="stroke:#000000; stroke-linecap:round; stroke-linejoin:round; stroke-width:2; stroke-opacity:0.1; fill:none" points="86.9921,1171.77 2352.76,1171.77 "/>
<polyline clip-path="url(#clip932)" style="stroke:#000000; stroke-linecap:round; stroke-linejoin:round; stroke-width:2; stroke-opacity:0.1; fill:none" points="86.9921,822.542 2352.76,822.542 "/>
<polyline clip-path="url(#clip932)" style="stroke:#000000; stroke-linecap:round; stroke-linejoin:round; stroke-width:2; stroke-opacity:0.1; fill:none" points="86.9921,473.309 2352.76,473.309 "/>
<polyline clip-path="url(#clip932)" style="stroke:#000000; stroke-linecap:round; stroke-linejoin:round; stroke-width:2; stroke-opacity:0.1; fill:none" points="86.9921,124.075 2352.76,124.075 "/>
<polyline clip-path="url(#clip930)" style="stroke:#000000; stroke-linecap:round; stroke-linejoin:round; stroke-width:4; stroke-opacity:1; fill:none" points="86.9921,1521.01 86.9921,47.2441 "/>
<polyline clip-path="url(#clip930)" style="stroke:#000000; stroke-linecap:round; stroke-linejoin:round; stroke-width:4; stroke-opacity:1; fill:none" points="86.9921,1521.01 105.89,1521.01 "/>
<polyline clip-path="url(#clip930)" style="stroke:#000000; stroke-linecap:round; stroke-linejoin:round; stroke-width:4; stroke-opacity:1; fill:none" points="86.9921,1171.77 105.89,1171.77 "/>
<polyline clip-path="url(#clip930)" style="stroke:#000000; stroke-linecap:round; stroke-linejoin:round; stroke-width:4; stroke-opacity:1; fill:none" points="86.9921,822.542 105.89,822.542 "/>
<polyline clip-path="url(#clip930)" style="stroke:#000000; stroke-linecap:round; stroke-linejoin:round; stroke-width:4; stroke-opacity:1; fill:none" points="86.9921,473.309 105.89,473.309 "/>
<polyline clip-path="url(#clip930)" style="stroke:#000000; stroke-linecap:round; stroke-linejoin:round; stroke-width:4; stroke-opacity:1; fill:none" points="86.9921,124.075 105.89,124.075 "/>
<path clip-path="url(#clip930)" d="M10.8708 1521.01 Q10.8708 1524.62 14.4356 1526.45 Q17.9773 1528.25 25.1068 1528.25 Q32.2133 1528.25 35.7781 1526.45 Q39.3197 1524.62 39.3197 1521.01 Q39.3197 1517.37 35.7781 1515.57 Q32.2133 1513.74 25.1068 1513.74 Q17.9773 1513.74 14.4356 1515.57 Q10.8708 1517.37 10.8708 1521.01 M7.16713 1521.01 Q7.16713 1515.2 11.7736 1512.14 Q16.3569 1509.06 25.1068 1509.06 Q33.8337 1509.06 38.4401 1512.14 Q43.0234 1515.2 43.0234 1521.01 Q43.0234 1526.82 38.4401 1529.9 Q33.8337 1532.95 25.1068 1532.95 Q16.3569 1532.95 11.7736 1529.9 Q7.16713 1526.82 7.16713 1521.01 Z" fill="#000000" fill-rule="nonzero" fill-opacity="1" /><path clip-path="url(#clip930)" d="M38.417 1208.08 L38.417 1191.76 L42.3521 1191.76 L42.3521 1213.71 L38.417 1213.71 Q35.6623 1211.05 31.0327 1206.46 Q26.38 1201.86 25.0374 1200.68 Q22.5143 1198.43 20.7782 1197.55 Q19.0189 1196.65 17.3291 1196.65 Q14.5745 1196.65 12.8384 1198.59 Q11.1023 1200.51 11.1023 1203.61 Q11.1023 1205.81 11.8662 1208.27 Q12.6301 1210.7 14.181 1213.48 L9.45878 1213.48 Q8.32453 1210.65 7.74583 1208.2 Q7.16713 1205.74 7.16713 1203.71 Q7.16713 1198.34 9.8523 1195.14 Q12.5375 1191.95 17.0282 1191.95 Q19.1578 1191.95 21.0791 1192.76 Q22.9772 1193.55 25.5698 1195.65 Q26.2411 1196.23 29.4587 1199.33 Q32.6531 1202.43 38.417 1208.08 Z" fill="#000000" fill-rule="nonzero" fill-opacity="1" /><path clip-path="url(#clip930)" d="M7.79213 1181.9 L7.79213 1163.55 L11.7273 1163.55 L11.7273 1177.62 L20.1995 1177.62 Q19.8522 1176.6 19.6902 1175.58 Q19.505 1174.56 19.505 1173.55 Q19.505 1167.76 22.6763 1164.38 Q25.8476 1161 31.2642 1161 Q36.8429 1161 39.9447 1164.47 Q43.0234 1167.94 43.0234 1174.26 Q43.0234 1176.44 42.6531 1178.71 Q42.2827 1180.95 41.5419 1183.36 L36.8429 1183.36 Q37.9771 1181.28 38.5327 1179.05 Q39.0883 1176.83 39.0883 1174.36 Q39.0883 1170.35 36.9818 1168.01 Q34.8753 1165.68 31.2642 1165.68 Q27.6531 1165.68 25.5467 1168.01 Q23.4402 1170.35 23.4402 1174.36 Q23.4402 1176.23 23.8569 1178.11 Q24.2735 1179.96 25.1531 1181.9 L7.79213 1181.9 Z" fill="#000000" fill-rule="nonzero" fill-opacity="1" /><path clip-path="url(#clip930)" d="M10.8708 1141.79 Q10.8708 1145.4 14.4356 1147.23 Q17.9773 1149.03 25.1068 1149.03 Q32.2133 1149.03 35.7781 1147.23 Q39.3197 1145.4 39.3197 1141.79 Q39.3197 1138.15 35.7781 1136.35 Q32.2133 1134.52 25.1068 1134.52 Q17.9773 1134.52 14.4356 1136.35 Q10.8708 1138.15 10.8708 1141.79 M7.16713 1141.79 Q7.16713 1135.98 11.7736 1132.92 Q16.3569 1129.84 25.1068 1129.84 Q33.8337 1129.84 38.4401 1132.92 Q43.0234 1135.98 43.0234 1141.79 Q43.0234 1147.6 38.4401 1150.68 Q33.8337 1153.73 25.1068 1153.73 Q16.3569 1153.73 11.7736 1150.68 Q7.16713 1147.6 7.16713 1141.79 Z" fill="#000000" fill-rule="nonzero" fill-opacity="1" /><path clip-path="url(#clip930)" d="M7.79213 862.923 L7.79213 844.567 L11.7273 844.567 L11.7273 858.641 L20.1995 858.641 Q19.8522 857.622 19.6902 856.604 Q19.505 855.585 19.505 854.567 Q19.505 848.78 22.6763 845.4 Q25.8476 842.021 31.2642 842.021 Q36.8429 842.021 39.9447 845.493 Q43.0234 848.965 43.0234 855.285 Q43.0234 857.46 42.6531 859.729 Q42.2827 861.974 41.5419 864.382 L36.8429 864.382 Q37.9771 862.298 38.5327 860.076 Q39.0883 857.854 39.0883 855.377 Q39.0883 851.372 36.9818 849.035 Q34.8753 846.697 31.2642 846.697 Q27.6531 846.697 25.5467 849.035 Q23.4402 851.372 23.4402 855.377 Q23.4402 857.252 23.8569 859.127 Q24.2735 860.979 25.1531 862.923 L7.79213 862.923 Z" fill="#000000" fill-rule="nonzero" fill-opacity="1" /><path clip-path="url(#clip930)" d="M10.8708 822.808 Q10.8708 826.419 14.4356 828.248 Q17.9773 830.053 25.1068 830.053 Q32.2133 830.053 35.7781 828.248 Q39.3197 826.419 39.3197 822.808 Q39.3197 819.174 35.7781 817.368 Q32.2133 815.539 25.1068 815.539 Q17.9773 815.539 14.4356 817.368 Q10.8708 819.174 10.8708 822.808 M7.16713 822.808 Q7.16713 816.998 11.7736 813.942 Q16.3569 810.863 25.1068 810.863 Q33.8337 810.863 38.4401 813.942 Q43.0234 816.998 43.0234 822.808 Q43.0234 828.618 38.4401 831.697 Q33.8337 834.752 25.1068 834.752 Q16.3569 834.752 11.7736 831.697 Q7.16713 828.618 7.16713 822.808 Z" fill="#000000" fill-rule="nonzero" fill-opacity="1" /><path clip-path="url(#clip930)" d="M10.8708 792.646 Q10.8708 796.257 14.4356 798.086 Q17.9773 799.891 25.1068 799.891 Q32.2133 799.891 35.7781 798.086 Q39.3197 796.257 39.3197 792.646 Q39.3197 789.012 35.7781 787.206 Q32.2133 785.377 25.1068 785.377 Q17.9773 785.377 14.4356 787.206 Q10.8708 789.012 10.8708 792.646 M7.16713 792.646 Q7.16713 786.836 11.7736 783.78 Q16.3569 780.702 25.1068 780.702 Q33.8337 780.702 38.4401 783.78 Q43.0234 786.836 43.0234 792.646 Q43.0234 798.456 38.4401 801.535 Q33.8337 804.59 25.1068 804.59 Q16.3569 804.59 11.7736 801.535 Q7.16713 798.456 7.16713 792.646 Z" fill="#000000" fill-rule="nonzero" fill-opacity="1" /><path clip-path="url(#clip930)" d="M7.79213 515.033 L7.79213 492.811 L9.78286 492.811 L42.3521 505.357 L42.3521 510.241 L11.7273 498.436 L11.7273 515.033 L7.79213 515.033 Z" fill="#000000" fill-rule="nonzero" fill-opacity="1" /><path clip-path="url(#clip930)" d="M7.79213 483.644 L7.79213 465.288 L11.7273 465.288 L11.7273 479.362 L20.1995 479.362 Q19.8522 478.343 19.6902 477.325 Q19.505 476.306 19.505 475.288 Q19.505 469.501 22.6763 466.121 Q25.8476 462.741 31.2642 462.741 Q36.8429 462.741 39.9447 466.214 Q43.0234 469.686 43.0234 476.005 Q43.0234 478.181 42.6531 480.45 Q42.2827 482.695 41.5419 485.102 L36.8429 485.102 Q37.9771 483.019 38.5327 480.797 Q39.0883 478.575 39.0883 476.098 Q39.0883 472.093 36.9818 469.755 Q34.8753 467.417 31.2642 467.417 Q27.6531 467.417 25.5467 469.755 Q23.4402 472.093 23.4402 476.098 Q23.4402 477.973 23.8569 479.848 Q24.2735 481.7 25.1531 483.644 L7.79213 483.644 Z" fill="#000000" fill-rule="nonzero" fill-opacity="1" /><path clip-path="url(#clip930)" d="M10.8708 443.529 Q10.8708 447.14 14.4356 448.968 Q17.9773 450.774 25.1068 450.774 Q32.2133 450.774 35.7781 448.968 Q39.3197 447.14 39.3197 443.529 Q39.3197 439.894 35.7781 438.089 Q32.2133 436.26 25.1068 436.26 Q17.9773 436.26 14.4356 438.089 Q10.8708 439.894 10.8708 443.529 M7.16713 443.529 Q7.16713 437.718 11.7736 434.663 Q16.3569 431.584 25.1068 431.584 Q33.8337 431.584 38.4401 434.663 Q43.0234 437.718 43.0234 443.529 Q43.0234 449.339 38.4401 452.417 Q33.8337 455.473 25.1068 455.473 Q16.3569 455.473 11.7736 452.417 Q7.16713 449.339 7.16713 443.529 Z" fill="#000000" fill-rule="nonzero" fill-opacity="1" /><path clip-path="url(#clip930)" d="M38.417 179.55 L38.417 171.911 L12.0514 171.911 L13.718 180.221 L9.45878 180.221 L7.79213 171.957 L7.79213 167.281 L38.417 167.281 L38.417 159.642 L42.3521 159.642 L42.3521 179.55 L38.417 179.55 Z" fill="#000000" fill-rule="nonzero" fill-opacity="1" /><path clip-path="url(#clip930)" d="M10.8708 140.198 Q10.8708 143.809 14.4356 145.638 Q17.9773 147.443 25.1068 147.443 Q32.2133 147.443 35.7781 145.638 Q39.3197 143.809 39.3197 140.198 Q39.3197 136.564 35.7781 134.758 Q32.2133 132.93 25.1068 132.93 Q17.9773 132.93 14.4356 134.758 Q10.8708 136.564 10.8708 140.198 M7.16713 140.198 Q7.16713 134.388 11.7736 131.332 Q16.3569 128.254 25.1068 128.254 Q33.8337 128.254 38.4401 131.332 Q43.0234 134.388 43.0234 140.198 Q43.0234 146.008 38.4401 149.087 Q33.8337 152.142 25.1068 152.142 Q16.3569 152.142 11.7736 149.087 Q7.16713 146.008 7.16713 140.198 Z" fill="#000000" fill-rule="nonzero" fill-opacity="1" /><path clip-path="url(#clip930)" d="M10.8708 110.036 Q10.8708 113.647 14.4356 115.476 Q17.9773 117.281 25.1068 117.281 Q32.2133 117.281 35.7781 115.476 Q39.3197 113.647 39.3197 110.036 Q39.3197 106.402 35.7781 104.596 Q32.2133 102.768 25.1068 102.768 Q17.9773 102.768 14.4356 104.596 Q10.8708 106.402 10.8708 110.036 M7.16713 110.036 Q7.16713 104.226 11.7736 101.17 Q16.3569 98.0917 25.1068 98.0917 Q33.8337 98.0917 38.4401 101.17 Q43.0234 104.226 43.0234 110.036 Q43.0234 115.846 38.4401 118.925 Q33.8337 121.98 25.1068 121.98 Q16.3569 121.98 11.7736 118.925 Q7.16713 115.846 7.16713 110.036 Z" fill="#000000" fill-rule="nonzero" fill-opacity="1" /><path clip-path="url(#clip930)" d="M10.8708 79.8742 Q10.8708 83.4853 14.4356 85.314 Q17.9773 87.1196 25.1068 87.1196 Q32.2133 87.1196 35.7781 85.314 Q39.3197 83.4853 39.3197 79.8742 Q39.3197 76.24 35.7781 74.4344 Q32.2133 72.6057 25.1068 72.6057 Q17.9773 72.6057 14.4356 74.4344 Q10.8708 76.24 10.8708 79.8742 M7.16713 79.8742 Q7.16713 74.0641 11.7736 71.0085 Q16.3569 67.9298 25.1068 67.9298 Q33.8337 67.9298 38.4401 71.0085 Q43.0234 74.0641 43.0234 79.8742 Q43.0234 85.6844 38.4401 88.7631 Q33.8337 91.8186 25.1068 91.8186 Q16.3569 91.8186 11.7736 88.7631 Q7.16713 85.6844 7.16713 79.8742 Z" fill="#000000" fill-rule="nonzero" fill-opacity="1" /><path clip-path="url(#clip932)" d="M211.613 1519.61 L211.613 1521.01 L235.909 1521.01 L235.909 1519.61 L211.613 1519.61 L211.613 1519.61  Z" fill="#009af9" fill-rule="evenodd" fill-opacity="1"/>
<polyline clip-path="url(#clip932)" style="stroke:#000000; stroke-linecap:round; stroke-linejoin:round; stroke-width:4; stroke-opacity:1; fill:none" points="211.613,1519.61 211.613,1521.01 235.909,1521.01 235.909,1519.61 211.613,1519.61 "/>
<path clip-path="url(#clip932)" d="M235.909 1518.21 L235.909 1521.01 L260.204 1521.01 L260.204 1518.21 L235.909 1518.21 L235.909 1518.21  Z" fill="#009af9" fill-rule="evenodd" fill-opacity="1"/>
<polyline clip-path="url(#clip932)" style="stroke:#000000; stroke-linecap:round; stroke-linejoin:round; stroke-width:4; stroke-opacity:1; fill:none" points="235.909,1518.21 235.909,1521.01 260.204,1521.01 260.204,1518.21 235.909,1518.21 "/>
<path clip-path="url(#clip932)" d="M260.204 1519.61 L260.204 1521.01 L284.499 1521.01 L284.499 1519.61 L260.204 1519.61 L260.204 1519.61  Z" fill="#009af9" fill-rule="evenodd" fill-opacity="1"/>
<polyline clip-path="url(#clip932)" style="stroke:#000000; stroke-linecap:round; stroke-linejoin:round; stroke-width:4; stroke-opacity:1; fill:none" points="260.204,1519.61 260.204,1521.01 284.499,1521.01 284.499,1519.61 260.204,1519.61 "/>
<path clip-path="url(#clip932)" d="M284.499 1519.61 L284.499 1521.01 L308.795 1521.01 L308.795 1519.61 L284.499 1519.61 L284.499 1519.61  Z" fill="#009af9" fill-rule="evenodd" fill-opacity="1"/>
<polyline clip-path="url(#clip932)" style="stroke:#000000; stroke-linecap:round; stroke-linejoin:round; stroke-width:4; stroke-opacity:1; fill:none" points="284.499,1519.61 284.499,1521.01 308.795,1521.01 308.795,1519.61 284.499,1519.61 "/>
<path clip-path="url(#clip932)" d="M308.795 1518.21 L308.795 1521.01 L333.09 1521.01 L333.09 1518.21 L308.795 1518.21 L308.795 1518.21  Z" fill="#009af9" fill-rule="evenodd" fill-opacity="1"/>
<polyline clip-path="url(#clip932)" style="stroke:#000000; stroke-linecap:round; stroke-linejoin:round; stroke-width:4; stroke-opacity:1; fill:none" points="308.795,1518.21 308.795,1521.01 333.09,1521.01 333.09,1518.21 308.795,1518.21 "/>
<path clip-path="url(#clip932)" d="M333.09 1521.01 L333.09 1521.01 L357.386 1521.01 L357.386 1521.01 L333.09 1521.01 L333.09 1521.01  Z" fill="#009af9" fill-rule="evenodd" fill-opacity="1"/>
<polyline clip-path="url(#clip932)" style="stroke:#000000; stroke-linecap:round; stroke-linejoin:round; stroke-width:4; stroke-opacity:1; fill:none" points="333.09,1521.01 333.09,1521.01 357.386,1521.01 333.09,1521.01 "/>
<path clip-path="url(#clip932)" d="M357.386 1516.82 L357.386 1521.01 L381.681 1521.01 L381.681 1516.82 L357.386 1516.82 L357.386 1516.82  Z" fill="#009af9" fill-rule="evenodd" fill-opacity="1"/>
<polyline clip-path="url(#clip932)" style="stroke:#000000; stroke-linecap:round; stroke-linejoin:round; stroke-width:4; stroke-opacity:1; fill:none" points="357.386,1516.82 357.386,1521.01 381.681,1521.01 381.681,1516.82 357.386,1516.82 "/>
<path clip-path="url(#clip932)" d="M381.681 1518.21 L381.681 1521.01 L405.977 1521.01 L405.977 1518.21 L381.681 1518.21 L381.681 1518.21  Z" fill="#009af9" fill-rule="evenodd" fill-opacity="1"/>
<polyline clip-path="url(#clip932)" style="stroke:#000000; stroke-linecap:round; stroke-linejoin:round; stroke-width:4; stroke-opacity:1; fill:none" points="381.681,1518.21 381.681,1521.01 405.977,1521.01 405.977,1518.21 381.681,1518.21 "/>
<path clip-path="url(#clip932)" d="M405.977 1516.82 L405.977 1521.01 L430.272 1521.01 L430.272 1516.82 L405.977 1516.82 L405.977 1516.82  Z" fill="#009af9" fill-rule="evenodd" fill-opacity="1"/>
<polyline clip-path="url(#clip932)" style="stroke:#000000; stroke-linecap:round; stroke-linejoin:round; stroke-width:4; stroke-opacity:1; fill:none" points="405.977,1516.82 405.977,1521.01 430.272,1521.01 430.272,1516.82 405.977,1516.82 "/>
<path clip-path="url(#clip932)" d="M430.272 1516.82 L430.272 1521.01 L454.568 1521.01 L454.568 1516.82 L430.272 1516.82 L430.272 1516.82  Z" fill="#009af9" fill-rule="evenodd" fill-opacity="1"/>
<polyline clip-path="url(#clip932)" style="stroke:#000000; stroke-linecap:round; stroke-linejoin:round; stroke-width:4; stroke-opacity:1; fill:none" points="430.272,1516.82 430.272,1521.01 454.568,1521.01 454.568,1516.82 430.272,1516.82 "/>
<path clip-path="url(#clip932)" d="M454.568 1505.64 L454.568 1521.01 L478.863 1521.01 L478.863 1505.64 L454.568 1505.64 L454.568 1505.64  Z" fill="#009af9" fill-rule="evenodd" fill-opacity="1"/>
<polyline clip-path="url(#clip932)" style="stroke:#000000; stroke-linecap:round; stroke-linejoin:round; stroke-width:4; stroke-opacity:1; fill:none" points="454.568,1505.64 454.568,1521.01 478.863,1521.01 478.863,1505.64 454.568,1505.64 "/>
<path clip-path="url(#clip932)" d="M478.863 1498.66 L478.863 1521.01 L503.158 1521.01 L503.158 1498.66 L478.863 1498.66 L478.863 1498.66  Z" fill="#009af9" fill-rule="evenodd" fill-opacity="1"/>
<polyline clip-path="url(#clip932)" style="stroke:#000000; stroke-linecap:round; stroke-linejoin:round; stroke-width:4; stroke-opacity:1; fill:none" points="478.863,1498.66 478.863,1521.01 503.158,1521.01 503.158,1498.66 478.863,1498.66 "/>
<path clip-path="url(#clip932)" d="M503.158 1501.45 L503.158 1521.01 L527.454 1521.01 L527.454 1501.45 L503.158 1501.45 L503.158 1501.45  Z" fill="#009af9" fill-rule="evenodd" fill-opacity="1"/>
<polyline clip-path="url(#clip932)" style="stroke:#000000; stroke-linecap:round; stroke-linejoin:round; stroke-width:4; stroke-opacity:1; fill:none" points="503.158,1501.45 503.158,1521.01 527.454,1521.01 527.454,1501.45 503.158,1501.45 "/>
<path clip-path="url(#clip932)" d="M527.454 1488.88 L527.454 1521.01 L551.749 1521.01 L551.749 1488.88 L527.454 1488.88 L527.454 1488.88  Z" fill="#009af9" fill-rule="evenodd" fill-opacity="1"/>
<polyline clip-path="url(#clip932)" style="stroke:#000000; stroke-linecap:round; stroke-linejoin:round; stroke-width:4; stroke-opacity:1; fill:none" points="527.454,1488.88 527.454,1521.01 551.749,1521.01 551.749,1488.88 527.454,1488.88 "/>
<path clip-path="url(#clip932)" d="M551.749 1481.89 L551.749 1521.01 L576.045 1521.01 L576.045 1481.89 L551.749 1481.89 L551.749 1481.89  Z" fill="#009af9" fill-rule="evenodd" fill-opacity="1"/>
<polyline clip-path="url(#clip932)" style="stroke:#000000; stroke-linecap:round; stroke-linejoin:round; stroke-width:4; stroke-opacity:1; fill:none" points="551.749,1481.89 551.749,1521.01 576.045,1521.01 576.045,1481.89 551.749,1481.89 "/>
<path clip-path="url(#clip932)" d="M576.045 1465.13 L576.045 1521.01 L600.34 1521.01 L600.34 1465.13 L576.045 1465.13 L576.045 1465.13  Z" fill="#009af9" fill-rule="evenodd" fill-opacity="1"/>
<polyline clip-path="url(#clip932)" style="stroke:#000000; stroke-linecap:round; stroke-linejoin:round; stroke-width:4; stroke-opacity:1; fill:none" points="576.045,1465.13 576.045,1521.01 600.34,1521.01 600.34,1465.13 576.045,1465.13 "/>
<path clip-path="url(#clip932)" d="M600.34 1460.94 L600.34 1521.01 L624.636 1521.01 L624.636 1460.94 L600.34 1460.94 L600.34 1460.94  Z" fill="#009af9" fill-rule="evenodd" fill-opacity="1"/>
<polyline clip-path="url(#clip932)" style="stroke:#000000; stroke-linecap:round; stroke-linejoin:round; stroke-width:4; stroke-opacity:1; fill:none" points="600.34,1460.94 600.34,1521.01 624.636,1521.01 624.636,1460.94 600.34,1460.94 "/>
<path clip-path="url(#clip932)" d="M624.636 1400.87 L624.636 1521.01 L648.931 1521.01 L648.931 1400.87 L624.636 1400.87 L624.636 1400.87  Z" fill="#009af9" fill-rule="evenodd" fill-opacity="1"/>
<polyline clip-path="url(#clip932)" style="stroke:#000000; stroke-linecap:round; stroke-linejoin:round; stroke-width:4; stroke-opacity:1; fill:none" points="624.636,1400.87 624.636,1521.01 648.931,1521.01 648.931,1400.87 624.636,1400.87 "/>
<path clip-path="url(#clip932)" d="M648.931 1342.2 L648.931 1521.01 L673.227 1521.01 L673.227 1342.2 L648.931 1342.2 L648.931 1342.2  Z" fill="#009af9" fill-rule="evenodd" fill-opacity="1"/>
<polyline clip-path="url(#clip932)" style="stroke:#000000; stroke-linecap:round; stroke-linejoin:round; stroke-width:4; stroke-opacity:1; fill:none" points="648.931,1342.2 648.931,1521.01 673.227,1521.01 673.227,1342.2 648.931,1342.2 "/>
<path clip-path="url(#clip932)" d="M673.227 1262.58 L673.227 1521.01 L697.522 1521.01 L697.522 1262.58 L673.227 1262.58 L673.227 1262.58  Z" fill="#009af9" fill-rule="evenodd" fill-opacity="1"/>
<polyline clip-path="url(#clip932)" style="stroke:#000000; stroke-linecap:round; stroke-linejoin:round; stroke-width:4; stroke-opacity:1; fill:none" points="673.227,1262.58 673.227,1521.01 697.522,1521.01 697.522,1262.58 673.227,1262.58 "/>
<path clip-path="url(#clip932)" d="M697.522 1153.61 L697.522 1521.01 L721.817 1521.01 L721.817 1153.61 L697.522 1153.61 L697.522 1153.61  Z" fill="#009af9" fill-rule="evenodd" fill-opacity="1"/>
<polyline clip-path="url(#clip932)" style="stroke:#000000; stroke-linecap:round; stroke-linejoin:round; stroke-width:4; stroke-opacity:1; fill:none" points="697.522,1153.61 697.522,1521.01 721.817,1521.01 721.817,1153.61 697.522,1153.61 "/>
<path clip-path="url(#clip932)" d="M721.817 1089.36 L721.817 1521.01 L746.113 1521.01 L746.113 1089.36 L721.817 1089.36 L721.817 1089.36  Z" fill="#009af9" fill-rule="evenodd" fill-opacity="1"/>
<polyline clip-path="url(#clip932)" style="stroke:#000000; stroke-linecap:round; stroke-linejoin:round; stroke-width:4; stroke-opacity:1; fill:none" points="721.817,1089.36 721.817,1521.01 746.113,1521.01 746.113,1089.36 721.817,1089.36 "/>
<path clip-path="url(#clip932)" d="M746.113 647.925 L746.113 1521.01 L770.408 1521.01 L770.408 647.925 L746.113 647.925 L746.113 647.925  Z" fill="#009af9" fill-rule="evenodd" fill-opacity="1"/>
<polyline clip-path="url(#clip932)" style="stroke:#000000; stroke-linecap:round; stroke-linejoin:round; stroke-width:4; stroke-opacity:1; fill:none" points="746.113,647.925 746.113,1521.01 770.408,1521.01 770.408,647.925 746.113,647.925 "/>
<path clip-path="url(#clip932)" d="M770.408 1150.82 L770.408 1521.01 L794.704 1521.01 L794.704 1150.82 L770.408 1150.82 L770.408 1150.82  Z" fill="#009af9" fill-rule="evenodd" fill-opacity="1"/>
<polyline clip-path="url(#clip932)" style="stroke:#000000; stroke-linecap:round; stroke-linejoin:round; stroke-width:4; stroke-opacity:1; fill:none" points="770.408,1150.82 770.408,1521.01 794.704,1521.01 794.704,1150.82 770.408,1150.82 "/>
<path clip-path="url(#clip932)" d="M794.704 680.055 L794.704 1521.01 L818.999 1521.01 L818.999 680.055 L794.704 680.055 L794.704 680.055  Z" fill="#009af9" fill-rule="evenodd" fill-opacity="1"/>
<polyline clip-path="url(#clip932)" style="stroke:#000000; stroke-linecap:round; stroke-linejoin:round; stroke-width:4; stroke-opacity:1; fill:none" points="794.704,680.055 794.704,1521.01 818.999,1521.01 818.999,680.055 794.704,680.055 "/>
<path clip-path="url(#clip932)" d="M818.999 47.2441 L818.999 1521.01 L843.295 1521.01 L843.295 47.2441 L818.999 47.2441 L818.999 47.2441  Z" fill="#009af9" fill-rule="evenodd" fill-opacity="1"/>
<polyline clip-path="url(#clip932)" style="stroke:#000000; stroke-linecap:round; stroke-linejoin:round; stroke-width:4; stroke-opacity:1; fill:none" points="818.999,47.2441 818.999,1521.01 843.295,1521.01 843.295,47.2441 818.999,47.2441 "/>
<path clip-path="url(#clip932)" d="M843.295 498.453 L843.295 1521.01 L867.59 1521.01 L867.59 498.453 L843.295 498.453 L843.295 498.453  Z" fill="#009af9" fill-rule="evenodd" fill-opacity="1"/>
<polyline clip-path="url(#clip932)" style="stroke:#000000; stroke-linecap:round; stroke-linejoin:round; stroke-width:4; stroke-opacity:1; fill:none" points="843.295,498.453 843.295,1521.01 867.59,1521.01 867.59,498.453 843.295,498.453 "/>
<path clip-path="url(#clip932)" d="M867.59 462.133 L867.59 1521.01 L891.886 1521.01 L891.886 462.133 L867.59 462.133 L867.59 462.133  Z" fill="#009af9" fill-rule="evenodd" fill-opacity="1"/>
<polyline clip-path="url(#clip932)" style="stroke:#000000; stroke-linecap:round; stroke-linejoin:round; stroke-width:4; stroke-opacity:1; fill:none" points="867.59,462.133 867.59,1521.01 891.886,1521.01 891.886,462.133 867.59,462.133 "/>
<path clip-path="url(#clip932)" d="M891.886 1033.48 L891.886 1521.01 L916.181 1521.01 L916.181 1033.48 L891.886 1033.48 L891.886 1033.48  Z" fill="#009af9" fill-rule="evenodd" fill-opacity="1"/>
<polyline clip-path="url(#clip932)" style="stroke:#000000; stroke-linecap:round; stroke-linejoin:round; stroke-width:4; stroke-opacity:1; fill:none" points="891.886,1033.48 891.886,1521.01 916.181,1521.01 916.181,1033.48 891.886,1033.48 "/>
<path clip-path="url(#clip932)" d="M916.181 640.94 L916.181 1521.01 L940.476 1521.01 L940.476 640.94 L916.181 640.94 L916.181 640.94  Z" fill="#009af9" fill-rule="evenodd" fill-opacity="1"/>
<polyline clip-path="url(#clip932)" style="stroke:#000000; stroke-linecap:round; stroke-linejoin:round; stroke-width:4; stroke-opacity:1; fill:none" points="916.181,640.94 916.181,1521.01 940.476,1521.01 940.476,640.94 916.181,640.94 "/>
<path clip-path="url(#clip932)" d="M940.476 596.239 L940.476 1521.01 L964.772 1521.01 L964.772 596.239 L940.476 596.239 L940.476 596.239  Z" fill="#009af9" fill-rule="evenodd" fill-opacity="1"/>
<polyline clip-path="url(#clip932)" style="stroke:#000000; stroke-linecap:round; stroke-linejoin:round; stroke-width:4; stroke-opacity:1; fill:none" points="940.476,596.239 940.476,1521.01 964.772,1521.01 964.772,596.239 940.476,596.239 "/>
<path clip-path="url(#clip932)" d="M964.772 728.947 L964.772 1521.01 L989.067 1521.01 L989.067 728.947 L964.772 728.947 L964.772 728.947  Z" fill="#009af9" fill-rule="evenodd" fill-opacity="1"/>
<polyline clip-path="url(#clip932)" style="stroke:#000000; stroke-linecap:round; stroke-linejoin:round; stroke-width:4; stroke-opacity:1; fill:none" points="964.772,728.947 964.772,1521.01 989.067,1521.01 989.067,728.947 964.772,728.947 "/>
<path clip-path="url(#clip932)" d="M989.067 506.835 L989.067 1521.01 L1013.36 1521.01 L1013.36 506.835 L989.067 506.835 L989.067 506.835  Z" fill="#009af9" fill-rule="evenodd" fill-opacity="1"/>
<polyline clip-path="url(#clip932)" style="stroke:#000000; stroke-linecap:round; stroke-linejoin:round; stroke-width:4; stroke-opacity:1; fill:none" points="989.067,506.835 989.067,1521.01 1013.36,1521.01 1013.36,506.835 989.067,506.835 "/>
<path clip-path="url(#clip932)" d="M1013.36 969.22 L1013.36 1521.01 L1037.66 1521.01 L1037.66 969.22 L1013.36 969.22 L1013.36 969.22  Z" fill="#009af9" fill-rule="evenodd" fill-opacity="1"/>
<polyline clip-path="url(#clip932)" style="stroke:#000000; stroke-linecap:round; stroke-linejoin:round; stroke-width:4; stroke-opacity:1; fill:none" points="1013.36,969.22 1013.36,1521.01 1037.66,1521.01 1037.66,969.22 1013.36,969.22 "/>
<path clip-path="url(#clip932)" d="M1037.66 1093.55 L1037.66 1521.01 L1061.95 1521.01 L1061.95 1093.55 L1037.66 1093.55 L1037.66 1093.55  Z" fill="#009af9" fill-rule="evenodd" fill-opacity="1"/>
<polyline clip-path="url(#clip932)" style="stroke:#000000; stroke-linecap:round; stroke-linejoin:round; stroke-width:4; stroke-opacity:1; fill:none" points="1037.66,1093.55 1037.66,1521.01 1061.95,1521.01 1061.95,1093.55 1037.66,1093.55 "/>
<path clip-path="url(#clip932)" d="M1061.95 1335.22 L1061.95 1521.01 L1086.25 1521.01 L1086.25 1335.22 L1061.95 1335.22 L1061.95 1335.22  Z" fill="#009af9" fill-rule="evenodd" fill-opacity="1"/>
<polyline clip-path="url(#clip932)" style="stroke:#000000; stroke-linecap:round; stroke-linejoin:round; stroke-width:4; stroke-opacity:1; fill:none" points="1061.95,1335.22 1061.95,1521.01 1086.25,1521.01 1086.25,1335.22 1061.95,1335.22 "/>
<path clip-path="url(#clip932)" d="M1086.25 1254.19 L1086.25 1521.01 L1110.54 1521.01 L1110.54 1254.19 L1086.25 1254.19 L1086.25 1254.19  Z" fill="#009af9" fill-rule="evenodd" fill-opacity="1"/>
<polyline clip-path="url(#clip932)" style="stroke:#000000; stroke-linecap:round; stroke-linejoin:round; stroke-width:4; stroke-opacity:1; fill:none" points="1086.25,1254.19 1086.25,1521.01 1110.54,1521.01 1110.54,1254.19 1086.25,1254.19 "/>
<path clip-path="url(#clip932)" d="M1110.54 1255.59 L1110.54 1521.01 L1134.84 1521.01 L1134.84 1255.59 L1110.54 1255.59 L1110.54 1255.59  Z" fill="#009af9" fill-rule="evenodd" fill-opacity="1"/>
<polyline clip-path="url(#clip932)" style="stroke:#000000; stroke-linecap:round; stroke-linejoin:round; stroke-width:4; stroke-opacity:1; fill:none" points="1110.54,1255.59 1110.54,1521.01 1134.84,1521.01 1134.84,1255.59 1110.54,1255.59 "/>
<path clip-path="url(#clip932)" d="M1134.84 1238.83 L1134.84 1521.01 L1159.14 1521.01 L1159.14 1238.83 L1134.84 1238.83 L1134.84 1238.83  Z" fill="#009af9" fill-rule="evenodd" fill-opacity="1"/>
<polyline clip-path="url(#clip932)" style="stroke:#000000; stroke-linecap:round; stroke-linejoin:round; stroke-width:4; stroke-opacity:1; fill:none" points="1134.84,1238.83 1134.84,1521.01 1159.14,1521.01 1159.14,1238.83 1134.84,1238.83 "/>
<path clip-path="url(#clip932)" d="M1159.14 1381.31 L1159.14 1521.01 L1183.43 1521.01 L1183.43 1381.31 L1159.14 1381.31 L1159.14 1381.31  Z" fill="#009af9" fill-rule="evenodd" fill-opacity="1"/>
<polyline clip-path="url(#clip932)" style="stroke:#000000; stroke-linecap:round; stroke-linejoin:round; stroke-width:4; stroke-opacity:1; fill:none" points="1159.14,1381.31 1159.14,1521.01 1183.43,1521.01 1183.43,1381.31 1159.14,1381.31 "/>
<path clip-path="url(#clip932)" d="M1183.43 1419.03 L1183.43 1521.01 L1207.73 1521.01 L1207.73 1419.03 L1183.43 1419.03 L1183.43 1419.03  Z" fill="#009af9" fill-rule="evenodd" fill-opacity="1"/>
<polyline clip-path="url(#clip932)" style="stroke:#000000; stroke-linecap:round; stroke-linejoin:round; stroke-width:4; stroke-opacity:1; fill:none" points="1183.43,1419.03 1183.43,1521.01 1207.73,1521.01 1207.73,1419.03 1183.43,1419.03 "/>
<path clip-path="url(#clip932)" d="M1207.73 1465.13 L1207.73 1521.01 L1232.02 1521.01 L1232.02 1465.13 L1207.73 1465.13 L1207.73 1465.13  Z" fill="#009af9" fill-rule="evenodd" fill-opacity="1"/>
<polyline clip-path="url(#clip932)" style="stroke:#000000; stroke-linecap:round; stroke-linejoin:round; stroke-width:4; stroke-opacity:1; fill:none" points="1207.73,1465.13 1207.73,1521.01 1232.02,1521.01 1232.02,1465.13 1207.73,1465.13 "/>
<path clip-path="url(#clip932)" d="M1232.02 1456.75 L1232.02 1521.01 L1256.32 1521.01 L1256.32 1456.75 L1232.02 1456.75 L1232.02 1456.75  Z" fill="#009af9" fill-rule="evenodd" fill-opacity="1"/>
<polyline clip-path="url(#clip932)" style="stroke:#000000; stroke-linecap:round; stroke-linejoin:round; stroke-width:4; stroke-opacity:1; fill:none" points="1232.02,1456.75 1232.02,1521.01 1256.32,1521.01 1256.32,1456.75 1232.02,1456.75 "/>
<path clip-path="url(#clip932)" d="M1256.32 1451.16 L1256.32 1521.01 L1280.61 1521.01 L1280.61 1451.16 L1256.32 1451.16 L1256.32 1451.16  Z" fill="#009af9" fill-rule="evenodd" fill-opacity="1"/>
<polyline clip-path="url(#clip932)" style="stroke:#000000; stroke-linecap:round; stroke-linejoin:round; stroke-width:4; stroke-opacity:1; fill:none" points="1256.32,1451.16 1256.32,1521.01 1280.61,1521.01 1280.61,1451.16 1256.32,1451.16 "/>
<path clip-path="url(#clip932)" d="M1280.61 1494.47 L1280.61 1521.01 L1304.91 1521.01 L1304.91 1494.47 L1280.61 1494.47 L1280.61 1494.47  Z" fill="#009af9" fill-rule="evenodd" fill-opacity="1"/>
<polyline clip-path="url(#clip932)" style="stroke:#000000; stroke-linecap:round; stroke-linejoin:round; stroke-width:4; stroke-opacity:1; fill:none" points="1280.61,1494.47 1280.61,1521.01 1304.91,1521.01 1304.91,1494.47 1280.61,1494.47 "/>
<path clip-path="url(#clip932)" d="M1304.91 1490.28 L1304.91 1521.01 L1329.2 1521.01 L1329.2 1490.28 L1304.91 1490.28 L1304.91 1490.28  Z" fill="#009af9" fill-rule="evenodd" fill-opacity="1"/>
<polyline clip-path="url(#clip932)" style="stroke:#000000; stroke-linecap:round; stroke-linejoin:round; stroke-width:4; stroke-opacity:1; fill:none" points="1304.91,1490.28 1304.91,1521.01 1329.2,1521.01 1329.2,1490.28 1304.91,1490.28 "/>
<path clip-path="url(#clip932)" d="M1329.2 1497.26 L1329.2 1521.01 L1353.5 1521.01 L1353.5 1497.26 L1329.2 1497.26 L1329.2 1497.26  Z" fill="#009af9" fill-rule="evenodd" fill-opacity="1"/>
<polyline clip-path="url(#clip932)" style="stroke:#000000; stroke-linecap:round; stroke-linejoin:round; stroke-width:4; stroke-opacity:1; fill:none" points="1329.2,1497.26 1329.2,1521.01 1353.5,1521.01 1353.5,1497.26 1329.2,1497.26 "/>
<path clip-path="url(#clip932)" d="M1353.5 1494.47 L1353.5 1521.01 L1377.79 1521.01 L1377.79 1494.47 L1353.5 1494.47 L1353.5 1494.47  Z" fill="#009af9" fill-rule="evenodd" fill-opacity="1"/>
<polyline clip-path="url(#clip932)" style="stroke:#000000; stroke-linecap:round; stroke-linejoin:round; stroke-width:4; stroke-opacity:1; fill:none" points="1353.5,1494.47 1353.5,1521.01 1377.79,1521.01 1377.79,1494.47 1353.5,1494.47 "/>
<path clip-path="url(#clip932)" d="M1377.79 1504.24 L1377.79 1521.01 L1402.09 1521.01 L1402.09 1504.24 L1377.79 1504.24 L1377.79 1504.24  Z" fill="#009af9" fill-rule="evenodd" fill-opacity="1"/>
<polyline clip-path="url(#clip932)" style="stroke:#000000; stroke-linecap:round; stroke-linejoin:round; stroke-width:4; stroke-opacity:1; fill:none" points="1377.79,1504.24 1377.79,1521.01 1402.09,1521.01 1402.09,1504.24 1377.79,1504.24 "/>
<path clip-path="url(#clip932)" d="M1402.09 1502.85 L1402.09 1521.01 L1426.39 1521.01 L1426.39 1502.85 L1402.09 1502.85 L1402.09 1502.85  Z" fill="#009af9" fill-rule="evenodd" fill-opacity="1"/>
<polyline clip-path="url(#clip932)" style="stroke:#000000; stroke-linecap:round; stroke-linejoin:round; stroke-width:4; stroke-opacity:1; fill:none" points="1402.09,1502.85 1402.09,1521.01 1426.39,1521.01 1426.39,1502.85 1402.09,1502.85 "/>
<path clip-path="url(#clip932)" d="M1426.39 1514.02 L1426.39 1521.01 L1450.68 1521.01 L1450.68 1514.02 L1426.39 1514.02 L1426.39 1514.02  Z" fill="#009af9" fill-rule="evenodd" fill-opacity="1"/>
<polyline clip-path="url(#clip932)" style="stroke:#000000; stroke-linecap:round; stroke-linejoin:round; stroke-width:4; stroke-opacity:1; fill:none" points="1426.39,1514.02 1426.39,1521.01 1450.68,1521.01 1450.68,1514.02 1426.39,1514.02 "/>
<path clip-path="url(#clip932)" d="M1450.68 1512.63 L1450.68 1521.01 L1474.98 1521.01 L1474.98 1512.63 L1450.68 1512.63 L1450.68 1512.63  Z" fill="#009af9" fill-rule="evenodd" fill-opacity="1"/>
<polyline clip-path="url(#clip932)" style="stroke:#000000; stroke-linecap:round; stroke-linejoin:round; stroke-width:4; stroke-opacity:1; fill:none" points="1450.68,1512.63 1450.68,1521.01 1474.98,1521.01 1474.98,1512.63 1450.68,1512.63 "/>
<path clip-path="url(#clip932)" d="M1474.98 1509.83 L1474.98 1521.01 L1499.27 1521.01 L1499.27 1509.83 L1474.98 1509.83 L1474.98 1509.83  Z" fill="#009af9" fill-rule="evenodd" fill-opacity="1"/>
<polyline clip-path="url(#clip932)" style="stroke:#000000; stroke-linecap:round; stroke-linejoin:round; stroke-width:4; stroke-opacity:1; fill:none" points="1474.98,1509.83 1474.98,1521.01 1499.27,1521.01 1499.27,1509.83 1474.98,1509.83 "/>
<path clip-path="url(#clip932)" d="M1499.27 1508.44 L1499.27 1521.01 L1523.57 1521.01 L1523.57 1508.44 L1499.27 1508.44 L1499.27 1508.44  Z" fill="#009af9" fill-rule="evenodd" fill-opacity="1"/>
<polyline clip-path="url(#clip932)" style="stroke:#000000; stroke-linecap:round; stroke-linejoin:round; stroke-width:4; stroke-opacity:1; fill:none" points="1499.27,1508.44 1499.27,1521.01 1523.57,1521.01 1523.57,1508.44 1499.27,1508.44 "/>
<path clip-path="url(#clip932)" d="M1523.57 1519.61 L1523.57 1521.01 L1547.86 1521.01 L1547.86 1519.61 L1523.57 1519.61 L1523.57 1519.61  Z" fill="#009af9" fill-rule="evenodd" fill-opacity="1"/>
<polyline clip-path="url(#clip932)" style="stroke:#000000; stroke-linecap:round; stroke-linejoin:round; stroke-width:4; stroke-opacity:1; fill:none" points="1523.57,1519.61 1523.57,1521.01 1547.86,1521.01 1547.86,1519.61 1523.57,1519.61 "/>
<path clip-path="url(#clip932)" d="M1547.86 1519.61 L1547.86 1521.01 L1572.16 1521.01 L1572.16 1519.61 L1547.86 1519.61 L1547.86 1519.61  Z" fill="#009af9" fill-rule="evenodd" fill-opacity="1"/>
<polyline clip-path="url(#clip932)" style="stroke:#000000; stroke-linecap:round; stroke-linejoin:round; stroke-width:4; stroke-opacity:1; fill:none" points="1547.86,1519.61 1547.86,1521.01 1572.16,1521.01 1572.16,1519.61 1547.86,1519.61 "/>
<path clip-path="url(#clip932)" d="M1572.16 1519.61 L1572.16 1521.01 L1596.45 1521.01 L1596.45 1519.61 L1572.16 1519.61 L1572.16 1519.61  Z" fill="#009af9" fill-rule="evenodd" fill-opacity="1"/>
<polyline clip-path="url(#clip932)" style="stroke:#000000; stroke-linecap:round; stroke-linejoin:round; stroke-width:4; stroke-opacity:1; fill:none" points="1572.16,1519.61 1572.16,1521.01 1596.45,1521.01 1596.45,1519.61 1572.16,1519.61 "/>
<path clip-path="url(#clip932)" d="M1596.45 1521.01 L1596.45 1521.01 L1620.75 1521.01 L1620.75 1521.01 L1596.45 1521.01 L1596.45 1521.01  Z" fill="#009af9" fill-rule="evenodd" fill-opacity="1"/>
<polyline clip-path="url(#clip932)" style="stroke:#000000; stroke-linecap:round; stroke-linejoin:round; stroke-width:4; stroke-opacity:1; fill:none" points="1596.45,1521.01 1596.45,1521.01 1620.75,1521.01 1596.45,1521.01 "/>
<path clip-path="url(#clip932)" d="M1620.75 1521.01 L1620.75 1521.01 L1645.04 1521.01 L1645.04 1521.01 L1620.75 1521.01 L1620.75 1521.01  Z" fill="#009af9" fill-rule="evenodd" fill-opacity="1"/>
<polyline clip-path="url(#clip932)" style="stroke:#000000; stroke-linecap:round; stroke-linejoin:round; stroke-width:4; stroke-opacity:1; fill:none" points="1620.75,1521.01 1620.75,1521.01 1645.04,1521.01 1620.75,1521.01 "/>
<path clip-path="url(#clip932)" d="M1645.04 1518.21 L1645.04 1521.01 L1669.34 1521.01 L1669.34 1518.21 L1645.04 1518.21 L1645.04 1518.21  Z" fill="#009af9" fill-rule="evenodd" fill-opacity="1"/>
<polyline clip-path="url(#clip932)" style="stroke:#000000; stroke-linecap:round; stroke-linejoin:round; stroke-width:4; stroke-opacity:1; fill:none" points="1645.04,1518.21 1645.04,1521.01 1669.34,1521.01 1669.34,1518.21 1645.04,1518.21 "/>
<path clip-path="url(#clip932)" d="M1669.34 1521.01 L1669.34 1521.01 L1693.64 1521.01 L1693.64 1521.01 L1669.34 1521.01 L1669.34 1521.01  Z" fill="#009af9" fill-rule="evenodd" fill-opacity="1"/>
<polyline clip-path="url(#clip932)" style="stroke:#000000; stroke-linecap:round; stroke-linejoin:round; stroke-width:4; stroke-opacity:1; fill:none" points="1669.34,1521.01 1669.34,1521.01 1693.64,1521.01 1669.34,1521.01 "/>
<path clip-path="url(#clip932)" d="M1693.64 1521.01 L1693.64 1521.01 L1717.93 1521.01 L1717.93 1521.01 L1693.64 1521.01 L1693.64 1521.01  Z" fill="#009af9" fill-rule="evenodd" fill-opacity="1"/>
<polyline clip-path="url(#clip932)" style="stroke:#000000; stroke-linecap:round; stroke-linejoin:round; stroke-width:4; stroke-opacity:1; fill:none" points="1693.64,1521.01 1693.64,1521.01 1717.93,1521.01 1693.64,1521.01 "/>
<path clip-path="url(#clip932)" d="M1717.93 1519.61 L1717.93 1521.01 L1742.23 1521.01 L1742.23 1519.61 L1717.93 1519.61 L1717.93 1519.61  Z" fill="#009af9" fill-rule="evenodd" fill-opacity="1"/>
<polyline clip-path="url(#clip932)" style="stroke:#000000; stroke-linecap:round; stroke-linejoin:round; stroke-width:4; stroke-opacity:1; fill:none" points="1717.93,1519.61 1717.93,1521.01 1742.23,1521.01 1742.23,1519.61 1717.93,1519.61 "/>
<path clip-path="url(#clip932)" d="M1742.23 1521.01 L1742.23 1521.01 L1766.52 1521.01 L1766.52 1521.01 L1742.23 1521.01 L1742.23 1521.01  Z" fill="#009af9" fill-rule="evenodd" fill-opacity="1"/>
<polyline clip-path="url(#clip932)" style="stroke:#000000; stroke-linecap:round; stroke-linejoin:round; stroke-width:4; stroke-opacity:1; fill:none" points="1742.23,1521.01 1742.23,1521.01 1766.52,1521.01 1742.23,1521.01 "/>
<path clip-path="url(#clip932)" d="M1766.52 1521.01 L1766.52 1521.01 L1790.82 1521.01 L1790.82 1521.01 L1766.52 1521.01 L1766.52 1521.01  Z" fill="#009af9" fill-rule="evenodd" fill-opacity="1"/>
<polyline clip-path="url(#clip932)" style="stroke:#000000; stroke-linecap:round; stroke-linejoin:round; stroke-width:4; stroke-opacity:1; fill:none" points="1766.52,1521.01 1766.52,1521.01 1790.82,1521.01 1766.52,1521.01 "/>
<path clip-path="url(#clip932)" d="M1790.82 1519.61 L1790.82 1521.01 L1815.11 1521.01 L1815.11 1519.61 L1790.82 1519.61 L1790.82 1519.61  Z" fill="#009af9" fill-rule="evenodd" fill-opacity="1"/>
<polyline clip-path="url(#clip932)" style="stroke:#000000; stroke-linecap:round; stroke-linejoin:round; stroke-width:4; stroke-opacity:1; fill:none" points="1790.82,1519.61 1790.82,1521.01 1815.11,1521.01 1815.11,1519.61 1790.82,1519.61 "/>
<path clip-path="url(#clip932)" d="M1815.11 1519.61 L1815.11 1521.01 L1839.41 1521.01 L1839.41 1519.61 L1815.11 1519.61 L1815.11 1519.61  Z" fill="#009af9" fill-rule="evenodd" fill-opacity="1"/>
<polyline clip-path="url(#clip932)" style="stroke:#000000; stroke-linecap:round; stroke-linejoin:round; stroke-width:4; stroke-opacity:1; fill:none" points="1815.11,1519.61 1815.11,1521.01 1839.41,1521.01 1839.41,1519.61 1815.11,1519.61 "/>
<path clip-path="url(#clip932)" d="M1839.41 1521.01 L1839.41 1521.01 L1863.7 1521.01 L1863.7 1521.01 L1839.41 1521.01 L1839.41 1521.01  Z" fill="#009af9" fill-rule="evenodd" fill-opacity="1"/>
<polyline clip-path="url(#clip932)" style="stroke:#000000; stroke-linecap:round; stroke-linejoin:round; stroke-width:4; stroke-opacity:1; fill:none" points="1839.41,1521.01 1839.41,1521.01 1863.7,1521.01 1839.41,1521.01 "/>
<path clip-path="url(#clip932)" d="M1863.7 1521.01 L1863.7 1521.01 L1888 1521.01 L1888 1521.01 L1863.7 1521.01 L1863.7 1521.01  Z" fill="#009af9" fill-rule="evenodd" fill-opacity="1"/>
<polyline clip-path="url(#clip932)" style="stroke:#000000; stroke-linecap:round; stroke-linejoin:round; stroke-width:4; stroke-opacity:1; fill:none" points="1863.7,1521.01 1863.7,1521.01 1888,1521.01 1863.7,1521.01 "/>
<path clip-path="url(#clip932)" d="M1888 1521.01 L1888 1521.01 L1912.29 1521.01 L1912.29 1521.01 L1888 1521.01 L1888 1521.01  Z" fill="#009af9" fill-rule="evenodd" fill-opacity="1"/>
<polyline clip-path="url(#clip932)" style="stroke:#000000; stroke-linecap:round; stroke-linejoin:round; stroke-width:4; stroke-opacity:1; fill:none" points="1888,1521.01 1888,1521.01 1912.29,1521.01 1888,1521.01 "/>
<path clip-path="url(#clip932)" d="M1912.29 1521.01 L1912.29 1521.01 L1936.59 1521.01 L1936.59 1521.01 L1912.29 1521.01 L1912.29 1521.01  Z" fill="#009af9" fill-rule="evenodd" fill-opacity="1"/>
<polyline clip-path="url(#clip932)" style="stroke:#000000; stroke-linecap:round; stroke-linejoin:round; stroke-width:4; stroke-opacity:1; fill:none" points="1912.29,1521.01 1912.29,1521.01 1936.59,1521.01 1912.29,1521.01 "/>
<path clip-path="url(#clip932)" d="M1936.59 1521.01 L1936.59 1521.01 L1960.89 1521.01 L1960.89 1521.01 L1936.59 1521.01 L1936.59 1521.01  Z" fill="#009af9" fill-rule="evenodd" fill-opacity="1"/>
<polyline clip-path="url(#clip932)" style="stroke:#000000; stroke-linecap:round; stroke-linejoin:round; stroke-width:4; stroke-opacity:1; fill:none" points="1936.59,1521.01 1936.59,1521.01 1960.89,1521.01 1936.59,1521.01 "/>
<path clip-path="url(#clip932)" d="M1960.89 1521.01 L1960.89 1521.01 L1985.18 1521.01 L1985.18 1521.01 L1960.89 1521.01 L1960.89 1521.01  Z" fill="#009af9" fill-rule="evenodd" fill-opacity="1"/>
<polyline clip-path="url(#clip932)" style="stroke:#000000; stroke-linecap:round; stroke-linejoin:round; stroke-width:4; stroke-opacity:1; fill:none" points="1960.89,1521.01 1960.89,1521.01 1985.18,1521.01 1960.89,1521.01 "/>
<path clip-path="url(#clip932)" d="M1985.18 1521.01 L1985.18 1521.01 L2009.48 1521.01 L2009.48 1521.01 L1985.18 1521.01 L1985.18 1521.01  Z" fill="#009af9" fill-rule="evenodd" fill-opacity="1"/>
<polyline clip-path="url(#clip932)" style="stroke:#000000; stroke-linecap:round; stroke-linejoin:round; stroke-width:4; stroke-opacity:1; fill:none" points="1985.18,1521.01 1985.18,1521.01 2009.48,1521.01 1985.18,1521.01 "/>
<path clip-path="url(#clip932)" d="M2009.48 1521.01 L2009.48 1521.01 L2033.77 1521.01 L2033.77 1521.01 L2009.48 1521.01 L2009.48 1521.01  Z" fill="#009af9" fill-rule="evenodd" fill-opacity="1"/>
<polyline clip-path="url(#clip932)" style="stroke:#000000; stroke-linecap:round; stroke-linejoin:round; stroke-width:4; stroke-opacity:1; fill:none" points="2009.48,1521.01 2009.48,1521.01 2033.77,1521.01 2009.48,1521.01 "/>
<path clip-path="url(#clip932)" d="M2033.77 1521.01 L2033.77 1521.01 L2058.07 1521.01 L2058.07 1521.01 L2033.77 1521.01 L2033.77 1521.01  Z" fill="#009af9" fill-rule="evenodd" fill-opacity="1"/>
<polyline clip-path="url(#clip932)" style="stroke:#000000; stroke-linecap:round; stroke-linejoin:round; stroke-width:4; stroke-opacity:1; fill:none" points="2033.77,1521.01 2033.77,1521.01 2058.07,1521.01 2033.77,1521.01 "/>
<path clip-path="url(#clip932)" d="M2058.07 1521.01 L2058.07 1521.01 L2082.36 1521.01 L2082.36 1521.01 L2058.07 1521.01 L2058.07 1521.01  Z" fill="#009af9" fill-rule="evenodd" fill-opacity="1"/>
<polyline clip-path="url(#clip932)" style="stroke:#000000; stroke-linecap:round; stroke-linejoin:round; stroke-width:4; stroke-opacity:1; fill:none" points="2058.07,1521.01 2058.07,1521.01 2082.36,1521.01 2058.07,1521.01 "/>
<path clip-path="url(#clip932)" d="M2082.36 1521.01 L2082.36 1521.01 L2106.66 1521.01 L2106.66 1521.01 L2082.36 1521.01 L2082.36 1521.01  Z" fill="#009af9" fill-rule="evenodd" fill-opacity="1"/>
<polyline clip-path="url(#clip932)" style="stroke:#000000; stroke-linecap:round; stroke-linejoin:round; stroke-width:4; stroke-opacity:1; fill:none" points="2082.36,1521.01 2082.36,1521.01 2106.66,1521.01 2082.36,1521.01 "/>
<path clip-path="url(#clip932)" d="M2106.66 1521.01 L2106.66 1521.01 L2130.95 1521.01 L2130.95 1521.01 L2106.66 1521.01 L2106.66 1521.01  Z" fill="#009af9" fill-rule="evenodd" fill-opacity="1"/>
<polyline clip-path="url(#clip932)" style="stroke:#000000; stroke-linecap:round; stroke-linejoin:round; stroke-width:4; stroke-opacity:1; fill:none" points="2106.66,1521.01 2106.66,1521.01 2130.95,1521.01 2106.66,1521.01 "/>
<path clip-path="url(#clip932)" d="M2130.95 1521.01 L2130.95 1521.01 L2155.25 1521.01 L2155.25 1521.01 L2130.95 1521.01 L2130.95 1521.01  Z" fill="#009af9" fill-rule="evenodd" fill-opacity="1"/>
<polyline clip-path="url(#clip932)" style="stroke:#000000; stroke-linecap:round; stroke-linejoin:round; stroke-width:4; stroke-opacity:1; fill:none" points="2130.95,1521.01 2130.95,1521.01 2155.25,1521.01 2130.95,1521.01 "/>
<path clip-path="url(#clip932)" d="M2155.25 1521.01 L2155.25 1521.01 L2179.54 1521.01 L2179.54 1521.01 L2155.25 1521.01 L2155.25 1521.01  Z" fill="#009af9" fill-rule="evenodd" fill-opacity="1"/>
<polyline clip-path="url(#clip932)" style="stroke:#000000; stroke-linecap:round; stroke-linejoin:round; stroke-width:4; stroke-opacity:1; fill:none" points="2155.25,1521.01 2155.25,1521.01 2179.54,1521.01 2155.25,1521.01 "/>
<path clip-path="url(#clip932)" d="M2179.54 1519.61 L2179.54 1521.01 L2203.84 1521.01 L2203.84 1519.61 L2179.54 1519.61 L2179.54 1519.61  Z" fill="#009af9" fill-rule="evenodd" fill-opacity="1"/>
<polyline clip-path="url(#clip932)" style="stroke:#000000; stroke-linecap:round; stroke-linejoin:round; stroke-width:4; stroke-opacity:1; fill:none" points="2179.54,1519.61 2179.54,1521.01 2203.84,1521.01 2203.84,1519.61 2179.54,1519.61 "/>
<path clip-path="url(#clip932)" d="M2203.84 1521.01 L2203.84 1521.01 L2228.13 1521.01 L2228.13 1521.01 L2203.84 1521.01 L2203.84 1521.01  Z" fill="#009af9" fill-rule="evenodd" fill-opacity="1"/>
<polyline clip-path="url(#clip932)" style="stroke:#000000; stroke-linecap:round; stroke-linejoin:round; stroke-width:4; stroke-opacity:1; fill:none" points="2203.84,1521.01 2203.84,1521.01 2228.13,1521.01 2203.84,1521.01 "/>
<circle clip-path="url(#clip932)" style="fill:#009af9; stroke:none; fill-opacity:0" cx="223.761" cy="1519.61" r="2"/>
<circle clip-path="url(#clip932)" style="fill:#009af9; stroke:none; fill-opacity:0" cx="248.056" cy="1518.21" r="2"/>
<circle clip-path="url(#clip932)" style="fill:#009af9; stroke:none; fill-opacity:0" cx="272.352" cy="1519.61" r="2"/>
<circle clip-path="url(#clip932)" style="fill:#009af9; stroke:none; fill-opacity:0" cx="296.647" cy="1519.61" r="2"/>
<circle clip-path="url(#clip932)" style="fill:#009af9; stroke:none; fill-opacity:0" cx="320.943" cy="1518.21" r="2"/>
<circle clip-path="url(#clip932)" style="fill:#009af9; stroke:none; fill-opacity:0" cx="345.238" cy="1521.01" r="2"/>
<circle clip-path="url(#clip932)" style="fill:#009af9; stroke:none; fill-opacity:0" cx="369.534" cy="1516.82" r="2"/>
<circle clip-path="url(#clip932)" style="fill:#009af9; stroke:none; fill-opacity:0" cx="393.829" cy="1518.21" r="2"/>
<circle clip-path="url(#clip932)" style="fill:#009af9; stroke:none; fill-opacity:0" cx="418.124" cy="1516.82" r="2"/>
<circle clip-path="url(#clip932)" style="fill:#009af9; stroke:none; fill-opacity:0" cx="442.42" cy="1516.82" r="2"/>
<circle clip-path="url(#clip932)" style="fill:#009af9; stroke:none; fill-opacity:0" cx="466.715" cy="1505.64" r="2"/>
<circle clip-path="url(#clip932)" style="fill:#009af9; stroke:none; fill-opacity:0" cx="491.011" cy="1498.66" r="2"/>
<circle clip-path="url(#clip932)" style="fill:#009af9; stroke:none; fill-opacity:0" cx="515.306" cy="1501.45" r="2"/>
<circle clip-path="url(#clip932)" style="fill:#009af9; stroke:none; fill-opacity:0" cx="539.602" cy="1488.88" r="2"/>
<circle clip-path="url(#clip932)" style="fill:#009af9; stroke:none; fill-opacity:0" cx="563.897" cy="1481.89" r="2"/>
<circle clip-path="url(#clip932)" style="fill:#009af9; stroke:none; fill-opacity:0" cx="588.193" cy="1465.13" r="2"/>
<circle clip-path="url(#clip932)" style="fill:#009af9; stroke:none; fill-opacity:0" cx="612.488" cy="1460.94" r="2"/>
<circle clip-path="url(#clip932)" style="fill:#009af9; stroke:none; fill-opacity:0" cx="636.783" cy="1400.87" r="2"/>
<circle clip-path="url(#clip932)" style="fill:#009af9; stroke:none; fill-opacity:0" cx="661.079" cy="1342.2" r="2"/>
<circle clip-path="url(#clip932)" style="fill:#009af9; stroke:none; fill-opacity:0" cx="685.374" cy="1262.58" r="2"/>
<circle clip-path="url(#clip932)" style="fill:#009af9; stroke:none; fill-opacity:0" cx="709.67" cy="1153.61" r="2"/>
<circle clip-path="url(#clip932)" style="fill:#009af9; stroke:none; fill-opacity:0" cx="733.965" cy="1089.36" r="2"/>
<circle clip-path="url(#clip932)" style="fill:#009af9; stroke:none; fill-opacity:0" cx="758.261" cy="647.925" r="2"/>
<circle clip-path="url(#clip932)" style="fill:#009af9; stroke:none; fill-opacity:0" cx="782.556" cy="1150.82" r="2"/>
<circle clip-path="url(#clip932)" style="fill:#009af9; stroke:none; fill-opacity:0" cx="806.851" cy="680.055" r="2"/>
<circle clip-path="url(#clip932)" style="fill:#009af9; stroke:none; fill-opacity:0" cx="831.147" cy="47.2441" r="2"/>
<circle clip-path="url(#clip932)" style="fill:#009af9; stroke:none; fill-opacity:0" cx="855.442" cy="498.453" r="2"/>
<circle clip-path="url(#clip932)" style="fill:#009af9; stroke:none; fill-opacity:0" cx="879.738" cy="462.133" r="2"/>
<circle clip-path="url(#clip932)" style="fill:#009af9; stroke:none; fill-opacity:0" cx="904.033" cy="1033.48" r="2"/>
<circle clip-path="url(#clip932)" style="fill:#009af9; stroke:none; fill-opacity:0" cx="928.329" cy="640.94" r="2"/>
<circle clip-path="url(#clip932)" style="fill:#009af9; stroke:none; fill-opacity:0" cx="952.624" cy="596.239" r="2"/>
<circle clip-path="url(#clip932)" style="fill:#009af9; stroke:none; fill-opacity:0" cx="976.92" cy="728.947" r="2"/>
<circle clip-path="url(#clip932)" style="fill:#009af9; stroke:none; fill-opacity:0" cx="1001.22" cy="506.835" r="2"/>
<circle clip-path="url(#clip932)" style="fill:#009af9; stroke:none; fill-opacity:0" cx="1025.51" cy="969.22" r="2"/>
<circle clip-path="url(#clip932)" style="fill:#009af9; stroke:none; fill-opacity:0" cx="1049.81" cy="1093.55" r="2"/>
<circle clip-path="url(#clip932)" style="fill:#009af9; stroke:none; fill-opacity:0" cx="1074.1" cy="1335.22" r="2"/>
<circle clip-path="url(#clip932)" style="fill:#009af9; stroke:none; fill-opacity:0" cx="1098.4" cy="1254.19" r="2"/>
<circle clip-path="url(#clip932)" style="fill:#009af9; stroke:none; fill-opacity:0" cx="1122.69" cy="1255.59" r="2"/>
<circle clip-path="url(#clip932)" style="fill:#009af9; stroke:none; fill-opacity:0" cx="1146.99" cy="1238.83" r="2"/>
<circle clip-path="url(#clip932)" style="fill:#009af9; stroke:none; fill-opacity:0" cx="1171.28" cy="1381.31" r="2"/>
<circle clip-path="url(#clip932)" style="fill:#009af9; stroke:none; fill-opacity:0" cx="1195.58" cy="1419.03" r="2"/>
<circle clip-path="url(#clip932)" style="fill:#009af9; stroke:none; fill-opacity:0" cx="1219.87" cy="1465.13" r="2"/>
<circle clip-path="url(#clip932)" style="fill:#009af9; stroke:none; fill-opacity:0" cx="1244.17" cy="1456.75" r="2"/>
<circle clip-path="url(#clip932)" style="fill:#009af9; stroke:none; fill-opacity:0" cx="1268.46" cy="1451.16" r="2"/>
<circle clip-path="url(#clip932)" style="fill:#009af9; stroke:none; fill-opacity:0" cx="1292.76" cy="1494.47" r="2"/>
<circle clip-path="url(#clip932)" style="fill:#009af9; stroke:none; fill-opacity:0" cx="1317.06" cy="1490.28" r="2"/>
<circle clip-path="url(#clip932)" style="fill:#009af9; stroke:none; fill-opacity:0" cx="1341.35" cy="1497.26" r="2"/>
<circle clip-path="url(#clip932)" style="fill:#009af9; stroke:none; fill-opacity:0" cx="1365.65" cy="1494.47" r="2"/>
<circle clip-path="url(#clip932)" style="fill:#009af9; stroke:none; fill-opacity:0" cx="1389.94" cy="1504.24" r="2"/>
<circle clip-path="url(#clip932)" style="fill:#009af9; stroke:none; fill-opacity:0" cx="1414.24" cy="1502.85" r="2"/>
<circle clip-path="url(#clip932)" style="fill:#009af9; stroke:none; fill-opacity:0" cx="1438.53" cy="1514.02" r="2"/>
<circle clip-path="url(#clip932)" style="fill:#009af9; stroke:none; fill-opacity:0" cx="1462.83" cy="1512.63" r="2"/>
<circle clip-path="url(#clip932)" style="fill:#009af9; stroke:none; fill-opacity:0" cx="1487.12" cy="1509.83" r="2"/>
<circle clip-path="url(#clip932)" style="fill:#009af9; stroke:none; fill-opacity:0" cx="1511.42" cy="1508.44" r="2"/>
<circle clip-path="url(#clip932)" style="fill:#009af9; stroke:none; fill-opacity:0" cx="1535.71" cy="1519.61" r="2"/>
<circle clip-path="url(#clip932)" style="fill:#009af9; stroke:none; fill-opacity:0" cx="1560.01" cy="1519.61" r="2"/>
<circle clip-path="url(#clip932)" style="fill:#009af9; stroke:none; fill-opacity:0" cx="1584.31" cy="1519.61" r="2"/>
<circle clip-path="url(#clip932)" style="fill:#009af9; stroke:none; fill-opacity:0" cx="1608.6" cy="1521.01" r="2"/>
<circle clip-path="url(#clip932)" style="fill:#009af9; stroke:none; fill-opacity:0" cx="1632.9" cy="1521.01" r="2"/>
<circle clip-path="url(#clip932)" style="fill:#009af9; stroke:none; fill-opacity:0" cx="1657.19" cy="1518.21" r="2"/>
<circle clip-path="url(#clip932)" style="fill:#009af9; stroke:none; fill-opacity:0" cx="1681.49" cy="1521.01" r="2"/>
<circle clip-path="url(#clip932)" style="fill:#009af9; stroke:none; fill-opacity:0" cx="1705.78" cy="1521.01" r="2"/>
<circle clip-path="url(#clip932)" style="fill:#009af9; stroke:none; fill-opacity:0" cx="1730.08" cy="1519.61" r="2"/>
<circle clip-path="url(#clip932)" style="fill:#009af9; stroke:none; fill-opacity:0" cx="1754.37" cy="1521.01" r="2"/>
<circle clip-path="url(#clip932)" style="fill:#009af9; stroke:none; fill-opacity:0" cx="1778.67" cy="1521.01" r="2"/>
<circle clip-path="url(#clip932)" style="fill:#009af9; stroke:none; fill-opacity:0" cx="1802.96" cy="1519.61" r="2"/>
<circle clip-path="url(#clip932)" style="fill:#009af9; stroke:none; fill-opacity:0" cx="1827.26" cy="1519.61" r="2"/>
<circle clip-path="url(#clip932)" style="fill:#009af9; stroke:none; fill-opacity:0" cx="1851.56" cy="1521.01" r="2"/>
<circle clip-path="url(#clip932)" style="fill:#009af9; stroke:none; fill-opacity:0" cx="1875.85" cy="1521.01" r="2"/>
<circle clip-path="url(#clip932)" style="fill:#009af9; stroke:none; fill-opacity:0" cx="1900.15" cy="1521.01" r="2"/>
<circle clip-path="url(#clip932)" style="fill:#009af9; stroke:none; fill-opacity:0" cx="1924.44" cy="1521.01" r="2"/>
<circle clip-path="url(#clip932)" style="fill:#009af9; stroke:none; fill-opacity:0" cx="1948.74" cy="1521.01" r="2"/>
<circle clip-path="url(#clip932)" style="fill:#009af9; stroke:none; fill-opacity:0" cx="1973.03" cy="1521.01" r="2"/>
<circle clip-path="url(#clip932)" style="fill:#009af9; stroke:none; fill-opacity:0" cx="1997.33" cy="1521.01" r="2"/>
<circle clip-path="url(#clip932)" style="fill:#009af9; stroke:none; fill-opacity:0" cx="2021.62" cy="1521.01" r="2"/>
<circle clip-path="url(#clip932)" style="fill:#009af9; stroke:none; fill-opacity:0" cx="2045.92" cy="1521.01" r="2"/>
<circle clip-path="url(#clip932)" style="fill:#009af9; stroke:none; fill-opacity:0" cx="2070.21" cy="1521.01" r="2"/>
<circle clip-path="url(#clip932)" style="fill:#009af9; stroke:none; fill-opacity:0" cx="2094.51" cy="1521.01" r="2"/>
<circle clip-path="url(#clip932)" style="fill:#009af9; stroke:none; fill-opacity:0" cx="2118.81" cy="1521.01" r="2"/>
<circle clip-path="url(#clip932)" style="fill:#009af9; stroke:none; fill-opacity:0" cx="2143.1" cy="1521.01" r="2"/>
<circle clip-path="url(#clip932)" style="fill:#009af9; stroke:none; fill-opacity:0" cx="2167.4" cy="1521.01" r="2"/>
<circle clip-path="url(#clip932)" style="fill:#009af9; stroke:none; fill-opacity:0" cx="2191.69" cy="1519.61" r="2"/>
<circle clip-path="url(#clip932)" style="fill:#009af9; stroke:none; fill-opacity:0" cx="2215.99" cy="1521.01" r="2"/>
<path clip-path="url(#clip930)" d="M1772.02 200.05 L2277.23 200.05 L2277.23 96.3696 L1772.02 96.3696  Z" fill="#ffffff" fill-rule="evenodd" fill-opacity="1"/>
<polyline clip-path="url(#clip930)" style="stroke:#000000; stroke-linecap:round; stroke-linejoin:round; stroke-width:4; stroke-opacity:1; fill:none" points="1772.02,200.05 2277.23,200.05 2277.23,96.3696 1772.02,96.3696 1772.02,200.05 "/>
<path clip-path="url(#clip930)" d="M1797.2 168.946 L1948.25 168.946 L1948.25 127.474 L1797.2 127.474 L1797.2 168.946  Z" fill="#009af9" fill-rule="evenodd" fill-opacity="1"/>
<polyline clip-path="url(#clip930)" style="stroke:#000000; stroke-linecap:round; stroke-linejoin:round; stroke-width:4; stroke-opacity:1; fill:none" points="1797.2,168.946 1948.25,168.946 1948.25,127.474 1797.2,127.474 1797.2,168.946 "/>
<path clip-path="url(#clip930)" d="M1977.7 161.601 L1977.7 175.351 L1973.42 175.351 L1973.42 139.564 L1977.7 139.564 L1977.7 143.499 Q1979.05 141.184 1981.08 140.073 Q1983.14 138.939 1985.99 138.939 Q1990.71 138.939 1993.65 142.689 Q1996.62 146.439 1996.62 152.55 Q1996.62 158.661 1993.65 162.411 Q1990.71 166.161 1985.99 166.161 Q1983.14 166.161 1981.08 165.05 Q1979.05 163.915 1977.7 161.601 M1992.2 152.55 Q1992.2 147.851 1990.25 145.189 Q1988.33 142.504 1984.95 142.504 Q1981.57 142.504 1979.63 145.189 Q1977.7 147.851 1977.7 152.55 Q1977.7 157.249 1979.63 159.934 Q1981.57 162.596 1984.95 162.596 Q1988.33 162.596 1990.25 159.934 Q1992.2 157.249 1992.2 152.55 Z" fill="#000000" fill-rule="nonzero" fill-opacity="1" /><path clip-path="url(#clip930)" d="M2013.72 142.55 Q2010.3 142.55 2008.31 145.235 Q2006.32 147.897 2006.32 152.55 Q2006.32 157.203 2008.28 159.888 Q2010.27 162.55 2013.72 162.55 Q2017.13 162.55 2019.12 159.865 Q2021.11 157.179 2021.11 152.55 Q2021.11 147.943 2019.12 145.258 Q2017.13 142.55 2013.72 142.55 M2013.72 138.939 Q2019.28 138.939 2022.45 142.55 Q2025.62 146.161 2025.62 152.55 Q2025.62 158.916 2022.45 162.55 Q2019.28 166.161 2013.72 166.161 Q2008.14 166.161 2004.97 162.55 Q2001.83 158.916 2001.83 152.55 Q2001.83 146.161 2004.97 142.55 Q2008.14 138.939 2013.72 138.939 Z" fill="#000000" fill-rule="nonzero" fill-opacity="1" /><path clip-path="url(#clip930)" d="M2049.21 140.328 L2049.21 144.355 Q2047.4 143.429 2045.46 142.967 Q2043.51 142.504 2041.43 142.504 Q2038.26 142.504 2036.66 143.476 Q2035.09 144.448 2035.09 146.392 Q2035.09 147.874 2036.22 148.73 Q2037.36 149.564 2040.78 150.328 L2042.24 150.652 Q2046.78 151.624 2048.68 153.406 Q2050.6 155.166 2050.6 158.337 Q2050.6 161.948 2047.73 164.054 Q2044.88 166.161 2039.88 166.161 Q2037.8 166.161 2035.53 165.744 Q2033.28 165.351 2030.78 164.54 L2030.78 160.142 Q2033.14 161.369 2035.44 161.994 Q2037.73 162.596 2039.97 162.596 Q2042.98 162.596 2044.6 161.578 Q2046.22 160.536 2046.22 158.661 Q2046.22 156.925 2045.04 155.999 Q2043.89 155.073 2039.93 154.216 L2038.45 153.869 Q2034.49 153.036 2032.73 151.323 Q2030.97 149.587 2030.97 146.578 Q2030.97 142.92 2033.56 140.93 Q2036.15 138.939 2040.92 138.939 Q2043.28 138.939 2045.37 139.286 Q2047.45 139.633 2049.21 140.328 Z" fill="#000000" fill-rule="nonzero" fill-opacity="1" /><path clip-path="url(#clip930)" d="M2061.59 132.203 L2061.59 139.564 L2070.37 139.564 L2070.37 142.874 L2061.59 142.874 L2061.59 156.948 Q2061.59 160.119 2062.45 161.022 Q2063.33 161.925 2065.99 161.925 L2070.37 161.925 L2070.37 165.49 L2065.99 165.49 Q2061.06 165.49 2059.19 163.661 Q2057.31 161.809 2057.31 156.948 L2057.31 142.874 L2054.19 142.874 L2054.19 139.564 L2057.31 139.564 L2057.31 132.203 L2061.59 132.203 Z" fill="#000000" fill-rule="nonzero" fill-opacity="1" /><path clip-path="url(#clip930)" d="M2098.14 151.462 L2098.14 153.545 L2078.56 153.545 Q2078.84 157.943 2081.2 160.258 Q2083.58 162.55 2087.82 162.55 Q2090.27 162.55 2092.57 161.948 Q2094.88 161.346 2097.15 160.142 L2097.15 164.17 Q2094.86 165.142 2092.45 165.652 Q2090.04 166.161 2087.57 166.161 Q2081.36 166.161 2077.73 162.55 Q2074.12 158.939 2074.12 152.781 Q2074.12 146.416 2077.54 142.689 Q2080.99 138.939 2086.82 138.939 Q2092.06 138.939 2095.09 142.318 Q2098.14 145.675 2098.14 151.462 M2093.88 150.212 Q2093.84 146.717 2091.92 144.633 Q2090.02 142.55 2086.87 142.55 Q2083.31 142.55 2081.15 144.564 Q2079.02 146.578 2078.7 150.235 L2093.88 150.212 Z" fill="#000000" fill-rule="nonzero" fill-opacity="1" /><path clip-path="url(#clip930)" d="M2120.16 143.545 Q2119.44 143.129 2118.58 142.943 Q2117.75 142.735 2116.73 142.735 Q2113.12 142.735 2111.18 145.096 Q2109.26 147.434 2109.26 151.832 L2109.26 165.49 L2104.97 165.49 L2104.97 139.564 L2109.26 139.564 L2109.26 143.592 Q2110.6 141.23 2112.75 140.096 Q2114.9 138.939 2117.98 138.939 Q2118.42 138.939 2118.95 139.008 Q2119.49 139.055 2120.13 139.17 L2120.16 143.545 Z" fill="#000000" fill-rule="nonzero" fill-opacity="1" /><path clip-path="url(#clip930)" d="M2124.63 139.564 L2128.88 139.564 L2128.88 165.49 L2124.63 165.49 L2124.63 139.564 M2124.63 129.471 L2128.88 129.471 L2128.88 134.865 L2124.63 134.865 L2124.63 129.471 Z" fill="#000000" fill-rule="nonzero" fill-opacity="1" /><path clip-path="url(#clip930)" d="M2147.84 142.55 Q2144.42 142.55 2142.43 145.235 Q2140.44 147.897 2140.44 152.55 Q2140.44 157.203 2142.4 159.888 Q2144.39 162.55 2147.84 162.55 Q2151.25 162.55 2153.24 159.865 Q2155.23 157.179 2155.23 152.55 Q2155.23 147.943 2153.24 145.258 Q2151.25 142.55 2147.84 142.55 M2147.84 138.939 Q2153.4 138.939 2156.57 142.55 Q2159.74 146.161 2159.74 152.55 Q2159.74 158.916 2156.57 162.55 Q2153.4 166.161 2147.84 166.161 Q2142.26 166.161 2139.09 162.55 Q2135.94 158.916 2135.94 152.55 Q2135.94 146.161 2139.09 142.55 Q2142.26 138.939 2147.84 138.939 Z" fill="#000000" fill-rule="nonzero" fill-opacity="1" /><path clip-path="url(#clip930)" d="M2181.82 143.545 Q2181.11 143.129 2180.25 142.943 Q2179.42 142.735 2178.4 142.735 Q2174.79 142.735 2172.84 145.096 Q2170.92 147.434 2170.92 151.832 L2170.92 165.49 L2166.64 165.49 L2166.64 139.564 L2170.92 139.564 L2170.92 143.592 Q2172.26 141.23 2174.42 140.096 Q2176.57 138.939 2179.65 138.939 Q2180.09 138.939 2180.62 139.008 Q2181.15 139.055 2181.8 139.17 L2181.82 143.545 Z" fill="#000000" fill-rule="nonzero" fill-opacity="1" /><path clip-path="url(#clip930)" d="M2218.77 149.054 L2204.02 149.054 Q2204.37 155.976 2205.97 158.916 Q2207.96 162.527 2211.41 162.527 Q2214.88 162.527 2216.8 158.892 Q2218.49 155.698 2218.77 149.054 M2218.7 145.119 Q2218.05 138.545 2216.8 136.23 Q2214.81 132.573 2211.41 132.573 Q2207.87 132.573 2205.99 136.184 Q2204.51 139.101 2204.07 145.119 L2218.7 145.119 M2211.41 129.101 Q2216.96 129.101 2220.13 134.008 Q2223.31 138.892 2223.31 147.55 Q2223.31 156.184 2220.13 161.091 Q2216.96 166.022 2211.41 166.022 Q2205.83 166.022 2202.68 161.091 Q2199.51 156.184 2199.51 147.55 Q2199.51 138.892 2202.68 134.008 Q2205.83 129.101 2211.41 129.101 Z" fill="#000000" fill-rule="nonzero" fill-opacity="1" /><path clip-path="url(#clip930)" d="M2230.55 130.93 L2235.23 130.93 L2235.23 161.554 L2252.06 161.554 L2252.06 165.49 L2230.55 165.49 L2230.55 130.93 Z" fill="#000000" fill-rule="nonzero" fill-opacity="1" /></svg>
