<?xml version="1.0" encoding="utf-8"?>
<svg xmlns="http://www.w3.org/2000/svg" xmlns:xlink="http://www.w3.org/1999/xlink" width="500" height="400" viewBox="0 0 2000 1600">
<defs>
  <clipPath id="clip630">
    <rect x="0" y="0" width="2000" height="1600"/>
  </clipPath>
</defs>
<path clip-path="url(#clip630)" d="M0 1600 L2000 1600 L2000 0 L0 0  Z" fill="#ffffff" fill-rule="evenodd" fill-opacity="1"/>
<defs>
  <clipPath id="clip631">
    <rect x="400" y="0" width="1401" height="1401"/>
  </clipPath>
</defs>
<path clip-path="url(#clip630)" d="M82.9921 1521.01 L1752.76 1521.01 L1752.76 47.2441 L82.9921 47.2441  Z" fill="#ffffff" fill-rule="evenodd" fill-opacity="1"/>
<defs>
  <clipPath id="clip632">
    <rect x="82" y="47" width="1671" height="1475"/>
  </clipPath>
</defs>
<polyline clip-path="url(#clip632)" style="stroke:#000000; stroke-linecap:round; stroke-linejoin:round; stroke-width:2; stroke-opacity:0.1; fill:none" points="82.9921,1521.01 82.9921,47.2441 "/>
<polyline clip-path="url(#clip632)" style="stroke:#000000; stroke-linecap:round; stroke-linejoin:round; stroke-width:2; stroke-opacity:0.1; fill:none" points="500.433,1521.01 500.433,47.2441 "/>
<polyline clip-path="url(#clip632)" style="stroke:#000000; stroke-linecap:round; stroke-linejoin:round; stroke-width:2; stroke-opacity:0.1; fill:none" points="917.874,1521.01 917.874,47.2441 "/>
<polyline clip-path="url(#clip632)" style="stroke:#000000; stroke-linecap:round; stroke-linejoin:round; stroke-width:2; stroke-opacity:0.1; fill:none" points="1335.31,1521.01 1335.31,47.2441 "/>
<polyline clip-path="url(#clip632)" style="stroke:#000000; stroke-linecap:round; stroke-linejoin:round; stroke-width:2; stroke-opacity:0.1; fill:none" points="1752.76,1521.01 1752.76,47.2441 "/>
<polyline clip-path="url(#clip630)" style="stroke:#000000; stroke-linecap:round; stroke-linejoin:round; stroke-width:4; stroke-opacity:1; fill:none" points="82.9921,1521.01 1752.76,1521.01 "/>
<polyline clip-path="url(#clip630)" style="stroke:#000000; stroke-linecap:round; stroke-linejoin:round; stroke-width:4; stroke-opacity:1; fill:none" points="82.9921,1521.01 82.9921,1502.11 "/>
<polyline clip-path="url(#clip630)" style="stroke:#000000; stroke-linecap:round; stroke-linejoin:round; stroke-width:4; stroke-opacity:1; fill:none" points="500.433,1521.01 500.433,1502.11 "/>
<polyline clip-path="url(#clip630)" style="stroke:#000000; stroke-linecap:round; stroke-linejoin:round; stroke-width:4; stroke-opacity:1; fill:none" points="917.874,1521.01 917.874,1502.11 "/>
<polyline clip-path="url(#clip630)" style="stroke:#000000; stroke-linecap:round; stroke-linejoin:round; stroke-width:4; stroke-opacity:1; fill:none" points="1335.31,1521.01 1335.31,1502.11 "/>
<polyline clip-path="url(#clip630)" style="stroke:#000000; stroke-linecap:round; stroke-linejoin:round; stroke-width:4; stroke-opacity:1; fill:none" points="1752.76,1521.01 1752.76,1502.11 "/>
<path clip-path="url(#clip630)" d="M14.4393 1563.38 L44.115 1563.38 L44.115 1567.31 L14.4393 1567.31 L14.4393 1563.38 Z" fill="#000000" fill-rule="nonzero" fill-opacity="1" /><path clip-path="url(#clip630)" d="M64.2075 1548.73 Q60.5964 1548.73 58.7677 1552.29 Q56.9622 1555.83 56.9622 1562.96 Q56.9622 1570.07 58.7677 1573.63 Q60.5964 1577.18 64.2075 1577.18 Q67.8417 1577.18 69.6473 1573.63 Q71.476 1570.07 71.476 1562.96 Q71.476 1555.83 69.6473 1552.29 Q67.8417 1548.73 64.2075 1548.73 M64.2075 1545.02 Q70.0177 1545.02 73.0732 1549.63 Q76.1519 1554.21 76.1519 1562.96 Q76.1519 1571.69 73.0732 1576.3 Q70.0177 1580.88 64.2075 1580.88 Q58.3974 1580.88 55.3187 1576.3 Q52.2631 1571.69 52.2631 1562.96 Q52.2631 1554.21 55.3187 1549.63 Q58.3974 1545.02 64.2075 1545.02 Z" fill="#000000" fill-rule="nonzero" fill-opacity="1" /><path clip-path="url(#clip630)" d="M84.3694 1574.33 L89.2537 1574.33 L89.2537 1580.21 L84.3694 1580.21 L84.3694 1574.33 Z" fill="#000000" fill-rule="nonzero" fill-opacity="1" /><path clip-path="url(#clip630)" d="M99.4851 1545.65 L117.841 1545.65 L117.841 1549.58 L103.767 1549.58 L103.767 1558.06 Q104.786 1557.71 105.805 1557.55 Q106.823 1557.36 107.842 1557.36 Q113.629 1557.36 117.008 1560.53 Q120.388 1563.7 120.388 1569.12 Q120.388 1574.7 116.916 1577.8 Q113.443 1580.88 107.124 1580.88 Q104.948 1580.88 102.68 1580.51 Q100.434 1580.14 98.0268 1579.4 L98.0268 1574.7 Q100.11 1575.83 102.332 1576.39 Q104.555 1576.94 107.031 1576.94 Q111.036 1576.94 113.374 1574.84 Q115.712 1572.73 115.712 1569.12 Q115.712 1565.51 113.374 1563.4 Q111.036 1561.3 107.031 1561.3 Q105.156 1561.3 103.281 1561.71 Q101.43 1562.13 99.4851 1563.01 L99.4851 1545.65 Z" fill="#000000" fill-rule="nonzero" fill-opacity="1" /><path clip-path="url(#clip630)" d="M139.601 1548.73 Q135.99 1548.73 134.161 1552.29 Q132.355 1555.83 132.355 1562.96 Q132.355 1570.07 134.161 1573.63 Q135.99 1577.18 139.601 1577.18 Q143.235 1577.18 145.04 1573.63 Q146.869 1570.07 146.869 1562.96 Q146.869 1555.83 145.04 1552.29 Q143.235 1548.73 139.601 1548.73 M139.601 1545.02 Q145.411 1545.02 148.466 1549.63 Q151.545 1554.21 151.545 1562.96 Q151.545 1571.69 148.466 1576.3 Q145.411 1580.88 139.601 1580.88 Q133.79 1580.88 130.712 1576.3 Q127.656 1571.69 127.656 1562.96 Q127.656 1554.21 130.712 1549.63 Q133.79 1545.02 139.601 1545.02 Z" fill="#000000" fill-rule="nonzero" fill-opacity="1" /><path clip-path="url(#clip630)" d="M432.378 1563.38 L462.054 1563.38 L462.054 1567.31 L432.378 1567.31 L432.378 1563.38 Z" fill="#000000" fill-rule="nonzero" fill-opacity="1" /><path clip-path="url(#clip630)" d="M482.146 1548.73 Q478.535 1548.73 476.706 1552.29 Q474.901 1555.83 474.901 1562.96 Q474.901 1570.07 476.706 1573.63 Q478.535 1577.18 482.146 1577.18 Q485.78 1577.18 487.586 1573.63 Q489.415 1570.07 489.415 1562.96 Q489.415 1555.83 487.586 1552.29 Q485.78 1548.73 482.146 1548.73 M482.146 1545.02 Q487.956 1545.02 491.012 1549.63 Q494.091 1554.21 494.091 1562.96 Q494.091 1571.69 491.012 1576.3 Q487.956 1580.88 482.146 1580.88 Q476.336 1580.88 473.257 1576.3 Q470.202 1571.69 470.202 1562.96 Q470.202 1554.21 473.257 1549.63 Q476.336 1545.02 482.146 1545.02 Z" fill="#000000" fill-rule="nonzero" fill-opacity="1" /><path clip-path="url(#clip630)" d="M502.308 1574.33 L507.192 1574.33 L507.192 1580.21 L502.308 1580.21 L502.308 1574.33 Z" fill="#000000" fill-rule="nonzero" fill-opacity="1" /><path clip-path="url(#clip630)" d="M521.405 1576.27 L537.725 1576.27 L537.725 1580.21 L515.78 1580.21 L515.78 1576.27 Q518.442 1573.52 523.026 1568.89 Q527.632 1564.24 528.813 1562.89 Q531.058 1560.37 531.938 1558.63 Q532.84 1556.87 532.84 1555.18 Q532.84 1552.43 530.896 1550.69 Q528.975 1548.96 525.873 1548.96 Q523.674 1548.96 521.22 1549.72 Q518.789 1550.49 516.012 1552.04 L516.012 1547.31 Q518.836 1546.18 521.289 1545.6 Q523.743 1545.02 525.78 1545.02 Q531.15 1545.02 534.345 1547.71 Q537.539 1550.39 537.539 1554.88 Q537.539 1557.01 536.729 1558.93 Q535.942 1560.83 533.836 1563.43 Q533.257 1564.1 530.155 1567.31 Q527.053 1570.51 521.405 1576.27 Z" fill="#000000" fill-rule="nonzero" fill-opacity="1" /><path clip-path="url(#clip630)" d="M547.586 1545.65 L565.942 1545.65 L565.942 1549.58 L551.868 1549.58 L551.868 1558.06 Q552.886 1557.71 553.905 1557.55 Q554.924 1557.36 555.942 1557.36 Q561.729 1557.36 565.109 1560.53 Q568.488 1563.7 568.488 1569.12 Q568.488 1574.7 565.016 1577.8 Q561.544 1580.88 555.224 1580.88 Q553.049 1580.88 550.78 1580.51 Q548.535 1580.14 546.127 1579.4 L546.127 1574.7 Q548.211 1575.83 550.433 1576.39 Q552.655 1576.94 555.132 1576.94 Q559.136 1576.94 561.474 1574.84 Q563.812 1572.73 563.812 1569.12 Q563.812 1565.51 561.474 1563.4 Q559.136 1561.3 555.132 1561.3 Q553.257 1561.3 551.382 1561.71 Q549.53 1562.13 547.586 1563.01 L547.586 1545.65 Z" fill="#000000" fill-rule="nonzero" fill-opacity="1" /><path clip-path="url(#clip630)" d="M880.177 1548.73 Q876.566 1548.73 874.738 1552.29 Q872.932 1555.83 872.932 1562.96 Q872.932 1570.07 874.738 1573.63 Q876.566 1577.18 880.177 1577.18 Q883.812 1577.18 885.617 1573.63 Q887.446 1570.07 887.446 1562.96 Q887.446 1555.83 885.617 1552.29 Q883.812 1548.73 880.177 1548.73 M880.177 1545.02 Q885.988 1545.02 889.043 1549.63 Q892.122 1554.21 892.122 1562.96 Q892.122 1571.69 889.043 1576.3 Q885.988 1580.88 880.177 1580.88 Q874.367 1580.88 871.289 1576.3 Q868.233 1571.69 868.233 1562.96 Q868.233 1554.21 871.289 1549.63 Q874.367 1545.02 880.177 1545.02 Z" fill="#000000" fill-rule="nonzero" fill-opacity="1" /><path clip-path="url(#clip630)" d="M900.339 1574.33 L905.224 1574.33 L905.224 1580.21 L900.339 1580.21 L900.339 1574.33 Z" fill="#000000" fill-rule="nonzero" fill-opacity="1" /><path clip-path="url(#clip630)" d="M925.409 1548.73 Q921.798 1548.73 919.969 1552.29 Q918.163 1555.83 918.163 1562.96 Q918.163 1570.07 919.969 1573.63 Q921.798 1577.18 925.409 1577.18 Q929.043 1577.18 930.848 1573.63 Q932.677 1570.07 932.677 1562.96 Q932.677 1555.83 930.848 1552.29 Q929.043 1548.73 925.409 1548.73 M925.409 1545.02 Q931.219 1545.02 934.274 1549.63 Q937.353 1554.21 937.353 1562.96 Q937.353 1571.69 934.274 1576.3 Q931.219 1580.88 925.409 1580.88 Q919.599 1580.88 916.52 1576.3 Q913.464 1571.69 913.464 1562.96 Q913.464 1554.21 916.52 1549.63 Q919.599 1545.02 925.409 1545.02 Z" fill="#000000" fill-rule="nonzero" fill-opacity="1" /><path clip-path="url(#clip630)" d="M955.571 1548.73 Q951.959 1548.73 950.131 1552.29 Q948.325 1555.83 948.325 1562.96 Q948.325 1570.07 950.131 1573.63 Q951.959 1577.18 955.571 1577.18 Q959.205 1577.18 961.01 1573.63 Q962.839 1570.07 962.839 1562.96 Q962.839 1555.83 961.01 1552.29 Q959.205 1548.73 955.571 1548.73 M955.571 1545.02 Q961.381 1545.02 964.436 1549.63 Q967.515 1554.21 967.515 1562.96 Q967.515 1571.69 964.436 1576.3 Q961.381 1580.88 955.571 1580.88 Q949.76 1580.88 946.682 1576.3 Q943.626 1571.69 943.626 1562.96 Q943.626 1554.21 946.682 1549.63 Q949.76 1545.02 955.571 1545.02 Z" fill="#000000" fill-rule="nonzero" fill-opacity="1" /><path clip-path="url(#clip630)" d="M1298.12 1548.73 Q1294.5 1548.73 1292.68 1552.29 Q1290.87 1555.83 1290.87 1562.96 Q1290.87 1570.07 1292.68 1573.63 Q1294.5 1577.18 1298.12 1577.18 Q1301.75 1577.18 1303.56 1573.63 Q1305.38 1570.07 1305.38 1562.96 Q1305.38 1555.83 1303.56 1552.29 Q1301.75 1548.73 1298.12 1548.73 M1298.12 1545.02 Q1303.93 1545.02 1306.98 1549.63 Q1310.06 1554.21 1310.06 1562.96 Q1310.06 1571.69 1306.98 1576.3 Q1303.93 1580.88 1298.12 1580.88 Q1292.31 1580.88 1289.23 1576.3 Q1286.17 1571.69 1286.17 1562.96 Q1286.17 1554.21 1289.23 1549.63 Q1292.31 1545.02 1298.12 1545.02 Z" fill="#000000" fill-rule="nonzero" fill-opacity="1" /><path clip-path="url(#clip630)" d="M1318.28 1574.33 L1323.16 1574.33 L1323.16 1580.21 L1318.28 1580.21 L1318.28 1574.33 Z" fill="#000000" fill-rule="nonzero" fill-opacity="1" /><path clip-path="url(#clip630)" d="M1337.38 1576.27 L1353.69 1576.27 L1353.69 1580.21 L1331.75 1580.21 L1331.75 1576.27 Q1334.41 1573.52 1339 1568.89 Q1343.6 1564.24 1344.78 1562.89 Q1347.03 1560.37 1347.91 1558.63 Q1348.81 1556.87 1348.81 1555.18 Q1348.81 1552.43 1346.87 1550.69 Q1344.94 1548.96 1341.84 1548.96 Q1339.64 1548.96 1337.19 1549.72 Q1334.76 1550.49 1331.98 1552.04 L1331.98 1547.31 Q1334.81 1546.18 1337.26 1545.6 Q1339.71 1545.02 1341.75 1545.02 Q1347.12 1545.02 1350.31 1547.71 Q1353.51 1550.39 1353.51 1554.88 Q1353.51 1557.01 1352.7 1558.93 Q1351.91 1560.83 1349.81 1563.43 Q1349.23 1564.1 1346.13 1567.31 Q1343.02 1570.51 1337.38 1576.27 Z" fill="#000000" fill-rule="nonzero" fill-opacity="1" /><path clip-path="url(#clip630)" d="M1363.56 1545.65 L1381.91 1545.65 L1381.91 1549.58 L1367.84 1549.58 L1367.84 1558.06 Q1368.86 1557.71 1369.87 1557.55 Q1370.89 1557.36 1371.91 1557.36 Q1377.7 1557.36 1381.08 1560.53 Q1384.46 1563.7 1384.46 1569.12 Q1384.46 1574.7 1380.99 1577.8 Q1377.51 1580.88 1371.19 1580.88 Q1369.02 1580.88 1366.75 1580.51 Q1364.5 1580.14 1362.1 1579.4 L1362.1 1574.7 Q1364.18 1575.83 1366.4 1576.39 Q1368.62 1576.94 1371.1 1576.94 Q1375.11 1576.94 1377.44 1574.84 Q1379.78 1572.73 1379.78 1569.12 Q1379.78 1565.51 1377.44 1563.4 Q1375.11 1561.3 1371.1 1561.3 Q1369.23 1561.3 1367.35 1561.71 Q1365.5 1562.13 1363.56 1563.01 L1363.56 1545.65 Z" fill="#000000" fill-rule="nonzero" fill-opacity="1" /><path clip-path="url(#clip630)" d="M1715.06 1548.73 Q1711.45 1548.73 1709.62 1552.29 Q1707.81 1555.83 1707.81 1562.96 Q1707.81 1570.07 1709.62 1573.63 Q1711.45 1577.18 1715.06 1577.18 Q1718.69 1577.18 1720.5 1573.63 Q1722.33 1570.07 1722.33 1562.96 Q1722.33 1555.83 1720.5 1552.29 Q1718.69 1548.73 1715.06 1548.73 M1715.06 1545.02 Q1720.87 1545.02 1723.93 1549.63 Q1727 1554.21 1727 1562.96 Q1727 1571.69 1723.93 1576.3 Q1720.87 1580.88 1715.06 1580.88 Q1709.25 1580.88 1706.17 1576.3 Q1703.11 1571.69 1703.11 1562.96 Q1703.11 1554.21 1706.17 1549.63 Q1709.25 1545.02 1715.06 1545.02 Z" fill="#000000" fill-rule="nonzero" fill-opacity="1" /><path clip-path="url(#clip630)" d="M1735.22 1574.33 L1740.11 1574.33 L1740.11 1580.21 L1735.22 1580.21 L1735.22 1574.33 Z" fill="#000000" fill-rule="nonzero" fill-opacity="1" /><path clip-path="url(#clip630)" d="M1750.34 1545.65 L1768.69 1545.65 L1768.69 1549.58 L1754.62 1549.58 L1754.62 1558.06 Q1755.64 1557.71 1756.66 1557.55 Q1757.67 1557.36 1758.69 1557.36 Q1764.48 1557.36 1767.86 1560.53 Q1771.24 1563.7 1771.24 1569.12 Q1771.24 1574.7 1767.77 1577.8 Q1764.3 1580.88 1757.98 1580.88 Q1755.8 1580.88 1753.53 1580.51 Q1751.29 1580.14 1748.88 1579.4 L1748.88 1574.7 Q1750.96 1575.83 1753.18 1576.39 Q1755.41 1576.94 1757.88 1576.94 Q1761.89 1576.94 1764.23 1574.84 Q1766.56 1572.73 1766.56 1569.12 Q1766.56 1565.51 1764.23 1563.4 Q1761.89 1561.3 1757.88 1561.3 Q1756.01 1561.3 1754.13 1561.71 Q1752.28 1562.13 1750.34 1563.01 L1750.34 1545.65 Z" fill="#000000" fill-rule="nonzero" fill-opacity="1" /><path clip-path="url(#clip630)" d="M1790.45 1548.73 Q1786.84 1548.73 1785.01 1552.29 Q1783.21 1555.83 1783.21 1562.96 Q1783.21 1570.07 1785.01 1573.63 Q1786.84 1577.18 1790.45 1577.18 Q1794.09 1577.18 1795.89 1573.63 Q1797.72 1570.07 1797.72 1562.96 Q1797.72 1555.83 1795.89 1552.29 Q1794.09 1548.73 1790.45 1548.73 M1790.45 1545.02 Q1796.26 1545.02 1799.32 1549.63 Q1802.4 1554.21 1802.4 1562.96 Q1802.4 1571.69 1799.32 1576.3 Q1796.26 1580.88 1790.45 1580.88 Q1784.64 1580.88 1781.56 1576.3 Q1778.51 1571.69 1778.51 1562.96 Q1778.51 1554.21 1781.56 1549.63 Q1784.64 1545.02 1790.45 1545.02 Z" fill="#000000" fill-rule="nonzero" fill-opacity="1" /><polyline clip-path="url(#clip632)" style="stroke:#000000; stroke-linecap:round; stroke-linejoin:round; stroke-width:2; stroke-opacity:0.1; fill:none" points="82.9921,1521.01 1752.76,1521.01 "/>
<polyline clip-path="url(#clip632)" style="stroke:#000000; stroke-linecap:round; stroke-linejoin:round; stroke-width:2; stroke-opacity:0.1; fill:none" points="82.9921,1152.57 1752.76,1152.57 "/>
<polyline clip-path="url(#clip632)" style="stroke:#000000; stroke-linecap:round; stroke-linejoin:round; stroke-width:2; stroke-opacity:0.1; fill:none" points="82.9921,784.126 1752.76,784.126 "/>
<polyline clip-path="url(#clip632)" style="stroke:#000000; stroke-linecap:round; stroke-linejoin:round; stroke-width:2; stroke-opacity:0.1; fill:none" points="82.9921,415.685 1752.76,415.685 "/>
<polyline clip-path="url(#clip632)" style="stroke:#000000; stroke-linecap:round; stroke-linejoin:round; stroke-width:2; stroke-opacity:0.1; fill:none" points="82.9921,47.2441 1752.76,47.2441 "/>
<polyline clip-path="url(#clip630)" style="stroke:#000000; stroke-linecap:round; stroke-linejoin:round; stroke-width:4; stroke-opacity:1; fill:none" points="82.9921,1521.01 82.9921,47.2441 "/>
<polyline clip-path="url(#clip630)" style="stroke:#000000; stroke-linecap:round; stroke-linejoin:round; stroke-width:4; stroke-opacity:1; fill:none" points="82.9921,1521.01 99.8684,1521.01 "/>
<polyline clip-path="url(#clip630)" style="stroke:#000000; stroke-linecap:round; stroke-linejoin:round; stroke-width:4; stroke-opacity:1; fill:none" points="82.9921,1152.57 99.8684,1152.57 "/>
<polyline clip-path="url(#clip630)" style="stroke:#000000; stroke-linecap:round; stroke-linejoin:round; stroke-width:4; stroke-opacity:1; fill:none" points="82.9921,784.126 99.8684,784.126 "/>
<polyline clip-path="url(#clip630)" style="stroke:#000000; stroke-linecap:round; stroke-linejoin:round; stroke-width:4; stroke-opacity:1; fill:none" points="82.9921,415.685 99.8684,415.685 "/>
<polyline clip-path="url(#clip630)" style="stroke:#000000; stroke-linecap:round; stroke-linejoin:round; stroke-width:4; stroke-opacity:1; fill:none" points="82.9921,47.2441 99.8684,47.2441 "/>
<path clip-path="url(#clip630)" d="M27.5235 1589.56 L27.5235 1559.88 L31.4587 1559.88 L31.4587 1589.56 L27.5235 1589.56 Z" fill="#000000" fill-rule="nonzero" fill-opacity="1" /><path clip-path="url(#clip630)" d="M12.8708 1539.79 Q12.8708 1543.4 16.4356 1545.23 Q19.9773 1547.04 27.1068 1547.04 Q34.2133 1547.04 37.7781 1545.23 Q41.3197 1543.4 41.3197 1539.79 Q41.3197 1536.16 37.7781 1534.35 Q34.2133 1532.52 27.1068 1532.52 Q19.9773 1532.52 16.4356 1534.35 Q12.8708 1536.16 12.8708 1539.79 M9.16713 1539.79 Q9.16713 1533.98 13.7736 1530.93 Q18.3569 1527.85 27.1068 1527.85 Q35.8337 1527.85 40.4401 1530.93 Q45.0234 1533.98 45.0234 1539.79 Q45.0234 1545.6 40.4401 1548.68 Q35.8337 1551.74 27.1068 1551.74 Q18.3569 1551.74 13.7736 1548.68 Q9.16713 1545.6 9.16713 1539.79 Z" fill="#000000" fill-rule="nonzero" fill-opacity="1" /><path clip-path="url(#clip630)" d="M38.4725 1519.63 L38.4725 1514.75 L44.3521 1514.75 L44.3521 1519.63 L38.4725 1519.63 Z" fill="#000000" fill-rule="nonzero" fill-opacity="1" /><path clip-path="url(#clip630)" d="M9.79213 1504.51 L9.79213 1486.16 L13.7273 1486.16 L13.7273 1500.23 L22.1995 1500.23 Q21.8522 1499.21 21.6902 1498.2 Q21.505 1497.18 21.505 1496.16 Q21.505 1490.37 24.6763 1486.99 Q27.8476 1483.61 33.2642 1483.61 Q38.8429 1483.61 41.9447 1487.08 Q45.0234 1490.56 45.0234 1496.88 Q45.0234 1499.05 44.6531 1501.32 Q44.2827 1503.57 43.5419 1505.97 L38.8429 1505.97 Q39.9771 1503.89 40.5327 1501.67 Q41.0883 1499.45 41.0883 1496.97 Q41.0883 1492.96 38.9818 1490.63 Q36.8753 1488.29 33.2642 1488.29 Q29.6531 1488.29 27.5467 1490.63 Q25.4402 1492.96 25.4402 1496.97 Q25.4402 1498.84 25.8569 1500.72 Q26.2735 1502.57 27.1531 1504.51 L9.79213 1504.51 Z" fill="#000000" fill-rule="nonzero" fill-opacity="1" /><path clip-path="url(#clip630)" d="M12.8708 1464.4 Q12.8708 1468.01 16.4356 1469.84 Q19.9773 1471.64 27.1068 1471.64 Q34.2133 1471.64 37.7781 1469.84 Q41.3197 1468.01 41.3197 1464.4 Q41.3197 1460.77 37.7781 1458.96 Q34.2133 1457.13 27.1068 1457.13 Q19.9773 1457.13 16.4356 1458.96 Q12.8708 1460.77 12.8708 1464.4 M9.16713 1464.4 Q9.16713 1458.59 13.7736 1455.53 Q18.3569 1452.46 27.1068 1452.46 Q35.8337 1452.46 40.4401 1455.53 Q45.0234 1458.59 45.0234 1464.4 Q45.0234 1470.21 40.4401 1473.29 Q35.8337 1476.34 27.1068 1476.34 Q18.3569 1476.34 13.7736 1473.29 Q9.16713 1470.21 9.16713 1464.4 Z" fill="#000000" fill-rule="nonzero" fill-opacity="1" /><path clip-path="url(#clip630)" d="M27.5235 1220.62 L27.5235 1190.95 L31.4587 1190.95 L31.4587 1220.62 L27.5235 1220.62 Z" fill="#000000" fill-rule="nonzero" fill-opacity="1" /><path clip-path="url(#clip630)" d="M12.8708 1170.85 Q12.8708 1174.46 16.4356 1176.29 Q19.9773 1178.1 27.1068 1178.1 Q34.2133 1178.1 37.7781 1176.29 Q41.3197 1174.46 41.3197 1170.85 Q41.3197 1167.22 37.7781 1165.41 Q34.2133 1163.59 27.1068 1163.59 Q19.9773 1163.59 16.4356 1165.41 Q12.8708 1167.22 12.8708 1170.85 M9.16713 1170.85 Q9.16713 1165.04 13.7736 1161.99 Q18.3569 1158.91 27.1068 1158.91 Q35.8337 1158.91 40.4401 1161.99 Q45.0234 1165.04 45.0234 1170.85 Q45.0234 1176.66 40.4401 1179.74 Q35.8337 1182.8 27.1068 1182.8 Q18.3569 1182.8 13.7736 1179.74 Q9.16713 1176.66 9.16713 1170.85 Z" fill="#000000" fill-rule="nonzero" fill-opacity="1" /><path clip-path="url(#clip630)" d="M38.4725 1150.69 L38.4725 1145.81 L44.3521 1145.81 L44.3521 1150.69 L38.4725 1150.69 Z" fill="#000000" fill-rule="nonzero" fill-opacity="1" /><path clip-path="url(#clip630)" d="M40.417 1131.59 L40.417 1115.28 L44.3521 1115.28 L44.3521 1137.22 L40.417 1137.22 Q37.6623 1134.56 33.0327 1129.97 Q28.38 1125.37 27.0374 1124.19 Q24.5143 1121.94 22.7782 1121.06 Q21.0189 1120.16 19.3291 1120.16 Q16.5745 1120.16 14.8384 1122.1 Q13.1023 1124.03 13.1023 1127.13 Q13.1023 1129.33 13.8662 1131.78 Q14.6301 1134.21 16.181 1136.99 L11.4588 1136.99 Q10.3245 1134.16 9.74583 1131.71 Q9.16713 1129.26 9.16713 1127.22 Q9.16713 1121.85 11.8523 1118.66 Q14.5375 1115.46 19.0282 1115.46 Q21.1578 1115.46 23.0791 1116.27 Q24.9772 1117.06 27.5698 1119.16 Q28.2411 1119.74 31.4587 1122.84 Q34.6531 1125.95 40.417 1131.59 Z" fill="#000000" fill-rule="nonzero" fill-opacity="1" /><path clip-path="url(#clip630)" d="M9.79213 1105.41 L9.79213 1087.06 L13.7273 1087.06 L13.7273 1101.13 L22.1995 1101.13 Q21.8522 1100.11 21.6902 1099.09 Q21.505 1098.08 21.505 1097.06 Q21.505 1091.27 24.6763 1087.89 Q27.8476 1084.51 33.2642 1084.51 Q38.8429 1084.51 41.9447 1087.98 Q45.0234 1091.46 45.0234 1097.78 Q45.0234 1099.95 44.6531 1102.22 Q44.2827 1104.47 43.5419 1106.87 L38.8429 1106.87 Q39.9771 1104.79 40.5327 1102.57 Q41.0883 1100.34 41.0883 1097.87 Q41.0883 1093.86 38.9818 1091.53 Q36.8753 1089.19 33.2642 1089.19 Q29.6531 1089.19 27.5467 1091.53 Q25.4402 1093.86 25.4402 1097.87 Q25.4402 1099.74 25.8569 1101.62 Q26.2735 1103.47 27.1531 1105.41 L9.79213 1105.41 Z" fill="#000000" fill-rule="nonzero" fill-opacity="1" /><path clip-path="url(#clip630)" d="M12.8708 821.823 Q12.8708 825.434 16.4356 827.262 Q19.9773 829.068 27.1068 829.068 Q34.2133 829.068 37.7781 827.262 Q41.3197 825.434 41.3197 821.823 Q41.3197 818.188 37.7781 816.383 Q34.2133 814.554 27.1068 814.554 Q19.9773 814.554 16.4356 816.383 Q12.8708 818.188 12.8708 821.823 M9.16713 821.823 Q9.16713 816.012 13.7736 812.957 Q18.3569 809.878 27.1068 809.878 Q35.8337 809.878 40.4401 812.957 Q45.0234 816.012 45.0234 821.823 Q45.0234 827.633 40.4401 830.711 Q35.8337 833.767 27.1068 833.767 Q18.3569 833.767 13.7736 830.711 Q9.16713 827.633 9.16713 821.823 Z" fill="#000000" fill-rule="nonzero" fill-opacity="1" /><path clip-path="url(#clip630)" d="M38.4725 801.661 L38.4725 796.776 L44.3521 796.776 L44.3521 801.661 L38.4725 801.661 Z" fill="#000000" fill-rule="nonzero" fill-opacity="1" /><path clip-path="url(#clip630)" d="M12.8708 776.591 Q12.8708 780.202 16.4356 782.031 Q19.9773 783.837 27.1068 783.837 Q34.2133 783.837 37.7781 782.031 Q41.3197 780.202 41.3197 776.591 Q41.3197 772.957 37.7781 771.152 Q34.2133 769.323 27.1068 769.323 Q19.9773 769.323 16.4356 771.152 Q12.8708 772.957 12.8708 776.591 M9.16713 776.591 Q9.16713 770.781 13.7736 767.726 Q18.3569 764.647 27.1068 764.647 Q35.8337 764.647 40.4401 767.726 Q45.0234 770.781 45.0234 776.591 Q45.0234 782.401 40.4401 785.48 Q35.8337 788.536 27.1068 788.536 Q18.3569 788.536 13.7736 785.48 Q9.16713 782.401 9.16713 776.591 Z" fill="#000000" fill-rule="nonzero" fill-opacity="1" /><path clip-path="url(#clip630)" d="M12.8708 746.429 Q12.8708 750.041 16.4356 751.869 Q19.9773 753.675 27.1068 753.675 Q34.2133 753.675 37.7781 751.869 Q41.3197 750.041 41.3197 746.429 Q41.3197 742.795 37.7781 740.99 Q34.2133 739.161 27.1068 739.161 Q19.9773 739.161 16.4356 740.99 Q12.8708 742.795 12.8708 746.429 M9.16713 746.429 Q9.16713 740.619 13.7736 737.564 Q18.3569 734.485 27.1068 734.485 Q35.8337 734.485 40.4401 737.564 Q45.0234 740.619 45.0234 746.429 Q45.0234 752.24 40.4401 755.318 Q35.8337 758.374 27.1068 758.374 Q18.3569 758.374 13.7736 755.318 Q9.16713 752.24 9.16713 746.429 Z" fill="#000000" fill-rule="nonzero" fill-opacity="1" /><path clip-path="url(#clip630)" d="M12.8708 452.884 Q12.8708 456.495 16.4356 458.324 Q19.9773 460.129 27.1068 460.129 Q34.2133 460.129 37.7781 458.324 Q41.3197 456.495 41.3197 452.884 Q41.3197 449.25 37.7781 447.444 Q34.2133 445.615 27.1068 445.615 Q19.9773 445.615 16.4356 447.444 Q12.8708 449.25 12.8708 452.884 M9.16713 452.884 Q9.16713 447.074 13.7736 444.018 Q18.3569 440.94 27.1068 440.94 Q35.8337 440.94 40.4401 444.018 Q45.0234 447.074 45.0234 452.884 Q45.0234 458.694 40.4401 461.773 Q35.8337 464.828 27.1068 464.828 Q18.3569 464.828 13.7736 461.773 Q9.16713 458.694 9.16713 452.884 Z" fill="#000000" fill-rule="nonzero" fill-opacity="1" /><path clip-path="url(#clip630)" d="M38.4725 432.722 L38.4725 427.838 L44.3521 427.838 L44.3521 432.722 L38.4725 432.722 Z" fill="#000000" fill-rule="nonzero" fill-opacity="1" /><path clip-path="url(#clip630)" d="M40.417 413.625 L40.417 397.306 L44.3521 397.306 L44.3521 419.25 L40.417 419.25 Q37.6623 416.588 33.0327 412.005 Q28.38 407.398 27.0374 406.217 Q24.5143 403.972 22.7782 403.093 Q21.0189 402.19 19.3291 402.19 Q16.5745 402.19 14.8384 404.134 Q13.1023 406.055 13.1023 409.157 Q13.1023 411.356 13.8662 413.81 Q14.6301 416.241 16.181 419.018 L11.4588 419.018 Q10.3245 416.194 9.74583 413.741 Q9.16713 411.287 9.16713 409.25 Q9.16713 403.88 11.8523 400.685 Q14.5375 397.491 19.0282 397.491 Q21.1578 397.491 23.0791 398.301 Q24.9772 399.088 27.5698 401.194 Q28.2411 401.773 31.4587 404.875 Q34.6531 407.977 40.417 413.625 Z" fill="#000000" fill-rule="nonzero" fill-opacity="1" /><path clip-path="url(#clip630)" d="M9.79213 387.444 L9.79213 369.088 L13.7273 369.088 L13.7273 383.162 L22.1995 383.162 Q21.8522 382.144 21.6902 381.125 Q21.505 380.107 21.505 379.088 Q21.505 373.301 24.6763 369.921 Q27.8476 366.542 33.2642 366.542 Q38.8429 366.542 41.9447 370.014 Q45.0234 373.486 45.0234 379.806 Q45.0234 381.982 44.6531 384.25 Q44.2827 386.495 43.5419 388.903 L38.8429 388.903 Q39.9771 386.819 40.5327 384.597 Q41.0883 382.375 41.0883 379.898 Q41.0883 375.894 38.9818 373.556 Q36.8753 371.218 33.2642 371.218 Q29.6531 371.218 27.5467 373.556 Q25.4402 375.894 25.4402 379.898 Q25.4402 381.773 25.8569 383.648 Q26.2735 385.5 27.1531 387.444 L9.79213 387.444 Z" fill="#000000" fill-rule="nonzero" fill-opacity="1" /><path clip-path="url(#clip630)" d="M12.8708 84.9407 Q12.8708 88.5517 16.4356 90.3804 Q19.9773 92.186 27.1068 92.186 Q34.2133 92.186 37.7781 90.3804 Q41.3197 88.5517 41.3197 84.9407 Q41.3197 81.3064 37.7781 79.5009 Q34.2133 77.6722 27.1068 77.6722 Q19.9773 77.6722 16.4356 79.5009 Q12.8708 81.3064 12.8708 84.9407 M9.16713 84.9407 Q9.16713 79.1305 13.7736 76.075 Q18.3569 72.9963 27.1068 72.9963 Q35.8337 72.9963 40.4401 76.075 Q45.0234 79.1305 45.0234 84.9407 Q45.0234 90.7508 40.4401 93.8295 Q35.8337 96.885 27.1068 96.885 Q18.3569 96.885 13.7736 93.8295 Q9.16713 90.7508 9.16713 84.9407 Z" fill="#000000" fill-rule="nonzero" fill-opacity="1" /><path clip-path="url(#clip630)" d="M38.4725 64.7787 L38.4725 59.8945 L44.3521 59.8945 L44.3521 64.7787 L38.4725 64.7787 Z" fill="#000000" fill-rule="nonzero" fill-opacity="1" /><path clip-path="url(#clip630)" d="M9.79213 49.6631 L9.79213 31.3067 L13.7273 31.3067 L13.7273 45.3807 L22.1995 45.3807 Q21.8522 44.3622 21.6902 43.3437 Q21.505 42.3251 21.505 41.3066 Q21.505 35.5196 24.6763 32.14 Q27.8476 28.7604 33.2642 28.7604 Q38.8429 28.7604 41.9447 32.2326 Q45.0234 35.7048 45.0234 42.0242 Q45.0234 44.2001 44.6531 46.4686 Q44.2827 48.714 43.5419 51.1214 L38.8429 51.1214 Q39.9771 49.0381 40.5327 46.8159 Q41.0883 44.5936 41.0883 42.1168 Q41.0883 38.1122 38.9818 35.7742 Q36.8753 33.4363 33.2642 33.4363 Q29.6531 33.4363 27.5467 35.7742 Q25.4402 38.1122 25.4402 42.1168 Q25.4402 43.9918 25.8569 45.8668 Q26.2735 47.7186 27.1531 49.6631 L9.79213 49.6631 Z" fill="#000000" fill-rule="nonzero" fill-opacity="1" /><path clip-path="url(#clip630)" d="M12.8708 9.54754 Q12.8708 13.1586 16.4356 14.9873 Q19.9773 16.7929 27.1068 16.7929 Q34.2133 16.7929 37.7781 14.9873 Q41.3197 13.1586 41.3197 9.54754 Q41.3197 5.9133 37.7781 4.10775 Q34.2133 2.27906 27.1068 2.27906 Q19.9773 2.27906 16.4356 4.10775 Q12.8708 5.9133 12.8708 9.54754 M9.16713 9.54754 Q9.16713 3.73738 13.7736 0.681844 Q18.3569 -2.39684 27.1068 -2.39684 Q35.8337 -2.39684 40.4401 0.681844 Q45.0234 3.73738 45.0234 9.54754 Q45.0234 15.3577 40.4401 18.4364 Q35.8337 21.4919 27.1068 21.4919 Q18.3569 21.4919 13.7736 18.4364 Q9.16713 15.3577 9.16713 9.54754 Z" fill="#000000" fill-rule="nonzero" fill-opacity="1" /><polyline clip-path="url(#clip632)" style="stroke:#090621; stroke-linecap:round; stroke-linejoin:round; stroke-width:4; stroke-opacity:1; fill:none" points="901.176,1388.16 900.274,1373.63 899.358,1358.89 898.442,1344.16 897.526,1329.42 896.609,1314.68 895.691,1299.94 894.772,1285.21 893.852,1270.47 892.931,1255.73 892.008,1240.99 891.084,1226.26 890.158,1211.52 889.229,1196.78 888.298,1182.04 887.365,1167.3 886.428,1152.57 885.488,1137.83 884.544,1123.09 884.479,1122.1 882.289,1108.35 879.925,1093.62 877.548,1078.88 875.157,1064.14 872.749,1049.4 870.323,1034.67 867.877,1019.93 867.781,1019.38 863.557,1005.19 859.117,990.453 854.625,975.715 851.083,964.407 849.536,960.978 842.464,946.24 835.269,931.502 834.386,929.846 825.335,916.765 817.688,906.317 813.873,902.027 800.991,888.905 799.16,887.289 784.293,875.919 779.432,872.552 767.595,865.803 752.775,857.814 750.898,857.034 734.2,850.684 717.502,844.442 713.617,843.077 700.805,839.951 684.107,835.986 667.409,832.067 651.329,828.339 650.712,828.254 634.014,826.095 617.317,823.954 600.619,821.829 583.921,819.718 567.224,817.62 550.526,815.534 534.946,813.601 533.828,813.543 517.131,812.71 500.433,811.881 483.735,811.054 467.038,810.23 450.34,809.408 433.643,808.589 416.945,807.771 400.247,806.956 383.55,806.141 366.852,805.328 350.154,804.516 333.457,803.705 316.759,802.895 300.061,802.086 283.364,801.277 266.666,800.468 249.969,799.66 233.504,798.864 "/>
<polyline clip-path="url(#clip632)" style="stroke:#090621; stroke-linecap:round; stroke-linejoin:round; stroke-width:4; stroke-opacity:1; fill:none" points="233.504,769.388 249.969,768.592 266.666,767.784 283.364,766.975 300.061,766.166 316.759,765.357 333.457,764.547 350.154,763.736 366.852,762.924 383.55,762.111 400.247,761.296 416.945,760.48 433.643,759.663 450.34,758.844 467.038,758.022 483.735,757.198 500.433,756.371 517.131,755.542 533.828,754.709 534.946,754.651 550.526,752.718 567.224,750.632 583.921,748.534 600.619,746.423 617.317,744.298 634.014,742.157 650.712,739.997 651.329,739.913 667.409,736.185 684.107,732.266 700.805,728.301 713.617,725.175 717.502,723.81 734.2,717.568 750.898,711.218 752.775,710.438 767.595,702.449 779.432,695.7 784.293,692.333 799.16,680.963 800.991,679.347 813.873,666.225 817.688,661.935 825.335,651.487 834.386,638.406 835.269,636.75 842.464,622.012 849.536,607.274 851.083,603.845 854.625,592.537 859.117,577.799 863.557,563.061 867.781,548.868 867.877,548.324 870.323,533.586 872.749,518.849 875.157,504.111 877.548,489.373 879.925,474.636 882.289,459.898 884.479,446.147 884.544,445.16 885.488,430.423 886.428,415.685 887.365,400.947 888.298,386.21 889.229,371.472 890.158,356.734 891.084,341.997 892.008,327.259 892.931,312.522 893.852,297.784 894.772,283.046 895.691,268.309 896.609,253.571 897.526,238.833 898.442,224.096 899.358,209.358 900.274,194.62 901.176,180.089 "/>
<polyline clip-path="url(#clip632)" style="stroke:#090621; stroke-linecap:round; stroke-linejoin:round; stroke-width:4; stroke-opacity:1; fill:none" points="934.572,180.089 935.474,194.62 936.39,209.358 937.306,224.096 938.222,238.833 939.139,253.571 940.057,268.309 940.976,283.046 941.896,297.784 942.817,312.522 943.74,327.259 944.664,341.997 945.59,356.734 946.519,371.472 947.45,386.21 948.383,400.947 949.32,415.685 950.26,430.423 951.204,445.16 951.269,446.147 953.459,459.898 955.823,474.636 958.2,489.373 960.591,504.111 962.999,518.849 965.425,533.586 967.871,548.324 967.967,548.868 972.191,563.061 976.631,577.799 981.123,592.537 984.665,603.845 986.212,607.274 993.284,622.012 1000.48,636.75 1001.36,638.406 1010.41,651.487 1018.06,661.935 1021.87,666.225 1034.76,679.347 1036.59,680.963 1051.46,692.333 1056.32,695.7 1068.15,702.449 1082.97,710.438 1084.85,711.218 1101.55,717.568 1118.25,723.81 1122.13,725.175 1134.94,728.301 1151.64,732.266 1168.34,736.185 1184.42,739.913 1185.04,739.997 1201.73,742.157 1218.43,744.298 1235.13,746.423 1251.83,748.534 1268.52,750.632 1285.22,752.718 1300.8,754.651 1301.92,754.709 1318.62,755.542 1335.31,756.371 1352.01,757.198 1368.71,758.022 1385.41,758.844 1402.11,759.663 1418.8,760.48 1435.5,761.296 1452.2,762.111 1468.9,762.924 1485.59,763.736 1502.29,764.547 1518.99,765.357 1535.69,766.166 1552.38,766.975 1569.08,767.784 1585.78,768.592 1602.24,769.388 "/>
<polyline clip-path="url(#clip632)" style="stroke:#090621; stroke-linecap:round; stroke-linejoin:round; stroke-width:4; stroke-opacity:1; fill:none" points="1602.24,798.864 1585.78,799.66 1569.08,800.468 1552.38,801.277 1535.69,802.086 1518.99,802.895 1502.29,803.705 1485.59,804.516 1468.9,805.328 1452.2,806.141 1435.5,806.956 1418.8,807.771 1402.11,808.589 1385.41,809.408 1368.71,810.23 1352.01,811.054 1335.31,811.881 1318.62,812.71 1301.92,813.543 1300.8,813.601 1285.22,815.534 1268.52,817.62 1251.83,819.718 1235.13,821.829 1218.43,823.954 1201.73,826.095 1185.04,828.254 1184.42,828.339 1168.34,832.067 1151.64,835.986 1134.94,839.951 1122.13,843.077 1118.25,844.442 1101.55,850.684 1084.85,857.034 1082.97,857.814 1068.15,865.803 1056.32,872.552 1051.46,875.919 1036.59,887.289 1034.76,888.905 1021.87,902.027 1018.06,906.317 1010.41,916.765 1001.36,929.846 1000.48,931.502 993.284,946.24 986.212,960.978 984.665,964.407 981.123,975.715 976.631,990.453 972.191,1005.19 967.967,1019.38 967.871,1019.93 965.425,1034.67 962.999,1049.4 960.591,1064.14 958.2,1078.88 955.823,1093.62 953.459,1108.35 951.269,1122.1 951.204,1123.09 950.26,1137.83 949.32,1152.57 948.383,1167.3 947.45,1182.04 946.519,1196.78 945.59,1211.52 944.664,1226.26 943.74,1240.99 942.817,1255.73 941.896,1270.47 940.976,1285.21 940.057,1299.94 939.139,1314.68 938.222,1329.42 937.306,1344.16 936.39,1358.89 935.474,1373.63 934.572,1388.16 "/>
<polyline clip-path="url(#clip632)" style="stroke:#1f0c47; stroke-linecap:round; stroke-linejoin:round; stroke-width:4; stroke-opacity:1; fill:none" points="934.572,1047.88 936.277,1034.67 938.203,1019.93 940.147,1005.19 942.112,990.453 944.1,975.715 946.115,960.978 948.16,946.24 950.241,931.502 951.269,924.643 953.982,916.765 959.369,902.027 964.903,887.289 967.967,879.797 972.684,872.552 983.263,857.814 984.665,856.198 999.531,843.077 1001.36,841.839 1018.06,832.503 1026.27,828.339 1034.76,825.634 1051.46,820.75 1068.15,815.996 1077.08,813.601 1084.85,812.693 1101.55,810.857 1118.25,809.052 1134.94,807.274 1151.64,805.519 1168.34,803.785 1185.04,802.069 1201.73,800.368 1216.71,798.864 "/>
<polyline clip-path="url(#clip632)" style="stroke:#1f0c47; stroke-linecap:round; stroke-linejoin:round; stroke-width:4; stroke-opacity:1; fill:none" points="1216.71,769.388 1201.73,767.884 1185.04,766.183 1168.34,764.467 1151.64,762.733 1134.94,760.978 1118.25,759.2 1101.55,757.395 1084.85,755.559 1077.08,754.651 1068.15,752.256 1051.46,747.502 1034.76,742.617 1026.27,739.913 1018.06,735.749 1001.36,726.413 999.531,725.175 984.665,712.054 983.263,710.438 972.684,695.7 967.967,688.455 964.903,680.963 959.369,666.225 953.982,651.487 951.269,643.609 950.241,636.75 948.16,622.012 946.115,607.274 944.1,592.537 942.112,577.799 940.147,563.061 938.203,548.324 936.277,533.586 934.572,520.371 "/>
<polyline clip-path="url(#clip632)" style="stroke:#1f0c47; stroke-linecap:round; stroke-linejoin:round; stroke-width:4; stroke-opacity:1; fill:none" points="901.176,520.371 899.471,533.586 897.545,548.324 895.601,563.061 893.636,577.799 891.648,592.537 889.633,607.274 887.588,622.012 885.507,636.75 884.479,643.609 881.766,651.487 876.379,666.225 870.845,680.963 867.781,688.455 863.064,695.7 852.485,710.438 851.083,712.054 836.217,725.175 834.386,726.413 817.688,735.749 809.48,739.913 800.991,742.617 784.293,747.502 767.595,752.256 758.669,754.651 750.898,755.559 734.2,757.395 717.502,759.2 700.805,760.978 684.107,762.733 667.409,764.467 650.712,766.183 634.014,767.884 619.042,769.388 "/>
<polyline clip-path="url(#clip632)" style="stroke:#1f0c47; stroke-linecap:round; stroke-linejoin:round; stroke-width:4; stroke-opacity:1; fill:none" points="619.042,798.864 634.014,800.368 650.712,802.069 667.409,803.785 684.107,805.519 700.805,807.274 717.502,809.052 734.2,810.857 750.898,812.693 758.669,813.601 767.595,815.996 784.293,820.75 800.991,825.634 809.48,828.339 817.688,832.503 834.386,841.839 836.217,843.077 851.083,856.198 852.485,857.814 863.064,872.552 867.781,879.797 870.845,887.289 876.379,902.027 881.766,916.765 884.479,924.643 885.507,931.502 887.588,946.24 889.633,960.978 891.648,975.715 893.636,990.453 895.601,1005.19 897.545,1019.93 899.471,1034.67 901.176,1047.88 "/>
<polyline clip-path="url(#clip632)" style="stroke:#3b0964; stroke-linecap:round; stroke-linejoin:round; stroke-width:4; stroke-opacity:1; fill:none" points="934.572,940.263 936.359,931.502 939.517,916.765 942.748,902.027 946.067,887.289 949.495,872.552 951.269,865.698 955.714,857.814 965.011,843.077 967.967,839.284 980.367,828.339 984.665,825.73 1001.36,817.524 1010.29,813.601 1018.06,812.035 1034.76,809.01 1051.46,806.08 1068.15,803.228 1084.85,800.441 1094.78,798.864 "/>
<polyline clip-path="url(#clip632)" style="stroke:#3b0964; stroke-linecap:round; stroke-linejoin:round; stroke-width:4; stroke-opacity:1; fill:none" points="1094.78,769.388 1084.85,767.811 1068.15,765.024 1051.46,762.172 1034.76,759.242 1018.06,756.217 1010.29,754.651 1001.36,750.728 984.665,742.522 980.367,739.913 967.967,728.968 965.011,725.175 955.714,710.438 951.269,702.554 949.495,695.7 946.067,680.963 942.748,666.225 939.517,651.487 936.359,636.75 934.572,627.989 "/>
<polyline clip-path="url(#clip632)" style="stroke:#3b0964; stroke-linecap:round; stroke-linejoin:round; stroke-width:4; stroke-opacity:1; fill:none" points="901.176,627.989 899.389,636.75 896.231,651.487 893,666.225 889.681,680.963 886.253,695.7 884.479,702.554 880.034,710.438 870.737,725.175 867.781,728.968 855.381,739.913 851.083,742.522 834.386,750.728 825.454,754.651 817.688,756.217 800.991,759.242 784.293,762.172 767.595,765.024 750.898,767.811 740.972,769.388 "/>
<polyline clip-path="url(#clip632)" style="stroke:#3b0964; stroke-linecap:round; stroke-linejoin:round; stroke-width:4; stroke-opacity:1; fill:none" points="740.972,798.864 750.898,800.441 767.595,803.228 784.293,806.08 800.991,809.01 817.688,812.035 825.454,813.601 834.386,817.524 851.083,825.73 855.381,828.339 867.781,839.284 870.737,843.077 880.034,857.814 884.479,865.698 886.253,872.552 889.681,887.289 893,902.027 896.231,916.765 899.389,931.502 901.176,940.263 "/>
<polyline clip-path="url(#clip632)" style="stroke:#550f6d; stroke-linecap:round; stroke-linejoin:round; stroke-width:4; stroke-opacity:1; fill:none" points="934.572,890.176 935.37,887.289 939.922,872.552 944.658,857.814 949.634,843.077 951.269,839.148 960.392,828.339 967.967,821.653 980.214,813.601 984.665,812.158 1001.36,807.766 1018.06,803.586 1034.76,799.568 1038.03,798.864 "/>
<polyline clip-path="url(#clip632)" style="stroke:#550f6d; stroke-linecap:round; stroke-linejoin:round; stroke-width:4; stroke-opacity:1; fill:none" points="1038.03,769.388 1034.76,768.684 1018.06,764.666 1001.36,760.486 984.665,756.094 980.214,754.651 967.967,746.599 960.392,739.913 951.269,729.104 949.634,725.175 944.658,710.438 939.922,695.7 935.37,680.963 934.572,678.076 "/>
<polyline clip-path="url(#clip632)" style="stroke:#550f6d; stroke-linecap:round; stroke-linejoin:round; stroke-width:4; stroke-opacity:1; fill:none" points="901.176,678.076 900.378,680.963 895.826,695.7 891.09,710.438 886.114,725.175 884.479,729.104 875.356,739.913 867.781,746.599 855.534,754.651 851.083,756.094 834.386,760.486 817.688,764.666 800.991,768.684 797.72,769.388 "/>
<polyline clip-path="url(#clip632)" style="stroke:#6e186e; stroke-linecap:round; stroke-linejoin:round; stroke-width:4; stroke-opacity:1; fill:none" points="829.172,769.388 834.386,767.903 851.083,762.426 867.781,756.579 871.871,754.651 884.479,743.523 886.664,739.913 893.288,725.175 899.494,710.438 901.176,705.836 "/>
<polyline clip-path="url(#clip632)" style="stroke:#88216a; stroke-linecap:round; stroke-linejoin:round; stroke-width:4; stroke-opacity:1; fill:none" points="901.176,723.544 900.462,725.175 892.526,739.913 884.479,753.208 882.844,754.651 867.781,761.753 851.083,768.758 849.235,769.388 "/>
<polyline clip-path="url(#clip632)" style="stroke:#a12b61; stroke-linecap:round; stroke-linejoin:round; stroke-width:4; stroke-opacity:1; fill:none" points="862.009,769.388 867.781,766.927 884.479,757.973 888.242,754.651 898.387,739.913 901.176,734.818 "/>
<polyline clip-path="url(#clip632)" style="stroke:#ba3655; stroke-linecap:round; stroke-linejoin:round; stroke-width:4; stroke-opacity:1; fill:none" points="901.176,743.068 892.665,754.651 884.479,761.876 871.356,769.388 "/>
<polyline clip-path="url(#clip632)" style="stroke:#d04544; stroke-linecap:round; stroke-linejoin:round; stroke-width:4; stroke-opacity:1; fill:none" points="878.175,769.388 884.479,765.78 897.088,754.651 901.176,749.087 "/>
<polyline clip-path="url(#clip632)" style="stroke:#e35832; stroke-linecap:round; stroke-linejoin:round; stroke-width:4; stroke-opacity:1; fill:none" points="884.686,769.388 901.176,754.834 "/>
<polyline clip-path="url(#clip632)" style="stroke:#f0701e; stroke-linecap:round; stroke-linejoin:round; stroke-width:4; stroke-opacity:1; fill:none" points="901.176,757.26 887.435,769.388 "/>
<polyline clip-path="url(#clip632)" style="stroke:#f98c09; stroke-linecap:round; stroke-linejoin:round; stroke-width:4; stroke-opacity:1; fill:none" points="890.183,769.388 901.176,759.685 "/>
<polyline clip-path="url(#clip632)" style="stroke:#fbaa0e; stroke-linecap:round; stroke-linejoin:round; stroke-width:4; stroke-opacity:1; fill:none" points="901.176,762.111 892.931,769.388 "/>
<polyline clip-path="url(#clip632)" style="stroke:#f8c931; stroke-linecap:round; stroke-linejoin:round; stroke-width:4; stroke-opacity:1; fill:none" points="895.68,769.388 901.176,764.537 "/>
<polyline clip-path="url(#clip632)" style="stroke:#f1e864; stroke-linecap:round; stroke-linejoin:round; stroke-width:4; stroke-opacity:1; fill:none" points="901.176,766.963 898.428,769.388 "/>
<polyline clip-path="url(#clip632)" style="stroke:#a12b61; stroke-linecap:round; stroke-linejoin:round; stroke-width:4; stroke-opacity:1; fill:none" points="862.009,798.864 867.781,801.325 884.479,810.279 888.242,813.601 898.387,828.339 901.176,833.434 "/>
<polyline clip-path="url(#clip632)" style="stroke:#ba3655; stroke-linecap:round; stroke-linejoin:round; stroke-width:4; stroke-opacity:1; fill:none" points="901.176,825.184 892.665,813.601 884.479,806.376 871.356,798.864 "/>
<polyline clip-path="url(#clip632)" style="stroke:#d04544; stroke-linecap:round; stroke-linejoin:round; stroke-width:4; stroke-opacity:1; fill:none" points="878.175,798.864 884.479,802.472 897.088,813.601 901.176,819.165 "/>
<polyline clip-path="url(#clip632)" style="stroke:#e35832; stroke-linecap:round; stroke-linejoin:round; stroke-width:4; stroke-opacity:1; fill:none" points="901.176,813.418 884.686,798.864 "/>
<polyline clip-path="url(#clip632)" style="stroke:#f0701e; stroke-linecap:round; stroke-linejoin:round; stroke-width:4; stroke-opacity:1; fill:none" points="887.435,798.864 901.176,810.992 "/>
<polyline clip-path="url(#clip632)" style="stroke:#f98c09; stroke-linecap:round; stroke-linejoin:round; stroke-width:4; stroke-opacity:1; fill:none" points="901.176,808.567 890.183,798.864 "/>
<polyline clip-path="url(#clip632)" style="stroke:#fbaa0e; stroke-linecap:round; stroke-linejoin:round; stroke-width:4; stroke-opacity:1; fill:none" points="892.931,798.864 901.176,806.141 "/>
<polyline clip-path="url(#clip632)" style="stroke:#f8c931; stroke-linecap:round; stroke-linejoin:round; stroke-width:4; stroke-opacity:1; fill:none" points="901.176,803.715 895.68,798.864 "/>
<polyline clip-path="url(#clip632)" style="stroke:#f1e864; stroke-linecap:round; stroke-linejoin:round; stroke-width:4; stroke-opacity:1; fill:none" points="898.428,798.864 901.176,801.289 "/>
<polyline clip-path="url(#clip632)" style="stroke:#ba3655; stroke-linecap:round; stroke-linejoin:round; stroke-width:4; stroke-opacity:1; fill:none" points="934.572,825.184 943.083,813.601 951.269,806.376 964.392,798.864 "/>
<polyline clip-path="url(#clip632)" style="stroke:#d04544; stroke-linecap:round; stroke-linejoin:round; stroke-width:4; stroke-opacity:1; fill:none" points="957.573,798.864 951.269,802.472 938.66,813.601 934.572,819.165 "/>
<polyline clip-path="url(#clip632)" style="stroke:#e35832; stroke-linecap:round; stroke-linejoin:round; stroke-width:4; stroke-opacity:1; fill:none" points="934.572,813.418 951.062,798.864 "/>
<polyline clip-path="url(#clip632)" style="stroke:#f0701e; stroke-linecap:round; stroke-linejoin:round; stroke-width:4; stroke-opacity:1; fill:none" points="948.313,798.864 934.572,810.992 "/>
<polyline clip-path="url(#clip632)" style="stroke:#f98c09; stroke-linecap:round; stroke-linejoin:round; stroke-width:4; stroke-opacity:1; fill:none" points="934.572,808.567 945.565,798.864 "/>
<polyline clip-path="url(#clip632)" style="stroke:#fbaa0e; stroke-linecap:round; stroke-linejoin:round; stroke-width:4; stroke-opacity:1; fill:none" points="942.817,798.864 934.572,806.141 "/>
<polyline clip-path="url(#clip632)" style="stroke:#f8c931; stroke-linecap:round; stroke-linejoin:round; stroke-width:4; stroke-opacity:1; fill:none" points="934.572,803.715 940.068,798.864 "/>
<polyline clip-path="url(#clip632)" style="stroke:#f1e864; stroke-linecap:round; stroke-linejoin:round; stroke-width:4; stroke-opacity:1; fill:none" points="937.32,798.864 934.572,801.289 "/>
<polyline clip-path="url(#clip632)" style="stroke:#a12b61; stroke-linecap:round; stroke-linejoin:round; stroke-width:4; stroke-opacity:1; fill:none" points="973.739,798.864 967.967,801.325 951.269,810.279 947.506,813.601 937.361,828.339 934.572,833.434 "/>
<polyline clip-path="url(#clip632)" style="stroke:#88216a; stroke-linecap:round; stroke-linejoin:round; stroke-width:4; stroke-opacity:1; fill:none" points="934.572,844.708 935.286,843.077 943.222,828.339 951.269,815.044 952.904,813.601 967.967,806.499 984.665,799.494 986.513,798.864 "/>
<polyline clip-path="url(#clip632)" style="stroke:#6e186e; stroke-linecap:round; stroke-linejoin:round; stroke-width:4; stroke-opacity:1; fill:none" points="1006.58,798.864 1001.36,800.349 984.665,805.826 967.967,811.673 963.877,813.601 951.269,824.729 949.084,828.339 942.46,843.077 936.254,857.814 934.572,862.416 "/>
<polyline clip-path="url(#clip632)" style="stroke:#88216a; stroke-linecap:round; stroke-linejoin:round; stroke-width:4; stroke-opacity:1; fill:none" points="901.176,844.708 900.462,843.077 892.526,828.339 884.479,815.044 882.844,813.601 867.781,806.499 851.083,799.494 849.235,798.864 "/>
<polyline clip-path="url(#clip632)" style="stroke:#6e186e; stroke-linecap:round; stroke-linejoin:round; stroke-width:4; stroke-opacity:1; fill:none" points="829.172,798.864 834.386,800.349 851.083,805.826 867.781,811.673 871.871,813.601 884.479,824.729 886.664,828.339 893.288,843.077 899.494,857.814 901.176,862.416 "/>
<polyline clip-path="url(#clip632)" style="stroke:#550f6d; stroke-linecap:round; stroke-linejoin:round; stroke-width:4; stroke-opacity:1; fill:none" points="901.176,890.176 900.378,887.289 895.826,872.552 891.09,857.814 886.114,843.077 884.479,839.148 875.356,828.339 867.781,821.653 855.534,813.601 851.083,812.158 834.386,807.766 817.688,803.586 800.991,799.568 797.72,798.864 "/>
<polyline clip-path="url(#clip632)" style="stroke:#e35832; stroke-linecap:round; stroke-linejoin:round; stroke-width:4; stroke-opacity:1; fill:none" points="951.062,769.388 934.572,754.834 "/>
<polyline clip-path="url(#clip632)" style="stroke:#f0701e; stroke-linecap:round; stroke-linejoin:round; stroke-width:4; stroke-opacity:1; fill:none" points="948.313,769.388 934.572,757.26 "/>
<polyline clip-path="url(#clip632)" style="stroke:#f98c09; stroke-linecap:round; stroke-linejoin:round; stroke-width:4; stroke-opacity:1; fill:none" points="945.565,769.388 934.572,759.685 "/>
<polyline clip-path="url(#clip632)" style="stroke:#fbaa0e; stroke-linecap:round; stroke-linejoin:round; stroke-width:4; stroke-opacity:1; fill:none" points="942.817,769.388 934.572,762.111 "/>
<polyline clip-path="url(#clip632)" style="stroke:#f8c931; stroke-linecap:round; stroke-linejoin:round; stroke-width:4; stroke-opacity:1; fill:none" points="940.068,769.388 934.572,764.537 "/>
<polyline clip-path="url(#clip632)" style="stroke:#f1e864; stroke-linecap:round; stroke-linejoin:round; stroke-width:4; stroke-opacity:1; fill:none" points="937.32,769.388 934.572,766.963 "/>
<polyline clip-path="url(#clip632)" style="stroke:#ba3655; stroke-linecap:round; stroke-linejoin:round; stroke-width:4; stroke-opacity:1; fill:none" points="964.392,769.388 951.269,761.876 943.083,754.651 934.572,743.068 "/>
<polyline clip-path="url(#clip632)" style="stroke:#d04544; stroke-linecap:round; stroke-linejoin:round; stroke-width:4; stroke-opacity:1; fill:none" points="934.572,749.087 938.66,754.651 951.269,765.78 957.573,769.388 "/>
<polyline clip-path="url(#clip632)" style="stroke:#a12b61; stroke-linecap:round; stroke-linejoin:round; stroke-width:4; stroke-opacity:1; fill:none" points="973.739,769.388 967.967,766.927 951.269,757.973 947.506,754.651 937.361,739.913 934.572,734.818 "/>
<polyline clip-path="url(#clip632)" style="stroke:#88216a; stroke-linecap:round; stroke-linejoin:round; stroke-width:4; stroke-opacity:1; fill:none" points="934.572,723.544 935.286,725.175 943.222,739.913 951.269,753.208 952.904,754.651 967.967,761.753 984.665,768.758 986.513,769.388 "/>
<polyline clip-path="url(#clip632)" style="stroke:#6e186e; stroke-linecap:round; stroke-linejoin:round; stroke-width:4; stroke-opacity:1; fill:none" points="1006.58,769.388 1001.36,767.903 984.665,762.426 967.967,756.579 963.877,754.651 951.269,743.523 949.084,739.913 942.46,725.175 936.254,710.438 934.572,705.836 "/>
<defs>
  <clipPath id="clip633">
    <rect x="1792" y="47" width="61" height="1475"/>
  </clipPath>
</defs>
<polyline clip-path="url(#clip633)" style="stroke:#0a0723; stroke-linecap:round; stroke-linejoin:round; stroke-width:4; stroke-opacity:1; fill:none" points="1792.76,1428.9 1852.76,1428.9 "/>
<polyline clip-path="url(#clip633)" style="stroke:#200c4a; stroke-linecap:round; stroke-linejoin:round; stroke-width:4; stroke-opacity:1; fill:none" points="1792.76,1336.79 1852.76,1336.79 "/>
<polyline clip-path="url(#clip633)" style="stroke:#3c0965; stroke-linecap:round; stroke-linejoin:round; stroke-width:4; stroke-opacity:1; fill:none" points="1792.76,1244.68 1852.76,1244.68 "/>
<polyline clip-path="url(#clip633)" style="stroke:#570f6d; stroke-linecap:round; stroke-linejoin:round; stroke-width:4; stroke-opacity:1; fill:none" points="1792.76,1152.57 1852.76,1152.57 "/>
<polyline clip-path="url(#clip633)" style="stroke:#70196e; stroke-linecap:round; stroke-linejoin:round; stroke-width:4; stroke-opacity:1; fill:none" points="1792.76,1060.46 1852.76,1060.46 "/>
<polyline clip-path="url(#clip633)" style="stroke:#892269; stroke-linecap:round; stroke-linejoin:round; stroke-width:4; stroke-opacity:1; fill:none" points="1792.76,968.346 1852.76,968.346 "/>
<polyline clip-path="url(#clip633)" style="stroke:#a32b61; stroke-linecap:round; stroke-linejoin:round; stroke-width:4; stroke-opacity:1; fill:none" points="1792.76,876.236 1852.76,876.236 "/>
<polyline clip-path="url(#clip633)" style="stroke:#bb3754; stroke-linecap:round; stroke-linejoin:round; stroke-width:4; stroke-opacity:1; fill:none" points="1792.76,784.126 1852.76,784.126 "/>
<polyline clip-path="url(#clip633)" style="stroke:#d04544; stroke-linecap:round; stroke-linejoin:round; stroke-width:4; stroke-opacity:1; fill:none" points="1792.76,692.016 1852.76,692.016 "/>
<polyline clip-path="url(#clip633)" style="stroke:#e35832; stroke-linecap:round; stroke-linejoin:round; stroke-width:4; stroke-opacity:1; fill:none" points="1792.76,599.906 1852.76,599.906 "/>
<polyline clip-path="url(#clip633)" style="stroke:#f0701e; stroke-linecap:round; stroke-linejoin:round; stroke-width:4; stroke-opacity:1; fill:none" points="1792.76,507.795 1852.76,507.795 "/>
<polyline clip-path="url(#clip633)" style="stroke:#f98c09; stroke-linecap:round; stroke-linejoin:round; stroke-width:4; stroke-opacity:1; fill:none" points="1792.76,415.685 1852.76,415.685 "/>
<polyline clip-path="url(#clip633)" style="stroke:#fbaa0e; stroke-linecap:round; stroke-linejoin:round; stroke-width:4; stroke-opacity:1; fill:none" points="1792.76,323.575 1852.76,323.575 "/>
<polyline clip-path="url(#clip633)" style="stroke:#f8c931; stroke-linecap:round; stroke-linejoin:round; stroke-width:4; stroke-opacity:1; fill:none" points="1792.76,231.465 1852.76,231.465 "/>
<polyline clip-path="url(#clip633)" style="stroke:#f1e864; stroke-linecap:round; stroke-linejoin:round; stroke-width:4; stroke-opacity:1; fill:none" points="1792.76,139.354 1852.76,139.354 "/>
<path clip-path="url(#clip630)" d="M1883.43 1346.55 L1891.07 1346.55 L1891.07 1320.18 L1882.76 1321.85 L1882.76 1317.59 L1891.02 1315.93 L1895.7 1315.93 L1895.7 1346.55 L1903.33 1346.55 L1903.33 1350.49 L1883.43 1350.49 L1883.43 1346.55 Z" fill="#000000" fill-rule="nonzero" fill-opacity="1" /><path clip-path="url(#clip630)" d="M1888.38 1157.9 L1904.7 1157.9 L1904.7 1161.83 L1882.76 1161.83 L1882.76 1157.9 Q1885.42 1155.14 1890 1150.52 Q1894.61 1145.86 1895.79 1144.52 Q1898.03 1142 1898.91 1140.26 Q1899.82 1138.5 1899.82 1136.81 Q1899.82 1134.06 1897.87 1132.32 Q1895.95 1130.58 1892.85 1130.58 Q1890.65 1130.58 1888.2 1131.35 Q1885.77 1132.11 1882.99 1133.66 L1882.99 1128.94 Q1885.81 1127.81 1888.27 1127.23 Q1890.72 1126.65 1892.76 1126.65 Q1898.13 1126.65 1901.32 1129.33 Q1904.52 1132.02 1904.52 1136.51 Q1904.52 1138.64 1903.7 1140.56 Q1902.92 1142.46 1900.81 1145.05 Q1900.23 1145.72 1897.13 1148.94 Q1894.03 1152.14 1888.38 1157.9 Z" fill="#000000" fill-rule="nonzero" fill-opacity="1" /><path clip-path="url(#clip630)" d="M1898.38 954.549 Q1901.74 955.267 1903.61 957.535 Q1905.51 959.804 1905.51 963.137 Q1905.51 968.253 1901.99 971.054 Q1898.47 973.855 1891.99 973.855 Q1889.82 973.855 1887.5 973.415 Q1885.21 972.998 1882.76 972.142 L1882.76 967.628 Q1884.7 968.762 1887.02 969.341 Q1889.33 969.919 1891.85 969.919 Q1896.25 969.919 1898.54 968.183 Q1900.86 966.447 1900.86 963.137 Q1900.86 960.082 1898.7 958.369 Q1896.58 956.633 1892.76 956.633 L1888.73 956.633 L1888.73 952.79 L1892.94 952.79 Q1896.39 952.79 1898.22 951.424 Q1900.05 950.035 1900.05 947.443 Q1900.05 944.781 1898.15 943.369 Q1896.27 941.934 1892.76 941.934 Q1890.83 941.934 1888.64 942.35 Q1886.44 942.767 1883.8 943.646 L1883.8 939.48 Q1886.46 938.739 1888.77 938.369 Q1891.11 937.998 1893.17 937.998 Q1898.5 937.998 1901.6 940.429 Q1904.7 942.836 1904.7 946.957 Q1904.7 949.827 1903.06 951.818 Q1901.41 953.785 1898.38 954.549 Z" fill="#000000" fill-rule="nonzero" fill-opacity="1" /><path clip-path="url(#clip630)" d="M1898.36 754.046 L1886.55 772.495 L1898.36 772.495 L1898.36 754.046 M1897.13 749.972 L1903.01 749.972 L1903.01 772.495 L1907.94 772.495 L1907.94 776.384 L1903.01 776.384 L1903.01 784.532 L1898.36 784.532 L1898.36 776.384 L1882.76 776.384 L1882.76 771.87 L1897.13 749.972 Z" fill="#000000" fill-rule="nonzero" fill-opacity="1" /><path clip-path="url(#clip630)" d="M1884.21 561.321 L1902.57 561.321 L1902.57 565.256 L1888.5 565.256 L1888.5 573.729 Q1889.52 573.381 1890.53 573.219 Q1891.55 573.034 1892.57 573.034 Q1898.36 573.034 1901.74 576.206 Q1905.12 579.377 1905.12 584.793 Q1905.12 590.372 1901.64 593.474 Q1898.17 596.553 1891.85 596.553 Q1889.68 596.553 1887.41 596.182 Q1885.16 595.812 1882.76 595.071 L1882.76 590.372 Q1884.84 591.506 1887.06 592.062 Q1889.28 592.617 1891.76 592.617 Q1895.77 592.617 1898.1 590.511 Q1900.44 588.405 1900.44 584.793 Q1900.44 581.182 1898.1 579.076 Q1895.77 576.969 1891.76 576.969 Q1889.89 576.969 1888.01 577.386 Q1886.16 577.803 1884.21 578.682 L1884.21 561.321 Z" fill="#000000" fill-rule="nonzero" fill-opacity="1" /><path clip-path="url(#clip630)" d="M1895.09 388.087 Q1891.95 388.087 1890.09 390.24 Q1888.27 392.392 1888.27 396.142 Q1888.27 399.869 1890.09 402.045 Q1891.95 404.198 1895.09 404.198 Q1898.24 404.198 1900.07 402.045 Q1901.92 399.869 1901.92 396.142 Q1901.92 392.392 1900.07 390.24 Q1898.24 388.087 1895.09 388.087 M1904.38 373.434 L1904.38 377.693 Q1902.62 376.86 1900.81 376.42 Q1899.03 375.98 1897.27 375.98 Q1892.64 375.98 1890.19 379.105 Q1887.76 382.23 1887.41 388.55 Q1888.77 386.536 1890.83 385.471 Q1892.89 384.383 1895.37 384.383 Q1900.58 384.383 1903.59 387.554 Q1906.62 390.703 1906.62 396.142 Q1906.62 401.466 1903.47 404.684 Q1900.33 407.902 1895.09 407.902 Q1889.1 407.902 1885.93 403.318 Q1882.76 398.712 1882.76 389.985 Q1882.76 381.791 1886.64 376.93 Q1890.53 372.045 1897.08 372.045 Q1898.84 372.045 1900.63 372.393 Q1902.43 372.74 1904.38 373.434 Z" fill="#000000" fill-rule="nonzero" fill-opacity="1" /><path clip-path="url(#clip630)" d="M1882.76 184.019 L1904.98 184.019 L1904.98 186.01 L1892.43 218.579 L1887.55 218.579 L1899.35 187.954 L1882.76 187.954 L1882.76 184.019 Z" fill="#000000" fill-rule="nonzero" fill-opacity="1" /><polyline clip-path="url(#clip630)" style="stroke:#000000; stroke-linecap:round; stroke-linejoin:round; stroke-width:4; stroke-opacity:1; fill:none" points="1852.76,1521.01 1852.76,1336.83 1872.76,1336.83 1852.76,1336.83 1852.76,1148.18 1872.76,1148.18 1852.76,1148.18 1852.76,959.532 1872.76,959.532 1852.76,959.532 1852.76,770.881 1872.76,770.881 1852.76,770.881 1852.76,582.23 1872.76,582.23 1852.76,582.23 1852.76,393.579 1872.76,393.579 1852.76,393.579 1852.76,204.928 1872.76,204.928 1852.76,204.928 1852.76,47.2441 "/>
</svg>
