<?xml version="1.0" encoding="utf-8"?>
<svg xmlns="http://www.w3.org/2000/svg" xmlns:xlink="http://www.w3.org/1999/xlink" width="600" height="400" viewBox="0 0 2400 1600">
<defs>
  <clipPath id="clip760">
    <rect x="0" y="0" width="2400" height="1600"/>
  </clipPath>
</defs>
<path clip-path="url(#clip760)" d="M0 1600 L2400 1600 L2400 0 L0 0  Z" fill="#ffffff" fill-rule="evenodd" fill-opacity="1"/>
<defs>
  <clipPath id="clip761">
    <rect x="480" y="0" width="1681" height="1600"/>
  </clipPath>
</defs>
<path clip-path="url(#clip760)" d="M86.9921 1521.01 L2352.76 1521.01 L2352.76 47.2441 L86.9921 47.2441  Z" fill="#ffffff" fill-rule="evenodd" fill-opacity="1"/>
<defs>
  <clipPath id="clip762">
    <rect x="86" y="47" width="2267" height="1475"/>
  </clipPath>
</defs>
<polyline clip-path="url(#clip762)" style="stroke:#000000; stroke-linecap:round; stroke-linejoin:round; stroke-width:2; stroke-opacity:0.1; fill:none" points="151.118,1521.01 151.118,47.2441 "/>
<polyline clip-path="url(#clip762)" style="stroke:#000000; stroke-linecap:round; stroke-linejoin:round; stroke-width:2; stroke-opacity:0.1; fill:none" points="651.978,1521.01 651.978,47.2441 "/>
<polyline clip-path="url(#clip762)" style="stroke:#000000; stroke-linecap:round; stroke-linejoin:round; stroke-width:2; stroke-opacity:0.1; fill:none" points="1152.84,1521.01 1152.84,47.2441 "/>
<polyline clip-path="url(#clip762)" style="stroke:#000000; stroke-linecap:round; stroke-linejoin:round; stroke-width:2; stroke-opacity:0.1; fill:none" points="1653.7,1521.01 1653.7,47.2441 "/>
<polyline clip-path="url(#clip762)" style="stroke:#000000; stroke-linecap:round; stroke-linejoin:round; stroke-width:2; stroke-opacity:0.1; fill:none" points="2154.56,1521.01 2154.56,47.2441 "/>
<polyline clip-path="url(#clip760)" style="stroke:#000000; stroke-linecap:round; stroke-linejoin:round; stroke-width:4; stroke-opacity:1; fill:none" points="86.9921,1521.01 2352.76,1521.01 "/>
<polyline clip-path="url(#clip760)" style="stroke:#000000; stroke-linecap:round; stroke-linejoin:round; stroke-width:4; stroke-opacity:1; fill:none" points="151.118,1521.01 151.118,1502.11 "/>
<polyline clip-path="url(#clip760)" style="stroke:#000000; stroke-linecap:round; stroke-linejoin:round; stroke-width:4; stroke-opacity:1; fill:none" points="651.978,1521.01 651.978,1502.11 "/>
<polyline clip-path="url(#clip760)" style="stroke:#000000; stroke-linecap:round; stroke-linejoin:round; stroke-width:4; stroke-opacity:1; fill:none" points="1152.84,1521.01 1152.84,1502.11 "/>
<polyline clip-path="url(#clip760)" style="stroke:#000000; stroke-linecap:round; stroke-linejoin:round; stroke-width:4; stroke-opacity:1; fill:none" points="1653.7,1521.01 1653.7,1502.11 "/>
<polyline clip-path="url(#clip760)" style="stroke:#000000; stroke-linecap:round; stroke-linejoin:round; stroke-width:4; stroke-opacity:1; fill:none" points="2154.56,1521.01 2154.56,1502.11 "/>
<path clip-path="url(#clip760)" d="M151.118 1551.93 Q147.506 1551.93 145.678 1555.49 Q143.872 1559.03 143.872 1566.16 Q143.872 1573.27 145.678 1576.83 Q147.506 1580.38 151.118 1580.38 Q154.752 1580.38 156.557 1576.83 Q158.386 1573.27 158.386 1566.16 Q158.386 1559.03 156.557 1555.49 Q154.752 1551.93 151.118 1551.93 M151.118 1548.22 Q156.928 1548.22 159.983 1552.83 Q163.062 1557.41 163.062 1566.16 Q163.062 1574.89 159.983 1579.5 Q156.928 1584.08 151.118 1584.08 Q145.307 1584.08 142.229 1579.5 Q139.173 1574.89 139.173 1566.16 Q139.173 1557.41 142.229 1552.83 Q145.307 1548.22 151.118 1548.22 Z" fill="#000000" fill-rule="nonzero" fill-opacity="1" /><path clip-path="url(#clip760)" d="M631.249 1579.47 L647.568 1579.47 L647.568 1583.41 L625.624 1583.41 L625.624 1579.47 Q628.286 1576.72 632.869 1572.09 Q637.476 1567.44 638.656 1566.09 Q640.902 1563.57 641.781 1561.83 Q642.684 1560.07 642.684 1558.38 Q642.684 1555.63 640.74 1553.89 Q638.818 1552.16 635.716 1552.16 Q633.517 1552.16 631.064 1552.92 Q628.633 1553.69 625.855 1555.24 L625.855 1550.51 Q628.679 1549.38 631.133 1548.8 Q633.587 1548.22 635.624 1548.22 Q640.994 1548.22 644.189 1550.91 Q647.383 1553.59 647.383 1558.08 Q647.383 1560.21 646.573 1562.13 Q645.786 1564.03 643.679 1566.63 Q643.101 1567.3 639.999 1570.51 Q636.897 1573.71 631.249 1579.47 Z" fill="#000000" fill-rule="nonzero" fill-opacity="1" /><path clip-path="url(#clip760)" d="M657.429 1548.85 L675.786 1548.85 L675.786 1552.78 L661.712 1552.78 L661.712 1561.26 Q662.73 1560.91 663.749 1560.75 Q664.767 1560.56 665.786 1560.56 Q671.573 1560.56 674.952 1563.73 Q678.332 1566.9 678.332 1572.32 Q678.332 1577.9 674.86 1581 Q671.388 1584.08 665.068 1584.08 Q662.892 1584.08 660.624 1583.71 Q658.378 1583.34 655.971 1582.6 L655.971 1577.9 Q658.054 1579.03 660.277 1579.59 Q662.499 1580.14 664.976 1580.14 Q668.98 1580.14 671.318 1578.04 Q673.656 1575.93 673.656 1572.32 Q673.656 1568.71 671.318 1566.6 Q668.98 1564.5 664.976 1564.5 Q663.101 1564.5 661.226 1564.91 Q659.374 1565.33 657.429 1566.21 L657.429 1548.85 Z" fill="#000000" fill-rule="nonzero" fill-opacity="1" /><path clip-path="url(#clip760)" d="M1127.54 1548.85 L1145.89 1548.85 L1145.89 1552.78 L1131.82 1552.78 L1131.82 1561.26 Q1132.84 1560.91 1133.86 1560.75 Q1134.88 1560.56 1135.89 1560.56 Q1141.68 1560.56 1145.06 1563.73 Q1148.44 1566.9 1148.44 1572.32 Q1148.44 1577.9 1144.97 1581 Q1141.5 1584.08 1135.18 1584.08 Q1133 1584.08 1130.73 1583.71 Q1128.49 1583.34 1126.08 1582.6 L1126.08 1577.9 Q1128.16 1579.03 1130.38 1579.59 Q1132.61 1580.14 1135.08 1580.14 Q1139.09 1580.14 1141.43 1578.04 Q1143.76 1575.93 1143.76 1572.32 Q1143.76 1568.71 1141.43 1566.6 Q1139.09 1564.5 1135.08 1564.5 Q1133.21 1564.5 1131.33 1564.91 Q1129.48 1565.33 1127.54 1566.21 L1127.54 1548.85 Z" fill="#000000" fill-rule="nonzero" fill-opacity="1" /><path clip-path="url(#clip760)" d="M1167.65 1551.93 Q1164.04 1551.93 1162.21 1555.49 Q1160.41 1559.03 1160.41 1566.16 Q1160.41 1573.27 1162.21 1576.83 Q1164.04 1580.38 1167.65 1580.38 Q1171.29 1580.38 1173.09 1576.83 Q1174.92 1573.27 1174.92 1566.16 Q1174.92 1559.03 1173.09 1555.49 Q1171.29 1551.93 1167.65 1551.93 M1167.65 1548.22 Q1173.46 1548.22 1176.52 1552.83 Q1179.6 1557.41 1179.6 1566.16 Q1179.6 1574.89 1176.52 1579.5 Q1173.46 1584.08 1167.65 1584.08 Q1161.84 1584.08 1158.76 1579.5 Q1155.71 1574.89 1155.71 1566.16 Q1155.71 1557.41 1158.76 1552.83 Q1161.84 1548.22 1167.65 1548.22 Z" fill="#000000" fill-rule="nonzero" fill-opacity="1" /><path clip-path="url(#clip760)" d="M1627.55 1548.85 L1649.78 1548.85 L1649.78 1550.84 L1637.23 1583.41 L1632.34 1583.41 L1644.15 1552.78 L1627.55 1552.78 L1627.55 1548.85 Z" fill="#000000" fill-rule="nonzero" fill-opacity="1" /><path clip-path="url(#clip760)" d="M1658.94 1548.85 L1677.3 1548.85 L1677.3 1552.78 L1663.22 1552.78 L1663.22 1561.26 Q1664.24 1560.91 1665.26 1560.75 Q1666.28 1560.56 1667.3 1560.56 Q1673.09 1560.56 1676.46 1563.73 Q1679.84 1566.9 1679.84 1572.32 Q1679.84 1577.9 1676.37 1581 Q1672.9 1584.08 1666.58 1584.08 Q1664.4 1584.08 1662.14 1583.71 Q1659.89 1583.34 1657.48 1582.6 L1657.48 1577.9 Q1659.57 1579.03 1661.79 1579.59 Q1664.01 1580.14 1666.49 1580.14 Q1670.49 1580.14 1672.83 1578.04 Q1675.17 1575.93 1675.17 1572.32 Q1675.17 1568.71 1672.83 1566.6 Q1670.49 1564.5 1666.49 1564.5 Q1664.61 1564.5 1662.74 1564.91 Q1660.89 1565.33 1658.94 1566.21 L1658.94 1548.85 Z" fill="#000000" fill-rule="nonzero" fill-opacity="1" /><path clip-path="url(#clip760)" d="M2114.17 1579.47 L2121.8 1579.47 L2121.8 1553.11 L2113.49 1554.77 L2113.49 1550.51 L2121.76 1548.85 L2126.43 1548.85 L2126.43 1579.47 L2134.07 1579.47 L2134.07 1583.41 L2114.17 1583.41 L2114.17 1579.47 Z" fill="#000000" fill-rule="nonzero" fill-opacity="1" /><path clip-path="url(#clip760)" d="M2153.52 1551.93 Q2149.91 1551.93 2148.08 1555.49 Q2146.27 1559.03 2146.27 1566.16 Q2146.27 1573.27 2148.08 1576.83 Q2149.91 1580.38 2153.52 1580.38 Q2157.15 1580.38 2158.96 1576.83 Q2160.79 1573.27 2160.79 1566.16 Q2160.79 1559.03 2158.96 1555.49 Q2157.15 1551.93 2153.52 1551.93 M2153.52 1548.22 Q2159.33 1548.22 2162.38 1552.83 Q2165.46 1557.41 2165.46 1566.16 Q2165.46 1574.89 2162.38 1579.5 Q2159.33 1584.08 2153.52 1584.08 Q2147.71 1584.08 2144.63 1579.5 Q2141.57 1574.89 2141.57 1566.16 Q2141.57 1557.41 2144.63 1552.83 Q2147.71 1548.22 2153.52 1548.22 Z" fill="#000000" fill-rule="nonzero" fill-opacity="1" /><path clip-path="url(#clip760)" d="M2183.68 1551.93 Q2180.07 1551.93 2178.24 1555.49 Q2176.43 1559.03 2176.43 1566.16 Q2176.43 1573.27 2178.24 1576.83 Q2180.07 1580.38 2183.68 1580.38 Q2187.31 1580.38 2189.12 1576.83 Q2190.95 1573.27 2190.95 1566.16 Q2190.95 1559.03 2189.12 1555.49 Q2187.31 1551.93 2183.68 1551.93 M2183.68 1548.22 Q2189.49 1548.22 2192.55 1552.83 Q2195.62 1557.41 2195.62 1566.16 Q2195.62 1574.89 2192.55 1579.5 Q2189.49 1584.08 2183.68 1584.08 Q2177.87 1584.08 2174.79 1579.5 Q2171.74 1574.89 2171.74 1566.16 Q2171.74 1557.41 2174.79 1552.83 Q2177.87 1548.22 2183.68 1548.22 Z" fill="#000000" fill-rule="nonzero" fill-opacity="1" /><polyline clip-path="url(#clip762)" style="stroke:#000000; stroke-linecap:round; stroke-linejoin:round; stroke-width:2; stroke-opacity:0.1; fill:none" points="86.9921,1479.3 2352.76,1479.3 "/>
<polyline clip-path="url(#clip762)" style="stroke:#000000; stroke-linecap:round; stroke-linejoin:round; stroke-width:2; stroke-opacity:0.1; fill:none" points="86.9921,1052.28 2352.76,1052.28 "/>
<polyline clip-path="url(#clip762)" style="stroke:#000000; stroke-linecap:round; stroke-linejoin:round; stroke-width:2; stroke-opacity:0.1; fill:none" points="86.9921,625.266 2352.76,625.266 "/>
<polyline clip-path="url(#clip762)" style="stroke:#000000; stroke-linecap:round; stroke-linejoin:round; stroke-width:2; stroke-opacity:0.1; fill:none" points="86.9921,198.25 2352.76,198.25 "/>
<polyline clip-path="url(#clip760)" style="stroke:#000000; stroke-linecap:round; stroke-linejoin:round; stroke-width:4; stroke-opacity:1; fill:none" points="86.9921,1521.01 86.9921,47.2441 "/>
<polyline clip-path="url(#clip760)" style="stroke:#000000; stroke-linecap:round; stroke-linejoin:round; stroke-width:4; stroke-opacity:1; fill:none" points="86.9921,1479.3 105.89,1479.3 "/>
<polyline clip-path="url(#clip760)" style="stroke:#000000; stroke-linecap:round; stroke-linejoin:round; stroke-width:4; stroke-opacity:1; fill:none" points="86.9921,1052.28 105.89,1052.28 "/>
<polyline clip-path="url(#clip760)" style="stroke:#000000; stroke-linecap:round; stroke-linejoin:round; stroke-width:4; stroke-opacity:1; fill:none" points="86.9921,625.266 105.89,625.266 "/>
<polyline clip-path="url(#clip760)" style="stroke:#000000; stroke-linecap:round; stroke-linejoin:round; stroke-width:4; stroke-opacity:1; fill:none" points="86.9921,198.25 105.89,198.25 "/>
<path clip-path="url(#clip760)" d="M10.8708 1516.99 Q10.8708 1520.61 14.4356 1522.43 Q17.9773 1524.24 25.1068 1524.24 Q32.2133 1524.24 35.7781 1522.43 Q39.3197 1520.61 39.3197 1516.99 Q39.3197 1513.36 35.7781 1511.55 Q32.2133 1509.73 25.1068 1509.73 Q17.9773 1509.73 14.4356 1511.55 Q10.8708 1513.36 10.8708 1516.99 M7.16713 1516.99 Q7.16713 1511.18 11.7736 1508.13 Q16.3569 1505.05 25.1068 1505.05 Q33.8337 1505.05 38.4401 1508.13 Q43.0234 1511.18 43.0234 1516.99 Q43.0234 1522.8 38.4401 1525.88 Q33.8337 1528.94 25.1068 1528.94 Q16.3569 1528.94 11.7736 1525.88 Q7.16713 1522.8 7.16713 1516.99 Z" fill="#000000" fill-rule="nonzero" fill-opacity="1" /><path clip-path="url(#clip760)" d="M36.4725 1496.83 L36.4725 1491.95 L42.3521 1491.95 L42.3521 1496.83 L36.4725 1496.83 Z" fill="#000000" fill-rule="nonzero" fill-opacity="1" /><path clip-path="url(#clip760)" d="M10.8708 1471.76 Q10.8708 1475.37 14.4356 1477.2 Q17.9773 1479.01 25.1068 1479.01 Q32.2133 1479.01 35.7781 1477.2 Q39.3197 1475.37 39.3197 1471.76 Q39.3197 1468.13 35.7781 1466.32 Q32.2133 1464.49 25.1068 1464.49 Q17.9773 1464.49 14.4356 1466.32 Q10.8708 1468.13 10.8708 1471.76 M7.16713 1471.76 Q7.16713 1465.95 11.7736 1462.9 Q16.3569 1459.82 25.1068 1459.82 Q33.8337 1459.82 38.4401 1462.9 Q43.0234 1465.95 43.0234 1471.76 Q43.0234 1477.57 38.4401 1480.65 Q33.8337 1483.71 25.1068 1483.71 Q16.3569 1483.71 11.7736 1480.65 Q7.16713 1477.57 7.16713 1471.76 Z" fill="#000000" fill-rule="nonzero" fill-opacity="1" /><path clip-path="url(#clip760)" d="M10.8708 1441.6 Q10.8708 1445.21 14.4356 1447.04 Q17.9773 1448.85 25.1068 1448.85 Q32.2133 1448.85 35.7781 1447.04 Q39.3197 1445.21 39.3197 1441.6 Q39.3197 1437.97 35.7781 1436.16 Q32.2133 1434.33 25.1068 1434.33 Q17.9773 1434.33 14.4356 1436.16 Q10.8708 1437.97 10.8708 1441.6 M7.16713 1441.6 Q7.16713 1435.79 11.7736 1432.74 Q16.3569 1429.66 25.1068 1429.66 Q33.8337 1429.66 38.4401 1432.74 Q43.0234 1435.79 43.0234 1441.6 Q43.0234 1447.41 38.4401 1450.49 Q33.8337 1453.55 25.1068 1453.55 Q16.3569 1453.55 11.7736 1450.49 Q7.16713 1447.41 7.16713 1441.6 Z" fill="#000000" fill-rule="nonzero" fill-opacity="1" /><path clip-path="url(#clip760)" d="M10.8708 1089.36 Q10.8708 1092.98 14.4356 1094.8 Q17.9773 1096.61 25.1068 1096.61 Q32.2133 1096.61 35.7781 1094.8 Q39.3197 1092.98 39.3197 1089.36 Q39.3197 1085.73 35.7781 1083.93 Q32.2133 1082.1 25.1068 1082.1 Q17.9773 1082.1 14.4356 1083.93 Q10.8708 1085.73 10.8708 1089.36 M7.16713 1089.36 Q7.16713 1083.55 11.7736 1080.5 Q16.3569 1077.42 25.1068 1077.42 Q33.8337 1077.42 38.4401 1080.5 Q43.0234 1083.55 43.0234 1089.36 Q43.0234 1095.17 38.4401 1098.25 Q33.8337 1101.31 25.1068 1101.31 Q16.3569 1101.31 11.7736 1098.25 Q7.16713 1095.17 7.16713 1089.36 Z" fill="#000000" fill-rule="nonzero" fill-opacity="1" /><path clip-path="url(#clip760)" d="M36.4725 1069.2 L36.4725 1064.32 L42.3521 1064.32 L42.3521 1069.2 L36.4725 1069.2 Z" fill="#000000" fill-rule="nonzero" fill-opacity="1" /><path clip-path="url(#clip760)" d="M10.8708 1044.13 Q10.8708 1047.74 14.4356 1049.57 Q17.9773 1051.38 25.1068 1051.38 Q32.2133 1051.38 35.7781 1049.57 Q39.3197 1047.74 39.3197 1044.13 Q39.3197 1040.5 35.7781 1038.69 Q32.2133 1036.87 25.1068 1036.87 Q17.9773 1036.87 14.4356 1038.69 Q10.8708 1040.5 10.8708 1044.13 M7.16713 1044.13 Q7.16713 1038.32 11.7736 1035.27 Q16.3569 1032.19 25.1068 1032.19 Q33.8337 1032.19 38.4401 1035.27 Q43.0234 1038.32 43.0234 1044.13 Q43.0234 1049.94 38.4401 1053.02 Q33.8337 1056.08 25.1068 1056.08 Q16.3569 1056.08 11.7736 1053.02 Q7.16713 1049.94 7.16713 1044.13 Z" fill="#000000" fill-rule="nonzero" fill-opacity="1" /><path clip-path="url(#clip760)" d="M38.417 1023.16 L38.417 1015.52 L12.0514 1015.52 L13.718 1023.83 L9.45878 1023.83 L7.79213 1015.57 L7.79213 1010.89 L38.417 1010.89 L38.417 1003.25 L42.3521 1003.25 L42.3521 1023.16 L38.417 1023.16 Z" fill="#000000" fill-rule="nonzero" fill-opacity="1" /><path clip-path="url(#clip760)" d="M10.8708 662.164 Q10.8708 665.775 14.4356 667.604 Q17.9773 669.409 25.1068 669.409 Q32.2133 669.409 35.7781 667.604 Q39.3197 665.775 39.3197 662.164 Q39.3197 658.53 35.7781 656.724 Q32.2133 654.895 25.1068 654.895 Q17.9773 654.895 14.4356 656.724 Q10.8708 658.53 10.8708 662.164 M7.16713 662.164 Q7.16713 656.354 11.7736 653.298 Q16.3569 650.219 25.1068 650.219 Q33.8337 650.219 38.4401 653.298 Q43.0234 656.354 43.0234 662.164 Q43.0234 667.974 38.4401 671.053 Q33.8337 674.108 25.1068 674.108 Q16.3569 674.108 11.7736 671.053 Q7.16713 667.974 7.16713 662.164 Z" fill="#000000" fill-rule="nonzero" fill-opacity="1" /><path clip-path="url(#clip760)" d="M36.4725 642.002 L36.4725 637.118 L42.3521 637.118 L42.3521 642.002 L36.4725 642.002 Z" fill="#000000" fill-rule="nonzero" fill-opacity="1" /><path clip-path="url(#clip760)" d="M10.8708 616.933 Q10.8708 620.544 14.4356 622.372 Q17.9773 624.178 25.1068 624.178 Q32.2133 624.178 35.7781 622.372 Q39.3197 620.544 39.3197 616.933 Q39.3197 613.298 35.7781 611.493 Q32.2133 609.664 25.1068 609.664 Q17.9773 609.664 14.4356 611.493 Q10.8708 613.298 10.8708 616.933 M7.16713 616.933 Q7.16713 611.122 11.7736 608.067 Q16.3569 604.988 25.1068 604.988 Q33.8337 604.988 38.4401 608.067 Q43.0234 611.122 43.0234 616.933 Q43.0234 622.743 38.4401 625.821 Q33.8337 628.877 25.1068 628.877 Q16.3569 628.877 11.7736 625.821 Q7.16713 622.743 7.16713 616.933 Z" fill="#000000" fill-rule="nonzero" fill-opacity="1" /><path clip-path="url(#clip760)" d="M38.417 592.743 L38.417 576.423 L42.3521 576.423 L42.3521 598.368 L38.417 598.368 Q35.6623 595.706 31.0327 591.122 Q26.38 586.516 25.0374 585.335 Q22.5143 583.09 20.7782 582.211 Q19.0189 581.308 17.3291 581.308 Q14.5745 581.308 12.8384 583.252 Q11.1023 585.173 11.1023 588.275 Q11.1023 590.474 11.8662 592.928 Q12.6301 595.359 14.181 598.136 L9.45878 598.136 Q8.32453 595.312 7.74583 592.859 Q7.16713 590.405 7.16713 588.368 Q7.16713 582.998 9.8523 579.803 Q12.5375 576.609 17.0282 576.609 Q19.1578 576.609 21.0791 577.419 Q22.9772 578.206 25.5698 580.312 Q26.2411 580.891 29.4587 583.993 Q32.6531 587.095 38.417 592.743 Z" fill="#000000" fill-rule="nonzero" fill-opacity="1" /><path clip-path="url(#clip760)" d="M10.8708 235.622 Q10.8708 239.234 14.4356 241.062 Q17.9773 242.868 25.1068 242.868 Q32.2133 242.868 35.7781 241.062 Q39.3197 239.234 39.3197 235.622 Q39.3197 231.988 35.7781 230.183 Q32.2133 228.354 25.1068 228.354 Q17.9773 228.354 14.4356 230.183 Q10.8708 231.988 10.8708 235.622 M7.16713 235.622 Q7.16713 229.812 11.7736 226.757 Q16.3569 223.678 25.1068 223.678 Q33.8337 223.678 38.4401 226.757 Q43.0234 229.812 43.0234 235.622 Q43.0234 241.433 38.4401 244.511 Q33.8337 247.567 25.1068 247.567 Q16.3569 247.567 11.7736 244.511 Q7.16713 241.433 7.16713 235.622 Z" fill="#000000" fill-rule="nonzero" fill-opacity="1" /><path clip-path="url(#clip760)" d="M36.4725 215.461 L36.4725 210.576 L42.3521 210.576 L42.3521 215.461 L36.4725 215.461 Z" fill="#000000" fill-rule="nonzero" fill-opacity="1" /><path clip-path="url(#clip760)" d="M10.8708 190.391 Q10.8708 194.002 14.4356 195.831 Q17.9773 197.637 25.1068 197.637 Q32.2133 197.637 35.7781 195.831 Q39.3197 194.002 39.3197 190.391 Q39.3197 186.757 35.7781 184.951 Q32.2133 183.123 25.1068 183.123 Q17.9773 183.123 14.4356 184.951 Q10.8708 186.757 10.8708 190.391 M7.16713 190.391 Q7.16713 184.581 11.7736 181.526 Q16.3569 178.447 25.1068 178.447 Q33.8337 178.447 38.4401 181.526 Q43.0234 184.581 43.0234 190.391 Q43.0234 196.201 38.4401 199.28 Q33.8337 202.336 25.1068 202.336 Q16.3569 202.336 11.7736 199.28 Q7.16713 196.201 7.16713 190.391 Z" fill="#000000" fill-rule="nonzero" fill-opacity="1" /><path clip-path="url(#clip760)" d="M23.718 156.063 Q24.4356 152.706 26.7041 150.831 Q28.9726 148.933 32.3059 148.933 Q37.4216 148.933 40.2225 152.452 Q43.0234 155.97 43.0234 162.452 Q43.0234 164.627 42.5836 166.942 Q42.1669 169.234 41.3105 171.688 L36.7966 171.688 Q37.9309 169.743 38.5096 167.428 Q39.0883 165.114 39.0883 162.59 Q39.0883 158.192 37.3522 155.901 Q35.6161 153.586 32.3059 153.586 Q29.2503 153.586 27.5374 155.739 Q25.8013 157.868 25.8013 161.688 L25.8013 165.715 L21.9587 165.715 L21.9587 161.502 Q21.9587 158.053 20.593 156.225 Q19.2041 154.396 16.6115 154.396 Q13.9495 154.396 12.5375 156.294 Q11.1023 158.169 11.1023 161.688 Q11.1023 163.609 11.519 165.808 Q11.9356 168.007 12.8152 170.646 L8.6486 170.646 Q7.90787 167.984 7.5375 165.669 Q7.16713 163.331 7.16713 161.271 Q7.16713 155.947 9.59767 152.845 Q12.0051 149.743 16.1254 149.743 Q18.9958 149.743 20.9865 151.387 Q22.9541 153.03 23.718 156.063 Z" fill="#000000" fill-rule="nonzero" fill-opacity="1" /><polyline clip-path="url(#clip762)" style="stroke:#009af9; stroke-linecap:round; stroke-linejoin:round; stroke-width:4; stroke-opacity:1; fill:none" points="151.118,1479.3 154.597,1479.3 158.076,1479.29 161.555,1479.28 165.034,1479.25 181.119,1478.4 197.203,1474.93 205.245,1471.53 213.288,1466.65 221.33,1460.05 229.372,1451.52 237.415,1440.88 245.457,1427.98 253.499,1412.71 261.542,1395.03 269.584,1374.89 277.626,1352.3 285.669,1327.31 293.711,1299.99 298.544,1282.49 303.377,1264.21 308.21,1245.18 313.043,1225.43 322.709,1183.9 332.376,1139.91 342.042,1093.8 351.708,1045.89 361.374,996.537 371.04,946.096 387.386,859.319 403.731,772.122 420.076,686.084 436.422,602.649 445.299,558.885 454.177,516.452 463.055,475.515 471.933,436.224 480.81,398.711 489.688,363.093 498.566,329.468 507.444,297.92 515.628,270.736 523.813,245.417 531.997,221.996 540.182,200.495 548.366,180.927 556.551,163.297 564.735,147.6 572.92,133.826 581.695,121.172 590.469,110.675 599.244,102.296 608.019,95.9893 616.793,91.7027 625.568,89.3786 634.343,88.9544 643.117,90.3635 653.284,94.196 663.45,100.281 673.616,108.5 683.783,118.733 693.949,130.856 704.115,144.745 714.282,160.276 724.448,177.324 742.517,210.991 760.586,248.395 778.656,288.891 796.725,331.867 828.415,411.529 860.105,494.334 894.656,585.477 929.207,675.169 946.585,719.125 963.963,762.05 981.341,803.787 998.719,844.21 1017.93,887.252 1037.15,928.46 1056.36,967.763 1075.57,1005.12 1093.86,1038.83 1112.14,1070.76 1130.42,1100.93 1148.7,1129.36 1167.71,1157.11 1186.72,1183.08 1205.72,1207.32 1224.73,1229.9 1240.73,1247.67 1256.74,1264.37 1272.74,1280.02 1288.74,1294.69 1308.27,1311.32 1327.81,1326.63 1347.34,1340.69 1366.88,1353.6 1402.67,1374.48 1438.46,1392.18 1471.52,1406.06 1504.57,1417.89 1538.06,1428.04 1571.54,1436.62 1609.07,1444.63 1646.6,1451.21 1680.6,1456.14 1714.61,1460.24 1792.48,1467.19 1864.58,1471.4 1935.66,1474.16 2004.67,1475.93 2075.42,1477.12 2152.93,1477.96 2265.53,1478.65 2288.63,1478.74 "/>
<path clip-path="url(#clip760)" d="M1757.81 200.05 L2277.23 200.05 L2277.23 96.3696 L1757.81 96.3696  Z" fill="#ffffff" fill-rule="evenodd" fill-opacity="1"/>
<polyline clip-path="url(#clip760)" style="stroke:#000000; stroke-linecap:round; stroke-linejoin:round; stroke-width:4; stroke-opacity:1; fill:none" points="1757.81,200.05 2277.23,200.05 2277.23,96.3696 1757.81,96.3696 1757.81,200.05 "/>
<polyline clip-path="url(#clip760)" style="stroke:#009af9; stroke-linecap:round; stroke-linejoin:round; stroke-width:4; stroke-opacity:1; fill:none" points="1782.98,148.21 1934.03,148.21 "/>
<path clip-path="url(#clip760)" d="M1984.77 160.559 L1984.77 151.277 L1977.13 151.277 L1977.13 147.434 L1989.39 147.434 L1989.39 162.272 Q1986.69 164.193 1983.42 165.189 Q1980.16 166.161 1976.45 166.161 Q1968.35 166.161 1963.77 161.439 Q1959.21 156.693 1959.21 148.244 Q1959.21 139.772 1963.77 135.05 Q1968.35 130.305 1976.45 130.305 Q1979.83 130.305 1982.87 131.138 Q1985.92 131.971 1988.49 133.592 L1988.49 138.568 Q1985.9 136.369 1982.98 135.258 Q1980.07 134.147 1976.85 134.147 Q1970.51 134.147 1967.31 137.689 Q1964.14 141.23 1964.14 148.244 Q1964.14 155.235 1967.31 158.777 Q1970.51 162.318 1976.85 162.318 Q1979.33 162.318 1981.27 161.902 Q1983.21 161.462 1984.77 160.559 Z" fill="#000000" fill-rule="nonzero" fill-opacity="1" /><path clip-path="url(#clip760)" d="M2009.53 152.457 Q2004.37 152.457 2002.38 153.638 Q2000.39 154.818 2000.39 157.666 Q2000.39 159.934 2001.87 161.277 Q2003.38 162.596 2005.95 162.596 Q2009.49 162.596 2011.62 160.096 Q2013.77 157.573 2013.77 153.406 L2013.77 152.457 L2009.53 152.457 M2018.03 150.698 L2018.03 165.49 L2013.77 165.49 L2013.77 161.554 Q2012.31 163.915 2010.14 165.05 Q2007.96 166.161 2004.81 166.161 Q2000.83 166.161 1998.47 163.939 Q1996.13 161.693 1996.13 157.943 Q1996.13 153.568 1999.05 151.346 Q2001.99 149.124 2007.8 149.124 L2013.77 149.124 L2013.77 148.707 Q2013.77 145.767 2011.83 144.17 Q2009.9 142.55 2006.41 142.55 Q2004.19 142.55 2002.08 143.082 Q1999.97 143.615 1998.03 144.679 L1998.03 140.744 Q2000.37 139.842 2002.57 139.402 Q2004.76 138.939 2006.85 138.939 Q2012.47 138.939 2015.25 141.855 Q2018.03 144.772 2018.03 150.698 Z" fill="#000000" fill-rule="nonzero" fill-opacity="1" /><path clip-path="url(#clip760)" d="M2046.99 144.541 Q2048.58 141.67 2050.81 140.305 Q2053.03 138.939 2056.04 138.939 Q2060.09 138.939 2062.29 141.786 Q2064.49 144.61 2064.49 149.841 L2064.49 165.49 L2060.2 165.49 L2060.2 149.98 Q2060.2 146.254 2058.89 144.448 Q2057.57 142.642 2054.86 142.642 Q2051.55 142.642 2049.63 144.842 Q2047.7 147.041 2047.7 150.837 L2047.7 165.49 L2043.42 165.49 L2043.42 149.98 Q2043.42 146.23 2042.1 144.448 Q2040.78 142.642 2038.03 142.642 Q2034.76 142.642 2032.84 144.865 Q2030.92 147.064 2030.92 150.837 L2030.92 165.49 L2026.64 165.49 L2026.64 139.564 L2030.92 139.564 L2030.92 143.592 Q2032.38 141.207 2034.42 140.073 Q2036.45 138.939 2039.26 138.939 Q2042.08 138.939 2044.05 140.374 Q2046.04 141.809 2046.99 144.541 Z" fill="#000000" fill-rule="nonzero" fill-opacity="1" /><path clip-path="url(#clip760)" d="M2093.17 144.541 Q2094.76 141.67 2096.99 140.305 Q2099.21 138.939 2102.22 138.939 Q2106.27 138.939 2108.47 141.786 Q2110.67 144.61 2110.67 149.841 L2110.67 165.49 L2106.38 165.49 L2106.38 149.98 Q2106.38 146.254 2105.07 144.448 Q2103.75 142.642 2101.04 142.642 Q2097.73 142.642 2095.81 144.842 Q2093.88 147.041 2093.88 150.837 L2093.88 165.49 L2089.6 165.49 L2089.6 149.98 Q2089.6 146.23 2088.28 144.448 Q2086.96 142.642 2084.21 142.642 Q2080.95 142.642 2079.02 144.865 Q2077.1 147.064 2077.1 150.837 L2077.1 165.49 L2072.82 165.49 L2072.82 139.564 L2077.1 139.564 L2077.1 143.592 Q2078.56 141.207 2080.6 140.073 Q2082.63 138.939 2085.44 138.939 Q2088.26 138.939 2090.23 140.374 Q2092.22 141.809 2093.17 144.541 Z" fill="#000000" fill-rule="nonzero" fill-opacity="1" /><path clip-path="url(#clip760)" d="M2130.94 152.457 Q2125.78 152.457 2123.79 153.638 Q2121.8 154.818 2121.8 157.666 Q2121.8 159.934 2123.28 161.277 Q2124.79 162.596 2127.36 162.596 Q2130.9 162.596 2133.03 160.096 Q2135.18 157.573 2135.18 153.406 L2135.18 152.457 L2130.94 152.457 M2139.44 150.698 L2139.44 165.49 L2135.18 165.49 L2135.18 161.554 Q2133.72 163.915 2131.55 165.05 Q2129.37 166.161 2126.22 166.161 Q2122.24 166.161 2119.88 163.939 Q2117.54 161.693 2117.54 157.943 Q2117.54 153.568 2120.46 151.346 Q2123.4 149.124 2129.21 149.124 L2135.18 149.124 L2135.18 148.707 Q2135.18 145.767 2133.24 144.17 Q2131.32 142.55 2127.82 142.55 Q2125.6 142.55 2123.49 143.082 Q2121.38 143.615 2119.44 144.679 L2119.44 140.744 Q2121.78 139.842 2123.98 139.402 Q2126.18 138.939 2128.26 138.939 Q2133.88 138.939 2136.66 141.855 Q2139.44 144.772 2139.44 150.698 Z" fill="#000000" fill-rule="nonzero" fill-opacity="1" /><path clip-path="url(#clip760)" d="M2158.44 129.518 Q2155.34 134.842 2153.84 140.05 Q2152.33 145.258 2152.33 150.605 Q2152.33 155.953 2153.84 161.207 Q2155.37 166.439 2158.44 171.74 L2154.74 171.74 Q2151.27 166.3 2149.53 161.045 Q2147.82 155.791 2147.82 150.605 Q2147.82 145.443 2149.53 140.212 Q2151.25 134.98 2154.74 129.518 L2158.44 129.518 Z" fill="#000000" fill-rule="nonzero" fill-opacity="1" /><path clip-path="url(#clip760)" d="M2167.36 130.93 L2185.71 130.93 L2185.71 134.865 L2171.64 134.865 L2171.64 143.337 Q2172.66 142.99 2173.68 142.828 Q2174.69 142.642 2175.71 142.642 Q2181.5 142.642 2184.88 145.814 Q2188.26 148.985 2188.26 154.402 Q2188.26 159.98 2184.79 163.082 Q2181.31 166.161 2175 166.161 Q2172.82 166.161 2170.55 165.79 Q2168.31 165.42 2165.9 164.679 L2165.9 159.98 Q2167.98 161.115 2170.2 161.67 Q2172.43 162.226 2174.9 162.226 Q2178.91 162.226 2181.25 160.119 Q2183.58 158.013 2183.58 154.402 Q2183.58 150.791 2181.25 148.684 Q2178.91 146.578 2174.9 146.578 Q2173.03 146.578 2171.15 146.994 Q2169.3 147.411 2167.36 148.291 L2167.36 130.93 Z" fill="#000000" fill-rule="nonzero" fill-opacity="1" /><path clip-path="url(#clip760)" d="M2197.96 159.61 L2202.84 159.61 L2202.84 163.591 L2199.05 170.999 L2196.06 170.999 L2197.96 163.591 L2197.96 159.61 Z" fill="#000000" fill-rule="nonzero" fill-opacity="1" /><path clip-path="url(#clip760)" d="M2223.12 146.346 Q2219.97 146.346 2218.12 148.499 Q2216.29 150.652 2216.29 154.402 Q2216.29 158.128 2218.12 160.304 Q2219.97 162.457 2223.12 162.457 Q2226.27 162.457 2228.1 160.304 Q2229.95 158.128 2229.95 154.402 Q2229.95 150.652 2228.1 148.499 Q2226.27 146.346 2223.12 146.346 M2232.4 131.693 L2232.4 135.953 Q2230.64 135.119 2228.84 134.68 Q2227.06 134.24 2225.3 134.24 Q2220.67 134.24 2218.21 137.365 Q2215.78 140.49 2215.44 146.809 Q2216.8 144.795 2218.86 143.73 Q2220.92 142.642 2223.4 142.642 Q2228.61 142.642 2231.62 145.814 Q2234.65 148.962 2234.65 154.402 Q2234.65 159.726 2231.5 162.943 Q2228.35 166.161 2223.12 166.161 Q2217.12 166.161 2213.95 161.578 Q2210.78 156.971 2210.78 148.244 Q2210.78 140.05 2214.67 135.189 Q2218.56 130.305 2225.11 130.305 Q2226.87 130.305 2228.65 130.652 Q2230.46 130.999 2232.4 131.693 Z" fill="#000000" fill-rule="nonzero" fill-opacity="1" /><path clip-path="url(#clip760)" d="M2241.43 129.518 L2245.13 129.518 Q2248.61 134.98 2250.32 140.212 Q2252.06 145.443 2252.06 150.605 Q2252.06 155.791 2250.32 161.045 Q2248.61 166.3 2245.13 171.74 L2241.43 171.74 Q2244.51 166.439 2246.01 161.207 Q2247.54 155.953 2247.54 150.605 Q2247.54 145.258 2246.01 140.05 Q2244.51 134.842 2241.43 129.518 Z" fill="#000000" fill-rule="nonzero" fill-opacity="1" /></svg>
