<?xml version="1.0" encoding="utf-8"?>
<svg xmlns="http://www.w3.org/2000/svg" xmlns:xlink="http://www.w3.org/1999/xlink" width="600" height="400" viewBox="0 0 2400 1600">
<defs>
  <clipPath id="clip370">
    <rect x="0" y="0" width="2400" height="1600"/>
  </clipPath>
</defs>
<path clip-path="url(#clip370)" d="M0 1600 L2400 1600 L2400 0 L0 0  Z" fill="#ffffff" fill-rule="evenodd" fill-opacity="1"/>
<defs>
  <clipPath id="clip371">
    <rect x="480" y="0" width="1681" height="1600"/>
  </clipPath>
</defs>
<path clip-path="url(#clip370)" d="M86.9921 1521.01 L2352.76 1521.01 L2352.76 47.2441 L86.9921 47.2441  Z" fill="#ffffff" fill-rule="evenodd" fill-opacity="1"/>
<defs>
  <clipPath id="clip372">
    <rect x="86" y="47" width="2267" height="1475"/>
  </clipPath>
</defs>
<polyline clip-path="url(#clip372)" style="stroke:#000000; stroke-linecap:round; stroke-linejoin:round; stroke-width:2; stroke-opacity:0.1; fill:none" points="151.118,1521.01 151.118,47.2441 "/>
<polyline clip-path="url(#clip372)" style="stroke:#000000; stroke-linecap:round; stroke-linejoin:round; stroke-width:2; stroke-opacity:0.1; fill:none" points="601.12,1521.01 601.12,47.2441 "/>
<polyline clip-path="url(#clip372)" style="stroke:#000000; stroke-linecap:round; stroke-linejoin:round; stroke-width:2; stroke-opacity:0.1; fill:none" points="1051.12,1521.01 1051.12,47.2441 "/>
<polyline clip-path="url(#clip372)" style="stroke:#000000; stroke-linecap:round; stroke-linejoin:round; stroke-width:2; stroke-opacity:0.1; fill:none" points="1501.13,1521.01 1501.13,47.2441 "/>
<polyline clip-path="url(#clip372)" style="stroke:#000000; stroke-linecap:round; stroke-linejoin:round; stroke-width:2; stroke-opacity:0.1; fill:none" points="1951.13,1521.01 1951.13,47.2441 "/>
<polyline clip-path="url(#clip370)" style="stroke:#000000; stroke-linecap:round; stroke-linejoin:round; stroke-width:4; stroke-opacity:1; fill:none" points="86.9921,1521.01 2352.76,1521.01 "/>
<polyline clip-path="url(#clip370)" style="stroke:#000000; stroke-linecap:round; stroke-linejoin:round; stroke-width:4; stroke-opacity:1; fill:none" points="151.118,1521.01 151.118,1502.11 "/>
<polyline clip-path="url(#clip370)" style="stroke:#000000; stroke-linecap:round; stroke-linejoin:round; stroke-width:4; stroke-opacity:1; fill:none" points="601.12,1521.01 601.12,1502.11 "/>
<polyline clip-path="url(#clip370)" style="stroke:#000000; stroke-linecap:round; stroke-linejoin:round; stroke-width:4; stroke-opacity:1; fill:none" points="1051.12,1521.01 1051.12,1502.11 "/>
<polyline clip-path="url(#clip370)" style="stroke:#000000; stroke-linecap:round; stroke-linejoin:round; stroke-width:4; stroke-opacity:1; fill:none" points="1501.13,1521.01 1501.13,1502.11 "/>
<polyline clip-path="url(#clip370)" style="stroke:#000000; stroke-linecap:round; stroke-linejoin:round; stroke-width:4; stroke-opacity:1; fill:none" points="1951.13,1521.01 1951.13,1502.11 "/>
<path clip-path="url(#clip370)" d="M151.118 1551.93 Q147.506 1551.93 145.678 1555.49 Q143.872 1559.03 143.872 1566.16 Q143.872 1573.27 145.678 1576.83 Q147.506 1580.38 151.118 1580.38 Q154.752 1580.38 156.557 1576.83 Q158.386 1573.27 158.386 1566.16 Q158.386 1559.03 156.557 1555.49 Q154.752 1551.93 151.118 1551.93 M151.118 1548.22 Q156.928 1548.22 159.983 1552.83 Q163.062 1557.41 163.062 1566.16 Q163.062 1574.89 159.983 1579.5 Q156.928 1584.08 151.118 1584.08 Q145.307 1584.08 142.229 1579.5 Q139.173 1574.89 139.173 1566.16 Q139.173 1557.41 142.229 1552.83 Q145.307 1548.22 151.118 1548.22 Z" fill="#000000" fill-rule="nonzero" fill-opacity="1" /><path clip-path="url(#clip370)" d="M579.894 1579.47 L596.213 1579.47 L596.213 1583.41 L574.269 1583.41 L574.269 1579.47 Q576.931 1576.72 581.514 1572.09 Q586.12 1567.44 587.301 1566.09 Q589.546 1563.57 590.426 1561.83 Q591.329 1560.07 591.329 1558.38 Q591.329 1555.63 589.384 1553.89 Q587.463 1552.16 584.361 1552.16 Q582.162 1552.16 579.708 1552.92 Q577.278 1553.69 574.5 1555.24 L574.5 1550.51 Q577.324 1549.38 579.778 1548.8 Q582.231 1548.22 584.268 1548.22 Q589.639 1548.22 592.833 1550.91 Q596.028 1553.59 596.028 1558.08 Q596.028 1560.21 595.218 1562.13 Q594.43 1564.03 592.324 1566.63 Q591.745 1567.3 588.643 1570.51 Q585.542 1573.71 579.894 1579.47 Z" fill="#000000" fill-rule="nonzero" fill-opacity="1" /><path clip-path="url(#clip370)" d="M616.028 1551.93 Q612.416 1551.93 610.588 1555.49 Q608.782 1559.03 608.782 1566.16 Q608.782 1573.27 610.588 1576.83 Q612.416 1580.38 616.028 1580.38 Q619.662 1580.38 621.467 1576.83 Q623.296 1573.27 623.296 1566.16 Q623.296 1559.03 621.467 1555.49 Q619.662 1551.93 616.028 1551.93 M616.028 1548.22 Q621.838 1548.22 624.893 1552.83 Q627.972 1557.41 627.972 1566.16 Q627.972 1574.89 624.893 1579.5 Q621.838 1584.08 616.028 1584.08 Q610.217 1584.08 607.139 1579.5 Q604.083 1574.89 604.083 1566.16 Q604.083 1557.41 607.139 1552.83 Q610.217 1548.22 616.028 1548.22 Z" fill="#000000" fill-rule="nonzero" fill-opacity="1" /><path clip-path="url(#clip370)" d="M1039.29 1552.92 L1027.49 1571.37 L1039.29 1571.37 L1039.29 1552.92 M1038.07 1548.85 L1043.95 1548.85 L1043.95 1571.37 L1048.88 1571.37 L1048.88 1575.26 L1043.95 1575.26 L1043.95 1583.41 L1039.29 1583.41 L1039.29 1575.26 L1023.69 1575.26 L1023.69 1570.75 L1038.07 1548.85 Z" fill="#000000" fill-rule="nonzero" fill-opacity="1" /><path clip-path="url(#clip370)" d="M1066.61 1551.93 Q1063 1551.93 1061.17 1555.49 Q1059.36 1559.03 1059.36 1566.16 Q1059.36 1573.27 1061.17 1576.83 Q1063 1580.38 1066.61 1580.38 Q1070.24 1580.38 1072.05 1576.83 Q1073.88 1573.27 1073.88 1566.16 Q1073.88 1559.03 1072.05 1555.49 Q1070.24 1551.93 1066.61 1551.93 M1066.61 1548.22 Q1072.42 1548.22 1075.47 1552.83 Q1078.55 1557.41 1078.55 1566.16 Q1078.55 1574.89 1075.47 1579.5 Q1072.42 1584.08 1066.61 1584.08 Q1060.8 1584.08 1057.72 1579.5 Q1054.66 1574.89 1054.66 1566.16 Q1054.66 1557.41 1057.72 1552.83 Q1060.8 1548.22 1066.61 1548.22 Z" fill="#000000" fill-rule="nonzero" fill-opacity="1" /><path clip-path="url(#clip370)" d="M1486.53 1564.26 Q1483.38 1564.26 1481.53 1566.42 Q1479.7 1568.57 1479.7 1572.32 Q1479.7 1576.05 1481.53 1578.22 Q1483.38 1580.38 1486.53 1580.38 Q1489.68 1580.38 1491.51 1578.22 Q1493.36 1576.05 1493.36 1572.32 Q1493.36 1568.57 1491.51 1566.42 Q1489.68 1564.26 1486.53 1564.26 M1495.81 1549.61 L1495.81 1553.87 Q1494.05 1553.04 1492.25 1552.6 Q1490.47 1552.16 1488.71 1552.16 Q1484.08 1552.16 1481.62 1555.28 Q1479.19 1558.41 1478.85 1564.73 Q1480.21 1562.71 1482.27 1561.65 Q1484.33 1560.56 1486.81 1560.56 Q1492.02 1560.56 1495.03 1563.73 Q1498.06 1566.88 1498.06 1572.32 Q1498.06 1577.64 1494.91 1580.86 Q1491.76 1584.08 1486.53 1584.08 Q1480.54 1584.08 1477.36 1579.5 Q1474.19 1574.89 1474.19 1566.16 Q1474.19 1557.97 1478.08 1553.11 Q1481.97 1548.22 1488.52 1548.22 Q1490.28 1548.22 1492.06 1548.57 Q1493.87 1548.92 1495.81 1549.61 Z" fill="#000000" fill-rule="nonzero" fill-opacity="1" /><path clip-path="url(#clip370)" d="M1516.11 1551.93 Q1512.5 1551.93 1510.67 1555.49 Q1508.87 1559.03 1508.87 1566.16 Q1508.87 1573.27 1510.67 1576.83 Q1512.5 1580.38 1516.11 1580.38 Q1519.75 1580.38 1521.55 1576.83 Q1523.38 1573.27 1523.38 1566.16 Q1523.38 1559.03 1521.55 1555.49 Q1519.75 1551.93 1516.11 1551.93 M1516.11 1548.22 Q1521.92 1548.22 1524.98 1552.83 Q1528.06 1557.41 1528.06 1566.16 Q1528.06 1574.89 1524.98 1579.5 Q1521.92 1584.08 1516.11 1584.08 Q1510.3 1584.08 1507.23 1579.5 Q1504.17 1574.89 1504.17 1566.16 Q1504.17 1557.41 1507.23 1552.83 Q1510.3 1548.22 1516.11 1548.22 Z" fill="#000000" fill-rule="nonzero" fill-opacity="1" /><path clip-path="url(#clip370)" d="M1936 1567 Q1932.67 1567 1930.75 1568.78 Q1928.85 1570.56 1928.85 1573.69 Q1928.85 1576.81 1930.75 1578.59 Q1932.67 1580.38 1936 1580.38 Q1939.33 1580.38 1941.26 1578.59 Q1943.18 1576.79 1943.18 1573.69 Q1943.18 1570.56 1941.26 1568.78 Q1939.36 1567 1936 1567 M1931.33 1565.01 Q1928.32 1564.26 1926.63 1562.2 Q1924.96 1560.14 1924.96 1557.18 Q1924.96 1553.04 1927.9 1550.63 Q1930.86 1548.22 1936 1548.22 Q1941.16 1548.22 1944.1 1550.63 Q1947.04 1553.04 1947.04 1557.18 Q1947.04 1560.14 1945.35 1562.2 Q1943.69 1564.26 1940.7 1565.01 Q1944.08 1565.79 1945.95 1568.08 Q1947.85 1570.38 1947.85 1573.69 Q1947.85 1578.71 1944.77 1581.39 Q1941.72 1584.08 1936 1584.08 Q1930.28 1584.08 1927.2 1581.39 Q1924.15 1578.71 1924.15 1573.69 Q1924.15 1570.38 1926.05 1568.08 Q1927.95 1565.79 1931.33 1565.01 M1929.61 1557.62 Q1929.61 1560.31 1931.28 1561.81 Q1932.97 1563.32 1936 1563.32 Q1939.01 1563.32 1940.7 1561.81 Q1942.41 1560.31 1942.41 1557.62 Q1942.41 1554.94 1940.7 1553.43 Q1939.01 1551.93 1936 1551.93 Q1932.97 1551.93 1931.28 1553.43 Q1929.61 1554.94 1929.61 1557.62 Z" fill="#000000" fill-rule="nonzero" fill-opacity="1" /><path clip-path="url(#clip370)" d="M1966.16 1551.93 Q1962.55 1551.93 1960.72 1555.49 Q1958.92 1559.03 1958.92 1566.16 Q1958.92 1573.27 1960.72 1576.83 Q1962.55 1580.38 1966.16 1580.38 Q1969.8 1580.38 1971.6 1576.83 Q1973.43 1573.27 1973.43 1566.16 Q1973.43 1559.03 1971.6 1555.49 Q1969.8 1551.93 1966.16 1551.93 M1966.16 1548.22 Q1971.97 1548.22 1975.03 1552.83 Q1978.11 1557.41 1978.11 1566.16 Q1978.11 1574.89 1975.03 1579.5 Q1971.97 1584.08 1966.16 1584.08 Q1960.35 1584.08 1957.27 1579.5 Q1954.22 1574.89 1954.22 1566.16 Q1954.22 1557.41 1957.27 1552.83 Q1960.35 1548.22 1966.16 1548.22 Z" fill="#000000" fill-rule="nonzero" fill-opacity="1" /><polyline clip-path="url(#clip372)" style="stroke:#000000; stroke-linecap:round; stroke-linejoin:round; stroke-width:2; stroke-opacity:0.1; fill:none" points="86.9921,1479.3 2352.76,1479.3 "/>
<polyline clip-path="url(#clip372)" style="stroke:#000000; stroke-linecap:round; stroke-linejoin:round; stroke-width:2; stroke-opacity:0.1; fill:none" points="86.9921,1089.24 2352.76,1089.24 "/>
<polyline clip-path="url(#clip372)" style="stroke:#000000; stroke-linecap:round; stroke-linejoin:round; stroke-width:2; stroke-opacity:0.1; fill:none" points="86.9921,699.174 2352.76,699.174 "/>
<polyline clip-path="url(#clip372)" style="stroke:#000000; stroke-linecap:round; stroke-linejoin:round; stroke-width:2; stroke-opacity:0.1; fill:none" points="86.9921,309.112 2352.76,309.112 "/>
<polyline clip-path="url(#clip370)" style="stroke:#000000; stroke-linecap:round; stroke-linejoin:round; stroke-width:4; stroke-opacity:1; fill:none" points="86.9921,1521.01 86.9921,47.2441 "/>
<polyline clip-path="url(#clip370)" style="stroke:#000000; stroke-linecap:round; stroke-linejoin:round; stroke-width:4; stroke-opacity:1; fill:none" points="86.9921,1479.3 105.89,1479.3 "/>
<polyline clip-path="url(#clip370)" style="stroke:#000000; stroke-linecap:round; stroke-linejoin:round; stroke-width:4; stroke-opacity:1; fill:none" points="86.9921,1089.24 105.89,1089.24 "/>
<polyline clip-path="url(#clip370)" style="stroke:#000000; stroke-linecap:round; stroke-linejoin:round; stroke-width:4; stroke-opacity:1; fill:none" points="86.9921,699.174 105.89,699.174 "/>
<polyline clip-path="url(#clip370)" style="stroke:#000000; stroke-linecap:round; stroke-linejoin:round; stroke-width:4; stroke-opacity:1; fill:none" points="86.9921,309.112 105.89,309.112 "/>
<path clip-path="url(#clip370)" d="M10.8708 1516.99 Q10.8708 1520.61 14.4356 1522.43 Q17.9773 1524.24 25.1068 1524.24 Q32.2133 1524.24 35.7781 1522.43 Q39.3197 1520.61 39.3197 1516.99 Q39.3197 1513.36 35.7781 1511.55 Q32.2133 1509.73 25.1068 1509.73 Q17.9773 1509.73 14.4356 1511.55 Q10.8708 1513.36 10.8708 1516.99 M7.16713 1516.99 Q7.16713 1511.18 11.7736 1508.13 Q16.3569 1505.05 25.1068 1505.05 Q33.8337 1505.05 38.4401 1508.13 Q43.0234 1511.18 43.0234 1516.99 Q43.0234 1522.8 38.4401 1525.88 Q33.8337 1528.94 25.1068 1528.94 Q16.3569 1528.94 11.7736 1525.88 Q7.16713 1522.8 7.16713 1516.99 Z" fill="#000000" fill-rule="nonzero" fill-opacity="1" /><path clip-path="url(#clip370)" d="M36.4725 1496.83 L36.4725 1491.95 L42.3521 1491.95 L42.3521 1496.83 L36.4725 1496.83 Z" fill="#000000" fill-rule="nonzero" fill-opacity="1" /><path clip-path="url(#clip370)" d="M10.8708 1471.76 Q10.8708 1475.37 14.4356 1477.2 Q17.9773 1479.01 25.1068 1479.01 Q32.2133 1479.01 35.7781 1477.2 Q39.3197 1475.37 39.3197 1471.76 Q39.3197 1468.13 35.7781 1466.32 Q32.2133 1464.49 25.1068 1464.49 Q17.9773 1464.49 14.4356 1466.32 Q10.8708 1468.13 10.8708 1471.76 M7.16713 1471.76 Q7.16713 1465.95 11.7736 1462.9 Q16.3569 1459.82 25.1068 1459.82 Q33.8337 1459.82 38.4401 1462.9 Q43.0234 1465.95 43.0234 1471.76 Q43.0234 1477.57 38.4401 1480.65 Q33.8337 1483.71 25.1068 1483.71 Q16.3569 1483.71 11.7736 1480.65 Q7.16713 1477.57 7.16713 1471.76 Z" fill="#000000" fill-rule="nonzero" fill-opacity="1" /><path clip-path="url(#clip370)" d="M10.8708 1441.6 Q10.8708 1445.21 14.4356 1447.04 Q17.9773 1448.85 25.1068 1448.85 Q32.2133 1448.85 35.7781 1447.04 Q39.3197 1445.21 39.3197 1441.6 Q39.3197 1437.97 35.7781 1436.16 Q32.2133 1434.33 25.1068 1434.33 Q17.9773 1434.33 14.4356 1436.16 Q10.8708 1437.97 10.8708 1441.6 M7.16713 1441.6 Q7.16713 1435.79 11.7736 1432.74 Q16.3569 1429.66 25.1068 1429.66 Q33.8337 1429.66 38.4401 1432.74 Q43.0234 1435.79 43.0234 1441.6 Q43.0234 1447.41 38.4401 1450.49 Q33.8337 1453.55 25.1068 1453.55 Q16.3569 1453.55 11.7736 1450.49 Q7.16713 1447.41 7.16713 1441.6 Z" fill="#000000" fill-rule="nonzero" fill-opacity="1" /><path clip-path="url(#clip370)" d="M10.8708 1126.32 Q10.8708 1129.93 14.4356 1131.76 Q17.9773 1133.56 25.1068 1133.56 Q32.2133 1133.56 35.7781 1131.76 Q39.3197 1129.93 39.3197 1126.32 Q39.3197 1122.68 35.7781 1120.88 Q32.2133 1119.05 25.1068 1119.05 Q17.9773 1119.05 14.4356 1120.88 Q10.8708 1122.68 10.8708 1126.32 M7.16713 1126.32 Q7.16713 1120.51 11.7736 1117.45 Q16.3569 1114.37 25.1068 1114.37 Q33.8337 1114.37 38.4401 1117.45 Q43.0234 1120.51 43.0234 1126.32 Q43.0234 1132.13 38.4401 1135.21 Q33.8337 1138.26 25.1068 1138.26 Q16.3569 1138.26 11.7736 1135.21 Q7.16713 1132.13 7.16713 1126.32 Z" fill="#000000" fill-rule="nonzero" fill-opacity="1" /><path clip-path="url(#clip370)" d="M36.4725 1106.16 L36.4725 1101.27 L42.3521 1101.27 L42.3521 1106.16 L36.4725 1106.16 Z" fill="#000000" fill-rule="nonzero" fill-opacity="1" /><path clip-path="url(#clip370)" d="M10.8708 1081.09 Q10.8708 1084.7 14.4356 1086.53 Q17.9773 1088.33 25.1068 1088.33 Q32.2133 1088.33 35.7781 1086.53 Q39.3197 1084.7 39.3197 1081.09 Q39.3197 1077.45 35.7781 1075.65 Q32.2133 1073.82 25.1068 1073.82 Q17.9773 1073.82 14.4356 1075.65 Q10.8708 1077.45 10.8708 1081.09 M7.16713 1081.09 Q7.16713 1075.28 11.7736 1072.22 Q16.3569 1069.14 25.1068 1069.14 Q33.8337 1069.14 38.4401 1072.22 Q43.0234 1075.28 43.0234 1081.09 Q43.0234 1086.9 38.4401 1089.98 Q33.8337 1093.03 25.1068 1093.03 Q16.3569 1093.03 11.7736 1089.98 Q7.16713 1086.9 7.16713 1081.09 Z" fill="#000000" fill-rule="nonzero" fill-opacity="1" /><path clip-path="url(#clip370)" d="M38.417 1060.12 L38.417 1052.48 L12.0514 1052.48 L13.718 1060.79 L9.45878 1060.79 L7.79213 1052.52 L7.79213 1047.85 L38.417 1047.85 L38.417 1040.21 L42.3521 1040.21 L42.3521 1060.12 L38.417 1060.12 Z" fill="#000000" fill-rule="nonzero" fill-opacity="1" /><path clip-path="url(#clip370)" d="M10.8708 736.072 Q10.8708 739.683 14.4356 741.512 Q17.9773 743.317 25.1068 743.317 Q32.2133 743.317 35.7781 741.512 Q39.3197 739.683 39.3197 736.072 Q39.3197 732.438 35.7781 730.632 Q32.2133 728.804 25.1068 728.804 Q17.9773 728.804 14.4356 730.632 Q10.8708 732.438 10.8708 736.072 M7.16713 736.072 Q7.16713 730.262 11.7736 727.206 Q16.3569 724.128 25.1068 724.128 Q33.8337 724.128 38.4401 727.206 Q43.0234 730.262 43.0234 736.072 Q43.0234 741.882 38.4401 744.961 Q33.8337 748.016 25.1068 748.016 Q16.3569 748.016 11.7736 744.961 Q7.16713 741.882 7.16713 736.072 Z" fill="#000000" fill-rule="nonzero" fill-opacity="1" /><path clip-path="url(#clip370)" d="M36.4725 715.91 L36.4725 711.026 L42.3521 711.026 L42.3521 715.91 L36.4725 715.91 Z" fill="#000000" fill-rule="nonzero" fill-opacity="1" /><path clip-path="url(#clip370)" d="M10.8708 690.841 Q10.8708 694.452 14.4356 696.281 Q17.9773 698.086 25.1068 698.086 Q32.2133 698.086 35.7781 696.281 Q39.3197 694.452 39.3197 690.841 Q39.3197 687.207 35.7781 685.401 Q32.2133 683.572 25.1068 683.572 Q17.9773 683.572 14.4356 685.401 Q10.8708 687.207 10.8708 690.841 M7.16713 690.841 Q7.16713 685.031 11.7736 681.975 Q16.3569 678.896 25.1068 678.896 Q33.8337 678.896 38.4401 681.975 Q43.0234 685.031 43.0234 690.841 Q43.0234 696.651 38.4401 699.73 Q33.8337 702.785 25.1068 702.785 Q16.3569 702.785 11.7736 699.73 Q7.16713 696.651 7.16713 690.841 Z" fill="#000000" fill-rule="nonzero" fill-opacity="1" /><path clip-path="url(#clip370)" d="M38.417 666.651 L38.417 650.332 L42.3521 650.332 L42.3521 672.276 L38.417 672.276 Q35.6623 669.614 31.0327 665.031 Q26.38 660.424 25.0374 659.244 Q22.5143 656.998 20.7782 656.119 Q19.0189 655.216 17.3291 655.216 Q14.5745 655.216 12.8384 657.16 Q11.1023 659.082 11.1023 662.184 Q11.1023 664.383 11.8662 666.836 Q12.6301 669.267 14.181 672.045 L9.45878 672.045 Q8.32453 669.221 7.74583 666.767 Q7.16713 664.313 7.16713 662.276 Q7.16713 656.906 9.8523 653.711 Q12.5375 650.517 17.0282 650.517 Q19.1578 650.517 21.0791 651.327 Q22.9772 652.114 25.5698 654.221 Q26.2411 654.799 29.4587 657.901 Q32.6531 661.003 38.417 666.651 Z" fill="#000000" fill-rule="nonzero" fill-opacity="1" /><path clip-path="url(#clip370)" d="M10.8708 346.485 Q10.8708 350.096 14.4356 351.925 Q17.9773 353.73 25.1068 353.73 Q32.2133 353.73 35.7781 351.925 Q39.3197 350.096 39.3197 346.485 Q39.3197 342.851 35.7781 341.045 Q32.2133 339.216 25.1068 339.216 Q17.9773 339.216 14.4356 341.045 Q10.8708 342.851 10.8708 346.485 M7.16713 346.485 Q7.16713 340.675 11.7736 337.619 Q16.3569 334.54 25.1068 334.54 Q33.8337 334.54 38.4401 337.619 Q43.0234 340.675 43.0234 346.485 Q43.0234 352.295 38.4401 355.374 Q33.8337 358.429 25.1068 358.429 Q16.3569 358.429 11.7736 355.374 Q7.16713 352.295 7.16713 346.485 Z" fill="#000000" fill-rule="nonzero" fill-opacity="1" /><path clip-path="url(#clip370)" d="M36.4725 326.323 L36.4725 321.439 L42.3521 321.439 L42.3521 326.323 L36.4725 326.323 Z" fill="#000000" fill-rule="nonzero" fill-opacity="1" /><path clip-path="url(#clip370)" d="M10.8708 301.254 Q10.8708 304.865 14.4356 306.693 Q17.9773 308.499 25.1068 308.499 Q32.2133 308.499 35.7781 306.693 Q39.3197 304.865 39.3197 301.254 Q39.3197 297.619 35.7781 295.814 Q32.2133 293.985 25.1068 293.985 Q17.9773 293.985 14.4356 295.814 Q10.8708 297.619 10.8708 301.254 M7.16713 301.254 Q7.16713 295.443 11.7736 292.388 Q16.3569 289.309 25.1068 289.309 Q33.8337 289.309 38.4401 292.388 Q43.0234 295.443 43.0234 301.254 Q43.0234 307.064 38.4401 310.142 Q33.8337 313.198 25.1068 313.198 Q16.3569 313.198 11.7736 310.142 Q7.16713 307.064 7.16713 301.254 Z" fill="#000000" fill-rule="nonzero" fill-opacity="1" /><path clip-path="url(#clip370)" d="M23.718 266.925 Q24.4356 263.569 26.7041 261.694 Q28.9726 259.795 32.3059 259.795 Q37.4216 259.795 40.2225 263.314 Q43.0234 266.832 43.0234 273.314 Q43.0234 275.49 42.5836 277.805 Q42.1669 280.096 41.3105 282.55 L36.7966 282.55 Q37.9309 280.606 38.5096 278.291 Q39.0883 275.976 39.0883 273.453 Q39.0883 269.055 37.3522 266.763 Q35.6161 264.448 32.3059 264.448 Q29.2503 264.448 27.5374 266.601 Q25.8013 268.731 25.8013 272.55 L25.8013 276.578 L21.9587 276.578 L21.9587 272.365 Q21.9587 268.916 20.593 267.087 Q19.2041 265.258 16.6115 265.258 Q13.9495 265.258 12.5375 267.157 Q11.1023 269.031 11.1023 272.55 Q11.1023 274.471 11.519 276.67 Q11.9356 278.869 12.8152 281.508 L8.6486 281.508 Q7.90787 278.846 7.5375 276.531 Q7.16713 274.194 7.16713 272.133 Q7.16713 266.809 9.59767 263.707 Q12.0051 260.606 16.1254 260.606 Q18.9958 260.606 20.9865 262.249 Q22.9541 263.893 23.718 266.925 Z" fill="#000000" fill-rule="nonzero" fill-opacity="1" /><polyline clip-path="url(#clip372)" style="stroke:#009af9; stroke-linecap:round; stroke-linejoin:round; stroke-width:4; stroke-opacity:1; fill:none" points="151.118,1479.3 151.118,1474.28 "/>
<polyline clip-path="url(#clip372)" style="stroke:#009af9; stroke-linecap:round; stroke-linejoin:round; stroke-width:4; stroke-opacity:1; fill:none" points="173.618,1479.3 173.618,1458.4 "/>
<polyline clip-path="url(#clip372)" style="stroke:#009af9; stroke-linecap:round; stroke-linejoin:round; stroke-width:4; stroke-opacity:1; fill:none" points="196.118,1479.3 196.118,1427.05 "/>
<polyline clip-path="url(#clip372)" style="stroke:#009af9; stroke-linecap:round; stroke-linejoin:round; stroke-width:4; stroke-opacity:1; fill:none" points="218.618,1479.3 218.618,1377.7 "/>
<polyline clip-path="url(#clip372)" style="stroke:#009af9; stroke-linecap:round; stroke-linejoin:round; stroke-width:4; stroke-opacity:1; fill:none" points="241.118,1479.3 241.118,1309.96 "/>
<polyline clip-path="url(#clip372)" style="stroke:#009af9; stroke-linecap:round; stroke-linejoin:round; stroke-width:4; stroke-opacity:1; fill:none" points="263.618,1479.3 263.618,1225.29 "/>
<polyline clip-path="url(#clip372)" style="stroke:#009af9; stroke-linecap:round; stroke-linejoin:round; stroke-width:4; stroke-opacity:1; fill:none" points="286.118,1479.3 286.118,1126.51 "/>
<polyline clip-path="url(#clip372)" style="stroke:#009af9; stroke-linecap:round; stroke-linejoin:round; stroke-width:4; stroke-opacity:1; fill:none" points="308.618,1479.3 308.618,1017.32 "/>
<polyline clip-path="url(#clip372)" style="stroke:#009af9; stroke-linecap:round; stroke-linejoin:round; stroke-width:4; stroke-opacity:1; fill:none" points="331.119,1479.3 331.119,901.824 "/>
<polyline clip-path="url(#clip372)" style="stroke:#009af9; stroke-linecap:round; stroke-linejoin:round; stroke-width:4; stroke-opacity:1; fill:none" points="353.619,1479.3 353.619,784.19 "/>
<polyline clip-path="url(#clip372)" style="stroke:#009af9; stroke-linecap:round; stroke-linejoin:round; stroke-width:4; stroke-opacity:1; fill:none" points="376.119,1479.3 376.119,668.339 "/>
<polyline clip-path="url(#clip372)" style="stroke:#009af9; stroke-linecap:round; stroke-linejoin:round; stroke-width:4; stroke-opacity:1; fill:none" points="398.619,1479.3 398.619,557.754 "/>
<polyline clip-path="url(#clip372)" style="stroke:#009af9; stroke-linecap:round; stroke-linejoin:round; stroke-width:4; stroke-opacity:1; fill:none" points="421.119,1479.3 421.119,455.36 "/>
<polyline clip-path="url(#clip372)" style="stroke:#009af9; stroke-linecap:round; stroke-linejoin:round; stroke-width:4; stroke-opacity:1; fill:none" points="443.619,1479.3 443.619,363.468 "/>
<polyline clip-path="url(#clip372)" style="stroke:#009af9; stroke-linecap:round; stroke-linejoin:round; stroke-width:4; stroke-opacity:1; fill:none" points="466.119,1479.3 466.119,283.766 "/>
<polyline clip-path="url(#clip372)" style="stroke:#009af9; stroke-linecap:round; stroke-linejoin:round; stroke-width:4; stroke-opacity:1; fill:none" points="488.62,1479.3 488.62,217.347 "/>
<polyline clip-path="url(#clip372)" style="stroke:#009af9; stroke-linecap:round; stroke-linejoin:round; stroke-width:4; stroke-opacity:1; fill:none" points="511.12,1479.3 511.12,164.766 "/>
<polyline clip-path="url(#clip372)" style="stroke:#009af9; stroke-linecap:round; stroke-linejoin:round; stroke-width:4; stroke-opacity:1; fill:none" points="533.62,1479.3 533.62,126.103 "/>
<polyline clip-path="url(#clip372)" style="stroke:#009af9; stroke-linecap:round; stroke-linejoin:round; stroke-width:4; stroke-opacity:1; fill:none" points="556.12,1479.3 556.12,101.044 "/>
<polyline clip-path="url(#clip372)" style="stroke:#009af9; stroke-linecap:round; stroke-linejoin:round; stroke-width:4; stroke-opacity:1; fill:none" points="578.62,1479.3 578.62,88.9544 "/>
<polyline clip-path="url(#clip372)" style="stroke:#009af9; stroke-linecap:round; stroke-linejoin:round; stroke-width:4; stroke-opacity:1; fill:none" points="601.12,1479.3 601.12,88.9544 "/>
<polyline clip-path="url(#clip372)" style="stroke:#009af9; stroke-linecap:round; stroke-linejoin:round; stroke-width:4; stroke-opacity:1; fill:none" points="623.62,1479.3 623.62,99.9889 "/>
<polyline clip-path="url(#clip372)" style="stroke:#009af9; stroke-linecap:round; stroke-linejoin:round; stroke-width:4; stroke-opacity:1; fill:none" points="646.121,1479.3 646.121,120.887 "/>
<polyline clip-path="url(#clip372)" style="stroke:#009af9; stroke-linecap:round; stroke-linejoin:round; stroke-width:4; stroke-opacity:1; fill:none" points="668.621,1479.3 668.621,150.418 "/>
<polyline clip-path="url(#clip372)" style="stroke:#009af9; stroke-linecap:round; stroke-linejoin:round; stroke-width:4; stroke-opacity:1; fill:none" points="691.121,1479.3 691.121,187.331 "/>
<polyline clip-path="url(#clip372)" style="stroke:#009af9; stroke-linecap:round; stroke-linejoin:round; stroke-width:4; stroke-opacity:1; fill:none" points="713.621,1479.3 713.621,230.397 "/>
<polyline clip-path="url(#clip372)" style="stroke:#009af9; stroke-linecap:round; stroke-linejoin:round; stroke-width:4; stroke-opacity:1; fill:none" points="736.121,1479.3 736.121,278.432 "/>
<polyline clip-path="url(#clip372)" style="stroke:#009af9; stroke-linecap:round; stroke-linejoin:round; stroke-width:4; stroke-opacity:1; fill:none" points="758.621,1479.3 758.621,330.321 "/>
<polyline clip-path="url(#clip372)" style="stroke:#009af9; stroke-linecap:round; stroke-linejoin:round; stroke-width:4; stroke-opacity:1; fill:none" points="781.121,1479.3 781.121,385.034 "/>
<polyline clip-path="url(#clip372)" style="stroke:#009af9; stroke-linecap:round; stroke-linejoin:round; stroke-width:4; stroke-opacity:1; fill:none" points="803.621,1479.3 803.621,441.634 "/>
<polyline clip-path="url(#clip372)" style="stroke:#009af9; stroke-linecap:round; stroke-linejoin:round; stroke-width:4; stroke-opacity:1; fill:none" points="826.122,1479.3 826.122,499.282 "/>
<polyline clip-path="url(#clip372)" style="stroke:#009af9; stroke-linecap:round; stroke-linejoin:round; stroke-width:4; stroke-opacity:1; fill:none" points="848.622,1479.3 848.622,557.24 "/>
<polyline clip-path="url(#clip372)" style="stroke:#009af9; stroke-linecap:round; stroke-linejoin:round; stroke-width:4; stroke-opacity:1; fill:none" points="871.122,1479.3 871.122,614.868 "/>
<polyline clip-path="url(#clip372)" style="stroke:#009af9; stroke-linecap:round; stroke-linejoin:round; stroke-width:4; stroke-opacity:1; fill:none" points="893.622,1479.3 893.622,671.624 "/>
<polyline clip-path="url(#clip372)" style="stroke:#009af9; stroke-linecap:round; stroke-linejoin:round; stroke-width:4; stroke-opacity:1; fill:none" points="916.122,1479.3 916.122,727.052 "/>
<polyline clip-path="url(#clip372)" style="stroke:#009af9; stroke-linecap:round; stroke-linejoin:round; stroke-width:4; stroke-opacity:1; fill:none" points="938.622,1479.3 938.622,780.784 "/>
<polyline clip-path="url(#clip372)" style="stroke:#009af9; stroke-linecap:round; stroke-linejoin:round; stroke-width:4; stroke-opacity:1; fill:none" points="961.122,1479.3 961.122,832.526 "/>
<polyline clip-path="url(#clip372)" style="stroke:#009af9; stroke-linecap:round; stroke-linejoin:round; stroke-width:4; stroke-opacity:1; fill:none" points="983.623,1479.3 983.623,882.054 "/>
<polyline clip-path="url(#clip372)" style="stroke:#009af9; stroke-linecap:round; stroke-linejoin:round; stroke-width:4; stroke-opacity:1; fill:none" points="1006.12,1479.3 1006.12,929.204 "/>
<polyline clip-path="url(#clip372)" style="stroke:#009af9; stroke-linecap:round; stroke-linejoin:round; stroke-width:4; stroke-opacity:1; fill:none" points="1028.62,1479.3 1028.62,973.87 "/>
<polyline clip-path="url(#clip372)" style="stroke:#009af9; stroke-linecap:round; stroke-linejoin:round; stroke-width:4; stroke-opacity:1; fill:none" points="1051.12,1479.3 1051.12,1015.99 "/>
<polyline clip-path="url(#clip372)" style="stroke:#009af9; stroke-linecap:round; stroke-linejoin:round; stroke-width:4; stroke-opacity:1; fill:none" points="1073.62,1479.3 1073.62,1055.54 "/>
<polyline clip-path="url(#clip372)" style="stroke:#009af9; stroke-linecap:round; stroke-linejoin:round; stroke-width:4; stroke-opacity:1; fill:none" points="1096.12,1479.3 1096.12,1092.53 "/>
<polyline clip-path="url(#clip372)" style="stroke:#009af9; stroke-linecap:round; stroke-linejoin:round; stroke-width:4; stroke-opacity:1; fill:none" points="1118.62,1479.3 1118.62,1127.01 "/>
<polyline clip-path="url(#clip372)" style="stroke:#009af9; stroke-linecap:round; stroke-linejoin:round; stroke-width:4; stroke-opacity:1; fill:none" points="1141.12,1479.3 1141.12,1159.04 "/>
<polyline clip-path="url(#clip372)" style="stroke:#009af9; stroke-linecap:round; stroke-linejoin:round; stroke-width:4; stroke-opacity:1; fill:none" points="1163.62,1479.3 1163.62,1188.69 "/>
<polyline clip-path="url(#clip372)" style="stroke:#009af9; stroke-linecap:round; stroke-linejoin:round; stroke-width:4; stroke-opacity:1; fill:none" points="1186.12,1479.3 1186.12,1216.07 "/>
<polyline clip-path="url(#clip372)" style="stroke:#009af9; stroke-linecap:round; stroke-linejoin:round; stroke-width:4; stroke-opacity:1; fill:none" points="1208.62,1479.3 1208.62,1241.27 "/>
<polyline clip-path="url(#clip372)" style="stroke:#009af9; stroke-linecap:round; stroke-linejoin:round; stroke-width:4; stroke-opacity:1; fill:none" points="1231.12,1479.3 1231.12,1264.41 "/>
<polyline clip-path="url(#clip372)" style="stroke:#009af9; stroke-linecap:round; stroke-linejoin:round; stroke-width:4; stroke-opacity:1; fill:none" points="1253.62,1479.3 1253.62,1285.61 "/>
<polyline clip-path="url(#clip372)" style="stroke:#009af9; stroke-linecap:round; stroke-linejoin:round; stroke-width:4; stroke-opacity:1; fill:none" points="1276.12,1479.3 1276.12,1304.98 "/>
<polyline clip-path="url(#clip372)" style="stroke:#009af9; stroke-linecap:round; stroke-linejoin:round; stroke-width:4; stroke-opacity:1; fill:none" points="1298.62,1479.3 1298.62,1322.64 "/>
<polyline clip-path="url(#clip372)" style="stroke:#009af9; stroke-linecap:round; stroke-linejoin:round; stroke-width:4; stroke-opacity:1; fill:none" points="1321.12,1479.3 1321.12,1338.71 "/>
<polyline clip-path="url(#clip372)" style="stroke:#009af9; stroke-linecap:round; stroke-linejoin:round; stroke-width:4; stroke-opacity:1; fill:none" points="1343.62,1479.3 1343.62,1353.3 "/>
<polyline clip-path="url(#clip372)" style="stroke:#009af9; stroke-linecap:round; stroke-linejoin:round; stroke-width:4; stroke-opacity:1; fill:none" points="1366.12,1479.3 1366.12,1366.52 "/>
<polyline clip-path="url(#clip372)" style="stroke:#009af9; stroke-linecap:round; stroke-linejoin:round; stroke-width:4; stroke-opacity:1; fill:none" points="1388.63,1479.3 1388.63,1378.48 "/>
<polyline clip-path="url(#clip372)" style="stroke:#009af9; stroke-linecap:round; stroke-linejoin:round; stroke-width:4; stroke-opacity:1; fill:none" points="1411.13,1479.3 1411.13,1389.28 "/>
<polyline clip-path="url(#clip372)" style="stroke:#009af9; stroke-linecap:round; stroke-linejoin:round; stroke-width:4; stroke-opacity:1; fill:none" points="1433.63,1479.3 1433.63,1399.02 "/>
<polyline clip-path="url(#clip372)" style="stroke:#009af9; stroke-linecap:round; stroke-linejoin:round; stroke-width:4; stroke-opacity:1; fill:none" points="1456.13,1479.3 1456.13,1407.79 "/>
<polyline clip-path="url(#clip372)" style="stroke:#009af9; stroke-linecap:round; stroke-linejoin:round; stroke-width:4; stroke-opacity:1; fill:none" points="1478.63,1479.3 1478.63,1415.66 "/>
<polyline clip-path="url(#clip372)" style="stroke:#009af9; stroke-linecap:round; stroke-linejoin:round; stroke-width:4; stroke-opacity:1; fill:none" points="1501.13,1479.3 1501.13,1422.73 "/>
<polyline clip-path="url(#clip372)" style="stroke:#009af9; stroke-linecap:round; stroke-linejoin:round; stroke-width:4; stroke-opacity:1; fill:none" points="1523.63,1479.3 1523.63,1429.07 "/>
<polyline clip-path="url(#clip372)" style="stroke:#009af9; stroke-linecap:round; stroke-linejoin:round; stroke-width:4; stroke-opacity:1; fill:none" points="1546.13,1479.3 1546.13,1434.74 "/>
<polyline clip-path="url(#clip372)" style="stroke:#009af9; stroke-linecap:round; stroke-linejoin:round; stroke-width:4; stroke-opacity:1; fill:none" points="1568.63,1479.3 1568.63,1439.81 "/>
<polyline clip-path="url(#clip372)" style="stroke:#009af9; stroke-linecap:round; stroke-linejoin:round; stroke-width:4; stroke-opacity:1; fill:none" points="1591.13,1479.3 1591.13,1444.33 "/>
<polyline clip-path="url(#clip372)" style="stroke:#009af9; stroke-linecap:round; stroke-linejoin:round; stroke-width:4; stroke-opacity:1; fill:none" points="1613.63,1479.3 1613.63,1448.37 "/>
<polyline clip-path="url(#clip372)" style="stroke:#009af9; stroke-linecap:round; stroke-linejoin:round; stroke-width:4; stroke-opacity:1; fill:none" points="1636.13,1479.3 1636.13,1451.96 "/>
<polyline clip-path="url(#clip372)" style="stroke:#009af9; stroke-linecap:round; stroke-linejoin:round; stroke-width:4; stroke-opacity:1; fill:none" points="1658.63,1479.3 1658.63,1455.16 "/>
<polyline clip-path="url(#clip372)" style="stroke:#009af9; stroke-linecap:round; stroke-linejoin:round; stroke-width:4; stroke-opacity:1; fill:none" points="1681.13,1479.3 1681.13,1458 "/>
<polyline clip-path="url(#clip372)" style="stroke:#009af9; stroke-linecap:round; stroke-linejoin:round; stroke-width:4; stroke-opacity:1; fill:none" points="1703.63,1479.3 1703.63,1460.52 "/>
<polyline clip-path="url(#clip372)" style="stroke:#009af9; stroke-linecap:round; stroke-linejoin:round; stroke-width:4; stroke-opacity:1; fill:none" points="1726.13,1479.3 1726.13,1462.75 "/>
<polyline clip-path="url(#clip372)" style="stroke:#009af9; stroke-linecap:round; stroke-linejoin:round; stroke-width:4; stroke-opacity:1; fill:none" points="1748.63,1479.3 1748.63,1464.73 "/>
<polyline clip-path="url(#clip372)" style="stroke:#009af9; stroke-linecap:round; stroke-linejoin:round; stroke-width:4; stroke-opacity:1; fill:none" points="1771.13,1479.3 1771.13,1466.49 "/>
<polyline clip-path="url(#clip372)" style="stroke:#009af9; stroke-linecap:round; stroke-linejoin:round; stroke-width:4; stroke-opacity:1; fill:none" points="1793.63,1479.3 1793.63,1468.04 "/>
<polyline clip-path="url(#clip372)" style="stroke:#009af9; stroke-linecap:round; stroke-linejoin:round; stroke-width:4; stroke-opacity:1; fill:none" points="1816.13,1479.3 1816.13,1469.41 "/>
<polyline clip-path="url(#clip372)" style="stroke:#009af9; stroke-linecap:round; stroke-linejoin:round; stroke-width:4; stroke-opacity:1; fill:none" points="1838.63,1479.3 1838.63,1470.62 "/>
<polyline clip-path="url(#clip372)" style="stroke:#009af9; stroke-linecap:round; stroke-linejoin:round; stroke-width:4; stroke-opacity:1; fill:none" points="1861.13,1479.3 1861.13,1471.68 "/>
<polyline clip-path="url(#clip372)" style="stroke:#009af9; stroke-linecap:round; stroke-linejoin:round; stroke-width:4; stroke-opacity:1; fill:none" points="1883.63,1479.3 1883.63,1472.62 "/>
<polyline clip-path="url(#clip372)" style="stroke:#009af9; stroke-linecap:round; stroke-linejoin:round; stroke-width:4; stroke-opacity:1; fill:none" points="1906.13,1479.3 1906.13,1473.45 "/>
<polyline clip-path="url(#clip372)" style="stroke:#009af9; stroke-linecap:round; stroke-linejoin:round; stroke-width:4; stroke-opacity:1; fill:none" points="1928.63,1479.3 1928.63,1474.18 "/>
<polyline clip-path="url(#clip372)" style="stroke:#009af9; stroke-linecap:round; stroke-linejoin:round; stroke-width:4; stroke-opacity:1; fill:none" points="1951.13,1479.3 1951.13,1474.82 "/>
<polyline clip-path="url(#clip372)" style="stroke:#009af9; stroke-linecap:round; stroke-linejoin:round; stroke-width:4; stroke-opacity:1; fill:none" points="1973.63,1479.3 1973.63,1475.38 "/>
<polyline clip-path="url(#clip372)" style="stroke:#009af9; stroke-linecap:round; stroke-linejoin:round; stroke-width:4; stroke-opacity:1; fill:none" points="1996.13,1479.3 1996.13,1475.87 "/>
<polyline clip-path="url(#clip372)" style="stroke:#009af9; stroke-linecap:round; stroke-linejoin:round; stroke-width:4; stroke-opacity:1; fill:none" points="2018.63,1479.3 2018.63,1476.31 "/>
<polyline clip-path="url(#clip372)" style="stroke:#009af9; stroke-linecap:round; stroke-linejoin:round; stroke-width:4; stroke-opacity:1; fill:none" points="2041.13,1479.3 2041.13,1476.69 "/>
<polyline clip-path="url(#clip372)" style="stroke:#009af9; stroke-linecap:round; stroke-linejoin:round; stroke-width:4; stroke-opacity:1; fill:none" points="2063.63,1479.3 2063.63,1477.02 "/>
<polyline clip-path="url(#clip372)" style="stroke:#009af9; stroke-linecap:round; stroke-linejoin:round; stroke-width:4; stroke-opacity:1; fill:none" points="2086.13,1479.3 2086.13,1477.31 "/>
<polyline clip-path="url(#clip372)" style="stroke:#009af9; stroke-linecap:round; stroke-linejoin:round; stroke-width:4; stroke-opacity:1; fill:none" points="2108.63,1479.3 2108.63,1477.57 "/>
<polyline clip-path="url(#clip372)" style="stroke:#009af9; stroke-linecap:round; stroke-linejoin:round; stroke-width:4; stroke-opacity:1; fill:none" points="2131.13,1479.3 2131.13,1477.79 "/>
<polyline clip-path="url(#clip372)" style="stroke:#009af9; stroke-linecap:round; stroke-linejoin:round; stroke-width:4; stroke-opacity:1; fill:none" points="2153.63,1479.3 2153.63,1477.98 "/>
<polyline clip-path="url(#clip372)" style="stroke:#009af9; stroke-linecap:round; stroke-linejoin:round; stroke-width:4; stroke-opacity:1; fill:none" points="2176.13,1479.3 2176.13,1478.15 "/>
<polyline clip-path="url(#clip372)" style="stroke:#009af9; stroke-linecap:round; stroke-linejoin:round; stroke-width:4; stroke-opacity:1; fill:none" points="2198.63,1479.3 2198.63,1478.3 "/>
<polyline clip-path="url(#clip372)" style="stroke:#009af9; stroke-linecap:round; stroke-linejoin:round; stroke-width:4; stroke-opacity:1; fill:none" points="2221.13,1479.3 2221.13,1478.43 "/>
<polyline clip-path="url(#clip372)" style="stroke:#009af9; stroke-linecap:round; stroke-linejoin:round; stroke-width:4; stroke-opacity:1; fill:none" points="2243.63,1479.3 2243.63,1478.55 "/>
<polyline clip-path="url(#clip372)" style="stroke:#009af9; stroke-linecap:round; stroke-linejoin:round; stroke-width:4; stroke-opacity:1; fill:none" points="2266.13,1479.3 2266.13,1478.64 "/>
<polyline clip-path="url(#clip372)" style="stroke:#009af9; stroke-linecap:round; stroke-linejoin:round; stroke-width:4; stroke-opacity:1; fill:none" points="2288.63,1479.3 2288.63,1478.73 "/>
<path clip-path="url(#clip370)" d="M1465.82 200.05 L2277.23 200.05 L2277.23 96.3696 L1465.82 96.3696  Z" fill="#ffffff" fill-rule="evenodd" fill-opacity="1"/>
<polyline clip-path="url(#clip370)" style="stroke:#000000; stroke-linecap:round; stroke-linejoin:round; stroke-width:4; stroke-opacity:1; fill:none" points="1465.82,200.05 2277.23,200.05 2277.23,96.3696 1465.82,96.3696 1465.82,200.05 "/>
<polyline clip-path="url(#clip370)" style="stroke:#009af9; stroke-linecap:round; stroke-linejoin:round; stroke-width:4; stroke-opacity:1; fill:none" points="1490.99,148.21 1642.05,148.21 "/>
<path clip-path="url(#clip370)" d="M1667.22 130.93 L1673.52 130.93 L1688.84 159.841 L1688.84 130.93 L1693.38 130.93 L1693.38 165.49 L1687.08 165.49 L1671.76 136.578 L1671.76 165.49 L1667.22 165.49 L1667.22 130.93 Z" fill="#000000" fill-rule="nonzero" fill-opacity="1" /><path clip-path="url(#clip370)" d="M1724.67 151.462 L1724.67 153.545 L1705.09 153.545 Q1705.37 157.943 1707.73 160.258 Q1710.11 162.55 1714.35 162.55 Q1716.8 162.55 1719.1 161.948 Q1721.41 161.346 1723.68 160.142 L1723.68 164.17 Q1721.39 165.142 1718.98 165.652 Q1716.57 166.161 1714.1 166.161 Q1707.89 166.161 1704.26 162.55 Q1700.65 158.939 1700.65 152.781 Q1700.65 146.416 1704.07 142.689 Q1707.52 138.939 1713.35 138.939 Q1718.59 138.939 1721.62 142.318 Q1724.67 145.675 1724.67 151.462 M1720.41 150.212 Q1720.37 146.717 1718.45 144.633 Q1716.55 142.55 1713.4 142.55 Q1709.84 142.55 1707.68 144.564 Q1705.55 146.578 1705.23 150.235 L1720.41 150.212 Z" fill="#000000" fill-rule="nonzero" fill-opacity="1" /><path clip-path="url(#clip370)" d="M1748.72 152.226 Q1748.72 147.596 1746.8 145.05 Q1744.91 142.504 1741.46 142.504 Q1738.03 142.504 1736.11 145.05 Q1734.21 147.596 1734.21 152.226 Q1734.21 156.832 1736.11 159.378 Q1738.03 161.925 1741.46 161.925 Q1744.91 161.925 1746.8 159.378 Q1748.72 156.832 1748.72 152.226 M1752.98 162.272 Q1752.98 168.892 1750.04 172.11 Q1747.1 175.351 1741.04 175.351 Q1738.79 175.351 1736.8 175.003 Q1734.81 174.679 1732.94 173.985 L1732.94 169.841 Q1734.81 170.86 1736.64 171.346 Q1738.47 171.832 1740.37 171.832 Q1744.56 171.832 1746.64 169.633 Q1748.72 167.457 1748.72 163.036 L1748.72 160.929 Q1747.41 163.221 1745.35 164.355 Q1743.28 165.49 1740.41 165.49 Q1735.65 165.49 1732.73 161.855 Q1729.81 158.221 1729.81 152.226 Q1729.81 146.207 1732.73 142.573 Q1735.65 138.939 1740.41 138.939 Q1743.28 138.939 1745.35 140.073 Q1747.41 141.207 1748.72 143.499 L1748.72 139.564 L1752.98 139.564 L1752.98 162.272 Z" fill="#000000" fill-rule="nonzero" fill-opacity="1" /><path clip-path="url(#clip370)" d="M1773.54 152.457 Q1768.38 152.457 1766.39 153.638 Q1764.4 154.818 1764.4 157.666 Q1764.4 159.934 1765.88 161.277 Q1767.38 162.596 1769.95 162.596 Q1773.49 162.596 1775.62 160.096 Q1777.78 157.573 1777.78 153.406 L1777.78 152.457 L1773.54 152.457 M1782.03 150.698 L1782.03 165.49 L1777.78 165.49 L1777.78 161.554 Q1776.32 163.915 1774.14 165.05 Q1771.97 166.161 1768.82 166.161 Q1764.84 166.161 1762.47 163.939 Q1760.14 161.693 1760.14 157.943 Q1760.14 153.568 1763.05 151.346 Q1765.99 149.124 1771.8 149.124 L1777.78 149.124 L1777.78 148.707 Q1777.78 145.767 1775.83 144.17 Q1773.91 142.55 1770.41 142.55 Q1768.19 142.55 1766.09 143.082 Q1763.98 143.615 1762.03 144.679 L1762.03 140.744 Q1764.37 139.842 1766.57 139.402 Q1768.77 138.939 1770.85 138.939 Q1776.48 138.939 1779.26 141.855 Q1782.03 144.772 1782.03 150.698 Z" fill="#000000" fill-rule="nonzero" fill-opacity="1" /><path clip-path="url(#clip370)" d="M1795.02 132.203 L1795.02 139.564 L1803.79 139.564 L1803.79 142.874 L1795.02 142.874 L1795.02 156.948 Q1795.02 160.119 1795.88 161.022 Q1796.76 161.925 1799.42 161.925 L1803.79 161.925 L1803.79 165.49 L1799.42 165.49 Q1794.49 165.49 1792.61 163.661 Q1790.74 161.809 1790.74 156.948 L1790.74 142.874 L1787.61 142.874 L1787.61 139.564 L1790.74 139.564 L1790.74 132.203 L1795.02 132.203 Z" fill="#000000" fill-rule="nonzero" fill-opacity="1" /><path clip-path="url(#clip370)" d="M1809.4 139.564 L1813.65 139.564 L1813.65 165.49 L1809.4 165.49 L1809.4 139.564 M1809.4 129.471 L1813.65 129.471 L1813.65 134.865 L1809.4 134.865 L1809.4 129.471 Z" fill="#000000" fill-rule="nonzero" fill-opacity="1" /><path clip-path="url(#clip370)" d="M1819.51 139.564 L1824.03 139.564 L1832.13 161.323 L1840.23 139.564 L1844.74 139.564 L1835.02 165.49 L1829.23 165.49 L1819.51 139.564 Z" fill="#000000" fill-rule="nonzero" fill-opacity="1" /><path clip-path="url(#clip370)" d="M1872.8 151.462 L1872.8 153.545 L1853.21 153.545 Q1853.49 157.943 1855.85 160.258 Q1858.24 162.55 1862.47 162.55 Q1864.93 162.55 1867.22 161.948 Q1869.53 161.346 1871.8 160.142 L1871.8 164.17 Q1869.51 165.142 1867.1 165.652 Q1864.7 166.161 1862.22 166.161 Q1856.02 166.161 1852.38 162.55 Q1848.77 158.939 1848.77 152.781 Q1848.77 146.416 1852.2 142.689 Q1855.65 138.939 1861.48 138.939 Q1866.71 138.939 1869.74 142.318 Q1872.8 145.675 1872.8 151.462 M1868.54 150.212 Q1868.49 146.717 1866.57 144.633 Q1864.67 142.55 1861.52 142.55 Q1857.96 142.55 1855.81 144.564 Q1853.68 146.578 1853.35 150.235 L1868.54 150.212 Z" fill="#000000" fill-rule="nonzero" fill-opacity="1" /><path clip-path="url(#clip370)" d="M1884.65 148.985 L1884.65 161.647 L1892.15 161.647 Q1895.92 161.647 1897.73 160.096 Q1899.56 158.522 1899.56 155.304 Q1899.56 152.064 1897.73 150.536 Q1895.92 148.985 1892.15 148.985 L1884.65 148.985 M1884.65 134.772 L1884.65 145.189 L1891.57 145.189 Q1895 145.189 1896.66 143.916 Q1898.35 142.619 1898.35 139.98 Q1898.35 137.365 1896.66 136.068 Q1895 134.772 1891.57 134.772 L1884.65 134.772 M1879.97 130.93 L1891.92 130.93 Q1897.27 130.93 1900.16 133.152 Q1903.05 135.374 1903.05 139.471 Q1903.05 142.642 1901.57 144.517 Q1900.09 146.392 1897.22 146.855 Q1900.67 147.596 1902.57 149.957 Q1904.49 152.295 1904.49 155.814 Q1904.49 160.443 1901.34 162.966 Q1898.19 165.49 1892.38 165.49 L1879.97 165.49 L1879.97 130.93 Z" fill="#000000" fill-rule="nonzero" fill-opacity="1" /><path clip-path="url(#clip370)" d="M1912.31 139.564 L1916.57 139.564 L1916.57 165.49 L1912.31 165.49 L1912.31 139.564 M1912.31 129.471 L1916.57 129.471 L1916.57 134.865 L1912.31 134.865 L1912.31 129.471 Z" fill="#000000" fill-rule="nonzero" fill-opacity="1" /><path clip-path="url(#clip370)" d="M1947.03 149.841 L1947.03 165.49 L1942.77 165.49 L1942.77 149.98 Q1942.77 146.3 1941.34 144.471 Q1939.9 142.642 1937.03 142.642 Q1933.58 142.642 1931.59 144.842 Q1929.6 147.041 1929.6 150.837 L1929.6 165.49 L1925.32 165.49 L1925.32 139.564 L1929.6 139.564 L1929.6 143.592 Q1931.13 141.254 1933.19 140.096 Q1935.27 138.939 1937.98 138.939 Q1942.45 138.939 1944.74 141.717 Q1947.03 144.471 1947.03 149.841 Z" fill="#000000" fill-rule="nonzero" fill-opacity="1" /><path clip-path="url(#clip370)" d="M1965.58 142.55 Q1962.15 142.55 1960.16 145.235 Q1958.17 147.897 1958.17 152.55 Q1958.17 157.203 1960.14 159.888 Q1962.13 162.55 1965.58 162.55 Q1968.98 162.55 1970.97 159.865 Q1972.96 157.179 1972.96 152.55 Q1972.96 147.943 1970.97 145.258 Q1968.98 142.55 1965.58 142.55 M1965.58 138.939 Q1971.13 138.939 1974.3 142.55 Q1977.47 146.161 1977.47 152.55 Q1977.47 158.916 1974.3 162.55 Q1971.13 166.161 1965.58 166.161 Q1960 166.161 1956.83 162.55 Q1953.68 158.916 1953.68 152.55 Q1953.68 146.161 1956.83 142.55 Q1960 138.939 1965.58 138.939 Z" fill="#000000" fill-rule="nonzero" fill-opacity="1" /><path clip-path="url(#clip370)" d="M2004.72 144.541 Q2006.32 141.67 2008.54 140.305 Q2010.76 138.939 2013.77 138.939 Q2017.82 138.939 2020.02 141.786 Q2022.22 144.61 2022.22 149.841 L2022.22 165.49 L2017.94 165.49 L2017.94 149.98 Q2017.94 146.254 2016.62 144.448 Q2015.3 142.642 2012.59 142.642 Q2009.28 142.642 2007.36 144.842 Q2005.44 147.041 2005.44 150.837 L2005.44 165.49 L2001.15 165.49 L2001.15 149.98 Q2001.15 146.23 1999.83 144.448 Q1998.51 142.642 1995.76 142.642 Q1992.5 142.642 1990.58 144.865 Q1988.65 147.064 1988.65 150.837 L1988.65 165.49 L1984.37 165.49 L1984.37 139.564 L1988.65 139.564 L1988.65 143.592 Q1990.11 141.207 1992.15 140.073 Q1994.19 138.939 1996.99 138.939 Q1999.81 138.939 2001.78 140.374 Q2003.77 141.809 2004.72 144.541 Z" fill="#000000" fill-rule="nonzero" fill-opacity="1" /><path clip-path="url(#clip370)" d="M2030.71 139.564 L2034.97 139.564 L2034.97 165.49 L2030.71 165.49 L2030.71 139.564 M2030.71 129.471 L2034.97 129.471 L2034.97 134.865 L2030.71 134.865 L2030.71 129.471 Z" fill="#000000" fill-rule="nonzero" fill-opacity="1" /><path clip-path="url(#clip370)" d="M2055.67 152.457 Q2050.51 152.457 2048.51 153.638 Q2046.52 154.818 2046.52 157.666 Q2046.52 159.934 2048.01 161.277 Q2049.51 162.596 2052.08 162.596 Q2055.62 162.596 2057.75 160.096 Q2059.9 157.573 2059.9 153.406 L2059.9 152.457 L2055.67 152.457 M2064.16 150.698 L2064.16 165.49 L2059.9 165.49 L2059.9 161.554 Q2058.45 163.915 2056.27 165.05 Q2054.09 166.161 2050.95 166.161 Q2046.96 166.161 2044.6 163.939 Q2042.26 161.693 2042.26 157.943 Q2042.26 153.568 2045.18 151.346 Q2048.12 149.124 2053.93 149.124 L2059.9 149.124 L2059.9 148.707 Q2059.9 145.767 2057.96 144.17 Q2056.04 142.55 2052.54 142.55 Q2050.32 142.55 2048.21 143.082 Q2046.11 143.615 2044.16 144.679 L2044.16 140.744 Q2046.5 139.842 2048.7 139.402 Q2050.9 138.939 2052.98 138.939 Q2058.61 138.939 2061.39 141.855 Q2064.16 144.772 2064.16 150.698 Z" fill="#000000" fill-rule="nonzero" fill-opacity="1" /><path clip-path="url(#clip370)" d="M2072.94 129.471 L2077.2 129.471 L2077.2 165.49 L2072.94 165.49 L2072.94 129.471 Z" fill="#000000" fill-rule="nonzero" fill-opacity="1" /><path clip-path="url(#clip370)" d="M2096.34 129.518 Q2093.24 134.842 2091.73 140.05 Q2090.23 145.258 2090.23 150.605 Q2090.23 155.953 2091.73 161.207 Q2093.26 166.439 2096.34 171.74 L2092.63 171.74 Q2089.16 166.3 2087.43 161.045 Q2085.71 155.791 2085.71 150.605 Q2085.71 145.443 2087.43 140.212 Q2089.14 134.98 2092.63 129.518 L2096.34 129.518 Z" fill="#000000" fill-rule="nonzero" fill-opacity="1" /><path clip-path="url(#clip370)" d="M2105.25 130.93 L2123.61 130.93 L2123.61 134.865 L2109.53 134.865 L2109.53 143.337 Q2110.55 142.99 2111.57 142.828 Q2112.59 142.642 2113.61 142.642 Q2119.39 142.642 2122.77 145.814 Q2126.15 148.985 2126.15 154.402 Q2126.15 159.98 2122.68 163.082 Q2119.21 166.161 2112.89 166.161 Q2110.71 166.161 2108.44 165.79 Q2106.2 165.42 2103.79 164.679 L2103.79 159.98 Q2105.88 161.115 2108.1 161.67 Q2110.32 162.226 2112.8 162.226 Q2116.8 162.226 2119.14 160.119 Q2121.48 158.013 2121.48 154.402 Q2121.48 150.791 2119.14 148.684 Q2116.8 146.578 2112.8 146.578 Q2110.92 146.578 2109.05 146.994 Q2107.19 147.411 2105.25 148.291 L2105.25 130.93 Z" fill="#000000" fill-rule="nonzero" fill-opacity="1" /><path clip-path="url(#clip370)" d="M2135.85 159.61 L2140.74 159.61 L2140.74 163.591 L2136.94 170.999 L2133.95 170.999 L2135.85 163.591 L2135.85 159.61 Z" fill="#000000" fill-rule="nonzero" fill-opacity="1" /><path clip-path="url(#clip370)" d="M2151.25 161.554 L2158.88 161.554 L2158.88 135.189 L2150.57 136.855 L2150.57 132.596 L2158.84 130.93 L2163.51 130.93 L2163.51 161.554 L2171.15 161.554 L2171.15 165.49 L2151.25 165.49 L2151.25 161.554 Z" fill="#000000" fill-rule="nonzero" fill-opacity="1" /><path clip-path="url(#clip370)" d="M2187.56 130.93 L2191.5 130.93 L2179.46 169.888 L2175.53 169.888 L2187.56 130.93 Z" fill="#000000" fill-rule="nonzero" fill-opacity="1" /><path clip-path="url(#clip370)" d="M2203.54 130.93 L2207.47 130.93 L2195.44 169.888 L2191.5 169.888 L2203.54 130.93 Z" fill="#000000" fill-rule="nonzero" fill-opacity="1" /><path clip-path="url(#clip370)" d="M2223.12 146.346 Q2219.97 146.346 2218.12 148.499 Q2216.29 150.652 2216.29 154.402 Q2216.29 158.128 2218.12 160.304 Q2219.97 162.457 2223.12 162.457 Q2226.27 162.457 2228.1 160.304 Q2229.95 158.128 2229.95 154.402 Q2229.95 150.652 2228.1 148.499 Q2226.27 146.346 2223.12 146.346 M2232.4 131.693 L2232.4 135.953 Q2230.64 135.119 2228.84 134.68 Q2227.06 134.24 2225.3 134.24 Q2220.67 134.24 2218.21 137.365 Q2215.78 140.49 2215.44 146.809 Q2216.8 144.795 2218.86 143.73 Q2220.92 142.642 2223.4 142.642 Q2228.61 142.642 2231.62 145.814 Q2234.65 148.962 2234.65 154.402 Q2234.65 159.726 2231.5 162.943 Q2228.35 166.161 2223.12 166.161 Q2217.12 166.161 2213.95 161.578 Q2210.78 156.971 2210.78 148.244 Q2210.78 140.05 2214.67 135.189 Q2218.56 130.305 2225.11 130.305 Q2226.87 130.305 2228.65 130.652 Q2230.46 130.999 2232.4 131.693 Z" fill="#000000" fill-rule="nonzero" fill-opacity="1" /><path clip-path="url(#clip370)" d="M2241.43 129.518 L2245.13 129.518 Q2248.61 134.98 2250.32 140.212 Q2252.06 145.443 2252.06 150.605 Q2252.06 155.791 2250.32 161.045 Q2248.61 166.3 2245.13 171.74 L2241.43 171.74 Q2244.51 166.439 2246.01 161.207 Q2247.54 155.953 2247.54 150.605 Q2247.54 145.258 2246.01 140.05 Q2244.51 134.842 2241.43 129.518 Z" fill="#000000" fill-rule="nonzero" fill-opacity="1" /></svg>
